<svg xmlns="http://www.w3.org/2000/svg" width="56" height="232"><defs><clipPath id="b"><path d="M36 112l4 4v26l-4 4H20l-4-4v-26l4-4z" fill="#515151" stroke-width="11.471" stroke-miterlimit="10" stroke-opacity=".49"/></clipPath><clipPath id="a"><path d="M18 158l-4 4v59.82l4 4.18v20h20v-20l4-4v-32h4l.117-24H42v-4l-4-4z" fill="#273723" stroke-width="10.001" stroke-miterlimit="10" stroke-opacity=".49"/></clipPath></defs><path d="M18 158l-4 4v59.82l4 4.18v20h20v-20l4-4v-32h4l.117-24H42v-4l-4-4z" clip-path="url(#a)" fill="#273723" stroke-width="16" stroke-miterlimit="10" stroke="#000"/><path d="M36 198v-4h12v4zM18 158V92l4-4h12l4 4v66z"/><path d="M22 158V88h12v70z" fill="#1e2a1b"/><path d="M22 238v-32h12v32z" fill="#242424"/><path d="M36 112l4 4v26l-4 4H20l-4-4v-26l4-4z" clip-path="url(#b)" transform="translate(0 -2)" fill="#515151" stroke="#000" stroke-width="16" stroke-miterlimit="10"/><path d="M20 121.013h16M20 127.013h16M20 133.013h16" fill="none" stroke="#000" stroke-width="3"/><path d="M22 94V40.833h12V94z"/><path d="M22 45.833h12l4 2v12H18v-12z" fill="#0d100d"/><path fill="#43603d" d="M34 174h4v8h-4z"/></svg>