<?xml version="1.0" encoding="UTF-8" standalone="no"?>
<svg
   xmlns:dc="http://purl.org/dc/elements/1.1/"
   xmlns:cc="http://creativecommons.org/ns#"
   xmlns:rdf="http://www.w3.org/1999/02/22-rdf-syntax-ns#"
   xmlns:svg="http://www.w3.org/2000/svg"
   xmlns="http://www.w3.org/2000/svg"
   xmlns:sodipodi="http://sodipodi.sourceforge.net/DTD/sodipodi-0.dtd"
   xmlns:inkscape="http://www.inkscape.org/namespaces/inkscape"
   width="48"
   height="232"
   version="1.1"
   id="svg854"
   sodipodi:docname="gun-garand-01.svg"
   inkscape:version="0.92.2 (5c3e80d, 2017-08-06)">
  <metadata
     id="metadata858">
    <rdf:RDF>
      <cc:Work
         rdf:about="">
        <dc:format>image/svg+xml</dc:format>
        <dc:type
           rdf:resource="http://purl.org/dc/dcmitype/StillImage" />
        <dc:title></dc:title>
      </cc:Work>
    </rdf:RDF>
  </metadata>
  <sodipodi:namedview
     pagecolor="#ffffff"
     bordercolor="#666666"
     borderopacity="1"
     objecttolerance="10"
     gridtolerance="10"
     guidetolerance="10"
     inkscape:pageopacity="0"
     inkscape:pageshadow="2"
     inkscape:window-width="1920"
     inkscape:window-height="1017"
     id="namedview856"
     showgrid="true"
     fit-margin-top="1"
     fit-margin-left="1"
     fit-margin-bottom="1"
     fit-margin-right="1"
     inkscape:zoom="2.8785371"
     inkscape:cx="45.441803"
     inkscape:cy="108.35711"
     inkscape:window-x="1912"
     inkscape:window-y="-8"
     inkscape:window-maximized="1"
     inkscape:current-layer="svg854"
     inkscape:showpageshadow="false"
     inkscape:object-paths="true"
     inkscape:snap-intersection-paths="true"
     inkscape:snap-smooth-nodes="true"
     inkscape:snap-midpoints="true">
    <inkscape:grid
       type="xygrid"
       id="grid816"
       empspacing="4"
       spacingy="2"
       spacingx="2"
       originx="0"
       originy="0" />
  </sodipodi:namedview>
  <defs
     id="defs850">
    <clipPath
       clipPathUnits="userSpaceOnUse"
       id="clipPath854">
      <path
         sodipodi:nodetypes="ccccccccccccc"
         inkscape:connector-curvature="0"
         id="path856"
         d="m 34,40 v 56 l 2,4 v 68 l -6,4 v 22 H 18 v -22 l -6,-4 v -68 l 2,-4 V 40 Z"
         style="fill:#515151;stroke-width:10.00078678;stroke-miterlimit:10;stroke-opacity:0.49000005" />
    </clipPath>
    <clipPath
       clipPathUnits="userSpaceOnUse"
       id="clipPath862">
      <path
         sodipodi:nodetypes="ccccccccc"
         inkscape:connector-curvature="0"
         id="path864"
         d="M 35.470588,67.411765 37.764705,72 v 85.41177 L 30.882352,162 H 17.117647 l -6.882353,-4.58823 V 72 l 2.294118,-4.588235 z"
         style="fill:#515151;stroke-width:11.47149086;stroke-miterlimit:10;stroke-opacity:0.49000005" />
    </clipPath>
    <clipPath
       clipPathUnits="userSpaceOnUse"
       id="clipPath917">
      <path
         inkscape:connector-curvature="0"
         id="path919"
         d="m 24,9.9999981 c 7.479,0 13.5,12.9323089 13.5,28.9961399 V 165.00386 C 37.5,181.06769 31.479,194 24,194 16.521,194 10.5,181.06769 10.5,165.00386 V 38.996138 C 10.5,22.932307 16.521,9.9999981 24,9.9999981 Z"
         clip-path="none"
         style="fill:#7b673c;fill-opacity:1;stroke:none;stroke-width:7.8558445;stroke-miterlimit:10;stroke-dasharray:none;stroke-opacity:1" />
    </clipPath>
    <clipPath
       clipPathUnits="userSpaceOnUse"
       id="clipPath907">
      <path
         sodipodi:nodetypes="ccccccccccccccc"
         inkscape:connector-curvature="0"
         id="path909"
         d="m 30,40 4,4 v 36 l 2,4 v 96 l -2,1.47536 V 248 H 14 V 181.47536 L 12,180 V 84 l 2,-4 V 44 l 4,-4 z"
         style="fill:#515151;stroke-width:10.00078678;stroke-miterlimit:10;stroke-opacity:0.49000005" />
    </clipPath>
    <clipPath
       clipPathUnits="userSpaceOnUse"
       id="clipPath940">
      <rect
         style="fill:#353535;fill-opacity:1;stroke:none;stroke-width:18.05043411;stroke-linecap:round;stroke-linejoin:miter;stroke-miterlimit:10;stroke-dasharray:none;stroke-opacity:1"
         id="rect942"
         width="28"
         height="52"
         x="10"
         y="128" />
    </clipPath>
    <clipPath
       clipPathUnits="userSpaceOnUse"
       id="clipPath960">
      <path
         clip-path="none"
         style="fill:#515151;stroke-width:10.00078678;stroke-miterlimit:10;stroke-opacity:0.49000005"
         d="m 30,48 4,4 4,68 v 68 l -4,12 v 14 l 2,10 v 32 H 12 v -32 l 2,-10 v -14 l -4,-12 v -68 l 4,-68 4,-4 z"
         id="path962"
         inkscape:connector-curvature="0"
         sodipodi:nodetypes="ccccccccccccccccc" />
    </clipPath>
    <clipPath
       clipPathUnits="userSpaceOnUse"
       id="clipPath978">
      <path
         style="fill:#515151;stroke-width:10.00078678;stroke-miterlimit:10;stroke-opacity:0.49000005"
         clip-path="none"
         d="M 234.11719,84 232,120 v 32 h 28 v -32 l -2.11719,-36 z"
         id="path980"
         inkscape:connector-curvature="0" />
    </clipPath>
    <clipPath
       clipPathUnits="userSpaceOnUse"
       id="clipPath1007">
      <path
         sodipodi:nodetypes="ccccccccc"
         inkscape:connector-curvature="0"
         id="path1009"
         d="m 12,134 h 24 l 4,4 v 46 l -4,4 H 12 l -4,-4 v -46 z"
         style="fill:#353535;fill-opacity:1;stroke:none;stroke-width:18.05043411;stroke-linecap:round;stroke-linejoin:miter;stroke-miterlimit:10;stroke-dasharray:none;stroke-opacity:1" />
    </clipPath>
  </defs>
  <path
     sodipodi:nodetypes="ccccccccccccccccc"
     inkscape:connector-curvature="0"
     id="path958"
     d="m 30,48 4,4 4,68 v 68 l -4,12 v 14 l 2,10 v 32 H 12 v -32 l 2,-10 v -14 l -4,-12 v -68 l 4,-68 4,-4 z"
     style="fill:#48220b;stroke-width:16;stroke-miterlimit:10;stroke-opacity:1;stroke:#000000;stroke-dasharray:none;fill-opacity:1"
     clip-path="url(#clipPath960)" />
  <path
     id="path976"
     d="M 234.11719,84 232,120 v 32 h 28 v -32 l -2.11719,-36 z"
     clip-path="url(#clipPath978)"
     style="fill:#884115;stroke:#000000;stroke-width:16;stroke-miterlimit:10;stroke-dasharray:none;stroke-opacity:1;fill-opacity:1"
     inkscape:connector-curvature="0"
     transform="translate(-222)" />
  <path
     style="fill:#353535;fill-opacity:1;stroke:#000000;stroke-width:16;stroke-linecap:round;stroke-linejoin:miter;stroke-miterlimit:10;stroke-dasharray:none;stroke-opacity:1"
     d="m 12,134 h 24 l 4,4 v 46 l -4,4 H 12 l -4,-4 v -46 z"
     id="path1005"
     inkscape:connector-curvature="0"
     sodipodi:nodetypes="ccccccccc"
     clip-path="url(#clipPath1007)"
     transform="translate(0,3)" />
  <path
     style="fill:#000000;fill-opacity:1;stroke:none;stroke-width:14.19859123;stroke-linecap:round;stroke-linejoin:miter;stroke-miterlimit:4;stroke-dasharray:none;stroke-opacity:1"
     d="m 22,20 h 4 l 4,4 V 52 H 18 V 24 Z"
     id="rect897"
     inkscape:connector-curvature="0"
     sodipodi:nodetypes="ccccccc" />
  <rect
     style="fill:#1c1c1c;fill-opacity:1;stroke:none;stroke-width:12.09486294;stroke-linecap:round;stroke-linejoin:miter;stroke-miterlimit:10;stroke-dasharray:none;stroke-opacity:1"
     id="rect944"
     width="16"
     height="8"
     x="16"
     y="168" />
  <rect
     y="120"
     x="16"
     height="8"
     width="16"
     id="rect1030"
     style="fill:#000000;fill-opacity:1;stroke:none;stroke-width:12.09486294;stroke-linecap:round;stroke-linejoin:miter;stroke-miterlimit:10;stroke-dasharray:none;stroke-opacity:1" />
</svg>
