<svg xmlns="http://www.w3.org/2000/svg" xmlns:xlink="http://www.w3.org/1999/xlink" width="1696" height="1248" viewBox="0 0 448.733 330.2"><defs><pattern xlink:href="#a" id="h" patternTransform="translate(-320 320)"/><pattern xlink:href="#b" id="f" patternTransform="translate(-324.934 107.75) scale(.26458)"/><pattern xlink:href="#b" id="d" patternTransform="translate(-324.934 107.75) scale(.26458)"/><clipPath id="g"><path d="M672 0v1184h736V0zm160 448h416v224H832z" fill="#746952" stroke-width="59.727"/></clipPath><clipPath id="e"><path d="M132.266 158.55h76.2v-127h-76.2z" fill="#746952" stroke-width="15.803"/></clipPath><clipPath id="c"><path d="M-240.268-19.25v194.733h177.8V-19.25z" fill="#746952" stroke-width="15.803"/></clipPath><clipPath id="i"><path fill="#cfcfcf" stroke-width="1.497" d="M-384.201 82.35h25.4v50.8h-25.4z"/></clipPath><clipPath id="j"><path fill="#cfcfcf" stroke-width="1.497" d="M-384.201 82.35h25.4v50.8h-25.4z"/></clipPath><clipPath id="k"><path fill="#cfcfcf" stroke-width="1.497" d="M-384.201 82.35h25.4v50.8h-25.4z"/></clipPath><pattern patternUnits="userSpaceOnUse" width="192" height="104" patternTransform="translate(-324.934 67.533) scale(.26458)" id="a"><path fill="none" stroke-width="3.78" d="M0 0h192v104H0z"/><path fill="none" stroke-width="3.78" d="M0 0h192v104H0z"/><path fill="none" stroke-width="3.78" d="M0 0h192v104H0z"/><path fill="none" stroke-width="3.78" d="M0 0h192v104H0z"/><path transform="rotate(90)" fill="none" stroke-width="3.78" d="M0-192h104V0H0z"/><path d="M192 0v96H0V0z" fill="#986d33" stroke-width="16.035" stroke-miterlimit="10"/><path d="M0 96h192v8H0z" fill="#845f2d" stroke-width="1.549"/></pattern><pattern patternUnits="userSpaceOnUse" width="192" height="104" patternTransform="translate(-324.934 99.283) scale(.26458)" id="b"><path fill="none" stroke-width="3.78" d="M0 0h192v104H0z"/><path d="M192 0v96H0V0z" fill="#775529" stroke-width="16.035" stroke-miterlimit="10"/><path d="M0 96h192v8H0z" fill="#624721" stroke-width="1.549"/></pattern></defs><path d="M-240.268-19.25v194.733h177.8V-19.25z" clip-path="url(#c)" fill="url(#d)" stroke="#000" stroke-width="2.117" transform="translate(240.268 36.184)"/><path d="M132.266 158.55h76.2v-127h-76.2z" clip-path="url(#e)" fill="url(#f)" stroke="#000" stroke-width="2.117" transform="translate(240.268 36.184)"/><path transform="translate(0 16.933) scale(.26458)" d="M672 0v1184h736V0zm160 448h416v224H832z" clip-path="url(#g)" fill="url(#h)" stroke="#000" stroke-width="8"/><path fill="#b9e1ff" fill-opacity=".395" d="M220.134 135.467H330.2v59.267H220.134z"/><path d="M330.2 162.983l-31.75 31.75h6.35l25.4-25.4zm0-14.816l-46.567 46.566h11.642l34.925-34.925zm-110.067 19.05l31.75-31.75h-6.35l-25.4 25.4zm0 14.816l46.567-46.566h-11.642l-34.925 34.925z" fill="#ededed" fill-opacity=".396"/><path clip-path="url(#i)" transform="translate(409.601 23.484)" fill="#cfcfcf" stroke="#000" stroke-width="3.175" d="M-384.201 82.35h25.4v50.8h-25.4z"/><path d="M26.988 107.42L38.1 119.063l-11.112 12.171 11.112 12.17-11.112 11.642zm22.225 47.626L38.1 143.404l11.113-12.17L38.1 119.061l11.113-11.641z" fill="#939393"/><path d="M26.988 131.233h22.225" fill="none" stroke="#939393" stroke-width="1.335"/><path clip-path="url(#j)" transform="translate(782.134 23.484)" fill="#cfcfcf" stroke="#000" stroke-width="3.175" d="M-384.201 82.35h25.4v50.8h-25.4z"/><path d="M399.52 107.42l11.113 11.642-11.112 12.171 11.112 12.171-11.112 11.642zm22.226 47.626l-11.113-11.642 11.113-12.17-11.113-12.172 11.113-11.641z" fill="#939393"/><path d="M399.52 131.233h22.226" fill="none" stroke="#939393" stroke-width="1.335"/><path clip-path="url(#k)" transform="rotate(90 -133.992 516.909)" fill="#cfcfcf" stroke="#000" stroke-width="3.175" d="M-384.201 82.35h25.4v50.8h-25.4z"/><path d="M298.98 268.287L287.337 279.4l-12.171-11.113-12.171 11.113-11.642-11.113zm-47.626 22.225l11.642-11.112 12.17 11.112 12.172-11.112 11.641 11.112z" fill="#939393"/><path d="M275.167 268.287v22.225" fill="none" stroke="#939393" stroke-width="1.335"/></svg>