<?xml version="1.0" encoding="UTF-8" standalone="no"?>
<svg width="704.07874" height="1439.9321" version="1.1" id="svg29" sodipodi:docname="map-building-police-ceiling-02.svg" inkscape:version="1.4 (e7c3feb100, 2024-10-09)" xmlns:inkscape="http://www.inkscape.org/namespaces/inkscape" xmlns:sodipodi="http://sodipodi.sourceforge.net/DTD/sodipodi-0.dtd" xmlns:xlink="http://www.w3.org/1999/xlink" xmlns="http://www.w3.org/2000/svg" xmlns:svg="http://www.w3.org/2000/svg">
  <sodipodi:namedview id="namedview29" pagecolor="#ffffff" bordercolor="#000000" borderopacity="0.25" inkscape:showpageshadow="2" inkscape:pageopacity="0.0" inkscape:pagecheckerboard="0" inkscape:deskcolor="#d1d1d1" inkscape:zoom="0.19813721" inkscape:cx="2195.4483" inkscape:cy="-663.68149" inkscape:current-layer="svg29" />
  <defs id="defs18">
    <pattern xlink:href="#a" id="T" patternTransform="translate(2112.022 1040.948)" />
    <pattern xlink:href="#b" id="a" patternTransform="translate(2112.022 1040.948)" />
    <pattern xlink:href="#c" id="S" patternTransform="translate(403.126 209.445) scale(.26458)" />
    <pattern xlink:href="#d" id="c" patternTransform="translate(403.126 209.445) scale(.26458)" />
    <pattern xlink:href="#e" id="d" patternTransform="translate(2112 1088)" />
    <pattern xlink:href="#f" id="R" patternTransform="translate(403.13 209.449) scale(.26458)" />
    <pattern xlink:href="#g" id="f" patternTransform="translate(2112.018 1088.014)" />
    <pattern xlink:href="#h" id="g" patternTransform="translate(403.13 209.449) scale(.26458)" />
    <pattern xlink:href="#i" id="h" patternTransform="translate(542.835 230.59) scale(.26458)" />
    <pattern xlink:href="#j" id="i" patternTransform="translate(2640.035 1167.92)" />
    <pattern xlink:href="#k" id="Q" patternTransform="translate(326.962 217.839) scale(.26458)" />
    <pattern xlink:href="#l" id="k" patternTransform="translate(1824.139 1119.724)" />
    <pattern xlink:href="#m" id="P" patternTransform="translate(403.126 268.712) scale(.26458)" />
    <pattern xlink:href="#n" id="m" patternTransform="translate(2112 1312)" />
    <pattern xlink:href="#o" id="n" patternTransform="translate(403.126 268.712) scale(.26458)" />
    <pattern xlink:href="#p" id="b" patternTransform="translate(2112.022 1040.948)" />
    <pattern xlink:href="#q" id="p" patternTransform="translate(2320 1311.993)" />
    <pattern xlink:href="#r" id="O" patternTransform="translate(428.458 217.973) scale(.26458)" />
    <pattern xlink:href="#s" id="r" patternTransform="translate(2207.744 1120.233)" />
    <pattern xlink:href="#t" id="s" patternTransform="translate(428.458 217.973) scale(.26458)" />
    <pattern xlink:href="#u" id="t" patternTransform="translate(2239.744 1088.233)" />
    <pattern xlink:href="#v" id="j" patternTransform="translate(542.835 230.59) scale(.26458)" />
    <pattern xlink:href="#w" id="v" patternTransform="translate(2720.07 1311.956)" />
    <pattern xlink:href="#x" id="l" patternTransform="translate(326.962 217.839) scale(.26458)" />
    <pattern xlink:href="#y" id="x" patternTransform="translate(1824.139 1215.67)" />
    <pattern xlink:href="#z" id="o" patternTransform="translate(420.06 260.245) scale(.26458)" />
    <pattern xlink:href="#A" id="z" patternTransform="translate(2176 1280)" />
    <pattern xlink:href="#B" id="y" patternTransform="translate(326.963 243.224) scale(.26458)" />
    <pattern xlink:href="#C" id="B" patternTransform="translate(1760.07 1295.826)" />
    <pattern xlink:href="#D" id="u" patternTransform="translate(436.925 209.506) scale(.26458)" />
    <pattern xlink:href="#E" id="D" patternTransform="translate(2255.744 1088.233)" />
    <pattern xlink:href="#F" id="E" patternTransform="translate(441.158 209.506) scale(.26458)" />
    <pattern xlink:href="#G" id="q" patternTransform="translate(458.16 268.71) scale(.26458)" />
    <pattern xlink:href="#H" id="G" patternTransform="translate(2160 1247.993)" />
    <pattern xlink:href="#F" id="H" patternTransform="translate(415.826 251.776) scale(.26458)" />
    <pattern xlink:href="#I" id="C" patternTransform="translate(310.01 264.432) scale(.26458)" />
    <pattern xlink:href="#J" id="I" patternTransform="translate(1920.139 1167.993)" />
    <pattern xlink:href="#F" id="J" patternTransform="translate(352.363 230.61) scale(.26458)" />
    <pattern xlink:href="#K" id="w" patternTransform="translate(564.01 268.7) scale(.26458)" />
    <pattern xlink:href="#L" id="K" patternTransform="translate(2240.07 1119.715)" />
    <pattern xlink:href="#F" id="L" patternTransform="translate(437.01 217.836) scale(.26458)" />
    <pattern xlink:href="#M" id="A" patternTransform="translate(420.06 260.245) scale(.26458)" />
    <pattern xlink:href="#N" id="M" patternTransform="translate(2208 1198)" />
    <pattern xlink:href="#F" id="N" patternTransform="translate(428.526 238.55) scale(.26458)" />
    <pattern patternUnits="userSpaceOnUse" width="160" height="160" patternTransform="translate(403.126 209.445) scale(.26458)" id="F">
      <path fill="none" stroke-width="1.89" d="M0 0h160v160H0z" id="path1" />
      <path fill="#665a4e" stroke-width="18.898" stroke-miterlimit="10" d="M0 0h160v160H0z" id="path2" />
      <path fill-opacity=".354" stroke-width="6.158" stroke-miterlimit="10" d="M40 0h2v160h-2zM0 0h2v160H0z" id="path3" />
      <path transform="rotate(90)" fill-opacity=".354" stroke-width="3.001" stroke-miterlimit="10" d="M0-40h2v38H0zm120-40h2v38h-2z" id="path4" />
      <path fill-opacity=".354" stroke-width="6.158" stroke-miterlimit="10" d="M80 0h2v160h-2zm40 0h2v160h-2z" id="path5" />
      <path transform="rotate(90)" fill-opacity=".354" stroke-width="3.001" stroke-miterlimit="10" d="M40-120h2v38h-2zm40-40h2v38h-2z" id="path6" />
    </pattern>
    <clipPath id="X">
      <path d="M 589.392,116.312 547.06,31.645 589.393,-53.022 Z" fill="url(#O)" stroke-width="2.117" id="path7" />
    </clipPath>
    <clipPath id="Y">
      <path d="m 199.926,378.778 93.142,-42.295 93.124,42.295 z" fill="url(#P)" stroke-width="2.206" id="path8" />
    </clipPath>
    <clipPath id="Z">
      <path d="m 216.84,285.701 0.038,-254.112 -93.127,-84.646 -0.025,380.962 z" fill="url(#Q)" stroke-width="2.661" id="path9" />
    </clipPath>
    <pattern patternUnits="userSpaceOnUse" width="160" height="160" patternTransform="translate(403.126 209.445) scale(.26458)" id="e">
      <path fill="none" stroke-width="1.89" d="M0 0h160v160H0z" id="path10" />
      <path fill="#665a4e" stroke-width="18.898" stroke-miterlimit="10" d="M0 0h160v160H0z" id="path11" />
      <path fill-opacity=".354" stroke-width="6.158" stroke-miterlimit="10" d="M40 0h2v160h-2zM0 0h2v160H0z" id="path12" />
      <path transform="rotate(90)" fill-opacity=".354" stroke-width="3.001" stroke-miterlimit="10" d="M0-40h2v38H0zm120-40h2v38h-2z" id="path13" />
      <path fill-opacity=".354" stroke-width="6.158" stroke-miterlimit="10" d="M80 0h2v160h-2zm40 0h2v160h-2z" id="path14" />
      <path transform="rotate(90)" fill-opacity=".354" stroke-width="3.001" stroke-miterlimit="10" d="M40-120h2v38h-2zm40-40h2v38h-2z" id="path15" />
    </pattern>
    <clipPath id="W">
      <path d="m 293.045,23.199 v 254.025 l 93.152,42.291 V 107.852 Z m 25.414,93.113 h 8.467 v 8.466 h 8.466 v 21.167 h 8.467 v 25.4 h -8.467 v 12.7 H 318.46 v -8.467 h -8.467 v -16.933 h 8.467 v -12.7 h -8.467 v -16.933 h 8.467 z" fill="url(#R)" stroke-width="2.661" id="path16" />
    </clipPath>
    <clipPath id="V">
      <path d="m 1343.947,64.078 352,320 h 864.008 l 159.992,-320 z M 2000,112 h 64 v 32 h 32 v 64 h -48 v 32 h -96 v -32 h -48 v -32 h 32 v -32 h 64 z" fill="url(#S)" stroke-width="8" id="path17" />
    </clipPath>
    <clipPath id="U">
      <path d="m 2048.019,656.956 -352.074,-319.951 864.08,-0.064 159.996,320.004 z" fill="url(#T)" stroke-width="8.001" id="path18" />
    </clipPath>
  </defs>
  <path clip-path="url(#U)" d="m 2048.019,656.956 -352.074,-319.951 864.08,-0.064 159.996,320.004 z" transform="translate(-1343.94,-17.017)" fill="url(#b)" stroke="#000000" stroke-width="8" id="path19" />
  <path transform="translate(-1343.94,-64.159)" d="m 1343.947,64.078 352,320 h 864.008 l 159.992,-320 z M 2000,112 h 64 v 32 h 32 v 64 h -48 v 32 h -96 v -32 h -48 v -32 h 32 v -32 h 64 z" clip-path="url(#V)" fill="url(#d)" stroke="#000000" stroke-width="8" id="path20" />
  <path d="m 293.045,23.199 v 254.025 l 93.152,42.291 V 107.852 Z m 25.414,93.113 h 8.467 v 8.466 h 8.466 v 21.167 h 8.467 v 25.4 h -8.467 v 12.7 H 318.46 v -8.467 h -8.467 v -16.933 h 8.467 v -12.7 h -8.467 v -16.933 h 8.467 z" clip-path="url(#W)" transform="matrix(3.77956,0,0,3.77956,-755.576,232.306)" fill="url(#g)" stroke="#000000" stroke-width="2.117" id="path21" />
  <path d="M 352.073,319.92 704.08,639.924 v 800.004 l -352.006,-160 z" fill-opacity="0.235" id="path22" />
  <path clip-path="url(#X)" d="M 589.392,116.312 547.06,31.645 589.393,-53.022 Z" transform="matrix(3.77956,0,0,3.77956,-851.558,200.316)" fill="url(#s)" stroke="#000000" stroke-width="2.117" id="path23" />
  <path clip-path="url(#Y)" d="m 199.926,378.778 93.142,-42.295 93.124,42.295 z" transform="matrix(3.77956,0,0,3.77956,-755.576,8.243)" fill="url(#n)" stroke="#000000" stroke-width="2.117" id="path24" />
  <path clip-path="url(#Z)" d="m 216.84,285.701 0.038,-254.112 -93.127,-84.646 -0.025,380.962 z" transform="matrix(3.77956,0,0,3.77956,-467.63,200.527)" fill="url(#l)" stroke="#000000" stroke-width="2.117" id="path25" />
  <path d="M 352.043,1280.174 704.098,1440 H 0.09 Z" fill-opacity="0.353" id="path26" />
  <path d="m 448.074,927.927 h 64.003 v -48 h 31.998 v -96.002 h -31.998 v -80.002 h -32 v -32 h -32.003 v 48 h -31.998 v 64.003 h 31.998 v 48 h -31.998 v 64 h 31.998 z M 752.079,143.917 V 79.918 h -32 V 47.916 h -64 v 32.002 h -64.004 v 32.001 h -31.997 v 31.998 h 48 v 32.002 h 96 v -32.002 z" fill="#665a4e" fill-opacity="0.4" id="path27" />
  <path d="M 1216.085,319.92 1376.088,-0.084 v 640.008 z" fill-opacity="0.353" id="path28" />
  <path d="m 704.058,638.994 -352.074,-319.95 864.08,-0.065 159.996,320.004 z" fill-opacity="0.235" id="path29" />
</svg>
