<svg xmlns="http://www.w3.org/2000/svg" width="1344" height="640"><defs><clipPath id="c"><path d="M0 0h96v191.999H0z"/></clipPath><clipPath id="d"><path d="M0 0h96v191.999H0z"/></clipPath><clipPath id="b"><path d="M-155.67 82.445h304.8v59.267H-43.487l-3.175-6.35-5.292-2.117-5.291 3.175-5.292-5.292-8.467 4.233h-5.291l-5.292 6.35h-74.087z" fill="#53525b" stroke-width="6.35" stroke-opacity=".227"/></clipPath><clipPath id="a"><path d="M-155.67-27.622h355.604V82.445H-155.67z" fill="#53525b" stroke-width="6.35" stroke-opacity=".227"/></clipPath></defs><path transform="translate(588.38 104.391) scale(3.77956)" clip-path="url(#a)" d="M-155.67-27.622h355.604V82.445H-155.67z" fill="#53525b" stroke="#191919" stroke-width="4.233"/><path transform="translate(588.38 104.391) scale(3.77956)" clip-path="url(#b)" d="M-155.67 82.445h304.8v59.267H-43.487l-3.175-6.35-5.292-2.117-5.291 3.175-5.292-5.292-8.467 4.233h-5.291l-5.292 6.35h-74.087z" fill="#424148" stroke="#191919" stroke-width="4.233"/><path d="M192.001 3.995H256v408.002h-64zm1148.007 174v63.999H271.998v-64z" fill="#2e2d32" fill-opacity=".338"/><path d="M0 0h96v191.999H0z" clip-path="url(#c)" transform="translate(176.002 113.995)" fill="#cfcfcf" stroke="#000" stroke-width="12"/><path d="M182 119.993l42.002 44.002L182 209.992l42.002 46.001L182 299.995zm84.004 180.002l-42.002-44.002 42-45.997-42-46.001 42-44.002z" fill="#939393"/><path d="M182 209.997h84.004" fill="none" stroke="#939393" stroke-width="5.038"/><path d="M0 0h96v191.999H0z" clip-path="url(#d)" transform="rotate(90 469 627.993)" fill="#cfcfcf" stroke="#000" stroke-width="12"/><path d="M1091.007 164.993l-43.994 42.006-46-42.002-45.999 42.002-44-42.002z" fill="#939393"/><path d="M911.01 248.994l43.997-41.999 46.001 41.999 45.997-41.999 44.002 41.999z" fill="#939393"/><path d="M1001.008 164.993v84" fill="none" stroke="#939393" stroke-width="5.038"/><path d="M200 419.996h48v216.002h-48zm769.006-165h64v157.001h-64zm7 165h48v216.002h-48z" fill="#2e2d32" fill-opacity=".338"/></svg>