<svg xmlns="http://www.w3.org/2000/svg" width="144" height="144" viewBox="0 0 38.1 38.1"><defs><clipPath id="a"><path fill="#4d2600" stroke-width=".529" d="M0 258.9h38.1V297H0z"/></clipPath><clipPath id="c"><path d="M-4.763 273.187v-5.82h28.575v5.82z" fill="#4d2600" stroke-width="3.532"/></clipPath><clipPath id="b"><path d="M43.392 296.47h-12.7v-38.1h12.7z" fill="#4d2600" stroke-width="6.024"/></clipPath><clipPath id="d"><path d="M-1.587 297h-5.821v-38.1h5.82z" fill="#4d2600" stroke-width="4.078"/></clipPath><clipPath id="e"><path d="M-45.534 209.35l29.33 16.933v33.867l-29.33 16.933-29.33-16.933v-33.867z" fill-opacity=".506" stroke="#fff" stroke-width="2.117" stroke-opacity=".502"/></clipPath></defs><path clip-path="url(#a)" d="M0 258.9h38.1V297H0z" transform="translate(0 -258.9)" stroke-width="3.969" stroke="#191919" fill="#4d2600"/><path transform="rotate(90 163.581 132.89)" d="M43.392 296.47h-12.7v-38.1h12.7z" clip-path="url(#b)" fill="#226dbc" stroke="#191919" stroke-width="3.969"/><path transform="matrix(-1.33333 0 0 -1 31.75 305.467)" clip-path="url(#c)" d="M-4.763 273.187v-5.82h28.575v5.82z" fill="#d19200" stroke="#191919" stroke-width="3.437"/><path transform="rotate(90 128.656 168.344)" d="M-1.587 297h-5.821v-38.1h5.82z" clip-path="url(#d)" fill="#763800" stroke="#191919" stroke-width="3.969"/><path clip-path="url(#d)" d="M-1.587 297h-5.821v-38.1h5.82z" transform="translate(7.408 -258.9)" fill="#763800" stroke="#191919" stroke-width="3.969"/><path clip-path="url(#b)" d="M43.392 296.47h-12.7v-38.1h12.7z" transform="translate(-5.292 -258.37)" fill="#763800" stroke="#191919" stroke-width="3.969"/><path d="M37.042 16.002V10.88l-9.8-9.822h-5.123z" fill="#4d2600" stroke="#191919" stroke-width="1.968"/><path clip-path="url(#e)" d="M-45.534 209.35l29.33 16.933v33.867l-29.33 16.933-29.33-16.933v-33.867z" transform="matrix(-.22167 -.12798 .12798 -.22167 -25.61 70.572)" fill-opacity=".502" stroke="#fff" stroke-width="4.011"/><path d="M15.61 17.364a5.123 5.123 0 0 0-5.122 5.122 5.123 5.123 0 0 0 5.123 5.123 5.123 5.123 0 0 0 5.123-5.123 5.123 5.123 0 0 0-5.123-5.122zm-3.185 2.225c.09.005.18-.004.4.095-.224.23-.362.4-.503.668-.083-.192-.09-.356-.089-.552.016-.144.044-.198.192-.211zm.573.17c.065-.01.376.116.529.22-.344.354-.646.661-.933 1.31-.105-.082-.197-.555-.2-.67-.004-.116.538-.849.604-.86zm.76.32c.134.006.89.227 1.042.398-.395.35-1.053 1.256-1.718 2.485-.252-.379-.38-1.146-.405-1.348-.025-.201.946-1.542 1.08-1.535zm1.405.535c.23.01.444.069.715.358.601.64.235 1.397.58 2.444.406 1.232 1.575 1.817 1.28 1.899-.793.217-2.818-.116-3.437-.456-.928-.51-1.026-1.247-1.066-1.413-.062-.253.421-1.035.899-1.714.442-.628.787-1.127 1.029-1.118zm1.466.7c.518.006 1.401.527 1.753.801.376.293.728.717.566 1.385-.11.455-.65 1.485-.99 1.537-.132.02-.33-.25-.282-.365.108-.267.595-.577.85-1.273.2-.54.063-.795-.39-.987-.777-.33-1.21.084-1.5-.059-.188-.093-.307-1.003-.106-1.032a.65.65 0 0 1 .099-.006z" fill="#fff"/></svg>