<?xml version="1.0" encoding="UTF-8" standalone="no"?>
<svg width="880.03601" height="800.07227" version="1.1" id="svg35" sodipodi:docname="map-building-warehouse-floor-02.svg" inkscape:version="1.4 (e7c3feb100, 2024-10-09)" xmlns:inkscape="http://www.inkscape.org/namespaces/inkscape" xmlns:sodipodi="http://sodipodi.sourceforge.net/DTD/sodipodi-0.dtd" xmlns:xlink="http://www.w3.org/1999/xlink" xmlns="http://www.w3.org/2000/svg" xmlns:svg="http://www.w3.org/2000/svg">
  <sodipodi:namedview id="namedview35" pagecolor="#ffffff" bordercolor="#000000" borderopacity="0.25" inkscape:showpageshadow="2" inkscape:pageopacity="0.0" inkscape:pagecheckerboard="0" inkscape:deskcolor="#d1d1d1" inkscape:zoom="0.35664698" inkscape:cx="375.72167" inkscape:cy="-29.440877" inkscape:current-layer="svg35" />
  <defs id="defs31">
    <pattern xlink:href="#a" id="h" patternTransform="matrix(0.63636075,-0.63636075,0.63636075,0.63636075,-319.96375,0.03608228)" />
    <pattern xlink:href="#b" id="j" patternTransform="matrix(.625 0 0 .625 2160 -183)" />
    <pattern xlink:href="#c" id="f" patternTransform="translate(2248 -159) scale(.53217)" />
    <pattern xlink:href="#d" id="c" patternTransform="translate(2248 344) scale(.53217)" />
    <pattern xlink:href="#e" id="d" patternTransform="translate(2248 -159) scale(.53217)" />
    <pattern patternUnits="userSpaceOnUse" width="128" height="128" patternTransform="translate(2248 -159)" id="e">
      <path fill="#999" stroke-width="15.118" stroke-miterlimit="10" d="M0 0h128v128H0z" id="path1" />
      <path d="M0 0v2.34L125.66 128H128v-2.34L2.34 0z" fill="#191919" stroke-width="1.7" id="path2" />
      <path d="M125.66 0L0 125.66V128h2.34L128 2.34V0z" fill="#191919" stroke-width="1.7" id="path3" />
    </pattern>
    <clipPath id="i">
      <path stroke-miterlimit="10" d="m 1800,-503 h 200 v 800 h -200 z" fill="url(#f)" stroke-width="5.781" id="path4" />
    </clipPath>
    <pattern patternUnits="userSpaceOnUse" width="128" height="128" patternTransform="translate(2160 -183)" id="b">
      <path fill="#999" stroke-width="15.118" stroke-miterlimit="10" d="M0 0h128v128H0z" id="path5" />
      <path d="M0 0v2.34L125.66 128H128v-2.34L2.34 0z" fill="#191919" fill-opacity=".457" stroke-width="1.7" id="path6" />
      <path d="M125.66 0L0 125.66V128h2.34L128 2.34V0z" fill="#191919" fill-opacity=".451" stroke-width="1.7" id="path7" />
    </pattern>
    <pattern xlink:href="#g" id="l" patternTransform="matrix(.625 0 0 .625 2160 -183)" />
    <pattern patternUnits="userSpaceOnUse" width="128" height="128" patternTransform="translate(2160 -183)" id="g">
      <path fill="#999" stroke-width="15.118" stroke-miterlimit="10" d="M0 0h128v128H0z" id="path8" />
      <path d="M0 0v2.34L125.66 128H128v-2.34L2.34 0z" fill="#191919" fill-opacity=".457" stroke-width="1.7" id="path9" />
      <path d="M125.66 0L0 125.66V128h2.34L128 2.34V0z" fill="#191919" fill-opacity=".451" stroke-width="1.7" id="path10" />
    </pattern>
    <clipPath id="k">
      <path stroke-miterlimit="10" d="m 1800,-503 h 200 v 800 h -200 z" fill="url(#f)" stroke-width="5.781" id="path11" />
    </clipPath>
    <pattern patternUnits="userSpaceOnUse" width="176" height="176" patternTransform="translate(-320)" id="a">
      <path fill="#3e4246" stroke-width="20.787" stroke-miterlimit="10" d="M0 0h176v176H0z" id="path12" />
      <g fill="#cebbb4" fill-opacity=".071" stroke-opacity=".49" id="g30">
        <path transform="rotate(180 0 -497.26) scale(3.77953)" stroke-width=".723" d="M-20.108-295.942h2.117v14.817h-2.117z" id="path13" />
        <path transform="matrix(0 -3.77953 3.77953 0 0 -994.52)" stroke-width=".723" d="M-288.533 0h2.117v14.817h-2.117z" id="path14" />
        <path transform="rotate(180 0 -497.26) scale(3.77953)" stroke-width=".723" d="M-8.467-283.242h2.117v14.817h-2.117z" id="path15" />
        <path transform="matrix(0 -3.77953 3.77953 0 0 -994.52)" stroke-width=".723" d="M-277.95 11.642h2.117v14.817h-2.117zm-10.583 11.641h2.117V38.1h-2.117z" id="path16" />
        <path transform="rotate(180 0 -497.26) scale(3.77953)" stroke-width=".723" d="M-31.75-283.242h2.117v14.817h-2.117z" id="path17" />
        <path transform="rotate(180 0 -497.26) scale(3.77953)" stroke-width=".58" d="M-20.108-272.658h2.117v9.525h-2.117z" id="path18" />
        <path transform="matrix(0 -3.77953 3.77953 0 0 -994.52)" stroke-width=".723" d="M-265.25 0h2.117v14.817h-2.117zm0 23.283h2.117V38.1h-2.117z" id="path19" />
        <path transform="matrix(0 -3.77953 3.77953 0 0 -994.52)" stroke-width=".335" d="M-277.95 0h2.117v3.175h-2.117z" id="path20" />
        <path transform="rotate(180 0 -497.26) scale(3.77953)" stroke-width=".58" d="M-43.392-272.658h2.117v9.525h-2.117z" id="path21" />
        <path transform="matrix(0 -3.77953 3.77953 0 0 -994.52)" stroke-width=".641" d="M-277.95 34.925h2.117v11.642h-2.117z" id="path22" />
        <path transform="rotate(180 0 -497.26) scale(3.77953)" stroke-width=".725" d="M-43.406-295.942h2.131v14.817h-2.131z" id="path23" />
        <path stroke-width=".723" d="M29.633 291.708h2.117v14.817h-2.117z" transform="translate(0 -994.52) scale(3.77953)" id="path24" />
        <path transform="matrix(0 3.77953 -3.77953 0 0 -994.52)" stroke-width=".641" d="M299.117-46.567h2.117v11.642h-2.117z" id="path25" />
        <path stroke-width=".432" d="M41.275 304.408h2.117v5.292h-2.117z" transform="translate(0 -994.52) scale(3.77953)" id="path26" />
        <path transform="matrix(0 3.77953 -3.77953 0 0 -994.52)" stroke-width=".723" d="M299.117-26.458h2.117v14.817h-2.117z" id="path27" />
        <path stroke-width=".432" d="M17.992 304.408h2.117v5.292h-2.117z" transform="translate(0 -994.52) scale(3.77953)" id="path28" />
        <path transform="matrix(0 3.77953 -3.77953 0 0 -994.52)" stroke-width=".335" d="M299.117-3.175h2.117V0h-2.117z" id="path29" />
        <path stroke-width=".725" d="M6.35 291.708h2.131v14.817H6.35z" transform="translate(0 -994.52) scale(3.77953)" id="path30" />
      </g>
    </pattern>
    <clipPath id="m">
      <path d="m 160,0 v 256 h 32 V 32 h 1376 v 224 h 32 V 0 Z m 0,544 V 800 H 1600 V 544 h -32 V 768 H 192 V 544 Z" stroke-miterlimit="10" fill="#6b6b6b" stroke-width="15.118" id="path31" />
    </clipPath>
  </defs>
  <path d="M 160.03613,0.03613206 H 1600.0361 V 800.03613 H 160.03613 Z" fill="url(#h)" id="path32" />
  <path clip-path="url(#i)" d="m 1800,-503 h 160 v 800 h -160 z" transform="translate(-199.96387,503.03613)" fill="url(#j)" id="path33" />
  <path transform="translate(-1839.9639,503.03613)" clip-path="url(#k)" d="m 1840,-503 h 160 v 800 h -160 z" fill="url(#l)" id="path34" />
  <path stroke-miterlimit="10" d="m 160,0 v 256 h 32 V 32 h 1376 v 224 h 32 V 0 Z m 0,544 V 800 H 1600 V 544 h -32 V 768 H 192 V 544 Z" clip-path="url(#m)" fill="#6b6b6b" stroke-width="16" stroke="#000000" id="path35" transform="translate(0.03613206,0.03613206)" />
</svg>
