<svg xmlns="http://www.w3.org/2000/svg" xmlns:xlink="http://www.w3.org/1999/xlink" width="960" height="864" viewBox="0 0 254 228.6"><defs><pattern xlink:href="#a" id="M" patternTransform="rotate(90 142.787 190.843) scale(.15744)"/><pattern xlink:href="#b" id="a" patternTransform="rotate(90 142.787 190.843) scale(.15744)"/><pattern xlink:href="#c" id="b" patternTransform="rotate(90 637.338 507.725) scale(.59506)"/><pattern xlink:href="#d" id="L" patternTransform="rotate(90 113.154 220.476) scale(.15744)"/><pattern xlink:href="#e" id="d" patternTransform="rotate(90 525.338 619.725) scale(.59506)"/><pattern xlink:href="#f" id="K" patternTransform="rotate(90 113.154 220.476) scale(.15744)"/><pattern xlink:href="#g" id="f" patternTransform="rotate(90 525.338 619.725) scale(.59506)"/><pattern xlink:href="#h" id="J" patternTransform="rotate(90 98.337 209.893) scale(.15744)"/><pattern xlink:href="#i" id="h" patternTransform="rotate(90 469.338 579.725) scale(.59506)"/><pattern xlink:href="#j" id="c" patternTransform="rotate(90 138.553 203.543) scale(.15744)"/><pattern xlink:href="#k" id="j" patternTransform="rotate(90 621.338 555.725) scale(.59506)"/><pattern xlink:href="#l" id="g" patternTransform="rotate(90 113.154 220.476) scale(.15744)"/><pattern xlink:href="#m" id="l" patternTransform="rotate(90 113.154 220.476) scale(.15744)"/><pattern xlink:href="#n" id="m" patternTransform="rotate(90 525.338 619.725) scale(.59506)"/><pattern xlink:href="#o" id="n" patternTransform="rotate(90 113.154 220.476) scale(.15744)"/><pattern xlink:href="#p" id="o" patternTransform="matrix(0 .70668 -.69034 0 1107.617 55.933)"/><pattern xlink:href="#q" id="p" patternTransform="matrix(0 .18698 -.18265 0 323.723 158.532)"/><pattern patternUnits="userSpaceOnUse" width="320" height="320" patternTransform="translate(316.416 162.783) scale(.26458)" id="q"><path fill="#854537" stroke-width="37.795" stroke-miterlimit="10" d="M0 0h320v320H0z"/><path fill-opacity=".354" stroke-width="12.316" stroke-miterlimit="10" d="M80 0h4v320h-4zM0 0h4v320H0z"/><path transform="rotate(90)" fill-opacity=".354" stroke-width="6.002" stroke-miterlimit="10" d="M0-80h4v76H0zm240-80h4v76h-4z"/><path fill-opacity=".354" stroke-width="12.316" stroke-miterlimit="10" d="M160 0h4v320h-4zm80 0h4v320h-4z"/><path transform="rotate(90)" fill-opacity=".354" stroke-width="6.002" stroke-miterlimit="10" d="M80-240h4v76h-4zm80-80h4v76h-4z"/></pattern><pattern xlink:href="#r" id="i" patternTransform="rotate(90 98.337 209.893) scale(.15744)"/><pattern xlink:href="#s" id="r" patternTransform="rotate(90 113.154 220.476) scale(.15744)"/><pattern xlink:href="#t" id="s" patternTransform="rotate(90 525.338 619.725) scale(.59506)"/><pattern xlink:href="#u" id="t" patternTransform="rotate(90 113.154 220.476) scale(.15744)"/><pattern xlink:href="#v" id="u" patternTransform="matrix(0 .70668 -.69034 0 1107.617 55.933)"/><pattern xlink:href="#w" id="v" patternTransform="matrix(0 .18698 -.18265 0 323.723 158.532)"/><pattern patternUnits="userSpaceOnUse" width="320" height="320" patternTransform="translate(316.416 162.783) scale(.26458)" id="w"><path fill="#854537" stroke-width="37.795" stroke-miterlimit="10" d="M0 0h320v320H0z"/><path fill-opacity=".354" stroke-width="12.316" stroke-miterlimit="10" d="M80 0h4v320h-4zM0 0h4v320H0z"/><path transform="rotate(90)" fill-opacity=".354" stroke-width="6.002" stroke-miterlimit="10" d="M0-80h4v76H0zm240-80h4v76h-4z"/><path fill-opacity=".354" stroke-width="12.316" stroke-miterlimit="10" d="M160 0h4v320h-4zm80 0h4v320h-4z"/><path transform="rotate(90)" fill-opacity=".354" stroke-width="6.002" stroke-miterlimit="10" d="M80-240h4v76h-4zm80-80h4v76h-4z"/></pattern><pattern xlink:href="#x" id="k" patternTransform="rotate(90 138.553 203.543) scale(.15744)"/><pattern xlink:href="#y" id="x" patternTransform="rotate(90 113.154 220.476) scale(.15744)"/><pattern xlink:href="#z" id="y" patternTransform="rotate(90 525.338 619.725) scale(.59506)"/><pattern xlink:href="#A" id="z" patternTransform="rotate(90 113.154 220.476) scale(.15744)"/><pattern xlink:href="#B" id="A" patternTransform="matrix(0 .70668 -.69034 0 1107.617 55.933)"/><pattern xlink:href="#C" id="B" patternTransform="matrix(0 .18698 -.18265 0 323.723 158.532)"/><pattern patternUnits="userSpaceOnUse" width="320" height="320" patternTransform="translate(316.416 162.783) scale(.26458)" id="C"><path fill="#854537" stroke-width="37.795" stroke-miterlimit="10" d="M0 0h320v320H0z"/><path fill-opacity=".354" stroke-width="12.316" stroke-miterlimit="10" d="M80 0h4v320h-4zM0 0h4v320H0z"/><path transform="rotate(90)" fill-opacity=".354" stroke-width="6.002" stroke-miterlimit="10" d="M0-80h4v76H0zm240-80h4v76h-4z"/><path fill-opacity=".354" stroke-width="12.316" stroke-miterlimit="10" d="M160 0h4v320h-4zm80 0h4v320h-4z"/><path transform="rotate(90)" fill-opacity=".354" stroke-width="6.002" stroke-miterlimit="10" d="M80-240h4v76h-4zm80-80h4v76h-4z"/></pattern><pattern xlink:href="#D" id="e" patternTransform="rotate(90 113.154 220.476) scale(.15744)"/><pattern xlink:href="#E" id="D" patternTransform="rotate(90 113.154 220.476) scale(.15744)"/><pattern xlink:href="#F" id="E" patternTransform="rotate(90 525.338 619.725) scale(.59506)"/><pattern xlink:href="#G" id="F" patternTransform="rotate(90 113.154 220.476) scale(.15744)"/><pattern xlink:href="#H" id="G" patternTransform="matrix(0 .70668 -.69034 0 1107.617 55.933)"/><pattern xlink:href="#I" id="H" patternTransform="matrix(0 .18698 -.18265 0 323.723 158.532)"/><pattern patternUnits="userSpaceOnUse" width="320" height="320" patternTransform="translate(316.416 162.783) scale(.26458)" id="I"><path fill="#854537" stroke-width="37.795" stroke-miterlimit="10" d="M0 0h320v320H0z"/><path fill-opacity=".354" stroke-width="12.316" stroke-miterlimit="10" d="M80 0h4v320h-4zM0 0h4v320H0z"/><path transform="rotate(90)" fill-opacity=".354" stroke-width="6.002" stroke-miterlimit="10" d="M0-80h4v76H0zm240-80h4v76h-4z"/><path fill-opacity=".354" stroke-width="12.316" stroke-miterlimit="10" d="M160 0h4v320h-4zm80 0h4v320h-4z"/><path transform="rotate(90)" fill-opacity=".354" stroke-width="6.002" stroke-miterlimit="10" d="M80-240h4v76h-4zm80-80h4v76h-4z"/></pattern><clipPath id="Q"><path d="M5.266 86.583l50.8 114.3-50.8 114.3z" fill="url(#J)" stroke-width="15.803"/></clipPath><clipPath id="P"><path d="M81.466 196.65l152.4.507 50.8 113.793h-254z" fill="url(#K)" stroke-width="15.803"/></clipPath><clipPath id="O"><path d="M233.866 197.157l50.8-114.807v228.6z" fill="url(#L)" stroke-width="15.803"/></clipPath><clipPath id="N"><path d="M0-224l192 432 576 1.918L960-224zM384 0h192v128H384z" fill="url(#M)" stroke-width="59.727"/></clipPath></defs><path transform="translate(0 59.267) scale(.26458)" d="M0-224l192 432 576 1.918L960-224zM384 0h192v128H384z" clip-path="url(#N)" fill="url(#b)" stroke="#000" stroke-width="8"/><path d="M233.866 197.157l50.8-114.807v228.6z" clip-path="url(#O)" fill="url(#e)" stroke="#000" stroke-width="2.117" transform="translate(-30.666 -82.35)"/><path d="M81.466 196.65l152.4.507 50.8 113.793h-254z" clip-path="url(#P)" fill="url(#g)" stroke="#000" stroke-width="2.117" transform="translate(-30.666 -82.35)"/><path d="M5.266 86.583l50.8 114.3-50.8 114.3z" clip-path="url(#Q)" transform="translate(-5.266 -86.583)" fill="url(#i)" stroke="#000" stroke-width="2.117"/><path d="M0 0l50.8 114.3L0 228.6zm203.2 114.808L254 0v228.6z" fill-opacity=".137"/><path d="M50.8 114.3l152.4.508L254 228.6H0z" fill-opacity=".294"/><path fill="#b9e1ff" fill-opacity=".395" d="M101.6 59.266h50.8v33.867h-50.8z"/><path d="M120.65 59.267l-19.05 19.05v4.233l23.283-23.283zm-9.525 0l-9.525 9.525V76.2l16.933-16.933zM152.4 75.142l-17.992 17.991h4.234L152.4 79.375zm0-9.525l-27.517 27.516h7.409L152.4 73.025z" fill="#ededed" fill-opacity=".395"/></svg>