<?xml version="1.0" encoding="UTF-8" standalone="no"?>
<svg
   xmlns:dc="http://purl.org/dc/elements/1.1/"
   xmlns:cc="http://creativecommons.org/ns#"
   xmlns:rdf="http://www.w3.org/1999/02/22-rdf-syntax-ns#"
   xmlns:svg="http://www.w3.org/2000/svg"
   xmlns="http://www.w3.org/2000/svg"
   xmlns:sodipodi="http://sodipodi.sourceforge.net/DTD/sodipodi-0.dtd"
   xmlns:inkscape="http://www.inkscape.org/namespaces/inkscape"
   width="288"
   height="288"
   viewBox="0 0 76.2 76.2"
   version="1.1"
   id="svg6"
   sodipodi:docname="map-stone-03x.svg"
   inkscape:version="0.92.2 (5c3e80d, 2017-08-06)">
  <metadata
     id="metadata12">
    <rdf:RDF>
      <cc:Work
         rdf:about="">
        <dc:format>image/svg+xml</dc:format>
        <dc:type
           rdf:resource="http://purl.org/dc/dcmitype/StillImage" />
        <dc:title />
      </cc:Work>
    </rdf:RDF>
  </metadata>
  <defs
     id="defs10">
    <clipPath
       clipPathUnits="userSpaceOnUse"
       id="clipPath847">
      <path
         inkscape:connector-curvature="0"
         style="fill:#6c6c6c;fill-opacity:1;stroke:#2d2d2d;stroke-width:2.48946452;stroke-miterlimit:4;stroke-dasharray:none"
         d="m 44.149071,2.3893563 c 9.800254,1.9820025 14.075238,3.7690213 19.882371,9.9024657 5.807128,6.131363 9.83633,15.359928 10.301901,25.159719 0.467646,9.797714 -2.986362,20.045238 -9.25282,26.581893 -6.264386,6.536661 -15.33915,9.358297 -24.203647,9.825943 C 32.010297,74.324948 25.506244,73.987927 19.430997,70.64997 13.35575,67.312016 7.7155479,60.977277 5.3419822,56.043087 2.9684168,51.110975 1.9541436,45.910746 1.8356731,40.192989 1.7192811,34.475232 2.494535,27.163818 4.9741005,21.647667 7.4536657,16.133596 10.909038,12.301686 15.038875,9.0343958 19.166634,5.767106 22.530555,4.4965033 27.092706,3.2785442 32.056411,2.5086953 34.855608,1.7986587 44.149071,2.3893563 Z"
         id="path849"
         sodipodi:nodetypes="cccccscccccc" />
    </clipPath>
  </defs>
  <sodipodi:namedview
     pagecolor="#ffffff"
     bordercolor="#666666"
     borderopacity="1"
     objecttolerance="10"
     gridtolerance="10"
     guidetolerance="10"
     inkscape:pageopacity="0"
     inkscape:pageshadow="2"
     inkscape:window-width="1920"
     inkscape:window-height="1017"
     id="namedview8"
     showgrid="true"
     inkscape:snap-nodes="false"
     inkscape:zoom="2.3177389"
     inkscape:cx="30.093795"
     inkscape:cy="165.11521"
     inkscape:window-x="1912"
     inkscape:window-y="-8"
     inkscape:window-maximized="1"
     inkscape:current-layer="svg6">
    <inkscape:grid
       type="xygrid"
       id="grid822"
       empspacing="4"
       spacingy="1.0583333"
       spacingx="1.0583333" />
  </sodipodi:namedview>
  <path
     sodipodi:nodetypes="cccccscccccc"
     id="path845"
     d="m 44.14907,2.3893563 c 9.800256,1.9820026 14.075238,3.7690214 19.882371,9.9024657 5.80713,6.131363 9.836331,15.359929 10.301903,25.159719 0.467645,9.797713 -2.986362,20.045238 -9.252822,26.581893 -6.264386,6.536661 -15.339148,9.358298 -24.203647,9.825943 C 32.010298,74.324948 25.506244,73.987928 19.430997,70.64997 13.35575,67.312017 7.7155478,60.977277 5.3419822,56.043086 2.9684167,51.110975 1.9541436,45.910746 1.8356731,40.192989 1.7192811,34.475231 2.494535,27.163818 4.9741004,21.647667 7.4536658,16.133596 10.909038,12.301686 15.038875,9.0343959 19.166634,5.767106 22.530555,4.4965032 27.092707,3.2785442 32.05641,2.5086953 34.855607,1.7986587 44.14907,2.3893563 Z"
     style="fill:#4f4f4f;fill-opacity:1;stroke:#2d2d2d;stroke-width:4.7625;stroke-miterlimit:4;stroke-dasharray:none"
     inkscape:connector-curvature="0"
     clip-path="url(#clipPath847)" />
  <path
     style="fill:#9be2ff;fill-opacity:0.48627451;stroke:none;stroke-width:9;stroke-linecap:round;stroke-linejoin:miter;stroke-miterlimit:4;stroke-dasharray:none;stroke-opacity:1"
     d="M 144.60938,8.2050781 C 125.93614,8.1543716 116.46878,10.208376 102.39844,12.390625 85.155658,16.993935 72.440823,21.797672 56.839844,34.146484 41.231011,46.495297 28.170414,60.977776 18.798828,81.818359 9.4272424,102.6668 6.4975932,130.29973 6.9375,151.91016 c 0.4477625,21.61042 4.280997,41.2652 13.251953,59.90625 8.970957,18.64891 30.288437,42.59114 53.25,55.20703 22.961564,12.6159 47.545167,13.8905 81.056637,12.13086 33.50362,-1.76748 67.80015,-12.43318 91.47657,-37.13868 23.68425,-24.70546 36.74013,-63.43607 34.97265,-100.46679 C 279.18567,104.51025 263.95602,69.630687 242.00781,46.457031 220.05959,23.275509 203.90362,16.522283 166.86328,9.03125 158.08206,8.4731105 150.83379,8.2219803 144.60938,8.2050781 Z m 21.39117,26.2818149 c 30.02339,5.35544 40.66273,7.952085 62.61095,31.133607 21.94821,23.173655 24.58294,44.35116 27.25783,76.81347 1.76748,37.03072 -2.66042,53.68248 -26.34467,78.38794 -23.67642,24.7055 -46.57316,32.58281 -69.09373,35.57063 -33.51147,1.75964 -46.22066,2.61745 -68.483123,-11.19476 C 71.121837,232.27681 58.835824,220.8172 50.475036,206.43948 30.683859,168.5937 27.234065,146.16038 36.784572,113.91286 45.240903,94.292622 51.625673,79.636627 72.420947,59.96578 96.15034,39.328837 130.08852,31.070839 166.00055,34.486893 Z"
     transform="scale(0.26458333)"
     id="rect840"
     inkscape:connector-curvature="0"
     sodipodi:nodetypes="scccccscccccscccccscccc" />
  <path
     inkscape:connector-curvature="0"
     style="fill:#616161;fill-opacity:1;stroke-width:1.98815787"
     d="m 53.971849,17.294885 c 4.464947,4.329988 8.532828,11.467644 3.681271,16.319195 -4.850148,4.850148 -14.803997,3.724722 -18.61653,-0.648363 -2.537646,-3.904584 -4.539895,-9.808257 -1.035135,-13.217419 7.119497,-6.556039 12.423859,-5.688191 15.970394,-2.453413 z"
     id="path4-5"
     sodipodi:nodetypes="csccc" />
</svg>
