<?xml version="1.0" encoding="UTF-8" standalone="no"?>
<svg
   xmlns:dc="http://purl.org/dc/elements/1.1/"
   xmlns:cc="http://creativecommons.org/ns#"
   xmlns:rdf="http://www.w3.org/1999/02/22-rdf-syntax-ns#"
   xmlns:svg="http://www.w3.org/2000/svg"
   xmlns="http://www.w3.org/2000/svg"
   xmlns:sodipodi="http://sodipodi.sourceforge.net/DTD/sodipodi-0.dtd"
   xmlns:inkscape="http://www.inkscape.org/namespaces/inkscape"
   width="200"
   height="200"
   viewBox="0 0 52.916666 52.916667"
   version="1.1"
   id="svg4"
   sodipodi:docname="map-stone-res-02cb.svg"
   inkscape:version="0.92.2 (5c3e80d, 2017-08-06)">
  <metadata
     id="metadata10">
    <rdf:RDF>
      <cc:Work
         rdf:about="">
        <dc:format>image/svg+xml</dc:format>
        <dc:type
           rdf:resource="http://purl.org/dc/dcmitype/StillImage" />
        <dc:title />
      </cc:Work>
    </rdf:RDF>
  </metadata>
  <defs
     id="defs8" />
  <sodipodi:namedview
     pagecolor="#ffffff"
     bordercolor="#666666"
     borderopacity="1"
     objecttolerance="10"
     gridtolerance="10"
     guidetolerance="10"
     inkscape:pageopacity="0"
     inkscape:pageshadow="2"
     inkscape:window-width="1920"
     inkscape:window-height="1017"
     id="namedview6"
     showgrid="false"
     inkscape:zoom="1.9666667"
     inkscape:cx="44.470663"
     inkscape:cy="115.30231"
     inkscape:window-x="1912"
     inkscape:window-y="-8"
     inkscape:window-maximized="1"
     inkscape:current-layer="svg4"
     fit-margin-top="0"
     fit-margin-left="0"
     fit-margin-right="0"
     fit-margin-bottom="0" />
  <path
     d="m 31.025562,0.53081434 c 4.545379,0.76662906 9.971275,2.80134006 14.193684,7.25832606 4.219008,4.4586866 7.234528,11.3379486 7.574497,18.4602876 0.339968,7.122339 -1.999015,14.482656 -6.552892,19.235415 -4.553878,4.751059 -11.32265,6.889461 -17.766752,7.229429 C 22.031697,53.054241 15.915664,51.592376 11.499474,49.166702 7.0849836,46.741027 4.3720353,43.349841 2.6466954,39.763174 0.92135547,36.178207 0.18532371,32.399457 0.09863175,28.243343 0.01363964,24.087228 0.57798728,19.553749 2.3798201,15.545521 4.181653,11.537293 7.2141716,8.0577154 10.216093,5.6830364 c 2.996822,-2.37468 5.966446,-3.644462 9.281139,-4.53008 3.314692,-0.88561806 6.981252,-1.39047106 11.52833,-0.62214206 z"
     id="path2"
     style="fill:#010201;fill-opacity:0.70400002;stroke-width:1.69984233"
     inkscape:connector-curvature="0" />
  <path
     id="path823"
     d="M 31.025563,0.53081422 C 35.570941,1.2974432 40.996838,3.3321542 45.219246,7.7891412 49.438255,12.247827 52.453775,19.127089 52.793743,26.249428 53.133712,33.371767 50.794729,40.732084 46.240851,45.484843 41.686974,50.235902 34.918202,52.374304 28.4741,52.714272 22.031697,53.054241 15.915664,51.592377 11.499474,49.166702 7.0849836,46.741027 4.3720353,43.349841 2.6466954,39.763174 0.92135539,36.178207 0.18532371,32.399457 0.09863176,28.243343 0.01363964,24.087228 0.57798728,19.553749 2.3798201,15.545521 4.181653,11.537293 7.2141716,8.0577162 10.216093,5.6830362 c 2.996822,-2.37468 5.966447,-3.644462 9.281139,-4.53008 3.314693,-0.88561698 6.981253,-1.39047098 11.528331,-0.62214198 z"
     style="fill:#062547;fill-opacity:0.7019608;stroke-width:1.69984233"
     inkscape:connector-curvature="0" />
</svg>
