<svg xmlns="http://www.w3.org/2000/svg" xmlns:xlink="http://www.w3.org/1999/xlink" width="384" height="700" viewBox="0 0 101.6 185.208"><defs><clipPath id="j"><path d="M0 0l16.933 16.933v151.342L0 185.208z" fill="#3a3a3a" stroke-width="2.154" stroke-opacity=".706"/></clipPath><clipPath id="i"><path d="M0 185.208l16.933-16.933h42.334L76.2 185.208z" fill="#3a3a3a" stroke-width="2.154" stroke-opacity=".706"/></clipPath><clipPath id="h"><path d="M76.2 185.208l-16.933-16.933V32.808L76.2 49.742z" fill="#3a3a3a" stroke-width="2.154" stroke-opacity=".706"/></clipPath><clipPath id="g"><path d="M84.667 32.808L101.6 49.742H76.2L59.267 32.808z" fill="#3a3a3a" stroke-width="2.154" stroke-opacity=".706"/></clipPath><clipPath id="f"><path d="M84.667 32.808L101.6 49.742V0L84.667 16.933z" fill="#3a3a3a" stroke-width="2.154" stroke-opacity=".706"/></clipPath><clipPath id="e"><path d="M101.6 0L84.668 16.933H16.933L0 0h8.467l8.467 8.466h16.934L42.333 0z" fill="#3a3a3a" stroke-width="2.117" stroke-opacity=".706"/></clipPath><clipPath id="d"><path d="M64 64v572h160V124h96V64zm76 356a32 32 0 0 1 32 32 32 32 0 0 1-32 32 32 32 0 0 1-32-32 32 32 0 0 1 32-32z" fill="#565656" stroke-width="7.323" stroke-opacity=".706"/></clipPath><pattern xlink:href="#a" id="c" patternTransform="translate(-34.924 255.059) scale(.06615)"/><pattern xlink:href="#b" id="a" patternTransform="translate(-159.834 378.683) scale(.06615)"/><pattern patternUnits="userSpaceOnUse" width="32" height="32" patternTransform="translate(-159.834 378.683) scale(.26458)" id="b"><path fill="none" stroke-width="3.78" d="M0 0h32v32H0z"/><path fill="none" stroke-width="4" d="M0 0h32v32H0z"/><path d="M16 0v32M0 16h32" fill="none" stroke="#000" stroke-width="4"/></pattern></defs><path d="M24.342 106.892h25.4v25.4h-25.4z" fill="url(#c)"/><path transform="matrix(.26458 0 0 .26458 0 0)" d="M64 64v572h160V124h96V64H64zm76 356a32 32 0 0 1 32 32 32 32 0 0 1-32 32 32 32 0 0 1-32-32 32 32 0 0 1 32-32z" clip-path="url(#d)" fill="#565656" stroke="#000" stroke-width="8"/><path d="M101.6 0L84.668 16.933H16.933L0 0h8.467l8.467 8.466h16.934L42.333 0z" clip-path="url(#e)" fill="#3a3a3a" stroke-width="2.117" stroke="#000"/><path d="M84.667 32.808L101.6 49.742V0L84.667 16.933z" clip-path="url(#f)" fill="#3a3a3a" stroke-width="2.117" stroke="#000"/><path d="M84.667 32.808L101.6 49.742H76.2L59.267 32.808z" clip-path="url(#g)" fill="#3a3a3a" stroke-width="2.117" stroke="#000"/><path d="M76.2 185.208l-16.933-16.933V32.808L76.2 49.742z" clip-path="url(#h)" fill="#3a3a3a" stroke-width="2.117" stroke="#000"/><path d="M0 185.208l16.933-16.933h42.334L76.2 185.208z" clip-path="url(#i)" fill="#3a3a3a" stroke-width="2.117" stroke="#000"/><path d="M0 0l16.933 16.933v151.342L0 185.208z" clip-path="url(#j)" fill="#3a3a3a" stroke-width="2.117" stroke="#000"/></svg>