<svg xmlns="http://www.w3.org/2000/svg" width="416" height="416" viewBox="0 0 110.067 110.067"><defs><clipPath id="a"><rect ry="3.836" rx="2.469" y="272.658" x=".529" height="24.342" width="3.704" stroke-miterlimit="10" fill="#515151" stroke-width="1.323" stroke-opacity=".49"/></clipPath><clipPath id="b"><path d="M188 128c0 80-69.756 119.362-69.756 119.362C64 244 8.638 193.922 8.638 128S64 12 118.244 8.638C118.244 8.638 188 48 188 128z" fill="#252525" fill-opacity=".601" stroke-width="12.537"/></clipPath></defs><ellipse cx="-51.609" cy="58.252" transform="rotate(-86.542) skewX(-.005)" stroke-miterlimit="10" rx="16.302" ry="16.29" fill="#a0a0a0" stroke="#333" stroke-width="2.7"/><rect transform="matrix(0 1.75881 -1.75871 0 587.954 50.965)" stroke-miterlimit="10" clip-path="url(#a)" ry="3.836" rx="2.469" y="272.658" x=".529" height="24.342" width="3.704" fill="#cfcfcf" stroke="#333" stroke-width="2.117"/><ellipse cx="-51.867" cy="72.065" transform="rotate(-86.542) skewX(-.004)" rx="4.795" ry="4.792" stroke-miterlimit="10" fill="#7a7a7a" stroke="#333" stroke-width="1.746"/><ellipse stroke-miterlimit="10" ry="4.792" rx="4.795" transform="rotate(-86.542) skewX(-.004)" cy="88.755" cx="-54.962" fill="#7a7a7a" stroke="#333" stroke-width="1.746"/><path transform="matrix(.14668 0 0 .14668 33.558 36.259)" d="M188 128c0 80-69.756 119.362-69.756 119.362C64 244 8.638 193.922 8.638 128S64 12 118.244 8.638C118.244 8.638 188 48 188 128z" clip-path="url(#b)" fill="#626262" stroke="#272727" stroke-width="36"/><path transform="matrix(0 .15218 -.15218 0 60.053 43.772)" d="M74 28.897l11.736 35.042 36.953.332-29.7 21.99 11.103 35.248L74 100.057 43.908 121.51l11.103-35.248-29.7-21.99 36.953-.332z" fill="#424242" stroke="#242424" stroke-width="8"/><path d="M47.625 38.1c-7.937 3.704-6.35 6.35-6.35 6.35h7.408c2.117 5.292 6.35 5.292 6.35 5.292s4.234 0 6.35-5.292h7.409s1.587-2.646-6.35-6.35c-3.704-1.974-10.054-1.974-14.817 0z" fill="#d6d6d6" stroke="#515151" stroke-width="2.646" stroke-opacity=".655"/></svg>