<?xml version="1.0" encoding="UTF-8" standalone="no"?>
<svg
   xmlns:dc="http://purl.org/dc/elements/1.1/"
   xmlns:cc="http://creativecommons.org/ns#"
   xmlns:rdf="http://www.w3.org/1999/02/22-rdf-syntax-ns#"
   xmlns:svg="http://www.w3.org/2000/svg"
   xmlns="http://www.w3.org/2000/svg"
   xmlns:sodipodi="http://sodipodi.sourceforge.net/DTD/sodipodi-0.dtd"
   xmlns:inkscape="http://www.inkscape.org/namespaces/inkscape"
   width="156"
   height="120"
   viewBox="0 0 41.275 31.75"
   version="1.1"
   id="svg96"
   sodipodi:docname="map-case-chrys-01.svg"
   inkscape:version="0.92.2 (5c3e80d, 2017-08-06)">
  <metadata
     id="metadata100">
    <rdf:RDF>
      <cc:Work
         rdf:about="">
        <dc:format>image/svg+xml</dc:format>
        <dc:type
           rdf:resource="http://purl.org/dc/dcmitype/StillImage" />
        <dc:title></dc:title>
      </cc:Work>
    </rdf:RDF>
  </metadata>
  <sodipodi:namedview
     pagecolor="#ffffff"
     bordercolor="#666666"
     borderopacity="1"
     objecttolerance="10"
     gridtolerance="10"
     guidetolerance="10"
     inkscape:pageopacity="0"
     inkscape:pageshadow="2"
     inkscape:window-width="1920"
     inkscape:window-height="1017"
     id="namedview98"
     showgrid="true"
     inkscape:showpageshadow="false"
     fit-margin-top="0"
     fit-margin-left="0"
     fit-margin-right="0"
     fit-margin-bottom="0"
     inkscape:zoom="1.9722222"
     inkscape:cx="-52.20892"
     inkscape:cy="152.27178"
     inkscape:window-x="1912"
     inkscape:window-y="-8"
     inkscape:window-maximized="1"
     inkscape:current-layer="svg96">
    <inkscape:grid
       type="xygrid"
       id="grid955"
       empspacing="4"
       spacingy="0.52916667"
       spacingx="0.52916667"
       originx="1.5874999"
       originy="1.5875006" />
  </sodipodi:namedview>
  <defs
     id="defs8">
    <clipPath
       id="a">
      <path
         d="m -13.229,268.425 h 38.1 V 297 h -38.1 z"
         id="path2"
         inkscape:connector-curvature="0"
         style="fill:#ffffff;stroke-width:3.17499995" />
    </clipPath>
    <clipPath
       id="b">
      <ellipse
         cx="-282.47198"
         cy="-35.694"
         rx="18.219999"
         ry="18.195"
         stroke-miterlimit="10"
         id="ellipse5"
         style="fill-opacity:0.27099998;stroke-width:1.64300001;stroke-miterlimit:10;stroke-opacity:0.769" />
    </clipPath>
  </defs>
  <rect
     style="fill:#0f0703;fill-opacity:1"
     x="1.5875"
     id="rect10"
     rx="0"
     y="1.5874879"
     height="28.575001"
     width="38.099998" />
  <path
     style="fill:#c48a00;fill-opacity:0.98431373"
     inkscape:connector-curvature="0"
     id="path12"
     d="m 1.5874999,1.5875001 4.233,4.233 H 35.4545 l 4.233,-4.233 z" />
  <path
     style="fill:#c48a00;fill-opacity:0.98431373"
     inkscape:connector-curvature="0"
     id="path14"
     d="m 39.6875,30.1625 -4.233,-4.233 H 5.8204999 l -4.233,4.233 z" />
  <path
     style="fill:#ffb50a;fill-opacity:0.98431373"
     inkscape:connector-curvature="0"
     id="path16"
     d="m 1.5874999,30.1625 4.233,-4.233 V 5.8205001 l -4.233,-4.233 z" />
  <path
     style="fill:#ffb50a;fill-opacity:0.98431373"
     inkscape:connector-curvature="0"
     id="path18"
     d="m 39.6875,1.5875001 -4.233,4.233 V 25.9295 l 4.233,4.233 z" />
  <path
     style="fill:none;stroke:#191919;stroke-width:3.17499995"
     inkscape:connector-curvature="0"
     id="path20"
     d="m -13.229,268.425 h 38.1 V 297 h -38.1 z"
     transform="translate(14.8175,-266.8375)"
     clip-path="url(#a)" />
  <path
     inkscape:connector-curvature="0"
     style="fill:#ffb50a;fill-opacity:0.98500001;stroke-width:0.21146069"
     d="M 12.707723,15.875 A 7.9297759,7.9297759 0 0 0 20.6375,23.804776 7.9297759,7.9297759 0 0 0 28.567276,15.875 7.9297759,7.9297759 0 0 0 20.6375,7.9452244 7.9297759,7.9297759 0 0 0 12.707723,15.875 Z m 1.297736,0.0032 a 0.98054321,0.98054321 0 0 1 0.980331,-0.980543 c 0.54155,0 4.515954,0.839498 4.515954,0.839498 0.141045,0.04187 0.141045,0.242968 0,0.281877 0,0 -4.048625,0.839499 -4.515954,0.839499 a 0.98054321,0.98054321 0 0 1 -0.980331,-0.98038 z m 0.430745,2.179524 a 0.98117763,0.98117763 0 0 1 0.601393,-0.902114 c 0.430747,-0.180798 4.488466,-0.973354 4.488466,-0.973354 0.145274,-0.01883 0.222879,0.16663 0.109116,0.260096 0,0 -3.339599,2.3119 -3.839068,2.521458 a 0.98012026,0.98012026 0 0 1 -1.283144,-0.524423 0.97800568,0.97800568 0 0 1 -0.07675,-0.381685 z m 0,-4.364547 v -6.36e-4 a 0.97673692,0.97673692 0 0 1 0.07675,-0.381475 0.98012026,0.98012026 0 0 1 1.283144,-0.524422 c 0.499471,0.209346 3.839069,2.521246 3.839069,2.521246 a 0.14379328,0.14379328 0 0 1 0.05371,0.128357 0.14675371,0.14675371 0 0 1 -0.112072,0.129836 0.13322024,0.13322024 0 0 1 -0.05074,0.0025 c 0,0 -4.057931,-0.792766 -4.488465,-0.973565 a 0.98075468,0.98075468 0 0 1 -0.60139,-0.901875 z m 1.222877,6.185436 c 0,-0.251004 0.09558,-0.502008 0.286953,-0.693592 0.330513,-0.330089 3.786626,-2.599273 3.786626,-2.599273 0.127302,-0.07232 0.269823,0.06977 0.19983,0.199407 0,0 -2.216531,3.404094 -2.599486,3.786838 a 0.98075468,0.98075468 0 0 1 -1.673923,-0.69337 z m 0,-8.006536 a 0.98075468,0.98075468 0 0 1 1.673923,-0.693556 c 0.382744,0.383167 2.599486,3.787262 2.599486,3.787262 0.06999,0.129413 -0.07253,0.271726 -0.19983,0.199407 0,0 -3.456113,-2.268974 -3.786626,-2.599485 a 0.97758282,0.97758282 0 0 1 -0.286953,-0.693617 z m 1.854088,9.250982 a 0.97673692,0.97673692 0 0 1 0.07211,-0.382532 c 0.175937,-0.432861 2.476417,-3.867616 2.476417,-3.867616 0.08924,-0.116303 0.275533,-0.0406 0.261577,0.105943 0,0 -0.717275,3.997663 -0.921123,4.499461 a 0.98075468,0.98075468 0 0 1 -1.88898,-0.355244 z m 0,-10.495428 a 0.98075468,0.98075468 0 0 1 1.88919,-0.355254 c 0.203637,0.501795 0.920911,4.49946 0.920911,4.49946 0.01395,0.146544 -0.17234,0.222033 -0.261576,0.10616 0,0 -2.300693,-3.434968 -2.476205,-3.867829 a 0.98160051,0.98160051 0 0 1 -0.07233,-0.382556 z m 2.14717,10.906084 c 0,-0.467329 0.839501,-4.51532 0.839501,-4.51532 0.03913,-0.141257 0.240007,-0.141257 0.282299,0 0,0 0.8395,3.97377 0.8395,4.51532 a 0.98075468,0.98075468 0 0 1 -1.9613,0 z m 0,-11.316318 a 0.98075468,0.98075468 0 0 1 1.961301,0 c 0,0.541339 -0.839501,4.515319 -0.839501,4.515319 -0.0423,0.141256 -0.243179,0.141256 -0.282088,0 0,0 -0.839712,-4.048203 -0.839712,-4.515319 z m 0.0334,5.661014 a 0.94713248,0.94713248 0 0 1 0.947344,-0.946884 0.94713248,0.94713248 0 0 1 0.947342,0.94692 0.94713248,0.94713248 0 0 1 -0.947342,0.947132 0.94713248,0.94713248 0 0 1 -0.947345,-0.947132 z m 1.258193,1.100653 c -0.01417,-0.146543 0.172129,-0.222035 0.261365,-0.106159 0,0 2.300693,3.434968 2.476205,3.867827 a 0.98054321,0.98054321 0 1 1 -1.816659,0.737787 c -0.203845,-0.501769 -0.92112,-4.499433 -0.92112,-4.499433 z m 0,-2.207015 c 0,0 0.717063,-3.997665 0.920911,-4.499461 a 0.98075468,0.98075468 0 1 1 1.81687,0.737786 c -0.175935,0.432861 -2.476416,3.867617 -2.476416,3.867617 -0.08924,0.116303 -0.275534,0.0406 -0.261577,-0.105943 z m 0.37365,1.923234 c 0.0131,-0.0941 0.119261,-0.164728 0.216747,-0.10932 0,0 3.456114,2.268973 3.786627,2.599486 a 0.98075468,0.98075468 0 0 1 -1.38697,1.386759 c -0.382742,-0.382781 -2.599483,-3.786875 -2.599483,-3.786875 a 0.153309,0.153309 0 0 1 -0.01649,-0.04864 0.1382953,0.1382953 0 0 1 -4.22e-4,-0.04144 z m 0,-1.639031 a 0.14379328,0.14379328 0 0 1 0.01693,-0.09051 c 0,0 2.216531,-3.404518 2.599485,-3.787261 a 0.98075468,0.98075468 0 0 1 1.38676,1.386759 c -0.330304,0.330512 -3.786205,2.599698 -3.786205,2.599698 -0.09748,0.0554 -0.203849,-0.0148 -0.216749,-0.1089 z m 0.26052,1.257979 c 0.0077,-0.0755 0.0719,-0.143581 0.162824,-0.131741 0,0 4.057931,0.792555 4.488467,0.973354 a 0.98054321,0.98054321 0 0 1 -0.75851,1.808237 c -0.499469,-0.209558 -3.839068,-2.521457 -3.839068,-2.521457 a 0.14379328,0.14379328 0 0 1 -0.05371,-0.128357 z m 0,-0.87735 a 0.14442766,0.14442766 0 0 1 0.05371,-0.128357 c 0,0 3.339601,-2.3119 3.839068,-2.521457 a 0.98054321,0.98054321 0 0 1 0.758722,1.807988 c -0.430957,0.181011 -4.488677,0.973565 -4.488677,0.973565 -0.09093,0.01186 -0.154789,-0.05626 -0.162823,-0.131739 z m 0.08141,0.442798 a 0.14590788,0.14590788 0 0 1 0.105725,-0.142525 c 0,0 3.974404,-0.839287 4.515956,-0.839287 a 0.9805435,0.9805435 0 1 1 0,1.961087 c -0.467329,0 -4.515956,-0.8395 -4.515956,-0.8395 a 0.14125575,0.14125575 0 0 1 -0.105725,-0.139775 z"
     id="path9" />
  <path
     style="fill:none;stroke:#514630;stroke-width:1.05833328;stroke-linecap:butt;stroke-linejoin:round;stroke-miterlimit:4;stroke-dasharray:none;stroke-opacity:0.98431373"
     d="m 1.5874999,19.579167 -1.05833326,-1e-6 V 13.229167 H 1.5874999"
     id="path957"
     inkscape:connector-curvature="0"
     sodipodi:nodetypes="cccc" />
  <path
     sodipodi:nodetypes="cccc"
     inkscape:connector-curvature="0"
     id="path959"
     d="m 39.6875,13.229167 1.058334,10e-7 v 6.349999 H 39.6875"
     style="fill:none;stroke:#514630;stroke-width:1.05833328;stroke-linecap:butt;stroke-linejoin:round;stroke-miterlimit:4;stroke-dasharray:none;stroke-opacity:0.98431373" />
  <path
     sodipodi:nodetypes="cccc"
     inkscape:connector-curvature="0"
     id="path961"
     d="m 16.404167,1.5874999 10e-7,-1.05833326 h 8.466665 V 1.5874999"
     style="fill:none;stroke:#514630;stroke-width:1.05833328;stroke-linecap:butt;stroke-linejoin:round;stroke-miterlimit:4;stroke-dasharray:none;stroke-opacity:0.98431373" />
  <path
     style="fill:none;stroke:#514630;stroke-width:1.05833328;stroke-linecap:butt;stroke-linejoin:round;stroke-miterlimit:4;stroke-dasharray:none;stroke-opacity:0.98431373"
     d="m 24.870834,30.1625 -10e-7,1.058334 H 16.404167 V 30.1625"
     id="path963"
     inkscape:connector-curvature="0"
     sodipodi:nodetypes="cccc" />
</svg>
