<svg xmlns="http://www.w3.org/2000/svg" width="144" height="144" viewBox="0 0 38.1 38.1"><path d="M22.073 1.886c3.01.507 6.601 1.854 9.395 4.805 2.794 2.95 4.79 7.505 5.014 12.22.225 4.714-1.322 9.587-4.337 12.732-3.014 3.145-7.495 4.56-11.76 4.785-4.266.224-8.314-.742-11.237-2.348-2.923-1.606-4.718-3.85-5.86-6.224-1.142-2.373-1.63-4.875-1.687-7.626-.056-2.751.317-5.752 1.51-8.406 1.193-2.653 3.2-4.956 5.187-6.528 1.986-1.572 3.949-2.413 6.144-2.999 2.194-.586 4.622-.918 7.631-.41z" fill="#b3b3b3" stroke="#2d2d2d" stroke-width="2.424"/><path d="M29.104 14.288c.048 3.128-1.928 5.445-5.379 5.445-3.45 0-6.877-2.505-6.247-5.445.601-2.808 2.92-5.48 5.379-5.446 4.094.055 6.206 2.753 6.247 5.446z" fill="#cacaca"/></svg>