<?xml version="1.0" encoding="UTF-8" standalone="no"?>
<svg
   xmlns:dc="http://purl.org/dc/elements/1.1/"
   xmlns:cc="http://creativecommons.org/ns#"
   xmlns:rdf="http://www.w3.org/1999/02/22-rdf-syntax-ns#"
   xmlns:svg="http://www.w3.org/2000/svg"
   xmlns="http://www.w3.org/2000/svg"
   xmlns:xlink="http://www.w3.org/1999/xlink"
   xmlns:sodipodi="http://sodipodi.sourceforge.net/DTD/sodipodi-0.dtd"
   xmlns:inkscape="http://www.inkscape.org/namespaces/inkscape"
   width="228"
   height="180"
   viewBox="0 0 60.324964 47.624924"
   version="1.1"
   id="svg61"
   sodipodi:docname="map-bunker-chrys-chamber-floor-01a.svg"
   inkscape:version="0.92.2 (5c3e80d, 2017-08-06)">
  <metadata
     id="metadata65">
    <rdf:RDF>
      <cc:Work
         rdf:about="">
        <dc:format>image/svg+xml</dc:format>
        <dc:type
           rdf:resource="http://purl.org/dc/dcmitype/StillImage" />
        <dc:title></dc:title>
      </cc:Work>
    </rdf:RDF>
  </metadata>
  <sodipodi:namedview
     pagecolor="#ffffff"
     bordercolor="#666666"
     borderopacity="1"
     objecttolerance="10"
     gridtolerance="10"
     guidetolerance="10"
     inkscape:pageopacity="0"
     inkscape:pageshadow="2"
     inkscape:window-width="1920"
     inkscape:window-height="1017"
     id="namedview63"
     showgrid="true"
     inkscape:zoom="2.5102253"
     inkscape:cx="122.00416"
     inkscape:cy="59.056619"
     inkscape:window-x="1912"
     inkscape:window-y="-8"
     inkscape:window-maximized="1"
     inkscape:current-layer="svg61"
     inkscape:object-paths="true"
     inkscape:snap-intersection-paths="true"
     inkscape:snap-smooth-nodes="true"
     inkscape:snap-midpoints="true"
     fit-margin-top="2"
     fit-margin-left="2"
     fit-margin-right="2"
     fit-margin-bottom="2"
     inkscape:showpageshadow="false"
     showguides="false">
    <inkscape:grid
       type="xygrid"
       id="grid843"
       empspacing="8"
       spacingy="0.52916582"
       spacingx="0.52916637"
       originx="8.9958282"
       originy="-156.10392" />
  </sodipodi:namedview>
  <defs
     id="defs27">
    <clipPath
       id="f">
      <path
         d="m -45.534,209.35 29.33,16.933 v 33.867 l -29.33,16.933 -29.33,-16.933 v -33.867 z"
         id="path2"
         inkscape:connector-curvature="0"
         style="fill-opacity:0.506;stroke:#ffffff;stroke-width:2.1170001;stroke-opacity:0.50199998" />
    </clipPath>
    <clipPath
       id="e">
      <path
         d="m -22.25,168.075 v -9.525 h -46.568 v 9.525 z"
         clip-path="url(#clipPath6865)"
         id="path5"
         inkscape:connector-curvature="0"
         style="fill:#a3977d;stroke-width:2.08100009" />
    </clipPath>
    <clipPath
       id="d">
      <path
         clip-path="url(#clipPath6865)"
         d="m 402.14,158.55 h 9.526 v -42.334 h -9.525 z"
         id="path8"
         inkscape:connector-curvature="0"
         style="fill:#a3977d;stroke-width:1.98399997" />
    </clipPath>
    <filter
       id="b"
       x="-0.023"
       width="1.0470001"
       y="-0.025"
       height="1.049"
       style="color-interpolation-filters:sRGB">
      <feGaussianBlur
         stdDeviation="1.651"
         id="feGaussianBlur11" />
    </filter>
    <pattern
       xlink:href="#a"
       id="c"
       patternTransform="matrix(0.06615,0,0,0.06615,465.66607,46.567153)" />
    <pattern
       patternUnits="userSpaceOnUse"
       width="128"
       height="128"
       patternTransform="matrix(.26458 0 0 .26458 0 -38.1)"
       id="a">
      <path
         fill="none"
         stroke-width="3.78"
         d="M0 0h128v128H0z"
         id="path15" />
      <path
         fill="none"
         stroke-width="3.78"
         d="M0 0h128v128H0z"
         id="path17" />
      <path
         d="M0 0h128v128H0z"
         fill="#2e2d2a"
         stroke-width="15.118"
         stroke-miterlimit="10"
         id="path19" />
      <path
         d="M60 128V68H0v-8h60V0h8v60h60v8H68v60z"
         fill="#6f6f6f"
         fill-opacity=".303"
         stroke-width="1.414"
         id="path21" />
    </pattern>
    <clipPath
       id="c-2">
      <path
         style="fill:#a3977d;stroke-width:5.14400005"
         inkscape:connector-curvature="0"
         d="m -70.934,202.47 h 50.8 v -60.854 h -8.467 v 48.155 l -4.233,4.233 h -25.4 l -4.234,-4.233 v -48.155 h -8.466 z"
         id="path8-6" />
    </clipPath>
    <clipPath
       id="g-9">
      <path
         d="m -22.25,168.075 v -9.525 h -46.568 v 9.525 z"
         clip-path="url(#clipPath6865)"
         id="path5-4"
         inkscape:connector-curvature="0"
         style="fill:#a3977d;stroke-width:2.08100009" />
    </clipPath>
    <clipPath
       id="clipPath1171">
      <path
         d="m -22.25,168.075 v -9.525 h -46.568 v 9.525 z"
         clip-path="url(#clipPath6865)"
         id="path1169"
         inkscape:connector-curvature="0"
         style="fill:#a3977d;stroke-width:2.08100009" />
    </clipPath>
    <clipPath
       id="clipPath1175">
      <path
         d="m -22.25,168.075 v -9.525 h -46.568 v 9.525 z"
         clip-path="url(#clipPath6865)"
         id="path1173"
         inkscape:connector-curvature="0"
         style="fill:#a3977d;stroke-width:2.08100009" />
    </clipPath>
    <clipPath
       id="clipPath1179">
      <path
         d="m -22.25,168.075 v -9.525 h -46.568 v 9.525 z"
         clip-path="url(#clipPath6865)"
         id="path1177"
         inkscape:connector-curvature="0"
         style="fill:#a3977d;stroke-width:2.08100009" />
    </clipPath>
    <clipPath
       id="clipPath1183">
      <path
         d="m -22.25,168.075 v -9.525 h -46.568 v 9.525 z"
         clip-path="url(#clipPath6865)"
         id="path1181"
         inkscape:connector-curvature="0"
         style="fill:#a3977d;stroke-width:2.08100009" />
    </clipPath>
    <clipPath
       id="clipPath1187">
      <path
         d="m -22.25,168.075 v -9.525 h -46.568 v 9.525 z"
         clip-path="url(#clipPath6865)"
         id="path1185"
         inkscape:connector-curvature="0"
         style="fill:#a3977d;stroke-width:2.08100009" />
    </clipPath>
    <clipPath
       clipPathUnits="userSpaceOnUse"
       id="clipPath3056">
      <path
         style="fill:#743500;fill-opacity:1;stroke:none;stroke-width:1.49671435;stroke-linecap:round;stroke-linejoin:miter;stroke-miterlimit:4;stroke-dasharray:none;stroke-opacity:1"
         d="m -16.933385,160.86663 h -29.633439 v -16.93339 l 27.51676,-1e-5 c 1.058337,0 2.116674,1.05834 2.116674,2.11668 z"
         id="path3058"
         inkscape:connector-curvature="0"
         sodipodi:nodetypes="cccccc" />
    </clipPath>
    <clipPath
       clipPathUnits="userSpaceOnUse"
       id="clipPath848">
      <path
         style="fill:#743500;fill-opacity:1;stroke:none;stroke-width:1.49671435;stroke-linecap:round;stroke-linejoin:miter;stroke-miterlimit:4;stroke-dasharray:none;stroke-opacity:1"
         d="m -16.933385,160.86663 h -29.633439 v -16.93339 l 27.51676,-1e-5 c 1.058337,0 2.116674,1.05834 2.116674,2.11668 z"
         id="path846"
         inkscape:connector-curvature="0"
         sodipodi:nodetypes="cccccc" />
    </clipPath>
    <pattern
       patternUnits="userSpaceOnUse"
       width="63.999994"
       height="63.999994"
       patternTransform="matrix(0.26458421,0,0,0.26458421,-110.06703,143.93324)"
       id="pattern3032">
      <rect
         y="0"
         x="0"
         height="63.999992"
         width="63.999992"
         id="rect2240-1"
         style="fill:#4d2d13;fill-opacity:1;stroke:none;stroke-width:3.99999952;stroke-linecap:round;stroke-linejoin:miter;stroke-miterlimit:4;stroke-dasharray:none;stroke-opacity:1" />
      <circle
         r="9.0571909"
         cy="32.000042"
         cx="32.000042"
         id="path2238-8"
         style="fill:#743500;fill-opacity:1;stroke:#191919;stroke-width:3.99999952;stroke-linecap:round;stroke-linejoin:miter;stroke-miterlimit:4;stroke-dasharray:none;stroke-opacity:1" />
    </pattern>
    <clipPath
       clipPathUnits="userSpaceOnUse"
       id="clipPath1607">
      <path
         sodipodi:nodetypes="ccccccccc"
         inkscape:connector-curvature="0"
         id="path1609"
         d="m 71.967074,-2.2842696e-4 c 2.116679,0 4.23336,2.11667482696 4.23336,4.23335962696 l -5e-6,19.0500118 c 0,1.058339 -1.058339,2.116679 -2.116679,2.116679 H 2.1166786 C 1.0583393,25.399822 0,24.341482 0,23.283143 L 2.6601041e-7,4.2331312 C 2.6601041e-7,2.1164464 2.1166781,-2.2842696e-4 4.2333569,-2.2842696e-4 Z"
         clip-path="none"
         style="fill:#27282b;fill-opacity:1;stroke:none;stroke-width:3.57253647;stroke-linecap:round;stroke-linejoin:miter;stroke-miterlimit:4;stroke-dasharray:none;stroke-opacity:1" />
    </clipPath>
    <clipPath
       clipPathUnits="userSpaceOnUse"
       id="clipPath3081">
      <path
         style="fill:#92939b;fill-opacity:1;stroke:none;stroke-width:1.99999201;stroke-linecap:round;stroke-linejoin:miter;stroke-miterlimit:4;stroke-dasharray:none;stroke-opacity:1"
         d="m 218.01682,16.93339 h 1.05834 c 1.05833,0 1.05833,1.058337 1.05833,1.058337 v 65.616889 c 0,0 0,1.058336 -1.05833,1.058336 h -1.05834 c -1.05834,0 -1.05834,-1.058336 -1.05834,-1.058336 V 17.991727 c 0,0 0,-1.058337 1.05834,-1.058337 z"
         id="path3083"
         inkscape:connector-curvature="0"
         sodipodi:nodetypes="ccccccccc" />
    </clipPath>
    <clipPath
       clipPathUnits="userSpaceOnUse"
       id="clipPath2663">
      <rect
         style="fill:#0065b7;fill-opacity:1;stroke:none;stroke-width:6.63249826;stroke-linecap:round;stroke-linejoin:miter;stroke-miterlimit:4;stroke-dasharray:none;stroke-opacity:1"
         id="rect2665"
         width="12.700267"
         height="21.167112"
         x="2.1158862"
         y="5.2917767"
         rx="1.0583556"
         ry="1.0583556" />
    </clipPath>
    <clipPath
       clipPathUnits="userSpaceOnUse"
       id="clipPath2622">
      <rect
         style="fill:#003764;fill-opacity:1;stroke-width:4.01678371"
         id="rect2624"
         ry="2.5400393"
         rx="2.5400534"
         y="3.1750655"
         x="1.9834799e-007"
         height="25.401232"
         width="57.150375" />
    </clipPath>
    <clipPath
       id="a-0">
      <rect
         style="fill:#6f6655;stroke-width:1.72800004"
         ry="2.1170001"
         rx="2.1170001"
         y="264.98401"
         x="6.3499999"
         height="10.583"
         width="25.4"
         id="rect2" />
    </clipPath>
    <clipPath
       id="a-4">
      <path
         style="fill:#ffffff;stroke-width:12.14400005"
         inkscape:connector-curvature="0"
         d="m 32.808,274.775 h 16.933 v 8.467 H 32.808 Z"
         id="path2-6" />
    </clipPath>
    <clipPath
       id="b-4">
      <path
         style="fill:#424242;stroke-width:3.77200007"
         inkscape:connector-curvature="0"
         d="m 16.933,264.192 c 4.586,0 12.7,2.116 12.7,5.291 v 3.175 c 0,1.059 -0.944,2.117 -2.116,2.117 H 6.35 c -1.17,-0.073 -2.117,-1.058 -2.117,-2.117 v -3.175 c 0,-3.175 8.114,-5.291 12.7,-5.291 z"
         id="path11" />
    </clipPath>
    <clipPath
       id="c-8">
      <path
         style="fill:#939393;stroke-width:2.96000004"
         inkscape:connector-curvature="0"
         d="m 52.917,283.242 c 0,5.261 -3.83,12.166 -8.625,12.166 -4.795,0 -8.625,-6.905 -8.625,-12.166 0,-5.262 3.861,-9.518 8.625,-9.518 4.763,0 8.625,4.256 8.625,9.518 z"
         id="path5-2" />
    </clipPath>
    <clipPath
       id="d-0">
      <path
         style="fill:#939393;stroke-width:2.96000004"
         inkscape:connector-curvature="0"
         d="m 61.383,253.608 c 0,5.262 -3.83,12.167 -8.625,12.167 -4.794,0 -8.624,-6.905 -8.624,-12.167 0,-5.261 3.861,-9.517 8.624,-9.517 4.764,0 8.625,4.256 8.625,9.517 z"
         id="path8-2" />
    </clipPath>
    <clipPath
       id="c-26">
      <path
         style="fill:#8e8380;stroke-width:3.08599997"
         inkscape:connector-curvature="0"
         d="m -10.503,154.7 h 7.409 l 2.116,2.117 V 180.1 c 0,2.117 -2.116,4.234 -4.233,4.234 h -5.292 z"
         clip-path="url(#a)"
         id="path5-9" />
    </clipPath>
    <clipPath
       id="d-3">
      <path
         style="fill:#756b68;stroke-width:2.1170001"
         inkscape:connector-curvature="0"
         clip-path="url(#b)"
         d="m -0.998,158.934 h 50.8 c 2.116,0 4.233,2.116 4.233,4.233 v 2.117 H -5.21 v -2.117 c 0,-2.117 2.096,-4.233 4.213,-4.233 z"
         id="path20-6" />
    </clipPath>
    <clipPath
       id="e-8">
      <path
         style="fill:#ada5a3;stroke-width:2.1170001"
         inkscape:connector-curvature="0"
         d="m 49.802,175.867 h -50.8 c -2.117,0 -4.234,-2.117 -4.234,-4.233 v -2.117 h 59.267 v 2.117 c 0,2.116 -2.117,4.233 -4.233,4.233 z"
         id="path17-5" />
    </clipPath>
    <clipPath
       id="f-3">
      <path
         style="fill:#8e8380;stroke-width:1.20700002"
         inkscape:connector-curvature="0"
         d="m 54.056,170.84 v -6.88 H -5.211 v 6.88 z"
         id="path14" />
    </clipPath>
    <clipPath
       id="g">
      <circle
         style="fill:#8e8380;stroke-width:0.87300003"
         r="2.1170001"
         cy="-1.1390001"
         cx="152.584"
         id="ellipse8" />
    </clipPath>
    <clipPath
       clipPathUnits="userSpaceOnUse"
       id="clipPath2135-42">
      <path
         style="fill:#1b1e25;stroke-width:2.22600007"
         d="M 101.59995,-0.00173529 V 67.733115 h 59.2656 l 10e-4,262.466535 H 114.3015 v 33.86366 l 46.5651,0.003 5.3e-4,143.93327 H 8.4666625 v 0 l 3.31e-5,-143.93126 46.5666554,-0.003 V 330.19965 H 8.4532148 L 8.4651157,67.732544 H 67.73175 V -1.85e-4 H 59.266637 V 59.266968 H 0 L -4.6699999e-5,516.46686 H 169.33371 l -0.002,-457.199373 -59.26509,-0.0031 V -0.00173529 Z"
         id="path2137-3"
         inkscape:connector-curvature="0"
         sodipodi:nodetypes="cccccccccccccccccccccccccc" />
    </clipPath>
    <clipPath
       id="g-9-9">
      <path
         d="m -22.25,168.075 v -9.525 h -46.568 v 9.525 z"
         clip-path="url(#clipPath6865)"
         id="path5-4-2"
         inkscape:connector-curvature="0"
         style="fill:#a3977d;stroke-width:2.08100009" />
    </clipPath>
    <clipPath
       id="clipPath1222">
      <path
         d="m -22.25,168.075 v -9.525 h -46.568 v 9.525 z"
         clip-path="url(#clipPath6865)"
         id="path1220"
         inkscape:connector-curvature="0"
         style="fill:#a3977d;stroke-width:2.08100009" />
    </clipPath>
    <clipPath
       id="clipPath1226">
      <path
         d="m -22.25,168.075 v -9.525 h -46.568 v 9.525 z"
         clip-path="url(#clipPath6865)"
         id="path1224"
         inkscape:connector-curvature="0"
         style="fill:#a3977d;stroke-width:2.08100009" />
    </clipPath>
    <clipPath
       id="clipPath1230">
      <path
         d="m -22.25,168.075 v -9.525 h -46.568 v 9.525 z"
         clip-path="url(#clipPath6865)"
         id="path1228"
         inkscape:connector-curvature="0"
         style="fill:#a3977d;stroke-width:2.08100009" />
    </clipPath>
    <clipPath
       id="clipPath1234">
      <path
         d="m -22.25,168.075 v -9.525 h -46.568 v 9.525 z"
         clip-path="url(#clipPath6865)"
         id="path1232"
         inkscape:connector-curvature="0"
         style="fill:#a3977d;stroke-width:2.08100009" />
    </clipPath>
    <clipPath
       id="clipPath1238">
      <path
         d="m -22.25,168.075 v -9.525 h -46.568 v 9.525 z"
         clip-path="url(#clipPath6865)"
         id="path1236"
         inkscape:connector-curvature="0"
         style="fill:#a3977d;stroke-width:2.08100009" />
    </clipPath>
    <clipPath
       clipPathUnits="userSpaceOnUse"
       id="clipPath1311">
      <path
         id="path1313"
         d="M 8.4665331,347.13277 H 50.799922 v -60.85408 h -8.466677 v 48.15507 l -3.597999,4.233 H 20.532059 l -3.598848,-4.233 V 286.27869 H 8.4665331 Z"
         inkscape:connector-curvature="0"
         style="fill:#a3977d;stroke-width:4.74250221"
         sodipodi:nodetypes="ccccccccccc" />
    </clipPath>
    <clipPath
       id="g-9-9-1">
      <path
         d="m -22.25,168.075 v -9.525 h -46.568 v 9.525 z"
         clip-path="url(#clipPath6865)"
         id="path5-4-2-4"
         inkscape:connector-curvature="0"
         style="fill:#a3977d;stroke-width:2.08100009" />
    </clipPath>
    <clipPath
       id="clipPath1028">
      <path
         d="m -22.25,168.075 v -9.525 h -46.568 v 9.525 z"
         clip-path="url(#clipPath6865)"
         id="path1026"
         inkscape:connector-curvature="0"
         style="fill:#a3977d;stroke-width:2.08100009" />
    </clipPath>
    <clipPath
       id="clipPath1032">
      <path
         d="m -22.25,168.075 v -9.525 h -46.568 v 9.525 z"
         clip-path="url(#clipPath6865)"
         id="path1030"
         inkscape:connector-curvature="0"
         style="fill:#a3977d;stroke-width:2.08100009" />
    </clipPath>
    <clipPath
       id="clipPath1036">
      <path
         d="m -22.25,168.075 v -9.525 h -46.568 v 9.525 z"
         clip-path="url(#clipPath6865)"
         id="path1034"
         inkscape:connector-curvature="0"
         style="fill:#a3977d;stroke-width:2.08100009" />
    </clipPath>
    <clipPath
       id="clipPath1040">
      <path
         d="m -22.25,168.075 v -9.525 h -46.568 v 9.525 z"
         clip-path="url(#clipPath6865)"
         id="path1038"
         inkscape:connector-curvature="0"
         style="fill:#a3977d;stroke-width:2.08100009" />
    </clipPath>
    <clipPath
       id="clipPath1044">
      <path
         d="m -22.25,168.075 v -9.525 h -46.568 v 9.525 z"
         clip-path="url(#clipPath6865)"
         id="path1042"
         inkscape:connector-curvature="0"
         style="fill:#a3977d;stroke-width:2.08100009" />
    </clipPath>
    <clipPath
       id="clipPath1048">
      <path
         d="m -22.25,168.075 v -9.525 h -46.568 v 9.525 z"
         clip-path="url(#clipPath6865)"
         id="path1046"
         inkscape:connector-curvature="0"
         style="fill:#a3977d;stroke-width:2.08100009" />
    </clipPath>
    <pattern
       xlink:href="#b-6"
       id="q"
       patternTransform="matrix(0.19843741,-0.19843741,0.19843741,0.19843741,563.03306,234.94966)" />
    <pattern
       patternUnits="userSpaceOnUse"
       width="64"
       height="64"
       patternTransform="translate(-20.134 336.35) scale(.26458)"
       id="b-6">
      <path
         d="M0 0h64v64H0z"
         fill="#8b6539"
         stroke-width=".516"
         id="path67" />
      <path
         fill="none"
         stroke-width="3.78"
         d="M0 0h64v64H0z"
         id="path69" />
      <path
         fill="none"
         stroke-width="3.78"
         d="M0 0h64v64H0z"
         id="path71" />
      <path
         fill="none"
         stroke-width="1.89"
         d="M0 0h64v64H0z"
         id="path73" />
      <path
         d="M32 0h32v32H32zM0 32h32v32H0z"
         fill="#a47743"
         stroke-width=".258"
         id="path75" />
    </pattern>
    <pattern
       patternTransform="matrix(0.26458318,0,0,0.26458318,322.26234,174.09564)"
       id="pattern2095"
       xlink:href="#pattern2006"
       inkscape:collect="always" />
    <pattern
       patternUnits="userSpaceOnUse"
       width="192"
       height="192"
       patternTransform="matrix(0.26458367,0,0,0.26458367,-203.20039,287.86707)"
       id="pattern2006">
      <g
         clip-path="url(#clipPath2002)"
         id="g2000"
         transform="matrix(3.7795227,0,0,3.7795227,768.00051,-1088.0001)">
        <path
           style="fill:#6b6b6b;fill-opacity:1;stroke:#3f3f3f;stroke-width:1.05833471;stroke-linecap:butt;stroke-linejoin:miter;stroke-miterlimit:4;stroke-dasharray:none;stroke-opacity:1"
           d="m -211.66708,287.86704 8.46668,25.40003 h 8.46668 16.93335 l -8.46667,-25.40003 h -8.46668 z"
           id="path1733"
           inkscape:connector-curvature="0" />
        <path
           inkscape:connector-curvature="0"
           id="path1982"
           d="m -186.26705,287.86704 8.46668,25.40003 h 8.46668 16.93335 l -8.46667,-25.40003 h -8.46668 z"
           style="fill:#6b6b6b;fill-opacity:1;stroke:#3f3f3f;stroke-width:1.05833471;stroke-linecap:butt;stroke-linejoin:miter;stroke-miterlimit:4;stroke-dasharray:none;stroke-opacity:1" />
        <path
           style="fill:#6b6b6b;fill-opacity:1;stroke:#3f3f3f;stroke-width:1.05833471;stroke-linecap:butt;stroke-linejoin:miter;stroke-miterlimit:4;stroke-dasharray:none;stroke-opacity:1"
           d="m -194.73372,338.6671 8.46668,-25.40003 h 8.46668 16.93335 l -8.46667,25.40003 h -8.46668 z"
           id="path1984"
           inkscape:connector-curvature="0" />
        <path
           inkscape:connector-curvature="0"
           id="path1986"
           d="m -220.13375,338.6671 8.46668,-25.40003 h 8.46668 16.93335 l -8.46667,25.40003 h -8.46668 z"
           style="fill:#6b6b6b;fill-opacity:1;stroke:#3f3f3f;stroke-width:1.05833471;stroke-linecap:butt;stroke-linejoin:miter;stroke-miterlimit:4;stroke-dasharray:none;stroke-opacity:1" />
        <path
           inkscape:connector-curvature="0"
           id="path1988"
           d="m -169.3337,338.6671 8.46668,-25.40003 h 8.46668 16.93335 l -8.46667,25.40003 h -8.46668 z"
           style="fill:#6b6b6b;fill-opacity:1;stroke:#3f3f3f;stroke-width:1.05833471;stroke-linecap:butt;stroke-linejoin:miter;stroke-miterlimit:4;stroke-dasharray:none;stroke-opacity:1" />
        <path
           style="fill:#6b6b6b;fill-opacity:1;stroke:#3f3f3f;stroke-width:1.05833471;stroke-linecap:butt;stroke-linejoin:miter;stroke-miterlimit:4;stroke-dasharray:none;stroke-opacity:1"
           d="m -160.86702,287.86704 8.46668,25.40003 h 8.46668 16.93335 l -8.46667,-25.40003 h -8.46668 z"
           id="path1990"
           inkscape:connector-curvature="0" />
      </g>
    </pattern>
    <clipPath
       clipPathUnits="userSpaceOnUse"
       id="clipPath2002">
      <rect
         style="fill:#373737;fill-opacity:1;stroke:none;stroke-width:1.05833471;stroke-linecap:butt;stroke-linejoin:miter;stroke-miterlimit:4;stroke-dasharray:none;stroke-opacity:1"
         id="rect2004"
         width="50.800064"
         height="50.800064"
         x="-203.20039"
         y="287.86707" />
    </clipPath>
    <clipPath
       clipPathUnits="userSpaceOnUse"
       id="clipPath2290">
      <path
         sodipodi:nodetypes="cccccccccccccccccccccccccccccccccccccc"
         inkscape:connector-curvature="0"
         id="path2292"
         d="M 0,-1.3308597e-4 -0.0020671,194.73464 H 245.53321 V 152.4003 l 237.06448,3e-5 v -321.73315 h -76.19996 v 8.46666 h 67.7333 v 101.599944 h -55.03331 v 33.866648 h 55.03331 V 143.93367 H 220.13115 l -1e-5,42.33379 -211.6670618,0.002 L 8.4646074,0.00113275 Z M 220.13115,110.06702 h 84.66661 V -25.399568 h 55.03333 V -59.266216 H 304.79776 V -160.86616 h 67.73332 v -8.46666 H 296.3311 v 270.93318 l -50.79789,-3e-5 V 50.80087 L 42.331243,50.800341 V 8.9991822e-4 H 33.864065 V 67.735228 l 186.266565,-5.29e-4 z"
         style="fill:#2b2622;fill-opacity:1;stroke-width:2.22600007" />
    </clipPath>
    <clipPath
       clipPathUnits="userSpaceOnUse"
       id="clipPath873">
      <path
         style="fill:#3a3a3a;fill-opacity:1;stroke-width:2.11698699;stroke-opacity:0.706"
         inkscape:connector-curvature="0"
         id="path875"
         d="M 50.800385,6.8300011e-4 67.732473,16.933384 67.733531,101.60031 50.800147,84.666929 Z"
         sodipodi:nodetypes="ccccc" />
    </clipPath>
    <clipPath
       clipPathUnits="userSpaceOnUse"
       id="clipPath879">
      <path
         sodipodi:nodetypes="ccccc"
         d="M 67.732788,101.59901 50.800089,84.666924 -6.1920499e-5,84.666913 16.933318,101.6003 Z"
         id="path881"
         inkscape:connector-curvature="0"
         style="fill:#3a3a3a;fill-opacity:1;stroke-width:2.11698699;stroke-opacity:0.706" />
    </clipPath>
    <clipPath
       clipPathUnits="userSpaceOnUse"
       id="clipPath885">
      <path
         style="fill:#3a3a3a;fill-opacity:1;stroke-width:2.11695504;stroke-opacity:0.706"
         inkscape:connector-curvature="0"
         id="path887"
         d="M -6.6921139e-5,84.666921 16.933318,101.6003 v 42.33347 L -6.6921139e-5,160.86715 -4.0392105e-4,152.31613 2.1164463,150.28379 V 120.65036 L -4.0392105e-4,118.451 Z"
         sodipodi:nodetypes="ccccccccc" />
    </clipPath>
    <clipPath
       clipPathUnits="userSpaceOnUse"
       id="clipPath891">
      <path
         style="fill:#3a3a3a;fill-opacity:1;stroke-width:2.11698699;stroke-opacity:0.706"
         inkscape:connector-curvature="0"
         id="path893"
         d="M -6.6921139e-5,160.86715 16.93202,143.93445 l 186.26783,-0.001 16.93408,16.9337 z"
         sodipodi:nodetypes="ccccc" />
    </clipPath>
    <clipPath
       clipPathUnits="userSpaceOnUse"
       id="clipPath897">
      <path
         d="M 220.13325,160.86585 203.20055,143.93377 203.20123,16.933087 220.13393,0 Z"
         id="path899"
         inkscape:connector-curvature="0"
         style="fill:#3a3a3a;fill-opacity:1;stroke-width:2.11698699;stroke-opacity:0.706"
         sodipodi:nodetypes="ccccc" />
    </clipPath>
    <clipPath
       clipPathUnits="userSpaceOnUse"
       id="clipPath1627">
      <path
         style="fill:#565656;stroke-width:1.58927548;stroke-opacity:0.706"
         d="m 128,32 v 160 l -96.001953,-0.002 v 79.99804 L 383.99805,272 V 32.003906 Z m 208.30078,32.044922 a 16,16 0 0 1 16,16 16,16 0 0 1 -16,16 16,16 0 0 1 -16,-16 16,16 0 0 1 16,-16 z M 336,192 a 24,24 0 0 1 24,24 24,24 0 0 1 -24,24 24,24 0 0 1 -24,-24 24,24 0 0 1 24,-24 z"
         id="path1629"
         inkscape:connector-curvature="0" />
    </clipPath>
    <pattern
       xlink:href="#b-7"
       id="a-0-3"
       patternTransform="translate(-159.834 378.683) scale(.06615)" />
    <pattern
       patternUnits="userSpaceOnUse"
       width="32"
       height="32"
       patternTransform="translate(-159.834 378.683) scale(.26458)"
       id="b-7">
      <path
         fill="none"
         stroke-width="3.78"
         d="M0 0h32v32H0z"
         id="path10" />
      <path
         fill="none"
         stroke-width="4"
         d="M0 0h32v32H0z"
         id="path12" />
      <path
         d="M16 0v32M0 16h32"
         fill="none"
         stroke="#000"
         stroke-width="4"
         id="path14-9" />
    </pattern>
    <pattern
       xlink:href="#a-0-3"
       id="c-9"
       patternTransform="matrix(-0.06615048,0,0,0.06614982,241.30034,461.43315)" />
    <pattern
       xlink:href="#b-7"
       id="pattern899"
       patternTransform="translate(-159.834 378.683) scale(.06615)" />
    <pattern
       patternUnits="userSpaceOnUse"
       width="32"
       height="32"
       patternTransform="translate(-159.834 378.683) scale(.26458)"
       id="pattern907">
      <path
         fill="none"
         stroke-width="3.78"
         d="M0 0h32v32H0z"
         id="path901" />
      <path
         fill="none"
         stroke-width="4"
         d="M0 0h32v32H0z"
         id="path903" />
      <path
         d="M16 0v32M0 16h32"
         fill="none"
         stroke="#000"
         stroke-width="4"
         id="path905" />
    </pattern>
    <clipPath
       clipPathUnits="userSpaceOnUse"
       id="clipPath1868">
      <path
         style="fill:#3f3c34;stroke-width:2.11703229;stroke-opacity:0.706"
         inkscape:connector-curvature="0"
         id="path1870-1"
         d="M 1.2686968e-4,516.46673 16.933071,499.53403 H 152.39992 l 16.93336,16.93336 z"
         sodipodi:nodetypes="ccccc" />
    </clipPath>
    <clipPath
       clipPathUnits="userSpaceOnUse"
       id="clipPath887">
      <path
         style="fill:#3f3c34;stroke-width:2.11703229;stroke-opacity:0.706"
         inkscape:connector-curvature="0"
         id="path885"
         d="M 1.2686968e-4,516.46673 16.933071,499.53403 H 152.39992 l 16.93336,16.93336 z"
         sodipodi:nodetypes="ccccc" />
    </clipPath>
    <clipPath
       clipPathUnits="userSpaceOnUse"
       id="clipPath891-4">
      <path
         style="fill:#3f3c34;stroke-width:2.11703229;stroke-opacity:0.706"
         inkscape:connector-curvature="0"
         id="path889-0"
         d="M 1.2686968e-4,516.46673 16.933071,499.53403 H 152.39992 l 16.93336,16.93336 z"
         sodipodi:nodetypes="ccccc" />
    </clipPath>
    <clipPath
       id="a-5">
      <rect
         style="fill:#585858;stroke-width:1.41900003"
         x="0"
         rx="0"
         y="279.008"
         height="17.992001"
         width="38.099998"
         id="rect8" />
    </clipPath>
    <clipPath
       id="b-9">
      <rect
         style="fill:#393939;stroke-width:1.19200003"
         x="0"
         width="38.099998"
         height="12.7"
         y="258.89999"
         rx="0"
         id="rect2-0" />
    </clipPath>
    <clipPath
       id="c-20">
      <rect
         style="fill:#e30000;stroke-width:3.76600003"
         width="8.467"
         height="8.467"
         x="14.817"
         y="299.117"
         rx="1.058"
         ry="1.058"
         id="rect5" />
    </clipPath>
    <clipPath
       id="d-6">
      <circle
         style="fill:#e30000;stroke-width:3.17499995"
         cx="19.049999"
         cy="302.556"
         r="3.9690001"
         id="circle11" />
    </clipPath>
    <clipPath
       id="clipPath884">
      <circle
         style="fill:#e30000;stroke-width:3.17499995"
         cx="19.049999"
         cy="302.556"
         r="3.9690001"
         id="circle882" />
    </clipPath>
    <clipPath
       id="e-2">
      <circle
         style="fill:#e30000;stroke-width:3.17499995"
         cx="19.049999"
         cy="302.556"
         r="3.9690001"
         id="circle14" />
    </clipPath>
    <filter
       style="color-interpolation-filters:sRGB"
       id="b-2"
       x="-0.013"
       width="1.026"
       y="-0.037"
       height="1.074">
      <feGaussianBlur
         stdDeviation="1.457"
         id="feGaussianBlur33" />
    </filter>
    <filter
       inkscape:collect="always"
       style="color-interpolation-filters:sRGB"
       id="filter1065"
       x="-0.0091034481"
       width="1.018207"
       y="-0.010153846"
       height="1.0203077">
      <feGaussianBlur
         inkscape:collect="always"
         stdDeviation="1.8626647"
         id="feGaussianBlur1067" />
    </filter>
    <clipPath
       clipPathUnits="userSpaceOnUse"
       id="clipPath1009">
      <path
         sodipodi:nodetypes="cccccccccccccccccccccccccccccccccccc"
         inkscape:connector-curvature="0"
         id="path1011"
         d="m 8.9983886,8.4647212 -0.003,195.2617288 237.0669914,0.004 v -42.33434 l 245.53279,-0.003 0.003,-364.06695 h -76.19932 v 8.46666 h 67.73332 l -0.003,143.933737 H 428.0959 v 33.866648 h 55.03335 V 152.9255 h -253.9997 l -1e-5,42.33379 -211.667051,0.003 V 8.466641 Z M 229.12955,119.05885 h 84.6666 V -16.407746 h 55.03335 v -33.866648 h -55.03335 l 0.003,-143.933736 h 67.73332 v -8.46666 H 305.3324 l -0.003,262.470498 -253.999854,-0.0035 V 8.466641 h -8.46718 v 68.260414 l 186.266574,-5.3e-4 z"
         style="fill:#2b2622;fill-opacity:1;stroke-width:2.22600007" />
    </clipPath>
  </defs>
  <path
     inkscape:connector-curvature="0"
     style="fill:#130902;fill-opacity:0.94499966;stroke-width:1.00507069;filter:url(#filter1065)"
     d="M 4.7624973,55.562442 H 301.09566 l -1e-5,-228.599872 h 33.86665 v -59.26663 h 126.99993 v 59.26663 h 33.86665 l 10e-6,338.66647 H 250.29568 v 42.33331 H 4.7624973 Z"
     id="path38-1"
     sodipodi:nodetypes="ccccccccccccc" />
  <path
     d="m 8.9948286,68.261938 237.0672814,4.19e-4 4.3e-4,135.466663 -237.0667114,-7e-5 z"
     id="path33"
     inkscape:connector-curvature="0"
     style="fill:#302e28;stroke-width:0.91766316"
     sodipodi:nodetypes="ccccc" />
  <path
     style="fill:url(#pattern2095);fill-opacity:1;stroke:none;stroke-width:2.39840961;stroke-linecap:butt;stroke-linejoin:miter;stroke-miterlimit:4;stroke-dasharray:none;stroke-opacity:1"
     d="M 305.32901,-16.404249 H 491.59256 V 161.39566 l -245.53032,4.7e-4 v -50.79997 l 59.26677,-4.9e-4 z"
     id="rect1624"
     inkscape:connector-curvature="0"
     sodipodi:nodetypes="ccccccc" />
  <path
     d="m -22.25,168.075 v -9.525 h -46.568 v 9.525 z"
     clip-path="url(#g-9-9-1)"
     transform="matrix(0.90906186,0,0,0.99999608,71.556678,-124.15365)"
     id="path56-7-7"
     inkscape:connector-curvature="0"
     style="fill:#584335;fill-opacity:1;stroke:#000000;stroke-width:2.1170001;stroke-opacity:0.706" />
  <path
     transform="matrix(0.90906186,0,0,0.99999608,71.556678,-115.68697)"
     clip-path="url(#g-9-9-1)"
     d="m -22.25,168.075 v -9.525 h -46.568 v 9.525 z"
     id="path58-8-8"
     inkscape:connector-curvature="0"
     style="fill:#4b392d;fill-opacity:1;stroke:#000000;stroke-width:2.1170001;stroke-opacity:0.706" />
  <path
     d="m -22.25,168.075 v -9.525 h -46.568 v 9.525 z"
     clip-path="url(#g-9-9-1)"
     transform="matrix(0.90906186,0,0,0.99999608,71.555767,-107.2203)"
     id="path60-6-5"
     inkscape:connector-curvature="0"
     style="fill:#3f3026;fill-opacity:1;stroke:#000000;stroke-width:2.1170001;stroke-opacity:0.706" />
  <path
     transform="matrix(0.90906186,0,0,0.99999608,71.556678,-98.753668)"
     clip-path="url(#g-9-9-1)"
     d="m -22.25,168.075 v -9.525 h -46.568 v 9.525 z"
     id="path62-1"
     inkscape:connector-curvature="0"
     style="fill:#32261e;fill-opacity:1;stroke:#000000;stroke-width:2.1170001;stroke-opacity:0.706" />
  <path
     style="fill:#7d5f4b;fill-opacity:1;stroke:none;stroke-width:2.1170001;stroke-opacity:0.706"
     inkscape:connector-curvature="0"
     id="path4924-5"
     d="m -22.25,168.075 v -9.525 h -46.568 v 9.525 z"
     clip-path="url(#g-9-9-1)"
     transform="matrix(0.90906186,0,0,0.99999608,71.555767,-148.49531)" />
  <path
     transform="matrix(0.90906186,0,0,0.99999608,71.555767,-132.62029)"
     clip-path="url(#g-9-9-1)"
     d="m -22.25,168.075 v -9.525 h -46.568 v 9.525 z"
     id="path54-9-3"
     inkscape:connector-curvature="0"
     style="fill:#644c3c;fill-opacity:1;stroke:#000000;stroke-width:2.1170001;stroke-opacity:0.706" />
  <path
     style="fill:#715644;fill-opacity:1;stroke:#000000;stroke-width:2.1170001;stroke-opacity:0.706"
     inkscape:connector-curvature="0"
     id="path916"
     d="m -22.25,168.075 v -9.525 h -46.568 v 9.525 z"
     clip-path="url(#g-9-9-1)"
     transform="matrix(0.90906186,0,0,0.99999608,71.555767,-141.08695)" />
  <path
     d="m 241.82905,152.92866 v -33.866 h 8.467 v 33.866 z"
     id="path53"
     inkscape:connector-curvature="0"
     style="fill:#555555" />
  <path
     d="m 28.89786,173.92371 c -1.929399,2.44915 -4.793,2.56669 -6.887738,1.23745 -2.194592,-1.53109 -4.390436,-4.83981 0.573496,-10.28864 3.192252,-2.54911 4.201132,-1.97541 6.78703,0.84289 1.69947,2.13718 1.03592,5.26897 -0.471792,8.20826 z"
     id="path58"
     inkscape:connector-curvature="0"
     style="fill:#0c0c0c;fill-opacity:0.328;stroke-width:0.99999946" />
  <g
     id="g1204"
     transform="rotate(-90,118.44856,131.84124)">
    <path
       transform="matrix(-0.91414178,-0.52778,0.52778,-0.91414178,-55.689401,295.66894)"
       d="m -45.534,209.35 29.33,16.933 v 33.867 l -29.33,16.933 -29.33,-16.933 v -33.867 z"
       clip-path="url(#f)"
       id="path1100"
       inkscape:connector-curvature="0"
       style="fill-opacity:0.11799999;stroke:#ffffff;stroke-width:4.01100016;stroke-opacity:0.15700001" />
    <path
       d="m 83.977371,96.77015 16.105999,0.686 a 14.227,14.227 0 0 1 -0.01,-0.289 14.227,14.227 0 0 1 7.372,-12.45 l -8.649999,-13.61 z m 45.826999,-25.664 -8.647,13.605 a 14.227,14.227 0 0 1 0.255,0.136 14.227,14.227 0 0 1 7.095,12.61 l 16.114,-0.687 z m -0.688,52.52 -7.459,-14.292 a 14.227,14.227 0 0 1 -0.245,0.154 14.227,14.227 0 0 1 -14.468,-0.16 l -7.460999,14.298 z"
       id="path1102"
       inkscape:connector-curvature="0"
       style="fill:#ffffff;fill-opacity:0.15700001" />
    <path
       inkscape:connector-curvature="0"
       id="path848"
       d="m 114.29993,85.003993 a 12.362517,12.362516 0 0 0 -12.36251,12.362516 12.362517,12.362516 0 0 0 12.36251,12.362521 12.362517,12.362516 0 0 0 12.36252,-12.362521 12.362517,12.362516 0 0 0 -12.36252,-12.362516 z m -0.005,2.023075 c 0.84425,0 1.52859,0.684316 1.52859,1.528574 0,0.84424 -1.30837,7.040195 -1.30837,7.040195 -0.0657,0.21999 -0.37897,0.21999 -0.43977,0 0,0 -1.30901,-6.311829 -1.30901,-7.040195 0,-0.844258 0.68432,-1.528574 1.52856,-1.528574 z m -3.39776,0.671568 c 0.59572,0.0016 1.16119,0.353647 1.40624,0.93749 0.28188,0.671611 1.51763,6.997699 1.51763,6.997699 0.0291,0.22631 -0.25994,0.347412 -0.40565,0.169986 0,0 -3.60416,-5.20642 -3.93089,-5.984876 -0.32673,-0.778479 0.0393,-1.673802 0.81773,-2.000539 0.19462,-0.08161 0.39638,-0.120312 0.59494,-0.119764 z m 6.80454,0 h 6.4e-4 c 0.19856,-6.23e-4 0.40033,0.03803 0.59495,0.119764 0.77848,0.326737 1.14446,1.22206 0.81773,2.000539 -0.32674,0.778456 -3.9309,5.984876 -3.9309,5.984876 -0.0546,0.06654 -0.12959,0.09118 -0.20023,0.0837 -0.0942,-0.0097 -0.18062,-0.07593 -0.20218,-0.174489 -0.006,-0.02467 -0.008,-0.05091 -0.004,-0.07919 0,0 1.23574,-6.326088 1.51762,-6.997699 0.24506,-0.583843 0.81052,-0.936244 1.40624,-0.93749 z m -9.64341,1.90653 c 0.39122,0 0.78259,0.14901 1.08108,0.447498 0.51503,0.515028 4.05258,5.9031 4.05258,5.9031 0.11263,0.198513 -0.10898,0.420787 -0.31099,0.311641 0,0 -5.30677,-3.45561 -5.90375,-4.052587 -0.59697,-0.596979 -0.59697,-1.565177 0,-2.162154 0.29851,-0.298488 0.68987,-0.447498 1.08108,-0.447498 z m 12.48228,0 c 0.39122,0 0.78259,0.14901 1.08108,0.447498 0.59698,0.596977 0.59698,1.565175 0,2.162154 -0.59698,0.596977 -5.90375,4.052587 -5.90375,4.052587 -0.20197,0.109149 -0.42363,-0.113173 -0.31099,-0.311641 0,0 3.53756,-5.388072 4.05258,-5.9031 0.29849,-0.298488 0.68986,-0.447498 1.08108,-0.447498 z m -14.42229,2.890383 c 0.19855,-0.0029 0.40066,0.0333 0.59623,0.112674 0.67486,0.274016 6.02995,3.860708 6.02995,3.860708 0.18099,0.139041 0.0631,0.429507 -0.16548,0.407577 0,0 -6.23221,-1.11824 -7.01443,-1.435855 -0.78226,-0.317624 -1.15918,-1.209291 -0.84155,-1.991522 0.23822,-0.586649 0.79962,-0.944866 1.39529,-0.953589 z m 16.36231,0 c 0.59565,0.0086 1.15706,0.366939 1.39529,0.953588 0.31761,0.782232 -0.0593,1.673898 -0.84156,1.991523 -0.78223,0.317614 -7.01444,1.435855 -7.01444,1.435855 -0.22852,0.02193 -0.34646,-0.268537 -0.16547,-0.407578 0,0 5.35509,-3.586692 6.02994,-3.860708 0.19556,-0.07937 0.39769,-0.115166 0.59624,-0.112674 z m -17.00233,3.347538 c 0.72837,0 7.03955,1.30901 7.03955,1.30901 0.21999,0.06073 0.21999,0.374106 0,0.439768 0,0 -6.19531,1.309013 -7.03955,1.309013 -0.84426,0 -1.52857,-0.684342 -1.52857,-1.528574 0,-0.844267 0.68431,-1.529217 1.52857,-1.529217 z m 17.64234,0 c 0.84426,0 1.52858,0.68495 1.52858,1.529217 0,0.844232 -0.68432,1.528574 -1.52858,1.528574 -0.84425,0 -7.03955,-1.309013 -7.03955,-1.309013 -0.21999,-0.06566 -0.21999,-0.37909 0,-0.439768 0,0 6.31119,-1.30901 7.03955,-1.30901 z m -8.82568,0.05216 a 1.4765519,1.4765518 0 0 1 1.47642,1.477064 1.4765519,1.4765518 0 0 1 -1.47642,1.476418 1.4765519,1.4765518 0 0 1 -1.47642,-1.476418 1.4765519,1.4765518 0 0 1 1.47642,-1.477064 z m -1.71594,1.961263 c 0.22853,-0.02193 0.34646,0.268536 0.16548,0.407577 0,0 -5.3551,3.586693 -6.02995,3.860703 -0.78223,0.31761 -1.67389,-0.0587 -1.99152,-0.84091 -0.31762,-0.78222 0.0593,-1.673901 0.84155,-1.991515 0.78223,-0.317615 7.01444,-1.435855 7.01444,-1.435855 z m 3.4409,0 c 0,0 6.23221,1.11824 7.01444,1.435855 0.78225,0.317614 1.15917,1.209295 0.84156,1.991515 -0.31763,0.78222 -1.2093,1.15852 -1.99153,0.84091 -0.67485,-0.27401 -6.02994,-3.860703 -6.02994,-3.860703 -0.18099,-0.139041 -0.0631,-0.429507 0.16547,-0.407577 z m -2.99855,0.582713 c 0.14682,0.02033 0.25687,0.186077 0.17062,0.338037 0,0 -3.53755,5.38807 -4.05258,5.90309 -0.59698,0.59698 -1.56518,0.59698 -2.16216,0 -0.59697,-0.59697 -0.59697,-1.56517 0,-2.16214 0.59698,-0.59698 5.90375,-4.052591 5.90375,-4.052591 0.0253,-0.01333 0.0508,-0.02202 0.076,-0.02576 0.022,-0.0035 0.0434,-0.0035 0.0644,-6.42e-4 z m 2.55556,0 c 0.021,-0.0029 0.043,-0.0029 0.065,6.43e-4 0.0252,0.004 0.0507,0.01209 0.076,0.02575 0,0 5.30677,3.455604 5.90375,4.052594 0.59698,0.59697 0.59698,1.56517 0,2.16214 -0.59698,0.59698 -1.56518,0.59698 -2.16216,0 -0.51502,-0.51502 -4.05258,-5.903093 -4.05258,-5.903093 -0.0862,-0.15196 0.0232,-0.317684 0.16998,-0.338037 z m -1.96126,0.406287 c 0.11768,0.01209 0.22359,0.112214 0.2054,0.253689 0,0 -1.23575,6.326081 -1.51763,6.997691 -0.32673,0.77848 -1.22272,1.14447 -2.00118,0.81773 -0.77848,-0.32673 -1.14446,-1.22206 -0.81773,-2.00053 0.32673,-0.77846 3.93089,-5.984877 3.93089,-5.984877 0.0546,-0.06654 0.1296,-0.09118 0.20025,-0.0837 z m 1.3676,0 c 0.0706,-0.0072 0.14555,0.01717 0.20025,0.08371 0,0 3.60416,5.20642 3.93089,5.98488 0.32674,0.77847 -0.0393,1.6738 -0.81772,2.00053 -0.77847,0.32674 -1.67445,-0.0392 -2.00119,-0.81773 -0.28188,-0.67161 -1.51762,-6.997694 -1.51762,-6.997694 -0.0182,-0.141433 0.0877,-0.241231 0.20539,-0.253689 z m -0.69024,0.126843 c 0.0942,0 0.18925,0.05481 0.22214,0.164834 0,0 1.30837,6.195953 1.30837,7.040193 0,0.84426 -0.68433,1.52858 -1.52858,1.52858 -0.84425,0 -1.52857,-0.68432 -1.52857,-1.52858 0,-0.72836 1.30901,-7.040193 1.30901,-7.040193 0.0304,-0.110008 0.12344,-0.164834 0.21763,-0.164834 z"
       style="fill:#ffffff;fill-opacity:0.15686275;stroke:none;stroke-width:6.18125868;stroke-linecap:round;stroke-linejoin:miter;stroke-miterlimit:4;stroke-dasharray:none;stroke-opacity:1" />
  </g>
  <g
     transform="matrix(0,0.99999815,-0.99999815,0,164.57007,-64.029413)"
     id="g1948">
    <path
       id="path13-8"
       d="m 168.27507,148.16686 -2.117,-2.116 v -2.118 l -2.117,-2.11701 v -2.115 l -1.15001,-1.06 v -2.934 l 1.31601,1.22 v 0.749 l 1.69,1.592 0.007,2 1.662,1.60901 v 2.116 l 2.826,3.175 z"
       style="fill:#445a17;stroke:#000000;stroke-width:0.5290007"
       inkscape:connector-curvature="0" />
    <path
       sodipodi:nodetypes="cccccccccccccccccccccccccccccccccc"
       id="path17-1"
       d="m 162.9834,148.16686 2.117,-2.11701 v -2.117 l 2.116,-2.116 v -1.58401 l 1.037,-1.463 v -1.714 l -2.549,-2.04 v 1.887 l 0.858,0.694 -0.005,1.046 -1.198,1.62501 -0.005,1 -1.662,1.608 v 2.117 l -2.826,3.17501 z m 11.29201,0.017 -2.117,-2.11601 v -2.116 l -2.116,-2.117 v -2.11701 l 1.058,-1.058 v -2.117 l 2.117,-2.116 v 2.493 l -0.664,0.68201 -0.009,2.116 -0.646,0.568 0.006,1 1.662,1.607 v 2.117 l 2.82601,3.17501 z"
       style="fill:#445a17;stroke:#000000;stroke-width:0.5290007"
       inkscape:connector-curvature="0" />
    <path
       inkscape:connector-curvature="0"
       style="fill:#445a17;stroke:#000000;stroke-width:0.5290007"
       d="m 179.25909,148.18386 v -2.93501 l -1.459,-2.117 v -2.117 l 2.187,-1.88701 -0.01,1.88701 -0.645,0.568 0.006,1 1.298,1.846 0.012,3.73801 z"
       id="path1939"
       sodipodi:nodetypes="ccccccccccc" />
    <path
       sodipodi:nodetypes="ccccccccccc"
       id="path1941"
       d="m 158.01039,148.18386 v -2.93501 l 1.459,-2.117 v -2.117 l -2.187,-1.88701 0.01,1.88701 0.645,0.568 -0.006,1 -1.298,1.846 -0.012,3.73801 z"
       style="fill:#445a17;stroke:#000000;stroke-width:0.5290007"
       inkscape:connector-curvature="0" />
  </g>
  <g
     transform="matrix(-0.99999815,0,0,-0.99999815,117.1613,420.15832)"
     id="g1932">
    <path
       sodipodi:nodetypes="ccccccccccccccccccccccccccccccccccccccccccccccccccccccccccccccccccccccc"
       id="path15-5"
       d="m 55.967943,224.36728 2.117,2.11701 v 2.116 l 2.117,2.117 v 2.117 l 1.15,1.05801 v 2.936 l -1.316,-1.22 v -0.749 l -1.69,-1.592 -0.007,-2.00101 -1.66301,-1.607 v -2.117 l -2.825,-3.17501 z m -6.576363,0.018 -2.116,2.11701 v 2.117 l -2.118,2.116 v 1.584 l -1.037,1.46301 v 1.714 l 2.549,2.04 v -1.886 l -0.857,-0.694 0.005,-1.046 1.197,-1.625 0.005,-1.00001 1.662,-1.608 v -2.117 l 2.82601,-3.17501 z m -12.70001,-0.018 2.117,2.11701 v 2.116 l 2.117,2.117 v 2.117 l -1.058,1.05801 v 2.117 l -2.117,2.116 v -2.493 l 0.663,-0.682 0.01,-2.11601 0.645,-0.568 -0.006,-1 -1.662,-1.607 v -2.117 l -2.825,-3.17501 z m -5.61001,0 v 2.93601 l -1.458,2.117 v 2.116 l 2.186,1.887 -0.01,-1.887 -0.645,-0.567 0.006,-1 1.298,-1.846 0.012,-3.73801 z m 37.393467,0 v 2.93601 l 1.458,2.117 v 2.116 l -2.186,1.887 0.009,-1.887 0.646,-0.567 -0.006,-1 -1.298,-1.846 -0.012,-3.73801 z"
       style="fill:#445a17;stroke:#000000;stroke-width:0.5290007"
       inkscape:connector-curvature="0" />
    <path
       sodipodi:nodetypes="ccccccccccccccccc"
       id="path17-7"
       d="m 40.692241,224.36695 -1.668,2.117 v 2.11701 l -1.50701,2.116 v 2.117 l 1.50001,2.10001 1.73,-0.013 2.116,2.175 v -2.182 l -1.373,-1.402 h -1.47 l -0.868,-1.24601 0.006,-1 1.274,-1.864 v -1.86 l 2.377,-3.17501 z"
       style="fill:#445a17;stroke:#000000;stroke-width:0.5290007"
       inkscape:connector-curvature="0" />
  </g>
  <path
     id="path1202"
     d="m 161.85008,75.670695 -2.117,2.117 v 2.116 l -2.11599,2.117 v 1.584 l -1.037,1.463 v 1.714 l 2.54899,2.03999 v -1.88499 l -0.85799,-0.695 0.005,-1.045 1.198,-1.626 0.005,-1 1.66199,-1.60701 v -2.11699 l 2.826,-3.175 z m -11.29199,-0.018 2.117,2.116 v 2.118 l 2.11599,2.117 v 2.115 l -1.05799,1.06 v 2.11399 l -2.117,2.11701 v -2.49301 l 0.664,-0.68199 0.009,-2.117 0.646,-0.567 -0.006,-1 -1.662,-1.60801 v -2.11599 l -2.826,-3.175 z m -6.299,0 v 2.936 l -1.45899,2.118 v 2.116 l 2.18699,1.887 -0.009,-1.887 -0.646,-0.567 0.006,-1 1.298,-1.847 0.012,-3.737 z m 23.94099,0 v 2.936 l 1.45899,2.118 v 2.116 l -2.18699,1.887 0.01,-1.887 0.645,-0.567 -0.006,-1 -1.298,-1.847 -0.012,-3.737 z"
     style="fill:#445a17;stroke:#000000;stroke-width:0.52899969"
     inkscape:connector-curvature="0"
     sodipodi:nodetypes="cccccccccccccccccccccccccccccccccccccccccccccccccccccccc" />
  <text
     xml:space="preserve"
     style="font-style:normal;font-variant:normal;font-weight:normal;font-stretch:normal;font-size:10.58332729px;line-height:1.25;font-family:Cinzel;-inkscape-font-specification:Cinzel;letter-spacing:0px;word-spacing:0px;fill:#000000;fill-opacity:0.39215686;stroke:none;stroke-width:0.26458317"
     x="181.47806"
     y="89.290352"
     id="text1063"><tspan
       sodipodi:role="line"
       id="tspan1061"
       x="181.47806"
       y="89.290352"
       style="fill:#000000;fill-opacity:0.39215686;stroke-width:0.26458317">一</tspan></text>
  <text
     id="text1067"
     y="88.9132"
     x="206.82286"
     style="font-style:normal;font-variant:normal;font-weight:normal;font-stretch:normal;font-size:10.58332729px;line-height:1.25;font-family:Cinzel;-inkscape-font-specification:Cinzel;letter-spacing:0px;word-spacing:0px;fill:#000000;fill-opacity:0.39215686;stroke:none;stroke-width:0.26458317"
     xml:space="preserve"><tspan
       style="fill:#000000;fill-opacity:0.39215686;stroke-width:0.26458317"
       y="88.9132"
       x="206.82286"
       id="tspan1065"
       sodipodi:role="line">四</tspan></text>
  <text
     id="text1212"
     y="190.67055"
     x="206.76953"
     style="font-style:normal;font-variant:normal;font-weight:normal;font-stretch:normal;font-size:10.58332729px;line-height:1.25;font-family:Cinzel;-inkscape-font-specification:Cinzel;letter-spacing:0px;word-spacing:0px;fill:#000000;fill-opacity:0.39215686;stroke:none;stroke-width:0.26458317"
     xml:space="preserve"><tspan
       style="fill:#000000;fill-opacity:0.39215686;stroke-width:0.26458317"
       y="190.67055"
       x="206.76953"
       id="tspan1210"
       sodipodi:role="line">三</tspan></text>
  <text
     xml:space="preserve"
     style="font-style:normal;font-variant:normal;font-weight:normal;font-stretch:normal;font-size:10.58332729px;line-height:1.25;font-family:Cinzel;-inkscape-font-specification:Cinzel;letter-spacing:0px;word-spacing:0px;fill:#000000;fill-opacity:0.39215686;stroke:none;stroke-width:0.26458317"
     x="181.51645"
     y="190.60268"
     id="text1216"><tspan
       sodipodi:role="line"
       id="tspan1214"
       x="181.51645"
       y="190.60268"
       style="fill:#000000;fill-opacity:0.39215686;stroke-width:0.26458317">二</tspan></text>
  <path
     style="fill:#2b2622;fill-opacity:1;stroke:#000000;stroke-width:3.17499804;stroke-miterlimit:4;stroke-dasharray:none;stroke-opacity:0.70588235"
     d="m 8.9983885,8.4647211 -0.003,195.2617289 237.0669915,0.004 v -42.33434 l 245.53278,-0.003 0.003,-364.06695 h -76.1994 v 8.46666 h 67.73332 l -0.003,143.933737 h -55.03325 v 33.866647 h 55.03333 V 152.9255 H 229.12955 l -1e-5,42.33379 -211.667051,0.003 V 8.4666411 Z M 229.12955,119.05885 h 84.66661 V -16.407746 h 55.03333 v -33.866649 h -55.03333 l 0.003,-143.933735 h 67.73332 v -8.46666 H 305.3325 l -0.003,262.470499 -253.999863,-0.0035 V 8.4666411 h -8.46718 V 76.727054 l 186.266573,-5.29e-4 z"
     id="path1007"
     inkscape:connector-curvature="0"
     sodipodi:nodetypes="cccccccccccccccccccccccccccccccccccc"
     clip-path="url(#clipPath1009)"
     transform="translate(7.0708033e-8,-3.262204e-6)" />
</svg>
