<svg xmlns="http://www.w3.org/2000/svg" width="256" height="256" viewBox="0 0 67.733 67.733"><defs><clipPath id="h"><path d="M25.4 50.8V40.217H10.583L0 50.8z" fill="#595959" stroke-width=".286"/></clipPath><clipPath id="f"><path d="M9.525 0H0v9.525l2.117 2.117 9.525-9.525z" fill="#272727" stroke-width="1.968"/></clipPath><clipPath id="g"><path d="M61.442 61.383h-16.47V2.117H61.44z" fill="#4d2600" stroke-width="8.556"/></clipPath><clipPath id="d"><path d="M-1.587 297h-5.821v-38.1h5.82z" fill="#4d2600" stroke-width="4.078"/></clipPath><clipPath id="e"><path d="M61.354 2.087l.03 17.492H2.116L2.087 2.09z" fill="#4d2600" stroke-width="8.805"/></clipPath><clipPath id="c"><path d="M-45.534 209.35l29.33 16.933v33.867l-29.33 16.933-29.33-16.933v-33.867z" fill-opacity=".506" stroke="#fff" stroke-width="2.117" stroke-opacity=".502"/></clipPath><clipPath id="b"><path d="M32 44v152h176V44zm56 20h64l32 56-32 56H88l-32-56z" fill="#793c00" stroke-width="16" stroke-linecap="round"/></clipPath><clipPath id="a"><path d="M2.117 2.117h59.266v59.266H2.117z" fill="#4d2600" stroke-width=".823"/></clipPath><clipPath id="i"><path d="M0 33.867h14.11v19.756L0 67.733z" fill="#595959" stroke-width=".381"/></clipPath></defs><path d="M2.117 2.117h59.266v59.266H2.117z" clip-path="url(#a)" transform="translate(2.117 2.117)" fill="#402000" stroke="#191919" stroke-width="4.233"/><path transform="translate(-1.587 7.937) scale(.26458)" d="M32 44v152h176V44zm56 20h64l32 56-32 56H88l-32-56z" clip-path="url(#b)" fill="#552b00" stroke="#191919" stroke-width="16" stroke-linecap="round"/><path transform="rotate(-150 -1.044 60.549) scale(.38738)" d="M-45.534 209.35l29.33 16.933v33.867l-29.33 16.933-29.33-16.933v-33.867z" clip-path="url(#c)" fill-opacity=".502" stroke="#fff" stroke-width="4.011"/><path d="M30.163 33.131a6.556 6.556 0 0 0-6.557 6.556 6.556 6.556 0 0 0 6.557 6.557 6.556 6.556 0 0 0 6.556-6.557 6.556 6.556 0 0 0-6.556-6.556zm-2.957 2.202l6.601 3.786s.279.211.405.339a2.98 2.98 0 0 1 .877 2.115 2.991 2.991 0 0 1-5.257 1.953l-3.406-4.62 1.564.746-2.29-2.758 2.377 1.199-2.39-2.715 2.69 1.543zm3.065 2.395a.63.63 0 1 0 0 1.26.63.63 0 0 0 0-1.26zm-1.815.789a.266.266 0 1 0 0 .532.266.266 0 0 0 0-.532zm3.38.86l-.152 1.005-.768-.666.27.98-.971-.297.645.785-1.009.125.91.454-.872.524 1.016.046-.583.833.947-.371-.194.997.714-.724.23.99.356-.951.613.811-.062-1.015.89.493-.468-.902 1.012.087-.795-.633.961-.332-.983-.256.743-.693-1.003.166.396-.936-.848.56-.019-1.016-.547.857zm-2.805.615a.38.38 0 1 0 0 .761.38.38 0 0 0 0-.76z" fill="#fefefe"/><path transform="rotate(90 200.132 266.101) scale(1.55556)" d="M-1.587 297h-5.821v-38.1h5.82z" clip-path="url(#d)" fill="#763800" stroke="#191919" stroke-width="2.721"/><path d="M61.354 2.087l.03 17.492H2.116L2.087 2.09z" clip-path="url(#e)" transform="matrix(1 0 0 1.20231 2.117 1.86)" fill="#2b3223" stroke="#191919" stroke-width="4.233"/><path transform="translate(15.727 -398.53) scale(1.55556)" d="M-1.587 297h-5.821v-38.1h5.82z" clip-path="url(#d)" fill="#7c3e00" stroke="#191919" stroke-width="2.721"/><path transform="rotate(-90 33.867 31.75)" clip-path="url(#f)" d="M9.525 0H0v9.525l2.117 2.117 9.525-9.525z" fill="#404040" stroke="#191919" stroke-width="3.175"/><path d="M61.442 61.383h-16.47V2.117H61.44z" clip-path="url(#g)" transform="translate(2.117 2.117)" fill="#763800" stroke="#191919" stroke-width="4.233"/><path d="M9.525 0H0v9.525l2.117 2.117 9.525-9.525z" clip-path="url(#f)" transform="rotate(180 32.808 32.808)" fill="#404040" stroke="#191919" stroke-width="3.175"/><path d="M9.525 0H0v9.525l2.117 2.117 9.525-9.525z" clip-path="url(#f)" transform="rotate(90 31.75 33.867)" fill="#404040" stroke="#191919" stroke-width="3.175"/><path clip-path="url(#f)" d="M9.525 0H0v9.525l2.117 2.117 9.525-9.525z" transform="translate(2.117 2.117)" fill="#404040" stroke="#191919" stroke-width="3.175"/><path clip-path="url(#h)" d="M25.4 50.8V40.217H10.583L0 50.8z" transform="rotate(180 33.867 33.867) scale(1.33333)" fill="#252c19" stroke="#000" stroke-width="2.381"/><path transform="matrix(1.33333 0 0 -1.33333 0 67.733)" d="M25.4 50.8V40.217H10.583L0 50.8z" clip-path="url(#h)" fill="#252c19" stroke="#000" stroke-width="2.381"/><circle r=".871" cy="9.712" cx="3.845" transform="matrix(0 1 1 0 0 0)" fill="#151e09" stroke="#000" stroke-width=".604" stroke-linecap="round"/><circle r=".871" transform="matrix(0 1 1 0 0 0)" cx="10.186" cy="16.062" fill="#151e09" stroke="#000" stroke-width=".604" stroke-linecap="round"/><circle r=".871" transform="rotate(-90)" cx="-10.186" cy="51.671" fill="#151e09" stroke="#000" stroke-width=".604" stroke-linecap="round"/><circle r=".871" cy="58.021" cx="-3.845" transform="rotate(-90)" fill="#151e09" stroke="#000" stroke-width=".604" stroke-linecap="round"/><path transform="scale(1.33333)" d="M25.4 50.8V40.217H10.583L0 50.8z" clip-path="url(#h)" fill="#252c19" stroke="#000" stroke-width="2.381"/><path clip-path="url(#h)" d="M25.4 50.8V40.217H10.583L0 50.8z" transform="matrix(-1.33333 0 0 1.33333 67.733 0)" fill="#252c19" stroke="#000" stroke-width="2.381"/><circle r=".871" transform="matrix(0 -1 -1 0 0 0)" cx="-63.888" cy="-58.021" fill="#151e09" stroke="#000" stroke-width=".604" stroke-linecap="round"/><circle r=".871" cy="-51.671" cx="-57.547" transform="matrix(0 -1 -1 0 0 0)" fill="#151e09" stroke="#000" stroke-width=".604" stroke-linecap="round"/><circle r=".871" cy="-16.062" cx="57.547" transform="rotate(90)" fill="#151e09" stroke="#000" stroke-width=".604" stroke-linecap="round"/><circle r=".871" transform="rotate(90)" cx="63.888" cy="-9.712" fill="#151e09" stroke="#000" stroke-width=".604" stroke-linecap="round"/><path transform="matrix(0 -1.33333 1.33333 0 0 67.733)" d="M25.4 50.8V40.217H10.583L0 50.8z" clip-path="url(#h)" fill="#252c19" stroke="#000" stroke-width="2.381"/><path clip-path="url(#h)" d="M25.4 50.8V40.217H10.583L0 50.8z" transform="matrix(0 1.33333 1.33333 0 0 0)" fill="#252c19" stroke="#000" stroke-width="2.381"/><circle r=".871" transform="scale(-1 1)" cx="-63.888" cy="9.712" fill="#151e09" stroke="#000" stroke-width=".604" stroke-linecap="round"/><circle r=".871" cy="16.062" cx="-57.547" transform="scale(-1 1)" fill="#151e09" stroke="#000" stroke-width=".604" stroke-linecap="round"/><circle r=".871" cy="51.671" cx="57.547" fill="#151e09" stroke="#000" stroke-width=".604" stroke-linecap="round"/><circle r=".871" cx="63.888" cy="58.021" fill="#151e09" stroke="#000" stroke-width=".604" stroke-linecap="round"/><path clip-path="url(#h)" d="M25.4 50.8V40.217H10.583L0 50.8z" transform="matrix(0 1.33333 -1.33333 0 67.733 0)" fill="#252c19" stroke="#000" stroke-width="2.381"/><path d="M0 33.867h14.11v19.756L0 67.733z" clip-path="url(#i)" fill="#252c19" stroke-width="3.175" stroke="#000"/><circle r=".871" cy="-58.021" cx="3.845" transform="scale(1 -1)" fill="#151e09" stroke="#000" stroke-width=".604" stroke-linecap="round"/><circle r=".871" transform="scale(1 -1)" cx="10.186" cy="-51.671" fill="#151e09" stroke="#000" stroke-width=".604" stroke-linecap="round"/><circle r=".871" cx="-10.186" cy="-16.062" transform="scale(-1)" fill="#151e09" stroke="#000" stroke-width=".604" stroke-linecap="round"/><circle r=".871" cy="-9.712" cx="-3.845" transform="scale(-1)" fill="#151e09" stroke="#000" stroke-width=".604" stroke-linecap="round"/></svg>