<svg xmlns="http://www.w3.org/2000/svg" xmlns:xlink="http://www.w3.org/1999/xlink" width="865" height="674" viewBox="0 0 228.865 178.329"><defs><pattern xlink:href="#a" id="c" patternTransform="rotate(-45 311.944 -24.338) scale(1.21187)"/><pattern patternUnits="userSpaceOnUse" width="175.039" height="75.039" patternTransform="translate(108.576 213.448) scale(.26458)" id="a"><path d="M0 0h175.039v15.04H0z" fill="#fff"/><path d="M0 11.84h175.039v3.12H0z" fill="#191919"/><path d="M0 15.04h175.039V60H0z" fill="#b1b1b1"/><path d="M0 60h175.039v15.04H0z" fill="#fff"/><path d="M0 60h175.039v3.2H0z" fill="#191919"/></pattern><clipPath id="b"><path d="M641-9L-8-8v690h649V449h-48c-8.864 0-16-7.136-16-16V241c0-8.864 7.136-16 16-16h48V-9z" fill="#cbcbcb" fill-opacity=".99" stroke-width="21.598"/></clipPath></defs><path transform="scale(.26458)" d="M641-9L-8-8v690h649V449h-48c-8.864 0-16-7.136-16-16V241c0-8.864 7.136-16 16-16h48V-9z" clip-path="url(#b)" fill="url(#c)" stroke="#191919" stroke-width="16"/></svg>