<svg xmlns="http://www.w3.org/2000/svg" xmlns:xlink="http://www.w3.org/1999/xlink" width="400" height="316" viewBox="0 0 105.833 83.608"><defs><pattern xlink:href="#a" id="c" patternTransform="translate(144.03 218.594) scale(.15548)"/><pattern xlink:href="#b" id="d" patternTransform="matrix(0 -.07986 .08843 0 11.54 -267.244)"/><pattern patternUnits="userSpaceOnUse" width="120" height="120" patternTransform="translate(148.263 278.92) scale(.26458)" id="b"><path fill="#816348" stroke-width="14.173" stroke-miterlimit="10" d="M0 0h120v120H0z"/><path fill-opacity=".354" stroke-width="7.542" stroke-miterlimit="10" d="M36 0h4v120h-4zm40 0h4v120h-4zm40 0h4v120h-4z"/></pattern><pattern patternUnits="userSpaceOnUse" width="160" height="160" patternTransform="translate(144.03 218.594) scale(.26458)" id="a"><path fill="none" stroke-width="3.78" d="M0 0h160v160H0z"/><path fill="none" stroke-width="3.78" d="M0 0h160v160H0z"/><path fill="none" stroke-width="3.78" d="M0 0h160v160H0z"/><path fill="none" stroke-width="3.78" d="M0 0h160v160H0z"/><path fill="#ad621e" stroke-width="3.78" d="M0 0h160v160H0z"/><path fill-opacity=".354" stroke-width="8.709" stroke-miterlimit="10" d="M36 0h4v160h-4zm40 0h4v160h-4zm40 0h4v160h-4z"/><path transform="rotate(90)" fill-opacity=".354" stroke-width="4.131" stroke-miterlimit="10" d="M36-76h4v36h-4zm120 40h4V0h-4zm-40-80h4v36h-4z"/><path fill-opacity=".354" stroke-width="8.709" stroke-miterlimit="10" d="M156 0h4v160h-4z"/><path transform="rotate(90)" fill-opacity=".354" stroke-width="4.131" stroke-miterlimit="10" d="M76-156h4v36h-4z"/></pattern></defs><path fill="url(#c)" d="M53.013 206.953h63.5v57.15h-63.5z" transform="translate(-31.846 -205.894)"/><path d="M40.217 51.858v6.35h-19.05V1.058h63.5v57.15h-19.05v-6.35h12.7V7.408h-50.8v44.45z" fill="#d8b494" fill-opacity=".395"/><path transform="rotate(165 -2.37 -105.044)" fill="url(#d)" stroke="#343434" stroke-width="2.057" paint-order="stroke fill markers" d="M-26.048-295.722H5.064v12.492h-31.112z"/><path fill="#333" d="M50.93 75.995l4.09-1.095.273 1.022-4.089 1.095z"/><path d="M65.088 69.088a3.92 3.92 0 0 0-4.879-2.634 3.92 3.92 0 0 0-2.634 4.878 3.92 3.92 0 0 0 .454.988 3.92 3.92 0 0 1 2.794-3.81 3.92 3.92 0 0 1 4.425 1.647 3.92 3.92 0 0 0-.16-1.069z" fill="#040404"/></svg>