<svg xmlns="http://www.w3.org/2000/svg" xmlns:xlink="http://www.w3.org/1999/xlink" width="180" height="536" viewBox="0 0 47.625 141.817"><defs><pattern xlink:href="#a" id="c" patternTransform="matrix(.29022 0 0 .31028 -88.804 117.14)"/><pattern patternUnits="userSpaceOnUse" width="175.039" height="75.039" patternTransform="translate(108.576 213.448) scale(.26458)" id="a"><path d="M0 0h175.039v15.04H0z" fill="#fff"/><path d="M0 11.84h175.039v3.12H0z" fill="#191919"/><path d="M0 15.04h175.039V60H0z" fill="#b1b1b1"/><path d="M0 60h175.039v15.04H0z" fill="#fff"/><path d="M0 60h175.039v3.2H0z" fill="#191919"/></pattern><clipPath id="b"><path d="M65.713 113.965v100.542h8.504l4.196-4.234h22.225l4.233 4.234h8.467V113.965zm19.05 38.1l10.583-14.817-2.116 16.934 4.233 8.466-6.35 8.467v12.7l-10.583-12.7 6.35-10.583z" clip-path="url(#clipPath5256)" transform="translate(-154.517 10.583)" fill="#48362f" fill-opacity=".071" stroke-width="1.323" stroke-miterlimit="10" stroke-opacity=".49"/></clipPath></defs><path d="M-88.804 124.548V225.09h8.505l4.195-4.233h22.225l4.234 4.233h8.466V124.548zm19.05 38.1l10.584-14.816-2.117 16.933 4.233 8.467-6.35 8.466v12.7l-10.583-12.7 6.35-10.583z" clip-path="url(#b)" transform="translate(88.804 -124.548)" stroke-miterlimit="10" fill="url(#c)" stroke="#191919" stroke-width="3.175"/><path d="M29.633 23.283L19.05 38.1l2.117 8.467-6.35 10.583L25.4 69.85v-12.7l6.35-8.467-4.233-8.466z" fill="#fff" fill-opacity=".414"/></svg>