<?xml version="1.0" encoding="UTF-8" standalone="no"?>
<svg
   xmlns:dc="http://purl.org/dc/elements/1.1/"
   xmlns:cc="http://creativecommons.org/ns#"
   xmlns:rdf="http://www.w3.org/1999/02/22-rdf-syntax-ns#"
   xmlns:svg="http://www.w3.org/2000/svg"
   xmlns="http://www.w3.org/2000/svg"
   xmlns:sodipodi="http://sodipodi.sourceforge.net/DTD/sodipodi-0.dtd"
   xmlns:inkscape="http://www.inkscape.org/namespaces/inkscape"
   width="160"
   height="160"
   viewBox="0 0 42.333333 42.333333"
   version="1.1"
   id="svg6"
   sodipodi:docname="map-stone-01z.svg"
   inkscape:version="0.92.2 (5c3e80d, 2017-08-06)">
  <metadata
     id="metadata12">
    <rdf:RDF>
      <cc:Work
         rdf:about="">
        <dc:format>image/svg+xml</dc:format>
        <dc:type
           rdf:resource="http://purl.org/dc/dcmitype/StillImage" />
        <dc:title />
      </cc:Work>
    </rdf:RDF>
  </metadata>
  <defs
     id="defs10" />
  <sodipodi:namedview
     pagecolor="#ffffff"
     bordercolor="#666666"
     borderopacity="1"
     objecttolerance="10"
     gridtolerance="10"
     guidetolerance="10"
     inkscape:pageopacity="0"
     inkscape:pageshadow="2"
     inkscape:window-width="1920"
     inkscape:window-height="1017"
     id="namedview8"
     showgrid="false"
     inkscape:zoom="3.2777778"
     inkscape:cx="-17.475013"
     inkscape:cy="116.12501"
     inkscape:window-x="1912"
     inkscape:window-y="-8"
     inkscape:window-maximized="1"
     inkscape:current-layer="svg6"
     showguides="false" />
  <g
     id="g840"
     transform="translate(0.43229105,-0.51864138)">
    <path
       style="fill:#b3b3b3;stroke:#2d2d2d;stroke-width:2.42400002"
       inkscape:connector-curvature="0"
       id="path2"
       d="m 23.757638,4.5211521 c 3.01,0.507 6.601,1.854 9.395,4.8049997 2.794,2.9500002 4.79,7.5050002 5.014,12.2200002 0.225,4.714 -1.322,9.587 -4.337,12.732 -3.014,3.145 -7.495,4.56 -11.76,4.785 -4.266,0.224 -8.314,-0.742 -11.237,-2.348 -2.9229999,-1.606 -4.7179999,-3.85 -5.8599999,-6.224 -1.142,-2.373 -1.63,-4.875 -1.687,-7.626 -0.056,-2.751 0.317,-5.752 1.51,-8.406 1.193,-2.653 3.2,-4.9560002 5.1869999,-6.5279999 1.986,-1.572 3.949,-2.413 6.144,-2.999 2.194,-0.586 4.622,-0.918 7.631,-0.41 z" />
    <path
       style="fill:#cacaca"
       inkscape:connector-curvature="0"
       id="path4"
       d="m 30.788638,16.923152 c 0.048,3.128 -1.928,5.445 -5.379,5.445 -3.45,0 -6.877,-2.505 -6.247,-5.445 0.601,-2.808 2.92,-5.48 5.379,-5.446 4.094,0.055 6.206,2.753 6.247,5.446 z" />
  </g>
  <path
     style="fill:#f8f7f7;fill-opacity:1;stroke:#000000;stroke-width:3.17499995;stroke-linecap:butt;stroke-linejoin:miter;stroke-miterlimit:4;stroke-dasharray:none;stroke-opacity:0.19607843"
     d="m 13.291017,3.4879499 c 9.092665,-4.573436 31.259071,3.439476 15.20533,8.2175341 C 20.157822,14.18727 15.954934,19.727509 12.024183,26.947402 8.4010431,33.602283 2.6322133,35.13687 1.792164,22.517006 1.0689286,11.652014 7.8349927,6.2322259 13.291017,3.4879499 Z"
     id="path836"
     inkscape:connector-curvature="0"
     sodipodi:nodetypes="sssss" />
</svg>
