<svg xmlns="http://www.w3.org/2000/svg" width="160" height="160" viewBox="0 0 42.333 42.333"><defs><clipPath id="a"><path d="M0 258.9h38.1V297H0z" fill="#4d2600" stroke-width=".529"/></clipPath><clipPath id="c"><path d="M-4.763 273.187v-5.82h28.575v5.82z" fill="#4d2600" stroke-width="3.532"/></clipPath><clipPath id="b"><path d="M43.392 296.47h-12.7v-38.1h12.7z" fill="#4d2600" stroke-width="6.024"/></clipPath><clipPath id="d"><path d="M-1.587 297h-5.821v-38.1h5.82z" fill="#4d2600" stroke-width="4.078"/></clipPath><clipPath id="e"><path d="M-45.534 209.35l29.33 16.933v33.867l-29.33 16.933-29.33-16.933v-33.867z" fill-opacity=".506" stroke="#fff" stroke-width="2.117" stroke-opacity=".502"/></clipPath><clipPath id="f"><path d="M0 0l10.054 10.054H32.28L42.333 0z" fill="#595959" stroke-width=".286"/></clipPath><clipPath id="g"><path fill="#595959" stroke-width="1.588" stroke-linecap="round" stroke-miterlimit="10" d="M8.467 8.467h25.4v25.4h-25.4z"/></clipPath><clipPath id="h"><path fill="#2b2b2b" stroke-width="3.757" stroke-linecap="round" stroke-miterlimit="10" d="M17.462 3.704h7.408v2.117h-7.408z"/></clipPath></defs><path transform="translate(2.116 -256.784)" d="M0 258.9h38.1V297H0z" clip-path="url(#a)" fill="#4d2600" stroke="#191919" stroke-width="3.969"/><path clip-path="url(#b)" d="M43.392 296.47h-12.7v-38.1h12.7z" transform="rotate(90 163.581 135.006)" fill="#c91400" stroke="#191919" stroke-width="3.969"/><path d="M-4.763 273.187v-5.82h28.575v5.82z" clip-path="url(#c)" transform="matrix(-1.33333 0 0 -1 33.866 307.583)" fill="#d19200" stroke="#191919" stroke-width="3.437"/><path clip-path="url(#d)" d="M-1.587 297h-5.821v-38.1h5.82z" transform="rotate(90 128.656 170.46)" fill="#763800" stroke="#191919" stroke-width="3.969"/><path transform="translate(9.524 -256.784)" d="M-1.587 297h-5.821v-38.1h5.82z" clip-path="url(#d)" fill="#763800" stroke="#191919" stroke-width="3.969"/><path transform="translate(-3.176 -256.254)" d="M43.392 296.47h-12.7v-38.1h12.7z" clip-path="url(#b)" fill="#763800" stroke="#191919" stroke-width="3.969"/><path clip-path="url(#e)" d="M-45.534 209.35l29.33 16.933v33.867l-29.33 16.933-29.33-16.933v-33.867z" transform="rotate(-150.001 -2.013 39.471) scale(.25596)" fill-opacity=".502" stroke="#fff" stroke-width="4.011"/><path d="M17.729 20.23a4.332 4.332 0 0 0-4.332 4.331 4.332 4.332 0 0 0 4.332 4.332 4.332 4.332 0 0 0 4.332-4.332 4.332 4.332 0 0 0-4.332-4.332zm-1.954 1.454l4.362 2.501s.184.14.268.224c.386.386.579.892.579 1.398a1.976 1.976 0 0 1-3.473 1.29l-2.251-3.053 1.033.494-1.513-1.822 1.57.792-1.579-1.794 1.778 1.019zm2.025 1.582a.416.416 0 1 0 0 .833.416.416 0 0 0 0-.833zm-1.2.522a.176.176 0 1 0 0 .352.176.176 0 0 0 0-.352zm2.234.568l-.1.664-.507-.44.178.647-.642-.195.427.518-.667.083.6.3-.575.346.671.03-.385.55.626-.245-.128.66.471-.479.152.655.236-.63.404.537-.04-.67.588.325-.31-.597.67.058-.526-.418.635-.22-.65-.168.49-.459-.662.11.262-.618-.56.37-.012-.671-.362.566zm-1.853.407a.251.251 0 1 0 0 .503.251.251 0 0 0 0-.503z" fill="#fefefe"/><g fill="#a00" stroke="#000"><path clip-path="url(#f)" d="M0 0l10.054 10.054H32.28L42.333 0z" stroke-width="2.117"/><ellipse ry=".529" rx=".529" cy="6.536" cx="2.646" transform="matrix(0 1 1 0 0 0)" stroke-width=".367" stroke-linecap="round"/><ellipse transform="matrix(0 1 1 0 0 0)" cx="6.879" cy="11.113" rx=".529" ry=".529" stroke-width=".367" stroke-linecap="round"/><ellipse transform="rotate(90)" cx="2.646" cy="-35.797" rx=".529" ry=".529" stroke-width=".367" stroke-linecap="round"/><ellipse ry=".529" rx=".529" cy="-31.221" cx="6.879" transform="rotate(90)" stroke-width=".367" stroke-linecap="round"/></g><g transform="rotate(90 21.167 21.167)" fill="#a00" stroke="#000"><path d="M0 0l10.054 10.054H32.28L42.333 0z" clip-path="url(#f)" stroke-width="2.117"/><ellipse transform="matrix(0 1 1 0 0 0)" cx="2.646" cy="6.536" rx=".529" ry=".529" stroke-width=".367" stroke-linecap="round"/><ellipse ry=".529" rx=".529" cy="11.113" cx="6.879" transform="matrix(0 1 1 0 0 0)" stroke-width=".367" stroke-linecap="round"/><ellipse ry=".529" rx=".529" cy="-35.797" cx="2.646" transform="rotate(90)" stroke-width=".367" stroke-linecap="round"/><ellipse transform="rotate(90)" cx="6.879" cy="-31.221" rx=".529" ry=".529" stroke-width=".367" stroke-linecap="round"/></g><g transform="rotate(180 21.167 21.167)" fill="#a00" stroke="#000"><path clip-path="url(#f)" d="M0 0l10.054 10.054H32.28L42.333 0z" stroke-width="2.117"/><ellipse ry=".529" rx=".529" cy="6.536" cx="2.646" transform="matrix(0 1 1 0 0 0)" stroke-width=".367" stroke-linecap="round"/><ellipse transform="matrix(0 1 1 0 0 0)" cx="6.879" cy="11.113" rx=".529" ry=".529" stroke-width=".367" stroke-linecap="round"/><ellipse transform="rotate(90)" cx="2.646" cy="-35.797" rx=".529" ry=".529" stroke-width=".367" stroke-linecap="round"/><ellipse ry=".529" rx=".529" cy="-31.221" cx="6.879" transform="rotate(90)" stroke-width=".367" stroke-linecap="round"/></g><g transform="rotate(-90 21.167 21.167)" fill="#a00" stroke="#000"><path d="M0 0l10.054 10.054H32.28L42.333 0z" clip-path="url(#f)" stroke-width="2.117"/><ellipse transform="matrix(0 1 1 0 0 0)" cx="2.646" cy="6.536" rx=".529" ry=".529" stroke-width=".367" stroke-linecap="round"/><ellipse ry=".529" rx=".529" cy="11.113" cx="6.879" transform="matrix(0 1 1 0 0 0)" stroke-width=".367" stroke-linecap="round"/><ellipse ry=".529" rx=".529" cy="-35.797" cx="2.646" transform="rotate(90)" stroke-width=".367" stroke-linecap="round"/><ellipse transform="rotate(90)" cx="6.879" cy="-31.221" rx=".529" ry=".529" stroke-width=".367" stroke-linecap="round"/></g><path clip-path="url(#g)" fill="#007916" stroke="#000" stroke-width="3.175" stroke-linecap="round" stroke-miterlimit="10" d="M8.467 8.467h25.4v25.4h-25.4z"/><ellipse cx="11.112" cy="11.113" rx=".529" ry=".529" fill="#363636" stroke="#000" stroke-width=".367" stroke-linecap="round"/><ellipse ry=".529" rx=".529" cy="11.113" cx="31.221" fill="#363636" stroke="#000" stroke-width=".367" stroke-linecap="round"/><ellipse ry=".529" rx=".529" cy="31.221" cx="11.112" fill="#363636" stroke="#000" stroke-width=".367" stroke-linecap="round"/><ellipse cx="31.221" cy="31.221" rx=".529" ry=".529" fill="#363636" stroke="#000" stroke-width=".367" stroke-linecap="round"/><path d="M21.167 12.87a8.296 8.296 0 0 0-8.297 8.297 8.296 8.296 0 0 0 8.297 8.296 8.296 8.296 0 0 0 8.296-8.296 8.296 8.296 0 0 0-8.296-8.297zm-3.742 2.787l8.354 4.79s.352.268.512.429a3.774 3.774 0 0 1 1.11 2.677 3.785 3.785 0 0 1-6.462 2.676c-.067-.067-.19-.206-.19-.206l-4.31-5.846 1.978.945-2.897-3.49 3.007 1.517-3.024-3.436 3.405 1.952zm3.879 3.03a.798.798 0 1 0 0 1.595.798.798 0 0 0 0-1.595zm-2.297.998a.337.337 0 1 0 0 .674.337.337 0 0 0 0-.674zm4.276 1.089l-.191 1.272-.972-.843.343 1.24-1.23-.376.816.994-1.276.157 1.15.575-1.102.664 1.285.057-.737 1.054 1.197-.47-.244 1.263.902-.916.29 1.253.453-1.204.774 1.026-.077-1.284 1.126.623-.593-1.141 1.281.11-1.005-.801 1.215-.42-1.244-.323.94-.878-1.27.21.503-1.184-1.074.71-.023-1.287-.692 1.084zm-3.549.779a.481.481 0 1 0 0 .962.481.481 0 0 0 0-.962z" fill="#fff"/><rect y="3.704" x="17.462" height="2.117" width="7.408" clip-path="url(#h)" rx="1.058" ry="1.058" fill="#2b2b2b" stroke="#000" stroke-width="1.058" stroke-linecap="round" stroke-miterlimit="10"/><rect ry="1.058" rx="1.058" clip-path="url(#h)" width="7.408" height="2.117" x="17.462" y="3.704" transform="translate(0 32.808)" fill="#2b2b2b" stroke="#000" stroke-width="1.058" stroke-linecap="round" stroke-miterlimit="10"/><g fill="#f70000" stroke="#191919" stroke-width="1.322"><path d="M19.697 18.156c-2.182-2.86-4.968-3.678-6.988-2.43-1.166 1.037-.02 1.843.083 2.573.128.921-.385 1.338.08 2.013 2.382 2.012 4.233-.1 6.689-.6zM19.697 18.156l-.136 1.556s1.083.436 1.61.436c.528 0 1.556-.436 1.556-.436l-.136-1.556s-.856-.5-1.338-.492c-.482.01-1.556.492-1.556.492z" stroke-width=".68264114"/><path d="M22.59 18.156c2.183-2.86 4.969-3.678 6.99-2.43 1.165 1.037.182 1.788.08 2.519-.129.92.22 1.392-.245 2.067-2.38 2.012-4.232-.1-6.688-.6zM19.56 19.712s-2.668 3.85-2.777 6.116l1.609-1.022.892 1.932c.71-1.365 1.3-6.664 1.3-6.664zM22.727 19.712s2.669 3.85 2.778 6.116l-1.609-1.022-.892 1.932c-.71-1.365-1.3-6.664-1.3-6.664z" stroke-width=".68264114"/></g></svg>