<?xml version="1.0" encoding="UTF-8" standalone="no"?>
<svg
   xmlns:dc="http://purl.org/dc/elements/1.1/"
   xmlns:cc="http://creativecommons.org/ns#"
   xmlns:rdf="http://www.w3.org/1999/02/22-rdf-syntax-ns#"
   xmlns:svg="http://www.w3.org/2000/svg"
   xmlns="http://www.w3.org/2000/svg"
   xmlns:sodipodi="http://sodipodi.sourceforge.net/DTD/sodipodi-0.dtd"
   xmlns:inkscape="http://www.inkscape.org/namespaces/inkscape"
   width="420"
   height="340"
   viewBox="0 0 111.125 89.958"
   version="1.1"
   id="svg8"
   sodipodi:docname="map-shack-res-03.svg"
   inkscape:version="0.92.2 (5c3e80d, 2017-08-06)">
  <metadata
     id="metadata14">
    <rdf:RDF>
      <cc:Work
         rdf:about="">
        <dc:format>image/svg+xml</dc:format>
        <dc:type
           rdf:resource="http://purl.org/dc/dcmitype/StillImage" />
      </cc:Work>
    </rdf:RDF>
  </metadata>
  <defs
     id="defs12" />
  <sodipodi:namedview
     pagecolor="#ffffff"
     bordercolor="#666666"
     borderopacity="1"
     objecttolerance="10"
     gridtolerance="10"
     guidetolerance="10"
     inkscape:pageopacity="0"
     inkscape:pageshadow="2"
     inkscape:window-width="1920"
     inkscape:window-height="1017"
     id="namedview10"
     showgrid="false"
     inkscape:zoom="0.67619048"
     inkscape:cx="210"
     inkscape:cy="170"
     inkscape:window-x="1912"
     inkscape:window-y="-8"
     inkscape:window-maximized="1"
     inkscape:current-layer="svg8" />
  <path
     d="M70.687 19.41l2.762 2.496 3.389-1.288L70.99 40.61l-1.22-3.24-1.689 1.732-.712-1.685-1.826.788z"
     fill="#665a4e"
     stroke="#191919"
     stroke-width="1.204"
     id="path2"
     style="fill:#577066;fill-opacity:1" />
  <path
     d="M44.423 45.718l3.829.06 1.756-3.224 8.995 19.034-3.139-1.646-.137 2.433-1.692-.806-.882 1.808z"
     fill="#665a4e"
     stroke="#191919"
     stroke-width="1.226"
     id="path4"
     style="fill:#577066;fill-opacity:1" />
  <path
     d="M60.957 29.167l3.103-2.348-.641-3.644 19.272 9.41-3.556.662 1.434 2.007-1.866.423.44 1.98zM31.883 39.853l-.56-3.85-3.503-1.195 17.534-12.35-1.133 3.435 2.449-.289-.53 1.839 1.948.567z"
     fill="#665a4e"
     stroke="#191919"
     stroke-width="1.243"
     id="path6"
     style="fill:#577066;fill-opacity:1" />
</svg>
