<svg xmlns="http://www.w3.org/2000/svg" width="640" height="896" viewBox="0 0 169.333 237.067"><defs><clipPath id="c"><path clip-path="url(#clipPath6865)" d="M402.14 158.55h9.526v-42.334h-9.525z" fill="#a3977d" stroke-width="1.984"/></clipPath><clipPath id="d"><path d="M-22.25 168.075v-9.525h-46.568v9.525z" clip-path="url(#clipPath6865)" fill="#a3977d" stroke-width="2.081"/></clipPath><clipPath id="e"><path d="M-70.934 202.47h50.8v-60.854h-8.467v48.155l-4.233 4.233h-25.4l-4.234-4.233v-48.155h-8.466z" fill="#a3977d" stroke-width="5.144"/></clipPath><clipPath id="b"><ellipse ry="6.34" rx="6.35" cy="243.216" cx="-87.868" fill="#3f3f3f" fill-opacity=".611" stroke-width="2.145" stroke-opacity=".706"/></clipPath><clipPath id="a"><ellipse ry="10.319" rx="10.335" cy="243.216" cx="-24.735" fill="#3f3f3f" fill-opacity=".612" stroke-width="3.49" stroke-opacity=".706"/></clipPath></defs><g fill="#3f3f3f" fill-opacity=".612" transform="translate(6.024 76.499)"><ellipse cx="115.888" cy="114.212" rx="12.67" ry="12.612"/><ellipse transform="translate(140.623 -128.916)" clip-path="url(#a)" ry="10.319" rx="10.335" cy="243.216" cx="-24.735" stroke="#404040" stroke-width="2.117" stroke-opacity=".5"/></g><path d="M119.12 172.836c-.638.107-2.204 3.978-2.799 4.23-.593.257-4.292-1.419-4.817-1.055-.532.362-.103 4.479-.513 4.97-.418.497-4.731.812-4.98 1.417-.252.608 1.726 3.733 1.591 4.37-.146.637-3.301 3.65-3.25 4.308.05.657 3.318 3.044 3.518 3.67.19.62-1.112 4.13-.78 4.705.324.572 3.47.804 3.938 1.252.467.447 1.29 3.9 1.838 4.27.545.365 3.375-.666 4.004-.476.625.192 3.052 3.422 3.693 3.477.642.056 3.202-3.459 3.832-3.549.631-.097 3.753 1.717 4.352 1.481.594-.234 1.886-3.326 2.411-3.69.523-.368 3.47-.593 3.865-1.1.397-.503-.134-3.546.139-4.129.268-.58 3.774-2.282 3.91-2.926l.004-.003c.14-.64-2.423-3.712-2.465-4.375-.04-.658 1.948-2.827 1.775-3.457-.172-.63-3.52-2.878-3.872-3.435-.351-.557.032-3.465-.432-3.926-.471-.464-4.254-.608-4.786-.982-.53-.38-1.149-3.47-1.758-3.665-.61-.188-3.788 2.083-4.429 2.028-.641-.055-3.359-3.519-3.99-3.41zm1.558 6.907c.481-.064 2.49 1.378 2.992 1.469.496.09 1.495-1.11 1.97-.945.47.166.844 1.388 1.256 1.645.411.267 1.453-.347 1.848-.032.395.315.192 1.944.497 2.328.31.39 1.591 1.496 1.773 1.96.182.46-.16 1.384-.075 1.87.086.491 2.062 1.533 2.056 2.046-.005.513-1.164.694-1.212 1.19-.054.497.62 2.56.427 3.04-.197.48-1.159.828-1.383 1.266-.219.438-.299 1.95-.652 2.329-.353.374-2.74.545-3.12.876-.378.33.375.94-.069 1.148-.438.203-2.58-.657-3.06-.523-.486.133-.956 1.794-1.453 1.82-.497.033-1.282-.533-1.773-.65-.481-.107-1.998.758-2.484.587-.48-.17-.32-1.656-.77-1.896-.442-.24-2.723-.064-3.06-.412-.341-.352-.272-1.495-.565-1.922-.294-.417-1.46-1.042-1.71-1.464-.24-.427.096-1.826.01-2.334-.085-.502-.7-1.549-.768-2.04-.07-.492 1.26-1.293 1.281-1.784.022-.492-.63-1.394-.427-1.87.203-.48 1.074-1.26 1.309-1.698.235-.433.342-2.12.657-2.505.31-.38 1.533.24 1.902-.096.373-.337.94-1.87 1.372-2.131.438-.262 1.298-.507 1.778-.609.481-.096.972-.599 1.453-.663z" fill="#408602" fill-opacity=".941"/><g transform="translate(150.342 76.489)" fill="#3f3f3f" fill-opacity=".611"><ellipse cx="-107.937" cy="42.333" rx="8.467" ry="8.453"/><ellipse clip-path="url(#b)" ry="6.34" rx="6.35" cy="243.216" cx="-87.868" transform="translate(-20.07 -200.883)" stroke="#404040" stroke-width="2.117" stroke-opacity=".5"/></g><path d="M46.566 107.917c-.388-.145-2.497 1.5-2.908 1.45-.41-.047-1.926-2.162-2.334-2.128-.411.03-1.492 2.451-1.877 2.593-.391.142-2.885-1.066-3.216-.81-.335.257-.239 2.624-.517 2.935-.286.306-3.002.968-3.184 1.349-.182.38.866 2.751.776 3.163-.093.405-1.94 1.936-1.94 2.36-.003.422 1.668 1.559 1.784 1.956.116.398-.534 2.577-.348 2.958.186.378 2.086.712 2.374 1.019.286.307.597 2.876.935 3.112.339.236 2.885-.893 3.263-.742.382.149 1.532 2.155 1.94 2.216.405.06 2.112-1.241 2.52-1.275.408-.037 2.116.783 2.497.628.381-.152 1.061-2.01 1.4-2.246.334-.236 2.825-.058 3.106-.371h.004c.282-.31-.156-2.837.033-3.218.19-.378 1.986-.944 2.092-1.349.106-.405-1.03-2.725-1.047-3.146-.017-.422 1.127-1.912 1.017-2.317-.112-.408-2.165-1.7-2.34-2.077-.173-.382.474-2.294.198-2.597-.278-.3-2.769-.058-3.107-.294-.338-.236-.736-3.028-1.12-3.17zm-1.348 4.331c.288.118.94 1.562 1.19 1.773.246.21 1.185-.137 1.396.107.208.243.023 1.04.17 1.315.142.28.917.272 1.035.574.118.301-.516 1.14-.47 1.451.047.316.404 1.34.356 1.656-.047.313-.532.716-.64 1.013-.11.3.652 1.51.485 1.794-.167.282-.869.012-1.055.272-.188.258-.475 1.618-.736 1.823-.263.204-.908.088-1.173.26-.262.172-.79.985-1.107 1.083-.316.094-1.695-.576-2.012-.514-.316.063-.093.642-.406.615-.308-.027-1.221-1.19-1.53-1.27-.313-.082-1.106.689-1.39.545-.286-.142-.54-.707-.775-.93-.233-.213-1.351-.219-1.566-.47-.212-.248.352-1.02.18-1.298-.169-.275-1.49-.908-1.566-1.208-.076-.305.328-.917.302-1.249-.03-.325-.476-1.045-.48-1.36.004-.313.639-.982.754-1.29.114-.306.108-1.084.227-1.38.119-.294 1.113-.312 1.283-.578.169-.266.097-.976.361-1.174.267-.202 1-.356 1.27-.523.27-.165.87-1.067 1.167-1.18.294-.111.774.625 1.086.556.316-.067 1.12-.736 1.444-.743.327-.004.883.135 1.182.232.297.101.731-.02 1.018.098z" fill="#408602" fill-opacity=".941"/><path d="M60.085 64.852l-2.116 2.117h-2.117l-2.117 2.117h-2.116l-1.059 1.15h-2.936l1.22-1.316h.749l1.592-1.69 2.001-.007 1.608-1.662h2.116l3.175-2.826z" fill="#445a17" stroke="#000" stroke-width=".529"/><path d="M60.067 68.391l-2.117-2.117h-2.116l-2.117-2.116h-1.584l-1.463-1.037h-1.714l-2.04 2.549h1.886l.695-.858 1.045.005 1.626 1.198 1 .005 1.607 1.662h2.117l3.175 2.826zm.018-11.292l-2.116 2.117h-2.117l-2.117 2.116h-2.116l-1.059-1.058h-2.116l-2.117-2.117h2.493l.682.664 2.117.009.567.646 1-.006 1.608-1.662h2.116l3.175-2.826zm0-6.299h-2.936l-2.117-1.459h-2.116l-1.887 2.187 1.887-.009.567-.646 1 .006 1.847 1.298 3.737.012zm0 23.941h-2.936L55.032 76.2h-2.116l-1.887-2.187 1.887.01.567.645 1-.006 1.847-1.298 3.737-.012zm32.338 2.008l2.117 2.117v2.116l2.117 2.117v2.117l1.15 1.058v2.936l-1.316-1.22v-.749l-1.69-1.592-.007-2.001-1.662-1.607v-2.117l-2.825-3.175zm-7.758.018l-2.116 2.117v2.117l-2.117 2.116v1.584l-1.037 1.463v1.714l2.549 2.04v-1.886l-.857-.694.005-1.046 1.197-1.625.005-1 1.662-1.608v-2.117l2.826-3.175zm-12.699-.018l2.116 2.117v2.116l2.117 2.117v2.117l-1.058 1.058v2.117l-2.117 2.116v-2.493l.663-.682.01-2.116.645-.568-.006-1-1.662-1.607v-2.117l-2.825-3.175zm-5.611 0v2.936l-1.458 2.117v2.116l2.186 1.887-.009-1.887-.646-.567.006-1 1.298-1.846.012-3.738zm38.019 0v2.936l1.458 2.117v2.116l-2.186 1.887.009-1.887.646-.567-.006-1-1.298-1.846-.012-3.738zm4.616-16.06l2.116-2.117h2.116l2.117-2.117h2.117l1.058-1.15h2.936l-1.22 1.316h-.749l-1.592 1.691-2.001.006-1.607 1.662h-2.117l-3.175 2.826z" fill="#445a17" stroke="#000" stroke-width=".529"/><path d="M109.007 57.15l2.117 2.117h2.117l2.116 2.116h1.584l1.463 1.037h1.714l2.04-2.549h-1.886l-.694.858-1.046-.005-1.625-1.198-1-.005-1.608-1.662h-2.117l-3.175-2.826zm-.017 11.292l2.116-2.117h2.116l2.117-2.116h2.117l1.058 1.058h2.117l2.116 2.117h-2.493l-.682-.664-2.116-.009-.568-.646-1 .006-1.607 1.662h-2.117l-3.175 2.826zm-17.952 8.287l-1.668 2.117v2.117l-1.507 2.116v2.117l1.5 2.1 1.73-.013 2.116 2.175v-2.182l-1.373-1.402h-1.47l-.868-1.246.006-1 1.274-1.864v-1.86l2.377-3.175zm17.952-1.988h2.935l2.117 1.459h2.117l1.887-2.187-1.887.01-.568.645-1-.006-1.846-1.298-3.738-.012zm0-23.941h2.935l2.117-1.459h2.117l1.887 2.187-1.887-.009-.568-.646-1 .006-1.846 1.298-3.738.012z" fill="#445a17" stroke="#000" stroke-width=".529"/><ellipse cx="122.223" cy="190.412" rx="12.67" ry="12.612" fill="#3f3f3f" fill-opacity=".612"/><ellipse cx="42.332" cy="118.533" rx="8.467" ry="8.453" fill="#3f3f3f" fill-opacity=".611"/><path transform="matrix(0 -1 1.1 0 -66.456 437.066)" d="M402.14 158.55h9.526v-42.334h-9.525z" clip-path="url(#c)" fill="#646464"/><path d="M-22.25 168.075v-9.525h-46.568v9.525z" clip-path="url(#d)" transform="translate(130.2 -124.683)" fill="#5a5a5a" stroke="#000" stroke-width="2.117" stroke-opacity=".706"/><path transform="translate(130.2 -116.216)" clip-path="url(#d)" d="M-22.25 168.075v-9.525h-46.568v9.525z" fill="#505050" stroke="#000" stroke-width="2.117" stroke-opacity=".706"/><path d="M-22.25 168.075v-9.525h-46.568v9.525z" clip-path="url(#d)" transform="translate(130.2 -107.75)" fill="#464646" stroke="#000" stroke-width="2.117" stroke-opacity=".706"/><path transform="translate(130.2 -99.283)" clip-path="url(#d)" d="M-22.25 168.075v-9.525h-46.568v9.525z" fill="#3c3c3c" stroke="#000" stroke-width="2.117" stroke-opacity=".706"/><path d="M-22.25 168.075v-9.525h-46.568v9.525z" clip-path="url(#d)" transform="translate(130.2 -90.816)" fill="#323232" stroke="#000" stroke-width="2.117" stroke-opacity=".706"/><path clip-path="url(#e)" d="M-70.934 202.47h50.8v-60.854h-8.467v48.155l-4.233 4.233h-25.4l-4.234-4.233v-48.155h-8.466z" transform="translate(130.2 -124.683)" fill="#1b1e25" stroke="#000" stroke-width="3.175" stroke-opacity=".706"/></svg>