<?xml version="1.0" encoding="UTF-8" standalone="no"?>
<svg
   xmlns:dc="http://purl.org/dc/elements/1.1/"
   xmlns:cc="http://creativecommons.org/ns#"
   xmlns:rdf="http://www.w3.org/1999/02/22-rdf-syntax-ns#"
   xmlns:svg="http://www.w3.org/2000/svg"
   xmlns="http://www.w3.org/2000/svg"
   xmlns:sodipodi="http://sodipodi.sourceforge.net/DTD/sodipodi-0.dtd"
   xmlns:inkscape="http://www.inkscape.org/namespaces/inkscape"
   width="144"
   height="144"
   viewBox="0 0 38.1 38.1"
   version="1.1"
   id="svg37"
   sodipodi:docname="map-crate-02sv.svg"
   inkscape:version="0.92.2 (5c3e80d, 2017-08-06)">
  <metadata
     id="metadata41">
    <rdf:RDF>
      <cc:Work
         rdf:about="">
        <dc:format>image/svg+xml</dc:format>
        <dc:type
           rdf:resource="http://purl.org/dc/dcmitype/StillImage" />
        <dc:title />
      </cc:Work>
    </rdf:RDF>
  </metadata>
  <sodipodi:namedview
     pagecolor="#ffffff"
     bordercolor="#666666"
     borderopacity="1"
     objecttolerance="10"
     gridtolerance="10"
     guidetolerance="10"
     inkscape:pageopacity="0"
     inkscape:pageshadow="2"
     inkscape:window-width="1920"
     inkscape:window-height="1017"
     id="namedview39"
     showgrid="true"
     inkscape:zoom="1.1588694"
     inkscape:cx="-242.38427"
     inkscape:cy="115.36631"
     inkscape:window-x="1912"
     inkscape:window-y="-8"
     inkscape:window-maximized="1"
     inkscape:current-layer="svg37">
    <inkscape:grid
       type="xygrid"
       id="grid864"
       empspacing="4"
       spacingy="1.0583333"
       spacingx="1.0583333" />
  </sodipodi:namedview>
  <defs
     id="defs17">
    <clipPath
       id="a">
      <path
         fill="#4d2600"
         stroke-width=".529"
         d="M0 258.9h38.1V297H0z"
         id="path5" />
    </clipPath>
    <clipPath
       id="d">
      <path
         d="M-4.763 273.187v-5.82h28.575v5.82z"
         fill="#4d2600"
         stroke-width="3.532"
         id="path8" />
    </clipPath>
    <clipPath
       id="c">
      <path
         d="M43.392 296.47h-12.7v-38.1h12.7z"
         fill="#4d2600"
         stroke-width="6.024"
         id="path11" />
    </clipPath>
    <clipPath
       id="e">
      <path
         d="M-1.587 297h-5.821v-38.1h5.82z"
         fill="#4d2600"
         stroke-width="4.078"
         id="path14" />
    </clipPath>
    <clipPath
       id="b">
      <path
         style="fill-opacity:0.506;stroke:#ffffff;stroke-width:2.1170001;stroke-opacity:0.50199998"
         inkscape:connector-curvature="0"
         d="m -45.534,209.35 29.33,16.933 v 33.867 l -29.33,16.933 -29.33,-16.933 v -33.867 z"
         id="path2" />
    </clipPath>
  </defs>
  <path
     clip-path="url(#a)"
     d="M0 258.9h38.1V297H0z"
     transform="translate(0 -258.9)"
     id="path19"
     stroke-width="3.969"
     stroke="#191919"
     fill="#4d2600" />
  <path
     transform="rotate(90 163.581 132.89)"
     d="M43.392 296.47h-12.7v-38.1h12.7z"
     clip-path="url(#c)"
     id="path25"
     style="fill:#c39912;fill-opacity:1"
     stroke-width="3.969"
     stroke="#191919"
     fill="#6f6f6f" />
  <path
     transform="matrix(-1.33333 0 0 -1 31.75 305.467)"
     clip-path="url(#d)"
     d="M-4.763 273.187v-5.82h28.575v5.82z"
     id="path27"
     stroke-width="3.437"
     stroke="#191919"
     fill="#d19200" />
  <path
     transform="rotate(90 128.656 168.344)"
     d="M-1.587 297h-5.821v-38.1h5.82z"
     clip-path="url(#e)"
     id="path29"
     stroke-width="3.969"
     stroke="#191919"
     fill="#763800" />
  <path
     clip-path="url(#e)"
     d="M-1.587 297h-5.821v-38.1h5.82z"
     transform="translate(7.408 -258.9)"
     id="path31"
     stroke-width="3.969"
     stroke="#191919"
     fill="#763800" />
  <path
     clip-path="url(#c)"
     d="M43.392 296.47h-12.7v-38.1h12.7z"
     transform="translate(-5.292 -258.37)"
     id="path33"
     stroke-width="3.969"
     stroke="#191919"
     fill="#763800" />
  <path
     d="M37.042 16.002V10.88l-9.8-9.822h-5.123z"
     id="path35"
     stroke-width="1.968"
     stroke="#191919"
     fill="#4d2600" />
  <g
     id="g850"
     transform="translate(0.32779899,-0.17251327)">
    <path
       id="path21"
       transform="matrix(-0.22166786,-0.12798,0.12798,-0.22166786,-25.937795,70.743989)"
       d="m -45.534,209.35 29.33,16.933 v 33.867 l -29.33,16.933 -29.33,-16.933 v -33.867 z"
       clip-path="url(#b)"
       inkscape:connector-curvature="0"
       style="fill-opacity:0.48500001;stroke:#ffffff;stroke-width:4.01100016" />
    <path
       id="path23"
       d="m 15.283,17.534 a 5.123,5.123 0 0 0 -5.123,5.123 5.123,5.123 0 0 0 5.123,5.123 5.123,5.123 0 0 0 5.123,-5.123 5.123,5.123 0 0 0 -5.123,-5.123 z M 17.53,18.8 a 4.449,4.449 0 0 1 2.197,3.955 h -3.323 a 1.221,1.221 0 0 0 -0.585,-0.98 z m -4.593,0.055 1.67,2.891 a 1.21,1.21 0 0 0 -0.475,0.462 1.21,1.21 0 0 0 -0.161,0.547 h -3.132 a 4.424,4.424 0 0 1 0.582,-2.34 4.434,4.434 0 0 1 1.517,-1.56 z m 2.253,3.16 a 0.8,0.8 0 0 1 0.398,0.11 0.799,0.799 0 0 1 0.294,1.094 0.798,0.798 0 0 1 -1.095,0.293 0.799,0.799 0 0 1 -0.294,-1.095 0.798,0.798 0 0 1 0.697,-0.401 z m 0.631,1.845 1.555,2.696 a 4.477,4.477 0 0 1 -2.22,0.539 4.4,4.4 0 0 1 -2.076,-0.583 l 1.523,-2.624 c 0.393,0.215 0.857,0.19 1.218,-0.028 z"
       inkscape:connector-curvature="0"
       style="fill:#ffffff" />
  </g>
</svg>
