<svg xmlns="http://www.w3.org/2000/svg" width="108" height="94" viewBox="0 0 28.575 24.871"><defs><clipPath id="c"><path d="M-4.233 276.362h14.816l4.234 6.88-5.821 8.466L12.17 297H-4.233z" fill="#002aad" stroke-width="1.26"/></clipPath><clipPath id="b"><path d="M14.817 283.242l-4.234-6.88h13.759V297H12.17l-3.175-5.292z" fill="#002aad" stroke-width="1.26"/></clipPath><clipPath id="a"><path d="M10.583 299.646l1.588 1.587-1.588 1.588 1.059 1.587C4.233 304.408 0 301.233 0 301.233v-1.587z" fill="#0031e3" stroke-width="3.432"/></clipPath></defs><path d="M10.583 299.646l1.588 1.587-1.588 1.588 1.059 1.587C4.233 304.408 0 301.233 0 301.233v-1.587z" clip-path="url(#a)" transform="translate(6.687 -226.067) scale(.81818)" fill="#0031e3" stroke="#191919" stroke-width="3.175"/><path d="M14.817 283.242l-4.234-6.88h13.759V297H12.17l-3.175-5.292z" clip-path="url(#b)" transform="translate(9.529 -190.645) scale(.69535)" fill="#002aad" stroke="#191919" stroke-width="3.175"/><path d="M-4.233 276.362h14.816l4.234 6.88-5.821 8.466L12.17 297H-4.233z" clip-path="url(#c)" transform="translate(4.857 -189.082) scale(.69535)" fill="#002aad" stroke="#191919" stroke-width="3.175"/><path d="M20.11 19.865l3.766-2.174 1.057 1.83-3.766 2.175z" fill="#c6c6c6" stroke="#191919" stroke-width="1.058"/></svg>