<?xml version="1.0" encoding="UTF-8" standalone="no"?>
<svg
   xmlns:dc="http://purl.org/dc/elements/1.1/"
   xmlns:cc="http://creativecommons.org/ns#"
   xmlns:rdf="http://www.w3.org/1999/02/22-rdf-syntax-ns#"
   xmlns:svg="http://www.w3.org/2000/svg"
   xmlns="http://www.w3.org/2000/svg"
   xmlns:xlink="http://www.w3.org/1999/xlink"
   xmlns:sodipodi="http://sodipodi.sourceforge.net/DTD/sodipodi-0.dtd"
   xmlns:inkscape="http://www.inkscape.org/namespaces/inkscape"
   width="738"
   height="706"
   viewBox="0 0 195.2624 186.79554"
   version="1.1"
   id="svg61"
   sodipodi:docname="map-bunker-hatchet-chamber-floor-01a.svg"
   inkscape:version="0.92.2 (5c3e80d, 2017-08-06)">
  <metadata
     id="metadata65">
    <rdf:RDF>
      <cc:Work
         rdf:about="">
        <dc:format>image/svg+xml</dc:format>
        <dc:type
           rdf:resource="http://purl.org/dc/dcmitype/StillImage" />
        <dc:title></dc:title>
      </cc:Work>
    </rdf:RDF>
  </metadata>
  <sodipodi:namedview
     pagecolor="#ffffff"
     bordercolor="#666666"
     borderopacity="1"
     objecttolerance="10"
     gridtolerance="10"
     guidetolerance="10"
     inkscape:pageopacity="0"
     inkscape:pageshadow="2"
     inkscape:window-width="1920"
     inkscape:window-height="1017"
     id="namedview63"
     showgrid="true"
     inkscape:showpageshadow="false"
     inkscape:zoom="0.88749863"
     inkscape:cx="172.40084"
     inkscape:cy="429.24473"
     inkscape:window-x="1912"
     inkscape:window-y="-8"
     inkscape:window-maximized="1"
     inkscape:current-layer="svg61"
     fit-margin-top="1"
     fit-margin-left="1"
     fit-margin-right="1"
     fit-margin-bottom="1"
     inkscape:object-paths="true"
     inkscape:snap-intersection-paths="true"
     inkscape:snap-smooth-nodes="true"
     inkscape:snap-midpoints="true">
    <inkscape:grid
       type="xygrid"
       id="grid872"
       empspacing="4"
       spacingy="1.0583316"
       spacingx="1.0583328"
       originx="-59.002042"
       originy="0.2645753" />
  </sodipodi:namedview>
  <defs
     id="defs27">
    <clipPath
       id="f">
      <path
         d="m -45.534,209.35 29.33,16.933 v 33.867 l -29.33,16.933 -29.33,-16.933 v -33.867 z"
         id="path2"
         inkscape:connector-curvature="0"
         style="fill-opacity:0.506;stroke:#ffffff;stroke-width:2.1170001;stroke-opacity:0.50199998" />
    </clipPath>
    <clipPath
       id="e">
      <path
         d="m -22.25,168.075 v -9.525 h -46.568 v 9.525 z"
         clip-path="url(#clipPath6865)"
         id="path5"
         inkscape:connector-curvature="0"
         style="fill:#a3977d;stroke-width:2.08100009" />
    </clipPath>
    <clipPath
       id="d">
      <path
         clip-path="url(#clipPath6865)"
         d="m 402.14,158.55 h 9.526 v -42.334 h -9.525 z"
         id="path8"
         inkscape:connector-curvature="0"
         style="fill:#a3977d;stroke-width:1.98399997" />
    </clipPath>
    <filter
       id="b"
       x="-0.023"
       width="1.0470001"
       y="-0.025"
       height="1.049"
       style="color-interpolation-filters:sRGB">
      <feGaussianBlur
         stdDeviation="1.651"
         id="feGaussianBlur11" />
    </filter>
    <pattern
       xlink:href="#a"
       id="c"
       patternTransform="matrix(0.0661458,0,0,0.06614578,76.199962,110.06754)" />
    <pattern
       patternUnits="userSpaceOnUse"
       width="128"
       height="128"
       patternTransform="matrix(.26458 0 0 .26458 0 -38.1)"
       id="a">
      <path
         fill="none"
         stroke-width="3.78"
         d="M0 0h128v128H0z"
         id="path15" />
      <path
         fill="none"
         stroke-width="3.78"
         d="M0 0h128v128H0z"
         id="path17" />
      <path
         d="M0 0h128v128H0z"
         fill="#2e2d2a"
         stroke-width="15.118"
         stroke-miterlimit="10"
         id="path19" />
      <path
         d="M60 128V68H0v-8h60V0h8v60h60v8H68v60z"
         fill="#6f6f6f"
         fill-opacity=".303"
         stroke-width="1.414"
         id="path21" />
    </pattern>
    <filter
       style="color-interpolation-filters:sRGB"
       id="a-9"
       x="-0.023"
       width="1.0470001"
       y="-0.025"
       height="1.049">
      <feGaussianBlur
         stdDeviation="1.651"
         id="feGaussianBlur17" />
    </filter>
    <clipPath
       id="b-4">
      <path
         style="fill:#a3977d;stroke-width:1.98399997"
         inkscape:connector-curvature="0"
         clip-path="url(#clipPath6865)"
         d="m 402.14,158.55 h 9.526 v -42.334 h -9.525 z"
         id="path5-3" />
    </clipPath>
    <clipPath
       id="c-3">
      <path
         style="fill:#a3977d;stroke-width:2.08100009"
         inkscape:connector-curvature="0"
         d="m -22.25,168.075 v -9.525 h -46.568 v 9.525 z"
         clip-path="url(#clipPath6865)"
         id="path2-7" />
    </clipPath>
    <clipPath
       id="clipPath921">
      <path
         style="fill:#a3977d;stroke-width:2.08100009"
         inkscape:connector-curvature="0"
         d="m -22.25,168.075 v -9.525 h -46.568 v 9.525 z"
         clip-path="url(#clipPath6865)"
         id="path919" />
    </clipPath>
    <clipPath
       id="clipPath925">
      <path
         style="fill:#a3977d;stroke-width:2.08100009"
         inkscape:connector-curvature="0"
         d="m -22.25,168.075 v -9.525 h -46.568 v 9.525 z"
         clip-path="url(#clipPath6865)"
         id="path923" />
    </clipPath>
    <clipPath
       id="clipPath929">
      <path
         style="fill:#a3977d;stroke-width:2.08100009"
         inkscape:connector-curvature="0"
         d="m -22.25,168.075 v -9.525 h -46.568 v 9.525 z"
         clip-path="url(#clipPath6865)"
         id="path927" />
    </clipPath>
    <clipPath
       id="clipPath933">
      <path
         style="fill:#a3977d;stroke-width:2.08100009"
         inkscape:connector-curvature="0"
         d="m -22.25,168.075 v -9.525 h -46.568 v 9.525 z"
         clip-path="url(#clipPath6865)"
         id="path931" />
    </clipPath>
    <clipPath
       id="d-8">
      <path
         style="fill-opacity:0.506;stroke:#ffffff;stroke-width:2.1170001;stroke-opacity:0.50199998"
         inkscape:connector-curvature="0"
         d="m -45.534,209.35 29.33,16.933 v 33.867 l -29.33,16.933 -29.33,-16.933 v -33.867 z"
         id="path8-8" />
    </clipPath>
    <clipPath
       id="e-8">
      <path
         style="fill:#1b1e25;stroke-width:3.17499995;stroke-opacity:0.706"
         inkscape:connector-curvature="0"
         d="m 169.333,190.5 h -50.8 v -38.1 l 42.335,-0.059 V 97.367 H 228.6 v 8.466 h -59.267 z"
         id="path14" />
    </clipPath>
    <clipPath
       id="f-8">
      <path
         style="fill:#1b1e25;stroke-width:3.17499995;stroke-opacity:0.706"
         inkscape:connector-curvature="0"
         d="M 169.333,0 V 55.033 H 228.6 V 63.5 H 160.867 V 8.467 H 8.467 V 152.341 L 50.8,152.4 v 38.1 H 0 L 0.001,0 Z"
         id="path11" />
    </clipPath>
    <clipPath
       id="k">
      <path
         d="m 16.934,76.198 v 126.999 h 279.4 V 93.133 H 152.4 V 76.198 Z m 25.4,16.933 a 8.467,8.467 0 1 1 0,16.934 8.467,8.467 0 0 1 0,-16.934 z m 80.432,67.733 c 7.014,0 12.7,5.686 12.7,12.7 0,7.014 -5.686,12.7 -12.7,12.7 -7.014,0 -12.7,-5.686 -12.7,-12.7 0,-7.014 5.686,-12.7 12.7,-12.7 z"
         id="path30"
         inkscape:connector-curvature="0"
         style="fill:#565656;stroke-width:1.68200004;stroke-opacity:0.706" />
    </clipPath>
    <pattern
       xlink:href="#a-5"
       id="h"
       patternTransform="matrix(0.0661501,0,0,0.06614858,190.49878,160.86478)" />
    <pattern
       xlink:href="#b-2"
       id="a-5"
       patternTransform="translate(-159.834 378.683) scale(.06615)" />
    <pattern
       patternUnits="userSpaceOnUse"
       width="32"
       height="32"
       patternTransform="translate(-159.834 378.683) scale(.26458)"
       id="b-2">
      <path
         fill="none"
         stroke-width="3.78"
         d="M0 0h32v32H0z"
         id="path11-6" />
      <path
         fill="none"
         stroke-width="4"
         d="M0 0h32v32H0z"
         id="path13" />
      <path
         d="M16 0v32M0 16h32"
         fill="none"
         stroke="#000"
         stroke-width="4"
         id="path15-5" />
    </pattern>
    <pattern
       xlink:href="#a-5"
       id="g"
       patternTransform="matrix(0.0661501,0,0,0.06614858,270.9329,232.83026)" />
    <pattern
       xlink:href="#b-2"
       id="pattern862"
       patternTransform="translate(-159.834 378.683) scale(.06615)" />
    <pattern
       patternUnits="userSpaceOnUse"
       width="32"
       height="32"
       patternTransform="translate(-159.834 378.683) scale(.26458)"
       id="pattern870">
      <path
         fill="none"
         stroke-width="3.78"
         d="M0 0h32v32H0z"
         id="path864" />
      <path
         fill="none"
         stroke-width="4"
         d="M0 0h32v32H0z"
         id="path866" />
      <path
         d="M16 0v32M0 16h32"
         fill="none"
         stroke="#000"
         stroke-width="4"
         id="path868" />
    </pattern>
    <clipPath
       id="f-88">
      <path
         d="M 169.333,76.2 152.4,93.133 V 76.198 l 16.931,-16.934 z"
         id="path18"
         inkscape:connector-curvature="0"
         style="fill:#3f3c34;stroke-width:2.1170001;stroke-opacity:0.706" />
    </clipPath>
    <clipPath
       id="e-1">
      <path
         d="M 169.333,76.2 H 313.267 L 296.997,93.132 152.4,93.133 Z"
         id="path21-8"
         inkscape:connector-curvature="0"
         style="fill:#3a3a3a;stroke-width:2.1170001;stroke-opacity:0.706" />
    </clipPath>
    <clipPath
       id="d-1">
      <path
         d="M 296.333,93.133 V 203.2 l 16.932,16.934 V 76.2 Z"
         id="path24"
         inkscape:connector-curvature="0"
         style="fill:#3a3a3a;stroke-width:2.1170001;stroke-opacity:0.706" />
    </clipPath>
    <clipPath
       id="a-3">
      <rect
         style="fill:#00baff;fill-opacity:0.294;stroke-width:6.63199997"
         width="101.6"
         height="8.467"
         x="-167.01601"
         y="-54.000999"
         rx="1.058"
         ry="1.058"
         id="rect2-5" />
    </clipPath>
    <clipPath
       id="clipPath1715">
      <rect
         style="fill:#00baff;fill-opacity:0.294;stroke-width:6.63199997"
         width="101.6"
         height="8.467"
         x="-167.01601"
         y="-54.000999"
         rx="1.058"
         ry="1.058"
         id="rect1713" />
    </clipPath>
    <pattern
       patternUnits="userSpaceOnUse"
       width="128"
       height="128"
       patternTransform="matrix(.26458 0 0 .26458 0 -38.1)"
       id="a-8">
      <path
         fill="none"
         stroke-width="3.78"
         d="M0 0h128v128H0z"
         id="path15-8" />
      <path
         fill="none"
         stroke-width="3.78"
         d="M0 0h128v128H0z"
         id="path17-8" />
      <path
         d="M0 0h128v128H0z"
         fill="#2e2d2a"
         stroke-width="15.118"
         stroke-miterlimit="10"
         id="path19-2" />
      <path
         d="M60 128V68H0v-8h60V0h8v60h60v8H68v60z"
         fill="#6f6f6f"
         fill-opacity=".303"
         stroke-width="1.414"
         id="path21-5" />
    </pattern>
    <clipPath
       clipPathUnits="userSpaceOnUse"
       id="clipPath1614">
      <path
         sodipodi:nodetypes="cccccccccccccccccccccccccccccccccc"
         inkscape:connector-curvature="0"
         id="path1616"
         d="M 84.666186,-6.3995032e-5 V 59.267571 H 203.19895 V 169.33311 h 59.26715 v -8.46666 H 211.66613 V 50.799835 H 93.133367 V -1.0299503e-4 Z M 42.333314,194.7331 l 16.933319,5.3e-4 8e-6,16.9328 v 42.33331 H 177.79992 v -42.33331 h 84.66662 v -8.46664 H 169.33326 V 245.5331 H 67.733306 v -42.33331 l -3e-6,-16.93335 H 50.799976 8.4666631 V 84.666494 H 50.799976 V -9.3154532e-5 H 42.333314 V 76.199832 H 0 V 194.7331 Z"
         style="fill:#1b1e25;stroke-width:2.22600007" />
    </clipPath>
    <clipPath
       clipPathUnits="userSpaceOnUse"
       id="clipPath2622">
      <rect
         style="fill:#003764;fill-opacity:1;stroke-width:4.01678371"
         id="rect2624"
         ry="2.5400393"
         rx="2.5400534"
         y="3.1750655"
         x="1.9834799e-007"
         height="25.401232"
         width="57.150375" />
    </clipPath>
    <clipPath
       clipPathUnits="userSpaceOnUse"
       id="clipPath2663">
      <rect
         style="fill:#0065b7;fill-opacity:1;stroke:none;stroke-width:6.63249826;stroke-linecap:round;stroke-linejoin:miter;stroke-miterlimit:4;stroke-dasharray:none;stroke-opacity:1"
         id="rect2665"
         width="12.700267"
         height="21.167112"
         x="2.1158862"
         y="5.2917767"
         rx="1.0583556"
         ry="1.0583556" />
    </clipPath>
    <clipPath
       id="a-6">
      <rect
         style="fill:#282828;stroke-width:5.6079998"
         y="0"
         x="0"
         ry="2.1170001"
         height="26.988001"
         width="37.042"
         rx="2.1170001"
         id="rect2" />
    </clipPath>
    <clipPath
       id="b-9">
      <path
         style="fill-opacity:0.506;stroke:#ffffff;stroke-width:2.1170001;stroke-opacity:0.50199998"
         inkscape:connector-curvature="0"
         d="m -45.534,209.35 29.33,16.933 v 33.867 l -29.33,16.933 -29.33,-16.933 v -33.867 z"
         id="path5-7" />
    </clipPath>
    <clipPath
       id="a-0">
      <path
         style="fill:#ffffff;stroke-width:16.28499985"
         inkscape:connector-curvature="0"
         d="m 172.608,-141.712 h 16.933 v 15.226 h -16.933 z"
         id="path8-9" />
    </clipPath>
    <clipPath
       id="b-22">
      <path
         style="fill:#939393;stroke-width:2.96000004"
         inkscape:connector-curvature="0"
         d="m 52.917,283.242 c 0,5.261 -3.83,12.166 -8.625,12.166 -4.795,0 -8.625,-6.905 -8.625,-12.166 0,-5.262 3.861,-9.518 8.625,-9.518 4.763,0 8.625,4.256 8.625,9.518 z"
         id="path5-8" />
    </clipPath>
    <clipPath
       id="c-9">
      <path
         style="fill:#939393;stroke-width:2.96000004"
         inkscape:connector-curvature="0"
         d="m 61.383,253.608 c 0,5.262 -3.83,12.167 -8.625,12.167 -4.794,0 -8.624,-6.905 -8.624,-12.167 0,-5.261 3.861,-9.517 8.624,-9.517 4.764,0 8.625,4.256 8.625,9.517 z"
         id="path2-5" />
    </clipPath>
    <clipPath
       id="a-4">
      <path
         style="fill:#a8000f;stroke-width:3.43199992"
         inkscape:connector-curvature="0"
         d="m -2.117,276.362 h 24.342 c 1.173,0 2.117,0.945 2.117,2.117 v 16.933 c 0,3.175 -4.234,4.234 -13.759,4.234 -9.525,0 -14.816,-1.059 -14.816,-4.234 V 278.48 c 0,-1.172 0.944,-2.117 2.116,-2.117 z"
         id="path2-51" />
    </clipPath>
    <pattern
       xlink:href="#a-81"
       id="f-1"
       patternTransform="translate(19.05 284.3) scale(.26458)" />
    <pattern
       patternUnits="userSpaceOnUse"
       width="2"
       height="20"
       patternTransform="translate(19.05 285.887) scale(.26458)"
       id="a-81">
      <path
         fill="#7c3d00"
         stroke-width="6.325"
         d="M0 0h2v20H0z"
         id="path13-7" />
      <path
         fill="#6d3300"
         stroke-width="4"
         d="M0 0h2v10H0z"
         id="path15-3" />
    </pattern>
    <clipPath
       id="e-4">
      <rect
         style="fill:url(#d);stroke-width:3.2980001"
         width="21.167"
         height="21.695999"
         x="-4.2329998"
         y="277.42099"
         rx="2.1170001"
         ry="2.1170001"
         id="rect10-5" />
    </clipPath>
    <clipPath
       id="a-40">
      <path
         style="fill:#663300;stroke-width:2.09800005"
         inkscape:connector-curvature="0"
         d="m -2.275,256.942 h 9.587 v 43.392 h -9.587 z"
         id="path17-6" />
    </clipPath>
    <clipPath
       id="b-7">
      <path
         style="fill:#663300;stroke-width:2.09800005"
         inkscape:connector-curvature="0"
         d="m -2.275,256.942 h 9.587 v 43.392 h -9.587 z"
         id="path20" />
    </clipPath>
    <clipPath
       id="c-7">
      <path
         style="fill:#663300;stroke-width:2.09800005"
         inkscape:connector-curvature="0"
         d="m -2.275,256.942 h 9.587 v 43.392 h -9.587 z"
         id="path23" />
    </clipPath>
    <clipPath
       id="d-7">
      <path
         style="fill:#663300;stroke-width:2.09800005"
         inkscape:connector-curvature="0"
         d="m -2.275,256.942 h 9.587 v 43.392 h -9.587 z"
         id="path26" />
    </clipPath>
    <clipPath
       id="e-44">
      <path
         style="fill:#663300;stroke-width:2.09800005"
         inkscape:connector-curvature="0"
         d="m -2.275,256.942 h 9.587 v 43.392 h -9.587 z"
         id="path8-91" />
    </clipPath>
    <clipPath
       id="f-7">
      <path
         style="fill:#663300;stroke-width:2.09800005"
         inkscape:connector-curvature="0"
         d="m -2.275,256.942 h 9.587 v 43.392 h -9.587 z"
         id="path11-8" />
    </clipPath>
    <clipPath
       id="g-7">
      <path
         style="fill:#663300;stroke-width:2.09800005"
         inkscape:connector-curvature="0"
         d="m -2.275,256.942 h 9.587 v 43.392 h -9.587 z"
         id="path14-1" />
    </clipPath>
    <clipPath
       id="h-5">
      <rect
         style="fill:#537054;stroke-width:4.77799988"
         x="0"
         width="38.099998"
         height="19.049999"
         y="258.89999"
         ry="4.2329998"
         id="rect2-09" />
    </clipPath>
    <clipPath
       id="i">
      <rect
         style="fill:#537054;stroke-width:4.77799988"
         x="0"
         width="38.099998"
         height="19.049999"
         y="258.89999"
         ry="4.2329998"
         id="rect5" />
    </clipPath>
    <clipPath
       id="a-56">
      <path
         style="fill:#663300;stroke-width:6.19199991"
         inkscape:connector-curvature="0"
         d="M 123.766,64 H 160 v 100 h -36.234 z"
         id="path20-0" />
    </clipPath>
    <clipPath
       id="b-25">
      <path
         style="fill:#663300;stroke-width:6.19199991"
         inkscape:connector-curvature="0"
         d="m 84.002,64 h 36.234 V 164 H 84.002 Z"
         id="path17-67" />
    </clipPath>
    <clipPath
       id="c-1">
      <path
         style="fill:#663300;stroke-width:6.19199991"
         inkscape:connector-curvature="0"
         d="M 43.77,64 H 80.003 V 164 H 43.77 Z"
         id="path14-9" />
    </clipPath>
    <clipPath
       id="d-5">
      <path
         style="fill:#663300;stroke-width:6.19199991"
         inkscape:connector-curvature="0"
         d="M 4.001,64 H 40.235 V 164 H 4.001 Z"
         id="path11-4" />
    </clipPath>
    <clipPath
       id="e-0">
      <path
         style="fill:#663300;stroke-width:2.09800005"
         inkscape:connector-curvature="0"
         d="m -2.275,256.942 h 9.587 v 43.392 h -9.587 z"
         id="path5-2" />
    </clipPath>
    <clipPath
       id="f-0">
      <path
         style="fill:#663300;stroke-width:2.09800005"
         inkscape:connector-curvature="0"
         d="m -2.275,256.942 h 9.587 v 43.392 h -9.587 z"
         id="path8-2" />
    </clipPath>
    <clipPath
       id="g-77">
      <rect
         style="fill:#537054;stroke-width:4.77799988"
         x="0"
         width="38.099998"
         height="19.049999"
         y="258.89999"
         ry="4.2329998"
         id="rect2-4" />
    </clipPath>
    <clipPath
       id="h-6">
      <path
         style="fill:#252525;stroke-width:1.46700001"
         inkscape:connector-curvature="0"
         d="m 496.26,-65.722 v -10.054 h -25.4 v 10.054 z"
         id="path12" />
    </clipPath>
    <clipPath
       id="a-91">
      <path
         style="fill:#663300;stroke-width:6.19199991"
         inkscape:connector-curvature="0"
         d="M 123.766,64 H 160 v 100 h -36.234 z"
         id="path20-1" />
    </clipPath>
    <clipPath
       id="b-40">
      <path
         style="fill:#663300;stroke-width:6.19199991"
         inkscape:connector-curvature="0"
         d="m 84.002,64 h 36.234 V 164 H 84.002 Z"
         id="path17-0" />
    </clipPath>
    <clipPath
       id="c-5">
      <path
         style="fill:#663300;stroke-width:6.19199991"
         inkscape:connector-curvature="0"
         d="M 43.77,64 H 80.003 V 164 H 43.77 Z"
         id="path14-7" />
    </clipPath>
    <clipPath
       id="d-6">
      <path
         style="fill:#663300;stroke-width:6.19199991"
         inkscape:connector-curvature="0"
         d="M 4.001,64 H 40.235 V 164 H 4.001 Z"
         id="path11-92" />
    </clipPath>
    <clipPath
       id="e-2">
      <path
         style="fill:#663300;stroke-width:2.09800005"
         inkscape:connector-curvature="0"
         d="m -2.275,256.942 h 9.587 v 43.392 h -9.587 z"
         id="path5-22" />
    </clipPath>
    <clipPath
       id="f-2">
      <path
         style="fill:#663300;stroke-width:2.09800005"
         inkscape:connector-curvature="0"
         d="m -2.275,256.942 h 9.587 v 43.392 h -9.587 z"
         id="path8-6" />
    </clipPath>
    <clipPath
       id="g-0">
      <rect
         style="fill:#537054;stroke-width:4.77799988"
         x="0"
         width="38.099998"
         height="19.049999"
         y="258.89999"
         ry="4.2329998"
         id="rect2-1" />
    </clipPath>
    <clipPath
       clipPathUnits="userSpaceOnUse"
       id="clipPath3056">
      <path
         style="fill:#743500;fill-opacity:1;stroke:none;stroke-width:1.49671435;stroke-linecap:round;stroke-linejoin:miter;stroke-miterlimit:4;stroke-dasharray:none;stroke-opacity:1"
         d="m -16.933385,160.86663 h -29.633439 v -16.93339 l 27.51676,-1e-5 c 1.058337,0 2.116674,1.05834 2.116674,2.11668 z"
         id="path3058"
         inkscape:connector-curvature="0"
         sodipodi:nodetypes="cccccc" />
    </clipPath>
    <clipPath
       clipPathUnits="userSpaceOnUse"
       id="clipPath848">
      <path
         style="fill:#743500;fill-opacity:1;stroke:none;stroke-width:1.49671435;stroke-linecap:round;stroke-linejoin:miter;stroke-miterlimit:4;stroke-dasharray:none;stroke-opacity:1"
         d="m -16.933385,160.86663 h -29.633439 v -16.93339 l 27.51676,-1e-5 c 1.058337,0 2.116674,1.05834 2.116674,2.11668 z"
         id="path846"
         inkscape:connector-curvature="0"
         sodipodi:nodetypes="cccccc" />
    </clipPath>
    <pattern
       patternUnits="userSpaceOnUse"
       width="63.999994"
       height="63.999994"
       patternTransform="matrix(0.26458421,0,0,0.26458421,-110.06703,143.93324)"
       id="pattern3032">
      <rect
         y="0"
         x="0"
         height="63.999992"
         width="63.999992"
         id="rect2240-1"
         style="fill:#4d2d13;fill-opacity:1;stroke:none;stroke-width:3.99999952;stroke-linecap:round;stroke-linejoin:miter;stroke-miterlimit:4;stroke-dasharray:none;stroke-opacity:1" />
      <circle
         r="9.0571909"
         cy="32.000042"
         cx="32.000042"
         id="path2238-8"
         style="fill:#743500;fill-opacity:1;stroke:#191919;stroke-width:3.99999952;stroke-linecap:round;stroke-linejoin:miter;stroke-miterlimit:4;stroke-dasharray:none;stroke-opacity:1" />
    </pattern>
    <clipPath
       clipPathUnits="userSpaceOnUse"
       id="clipPath1607">
      <path
         sodipodi:nodetypes="ccccccccc"
         inkscape:connector-curvature="0"
         id="path1609"
         d="m 71.967074,-2.2842696e-4 c 2.116679,0 4.23336,2.11667482696 4.23336,4.23335962696 l -5e-6,19.0500118 c 0,1.058339 -1.058339,2.116679 -2.116679,2.116679 H 2.1166786 C 1.0583393,25.399822 0,24.341482 0,23.283143 L 2.6601041e-7,4.2331312 C 2.6601041e-7,2.1164464 2.1166781,-2.2842696e-4 4.2333569,-2.2842696e-4 Z"
         clip-path="none"
         style="fill:#27282b;fill-opacity:1;stroke:none;stroke-width:3.57253647;stroke-linecap:round;stroke-linejoin:miter;stroke-miterlimit:4;stroke-dasharray:none;stroke-opacity:1" />
    </clipPath>
    <clipPath
       id="a-7">
      <path
         style="fill:#d9b88d;stroke-width:14.96500015"
         inkscape:connector-curvature="0"
         d="m 40,126.167 c 19.889,3.315 45.482,3.315 65.372,0 7.245,-1.207 16.572,0 13.257,6.63 0,0 -6.629,9.944 -6.629,23.203 0,13.259 6.63,23.203 6.63,23.203 3.314,6.63 -6.013,7.836 -13.258,6.63 -19.89,-3.315 -45.483,-3.315 -65.372,0 -7.245,1.206 -16.573,0 -13.259,-6.63 0,0 6.63,-13.259 6.63,-23.203 0,-13.259 -6.63,-23.203 -6.63,-23.203 -3.314,-6.63 6.014,-7.837 13.259,-6.63 z"
         id="path23-9" />
    </clipPath>
    <clipPath
       id="b-257">
      <path
         style="fill:#d9b88d;stroke-width:14.96500015"
         inkscape:connector-curvature="0"
         d="m 40,126.167 c 19.889,3.315 45.482,3.315 65.372,0 7.245,-1.207 16.572,0 13.257,6.63 0,0 -6.629,9.944 -6.629,23.203 0,13.259 6.63,23.203 6.63,23.203 3.314,6.63 -6.013,7.836 -13.258,6.63 -19.89,-3.315 -45.483,-3.315 -65.372,0 -7.245,1.206 -16.573,0 -13.259,-6.63 0,0 6.63,-13.259 6.63,-23.203 0,-13.259 -6.63,-23.203 -6.63,-23.203 -3.314,-6.63 6.014,-7.837 13.259,-6.63 z"
         id="path20-19" />
    </clipPath>
    <clipPath
       id="c-0">
      <path
         style="fill:#d9b88d;stroke-width:14.04500008"
         inkscape:connector-curvature="0"
         d="m 24.445,2.335 c 18.667,3.11 68.443,3.11 87.11,0 6.8,-1.133 15.555,0 12.443,6.222 0,0 -6.222,9.333 -6.222,21.777 0,12.444 6.222,21.777 6.222,21.777 3.112,6.222 -5.643,7.355 -12.443,6.222 -18.667,-3.11 -68.443,-3.11 -87.11,0 -6.8,1.133 -15.555,0 -12.444,-6.222 0,0 6.222,-12.444 6.222,-21.777 C 18.223,17.89 12.001,8.557 12.001,8.557 8.891,2.335 17.646,1.202 24.445,2.335 Z"
         id="path2-0" />
    </clipPath>
    <clipPath
       id="d-2">
      <path
         style="fill:#d9b88d;stroke-width:14.04500008"
         inkscape:connector-curvature="0"
         d="m 24.445,2.335 c 18.667,3.11 68.443,3.11 87.11,0 6.8,-1.133 15.555,0 12.443,6.222 0,0 -6.222,9.333 -6.222,21.777 0,12.444 6.222,21.777 6.222,21.777 3.112,6.222 -5.643,7.355 -12.443,6.222 -18.667,-3.11 -68.443,-3.11 -87.11,0 -6.8,1.133 -15.555,0 -12.444,-6.222 0,0 6.222,-12.444 6.222,-21.777 C 18.223,17.89 12.001,8.557 12.001,8.557 8.891,2.335 17.646,1.202 24.445,2.335 Z"
         id="path5-31" />
    </clipPath>
    <clipPath
       id="e-9">
      <path
         style="fill:#d9b88d;stroke-width:14.04500008"
         inkscape:connector-curvature="0"
         d="m 24.445,2.335 c 18.667,3.11 68.443,3.11 87.11,0 6.8,-1.133 15.555,0 12.443,6.222 0,0 -6.222,9.333 -6.222,21.777 0,12.444 6.222,21.777 6.222,21.777 3.112,6.222 -5.643,7.355 -12.443,6.222 -18.667,-3.11 -68.443,-3.11 -87.11,0 -6.8,1.133 -15.555,0 -12.444,-6.222 0,0 6.222,-12.444 6.222,-21.777 C 18.223,17.89 12.001,8.557 12.001,8.557 8.891,2.335 17.646,1.202 24.445,2.335 Z"
         id="path8-3" />
    </clipPath>
    <clipPath
       id="f-3">
      <path
         style="fill:#d9b88d;stroke-width:14.04500008"
         inkscape:connector-curvature="0"
         d="m 24.445,2.335 c 18.667,3.11 68.443,3.11 87.11,0 6.8,-1.133 15.555,0 12.443,6.222 0,0 -6.222,9.333 -6.222,21.777 0,12.444 6.222,21.777 6.222,21.777 3.112,6.222 -5.643,7.355 -12.443,6.222 -18.667,-3.11 -68.443,-3.11 -87.11,0 -6.8,1.133 -15.555,0 -12.444,-6.222 0,0 6.222,-12.444 6.222,-21.777 C 18.223,17.89 12.001,8.557 12.001,8.557 8.891,2.335 17.646,1.202 24.445,2.335 Z"
         id="path11-67" />
    </clipPath>
    <clipPath
       id="g-1">
      <path
         style="fill:#d9b88d;stroke-width:14.04500008"
         inkscape:connector-curvature="0"
         d="m 24.445,2.335 c 18.667,3.11 68.443,3.11 87.11,0 6.8,-1.133 15.555,0 12.443,6.222 0,0 -6.222,9.333 -6.222,21.777 0,12.444 6.222,21.777 6.222,21.777 3.112,6.222 -5.643,7.355 -12.443,6.222 -18.667,-3.11 -68.443,-3.11 -87.11,0 -6.8,1.133 -15.555,0 -12.444,-6.222 0,0 6.222,-12.444 6.222,-21.777 C 18.223,17.89 12.001,8.557 12.001,8.557 8.891,2.335 17.646,1.202 24.445,2.335 Z"
         id="path14-6" />
    </clipPath>
    <clipPath
       id="h-8">
      <path
         style="fill:#d9b88d;stroke-width:14.04500008"
         inkscape:connector-curvature="0"
         d="m 24.445,2.335 c 18.667,3.11 68.443,3.11 87.11,0 6.8,-1.133 15.555,0 12.443,6.222 0,0 -6.222,9.333 -6.222,21.777 0,12.444 6.222,21.777 6.222,21.777 3.112,6.222 -5.643,7.355 -12.443,6.222 -18.667,-3.11 -68.443,-3.11 -87.11,0 -6.8,1.133 -15.555,0 -12.444,-6.222 0,0 6.222,-12.444 6.222,-21.777 C 18.223,17.89 12.001,8.557 12.001,8.557 8.891,2.335 17.646,1.202 24.445,2.335 Z"
         id="path17-2" />
    </clipPath>
    <clipPath
       id="a-44">
      <path
         style="fill:#663300;stroke-width:6.19199991"
         inkscape:connector-curvature="0"
         d="M 123.766,64 H 160 v 100 h -36.234 z"
         id="path20-6" />
    </clipPath>
    <clipPath
       id="b-1">
      <path
         style="fill:#663300;stroke-width:6.19199991"
         inkscape:connector-curvature="0"
         d="m 84.002,64 h 36.234 V 164 H 84.002 Z"
         id="path17-1" />
    </clipPath>
    <clipPath
       id="c-70">
      <path
         style="fill:#663300;stroke-width:6.19199991"
         inkscape:connector-curvature="0"
         d="M 43.77,64 H 80.003 V 164 H 43.77 Z"
         id="path14-0" />
    </clipPath>
    <clipPath
       id="d-69">
      <path
         style="fill:#663300;stroke-width:6.19199991"
         inkscape:connector-curvature="0"
         d="M 4.001,64 H 40.235 V 164 H 4.001 Z"
         id="path11-2" />
    </clipPath>
    <clipPath
       id="e-21">
      <path
         style="fill:#663300;stroke-width:2.09800005"
         inkscape:connector-curvature="0"
         d="m -2.275,256.942 h 9.587 v 43.392 h -9.587 z"
         id="path5-6" />
    </clipPath>
    <clipPath
       id="f-17">
      <path
         style="fill:#663300;stroke-width:2.09800005"
         inkscape:connector-curvature="0"
         d="m -2.275,256.942 h 9.587 v 43.392 h -9.587 z"
         id="path8-1" />
    </clipPath>
    <clipPath
       id="g-70">
      <rect
         style="fill:#537054;stroke-width:4.77799988"
         x="0"
         width="38.099998"
         height="19.049999"
         y="258.89999"
         ry="4.2329998"
         id="rect2-18" />
    </clipPath>
    <clipPath
       clipPathUnits="userSpaceOnUse"
       id="clipPath3475">
      <rect
         id="rect3477"
         ry="1.0583328"
         rx="1.0583328"
         y="-499.53308"
         x="-194.72964"
         height="16.933334"
         width="101.59695"
         style="fill:#00baff;fill-opacity:0.294;stroke-width:9.37873936" />
    </clipPath>
    <clipPath
       id="a-1">
      <rect
         style="fill:#585858;stroke-width:1.01300001"
         x="148.16701"
         rx="0"
         y="46.567001"
         height="13.759"
         width="25.4"
         id="rect11" />
    </clipPath>
    <clipPath
       id="b-3">
      <rect
         style="fill:#393939;stroke-width:0.97299999"
         rx="0"
         y="113.242"
         height="12.7"
         width="25.4"
         x="50.800999"
         id="rect8" />
    </clipPath>
    <clipPath
       id="c-6">
      <circle
         style="fill:#e30000;stroke-width:3.17499995"
         cx="19.049999"
         cy="302.556"
         r="3.9690001"
         id="circle5" />
    </clipPath>
    <clipPath
       id="clipPath869">
      <circle
         style="fill:#e30000;stroke-width:3.17499995"
         cx="19.049999"
         cy="302.556"
         r="3.9690001"
         id="circle867" />
    </clipPath>
    <clipPath
       id="d-0">
      <circle
         style="fill:#e30000;stroke-width:3.17499995"
         cx="19.049999"
         cy="302.556"
         r="3.9690001"
         id="circle2-4" />
    </clipPath>
    <clipPath
       id="c-31">
      <circle
         cx="19.049999"
         cy="302.556"
         r="3.9690001"
         id="circle5-6"
         style="fill:#e30000;stroke-width:3.17499995" />
    </clipPath>
    <clipPath
       id="d-52">
      <circle
         cx="19.049999"
         cy="302.556"
         r="3.9690001"
         id="circle2-7"
         style="fill:#e30000;stroke-width:3.17499995" />
    </clipPath>
    <clipPath
       id="clipPath919">
      <circle
         cx="19.049999"
         cy="302.556"
         r="3.9690001"
         id="circle917"
         style="fill:#e30000;stroke-width:3.17499995" />
    </clipPath>
    <clipPath
       id="clipPath923">
      <circle
         cx="19.049999"
         cy="302.556"
         r="3.9690001"
         id="circle921"
         style="fill:#e30000;stroke-width:3.17499995" />
    </clipPath>
    <clipPath
       clipPathUnits="userSpaceOnUse"
       id="clipPath895">
      <rect
         id="rect897"
         width="50.800247"
         height="13.759"
         y="-24.871"
         rx="0"
         x="-8.5106381e-005"
         style="fill:#585858;stroke-width:1.43260181" />
    </clipPath>
    <clipPath
       clipPathUnits="userSpaceOnUse"
       id="clipPath901">
      <rect
         id="rect903"
         x="0.00090613501"
         width="50.799255"
         height="12.699999"
         y="-1.3913973e-006"
         rx="0"
         style="fill:#393939;stroke-width:1.37601972" />
    </clipPath>
    <filter
       style="color-interpolation-filters:sRGB"
       id="b-6"
       x="-0.013"
       width="1.026"
       y="-0.037"
       height="1.074">
      <feGaussianBlur
         stdDeviation="1.457"
         id="feGaussianBlur33" />
    </filter>
    <pattern
       inkscape:collect="always"
       xlink:href="#pattern2312"
       id="pattern2329"
       patternTransform="matrix(0.0661458,0,0,0.0661458,-46.302061,38.364291)" />
    <pattern
       inkscape:collect="always"
       xlink:href="#a-12"
       id="pattern2312"
       patternTransform="matrix(0.0661458,0,0,0.0661458,76.199962,110.06754)" />
    <pattern
       patternUnits="userSpaceOnUse"
       width="128"
       height="128"
       patternTransform="matrix(.26458 0 0 .26458 0 -38.1)"
       id="a-12">
      <path
         fill="none"
         stroke-width="3.78"
         d="M0 0h128v128H0z"
         id="path15-9" />
      <path
         fill="none"
         stroke-width="3.78"
         d="M0 0h128v128H0z"
         id="path17-4" />
      <path
         d="M0 0h128v128H0z"
         fill="#2e2d2a"
         stroke-width="15.118"
         stroke-miterlimit="10"
         id="path19-8" />
      <path
         d="M60 128V68H0v-8h60V0h8v60h60v8H68v60z"
         fill="#6f6f6f"
         fill-opacity=".303"
         stroke-width="1.414"
         id="path21-2" />
    </pattern>
    <filter
       inkscape:collect="always"
       style="color-interpolation-filters:sRGB"
       id="filter2037"
       x="-0.016445218"
       width="1.0328904"
       y="-0.023063414"
       height="1.0461268">
      <feGaussianBlur
         inkscape:collect="always"
         stdDeviation="1.6679325"
         id="feGaussianBlur2039" />
    </filter>
    <clipPath
       clipPathUnits="userSpaceOnUse"
       id="clipPath2066">
      <path
         style="fill:#1b1e25;stroke-width:2.22600007"
         d="m 182.03426,12.699319 -8.46511,0.001 v 67.732259 h 59.26611 V 224.36846 l -237.0685948,-0.002 v 8.46669 l 245.5342248,5.3e-4 V 71.966471 h -59.26663 z m -50.80049,0.001 v 59.266147 l -59.267145,3.4e-5 v 84.66664 H -4.2333348 v 33.86664 l 84.6671328,-3e-5 V 80.434165 H 139.70095 V 12.700352 Z"
         id="path2068"
         inkscape:connector-curvature="0"
         sodipodi:nodetypes="cccccccccccccccccccccc" />
    </clipPath>
  </defs>
  <path
     inkscape:connector-curvature="0"
     style="fill:#130902;fill-opacity:0.94499966;stroke-width:1.31677461;filter:url(#filter2037)"
     d="M 6.6145891,6.6144618 188.64783,6.6144368 V 180.181 l -243.416543,3e-5 V 91.281078 l 61.3832991,2e-5 z"
     id="path38"
     sodipodi:nodetypes="ccccccc" />
  <path
     sodipodi:nodetypes="ccccccccccc"
     style="fill:url(#pattern2329);fill-opacity:1;stroke-width:0.99999994"
     inkscape:connector-curvature="0"
     id="path2280"
     d="m -257.96862,-37.835664 h 50.79998 v 50.799972 l 118.53256,-9e-5 V 123.03093 h 50.80069 v 50.8003 l -270.9332,1.7e-4 v -50.80047 h 50.79997 z" />
  <path
     d="M 182.29897,12.964379 H 12.964983 V 123.03108 H -37.83539 v 50.80031 h 220.13336 z"
     id="path33"
     inkscape:connector-curvature="0"
     style="fill:#302e28"
     sodipodi:nodetypes="ccccccc" />
  <path
     clip-path="url(#d)"
     d="m 402.14,158.55 h 9.526 v -42.334 h -9.525 z"
     transform="matrix(0,-1,-1.1,0,248.75397,373.83039)"
     id="path35"
     inkscape:connector-curvature="0"
     style="fill:#646464" />
  <path
     transform="matrix(-1,0,0,1,52.097979,-187.91861)"
     clip-path="url(#e)"
     d="m -22.25,168.075 v -9.525 h -46.568 v 9.525 z"
     id="path37"
     inkscape:connector-curvature="0"
     style="fill:#5a5a5a;stroke:#000000;stroke-width:2.1170001;stroke-opacity:0.706" />
  <path
     d="m -22.25,168.075 v -9.525 h -46.568 v 9.525 z"
     clip-path="url(#e)"
     transform="matrix(-1,0,0,1,52.097979,-179.45161)"
     id="path39"
     inkscape:connector-curvature="0"
     style="fill:#505050;stroke:#000000;stroke-width:2.1170001;stroke-opacity:0.706" />
  <path
     transform="matrix(-1,0,0,1,52.097979,-170.98461)"
     clip-path="url(#e)"
     d="m -22.25,168.075 v -9.525 h -46.568 v 9.525 z"
     id="path41"
     inkscape:connector-curvature="0"
     style="fill:#464646;stroke:#000000;stroke-width:2.1170001;stroke-opacity:0.706" />
  <path
     d="m -22.25,168.075 v -9.525 h -46.568 v 9.525 z"
     clip-path="url(#e)"
     transform="matrix(-1,0,0,1,52.097979,-162.51861)"
     id="path43"
     inkscape:connector-curvature="0"
     style="fill:#3c3c3c;stroke:#000000;stroke-width:2.1170001;stroke-opacity:0.706" />
  <path
     d="m 40.462943,38.131531 c -2.69123,1.57536 -3.20037,4.395379 -2.17204,6.653249 1.21564,2.38328 4.191596,5.01302 10.269256,0.84513 2.96415,-2.81062 2.534,-3.88917 0.0981,-6.838229 -1.88359,-1.97635 -5.07718,-1.74957 -8.195296,-0.66015 z"
     id="path49"
     inkscape:connector-curvature="0"
     style="fill:#0c0c0c;fill-opacity:0.328" />
  <path
     transform="matrix(-1,0,0,1,52.097979,-154.05161)"
     clip-path="url(#e)"
     d="m -22.25,168.075 v -9.525 h -46.568 v 9.525 z"
     id="path51"
     inkscape:connector-curvature="0"
     style="fill:#323232;stroke:#000000;stroke-width:2.1170001;stroke-opacity:0.706" />
  <g
     id="g2276"
     transform="rotate(-180,133.48252,107.52772)">
    <path
       id="path889"
       d="m 169.3335,110.40448 a 12.362517,12.362517 0 0 0 -12.36251,12.36251 12.362517,12.362517 0 0 0 12.36251,12.36252 12.362517,12.362517 0 0 0 12.36252,-12.36252 12.362517,12.362517 0 0 0 -12.36252,-12.36251 z m 4.68294,4.87225 c 0.0804,0 0.16066,0.0309 0.22215,0.0921 l 1.36566,1.38113 c 0.12223,0.12298 0.12223,0.32131 0,0.44428 l -1.13516,1.13517 c -0.11263,0.11201 -0.29066,0.12274 -0.41594,0.0252 l -1.5421,-1.20148 c -0.0723,-0.0553 -0.11712,-0.13899 -0.12298,-0.22988 v -0.0187 c 3.6e-4,-0.0842 0.0345,-0.16508 0.0947,-0.22407 l 1.31158,-1.31159 c 0.0614,-0.0612 0.14175,-0.0921 0.22214,-0.0921 z m -2.98567,1.22724 c 0.0743,-0.005 0.15048,0.0176 0.21312,0.0663 l 4.56191,3.51494 c -0.0399,0.22575 -0.0964,0.44866 -0.17,0.66578 -0.44629,1.42167 -1.56093,2.53444 -2.98309,2.97923 -0.21901,0.0708 -0.44222,0.12734 -0.66835,0.16999 l -3.5214,-4.54967 c -0.0977,-0.12528 -0.087,-0.30338 0.0252,-0.41595 l 2.33923,-2.33921 c 0.0563,-0.0561 0.12914,-0.087 0.20347,-0.0915 z m 5.34872,3.90964 c 0.49383,0.12323 1.51055,0.009 1.51055,0.009 0.19842,1.06943 -0.0349,2.70124 -1.46677,4.13308 -1.36549,1.36547 -3.46307,1.59896 -4.20905,1.38305 0,0 0.16098,-0.75696 0.13586,-1.12679 -3.6e-4,-0.11239 -0.0125,-0.22514 -0.0374,-0.33482 0.20564,-0.0462 0.40868,-0.1028 0.60847,-0.16998 1.55319,-0.51436 2.7705,-1.73412 3.28186,-3.2883 0.07,-0.19836 0.1288,-0.40036 0.17642,-0.60524 z m -7.65124,0.22471 c 0.0718,0.001 0.14585,0.0252 0.18802,0.0799 l 1.17379,1.56464 c 0.0888,0.14327 0.0748,0.31669 -0.0695,0.46166 l -7.40335,7.42395 v -0.004 c -0.12298,0.12223 -0.32131,0.12223 -0.44427,0 l -1.36503,-1.36503 c -0.12223,-0.12298 -0.12223,-0.32195 0,-0.44491 l 7.7446,-7.66476 c 0.0344,-0.0334 0.10404,-0.0537 0.17578,-0.0522 z"
       style="fill:#ffffff;fill-opacity:0.15686275;stroke:none;stroke-width:3.87786102;stroke-linecap:butt;stroke-miterlimit:4;stroke-dasharray:none;stroke-opacity:1"
       inkscape:connector-curvature="0" />
    <path
       d="m 139.0115,123.363 16.106,-0.686 a 14.227,14.227 0 0 0 -0.01,0.289 14.227,14.227 0 0 0 7.372,12.45 l -8.65,13.61 z m 45.827,25.664 -8.647,-13.605 a 14.227,14.227 0 0 0 0.255,-0.136 14.227,14.227 0 0 0 7.095,-12.61 l 16.114,0.687 z m -0.688,-52.519998 -7.459,14.291998 a 14.227,14.227 0 0 0 -0.245,-0.154 14.227,14.227 0 0 0 -14.468,0.16 l -7.461,-14.297998 z"
       id="path1718"
       inkscape:connector-curvature="0"
       style="fill:#ffffff;fill-opacity:0.15700001" />
    <path
       transform="matrix(-0.91414178,0.52778,0.52778,0.91414178,-0.65583618,-75.53543)"
       d="m -45.534,209.35 29.33,16.933 v 33.867 l -29.33,16.933 -29.33,-16.933 v -33.867 z"
       clip-path="url(#f)"
       id="path1716"
       inkscape:connector-curvature="0"
       style="fill-opacity:0.11799999;stroke:#ffffff;stroke-width:4.01100016;stroke-opacity:0.15700001" />
  </g>
  <g
     id="g2341"
     transform="translate(-50.59468,-105.56785)">
    <path
       style="fill:#555555"
       inkscape:connector-curvature="0"
       id="path53"
       d="m 16.933664,270.93193 v -33.866 H 8.4666645 v 33.866 z" />
    <path
       style="fill:none;stroke:#000000;stroke-width:1.58700001;stroke-linecap:square;stroke-opacity:0.50199998"
       inkscape:connector-curvature="0"
       id="path55"
       d="m 19.049664,253.99893 6.35,-6.35 v 12.7 z m -19.05000152583,-6.35 6.35000102583,6.35 -6.35000102583,6.35 z" />
  </g>
  <path
     sodipodi:nodetypes="cccccccccccccccccccccc"
     inkscape:connector-curvature="0"
     id="path2064"
     d="m 182.03426,12.699319 -8.46511,0.001 v 67.732263 h 59.26611 V 224.36846 l -237.0685948,-0.002 v 8.46669 L 241.30089,232.8336 V 71.96647 h -59.26663 z m -50.80049,0.001 V 71.96647 l -59.267145,3.5e-5 V 156.63314 H -4.2333348 v 33.86664 l 84.6671328,-3e-5 V 80.434164 H 139.70095 V 12.700352 Z"
     style="fill:#1b1e25;stroke:#000000;stroke-width:3.17499828;stroke-miterlimit:4;stroke-dasharray:none;stroke-opacity:0.70588235"
     clip-path="url(#clipPath2066)"
     transform="translate(-59.002041,-59.00204)" />
  <g
     style="fill:#391212"
     transform="matrix(-0.39744039,0,0,0.39744039,114.64125,-50.791781)"
     id="g82">
    <ellipse
       cx="17.816"
       cy="279.992"
       rx="11.982"
       ry="11.713"
       id="ellipse46" />
    <circle
       cx="30.785"
       cy="267.741"
       r="2.6930001"
       id="circle48" />
    <circle
       cx="21.496"
       cy="271.82401"
       r="4.8920002"
       id="circle50" />
    <circle
       cx="6.8660002"
       cy="276.806"
       r="2.8269999"
       id="circle52" />
    <circle
       cx="28.271999"
       cy="281.11401"
       r="2.9619999"
       id="circle54" />
    <circle
       cx="21.629999"
       cy="263.16299"
       r="2.0190001"
       id="circle56" />
    <circle
       cx="32.311001"
       cy="270.07401"
       r="0.76300001"
       id="circle58" />
    <circle
       cx="34.509998"
       cy="287.98001"
       r="1.84"
       id="circle60" />
    <circle
       cx="27.24"
       cy="293.09601"
       r="2.1989999"
       id="circle62" />
    <circle
       cx="4.802"
       cy="286.095"
       r="0.85299999"
       id="circle64" />
    <circle
       cx="11.399"
       cy="289.91"
       r="3.2309999"
       id="circle66" />
    <circle
       cx="8.1669998"
       cy="278.95999"
       r="1.436"
       id="circle68" />
    <circle
       cx="8.7959995"
       cy="267.29199"
       r="1.705"
       id="circle70" />
    <circle
       cx="22.124001"
       cy="288.698"
       r="3.1860001"
       id="circle72" />
    <circle
       cx="14.316"
       cy="268.952"
       r="0.85299999"
       id="circle74" />
    <circle
       cx="28.855"
       cy="275.59399"
       r="0.76300001"
       id="circle76" />
    <circle
       cx="27.868"
       cy="291.121"
       r="0.67299998"
       id="circle78" />
    <circle
       cx="7.4489999"
       cy="268.36899"
       r="0.898"
       id="circle80" />
  </g>
  <g
     style="fill:#391212"
     transform="matrix(-0.34061606,0.38083791,-0.38083791,-0.34061606,144.76196,236.69802)"
     id="g40">
    <circle
       r="11.264"
       cy="278.017"
       cx="19.162001"
       id="circle14" />
    <circle
       r="3.7249999"
       cy="270.02899"
       cx="10.187"
       id="circle16" />
    <circle
       r="2.6930001"
       cy="265.85599"
       cx="28.093"
       id="circle18" />
    <circle
       r="4.8920002"
       cy="276.40201"
       cx="27.868"
       id="circle20" />
    <circle
       r="2.8269999"
       cy="285.82599"
       cx="5.4299998"
       id="circle22" />
    <circle
       r="2.9619999"
       cy="287.66599"
       cx="23.605"
       id="circle24" />
    <circle
       r="2.0190001"
       cy="263.388"
       cx="16.829"
       id="circle26" />
    <circle
       r="0.76300001"
       cy="270.29901"
       cx="32.445999"
       id="circle28" />
    <circle
       r="1.84"
       cy="284.92801"
       cx="33.702"
       id="circle30" />
    <circle
       r="2.1989999"
       cy="291.66"
       cx="29.573"
       id="circle32" />
    <circle
       r="0.85299999"
       cy="277.20999"
       cx="3.276"
       id="circle34" />
    <circle
       r="3.2309999"
       cy="289.19199"
       cx="14.63"
       id="circle36" />
    <circle
       r="1.436"
       cy="278.95999"
       cx="8.1669998"
       id="circle38" />
  </g>
  <g
     style="fill:#391212;fill-opacity:1"
     transform="translate(45.589559,-176.99124)"
     id="g52">
    <ellipse
       style="fill:#391212;fill-opacity:1;stroke-width:3.773"
       cx="19.611"
       cy="276.85001"
       rx="11.982"
       ry="11.713"
       id="ellipse2" />
    <circle
       style="fill:#391212;fill-opacity:1;stroke-width:1.95799994"
       cx="27.195"
       cy="269.35599"
       r="2.6930001"
       id="circle4" />
    <circle
       style="fill:#391212;fill-opacity:1;stroke-width:1.95799994"
       cx="21.496"
       cy="271.82401"
       r="4.8920002"
       id="circle6" />
    <circle
       style="fill:#391212;fill-opacity:1;stroke-width:1.95799994"
       cx="9.2889996"
       cy="274.65201"
       r="2.8269999"
       id="circle8" />
    <circle
       style="fill:#391212;fill-opacity:1;stroke-width:1.95799994"
       cx="28.271999"
       cy="281.11401"
       r="2.9619999"
       id="circle10" />
    <circle
       style="fill:#391212;fill-opacity:1;stroke-width:1.95799994"
       cx="21.361"
       cy="265.31699"
       r="2.0190001"
       id="circle12" />
    <circle
       style="fill:#391212;fill-opacity:1;stroke-width:1.95799994"
       cx="30.875"
       cy="272.677"
       r="0.76300001"
       id="circle14-1" />
    <circle
       style="fill:#391212;fill-opacity:1;stroke-width:1.95799994"
       cx="26.253"
       cy="285.646"
       r="1.84"
       id="circle16-5" />
    <circle
       style="fill:#391212;fill-opacity:1;stroke-width:1.95799994"
       cx="29.933001"
       cy="276.67099"
       r="2.1989999"
       id="circle18-3" />
    <circle
       style="fill:#391212;fill-opacity:1;stroke-width:1.95799994"
       cx="5.0710001"
       cy="284.20999"
       r="0.85299999"
       id="circle20-7" />
    <circle
       style="fill:#391212;fill-opacity:1;stroke-width:1.95799994"
       cx="11.937"
       cy="283.53699"
       r="3.2309999"
       id="circle22-4" />
    <circle
       style="fill:#391212;fill-opacity:1;stroke-width:1.95799994"
       cx="8.1669998"
       cy="278.95999"
       r="1.436"
       id="circle24-6" />
    <circle
       style="fill:#391212;fill-opacity:1;stroke-width:1.95799994"
       cx="12.117"
       cy="267.82999"
       r="1.705"
       id="circle26-8" />
    <circle
       style="fill:#391212;fill-opacity:1;stroke-width:1.95799994"
       cx="18.174999"
       cy="286.27499"
       r="3.1860001"
       id="circle28-2" />
    <circle
       style="fill:#391212;fill-opacity:1;stroke-width:1.95799994"
       cx="14.316"
       cy="268.952"
       r="0.85299999"
       id="circle30-7" />
    <circle
       style="fill:#391212;fill-opacity:1;stroke-width:1.95799994"
       cx="28.855"
       cy="275.59399"
       r="0.76300001"
       id="circle32-5" />
    <circle
       style="fill:#391212;fill-opacity:1;stroke-width:1.95799994"
       cx="12.161"
       cy="288.96701"
       r="0.67299998"
       id="circle34-2" />
    <circle
       style="fill:#391212;fill-opacity:1;stroke-width:1.95799994"
       cx="9.9630003"
       cy="270.43301"
       r="0.898"
       id="circle36-6" />
    <circle
       style="fill:#391212;fill-opacity:1;stroke-width:1.95799994"
       cx="6.6420002"
       cy="268.728"
       r="1.6160001"
       id="circle38-3" />
    <circle
       style="fill:#391212;fill-opacity:1;stroke-width:1.95799994"
       cx="15.258"
       cy="262.89401"
       r="1.705"
       id="circle40" />
    <circle
       style="fill:#391212;fill-opacity:1;stroke-width:1.95799994"
       cx="27.375"
       cy="263.16299"
       r="2.513"
       id="circle42" />
    <circle
       style="fill:#391212;fill-opacity:1;stroke-width:1.95799994"
       cx="34.195999"
       cy="280.12601"
       r="1.705"
       id="circle44" />
    <circle
       style="fill:#391212;fill-opacity:1;stroke-width:1.95799994"
       cx="24.009001"
       cy="290.672"
       r="1.571"
       id="circle46" />
    <circle
       style="fill:#391212;fill-opacity:1;stroke-width:1.95799994"
       cx="31.638"
       cy="285.82599"
       r="1.0319999"
       id="circle48-9" />
    <circle
       style="fill:#391212;fill-opacity:1;stroke-width:1.95799994"
       cx="4.9359999"
       cy="276.89499"
       r="1.346"
       id="circle50-2" />
  </g>
</svg>
