<svg xmlns="http://www.w3.org/2000/svg" width="180" height="692" viewBox="0 0 47.625 183.092"><defs><clipPath id="a"><path fill="#6a6a6a" fill-opacity=".414" stroke-width="3.736" stroke-miterlimit="10" d="M10.68 149.387h8.467v100.542H10.68z"/></clipPath><clipPath id="b"><path fill="#6a6a6a" fill-opacity=".414" stroke-width="3.736" stroke-miterlimit="10" d="M10.68 149.387h8.467v100.542H10.68z"/></clipPath></defs><path fill="#cbcbcb" d="M0 41.275h47.625v100.542H0z"/><path fill="#6d6d6d" stroke="#191919" stroke-width="2" paint-order="stroke fill markers" d="M22.49 180.31L2.845 160.666l9.355-9.355 19.644 19.644z"/><path fill="#d3d3d3" fill-opacity=".783" d="M24.36 178.439L4.717 158.795l.936-.936 19.644 19.644z"/><path fill="#6d6d6d" stroke="#191919" stroke-width="2" paint-order="stroke fill markers" d="M45.477 160.467l-26.834 7.19-3.424-12.778 26.834-7.19z"/><path fill="#d3d3d3" fill-opacity=".783" d="M44.792 157.91l-26.834 7.191-.343-1.278 26.835-7.19z"/><path fill="#6d6d6d" stroke="#191919" stroke-width="2" paint-order="stroke fill markers" d="M25.55 2.323l19.644 19.644-9.355 9.354-19.644-19.644z"/><path fill="#d3d3d3" fill-opacity=".783" d="M23.678 4.194l19.645 19.644-.936.935L22.743 5.13z"/><path fill="#6d6d6d" stroke="#191919" stroke-width="2" paint-order="stroke fill markers" d="M2.562 22.166l26.834-7.19 3.424 12.778-26.834 7.19z"/><path fill="#d3d3d3" fill-opacity=".783" d="M3.247 24.722l26.834-7.19.342 1.277L3.59 26z"/><path clip-path="url(#a)" fill="#6a6a6a" fill-opacity=".414" stroke="#191919" stroke-width="4.233" stroke-miterlimit="10" d="M10.68 149.387h8.467v100.542H10.68z" transform="translate(-10.68 -108.112)"/><path transform="translate(28.479 -108.112)" clip-path="url(#b)" fill="#6a6a6a" fill-opacity=".414" stroke="#191919" stroke-width="4.233" stroke-miterlimit="10" d="M10.68 149.387h8.467v100.542H10.68z"/></svg>