<svg xmlns="http://www.w3.org/2000/svg" width="144" height="144" viewBox="0 0 38.1 38.1"><rect rx="0" y=".979" x=".979" height="36.142" width="36.142" fill="#763800" stroke="#191919" stroke-width="1.958"/><path d="M6.96 6.96h24.18v24.18H6.96z" fill="#c00" stroke="#191919" stroke-width="2"/><path d="M19.142 10.323c6.595 5.17 6.727 8.983 4.73 10.954l2.071 2.07c3.045-3.74 2.78-10.265-6.8-13.024zm-1.41.806c-.623.18-1.29.263-1.884.252-.51-.01-.957-.054-1.3-.239l-4.194 4.194 2.052 2.052 5.792-5.792zm-1.537 3.418l-1.63 1.63 11.448 11.45c.111.111.24.13.468.06.228-.069.51-.25.742-.48.231-.233.412-.515.482-.743.07-.23.05-.357-.06-.469l-11.45-11.448zm-.323 6.686l-1.516 1.382 1.89 1.873c2.224 1.853 4.698 1.98 6.773 1.092l-2.8-2.8c-1.628.1-3.298-.39-4.347-1.547zM13.68 22.94c-.206.04-.334.11-.42.195a.692.692 0 0 0-.159.282l2.053 1.966c.203-.038.344-.104.42-.174a.34.34 0 0 0 .115-.28l-2.01-1.989zm-.92 1.128l-2.07 1.886c-.622 1.004.547 2.277 1.901 1.661l1.917-1.87z" fill="#ffd600"/><path d="M37.042 1.058l-6.35 6.35M37.042 37.042l-6.35-6.35M1.058 37.042l6.35-6.35M1.058 1.058l6.35 6.35" fill="none" stroke="#191919" stroke-width="2.117"/><path d="M.979 22.187v5.122l9.81 9.812h5.123z" fill="#4d2600" stroke="#191919" stroke-width="1.958"/></svg>