<svg xmlns="http://www.w3.org/2000/svg" width="144" height="144" viewBox="0 0 38.1 38.1"><path d="M14.299 18.458a2.418 2.418 0 0 1 1.032-.564c.623-.17 1.32-.159 2.032-.102 1.423.115 2.92.4 3.85.067.873-.312 1.39-.813 1.646-1.37.11-.238.17-.49.186-.745-1.785-.608-4.063-.478-5.602.523 1.322-1.326 3.32-1.952 5.413-1.548l.097.241a2.466 2.466 0 0 0-.078-.222c-.463-1.146-1.817-2.083-3.802-1.693-.912.18-2.198.794-3.195 1.823-.862.89-1.514 2.08-1.58 3.59zm10.03-1.281a2.177 2.177 0 0 1-.29.93c-.283.497-.725.925-1.203 1.332-.956.813-2.058 1.567-2.421 2.337-.345.729-.354 1.35-.17 1.845.08.215.198.408.346.575 1.473-.735 2.79-2.219 3.121-3.785.002 1.635-.84 3.254-2.375 4.302.981.4 2.366.138 3.337-1.31.45-.67.866-1.845.845-3.094-.017-1.061-.336-2.173-1.19-3.132zm-11.651 2.014c-.26 1.258.02 2.381.535 3.309.607 1.092 1.554 1.902 2.28 2.258 1.564.767 2.893.3 3.544-.536-1.854-.14-3.392-1.12-4.208-2.538 1.07 1.19 2.952 1.818 4.595 1.717.045-.218.051-.444.013-.67-.088-.52-.408-1.055-1.07-1.514-.7-.485-2.03-.586-3.265-.812-.618-.114-1.214-.263-1.708-.552a2.178 2.178 0 0 1-.716-.662z" stroke-width=".403" fill="#28a200" stroke="#191919"/></svg>