<?xml version="1.0" encoding="UTF-8" standalone="no"?>
<svg
   xmlns:dc="http://purl.org/dc/elements/1.1/"
   xmlns:cc="http://creativecommons.org/ns#"
   xmlns:rdf="http://www.w3.org/1999/02/22-rdf-syntax-ns#"
   xmlns:svg="http://www.w3.org/2000/svg"
   xmlns="http://www.w3.org/2000/svg"
   xmlns:sodipodi="http://sodipodi.sourceforge.net/DTD/sodipodi-0.dtd"
   xmlns:inkscape="http://www.inkscape.org/namespaces/inkscape"
   width="144"
   height="144"
   viewBox="0 0 38.1 38.1"
   version="1.1"
   id="svg8"
   sodipodi:docname="map-bush-01cb.svg"
   inkscape:version="0.92.2 (5c3e80d, 2017-08-06)">
  <metadata
     id="metadata14">
    <rdf:RDF>
      <cc:Work
         rdf:about="">
        <dc:format>image/svg+xml</dc:format>
        <dc:type
           rdf:resource="http://purl.org/dc/dcmitype/StillImage" />
      </cc:Work>
    </rdf:RDF>
  </metadata>
  <defs
     id="defs12" />
  <sodipodi:namedview
     pagecolor="#ffffff"
     bordercolor="#666666"
     borderopacity="1"
     objecttolerance="10"
     gridtolerance="10"
     guidetolerance="10"
     inkscape:pageopacity="0"
     inkscape:pageshadow="2"
     inkscape:window-width="1920"
     inkscape:window-height="1017"
     id="namedview10"
     showgrid="false"
     inkscape:zoom="1.1588694"
     inkscape:cx="-67.047145"
     inkscape:cy="177.02034"
     inkscape:window-x="1912"
     inkscape:window-y="-8"
     inkscape:window-maximized="1"
     inkscape:current-layer="svg8" />
  <path
     sodipodi:type="star"
     style="fill:#0c3c2d;fill-opacity:1;stroke:none;stroke-width:1.40196037;stroke-linecap:round;stroke-linejoin:round;stroke-miterlimit:4;stroke-dasharray:none;stroke-opacity:1;paint-order:normal"
     id="path821"
     sodipodi:sides="24"
     sodipodi:cx="19.05"
     sodipodi:cy="19.05"
     sodipodi:r1="18.628742"
     sodipodi:r2="15.834429"
     sodipodi:arg1="-1.5707963"
     sodipodi:arg2="-1.4398966"
     inkscape:flatsided="false"
     inkscape:rounded="0.05"
     inkscape:randomized="0"
     d="m 19.05,0.42125702 c 0.179272,0 1.88907,2.90637958 2.066808,2.92977928 0.177738,0.0234 2.581503,-2.341419 2.754666,-2.2950202 0.173163,0.046399 1.072475,3.2962745 1.2381,3.3648787 0.165625,0.068604 3.099544,-1.593495 3.254798,-1.5038593 0.155253,0.089636 0.182792,3.4615335 0.325018,3.5706671 0.142226,0.1091335 3.406356,-0.736977 3.53312,-0.610213 0.126764,0.1267641 -0.719346,3.390895 -0.610213,3.5331206 0.109134,0.1422256 3.481032,0.1697647 3.570667,0.3250184 0.08964,0.1552536 -1.572463,3.0891724 -1.503859,3.2547974 0.0686,0.165625 3.318479,1.064938 3.364878,1.2381 0.0464,0.173163 -2.318419,2.576928 -2.29502,2.754666 0.0234,0.177738 2.929779,1.887536 2.929779,2.066808 0,0.179271 -2.906379,1.88907 -2.929779,2.066807 -0.0234,0.177738 2.341419,2.581503 2.29502,2.754666 -0.0464,0.173163 -3.296274,1.072475 -3.364879,1.2381 -0.0686,0.165625 1.593495,3.099544 1.50386,3.254798 -0.08964,0.155253 -3.461534,0.182793 -3.570667,0.325018 -0.109134,0.142226 0.736977,3.406356 0.610213,3.533121 -0.126764,0.126764 -3.390895,-0.719347 -3.533121,-0.610213 -0.142226,0.109133 -0.169765,3.481031 -0.325018,3.570666 -0.155254,0.08964 -3.089173,-1.572463 -3.254798,-1.503859 -0.165625,0.0686 -1.064937,3.31848 -1.2381,3.364879 -0.173163,0.0464 -2.576928,-2.31842 -2.754666,-2.295021 -0.177738,0.0234 -1.887536,2.929779 -2.066807,2.929779 -0.179272,0 -1.88907,-2.906379 -2.066808,-2.929779 -0.177738,-0.0234 -2.581503,2.341419 -2.754666,2.29502 -0.173163,-0.0464 -1.072475,-3.296274 -1.2381,-3.364878 -0.165625,-0.06861 -3.0995439,1.593495 -3.2547975,1.503859 C 9.5803748,35.093327 9.5528357,31.721429 9.4106101,31.612296 9.2683845,31.503162 6.0042537,32.349273 5.8774897,32.222509 5.7507256,32.095745 6.5968363,28.831614 6.4877027,28.689388 6.3785692,28.547163 3.0066715,28.519624 2.9170357,28.36437 2.8274,28.209116 4.4894993,25.275198 4.4208951,25.109572 4.3522909,24.943947 1.1024155,24.044635 1.0560167,23.871472 1.0096178,23.698309 3.3744365,21.294544 3.3510369,21.116806 3.3276373,20.939069 0.42125778,19.22927 0.42125778,19.049999 c 10e-9,-0.179272 2.90637962,-1.88907 2.92977922,-2.066808 0.0234,-0.177738 -2.341419,-2.581503 -2.2950201,-2.754666 0.046399,-0.173162 3.2962744,-1.072475 3.3648786,-1.2381 C 4.4894997,12.8248 2.8274005,9.8908813 2.9170362,9.7356277 3.006672,9.5803741 6.3785698,9.5528349 6.4877033,9.4106093 6.5968369,9.2683837 5.7507264,6.004253 5.8774904,5.8774889 6.0042545,5.7507249 9.2683853,6.5968355 9.4106109,6.487702 9.5528365,6.3785684 9.5803757,3.0066707 9.7356293,2.917035 9.890883,2.8273993 12.824802,4.4894986 12.990427,4.4208944 c 0.165625,-0.068604 1.064937,-3.3184797 1.2381,-3.3648785 0.173163,-0.046399 2.576928,2.3184198 2.754666,2.2950202 0.177738,-0.0234 1.887536,-2.92977909 2.066807,-2.92977908 z" />
  <path
     d="m 19.05,7.937499 c 0.122145,0 1.519925,1.7891649 1.640215,1.8103752 0.120289,0.02121 2.045705,-1.1819854 2.160483,-1.1402093 0.114779,0.041776 0.816333,2.2011101 0.922114,2.2621831 0.105781,0.06107 2.326596,-0.411031 2.420165,-0.332518 0.09357,0.07851 0.01428,2.34757 0.09279,2.441138 0.07851,0.09357 2.326866,0.409501 2.387939,0.515281 0.06107,0.105781 -0.789499,2.210877 -0.747723,2.325656 0.04178,0.114779 2.046481,1.18064 2.067692,1.300929 0.02121,0.12029 -1.498051,1.80752 -1.498051,1.929665 0,0.122145 1.519261,1.809377 1.498051,1.929666 -0.02121,0.120289 -2.025916,1.18615 -2.067692,1.300928 -0.04178,0.114779 0.808795,2.219876 0.747723,2.325657 -0.06107,0.10578 -2.309426,0.421712 -2.387939,0.51528 -0.07851,0.09357 7.77e-4,2.362625 -0.09279,2.441138 -0.09357,0.07851 -2.314383,-0.39359 -2.420164,-0.332517 -0.105781,0.06107 -0.807335,2.220407 -0.922114,2.262183 -0.114779,0.04178 -2.040194,-1.16142 -2.160483,-1.14021 -0.12029,0.02121 -1.518071,1.810375 -1.640216,1.810375 -0.122145,0 -1.519926,-1.789164 -1.640215,-1.810375 -0.12029,-0.02121 -2.045705,1.181986 -2.160484,1.14021 -0.114779,-0.04178 -0.816333,-2.201111 -0.922113,-2.262183 -0.105781,-0.06107 -2.326597,0.41103 -2.420165,0.332517 -0.09357,-0.07851 -0.01428,-2.347569 -0.09279,-2.441138 -0.07851,-0.09357 -2.3268658,-0.4095 -2.3879384,-0.515281 -0.061073,-0.105781 0.7894994,-2.210877 0.7477234,-2.325656 -0.04178,-0.114778 -2.0464819,-1.180639 -2.0676922,-1.300929 -0.02121,-0.120289 1.4980511,-1.80752 1.4980511,-1.929665 0,-0.122145 -1.5192612,-1.809376 -1.498051,-1.929665 0.02121,-0.12029 2.0259161,-1.18615 2.0676921,-1.300929 0.04178,-0.114779 -0.8087956,-2.219875 -0.7477231,-2.325656 0.061072,-0.105781 2.3094251,-0.421712 2.3879381,-0.515281 0.07851,-0.09357 -7.77e-4,-2.362625 0.09279,-2.441138 0.09357,-0.07851 2.314384,0.39359 2.420165,0.332518 0.10578,-0.06107 0.807335,-2.2204072 0.922114,-2.2621833 0.114778,-0.041776 2.040193,1.1614198 2.160483,1.1402095 C 17.530073,9.7266639 18.927854,7.937499 19.05,7.937499 Z"
     inkscape:randomized="0"
     inkscape:rounded="0.05"
     inkscape:flatsided="false"
     sodipodi:arg2="-1.3962634"
     sodipodi:arg1="-1.5707963"
     sodipodi:r2="9.4456253"
     sodipodi:r1="11.1125"
     sodipodi:cy="19.049999"
     sodipodi:cx="19.049999"
     sodipodi:sides="18"
     id="path823"
     style="fill:#1f5b49;fill-opacity:1;stroke:none;stroke-width:0.83630359;stroke-linecap:round;stroke-linejoin:round;stroke-miterlimit:4;stroke-dasharray:none;stroke-opacity:1;paint-order:normal"
     sodipodi:type="star" />
  <path
     sodipodi:type="star"
     style="fill:#60a490;fill-opacity:1;stroke:none;stroke-width:0.57896316;stroke-linecap:round;stroke-linejoin:round;stroke-miterlimit:4;stroke-dasharray:none;stroke-opacity:1;paint-order:normal"
     id="path825"
     sodipodi:sides="12"
     sodipodi:cx="19.049999"
     sodipodi:cy="19.049999"
     sodipodi:r1="7.6930537"
     sodipodi:r2="6.5390954"
     sodipodi:arg1="-1.5707963"
     sodipodi:arg2="-1.3089969"
     inkscape:flatsided="false"
     inkscape:rounded="0.05"
     inkscape:randomized="0"
     d="m 19.049999,11.356946 c 0.109086,0 1.587074,1.348539 1.692443,1.376772 0.105368,0.02823 2.059613,-0.400641 2.154084,-0.346099 0.09447,0.05454 0.700177,1.961407 0.777312,2.038542 0.07713,0.07714 1.983999,0.682841 2.038541,0.777312 0.05454,0.09447 -0.374332,2.048715 -0.346099,2.154084 0.02823,0.105369 1.376773,1.583357 1.376773,1.692442 0,0.109086 -1.348539,1.587074 -1.376773,1.692443 -0.02823,0.105368 0.400642,2.059613 0.346099,2.154084 -0.05454,0.09447 -1.961406,0.700177 -2.038541,0.777312 -0.07713,0.07713 -0.682841,1.983999 -0.777312,2.038541 -0.09447,0.05454 -2.048716,-0.374332 -2.154085,-0.346099 -0.105368,0.02823 -1.583356,1.376773 -1.692442,1.376773 -0.109086,0 -1.587074,-1.348539 -1.692442,-1.376773 -0.105369,-0.02823 -2.059614,0.400642 -2.154085,0.346099 -0.09447,-0.05454 -0.700177,-1.961406 -0.777312,-2.038541 -0.07714,-0.07713 -1.983998,-0.682841 -2.038541,-0.777312 -0.05454,-0.09447 0.374332,-2.048716 0.346099,-2.154085 -0.02823,-0.105368 -1.376772,-1.583356 -1.376772,-1.692442 0,-0.109086 1.348539,-1.587074 1.376772,-1.692442 0.02823,-0.105369 -0.400641,-2.059614 -0.346099,-2.154085 0.05454,-0.09447 1.961407,-0.700177 2.038542,-0.777312 0.07714,-0.07714 0.682841,-1.983998 0.777312,-2.038541 0.09447,-0.05454 2.048715,0.374332 2.154084,0.346099 0.105369,-0.02823 1.583357,-1.376772 1.692442,-1.376772 z"
     transform="matrix(0.73336277,0,0,0.72224245,5.0794398,5.2912819)" />
</svg>
