<svg xmlns="http://www.w3.org/2000/svg" width="180" height="536" viewBox="0 0 47.625 141.817"><defs><clipPath id="a"><path d="M49.044 156.175H12.003v97.897h7.937v-89.959h29.104v89.958h7.938v-97.896z" fill="#fff" stroke="#191919" stroke-width="2.508"/></clipPath><clipPath id="b"><path d="M49.044 156.175H12.003v97.897h7.937v-89.959h29.104v89.958h7.938v-97.896z" clip-path="url(#a)" fill="#686868" stroke-width="3.836"/></clipPath></defs><path fill="#cbcbcb" d="M0 0h47.625v100.542H0z"/><path fill="#6d6d6d" stroke="#191919" stroke-width="2" paint-order="stroke fill markers" d="M22.49 139.035L2.845 119.39l9.355-9.355 19.644 19.644z"/><path fill="#d3d3d3" fill-opacity=".783" d="M24.36 137.164L4.717 117.52l.936-.936 19.644 19.644z"/><path fill="#6d6d6d" stroke="#191919" stroke-width="2" paint-order="stroke fill markers" d="M45.477 119.192l-26.834 7.19-3.424-12.778 26.834-7.19z"/><path fill="#d3d3d3" fill-opacity=".783" d="M44.792 116.636l-26.834 7.19-.343-1.278 26.835-7.19z"/><path transform="matrix(1.05882 0 0 1.02754 -12.709 -160.477)" clip-path="url(#b)" d="M49.044 156.175H12.003v97.897h7.937v-89.959h29.104v89.958h7.938v-97.896z" fill="#686868" stroke="#050505" stroke-width="3.836"/></svg>