<?xml version="1.0" encoding="UTF-8" standalone="no"?>
<svg
   xmlns:dc="http://purl.org/dc/elements/1.1/"
   xmlns:cc="http://creativecommons.org/ns#"
   xmlns:rdf="http://www.w3.org/1999/02/22-rdf-syntax-ns#"
   xmlns:svg="http://www.w3.org/2000/svg"
   xmlns="http://www.w3.org/2000/svg"
   xmlns:sodipodi="http://sodipodi.sourceforge.net/DTD/sodipodi-0.dtd"
   xmlns:inkscape="http://www.inkscape.org/namespaces/inkscape"
   width="96"
   height="50"
   viewBox="0 0 25.4 13.229"
   version="1.1"
   id="svg17"
   sodipodi:docname="map-locker-03.svg"
   inkscape:version="0.92.2 (5c3e80d, 2017-08-06)">
  <metadata
     id="metadata21">
    <rdf:RDF>
      <cc:Work
         rdf:about="">
        <dc:format>image/svg+xml</dc:format>
        <dc:type
           rdf:resource="http://purl.org/dc/dcmitype/StillImage" />
      </cc:Work>
    </rdf:RDF>
  </metadata>
  <sodipodi:namedview
     pagecolor="#ffffff"
     bordercolor="#666666"
     borderopacity="1"
     objecttolerance="10"
     gridtolerance="10"
     guidetolerance="10"
     inkscape:pageopacity="0"
     inkscape:pageshadow="2"
     inkscape:window-width="1920"
     inkscape:window-height="1017"
     id="namedview19"
     showgrid="false"
     inkscape:zoom="5.9166667"
     inkscape:cx="30.40713"
     inkscape:cy="35.364336"
     inkscape:window-x="1912"
     inkscape:window-y="-8"
     inkscape:window-maximized="1"
     inkscape:current-layer="svg17" />
  <defs
     id="defs5">
    <clipPath
       id="a">
      <rect
         ry="2.117"
         rx="2.117"
         y="264.984"
         x="6.35"
         height="10.583"
         width="25.4"
         fill="#6f6655"
         stroke-width="1.728"
         id="rect2" />
    </clipPath>
  </defs>
  <rect
     style="fill:#6f6655;stroke:#191919;stroke-width:2.1170001"
     id="rect7"
     transform="translate(-6.35,-264.982)"
     clip-path="url(#a)"
     ry="2.1170001"
     rx="2.1170001"
     y="264.98401"
     x="6.3499999"
     height="10.583"
     width="25.4" />
  <rect
     style="fill:none;stroke:#191919;stroke-width:1.26400006"
     id="rect9"
     ry="1.058"
     rx="1.058"
     y="6.6150007"
     x="3.855"
     height="4.5450001"
     width="3.553" />
  <circle
     style="fill:#bf6421;stroke:#191919;stroke-width:1.05799997;stroke-miterlimit:10;fill-opacity:1"
     r="1.852"
     id="ellipse11"
     stroke-miterlimit="10"
     cy="10.583995"
     cx="5.6150002" />
  <path
     inkscape:connector-curvature="0"
     style="fill:#171717;fill-opacity:1;stroke-width:0.72224712"
     d="m 17.122138,1.6154789 a 3.7000722,3.7000722 0 0 0 -3.700072,3.700072 3.7000722,3.7000722 0 0 0 3.700072,3.7000719 3.7000722,3.7000722 0 0 0 3.700072,-3.7000719 3.7000722,3.7000722 0 0 0 -3.700072,-3.700072 z m 1.622889,0.9143649 a 3.2132775,3.2132775 0 0 1 1.586777,2.8564873 H 17.931777 A 0.88186376,0.88186376 0 0 0 17.509263,4.6785289 Z m -3.317281,0.039724 1.206153,2.0880164 A 0.87391904,0.87391904 0 0 0 16.290832,4.991262 0.87391904,0.87391904 0 0 0 16.17455,5.3863311 H 13.912472 A 3.1952213,3.1952213 0 0 1 14.33282,3.6962728 3.2024437,3.2024437 0 0 1 15.428469,2.5695674 Z m 1.627223,2.2823009 a 0.57779772,0.57779772 0 0 1 0.287454,0.079447 0.57707548,0.57707548 0 0 1 0.212341,0.7901384 0.57635322,0.57635322 0 0 1 -0.79086,0.2116184 0.57707548,0.57707548 0 0 1 -0.212341,-0.7908606 0.57635322,0.57635322 0 0 1 0.503406,-0.2896211 z m 0.455738,1.3325459 1.123094,1.9471783 A 3.2335004,3.2335004 0 0 1 17.030413,8.5208838 3.1778873,3.1778873 0 0 1 15.531028,8.0998136 L 16.63101,6.2046372 c 0.283843,0.1552831 0.618966,0.1372269 0.879697,-0.020223 z"
     id="path23" />
  <path
     d="m 11.685487,0.531 h 1.058 v 9.525 h -1.058 z"
     id="path841"
     inkscape:connector-curvature="0"
     style="fill:#191919"
     sodipodi:nodetypes="ccccc" />
  <path
     sodipodi:nodetypes="ccccc"
     style="fill:#191919"
     inkscape:connector-curvature="0"
     id="path843"
     d="m 21.497606,0.531 h 1.058 v 9.525 h -1.058 z" />
</svg>
