<?xml version="1.0" encoding="UTF-8" standalone="no"?>
<svg
   xmlns:dc="http://purl.org/dc/elements/1.1/"
   xmlns:cc="http://creativecommons.org/ns#"
   xmlns:rdf="http://www.w3.org/1999/02/22-rdf-syntax-ns#"
   xmlns:svg="http://www.w3.org/2000/svg"
   xmlns="http://www.w3.org/2000/svg"
   xmlns:sodipodi="http://sodipodi.sourceforge.net/DTD/sodipodi-0.dtd"
   xmlns:inkscape="http://www.inkscape.org/namespaces/inkscape"
   width="256"
   height="256"
   viewBox="0 0 67.733 67.733"
   version="1.1"
   id="svg6"
   sodipodi:docname="map-tree-03sv.svg"
   inkscape:version="0.92.2 (5c3e80d, 2017-08-06)">
  <metadata
     id="metadata12">
    <rdf:RDF>
      <cc:Work
         rdf:about="">
        <dc:format>image/svg+xml</dc:format>
        <dc:type
           rdf:resource="http://purl.org/dc/dcmitype/StillImage" />
        <dc:title />
      </cc:Work>
    </rdf:RDF>
  </metadata>
  <defs
     id="defs10" />
  <sodipodi:namedview
     pagecolor="#ffffff"
     bordercolor="#666666"
     borderopacity="1"
     objecttolerance="10"
     gridtolerance="10"
     guidetolerance="10"
     inkscape:pageopacity="0"
     inkscape:pageshadow="2"
     inkscape:window-width="1920"
     inkscape:window-height="1017"
     id="namedview8"
     showgrid="false"
     inkscape:zoom="1.3037281"
     inkscape:cx="8.2530215"
     inkscape:cy="173.01268"
     inkscape:window-x="1912"
     inkscape:window-y="-8"
     inkscape:window-maximized="1"
     inkscape:current-layer="svg6" />
  <path
     inkscape:connector-curvature="0"
     d="m 63.091997,50.580467 c -1.783999,2.999003 -5.669998,1.803 -8.167999,4.253 -2.498001,2.450004 -1.179001,6.544 -4.215001,8.270001 -3.036999,1.728001 -5.959998,-1.509998 -9.347,-0.647001 -3.386999,0.864004 -4.067999,5.103999 -7.572999,5.084002 -3.505,-0.02 -4.509999,-4.221999 -7.873,-5.158003 -3.362,-0.935996 -6.036,2.022002 -9.068,0.290004 -3.033,-1.734 -1.58,-5.504003 -4.062,-7.966999 -2.483,-2.463 -6.3529995,-1.082001 -8.0949995,-4.110002 -1.741,-3.029998 1.302,-5.885003 0.388,-9.256003 -0.914,-3.372 -5.04200002,-4.315997 -5.03900002,-7.792999 0.004,-3.475999 4.37900002,-4.333999 5.28400002,-7.691999 0.906,-3.357 -2.293,-6.074 -0.502,-9.076 1.79,-3.002 5.5739995,-1.685 8.0499995,-4.155 2.476,-2.470001 1.315,-6.1880009 4.35,-7.9080009 3.034,-1.72 5.825,1.483 9.212,0.584 3.387,-0.9 4.096,-5.10200003 7.597,-5.10700003 3.503,-0.006 4.147,3.99600003 7.510999,4.91900003 3.365002,0.923 6.373001,-2.272 9.388001,-0.518999 3.015999,1.752999 1.653,5.7899999 4.099,8.2769999 2.446,2.487 6.424001,1.118 8.175,4.142 1.751001,3.025 -1.571999,5.763 -0.702,9.137 0.870001,3.374 5.194999,4.190998 5.191002,7.674998 -0.003,3.483 -4.169001,4.453 -5.099001,7.810001 -0.930001,3.356001 2.280998,5.949 0.497998,8.947 z"
     id="path2"
     style="fill:#435119;fill-opacity:0.94117647;stroke-width:1" />
  <path
     inkscape:connector-curvature="0"
     d="m 41.617797,40.897593 c -0.479761,0.548508 -2.470889,0.720714 -3.091741,1.090639 -0.620858,0.366738 -1.749689,2.047344 -2.45207,2.200415 -0.705518,0.159453 -2.414448,-0.892922 -3.132508,-0.966269 -0.714922,-0.07335 -2.596312,0.609102 -3.25479,0.315712 -0.658492,-0.293387 -1.43613,-2.168525 -1.97546,-2.653255 -0.536191,-0.487921 -2.455201,-1.058751 -2.815801,-1.690176 -0.36373,-0.634611 0.0909,-2.614989 -0.0627,-3.329326 -0.15678,-0.71434 -1.37341,-2.32479 -1.30129,-3.051882 0.069,-0.730284 1.58036,-2.060102 1.87198,-2.729791 0.28847,-0.669694 0.23203,-2.701094 0.70865,-3.249604 0.479749,-0.54213 2.47088,-0.717526 3.09174,-1.084262 0.62399,-0.373114 1.749689,-2.050533 2.45521,-2.206795 0.702381,-0.153072 2.414441,0.892923 3.12937,0.969459 0.71492,0.07335 2.59944,-0.612289 3.257931,-0.318901 0.658479,0.296578 1.43612,2.168527 1.975449,2.656445 0.533059,0.487918 2.45207,1.058754 2.815801,1.690174 0.360599,0.634613 -0.0941,2.614991 0.0627,3.329328 0.15051,0.714337 1.373411,2.324787 1.301302,3.051885 -0.0721,0.72709 -1.5835,2.060099 -1.871981,2.729788 -0.29162,0.669694 -0.232039,2.701094 -0.71179,3.246416 z"
     id="path4"
     style="fill:#714a00;fill-opacity:1;stroke:#1b1917;stroke-width:2.03646469" />
</svg>
