<svg xmlns="http://www.w3.org/2000/svg" xmlns:xlink="http://www.w3.org/1999/xlink" width="1704" height="1448" viewBox="0 0 450.851 383.116"><defs><pattern xlink:href="#a" id="f" patternTransform="matrix(.06615 0 0 .06615 -58.208 -24.342)"/><pattern xlink:href="#b" id="e" patternTransform="matrix(.06615 0 0 .06615 -49.742 -37.043)"/><pattern patternUnits="userSpaceOnUse" width="128" height="128" patternTransform="matrix(.26458 0 0 .26458 0 -38.1)" id="b"><path fill="none" stroke-width="3.78" d="M0 0h128v128H0z"/><path fill="none" stroke-width="3.78" d="M0 0h128v128H0z"/><path d="M0 0h128v128H0z" fill="#2e2d2a" stroke-width="15.118" stroke-miterlimit="10"/><path d="M60 128V68H0v-8h60V0h8v60h60v8H68v60z" fill="#6f6f6f" fill-opacity=".303" stroke-width="1.414"/></pattern><clipPath id="g"><path d="M-8.467 12.7h40.504c9.254 8.466 9.254 21.166 9.254 21.166s0 12.7-9.254 21.167H-8.467z" fill="#051021" stroke-width="2.452"/></clipPath><clipPath id="h"><path d="M95.25 364.067v10.63c-.8-.485-2.117-1.059-2.117-1.059v-9.571z" fill="#640000" stroke-width="3.074" stroke-opacity=".706"/></clipPath><clipPath id="i"><path d="M98.425 364.067v13.044s-1.211-1.11-2.117-1.786v-11.258z" fill="#00640c" stroke-width="4.127" stroke-opacity=".706"/></clipPath><clipPath id="j"><path d="M80.994 374.65s-3.35 1.08-4.42 2.117l-6.724.022v3.175H63.5v-2.117h4.233v-3.197z" fill="#0097f0" fill-opacity=".584" stroke-width="1.058" stroke-opacity=".197"/></clipPath><clipPath id="c"><path d="M63.5 396.897v2.117h8.487s-.78-1.059-1.145-2.117z" fill="#0097f0" fill-opacity=".584" stroke-width="1.058" stroke-opacity=".197"/></clipPath><clipPath id="k"><path clip-path="url(#c)" d="M63.5 396.897v2.117h8.487s-.78-1.059-1.145-2.117z" fill="#0097f0" fill-opacity=".584" stroke-width="1.058" stroke-opacity=".197"/></clipPath><pattern patternUnits="userSpaceOnUse" width="128" height="128" patternTransform="matrix(.26458 0 0 .26458 -67.733 -33.867)" id="a"><path fill="none" stroke-width="3.78" d="M0 0h128v128H0z"/><path d="M0 0h128v128H0z" fill="#e0e0e0" stroke-width="15.118" stroke-miterlimit="10"/><path d="M60 128V68H0v-8h60V0h8v60h60v8H68v60z" fill-opacity=".076" stroke-width="1.414"/></pattern><clipPath id="l"><path d="M42.333 50.8v42.333h93.134v33.866h8.467V50.8z" fill="#1b1e25" stroke-width="3.175"/></clipPath><clipPath id="m"><path d="M42.333 287.866v76.2h25.4v8.468H76.2v-8.467h25.4V330.2h67.866l-.132 8.467h8.466V304.8h-76.2v-16.934z" fill="#1b1e25" stroke-width="1.922" stroke-opacity=".706"/></clipPath><clipPath id="n"><path d="M287.867 287.866V304.8h-76.2v33.867h8.467V330.2h203.2v8.467h8.467v-50.8z" fill="#1b1e25" stroke-width="1.922" stroke-opacity=".706"/></clipPath><filter id="d" x="-.005" width="1.01" y="-.007" height="1.014" color-interpolation-filters="sRGB"><feGaussianBlur stdDeviation=".415"/></filter><clipPath id="o"><path d="M9.525 382.059V11.64h110.066V0h50.801v20.11h-152.4v361.95z" fill="#1a1c21" stroke-width="2.226"/></clipPath><clipPath id="p"><path d="M441.326 263.525v-16.933h-8.467v8.466h-33.867V11.64H288.926V0h-50.8v20.11h152.4v243.416z" fill="#1a1c21" stroke-width="2.226"/></clipPath></defs><path d="M9.525 382.059V11.64h110.066V0h50.801v20.11h-152.4v361.95z" fill="#1a1c21"/><path transform="matrix(0 2.25 -2.78947 0 1007.85 224.328)" d="M-96.659 216.373H11.306v-12.9H6.132v-3.398H57.402v3.398h-3.763V319.57h15.052v33.784h3.763v6.07H-96.66v-44.01h4.954V260.78h-4.954z" fill="#130902" fill-opacity=".944" filter="url(#d)"/><path d="M9.525 11.641v124.883h389.467V11.641z" fill="url(#e)"/><path d="M9.525 81.491v292.1h76.2v-33.866h355.6v-76.2h-42.333V81.49H255.06v55.034h-101.6V81.49z" fill="url(#f)"/><g transform="scale(.50303) rotate(21.801 -422.773 1088.57)" fill="#ac7777"><ellipse cx="19.611" cy="276.85" rx="11.982" ry="11.713"/><circle cx="27.195" cy="269.356" r="2.693"/><circle cx="21.496" cy="271.824" r="4.892"/><circle cx="9.289" cy="274.652" r="2.827"/><circle cx="28.272" cy="281.114" r="2.962"/><circle cx="21.361" cy="265.317" r="2.019"/><circle cx="30.875" cy="272.677" r=".763"/><circle cx="26.253" cy="285.646" r="1.84"/><circle cx="29.933" cy="276.671" r="2.199"/><circle cx="5.071" cy="284.21" r=".853"/><circle cx="11.937" cy="283.537" r="3.231"/><circle cx="8.167" cy="278.96" r="1.436"/><circle cx="12.117" cy="267.83" r="1.705"/><circle cx="18.175" cy="286.275" r="3.186"/><circle cx="14.316" cy="268.952" r=".853"/><circle cx="28.855" cy="275.594" r=".763"/><circle cx="12.161" cy="288.967" r=".673"/><circle cx="9.963" cy="270.433" r=".898"/><circle cx="6.642" cy="268.728" r="1.616"/><circle cx="15.258" cy="262.894" r="1.705"/><circle cx="27.375" cy="263.163" r="2.513"/><circle cx="34.196" cy="280.126" r="1.705"/><circle cx="24.009" cy="290.672" r="1.571"/><circle cx="31.638" cy="285.826" r="1.032"/><circle cx="4.936" cy="276.895" r="1.346"/></g><g transform="matrix(.35245 -.08825 .08825 .35245 216.2 121.695)" fill="#ac7777"><circle r="11.264" cy="278.017" cx="19.162"/><circle r="3.725" cy="270.029" cx="10.187"/><circle r="2.693" cy="265.856" cx="28.093"/><circle r="4.892" cy="276.402" cx="27.868"/><circle r="2.827" cy="285.826" cx="5.43"/><circle r="2.962" cy="287.666" cx="23.605"/><circle r="2.019" cy="263.388" cx="16.829"/><circle r=".763" cy="270.299" cx="32.446"/><circle r="1.84" cy="284.928" cx="33.702"/><circle r="2.199" cy="291.66" cx="29.573"/><circle r=".853" cy="277.21" cx="3.276"/><circle r="3.231" cy="289.192" cx="14.63"/><circle r="1.436" cy="278.96" cx="8.167"/></g><path d="M112.184 183.091v-13.758h6.35V151.34h-2.117v15.875h-6.35v13.758h-5.292v11.642h2.117v-9.525zM42.333 202.141H31.75v-7.408H17.992v2.117h11.641v7.408h10.584v5.292h8.466v-2.117h-6.35zM46.567 227.541H28.575v7.409H17.992v-2.117h8.466v-7.408H44.45v-7.409h5.292v2.117h-3.175zM132.292 162.983v17.991h5.292v11.642h-2.117v-9.525h-5.292V165.1h-6.35v-11.641h2.117v9.525zM163.513 307.975h8.466v6.35h2.117v-8.467h-8.467v-8.467h-11.641v2.117h9.525zM248.18 304.8v-8.467h6.35v-2.117h-8.467v8.467h-8.467v11.642h2.117V304.8zM135.467 309.033v5.292h-2.117v-5.292zM275.167 309.033v5.292h-2.116v-5.292zM297.392 183.091v-13.758h-6.35V151.34h2.117v15.875h6.35v13.758h5.292v11.642h-2.117v-9.525zM367.242 202.141h10.584v-7.408h13.758v2.117h-11.642v7.408H369.36v5.292h-8.467v-2.117h6.35zM363.009 227.541h17.992v7.409h10.583v-2.117h-8.467v-7.408h-17.991v-7.409h-5.292v2.117h3.175zM277.284 162.983v17.991h-5.292v11.642h2.117v-9.525h5.291V165.1h6.35v-11.641h-2.116v9.525zM313.267 211.666h-6.35v-2.116h6.35zM313.267 215.9h-6.35v-2.117h6.35zM216.959 160.866v-15.875h21.166v-42.333h-2.116v40.217h-21.167v15.874h-5.292v11.642h2.117v-9.525zM189.442 164.041V146.05h-14.817v-43.391h2.117v41.275h14.817v17.991h7.408v8.467h-2.117v-6.35z" fill-opacity=".584"/><path d="M231.775 167.216h5.292v-19.05h13.758v-45.508h2.117v47.625h-13.758v19.05h-5.292v8.466h-12.7v-2.116h10.583zM175.684 162.223h-7.409v-21.465h-9.525v-38.1h-2.116v40.216h9.525v21.466h7.408v13.758h13.758v-2.116h-11.641zM101.6 211.666h-6.35v-2.116h6.35zM101.6 215.9h-6.35v-2.117h6.35z" fill-opacity=".584"/><path transform="rotate(180 43.92 123.296)" clip-path="url(#g)" d="M-8.467 12.7h40.504c9.254 8.466 9.254 21.166 9.254 21.166s0 12.7-9.254 21.167H-8.467z" fill="#595959" stroke="#b6b6b6" stroke-width="3.175" stroke-opacity=".197"/><path d="M95.25 364.067v10.63c-.8-.485-2.117-1.059-2.117-1.059v-9.571z" clip-path="url(#h)" transform="rotate(90 167.217 293.158)" fill="#640000" stroke="#252525" stroke-width="1.058"/><path d="M98.425 364.067v13.044s-1.211-1.11-2.117-1.786v-11.258z" clip-path="url(#i)" transform="rotate(90 167.217 293.158)" fill="#00640c" stroke="#252525" stroke-width="1.058"/><path d="M80.994 374.65s-3.35 1.08-4.42 2.117l-6.724.022v3.175H63.5v-2.117h4.233v-3.197z" clip-path="url(#j)" transform="rotate(90 167.217 295.275)" fill="#0097f0" fill-opacity=".584" stroke="#252525" stroke-width="1.058"/><path d="M63.5 396.897v2.117h8.487s-.78-1.059-1.145-2.117z" clip-path="url(#k)" transform="rotate(90 167.217 295.275)" fill="#0097f0" fill-opacity=".584" stroke="#252525" stroke-width="1.058"/><path d="M-8.467 12.7h40.504c9.254 8.466 9.254 21.166 9.254 21.166s0 12.7-9.254 21.167H-8.467z" clip-path="url(#g)" transform="translate(109.009 178.858)" fill="#595959" stroke="#b6b6b6" stroke-width="3.175" stroke-opacity=".197"/><path transform="rotate(-90 17.991 281.517)" clip-path="url(#h)" d="M95.25 364.067v10.63c-.8-.485-2.117-1.059-2.117-1.059v-9.571z" fill="#640000" stroke="#252525" stroke-width="1.058"/><path transform="rotate(-90 17.991 281.517)" clip-path="url(#i)" d="M98.425 364.067v13.044s-1.211-1.11-2.117-1.786v-11.258z" fill="#00640c" stroke="#252525" stroke-width="1.058"/><path transform="rotate(-90 15.875 281.517)" clip-path="url(#j)" d="M80.994 374.65s-3.35 1.08-4.42 2.117l-6.724.022v3.175H63.5v-2.117h4.233v-3.197z" fill="#0097f0" fill-opacity=".584" stroke="#252525" stroke-width="1.058"/><path transform="rotate(-90 15.875 281.517)" clip-path="url(#k)" d="M63.5 396.897v2.117h8.487s-.78-1.059-1.145-2.117z" fill="#0097f0" fill-opacity=".584" stroke="#252525" stroke-width="1.058"/><path transform="rotate(90 21.167 134.408)" clip-path="url(#g)" d="M-8.467 12.7h40.504c9.254 8.466 9.254 21.166 9.254 21.166s0 12.7-9.254 21.167H-8.467z" fill="#595959" stroke="#b6b6b6" stroke-width="3.175" stroke-opacity=".197"/><path d="M95.25 364.067v10.63c-.8-.485-2.117-1.059-2.117-1.059v-9.571z" clip-path="url(#h)" transform="translate(34.925 -259.293)" fill="#640000" stroke="#252525" stroke-width="1.058"/><path d="M98.425 364.067v13.044s-1.211-1.11-2.117-1.786v-11.258z" clip-path="url(#i)" transform="translate(34.925 -259.293)" fill="#00640c" stroke="#252525" stroke-width="1.058"/><path d="M80.994 374.65s-3.35 1.08-4.42 2.117l-6.724.022v3.175H63.5v-2.117h4.233v-3.197z" clip-path="url(#j)" transform="translate(37.042 -261.41)" fill="#0097f0" fill-opacity=".584" stroke="#252525" stroke-width="1.058"/><path d="M63.5 396.897v2.117h8.487s-.78-1.059-1.145-2.117z" clip-path="url(#k)" transform="translate(37.042 -261.41)" fill="#0097f0" fill-opacity=".584" stroke="#252525" stroke-width="1.058"/><path d="M-8.467 12.7h40.504c9.254 8.466 9.254 21.166 9.254 21.166s0 12.7-9.254 21.167H-8.467z" clip-path="url(#g)" transform="matrix(1 0 0 -1 320.676 246.591)" fill="#595959" stroke="#b6b6b6" stroke-width="3.175" stroke-opacity=".197"/><path transform="matrix(0 1 1 0 -51.858 125.941)" clip-path="url(#h)" d="M95.25 364.067v10.63c-.8-.485-2.117-1.059-2.117-1.059v-9.571z" fill="#640000" stroke="#252525" stroke-width="1.058"/><path transform="matrix(0 1 1 0 -51.858 125.941)" clip-path="url(#i)" d="M98.425 364.067v13.044s-1.211-1.11-2.117-1.786v-11.258z" fill="#00640c" stroke="#252525" stroke-width="1.058"/><path transform="matrix(0 1 1 0 -53.975 128.058)" clip-path="url(#j)" d="M80.994 374.65s-3.35 1.08-4.42 2.117l-6.724.022v3.175H63.5v-2.117h4.233v-3.197z" fill="#0097f0" fill-opacity=".584" stroke="#252525" stroke-width="1.058"/><path transform="matrix(0 1 1 0 -53.975 128.058)" clip-path="url(#k)" d="M63.5 396.897v2.117h8.487s-.78-1.059-1.145-2.117z" fill="#0097f0" fill-opacity=".584" stroke="#252525" stroke-width="1.058"/><path transform="matrix(-1 0 0 1 299.509 178.858)" clip-path="url(#g)" d="M-8.467 12.7h40.504c9.254 8.466 9.254 21.166 9.254 21.166s0 12.7-9.254 21.167H-8.467z" fill="#595959" stroke="#b6b6b6" stroke-width="3.175" stroke-opacity=".197"/><path d="M95.25 364.067v10.63c-.8-.485-2.117-1.059-2.117-1.059v-9.571z" clip-path="url(#h)" transform="matrix(0 -1 -1 0 672.042 299.508)" fill="#640000" stroke="#252525" stroke-width="1.058"/><path d="M98.425 364.067v13.044s-1.211-1.11-2.117-1.786v-11.258z" clip-path="url(#i)" transform="matrix(0 -1 -1 0 672.042 299.508)" fill="#00640c" stroke="#252525" stroke-width="1.058"/><path d="M80.994 374.65s-3.35 1.08-4.42 2.117l-6.724.022v3.175H63.5v-2.117h4.233v-3.197z" clip-path="url(#j)" transform="matrix(0 -1 -1 0 674.16 297.391)" fill="#0097f0" fill-opacity=".584" stroke="#252525" stroke-width="1.058"/><path d="M63.5 396.897v2.117h8.487s-.78-1.059-1.145-2.117z" clip-path="url(#k)" transform="matrix(0 -1 -1 0 674.16 297.391)" fill="#0097f0" fill-opacity=".584" stroke="#252525" stroke-width="1.058"/><path d="M-8.467 12.7h40.504c9.254 8.466 9.254 21.166 9.254 21.166s0 12.7-9.254 21.167H-8.467z" clip-path="url(#g)" transform="matrix(0 1 1 0 252.942 113.241)" fill="#595959" stroke="#b6b6b6" stroke-width="3.175" stroke-opacity=".197"/><path transform="matrix(-1 0 0 1 373.592 -259.293)" clip-path="url(#h)" d="M95.25 364.067v10.63c-.8-.485-2.117-1.059-2.117-1.059v-9.571z" fill="#640000" stroke="#252525" stroke-width="1.058"/><path transform="matrix(-1 0 0 1 373.592 -259.293)" clip-path="url(#i)" d="M98.425 364.067v13.044s-1.211-1.11-2.117-1.786v-11.258z" fill="#00640c" stroke="#252525" stroke-width="1.058"/><path transform="matrix(-1 0 0 1 371.476 -261.41)" clip-path="url(#j)" d="M80.994 374.65s-3.35 1.08-4.42 2.117l-6.724.022v3.175H63.5v-2.117h4.233v-3.197z" fill="#0097f0" fill-opacity=".584" stroke="#252525" stroke-width="1.058"/><path transform="matrix(-1 0 0 1 371.476 -261.41)" clip-path="url(#k)" d="M63.5 396.897v2.117h8.487s-.78-1.059-1.145-2.117z" fill="#0097f0" fill-opacity=".584" stroke="#252525" stroke-width="1.058"/><path d="M-8.467 12.7h40.504c9.254 8.466 9.254 21.166 9.254 21.166s0 12.7-9.254 21.167H-8.467z" clip-path="url(#g)" transform="rotate(-90 271.992 31.75)" fill="#595959" stroke="#b6b6b6" stroke-width="3.175" stroke-opacity=".197"/><path transform="rotate(-180 180.446 338.137)" clip-path="url(#h)" d="M95.25 364.067v10.63c-.8-.485-2.117-1.059-2.117-1.059v-9.571z" fill="#640000" stroke="#252525" stroke-width="1.058"/><path transform="rotate(-180 180.446 338.137)" clip-path="url(#i)" d="M98.425 364.067v13.044s-1.211-1.11-2.117-1.786v-11.258z" fill="#00640c" stroke="#252525" stroke-width="1.058"/><path transform="rotate(-180 179.388 339.196)" clip-path="url(#j)" d="M80.994 374.65s-3.35 1.08-4.42 2.117l-6.724.022v3.175H63.5v-2.117h4.233v-3.197z" fill="#0097f0" fill-opacity=".584" stroke="#252525" stroke-width="1.058"/><path transform="rotate(-180 179.388 339.196)" clip-path="url(#k)" d="M63.5 396.897v2.117h8.487s-.78-1.059-1.145-2.117z" fill="#0097f0" fill-opacity=".584" stroke="#252525" stroke-width="1.058"/><path transform="matrix(0 -1 -1 0 168.275 303.741)" clip-path="url(#g)" d="M-8.467 12.7h40.504c9.254 8.466 9.254 21.166 9.254 21.166s0 12.7-9.254 21.167H-8.467z" fill="#595959" stroke="#b6b6b6" stroke-width="3.175" stroke-opacity=".197"/><path d="M95.25 364.067v10.63c-.8-.485-2.117-1.059-2.117-1.059v-9.571z" clip-path="url(#h)" transform="matrix(1 0 0 -1 47.625 676.275)" fill="#640000" stroke="#252525" stroke-width="1.058"/><path d="M98.425 364.067v13.044s-1.211-1.11-2.117-1.786v-11.258z" clip-path="url(#i)" transform="matrix(1 0 0 -1 47.625 676.275)" fill="#00640c" stroke="#252525" stroke-width="1.058"/><path d="M80.994 374.65s-3.35 1.08-4.42 2.117l-6.724.022v3.175H63.5v-2.117h4.233v-3.197z" clip-path="url(#j)" transform="matrix(1 0 0 -1 49.742 678.392)" fill="#0097f0" fill-opacity=".584" stroke="#252525" stroke-width="1.058"/><path d="M63.5 396.897v2.117h8.487s-.78-1.059-1.145-2.117z" clip-path="url(#k)" transform="matrix(1 0 0 -1 49.742 678.392)" fill="#0097f0" fill-opacity=".584" stroke="#252525" stroke-width="1.058"/><path d="M199.301 70.535a19.155 19.158 15 0 0 23.46-13.548 19.155 19.158 15 0 0-5.403-18.928c-3.752-3.325-7.009-2.174-7.424.52-.508 2.456 7.093 8.019 7.89 16.188-.146 3.4-1.861 10.032-10.916 10.324-2.766.182-7.232-.593-8.865-1.524.63 1.056.171 2.768.171 2.768-.605-2.304-3.385-3.642-3.385-3.642-4.532-2.022-1.355-3.874-5.695-7.257 0 0-1.142-2.166 1.311-3.47 5.035 5.098 8.693 4.623 8.693 4.623.625.985.594 1.944.48 2.539 3.518 1.89 9.233 1.48 11.74-3.037.467-1.063.627-2.148.549-3.27-.607.988-1.88 1.884-4.2 2.522-2.361.36-3.806-.183-5.143-.533.916 1.006.686 1.861.686 1.861-1.691-1.676-3.132-1.87-3.132-1.87-3.6-.572-1.697-2.49-5.42-4.066 0 0-1.222-1.32.271-2.71 4.541 2.659 7.047 1.626 7.047 1.626a2.536 2.537 15 0 1 .823 1.71c1.95 1.007 8.554 2.25 6.594-5.077a60.438 60.448 15 0 0-1.703-2.686c-.348 1.371-1.275 2.989-3.272 3.732-2.465.84-5.26-.396-6.24-.956.39.55.446 1.482.446 1.482-1.12-1.523-2.376-2.007-2.376-2.007-2.723-1.215-.814-2.327-3.422-4.36 0 0-.685-1.3.789-2.083 3.024 3.062 5.221 2.776 5.221 2.776a2.076 2.076 15 0 1 .289 1.526c4.193 2.398 6.057.236 5.942-4.383-.752-2.584 1.13-4.754 3.947-5.838a19.155 19.158 15 0 0-23.296 13.585A19.155 19.158 15 0 0 199.3 70.535zm-4.707-9.815c.434.116 1.1-.636 1.1-.636s-1.473-.394-2.516-2.069c-.087 1.372 1.416 2.705 1.416 2.705zm4.983-7.274c.33 0 .659-.66.659-.66s-1.12 0-2.178-.99c.199.99 1.519 1.65 1.519 1.65zm-3.43-8.782c.261.07.661-.381.661-.381s-.885-.237-1.512-1.244c-.052.824.851 1.625.851 1.625z" fill-opacity=".294"/><path d="M51.858 374.65H17.992v-9.525h33.866zM441.326 263.525v33.866h-8.467v-33.866zM51.858 85.725H17.992v-8.467h33.866z" fill="#555"/><path d="M218.017 197.908v21.167h-4.233v2.117h6.35v-23.284zM189.442 196.85v19.58h5.292v2.116h-7.409V196.85z" fill-opacity=".584"/><path fill="#555" d="M170.391 11.641h67.734v8.467h-67.734zM187.325 314.325h33.867v25.4h-33.867z"/><path d="M42.333 50.8v42.333h93.134v33.866h8.467V50.8z" clip-path="url(#l)" transform="translate(9.525 9.525)" fill="#1a1c21" stroke="#000" stroke-width="3.175" stroke-opacity=".706"/><path clip-path="url(#l)" d="M42.333 50.8v42.333h93.134v33.866h8.467V50.8z" transform="matrix(-1 0 0 1 398.992 9.525)" fill="#1a1c21" stroke="#000" stroke-width="3.175" stroke-opacity=".706"/><path d="M42.333 287.866v76.2h25.4v8.468H76.2v-8.467h25.4V330.2h67.866l-.132 8.467h8.466V304.8h-76.2v-16.934z" clip-path="url(#m)" transform="translate(9.525 9.525)" fill="#1a1c21" stroke="#000" stroke-width="3.175" stroke-opacity=".706"/><path d="M287.867 287.866V304.8h-76.2v33.867h8.467V330.2h203.2v8.467h8.467v-50.8z" clip-path="url(#n)" transform="translate(9.525 9.525)" fill="#1a1c21" stroke="#000" stroke-width="3.175" stroke-opacity=".706"/><path d="M34.925 87.841l-6.35 6.35h12.7zM28.575 68.791l6.35 6.35 6.35-6.35z" fill="none" stroke="#000" stroke-width="1.588" stroke-linecap="square" stroke-opacity=".502"/><path d="M390.526 85.725h-33.867v-8.467h33.867z" fill="#555"/><path d="M373.592 87.841l-6.35 6.35h12.7zM367.242 68.791l6.35 6.35 6.35-6.35z" fill="none" stroke="#000" stroke-width="1.588" stroke-linecap="square" stroke-opacity=".502"/><path d="M204.259 7.408l-6.35 6.35h12.7z" fill="none" stroke="#2e2e2e" stroke-width="1.588" stroke-linecap="square"/><path d="M41.275 344.651l-6.35-6.35-6.35 6.35z" fill="none" stroke="#000" stroke-width="1.588" stroke-linecap="square" stroke-opacity=".502"/><path d="M40.217 324.908l-10.584-8.466m10.584 0l-10.584 8.466" fill="none" stroke="#000" stroke-width="1.588" stroke-opacity=".502"/><path d="M412.385 274.108l-6.35 6.35 6.35 6.35z" fill="none" stroke="#000" stroke-width="1.588" stroke-linecap="square" stroke-opacity=".502"/><path d="M392.642 275.167l-8.466 10.583m0-10.583l8.466 10.583" fill="none" stroke="#000" stroke-width="1.588" stroke-opacity=".502"/><g stroke="#2e2e2e" fill="none" stroke-width="1.587" stroke-linecap="square"><path d="M204.259 336.55l-6.35 6.35h12.7zM197.909 317.5l6.35 6.35 6.35-6.35z"/></g><path clip-path="url(#o)" d="M9.525 382.059V11.64h110.066V0h50.801v20.11h-152.4v361.95z" fill="#1a1c21" stroke-width="3.175" stroke="#000" stroke-opacity=".706"/><path fill="#1a1c21" d="M121.179-.001h47.625v11.642h-47.625zM11.113 379.413h5.292v2.646h-5.292z"/><path d="M441.326 263.525v-16.933h-8.467v8.466h-33.867V11.64H288.926V0h-50.8v20.11h152.4v243.416z" clip-path="url(#p)" fill="#1a1c21" stroke-width="3.175" stroke="#000" stroke-opacity=".706"/><path fill="#1a1c21" d="M239.713-.001h47.625v10.583h-47.625z"/></svg>