<?xml version="1.0" encoding="UTF-8" standalone="no"?>
<!-- Created with Inkscape (http://www.inkscape.org/) -->

<svg
   xmlns:dc="http://purl.org/dc/elements/1.1/"
   xmlns:cc="http://creativecommons.org/ns#"
   xmlns:rdf="http://www.w3.org/1999/02/22-rdf-syntax-ns#"
   xmlns:svg="http://www.w3.org/2000/svg"
   xmlns="http://www.w3.org/2000/svg"
   xmlns:sodipodi="http://sodipodi.sourceforge.net/DTD/sodipodi-0.dtd"
   xmlns:inkscape="http://www.inkscape.org/namespaces/inkscape"
   width="144"
   height="144"
   viewBox="0 0 38.099999 38.100001"
   version="1.1"
   id="svg10588"
   inkscape:version="0.92.2 5c3e80d, 2017-08-06"
   sodipodi:docname="map-bush-01-xmas.svg">
  <defs
     id="defs10582" />
  <sodipodi:namedview
     id="base"
     pagecolor="#ffffff"
     bordercolor="#666666"
     borderopacity="1.0"
     inkscape:pageopacity="0.0"
     inkscape:pageshadow="2"
     inkscape:zoom="2.8284271"
     inkscape:cx="-4.9119549"
     inkscape:cy="86.362165"
     inkscape:document-units="mm"
     inkscape:current-layer="layer1"
     showgrid="true"
     units="px"
     inkscape:window-width="1920"
     inkscape:window-height="1087"
     inkscape:window-x="0"
     inkscape:window-y="1"
     inkscape:window-maximized="1"
     inkscape:snap-others="true"
     inkscape:object-nodes="false">
    <inkscape:grid
       type="xygrid"
       id="grid11143"
       empspacing="4"
       spacingx="0.52916667"
       spacingy="0.52916667" />
  </sodipodi:namedview>
  <metadata
     id="metadata10585">
    <rdf:RDF>
      <cc:Work
         rdf:about="">
        <dc:format>image/svg+xml</dc:format>
        <dc:type
           rdf:resource="http://purl.org/dc/dcmitype/StillImage" />
        <dc:title></dc:title>
      </cc:Work>
    </rdf:RDF>
  </metadata>
  <g
     inkscape:label="Layer 1"
     inkscape:groupmode="layer"
     id="layer1"
     transform="translate(0,-258.89998)">
    <path
       sodipodi:type="star"
       style="fill:#243c0c;fill-opacity:1;stroke:none;stroke-width:0.59439588;stroke-miterlimit:4;stroke-dasharray:none;stroke-opacity:1"
       id="path11141"
       sodipodi:sides="26"
       sodipodi:cx="22.346678"
       sodipodi:cy="274.63733"
       sodipodi:r1="3.3126872"
       sodipodi:r2="3.1470528"
       sodipodi:arg1="0.72831738"
       sodipodi:arg2="0.84914787"
       inkscape:flatsided="false"
       inkscape:rounded="0.14"
       inkscape:randomized="0.021"
       d="m 24.851444,276.85993 c -0.04031,0.0442 -0.337245,0.11827 -0.382253,0.15652 -0.04501,0.0383 -0.257408,0.3832 -0.307139,0.41644 -0.04973,0.0332 -0.28713,-0.0488 -0.34038,-0.0221 -0.05325,0.0268 -0.258855,0.2399 -0.313945,0.2612 -0.05509,0.0213 -0.306662,0.0445 -0.364892,0.0568 -0.05823,0.0123 -0.302691,0.24968 -0.36198,0.25706 -0.05929,0.007 -0.436385,-0.15138 -0.495649,-0.15223 -0.05926,-8.5e-4 -0.251179,0.0366 -0.309709,0.0283 -0.05853,-0.008 -0.350996,-0.0886 -0.408338,-0.1025 -0.05734,-0.0139 -0.309345,0.0326 -0.364968,0.0118 -0.05562,-0.0208 -0.321886,-0.26506 -0.373446,-0.29411 -0.05156,-0.029 -0.346416,-0.058 -0.395126,-0.0914 -0.04871,-0.0335 -0.107327,-0.32355 -0.150618,-0.3645 -0.04329,-0.041 -0.32814,-0.12222 -0.366394,-0.16711 -0.03825,-0.0449 -0.06941,-0.36916 -0.104152,-0.41684 -0.03474,-0.0477 -0.364723,-0.213 -0.391595,-0.26638 -0.02687,-0.0534 -0.05626,-0.31148 -0.07543,-0.36699 -0.01917,-0.0555 -0.149266,-0.34674 -0.163,-0.40451 -0.01373,-0.0578 0.105859,-0.3062 0.100308,-0.36551 -0.0056,-0.0593 -0.277659,-0.28553 -0.277386,-0.34515 2.73e-4,-0.0596 0.154415,-0.34783 0.163298,-0.4067 0.0089,-0.0589 -0.08873,-0.42048 -0.07534,-0.4781 0.01339,-0.0576 0.29878,-0.20843 0.319146,-0.26456 0.02037,-0.0561 -0.07259,-0.40499 -0.04594,-0.45848 0.02665,-0.0535 0.374135,-0.20663 0.408189,-0.25476 0.03405,-0.0481 0.09069,-0.3499 0.129396,-0.39431 0.0387,-0.0444 0.344021,-0.0543 0.389753,-0.0923 0.04573,-0.038 0.122059,-0.46697 0.170297,-0.50239 0.04824,-0.0354 0.426847,0.0813 0.479518,0.0529 0.05267,-0.0284 0.251655,-0.31934 0.306441,-0.34082 0.05479,-0.0215 0.307048,0.0995 0.364752,0.0857 0.05771,-0.0137 0.310669,-0.3301 0.369621,-0.33536 0.05895,-0.005 0.289863,0.2419 0.349018,0.24256 0.05916,6.6e-4 0.3907,-0.19159 0.44884,-0.18285 0.05814,0.009 0.218968,0.2807 0.276562,0.29384 0.05759,0.0131 0.44885,-0.17478 0.504242,-0.15436 0.05539,0.0204 0.175333,0.35616 0.226815,0.38443 0.05148,0.0283 0.353408,-0.032 0.402625,0.001 0.04922,0.0331 0.173993,0.42577 0.217324,0.46564 0.04333,0.0399 0.396731,0.0966 0.436385,0.1399 0.03965,0.0433 0.009,0.3049 0.04166,0.35372 0.03267,0.0488 0.427323,0.16496 0.454235,0.2178 0.02691,0.0528 -0.09337,0.37206 -0.07121,0.4265 0.02217,0.0544 0.231614,0.33601 0.246997,0.39359 0.01538,0.0576 -0.04395,0.38447 -0.03781,0.44403 0.0061,0.0596 0.136764,0.28534 0.138253,0.34515 0.0015,0.0598 -0.154691,0.34492 -0.163156,0.40331 -0.0085,0.0584 0.08261,0.35991 0.0677,0.41727 -0.01491,0.0574 -0.150575,0.25837 -0.172515,0.31338 -0.02194,0.055 -0.07269,0.3691 -0.100553,0.42169 -0.02786,0.0526 -0.236916,0.2052 -0.269057,0.25476 -0.03214,0.0496 -0.08909,0.33467 -0.129397,0.3789 z"
       inkscape:transform-center-x="0.027712132"
       inkscape:transform-center-y="-0.04175105"
       transform="matrix(5.0047313,0,0,5.0899112,-92.789118,-1119.9296)" />
    <path
       sodipodi:type="star"
       style="fill:#3b5b1f;fill-opacity:1;stroke:none;stroke-width:0.64358371;stroke-miterlimit:4;stroke-dasharray:none;stroke-opacity:1"
       id="path11141-3"
       sodipodi:sides="16"
       sodipodi:cx="22.346678"
       sodipodi:cy="274.63733"
       sodipodi:r1="3.3126872"
       sodipodi:r2="2.9482915"
       sodipodi:arg1="0.72831738"
       sodipodi:arg2="0.92466692"
       inkscape:flatsided="false"
       inkscape:rounded="0.22"
       inkscape:randomized="0.04"
       d="m 24.880869,276.87588 c -0.108567,0.11688 -0.702322,0.0659 -0.83336,0.1568 -0.131038,0.0909 -0.02856,0.44835 -0.168305,0.51346 -0.139745,0.0651 -0.597718,-0.0553 -0.74896,-0.0127 -0.151243,0.0425 -0.442869,0.37554 -0.599601,0.38476 -0.156732,0.009 -0.34826,-0.28509 -0.504583,-0.29742 -0.156322,-0.0123 -0.649236,0.2766 -0.799781,0.22412 -0.150545,-0.0525 -0.155127,-0.5321 -0.290117,-0.6098 -0.134989,-0.0777 -0.76119,0.0301 -0.871722,-0.0771 -0.110532,-0.10725 0.09903,-0.4933 6.5e-5,-0.61877 -0.09897,-0.12547 -0.653638,-0.27749 -0.728021,-0.41215 -0.07438,-0.13466 0.0719,-0.51623 0.03528,-0.6701 -0.03663,-0.15387 -0.283478,-0.48086 -0.301133,-0.63424 -0.01765,-0.15337 0.377161,-0.3562 0.400367,-0.51308 0.02321,-0.15689 -0.22391,-0.50731 -0.163999,-0.65545 0.05991,-0.14814 0.333364,-0.3977 0.412479,-0.52976 0.07911,-0.13206 0.110984,-0.57529 0.211472,-0.69307 0.100488,-0.11779 0.445825,-0.005 0.568354,-0.0981 0.122528,-0.093 0.313148,-0.53712 0.451963,-0.61355 0.138814,-0.0764 0.582091,-0.0205 0.734681,-0.0509 0.152591,-0.0304 0.195514,-0.29816 0.348596,-0.31467 0.153082,-0.0165 0.601693,0.40287 0.755579,0.43366 0.153886,0.0308 0.545678,-0.31924 0.694487,-0.26781 0.148809,0.0514 0.254798,0.50778 0.391051,0.58154 0.136253,0.0738 0.498543,-0.13638 0.620999,-0.0362 0.122455,0.10014 0.153081,0.60892 0.250659,0.73212 0.09758,0.1232 0.416235,0.33951 0.477015,0.48223 0.06078,0.14272 -0.09333,0.42893 -0.04956,0.57712 0.04377,0.1482 0.564,0.47596 0.566148,0.63424 0.0021,0.15829 -0.371524,0.47498 -0.385812,0.62896 -0.01429,0.15398 0.222263,0.50674 0.163999,0.65545 -0.05827,0.1487 -0.614528,0.27535 -0.692049,0.41388 -0.07752,0.13853 0.162379,0.56975 0.05381,0.68663 z"
       inkscape:transform-center-x="0.030752848"
       inkscape:transform-center-y="-0.015275516"
       transform="matrix(2.97054,-1.715042,1.7442319,3.0210983,-526.56628,-513.50793)" />
    <path
       sodipodi:type="star"
       style="fill:#80a460;fill-opacity:1;stroke:none;stroke-width:0.64358371;stroke-miterlimit:4;stroke-dasharray:none;stroke-opacity:1"
       id="path11141-3-2"
       sodipodi:sides="16"
       sodipodi:cx="22.346678"
       sodipodi:cy="274.63733"
       sodipodi:r1="3.3126872"
       sodipodi:r2="2.9482915"
       sodipodi:arg1="0.72831738"
       sodipodi:arg2="0.92466692"
       inkscape:flatsided="false"
       inkscape:rounded="0.22"
       inkscape:randomized="0.06"
       d="m 24.911843,276.89267 c -0.110673,0.11675 -0.76758,0.0717 -0.901502,0.1607 -0.133922,0.089 0.05398,0.39197 -0.085,0.45557 -0.138983,0.0636 -0.621991,0.001 -0.772923,0.0455 -0.150933,0.0441 -0.467474,0.3412 -0.624289,0.35055 -0.156814,0.009 -0.301122,-0.24477 -0.45774,-0.25236 -0.156618,-0.008 -0.707008,0.28502 -0.85879,0.23212 -0.151782,-0.0529 -0.09806,-0.54441 -0.232965,-0.6212 -0.1349,-0.0768 -0.84556,0.0272 -0.952828,-0.0813 -0.107268,-0.10855 0.17586,-0.45407 0.0746,-0.57962 -0.101261,-0.12555 -0.700118,-0.31948 -0.77741,-0.45076 -0.07729,-0.13128 0.02362,-0.49976 -0.01163,-0.65464 -0.03525,-0.15487 -0.203228,-0.52464 -0.225112,-0.67624 -0.02188,-0.1516 0.382844,-0.31282 0.406778,-0.47049 0.02393,-0.15767 -0.206032,-0.49429 -0.14194,-0.64229 0.06409,-0.148 0.246337,-0.46191 0.325221,-0.59243 0.07889,-0.13052 0.184347,-0.56674 0.282895,-0.68486 0.09855,-0.11812 0.382801,0.0196 0.503993,-0.0727 0.121192,-0.0923 0.373055,-0.52518 0.510484,-0.60571 0.137429,-0.0805 0.59872,-0.11489 0.751506,-0.14089 0.152786,-0.026 0.09658,-0.22526 0.24778,-0.24543 0.151205,-0.0202 0.681254,0.42146 0.834236,0.45672 0.152981,0.0353 0.551671,-0.34898 0.700848,-0.29765 0.149177,0.0513 0.247653,0.50793 0.384367,0.57881 0.136714,0.0709 0.451632,-0.18659 0.576742,-0.0887 0.125111,0.0979 0.202349,0.62749 0.301488,0.74965 0.09914,0.12216 0.34382,0.41255 0.400903,0.55588 0.05708,0.14333 -0.05571,0.36883 -0.0098,0.51517 0.04592,0.14634 0.623936,0.51721 0.622634,0.67624 -0.0013,0.15904 -0.374334,0.49111 -0.384945,0.6443 -0.01061,0.1532 0.203559,0.49338 0.14194,0.64229 -0.06162,0.14892 -0.668108,0.27841 -0.744577,0.41862 -0.07647,0.14021 0.225704,0.55843 0.11503,0.67519 z"
       inkscape:transform-center-x="-0.034436009"
       inkscape:transform-center-y="-0.13583863"
       transform="matrix(1.7064928,2.7693887e-8,-1.2507858e-8,1.7355371,-19.234986,-198.68983)" />
    <g
       id="g868"
       transform="matrix(0.89026909,0.19795787,-0.19795787,0.89026909,79.381287,41.422811)"
       style="stroke:#191919;stroke-width:0.48673603;stroke-miterlimit:4;stroke-dasharray:none;stroke-opacity:1"
       inkscape:transform-center-x="1.0612202"
       inkscape:transform-center-y="-1.2462192">
      <path
         sodipodi:nodetypes="scscs"
         inkscape:connector-curvature="0"
         id="path838"
         d="m -20.857816,273.86875 c -0.807085,0.598 -1.302346,2.45999 -1.302346,2.45999 0,0 1.774356,-0.48513 2.501331,-1.17832 0.449522,-0.42862 1.116296,-1.92251 1.116296,-1.92251 0,0 -1.744586,0.21799 -2.315281,0.64084 z"
         style="fill:#ff1515;fill-opacity:1;stroke:#191919;stroke-width:0.48673603;stroke-linecap:butt;stroke-linejoin:miter;stroke-miterlimit:4;stroke-dasharray:none;stroke-opacity:1" />
      <path
         style="fill:#ff1515;fill-opacity:1;stroke:#191919;stroke-width:0.48673603;stroke-linecap:butt;stroke-linejoin:miter;stroke-miterlimit:4;stroke-dasharray:none;stroke-opacity:1"
         d="m -20.057744,271.36369 c -0.871384,-0.49968 -2.775748,-0.20701 -2.775748,-0.20701 0,0 1.155722,1.43108 2.08219,1.81922 0.572879,0.24 2.208767,0.25201 2.208767,0.25201 0,0 -0.899046,-1.51089 -1.515209,-1.86422 z"
         id="path840"
         inkscape:connector-curvature="0"
         sodipodi:nodetypes="scscs" />
      <path
         style="fill:#ff1515;fill-opacity:1;stroke:#191919;stroke-width:0.48673603;stroke-linecap:butt;stroke-linejoin:miter;stroke-miterlimit:4;stroke-dasharray:none;stroke-opacity:1"
         d="m -18.788141,275.60999 c 0.280595,0.9645 1.854808,2.07541 1.854808,2.07541 0,0 0.16108,-1.83241 -0.236587,-2.75483 -0.245897,-0.57038 -1.41536,-1.71433 -1.41536,-1.71433 0,0 -0.401271,1.71175 -0.202861,2.39375 z"
         id="path842"
         inkscape:connector-curvature="0"
         sodipodi:nodetypes="scscs" />
      <path
         sodipodi:nodetypes="scscs"
         inkscape:connector-curvature="0"
         id="path844"
         d="m -16.371959,274.26152 c 0.999877,0.0961 2.614346,-0.95542 2.614346,-0.95542 0,0 -1.642815,-0.82755 -2.646906,-0.79934 -0.620879,0.0174 -2.116314,0.68072 -2.116314,0.68072 0,0 1.441854,1.00607 2.148874,1.07404 z"
         style="fill:#ff1515;fill-opacity:1;stroke:#191919;stroke-width:0.48673603;stroke-linecap:butt;stroke-linejoin:miter;stroke-miterlimit:4;stroke-dasharray:none;stroke-opacity:1" />
      <path
         style="fill:#ff1515;fill-opacity:1;stroke:#191919;stroke-width:0.48673603;stroke-linecap:butt;stroke-linejoin:miter;stroke-miterlimit:4;stroke-dasharray:none;stroke-opacity:1"
         d="m -18.707941,270.54165 c -0.367925,0.93467 0.198063,2.77639 0.198063,2.77639 0,0 1.248192,-1.35117 1.497759,-2.32415 0.15433,-0.60165 -0.07122,-2.22197 -0.07122,-2.22197 0,0 -1.364418,1.10881 -1.624583,1.76973 z"
         id="path846"
         inkscape:connector-curvature="0"
         sodipodi:nodetypes="scscs" />
      <circle
         r="0.79374999"
         cy="273.34622"
         cx="-18.573751"
         id="path855"
         style="fill:#ff1515;fill-opacity:1;stroke:#191919;stroke-width:0.48673603;stroke-miterlimit:4;stroke-dasharray:none;stroke-opacity:1" />
    </g>
    <g
       style="stroke:#191919;stroke-width:0.48673603;stroke-miterlimit:4;stroke-dasharray:none;stroke-opacity:1"
       transform="matrix(-0.57446752,-0.70834556,0.70834556,-0.57446752,-185.07216,432.61108)"
       id="g882">
      <path
         style="fill:#ff1515;fill-opacity:1;stroke:#191919;stroke-width:0.48673603;stroke-linecap:butt;stroke-linejoin:miter;stroke-miterlimit:4;stroke-dasharray:none;stroke-opacity:1"
         d="m -20.857816,273.86875 c -0.807085,0.598 -1.302346,2.45999 -1.302346,2.45999 0,0 1.774356,-0.48513 2.501331,-1.17832 0.449522,-0.42862 1.116296,-1.92251 1.116296,-1.92251 0,0 -1.744586,0.21799 -2.315281,0.64084 z"
         id="path870"
         inkscape:connector-curvature="0"
         sodipodi:nodetypes="scscs" />
      <path
         sodipodi:nodetypes="scscs"
         inkscape:connector-curvature="0"
         id="path872"
         d="m -20.057744,271.36369 c -0.871384,-0.49968 -2.775748,-0.20701 -2.775748,-0.20701 0,0 1.155722,1.43108 2.08219,1.81922 0.572879,0.24 2.208767,0.25201 2.208767,0.25201 0,0 -0.899046,-1.51089 -1.515209,-1.86422 z"
         style="fill:#ff1515;fill-opacity:1;stroke:#191919;stroke-width:0.48673603;stroke-linecap:butt;stroke-linejoin:miter;stroke-miterlimit:4;stroke-dasharray:none;stroke-opacity:1" />
      <path
         sodipodi:nodetypes="scscs"
         inkscape:connector-curvature="0"
         id="path874"
         d="m -18.788141,275.60999 c 0.280595,0.9645 1.854808,2.07541 1.854808,2.07541 0,0 0.16108,-1.83241 -0.236587,-2.75483 -0.245897,-0.57038 -1.41536,-1.71433 -1.41536,-1.71433 0,0 -0.401271,1.71175 -0.202861,2.39375 z"
         style="fill:#ff1515;fill-opacity:1;stroke:#191919;stroke-width:0.48673603;stroke-linecap:butt;stroke-linejoin:miter;stroke-miterlimit:4;stroke-dasharray:none;stroke-opacity:1" />
      <path
         style="fill:#ff1515;fill-opacity:1;stroke:#191919;stroke-width:0.48673603;stroke-linecap:butt;stroke-linejoin:miter;stroke-miterlimit:4;stroke-dasharray:none;stroke-opacity:1"
         d="m -16.371959,274.26152 c 0.999877,0.0961 2.614346,-0.95542 2.614346,-0.95542 0,0 -1.642815,-0.82755 -2.646906,-0.79934 -0.620879,0.0174 -2.116314,0.68072 -2.116314,0.68072 0,0 1.441854,1.00607 2.148874,1.07404 z"
         id="path876"
         inkscape:connector-curvature="0"
         sodipodi:nodetypes="scscs" />
      <path
         sodipodi:nodetypes="scscs"
         inkscape:connector-curvature="0"
         id="path878"
         d="m -18.707941,270.54165 c -0.367925,0.93467 0.198063,2.77639 0.198063,2.77639 0,0 1.248192,-1.35117 1.497759,-2.32415 0.15433,-0.60165 -0.07122,-2.22197 -0.07122,-2.22197 0,0 -1.364418,1.10881 -1.624583,1.76973 z"
         style="fill:#ff1515;fill-opacity:1;stroke:#191919;stroke-width:0.48673603;stroke-linecap:butt;stroke-linejoin:miter;stroke-miterlimit:4;stroke-dasharray:none;stroke-opacity:1" />
      <circle
         style="fill:#ff1515;fill-opacity:1;stroke:#191919;stroke-width:0.48673603;stroke-miterlimit:4;stroke-dasharray:none;stroke-opacity:1"
         id="circle880"
         cx="-18.573751"
         cy="273.34622"
         r="0.79374999" />
    </g>
    <g
       id="g896"
       transform="matrix(-0.83528574,0.36614762,-0.36614762,-0.83528574,114.20513,515.76839)"
       style="stroke:#191919;stroke-width:0.48673603;stroke-miterlimit:4;stroke-dasharray:none;stroke-opacity:1">
      <path
         sodipodi:nodetypes="scscs"
         inkscape:connector-curvature="0"
         id="path884"
         d="m -20.857816,273.86875 c -0.807085,0.598 -1.302346,2.45999 -1.302346,2.45999 0,0 1.774356,-0.48513 2.501331,-1.17832 0.449522,-0.42862 1.116296,-1.92251 1.116296,-1.92251 0,0 -1.744586,0.21799 -2.315281,0.64084 z"
         style="fill:#ff1515;fill-opacity:1;stroke:#191919;stroke-width:0.48673603;stroke-linecap:butt;stroke-linejoin:miter;stroke-miterlimit:4;stroke-dasharray:none;stroke-opacity:1" />
      <path
         style="fill:#ff1515;fill-opacity:1;stroke:#191919;stroke-width:0.48673603;stroke-linecap:butt;stroke-linejoin:miter;stroke-miterlimit:4;stroke-dasharray:none;stroke-opacity:1"
         d="m -20.057744,271.36369 c -0.871384,-0.49968 -2.775748,-0.20701 -2.775748,-0.20701 0,0 1.155722,1.43108 2.08219,1.81922 0.572879,0.24 2.208767,0.25201 2.208767,0.25201 0,0 -0.899046,-1.51089 -1.515209,-1.86422 z"
         id="path886"
         inkscape:connector-curvature="0"
         sodipodi:nodetypes="scscs" />
      <path
         style="fill:#ff1515;fill-opacity:1;stroke:#191919;stroke-width:0.48673603;stroke-linecap:butt;stroke-linejoin:miter;stroke-miterlimit:4;stroke-dasharray:none;stroke-opacity:1"
         d="m -18.788141,275.60999 c 0.280595,0.9645 1.854808,2.07541 1.854808,2.07541 0,0 0.16108,-1.83241 -0.236587,-2.75483 -0.245897,-0.57038 -1.41536,-1.71433 -1.41536,-1.71433 0,0 -0.401271,1.71175 -0.202861,2.39375 z"
         id="path888"
         inkscape:connector-curvature="0"
         sodipodi:nodetypes="scscs" />
      <path
         sodipodi:nodetypes="scscs"
         inkscape:connector-curvature="0"
         id="path890"
         d="m -16.371959,274.26152 c 0.999877,0.0961 2.614346,-0.95542 2.614346,-0.95542 0,0 -1.642815,-0.82755 -2.646906,-0.79934 -0.620879,0.0174 -2.116314,0.68072 -2.116314,0.68072 0,0 1.441854,1.00607 2.148874,1.07404 z"
         style="fill:#ff1515;fill-opacity:1;stroke:#191919;stroke-width:0.48673603;stroke-linecap:butt;stroke-linejoin:miter;stroke-miterlimit:4;stroke-dasharray:none;stroke-opacity:1" />
      <path
         style="fill:#ff1515;fill-opacity:1;stroke:#191919;stroke-width:0.48673603;stroke-linecap:butt;stroke-linejoin:miter;stroke-miterlimit:4;stroke-dasharray:none;stroke-opacity:1"
         d="m -18.707941,270.54165 c -0.367925,0.93467 0.198063,2.77639 0.198063,2.77639 0,0 1.248192,-1.35117 1.497759,-2.32415 0.15433,-0.60165 -0.07122,-2.22197 -0.07122,-2.22197 0,0 -1.364418,1.10881 -1.624583,1.76973 z"
         id="path892"
         inkscape:connector-curvature="0"
         sodipodi:nodetypes="scscs" />
      <circle
         r="0.79374999"
         cy="273.34622"
         cx="-18.573751"
         id="circle894"
         style="fill:#ff1515;fill-opacity:1;stroke:#191919;stroke-width:0.48673603;stroke-miterlimit:4;stroke-dasharray:none;stroke-opacity:1" />
    </g>
    <g
       id="g924"
       transform="matrix(0.07308604,0.90907906,-0.90907906,0.07308604,274.98267,266.04031)"
       style="stroke:#191919;stroke-width:0.48673603;stroke-miterlimit:4;stroke-dasharray:none;stroke-opacity:1">
      <path
         sodipodi:nodetypes="scscs"
         inkscape:connector-curvature="0"
         id="path912"
         d="m -20.857816,273.86875 c -0.807085,0.598 -1.302346,2.45999 -1.302346,2.45999 0,0 1.774356,-0.48513 2.501331,-1.17832 0.449522,-0.42862 1.116296,-1.92251 1.116296,-1.92251 0,0 -1.744586,0.21799 -2.315281,0.64084 z"
         style="fill:#ff1515;fill-opacity:1;stroke:#191919;stroke-width:0.48673603;stroke-linecap:butt;stroke-linejoin:miter;stroke-miterlimit:4;stroke-dasharray:none;stroke-opacity:1" />
      <path
         style="fill:#ff1515;fill-opacity:1;stroke:#191919;stroke-width:0.48673603;stroke-linecap:butt;stroke-linejoin:miter;stroke-miterlimit:4;stroke-dasharray:none;stroke-opacity:1"
         d="m -20.057744,271.36369 c -0.871384,-0.49968 -2.775748,-0.20701 -2.775748,-0.20701 0,0 1.155722,1.43108 2.08219,1.81922 0.572879,0.24 2.208767,0.25201 2.208767,0.25201 0,0 -0.899046,-1.51089 -1.515209,-1.86422 z"
         id="path914"
         inkscape:connector-curvature="0"
         sodipodi:nodetypes="scscs" />
      <path
         style="fill:#ff1515;fill-opacity:1;stroke:#191919;stroke-width:0.48673603;stroke-linecap:butt;stroke-linejoin:miter;stroke-miterlimit:4;stroke-dasharray:none;stroke-opacity:1"
         d="m -18.788141,275.60999 c 0.280595,0.9645 1.854808,2.07541 1.854808,2.07541 0,0 0.16108,-1.83241 -0.236587,-2.75483 -0.245897,-0.57038 -1.41536,-1.71433 -1.41536,-1.71433 0,0 -0.401271,1.71175 -0.202861,2.39375 z"
         id="path916"
         inkscape:connector-curvature="0"
         sodipodi:nodetypes="scscs" />
      <path
         sodipodi:nodetypes="scscs"
         inkscape:connector-curvature="0"
         id="path918"
         d="m -16.371959,274.26152 c 0.999877,0.0961 2.614346,-0.95542 2.614346,-0.95542 0,0 -1.642815,-0.82755 -2.646906,-0.79934 -0.620879,0.0174 -2.116314,0.68072 -2.116314,0.68072 0,0 1.441854,1.00607 2.148874,1.07404 z"
         style="fill:#ff1515;fill-opacity:1;stroke:#191919;stroke-width:0.48673603;stroke-linecap:butt;stroke-linejoin:miter;stroke-miterlimit:4;stroke-dasharray:none;stroke-opacity:1" />
      <path
         style="fill:#ff1515;fill-opacity:1;stroke:#191919;stroke-width:0.48673603;stroke-linecap:butt;stroke-linejoin:miter;stroke-miterlimit:4;stroke-dasharray:none;stroke-opacity:1"
         d="m -18.707941,270.54165 c -0.367925,0.93467 0.198063,2.77639 0.198063,2.77639 0,0 1.248192,-1.35117 1.497759,-2.32415 0.15433,-0.60165 -0.07122,-2.22197 -0.07122,-2.22197 0,0 -1.364418,1.10881 -1.624583,1.76973 z"
         id="path920"
         inkscape:connector-curvature="0"
         sodipodi:nodetypes="scscs" />
      <circle
         r="0.79374999"
         cy="273.34622"
         cx="-18.573751"
         id="circle922"
         style="fill:#ff1515;fill-opacity:1;stroke:#191919;stroke-width:0.48673603;stroke-miterlimit:4;stroke-dasharray:none;stroke-opacity:1" />
    </g>
    <g
       style="stroke:#191919;stroke-width:0.48673603;stroke-miterlimit:4;stroke-dasharray:none;stroke-opacity:1"
       transform="matrix(0.63281332,-0.65674472,0.65674472,0.63281332,-155.19639,84.151485)"
       id="g938"
       inkscape:transform-center-x="-0.17860422"
       inkscape:transform-center-y="-1.1395518">
      <path
         style="fill:#ff1515;fill-opacity:1;stroke:#191919;stroke-width:0.48673603;stroke-linecap:butt;stroke-linejoin:miter;stroke-miterlimit:4;stroke-dasharray:none;stroke-opacity:1"
         d="m -20.857816,273.86875 c -0.807085,0.598 -1.302346,2.45999 -1.302346,2.45999 0,0 1.774356,-0.48513 2.501331,-1.17832 0.449522,-0.42862 1.116296,-1.92251 1.116296,-1.92251 0,0 -1.744586,0.21799 -2.315281,0.64084 z"
         id="path926"
         inkscape:connector-curvature="0"
         sodipodi:nodetypes="scscs" />
      <path
         sodipodi:nodetypes="scscs"
         inkscape:connector-curvature="0"
         id="path928"
         d="m -20.057744,271.36369 c -0.871384,-0.49968 -2.775748,-0.20701 -2.775748,-0.20701 0,0 1.155722,1.43108 2.08219,1.81922 0.572879,0.24 2.208767,0.25201 2.208767,0.25201 0,0 -0.899046,-1.51089 -1.515209,-1.86422 z"
         style="fill:#ff1515;fill-opacity:1;stroke:#191919;stroke-width:0.48673603;stroke-linecap:butt;stroke-linejoin:miter;stroke-miterlimit:4;stroke-dasharray:none;stroke-opacity:1" />
      <path
         sodipodi:nodetypes="scscs"
         inkscape:connector-curvature="0"
         id="path930"
         d="m -18.788141,275.60999 c 0.280595,0.9645 1.854808,2.07541 1.854808,2.07541 0,0 0.16108,-1.83241 -0.236587,-2.75483 -0.245897,-0.57038 -1.41536,-1.71433 -1.41536,-1.71433 0,0 -0.401271,1.71175 -0.202861,2.39375 z"
         style="fill:#ff1515;fill-opacity:1;stroke:#191919;stroke-width:0.48673603;stroke-linecap:butt;stroke-linejoin:miter;stroke-miterlimit:4;stroke-dasharray:none;stroke-opacity:1" />
      <path
         style="fill:#ff1515;fill-opacity:1;stroke:#191919;stroke-width:0.48673603;stroke-linecap:butt;stroke-linejoin:miter;stroke-miterlimit:4;stroke-dasharray:none;stroke-opacity:1"
         d="m -16.371959,274.26152 c 0.999877,0.0961 2.614346,-0.95542 2.614346,-0.95542 0,0 -1.642815,-0.82755 -2.646906,-0.79934 -0.620879,0.0174 -2.116314,0.68072 -2.116314,0.68072 0,0 1.441854,1.00607 2.148874,1.07404 z"
         id="path932"
         inkscape:connector-curvature="0"
         sodipodi:nodetypes="scscs" />
      <path
         sodipodi:nodetypes="scscs"
         inkscape:connector-curvature="0"
         id="path934"
         d="m -18.707941,270.54165 c -0.367925,0.93467 0.198063,2.77639 0.198063,2.77639 0,0 1.248192,-1.35117 1.497759,-2.32415 0.15433,-0.60165 -0.07122,-2.22197 -0.07122,-2.22197 0,0 -1.364418,1.10881 -1.624583,1.76973 z"
         style="fill:#ff1515;fill-opacity:1;stroke:#191919;stroke-width:0.48673603;stroke-linecap:butt;stroke-linejoin:miter;stroke-miterlimit:4;stroke-dasharray:none;stroke-opacity:1" />
      <circle
         style="fill:#ff1515;fill-opacity:1;stroke:#191919;stroke-width:0.48673603;stroke-miterlimit:4;stroke-dasharray:none;stroke-opacity:1"
         id="circle936"
         cx="-18.573751"
         cy="273.34622"
         r="0.79374999" />
    </g>
  </g>
</svg>
