<?xml version="1.0" encoding="UTF-8" standalone="no"?>
<svg
   xmlns:dc="http://purl.org/dc/elements/1.1/"
   xmlns:cc="http://creativecommons.org/ns#"
   xmlns:rdf="http://www.w3.org/1999/02/22-rdf-syntax-ns#"
   xmlns:svg="http://www.w3.org/2000/svg"
   xmlns="http://www.w3.org/2000/svg"
   xmlns:sodipodi="http://sodipodi.sourceforge.net/DTD/sodipodi-0.dtd"
   xmlns:inkscape="http://www.inkscape.org/namespaces/inkscape"
   width="288"
   height="288"
   viewBox="0 0 76.2 76.2"
   version="1.1"
   id="svg6"
   sodipodi:docname="map-stone-03cb.svg"
   inkscape:version="0.92.2 (5c3e80d, 2017-08-06)">
  <metadata
     id="metadata12">
    <rdf:RDF>
      <cc:Work
         rdf:about="">
        <dc:format>image/svg+xml</dc:format>
        <dc:type
           rdf:resource="http://purl.org/dc/dcmitype/StillImage" />
        <dc:title />
      </cc:Work>
    </rdf:RDF>
  </metadata>
  <defs
     id="defs10">
    <clipPath
       clipPathUnits="userSpaceOnUse"
       id="clipPath831">
      <path
         inkscape:transform-center-y="0.73348458"
         d="m -38.099994,-74.706841 c 10.216168,10e-7 11.010296,0.233178 19.604683,5.756455 8.5943873,5.523278 9.1363848,6.148776 13.3803341,15.44173 4.24394933,9.292953 4.36173663,10.112182 2.9078241,20.224364 -1.4539126,10.112182 -1.7977322,10.865042 -8.4878992,18.585907 -6.690168,7.720864 -7.386434,8.1683271 -17.188776,11.0465539 -9.802341,2.8782269 -10.629994,2.87822687 -20.432336,-5e-7 -9.802341,-2.8782274 -10.498607,-3.3256905 -17.188774,-11.0465554 -6.690167,-7.720865 -7.033987,-8.473725 -8.487899,-18.585907 -1.453912,-10.112182 -1.336124,-10.931411 2.907825,-20.224364 4.24395,-9.292953 4.785948,-9.918452 13.380335,-15.441729 8.594388,-5.523277 9.388515,-5.756454 19.604683,-5.756454 z"
         inkscape:randomized="0"
         inkscape:rounded="0.5"
         inkscape:flatsided="true"
         sodipodi:arg2="-1.285197"
         sodipodi:arg1="-1.5707963"
         sodipodi:r2="36.261936"
         sodipodi:r1="36.261936"
         sodipodi:cy="-38.444904"
         sodipodi:cx="-38.099995"
         sodipodi:sides="11"
         id="path833"
         style="fill:#9ca2a8;fill-opacity:1;stroke:none;stroke-width:4.73298073;stroke-linecap:round;stroke-linejoin:round;stroke-miterlimit:4;stroke-dasharray:none;stroke-opacity:1;paint-order:normal"
         sodipodi:type="star"
         inkscape:transform-center-x="-2.5003001e-006" />
    </clipPath>
  </defs>
  <sodipodi:namedview
     pagecolor="#ffffff"
     bordercolor="#666666"
     borderopacity="1"
     objecttolerance="10"
     gridtolerance="10"
     guidetolerance="10"
     inkscape:pageopacity="0"
     inkscape:pageshadow="2"
     inkscape:window-width="1920"
     inkscape:window-height="1017"
     id="namedview8"
     showgrid="true"
     inkscape:snap-nodes="false"
     inkscape:zoom="0.81944445"
     inkscape:cx="-237.70315"
     inkscape:cy="357.33046"
     inkscape:window-x="1912"
     inkscape:window-y="-8"
     inkscape:window-maximized="1"
     inkscape:current-layer="svg6">
    <inkscape:grid
       type="xygrid"
       id="grid822"
       empspacing="4"
       spacingy="1.0583333"
       spacingx="1.0583333" />
  </sodipodi:namedview>
  <path
     transform="rotate(180,2.7097582e-6,-3.7807305e-7)"
     inkscape:transform-center-x="-2.5003001e-006"
     sodipodi:type="star"
     style="fill:#545a60;fill-opacity:1;stroke:#2d2d2d;stroke-width:4.76249981;stroke-linecap:round;stroke-linejoin:round;stroke-miterlimit:4;stroke-dasharray:none;stroke-opacity:1;paint-order:normal"
     id="path829"
     sodipodi:sides="11"
     sodipodi:cx="-38.099998"
     sodipodi:cy="-38.444904"
     sodipodi:r1="36.261936"
     sodipodi:r2="36.261936"
     sodipodi:arg1="-1.5707963"
     sodipodi:arg2="-1.285197"
     inkscape:flatsided="true"
     inkscape:rounded="0.5"
     inkscape:randomized="0"
     d="m -38.099998,-74.706841 c 10.216168,10e-7 11.010296,0.233178 19.604683,5.756455 8.5943874,5.523278 9.136385,6.148776 13.3803343,15.44173 4.24394931,9.292953 4.36173662,10.112182 2.9078241,20.224364 -1.4539126,10.112182 -1.7977322,10.865042 -8.4878994,18.585907 -6.690168,7.720864 -7.386434,8.1683271 -17.188775,11.0465539 -9.802342,2.8782269 -10.629995,2.87822687 -20.432336,-5e-7 -9.802342,-2.8782274 -10.498608,-3.3256905 -17.188775,-11.0465554 -6.690167,-7.720865 -7.033987,-8.473725 -8.487899,-18.585907 -1.453912,-10.112182 -1.336124,-10.931411 2.907826,-20.224364 4.243949,-9.292953 4.785947,-9.918452 13.380335,-15.441729 8.594387,-5.523277 9.388514,-5.756454 19.604682,-5.756454 z"
     inkscape:transform-center-y="0.73348458"
     clip-path="url(#clipPath831)" />
  <path
     style="fill:#003570;fill-opacity:0.74901961;stroke:none;stroke-width:17.88843155;stroke-linecap:round;stroke-linejoin:round;stroke-miterlimit:4;stroke-dasharray:none;stroke-opacity:1;paint-order:normal"
     d="M 144 5.6425781 C 133.95591 5.6425779 123.91278 8.3635655 105.38867 13.802734 C 68.340452 24.681072 65.707547 26.371514 40.421875 55.552734 C 15.136203 84.733954 13.836899 87.579557 8.3417969 125.79883 C 2.8466943 164.0181 3.2919079 167.11531 19.332031 202.23828 C 35.372155 237.36125 37.421573 239.72423 69.904297 260.59961 C 102.38702 281.47499 105.38771 282.35742 144 282.35742 C 182.61229 282.35742 185.61298 281.47499 218.0957 260.59961 C 250.57843 239.72423 252.62784 237.36125 268.66797 202.23828 C 284.70809 167.11531 285.1533 164.0181 279.6582 125.79883 C 274.1631 87.579557 272.8638 84.733956 247.57812 55.552734 C 222.29245 26.371513 219.65955 24.681074 182.61133 13.802734 C 164.08722 8.3635645 154.04409 5.6425784 144 5.6425781 z M 144 31.736328 C 152.14993 31.736328 160.29933 33.942043 175.33008 38.355469 C 205.39157 47.182321 207.52774 48.55433 228.04492 72.232422 C 248.5621 95.910513 249.61541 98.218765 254.07422 129.23047 C 258.53303 160.24217 258.17341 162.75459 245.1582 191.25391 C 232.143 219.75323 230.48003 221.67273 204.12305 238.61133 C 177.76606 255.54993 175.3306 256.26367 144 256.26367 C 112.6694 256.26367 110.23393 255.54993 83.876953 238.61133 C 57.519972 221.67272 55.857 219.75323 42.841797 191.25391 C 29.826594 162.75459 29.466971 160.24217 33.925781 129.23047 C 38.384592 98.218765 39.437895 95.910512 59.955078 72.232422 C 80.472261 48.554331 82.608427 47.182319 112.66992 38.355469 C 127.70067 33.942044 135.85007 31.736328 144 31.736328 z "
     transform="scale(0.26458333)"
     id="path850" />
  <path
     sodipodi:type="star"
     style="fill:#686f76;fill-opacity:1;stroke:none;stroke-width:1.40063334;stroke-linecap:round;stroke-linejoin:round;stroke-miterlimit:4;stroke-dasharray:none;stroke-opacity:1;paint-order:normal"
     id="path837"
     sodipodi:sides="11"
     sodipodi:cx="-46.176206"
     sodipodi:cy="-27.227161"
     sodipodi:r1="10.731013"
     sodipodi:r2="10.731013"
     sodipodi:arg1="-1.5707963"
     sodipodi:arg2="-1.285197"
     inkscape:flatsided="true"
     inkscape:rounded="0.5"
     inkscape:randomized="0"
     d="m -46.176204,-37.958175 c 3.023275,0 3.258282,0.069 5.801623,1.703511 2.543342,1.634506 2.703735,1.81961 3.959649,4.569679 1.255915,2.750068 1.290771,2.992503 0.860514,5.985006 -0.430257,2.992504 -0.532003,3.215298 -2.511828,5.500137 -1.979825,2.284839 -2.185871,2.417257 -5.086683,3.269013 -2.900812,0.851755 -3.14574,0.851755 -6.046552,-1e-6 -2.900812,-0.851755 -3.106858,-0.984173 -5.086683,-3.269012 -1.979824,-2.28484 -2.081571,-2.507634 -2.511828,-5.500137 -0.430257,-2.992504 -0.3954,-3.234938 0.860514,-5.985007 1.255915,-2.750068 1.416308,-2.935172 3.95965,-4.569678 2.543341,-1.634507 2.778348,-1.703511 5.801624,-1.703511 z"
     inkscape:transform-center-y="0.21705655"
     transform="scale(-1)" />
</svg>
