<svg xmlns="http://www.w3.org/2000/svg" width="84" height="84" viewBox="0 0 22.225 22.225"><defs><clipPath id="a"><ellipse ry="6.34" rx="6.35" cy="243.216" cx="-87.868" fill="#3f3f3f" fill-opacity=".611" stroke-width="2.145" stroke-opacity=".706"/></clipPath></defs><g transform="translate(119.05 -31.22)" fill="#3f3f3f" fill-opacity=".611"><ellipse cx="-107.937" cy="42.333" rx="8.467" ry="8.453"/><ellipse clip-path="url(#a)" ry="6.34" rx="6.35" cy="243.216" cx="-87.868" transform="translate(-20.07 -200.883)" stroke="#404040" stroke-width="2.117" stroke-opacity=".5"/></g><path d="M15.509.735c-.388-.145-2.497 1.5-2.908 1.45-.41-.047-1.926-2.161-2.334-2.128-.411.03-1.492 2.452-1.877 2.594-.391.14-2.885-1.066-3.216-.81-.335.256-.239 2.624-.517 2.934-.286.307-3.002.968-3.184 1.35-.182.38.866 2.75.776 3.162-.093.405-1.94 1.936-1.94 2.36-.003.422 1.668 1.559 1.784 1.957.116.398-.534 2.576-.348 2.958.186.377 2.086.71 2.374 1.018.286.307.597 2.877.935 3.113.339.236 2.885-.894 3.263-.742.382.148 1.532 2.155 1.94 2.216.405.06 2.112-1.241 2.52-1.275.408-.037 2.116.782 2.497.627.381-.151 1.061-2.01 1.4-2.246.334-.236 2.825-.057 3.106-.37l.004-.001c.282-.31-.156-2.836.033-3.217.19-.378 1.986-.945 2.092-1.35.106-.404-1.03-2.724-1.047-3.146-.017-.421 1.127-1.912 1.017-2.317-.112-.408-2.165-1.7-2.34-2.077-.173-.381.474-2.293.198-2.597-.278-.3-2.769-.057-3.107-.293-.338-.236-.736-3.03-1.12-3.17zm-1.348 4.33c.288.12.94 1.563 1.19 1.774.246.21 1.185-.137 1.396.108.208.242.023 1.04.17 1.314.142.28.917.273 1.035.574.118.302-.516 1.14-.47 1.452.047.315.404 1.34.356 1.655-.047.313-.532.716-.64 1.013-.11.3.652 1.51.485 1.794-.167.283-.869.012-1.055.272-.188.259-.475 1.619-.736 1.824-.263.203-.908.088-1.173.259-.262.173-.79.986-1.107 1.083-.316.094-1.695-.575-2.012-.513-.316.062-.093.64-.406.615-.308-.028-1.221-1.191-1.53-1.271-.313-.082-1.106.69-1.39.545-.286-.141-.54-.707-.775-.93-.233-.213-1.351-.218-1.566-.47-.212-.248.352-1.02.18-1.297-.169-.276-1.49-.908-1.566-1.21-.076-.304.328-.916.302-1.247-.03-.325-.476-1.045-.48-1.36.004-.314.639-.982.754-1.29.114-.307.108-1.085.227-1.38.119-.295 1.113-.313 1.283-.58.169-.265.097-.974.361-1.173.267-.201 1-.355 1.27-.523.27-.165.87-1.067 1.167-1.18.294-.11.774.625 1.086.557.316-.067 1.12-.736 1.444-.743.327-.005.883.134 1.182.232.297.1.731-.02 1.018.097z" fill="#408602" fill-opacity=".941"/><ellipse cx="11.112" cy="11.113" rx="8.467" ry="8.453" fill="#3f3f3f" fill-opacity=".611"/></svg>