<svg xmlns="http://www.w3.org/2000/svg" xmlns:xlink="http://www.w3.org/1999/xlink" width="512" height="512" viewBox="0 0 135.467 135.467"><defs><pattern xlink:href="#a" id="i" patternTransform="rotate(10.639 0 0) scale(.09922)"/><pattern xlink:href="#a" id="g" patternTransform="rotate(30.001 0 0) scale(.09922)"/><pattern xlink:href="#b" id="e" patternTransform="matrix(.26458 0 0 .26458 -157.638 200.474)"/><pattern xlink:href="#c" id="b" patternTransform="translate(-595.797 757.695)"/><pattern xlink:href="#d" id="c" patternTransform="matrix(.26458 0 0 .26458 -157.638 200.474)"/><pattern patternUnits="userSpaceOnUse" width="32" height="32" patternTransform="matrix(.26458 0 0 .26458 -50.8 211.666)" id="d"><path fill="none" stroke-width="1.89" d="M0 0h32v32H0z"/><path fill="#455368" stroke-width="2" d="M0 0h32v32H0z"/><path fill-opacity=".196" stroke-width="4" d="M0 0h8v32H0zM24 0h8v32h-8z"/><path d="M32 4v8C20 8 12 8 0 12V4c12-4 20-4 32 0z" fill-opacity=".394" stroke-width="4"/></pattern><pattern patternUnits="userSpaceOnUse" width="128" height="128" patternTransform="matrix(.26458 0 0 .26458 -67.733 135.466)" id="a"><path fill="none" stroke-width="3.78" d="M0 0h128v128H0z"/><path fill="#627693" stroke-width="8" d="M0 0h128v128H0z"/><path fill-opacity=".196" stroke-width="11.314" d="M64 0h16v128H64z"/><path d="M0 88c16 32 48 32 64 0v16c-16 24-48 24-64 0zM128 104c-16-32-48-32-64 0V88c16-24 48-24 64 0z" fill="#455368" stroke-width="5.657"/><path fill-opacity=".196" stroke-width="11.314" d="M112 0h16v128h-16z"/><path fill-opacity=".116" stroke-width="22.627" d="M0 0h64v128H0z"/></pattern><clipPath id="j"><path d="M3.229 67.734l3.121 1.058 3.175-1.058 2.17 2.905v30.351H3.23z" fill="url(#e)" stroke-width="2.117"/></clipPath><clipPath id="h"><path d="M98.07 67.907l-31.585-3.238 7.687-6.557 5.721-.14 7.75-5.708 1.257 7.003z" fill="#ab7421" stroke-width=".416"/></clipPath><clipPath id="f"><path d="M53.048 63.872l25.32 13.243-12.773 12.122-3.327-11.809-7.235-5.461z" fill="#cc8b27" stroke-width=".265"/></clipPath></defs><path transform="rotate(-171.479 65.857 78.655)" clip-path="url(#f)" d="M53.048 63.872l25.32 13.243-12.773 12.122-3.327-11.809-7.235-5.461z" fill="url(#g)" stroke="#191919" stroke-width="2.117"/><path transform="rotate(-39.434 102.47 58.625)" clip-path="url(#h)" d="M98.07 67.907l-31.585-3.238 7.687-6.557 5.721-.14 7.75-5.708 1.257 7.003z" fill="url(#i)" stroke="#191919" stroke-width="2.117"/><path transform="rotate(109.314 51.87 89.874)" clip-path="url(#j)" d="M3.229 67.734l3.121 1.058 3.175-1.058 2.17 2.905v30.351H3.23z" fill="url(#c)" stroke="#000" stroke-width="2.117"/><path d="M53.071 68.635l-3.173 1.972.336 3.554-17.855-10.77 3.48-.314-1.228-2.055 1.832-.237-.273-1.939z" fill="#3b4756" stroke="#191919" stroke-width="1.2"/><path d="M42.285 55.528l2.93 2.32 3.23-1.52-4.09 20.447-1.472-3.168-1.518 1.851-.844-1.644-1.732.912z" fill="#3b4756" stroke="#191919" stroke-width="1.2"/></svg>