<?xml version="1.0" encoding="UTF-8" standalone="no"?>
<svg
   xmlns:dc="http://purl.org/dc/elements/1.1/"
   xmlns:cc="http://creativecommons.org/ns#"
   xmlns:rdf="http://www.w3.org/1999/02/22-rdf-syntax-ns#"
   xmlns:svg="http://www.w3.org/2000/svg"
   xmlns="http://www.w3.org/2000/svg"
   xmlns:sodipodi="http://sodipodi.sourceforge.net/DTD/sodipodi-0.dtd"
   xmlns:inkscape="http://www.inkscape.org/namespaces/inkscape"
   width="108"
   height="108"
   viewBox="0 0 28.574998 28.575"
   version="1.1"
   id="svg12"
   sodipodi:docname="map-crate-21.svg"
   inkscape:version="0.92.2 (5c3e80d, 2017-08-06)">
  <metadata
     id="metadata18">
    <rdf:RDF>
      <cc:Work
         rdf:about="">
        <dc:format>image/svg+xml</dc:format>
        <dc:type
           rdf:resource="http://purl.org/dc/dcmitype/StillImage" />
        <dc:title></dc:title>
      </cc:Work>
    </rdf:RDF>
  </metadata>
  <defs
     id="defs16">
    <clipPath
       clipPathUnits="userSpaceOnUse"
       id="clipPath1206">
      <rect
         style="fill:#434e35;fill-opacity:1;stroke-width:0.66621482"
         rx="0"
         y="1.5831054e-005"
         x="-179.91644"
         height="28.57498"
         width="5.2916718"
         id="rect1208" />
    </clipPath>
    <clipPath
       clipPathUnits="userSpaceOnUse"
       id="clipPath1174">
      <rect
         style="fill:#434e35;fill-opacity:1;stroke-width:0.51604772"
         rx="0"
         y="-194.73309"
         x="-25.4"
         height="28.57498"
         width="3.1750023"
         id="rect1176" />
    </clipPath>
    <clipPath
       clipPathUnits="userSpaceOnUse"
       id="clipPath1180">
      <rect
         id="rect1182"
         width="2.1166692"
         height="28.57498"
         x="-28.575006"
         y="-194.73309"
         rx="0"
         style="fill:#434e35;fill-opacity:1;stroke-width:0.42135131" />
    </clipPath>
  </defs>
  <sodipodi:namedview
     pagecolor="#ffffff"
     bordercolor="#666666"
     borderopacity="1"
     objecttolerance="10"
     gridtolerance="10"
     guidetolerance="10"
     inkscape:pageopacity="0"
     inkscape:pageshadow="2"
     inkscape:window-width="1920"
     inkscape:window-height="1017"
     id="namedview14"
     showgrid="true"
     fit-margin-top="0"
     fit-margin-left="0"
     fit-margin-right="0"
     fit-margin-bottom="0"
     inkscape:zoom="3.2777778"
     inkscape:cx="25.725055"
     inkscape:cy="59.11596"
     inkscape:window-x="1912"
     inkscape:window-y="-8"
     inkscape:window-maximized="1"
     inkscape:current-layer="svg12">
    <inkscape:grid
       type="xygrid"
       id="grid904"
       empspacing="4"
       spacingy="1.0583333"
       spacingx="1.0583333"
       originx="0"
       originy="0" />
  </sodipodi:namedview>
  <rect
     clip-path="url(#clipPath1206)"
     style="fill:#3b452f;fill-opacity:1;stroke:#191919;stroke-width:1.58749998;stroke-miterlimit:4;stroke-dasharray:none;stroke-opacity:1"
     rx="0"
     y="1.5831054e-005"
     x="-179.91644"
     height="28.57498"
     width="5.2916718"
     id="rect1220"
     transform="translate(195.26229,-1e-5)" />
  <rect
     transform="translate(187.85395,-1e-5)"
     id="rect1222"
     width="5.2916718"
     height="28.57498"
     x="-179.91644"
     y="1.5831054e-005"
     rx="0"
     style="fill:#3b452f;fill-opacity:1;stroke:#191919;stroke-width:1.58749998;stroke-miterlimit:4;stroke-dasharray:none;stroke-opacity:1"
     clip-path="url(#clipPath1206)" />
  <rect
     transform="rotate(180,2.5e-6,-83.079059)"
     style="fill:#3b452f;fill-opacity:1;stroke:#191919;stroke-width:1.58749998;stroke-miterlimit:4;stroke-dasharray:none;stroke-opacity:1"
     rx="0"
     y="-194.73309"
     x="-28.575005"
     height="28.574978"
     width="2.1166692"
     id="rect1178"
     clip-path="url(#clipPath1180)" />
  <rect
     transform="rotate(180,2.5e-6,-83.079059)"
     id="rect1172"
     width="3.1750023"
     height="28.574978"
     x="-25.4"
     y="-194.73309"
     rx="0"
     style="fill:#3b452f;fill-opacity:1;stroke:#191919;stroke-width:1.58749998;stroke-miterlimit:4;stroke-dasharray:none;stroke-opacity:1"
     clip-path="url(#clipPath1174)" />
  <rect
     clip-path="url(#clipPath1180)"
     id="rect1184"
     width="2.1166692"
     height="28.574978"
     x="-28.575005"
     y="-194.73309"
     rx="0"
     style="fill:#3b452f;fill-opacity:1;stroke:#191919;stroke-width:1.58749998;stroke-miterlimit:4;stroke-dasharray:none;stroke-opacity:1"
     transform="translate(28.575006,194.73309)" />
  <rect
     clip-path="url(#clipPath1174)"
     style="fill:#3b452f;fill-opacity:1;stroke:#191919;stroke-width:1.58749998;stroke-miterlimit:4;stroke-dasharray:none;stroke-opacity:1"
     rx="0"
     y="-194.73309"
     x="-25.4"
     height="28.574978"
     width="3.1750023"
     id="rect1186"
     transform="translate(28.575006,194.73309)" />
  <g
     id="g954"
     transform="matrix(0.59510783,0,0,0.59510783,22.422467,31.582771)"
     style="stroke:#191919;stroke-width:0.97751307;stroke-miterlimit:4;stroke-dasharray:none;stroke-opacity:1">
    <path
       id="path2"
       d="m -15.351919,-26.394833 a 0.76834997,0.76834997 0 0 1 -0.343693,-1.031081 l 0.909373,-1.817688 a 0.76840424,0.76840424 0 1 1 1.37451,0.687388 l -0.909373,1.817687 a 0.76914372,0.76914372 0 0 1 -1.030817,0.343429 z"
       style="fill:#59422d;stroke:#191919;stroke-width:0.97751307;stroke-miterlimit:4;stroke-dasharray:none;stroke-opacity:1"
       inkscape:connector-curvature="0" />
    <path
       id="path4"
       d="m -21.662231,-26.738791 -0.909372,-1.817688 a 0.76840426,0.76840426 0 1 1 1.37451,-0.687387 l 0.909373,1.817952 a 0.76840441,0.76840441 0 1 1 -1.374511,0.687387 z"
       style="fill:#664b34;stroke:#191919;stroke-width:0.97751307;stroke-miterlimit:4;stroke-dasharray:none;stroke-opacity:1"
       inkscape:connector-curvature="0" />
    <path
       id="path6"
       d="m -10.257631,-11.229446 a 0.76782081,0.76782081 0 0 1 -0.768086,-0.76835 v -2.598208 l -2.373312,-1.186921 a 0.76834997,0.76834997 0 0 1 -0.343429,-1.030817 0.77073122,0.77073122 0 0 1 1.030816,-0.343958 l 2.7977052,1.399646 a 0.76861456,0.76861456 0 0 1 0.424656,0.687123 v 3.073135 a 0.76782081,0.76782081 0 0 1 -0.7683502,0.76835 z m 3.0734002,-3.073135 a 0.76782081,0.76782081 0 0 1 -0.76835,-0.76835 v -2.598209 l -2.4145882,-1.207293 a 0.76840468,0.76840468 0 1 1 0.6873882,-1.374511 l 2.838979,1.41949 a 0.76861456,0.76861456 0 0 1 0.424656,0.687387 v 3.073136 a 0.76782081,0.76782081 0 0 1 -0.768085,0.76835 z m 1.536435,-4.609836 a 0.76782081,0.76782081 0 0 1 -0.76835,-0.76835 v -2.304785 h -2.432314 a 0.76782081,0.76782081 0 0 1 -0.76835,-0.76835 0.76782081,0.76782081 0 0 1 0.76835,-0.76835 h 3.200664 a 0.76782081,0.76782081 0 0 1 0.76835,0.76835 v 3.073135 a 0.76782081,0.76782081 0 0 1 -0.76835,0.76835 z"
       style="fill:#e61e14;stroke:#191919;stroke-width:0.97751307;stroke-miterlimit:4;stroke-dasharray:none;stroke-opacity:1"
       inkscape:connector-curvature="0" />
    <path
       id="path8"
       d="m -25.725701,-11.229446 a 0.76782081,0.76782081 0 0 1 -0.76835,-0.76835 v -3.072871 c 0,-0.291041 0.164041,-0.556683 0.424656,-0.687123 l 2.797704,-1.399381 a 0.76840424,0.76840424 0 1 1 0.687388,1.37451 l -2.373313,1.186921 v 2.598209 a 0.76782081,0.76782081 0 0 1 -0.768085,0.768349 z m -3.0734,-3.073135 a 0.76782081,0.76782081 0 0 1 -0.768086,-0.76835 v -3.073136 c 0,-0.291041 0.164042,-0.556683 0.424657,-0.687387 l 2.838979,-1.41949 a 0.76840453,0.76840453 0 1 1 0.687387,1.374511 l -2.414587,1.207293 v 2.598209 a 0.76782081,0.76782081 0 0 1 -0.76835,0.76835 z m -1.536436,-4.609836 a 0.76782081,0.76782081 0 0 1 -0.76835,-0.76835 v -3.073135 a 0.76782081,0.76782081 0 0 1 0.76835,-0.76835 h 3.072871 a 0.76782081,0.76782081 0 0 1 0.76835,0.76835 0.76782081,0.76782081 0 0 1 -0.76835,0.76835 h -2.304521 v 2.304785 a 0.76782081,0.76782081 0 0 1 -0.76835,0.76835 z"
       style="fill:#fd3018;stroke:#191919;stroke-width:0.97751307;stroke-miterlimit:4;stroke-dasharray:none;stroke-opacity:1"
       inkscape:connector-curvature="0" />
    <path
       id="path10"
       d="m -6.2777688,-29.55581 c -0.033337,-0.567267 -0.701675,-0.917046 -1.167606,-0.583935 -0.722313,0.445558 -1.567392,0.491595 -2.320396,0.122766 -0.5357812,-0.251883 -1.1392962,0.156898 -1.1064872,0.753004 0.128323,1.023938 -0.321204,2.037292 -1.060186,2.776273 -0.418041,0.354013 -0.307975,1.045369 0.18468,1.275292 0.860424,0.368829 1.690158,0.875771 2.5659292,1.5367 0.301889,0.23495 0.763322,0.202141 1.045104,-0.107686 l 0.18415,-0.230187 c 1.309687,-1.650736 1.855523,-3.910013 1.674812,-5.542227 z"
       style="fill:#e61e14;stroke:#191919;stroke-width:0.97751307;stroke-miterlimit:4;stroke-dasharray:none;stroke-opacity:1"
       inkscape:connector-curvature="0" />
    <path
       id="path12"
       d="m -24.035543,-26.503312 a 3.2003999,3.2003999 0 0 1 -0.322792,-0.322792 c -0.584729,-0.682096 -0.83185,-1.694656 -0.737658,-2.453217 0.0344,-0.613304 -0.592667,-1.034785 -1.121569,-0.737658 -0.722312,0.368829 -1.64412,0.307446 -2.274093,-0.107421 -0.529696,-0.352954 -1.168136,0.02143 -1.198563,0.568854 -0.167481,1.673225 0.354542,3.866357 1.659467,5.511007 0.06138,0.09207 0.138377,0.168804 0.19976,0.245798 a 0.79374997,0.79374997 0 0 0 0.583936,0.261143 c 0.153458,0 0.322791,-0.04604 0.460904,-0.153458 0.799041,-0.599281 1.659731,-1.121833 2.566193,-1.5367 0.230453,-0.107685 0.399521,-0.322792 0.430213,-0.583935 a 0.73289581,0.73289581 0 0 0 -0.246063,-0.691357 z"
       style="fill:#fd3018;stroke:#191919;stroke-width:0.97751307;stroke-miterlimit:4;stroke-dasharray:none;stroke-opacity:1"
       inkscape:connector-curvature="0" />
    <path
       id="path14"
       d="m -8.2600268,-24.905229 c -0.967846,-0.722048 -1.9052652,-1.290637 -2.8424192,-1.72085 0,0 -1.982258,-0.891381 -3.76502,-1.213908 -1.136915,-0.184415 -2.043377,-0.307181 -3.072871,-0.291836 -0.860425,0 -1.915583,0.107421 -3.190875,0.291836 -0.922073,0.169069 -2.151327,0.537898 -3.226858,1.014148 -0.845344,0.307181 -2.182019,1.014148 -3.349625,1.905264 -0.03096,0.03096 -0.06165,0.0463 -0.0926,0.07673 a 0.79004581,0.79004581 0 0 0 -0.230187,0.553509 v 0.245798 c 0,0.168804 0.01508,0.353483 0.03043,0.522287 0.0463,0.522552 0.123031,1.029494 0.246062,1.5367 0.27649,1.213908 0.629708,1.936221 1.136915,2.827337 0.614627,0.998802 1.259946,1.782498 2.21271,2.566194 1.936221,1.551781 4.220633,2.28944 6.46377,2.28944 2.458773,0 4.717521,-0.922073 6.361642,-2.28944 0.829733,-0.722312 1.35202,-1.321594 1.8285352,-1.982258 a 12.927541,12.927541 0 0 0 0.384175,-0.583936 c 0.138112,-0.246062 0.27649,-0.47625 0.399521,-0.737658 0.753004,-1.536435 0.875771,-2.627312 1.014148,-4.117975 v -0.276489 c 0,-0.246063 -0.107686,-0.47625 -0.307446,-0.614893 z"
       style="fill:#fd4e26;stroke:#191919;stroke-width:0.97751307;stroke-miterlimit:4;stroke-dasharray:none;stroke-opacity:1"
       inkscape:connector-curvature="0" />
    <path
       id="path16"
       d="m -4.8794458,-32.075702 c 0,-2.965979 -2.412471,-5.378185 -5.3781852,-5.378185 h -1.536436 a 0.76067706,0.76067706 0 0 0 -0.76835,0.76835 v 4.609835 c 0,2.138892 1.762125,3.841221 3.8417502,3.841221 1.976438,0 3.841221,-1.601523 3.841221,-3.841221 z"
       style="fill:#fd3018;stroke:#191919;stroke-width:0.97751307;stroke-miterlimit:4;stroke-dasharray:none;stroke-opacity:1"
       inkscape:connector-curvature="0" />
    <path
       id="path18"
       d="m -24.189266,-37.453887 h -1.536171 c -2.965979,0 -5.378185,2.412471 -5.378185,5.378185 0,2.170113 1.790171,3.841221 3.841485,3.841221 2.034117,0 3.841486,-1.617662 3.841486,-3.841221 v -4.609835 a 0.76067706,0.76067706 0 0 0 -0.76835,-0.76835 z"
       style="fill:#fd4e26;stroke:#191919;stroke-width:0.97751307;stroke-miterlimit:4;stroke-dasharray:none;stroke-opacity:1"
       inkscape:connector-curvature="0" />
    <path
       id="path20"
       d="m -7.9525808,-24.290337 v 0.276489 c -0.138377,1.490398 -0.261144,2.58154 -1.014148,4.117975 -0.123031,0.261144 -0.261144,0.491861 -0.399521,0.737658 a 12.927541,12.927541 0 0 1 -0.384175,0.583936 c -0.4762502,0.660664 -0.9988022,1.259946 -1.8282712,1.982258 -1.644385,1.367367 -3.903133,2.28944 -6.361641,2.28944 v -13.829242 c 1.029229,-0.01535 1.935956,0.107421 3.073135,0.291836 1.782233,0.322791 3.764492,1.213908 3.764492,1.213908 0.937418,0.430213 1.8745722,0.998802 2.8426832,1.72085 0.19976,0.138377 0.307446,0.368829 0.307446,0.614892 z"
       style="fill:#fd3018;stroke:#191919;stroke-width:0.97751307;stroke-miterlimit:4;stroke-dasharray:none;stroke-opacity:1"
       inkscape:connector-curvature="0" />
  </g>
  <rect
     clip-path="url(#clipPath1180)"
     id="rect1190"
     width="2.1166692"
     height="28.574978"
     x="-28.575005"
     y="-194.73309"
     rx="0"
     style="fill:#3b452f;fill-opacity:1;stroke:#191919;stroke-width:1.58749998;stroke-miterlimit:4;stroke-dasharray:none;stroke-opacity:1"
     transform="rotate(-90,97.366557,-97.366563)" />
  <rect
     clip-path="url(#clipPath1174)"
     style="fill:#3b452f;fill-opacity:1;stroke:#191919;stroke-width:1.58749998;stroke-miterlimit:4;stroke-dasharray:none;stroke-opacity:1"
     rx="0"
     y="-194.73309"
     x="-25.4"
     height="28.574978"
     width="3.1750023"
     id="rect1192"
     transform="rotate(-90,97.366557,-97.366563)" />
  <rect
     transform="rotate(90,-97.366548,-68.791558)"
     style="fill:#3b452f;fill-opacity:1;stroke:#191919;stroke-width:1.58749998;stroke-miterlimit:4;stroke-dasharray:none;stroke-opacity:1"
     rx="0"
     y="-194.73309"
     x="-28.575005"
     height="28.574978"
     width="2.1166692"
     id="rect1196"
     clip-path="url(#clipPath1180)" />
  <rect
     transform="rotate(90,-97.366548,-68.791558)"
     id="rect1198"
     width="3.1750023"
     height="28.574978"
     x="-25.4"
     y="-194.73309"
     rx="0"
     style="fill:#3b452f;fill-opacity:1;stroke:#191919;stroke-width:1.58749998;stroke-miterlimit:4;stroke-dasharray:none;stroke-opacity:1"
     clip-path="url(#clipPath1174)" />
  <rect
     transform="rotate(-90,-83.343638,-83.34364)"
     id="rect1204"
     width="5.2916718"
     height="28.57498"
     x="-179.91644"
     y="1.5831054e-005"
     rx="0"
     style="fill:#3b452f;fill-opacity:1;stroke:#191919;stroke-width:1.58749998;stroke-miterlimit:4;stroke-dasharray:none;stroke-opacity:1"
     clip-path="url(#clipPath1206)" />
  <rect
     clip-path="url(#clipPath1206)"
     style="fill:#3b452f;fill-opacity:1;stroke:#191919;stroke-width:1.58749998;stroke-miterlimit:4;stroke-dasharray:none;stroke-opacity:1"
     rx="0"
     y="1.5831054e-005"
     x="-179.91644"
     height="28.57498"
     width="5.2916718"
     id="rect1210"
     transform="rotate(-90,-79.639468,-79.639472)" />
</svg>
