<?xml version="1.0" encoding="UTF-8" standalone="no"?>
<svg
   xmlns:dc="http://purl.org/dc/elements/1.1/"
   xmlns:cc="http://creativecommons.org/ns#"
   xmlns:rdf="http://www.w3.org/1999/02/22-rdf-syntax-ns#"
   xmlns:svg="http://www.w3.org/2000/svg"
   xmlns="http://www.w3.org/2000/svg"
   xmlns:sodipodi="http://sodipodi.sourceforge.net/DTD/sodipodi-0.dtd"
   xmlns:inkscape="http://www.inkscape.org/namespaces/inkscape"
   width="144"
   height="144"
   viewBox="0 0 38.1 38.1"
   version="1.1"
   id="svg10"
   sodipodi:docname="map-pumpkin-01.svg"
   inkscape:version="0.92.2 (5c3e80d, 2017-08-06)">
  <metadata
     id="metadata16">
    <rdf:RDF>
      <cc:Work
         rdf:about="">
        <dc:format>image/svg+xml</dc:format>
        <dc:type
           rdf:resource="http://purl.org/dc/dcmitype/StillImage" />
        <dc:title />
      </cc:Work>
    </rdf:RDF>
  </metadata>
  <defs
     id="defs14" />
  <sodipodi:namedview
     pagecolor="#ffffff"
     bordercolor="#666666"
     borderopacity="1"
     objecttolerance="10"
     gridtolerance="10"
     guidetolerance="10"
     inkscape:pageopacity="0"
     inkscape:pageshadow="2"
     inkscape:window-width="1920"
     inkscape:window-height="1017"
     id="namedview12"
     showgrid="true"
     inkscape:zoom="0.57943472"
     inkscape:cx="-206.52226"
     inkscape:cy="78.349619"
     inkscape:window-x="1912"
     inkscape:window-y="-8"
     inkscape:window-maximized="1"
     inkscape:current-layer="svg10">
    <inkscape:grid
       type="xygrid"
       id="grid823"
       empspacing="4"
       spacingy="1.0583333"
       spacingx="1.0583333" />
  </sodipodi:namedview>
  <path
     style="fill:#f47500;fill-opacity:1;stroke:#323232;stroke-width:2.03373981;stroke-linecap:butt;stroke-linejoin:miter;stroke-miterlimit:4;stroke-dasharray:none;stroke-opacity:1"
     d="m 19.050001,36.47746 c -3.073797,0 -6.002279,-2.936673 -6.002279,-2.936673 0,0 -4.1472921,0.0059 -6.3207953,-2.167713 -2.1735043,-2.173506 -2.1677114,-6.320793 -2.1677114,-6.320793 0,0 -2.9366736,-2.928484 -2.9366736,-6.002281 0,-3.073798 2.9366736,-6.002281 2.9366736,-6.002281 0,0 -0.00581,-4.1472905 2.1677104,-6.3207943 2.1735042,-2.1735038 6.3207953,-2.167711 6.3207953,-2.167711 0,0 2.928481,-2.9366737 6.00228,-2.9366737 3.073798,0 6.002279,2.9366737 6.002279,2.9366737 0,0 4.14729,-0.00578 6.320794,2.167711 2.173505,2.1735038 2.167713,6.3207933 2.167713,6.3207933 0,0 2.936671,2.928484 2.936671,6.002282 0,3.073797 -2.936671,6.002281 -2.936671,6.002281 0,0 0.0058,4.147287 -2.167712,6.320793 -2.173504,2.173506 -6.320795,2.167713 -6.320795,2.167713 0,0 -2.928481,2.936673 -6.002279,2.936673 z"
     id="path920"
     inkscape:connector-curvature="0"
     sodipodi:nodetypes="scccscccscccscccs" />
  <path
     sodipodi:nodetypes="cc"
     inkscape:connector-curvature="0"
     id="path923"
     d="m 25.400003,25.399999 4.23333,4.233334"
     style="fill:none;stroke:#aa5618;stroke-width:1.05833328;stroke-linecap:round;stroke-linejoin:round;stroke-miterlimit:4;stroke-dasharray:none;stroke-opacity:1" />
  <path
     style="fill:none;stroke:#aa5618;stroke-width:1.05833328;stroke-linecap:round;stroke-linejoin:round;stroke-miterlimit:4;stroke-dasharray:none;stroke-opacity:1"
     d="M 8.466667,8.466667 12.700001,12.7"
     id="path925"
     inkscape:connector-curvature="0"
     sodipodi:nodetypes="cc" />
  <path
     style="fill:none;stroke:#aa5618;stroke-width:1.05833328;stroke-linecap:round;stroke-linejoin:round;stroke-miterlimit:4;stroke-dasharray:none;stroke-opacity:1"
     d="M 12.700001,25.4 8.466667,29.633333"
     id="path927"
     inkscape:connector-curvature="0"
     sodipodi:nodetypes="cc" />
  <path
     sodipodi:nodetypes="cc"
     inkscape:connector-curvature="0"
     id="path929"
     d="m 29.633333,8.466667 -4.23333,4.233334"
     style="fill:none;stroke:#aa5618;stroke-width:1.05833328;stroke-linecap:round;stroke-linejoin:round;stroke-miterlimit:4;stroke-dasharray:none;stroke-opacity:1" />
  <path
     style="fill:none;stroke:#aa5618;stroke-width:1.05833328;stroke-linecap:round;stroke-linejoin:round;stroke-miterlimit:4;stroke-dasharray:none;stroke-opacity:1"
     d="m 19.050001,28.030255 -1e-6,5.986838"
     id="path931"
     inkscape:connector-curvature="0"
     sodipodi:nodetypes="cc" />
  <path
     sodipodi:nodetypes="cc"
     inkscape:connector-curvature="0"
     id="path933"
     d="m 19.05,4.082907 1e-6,5.986838"
     style="fill:none;stroke:#aa5618;stroke-width:1.05833328;stroke-linecap:round;stroke-linejoin:round;stroke-miterlimit:4;stroke-dasharray:none;stroke-opacity:1" />
  <path
     sodipodi:nodetypes="cc"
     inkscape:connector-curvature="0"
     id="path935"
     d="M 10.069744,19.050001 4.082907,19.05"
     style="fill:none;stroke:#aa5618;stroke-width:1.05833328;stroke-linecap:round;stroke-linejoin:round;stroke-miterlimit:4;stroke-dasharray:none;stroke-opacity:1" />
  <path
     style="fill:none;stroke:#aa5618;stroke-width:1.05833328;stroke-linecap:round;stroke-linejoin:round;stroke-miterlimit:4;stroke-dasharray:none;stroke-opacity:1"
     d="m 34.017093,19.05 -5.98684,1e-6"
     id="path937"
     inkscape:connector-curvature="0"
     sodipodi:nodetypes="cc" />
  <path
     style="fill:#aa6318;fill-opacity:1;stroke:#323232;stroke-width:1.58749998;stroke-linecap:butt;stroke-linejoin:miter;stroke-miterlimit:4;stroke-dasharray:none;stroke-opacity:1"
     inkscape:transform-center-y="-0.19717456"
     d="m 19.049999,15.626326 c 0.993155,0 1.635189,1.409815 1.635189,1.409815 0,0 1.539211,0.17495 1.846114,1.1195 0.306901,0.94455 -0.835513,1.99081 -0.835513,1.99081 0,0 0.309253,1.51794 -0.494226,2.10171 -0.80348,0.58376 -2.151564,-0.17943 -2.151564,-0.17943 0,0 -1.348083,0.76319 -2.151562,0.17943 -0.803478,-0.58377 -0.494227,-2.10171 -0.494227,-2.10171 0,0 -1.142413,-1.04626 -0.835512,-1.99081 0.306902,-0.94455 1.846115,-1.1195 1.846115,-1.1195 0,0 0.642033,-1.409815 1.635186,-1.409815 z"
     id="path941"
     inkscape:connector-curvature="0"
     sodipodi:nodetypes="scscscscscs" />
</svg>
