<?xml version="1.0" encoding="UTF-8" standalone="no"?>
<svg
   xmlns:dc="http://purl.org/dc/elements/1.1/"
   xmlns:cc="http://creativecommons.org/ns#"
   xmlns:rdf="http://www.w3.org/1999/02/22-rdf-syntax-ns#"
   xmlns:svg="http://www.w3.org/2000/svg"
   xmlns="http://www.w3.org/2000/svg"
   xmlns:sodipodi="http://sodipodi.sourceforge.net/DTD/sodipodi-0.dtd"
   xmlns:inkscape="http://www.inkscape.org/namespaces/inkscape"
   width="144"
   height="144"
   viewBox="0 0 38.1 38.1"
   version="1.1"
   id="svg4"
   sodipodi:docname="map-potato-res-01.svg"
   inkscape:version="0.92.2 (5c3e80d, 2017-08-06)">
  <metadata
     id="metadata10">
    <rdf:RDF>
      <cc:Work
         rdf:about="">
        <dc:format>image/svg+xml</dc:format>
        <dc:type
           rdf:resource="http://purl.org/dc/dcmitype/StillImage" />
      </cc:Work>
    </rdf:RDF>
  </metadata>
  <defs
     id="defs8" />
  <sodipodi:namedview
     pagecolor="#ffffff"
     bordercolor="#666666"
     borderopacity="1"
     objecttolerance="10"
     gridtolerance="10"
     guidetolerance="10"
     inkscape:pageopacity="0"
     inkscape:pageshadow="2"
     inkscape:window-width="1920"
     inkscape:window-height="1017"
     id="namedview6"
     showgrid="false"
     inkscape:zoom="2.3177389"
     inkscape:cx="-32.908141"
     inkscape:cy="102.34012"
     inkscape:window-x="1912"
     inkscape:window-y="-8"
     inkscape:window-maximized="1"
     inkscape:current-layer="svg4" />
  <path
     d="m 26.70988,25.927247 c 0.464442,-1.460183 0.27153,-2.827169 -0.224361,-3.991959 -0.584699,-1.37076 -1.607723,-2.449132 -2.424863,-2.961498 -1.760332,-1.103871 -3.467325,-0.730605 -4.270874,0.196406 0,0 -0.785209,0.866397 -0.629951,1.939473 0.104123,0.604499 0.323717,1.081952 1.05216,1.708574 0.770299,0.662182 2.335613,0.946931 3.772725,1.36819 0.719015,0.211911 1.407609,0.462547 1.957826,0.866663 0.318557,0.229643 0.580909,0.528515 0.767332,0.874149 z"
     id="path1007"
     inkscape:connector-curvature="0"
     style="fill:#28a200;stroke:#191919;stroke-width:0.5291667;stroke-miterlimit:4;stroke-dasharray:none"
     sodipodi:nodetypes="cccccccccc" />
  <path
     sodipodi:nodetypes="ccccccc"
     inkscape:connector-curvature="0"
     id="path1009"
     d="m 22.270058,18.392403 1.135277,0.304524 c -0.638887,0.02541 -2.532439,1.694302 -2.532439,1.694302 0,0 -0.56369,1.596198 -0.42914,2.458258 l -0.677653,-0.566629 c -0.04789,-0.827196 0.436013,-2.243901 0.436013,-2.243901 0.730604,-0.738735 2.067942,-1.646553 2.067942,-1.646554 z"
     style="fill:#196400;fill-opacity:1;stroke:#191919;stroke-width:0.40296042;stroke-linecap:square;stroke-linejoin:miter;stroke-miterlimit:4;stroke-dasharray:none;stroke-opacity:1;paint-order:fill markers stroke" />
  <path
     style="fill:#196400;fill-opacity:1;stroke:#191919;stroke-width:0.40296042;stroke-linecap:square;stroke-linejoin:miter;stroke-miterlimit:4;stroke-dasharray:none;stroke-opacity:1;paint-order:fill markers stroke"
     d="m 24.623074,19.540372 0.888427,0.86421 c -0.638886,0.02541 -2.289045,1.065503 -2.289045,1.065503 0,0 -0.394403,1.475469 -0.259855,2.337526 l -0.955216,-0.301907 c -0.04789,-0.827197 0.234324,-2.443982 0.234324,-2.443982 0.730604,-0.738735 2.381363,-1.521343 2.381363,-1.521343 z"
     id="path1011"
     inkscape:connector-curvature="0"
     sodipodi:nodetypes="cccccccc" />
  <path
     sodipodi:nodetypes="cccccc"
     inkscape:connector-curvature="0"
     id="path1013"
     d="m 26.888057,24.588301 -0.266359,0.866031 C 21.74292,19.702804 17.669527,19.74748 17.669527,19.74748 l 0.281985,-1.011794 c 0,0 5.340933,0.822165 8.936542,5.852615 z"
     style="fill:#196400;fill-opacity:1;stroke:#191919;stroke-width:0.40296042;stroke-linecap:square;stroke-linejoin:miter;stroke-miterlimit:4;stroke-dasharray:none;stroke-opacity:1;paint-order:fill markers stroke" />
  <g
     style="stroke-width:0.5291667;stroke-miterlimit:4;stroke-dasharray:none"
     transform="rotate(-129.05988,19.527311,18.97336)"
     id="g1005">
    <path
       d="m 23.611955,8.991224 c -1.531265,-0.05538 -2.796277,0.49744 -3.785176,1.287834 -1.163465,0.931238 -1.927601,2.206213 -2.201782,3.130909 -0.590755,1.992061 0.227079,3.536179 1.335785,4.061356 0,0 1.045393,0.523785 2.037394,0.08614 0.554353,-0.262588 0.955325,-0.602301 1.36338,-1.472229 0.431072,-0.919795 0.285132,-2.50409 0.305109,-4.001538 0.0111,-0.74951 0.06767,-1.480113 0.309235,-2.118623 0.135691,-0.368514 0.353158,-0.701472 0.636055,-0.973842 z"
       id="path997"
       inkscape:connector-curvature="0"
       style="fill:#28a200;stroke:#191919;stroke-width:0.5291667;stroke-miterlimit:4;stroke-dasharray:none"
       sodipodi:nodetypes="cccccccccc" />
    <path
       sodipodi:nodetypes="ccccccc"
       inkscape:connector-curvature="0"
       id="path999"
       d="m 17.54567,15.290913 -0.01144,-1.175354 c 0.195994,0.608612 2.311979,1.984606 2.311979,1.984606 0,0 1.688932,0.114469 2.483222,-0.246576 l -0.363899,0.804897 c -0.783974,0.268202 -2.278581,0.182407 -2.278581,0.182407 -0.907758,-0.505457 -2.14128,-1.54998 -2.141281,-1.54998 z"
       style="fill:#196400;fill-opacity:1;stroke:#191919;stroke-width:0.5291667;stroke-linecap:square;stroke-linejoin:miter;stroke-miterlimit:4;stroke-dasharray:none;stroke-opacity:1;paint-order:fill markers stroke" />
    <path
       style="fill:#196400;fill-opacity:1;stroke:#191919;stroke-width:0.5291667;stroke-linecap:square;stroke-linejoin:miter;stroke-miterlimit:4;stroke-dasharray:none;stroke-opacity:1;paint-order:fill markers stroke"
       d="m 18.019788,12.716087 0.593971,-1.087824 c 0.195994,0.608611 1.64092,1.918959 1.64092,1.918959 0,0 1.527187,-0.01619 2.321476,-0.377233 l -0.03438,1.001201 c -0.783974,0.268202 -2.417169,0.430407 -2.417169,0.430407 -0.907758,-0.505457 -2.10481,-1.88551 -2.10481,-1.88551 z"
       id="path1001"
       inkscape:connector-curvature="0"
       sodipodi:nodetypes="cccccccc" />
    <path
       sodipodi:nodetypes="cccccc"
       inkscape:connector-curvature="0"
       id="path1003"
       d="m 22.274329,9.179051 0.905746,0.02408 C 18.949484,15.4469 20.086092,19.35876 20.086092,19.35876 h -1.050354 c 0,0 -0.641882,-5.365585 3.238591,-10.179706 z"
       style="fill:#196400;fill-opacity:1;stroke:#191919;stroke-width:0.5291667;stroke-linecap:square;stroke-linejoin:miter;stroke-miterlimit:4;stroke-dasharray:none;stroke-opacity:1;paint-order:fill markers stroke" />
  </g>
  <g
     style="stroke-width:0.5291667;stroke-miterlimit:4;stroke-dasharray:none"
     transform="rotate(-7.5004578,30.154417,22.87686)"
     id="g995">
    <path
       sodipodi:nodetypes="cccccccccc"
       style="fill:#28a200;stroke:#191919;stroke-width:0.5291667;stroke-miterlimit:4;stroke-dasharray:none"
       inkscape:connector-curvature="0"
       id="path826"
       d="m 23.611955,8.991224 c -1.531265,-0.05538 -2.796277,0.49744 -3.785176,1.287834 -1.163465,0.931238 -1.927601,2.206213 -2.201782,3.130909 -0.590755,1.992061 0.227079,3.536179 1.335785,4.061356 0,0 1.045393,0.523785 2.037394,0.08614 0.554353,-0.262588 0.955325,-0.602301 1.36338,-1.472229 0.431072,-0.919795 0.285132,-2.50409 0.305109,-4.001538 0.0111,-0.74951 0.06767,-1.480113 0.309235,-2.118623 0.135691,-0.368514 0.353158,-0.701472 0.636055,-0.973842 z" />
    <path
       style="fill:#196400;fill-opacity:1;stroke:#191919;stroke-width:0.5291667;stroke-linecap:square;stroke-linejoin:miter;stroke-miterlimit:4;stroke-dasharray:none;stroke-opacity:1;paint-order:fill markers stroke"
       d="m 17.54567,15.290913 -0.01144,-1.175354 c 0.195994,0.608612 2.311979,1.984606 2.311979,1.984606 0,0 1.688932,0.114469 2.483222,-0.246576 l -0.363899,0.804897 c -0.783974,0.268202 -2.278581,0.182407 -2.278581,0.182407 -0.907758,-0.505457 -2.14128,-1.54998 -2.141281,-1.54998 z"
       id="path820"
       inkscape:connector-curvature="0"
       sodipodi:nodetypes="ccccccc" />
    <path
       sodipodi:nodetypes="cccccccc"
       inkscape:connector-curvature="0"
       id="path847"
       d="m 18.019788,12.716087 0.593971,-1.087824 c 0.195994,0.608611 1.64092,1.918959 1.64092,1.918959 0,0 1.527187,-0.01619 2.321476,-0.377233 l -0.03438,1.001201 c -0.783974,0.268202 -2.417169,0.430407 -2.417169,0.430407 -0.907758,-0.505457 -2.10481,-1.88551 -2.10481,-1.88551 z"
       style="fill:#196400;fill-opacity:1;stroke:#191919;stroke-width:0.5291667;stroke-linecap:square;stroke-linejoin:miter;stroke-miterlimit:4;stroke-dasharray:none;stroke-opacity:1;paint-order:fill markers stroke" />
    <path
       style="fill:#196400;fill-opacity:1;stroke:#191919;stroke-width:0.5291667;stroke-linecap:square;stroke-linejoin:miter;stroke-miterlimit:4;stroke-dasharray:none;stroke-opacity:1;paint-order:fill markers stroke"
       d="m 22.274329,9.179051 0.905746,0.02408 C 18.949484,15.4469 20.086092,19.35876 20.086092,19.35876 h -1.050354 c 0,0 -0.641882,-5.365585 3.238591,-10.179706 z"
       id="rect832"
       inkscape:connector-curvature="0"
       sodipodi:nodetypes="cccccc" />
  </g>
  <path
     sodipodi:nodetypes="sccccs"
     inkscape:connector-curvature="0"
     id="path920-1"
     d="m 21.193631,31.004701 c 1.319533,-0.452067 2.144742,-2.14346 2.144742,-2.14346 0,0 -3.028368,-2.692998 -3.970432,-3.345429 l -1.10363,1.254341 -0.07925,3.856591 c 0,0 1.689037,0.830024 3.00857,0.377957 z"
     style="fill:#6b533f;fill-opacity:1;stroke:#323232;stroke-width:0.5291667;stroke-linecap:butt;stroke-linejoin:miter;stroke-miterlimit:4;stroke-dasharray:none;stroke-opacity:1" />
  <path
     style="fill:#6b533f;fill-opacity:1;stroke:#323232;stroke-width:0.5291667;stroke-linecap:butt;stroke-linejoin:miter;stroke-miterlimit:4;stroke-dasharray:none;stroke-opacity:1"
     d="m 8.0179801,15.796539 c 0.095143,1.391575 1.5153232,2.62643 1.5153232,2.62643 0,0 1.8109887,-0.573413 2.6850127,-1.314515 l 0.648087,-3.045439 -3.7046693,-1.074709 c 0,0 -1.2388965,1.416658 -1.1437536,2.808233 z"
     id="path913"
     inkscape:connector-curvature="0"
     sodipodi:nodetypes="sccccs" />
  <path
     sodipodi:nodetypes="sccccs"
     inkscape:connector-curvature="0"
     id="path915"
     d="m 29.695942,13.558003 c -0.452064,-1.319534 -1.013375,-2.306183 -1.013375,-2.306183 0,0 -2.733358,1.615762 -3.385789,2.557826 l 0.729659,2.435516 2.928306,0.281051 c 0,0 1.193266,-1.648677 0.741199,-2.96821 z"
     style="fill:#6b533f;fill-opacity:1;stroke:#323232;stroke-width:0.5291667;stroke-linecap:butt;stroke-linejoin:miter;stroke-miterlimit:4;stroke-dasharray:none;stroke-opacity:1" />
  <path
     sodipodi:nodetypes="sssss"
     inkscape:connector-curvature="0"
     id="path837"
     d="m 28.447344,15.494126 c -0.365653,0.416245 -1.110887,0.363253 -1.539752,-0.0098 -0.428864,-0.373073 -0.378958,-0.924952 -0.0133,-1.341197 0.365654,-0.416244 1.008069,-0.304246 1.436933,0.06882 0.428865,0.373073 0.481778,0.865945 0.116123,1.28219 z"
     style="fill:#5a4433;fill-opacity:1;stroke:none;stroke-width:0.65161622;stroke-linecap:square;stroke-linejoin:miter;stroke-miterlimit:4;stroke-dasharray:none;stroke-opacity:1;paint-order:fill markers stroke" />
  <path
     style="fill:#5a4433;fill-opacity:1;stroke:none;stroke-width:0.57205284;stroke-linecap:square;stroke-linejoin:miter;stroke-miterlimit:4;stroke-dasharray:none;stroke-opacity:1;paint-order:fill markers stroke"
     d="M 9.4123975,15.567983 C 8.9471658,15.343972 8.8663592,14.759085 9.1495079,14.373722 c 0.283168,-0.385364 0.8230809,-0.425278 1.2883141,-0.201263 0.465231,0.224012 0.47107,0.737645 0.187908,1.123009 -0.283167,0.385365 -0.7481122,0.496533 -1.2133443,0.27252 z"
     id="path924"
     inkscape:connector-curvature="0"
     sodipodi:nodetypes="sssss" />
  <path
     sodipodi:nodetypes="sssss"
     inkscape:connector-curvature="0"
     id="path926"
     d="m 19.252397,29.752282 c -0.280713,-0.267924 -0.32947,-0.967465 -0.158623,-1.42837 0.170858,-0.460906 0.496632,-0.508644 0.777345,-0.240716 0.280711,0.267924 0.284234,0.882244 0.11338,1.34315 -0.170858,0.460908 -0.451397,0.593868 -0.732109,0.325942 z"
     style="fill:#5a4433;fill-opacity:1;stroke:none;stroke-width:0.48596254;stroke-linecap:square;stroke-linejoin:miter;stroke-miterlimit:4;stroke-dasharray:none;stroke-opacity:1;paint-order:fill markers stroke" />
</svg>
