<svg xmlns="http://www.w3.org/2000/svg" width="880" height="928" viewBox="0 0 232.833 245.534"><defs><clipPath id="b"><path clip-path="url(#clipPath6865)" d="M402.14 158.55h9.526v-42.334h-9.525z" fill="#a3977d" stroke-width="1.984"/></clipPath><clipPath id="c"><path d="M-22.25 168.075v-9.525h-46.568v9.525z" clip-path="url(#clipPath6865)" fill="#a3977d" stroke-width="2.081"/></clipPath><clipPath id="d"><path d="M-70.934 202.47h50.8v-60.854h-8.467v48.155l-4.233 4.233h-25.4l-4.234-4.233v-48.155h-8.466z" fill="#a3977d" stroke-width="5.144"/></clipPath><clipPath id="a"><ellipse ry="10.319" rx="10.335" cy="243.216" cx="-24.735" fill="#3f3f3f" fill-opacity=".612" stroke-width="3.49" stroke-opacity=".706"/></clipPath><clipPath id="e"><path d="M235.358 100V64H59.36v36z"/></clipPath></defs><g fill="#445a17" stroke="#000" stroke-width=".529"><path d="M119.105 88.625l-2.117 2.117h-2.117l-2.116 2.116h-2.117l-1.058 1.143h-2.942l1.227-1.312h.741l1.609-1.693h1.99l1.608-1.651h2.117l3.175-2.837z"/><path d="M119.084 92.16l-2.117-2.117h-2.117l-2.116-2.116h-1.588l-1.46-1.038h-1.715l-2.032 2.562h1.884l.698-.868h1.038l1.63 1.206h.994l1.609 1.672h2.117l3.175 2.816zm.02-11.282l-2.116 2.117h-2.117l-2.116 2.116h-2.117l-1.058-1.058h-2.117l-2.117-2.117h2.498l.677.657 2.117.02.572.636h.994l1.61-1.672h2.116l3.175-2.816zm0-6.307h-2.941l-2.117-1.461h-2.117l-1.884 2.201 1.884-.02.572-.636h.995l1.862 1.291 3.726.021zm0 23.939h-2.941l-2.117 1.46h-2.117l-1.884-2.18h1.884l.572.656h.995l1.862-1.312h3.726zm32.343 2.01l2.117 2.117v2.117l2.117 2.117v2.116l1.143 1.059v2.942l-1.313-1.228v-.74l-1.693-1.588v-2.011l-1.672-1.609v-2.116l-2.815-3.175zm-7.768.022l-2.117 2.117v2.116l-2.116 2.117v1.587l-1.037 1.46v1.715l2.56 2.032v-1.884l-.867-.698.021-1.037 1.185-1.63v-.995l1.673-1.609v-2.116l2.815-3.175zm-12.7-.021l2.117 2.116v2.117l2.116 2.117v2.116l-1.058 1.059v2.116l-2.117 2.117v-2.498l.678-.677v-2.117l.656-.571-.021-.995-1.651-1.609v-2.116l-2.837-3.175zm-5.609 0v2.942l-1.46 2.116v2.117l2.2 1.884-.02-1.884-.635-.571v-.995l1.29-1.842.022-3.746zm38.036 0v2.942l1.44 2.116v2.117l-2.18 1.884.02-1.884.636-.571v-.995l-1.313-1.842v-3.746zm4.615-16.066l2.116-2.116h2.117l2.117-2.117h2.116l1.059-1.143h2.92l-1.206 1.312h-.762l-1.587 1.694h-1.99l-1.609 1.672h-2.116l-3.175 2.815z"/><path d="M168.02 80.92l2.117 2.117h2.117l2.117 2.117h1.587l1.46 1.037h1.715l2.053-2.54h-1.884l-.698.847h-1.058l-1.61-1.186-1.015-.02-1.609-1.652h-2.116l-3.175-2.836zm0 11.303l2.117-2.116h2.117l2.117-2.117h2.116l1.059 1.058h2.116l2.117 2.117h-2.498l-.677-.677h-2.117l-.571-.656-.995.02-1.609 1.652h-2.116l-3.175 2.836zm-17.97 8.277l-1.65 2.116v2.117l-1.525 2.116v2.117l1.503 2.096h1.736l2.116 2.18v-2.18l-1.375-1.419h-1.461l-.868-1.248v-.995l1.27-1.863v-1.863l2.392-3.174zm17.97-1.99h2.922l2.116 1.46h2.117l1.884-2.18h-1.884l-.572.656h-.994l-1.842-1.312h-3.746zm0-23.94h2.922l2.116-1.46h2.117l1.884 2.201-1.884-.02-.572-.636h-.994l-1.842 1.291-3.746.021z"/></g><g fill="#3f3f3f" fill-opacity=".612" transform="translate(28.018 44.32)"><ellipse cx="115.888" cy="114.212" rx="12.67" ry="12.612"/><ellipse transform="translate(140.623 -128.916)" clip-path="url(#a)" ry="10.319" rx="10.335" cy="243.216" cx="-24.735" stroke="#404040" stroke-width="2.117" stroke-opacity=".5"/></g><path d="M141.114 140.657c-.637.106-2.204 3.977-2.799 4.23-.593.257-4.291-1.419-4.816-1.055-.533.362-.104 4.479-.513 4.97-.419.497-4.732.811-4.98 1.417-.253.607 1.725 3.732 1.59 4.37-.146.637-3.301 3.65-3.25 4.307.05.658 3.318 3.045 3.518 3.67.19.62-1.112 4.131-.78 4.706.324.572 3.47.804 3.938 1.251.468.448 1.29 3.9 1.838 4.27.546.366 3.375-.665 4.004-.476.625.193 3.052 3.423 3.693 3.478.642.055 3.203-3.46 3.832-3.55.631-.096 3.753 1.718 4.352 1.482.594-.234 1.886-3.326 2.411-3.69.523-.369 3.471-.593 3.865-1.1.398-.504-.134-3.546.139-4.129.268-.58 3.774-2.282 3.91-2.926l.005-.003c.139-.64-2.424-3.713-2.466-4.375-.04-.658 1.948-2.827 1.775-3.457-.172-.63-3.52-2.879-3.872-3.436-.351-.557.032-3.464-.432-3.926-.471-.463-4.253-.608-4.786-.98-.53-.381-1.149-3.471-1.758-3.666-.61-.189-3.787 2.083-4.429 2.028-.641-.056-3.359-3.52-3.99-3.41zm1.559 6.907c.48-.064 2.489 1.378 2.99 1.469.497.09 1.497-1.111 1.972-.945.47.165.844 1.388 1.255 1.644.411.268 1.453-.347 1.848-.032.395.315.192 1.945.497 2.33.31.389 1.591 1.495 1.773 1.96.182.459-.16 1.383-.075 1.869.086.491 2.062 1.533 2.056 2.046-.005.512-1.164.694-1.212 1.19-.054.497.62 2.56.428 3.04-.198.48-1.16.827-1.384 1.265-.219.438-.299 1.95-.651 2.33-.353.373-2.74.544-3.12.875-.38.331.374.94-.07 1.149-.437.203-2.58-.657-3.06-.524-.486.134-.956 1.795-1.453 1.821-.497.033-1.282-.534-1.773-.651-.481-.107-1.998.759-2.484.588-.48-.171-.32-1.656-.769-1.897-.443-.24-2.724-.064-3.06-.41-.342-.353-.272-1.497-.566-1.924-.294-.416-1.459-1.041-1.71-1.463-.24-.428.097-1.827.011-2.334-.085-.502-.7-1.55-.77-2.04-.069-.492 1.261-1.293 1.283-1.785.021-.491-.63-1.394-.427-1.87.202-.48 1.073-1.26 1.308-1.698.235-.432.342-2.12.657-2.505.31-.379 1.533.24 1.902-.096.374-.336.94-1.869 1.372-2.13.438-.262 1.298-.508 1.779-.61.48-.095.972-.598 1.452-.662z" fill="#408602" fill-opacity=".941"/><path transform="matrix(0 -1 1.1 0 -7.189 460.349)" d="M402.14 158.55h9.526v-42.334h-9.525z" clip-path="url(#b)" fill="#646464"/><path d="M-22.25 168.075v-9.525h-46.568v9.525z" clip-path="url(#c)" transform="translate(189.467 -101.4)" fill="#5a5a5a" stroke="#000" stroke-width="2.117" stroke-opacity=".706"/><path transform="translate(189.467 -92.933)" clip-path="url(#c)" d="M-22.25 168.075v-9.525h-46.568v9.525z" fill="#505050" stroke="#000" stroke-width="2.117" stroke-opacity=".706"/><path d="M-22.25 168.075v-9.525h-46.568v9.525z" clip-path="url(#c)" transform="translate(189.467 -84.467)" fill="#464646" stroke="#000" stroke-width="2.117" stroke-opacity=".706"/><path transform="translate(189.467 -76)" clip-path="url(#c)" d="M-22.25 168.075v-9.525h-46.568v9.525z" fill="#3c3c3c" stroke="#000" stroke-width="2.117" stroke-opacity=".706"/><path d="M-22.25 168.075v-9.525h-46.568v9.525z" clip-path="url(#c)" transform="translate(189.467 -67.533)" fill="#323232" stroke="#000" stroke-width="2.117" stroke-opacity=".706"/><path clip-path="url(#d)" d="M-70.934 202.47h50.8v-60.854h-8.467v48.155l-4.233 4.233h-25.4l-4.234-4.233v-48.155h-8.466z" transform="translate(189.467 -101.4)" fill="#1b1e25" stroke="#000" stroke-width="3.175" stroke-opacity=".706"/><path d="M235.358 163.999v-36H59.36v36z" clip-path="url(#e)" transform="matrix(.26458 0 0 .26458 198.97 0)" fill="#464646" stroke="#000" stroke-width="8"/><path d="M235.358 195.999v-36H59.36v36z" clip-path="url(#e)" transform="matrix(.26458 0 0 .26458 198.97 0)" fill="#3c3c3c" stroke="#000" stroke-width="8"/><path d="M235.358 227.998v-36H59.36v36z" clip-path="url(#e)" transform="matrix(.26458 0 0 .26458 198.97 0)" fill="#323232" stroke="#000" stroke-width="8"/></svg>