<svg xmlns="http://www.w3.org/2000/svg" width="512" height="512" viewBox="0 0 135.466 135.466"><path d="M126.223 101.183c-3.57 6.002-11.348 3.608-16.347 8.512-5 4.903-2.36 13.096-8.436 16.55-6.078 3.459-11.928-3.021-18.706-1.294-6.779 1.729-8.141 10.215-15.156 10.174-7.015-.04-9.026-8.45-15.757-10.322-6.728-1.874-12.08 4.046-18.147.58-6.07-3.47-3.163-11.015-8.13-15.944-4.97-4.93-12.714-2.166-16.2-8.226-3.485-6.064 2.605-11.778.776-18.524C8.29 75.94.03 74.05.035 67.093.043 60.136 8.8 58.419 10.61 51.698c1.813-6.718-4.589-12.156-1.004-18.164 3.582-6.008 11.155-3.372 16.11-8.315 4.956-4.943 2.632-12.384 8.706-15.827 6.072-3.442 11.658 2.968 18.436 1.17C59.637 8.76 61.056.35 68.062.34c7.01-.012 8.3 7.998 15.032 9.845 6.735 1.847 12.755-4.547 18.789-1.039 6.036 3.509 3.308 11.588 8.203 16.565 4.895 4.977 12.856 2.238 16.36 8.29 3.505 6.054-3.145 11.533-1.404 18.286 1.741 6.752 10.397 8.387 10.389 15.36-.006 6.97-8.344 8.912-10.205 15.63-1.861 6.717 4.565 11.906.997 17.906z" fill="#1a4a0b" fill-opacity=".941"/><path d="M83.246 81.804c-.96 1.098-4.945 1.443-6.188 2.183-1.242.734-3.501 4.098-4.907 4.404-1.412.32-4.832-1.787-6.27-1.934-1.43-.147-5.195 1.22-6.513.632-1.318-.587-2.874-4.34-3.954-5.31-1.073-.977-4.913-2.119-5.635-3.383-.728-1.27.182-5.233-.125-6.663-.314-1.43-2.75-4.652-2.605-6.107.138-1.462 3.163-4.123 3.747-5.464.577-1.34.464-5.405 1.418-6.503.96-1.085 4.945-1.436 6.187-2.17 1.25-.747 3.502-4.104 4.914-4.417 1.406-.306 4.832 1.787 6.263 1.94 1.43.147 5.202-1.225 6.52-.638 1.318.594 2.874 4.34 3.954 5.317 1.066.976 4.907 2.119 5.635 3.382.722 1.27-.188 5.234.125 6.663.302 1.43 2.75 4.653 2.605 6.108-.145 1.455-3.17 4.123-3.747 5.463-.583 1.34-.464 5.406-1.424 6.497z" fill="#5a2f00" stroke="#1b1917" stroke-width="4.076"/></svg>