<svg xmlns="http://www.w3.org/2000/svg" width="420" height="340" viewBox="0 0 111.125 89.958"><path d="M16.983 20.87l3.567-1.064.659-3.565 14.048 15.378-3.402-.639.603 2.342-1.81-.267-.275 1.97z" fill="#665a4e" stroke="#191919" stroke-width="1.204"/><path d="M41.853 50.693l-2.253 2.98 1.59 3.196-20.532-3.638 3.135-1.543-1.884-1.476 1.625-.88-.951-1.711z" fill="#665a4e" stroke="#191919" stroke-width="1.2"/><path d="M91.535 43.502l.26 3.82 3.36 1.48L76.94 59.357l1.378-3.265-2.436.067.661-1.754-1.875-.728z" fill="#665a4e" stroke="#191919" stroke-width="1.226"/><path d="M65.237 42.86l-3.854.532-1.221 3.493-12.216-17.628 3.425 1.16-.27-2.451 1.835.542.582-1.942zm5.127-22.823l3.103-2.348-.641-3.644 19.272 9.41-3.556.662 1.434 2.007-1.866.423.441 1.979zM23.029 33.766l-.56-3.85-3.503-1.195L36.5 16.371l-1.133 3.435 2.449-.289-.53 1.839 1.948.567z" fill="#665a4e" stroke="#191919" stroke-width="1.243"/></svg>