<svg xmlns="http://www.w3.org/2000/svg" xmlns:xlink="http://www.w3.org/1999/xlink" width="180" height="692" viewBox="0 0 47.625 183.092"><defs><pattern xlink:href="#a" id="d" patternTransform="matrix(.29022 0 0 .31028 10.68 138.307)"/><pattern patternUnits="userSpaceOnUse" width="175.039" height="75.039" patternTransform="translate(108.576 213.448) scale(.26458)" id="a"><path d="M0 0h175.039v15.04H0z" fill="#fff"/><path d="M0 11.84h175.039v3.12H0z" fill="#191919"/><path d="M0 15.04h175.039V60H0z" fill="#b1b1b1"/><path d="M0 60h175.039v15.04H0z" fill="#fff"/><path d="M0 60h175.039v3.2H0z" fill="#191919"/></pattern><clipPath id="c"><path d="M10.68 145.715h8.466l4.195 4.233h22.264l4.233-4.233h8.467v100.542h-8.467l-4.233-4.234H23.38l-4.196 4.234H10.68z" fill="#48362f" fill-opacity=".071" stroke-width="1.323" stroke-miterlimit="10" stroke-opacity=".49"/></clipPath><pattern patternUnits="userSpaceOnUse" width="175.039" height="75.039" patternTransform="translate(108.576 213.448) scale(.26458)" id="b"><path d="M0 0h175.039v15.04H0z" fill="#fff"/><path d="M0 11.84h175.039v3.12H0z" fill="#191919"/><path d="M0 15.04h175.039V60H0z" fill="#b1b1b1"/><path d="M0 60h175.039v15.04H0z" fill="#fff"/><path d="M0 60h175.039v3.2H0z" fill="#191919"/></pattern></defs><path d="M10.68 145.715h8.466l4.195 4.233h22.264l4.233-4.233h8.467v100.542h-8.467l-4.233-4.234H23.38l-4.196 4.234H10.68z" clip-path="url(#c)" stroke-miterlimit="10" transform="translate(-10.68 -104.44)" fill="url(#d)" stroke="#191919" stroke-width="3.175"/></svg>