<svg xmlns="http://www.w3.org/2000/svg" xmlns:xlink="http://www.w3.org/1999/xlink" width="1280.002" height="928.004" viewBox="0 0 338.667 245.534"><defs><clipPath id="f"><path d="M-45.534 209.35l29.33 16.933v33.867l-29.33 16.933-29.33-16.933v-33.867z" fill-opacity=".506" stroke="#fff" stroke-width="2.117" stroke-opacity=".502"/></clipPath><clipPath id="e"><path d="M-22.25 168.075v-9.525h-46.568v9.525z" clip-path="url(#clipPath6865)" fill="#a3977d" stroke-width="2.081"/></clipPath><clipPath id="d"><path clip-path="url(#clipPath6865)" d="M402.14 158.55h9.526v-42.334h-9.525z" fill="#a3977d" stroke-width="1.984"/></clipPath><filter id="b" x="-.023" width="1.047" y="-.025" height="1.049" color-interpolation-filters="sRGB"><feGaussianBlur stdDeviation="1.651"/></filter><pattern xlink:href="#a" id="c" patternTransform="matrix(.06615 0 0 .06615 139.7 59.267)"/><pattern patternUnits="userSpaceOnUse" width="128" height="128" patternTransform="matrix(.26458 0 0 .26458 0 -38.1)" id="a"><path fill="none" stroke-width="3.78" d="M0 0h128v128H0z"/><path fill="none" stroke-width="3.78" d="M0 0h128v128H0z"/><path d="M0 0h128v128H0z" fill="#2e2d2a" stroke-width="15.118" stroke-miterlimit="10"/><path d="M60 128V68H0v-8h60V0h8v60h60v8H68v60z" fill="#6f6f6f" fill-opacity=".303" stroke-width="1.414"/></pattern><clipPath id="g"><path d="M59.267-.001v59.267H0v160.867h313.267V76.199H169.334V59.266h-59.267V0H101.6v67.734h59.267v50.8h42.334V84.666h101.6v127H203.2V152.4h-42.334v59.208l-152.4.06V67.732h59.266V0z" fill="#1b1e25" stroke-width="2.226"/></clipPath></defs><path transform="translate(113.466 -151.224) scale(1.0838)" d="M-99.81 199.354l168.935.721v16.6H201.93v143.546l-301.74-.72z" fill="#130902" fill-opacity=".944" filter="url(#b)"/><path d="M198.967 88.9v143.934h127V88.9z" fill="url(#c)"/><path d="M12.7 71.967h169.334v50.8h16.933v110.067H12.701z" fill="#302e28"/><path clip-path="url(#d)" d="M402.14 158.55h9.526v-42.334h-9.525z" transform="matrix(0 -1 1.1 0 -53.755 432.833)" fill="#646464"/><path transform="translate(142.901 -128.916)" clip-path="url(#e)" d="M-22.25 168.075v-9.525h-46.568v9.525z" fill="#5a5a5a" stroke="#000" stroke-width="2.117" stroke-opacity=".706"/><path d="M-22.25 168.075v-9.525h-46.568v9.525z" clip-path="url(#e)" transform="translate(142.901 -120.449)" fill="#505050" stroke="#000" stroke-width="2.117" stroke-opacity=".706"/><path transform="translate(142.901 -111.982)" clip-path="url(#e)" d="M-22.25 168.075v-9.525h-46.568v9.525z" fill="#464646" stroke="#000" stroke-width="2.117" stroke-opacity=".706"/><path d="M-22.25 168.075v-9.525h-46.568v9.525z" clip-path="url(#e)" transform="translate(142.901 -103.516)" fill="#3c3c3c" stroke="#000" stroke-width="2.117" stroke-opacity=".706"/><path transform="rotate(-150 10.56 184.656) scale(1.05556)" d="M-45.534 209.35l29.33 16.933v33.867l-29.33 16.933-29.33-16.933v-33.867z" clip-path="url(#f)" fill-opacity=".118" stroke="#fff" stroke-width="4.011" stroke-opacity=".157"/><path d="M67.044 150.954l16.106.686a14.227 14.227 0 0 1-.01-.289 14.227 14.227 0 0 1 7.372-12.45l-8.65-13.61zM112.871 125.29l-8.647 13.605a14.227 14.227 0 0 1 .255.136 14.227 14.227 0 0 1 7.095 12.61l16.114-.687zm-.688 52.52l-7.459-14.292a14.227 14.227 0 0 1-.245.154 14.227 14.227 0 0 1-14.468-.16L82.55 177.81z" fill="#fff" fill-opacity=".157"/><path d="M52.117 219.286c-2.577 1.756-5.343 1.007-6.942-.89-1.632-2.12-2.732-5.936 3.639-9.64 3.81-1.473 4.6-.622 6.22 2.843.978 2.549-.596 5.337-2.917 7.687z" fill="#0c0c0c" fill-opacity=".328"/><path transform="translate(142.901 -95.049)" clip-path="url(#e)" d="M-22.25 168.075v-9.525h-46.568v9.525z" fill="#323232" stroke="#000" stroke-width="2.117" stroke-opacity=".706"/><path d="M190.5 165.1v-33.866h8.467V165.1z" fill="#555"/><path d="M188.384 148.167l-6.35-6.35v12.7zM207.434 141.817l-6.35 6.35 6.35 6.35z" fill="none" stroke="#000" stroke-width="1.587" stroke-linecap="square" stroke-opacity=".502"/><path d="M97.507 163.732c6.828 0 12.363-5.535 12.363-12.363 0-6.827-5.535-12.362-12.363-12.362-6.827 0-12.362 5.535-12.362 12.362 0 6.828 5.535 12.363 12.362 12.363zm-2.418-2.886c-2.834 0-5.13-1.422-5.13-4.255 0-.414.062-.808.153-1.195-1.029-.436-1.726-1.353-1.726-2.378 0-2.116 2.41-2.807 5.42-2.832h7.694c3.11.1 5.129.916 5.129 3.032 0 1.416-1.246 2.389-2.575 2.512-.06 1.717-1.462 2.734-3.196 2.734-.432 0-.844-.088-1.22-.244-.848 1.658-2.556 2.626-4.549 2.626zm3.616-11.138h-3.001l.783-1.487h-3.42l7.252-7.084-2.672 4.921h3.002z" fill="#fff" fill-opacity=".157"/><path d="M59.267-.001v59.267H0v160.867h313.267V76.199H169.334V59.266h-59.267V0H101.6v67.734h59.267v50.8h42.334V84.666h101.6v127H203.2V152.4h-42.334v59.208l-152.4.06V67.732h59.266V0z" clip-path="url(#g)" transform="translate(12.7 12.701)" fill="#1b1e25" stroke="#000" stroke-width="3.175" stroke-opacity=".706"/></svg>