<svg xmlns="http://www.w3.org/2000/svg" width="144" height="144" viewBox="0 0 38.1 38.1"><defs><clipPath id="b"><path d="M-45.534 209.35l29.33 16.933v33.867l-29.33 16.933-29.33-16.933v-33.867z" fill-opacity=".506" stroke="#fff" stroke-width="2.117" stroke-opacity=".502"/></clipPath><clipPath id="a"><path fill="#4d2600" stroke-width=".529" d="M0 258.9h38.1V297H0z"/></clipPath><clipPath id="d"><path d="M-4.763 273.187v-5.82h28.575v5.82z" fill="#4d2600" stroke-width="3.532"/></clipPath><clipPath id="c"><path d="M43.392 296.47h-12.7v-38.1h12.7z" fill="#4d2600" stroke-width="6.024"/></clipPath><clipPath id="e"><path d="M-1.587 297h-5.821v-38.1h5.82z" fill="#4d2600" stroke-width="4.078"/></clipPath></defs><path clip-path="url(#a)" fill="#4d2600" stroke="#191919" stroke-width="3.969" d="M0 258.9h38.1V297H0z" transform="translate(0 -258.9)"/><path clip-path="url(#b)" d="M-45.534 209.35l29.33 16.933v33.867l-29.33 16.933-29.33-16.933v-33.867z" transform="rotate(-150 -3.491 38.847) scale(.25596)" fill-opacity=".485" stroke="#fff" stroke-width="4.011"/><path d="M15.283 17.534a5.123 5.123 0 0 0-5.123 5.123 5.123 5.123 0 0 0 5.123 5.123 5.123 5.123 0 0 0 5.123-5.123 5.123 5.123 0 0 0-5.123-5.123zM17.53 18.8a4.449 4.449 0 0 1 2.197 3.955h-3.323a1.221 1.221 0 0 0-.585-.98zm-4.593.055l1.67 2.891a1.21 1.21 0 0 0-.475.462 1.21 1.21 0 0 0-.161.547h-3.132a4.424 4.424 0 0 1 .582-2.34 4.434 4.434 0 0 1 1.517-1.56zm2.253 3.16a.8.8 0 0 1 .398.11.799.799 0 0 1 .294 1.094.798.798 0 0 1-1.095.293.799.799 0 0 1-.294-1.095.798.798 0 0 1 .697-.401zm.631 1.845l1.555 2.696a4.477 4.477 0 0 1-2.22.539 4.4 4.4 0 0 1-2.076-.583l1.523-2.624c.393.215.857.19 1.218-.028z" fill="#fff"/><path transform="rotate(90 163.581 132.89)" d="M43.392 296.47h-12.7v-38.1h12.7z" clip-path="url(#c)" fill="#d19200" stroke="#191919" stroke-width="3.969"/><path transform="matrix(-1.33333 0 0 -1 31.75 305.467)" clip-path="url(#d)" d="M-4.763 273.187v-5.82h28.575v5.82z" fill="#d19200" stroke="#191919" stroke-width="3.437"/><path transform="rotate(90 128.656 168.344)" d="M-1.587 297h-5.821v-38.1h5.82z" clip-path="url(#e)" fill="#763800" stroke="#191919" stroke-width="3.969"/><path clip-path="url(#e)" d="M-1.587 297h-5.821v-38.1h5.82z" transform="translate(7.408 -258.9)" fill="#763800" stroke="#191919" stroke-width="3.969"/><path clip-path="url(#c)" d="M43.392 296.47h-12.7v-38.1h12.7z" transform="translate(-5.292 -258.37)" fill="#763800" stroke="#191919" stroke-width="3.969"/><path d="M37.042 16.002V10.88l-9.8-9.822h-5.123z" fill="#4d2600" stroke="#191919" stroke-width="1.968"/></svg>