<svg xmlns="http://www.w3.org/2000/svg" width="144" height="144" viewBox="0 0 38.1 38.1"><path d="M31.586 30.363c-.202.225-1.688.602-1.913.797-.226.194-1.289 1.95-1.538 2.12-.248.168-1.437-.25-1.703-.113-.267.136-1.296 1.22-1.571 1.33-.276.108-1.535.226-1.826.288-.292.063-1.515 1.271-1.812 1.309-.297.035-2.184-.77-2.48-.775-.297-.004-1.258.186-1.55.144-.294-.04-1.757-.451-2.044-.522-.287-.07-1.548.166-1.827.06-.278-.106-1.61-1.349-1.869-1.497-.258-.147-1.734-.295-1.977-.465-.244-.17-.537-1.647-.754-1.855-.217-.209-1.642-.622-1.834-.85-.191-.23-.347-1.88-.521-2.122-.174-.243-1.825-1.085-1.96-1.356-.134-.272-.281-1.586-.377-1.868-.096-.283-.747-1.765-.816-2.06-.069-.293.53-1.558.502-1.86-.028-.301-1.39-1.453-1.388-1.756 0-.304.772-1.77.817-2.07.044-.3-.444-2.14-.377-2.434.067-.293 1.495-1.06 1.597-1.347.102-.285-.363-2.06-.23-2.333.133-.272 1.873-1.052 2.043-1.297.17-.245.454-1.78.648-2.007.193-.226 1.721-.276 1.95-.47.229-.193.611-2.376.852-2.557.242-.18 2.137.414 2.4.27.264-.145 1.26-1.626 1.534-1.735.274-.11 1.537.506 1.825.436.29-.07 1.555-1.68 1.85-1.707.295-.025 1.451 1.231 1.747 1.235.296.003 1.955-.976 2.246-.931.291.046 1.096 1.429 1.384 1.496.289.066 2.247-.89 2.524-.786.277.104.878 1.813 1.135 1.957.258.144 1.769-.163 2.015.005.247.168.871 2.167 1.088 2.37.217.203 1.985.491 2.184.712.198.22.045 1.552.208 1.8.164.249 2.139.84 2.274 1.109.134.269-.468 1.894-.357 2.17.111.278 1.16 1.71 1.236 2.004.077.293-.22 1.957-.189 2.26.03.303.685 1.452.692 1.757.008.304-.774 1.755-.816 2.053-.043.297.413 1.832.338 2.124-.074.292-.753 1.315-.863 1.595-.11.28-.364 1.878-.503 2.146-.14.268-1.186 1.044-1.347 1.297-.16.252-.446 1.703-.647 1.928z" fill="#243c0c"/><path d="M30.28 21.39c-.12.539-1.972 1.403-2.203 1.903-.23.499.697 1.403.396 1.84-.302.436-1.872.857-2.247 1.246-.375.387-.66 1.894-1.11 2.19-.45.296-1.532-.264-2.018-.033-.486.231-1.446 1.95-1.985 2.049-.539.1-1.389-1.342-1.925-1.345-.537-.003-2.209 1.397-2.724 1.262-.516-.134-.566-1.66-1.08-1.87-.512-.209-2.425.284-2.88.004-.457-.279-.688-1.683-1.065-2.085-.377-.402-1.68-.966-2-1.4-.32-.432.498-1.722.294-2.236-.205-.514-1.55-1.149-1.63-1.699-.081-.55.296-1.773.3-2.308.005-.534-.673-1.928-.58-2.456.093-.529 1.316-.78 1.517-1.271.202-.492-.007-2.16.273-2.63.279-.468 1.693-1.06 2.093-1.413.4-.354.06-1.236.487-1.548.426-.313 2.49.185 3 .014.512-.171 1.065-1.9 1.597-2 .531-.1 1.642 1.097 2.176 1.086.533-.01 1.243-1.267 1.781-1.175.539.093 1.517 1.578 2.022 1.782.504.205 1.828.312 2.258.64.43.326.47 1.455.86 1.828.388.372 2.505.47 2.787.945.283.474-.275 2.072-.049 2.562.226.49 1.544 1.15 1.63 1.699.087.549-1.345 1.885-1.333 2.437.011.551 1.476 1.443 1.357 1.982z" fill="#3b5b1f"/><path d="M23.277 22.968c-.189.202-1.31.124-1.539.279-.228.154.093.68-.145.79-.237.11-1.061.002-1.319.08-.257.076-.797.591-1.065.608-.268.015-.514-.425-.781-.438-.267-.014-1.207.494-1.466.402-.259-.091-.167-.944-.397-1.078-.23-.133-1.443.048-1.626-.14-.183-.19.3-.789.127-1.007-.173-.218-1.195-.554-1.326-.782-.132-.228.04-.867-.02-1.136-.06-.269-.347-.91-.384-1.174-.038-.263.653-.543.694-.816.04-.274-.352-.858-.242-1.115.109-.257.42-.802.554-1.028.135-.227.315-.984.483-1.189.168-.205.654.034.86-.126.207-.16.637-.911.871-1.051.235-.14 1.022-.2 1.283-.245.26-.045.165-.39.423-.426.258-.035 1.162.732 1.423.793.261.061.942-.606 1.196-.517.255.09.423.882.656 1.005.234.123.771-.324.984-.154.214.17.346 1.089.515 1.301.17.212.587.716.684.965.097.249-.095.64-.017.894.079.254 1.065.897 1.063 1.173-.002.277-.639.853-.657 1.119-.018.266.347.856.242 1.114-.105.259-1.14.484-1.27.727-.13.243.385.97.196 1.172z" fill="#80a460"/></svg>