<?xml version="1.0" encoding="UTF-8" standalone="no"?>
<svg
   xmlns:dc="http://purl.org/dc/elements/1.1/"
   xmlns:cc="http://creativecommons.org/ns#"
   xmlns:rdf="http://www.w3.org/1999/02/22-rdf-syntax-ns#"
   xmlns:svg="http://www.w3.org/2000/svg"
   xmlns="http://www.w3.org/2000/svg"
   xmlns:xlink="http://www.w3.org/1999/xlink"
   xmlns:sodipodi="http://sodipodi.sourceforge.net/DTD/sodipodi-0.dtd"
   xmlns:inkscape="http://www.inkscape.org/namespaces/inkscape"
   width="226"
   height="290"
   viewBox="0 0 59.795869 76.729166"
   version="1.1"
   id="svg306"
   sodipodi:docname="map-building-bathhouse-basement-01a.svg"
   inkscape:version="0.92.2 (5c3e80d, 2017-08-06)"
   inkscape:export-filename="C:\Users\kjust\Desktop\projects\surviv\client\src\img\map\map-building-bathhouse-basement-01.png"
   inkscape:export-xdpi="256"
   inkscape:export-ydpi="256">
  <metadata
     id="metadata310">
    <rdf:RDF>
      <cc:Work
         rdf:about="">
        <dc:format>image/svg+xml</dc:format>
        <dc:type
           rdf:resource="http://purl.org/dc/dcmitype/StillImage" />
        <dc:title />
      </cc:Work>
    </rdf:RDF>
  </metadata>
  <sodipodi:namedview
     pagecolor="#ffffff"
     bordercolor="#666666"
     borderopacity="1"
     objecttolerance="10"
     gridtolerance="10"
     guidetolerance="10"
     inkscape:pageopacity="0"
     inkscape:pageshadow="2"
     inkscape:window-width="1920"
     inkscape:window-height="1017"
     id="namedview308"
     showgrid="true"
     fit-margin-top="1"
     fit-margin-left="1"
     fit-margin-bottom="1"
     fit-margin-right="1"
     inkscape:zoom="0.13657407"
     inkscape:cx="-1649.7282"
     inkscape:cy="1000.3292"
     inkscape:window-x="1912"
     inkscape:window-y="-8"
     inkscape:window-maximized="1"
     inkscape:current-layer="svg306"
     inkscape:showpageshadow="false"
     showguides="false">
    <inkscape:grid
       type="xygrid"
       id="grid1117"
       empspacing="8"
       spacingy="1.0583336"
       spacingx="1.0583336"
       originx="0.26458219"
       originy="0.26457903"
       visible="true" />
  </sodipodi:namedview>
  <defs
     id="defs190">
    <pattern
       inkscape:collect="always"
       xlink:href="#pattern2723"
       id="pattern2739"
       patternTransform="matrix(0.18708872,-0.18708872,0.18708872,0.18708872,-279.13533,51.064596)" />
    <pattern
       inkscape:collect="always"
       xlink:href="#pattern9450"
       id="pattern2723"
       patternTransform="matrix(0.18708873,-0.18708873,0.18708873,0.18708873,-279.39993,516.46683)" />
    <pattern
       inkscape:collect="always"
       xlink:href="#pattern9584"
       id="pattern9600"
       patternTransform="matrix(0.18708873,-0.18708873,0.18708873,0.18708873,93.397961,80.697966)" />
    <pattern
       inkscape:collect="always"
       xlink:href="#pattern9124"
       id="pattern9450"
       patternTransform="matrix(0.18708873,-0.18708873,0.18708873,0.18708873,-93.133474,524.93363)" />
    <clipPath
       id="n">
      <path
         d="m 402.14,158.55 h 9.526 v -42.334 h -9.525 z"
         id="path42"
         inkscape:connector-curvature="0"
         style="fill:#a3977d;stroke-width:1.98399997" />
    </clipPath>
    <clipPath
       id="o">
      <path
         d="m 402.14,158.55 h 9.526 v -42.334 h -9.525 z"
         clip-path="url(#n)"
         id="path63"
         inkscape:connector-curvature="0"
         style="fill:#a3977d;stroke-width:1.98399997" />
    </clipPath>
    <clipPath
       id="E-6">
      <path
         clip-path="url(#o)"
         d="m 402.14,158.55 h 9.526 v -42.334 h -9.525 z"
         id="path66-6"
         inkscape:connector-curvature="0"
         style="fill:#a3977d;stroke-width:1.98399997" />
    </clipPath>
    <pattern
       patternUnits="userSpaceOnUse"
       width="96.000002"
       height="96.000013"
       patternTransform="matrix(0.26458341,0,0,0.26458341,-76.20002,389.4668)"
       id="pattern9124">
      <rect
         y="0"
         x="0"
         height="95.999901"
         width="96"
         id="rect9118"
         style="fill:#818181;fill-opacity:1;stroke:none;stroke-width:17.99999046;stroke-linecap:square;stroke-linejoin:miter;stroke-miterlimit:4;stroke-dasharray:none;stroke-opacity:1;paint-order:normal" />
      <rect
         style="fill:#9b9b9b;fill-opacity:1;stroke:none;stroke-width:8.99999809;stroke-linecap:square;stroke-linejoin:miter;stroke-miterlimit:4;stroke-dasharray:none;stroke-opacity:1;paint-order:normal"
         id="rect9120"
         width="48"
         height="47.999981"
         x="48.000004"
         y="0" />
      <rect
         y="48.000031"
         x="0"
         height="47.999981"
         width="48"
         id="rect9122"
         style="fill:#9b9b9b;fill-opacity:1;stroke:none;stroke-width:8.99999809;stroke-linecap:square;stroke-linejoin:miter;stroke-miterlimit:4;stroke-dasharray:none;stroke-opacity:1;paint-order:normal" />
    </pattern>
    <pattern
       patternUnits="userSpaceOnUse"
       width="80.000003"
       height="80.000334"
       patternTransform="matrix(0.26458341,0,0,0.26458341,67.733353,512.2334)"
       id="pattern9584">
      <rect
         id="rect9558"
         y="0"
         x="0"
         height="80.000336"
         width="80"
         style="fill:none;stroke:none;stroke-width:3.77952647" />
      <rect
         style="fill:none;stroke:none;stroke-width:3.77952647"
         width="80"
         height="80.000336"
         x="0"
         y="0"
         id="rect9562" />
      <rect
         id="rect9564"
         y="0"
         x="0"
         height="80.000336"
         width="79.999985"
         style="fill:none;stroke:none;stroke-width:3.77952647" />
      <rect
         id="rect9566"
         y="0"
         x="0"
         height="80.000336"
         width="79.999985"
         style="fill:none;stroke:none;stroke-width:3.77952647" />
      <rect
         style="fill:none;stroke:none;stroke-width:3.77952647"
         width="79.999985"
         height="80.000336"
         x="0"
         y="0"
         id="rect9568" />
      <rect
         style="fill:#702025;fill-opacity:1;stroke:none;stroke-width:20.00000381;stroke-miterlimit:4;stroke-dasharray:none;stroke-opacity:0.68181817"
         id="rect9570"
         width="79.999985"
         height="80.000046"
         x="0"
         y="0.00023068399" />
      <rect
         style="fill:none;stroke:none;stroke-width:3.7795279"
         width="79.999985"
         height="80.000107"
         x="0"
         y="0.00023068399"
         id="rect9572" />
      <rect
         style="fill:none;stroke:none;stroke-width:3.7795279"
         width="79.999977"
         height="80.000092"
         x="2.8835499e-005"
         y="0"
         id="rect9574" />
      <rect
         style="fill:none;stroke:none;stroke-width:3.7795279"
         width="63.999977"
         height="64.000038"
         x="15.999982"
         y="0"
         id="rect9576" />
      <path
         style="fill:#54181c;fill-opacity:1;stroke:none;stroke-width:8;stroke-miterlimit:4;stroke-dasharray:none;stroke-opacity:0.68181817"
         d="M 8.8398104e-6,8.1496039e-5 H 16.000037 L 15.999961,64.000163 H 79.999983 V 80.000184 L 8.8398104e-6,80.000108 Z"
         id="path9578"
         inkscape:connector-curvature="0"
         sodipodi:nodetypes="ccccccc" />
      <rect
         style="fill:#631b21;fill-opacity:1;stroke:none;stroke-width:8;stroke-miterlimit:4;stroke-dasharray:none;stroke-opacity:0.68181817"
         id="rect9580"
         width="32.000004"
         height="32.000004"
         x="47.999947"
         y="0" />
      <rect
         style="fill:#631b21;fill-opacity:1;stroke:none;stroke-width:8;stroke-miterlimit:4;stroke-dasharray:none;stroke-opacity:0.68181817"
         id="rect9582"
         width="32.000004"
         height="32.000004"
         x="15.999982"
         y="32.000023" />
    </pattern>
    <clipPath
       clipPathUnits="userSpaceOnUse"
       id="clipPath3472">
      <path
         style="fill:#000000;fill-opacity:0.22222224;stroke:none;stroke-width:1.73901975;stroke-miterlimit:4;stroke-dasharray:none;stroke-opacity:1"
         inkscape:connector-curvature="0"
         d="M 414.86682,584.20015 H 516.46685 V 787.40021 H 414.86682 Z"
         id="path3474" />
    </clipPath>
    <clipPath
       clipPathUnits="userSpaceOnUse"
       id="clipPath3478">
      <path
         style="fill:#c2c2c2;fill-opacity:1;stroke:none;stroke-width:1.40004396;stroke-miterlimit:4;stroke-dasharray:none;stroke-opacity:0.56565653"
         d="m 406.4002,575.73343 v 73.37723 0 73.37724 73.37805 h 118.53337 v -73.378 -73.37726 0 -73.37721 z"
         id="path3480"
         inkscape:connector-curvature="0" />
    </clipPath>
    <clipPath
       clipPathUnits="userSpaceOnUse"
       id="clipPath3484">
      <path
         style="fill:#d2d2d2;fill-opacity:1;stroke:none;stroke-width:1.5532099;stroke-miterlimit:4;stroke-dasharray:none;stroke-opacity:0.56565653"
         d="m 397.93353,567.2666 v 79.02167 0 79.02165 79.0227 h 135.46671 v -79.02252 -79.02172 0 -79.02168 z"
         id="path3486"
         inkscape:connector-curvature="0" />
    </clipPath>
    <clipPath
       clipPathUnits="userSpaceOnUse"
       id="clipPath3490">
      <path
         inkscape:connector-curvature="0"
         id="path3492"
         d="m 389.46686,558.80011 v 84.66603 0 84.66606 84.66709 h 152.40005 v -84.66688 -84.66605 0 -84.66601 z"
         style="fill:#e5e5e5;fill-opacity:1;stroke:none;stroke-width:1.70524907;stroke-miterlimit:4;stroke-dasharray:none;stroke-opacity:0.56565653" />
    </clipPath>
    <clipPath
       id="y-0">
      <path
         d="m 496.26,-65.722 v -10.054 h -25.4 v 10.054 z"
         id="path117-3"
         inkscape:connector-curvature="0"
         style="fill:#252525;stroke-width:1.46700001" />
    </clipPath>
    <clipPath
       id="s-2">
      <path
         d="m 402.14,158.55 h 9.526 v -42.334 h -9.525 z"
         clip-path="url(#n)"
         id="path184-9"
         inkscape:connector-curvature="0"
         style="fill:#a3977d;stroke-width:1.98399997" />
    </clipPath>
    <clipPath
       id="r-4">
      <path
         clip-path="url(#n)"
         d="m 402.14,158.55 h 9.526 v -42.334 h -9.525 z"
         id="path45-0"
         inkscape:connector-curvature="0"
         style="fill:#a3977d;stroke-width:1.98399997" />
    </clipPath>
    <clipPath
       clipPathUnits="userSpaceOnUse"
       id="clipPath4018">
      <path
         style="fill:#a59b83;fill-opacity:1;stroke-width:2.24300003"
         inkscape:connector-curvature="0"
         id="path4020"
         d="m 0,524.93481 v 8.46598 h 60.853999 v -8.4673 z"
         sodipodi:nodetypes="ccccc" />
    </clipPath>
    <clipPath
       clipPathUnits="userSpaceOnUse"
       id="clipPath2641">
      <rect
         style="fill:#323232;fill-opacity:1;stroke:none;stroke-width:3.17500091;stroke-linecap:square;stroke-linejoin:bevel;stroke-miterlimit:4;stroke-dasharray:none;stroke-opacity:1;paint-order:normal"
         id="rect2643"
         width="42.333347"
         height="42.333347"
         x="270.93341"
         y="491.0668" />
    </clipPath>
    <clipPath
       clipPathUnits="userSpaceOnUse"
       id="clipPath2712">
      <rect
         y="508.00015"
         x="287.86673"
         height="8.4666719"
         width="8.4666719"
         id="rect2714"
         style="fill:#a6a6a6;fill-opacity:1;stroke:none;stroke-width:0.63500035;stroke-linecap:square;stroke-linejoin:bevel;stroke-miterlimit:4;stroke-dasharray:none;stroke-opacity:1;paint-order:normal"
         rx="1.0583336"
         ry="1.0583336" />
    </clipPath>
    <clipPath
       clipPathUnits="userSpaceOnUse"
       id="clipPath2850">
      <path
         style="fill:#5d2f09;stroke-width:0.560453"
         inkscape:connector-curvature="0"
         id="path2853"
         d="M 135.4667,525.99182 H 67.733351 v -5.82065 H 135.4667 Z"
         sodipodi:nodetypes="ccccc" />
    </clipPath>
    <clipPath
       clipPathUnits="userSpaceOnUse"
       id="clipPath1838">
      <path
         style="fill:#5d2f09;stroke-width:0.71444011"
         inkscape:connector-curvature="0"
         id="path1840"
         d="M 491.06678,602.19182 H 381.00011 v -5.82065 h 110.06667 z"
         sodipodi:nodetypes="ccccc" />
    </clipPath>
    <clipPath
       clipPathUnits="userSpaceOnUse"
       id="clipPath2189">
      <path
         inkscape:connector-curvature="0"
         id="path2191"
         d="M 194.73442,-177.80212 V 16.933338 h -42.37158 l 0.007,67.733354 H 25.400007 V 203.20006 H 152.38092 l 0.0191,194.73339 H 84.666692 v 76.20002 H 0 v 8.46667 h 93.133361 l 0.0011,-76.20055 h 67.732289 l -0.0114,-118.48426 0.0486,-0.0486 -0.0372,-127.00001 h -0.0238 -8.4429 -0.0232 l 0.003,33.86668 H 33.866677 V 93.133361 H 152.37059 l 0.003,33.866679 h 0.0264 8.43928 0.0274 V 50.800015 l -0.0346,-0.03462 -0.003,-25.365381 H 296.33445 V -16.934372 H 220.09619 V -152.40108 H 440.2296 v 135.466708 h -76.16179 v 42.334379 h 135.42847 l 0.0372,237.066733 h 8.46667 V 228.60007 H 626.53352 V 330.2001 H 508.00015 v -33.86668 h -8.46667 V 397.93345 H 381.00011 v 160.86671 h 110.06667 v -67.73388 h -8.46666 V 550.3335 H 389.46678 V 406.40012 H 508.00015 V 338.66677 H 635.00019 V 220.1334 H 508.00015 l -0.0372,-203.200062 -42.29511,-10e-4 V -177.80109 Z m -50.80001,634.9976 v 33.87133 h 169.33235 v 76.20002 h 33.86668 V 457.19857 Z m 380.99905,33.87133 v 110.0667 H 347.13344 152.40004 V 541.86683 524.93349 H 0 v 8.46511 h 59.266684 l 8.466669,8.46616 76.200027,0.003 v 67.73338 H 330.2001 l 8.46667,8.46556 H 533.40013 V 491.0669 Z"
         style="fill:#42080c;fill-opacity:1;stroke-width:2.24300003"
         sodipodi:nodetypes="ccccccccccccccccccccccccccccccccccccccccccccccccccccccccccccccccccccccccccccccccccccccccccc" />
    </clipPath>
    <filter
       inkscape:collect="always"
       style="color-interpolation-filters:sRGB"
       id="filter1492"
       x="-0.0057684211"
       width="1.0115368"
       y="-0.0041100001"
       height="1.00822">
      <feGaussianBlur
         inkscape:collect="always"
         stdDeviation="1.1599336"
         id="feGaussianBlur1494" />
    </filter>
  </defs>
  <path
     inkscape:connector-curvature="0"
     style="fill:#130902;fill-opacity:0.94499966;stroke-width:1.00507212;filter:url(#filter1492)"
     d="M 143.13962,-75.935444 V -456.93554 h 43.39167 l -1e-5,-59.26667 h 287.86675 v 59.26667 h 42.33335 V -50.535434 H 398.19801 V 76.464596 H 542.13138 V 161.13129 H 338.93133 l -8.46667,-8.46667 H 135.73128 V 84.931266 H 67.99793 l -8.466668,-8.46667 V 0.26457601 H 76.464599 V -75.935444 Z"
     id="path38-1"
     sodipodi:nodetypes="cccccccccccccccccccccc" />
  <path
     inkscape:connector-curvature="0"
     id="path2443"
     d="M 144.19795,-67.468704 V 0.26455601 H 338.93136 V 93.398056 h 50.80001 v -101.59998 -59.26673 z"
     style="fill:#484848;fill-opacity:1;stroke-width:1.13136983"
     sodipodi:nodetypes="cccccccc" />
  <path
     style="fill:url(#pattern2739);fill-opacity:1;stroke-width:0.86409801"
     d="M 84.931271,-67.468784 V 8.7312365 H 34.131256 V 59.531256 H 152.66462 v -127.00004 z m 67.733869,84.66669 -5.2e-4,127.000044 h 177.80006 8.46666 v 8.46667 H 533.66471 V 84.931256 H 338.93134 V 101.8646 h -8.46666 -8.46667 V 17.197906 Z"
     id="path2721"
     inkscape:connector-curvature="0"
     sodipodi:nodetypes="cccccccccccccccccccc" />
  <path
     sodipodi:nodetypes="ccccc"
     d="M 491.06679,602.19182 H 381.00011 v -5.82065 h 110.06668 z"
     id="path1836"
     inkscape:connector-curvature="0"
     style="fill:#5d2f09;stroke:#191919;stroke-width:2.11666727;stroke-miterlimit:4;stroke-dasharray:none;stroke-opacity:1"
     clip-path="url(#clipPath1838)"
     transform="translate(0.26458101,-465.40223)" />
  <rect
     y="491.0668"
     x="270.93341"
     height="42.333347"
     width="42.333347"
     id="rect2639"
     style="fill:#e5d19f;fill-opacity:1;stroke:#000000;stroke-width:3.17500091;stroke-linecap:square;stroke-linejoin:bevel;stroke-miterlimit:4;stroke-dasharray:none;stroke-opacity:0.1372549;paint-order:normal"
     clip-path="url(#clipPath2641)"
     transform="translate(0.26458101,-465.40223)" />
  <rect
     ry="1.0583336"
     rx="1.0583336"
     style="fill:#a6a6a6;fill-opacity:1;stroke:#000000;stroke-width:2.11666727;stroke-linecap:square;stroke-linejoin:bevel;stroke-miterlimit:4;stroke-dasharray:none;stroke-opacity:0.15686275;paint-order:normal"
     id="rect2710"
     width="8.4666719"
     height="8.4666719"
     x="287.86673"
     y="508.00015"
     clip-path="url(#clipPath2712)"
     transform="translate(0.26458101,-465.40223)" />
  <path
     d="m 152.66461,-448.46874 -8e-5,389.466706 355.60012,-10e-6 8e-5,-389.466706 h -135.4667 v -25.40001 h -84.66669 v 25.40001 z"
     id="path208"
     inkscape:connector-curvature="0"
     style="fill:url(#pattern9600);fill-opacity:1"
     sodipodi:nodetypes="ccccccccc" />
  <path
     style="fill:#884a18;stroke:#000000;stroke-width:2.14400005;stroke-opacity:0.706"
     inkscape:connector-curvature="0"
     id="path2445-0"
     transform="matrix(0,-1,0.975,0,374.4455,444.77635)"
     clip-path="url(#E-6)"
     d="m 402.14,158.55 h 9.526 v -42.334 h -9.525 z"
     sodipodi:nodetypes="ccccc" />
  <path
     style="fill:#774115;stroke:#000000;stroke-width:2.14400005;stroke-opacity:0.706"
     inkscape:connector-curvature="0"
     id="path2447-2"
     d="m 402.14,158.55 h 9.526 v -42.334 h -9.525 z"
     clip-path="url(#E-6)"
     transform="matrix(0,-1,0.975,0,374.4455,453.24335)"
     sodipodi:nodetypes="ccccc" />
  <path
     style="fill:#663812;stroke:#000000;stroke-width:2.14400005;stroke-opacity:0.706"
     inkscape:connector-curvature="0"
     id="path2449-0"
     transform="matrix(0,-1,0.975,0,374.4455,461.71035)"
     clip-path="url(#E-6)"
     d="m 402.14,158.55 h 9.526 v -42.334 h -9.525 z"
     sodipodi:nodetypes="ccccc" />
  <path
     style="fill:#552f0f;stroke:#000000;stroke-width:2.14400005;stroke-opacity:0.706"
     inkscape:connector-curvature="0"
     id="path2451-7"
     d="m 402.14,158.55 h 9.526 v -42.334 h -9.525 z"
     clip-path="url(#E-6)"
     transform="matrix(0,-1,0.975,0,374.4455,470.17635)"
     sodipodi:nodetypes="ccccc" />
  <path
     style="fill:#44250c;stroke:#000000;stroke-width:2.14400005;stroke-opacity:0.706"
     inkscape:connector-curvature="0"
     id="path2453-4"
     transform="matrix(0,-1,0.975,0,374.4455,478.64335)"
     clip-path="url(#E-6)"
     d="m 402.14,158.55 h 9.526 v -42.334 h -9.525 z"
     sodipodi:nodetypes="ccccc" />
  <path
     style="fill:#331c09;stroke:#000000;stroke-width:2.14400005;stroke-opacity:0.706"
     inkscape:connector-curvature="0"
     id="path2455-7"
     d="m 402.14,158.55 h 9.526 v -42.334 h -9.525 z"
     clip-path="url(#E-6)"
     transform="matrix(0,-1,0.975,0,374.4455,487.11035)"
     sodipodi:nodetypes="ccccc" />
  <rect
     y="-465.9314"
     x="-61.118721"
     height="270.93338"
     width="2.1166673"
     id="rect9181"
     style="fill:#000000;fill-opacity:0.09803922;stroke:none;stroke-width:7.33235073;stroke-linecap:square;stroke-linejoin:miter;stroke-miterlimit:4;stroke-dasharray:none;stroke-opacity:1;paint-order:normal"
     transform="rotate(90)" />
  <path
     style="fill:#e5d19f;fill-opacity:1;stroke:#000000;stroke-width:3.17500091;stroke-miterlimit:4;stroke-dasharray:none;stroke-opacity:0.1372549"
     d="m 389.46685,558.80012 v 84.66602 9.1e-4 84.66605 84.6671 h 152.40006 v -84.66689 -84.66605 -9.1e-4 -84.66601 z"
     id="path3488"
     inkscape:connector-curvature="0"
     clip-path="url(#clipPath3490)"
     transform="matrix(1.111111,0,0,1.0666704,-186.94296,-985.25774)" />
  <path
     inkscape:connector-curvature="0"
     id="path3482"
     d="m 397.93352,567.26659 v 79.02168 9.2e-4 79.02164 79.02271 h 135.46672 v -79.02252 -79.02171 -9.3e-4 -79.02167 z"
     style="fill:#d2d2d2;fill-opacity:1;stroke:#030303;stroke-width:3.17500091;stroke-miterlimit:4;stroke-dasharray:none;stroke-opacity:0.56470588"
     clip-path="url(#clipPath3484)"
     transform="matrix(1.1249999,0,0,1.0714318,-193.41051,-988.52299)" />
  <path
     inkscape:connector-curvature="0"
     id="path3476"
     d="m 406.40019,575.73343 v 73.37722 9.3e-4 73.37725 73.37804 h 118.53338 v -73.37799 -73.37726 -6.3e-4 -73.37722 z"
     style="fill:#c2c2c2;fill-opacity:1;stroke:#000000;stroke-width:3.17500091;stroke-miterlimit:4;stroke-dasharray:none;stroke-opacity:0.23921569"
     clip-path="url(#clipPath3478)"
     transform="matrix(1.111111,0,0,1.0666704,-186.94296,-985.25774)" />
  <path
     id="path3470"
     d="M 414.86683,584.20014 H 516.46685 V 787.4002 H 414.86683 Z"
     inkscape:connector-curvature="0"
     style="fill:#000000;fill-opacity:0.22222224;stroke:#000000;stroke-width:3.17500091;stroke-miterlimit:4;stroke-dasharray:none;stroke-opacity:0.10196078"
     clip-path="url(#clipPath3472)"
     transform="matrix(1.111111,0,0,1.0666704,-186.94296,-985.25774)" />
  <path
     style="fill:#646464"
     inkscape:connector-curvature="0"
     id="path1454"
     transform="matrix(-0.99999999,0,0,-1.325,420.39724,221.9848)"
     d="m 402.14,158.55 h 9.526 v -42.334 h -9.525 z"
     clip-path="url(#r-4)" />
  <path
     style="fill:#464646;stroke:#000000;stroke-width:1.83899999;stroke-opacity:0.706"
     inkscape:connector-curvature="0"
     id="path1456"
     d="m 402.14,158.55 h 9.526 v -42.334 h -9.525 z"
     clip-path="url(#s-2)"
     transform="matrix(-0.99999999,0,0,-1.325,445.79524,221.9848)" />
  <path
     style="fill:#505050;stroke:#000000;stroke-width:1.83899999;stroke-opacity:0.706"
     inkscape:connector-curvature="0"
     id="path1458"
     transform="matrix(-0.99999999,0,0,-1.325,437.32926,221.9848)"
     clip-path="url(#s-2)"
     d="m 402.14,158.55 h 9.526 v -42.334 h -9.525 z" />
  <path
     style="fill:#5a5a5a;stroke:#000000;stroke-width:1.83899999;stroke-opacity:0.706"
     inkscape:connector-curvature="0"
     id="path1460"
     d="m 402.14,158.55 h 9.526 v -42.334 h -9.525 z"
     clip-path="url(#s-2)"
     transform="matrix(-0.99999999,0,0,-1.325,428.86224,221.9848)" />
  <path
     style="fill:#3c3c3c;stroke:#000000;stroke-width:1.83899999;stroke-opacity:0.706"
     inkscape:connector-curvature="0"
     id="path1462"
     transform="matrix(-0.99999999,0,0,-1.325,454.26225,221.9848)"
     clip-path="url(#s-2)"
     d="m 402.14,158.55 h 9.526 v -42.334 h -9.525 z" />
  <path
     style="fill:#323232;stroke:#000000;stroke-width:1.83899999;stroke-opacity:0.706"
     inkscape:connector-curvature="0"
     id="path1464"
     transform="matrix(-0.99999999,0,0,-1.325,462.72924,221.9848)"
     clip-path="url(#s-2)"
     d="m 402.14,158.55 h 9.526 v -42.334 h -9.525 z" />
  <path
     style="fill:#323232;stroke:#000000;stroke-width:1.83899999;stroke-opacity:0.706"
     inkscape:connector-curvature="0"
     id="path1466"
     d="m 402.14,158.55 h 9.526 v -42.334 h -9.525 z"
     clip-path="url(#s-2)"
     transform="matrix(-0.99999999,0,0,-1.325,462.72924,221.9848)" />
  <path
     sodipodi:nodetypes="ccccc"
     d="m 0,524.9348 v 8.466 h 60.854 v -8.46731 z"
     id="path4016"
     inkscape:connector-curvature="0"
     style="fill:#a59b83;fill-opacity:1;stroke:#050505;stroke-width:3.17500091;stroke-miterlimit:4;stroke-dasharray:none;stroke-opacity:1"
     clip-path="url(#clipPath4018)"
     transform="translate(0.26458101,-465.40223)" />
  <path
     clip-path="url(#clipPath4018)"
     style="fill:#a59b83;fill-opacity:1;stroke:#050505;stroke-width:3.17500091;stroke-miterlimit:4;stroke-dasharray:none;stroke-opacity:1"
     inkscape:connector-curvature="0"
     id="path4022"
     d="m 0,524.9348 v 8.466 h 60.854 v -8.46731 z"
     sodipodi:nodetypes="ccccc"
     transform="translate(0.26458101,-516.20289)" />
  <g
     id="g1486"
     transform="matrix(0.50000014,0,0,0.50000014,287.86673,-97.170914)"
     style="fill:#616161;fill-opacity:0.63636361">
    <rect
       style="fill:#616161;fill-opacity:0.63636361;stroke:none;stroke-width:1.0583334;stroke-linecap:square;stroke-linejoin:bevel;stroke-miterlimit:4;stroke-dasharray:none;stroke-opacity:1;paint-order:normal"
       id="rect1444"
       width="2.1166668"
       height="2.1166668"
       x="3.1750002"
       y="285.35834" />
    <rect
       y="288.53333"
       x="3.1750002"
       height="2.1166668"
       width="2.1166668"
       id="rect1446"
       style="fill:#616161;fill-opacity:0.63636361;stroke:none;stroke-width:1.0583334;stroke-linecap:square;stroke-linejoin:bevel;stroke-miterlimit:4;stroke-dasharray:none;stroke-opacity:1;paint-order:normal" />
    <rect
       y="291.70834"
       x="6.3499994"
       height="2.1166668"
       width="2.1166668"
       id="rect1450"
       style="fill:#616161;fill-opacity:0.63636361;stroke:none;stroke-width:1.0583334;stroke-linecap:square;stroke-linejoin:bevel;stroke-miterlimit:4;stroke-dasharray:none;stroke-opacity:1;paint-order:normal" />
    <rect
       style="fill:#616161;fill-opacity:0.63636361;stroke:none;stroke-width:1.0583334;stroke-linecap:square;stroke-linejoin:bevel;stroke-miterlimit:4;stroke-dasharray:none;stroke-opacity:1;paint-order:normal"
       id="rect1452"
       width="2.1166668"
       height="2.1166668"
       x="6.3499994"
       y="288.53333" />
    <rect
       y="285.35834"
       x="6.3499994"
       height="2.1166668"
       width="2.1166668"
       id="rect1454"
       style="fill:#616161;fill-opacity:0.63636361;stroke:none;stroke-width:1.0583334;stroke-linecap:square;stroke-linejoin:bevel;stroke-miterlimit:4;stroke-dasharray:none;stroke-opacity:1;paint-order:normal" />
    <rect
       style="fill:#616161;fill-opacity:0.63636361;stroke:none;stroke-width:1.0583334;stroke-linecap:square;stroke-linejoin:bevel;stroke-miterlimit:4;stroke-dasharray:none;stroke-opacity:1;paint-order:normal"
       id="rect1456"
       width="2.1166668"
       height="2.1166668"
       x="6.3499994"
       y="282.18335" />
    <rect
       y="282.18335"
       x="9.5249996"
       height="2.1166668"
       width="2.1166668"
       id="rect1458"
       style="fill:#616161;fill-opacity:0.63636361;stroke:none;stroke-width:1.0583334;stroke-linecap:square;stroke-linejoin:bevel;stroke-miterlimit:4;stroke-dasharray:none;stroke-opacity:1;paint-order:normal" />
    <rect
       style="fill:#616161;fill-opacity:0.63636361;stroke:none;stroke-width:1.0583334;stroke-linecap:square;stroke-linejoin:bevel;stroke-miterlimit:4;stroke-dasharray:none;stroke-opacity:1;paint-order:normal"
       id="rect1460"
       width="2.1166668"
       height="2.1166668"
       x="9.5249996"
       y="285.35834" />
    <rect
       y="288.53333"
       x="9.5249996"
       height="2.1166668"
       width="2.1166668"
       id="rect1462"
       style="fill:#616161;fill-opacity:0.63636361;stroke:none;stroke-width:1.0583334;stroke-linecap:square;stroke-linejoin:bevel;stroke-miterlimit:4;stroke-dasharray:none;stroke-opacity:1;paint-order:normal" />
    <rect
       style="fill:#616161;fill-opacity:0.63636361;stroke:none;stroke-width:1.0583334;stroke-linecap:square;stroke-linejoin:bevel;stroke-miterlimit:4;stroke-dasharray:none;stroke-opacity:1;paint-order:normal"
       id="rect1464"
       width="2.1166668"
       height="2.1166668"
       x="9.5249996"
       y="291.70834" />
    <rect
       y="285.35834"
       x="12.7"
       height="2.1166668"
       width="2.1166668"
       id="rect1468"
       style="fill:#616161;fill-opacity:0.63636361;stroke:none;stroke-width:1.0583334;stroke-linecap:square;stroke-linejoin:bevel;stroke-miterlimit:4;stroke-dasharray:none;stroke-opacity:1;paint-order:normal" />
    <rect
       style="fill:#616161;fill-opacity:0.63636361;stroke:none;stroke-width:1.0583334;stroke-linecap:square;stroke-linejoin:bevel;stroke-miterlimit:4;stroke-dasharray:none;stroke-opacity:1;paint-order:normal"
       id="rect1470"
       width="2.1166668"
       height="2.1166668"
       x="12.7"
       y="288.53333" />
  </g>
  <path
     sodipodi:nodetypes="ccccc"
     d="M 135.4667,525.99183 H 67.73335 v -5.82065 h 67.73335 z"
     id="path2848"
     inkscape:connector-curvature="0"
     style="fill:#5d2f09;stroke:#191919;stroke-width:2.11666727;stroke-miterlimit:4;stroke-dasharray:none;stroke-opacity:1"
     clip-path="url(#clipPath2850)"
     transform="translate(0.26458101,-465.40223)" />
  <path
     style="fill:#d8a584;fill-opacity:0.19607843;stroke-width:0.65465301"
     inkscape:connector-curvature="0"
     id="path1467"
     d="M 237.33131,135.73128 V 84.931266 h -8.466 v 50.800014 z"
     sodipodi:nodetypes="ccccc" />
  <path
     sodipodi:nodetypes="ccccc"
     d="M 194.99729,135.73128 V 84.931266 h -8.466 v 50.800014 z"
     id="path1469"
     inkscape:connector-curvature="0"
     style="fill:#d8a584;fill-opacity:0.19607843;stroke-width:0.65465301" />
  <path
     sodipodi:nodetypes="ccccccccccccccccccccccccccccccccccccccccccccccccccccccccccccccccccccccccccccccccccccccccccc"
     style="fill:#42080c;fill-opacity:1;stroke:#050505;stroke-width:3.17500091;stroke-miterlimit:4;stroke-dasharray:none;stroke-opacity:1"
     d="M 194.73442,-177.80212 V 16.933338 h -42.37158 l 0.007,67.733354 H 25.400007 V 203.20006 H 152.38092 l 0.0191,194.73339 H 84.666692 v 76.20002 H 0 v 8.46667 h 93.133361 l 0.0011,-76.20055 h 67.732289 l -0.0114,-118.48426 0.0486,-0.0486 -0.0372,-127.00002 h -0.0238 -8.4429 -0.0232 l 0.003,33.86668 H 33.866677 V 93.133361 H 152.37059 l 0.003,33.866679 h 0.0264 8.43928 0.0274 V 50.800015 l -0.0346,-0.03462 -0.003,-25.365382 H 296.33445 V -16.934372 H 220.09619 V -152.40108 H 440.2296 v 135.466708 h -76.16179 v 42.334379 h 135.42847 l 0.0372,237.066733 h 8.46667 V 228.60007 H 626.53352 V 330.2001 H 508.00015 v -33.86668 h -8.46667 V 397.93345 H 381.00011 v 160.86671 h 110.06667 v -67.73388 h -8.46666 V 550.3335 H 389.46678 V 406.40012 H 508.00015 V 338.66677 H 635.00019 V 220.1334 H 508.00015 l -0.0372,-203.200062 -42.29511,-10e-4 V -177.80109 Z m -50.80001,634.9976 v 33.87133 h 169.33235 v 76.20002 h 33.86668 V 457.19857 Z m 380.99905,33.87133 v 110.0667 H 347.13344 152.40004 V 541.86683 524.93349 H 0 v 8.46511 h 59.266684 l 8.466669,8.46616 76.200027,0.003 v 67.73338 H 330.2001 l 8.46667,8.46556 H 533.40013 V 491.0669 Z"
     id="path2187"
     inkscape:connector-curvature="0"
     clip-path="url(#clipPath2189)"
     transform="translate(0.26458101,-465.40223)" />
  <path
     clip-path="url(#y-0)"
     d="m 496.26,-65.722 v -10.054 h -25.4 v 10.054 z"
     transform="rotate(180,282.12897,-3.095367)"
     id="path225"
     inkscape:connector-curvature="0"
     style="fill:#252525;stroke:#191919;stroke-width:3.17499995" />
  <path
     style="fill:#252525;stroke:#191919;stroke-width:3.17499995"
     inkscape:connector-curvature="0"
     id="path2791"
     transform="rotate(180,299.0623,-3.095367)"
     d="m 496.26,-65.722 v -10.054 h -25.4 v 10.054 z"
     clip-path="url(#y-0)" />
  <path
     style="fill:#252525;stroke:#191919;stroke-width:3.17499995"
     inkscape:connector-curvature="0"
     id="path2793"
     transform="rotate(180,476.86234,35.004642)"
     d="m 496.26,-65.722 v -10.054 h -25.4 v 10.054 z"
     clip-path="url(#y-0)" />
  <path
     clip-path="url(#y-0)"
     d="m 496.26,-65.722 v -10.054 h -25.4 v 10.054 z"
     transform="rotate(180,442.99567,35.004642)"
     id="path2816"
     inkscape:connector-curvature="0"
     style="fill:#252525;stroke:#191919;stroke-width:3.17499995" />
  <path
     style="fill:#252525;stroke:#191919;stroke-width:3.17499995"
     inkscape:connector-curvature="0"
     id="path2818"
     transform="rotate(180,459.929,35.004642)"
     d="m 496.26,-65.722 v -10.054 h -25.4 v 10.054 z"
     clip-path="url(#y-0)" />
  <rect
     style="fill:#000000;fill-opacity:0.58823529;stroke:none;stroke-width:3.17500091;stroke-linecap:round;stroke-linejoin:miter;stroke-miterlimit:4;stroke-dasharray:none;stroke-opacity:1;paint-order:normal"
     id="rect1463"
     width="59.266682"
     height="76.20002"
     x="-75.93544"
     y="0.26458341" />
</svg>
