<svg xmlns="http://www.w3.org/2000/svg" xmlns:xlink="http://www.w3.org/1999/xlink" width="2240" height="1924" viewBox="0 0 592.667 509.058"><defs><pattern xlink:href="#a" id="e" patternTransform="matrix(.18709 -.18709 .18709 .18709 415.9 99.283)"/><clipPath id="f"><path fill="#b06e24" stroke-width="1.951" d="M293.132-44.65h78.317v8.467h-78.317z"/></clipPath><clipPath id="g"><path fill="#b06e24" stroke-width="1.883" d="M293.132 217.816h73.025v8.467h-73.025z"/></clipPath><clipPath id="h"><path fill="#b06e24" stroke-width="1.977" d="M365.099 141.616h80.433v8.467h-80.433z"/></clipPath><clipPath id="i"><path fill="#b06e24" stroke-width="1.977" d="M365.099 141.616h80.433v8.467h-80.433z"/></clipPath><clipPath id="j"><path clip-path="url(#clipPath2845)" d="M402.14 158.55h9.526v-42.334h-9.525z" fill="#a3977d" stroke-width="1.984"/></clipPath><pattern patternUnits="userSpaceOnUse" width="64" height="64" patternTransform="translate(415.9 101.4) scale(.26458)" id="a"><path fill="none" stroke-width="3.78" d="M0 0h64v64H0z"/><path fill="#312b2b" stroke-width="11.314" d="M0 0h64v64H0z"/><path transform="rotate(90)" fill-opacity=".294" stroke-width="2.666" stroke-miterlimit="10" d="M14-30h2V0h-2z"/><path fill-opacity=".294" stroke-width="3.302" stroke-miterlimit="10" d="M30 0h2v46h-2z"/><path transform="rotate(90)" fill-opacity=".294" stroke-width="1.822" stroke-miterlimit="10" d="M30-14h2V0h-2z"/><path fill-opacity=".294" stroke-width="3.373" stroke-miterlimit="10" d="M14 16h2v48h-2z"/><path transform="rotate(90)" fill-opacity=".294" stroke-width="3.302" stroke-miterlimit="10" d="M46-62h2v46h-2z"/><path transform="rotate(90)" fill-opacity=".294" stroke-width="2.754" stroke-miterlimit="10" d="M30-64h2v32h-2z"/><path transform="rotate(90)" fill-opacity=".294" stroke-width="1.947" stroke-miterlimit="10" d="M14-64h2v16h-2z"/><path fill-opacity=".294" stroke-width="2.666" stroke-miterlimit="10" d="M46 0h2v30h-2z"/><path fill-opacity=".294" stroke-width="1.947" stroke-miterlimit="10" d="M46 48h2v16h-2z"/><path transform="rotate(90)" fill-opacity=".294" stroke-width="2.666" stroke-miterlimit="10" d="M62-46h2v30h-2z"/><path transform="rotate(90)" fill-opacity=".294" stroke-width="1.822" stroke-miterlimit="10" d="M62-14h2V0h-2z"/><path fill-opacity=".294" stroke-width="1.822" stroke-miterlimit="10" d="M62 0h2v14h-2z"/><path fill-opacity=".294" stroke-width="2.754" stroke-miterlimit="10" d="M62 32h2v32h-2z"/></pattern><clipPath id="c"><path clip-path="url(#clipPath6865)" d="M402.14 158.55h9.526v-42.334h-9.525z" fill="#a3977d" stroke-width="1.984"/></clipPath><clipPath id="d"><path d="M351.34 147.966h9.526V92.933h-9.525z" clip-path="url(#clipPath6865)" fill="#a3977d" stroke-width="2.263"/></clipPath><clipPath id="k"><path d="M166.132-19.25v76.2h67.734V-2.317h110.066v101.07l67.734-.006v-8.46h-59.267v-101.07h-127v59.266h-50.8V-19.25z" fill="#a3977d" stroke-width="2.243"/></clipPath><clipPath id="l"><path d="M123.8-19.25v211.666h67.732v33.867h93.134v-33.867h67.733v-41.804h59.267v-8.467h-67.734v41.805H276.2v33.866H200V183.95h-67.733v-203.2z" fill="#a3977d" stroke-width="2.243"/></clipPath><filter id="b" x="-.05" width="1.099" y="-.056" height="1.113" color-interpolation-filters="sRGB"><feGaussianBlur stdDeviation="9.965"/></filter></defs><path d="M-104.8-36.713V285.02h6.35v27.517H75.115v-27.516h40.216v33.866h67.734V285.09l194.733-.069V-36.713H259.266v-67.733H47.599v67.733z" fill-opacity=".506" filter="url(#b)" transform="translate(130.2 147.309)"/><path transform="matrix(1 0 0 1.3 147.134 63.231)" d="M402.14 158.55h9.526v-42.334h-9.525z" clip-path="url(#c)" fill="#646464"/><path transform="translate(164.068 121.38)" clip-path="url(#d)" d="M351.34 147.966h9.526V92.933h-9.525z" fill="#3c3c3c" stroke="#000" stroke-width="2.117" stroke-opacity=".706"/><path d="M351.34 147.966h9.526V92.933h-9.525z" clip-path="url(#d)" transform="translate(172.534 121.38)" fill="#464646" stroke="#000" stroke-width="2.117" stroke-opacity=".706"/><path transform="translate(181.001 121.38)" clip-path="url(#d)" d="M351.34 147.966h9.526V92.933h-9.525z" fill="#505050" stroke="#000" stroke-width="2.117" stroke-opacity=".706"/><path d="M351.34 147.966h9.526V92.933h-9.525z" clip-path="url(#d)" transform="translate(189.468 121.38)" fill="#5a5a5a" stroke="#000" stroke-width="2.117" stroke-opacity=".706"/><path d="M123.8 48.483h101.6v-59.267h127v203.2h-67.734v33.867h-93.134v-33.867H123.8z" fill="url(#e)" transform="translate(155.6 121.38)"/><path d="M351.34 147.966h9.526V92.933h-9.525z" clip-path="url(#d)" fill="#323232" stroke="#000" stroke-width="2.117" stroke-opacity=".706" transform="translate(155.6 121.38)"/><path transform="translate(97.393 165.83)" clip-path="url(#f)" fill="#4b2400" fill-opacity=".882" stroke="#191919" stroke-width="2.117" stroke-opacity=".502" d="M293.132-44.65h78.317v8.467h-78.317z"/><path transform="translate(64.055 111.325)" clip-path="url(#g)" fill="#4b2400" fill-opacity=".882" stroke="#191919" stroke-width="2.117" stroke-opacity=".502" d="M293.132 217.816h73.025v8.467h-73.025z"/><path transform="translate(-11.616 86.454)" clip-path="url(#h)" fill="#4b2400" fill-opacity=".882" stroke="#191919" stroke-width="2.117" stroke-opacity=".502" d="M365.099 141.616h80.433v8.467h-80.433z"/><path transform="translate(-11.616 105.504)" clip-path="url(#i)" fill="#4b2400" fill-opacity=".882" stroke="#191919" stroke-width="2.117" stroke-opacity=".502" d="M365.099 141.616h80.433v8.467h-80.433z"/><path d="M402.14 158.55h9.526v-42.334h-9.525z" clip-path="url(#j)" transform="matrix(0 -1 .975 0 171.38 522.263)" fill="#99541b"/><path transform="matrix(0 -1 .975 0 171.38 530.73)" clip-path="url(#j)" d="M402.14 158.55h9.526v-42.334h-9.525z" fill="#884a18" stroke="#000" stroke-width="2.144" stroke-opacity=".706"/><path d="M402.14 158.55h9.526v-42.334h-9.525z" clip-path="url(#j)" transform="matrix(0 -1 .975 0 171.38 539.196)" fill="#774115" stroke="#000" stroke-width="2.144" stroke-opacity=".706"/><path transform="matrix(0 -1 .975 0 171.38 547.663)" clip-path="url(#j)" d="M402.14 158.55h9.526v-42.334h-9.525z" fill="#663812" stroke="#000" stroke-width="2.144" stroke-opacity=".706"/><path d="M402.14 158.55h9.526v-42.334h-9.525z" clip-path="url(#j)" transform="matrix(0 -1 .975 0 171.38 556.13)" fill="#552f0f" stroke="#000" stroke-width="2.144" stroke-opacity=".706"/><path transform="matrix(0 -1 .975 0 171.38 564.596)" clip-path="url(#j)" d="M402.14 158.55h9.526v-42.334h-9.525z" fill="#44250c" stroke="#000" stroke-width="2.144" stroke-opacity=".706"/><path d="M402.14 158.55h9.526v-42.334h-9.525z" clip-path="url(#j)" transform="matrix(0 -1 .975 0 171.38 573.063)" fill="#331c09" stroke="#000" stroke-width="2.144" stroke-opacity=".706"/><g fill="#462d12" stroke="#000" stroke-width=".529"><path d="M287.466 213.089l2.116-2.117h2.117l2.117-2.117h2.116l1.059-1.15h2.936l-1.22 1.316h-.749l-1.592 1.69-2.001.007-1.608 1.662h-2.116l-3.175 2.825zm.018 15.111l2.117 2.116h2.117l2.116 2.117h1.584l1.463 1.036h1.714l2.04-2.548h-1.886l-.694.857-1.046-.005-1.626-1.197-1-.005-1.607-1.662h-2.117l-3.175-2.826zm-.018-9.654l2.116-2.117h2.117l2.117-2.117h2.116l1.059 1.059h2.116l2.117 2.116h-2.493l-.682-.663-2.117-.009-.567-.646-1 .006-1.608 1.662h-2.116l-3.175 2.825zm.018 5.869l2.117 1.668h2.117l2.116 1.507h2.117l2.1-1.5-.013-1.73 2.175-2.116h-2.182l-1.402 1.373v1.47l-1.246.867-1-.006-1.864-1.273h-1.86l-3.175-2.377z"/><path d="M287.466 220.662h2.936l2.117-1.458h2.116l1.887 2.186-1.887-.009-.567-.646-1 .006-1.847 1.298-3.737.012z"/></g><path fill="#1a1a1a" d="M302.068 286.506l2.663-2.663 5.663 5.662-2.663 2.663zm23.599-65.509l2.663 2.663-5.662 5.662-2.663-2.663zm83.811 35.924l2.663 2.663-5.662 5.663-2.663-2.663zm80.507 26.613l-2.663 2.663-5.662-5.663 2.663-2.663zm-35.899-125.725l-2.663 2.663-5.663-5.663 2.663-2.663z"/><path clip-path="url(#k)" d="M166.132-19.25v76.2h67.734V-2.317h110.066v101.07l67.734-.006v-8.46h-59.267v-101.07h-127v59.266h-50.8V-19.25z" fill="#ccbc9a" stroke="#000" stroke-width="3.175" transform="translate(155.6 121.38)"/><path clip-path="url(#l)" d="M123.8-19.25v211.666h67.732v33.867h93.134v-33.867h67.733v-41.804h59.267v-8.467h-67.734v41.805H276.2v33.866H200V183.95h-67.733v-203.2z" fill="#ccbc9a" stroke="#000" stroke-width="3.175" transform="translate(155.6 121.38)"/></svg>