<?xml version="1.0" encoding="UTF-8" standalone="no"?>
<svg
   xmlns:dc="http://purl.org/dc/elements/1.1/"
   xmlns:cc="http://creativecommons.org/ns#"
   xmlns:rdf="http://www.w3.org/1999/02/22-rdf-syntax-ns#"
   xmlns:svg="http://www.w3.org/2000/svg"
   xmlns="http://www.w3.org/2000/svg"
   xmlns:xlink="http://www.w3.org/1999/xlink"
   xmlns:sodipodi="http://sodipodi.sourceforge.net/DTD/sodipodi-0.dtd"
   xmlns:inkscape="http://www.inkscape.org/namespaces/inkscape"
   width="320"
   height="320"
   viewBox="0 0 84.666 84.666667"
   version="1.1"
   id="svg33"
   sodipodi:docname="map-bunker-crossing-floor-01.svg"
   inkscape:version="0.92.2 (5c3e80d, 2017-08-06)">
  <metadata
     id="metadata37">
    <rdf:RDF>
      <cc:Work
         rdf:about="">
        <dc:format>image/svg+xml</dc:format>
        <dc:type
           rdf:resource="http://purl.org/dc/dcmitype/StillImage" />
        <dc:title></dc:title>
      </cc:Work>
    </rdf:RDF>
  </metadata>
  <sodipodi:namedview
     pagecolor="#ffffff"
     bordercolor="#666666"
     borderopacity="1"
     objecttolerance="10"
     gridtolerance="10"
     guidetolerance="10"
     inkscape:pageopacity="0"
     inkscape:pageshadow="2"
     inkscape:window-width="1920"
     inkscape:window-height="1017"
     id="namedview35"
     showgrid="true"
     inkscape:zoom="1.1588695"
     inkscape:cx="104.48893"
     inkscape:cy="241.34617"
     inkscape:window-x="1912"
     inkscape:window-y="-8"
     inkscape:window-maximized="1"
     inkscape:current-layer="svg33">
    <inkscape:grid
       type="xygrid"
       id="grid844"
       empspacing="8"
       spacingy="1.0583333"
       spacingx="1.058325" />
  </sodipodi:namedview>
  <defs
     id="defs11">
    <clipPath
       id="a">
      <path
         clip-path="url(#clipPath6865)"
         d="m 402.14,158.55 h 9.526 v -42.334 h -9.525 z"
         id="path2"
         inkscape:connector-curvature="0"
         style="fill:#a3977d;stroke-width:1.98399997" />
    </clipPath>
    <clipPath
       id="b">
      <path
         d="m -22.25,168.075 v -9.525 h -46.568 v 9.525 z"
         clip-path="url(#clipPath6865)"
         id="path5"
         inkscape:connector-curvature="0"
         style="fill:#a3977d;stroke-width:2.08100009" />
    </clipPath>
    <clipPath
       id="c">
      <path
         d="m -70.934,202.47 h 50.8 v -60.854 h -8.467 v 48.155 l -4.233,4.233 h -25.4 l -4.234,-4.233 v -48.155 h -8.466 z"
         id="path8"
         inkscape:connector-curvature="0"
         style="fill:#a3977d;stroke-width:5.14400005" />
    </clipPath>
    <clipPath
       id="g">
      <path
         style="fill:#3a3a3a;stroke-width:3.17499995"
         inkscape:connector-curvature="0"
         d="M 245.533,169.334 228.6,152.4 V 25.4 L 245.533,8.467 Z"
         id="path8-9" />
    </clipPath>
    <clipPath
       id="f">
      <path
         style="fill:#3a3a3a;stroke-width:6.52400017;stroke-opacity:0.22699998"
         inkscape:connector-curvature="0"
         d="m 127,169.334 h 16.933 c 0,-4.234 4.233,-8.467 8.467,-8.467 h 16.933 c 4.233,0 8.467,4.233 8.468,8.467 h 67.732 L 228.6,152.4 h -84.667 z"
         id="path5-0" />
    </clipPath>
    <clipPath
       id="clipPath868">
      <path
         style="fill:#3a3a3a;stroke-width:3.17499995"
         inkscape:connector-curvature="0"
         d="M 245.533,169.334 228.6,152.4 V 25.4 L 245.533,8.467 Z"
         id="path866" />
    </clipPath>
    <clipPath
       id="clipPath872">
      <path
         style="fill:#3a3a3a;stroke-width:6.52400017;stroke-opacity:0.22699998"
         inkscape:connector-curvature="0"
         d="m 127,169.334 h 16.933 c 0,-4.234 4.233,-8.467 8.467,-8.467 h 16.933 c 4.233,0 8.467,4.233 8.468,8.467 h 67.732 L 228.6,152.4 h -84.667 z"
         id="path870" />
    </clipPath>
    <clipPath
       id="e">
      <path
         style="fill:#424148;stroke-width:3.17499995"
         inkscape:connector-curvature="0"
         d="M 143.933,25.4 H 228.6 v 127 h -84.667 z"
         id="path2-1" />
    </clipPath>
    <clipPath
       clipPathUnits="userSpaceOnUse"
       id="clipPath901">
      <path
         sodipodi:nodetypes="ccccc"
         style="fill:#3a3a3a;stroke-width:3.17499995"
         inkscape:connector-curvature="0"
         d="M 16.935,60.856 29.635667,48.156339 55.035339,48.155239 67.735006,60.8549 Z"
         id="path903" />
    </clipPath>
    <clipPath
       clipPathUnits="userSpaceOnUse"
       id="clipPath907">
      <path
         sodipodi:nodetypes="ccccc"
         style="fill:#3a3a3a;stroke-width:3.17499995"
         inkscape:connector-curvature="0"
         d="M 67.735,60.856 55.035339,48.155333 55.033,12.700002 67.732659,3.3599967e-4 Z"
         id="path909" />
    </clipPath>
    <clipPath
       clipPathUnits="userSpaceOnUse"
       id="clipPath913">
      <path
         id="path915"
         d="m 16.933,-6.6000048e-4 h 8.46667 C 25.39967,4.2333399 29.632669,8.4663399 33.866669,8.4663399 h 16.933 c 4.233,0 8.467,-4.233 8.468,-8.46699990048 L 67.733,2.4e-6 55.033,12.700002 h -25.4 z"
         inkscape:connector-curvature="0"
         style="fill:#3a3a3a;stroke-width:6.52400017;stroke-opacity:0.22699998"
         sodipodi:nodetypes="ccssccccc" />
    </clipPath>
    <clipPath
       clipPathUnits="userSpaceOnUse"
       id="clipPath913-9">
      <path
         id="path915-0"
         d="m 16.933,-6.6000048e-4 h 8.46667 C 25.39967,4.2333399 29.632669,8.4663399 33.866669,8.4663399 h 16.933 c 4.233,0 8.467,-4.233 8.468,-8.46699990048 L 67.733,2.4e-6 55.033,12.700002 h -25.4 z"
         inkscape:connector-curvature="0"
         style="fill:#3a3a3a;stroke-width:6.52400017;stroke-opacity:0.22699998"
         sodipodi:nodetypes="ccssccccc" />
    </clipPath>
    <clipPath
       clipPathUnits="userSpaceOnUse"
       id="clipPath907-5">
      <path
         sodipodi:nodetypes="ccccc"
         style="fill:#3a3a3a;stroke-width:3.17499995"
         inkscape:connector-curvature="0"
         d="M 67.735,60.856 55.035339,48.155333 55.033,12.700002 67.732659,3.3599967e-4 Z"
         id="path909-2" />
    </clipPath>
    <clipPath
       clipPathUnits="userSpaceOnUse"
       id="clipPath901-3">
      <path
         sodipodi:nodetypes="ccccc"
         style="fill:#3a3a3a;stroke-width:3.17499995"
         inkscape:connector-curvature="0"
         d="M 16.935,60.856 29.635667,48.156339 55.035339,48.155239 67.735006,60.8549 Z"
         id="path903-1" />
    </clipPath>
    <clipPath
       clipPathUnits="userSpaceOnUse"
       id="clipPath895-5">
      <path
         id="path897-0"
         d="M 16.93334,-6.6400098e-4 29.633,12.700002 29.634587,48.156334 16.934929,60.856 Z"
         inkscape:connector-curvature="0"
         style="fill:#3a3a3a;stroke-width:3.17499995"
         sodipodi:nodetypes="ccccc" />
    </clipPath>
    <clipPath
       id="c-8">
      <path
         style="fill:#a3977d;stroke-width:5.14400005"
         inkscape:connector-curvature="0"
         d="m -70.934,202.47 h 50.8 v -60.854 h -8.467 v 48.155 l -4.233,4.233 h -25.4 l -4.234,-4.233 v -48.155 h -8.466 z"
         id="path8-3" />
    </clipPath>
    <clipPath
       clipPathUnits="userSpaceOnUse"
       id="clipPath919-7">
      <path
         id="path921-4"
         d="M 29.634659,12.700002 H 55.033 V 48.156334 H 29.634659 Z"
         inkscape:connector-curvature="0"
         style="fill:#565656;fill-opacity:1;stroke-width:0.91882825" />
    </clipPath>
    <clipPath
       clipPathUnits="userSpaceOnUse"
       id="clipPath1019">
      <path
         sodipodi:nodetypes="ccccc"
         style="fill:#3a3a3a;stroke-width:3.17499995"
         inkscape:connector-curvature="0"
         d="M 6.5504388e-6,-6.6398246e-4 12.699667,12.700002 12.699325,71.967 -3.335e-4,84.666667 Z"
         id="path1021" />
    </clipPath>
    <clipPath
       clipPathUnits="userSpaceOnUse"
       id="clipPath1031">
      <path
         style="fill:#565656;fill-opacity:1;stroke-width:1.81466007"
         inkscape:connector-curvature="0"
         d="M 12.699667,12.700002 H 71.966333 V 71.966667 H 12.699667 Z"
         id="path1033" />
    </clipPath>
    <clipPath
       id="a-3">
      <ellipse
         style="fill:#3f3f3f;fill-opacity:0.61199999;stroke-width:3.49000001;stroke-opacity:0.706"
         ry="10.319"
         rx="10.335"
         cy="243.216"
         cx="-24.735001"
         id="ellipse2" />
    </clipPath>
    <pattern
       xlink:href="#a-9"
       id="c-2"
       patternTransform="matrix(0,0.0661493,0.0661493,0,153.45707,-53.973742)" />
    <pattern
       xlink:href="#b-7"
       id="a-9"
       patternTransform="translate(-159.834 378.683) scale(.06615)" />
    <pattern
       patternUnits="userSpaceOnUse"
       width="32"
       height="32"
       patternTransform="translate(-159.834 378.683) scale(.26458)"
       id="b-7">
      <path
         fill="none"
         stroke-width="3.78"
         d="M0 0h32v32H0z"
         id="path4" />
      <path
         fill="none"
         stroke-width="4"
         d="M0 0h32v32H0z"
         id="path6" />
      <path
         d="M16 0v32M0 16h32"
         fill="none"
         stroke="#000"
         stroke-width="4"
         id="path8-8" />
    </pattern>
    <clipPath
       clipPathUnits="userSpaceOnUse"
       id="clipPath1575">
      <ellipse
         transform="translate(42.7265,-225.2245)"
         clip-path="url(#a-3)"
         ry="10.319"
         rx="10.335"
         cy="243.216"
         cx="-24.735001"
         id="ellipse1577"
         style="fill:#3f3f3f;fill-opacity:1;stroke:none;stroke-width:2.1170001;stroke-opacity:0.5" />
    </clipPath>
  </defs>
  <path
     id="path1029"
     d="M 12.699667,12.700002 H 71.966333 V 71.966667 H 12.699667 Z"
     inkscape:connector-curvature="0"
     style="fill:#565656;fill-opacity:1;stroke-width:2.11666667;stroke:#000000;stroke-opacity:1;stroke-miterlimit:4;stroke-dasharray:none"
     clip-path="url(#clipPath1031)" />
  <path
     id="path1017"
     d="M 6.55e-6,-6.6398333e-4 12.699667,12.700002 12.699325,71.967001 -3.335e-4,84.666667 Z"
     inkscape:connector-curvature="0"
     style="fill:#3a3a3a;stroke-width:2.11666667;stroke:#000000;stroke-opacity:1;stroke-miterlimit:4;stroke-dasharray:none"
     sodipodi:nodetypes="ccccc"
     clip-path="url(#clipPath1019)" />
  <path
     clip-path="url(#clipPath1019)"
     sodipodi:nodetypes="ccccc"
     style="fill:#3a3a3a;stroke:#000000;stroke-width:2.11666667;stroke-opacity:1;stroke-miterlimit:4;stroke-dasharray:none"
     inkscape:connector-curvature="0"
     d="M 6.55e-6,-6.6398333e-4 12.699667,12.700002 12.699325,71.967001 -3.335e-4,84.666667 Z"
     id="path1023"
     transform="rotate(180,42.333,42.333335)" />
  <path
     clip-path="url(#clipPath1019)"
     sodipodi:nodetypes="ccccc"
     style="fill:#3a3a3a;stroke:#000000;stroke-width:2.11666667;stroke-opacity:1;stroke-miterlimit:4;stroke-dasharray:none"
     inkscape:connector-curvature="0"
     d="M 6.55e-6,-6.6398333e-4 12.699667,12.700002 12.699325,71.967001 -3.335e-4,84.666667 Z"
     id="path1025"
     transform="rotate(90,42.333,42.333335)" />
  <path
     transform="rotate(-90,42.333,42.333335)"
     id="path1027"
     d="M 6.55e-6,-6.6398333e-4 12.699667,12.700002 12.699325,71.967001 -3.335e-4,84.666667 Z"
     inkscape:connector-curvature="0"
     style="fill:#3a3a3a;stroke:#000000;stroke-width:2.11666667;stroke-opacity:1;stroke-miterlimit:4;stroke-dasharray:none"
     sodipodi:nodetypes="ccccc"
     clip-path="url(#clipPath1019)" />
  <g
     id="g1072"
     transform="translate(-64.558838,5.2911658)">
    <ellipse
       transform="matrix(1.0000093,0,0,1.0000093,131.62706,-206.08808)"
       clip-path="url(#a-3)"
       ry="10.319"
       rx="10.335"
       cy="243.216"
       cx="-24.735001"
       id="ellipse9"
       style="fill:#3f3f3f;fill-opacity:0.61199999;stroke:#404040;stroke-width:2.1170001;stroke-opacity:0.5" />
    <path
       clip-path="url(#clipPath1575)"
       id="path34"
       d="M 5.291634,5.2916331 V 30.691367 H 30.691366 V 5.2916331 Z"
       style="fill:url(#c-2);stroke-width:0.99998951"
       inkscape:connector-curvature="0"
       transform="matrix(1.0000093,0,0,1.0000093,88.899667,19.050002)" />
    <ellipse
       cx="106.89184"
       cy="37.042168"
       rx="12.670117"
       ry="12.612118"
       id="ellipse7"
       style="fill:#3f3f3f;fill-opacity:0.61199999;stroke-width:1.0000093" />
  </g>
  <path
     style="fill:#005a8e;fill-opacity:0.48500001;stroke-width:0.36860365"
     d="M -3.335e-4,3e-6 V 84.666667 H 84.666333 V 3e-6 Z"
     id="path1600"
     inkscape:connector-curvature="0"
     sodipodi:nodetypes="ccccc" />
</svg>
