<svg xmlns="http://www.w3.org/2000/svg" width="164" height="100"><defs><clipPath id="g"><rect width="38.1" height="19.05" y="258.9" ry="4.233" fill="#537054" stroke-width="4.778"/></clipPath><clipPath id="e"><path d="M-2.275 256.942h9.587v43.392h-9.587z" fill="#630" stroke-width="2.098"/></clipPath><clipPath id="f"><path d="M-2.275 256.942h9.587v43.392h-9.587z" fill="#630" stroke-width="2.098"/></clipPath><clipPath id="d"><path d="M4.001 64h36.234v100H4.001z" fill="#630" stroke-width="6.192"/></clipPath><clipPath id="c"><path d="M43.77 64h36.233v100H43.77z" fill="#630" stroke-width="6.192"/></clipPath><clipPath id="b"><path d="M84.002 64h36.234v100H84.002z" fill="#630" stroke-width="6.192"/></clipPath><clipPath id="a"><path d="M123.766 64H160v100h-36.234z" fill="#630" stroke-width="6.192"/></clipPath></defs><g stroke="#191919"><path transform="translate(.001 -64)" clip-path="url(#a)" d="M123.766 64H160v100h-36.234z" fill="#630" stroke-width="6"/><path transform="translate(.001 -64)" clip-path="url(#b)" d="M84.002 64h36.234v100H84.002z" fill="#630" stroke-width="6"/><path transform="translate(.001 -64)" clip-path="url(#c)" d="M43.77 64h36.233v100H43.77z" fill="#630" stroke-width="6"/><path transform="translate(.001 -64)" clip-path="url(#d)" d="M4.001 64h36.234v100H4.001z" fill="#630" stroke-width="6"/><path clip-path="url(#e)" transform="rotate(90 559.372 575.737) scale(3.77949)" d="M-2.275 256.942h9.587v43.392h-9.587z" fill="#630" stroke-width="2.117"/><path clip-path="url(#f)" transform="rotate(90 535.372 599.737) scale(3.77949)" d="M-2.275 256.942h9.587v43.392h-9.587z" fill="#630" stroke-width="2.117"/><g transform="translate(164.002 -68)"><rect transform="translate(-154.001 -896.51) scale(3.77949)" ry="4.233" y="258.9" height="19.05" width="38.1" clip-path="url(#g)" fill="#537054" stroke-width="3.175"/><rect width="8.001" height="39.998" x="-127.998" y="97.775" ry="3.999" fill="#89a78a" stroke-width="3.999"/><rect width="8.001" height="39.998" x="-43.999" y="97.942" ry="3.999" fill="#89a78a" stroke-width="3.999"/><rect width="8.001" height="39.998" x="-100" y="97.942" ry="3.999" fill="#89a78a" stroke-width="3.999"/><rect width="8.001" height="39.998" x="-72.001" y="97.942" ry="3.999" fill="#89a78a" stroke-width="3.999"/></g></g></svg>