<?xml version="1.0" encoding="UTF-8" standalone="no"?>
<svg
   xmlns:dc="http://purl.org/dc/elements/1.1/"
   xmlns:cc="http://creativecommons.org/ns#"
   xmlns:rdf="http://www.w3.org/1999/02/22-rdf-syntax-ns#"
   xmlns:svg="http://www.w3.org/2000/svg"
   xmlns="http://www.w3.org/2000/svg"
   xmlns:sodipodi="http://sodipodi.sourceforge.net/DTD/sodipodi-0.dtd"
   xmlns:inkscape="http://www.inkscape.org/namespaces/inkscape"
   width="144"
   height="144"
   viewBox="0 0 38.1 38.1"
   version="1.1"
   id="svg6"
   sodipodi:docname="map-stone-05.svg"
   inkscape:version="0.92.2 (5c3e80d, 2017-08-06)">
  <metadata
     id="metadata12">
    <rdf:RDF>
      <cc:Work
         rdf:about="">
        <dc:format>image/svg+xml</dc:format>
        <dc:type
           rdf:resource="http://purl.org/dc/dcmitype/StillImage" />
        <dc:title />
      </cc:Work>
    </rdf:RDF>
  </metadata>
  <defs
     id="defs10">
    <clipPath
       clipPathUnits="userSpaceOnUse"
       id="clipPath829">
      <circle
         style="fill:#ae7522;fill-opacity:0.70588235;stroke:none;stroke-width:4.13933706;stroke-linecap:butt;stroke-linejoin:miter;stroke-miterlimit:4;stroke-dasharray:none;stroke-opacity:1"
         id="circle831"
         cx="-35.516476"
         cy="18.821686"
         r="19.049999" />
    </clipPath>
    <clipPath
       clipPathUnits="userSpaceOnUse"
       id="clipPath924">
      <path
         style="fill:#ae7522;fill-opacity:0.70588235;stroke:none;stroke-width:15.6447382;stroke-linecap:butt;stroke-linejoin:miter;stroke-miterlimit:4;stroke-dasharray:none;stroke-opacity:1"
         d="M 72,0 A 71.999996,71.999996 0 0 0 3.0449219,51.384766 l 12.9179691,5.029296 21.142578,40.556641 45.734375,5.177737 16.855468,36.24023 A 71.999996,71.999996 0 0 0 137.03906,102.62305 L 114.55078,88.126953 113.6875,55.550781 70.974609,16.720703 72.578125,0.01953125 A 71.999996,71.999996 0 0 0 72,0 Z"
         id="path926"
         inkscape:connector-curvature="0" />
    </clipPath>
    <clipPath
       clipPathUnits="userSpaceOnUse"
       id="clipPath986">
      <path
         inkscape:connector-curvature="0"
         id="path988"
         d="M 19.05,0 C 8.5289752,-5.5228479e-7 -5.5228482e-7,8.5289752 0,19.05 -5.5228482e-7,29.571024 8.5289752,38.1 19.05,38.1 c 0.237332,-0.004 0.474568,-0.01246 0.711584,-0.02532 l -1.504835,-5.584708 -4.502839,-3.079679 2.082674,-6.709791 8.59063,-16.7450987 c 0,-3e-7 5.344332,-0.2606927 8.128421,-0.3268052 C 28.982485,2.0294108 24.12164,0.00360935 19.05,0 Z"
         style="fill:#ae7522;fill-opacity:0.70588235;stroke:none;stroke-width:4.13933706;stroke-linecap:butt;stroke-linejoin:miter;stroke-miterlimit:4;stroke-dasharray:none;stroke-opacity:1"
         sodipodi:nodetypes="cscccccccc" />
    </clipPath>
  </defs>
  <sodipodi:namedview
     pagecolor="#ffffff"
     bordercolor="#666666"
     borderopacity="1"
     objecttolerance="10"
     gridtolerance="10"
     guidetolerance="10"
     inkscape:pageopacity="0"
     inkscape:pageshadow="2"
     inkscape:window-width="1920"
     inkscape:window-height="1017"
     id="namedview8"
     showgrid="true"
     inkscape:showpageshadow="false"
     inkscape:zoom="3.2777776"
     inkscape:cx="51.167527"
     inkscape:cy="88.383934"
     inkscape:window-x="1912"
     inkscape:window-y="-8"
     inkscape:window-maximized="1"
     inkscape:current-layer="svg6"
     inkscape:snap-nodes="false">
    <inkscape:grid
       type="xygrid"
       id="grid4534"
       empspacing="4"
       spacingy="1.0583333"
       spacingx="1.0583333" />
  </sodipodi:namedview>
  <circle
     r="19.049999"
     cy="18.821686"
     cx="-35.516476"
     id="circle962"
     style="fill:#292421;fill-opacity:1;stroke:#0a0a0a;stroke-width:4.23333311;stroke-linecap:butt;stroke-linejoin:miter;stroke-miterlimit:4;stroke-dasharray:none;stroke-opacity:1"
     clip-path="url(#clipPath829)"
     transform="translate(54.566476,0.22831421)" />
  <path
     sodipodi:nodetypes="cscccccccc"
     style="fill:#181818;fill-opacity:1;stroke:#0a0a0a;stroke-width:3.96875;stroke-linecap:butt;stroke-linejoin:miter;stroke-miterlimit:4;stroke-dasharray:none;stroke-opacity:1"
     d="M 19.05,0 C 8.5289753,-5.522848e-7 -5.5228481e-7,8.5289753 0,19.05 -5.5228481e-7,29.571025 8.5289753,38.100001 19.05,38.1 c 0.237332,-0.004 0.474568,-0.01245 0.711584,-0.02532 l -1.504835,-5.584709 -4.502839,-3.079678 2.082674,-6.709792 8.59063,-16.7450987 c 0,-2e-7 5.344332,-0.2606927 8.128421,-0.3268052 C 28.982485,2.0294108 24.12164,0.00360935 19.05,0 Z"
     id="path984"
     inkscape:connector-curvature="0"
     clip-path="url(#clipPath986)" />
  <path
     id="path922"
     transform="scale(0.26458333)"
     d="M 72 0 A 71.999996 71.999996 0 0 0 3.0449219 51.384766 L 15.962891 56.414062 L 37.105469 96.970703 L 82.839844 102.14844 L 99.695312 138.38867 A 71.999996 71.999996 0 0 0 137.03906 102.62305 L 114.55078 88.126953 L 113.6875 55.550781 L 70.974609 16.720703 L 72.578125 0.01953125 A 71.999996 71.999996 0 0 0 72 0 z "
     style="fill:#403422;fill-opacity:1;stroke:#0a0a0a;stroke-width:15.00000019;stroke-linecap:butt;stroke-linejoin:miter;stroke-miterlimit:4;stroke-dasharray:none;stroke-opacity:1"
     clip-path="url(#clipPath924)" />
  <path
     id="path837"
     d="m 16.931087,22.800908 a 6.1688533,6.1688533 0 0 0 6.168858,-6.168856 6.1688533,6.1688533 0 0 0 -6.168857,-6.168847 6.1688533,6.1688533 0 0 0 -6.168848,6.168847 6.1688533,6.1688533 0 0 0 6.168847,6.168856 z m 0,-3.210049 c -3.017446,0 -5.426427,-2.627951 -5.526583,-2.73968 -0.111695,-0.124879 -0.111695,-0.313369 0,-0.438245 0.100178,-0.111721 2.509181,-2.739679 5.526584,-2.739679 3.017409,0 5.426416,2.627949 5.526591,2.739679 0.111722,0.124879 0.111722,0.313367 0,0.438245 -0.100167,0.111723 -2.509138,2.73968 -5.526592,2.73968 z m 0,-0.657693 c 1.268744,0 2.301114,-1.03237 2.301114,-2.301114 0,-1.268741 -1.032372,-2.301103 -2.301114,-2.301103 -1.26874,0 -2.301107,1.032362 -2.301107,2.301103 0,1.268744 1.032367,2.301114 2.301107,2.301114 z M 16.916927,18.2758 c -0.26858,0 -0.518395,-0.07097 -0.74251,-0.185707 0.249755,-0.178947 0.413825,-0.469957 0.413825,-0.800667 0,-0.647007 -0.62478,-1.147463 -1.286784,-0.934326 0.132682,-0.774164 0.804051,-1.366787 1.615469,-1.366787 0.906295,0 1.643746,0.737447 1.643746,1.643739 0,0.906299 -0.737451,1.643744 -1.643746,1.643748 z"
     style="fill:#000000;fill-opacity:0.56060606;stroke:none;stroke-width:1.35452747;stroke-linecap:round;stroke-linejoin:round;stroke-miterlimit:4;stroke-dasharray:none;stroke-opacity:1"
     inkscape:connector-curvature="0" />
</svg>
