<?xml version="1.0" encoding="UTF-8" standalone="no"?>
<svg
   xmlns:dc="http://purl.org/dc/elements/1.1/"
   xmlns:cc="http://creativecommons.org/ns#"
   xmlns:rdf="http://www.w3.org/1999/02/22-rdf-syntax-ns#"
   xmlns:svg="http://www.w3.org/2000/svg"
   xmlns="http://www.w3.org/2000/svg"
   xmlns:sodipodi="http://sodipodi.sourceforge.net/DTD/sodipodi-0.dtd"
   xmlns:inkscape="http://www.inkscape.org/namespaces/inkscape"
   width="256"
   height="256"
   viewBox="0 0 67.733 67.733"
   version="1.1"
   id="svg6"
   sodipodi:docname="map-tree-03cb.svg"
   inkscape:version="0.92.2 (5c3e80d, 2017-08-06)">
  <metadata
     id="metadata12">
    <rdf:RDF>
      <cc:Work
         rdf:about="">
        <dc:format>image/svg+xml</dc:format>
        <dc:type
           rdf:resource="http://purl.org/dc/dcmitype/StillImage" />
        <dc:title></dc:title>
      </cc:Work>
    </rdf:RDF>
  </metadata>
  <defs
     id="defs10" />
  <sodipodi:namedview
     pagecolor="#ffffff"
     bordercolor="#666666"
     borderopacity="1"
     objecttolerance="10"
     gridtolerance="10"
     guidetolerance="10"
     inkscape:pageopacity="0"
     inkscape:pageshadow="2"
     inkscape:window-width="1920"
     inkscape:window-height="1017"
     id="namedview8"
     showgrid="true"
     inkscape:zoom="0.65186406"
     inkscape:cx="-27.309893"
     inkscape:cy="231.84151"
     inkscape:window-x="1912"
     inkscape:window-y="-8"
     inkscape:window-maximized="1"
     inkscape:current-layer="svg6" />
  <path
     sodipodi:type="star"
     style="fill:#273b57;fill-opacity:0.86274511;stroke:none;stroke-width:2.54444313;stroke-linecap:round;stroke-linejoin:round;stroke-miterlimit:4;stroke-dasharray:none;stroke-opacity:1;paint-order:normal"
     id="path4558"
     sodipodi:sides="11"
     sodipodi:cx="33.866501"
     sodipodi:cy="34.553619"
     sodipodi:r1="33.925903"
     sodipodi:r2="20.355541"
     sodipodi:arg1="-1.5707963"
     sodipodi:arg2="-1.285197"
     inkscape:flatsided="false"
     inkscape:rounded="0.04"
     inkscape:randomized="0"
     d="m 33.866502,0.62771606 c 0.619808,0 5.140116,14.22028394 5.734817,14.39490494 0.594702,0.17462 12.085495,-9.3443808 12.606911,-9.0092871 0.521416,0.3350936 -3.363926,14.7418211 -2.958038,15.2102411 0.405888,0.468419 15.218919,-1.327082 15.476396,-0.763284 0.257478,0.563797 -10.799944,10.582933 -10.711736,11.196433 0.08821,0.613499 13.520443,7.111556 13.432235,7.725056 -0.08821,0.613499 -14.807057,3.064039 -15.064535,3.627837 -0.257477,0.563797 7.529323,13.292325 7.123435,13.760745 -0.405888,0.46842 -14.113034,-5.427665 -14.63445,-5.092572 -0.521416,0.335094 -0.852304,15.252875 -1.447006,15.427496 -0.594701,0.17462 -8.938222,-12.196125 -9.55803,-12.196125 -0.619808,0 -8.963331,12.370744 -9.558033,12.196124 C 23.713767,66.930665 23.38288,52.012884 22.861464,51.67779 22.340049,51.342697 8.6329014,57.23878 8.2270133,56.770361 7.8211252,56.301941 15.607927,43.573414 15.350449,43.009617 15.092972,42.445819 0.3741221,39.995277 0.28591418,39.381778 0.19770627,38.768278 13.629942,32.270223 13.71815,31.656724 13.806358,31.043224 2.7489364,21.024086 3.0064141,20.460289 3.2638917,19.896492 18.076921,21.691995 18.482809,21.223575 18.888697,20.755155 15.003358,6.3484265 15.524774,6.0133329 16.046189,5.6782392 27.53698,15.197241 28.131682,15.022621 28.726384,14.848 33.246693,0.62771607 33.866502,0.62771606 Z"
     inkscape:transform-center-y="-0.68711722" />
  <path
     sodipodi:type="star"
     style="fill:#23344c;fill-opacity:0.75757575;stroke:none;stroke-width:1.29695928;stroke-linecap:round;stroke-linejoin:round;stroke-miterlimit:4;stroke-dasharray:none;stroke-opacity:1;paint-order:normal"
     id="path4560"
     sodipodi:sides="11"
     sodipodi:cx="33.866501"
     sodipodi:cy="33.301758"
     sodipodi:r1="27.883781"
     sodipodi:r2="18.124458"
     sodipodi:arg1="1.5707963"
     sodipodi:arg2="1.8563957"
     inkscape:flatsided="false"
     inkscape:rounded="0.04"
     inkscape:randomized="0"
     d="m 33.866502,61.185539 c -0.466797,0 -4.658363,-10.361979 -5.106252,-10.493491 -0.447888,-0.131512 -9.576164,6.319409 -9.968859,6.06704 -0.392695,-0.25237 1.683245,-11.235553 1.377558,-11.588335 C 19.863262,44.817972 8.6964359,45.309713 8.5025214,44.8851 8.3086069,44.460486 15.992955,36.343182 15.926523,35.881136 15.860091,35.419091 6.2001039,29.795528 6.266536,29.333483 6.3329682,28.871437 17.186,26.197199 17.379914,25.772585 c 0.193914,-0.424613 -4.892257,-10.378039 -4.58657,-10.73082 0.305687,-0.352782 10.881641,3.265097 11.274336,3.012728 0.392694,-0.25237 1.495163,-11.3755155 1.943051,-11.5070273 0.447889,-0.1315119 7.388974,8.6298343 7.855771,8.6298333 0.466797,0 7.407879,-8.7613457 7.855767,-8.6298338 0.447889,0.131512 1.55036,11.2546588 1.943054,11.5070288 0.392695,0.252369 10.968646,-3.365512 11.274333,-3.01273 0.305687,0.352781 -4.780482,10.306209 -4.586568,10.730822 0.193915,0.424614 11.046945,3.09885 11.113377,3.560895 0.06643,0.462046 -9.593555,6.085611 -9.659987,6.547657 -0.06643,0.462046 7.617917,8.579347 7.424003,9.003961 -0.193915,0.424613 -11.360742,-0.06713 -11.666429,0.285655 -0.305687,0.352782 1.770254,11.335964 1.37756,11.588333 -0.392695,0.25237 -9.520973,-6.198551 -9.968862,-6.067039 -0.447888,0.131512 -4.639451,10.493491 -5.106248,10.493491 z"
     inkscape:transform-center-y="0.5647432"
     inkscape:transform-center-x="1.4602718e-006" />
  <path
     d="m 38.613438,38.17237 c -0.293804,0.33591 -1.513184,0.441371 -1.8934,0.667915 -0.380217,0.224592 -1.071519,1.253806 -1.501663,1.34755 -0.432064,0.09765 -1.478619,-0.546832 -1.918364,-0.591751 -0.437826,-0.04492 -1.589996,0.373018 -1.993256,0.193344 -0.403259,-0.179673 -0.879489,-1.328018 -1.209778,-1.62487 -0.32837,-0.298803 -1.503583,-0.648386 -1.724417,-1.035074 -0.222752,-0.38864 0.05568,-1.601433 -0.0384,-2.038897 -0.09601,-0.437466 -0.841085,-1.423715 -0.796918,-1.868992 0.04224,-0.447228 0.967823,-1.261617 1.14641,-1.67174 0.176666,-0.410125 0.1421,-1.654165 0.433983,-1.990075 0.293804,-0.332005 1.513185,-0.439419 1.893401,-0.664011 0.382137,-0.228496 1.071519,-1.255758 1.503583,-1.351453 0.430144,-0.09374 1.47862,0.546831 1.916444,0.593702 0.437825,0.04492 1.591916,-0.37497 1.995175,-0.195297 0.403261,0.181627 0.879491,1.328019 1.209779,1.626823 0.326449,0.298805 1.501664,0.648385 1.724416,1.035073 0.220833,0.388642 -0.05761,1.601435 0.03841,2.0389 0.09217,0.437464 0.841084,1.423714 0.796917,1.868991 -0.04416,0.445276 -0.969743,1.261617 -1.14641,1.67174 -0.178585,0.410123 -0.1421,1.654165 -0.435903,1.988122 z"
     id="path4"
     inkscape:connector-curvature="0"
     style="fill:#754f33;fill-opacity:1;stroke:#1b1917;stroke-width:1.44765663;stroke-miterlimit:4;stroke-dasharray:none" />
</svg>
