<svg xmlns="http://www.w3.org/2000/svg" width="200" height="200" viewBox="0 0 52.917 52.917"><defs><clipPath id="a"><path d="M-38.1 97.366a21.167 21.167 0 0 1-21.167 21.167 21.167 21.167 0 0 1-21.166-21.167A21.167 21.167 0 0 1-59.267 76.2 21.167 21.167 0 0 1-38.1 97.366z" fill="#595959" stroke-width="3.175" stroke-opacity=".196"/></clipPath><clipPath id="b"><path d="M-59.514 237.068a16.933 16.933 45 0 0-11.726 4.958L-59.267 254v-16.923a16.933 16.933 45 0 0-.247-.01z" fill="#d1e0ff" fill-opacity=".96" stroke-width="1.058" stroke-opacity=".389"/></clipPath></defs><path clip-path="url(#a)" d="M-38.1 97.366a21.167 21.167 0 0 1-21.167 21.167 21.167 21.167 0 0 1-21.166-21.167A21.167 21.167 0 0 1-59.267 76.2 21.167 21.167 0 0 1-38.1 97.366z" transform="matrix(1 0 0 1 85.725 -70.908)" stroke="#b6b6b6" stroke-width="3.175" stroke-opacity=".196"/><g fill="#93e7e5" fill-opacity=".247" stroke="#bcbcbc" stroke-width="1.058"><path transform="rotate(45 258.26 243.714)" d="M-59.514 237.068a16.933 16.933 45 0 0-11.726 4.958L-59.267 254v-16.923a16.933 16.933 45 0 0-.247-.01z" clip-path="url(#b)"/><path transform="rotate(90 97.367 183.095)" d="M-59.514 237.068a16.933 16.933 45 0 0-11.726 4.958L-59.267 254v-16.923a16.933 16.933 45 0 0-.247-.01z" clip-path="url(#b)"/><path clip-path="url(#b)" d="M-59.514 237.068a16.933 16.933 45 0 0-11.726 4.958L-59.267 254v-16.923a16.933 16.933 45 0 0-.247-.01z" transform="rotate(135 30.722 157.986)"/><path clip-path="url(#b)" d="M-59.514 237.068a16.933 16.933 45 0 0-11.726 4.958L-59.267 254v-16.923a16.933 16.933 45 0 0-.247-.01z" transform="rotate(-135 -63.532 122.474)"/><path transform="rotate(-45 -291.077 36.752)" d="M-59.514 237.068a16.933 16.933 45 0 0-11.726 4.958L-59.267 254v-16.923a16.933 16.933 45 0 0-.247-.01z" clip-path="url(#b)"/></g><circle r="1.862" cy="41.598" cx="30.157" fill="none" stroke="#292929" stroke-width=".674" stroke-opacity=".706"/><circle cx="16.143" cy="28.748" r="1.281" fill="none" stroke="#292929" stroke-width=".464" stroke-opacity=".706"/><circle cx="13.319" cy="34.121" r="1.91" fill="none" stroke="#292929" stroke-width=".692" stroke-opacity=".706"/><circle r="2.394" cy="14.03" cx="21.424" fill="none" stroke="#292929" stroke-width=".867" stroke-opacity=".706"/><path transform="rotate(45 91.164 195.448) scale(1.25)" d="M-38.1 97.366a21.167 21.167 0 0 1-21.167 21.167 21.167 21.167 0 0 1-21.166-21.167A21.167 21.167 0 0 1-59.267 76.2 21.167 21.167 0 0 1-38.1 97.366z" clip-path="url(#a)" fill="#006fb2" fill-opacity=".652" stroke="#0f0f0f" stroke-width="5.029"/><path d="M6.253 40.677l5.987 5.987 1.496-7.484zM40.677 46.664l5.987-5.987-7.484-1.497zM12.24 6.253L6.253 12.24l7.483 1.496zM46.664 12.24l-5.987-5.987-1.497 7.483z" fill="#0f0f0f"/></svg>