<svg xmlns="http://www.w3.org/2000/svg" width="160" height="160" viewBox="0 0 42.333 42.333"><defs><clipPath id="a"><path d="M0 258.9h38.1V297H0z" fill="#4d2600" stroke-width=".529"/></clipPath><clipPath id="c"><path d="M-4.763 273.187v-5.82h28.575v5.82z" fill="#4d2600" stroke-width="3.532"/></clipPath><clipPath id="b"><path d="M43.392 296.47h-12.7v-38.1h12.7z" fill="#4d2600" stroke-width="6.024"/></clipPath><clipPath id="d"><path d="M-1.587 297h-5.821v-38.1h5.82z" fill="#4d2600" stroke-width="4.078"/></clipPath><clipPath id="e"><path d="M-45.534 209.35l29.33 16.933v33.867l-29.33 16.933-29.33-16.933v-33.867z" fill-opacity=".506" stroke="#fff" stroke-width="2.117" stroke-opacity=".502"/></clipPath><clipPath id="f"><path d="M0 258.9h38.1V297H0z" fill="#4d2600" stroke-width=".529"/></clipPath><clipPath id="g"><path d="M43.392 296.47h-12.7v-38.1h12.7z" fill="#4d2600" stroke-width="6.024"/></clipPath><clipPath id="h"><path d="M-4.763 273.187v-5.82h28.575v5.82z" fill="#4d2600" stroke-width="3.532"/></clipPath><clipPath id="i"><path d="M-1.587 297h-5.821v-38.1h5.82z" fill="#4d2600" stroke-width="4.078"/></clipPath><clipPath id="j"><path d="M39.158 6.35v-7.408H31.75L30.692 0 38.1 7.408z" fill="#272727" stroke-width="1.968"/></clipPath><clipPath id="k"><path d="M-45.534 209.35l29.33 16.933v33.867l-29.33 16.933-29.33-16.933v-33.867z" fill-opacity=".506" stroke="#fff" stroke-width="2.117" stroke-opacity=".502"/></clipPath><clipPath id="l"><path d="M0 0l10.054 10.054H32.28L42.333 0z" fill="#595959" stroke-width=".286"/></clipPath><clipPath id="m"><path fill="#2b2b2b" stroke-width="3.757" stroke-linecap="round" stroke-miterlimit="10" d="M17.462 3.704h7.408v2.117h-7.408z"/></clipPath></defs><path transform="translate(2.116 -256.784)" d="M0 258.9h38.1V297H0z" clip-path="url(#a)" fill="#4d2600" stroke="#191919" stroke-width="3.969"/><path clip-path="url(#b)" d="M43.392 296.47h-12.7v-38.1h12.7z" transform="rotate(90 163.581 135.006)" fill="#c91400" stroke="#191919" stroke-width="3.969"/><path d="M-4.763 273.187v-5.82h28.575v5.82z" clip-path="url(#c)" transform="matrix(-1.33333 0 0 -1 33.866 307.583)" fill="#d19200" stroke="#191919" stroke-width="3.437"/><path clip-path="url(#d)" d="M-1.587 297h-5.821v-38.1h5.82z" transform="rotate(90 128.656 170.46)" fill="#763800" stroke="#191919" stroke-width="3.969"/><path transform="translate(9.524 -256.784)" d="M-1.587 297h-5.821v-38.1h5.82z" clip-path="url(#d)" fill="#763800" stroke="#191919" stroke-width="3.969"/><path transform="translate(-3.176 -256.254)" d="M43.392 296.47h-12.7v-38.1h12.7z" clip-path="url(#b)" fill="#763800" stroke="#191919" stroke-width="3.969"/><path clip-path="url(#e)" d="M-45.534 209.35l29.33 16.933v33.867l-29.33 16.933-29.33-16.933v-33.867z" transform="rotate(-150.001 -2.013 39.471) scale(.25596)" fill-opacity=".502" stroke="#fff" stroke-width="4.011"/><path d="M17.729 20.23a4.332 4.332 0 0 0-4.332 4.331 4.332 4.332 0 0 0 4.332 4.332 4.332 4.332 0 0 0 4.332-4.332 4.332 4.332 0 0 0-4.332-4.332zm-1.954 1.454l4.362 2.501s.184.14.268.224c.386.386.579.892.579 1.398a1.976 1.976 0 0 1-3.473 1.29l-2.251-3.053 1.033.494-1.513-1.822 1.57.792-1.579-1.794 1.778 1.019zm2.025 1.582a.416.416 0 1 0 0 .833.416.416 0 0 0 0-.833zm-1.2.522a.176.176 0 1 0 0 .352.176.176 0 0 0 0-.352zm2.234.568l-.1.664-.507-.44.178.647-.642-.195.427.518-.667.083.6.3-.575.346.671.03-.385.55.626-.245-.128.66.471-.479.152.655.236-.63.404.537-.04-.67.588.325-.31-.597.67.058-.526-.418.635-.22-.65-.168.49-.459-.662.11.262-.618-.56.37-.012-.671-.362.566zm-1.853.407a.251.251 0 1 0 0 .503.251.251 0 0 0 0-.503z" fill="#fefefe"/><g><path transform="translate(2.117 -256.783)" d="M0 258.9h38.1V297H0z" clip-path="url(#f)" fill="#4d2600" stroke="#191919" stroke-width="3.969"/><path clip-path="url(#g)" d="M43.392 296.47h-12.7v-38.1h12.7z" transform="rotate(90 163.581 135.007)" fill="#c91400" stroke="#191919" stroke-width="3.969"/><path d="M-4.763 273.187v-5.82h28.575v5.82z" clip-path="url(#h)" transform="matrix(-1.33333 0 0 -1 33.867 307.584)" fill="#d19200" stroke="#191919" stroke-width="3.437"/><path clip-path="url(#i)" d="M-1.587 297h-5.821v-38.1h5.82z" transform="rotate(90 128.656 170.46)" fill="#763800" stroke="#191919" stroke-width="3.969"/><path transform="translate(9.525 -256.783)" d="M-1.587 297h-5.821v-38.1h5.82z" clip-path="url(#i)" fill="#763800" stroke="#191919" stroke-width="3.969"/><path transform="translate(-3.175 -256.253)" d="M43.392 296.47h-12.7v-38.1h12.7z" clip-path="url(#g)" fill="#763800" stroke="#191919" stroke-width="3.969"/><path transform="translate(1.588 2.646)" clip-path="url(#j)" d="M39.158 6.35v-7.408H31.75L30.692 0 38.1 7.408z" fill="#dea217" stroke="#191919" stroke-width="3.175"/><path d="M39.158 6.35v-7.408H31.75L30.692 0 38.1 7.408z" clip-path="url(#j)" transform="rotate(90 19.05 20.638)" fill="#dea217" stroke="#191919" stroke-width="3.175"/><path d="M39.158 6.35v-7.408H31.75L30.692 0 38.1 7.408z" clip-path="url(#j)" transform="rotate(180 20.373 19.844)" fill="#dea217" stroke="#191919" stroke-width="3.175"/><path transform="rotate(-90 21.696 19.05)" clip-path="url(#j)" d="M39.158 6.35v-7.408H31.75L30.692 0 38.1 7.408z" fill="#dea217" stroke="#191919" stroke-width="3.175"/><path clip-path="url(#k)" d="M-45.534 209.35l29.33 16.933v33.867l-29.33 16.933-29.33-16.933v-33.867z" transform="rotate(-150.001 -2.013 39.471) scale(.25596)" fill-opacity=".502" stroke="#fff" stroke-width="4.011"/><path d="M17.73 20.23a4.332 4.332 0 0 0-4.333 4.332 4.332 4.332 0 0 0 4.332 4.332 4.332 4.332 0 0 0 4.332-4.332 4.332 4.332 0 0 0-4.332-4.332zm-1.954 1.455l4.362 2.5s.183.14.267.225c.386.386.58.892.58 1.398a1.976 1.976 0 0 1-3.473 1.29l-2.252-3.053 1.034.493-1.513-1.822 1.57.792-1.58-1.794 1.779 1.02zm2.025 1.582a.416.416 0 1 0 0 .833.416.416 0 0 0 0-.833zm-1.2.521a.176.176 0 1 0 0 .352.176.176 0 0 0 0-.352zm2.233.569l-.1.664-.507-.44.179.647-.643-.196.427.519-.667.082.601.3-.575.347.67.03-.384.55.625-.245-.128.659.472-.478.151.654.236-.629.405.536-.04-.67.587.325-.31-.596.67.058-.525-.419.634-.219-.65-.169.491-.458-.662.11.262-.618-.56.37-.013-.672-.361.566zm-1.853.406a.251.251 0 1 0 0 .503.251.251 0 0 0 0-.503z" fill="#fefefe"/></g><g stroke="#000"><g><path d="M0 0l10.054 10.054H32.28L42.333 0z" clip-path="url(#l)" fill="#595959" stroke-width="2.117"/><ellipse transform="matrix(0 1 1 0 0 0)" cx="2.646" cy="6.536" rx=".529" ry=".529" fill="#363636" stroke-width=".367" stroke-linecap="round"/><ellipse ry=".529" rx=".529" cy="11.113" cx="6.879" transform="matrix(0 1 1 0 0 0)" fill="#363636" stroke-width=".367" stroke-linecap="round"/><ellipse ry=".529" rx=".529" cy="-35.797" cx="2.646" transform="rotate(90)" fill="#363636" stroke-width=".367" stroke-linecap="round"/><ellipse transform="rotate(90)" cx="6.879" cy="-31.221" rx=".529" ry=".529" fill="#363636" stroke-width=".367" stroke-linecap="round"/></g><g transform="rotate(90 21.167 21.167)"><path clip-path="url(#l)" d="M0 0l10.054 10.054H32.28L42.333 0z" fill="#595959" stroke-width="2.117"/><ellipse ry=".529" rx=".529" cy="6.536" cx="2.646" transform="matrix(0 1 1 0 0 0)" fill="#363636" stroke-width=".367" stroke-linecap="round"/><ellipse transform="matrix(0 1 1 0 0 0)" cx="6.879" cy="11.113" rx=".529" ry=".529" fill="#363636" stroke-width=".367" stroke-linecap="round"/><ellipse transform="rotate(90)" cx="2.646" cy="-35.797" rx=".529" ry=".529" fill="#363636" stroke-width=".367" stroke-linecap="round"/><ellipse ry=".529" rx=".529" cy="-31.221" cx="6.879" transform="rotate(90)" fill="#363636" stroke-width=".367" stroke-linecap="round"/></g><g transform="rotate(180 21.167 21.167)"><path d="M0 0l10.054 10.054H32.28L42.333 0z" clip-path="url(#l)" fill="#595959" stroke-width="2.117"/><ellipse transform="matrix(0 1 1 0 0 0)" cx="2.646" cy="6.536" rx=".529" ry=".529" fill="#363636" stroke-width=".367" stroke-linecap="round"/><ellipse ry=".529" rx=".529" cy="11.113" cx="6.879" transform="matrix(0 1 1 0 0 0)" fill="#363636" stroke-width=".367" stroke-linecap="round"/><ellipse ry=".529" rx=".529" cy="-35.797" cx="2.646" transform="rotate(90)" fill="#363636" stroke-width=".367" stroke-linecap="round"/><ellipse transform="rotate(90)" cx="6.879" cy="-31.221" rx=".529" ry=".529" fill="#363636" stroke-width=".367" stroke-linecap="round"/></g><g transform="rotate(-90 21.167 21.167)"><path clip-path="url(#l)" d="M0 0l10.054 10.054H32.28L42.333 0z" fill="#595959" stroke-width="2.117"/><ellipse ry=".529" rx=".529" cy="6.536" cx="2.646" transform="matrix(0 1 1 0 0 0)" fill="#363636" stroke-width=".367" stroke-linecap="round"/><ellipse transform="matrix(0 1 1 0 0 0)" cx="6.879" cy="11.113" rx=".529" ry=".529" fill="#363636" stroke-width=".367" stroke-linecap="round"/><ellipse transform="rotate(90)" cx="2.646" cy="-35.797" rx=".529" ry=".529" fill="#363636" stroke-width=".367" stroke-linecap="round"/><ellipse ry=".529" rx=".529" cy="-31.221" cx="6.879" transform="rotate(90)" fill="#363636" stroke-width=".367" stroke-linecap="round"/></g></g><rect y="3.704" x="17.462" height="2.117" width="7.408" clip-path="url(#m)" rx="1.058" ry="1.058" fill="#2b2b2b" stroke="#000" stroke-width="1.058" stroke-linecap="round" stroke-miterlimit="10"/><rect ry="1.058" rx="1.058" clip-path="url(#m)" width="7.408" height="2.117" x="17.462" y="3.704" transform="translate(0 32.808)" fill="#2b2b2b" stroke="#000" stroke-width="1.058" stroke-linecap="round" stroke-miterlimit="10"/></svg>