<?xml version="1.0" encoding="UTF-8" standalone="no"?>
<svg
   xmlns:dc="http://purl.org/dc/elements/1.1/"
   xmlns:cc="http://creativecommons.org/ns#"
   xmlns:rdf="http://www.w3.org/1999/02/22-rdf-syntax-ns#"
   xmlns:svg="http://www.w3.org/2000/svg"
   xmlns="http://www.w3.org/2000/svg"
   xmlns:sodipodi="http://sodipodi.sourceforge.net/DTD/sodipodi-0.dtd"
   xmlns:inkscape="http://www.inkscape.org/namespaces/inkscape"
   width="664"
   height="472"
   viewBox="0 0 175.68334 124.88334"
   version="1.1"
   id="svg11"
   sodipodi:docname="map-building-barn-basement-floor-01.svg"
   inkscape:version="0.92.2 (5c3e80d, 2017-08-06)">
  <metadata
     id="metadata15">
    <rdf:RDF>
      <cc:Work
         rdf:about="">
        <dc:format>image/svg+xml</dc:format>
        <dc:type
           rdf:resource="http://purl.org/dc/dcmitype/StillImage" />
        <dc:title />
      </cc:Work>
    </rdf:RDF>
  </metadata>
  <sodipodi:namedview
     pagecolor="#ffffff"
     bordercolor="#666666"
     borderopacity="1"
     objecttolerance="10"
     gridtolerance="10"
     guidetolerance="10"
     inkscape:pageopacity="0"
     inkscape:pageshadow="2"
     inkscape:window-width="1920"
     inkscape:window-height="1017"
     id="namedview13"
     showgrid="true"
     inkscape:zoom="0.21728802"
     inkscape:cx="578.85577"
     inkscape:cy="195.30737"
     inkscape:window-x="1912"
     inkscape:window-y="-8"
     inkscape:window-maximized="1"
     inkscape:current-layer="svg11"
     fit-margin-top="12"
     fit-margin-left="12"
     fit-margin-right="12"
     fit-margin-bottom="12"
     inkscape:showpageshadow="false">
    <inkscape:grid
       type="xygrid"
       id="grid885"
       empspacing="8"
       spacingy="1.0583333"
       spacingx="1.0583333"
       originx="0"
       originy="0" />
  </sodipodi:namedview>
  <defs
     id="defs5">
    <clipPath
       clipPathUnits="userSpaceOnUse"
       id="clipPath1227">
      <path
         style="fill:#884a18;stroke:#000000;stroke-width:2.14400005;stroke-opacity:0.70588235"
         inkscape:connector-curvature="0"
         id="path1229"
         clip-path="none"
         d="m 402.14,158.55 h 9.52601 V 116.216 H 402.141 Z"
         sodipodi:nodetypes="ccccc" />
    </clipPath>
    <clipPath
       clipPathUnits="userSpaceOnUse"
       id="clipPath1221">
      <path
         style="fill:#774115;stroke:#000000;stroke-width:2.14400005;stroke-opacity:0.70588235"
         inkscape:connector-curvature="0"
         id="path1223"
         d="m 402.14,158.55 h 9.526 v -42.334 h -9.525 z"
         clip-path="none"
         sodipodi:nodetypes="ccccc" />
    </clipPath>
    <clipPath
       clipPathUnits="userSpaceOnUse"
       id="clipPath1215">
      <path
         style="fill:#663812;stroke:#000000;stroke-width:2.14400005;stroke-opacity:0.70588235"
         inkscape:connector-curvature="0"
         id="path1217"
         clip-path="none"
         d="m 402.14,158.55 h 9.526 v -42.334 h -9.525 z"
         sodipodi:nodetypes="ccccc" />
    </clipPath>
    <clipPath
       clipPathUnits="userSpaceOnUse"
       id="clipPath1209">
      <path
         sodipodi:nodetypes="ccccc"
         clip-path="none"
         d="m 402.14,158.55 h 9.526 v -42.334 h -9.525 z"
         id="path1211"
         inkscape:connector-curvature="0"
         style="fill:#552f0f;stroke:#000000;stroke-width:2.14400005;stroke-opacity:0.70588235" />
    </clipPath>
    <clipPath
       clipPathUnits="userSpaceOnUse"
       id="clipPath1203">
      <path
         style="fill:#44250c;stroke:#000000;stroke-width:2.14400005;stroke-opacity:0.70588235"
         inkscape:connector-curvature="0"
         id="path1205"
         clip-path="none"
         d="m 402.14,158.55 h 9.526 v -42.334 h -9.525 z"
         sodipodi:nodetypes="ccccc" />
    </clipPath>
    <clipPath
       clipPathUnits="userSpaceOnUse"
       id="clipPath1181">
      <path
         style="fill:#331c09;stroke:#000000;stroke-width:2.14400005;stroke-opacity:0.70588235"
         inkscape:connector-curvature="0"
         id="path1183"
         d="m 393.67302,158.55 h 9.526 v -42.334 h -9.525 z"
         clip-path="none"
         sodipodi:nodetypes="ccccc" />
    </clipPath>
    <clipPath
       clipPathUnits="userSpaceOnUse"
       id="clipPath1177">
      <path
         style="fill:#331c09;stroke:#000000;stroke-width:2.14400005;stroke-opacity:0.70588235"
         inkscape:connector-curvature="0"
         id="path1179"
         d="m 402.14,158.55 h 9.526 v -42.334 h -9.525 z"
         clip-path="none"
         sodipodi:nodetypes="ccccc" />
    </clipPath>
    <clipPath
       clipPathUnits="userSpaceOnUse"
       id="clipPath1161">
      <path
         style="fill:#ab5d1d;stroke:#000000;stroke-width:2.14400005;stroke-opacity:0.70588235"
         inkscape:connector-curvature="0"
         id="path1163"
         d="m 402.14,158.55 h 9.52601 V 116.216 H 402.141 Z"
         clip-path="none"
         sodipodi:nodetypes="ccccc" />
    </clipPath>
    <clipPath
       clipPathUnits="userSpaceOnUse"
       id="clipPath2082">
      <path
         sodipodi:nodetypes="ccccccccccccccccccccccccccccccccc"
         inkscape:connector-curvature="0"
         id="path2084"
         d="m -169.33333,110.06524 c 0,0 62.37157,10e-4 245.533327,10e-4 V 3.2e-6 H 67.733331 V 101.6 H -76.199997 l -5.3e-4,-25.403098 -2.11615,1.061429 -3.175,-2.116659 -2.116662,1.058328 -1.058849,-0.003 5.29e-4,0.003 v 25.40004 L -160.86667,101.6 V 16.933336 l 76.200006,-10e-6 V 42.33337 l 5.29e-4,-0.003 2.11613,1.060921 2.116669,-1.058331 2.116661,-1.058328 2.11718,1.056259 -5.29e-4,-25.397555 H -8.4666664 V 76.2 H 33.866667 V 3.2e-6 H 25.399999 V 67.733333 H 0 V 8.4666696 l -169.33333,6.3e-6 z"
         style="fill:#2b2622;fill-opacity:1;stroke-width:2.22600245" />
    </clipPath>
    <filter
       inkscape:collect="always"
       style="color-interpolation-filters:sRGB"
       id="filter1263"
       x="-0.010451613"
       width="1.0209032"
       y="-0.023142857"
       height="1.0462857">
      <feGaussianBlur
         inkscape:collect="always"
         stdDeviation="1.143"
         id="feGaussianBlur1265" />
    </filter>
  </defs>
  <path
     inkscape:connector-curvature="0"
     style="fill:#130902;fill-opacity:0.94499966;stroke-width:1.00507212;filter:url(#filter1263)"
     d="M -89.95833,3.1750121 H 96.308334 V 62.441677 H 172.50833 V 121.70835 H -89.95833 Z"
     id="path38-1"
     sodipodi:nodetypes="ccccccc" />
  <path
     inkscape:connector-curvature="0"
     id="path2443"
     d="m -81.491665,11.64167 v 101.60001 l 245.533335,-1e-5 V 70.908329 H 87.841665 V 11.641664 Z"
     style="fill:#6c6c6c;fill-opacity:1;stroke-width:1.50486207"
     sodipodi:nodetypes="ccccccc" />
  <path
     style="fill:#4d4d4d;fill-opacity:1;stroke:none;stroke-width:5.49926043;stroke-linecap:butt;stroke-linejoin:miter;stroke-miterlimit:4;stroke-dasharray:none;stroke-opacity:0.70588235"
     d="m 11.641667,11.641664 v 27.704614 l 5.291664,8.46666 -1.05833,6.35 3.175004,8.278725 -3.175004,8.46667 -4.233334,12.887945 V 104.77514 H 3.1750008 l 1e-5,-22.037202 -1.058343,-9.525 -3.1750101,-4.23333 3.1750101,-14.81667 -1.0583501,-5.29166 2.1166931,-10.58334 -1e-5,-26.646274 z"
     id="rect1290"
     inkscape:connector-curvature="0"
     sodipodi:nodetypes="ccccccccccccccccc" />
  <g
     id="g1422"
     transform="matrix(-0.99999874,0,0,-0.99999874,371.09892,317.46363)">
    <path
       style="fill:#884a18;stroke:#000000;stroke-width:2.14400005;stroke-opacity:0.70588235"
       inkscape:connector-curvature="0"
       id="path1225"
       transform="matrix(0,1.000001,-0.97500093,0,366.25324,-114.31041)"
       clip-path="url(#clipPath1227)"
       d="m 402.14,158.55 h 9.526 v -42.334 h -9.525 z"
       sodipodi:nodetypes="ccccc" />
    <path
       style="fill:#774115;stroke:#000000;stroke-width:2.14400005;stroke-opacity:0.70588235"
       inkscape:connector-curvature="0"
       id="path1219"
       d="m 402.14,158.55 h 9.526 v -42.334 h -9.525 z"
       clip-path="url(#clipPath1221)"
       transform="matrix(0,1.000001,-0.97500093,0,366.25324,-122.77743)"
       sodipodi:nodetypes="ccccc" />
    <path
       style="fill:#663812;stroke:#000000;stroke-width:2.14400005;stroke-opacity:0.70588235"
       inkscape:connector-curvature="0"
       id="path1213"
       transform="matrix(0,1.000001,-0.97500093,0,366.25324,-131.24445)"
       clip-path="url(#clipPath1215)"
       d="m 402.14,158.55 h 9.526 v -42.334 h -9.525 z"
       sodipodi:nodetypes="ccccc" />
    <path
       transform="matrix(0,1.000001,-0.97500093,0,366.25324,-139.71044)"
       sodipodi:nodetypes="ccccc"
       clip-path="url(#clipPath1209)"
       d="m 402.14,158.55 h 9.526 v -42.334 h -9.525 z"
       id="path2451"
       inkscape:connector-curvature="0"
       style="fill:#552f0f;stroke:#000000;stroke-width:2.14400005;stroke-opacity:0.70588235" />
    <path
       style="fill:#44250c;stroke:#000000;stroke-width:2.14390016;stroke-miterlimit:4;stroke-dasharray:none;stroke-opacity:0.70588235"
       inkscape:connector-curvature="0"
       id="path1201"
       transform="matrix(0,1.000001,-0.97500093,0,366.25324,-148.17746)"
       clip-path="url(#clipPath1203)"
       d="m 402.14,158.55 h 9.526 v -42.334 h -9.525 z"
       sodipodi:nodetypes="ccccc" />
    <path
       style="fill:#44250c;stroke:#000000;stroke-width:2.14390016;stroke-miterlimit:4;stroke-dasharray:none;stroke-opacity:0.70588235"
       inkscape:connector-curvature="0"
       id="path1173"
       transform="matrix(0,1.000001,-0.97500093,0,366.25324,-148.17746)"
       clip-path="url(#clipPath1181)"
       d="m 402.14,158.55 h 9.526 v -42.334 h -9.525 z"
       sodipodi:nodetypes="ccccc" />
    <path
       style="fill:#331c09;stroke:#000000;stroke-width:2.14390016;stroke-miterlimit:4;stroke-dasharray:none;stroke-opacity:0.70588235"
       inkscape:connector-curvature="0"
       id="path1175"
       d="m 402.14,158.55 h 9.526 v -42.334 h -9.525 z"
       clip-path="url(#clipPath1177)"
       transform="matrix(0,1.000001,-0.97500093,0,366.25324,-156.64445)"
       sodipodi:nodetypes="ccccc" />
    <path
       style="fill:#ab5d1d;stroke:#000000;stroke-width:2.14390016;stroke-miterlimit:4;stroke-dasharray:none;stroke-opacity:0.70588235"
       inkscape:connector-curvature="0"
       id="path1159"
       d="m 402.14,158.55 h 9.526 v -42.334 h -9.525 z"
       clip-path="url(#clipPath1161)"
       sodipodi:nodetypes="ccccc"
       transform="matrix(0,1.000001,-0.97500093,0,366.25324,-105.8064)" />
  </g>
  <path
     style="fill:#2b2622;fill-opacity:1;stroke:#000000;stroke-width:3.17499995;stroke-miterlimit:4;stroke-dasharray:none;stroke-opacity:0.70588235"
     d="m -169.33333,110.06524 c 0,0 62.37157,10e-4 245.533328,10e-4 V 3.2e-6 H 67.733331 V 101.6 H -76.199998 l -5.4e-4,-25.403099 -2.11615,1.06143 -3.175,-2.11666 -2.11666,1.05833 -1.05885,-0.003 5.34e-4,0.003 V 101.60004 L -160.86667,101.6 V 16.933336 l 76.200006,-10e-6 v 25.400045 l 5.26e-4,-0.003 2.11613,1.06092 2.11667,-1.05833 2.11666,-1.05833 2.11718,1.05626 -5.3e-4,-25.397555 H -8.4666664 V 76.200001 H 33.866666 V 3.2e-6 H 25.399999 V 67.733334 H 0 V 8.4666696 l -169.33333,6.4e-6 z"
     id="path2080"
     inkscape:connector-curvature="0"
     sodipodi:nodetypes="ccccccccccccccccccccccccccccccccc"
     clip-path="url(#clipPath2082)"
     transform="translate(87.841665,3.1749942)" />
  <rect
     style="fill:#3d2813;fill-opacity:0.55050504;stroke:none;stroke-width:3.38044858;stroke-linecap:round;stroke-linejoin:miter;stroke-miterlimit:10;stroke-dasharray:none;stroke-opacity:1;paint-order:normal"
     id="rect1000"
     width="169.33334"
     height="118.53333"
     x="186.26666"
     y="3.1750083" />
</svg>
