<svg xmlns="http://www.w3.org/2000/svg" xmlns:xlink="http://www.w3.org/1999/xlink" width="704" height="640" viewBox="0 0 186.267 169.333"><defs><pattern xlink:href="#a" id="c" patternTransform="translate(8.467 -38.1) scale(.06615)"/><clipPath id="e"><path d="M496.26-65.722v-10.054h-25.4v10.054z" fill="#252525" stroke-width="1.467"/></clipPath><pattern patternUnits="userSpaceOnUse" width="128" height="128" patternTransform="translate(0 -38.1) scale(.26458)" id="a"><path fill="none" stroke-width="3.78" d="M0 0h128v128H0z"/><path fill="none" stroke-width="3.78" d="M0 0h128v128H0z"/><path d="M0 0h128v128H0z" fill="#2e2d2a" stroke-width="15.118" stroke-miterlimit="10"/><path d="M60 128V68H0v-8h60V0h8v60h60v8H68v60z" fill="#6f6f6f" fill-opacity=".303" stroke-width="1.414"/></pattern><clipPath id="f"><path d="M50.8 128.587H15.346V15.346H50.8v5.291H20.638v102.659H50.8z" fill="#5d2f09" stroke-width=".748"/></clipPath><clipPath id="d"><path d="M50.8 138.112v-13.229H19.05V19.05H50.8V6.879H6.88v131.233z" fill="#3b3b3b" stroke-width="4.7"/></clipPath><clipPath id="h"><path d="M50.8 177.8H0V-4.233h50.8l.001 12.699H8.467v127h42.334z" fill="#1b1e25" stroke-width="2.226"/></clipPath><clipPath id="g"><path d="M118.534 177.8h50.8V-4.233h-50.8v12.7h42.334v127h-42.334z" fill="#1b1e25" stroke-width="2.226"/></clipPath><filter id="b" x="-.023" width="1.047" y="-.025" height="1.049" color-interpolation-filters="sRGB"><feGaussianBlur stdDeviation="1.651"/></filter></defs><path transform="matrix(1.06645 0 0 1.20379 108.575 -249.314)" d="M-99.231 200.075H70.102v160.867H-99.231z" fill="#130902" fill-opacity=".944" filter="url(#b)"/><path fill="#555" d="M8.467 0h169.334v177.8H8.467z"/><path d="M8.467 8.466H177.8v127H8.467z" fill="url(#c)"/><path d="M50.8 138.112v-13.229H19.05V19.05H50.8V6.879H6.88v131.233z" clip-path="url(#d)" transform="translate(8.467)" fill="#3b3b3b" stroke="#191919" stroke-width="3.175"/><path transform="rotate(90 199.66 -250.035)" d="M496.26-65.722v-10.054h-25.4v10.054z" clip-path="url(#e)" fill="#252525" stroke="#191919" stroke-width="3.175"/><path clip-path="url(#e)" d="M496.26-65.722v-10.054h-25.4v10.054z" transform="rotate(90 161.559 -211.935)" fill="#252525" stroke="#191919" stroke-width="3.175"/><path clip-path="url(#e)" d="M496.26-65.722v-10.054h-25.4v10.054z" transform="rotate(90 180.609 -230.985)" fill="#252525" stroke="#191919" stroke-width="3.175"/><g transform="rotate(-48.192 58.204 -38.03) scale(.44321)" fill="#391212"><circle r="11.264" cy="278.017" cx="19.162"/><circle r="3.725" cy="270.029" cx="10.187"/><circle r="2.693" cy="265.856" cx="28.093"/><circle r="4.892" cy="276.402" cx="27.868"/><circle r="2.827" cy="285.826" cx="5.43"/><circle r="2.962" cy="287.666" cx="23.605"/><circle r="2.019" cy="263.388" cx="16.829"/><circle r=".763" cy="270.299" cx="32.446"/><circle r="1.84" cy="284.928" cx="33.702"/><circle r="2.199" cy="291.66" cx="29.573"/><circle r=".853" cy="277.21" cx="3.276"/><circle r="3.231" cy="289.192" cx="14.63"/><circle r="1.436" cy="278.96" cx="8.167"/></g><path d="M50.8 128.587H15.346V15.346H50.8v5.291H20.638v102.659H50.8z" clip-path="url(#f)" transform="translate(8.467)" fill="#5d2f09" stroke="#191919" stroke-width="2.117"/><path d="M118.534 177.8h50.8V-4.233h-50.8v12.7h42.334v127h-42.334z" clip-path="url(#g)" transform="translate(8.467)" fill="#1a1c21" stroke="#000" stroke-width="3.175" stroke-opacity=".706"/><path d="M50.8 177.8H0V-4.233h50.8l.001 12.699H8.467v127h42.334z" clip-path="url(#h)" transform="translate(8.467)" fill="#1a1c21" stroke="#000" stroke-width="3.175" stroke-opacity=".706"/><path d="M93.134 162.983l-6.35 6.35h12.7zm-6.351-19.05l6.35 6.35 6.35-6.35z" stroke="#2e2e2e" fill="none" stroke-width="1.587" stroke-linecap="square"/><path d="M93.134-5.901l-6.35 6.35h12.7z" fill="none" stroke="#2e2e2e" stroke-width="1.588" stroke-linecap="square"/></svg>