<?xml version="1.0" encoding="UTF-8" standalone="no"?>
<!-- Created with Inkscape (http://www.inkscape.org/) -->

<svg
   xmlns:dc="http://purl.org/dc/elements/1.1/"
   xmlns:cc="http://creativecommons.org/ns#"
   xmlns:rdf="http://www.w3.org/1999/02/22-rdf-syntax-ns#"
   xmlns:svg="http://www.w3.org/2000/svg"
   xmlns="http://www.w3.org/2000/svg"
   xmlns:sodipodi="http://sodipodi.sourceforge.net/DTD/sodipodi-0.dtd"
   xmlns:inkscape="http://www.inkscape.org/namespaces/inkscape"
   width="768"
   height="768"
   viewBox="0 0 203.19999 203.2"
   version="1.1"
   id="svg10588"
   inkscape:version="0.92.1 r15371"
   sodipodi:docname="map-tree-02.svg">
  <defs
     id="defs10582" />
  <sodipodi:namedview
     id="base"
     pagecolor="#ffffff"
     bordercolor="#666666"
     borderopacity="1.0"
     inkscape:pageopacity="0.0"
     inkscape:pageshadow="2"
     inkscape:zoom="1.4142136"
     inkscape:cx="307.88428"
     inkscape:cy="432.2749"
     inkscape:document-units="mm"
     inkscape:current-layer="layer1"
     showgrid="true"
     units="px"
     inkscape:window-width="1920"
     inkscape:window-height="1018"
     inkscape:window-x="1912"
     inkscape:window-y="-8"
     inkscape:window-maximized="1">
    <inkscape:grid
       type="xygrid"
       id="grid11143" />
  </sodipodi:namedview>
  <metadata
     id="metadata10585">
    <rdf:RDF>
      <cc:Work
         rdf:about="">
        <dc:format>image/svg+xml</dc:format>
        <dc:type
           rdf:resource="http://purl.org/dc/dcmitype/StillImage" />
        <dc:title></dc:title>
      </cc:Work>
    </rdf:RDF>
  </metadata>
  <g
     inkscape:label="Layer 1"
     inkscape:groupmode="layer"
     id="layer1"
     transform="translate(0,-93.799977)">
    <path
       sodipodi:type="star"
       style="fill:#354528;fill-opacity:1;stroke:none;stroke-width:1.01840234;stroke-miterlimit:4;stroke-dasharray:none;stroke-opacity:1"
       id="path10592"
       sodipodi:sides="11"
       sodipodi:cx="8.15172"
       sodipodi:cy="266.46445"
       sodipodi:r1="11.528661"
       sodipodi:r2="10.145222"
       sodipodi:arg1="0.52849164"
       sodipodi:arg2="0.81409097"
       inkscape:flatsided="false"
       inkscape:rounded="0.38"
       inkscape:randomized="0.01"
       d="m 18.154638,272.17703 c -0.661381,1.09989 -2.206778,0.86764 -3.130693,1.75241 -0.923914,0.88477 -0.475181,2.17183 -1.608048,2.77045 -1.132866,0.59863 -2.059107,-0.45612 -3.323469,-0.22325 -1.2643617,0.23288 -1.8137434,1.49459 -3.0925272,1.37025 -1.2787839,-0.12433 -1.5506693,-1.45466 -2.7391502,-1.93953 -1.188481,-0.48487 -2.2324219,0.44578 -3.2293677,-0.36798 -0.99694578,-0.81375 -0.42908434,-2.2279 -1.16186935,-3.28019 -0.73278502,-1.05229 -2.15485915,-0.83135 -2.55538705,-2.05114 -0.4005279,-1.2198 0.7598168,-1.91903 0.7194804,-3.20709 -0.040336,-1.28805 -1.4204069,-2.0795 -1.1091953,-3.32031 0.3112116,-1.2408 1.7405085,-1.14139 2.3989245,-2.24283 0.65841599,-1.10144 -0.0299539,-2.41071 0.91512672,-3.27938 0.94508058,-0.86868 2.24287768,-0.13263 3.38409658,-0.72436 1.141219,-0.59174 1.0472243,-2.11941 2.3148004,-2.34469 1.2675761,-0.22529 2.0245739,1.1266 3.2978609,1.25036 1.2732873,0.12376 2.1524603,-1.08395 3.3443363,-0.60865 1.191877,0.4753 0.809755,2.03706 1.81716,2.82101 1.007405,0.78395 2.335502,0.17861 3.085391,1.22053 0.749888,1.04192 -0.179431,2.19822 0.230289,3.41826 0.409719,1.22003 1.783951,1.44921 1.854064,2.73383 0.07011,1.28462 -1.321707,1.70273 -1.623459,2.94903 -0.301751,1.24629 0.873018,2.20337 0.211636,3.30327 z"
       transform="matrix(8.7997541,0,0,8.7682352,29.231839,-2140.9823)" />
    <path
       sodipodi:type="star"
       style="fill:#556d3f;fill-opacity:1;stroke:none;stroke-width:1.01840234;stroke-miterlimit:4;stroke-dasharray:none;stroke-opacity:1"
       id="path10592-4"
       sodipodi:sides="10"
       sodipodi:cx="8.15172"
       sodipodi:cy="266.46445"
       sodipodi:r1="11.528661"
       sodipodi:r2="10.145222"
       sodipodi:arg1="0.52849164"
       sodipodi:arg2="0.84265091"
       inkscape:flatsided="false"
       inkscape:rounded="0.38"
       inkscape:randomized="0.01"
       d="m 18.154638,272.17703 c -0.716393,1.19138 -2.136957,0.87724 -3.162014,1.81022 -1.025058,0.93298 -0.988232,2.51827 -2.258781,3.07061 -1.27055,0.55234 -2.157827,-0.55272 -3.5375939,-0.41113 -1.3797665,0.1416 -2.1949347,1.42394 -3.5481617,1.13411 -1.3532269,-0.28982 -1.4235135,-1.82119 -2.6218271,-2.52349 -1.1983137,-0.70231 -2.57949039,-0.0518 -3.48688041,-1.10157 -0.90739009,-1.04973 -0.11447397,-2.26577 -0.69121519,-3.53315 -0.5767412,-1.26739 -2.1207879,-1.73876 -2.2602085,-3.11971 -0.1394206,-1.38096 1.2875936,-1.8688 1.5978299,-3.21687 0.3102364,-1.34808 -0.6582629,-2.46954 0.06382,-3.66347 0.7220833,-1.19393 2.01686536,-0.70747 3.0696531,-1.61889 1.0527878,-0.91141 1.0081481,-2.53625 2.275008,-3.10664 1.2668599,-0.57038 2.1643688,0.57463 3.5464605,0.42382 1.3820916,-0.15081 2.1886728,-1.47924 3.5392908,-1.17232 1.350619,0.30691 1.445613,1.85075 2.630464,2.56732 1.184852,0.71656 2.609889,0.0256 3.541952,1.05211 0.932063,1.02649 -0.0689,2.33139 0.489299,3.60355 0.558201,1.27216 2.22151,1.4655 2.339159,2.85187 0.117648,1.38637 -1.381256,2.14232 -1.676543,3.50463 -0.295287,1.36231 0.866681,2.25762 0.150288,3.449 z"
       transform="matrix(5.3869685,1.4434339,-1.4382637,5.3676733,440.87577,-1246.7395)" />
    <path
       sodipodi:type="star"
       style="fill:#321f0d;fill-opacity:1;stroke:#1b1917;stroke-width:0.36385095;stroke-miterlimit:4;stroke-dasharray:none;stroke-opacity:1"
       id="path11141"
       sodipodi:sides="12"
       sodipodi:cx="22.346678"
       sodipodi:cy="274.63733"
       sodipodi:r1="2.9814186"
       sodipodi:r2="3.3126872"
       sodipodi:arg1="0.72831738"
       sodipodi:arg2="0.99011677"
       inkscape:flatsided="false"
       inkscape:rounded="0.16"
       inkscape:randomized="0.003"
       d="m 24.562419,276.61978 c -0.09481,0.10536 -0.284746,0.71562 -0.403412,0.79304 -0.118665,0.0774 -0.735945,0.0202 -0.870629,0.0643 -0.134685,0.044 -0.611746,0.45747 -0.753089,0.46557 -0.141343,0.008 -0.651982,-0.34852 -0.790685,-0.37747 -0.138703,-0.029 -0.768486,0.0893 -0.894977,0.0261 -0.126492,-0.0633 -0.37692,-0.62617 -0.482616,-0.7202 -0.105696,-0.094 -0.720824,-0.30544 -0.798964,-0.4236 -0.07814,-0.11815 -5.71e-4,-0.73999 -0.04477,-0.87432 -0.0442,-0.13432 -0.472871,-0.60593 -0.481547,-0.74706 -0.0087,-0.14113 0.360259,-0.6611 0.389085,-0.79957 0.02883,-0.13846 -0.110124,-0.75851 -0.04588,-0.88476 0.06425,-0.12625 0.641343,-0.37842 0.735007,-0.4844 0.09366,-0.10598 0.28507,-0.70594 0.403739,-0.78324 0.118668,-0.0773 0.75719,-0.0333 0.891576,-0.0772 0.134387,-0.0439 0.592085,-0.45649 0.733193,-0.46509 0.141107,-0.009 0.670989,0.35911 0.80951,0.38769 0.13852,0.0286 0.748719,-0.10728 0.875101,-0.0437 0.126382,0.0635 0.397706,0.64952 0.503236,0.74386 0.105531,0.0943 0.700728,0.2722 0.777996,0.39063 0.07727,0.11842 0.02046,0.7576 0.06465,0.89199 0.04418,0.13439 0.473927,0.60781 0.481547,0.74927 0.0076,0.14146 -0.359675,0.64957 -0.387993,0.78837 -0.02832,0.13881 0.08903,0.76992 0.02491,0.89595 -0.06412,0.12603 -0.640181,0.37856 -0.734986,0.48392 z"
       inkscape:transform-center-x="-0.023180472"
       inkscape:transform-center-y="0.021813164"
       transform="matrix(3.8541337,3.8541337,-3.9197304,3.9197304,1092.0003,-967.20277)" />
  </g>
</svg>
