<?xml version="1.0" encoding="UTF-8" standalone="no"?>
<svg
   xmlns:dc="http://purl.org/dc/elements/1.1/"
   xmlns:cc="http://creativecommons.org/ns#"
   xmlns:rdf="http://www.w3.org/1999/02/22-rdf-syntax-ns#"
   xmlns:svg="http://www.w3.org/2000/svg"
   xmlns="http://www.w3.org/2000/svg"
   xmlns:sodipodi="http://sodipodi.sourceforge.net/DTD/sodipodi-0.dtd"
   xmlns:inkscape="http://www.inkscape.org/namespaces/inkscape"
   width="150"
   height="150"
   viewBox="0 0 39.687829 39.687829"
   version="1.1"
   id="svg60"
   sodipodi:docname="map-bush-04cb.svg"
   inkscape:version="0.92.2 (5c3e80d, 2017-08-06)">
  <metadata
     id="metadata66">
    <rdf:RDF>
      <cc:Work
         rdf:about="">
        <dc:format>image/svg+xml</dc:format>
        <dc:type
           rdf:resource="http://purl.org/dc/dcmitype/StillImage" />
        <dc:title />
      </cc:Work>
    </rdf:RDF>
  </metadata>
  <defs
     id="defs64">
    <clipPath
       clipPathUnits="userSpaceOnUse"
       id="clipPath1193">
      <path
         d="m 28.575236,37.041973 c -1.042403,0.601832 -2.079296,2.093253 -3.256656,2.343509 -1.177361,0.250256 -2.731225,-0.690484 -3.928294,-0.816301 -1.19707,-0.125817 -2.91257,0.471298 -4.012171,-0.01828 -1.099601,-0.489574 -1.803751,-2.163986 -2.698247,-2.969395 -0.894496,-0.805408 -2.63334,-1.330677 -3.235172,-2.37308 -0.601831,-1.042403 -0.187305,-2.81092 -0.437561,-3.988281 -0.250256,-1.17736 -1.3482643,-2.624378 -1.2224471,-3.821448 0.1258171,-1.19707 1.5006841,-2.384178 1.9902581,-3.483779 0.489574,-1.099601 0.451802,-2.915657 1.25721,-3.810153 0.805408,-0.894496 2.615463,-1.046761 3.657866,-1.648592 1.042404,-0.601832 2.079297,-2.093253 3.256657,-2.343509 1.177361,-0.250256 2.731225,0.690483 3.928294,0.816301 1.19707,0.125817 2.912569,-0.471298 4.012171,0.01828 1.099601,0.489574 1.803751,2.163986 2.698247,2.969394 0.894496,0.805409 2.63334,1.330678 3.235171,2.373081 0.601832,1.042403 0.187306,2.81092 0.437562,3.98828 0.250256,1.177361 1.348264,2.624379 1.222447,3.821449 -0.125817,1.19707 -1.500684,2.384178 -1.990258,3.483779 -0.489574,1.099601 -0.451802,2.915657 -1.257211,3.810153 -0.805408,0.894496 -2.615463,1.046761 -3.657866,1.648592 z"
         inkscape:randomized="0"
         inkscape:rounded="0.3"
         inkscape:flatsided="false"
         sodipodi:arg2="1.3613569"
         sodipodi:arg1="1.0471976"
         sodipodi:r2="12.918712"
         sodipodi:r1="11.885215"
         sodipodi:cy="26.749075"
         sodipodi:cx="22.632629"
         sodipodi:sides="10"
         id="path1195"
         style="fill:#8ac556;fill-opacity:1;stroke:none;stroke-width:3.17502642;stroke-linecap:round;stroke-linejoin:miter;stroke-miterlimit:4;stroke-dasharray:none;stroke-opacity:1"
         sodipodi:type="star"
         clip-path="none" />
    </clipPath>
    <clipPath
       clipPathUnits="userSpaceOnUse"
       id="clipPath939">
      <path
         transform="matrix(0.61630177,1.067466,-1.067466,0.61630177,34.46977,-21.043082)"
         d="m 28.575236,37.041973 c -0.562646,0.324844 -5.292919,2.625814 -5.942608,2.625814 -0.649688,0 -5.37996,-2.30097 -5.942607,-2.625814 -0.562646,-0.324845 -4.92048,-3.270896 -5.245325,-3.833543 -0.324844,-0.562647 -0.697281,-5.809667 -0.697281,-6.459356 0,-0.649688 0.372438,-5.896709 0.697282,-6.459356 0.324845,-0.562646 4.682679,-3.508697 5.245325,-3.833541 0.562647,-0.324844 5.29292,-2.625814 5.942608,-2.625814 0.649689,0 5.379961,2.30097 5.942607,2.625814 0.562647,0.324844 4.920481,3.270896 5.245325,3.833543 0.324844,0.562646 0.697282,5.809667 0.697282,6.459356 0,0.649688 -0.372438,5.896709 -0.697283,6.459356 -0.324844,0.562646 -4.682678,3.508697 -5.245325,3.833541 z"
         inkscape:randomized="0"
         inkscape:rounded="0.1"
         inkscape:flatsided="false"
         sodipodi:arg2="1.5707964"
         sodipodi:arg1="1.0471976"
         sodipodi:r2="12.918712"
         sodipodi:r1="11.885215"
         sodipodi:cy="26.749075"
         sodipodi:cx="22.632629"
         sodipodi:sides="6"
         id="path941"
         style="fill:#1f5b49;fill-opacity:1;stroke:none;stroke-width:3.17502642;stroke-linecap:round;stroke-linejoin:miter;stroke-miterlimit:4;stroke-dasharray:none;stroke-opacity:1"
         sodipodi:type="star"
         clip-path="url(#clipPath1193)" />
    </clipPath>
  </defs>
  <sodipodi:namedview
     pagecolor="#ffffff"
     bordercolor="#666666"
     borderopacity="1"
     objecttolerance="10"
     gridtolerance="10"
     guidetolerance="10"
     inkscape:pageopacity="0"
     inkscape:pageshadow="2"
     inkscape:window-width="1920"
     inkscape:window-height="1017"
     id="namedview62"
     showgrid="true"
     inkscape:showpageshadow="false"
     inkscape:zoom="0.77631578"
     inkscape:cx="-268.22639"
     inkscape:cy="-16.98622"
     inkscape:window-x="1912"
     inkscape:window-y="-8"
     inkscape:window-maximized="1"
     inkscape:current-layer="svg60"
     fit-margin-top="0"
     fit-margin-left="0"
     fit-margin-right="0"
     fit-margin-bottom="0">
    <inkscape:grid
       type="xygrid"
       id="grid873"
       empspacing="4"
       spacingy="1.0583421"
       spacingx="1.0583421"
       originx="-21.799089"
       originy="-22.534506" />
  </sodipodi:namedview>
  <path
     style="fill:#156c52;fill-opacity:0.88200003;stroke-width:1.07855844"
     inkscape:connector-curvature="0"
     id="path18"
     d="M 18.716281,20.843198 C 22.178453,31.228638 14.26615,35.18479 2.8916721,36.668887 4.37469,25.29441 8.3308419,17.381027 18.716281,20.843198 Z" />
  <path
     style="fill:#156c52;fill-opacity:0.88200003;stroke-width:1.07855844"
     inkscape:connector-curvature="0"
     id="path22"
     d="M 20.970468,20.970469 C 31.356986,17.508297 35.313139,25.421679 36.796157,36.796156 25.421679,35.313139 17.509374,31.355908 20.970468,20.970469 Z" />
  <path
     style="fill:#156c52;fill-opacity:0.88200003;stroke-width:1.07855844"
     inkscape:connector-curvature="0"
     id="path26"
     d="M 20.970468,18.84463 C 17.508295,8.4581123 25.421679,4.5019605 36.796157,3.0189428 35.313139,14.393419 31.355908,22.305725 20.970468,18.84463 Z" />
  <path
     style="fill:#156c52;fill-opacity:0.88200003;stroke-width:1.07855844"
     inkscape:connector-curvature="0"
     id="path30"
     d="M 18.716281,18.716282 C 8.3308419,22.178455 4.37469,14.266149 2.8916721,2.8916728 14.26615,4.3746908 22.178453,8.3308423 18.716281,18.716282 Z" />
  <path
     d="M 17.885304,21.802529 C 20.867925,30.747271 14.0524,34.155424 4.2550343,35.432798 5.5331893,25.636213 8.9413422,18.820688 17.885304,21.802529 Z"
     id="path2"
     inkscape:connector-curvature="0"
     style="fill:#0c3c2e;stroke-width:1.10420525;fill-opacity:1" />
  <path
     d="M 21.460546,21.459762 C 30.405288,18.478701 33.81266,25.293446 35.090815,35.090031 25.293449,33.812657 18.478705,30.405285 21.460546,21.459762 Z"
     id="path6"
     inkscape:connector-curvature="0"
     style="fill:#0c3c2e;stroke-width:1.10420525;fill-opacity:1" />
  <path
     d="M 18.228852,18.228067 C 9.2833287,21.209908 5.8759565,14.395164 4.5985824,4.597798 14.395168,5.8759529 21.209912,9.2833251 18.228852,18.228067 Z"
     id="path10"
     inkscape:connector-curvature="0"
     style="fill:#0c3c2e;stroke-width:1.10420525;fill-opacity:1" />
  <path
     d="M 21.802532,17.8853 C 18.821472,8.9405578 25.636216,5.5331857 35.432802,4.2550307 34.155428,14.052397 30.748055,20.867141 21.802532,17.8853 Z"
     id="path14"
     inkscape:connector-curvature="0"
     style="fill:#0c3c2e;stroke-width:1.10420525;fill-opacity:1" />
  <path
     transform="matrix(1.1991987,0.6923577,-0.6923577,1.1991987,11.119746,-28.123264)"
     d="m 28.575236,37.041973 c -0.562646,0.324844 -5.292919,2.625814 -5.942608,2.625814 -0.649688,0 -5.37996,-2.30097 -5.942607,-2.625814 -0.562646,-0.324845 -4.92048,-3.270896 -5.245325,-3.833543 -0.324844,-0.562647 -0.697281,-5.809667 -0.697281,-6.459356 0,-0.649688 0.372438,-5.896709 0.697282,-6.459356 0.324845,-0.562646 4.682679,-3.508697 5.245325,-3.833541 0.562647,-0.324844 5.29292,-2.625814 5.942608,-2.625814 0.649689,0 5.379961,2.30097 5.942607,2.625814 0.562647,0.324844 4.920481,3.270896 5.245325,3.833543 0.324844,0.562646 0.697282,5.809667 0.697282,6.459356 0,0.649688 -0.372438,5.896709 -0.697283,6.459356 -0.324844,0.562646 -4.682678,3.508697 -5.245325,3.833541 z"
     inkscape:randomized="0"
     inkscape:rounded="0.1"
     inkscape:flatsided="false"
     sodipodi:arg2="1.5707964"
     sodipodi:arg1="1.0471976"
     sodipodi:r2="12.918712"
     sodipodi:r1="11.885215"
     sodipodi:cy="26.749075"
     sodipodi:cx="22.632629"
     sodipodi:sides="6"
     id="path1197"
     style="fill:#156c52;fill-opacity:0.88235294;stroke:none;stroke-width:3.17502642;stroke-linecap:round;stroke-linejoin:miter;stroke-miterlimit:4;stroke-dasharray:none;stroke-opacity:1"
     sodipodi:type="star"
     clip-path="url(#clipPath1193)" />
  <path
     clip-path="url(#clipPath1193)"
     sodipodi:type="star"
     style="fill:#1f5b49;fill-opacity:1;stroke:none;stroke-width:3.17502642;stroke-linecap:round;stroke-linejoin:miter;stroke-miterlimit:4;stroke-dasharray:none;stroke-opacity:1"
     id="path1191"
     sodipodi:sides="6"
     sodipodi:cx="22.632629"
     sodipodi:cy="26.749075"
     sodipodi:r1="11.885215"
     sodipodi:r2="12.918712"
     sodipodi:arg1="1.0471976"
     sodipodi:arg2="1.5707964"
     inkscape:flatsided="false"
     inkscape:rounded="0.1"
     inkscape:randomized="0"
     d="m 28.575236,37.041973 c -0.562646,0.324844 -5.292919,2.625814 -5.942608,2.625814 -0.649688,0 -5.37996,-2.30097 -5.942607,-2.625814 -0.562646,-0.324845 -4.92048,-3.270896 -5.245325,-3.833543 -0.324844,-0.562647 -0.697281,-5.809667 -0.697281,-6.459356 0,-0.649688 0.372438,-5.896709 0.697282,-6.459356 0.324845,-0.562646 4.682679,-3.508697 5.245325,-3.833541 0.562647,-0.324844 5.29292,-2.625814 5.942608,-2.625814 0.649689,0 5.379961,2.30097 5.942607,2.625814 0.562647,0.324844 4.920481,3.270896 5.245325,3.833543 0.324844,0.562646 0.697282,5.809667 0.697282,6.459356 0,0.649688 -0.372438,5.896709 -0.697283,6.459356 -0.324844,0.562646 -4.682678,3.508697 -5.245325,3.833541 z"
     transform="matrix(1.067466,0.6163018,-0.6163018,1.067466,12.066778,-22.878191)" />
  <g
     id="g915"
     transform="rotate(-30,19.843914,19.843915)"
     clip-path="url(#clipPath939)">
    <path
       sodipodi:nodetypes="ccc"
       inkscape:connector-curvature="0"
       id="path1179"
       d="m 19.843915,3.1695956 c 2.779052,8.3371594 -10e-7,16.6743174 -10e-7,16.6743174 0,0 -2.779053,8.33716 -1e-6,16.674321"
       style="fill:none;stroke:#1d2616;stroke-width:0.98254365;stroke-linecap:butt;stroke-linejoin:miter;stroke-miterlimit:4;stroke-dasharray:none;stroke-opacity:0.23529412" />
    <path
       style="fill:none;stroke:#1d2616;stroke-width:0.98254365;stroke-linecap:butt;stroke-linejoin:miter;stroke-miterlimit:4;stroke-dasharray:none;stroke-opacity:0.23529412"
       d="m 5.4035305,11.506754 c 8.6097175,1.76185 14.4403815,8.33716 14.4403815,8.33716 0,0 5.830666,6.57531 14.440386,8.337161"
       id="path897"
       inkscape:connector-curvature="0"
       sodipodi:nodetypes="ccc" />
    <path
       sodipodi:nodetypes="ccc"
       inkscape:connector-curvature="0"
       id="path899"
       d="m 5.4035296,28.181073 c 5.8306654,-6.575309 14.4403834,-8.337157 14.4403834,-8.337157 0,0 8.609718,-1.76185 14.440386,-8.33716"
       style="fill:none;stroke:#1d2616;stroke-width:0.98254365;stroke-linecap:butt;stroke-linejoin:miter;stroke-miterlimit:4;stroke-dasharray:none;stroke-opacity:0.23529412" />
  </g>
  <path
     sodipodi:type="star"
     style="fill:#2a7b63;fill-opacity:1;stroke:#1d2616;stroke-width:1.13242605;stroke-linecap:round;stroke-linejoin:round;stroke-miterlimit:4;stroke-dasharray:none;stroke-opacity:1;paint-order:normal"
     id="path891"
     sodipodi:sides="6"
     sodipodi:cx="19.843916"
     sodipodi:cy="19.843914"
     sodipodi:r1="3.1982529"
     sodipodi:r2="2.9423928"
     sodipodi:arg1="1.5707963"
     sodipodi:arg2="2.0943951"
     inkscape:flatsided="true"
     inkscape:rounded="0.2"
     inkscape:randomized="0"
     d="m 19.843916,23.042167 c -0.639651,0 -2.449943,-1.045173 -2.769768,-1.599126 -0.319826,-0.553954 -0.319826,-2.6443 0,-3.198253 0.319825,-0.553954 2.130117,-1.599127 2.769768,-1.599127 0.63965,0 2.449943,1.045173 2.769768,1.599126 0.319825,0.553954 0.319826,2.6443 0,3.198253 -0.319825,0.553954 -2.130117,1.599127 -2.769768,1.599127 z"
     transform="rotate(30,19.843916,19.843914)" />
</svg>
