<svg xmlns="http://www.w3.org/2000/svg" width="140" height="102" viewBox="0 0 37.042 26.988"><defs><clipPath id="f"><path fill="#eda500" stroke-width="2.114" stroke-miterlimit="10" d="M-307.054 16.14h5.821v5.821h-5.821z"/></clipPath><clipPath id="a"><rect rx="0" y="-4.233" x="-301.233" height="37.042" width="26.988" fill="#ed9000" stroke-width="1.713"/></clipPath><clipPath id="b"><path d="M-4.763 273.187v-5.82h28.575v5.82z" fill="#4d2600" stroke-width="3.532"/></clipPath><clipPath id="c"><path d="M-4.763 273.187v-5.82h28.575v5.82z" fill="#4d2600" stroke-width="3.532"/></clipPath><clipPath id="d"><path d="M-4.763 273.187v-5.82h28.575v5.82z" fill="#4d2600" stroke-width="3.532"/></clipPath><clipPath id="e"><path d="M-4.763 273.187v-5.82h28.575v5.82z" fill="#4d2600" stroke-width="3.532"/></clipPath></defs><rect clip-path="url(#a)" rx="0" y="-4.233" x="-301.233" height="37.042" width="26.988" transform="rotate(-90 -135.006 -139.24)" fill="#7d3e00" stroke="#191919" stroke-width="3.175"/><path transform="translate(8.996 -250.433)" clip-path="url(#b)" d="M-4.763 273.187v-5.82h28.575v5.82z" fill="#4d2600" stroke="#191919" stroke-width="3.175"/><path transform="translate(8.996 -254.666)" clip-path="url(#c)" d="M-4.763 273.187v-5.82h28.575v5.82z" fill="#4d2600" stroke="#191919" stroke-width="3.175"/><path transform="translate(8.996 -258.9)" clip-path="url(#d)" d="M-4.763 273.187v-5.82h28.575v5.82z" fill="#4d2600" stroke="#191919" stroke-width="3.175"/><path transform="translate(8.996 -263.133)" clip-path="url(#e)" d="M-4.763 273.187v-5.82h28.575v5.82z" fill="#4d2600" stroke="#191919" stroke-width="3.175"/><circle r="1.852" stroke-miterlimit="10" cy="21.96" cx="5.027" fill="#777" stroke="#191919" stroke-width="1.058"/><circle r="1.852" stroke-miterlimit="10" cy="5.027" cx="5.064" fill="#777" stroke="#191919" stroke-width="1.058"/><circle r="1.852" stroke-miterlimit="10" cy="5.026" cx="32.03" fill="#777" stroke="#191919" stroke-width="1.058"/><circle r="1.852" stroke-miterlimit="10" cy="21.942" cx="32.003" fill="#777" stroke="#191919" stroke-width="1.058"/><path d="M-307.054 16.14h5.821v5.821h-5.821z" stroke-miterlimit="10" clip-path="url(#f)" transform="rotate(-90 -140.298 -139.77)" fill="#777" stroke="#191919" stroke-width="3.175"/></svg>