<?xml version="1.0" encoding="UTF-8" standalone="no"?>
<svg
   xmlns:dc="http://purl.org/dc/elements/1.1/"
   xmlns:cc="http://creativecommons.org/ns#"
   xmlns:rdf="http://www.w3.org/1999/02/22-rdf-syntax-ns#"
   xmlns:svg="http://www.w3.org/2000/svg"
   xmlns="http://www.w3.org/2000/svg"
   xmlns:xlink="http://www.w3.org/1999/xlink"
   xmlns:sodipodi="http://sodipodi.sourceforge.net/DTD/sodipodi-0.dtd"
   xmlns:inkscape="http://www.inkscape.org/namespaces/inkscape"
   width="960"
   height="768"
   viewBox="0 0 254 203.2"
   version="1.1"
   id="svg111"
   sodipodi:docname="map-building-shilo-ceiling-01.svg"
   inkscape:version="0.92.2 (5c3e80d, 2017-08-06)">
  <metadata
     id="metadata115">
    <rdf:RDF>
      <cc:Work
         rdf:about="">
        <dc:format>image/svg+xml</dc:format>
        <dc:type
           rdf:resource="http://purl.org/dc/dcmitype/StillImage" />
        <dc:title />
      </cc:Work>
    </rdf:RDF>
  </metadata>
  <sodipodi:namedview
     pagecolor="#ffffff"
     bordercolor="#666666"
     borderopacity="1"
     objecttolerance="10"
     gridtolerance="10"
     guidetolerance="10"
     inkscape:pageopacity="0"
     inkscape:pageshadow="2"
     inkscape:window-width="1920"
     inkscape:window-height="1017"
     id="namedview113"
     showgrid="true"
     fit-margin-top="0"
     fit-margin-left="0"
     fit-margin-right="0"
     fit-margin-bottom="0"
     inkscape:zoom="0.38628982"
     inkscape:cx="306.34256"
     inkscape:cy="460.4322"
     inkscape:window-x="1912"
     inkscape:window-y="-8"
     inkscape:window-maximized="1"
     inkscape:current-layer="svg111"
     inkscape:snap-nodes="true">
    <inkscape:grid
       type="xygrid"
       id="grid925"
       empspacing="8"
       spacingy="1.0583333"
       spacingx="1.0583333"
       originx="0"
       originy="0" />
  </sodipodi:namedview>
  <defs
     id="defs93">
    <pattern
       inkscape:collect="always"
       xlink:href="#pattern1747"
       id="pattern1906"
       patternTransform="matrix(0.49999986,0,0,0.49999986,959.99998,-351.99997)" />
    <pattern
       inkscape:collect="always"
       xlink:href="#pattern1752"
       id="pattern1904"
       patternTransform="matrix(0.49999986,0,0,0.49999986,959.99998,-351.99997)" />
    <pattern
       inkscape:collect="always"
       xlink:href="#pattern1693"
       id="pattern1902"
       patternTransform="matrix(0.26458333,0,0,0.26458333,253.99999,-93.133354)" />
    <pattern
       inkscape:collect="always"
       xlink:href="#pattern1882"
       id="pattern1900"
       patternTransform="matrix(0.13229159,0,0,0.13229161,253.99999,-93.133324)" />
    <pattern
       inkscape:collect="always"
       xlink:href="#pattern1882"
       id="pattern1898"
       patternTransform="matrix(-0.13229159,0,0,-0.1322916,8.000026e-6,296.33332)" />
    <pattern
       inkscape:collect="always"
       xlink:href="#pattern1886"
       id="pattern1892"
       patternTransform="matrix(0.14552079,0,0,0.14552079,258.23334,-88.900024)" />
    <pattern
       inkscape:collect="always"
       xlink:href="#pattern1882"
       id="pattern1886"
       patternTransform="matrix(0.54999984,0,0,0.54999984,976.00003,-336.00009)" />
    <pattern
       inkscape:collect="always"
       xlink:href="#pattern1848"
       id="pattern1882"
       patternTransform="matrix(0.14552079,0,0,0.14552079,258.23334,-88.900024)" />
    <pattern
       inkscape:collect="always"
       xlink:href="#pattern1842"
       id="pattern1848"
       patternTransform="matrix(0.03500216,0,0,0.03500216,68.324238,-23.521467)" />
    <pattern
       inkscape:collect="always"
       xlink:href="#pattern1834"
       id="pattern1842"
       patternTransform="matrix(0.03500216,0,0,0.03500216,68.324237,-23.521467)" />
    <pattern
       inkscape:collect="always"
       xlink:href="#pattern1788"
       id="pattern1834"
       patternTransform="matrix(0.13229163,0,0,0.13229163,258.23334,-88.900033)" />
    <pattern
       inkscape:collect="always"
       xlink:href="#pattern1792"
       id="pattern1798"
       patternTransform="matrix(0.13229163,0,0,0.13229163,258.23334,-88.900024)" />
    <pattern
       inkscape:collect="always"
       xlink:href="#pattern1747"
       id="pattern1792"
       patternTransform="matrix(0.13229163,0,0,0.13229163,258.23334,-88.900023)" />
    <pattern
       inkscape:collect="always"
       xlink:href="#pattern1782"
       id="pattern1788"
       patternTransform="matrix(0.13229163,0,0,0.13229163,258.23334,-88.900032)" />
    <pattern
       inkscape:collect="always"
       xlink:href="#pattern1757"
       id="pattern1782"
       patternTransform="matrix(0.13229163,0,0,0.13229163,258.23334,-88.900031)" />
    <pattern
       inkscape:collect="always"
       xlink:href="#pattern1772"
       id="pattern1778"
       patternTransform="matrix(0.13229163,0,0,0.13229163,258.23334,-88.900032)" />
    <pattern
       inkscape:collect="always"
       xlink:href="#pattern1752"
       id="pattern1772"
       patternTransform="matrix(0.13229163,0,0,0.13229163,258.23334,-88.900031)" />
    <pattern
       inkscape:collect="always"
       xlink:href="#pattern1745"
       id="pattern1757"
       patternTransform="matrix(0.49999986,0,0,0.49999986,976.00003,-336.00012)" />
    <pattern
       inkscape:collect="always"
       xlink:href="#pattern1745"
       id="pattern1752"
       patternTransform="matrix(0.49999986,0,0,0.49999986,976.00003,-336.00012)" />
    <pattern
       inkscape:collect="always"
       xlink:href="#pattern1735"
       id="pattern1747"
       patternTransform="matrix(0.49999986,0,0,0.49999986,976.00003,-336.00009)" />
    <pattern
       inkscape:collect="always"
       xlink:href="#pattern1735"
       id="pattern1745"
       patternTransform="matrix(0.13229163,0,0,0.13229163,571.5,71.966634)" />
    <pattern
       inkscape:collect="always"
       xlink:href="#pattern1723"
       id="pattern1735"
       patternTransform="matrix(0.13229163,0,0,0.13229163,258.23334,-88.900024)" />
    <pattern
       inkscape:collect="always"
       xlink:href="#pattern1710"
       id="pattern1723"
       patternTransform="matrix(0.13229163,0,0,0.13229163,258.23334,-88.900029)" />
    <pattern
       inkscape:collect="always"
       xlink:href="#pattern1693"
       id="pattern1710"
       patternTransform="matrix(0.13229163,0,0,0.13229163,258.23334,-88.900024)" />
    <pattern
       patternUnits="userSpaceOnUse"
       width="320.00019"
       height="320.00011"
       patternTransform="matrix(0.26458333,0,0,0.26458333,258.23334,-88.900024)"
       id="pattern1693">
      <rect
         id="rect1819"
         y="5.6843419e-014"
         x="0"
         height="320.00009"
         width="320.00009"
         style="fill:none;stroke:none;stroke-width:3.77952766" />
      <rect
         id="rect1673"
         y="5.7671015e-005"
         x="0"
         height="320.00006"
         width="320.00003"
         style="fill:none;stroke:none;stroke-width:3.77952766" />
      <rect
         y="0.00011534203"
         x="0"
         height="319.99997"
         width="320"
         id="rect1675"
         style="fill:#4a9038;fill-opacity:1;stroke:none;stroke-width:37.79527283;stroke-linecap:butt;stroke-linejoin:miter;stroke-miterlimit:10;stroke-dasharray:none;stroke-opacity:1;paint-order:normal" />
      <rect
         y="0.00011534203"
         x="80.000076"
         height="319.99997"
         width="3.9999998"
         id="rect1677"
         style="fill:#000000;fill-opacity:0.35353537;stroke:none;stroke-width:12.31583309;stroke-linecap:butt;stroke-linejoin:miter;stroke-miterlimit:10;stroke-dasharray:none;stroke-opacity:1;paint-order:normal" />
      <rect
         y="0.00011534203"
         x="0"
         height="319.99997"
         width="3.9999998"
         id="rect1679"
         style="fill:#000000;fill-opacity:0.35353537;stroke:none;stroke-width:12.31583214;stroke-linecap:butt;stroke-linejoin:miter;stroke-miterlimit:10;stroke-dasharray:none;stroke-opacity:1;paint-order:normal" />
      <rect
         transform="rotate(90)"
         y="-80.000076"
         x="0.00011534203"
         height="75.999969"
         width="3.9999998"
         id="rect1681"
         style="fill:#000000;fill-opacity:0.35353537;stroke:none;stroke-width:6.00199366;stroke-linecap:butt;stroke-linejoin:miter;stroke-miterlimit:10;stroke-dasharray:none;stroke-opacity:1;paint-order:normal" />
      <rect
         transform="rotate(90)"
         y="-160.00005"
         x="240.00009"
         height="75.999969"
         width="3.9999998"
         id="rect1683"
         style="fill:#000000;fill-opacity:0.35353537;stroke:none;stroke-width:6.00199366;stroke-linecap:butt;stroke-linejoin:miter;stroke-miterlimit:10;stroke-dasharray:none;stroke-opacity:1;paint-order:normal" />
      <rect
         y="2.8835508e-005"
         x="160.00005"
         height="320.00003"
         width="3.9999998"
         id="rect1685"
         style="fill:#000000;fill-opacity:0.35353537;stroke:none;stroke-width:12.31583405;stroke-linecap:butt;stroke-linejoin:miter;stroke-miterlimit:10;stroke-dasharray:none;stroke-opacity:1;paint-order:normal" />
      <rect
         y="2.8835508e-005"
         x="240"
         height="320.00003"
         width="3.9999998"
         id="rect1687"
         style="fill:#000000;fill-opacity:0.35353537;stroke:none;stroke-width:12.31583405;stroke-linecap:butt;stroke-linejoin:miter;stroke-miterlimit:10;stroke-dasharray:none;stroke-opacity:1;paint-order:normal" />
      <rect
         transform="rotate(90)"
         y="-240"
         x="80.000046"
         height="75.999969"
         width="3.9999998"
         id="rect1689"
         style="fill:#000000;fill-opacity:0.35353537;stroke:none;stroke-width:6.00199366;stroke-linecap:butt;stroke-linejoin:miter;stroke-miterlimit:10;stroke-dasharray:none;stroke-opacity:1;paint-order:normal" />
      <rect
         transform="rotate(90)"
         y="-320.00018"
         x="160.00006"
         height="75.999969"
         width="3.9999998"
         id="rect1691"
         style="fill:#000000;fill-opacity:0.35353537;stroke:none;stroke-width:6.00199366;stroke-linecap:butt;stroke-linejoin:miter;stroke-miterlimit:10;stroke-dasharray:none;stroke-opacity:1;paint-order:normal" />
    </pattern>
    <clipPath
       clipPathUnits="userSpaceOnUse"
       id="clipPath1774">
      <path
         style="fill:url(#pattern1778);fill-opacity:1;stroke-width:59.72700119"
         d="M 960,0 672,384 960,768 Z"
         id="path1776"
         inkscape:connector-curvature="0" />
    </clipPath>
    <clipPath
       clipPathUnits="userSpaceOnUse"
       id="clipPath1794">
      <path
         style="fill:url(#pattern1798);fill-opacity:1;stroke-width:59.72700119"
         d="M 0,0 V 768 L 288,384 Z"
         id="path1796"
         inkscape:connector-curvature="0" />
    </clipPath>
    <clipPath
       clipPathUnits="userSpaceOnUse"
       id="clipPath1888">
      <path
         inkscape:connector-curvature="0"
         id="path1890"
         d="M 177.8,102.10746 254,2.56e-6 H 3.2e-6 L 76.200003,101.6 Z M 127.22479,52.293454 c -1.92008,0.0028 -3.01657,-0.33855 -3.83749,-0.435115 -3.9333,-0.632151 -4.59495,-2.471553 -6.83007,-4.832263 -2.23511,-2.359919 -3.01284,-3.721224 -3.19205,-7.493082 -0.18001,-3.771072 0.0587,-6.275287 2.47065,-8.791197 3.46467,-2.937348 4.87908,-4.95458 8.29096,-5.13457 3.41267,-0.179189 7.6833,-0.436748 10.02161,0.84801 2.33832,1.284751 3.17352,3.0215 4.08709,4.920632 0.91356,1.898319 2.39664,4.098626 2.44223,6.299356 0.0447,2.200711 -0.25383,4.601543 -1.20819,6.724655 -0.95439,2.122329 -2.6593,2.971131 -4.24884,4.228682 -1.58875,1.257541 -3.0598,2.923778 -4.81573,3.392556 -1.26479,0.198845 -2.3074,0.271087 -3.18017,0.272336 z"
         style="fill:url(#pattern1892);fill-opacity:1;stroke-width:15.80276871"
         sodipodi:nodetypes="cccccccccccccccccc" />
    </clipPath>
  </defs>
  <path
     sodipodi:nodetypes="cccccccccccccccccc"
     style="fill:url(#pattern1900);fill-opacity:1;stroke:#000000;stroke-width:2.11666656;stroke-miterlimit:4;stroke-dasharray:none;stroke-opacity:1"
     d="M 177.8,102.10746 254,2.56e-6 H 3.2e-6 L 76.200002,101.6 Z M 127.22479,52.293453 c -1.92008,0.0028 -3.01657,-0.33855 -3.83749,-0.435115 -3.9333,-0.63215 -4.59495,-2.471552 -6.83007,-4.832263 -2.23511,-2.359919 -3.01284,-3.721224 -3.19205,-7.493082 -0.18001,-3.771071 0.0587,-6.275286 2.47065,-8.791196 3.46467,-2.937349 4.87908,-4.95458 8.29096,-5.13457 3.41267,-0.179189 7.6833,-0.436748 10.02161,0.84801 2.33832,1.284751 3.17352,3.0215 4.08709,4.920631 0.91356,1.89832 2.39664,4.098626 2.44223,6.299356 0.0447,2.200712 -0.25383,4.601544 -1.20819,6.724655 -0.95439,2.122329 -2.6593,2.971131 -4.24884,4.228682 -1.58875,1.257541 -3.0598,2.923778 -4.81573,3.392557 -1.26479,0.198845 -2.3074,0.271086 -3.18017,0.272335 z"
     id="path1884"
     inkscape:connector-curvature="0"
     clip-path="url(#clipPath1888)" />
  <path
     id="path1790"
     transform="scale(0.26458333)"
     d="M 0,0 V 768 L 288,384 Z"
     style="fill:url(#pattern1906);fill-opacity:1;stroke:#000000;stroke-width:8;stroke-miterlimit:4;stroke-dasharray:none;stroke-opacity:1"
     clip-path="url(#clipPath1794)"
     inkscape:connector-curvature="0" />
  <path
     id="path1770"
     transform="scale(0.26458333)"
     d="M 960,0 672,384 960,768 Z"
     style="fill:url(#pattern1904);fill-opacity:1;stroke:#000000;stroke-width:8;stroke-miterlimit:4;stroke-dasharray:none;stroke-opacity:1"
     clip-path="url(#clipPath1774)"
     inkscape:connector-curvature="0" />
  <path
     d="M 3.8000003e-6,3.2e-6 76.200004,101.59999 3.8000003e-6,203.2 Z M 177.8,101.59999 254,3.2e-6 V 203.2 Z"
     id="path103"
     inkscape:connector-curvature="0"
     style="fill-opacity:0.13699999;stroke-width:0.75"
     sodipodi:nodetypes="cccccccc" />
  <rect
     style="fill:url(#pattern1902);stroke:none"
     width="84.666718"
     height="84.666695"
     x="253.99998"
     y="-93.133354"
     id="rect1706" />
  <path
     sodipodi:nodetypes="ccccc"
     d="M 313.26666,160.86667 V 364.06666 H 567.26665 V 160.86667 Z"
     id="path1743"
     inkscape:connector-curvature="0"
     style="fill:url(#pattern1745);fill-opacity:1;stroke-width:15.80276871" />
  <path
     d="m 123.38741,51.858338 c -3.9333,-0.63215 -4.59526,-2.47147 -6.83038,-4.83218 -2.23511,-2.35992 -3.01267,-3.72106 -3.19188,-7.49292 -0.18,-3.77107 0.0586,-6.27576 2.47057,-8.79167 3.46468,-2.93735 4.87904,-4.95415 8.29092,-5.13414 3.41267,-0.17919 7.68352,-0.43693 10.02183,0.84783 2.33832,1.28475 3.17329,3.0217 4.08686,4.92083 0.91356,1.89832 2.3966,4.09852 2.44219,6.29925 0.0447,2.20071 -0.25359,4.60143 -1.20795,6.72454 -0.95438,2.12233 -2.65924,2.97136 -4.24878,4.22891 -1.58875,1.25754 -3.05976,2.92363 -4.81569,3.39241 -4.04734,0.6363 -5.82363,-0.0224 -7.01769,-0.16286 z"
     id="path1862"
     style="fill:#000000;fill-opacity:0.15686275;stroke:none;stroke-width:2.46835971;stroke-miterlimit:4;stroke-dasharray:none;stroke-opacity:1"
     inkscape:connector-curvature="0"
     sodipodi:nodetypes="cccccscccccc" />
  <path
     clip-path="url(#clipPath1888)"
     inkscape:connector-curvature="0"
     id="path1894"
     d="M 177.8,102.10746 254,2.56e-6 H 3.2e-6 L 76.200002,101.6 Z M 127.22479,52.293453 c -1.92008,0.0028 -3.01657,-0.33855 -3.83749,-0.435115 -3.9333,-0.63215 -4.59495,-2.471552 -6.83007,-4.832263 -2.23511,-2.359919 -3.01284,-3.721224 -3.19205,-7.493082 -0.18001,-3.771071 0.0587,-6.275286 2.47065,-8.791196 3.46467,-2.937349 4.87908,-4.95458 8.29096,-5.13457 3.41267,-0.179189 7.6833,-0.436748 10.02161,0.84801 2.33832,1.284751 3.17352,3.0215 4.08709,4.920631 0.91356,1.89832 2.39664,4.098626 2.44223,6.299356 0.0447,2.200712 -0.25383,4.601544 -1.20819,6.724655 -0.95439,2.122329 -2.6593,2.971131 -4.24884,4.228682 -1.58875,1.257541 -3.0598,2.923778 -4.81573,3.392557 -1.26479,0.198845 -2.3074,0.271086 -3.18017,0.272335 z"
     style="fill:url(#pattern1898);fill-opacity:1;stroke:#000000;stroke-width:2.11666656;stroke-miterlimit:4;stroke-dasharray:none;stroke-opacity:1"
     sodipodi:nodetypes="cccccccccccccccccc"
     transform="rotate(-180,127,101.6)" />
  <path
     d="M 76.200009,101.6 H 177.8 l 76.19999,101.6 H 1.4e-5 Z"
     id="path105"
     inkscape:connector-curvature="0"
     style="fill-opacity:0.3137255;stroke-width:0.75;fill:#000000"
     sodipodi:nodetypes="ccccc" />
</svg>
