<svg xmlns="http://www.w3.org/2000/svg" width="108" height="94" viewBox="0 0 28.575 24.871"><defs><clipPath id="b"><path d="M-4.233 276.362h28.575V297H-3.175l-1.058-.53z" fill="#171750" stroke-width="1.26"/></clipPath><clipPath id="a"><path d="M19.05 295.412V297s-4.273 3.175-11.642 3.175C-.179 300.175-4.233 297-4.233 297v-1.588z" fill="#0031e3" stroke-width="3.432"/></clipPath></defs><g transform="translate(4.233 -276.362)"><rect width="5.292" height="2.117" x="4.762" y="298.058" rx=".5" ry=".5" fill="none" stroke="#191919" stroke-width="2"/><path d="M19.05 295.412V297s-4.273 3.175-11.642 3.175C-.179 300.175-4.233 297-4.233 297v-1.588z" clip-path="url(#a)" fill="#0031e3" stroke="#191919" stroke-width="3.175"/><path fill="#c6c6c6" stroke="#191919" stroke-width="1.058" d="M19.466 295.919h4.349v2.114h-4.349z"/><path d="M-4.233 276.362h28.575V297H-3.175l-1.058-.53z" clip-path="url(#b)" fill="#002aad" stroke="#191919" stroke-width="3.175"/><path d="M7.004 282.797v8.074h6.102v-8.074zm.565-1.655c0 .517-.565.62-.565 1.241h6.102c0-.62-.565-.724-.565-1.24zm4.971 11.378c0-.518.566-.621.566-1.242H7.004c0 .62.565.724.565 1.241zm-10.678-7.735v4.538h3.43v-4.538zm.318-.93c0 .291-.318.35-.318.698h3.43c0-.349-.317-.407-.317-.698zm2.795 6.395c0-.29.317-.349.317-.698h-3.43c0 .35.318.407.318.698zm9.841-5.465v4.538h3.43v-4.538zm.318-.93c0 .291-.318.35-.318.698h3.43c0-.349-.318-.407-.318-.698zm2.794 6.395c0-.29.318-.349.318-.698h-3.43c0 .35.318.407.318.698z" fill="#b4b4eb"/></g></svg>