<?xml version="1.0" encoding="UTF-8" standalone="no"?>
<svg
   xmlns:dc="http://purl.org/dc/elements/1.1/"
   xmlns:cc="http://creativecommons.org/ns#"
   xmlns:rdf="http://www.w3.org/1999/02/22-rdf-syntax-ns#"
   xmlns:svg="http://www.w3.org/2000/svg"
   xmlns="http://www.w3.org/2000/svg"
   xmlns:sodipodi="http://sodipodi.sourceforge.net/DTD/sodipodi-0.dtd"
   xmlns:inkscape="http://www.inkscape.org/namespaces/inkscape"
   width="1296.001"
   height="2048"
   viewBox="0 0 342.9 541.867"
   version="1.1"
   id="svg10"
   sodipodi:docname="map-complex-warehouse-floor-05.svg"
   inkscape:version="0.92.2 (5c3e80d, 2017-08-06)">
  <metadata
     id="metadata16">
    <rdf:RDF>
      <cc:Work
         rdf:about="">
        <dc:format>image/svg+xml</dc:format>
        <dc:type
           rdf:resource="http://purl.org/dc/dcmitype/StillImage" />
        <dc:title></dc:title>
      </cc:Work>
    </rdf:RDF>
  </metadata>
  <defs
     id="defs14" />
  <sodipodi:namedview
     pagecolor="#ffffff"
     bordercolor="#666666"
     borderopacity="1"
     objecttolerance="10"
     gridtolerance="10"
     guidetolerance="10"
     inkscape:pageopacity="0"
     inkscape:pageshadow="2"
     inkscape:window-width="1920"
     inkscape:window-height="1017"
     id="namedview12"
     showgrid="true"
     inkscape:zoom="0.65186406"
     inkscape:cx="177.23088"
     inkscape:cy="694.59637"
     inkscape:window-x="1912"
     inkscape:window-y="-8"
     inkscape:window-maximized="1"
     inkscape:current-layer="svg10">
    <inkscape:grid
       type="xygrid"
       id="grid823"
       empspacing="4" />
  </sodipodi:namedview>
  <path
     inkscape:connector-curvature="0"
     style="fill:#252525;fill-opacity:0.631;stroke-width:1"
     d="m 122.872,390.84201 c -5.839,0.81 -6.135,-3.06401 -4.81199,-5.45301 2.84699,-4.014 13.076,-12.751 15.29,-4.38799 1.05599,4.99798 7.054,5.372 3.494,8.826 -2.80701,2.38999 -7.25601,-0.041 -13.97201,1.015 z M 28.975999,345.843 c 1.455001,1.72 1.128002,3.766 -0.112998,5.061 -1.400001,1.33602 -4.057001,2.41801 -7.202001,-1.88298 -1.346,-2.62901 -0.795,-3.26002 1.572,-4.69202 1.757,-0.89699 3.878001,0.023 5.742999,1.514 z m 23.272,36.26701 c 3.716001,1.54999 1.837001,5.91501 -0.082,7.53399 -2.811998,2.37202 -13.941999,7.71002 -10.895998,-1.74 1.971999,-5.538 -1.224,-8.36399 2.560999,-10.446 2.813999,-1.3 4.078999,2.99702 8.417999,4.65201 z M 53.795,290.57402 c 1.369,1.61697 1.059999,3.53999 -0.107,4.75798 -1.315001,1.256 -3.813,2.27301 -6.770001,-1.77099 -1.265,-2.46999 -0.746999,-3.066 1.478,-4.41 1.651002,-0.84299 3.646001,0.0209 5.398001,1.422 z m 42.663997,17.12199 c 3.418,0.22601 5.182003,3.29499 5.141003,6.643 -0.176,3.614 -2.023003,8.61299 -10.015003,7.375 -4.242,-1.53799 -4.284,-3.09901 -3.125,-8.147 1.031,-3.53999 4.362,-5.246 8,-5.86999 z"
     id="path8-6"
     sodipodi:nodetypes="cccccccccccccccccccccccccccc" />
  <path
     d="M 4.234,423.338 V 508 h 33.87 v -84.663 z m 0.004,4.23 h 29.631 v 76.2 H 4.238 Z"
     id="path4"
     inkscape:connector-curvature="0"
     style="fill:#504b40;fill-opacity:0.71799999"
     sodipodi:nodetypes="cccccccccc" />
  <path
     d="m 4.2331013,266.70016 0,245.53349 -2.116668,-1.05833 -2.11666795991,2.11666 0,-245.53349 2.11666795991,1.05834 z"
     id="path6"
     inkscape:connector-curvature="0"
     style="fill:#504b40;fill-opacity:0.71799999"
     sodipodi:nodetypes="ccccccc" />
</svg>
