<?xml version="1.0" encoding="UTF-8" standalone="no"?>
<svg
   xmlns:dc="http://purl.org/dc/elements/1.1/"
   xmlns:cc="http://creativecommons.org/ns#"
   xmlns:rdf="http://www.w3.org/1999/02/22-rdf-syntax-ns#"
   xmlns:svg="http://www.w3.org/2000/svg"
   xmlns="http://www.w3.org/2000/svg"
   xmlns:sodipodi="http://sodipodi.sourceforge.net/DTD/sodipodi-0.dtd"
   xmlns:inkscape="http://www.inkscape.org/namespaces/inkscape"
   width="256"
   height="148"
   version="1.1"
   id="svg50"
   sodipodi:docname="map-sandbags-01.svg"
   inkscape:version="0.92.2 (5c3e80d, 2017-08-06)">
  <metadata
     id="metadata54">
    <rdf:RDF>
      <cc:Work
         rdf:about="">
        <dc:format>image/svg+xml</dc:format>
        <dc:type
           rdf:resource="http://purl.org/dc/dcmitype/StillImage" />
      </cc:Work>
    </rdf:RDF>
  </metadata>
  <sodipodi:namedview
     pagecolor="#ffffff"
     bordercolor="#666666"
     borderopacity="1"
     objecttolerance="10"
     gridtolerance="10"
     guidetolerance="10"
     inkscape:pageopacity="0"
     inkscape:pageshadow="2"
     inkscape:window-width="1920"
     inkscape:window-height="1017"
     id="namedview52"
     showgrid="false"
     inkscape:zoom="2.21875"
     inkscape:cx="145.71932"
     inkscape:cy="67.492153"
     inkscape:window-x="1912"
     inkscape:window-y="-8"
     inkscape:window-maximized="1"
     inkscape:current-layer="svg50" />
  <defs
     id="defs26">
    <clipPath
       id="c">
      <path
         d="M24.445 2.335c18.667 3.11 68.443 3.11 87.11 0 6.8-1.133 15.555 0 12.443 6.222 0 0-6.222 9.333-6.222 21.777s6.222 21.777 6.222 21.777c3.112 6.222-5.643 7.355-12.443 6.222-18.667-3.11-68.443-3.11-87.11 0-6.8 1.133-15.555 0-12.444-6.222 0 0 6.222-12.444 6.222-21.777 0-12.444-6.222-21.777-6.222-21.777-3.11-6.222 5.645-7.355 12.444-6.222z"
         fill="#d9b88d"
         stroke-width="14.045"
         id="path2" />
    </clipPath>
    <clipPath
       id="d">
      <path
         d="M24.445 2.335c18.667 3.11 68.443 3.11 87.11 0 6.8-1.133 15.555 0 12.443 6.222 0 0-6.222 9.333-6.222 21.777s6.222 21.777 6.222 21.777c3.112 6.222-5.643 7.355-12.443 6.222-18.667-3.11-68.443-3.11-87.11 0-6.8 1.133-15.555 0-12.444-6.222 0 0 6.222-12.444 6.222-21.777 0-12.444-6.222-21.777-6.222-21.777-3.11-6.222 5.645-7.355 12.444-6.222z"
         fill="#d9b88d"
         stroke-width="14.045"
         id="path5" />
    </clipPath>
    <clipPath
       id="e">
      <path
         d="M24.445 2.335c18.667 3.11 68.443 3.11 87.11 0 6.8-1.133 15.555 0 12.443 6.222 0 0-6.222 9.333-6.222 21.777s6.222 21.777 6.222 21.777c3.112 6.222-5.643 7.355-12.443 6.222-18.667-3.11-68.443-3.11-87.11 0-6.8 1.133-15.555 0-12.444-6.222 0 0 6.222-12.444 6.222-21.777 0-12.444-6.222-21.777-6.222-21.777-3.11-6.222 5.645-7.355 12.444-6.222z"
         fill="#d9b88d"
         stroke-width="14.045"
         id="path8" />
    </clipPath>
    <clipPath
       id="f">
      <path
         d="M24.445 2.335c18.667 3.11 68.443 3.11 87.11 0 6.8-1.133 15.555 0 12.443 6.222 0 0-6.222 9.333-6.222 21.777s6.222 21.777 6.222 21.777c3.112 6.222-5.643 7.355-12.443 6.222-18.667-3.11-68.443-3.11-87.11 0-6.8 1.133-15.555 0-12.444-6.222 0 0 6.222-12.444 6.222-21.777 0-12.444-6.222-21.777-6.222-21.777-3.11-6.222 5.645-7.355 12.444-6.222z"
         fill="#d9b88d"
         stroke-width="14.045"
         id="path11" />
    </clipPath>
    <clipPath
       id="g">
      <path
         d="M24.445 2.335c18.667 3.11 68.443 3.11 87.11 0 6.8-1.133 15.555 0 12.443 6.222 0 0-6.222 9.333-6.222 21.777s6.222 21.777 6.222 21.777c3.112 6.222-5.643 7.355-12.443 6.222-18.667-3.11-68.443-3.11-87.11 0-6.8 1.133-15.555 0-12.444-6.222 0 0 6.222-12.444 6.222-21.777 0-12.444-6.222-21.777-6.222-21.777-3.11-6.222 5.645-7.355 12.444-6.222z"
         fill="#d9b88d"
         stroke-width="14.045"
         id="path14" />
    </clipPath>
    <clipPath
       id="h">
      <path
         d="M24.445 2.335c18.667 3.11 68.443 3.11 87.11 0 6.8-1.133 15.555 0 12.443 6.222 0 0-6.222 9.333-6.222 21.777s6.222 21.777 6.222 21.777c3.112 6.222-5.643 7.355-12.443 6.222-18.667-3.11-68.443-3.11-87.11 0-6.8 1.133-15.555 0-12.444-6.222 0 0 6.222-12.444 6.222-21.777 0-12.444-6.222-21.777-6.222-21.777-3.11-6.222 5.645-7.355 12.444-6.222z"
         fill="#d9b88d"
         stroke-width="14.045"
         id="path17" />
    </clipPath>
    <clipPath
       id="b">
      <path
         d="M40 126.167c19.889 3.315 45.482 3.315 65.372 0 7.245-1.207 16.572 0 13.257 6.63 0 0-6.629 9.944-6.629 23.203 0 13.259 6.63 23.203 6.63 23.203 3.314 6.63-6.013 7.836-13.258 6.63-19.89-3.315-45.483-3.315-65.372 0-7.245 1.206-16.573 0-13.259-6.63 0 0 6.63-13.259 6.63-23.203 0-13.259-6.63-23.203-6.63-23.203-3.314-6.63 6.014-7.837 13.259-6.63z"
         fill="#d9b88d"
         stroke-width="14.965"
         id="path20" />
    </clipPath>
    <clipPath
       id="a">
      <path
         d="M40 126.167c19.889 3.315 45.482 3.315 65.372 0 7.245-1.207 16.572 0 13.257 6.63 0 0-6.629 9.944-6.629 23.203 0 13.259 6.63 23.203 6.63 23.203 3.314 6.63-6.013 7.836-13.258 6.63-19.89-3.315-45.483-3.315-65.372 0-7.245 1.206-16.573 0-13.259-6.63 0 0 6.63-13.259 6.63-23.203 0-13.259-6.63-23.203-6.63-23.203-3.314-6.63 6.014-7.837 13.259-6.63z"
         fill="#d9b88d"
         stroke-width="14.965"
         id="path23" />
    </clipPath>
  </defs>
  <g
     style="fill:#8e6530;stroke:#191919;stroke-width:12;stroke-opacity:0.57599996"
     id="g38">
    <path
       style="stroke-width:9.97999954"
       inkscape:connector-curvature="0"
       id="path28"
       clip-path="url(#a)"
       d="m 40,126.167 c 19.889,3.315 45.482,3.315 65.372,0 7.245,-1.207 16.572,0 13.257,6.63 0,0 -6.629,9.944 -6.629,23.203 0,13.259 6.63,23.203 6.63,23.203 3.314,6.63 -6.013,7.836 -13.258,6.63 -19.89,-3.315 -45.483,-3.315 -65.372,0 -7.245,1.206 -16.573,0 -13.259,-6.63 0,0 6.63,-13.259 6.63,-23.203 0,-13.259 -6.63,-23.203 -6.63,-23.203 -3.314,-6.63 6.014,-7.837 13.259,-6.63 z"
       transform="matrix(1.20246,0,0,1.20246,-31.23,-149.966)" />
    <path
       style="stroke-width:9.97999954"
       inkscape:connector-curvature="0"
       id="path30"
       transform="matrix(1.20246,0,0,1.20246,-31.23,-77.819)"
       clip-path="url(#b)"
       d="m 40,126.167 c 19.889,3.315 45.482,3.315 65.372,0 7.245,-1.207 16.572,0 13.257,6.63 0,0 -6.629,9.944 -6.629,23.203 0,13.259 6.63,23.203 6.63,23.203 3.314,6.63 -6.013,7.836 -13.258,6.63 -19.89,-3.315 -45.483,-3.315 -65.372,0 -7.245,1.206 -16.573,0 -13.259,-6.63 0,0 6.63,-13.259 6.63,-23.203 0,-13.259 -6.63,-23.203 -6.63,-23.203 -3.314,-6.63 6.014,-7.837 13.259,-6.63 z" />
    <g
       style="stroke-width:9.36600018"
       id="g36">
      <path
         inkscape:connector-curvature="0"
         id="path32"
         transform="matrix(0,1.28119,-1.28119,0,186.287,-12.941)"
         d="m 24.445,2.335 c 18.667,3.11 68.443,3.11 87.11,0 6.8,-1.133 15.555,0 12.443,6.222 0,0 -6.222,9.333 -6.222,21.777 0,12.444 6.222,21.777 6.222,21.777 3.112,6.222 -5.643,7.355 -12.443,6.222 -18.667,-3.11 -68.443,-3.11 -87.11,0 -6.8,1.133 -15.555,0 -12.444,-6.222 0,0 6.222,-12.444 6.222,-21.777 C 18.223,17.89 12.001,8.557 12.001,8.557 8.891,2.335 17.646,1.202 24.445,2.335 Z"
         clip-path="url(#c)" />
      <path
         inkscape:connector-curvature="0"
         id="path34"
         transform="matrix(0,1.28119,-1.28119,0,258.397,-12.941)"
         d="m 24.445,2.335 c 18.667,3.11 68.443,3.11 87.11,0 6.8,-1.133 15.555,0 12.443,6.222 0,0 -6.222,9.333 -6.222,21.777 0,12.444 6.222,21.777 6.222,21.777 3.112,6.222 -5.643,7.355 -12.443,6.222 -18.667,-3.11 -68.443,-3.11 -87.11,0 -6.8,1.133 -15.555,0 -12.444,-6.222 0,0 6.222,-12.444 6.222,-21.777 C 18.223,17.89 12.001,8.557 12.001,8.557 8.891,2.335 17.646,1.202 24.445,2.335 Z"
         clip-path="url(#d)" />
    </g>
  </g>
  <path
     style="fill:#ca9c63;stroke:#191919;stroke-width:13.10200024"
     inkscape:connector-curvature="0"
     id="path40"
     transform="matrix(0,0.9159,-0.9159,0,80.84,11.41)"
     d="m 24.445,2.335 c 18.667,3.11 68.443,3.11 87.11,0 6.8,-1.133 15.555,0 12.443,6.222 0,0 -6.222,9.333 -6.222,21.777 0,12.444 6.222,21.777 6.222,21.777 3.112,6.222 -5.643,7.355 -12.443,6.222 -18.667,-3.11 -68.443,-3.11 -87.11,0 -6.8,1.133 -15.555,0 -12.444,-6.222 0,0 6.222,-12.444 6.222,-21.777 C 18.223,17.89 12.001,8.557 12.001,8.557 8.891,2.335 17.646,1.202 24.445,2.335 Z"
     clip-path="url(#e)" />
  <path
     style="fill:#dbbb93;stroke:#191919;stroke-width:13.10200024"
     inkscape:connector-curvature="0"
     id="path42"
     transform="matrix(0,0.91589,-0.91589,0,132.443,11.411)"
     d="m 24.445,2.335 c 18.667,3.11 68.443,3.11 87.11,0 6.8,-1.133 15.555,0 12.443,6.222 0,0 -6.222,9.333 -6.222,21.777 0,12.444 6.222,21.777 6.222,21.777 3.112,6.222 -5.643,7.355 -12.443,6.222 -18.667,-3.11 -68.443,-3.11 -87.11,0 -6.8,1.133 -15.555,0 -12.444,-6.222 0,0 6.222,-12.444 6.222,-21.777 C 18.223,17.89 12.001,8.557 12.001,8.557 8.891,2.335 17.646,1.202 24.445,2.335 Z"
     clip-path="url(#f)" />
  <path
     style="fill:#ca9c63;stroke:#191919;stroke-width:13.10200024"
     inkscape:connector-curvature="0"
     id="path44"
     transform="matrix(0.91589,0,0,0.91589,119.20813,20.758856)"
     d="m 24.445,2.335 c 18.667,3.11 68.443,3.11 87.11,0 6.8,-1.133 15.555,0 12.443,6.222 0,0 -6.222,9.333 -6.222,21.777 0,12.444 6.222,21.777 6.222,21.777 3.112,6.222 -5.643,7.355 -12.443,6.222 -18.667,-3.11 -68.443,-3.11 -87.11,0 -6.8,1.133 -15.555,0 -12.444,-6.222 0,0 6.222,-12.444 6.222,-21.777 C 18.223,17.89 12.001,8.557 12.001,8.557 8.891,2.335 17.646,1.202 24.445,2.335 Z"
     clip-path="url(#g)" />
  <path
     style="fill:#dbbb93;stroke:#191919;stroke-width:13.10200024"
     inkscape:connector-curvature="0"
     id="path46"
     transform="matrix(0.91589,0,0,0.91589,119.20813,69.940856)"
     d="m 24.445,2.335 c 18.667,3.11 68.443,3.11 87.11,0 6.8,-1.133 15.555,0 12.443,6.222 0,0 -6.222,9.333 -6.222,21.777 0,12.444 6.222,21.777 6.222,21.777 3.112,6.222 -5.643,7.355 -12.443,6.222 -18.667,-3.11 -68.443,-3.11 -87.11,0 -6.8,1.133 -15.555,0 -12.444,-6.222 0,0 6.222,-12.444 6.222,-21.777 C 18.223,17.89 12.001,8.557 12.001,8.557 8.891,2.335 17.646,1.202 24.445,2.335 Z"
     clip-path="url(#h)" />
</svg>
