<?xml version="1.0" encoding="UTF-8" standalone="no"?>
<svg
   xmlns:dc="http://purl.org/dc/elements/1.1/"
   xmlns:cc="http://creativecommons.org/ns#"
   xmlns:rdf="http://www.w3.org/1999/02/22-rdf-syntax-ns#"
   xmlns:svg="http://www.w3.org/2000/svg"
   xmlns="http://www.w3.org/2000/svg"
   xmlns:sodipodi="http://sodipodi.sourceforge.net/DTD/sodipodi-0.dtd"
   xmlns:inkscape="http://www.inkscape.org/namespaces/inkscape"
   width="256"
   height="256"
   version="1.1"
   id="svg4"
   sodipodi:docname="map-plane-01.svg"
   inkscape:version="0.92.2 (5c3e80d, 2017-08-06)">
  <metadata
     id="metadata10">
    <rdf:RDF>
      <cc:Work
         rdf:about="">
        <dc:format>image/svg+xml</dc:format>
        <dc:type
           rdf:resource="http://purl.org/dc/dcmitype/StillImage" />
        <dc:title />
      </cc:Work>
    </rdf:RDF>
  </metadata>
  <defs
     id="defs8">
    <filter
       inkscape:collect="always"
       style="color-interpolation-filters:sRGB"
       id="filter833"
       x="-0.035999976"
       width="1.072"
       y="-0.036000024"
       height="1.072">
      <feGaussianBlur
         inkscape:collect="always"
         stdDeviation="9.1800062"
         id="feGaussianBlur835" />
    </filter>
  </defs>
  <sodipodi:namedview
     pagecolor="#ffffff"
     bordercolor="#666666"
     borderopacity="1"
     objecttolerance="10"
     gridtolerance="10"
     guidetolerance="10"
     inkscape:pageopacity="0"
     inkscape:pageshadow="2"
     inkscape:window-width="1920"
     inkscape:window-height="1017"
     id="namedview6"
     showgrid="false"
     inkscape:zoom="1.6619718"
     inkscape:cx="-28.497922"
     inkscape:cy="152.24422"
     inkscape:window-x="1912"
     inkscape:window-y="-8"
     inkscape:window-maximized="1"
     inkscape:current-layer="svg4" />
  <g
     transform="matrix(-0.18527074,-0.18527074,-0.18527074,0.18527074,241.38618,127.99975)"
     id="g4"
     style="filter:url(#filter833)">
    <path
       inkscape:connector-curvature="0"
       d="m 571.771,123.555 c 25.121,-33.626 40.157,-68.538 40.23,-93.48 -0.031,-8.077 -1.651,-14.389 -4.733,-19.091 -0.324,-0.575 -1.212,-2.08 -2.779,-3.563 -1.558,-1.546 -2.958,-2.372 -3.261,-2.539 -4.932,-3.292 -11.274,-4.88 -19.353,-4.88 -24.88,0.042 -59.802,15.068 -93.438,40.23 -27.188,20.345 -54.378,48.997 -92.017,88.673 -6.385,6.729 -13.104,13.804 -20.21,21.223 l -72.905,-21.85 0.219,-0.209 c 3.03,-3.062 4.755,-7.273 4.713,-11.411 0.042,-4.368 -1.724,-8.579 -4.765,-11.609 L 290.306,91.862 c -3.041,-3.062 -7.242,-4.817 -11.588,-4.817 -4.389,0 -8.485,1.693 -11.547,4.786 l -19.697,19.708 -10.429,-3.114 c 2.247,-2.853 3.49,-6.416 3.448,-9.927 0.042,-4.431 -1.672,-8.558 -4.754,-11.62 L 222.51,73.649 c -3.02,-3.03 -7.2,-4.765 -11.588,-4.765 -4.368,0 -8.454,1.704 -11.484,4.786 L 181.361,91.737 107.233,69.532 c -1.661,-0.491 -3.417,-0.752 -5.298,-0.752 -5.266,0.063 -10.146,2.017 -13.709,5.549 L 62.165,100.4 c -2.958,2.957 -4.619,6.959 -4.587,10.752 -0.094,5.59 2.999,10.752 7.952,13.406 l 155.884,87.085 c 0.763,0.428 2.968,2.059 3.783,2.874 l 44.441,44.431 c -41.568,43.793 -78.601,86.208 -107.461,123.104 -2.696,3.428 -5.246,6.771 -7.754,10.084 L 33.827,381.185 c -0.585,-0.073 -1.244,-0.126 -2.08,-0.126 -5.528,0.115 -10.93,2.3 -14.942,6.176 L 4.652,399.377 c -2.999,2.937 -4.692,6.907 -4.65,10.742 -0.094,5.852 3.448,11.264 8.767,13.636 l 84.838,40.293 c 0.731,0.366 2.633,1.714 3.25,2.33 l 7.043,6.991 c -2.205,6.207 -3.323,11.588 -3.386,16.312 -0.021,6.321 2.017,11.734 5.915,15.632 l 0.303,0.262 0.083,0.062 c 4.002,3.877 9.185,5.852 15.601,5.852 4.619,-0.073 9.948,-1.17 16.176,-3.364 l 7.147,7.137 c 0.554,0.585 1.881,2.445 2.226,3.187 l 40.209,84.651 c 2.456,5.402 7.753,8.902 13.521,8.902 h 0.083 c 3.992,0 7.806,-1.599 10.721,-4.524 l 12.445,-12.487 c 3.688,-3.887 5.862,-9.247 5.945,-14.9 0,-0.689 -0.031,-1.223 -0.052,-1.516 L 219.855,457.54 c 3.302,-2.487 6.646,-5.047 10.083,-7.722 36.949,-28.903 79.374,-65.968 123.083,-107.473 l 44.473,44.515 c 0.721,0.689 2.403,2.895 2.895,3.814 l 86.918,155.602 c 2.654,5.026 7.764,8.13 13.428,8.13 4.044,0 7.889,-1.599 10.836,-4.566 l 26.248,-26.229 c 3.407,-3.562 5.319,-8.401 5.371,-13.688 0,-1.776 -0.25,-3.5 -0.71,-5.12 l -22.205,-74.149 18.066,-18.098 c 3.041,-3.021 4.766,-7.221 4.766,-11.536 0,-4.337 -1.683,-8.412 -4.744,-11.516 l -13.25,-13.239 c -3.03,-3.041 -7.221,-4.775 -11.536,-4.775 -3.657,0 -7.23,1.223 -10.021,3.428 l -3.104,-10.387 19.718,-19.718 c 3.03,-3.041 4.755,-7.242 4.755,-11.568 0,-4.357 -1.683,-8.442 -4.755,-11.504 l -13.188,-13.188 c -3.041,-3.083 -7.262,-4.828 -11.599,-4.828 -4.357,0 -8.579,1.766 -11.557,4.807 l -0.136,0.125 -21.84,-72.895 c 7.545,-7.189 14.702,-14.034 21.547,-20.481 39.535,-37.515 68.082,-64.6 88.374,-91.726 z"
       id="path2" />
  </g>
</svg>
