<?xml version="1.0" encoding="UTF-8" standalone="no"?>
<svg
   xmlns:dc="http://purl.org/dc/elements/1.1/"
   xmlns:cc="http://creativecommons.org/ns#"
   xmlns:rdf="http://www.w3.org/1999/02/22-rdf-syntax-ns#"
   xmlns:svg="http://www.w3.org/2000/svg"
   xmlns="http://www.w3.org/2000/svg"
   xmlns:xlink="http://www.w3.org/1999/xlink"
   xmlns:sodipodi="http://sodipodi.sourceforge.net/DTD/sodipodi-0.dtd"
   xmlns:inkscape="http://www.inkscape.org/namespaces/inkscape"
   width="96"
   height="96"
   viewBox="0 0 25.400143 25.3995"
   version="1.1"
   id="svg31"
   sodipodi:docname="map-couch-03.svg"
   inkscape:version="0.92.2 (5c3e80d, 2017-08-06)">
  <metadata
     id="metadata35">
    <rdf:RDF>
      <cc:Work
         rdf:about="">
        <dc:format>image/svg+xml</dc:format>
        <dc:type
           rdf:resource="http://purl.org/dc/dcmitype/StillImage" />
        <dc:title></dc:title>
      </cc:Work>
    </rdf:RDF>
  </metadata>
  <sodipodi:namedview
     pagecolor="#ffffff"
     bordercolor="#666666"
     borderopacity="1"
     objecttolerance="10"
     gridtolerance="10"
     guidetolerance="10"
     inkscape:pageopacity="0"
     inkscape:pageshadow="2"
     inkscape:window-width="1920"
     inkscape:window-height="1017"
     id="namedview33"
     showgrid="true"
     fit-margin-top="0"
     fit-margin-left="0"
     fit-margin-right="0"
     fit-margin-bottom="0"
     inkscape:zoom="2.5357142"
     inkscape:cx="2.8237383"
     inkscape:cy="86.612672"
     inkscape:window-x="1912"
     inkscape:window-y="-8"
     inkscape:window-maximized="1"
     inkscape:current-layer="svg31">
    <inkscape:grid
       type="xygrid"
       id="grid872"
       empspacing="4"
       spacingy="1.0583125"
       spacingx="1.0583393"
       originx="0"
       originy="0" />
  </sodipodi:namedview>
  <defs
     id="defs11">
    <pattern
       inkscape:collect="always"
       xlink:href="#pattern1614"
       id="pattern1620"
       patternTransform="matrix(0.05294279,0.05294279,-0.05294279,0.05294279,54.671457,229.14595)" />
    <pattern
       inkscape:collect="always"
       xlink:href="#pattern2112"
       id="pattern1614"
       patternTransform="matrix(-0.20009867,0.20009867,-0.20009867,-0.20009867,637.93686,-161.3678)" />
    <pattern
       inkscape:collect="always"
       xlink:href="#pattern1604"
       id="pattern1610"
       patternTransform="matrix(0.05294279,-0.05294279,0.05294279,0.05294279,15.945278,314.06004)" />
    <pattern
       inkscape:collect="always"
       xlink:href="#pattern2114"
       id="pattern1604"
       patternTransform="matrix(0.20009867,-0.20009867,0.20009867,0.20009867,-195.73441,-253.00176)" />
    <clipPath
       id="b">
      <path
         d="m 61.913,302.82 v 8.467 h -8.467 z"
         id="path2"
         inkscape:connector-curvature="0"
         style="fill:#5e2f00;stroke-width:5.98699999" />
    </clipPath>
    <clipPath
       id="c">
      <path
         d="m 15.875,303.35 c 0.53,0 1.058,0.53 1.058,1.058 v 6.35 c 0,0.53 -0.529,1.059 -1.058,1.059 h -5.292 v -8.467 z"
         id="path5"
         inkscape:connector-curvature="0"
         style="fill:#d1b193;stroke-width:1.63999999" />
    </clipPath>
    <clipPath
       id="a">
      <path
         d="m -4.233,284.3 h 59.266 v 16.933 H -4.233 Z"
         id="path8"
         inkscape:connector-curvature="0"
         style="fill:#663300;stroke-width:1.71599996" />
    </clipPath>
    <clipPath
       clipPathUnits="userSpaceOnUse"
       id="clipPath3056">
      <path
         style="fill:#743500;fill-opacity:1;stroke:none;stroke-width:1.49671435;stroke-linecap:round;stroke-linejoin:miter;stroke-miterlimit:4;stroke-dasharray:none;stroke-opacity:1"
         d="m -16.933385,160.86663 h -29.633439 v -16.93339 l 27.51676,-1e-5 c 1.058337,0 2.116674,1.05834 2.116674,2.11668 z"
         id="path3058"
         inkscape:connector-curvature="0"
         sodipodi:nodetypes="cccccc" />
    </clipPath>
    <clipPath
       clipPathUnits="userSpaceOnUse"
       id="clipPath3097">
      <path
         style="fill:#743500;fill-opacity:1;stroke:none;stroke-width:1.49671435;stroke-linecap:round;stroke-linejoin:miter;stroke-miterlimit:4;stroke-dasharray:none;stroke-opacity:1"
         d="m -16.933385,160.86663 h -29.633439 v -16.93339 l 27.51676,-1e-5 c 1.058337,0 2.116674,1.05834 2.116674,2.11668 z"
         id="path3095"
         inkscape:connector-curvature="0"
         sodipodi:nodetypes="cccccc" />
    </clipPath>
    <pattern
       patternUnits="userSpaceOnUse"
       width="63.999994"
       height="63.999994"
       patternTransform="matrix(0.26458421,0,0,0.26458421,-110.06703,143.93324)"
       id="pattern3032">
      <rect
         y="0"
         x="0"
         height="63.999992"
         width="63.999992"
         id="rect2240-1"
         style="fill:#4d2d13;fill-opacity:1;stroke:none;stroke-width:3.99999952;stroke-linecap:round;stroke-linejoin:miter;stroke-miterlimit:4;stroke-dasharray:none;stroke-opacity:1" />
      <circle
         r="9.0571909"
         cy="32.000042"
         cx="32.000042"
         id="path2238-8"
         style="fill:#743500;fill-opacity:1;stroke:#191919;stroke-width:3.99999952;stroke-linecap:round;stroke-linejoin:miter;stroke-miterlimit:4;stroke-dasharray:none;stroke-opacity:1" />
    </pattern>
    <pattern
       patternTransform="matrix(0.26458482,0,0,0.26458482,-59.266981,8.4663801)"
       id="pattern3120"
       xlink:href="#pattern3032-3"
       inkscape:collect="always" />
    <pattern
       patternUnits="userSpaceOnUse"
       width="63.999994"
       height="63.999994"
       patternTransform="matrix(0.26458421,0,0,0.26458421,-110.06703,143.93324)"
       id="pattern3032-3">
      <rect
         y="0"
         x="0"
         height="63.999992"
         width="63.999992"
         id="rect2240-1-3"
         style="fill:#4d2d13;fill-opacity:1;stroke:none;stroke-width:3.99999952;stroke-linecap:round;stroke-linejoin:miter;stroke-miterlimit:4;stroke-dasharray:none;stroke-opacity:1" />
      <circle
         r="9.0571909"
         cy="32.000042"
         cx="32.000042"
         id="path2238-8-2"
         style="fill:#743500;fill-opacity:1;stroke:#191919;stroke-width:3.99999952;stroke-linecap:round;stroke-linejoin:miter;stroke-miterlimit:4;stroke-dasharray:none;stroke-opacity:1" />
    </pattern>
    <clipPath
       clipPathUnits="userSpaceOnUse"
       id="clipPath1607">
      <path
         sodipodi:nodetypes="ccccccccc"
         inkscape:connector-curvature="0"
         id="path1609"
         d="m 71.967074,-2.2842696e-4 c 2.116679,0 4.23336,2.11667482696 4.23336,4.23335962696 l -5e-6,19.0500118 c 0,1.058339 -1.058339,2.116679 -2.116679,2.116679 H 2.1166786 C 1.0583393,25.399822 0,24.341482 0,23.283143 L 2.6601041e-7,4.2331312 C 2.6601041e-7,2.1164464 2.1166781,-2.2842696e-4 4.2333569,-2.2842696e-4 Z"
         clip-path="none"
         style="fill:#27282b;fill-opacity:1;stroke:none;stroke-width:3.57253647;stroke-linecap:round;stroke-linejoin:miter;stroke-miterlimit:4;stroke-dasharray:none;stroke-opacity:1" />
    </clipPath>
    <clipPath
       clipPathUnits="userSpaceOnUse"
       id="clipPath2173">
      <path
         style="fill:#743500;fill-opacity:1;stroke:none;stroke-width:1.49670982;stroke-linecap:round;stroke-linejoin:miter;stroke-miterlimit:4;stroke-dasharray:none;stroke-opacity:1"
         d="M 135.46674,381.00011 H 95.250034 c -1.058334,0 -2.116668,1.05834 -2.116668,2.11667 l 3e-6,14.81667 h 40.216671 c 1.05834,0 2.11667,-1.05833 2.11667,-2.11667 z"
         id="path2175"
         inkscape:connector-curvature="0"
         sodipodi:nodetypes="ccccccc" />
    </clipPath>
    <pattern
       inkscape:collect="always"
       xlink:href="#pattern3032-9"
       id="pattern2112"
       patternTransform="matrix(0.05294251,-0.05294251,0.05294251,0.05294251,33.866678,414.86679)" />
    <pattern
       patternUnits="userSpaceOnUse"
       width="63.999994"
       height="63.999994"
       patternTransform="matrix(0.26458421,0,0,0.26458421,-110.06703,143.93324)"
       id="pattern3032-9">
      <rect
         y="0"
         x="0"
         height="63.999992"
         width="63.999992"
         id="rect2240-1-0"
         style="fill:#4d2d13;fill-opacity:1;stroke:none;stroke-width:3.99999952;stroke-linecap:round;stroke-linejoin:miter;stroke-miterlimit:4;stroke-dasharray:none;stroke-opacity:1" />
      <circle
         r="9.0571909"
         cy="32.000042"
         cx="32.000042"
         id="path2238-8-9"
         style="fill:#743500;fill-opacity:1;stroke:#191919;stroke-width:3.99999952;stroke-linecap:round;stroke-linejoin:miter;stroke-miterlimit:4;stroke-dasharray:none;stroke-opacity:1" />
    </pattern>
    <clipPath
       clipPathUnits="userSpaceOnUse"
       id="clipPath2167">
      <path
         style="fill:#743500;fill-opacity:1;stroke:none;stroke-width:1.49670982;stroke-linecap:round;stroke-linejoin:miter;stroke-miterlimit:4;stroke-dasharray:none;stroke-opacity:1"
         d="m 93.133366,397.93345 v -14.81667 c 0,-1.05833 -1.058333,-2.11667 -2.116667,-2.11667 H 76.200028 l -1.1e-5,14.81665 c 0,1.05836 1.058337,2.11669 2.116673,2.11669 z"
         id="path2169"
         inkscape:connector-curvature="0"
         sodipodi:nodetypes="ccccccc" />
    </clipPath>
    <pattern
       inkscape:collect="always"
       xlink:href="#pattern3032-0"
       id="pattern2114"
       patternTransform="matrix(0.05294251,-0.05294251,0.05294251,0.05294251,33.866678,414.86679)" />
    <pattern
       patternUnits="userSpaceOnUse"
       width="63.999994"
       height="63.999994"
       patternTransform="matrix(0.26458421,0,0,0.26458421,-110.06703,143.93324)"
       id="pattern3032-0">
      <rect
         y="0"
         x="0"
         height="63.999992"
         width="63.999992"
         id="rect2240-1-2"
         style="fill:#4d2d13;fill-opacity:1;stroke:none;stroke-width:3.99999952;stroke-linecap:round;stroke-linejoin:miter;stroke-miterlimit:4;stroke-dasharray:none;stroke-opacity:1" />
      <circle
         r="9.0571909"
         cy="32.000042"
         cx="32.000042"
         id="path2238-8-4"
         style="fill:#743500;fill-opacity:1;stroke:#191919;stroke-width:3.99999952;stroke-linecap:round;stroke-linejoin:miter;stroke-miterlimit:4;stroke-dasharray:none;stroke-opacity:1" />
    </pattern>
    <clipPath
       clipPathUnits="userSpaceOnUse"
       id="clipPath1606">
      <path
         style="fill:url(#pattern1610);fill-opacity:1;stroke:none;stroke-width:3.17500091;stroke-linecap:round;stroke-linejoin:miter;stroke-miterlimit:4;stroke-dasharray:none;stroke-opacity:1"
         clip-path="none"
         d="m 71.966692,406.40012 c -2.11667,0 -4.23334,-2.11666 -4.23334,-4.23333 l 6e-6,-19.05001 c 0,-1.05834 1.058334,-2.11667 2.116667,-2.11667 l 21.166671,10e-5 c 1.05834,0 2.11667,1.05833 2.11667,2.11667 l 1e-6,21.16657 c 0,1.05833 -1.058334,2.11667 -2.116668,2.11667 z"
         id="path1608"
         inkscape:connector-curvature="0"
         sodipodi:nodetypes="ccccccccc" />
    </clipPath>
    <clipPath
       clipPathUnits="userSpaceOnUse"
       id="clipPath1616">
      <path
         sodipodi:nodetypes="ccccccccc"
         inkscape:connector-curvature="0"
         id="path1618"
         d="m 67.733356,334.43343 c 0,-2.11667 2.116664,-4.23334 4.233338,-4.23334 l 19.04991,1e-5 c 1.058334,0 2.116668,1.05833 2.116668,2.11666 v 46.56668 c 0,1.05834 -1.058334,2.11667 -2.116668,2.11667 l -21.166578,2e-5 c -1.058334,0 -2.116668,-1.05833 -2.116668,-2.11667 z"
         clip-path="none"
         style="fill:url(#pattern1620);fill-opacity:1;stroke:none;stroke-width:3.17500091;stroke-linecap:round;stroke-linejoin:miter;stroke-miterlimit:4;stroke-dasharray:none;stroke-opacity:1" />
    </clipPath>
  </defs>
  <rect
     style="fill:url(#pattern3120);stroke:none;stroke-width:1.00000226"
     width="16.933426"
     height="16.933426"
     x="-59.266987"
     y="8.4663839"
     id="rect3036" />
  <path
     sodipodi:nodetypes="ccccccccc"
     inkscape:connector-curvature="0"
     id="path2122"
     d="m 38.10025,-29.633835 c 2.116671,0 4.233352,2.116676 4.233352,4.233359 v 19.0500113 c 0,1.0583396 -1.058336,2.1166782 -2.116681,2.1166782 H -6.3500059 c -1.058336,0 -2.116671,-1.0583386 -2.116671,-2.1166782 V -25.400476 c 0,-2.116683 2.116671,-4.233359 4.233352,-4.233359 z"
     clip-path="none"
     style="fill:url(#pattern2124);fill-opacity:1;stroke:none;stroke-width:3.57253623;stroke-linecap:round;stroke-linejoin:miter;stroke-miterlimit:4;stroke-dasharray:none;stroke-opacity:1" />
  <g
     id="g1581"
     transform="translate(27.516817,33.866858)">
    <path
       transform="matrix(1.0000053,0,0,1.0000053,-95.250527,-414.86931)"
       style="fill:url(#pattern2114);fill-opacity:1;stroke:#191919;stroke-width:3.17500114;stroke-linecap:round;stroke-linejoin:miter;stroke-miterlimit:4;stroke-dasharray:none;stroke-opacity:1"
       clip-path="url(#clipPath1606)"
       d="m 71.966692,406.40012 c -2.11667,0 -4.23334,-2.11666 -4.23334,-4.23333 l 6e-6,-19.05001 c 0,-1.05834 1.058334,-2.11667 2.116667,-2.11667 l 21.166671,10e-5 c 1.05834,0 2.11667,1.05833 2.11667,2.11667 l 1e-6,21.16657 c 0,1.05833 -1.058334,2.11667 -2.116668,2.11667 z"
       id="path2141"
       inkscape:connector-curvature="0"
       sodipodi:nodetypes="ccccccccc" />
    <path
       style="fill:url(#pattern2149);fill-opacity:1;stroke:none;stroke-width:3.57253623;stroke-linecap:round;stroke-linejoin:miter;stroke-miterlimit:4;stroke-dasharray:none;stroke-opacity:1"
       clip-path="none"
       d="m -23.283454,-8.4670427 c -2.116681,0 -4.233363,-2.1166803 -4.233363,-4.2333523 l 5e-6,-16.93343 c 0,-2.116681 2.11668,-4.233362 4.233358,-4.233362 l 19.0501065,1.1e-4 c 1.058344,0 2.1166806,1.058316 2.1166806,2.116681 v 19.050001 c 0,2.116672 -2.1166806,4.2333523 -4.2333516,4.2333523 z"
       id="path2147"
       inkscape:connector-curvature="0"
       sodipodi:nodetypes="ccccccccc" />
    <path
       clip-path="url(#clipPath2167)"
       style="fill:#743500;fill-opacity:1;stroke:#191919;stroke-width:2.11666727;stroke-linecap:round;stroke-linejoin:miter;stroke-miterlimit:4;stroke-dasharray:none;stroke-opacity:1"
       d="m 93.133366,397.93345 v -14.81667 c 0,-1.05834 -1.058334,-2.11667 -2.116668,-2.11667 h -14.81667 l -1.1e-5,14.81665 c 0,1.05836 1.058337,2.11669 2.116673,2.11669 z"
       id="path2165"
       inkscape:connector-curvature="0"
       sodipodi:nodetypes="ccccccc"
       transform="matrix(1.0000053,0,0,1.0000053,-95.250527,-414.86931)" />
  </g>
</svg>
