<?xml version="1.0" encoding="UTF-8" standalone="no"?>
<svg
   xmlns:dc="http://purl.org/dc/elements/1.1/"
   xmlns:cc="http://creativecommons.org/ns#"
   xmlns:rdf="http://www.w3.org/1999/02/22-rdf-syntax-ns#"
   xmlns:svg="http://www.w3.org/2000/svg"
   xmlns="http://www.w3.org/2000/svg"
   xmlns:sodipodi="http://sodipodi.sourceforge.net/DTD/sodipodi-0.dtd"
   xmlns:inkscape="http://www.inkscape.org/namespaces/inkscape"
   width="192"
   height="192"
   viewBox="0 0 50.8 50.8"
   version="1.1"
   id="svg8"
   sodipodi:docname="map-brush-02sv.svg"
   inkscape:version="0.92.2 (5c3e80d, 2017-08-06)">
  <metadata
     id="metadata14">
    <rdf:RDF>
      <cc:Work
         rdf:about="">
        <dc:format>image/svg+xml</dc:format>
        <dc:type
           rdf:resource="http://purl.org/dc/dcmitype/StillImage" />
        <dc:title />
      </cc:Work>
    </rdf:RDF>
  </metadata>
  <defs
     id="defs12" />
  <sodipodi:namedview
     pagecolor="#ffffff"
     bordercolor="#666666"
     borderopacity="1"
     objecttolerance="10"
     gridtolerance="10"
     guidetolerance="10"
     inkscape:pageopacity="0"
     inkscape:pageshadow="2"
     inkscape:window-width="1920"
     inkscape:window-height="1017"
     id="namedview10"
     showgrid="true"
     inkscape:zoom="1.1588695"
     inkscape:cx="6.6083398"
     inkscape:cy="142.3454"
     inkscape:window-x="1912"
     inkscape:window-y="-8"
     inkscape:window-maximized="1"
     inkscape:current-layer="svg8">
    <inkscape:grid
       type="xygrid"
       id="grid821"
       empspacing="4"
       spacingy="1.0583333"
       spacingx="1.0583333" />
  </sodipodi:namedview>
  <path
     style="fill:#3d5326;fill-opacity:0.54901961;stroke:none;stroke-width:1.94703746;stroke-linecap:round;stroke-linejoin:miter;stroke-miterlimit:6;stroke-dasharray:none;stroke-opacity:1;paint-order:normal"
     inkscape:transform-center-x="-0.0085450502"
     inkscape:transform-center-y="-1.1931859"
     d="m 27.091252,2.116188 c 0.977398,-0.026121 0.995512,-0.9881121 1.947232,-0.7958252 0.95172,0.1922869 3.855279,2.3403357 4.763514,2.7095653 0.908235,0.3692296 3.765891,-2.3432604 4.616127,-1.8385821 0.850236,0.5046784 3.287282,0.7006301 4.045067,1.3350981 0.757785,0.634468 4.698008,0.1379918 5.299512,0.9106328 0.601503,0.77264 -1.42837,7.2538631 -0.964935,8.1292821 0.463436,0.875419 2.015888,2.712815 2.348651,3.648418 0.332764,0.935603 -2.053995,3.192095 -1.880721,4.146808 0.173274,0.954714 2.060687,3.003027 2.050553,3.979602 -0.01013,0.976575 -1.186377,3.403316 -1.393018,4.362825 -0.206641,0.959508 1.535321,3.387302 1.226162,4.309775 -0.309159,0.922473 -1.504692,5.283486 -1.949811,6.144067 -0.445118,0.860582 1.58913,5.508471 0.967798,6.285881 -0.621333,0.77741 -4.632019,-1.239692 -5.383311,-0.622911 -0.751292,0.616781 -2.114836,3.389071 -2.99282,3.862029 -0.877985,0.472957 -4.412514,-2.196872 -5.325964,-1.855002 -0.91345,0.34187 -4.465295,2.551205 -5.426009,2.674206 -0.960714,0.123002 -3.082976,-1.903169 -4.064693,-1.877537 -0.981716,0.02563 -2.865626,1.980291 -3.85207,1.854538 -0.986444,-0.125753 -2.99174,-1.183671 -3.91911,-1.52813 -0.92737,-0.344458 -4.059469,1.205258 -4.92882,0.731925 C 11.405234,48.209521 9.8163524,47.221815 9.0995864,46.566187 8.3828307,45.910559 4.0828631,48.609166 3.4627824,47.855322 2.8427017,47.101477 3.5546849,43.644683 3.096012,42.779447 2.6373391,41.914211 2.4381946,36.994247 2.1432552,36.063079 1.8483158,35.131911 3.9152251,32.532065 3.6972412,31.569998 3.4792574,30.607931 1.5148569,27.222191 1.4842576,26.237775 1.4536583,25.253359 2.7077634,23.175154 2.8863775,22.216394 3.0649916,21.257635 2.0513221,18.268464 2.3685914,17.32342 2.6858608,16.378377 3.0144484,14.89314 3.5147279,14.062698 4.0150073,13.232256 1.4271174,8.9950419 2.0411903,8.2165639 2.6552632,7.4380869 4.7394909,5.906792 5.5153679,5.295632 6.2912449,4.684471 8.2088147,2.2301449 9.0370984,1.7038879 c 0.828283,-0.5262571 6.1901056,1.5343507 7.1071726,1.1499667 0.917068,-0.3843841 3.990963,-1.4133383 4.977452,-1.5564912 0.98649,-0.143153 3.933798,2.9616127 4.911196,2.9354912 z"
     id="path895-8"
     inkscape:connector-curvature="0"
     sodipodi:nodetypes="csssssssscsscsscsccssccssssssssssssscc" />
  <path
     sodipodi:nodetypes="csssssssscsscsscsccssccssssssssssssscc"
     inkscape:connector-curvature="0"
     id="path981"
     d="m 41.947742,26.601968 c 0.01856,0.694634 0.702249,0.707507 0.565591,1.383892 -0.136658,0.676385 -1.66327,2.739936 -1.925681,3.385417 -0.26241,0.64548 1.665349,2.676408 1.306676,3.280668 -0.358674,0.604261 -0.497936,2.336263 -0.948851,2.874819 -0.450915,0.538555 -0.09807,3.338861 -0.647184,3.766348 -0.549113,0.427487 -5.155301,-1.015138 -5.777459,-0.685776 -0.622158,0.329362 -1.92799,1.432686 -2.592921,1.66918 -0.66493,0.236494 -2.268613,-1.459769 -2.947125,-1.336624 -0.678513,0.123146 -2.134243,1.464525 -2.828292,1.457323 -0.694049,-0.0072 -2.418728,-0.843155 -3.100648,-0.990014 -0.68192,-0.14686 -2.407346,1.091148 -3.062946,0.87143 -0.655599,-0.219719 -3.754959,-1.069381 -4.366571,-1.385726 -0.611614,-0.316344 -3.914856,1.129391 -4.467359,0.687812 -0.552503,-0.44158 0.881046,-3.291964 0.442701,-3.825905 -0.438344,-0.533941 -2.4086033,-1.503008 -2.7447333,-2.126989 -0.336129,-0.623981 1.5613113,-3.135962 1.3183453,-3.785148 -0.2429664,-0.649186 -1.8131353,-3.173473 -1.9005513,-3.85625 -0.08742,-0.682777 1.3525769,-2.191063 1.33436,-2.888766 -0.01821,-0.697703 -1.407387,-2.036593 -1.318015,-2.737656 0.08937,-0.701063 0.841232,-2.126221 1.086038,-2.785301 0.2448049,-0.659079 -0.856574,-2.885053 -0.520177,-3.502899 0.336396,-0.617846 1.0383559,-1.74706 1.5043093,-2.256464 0.465953,-0.509395 -1.4519403,-3.56537 -0.9161853,-4.0060597 0.5357549,-0.44069 2.9924903,0.06532 3.6074103,-0.260663 0.614921,-0.325977 4.111526,-0.467509 4.773305,-0.677121 0.661779,-0.209613 2.509482,1.2593337 3.19322,1.104413 0.683739,-0.15492 3.089975,-1.551014 3.789597,-1.572761 0.699622,-0.02175 2.176596,0.869542 2.857984,0.996483 0.681388,0.12694 2.805783,-0.593472 3.477424,-0.36799 0.671639,0.225483 1.727193,0.459009 2.317386,0.814556 0.590193,0.3555477 3.60157,-1.483659 4.154832,-1.047239 0.553261,0.43642 1.641548,1.9176747 2.075898,2.4690887 0.434351,0.551414 2.178633,1.914225 2.552643,2.502883 0.374009,0.588659 -1.090459,4.399292 -0.817278,5.051049 0.27318,0.651758 1.004455,2.836367 1.106194,3.537462 0.101738,0.701095 -2.10481,2.795739 -2.086246,3.490373 z"
     inkscape:transform-center-y="0.0060729458"
     inkscape:transform-center-x="-0.84799405"
     style="fill:#3d5326;fill-opacity:0.54901961;stroke:none;stroke-width:1.38375425;stroke-linecap:round;stroke-linejoin:miter;stroke-miterlimit:6;stroke-dasharray:none;stroke-opacity:1;paint-order:normal" />
  <path
     style="fill:#3d5326;fill-opacity:0.54901961;stroke:none;stroke-width:0.84103394;stroke-linecap:round;stroke-linejoin:miter;stroke-miterlimit:6;stroke-dasharray:none;stroke-opacity:1;paint-order:normal"
     inkscape:transform-center-x="0.0036908645"
     inkscape:transform-center-y="0.51540404"
     d="m 24.669454,35.457574 c -0.422192,0.01128 -0.430016,0.426821 -0.841117,0.343762 -0.411101,-0.08306 -1.66531,-1.010921 -2.057628,-1.170413 -0.392317,-0.15949 -1.626698,1.012185 -1.993962,0.794187 -0.367264,-0.217999 -1.41996,-0.302641 -1.74729,-0.576704 -0.327329,-0.274062 -2.029331,-0.05961 -2.289154,-0.393353 -0.259823,-0.333746 0.616992,-3.133347 0.416809,-3.51149 -0.200184,-0.378142 -0.870774,-1.171815 -1.014514,-1.575955 -0.143739,-0.404138 0.887236,-1.378843 0.812389,-1.791237 -0.07485,-0.412394 -0.890126,-1.297175 -0.885748,-1.719012 0.0044,-0.421837 0.512462,-1.470082 0.601722,-1.884547 0.08926,-0.414465 -0.663191,-1.463164 -0.529648,-1.861632 0.133543,-0.398468 0.649961,-2.282232 0.842232,-2.653964 0.192272,-0.371734 -0.686434,-2.379416 -0.418046,-2.715223 0.268389,-0.335806 2.000828,0.535492 2.325352,0.26907 0.324525,-0.266422 0.913516,-1.463928 1.292766,-1.668225 0.37925,-0.204296 1.906011,0.948951 2.300581,0.801279 0.394569,-0.147673 1.928809,-1.102008 2.343795,-1.155138 0.414986,-0.05313 1.331709,0.822084 1.755767,0.811012 0.424058,-0.01107 1.237824,-0.855398 1.663924,-0.801078 0.4261,0.05432 1.292299,0.511294 1.692882,0.660085 0.400583,0.148789 1.753511,-0.520619 2.129032,-0.31616 0.375521,0.204459 1.061848,0.631104 1.371459,0.914306 0.309606,0.283202 2.167001,-0.882476 2.434849,-0.556849 0.267848,0.325627 -0.0397,1.818809 0.158429,2.192552 0.198126,0.373744 0.284148,2.498951 0.411548,2.901174 0.127401,0.402224 -0.765412,1.525242 -0.671253,1.940812 0.09416,0.415571 0.942693,1.87806 0.955911,2.303284 0.01322,0.425225 -0.5285,1.322917 -0.605654,1.737059 -0.07715,0.414141 0.360707,1.70533 0.223661,2.113548 -0.137046,0.408216 -0.278982,1.049773 -0.49508,1.408487 -0.216099,0.358715 0.901755,2.189004 0.636503,2.525272 -0.265252,0.336267 -1.165546,0.997718 -1.500691,1.261713 -0.335145,0.263994 -1.16345,1.324154 -1.521231,1.551474 -0.357782,0.22732 -2.673851,-0.662772 -3.069984,-0.496735 -0.396133,0.166037 -1.723919,0.6105 -2.150039,0.672336 -0.426119,0.06184 -1.699226,-1.279286 -2.121418,-1.268003 z"
     id="path983"
     inkscape:connector-curvature="0"
     sodipodi:nodetypes="csssssssscsscsscsccssccssssssssssssscc" />
</svg>
