<svg xmlns="http://www.w3.org/2000/svg" xmlns:xlink="http://www.w3.org/1999/xlink" width="2400" height="1888" viewBox="0 0 635 499.534"><defs><pattern xlink:href="#a" id="b" patternTransform="matrix(.26458 0 0 .26458 -122.762 88.91)"/><pattern patternUnits="userSpaceOnUse" width="80" height="144" patternTransform="matrix(.26458 0 0 .26458 -135.467 88.9)" id="a"><path d="M0 0v16l80 80V80zM0 48v16l80 80v-16zM0 96v16l32 32h16zM48 0H32l48 48V32z" fill="#f5d000"/></pattern></defs><path d="M.004 63.51h88.9V.01L486.813 0v152.398l148.193.01v262.46H397.93v84.665H.004z" fill="#595959"/><path d="M4.238 67.744h12.7v427.567h-12.7z" fill="url(#b)"/><path d="M46.212 329.477c-4.696-.454-4.206-3.525-2.733-5.139 2.962-2.595 12.55-7.497 12.72-.575-.108 4.086 4.491 5.492 1.079 7.52-2.629 1.34-5.64-1.38-11.066-1.806zm-32.38 26.233c-1.13.978-2.57.645-3.528-.315-.994-1.076-1.868-3.054.982-5.138 1.768-.857 2.234-.427 3.337 1.355.704 1.316.161 2.814-.79 4.098zM195.89 466.549c-2.871-.516-4.072-3.28-3.72-6.108.492-3.04 2.53-7.095 9.175-5.288 3.443 1.703 3.33 3.028 1.87 7.19-1.21 2.896-4.19 4.023-7.325 4.206zm-9.226-60.689c-1.812-.4-2.752-1.526-2.738-2.565.085-1.11 1.052-2.488 5.29-1.33 2.252.888 2.278 1.379 1.674 2.84-.54 1.003-2.3 1.212-4.226 1.055zm53.546 20.46c-2.817-1.564-1.003-4.647.738-5.985 3.183-2.013 11.777-4.887 8.51 2.357-2.062 4.23.228 6.762-2.968 8.079-2.355.784-2.977-2.747-6.28-4.45zM431.915 37.265c1.003-1.108 2.472-.954 3.54-.118 1.118.947 2.228 2.803-.347 5.22-1.65 1.065-2.165.697-3.477-.938-.86-1.22-.504-2.773.284-4.164zM598.299 204.47c-.88 1.288-2.304 1.445-3.395.854-1.146-.69-2.355-2.265-.065-5.152 1.506-1.381 2.029-1.13 3.415.188.92 1.008.696 2.594.045 4.11zm5.416 36.153c.3 1.83-.397 3.122-1.367 3.494-1.062.333-2.701-.054-3.198-4.42-.01-2.42.435-2.625 2.017-2.606 1.13.128 1.979 1.685 2.548 3.532zm-67.653 4.079c.412 2.182-.898 3.779-2.632 4.287-1.891.467-4.757.106-5.355-5.108.138-2.908.936-3.184 3.72-3.262 1.986.083 3.382 1.9 4.267 4.083zm.383-61.76c-4.673.648-4.909-2.452-3.85-4.364 2.278-3.212 10.465-10.205 12.237-3.512.844 4 5.644 4.3 2.796 7.064-2.246 1.913-5.807-.033-11.183.812zM531.73 398.289c-.234-2.908 2.133-4.772 4.958-5.152 3.066-.3 7.506.638 7.452 7.523-.77 3.762-2.08 3.991-6.477 3.64-3.109-.432-4.958-3.026-5.934-6.011zM458.541 202.936c1.166 1.377.903 3.014-.09 4.051-1.12 1.069-3.247 1.935-5.764-1.508-1.077-2.103-.636-2.61 1.258-3.754 1.406-.718 3.104.018 4.596 1.21zm37.494-6.362c2.91.192 4.412 2.805 4.377 5.655-.15 3.077-1.722 7.333-8.527 6.279-3.611-1.309-3.647-2.638-2.66-6.936.878-3.014 3.714-4.466 6.81-4.998zm-39.427 61.76c1.845.195 2.905 1.21 3.007 2.243.04 1.112-.768 2.59-5.11 1.912-2.335-.632-2.416-1.116-1.979-2.635.424-1.057 2.15-1.462 4.082-1.52z" fill="#424242" fill-opacity=".631"/><g fill="#424242" fill-opacity=".631"><path d="M431.825 143.962c-1.019 1.489-2.667 1.67-3.93.986-1.328-.796-2.727-2.617-.075-5.956 1.743-1.596 2.349-1.305 3.955.217 1.065 1.166.805 2.998.05 4.753zm-.256 45.372c.586 2.858-1.535 4.998-4.293 5.72-3.006.671-7.527.283-8.315-6.557.305-3.828 1.577-4.216 5.984-4.403 3.138.048 5.29 2.397 6.624 5.24zm-59.027 27.475c.301 1.831-.396 3.122-1.366 3.494-1.062.333-2.701-.054-3.199-4.42-.01-2.42.436-2.625 2.017-2.606 1.132.128 1.98 1.685 2.548 3.532zM313.286 19.413c.413 2.182-.898 3.779-2.632 4.287-1.89.468-4.756.107-5.354-5.107.137-2.908.936-3.184 3.72-3.263 1.986.083 3.381 1.9 4.266 4.083zm19.276 143.727c-.774.839-1.981.972-2.889.623-.953-.41-1.936-1.381.068-3.27 1.305-.911 1.741-.764 2.881.039.754.618.527 1.63-.06 2.608zm55.261.565c-.407 3.196-3.943 2.655-5.832 1.535-3.05-2.208-8.908-9.122-.968-8.777 4.692.346 6.195-2.72 8.604-.24 1.602 1.895-1.447 3.783-1.804 7.482zm-81.498 13.722c-4.673.648-4.91-2.452-3.851-4.364 2.278-3.212 10.465-10.205 12.237-3.512.845 4 5.645 4.3 2.796 7.064-2.246 1.913-5.807-.033-11.182.812zM182.352 33.9c-.873 1.214-2.35 1.225-3.505.513-1.216-.816-2.526-2.537-.238-5.226 1.521-1.243 2.074-.934 3.56.544.992 1.116.811 2.7.183 4.17zM309.342 260.119c-.233-2.908 2.134-4.773 4.959-5.153 3.066-.299 7.506.638 7.452 7.523-.77 3.763-2.08 3.992-6.477 3.64-3.11-.43-4.958-3.025-5.934-6.01zm53.554-10.103c-.075-1.854.775-3.05 1.783-3.3 1.094-.202 2.674.383 2.634 4.776-.285 2.403-.753 2.553-2.32 2.341-1.107-.265-1.759-1.915-2.097-3.817zm-6.143 56.987c.794-3.122 4.238-2.153 5.976-.811 2.758 2.564 7.727 10.142-.111 8.83-4.615-.917-6.481 1.942-8.57-.813-1.358-2.077 1.899-3.578 2.705-7.206zM227.369 179.122c1.165 1.377.903 3.014-.09 4.051-1.12 1.069-3.247 1.935-5.764-1.507-1.077-2.104-.636-2.61 1.258-3.755 1.406-.718 3.104.018 4.596 1.211zm18.34 80.496c1.008 1.19.782 2.604-.077 3.5-.97.922-2.809 1.669-4.986-1.304-.932-1.818-.55-2.255 1.087-3.242 1.216-.62 2.686.015 3.976 1.046zm-25.495-37.024c2.974 1.24 1.515 4.506-.066 6.03-2.938 2.356-11.158 6.17-8.72-1.393 1.578-4.432-.98-6.694 2.05-8.36 2.252-1.04 3.264 2.399 6.737 3.723z"/></g><path d="M351.421 343.726c2.909.22 4.384 2.848 4.322 5.697-.18 3.075-1.795 7.316-8.589 6.195-3.598-1.344-3.621-2.674-2.591-6.962.908-3.005 3.757-4.429 6.858-4.93zm7.163 46.21c1.843.214 2.893 1.239 2.984 2.274.03 1.112-.793 2.582-5.127 1.861-2.33-.655-2.406-1.14-1.954-2.655.434-1.052 2.165-1.44 4.097-1.48zm-62.59 23.704c.595.974.392 2.171-.194 2.948-.655.804-1.86 1.483-3.124-.963-.52-1.505-.258-1.884.827-2.76.802-.554 1.712-.058 2.492.775zm6.536 29.149c-.66 4.67-3.706 4.047-5.254 2.504-2.464-3.072-6.94-12.864-.018-12.73 4.079.286 5.685-4.246 7.561-.749 1.223 2.685-1.626 5.574-2.289 10.975zm24.789 33.497c.927 1.172.532 2.596-.47 3.51-1.118.946-3.133 1.733-5.09-1.206-.778-1.803-.329-2.25 1.5-3.274 1.346-.646 2.819-.038 4.06.97z" fill="#424242" fill-opacity=".631"/><path fill="#f5d000" d="M16.938 67.744h3.175V495.3h-3.175z"/><path fill="#a3977d" fill-opacity=".718" d="M.004 351.378h4.233v76.2H.004z"/><path d="M112.188 21.178c1.254 1.297 1.1 2.948.176 4.048-1.047 1.14-3.111 2.144-5.85-1.125-1.213-2.028-.807-2.563 1.008-3.83 1.356-.808 3.099-.186 4.666.907zM105.33 62.39c2.917 0 4.587 2.508 4.74 5.354.054 3.08-1.235 7.43-8.094 6.827-3.69-1.068-3.814-2.392-3.112-6.746.678-3.065 3.412-4.7 6.466-5.435zm-18.832 43.421c1.854.074 2.979 1.016 3.148 2.041.113 1.107-.595 2.635-4.972 2.245-2.373-.477-2.485-.955-2.149-2.5.353-1.082 2.05-1.6 3.973-1.786zm14.075 63.485c2.22.034 3.52 1.639 3.67 3.439.078 1.946-.851 4.68-6.08 4.218-2.82-.719-2.93-1.557-2.448-4.3.48-1.928 2.541-2.93 4.858-3.357zm-46.804-65.22c3.049 1.04 1.808 4.396.331 6.02-2.776 2.545-10.727 6.893-8.793-.815 1.282-4.527-1.42-6.615 1.494-8.476 2.179-1.188 3.416 2.178 6.968 3.27zM23.288 84.677c-.305 4.707-3.39 4.316-5.05 2.895-2.689-2.878-7.894-12.303-.98-12.693 4.087-.023 5.346-4.664 7.481-1.319 1.424 2.585-1.199 5.681-1.451 11.117zM38.592 471.835c1.178-1.366 2.837-1.362 4.016-.542 1.23.94 2.417 2.905-.59 5.927-1.911 1.392-2.48 1.035-3.906-.657-.929-1.277-.466-3.069.48-4.728zm-25.623-27.502c-.264-2.905 2.083-4.795 4.904-5.205 3.062-.332 7.512.558 7.532 7.443-.73 3.771-2.038 4.014-6.438 3.709-3.114-.398-4.99-2.972-5.998-5.947zm75.218-29.257c-.094-1.853.743-3.058 1.748-3.32 1.092-.212 2.678.356 2.685 4.749-.26 2.406-.726 2.56-2.295 2.366-1.11-.254-1.779-1.896-2.138-3.795zm60.441-4.727c-.166-2.215 1.314-3.655 3.094-3.967 1.931-.254 4.738.425 4.751 5.673-.461 2.874-1.286 3.06-4.061 2.827-1.964-.304-3.148-2.265-3.784-4.533zM121.93 472.87c.862-.747 2.077-.745 2.94-.296.901.513 1.77 1.588-.433 3.24-1.398.761-1.815.566-2.858-.358-.68-.699-.342-1.679.35-2.586zm56.6-41.262c1.003-1.108 2.472-.954 3.54-.118 1.118.947 2.228 2.803-.346 5.22-1.65 1.065-2.165.696-3.478-.938-.86-1.22-.504-2.773.284-4.164z" fill="#424242" fill-opacity=".631"/><path fill="#595959" d="M.004 127.011h38.1v84.667H.004zM.004 347.144h38.1v84.667H.004z"/><path d="M4.234 347.148v84.663h33.87v-84.663zm.004 4.23H33.87v76.2H4.238zM4.238 127.014v4.23H33.87v76.2H4.238v4.234h33.867v-84.664z" fill="#a3977d" fill-opacity=".718"/><path d="M397.952 499.534H0V495.3h393.719V409.58l237.052 1.065V156.657l-148.166-.02V4.244H93.138v63.5h-88.9l-.004 427.557H0L.004 63.51h88.9V.01h397.934v152.393l148.167.02v262.454l-237.053-.007z" fill="#a3977d" fill-opacity=".718"/><path d="M19.856 277.4c1.583-.866 3.134-.279 3.95.902.822 1.312 1.243 3.569-2.635 5.342-2.277.633-2.685.099-3.425-1.986-.421-1.522.641-3.037 2.11-4.259zm31.553-114.503c.773-2.812 3.635-3.757 6.42-3.15 2.984.764 6.837 3.16 4.437 9.613-2.008 3.275-3.318 3.043-7.33 1.212-2.776-1.466-3.629-4.535-3.527-7.675zm66.37 78.621c1.368-.748 2.707-.242 3.412.78.709 1.133 1.071 3.085-2.28 4.62-1.967.548-2.319.087-2.957-1.716-.363-1.316.555-2.627 1.824-3.684zm-16.175-33.94c.562-1.769 1.769-2.603 2.802-2.495 1.097.185 2.383 1.273.847 5.389-1.089 2.161-1.58 2.143-2.98 1.41-.95-.628-1-2.4-.67-4.304zm58.25 16.8c.622-2.133 2.515-2.961 4.29-2.628 1.898.44 4.288 2.062 2.456 6.98-1.441 2.53-2.278 2.413-4.795 1.22-1.733-.973-2.152-3.226-1.95-5.573zm-83.472 34.67c1.813-2.663 4.72-.578 5.894 1.277 1.718 3.352 3.803 12.17-3.117 8.262-4.025-2.437-6.755-.385-7.778-3.688-.567-2.415 3.006-2.716 5.001-5.85zm104.002-4.264c1.328-.686 2.65-.026 3.356 1.132.714 1.28 1.101 3.407-2.158 4.765-1.92.419-2.272-.107-2.927-2.099-.376-1.444.502-2.773 1.729-3.798z" fill="#424242" fill-opacity=".631"/></svg>