<svg xmlns="http://www.w3.org/2000/svg" width="640" height="896" viewBox="0 0 169.333 237.067"><defs><clipPath id="c"><path clip-path="url(#clipPath6865)" d="M402.14 158.55h9.526v-42.334h-9.525z" fill="#a3977d" stroke-width="1.984"/></clipPath><clipPath id="d"><path d="M-22.25 168.075v-9.525h-46.568v9.525z" clip-path="url(#clipPath6865)" fill="#a3977d" stroke-width="2.081"/></clipPath><clipPath id="b"><ellipse ry="6.34" rx="6.35" cy="243.216" cx="-87.868" fill="#3f3f3f" fill-opacity=".611" stroke-width="2.145" stroke-opacity=".706"/></clipPath><clipPath id="a"><ellipse ry="10.319" rx="10.335" cy="243.216" cx="-24.735" fill="#3f3f3f" fill-opacity=".612" stroke-width="3.49" stroke-opacity=".706"/></clipPath><clipPath id="e"><path d="M-70.934 202.47h50.8v-60.854h-8.467v48.155l-4.233 4.233h-25.4l-4.234-4.233v-48.155h-8.466z" fill="#a3977d" stroke-width="5.144"/></clipPath></defs><g transform="translate(130.2 -124.683)"><path d="M-70.115 189.535l-2.116 2.117h-2.117l-2.117 2.117h-2.116l-1.059 1.15h-2.936l1.22-1.316h.749l1.592-1.69 2.001-.007 1.608-1.662h2.116l3.175-2.826z" fill="#445a17" stroke="#000" stroke-width=".529"/><path d="M-70.133 193.074l-2.117-2.117h-2.116l-2.117-2.116h-1.584l-1.463-1.037h-1.714l-2.04 2.549h1.886l.695-.858 1.045.005 1.626 1.198 1 .005 1.607 1.662h2.117l3.175 2.826zm.018-11.292l-2.116 2.117h-2.117l-2.117 2.116h-2.116l-1.059-1.058h-2.116l-2.117-2.117h2.493l.682.664 2.117.009.567.646 1-.006 1.608-1.662h2.116l3.175-2.826zm0-6.299h-2.936l-2.117-1.459h-2.116l-1.887 2.187 1.887-.009.567-.646 1 .006 1.847 1.298 3.737.012zm0 23.941h-2.936l-2.117 1.459h-2.116l-1.887-2.187 1.887.01.567.645 1-.006 1.847-1.298 3.737-.012zm32.338 2.008l2.117 2.117v2.116l2.117 2.117v2.117l1.15 1.058v2.936l-1.316-1.22v-.749l-1.69-1.592-.007-2.001-1.662-1.607v-2.117l-2.825-3.175zm-7.758.018l-2.116 2.117v2.117l-2.117 2.116v1.584l-1.037 1.463v1.714l2.549 2.04v-1.886l-.857-.694.005-1.046 1.197-1.625.005-1 1.662-1.608v-2.117l2.826-3.175zm-12.699-.018l2.116 2.117v2.116l2.117 2.117v2.117l-1.058 1.058v2.117l-2.117 2.116v-2.493l.663-.682.01-2.116.645-.568-.006-1-1.662-1.607v-2.117l-2.825-3.175zm-5.611 0v2.936l-1.458 2.117v2.116l2.186 1.887-.009-1.887-.646-.567.006-1 1.298-1.846.012-3.738zm38.019 0v2.936l1.458 2.117v2.116l-2.186 1.887.009-1.887.646-.567-.006-1-1.298-1.846-.012-3.738zm4.616-16.06l2.116-2.117h2.116l2.117-2.117h2.117l1.058-1.15h2.936l-1.22 1.316h-.749l-1.592 1.691-2.001.006-1.607 1.662h-2.117l-3.175 2.826z" fill="#445a17" stroke="#000" stroke-width=".529"/><path d="M-21.193 181.833l2.117 2.117h2.117l2.116 2.116h1.584l1.463 1.037h1.714l2.04-2.549h-1.886l-.694.858-1.046-.005-1.625-1.198-1-.005-1.608-1.662h-2.117l-3.175-2.826zm-.017 11.292l2.116-2.117h2.116l2.117-2.116h2.117l1.058 1.058h2.117l2.116 2.117h-2.493l-.682-.664-2.116-.009-.568-.646-1 .006-1.607 1.662h-2.117l-3.175 2.826zm-17.952 8.287l-1.668 2.117v2.117l-1.507 2.116v2.117l1.5 2.1 1.73-.013 2.116 2.175v-2.182l-1.373-1.402h-1.47l-.868-1.246.006-1 1.274-1.864v-1.86l2.377-3.175zm17.952-1.988h2.935l2.117 1.459h2.117l1.887-2.187-1.887.01-.568.645-1-.006-1.846-1.298-3.738-.012zm0-23.941h2.935l2.117-1.459h2.117l1.887 2.187-1.887-.009-.568-.646-1 .006-1.846 1.298-3.738.012z" fill="#445a17" stroke="#000" stroke-width=".529"/><ellipse ry="12.612" rx="12.67" cy="315.095" cx="-7.977" fill="#3f3f3f" fill-opacity=".612"/><ellipse cx="-24.735" cy="243.216" rx="10.335" ry="10.319" clip-path="url(#a)" transform="translate(16.758 71.967)" fill="#3f3f3f" fill-opacity=".612" stroke="#404040" stroke-width="2.117" stroke-opacity=".5"/><ellipse ry="8.453" rx="8.467" cy="243.216" cx="-87.868" fill="#3f3f3f" fill-opacity=".611"/><ellipse cx="-87.868" cy="243.216" rx="6.35" ry="6.34" clip-path="url(#b)" fill="#3f3f3f" fill-opacity=".611" stroke="#404040" stroke-width="2.117" stroke-opacity=".5"/><path clip-path="url(#c)" d="M402.14 158.55h9.526v-42.334h-9.525z" transform="matrix(0 -1 1.1 0 -196.656 561.749)" fill="#646464"/><path clip-path="url(#d)" d="M-22.25 168.075v-9.525h-46.568v9.525z" fill="#5a5a5a" stroke="#000" stroke-width="2.117" stroke-opacity=".706"/><path d="M-22.25 168.075v-9.525h-46.568v9.525z" clip-path="url(#d)" transform="translate(0 8.467)" fill="#505050" stroke="#000" stroke-width="2.117" stroke-opacity=".706"/><path transform="translate(0 16.933)" clip-path="url(#d)" d="M-22.25 168.075v-9.525h-46.568v9.525z" fill="#464646" stroke="#000" stroke-width="2.117" stroke-opacity=".706"/><path d="M-22.25 168.075v-9.525h-46.568v9.525z" clip-path="url(#d)" transform="translate(0 25.4)" fill="#3c3c3c" stroke="#000" stroke-width="2.117" stroke-opacity=".706"/><path transform="translate(0 33.867)" clip-path="url(#d)" d="M-22.25 168.075v-9.525h-46.568v9.525z" fill="#323232" stroke="#000" stroke-width="2.117" stroke-opacity=".706"/><path d="M-70.934 202.47h50.8v-60.854h-8.467v48.155l-4.233 4.233h-25.4l-4.234-4.233v-48.155h-8.466z" clip-path="url(#e)" fill="#1b1e25" stroke="#000" stroke-width="3.175" stroke-opacity=".706"/></g></svg>