<svg xmlns="http://www.w3.org/2000/svg" width="48" height="48" viewBox="0 0 12.7 12.7"><path d="M24.819 276.842c-.153.172-.788.226-.986.342-.198.115-.558.642-.782.69-.225.05-.77-.28-.999-.303-.228-.023-.828.191-1.038.099-.21-.092-.458-.68-.63-.832-.171-.153-.783-.332-.898-.53-.116-.199.029-.82-.02-1.044-.05-.224-.438-.729-.415-.957.022-.229.504-.646.597-.856.092-.21.074-.847.226-1.019.153-.17.788-.225.986-.34.199-.117.558-.643.783-.692.224-.048.77.28.998.304.228.023.829-.192 1.039-.1.21.093.458.68.63.833.17.153.782.332.898.53.115.199-.03.82.02 1.044.048.224.438.729.415.957-.023.228-.505.646-.597.856-.093.21-.074.847-.227 1.018z" transform="matrix(1.72294 0 0 1.75087 -32.152 -474.504)" fill="#462d12" fill-opacity=".844" stroke="#1b1917" stroke-width=".489"/></svg>