<?xml version="1.0" encoding="UTF-8" standalone="no"?>
<svg
   xmlns:dc="http://purl.org/dc/elements/1.1/"
   xmlns:cc="http://creativecommons.org/ns#"
   xmlns:rdf="http://www.w3.org/1999/02/22-rdf-syntax-ns#"
   xmlns:svg="http://www.w3.org/2000/svg"
   xmlns="http://www.w3.org/2000/svg"
   xmlns:xlink="http://www.w3.org/1999/xlink"
   xmlns:sodipodi="http://sodipodi.sourceforge.net/DTD/sodipodi-0.dtd"
   xmlns:inkscape="http://www.inkscape.org/namespaces/inkscape"
   width="148"
   height="148"
   viewBox="0 0 39.158333 39.158333"
   version="1.1"
   id="svg22"
   sodipodi:docname="map-crate-03x.svg"
   inkscape:version="0.92.2 (5c3e80d, 2017-08-06)">
  <metadata
     id="metadata28">
    <rdf:RDF>
      <cc:Work
         rdf:about="">
        <dc:format>image/svg+xml</dc:format>
        <dc:type
           rdf:resource="http://purl.org/dc/dcmitype/StillImage" />
        <dc:title></dc:title>
      </cc:Work>
    </rdf:RDF>
  </metadata>
  <defs
     id="defs26">
    <linearGradient
       inkscape:collect="always"
       id="linearGradient839">
      <stop
         style="stop-color:#ffffff;stop-opacity:1;"
         offset="0"
         id="stop835" />
      <stop
         style="stop-color:#91e1ff;stop-opacity:1"
         offset="1"
         id="stop837" />
    </linearGradient>
    <radialGradient
       inkscape:collect="always"
       xlink:href="#linearGradient839"
       id="radialGradient903"
       gradientUnits="userSpaceOnUse"
       cx="78.190071"
       cy="50.960472"
       fx="78.190071"
       fy="50.960472"
       r="53.398636" />
    <clipPath
       clipPathUnits="userSpaceOnUse"
       id="clipPath913">
      <rect
         style="fill:#4d2600;fill-opacity:1;stroke:none;stroke-width:1.80509913;stroke-linecap:butt;stroke-linejoin:miter;stroke-miterlimit:10;stroke-dasharray:none;stroke-opacity:1"
         id="rect915"
         width="4.2333326"
         height="38.099998"
         x="33.866665"
         y="1.2e-006"
         rx="1.0583333"
         ry="1.0583333" />
    </clipPath>
    <radialGradient
       inkscape:collect="always"
       xlink:href="#linearGradient839"
       id="radialGradient925"
       gradientUnits="userSpaceOnUse"
       cx="78.190071"
       cy="50.960472"
       fx="78.190071"
       fy="50.960472"
       r="53.398636" />
    <radialGradient
       inkscape:collect="always"
       xlink:href="#linearGradient839"
       id="radialGradient929"
       gradientUnits="userSpaceOnUse"
       cx="78.190071"
       cy="50.960472"
       fx="78.190071"
       fy="50.960472"
       r="53.398636" />
    <radialGradient
       inkscape:collect="always"
       xlink:href="#linearGradient839"
       id="radialGradient937"
       gradientUnits="userSpaceOnUse"
       cx="78.190071"
       cy="50.960472"
       fx="78.190071"
       fy="50.960472"
       r="53.398636" />
    <radialGradient
       inkscape:collect="always"
       xlink:href="#linearGradient839"
       id="radialGradient939"
       gradientUnits="userSpaceOnUse"
       cx="78.190071"
       cy="50.960472"
       fx="78.190071"
       fy="50.960472"
       r="53.398636" />
    <radialGradient
       inkscape:collect="always"
       xlink:href="#linearGradient839"
       id="radialGradient941"
       gradientUnits="userSpaceOnUse"
       cx="78.190071"
       cy="50.960472"
       fx="78.190071"
       fy="50.960472"
       r="53.398636" />
    <radialGradient
       inkscape:collect="always"
       xlink:href="#linearGradient839"
       id="radialGradient949"
       gradientUnits="userSpaceOnUse"
       cx="78.190071"
       cy="50.960472"
       fx="78.190071"
       fy="50.960472"
       r="53.398636" />
    <radialGradient
       inkscape:collect="always"
       xlink:href="#linearGradient839"
       id="radialGradient953"
       gradientUnits="userSpaceOnUse"
       cx="78.190071"
       cy="50.960472"
       fx="78.190071"
       fy="50.960472"
       r="53.398636" />
    <radialGradient
       inkscape:collect="always"
       xlink:href="#linearGradient839"
       id="radialGradient957"
       gradientUnits="userSpaceOnUse"
       cx="78.190071"
       cy="50.960472"
       fx="78.190071"
       fy="50.960472"
       r="53.398636" />
    <radialGradient
       inkscape:collect="always"
       xlink:href="#linearGradient839"
       id="radialGradient961"
       gradientUnits="userSpaceOnUse"
       cx="78.190071"
       cy="50.960472"
       fx="78.190071"
       fy="50.960472"
       r="53.398636" />
    <radialGradient
       inkscape:collect="always"
       xlink:href="#linearGradient839"
       id="radialGradient965"
       gradientUnits="userSpaceOnUse"
       cx="78.190071"
       cy="50.960472"
       fx="78.190071"
       fy="50.960472"
       r="53.398636" />
    <radialGradient
       inkscape:collect="always"
       xlink:href="#linearGradient839"
       id="radialGradient969"
       gradientUnits="userSpaceOnUse"
       cx="78.190071"
       cy="50.960472"
       fx="78.190071"
       fy="50.960472"
       r="53.398636" />
    <radialGradient
       inkscape:collect="always"
       xlink:href="#linearGradient839"
       id="radialGradient973"
       gradientUnits="userSpaceOnUse"
       cx="78.190071"
       cy="50.960472"
       fx="78.190071"
       fy="50.960472"
       r="53.398636" />
    <clipPath
       clipPathUnits="userSpaceOnUse"
       id="clipPath994">
      <rect
         ry="1.0583333"
         rx="1.0583333"
         y="-38.099998"
         x="1.2e-006"
         height="38.099998"
         width="6.3499994"
         id="rect996"
         style="fill:#4d2600;fill-opacity:1;stroke:none;stroke-width:2.2107861;stroke-linecap:butt;stroke-linejoin:miter;stroke-miterlimit:10;stroke-dasharray:none;stroke-opacity:1" />
    </clipPath>
    <clipPath
       clipPathUnits="userSpaceOnUse"
       id="clipPath1026">
      <rect
         style="fill:#8b0000;fill-opacity:1;stroke:none;stroke-width:2.11666656;stroke-linecap:butt;stroke-linejoin:miter;stroke-miterlimit:10;stroke-dasharray:none;stroke-opacity:1"
         id="rect1028"
         width="6.3499999"
         height="6.3499999"
         x="7.3476385e-023"
         y="1.2e-006"
         rx="1.0583333"
         ry="1.0583333" />
    </clipPath>
  </defs>
  <sodipodi:namedview
     pagecolor="#ffffff"
     bordercolor="#666666"
     borderopacity="1"
     objecttolerance="10"
     gridtolerance="10"
     guidetolerance="10"
     inkscape:pageopacity="0"
     inkscape:pageshadow="2"
     inkscape:window-width="1920"
     inkscape:window-height="1017"
     id="namedview24"
     showgrid="true"
     inkscape:snap-nodes="false"
     fit-margin-top="0"
     fit-margin-left="0"
     fit-margin-right="0"
     fit-margin-bottom="0"
     inkscape:zoom="1.6388889"
     inkscape:cx="-30.266974"
     inkscape:cy="101.79804"
     inkscape:window-x="1912"
     inkscape:window-y="-8"
     inkscape:window-maximized="1"
     inkscape:current-layer="svg22">
    <inkscape:grid
       type="xygrid"
       id="grid905"
       empspacing="4"
       spacingy="1.0583333"
       spacingx="1.0583333"
       originx="0.52916663"
       originy="0.52916663" />
  </sodipodi:namedview>
  <rect
     id="rect2"
     rx="1.0583333"
     y="0.52916664"
     x="0.52916664"
     height="38.099998"
     width="38.099998"
     style="fill:#003b39;fill-opacity:1;stroke:none;stroke-width:2.23133755;stroke-miterlimit:4;stroke-dasharray:none;stroke-opacity:1"
     ry="1.0583333" />
  <g
     id="g988"
     transform="matrix(1.0505267,0,0,1.0505267,0.07505636,1.9980415)">
    <path
       sodipodi:type="star"
       style="isolation:isolate;fill:url(#radialGradient903);fill-opacity:1;stroke:#202020;stroke-width:12;stroke-linecap:butt;stroke-linejoin:miter;stroke-miterlimit:4;stroke-dasharray:none;stroke-opacity:1"
       id="path901"
       sodipodi:sides="9"
       sodipodi:cx="64"
       sodipodi:cy="64"
       sodipodi:r1="47.398636"
       sodipodi:r2="45.028706"
       sodipodi:arg1="1.5707963"
       sodipodi:arg2="1.9198622"
       inkscape:flatsided="false"
       inkscape:rounded="0.4"
       inkscape:randomized="0"
       d="m 64.000001,111.39864 c -6.48746,0 -9.304508,-2.86666 -15.400726,-5.0855 -6.096217,-2.21884 -10.096848,-1.83362 -15.06653,-6.00368 -4.969683,-4.170057 -5.285018,-8.176803 -8.528748,-13.795108 -3.24373,-5.618304 -6.556006,-7.894765 -7.682541,-14.283664 -1.126535,-6.388901 1.20739,-9.660941 2.333926,-16.049842 1.126535,-6.388899 0.05247,-10.261859 3.296195,-15.880163 3.24373,-5.618305 7.134847,-6.624614 12.10453,-10.794673 4.969681,-4.170058 6.636387,-7.827317 12.732604,-10.046158 6.096218,-2.218842 9.72383,-0.488557 16.21129,-0.488558 6.487458,0 10.115069,-1.730284 16.211286,0.488557 6.096218,2.218842 7.762925,5.876101 12.732608,10.04616 4.969681,4.170058 8.860795,5.176366 12.104525,10.79467 3.24373,5.618305 2.16966,9.491266 3.2962,15.880167 1.12653,6.3889 3.46046,9.660938 2.33392,16.049837 -1.12653,6.388902 -4.43881,8.665363 -7.68254,14.283669 -3.243727,5.618304 -3.559062,9.625049 -8.528743,13.795106 -4.969683,4.17006 -8.970315,3.78484 -15.066534,6.00368 -6.096216,2.21884 -8.913263,5.0855 -15.400722,5.0855 z"
       transform="matrix(0.05913168,0.05522851,-0.05522851,0.05913168,10.236412,2.1995116)" />
    <path
       transform="matrix(0.00263622,0.08086899,-0.08086899,0.00263622,23.691035,4.0278979)"
       d="m 64.000001,111.39864 c -6.48746,0 -9.304508,-2.86666 -15.400726,-5.0855 -6.096217,-2.21884 -10.096848,-1.83362 -15.06653,-6.00368 -4.969683,-4.170057 -5.285018,-8.176803 -8.528748,-13.795108 -3.24373,-5.618304 -6.556006,-7.894765 -7.682541,-14.283664 -1.126535,-6.388901 1.20739,-9.660941 2.333926,-16.049842 1.126535,-6.388899 0.05247,-10.261859 3.296195,-15.880163 3.24373,-5.618305 7.134847,-6.624614 12.10453,-10.794673 4.969681,-4.170058 6.636387,-7.827317 12.732604,-10.046158 6.096218,-2.218842 9.72383,-0.488557 16.21129,-0.488558 6.487458,0 10.115069,-1.730284 16.211286,0.488557 6.096218,2.218842 7.762925,5.876101 12.732608,10.04616 4.969681,4.170058 8.860795,5.176366 12.104525,10.79467 3.24373,5.618305 2.16966,9.491266 3.2962,15.880167 1.12653,6.3889 3.46046,9.660938 2.33392,16.049837 -1.12653,6.388902 -4.43881,8.665363 -7.68254,14.283669 -3.243727,5.618304 -3.559062,9.625049 -8.528743,13.795106 -4.969683,4.17006 -8.970315,3.78484 -15.066534,6.00368 -6.096216,2.21884 -8.913263,5.0855 -15.400722,5.0855 z"
       inkscape:randomized="0"
       inkscape:rounded="0.4"
       inkscape:flatsided="false"
       sodipodi:arg2="1.9198622"
       sodipodi:arg1="1.5707963"
       sodipodi:r2="45.028706"
       sodipodi:r1="47.398636"
       sodipodi:cy="64"
       sodipodi:cx="64"
       sodipodi:sides="9"
       id="path923"
       style="isolation:isolate;fill:url(#radialGradient925);fill-opacity:1;stroke:#202020;stroke-width:12;stroke-linecap:butt;stroke-linejoin:miter;stroke-miterlimit:4;stroke-dasharray:none;stroke-opacity:1"
       sodipodi:type="star" />
    <path
       sodipodi:type="star"
       style="isolation:isolate;fill:url(#radialGradient929);fill-opacity:1;stroke:#202020;stroke-width:12;stroke-linecap:butt;stroke-linejoin:miter;stroke-miterlimit:4;stroke-dasharray:none;stroke-opacity:1"
       id="path927"
       sodipodi:sides="9"
       sodipodi:cx="64"
       sodipodi:cy="64"
       sodipodi:r1="47.398636"
       sodipodi:r2="45.028706"
       sodipodi:arg1="1.5707963"
       sodipodi:arg2="1.9198622"
       inkscape:flatsided="false"
       inkscape:rounded="0.4"
       inkscape:randomized="0"
       d="m 64.000001,111.39864 c -6.48746,0 -9.304508,-2.86666 -15.400726,-5.0855 -6.096217,-2.21884 -10.096848,-1.83362 -15.06653,-6.00368 -4.969683,-4.170057 -5.285018,-8.176803 -8.528748,-13.795108 -3.24373,-5.618304 -6.556006,-7.894765 -7.682541,-14.283664 -1.126535,-6.388901 1.20739,-9.660941 2.333926,-16.049842 1.126535,-6.388899 0.05247,-10.261859 3.296195,-15.880163 3.24373,-5.618305 7.134847,-6.624614 12.10453,-10.794673 4.969681,-4.170058 6.636387,-7.827317 12.732604,-10.046158 6.096218,-2.218842 9.72383,-0.488557 16.21129,-0.488558 6.487458,0 10.115069,-1.730284 16.211286,0.488557 6.096218,2.218842 7.762925,5.876101 12.732608,10.04616 4.969681,4.170058 8.860795,5.176366 12.104525,10.79467 3.24373,5.618305 2.16966,9.491266 3.2962,15.880167 1.12653,6.3889 3.46046,9.660938 2.33392,16.049837 -1.12653,6.388902 -4.43881,8.665363 -7.68254,14.283669 -3.243727,5.618304 -3.559062,9.625049 -8.528743,13.795106 -4.969683,4.17006 -8.970315,3.78484 -15.066534,6.00368 -6.096216,2.21884 -8.913263,5.0855 -15.400722,5.0855 z"
       transform="matrix(-0.00504196,0.08075471,-0.08075471,-0.00504196,31.914403,4.2070791)" />
    <path
       transform="matrix(0.03362352,0.07359486,-0.07359486,0.03362352,28.925475,17.434828)"
       d="m 64.000001,111.39864 c -6.48746,0 -9.304508,-2.86666 -15.400726,-5.0855 -6.096217,-2.21884 -10.096848,-1.83362 -15.06653,-6.00368 -4.969683,-4.170057 -5.285018,-8.176803 -8.528748,-13.795108 -3.24373,-5.618304 -6.556006,-7.894765 -7.682541,-14.283664 -1.126535,-6.388901 1.20739,-9.660941 2.333926,-16.049842 1.126535,-6.388899 0.05247,-10.261859 3.296195,-15.880163 3.24373,-5.618305 7.134847,-6.624614 12.10453,-10.794673 4.969681,-4.170058 6.636387,-7.827317 12.732604,-10.046158 6.096218,-2.218842 9.72383,-0.488557 16.21129,-0.488558 6.487458,0 10.115069,-1.730284 16.211286,0.488557 6.096218,2.218842 7.762925,5.876101 12.732608,10.04616 4.969681,4.170058 8.860795,5.176366 12.104525,10.79467 3.24373,5.618305 2.16966,9.491266 3.2962,15.880167 1.12653,6.3889 3.46046,9.660938 2.33392,16.049837 -1.12653,6.388902 -4.43881,8.665363 -7.68254,14.283669 -3.243727,5.618304 -3.559062,9.625049 -8.528743,13.795106 -4.969683,4.17006 -8.970315,3.78484 -15.066534,6.00368 -6.096216,2.21884 -8.913263,5.0855 -15.400722,5.0855 z"
       inkscape:randomized="0"
       inkscape:rounded="0.4"
       inkscape:flatsided="false"
       sodipodi:arg2="1.9198622"
       sodipodi:arg1="1.5707963"
       sodipodi:r2="45.028706"
       sodipodi:r1="47.398636"
       sodipodi:cy="64"
       sodipodi:cx="64"
       sodipodi:sides="9"
       id="path931"
       style="isolation:isolate;fill:url(#radialGradient937);fill-opacity:1;stroke:#202020;stroke-width:12;stroke-linecap:butt;stroke-linejoin:miter;stroke-miterlimit:4;stroke-dasharray:none;stroke-opacity:1"
       sodipodi:type="star" />
    <path
       sodipodi:type="star"
       style="isolation:isolate;fill:url(#radialGradient939);fill-opacity:1;stroke:#202020;stroke-width:12;stroke-linecap:butt;stroke-linejoin:miter;stroke-miterlimit:4;stroke-dasharray:none;stroke-opacity:1"
       id="path933"
       sodipodi:sides="9"
       sodipodi:cx="64"
       sodipodi:cy="64"
       sodipodi:r1="47.398636"
       sodipodi:r2="45.028706"
       sodipodi:arg1="1.5707963"
       sodipodi:arg2="1.9198622"
       inkscape:flatsided="false"
       inkscape:rounded="0.4"
       inkscape:randomized="0"
       d="m 64.000001,111.39864 c -6.48746,0 -9.304508,-2.86666 -15.400726,-5.0855 -6.096217,-2.21884 -10.096848,-1.83362 -15.06653,-6.00368 -4.969683,-4.170057 -5.285018,-8.176803 -8.528748,-13.795108 -3.24373,-5.618304 -6.556006,-7.894765 -7.682541,-14.283664 -1.126535,-6.388901 1.20739,-9.660941 2.333926,-16.049842 1.126535,-6.388899 0.05247,-10.261859 3.296195,-15.880163 3.24373,-5.618305 7.134847,-6.624614 12.10453,-10.794673 4.969681,-4.170058 6.636387,-7.827317 12.732604,-10.046158 6.096218,-2.218842 9.72383,-0.488557 16.21129,-0.488558 6.487458,0 10.115069,-1.730284 16.211286,0.488557 6.096218,2.218842 7.762925,5.876101 12.732608,10.04616 4.969681,4.170058 8.860795,5.176366 12.104525,10.79467 3.24373,5.618305 2.16966,9.491266 3.2962,15.880167 1.12653,6.3889 3.46046,9.660938 2.33392,16.049837 -1.12653,6.388902 -4.43881,8.665363 -7.68254,14.283669 -3.243727,5.618304 -3.559062,9.625049 -8.528743,13.795106 -4.969683,4.17006 -8.970315,3.78484 -15.066534,6.00368 -6.096216,2.21884 -8.913263,5.0855 -15.400722,5.0855 z"
       transform="matrix(0.0144427,0.07961252,-0.07961252,0.0144427,22.751553,18.569364)" />
    <path
       transform="matrix(-0.01184082,0.08004086,-0.08004086,-0.01184082,16.194905,19.876827)"
       d="m 64.000001,111.39864 c -6.48746,0 -9.304508,-2.86666 -15.400726,-5.0855 -6.096217,-2.21884 -10.096848,-1.83362 -15.06653,-6.00368 -4.969683,-4.170057 -5.285018,-8.176803 -8.528748,-13.795108 -3.24373,-5.618304 -6.556006,-7.894765 -7.682541,-14.283664 -1.126535,-6.388901 1.20739,-9.660941 2.333926,-16.049842 1.126535,-6.388899 0.05247,-10.261859 3.296195,-15.880163 3.24373,-5.618305 7.134847,-6.624614 12.10453,-10.794673 4.969681,-4.170058 6.636387,-7.827317 12.732604,-10.046158 6.096218,-2.218842 9.72383,-0.488557 16.21129,-0.488558 6.487458,0 10.115069,-1.730284 16.211286,0.488557 6.096218,2.218842 7.762925,5.876101 12.732608,10.04616 4.969681,4.170058 8.860795,5.176366 12.104525,10.79467 3.24373,5.618305 2.16966,9.491266 3.2962,15.880167 1.12653,6.3889 3.46046,9.660938 2.33392,16.049837 -1.12653,6.388902 -4.43881,8.665363 -7.68254,14.283669 -3.243727,5.618304 -3.559062,9.625049 -8.528743,13.795106 -4.969683,4.17006 -8.970315,3.78484 -15.066534,6.00368 -6.096216,2.21884 -8.913263,5.0855 -15.400722,5.0855 z"
       inkscape:randomized="0"
       inkscape:rounded="0.4"
       inkscape:flatsided="false"
       sodipodi:arg2="1.9198622"
       sodipodi:arg1="1.5707963"
       sodipodi:r2="45.028706"
       sodipodi:r1="47.398636"
       sodipodi:cy="64"
       sodipodi:cx="64"
       sodipodi:sides="9"
       id="path935"
       style="isolation:isolate;fill:url(#radialGradient941);fill-opacity:1;stroke:#202020;stroke-width:12;stroke-linecap:butt;stroke-linejoin:miter;stroke-miterlimit:4;stroke-dasharray:none;stroke-opacity:1"
       sodipodi:type="star" />
    <path
       sodipodi:type="star"
       style="isolation:isolate;fill:url(#radialGradient949);fill-opacity:1;stroke:#202020;stroke-width:12;stroke-linecap:butt;stroke-linejoin:miter;stroke-miterlimit:4;stroke-dasharray:none;stroke-opacity:1"
       id="path943"
       sodipodi:sides="9"
       sodipodi:cx="64"
       sodipodi:cy="64"
       sodipodi:r1="47.398636"
       sodipodi:r2="45.028706"
       sodipodi:arg1="1.5707963"
       sodipodi:arg2="1.9198622"
       inkscape:flatsided="false"
       inkscape:rounded="0.4"
       inkscape:randomized="0"
       d="m 64.000001,111.39864 c -6.48746,0 -9.304508,-2.86666 -15.400726,-5.0855 -6.096217,-2.21884 -10.096848,-1.83362 -15.06653,-6.00368 -4.969683,-4.170057 -5.285018,-8.176803 -8.528748,-13.795108 -3.24373,-5.618304 -6.556006,-7.894765 -7.682541,-14.283664 -1.126535,-6.388901 1.20739,-9.660941 2.333926,-16.049842 1.126535,-6.388899 0.05247,-10.261859 3.296195,-15.880163 3.24373,-5.618305 7.134847,-6.624614 12.10453,-10.794673 4.969681,-4.170058 6.636387,-7.827317 12.732604,-10.046158 6.096218,-2.218842 9.72383,-0.488557 16.21129,-0.488558 6.487458,0 10.115069,-1.730284 16.211286,0.488557 6.096218,2.218842 7.762925,5.876101 12.732608,10.04616 4.969681,4.170058 8.860795,5.176366 12.104525,10.79467 3.24373,5.618305 2.16966,9.491266 3.2962,15.880167 1.12653,6.3889 3.46046,9.660938 2.33392,16.049837 -1.12653,6.388902 -4.43881,8.665363 -7.68254,14.283669 -3.243727,5.618304 -3.559062,9.625049 -8.528743,13.795106 -4.969683,4.17006 -8.970315,3.78484 -15.066534,6.00368 -6.096216,2.21884 -8.913263,5.0855 -15.400722,5.0855 z"
       transform="matrix(0.01265343,0.07991642,-0.07991642,0.01265343,30.918233,10.265641)" />
    <path
       sodipodi:type="star"
       style="isolation:isolate;fill:url(#radialGradient953);fill-opacity:1;stroke:#202020;stroke-width:12;stroke-linecap:butt;stroke-linejoin:miter;stroke-miterlimit:4;stroke-dasharray:none;stroke-opacity:1"
       id="path947"
       sodipodi:sides="9"
       sodipodi:cx="64"
       sodipodi:cy="64"
       sodipodi:r1="47.398636"
       sodipodi:r2="45.028706"
       sodipodi:arg1="1.5707963"
       sodipodi:arg2="1.9198622"
       inkscape:flatsided="false"
       inkscape:rounded="0.4"
       inkscape:randomized="0"
       d="m 64.000001,111.39864 c -6.48746,0 -9.304508,-2.86666 -15.400726,-5.0855 -6.096217,-2.21884 -10.096848,-1.83362 -15.06653,-6.00368 -4.969683,-4.170057 -5.285018,-8.176803 -8.528748,-13.795108 -3.24373,-5.618304 -6.556006,-7.894765 -7.682541,-14.283664 -1.126535,-6.388901 1.20739,-9.660941 2.333926,-16.049842 1.126535,-6.388899 0.05247,-10.261859 3.296195,-15.880163 3.24373,-5.618305 7.134847,-6.624614 12.10453,-10.794673 4.969681,-4.170058 6.636387,-7.827317 12.732604,-10.046158 6.096218,-2.218842 9.72383,-0.488557 16.21129,-0.488558 6.487458,0 10.115069,-1.730284 16.211286,0.488557 6.096218,2.218842 7.762925,5.876101 12.732608,10.04616 4.969681,4.170058 8.860795,5.176366 12.104525,10.79467 3.24373,5.618305 2.16966,9.491266 3.2962,15.880167 1.12653,6.3889 3.46046,9.660938 2.33392,16.049837 -1.12653,6.388902 -4.43881,8.665363 -7.68254,14.283669 -3.243727,5.618304 -3.559062,9.625049 -8.528743,13.795106 -4.969683,4.17006 -8.970315,3.78484 -15.066534,6.00368 -6.096216,2.21884 -8.913263,5.0855 -15.400722,5.0855 z"
       transform="matrix(0.00670524,0.08063364,-0.08063364,0.00670524,15.317081,10.896953)" />
    <path
       transform="matrix(-0.01227777,0.07997501,-0.07997501,-0.01227777,20.469688,8.594343)"
       d="m 64.000001,111.39864 c -6.48746,0 -9.304508,-2.86666 -15.400726,-5.0855 -6.096217,-2.21884 -10.096848,-1.83362 -15.06653,-6.00368 -4.969683,-4.170057 -5.285018,-8.176803 -8.528748,-13.795108 -3.24373,-5.618304 -6.556006,-7.894765 -7.682541,-14.283664 -1.126535,-6.388901 1.20739,-9.660941 2.333926,-16.049842 1.126535,-6.388899 0.05247,-10.261859 3.296195,-15.880163 3.24373,-5.618305 7.134847,-6.624614 12.10453,-10.794673 4.969681,-4.170058 6.636387,-7.827317 12.732604,-10.046158 6.096218,-2.218842 9.72383,-0.488557 16.21129,-0.488558 6.487458,0 10.115069,-1.730284 16.211286,0.488557 6.096218,2.218842 7.762925,5.876101 12.732608,10.04616 4.969681,4.170058 8.860795,5.176366 12.104525,10.79467 3.24373,5.618305 2.16966,9.491266 3.2962,15.880167 1.12653,6.3889 3.46046,9.660938 2.33392,16.049837 -1.12653,6.388902 -4.43881,8.665363 -7.68254,14.283669 -3.243727,5.618304 -3.559062,9.625049 -8.528743,13.795106 -4.969683,4.17006 -8.970315,3.78484 -15.066534,6.00368 -6.096216,2.21884 -8.913263,5.0855 -15.400722,5.0855 z"
       inkscape:randomized="0"
       inkscape:rounded="0.4"
       inkscape:flatsided="false"
       sodipodi:arg2="1.9198622"
       sodipodi:arg1="1.5707963"
       sodipodi:r2="45.028706"
       sodipodi:r1="47.398636"
       sodipodi:cy="64"
       sodipodi:cx="64"
       sodipodi:sides="9"
       id="path955"
       style="isolation:isolate;fill:url(#radialGradient957);fill-opacity:1;stroke:#202020;stroke-width:12;stroke-linecap:butt;stroke-linejoin:miter;stroke-miterlimit:4;stroke-dasharray:none;stroke-opacity:1"
       sodipodi:type="star" />
    <path
       transform="matrix(0.0083834,0.08047647,-0.08047647,0.0083834,27.260383,7.1249827)"
       d="m 64.000001,111.39864 c -6.48746,0 -9.304508,-2.86666 -15.400726,-5.0855 -6.096217,-2.21884 -10.096848,-1.83362 -15.06653,-6.00368 -4.969683,-4.170057 -5.285018,-8.176803 -8.528748,-13.795108 -3.24373,-5.618304 -6.556006,-7.894765 -7.682541,-14.283664 -1.126535,-6.388901 1.20739,-9.660941 2.333926,-16.049842 1.126535,-6.388899 0.05247,-10.261859 3.296195,-15.880163 3.24373,-5.618305 7.134847,-6.624614 12.10453,-10.794673 4.969681,-4.170058 6.636387,-7.827317 12.732604,-10.046158 6.096218,-2.218842 9.72383,-0.488557 16.21129,-0.488558 6.487458,0 10.115069,-1.730284 16.211286,0.488557 6.096218,2.218842 7.762925,5.876101 12.732608,10.04616 4.969681,4.170058 8.860795,5.176366 12.104525,10.79467 3.24373,5.618305 2.16966,9.491266 3.2962,15.880167 1.12653,6.3889 3.46046,9.660938 2.33392,16.049837 -1.12653,6.388902 -4.43881,8.665363 -7.68254,14.283669 -3.243727,5.618304 -3.559062,9.625049 -8.528743,13.795106 -4.969683,4.17006 -8.970315,3.78484 -15.066534,6.00368 -6.096216,2.21884 -8.913263,5.0855 -15.400722,5.0855 z"
       inkscape:randomized="0"
       inkscape:rounded="0.4"
       inkscape:flatsided="false"
       sodipodi:arg2="1.9198622"
       sodipodi:arg1="1.5707963"
       sodipodi:r2="45.028706"
       sodipodi:r1="47.398636"
       sodipodi:cy="64"
       sodipodi:cx="64"
       sodipodi:sides="9"
       id="path963"
       style="isolation:isolate;fill:url(#radialGradient965);fill-opacity:1;stroke:#202020;stroke-width:12;stroke-linecap:butt;stroke-linejoin:miter;stroke-miterlimit:4;stroke-dasharray:none;stroke-opacity:1"
       sodipodi:type="star" />
    <path
       sodipodi:type="star"
       style="isolation:isolate;fill:url(#radialGradient969);fill-opacity:1;stroke:#202020;stroke-width:12;stroke-linecap:butt;stroke-linejoin:miter;stroke-miterlimit:4;stroke-dasharray:none;stroke-opacity:1"
       id="path967"
       sodipodi:sides="9"
       sodipodi:cx="64"
       sodipodi:cy="64"
       sodipodi:r1="47.398636"
       sodipodi:r2="45.028706"
       sodipodi:arg1="1.5707963"
       sodipodi:arg2="1.9198622"
       inkscape:flatsided="false"
       inkscape:rounded="0.4"
       inkscape:randomized="0"
       d="m 64.000001,111.39864 c -6.48746,0 -9.304508,-2.86666 -15.400726,-5.0855 -6.096217,-2.21884 -10.096848,-1.83362 -15.06653,-6.00368 -4.969683,-4.170057 -5.285018,-8.176803 -8.528748,-13.795108 -3.24373,-5.618304 -6.556006,-7.894765 -7.682541,-14.283664 -1.126535,-6.388901 1.20739,-9.660941 2.333926,-16.049842 1.126535,-6.388899 0.05247,-10.261859 3.296195,-15.880163 3.24373,-5.618305 7.134847,-6.624614 12.10453,-10.794673 4.969681,-4.170058 6.636387,-7.827317 12.732604,-10.046158 6.096218,-2.218842 9.72383,-0.488557 16.21129,-0.488558 6.487458,0 10.115069,-1.730284 16.211286,0.488557 6.096218,2.218842 7.762925,5.876101 12.732608,10.04616 4.969681,4.170058 8.860795,5.176366 12.104525,10.79467 3.24373,5.618305 2.16966,9.491266 3.2962,15.880167 1.12653,6.3889 3.46046,9.660938 2.33392,16.049837 -1.12653,6.388902 -4.43881,8.665363 -7.68254,14.283669 -3.243727,5.618304 -3.559062,9.625049 -8.528743,13.795106 -4.969683,4.17006 -8.970315,3.78484 -15.066534,6.00368 -6.096216,2.21884 -8.913263,5.0855 -15.400722,5.0855 z"
       transform="matrix(-0.01101921,0.0801581,-0.0801581,-0.01101921,20.463542,15.490358)" />
    <path
       sodipodi:type="star"
       style="isolation:isolate;fill:url(#radialGradient961);fill-opacity:1;stroke:#202020;stroke-width:12;stroke-linecap:butt;stroke-linejoin:miter;stroke-miterlimit:4;stroke-dasharray:none;stroke-opacity:1"
       id="path959"
       sodipodi:sides="9"
       sodipodi:cx="64"
       sodipodi:cy="64"
       sodipodi:r1="47.398636"
       sodipodi:r2="45.028706"
       sodipodi:arg1="1.5707963"
       sodipodi:arg2="1.9198622"
       inkscape:flatsided="false"
       inkscape:rounded="0.4"
       inkscape:randomized="0"
       d="m 64.000001,111.39864 c -6.48746,0 -9.304508,-2.86666 -15.400726,-5.0855 -6.096217,-2.21884 -10.096848,-1.83362 -15.06653,-6.00368 -4.969683,-4.170057 -5.285018,-8.176803 -8.528748,-13.795108 -3.24373,-5.618304 -6.556006,-7.894765 -7.682541,-14.283664 -1.126535,-6.388901 1.20739,-9.660941 2.333926,-16.049842 1.126535,-6.388899 0.05247,-10.261859 3.296195,-15.880163 3.24373,-5.618305 7.134847,-6.624614 12.10453,-10.794673 4.969681,-4.170058 6.636387,-7.827317 12.732604,-10.046158 6.096218,-2.218842 9.72383,-0.488557 16.21129,-0.488558 6.487458,0 10.115069,-1.730284 16.211286,0.488557 6.096218,2.218842 7.762925,5.876101 12.732608,10.04616 4.969681,4.170058 8.860795,5.176366 12.104525,10.79467 3.24373,5.618305 2.16966,9.491266 3.2962,15.880167 1.12653,6.3889 3.46046,9.660938 2.33392,16.049837 -1.12653,6.388902 -4.43881,8.665363 -7.68254,14.283669 -3.243727,5.618304 -3.559062,9.625049 -8.528743,13.795106 -4.969683,4.17006 -8.970315,3.78484 -15.066534,6.00368 -6.096216,2.21884 -8.913263,5.0855 -15.400722,5.0855 z"
       transform="matrix(0.01295829,0.07986756,-0.07986756,0.01295829,26.633726,13.882237)" />
    <path
       transform="matrix(0.00262064,0.08086951,-0.08086951,0.00262064,23.490027,10.868229)"
       d="m 64.000001,111.39864 c -6.48746,0 -9.304508,-2.86666 -15.400726,-5.0855 -6.096217,-2.21884 -10.096848,-1.83362 -15.06653,-6.00368 -4.969683,-4.170057 -5.285018,-8.176803 -8.528748,-13.795108 -3.24373,-5.618304 -6.556006,-7.894765 -7.682541,-14.283664 -1.126535,-6.388901 1.20739,-9.660941 2.333926,-16.049842 1.126535,-6.388899 0.05247,-10.261859 3.296195,-15.880163 3.24373,-5.618305 7.134847,-6.624614 12.10453,-10.794673 4.969681,-4.170058 6.636387,-7.827317 12.732604,-10.046158 6.096218,-2.218842 9.72383,-0.488557 16.21129,-0.488558 6.487458,0 10.115069,-1.730284 16.211286,0.488557 6.096218,2.218842 7.762925,5.876101 12.732608,10.04616 4.969681,4.170058 8.860795,5.176366 12.104525,10.79467 3.24373,5.618305 2.16966,9.491266 3.2962,15.880167 1.12653,6.3889 3.46046,9.660938 2.33392,16.049837 -1.12653,6.388902 -4.43881,8.665363 -7.68254,14.283669 -3.243727,5.618304 -3.559062,9.625049 -8.528743,13.795106 -4.969683,4.17006 -8.970315,3.78484 -15.066534,6.00368 -6.096216,2.21884 -8.913263,5.0855 -15.400722,5.0855 z"
       inkscape:randomized="0"
       inkscape:rounded="0.4"
       inkscape:flatsided="false"
       sodipodi:arg2="1.9198622"
       sodipodi:arg1="1.5707963"
       sodipodi:r2="45.028706"
       sodipodi:r1="47.398636"
       sodipodi:cy="64"
       sodipodi:cx="64"
       sodipodi:sides="9"
       id="path971"
       style="isolation:isolate;fill:url(#radialGradient973);fill-opacity:1;stroke:#202020;stroke-width:12;stroke-linecap:butt;stroke-linejoin:miter;stroke-miterlimit:4;stroke-dasharray:none;stroke-opacity:1"
       sodipodi:type="star" />
  </g>
  <rect
     transform="rotate(90,5.9999995e-7,0.52916604)"
     style="fill:#007c77;fill-opacity:1;stroke:#191919;stroke-width:2.11666656;stroke-linecap:butt;stroke-linejoin:miter;stroke-miterlimit:10;stroke-dasharray:none;stroke-opacity:1"
     id="rect992"
     width="6.3499994"
     height="38.099998"
     x="1.2e-006"
     y="-38.099998"
     rx="1.0583333"
     ry="1.0583333"
     clip-path="url(#clipPath994)" />
  <rect
     clip-path="url(#clipPath994)"
     ry="1.0583333"
     rx="1.0583333"
     y="-38.099998"
     x="1.2e-006"
     height="38.099998"
     width="6.3499994"
     id="rect998"
     style="fill:#007c77;fill-opacity:1;stroke:#191919;stroke-width:2.11666656;stroke-linecap:butt;stroke-linejoin:miter;stroke-miterlimit:10;stroke-dasharray:none;stroke-opacity:1"
     transform="rotate(90,-15.874998,16.404166)" />
  <rect
     clip-path="url(#clipPath994)"
     ry="1.0583333"
     rx="1.0583333"
     y="-38.099998"
     x="1.2e-006"
     height="38.099998"
     width="6.3499994"
     id="rect1000"
     style="fill:#00afa9;fill-opacity:1;stroke:#191919;stroke-width:2.11666656;stroke-linecap:butt;stroke-linejoin:miter;stroke-miterlimit:10;stroke-dasharray:none;stroke-opacity:1"
     transform="rotate(180,19.314583,0.26458306)" />
  <rect
     transform="rotate(180,3.4395839,0.26458356)"
     style="fill:#00afa9;fill-opacity:1;stroke:#191919;stroke-width:2.11666656;stroke-linecap:butt;stroke-linejoin:miter;stroke-miterlimit:10;stroke-dasharray:none;stroke-opacity:1"
     id="rect1002"
     width="6.3499994"
     height="38.099998"
     x="1.2e-006"
     y="-38.099998"
     rx="1.0583333"
     ry="1.0583333"
     clip-path="url(#clipPath994)" />
  <path
     style="fill:#a7fffb;fill-opacity:1;stroke:#191919;stroke-width:1.05833328;stroke-miterlimit:10;stroke-dasharray:none;stroke-opacity:1"
     inkscape:connector-curvature="0"
     stroke-miterlimit="10"
     d="M 6.8791664,0.52916664 V 6.8791664 H 0.52916664 V 0.52916664 Z"
     id="path1030" />
  <path
     id="path1032"
     d="M 38.629166,0.52916664 V 6.8791664 h -6.35 V 0.52916664 Z"
     stroke-miterlimit="10"
     inkscape:connector-curvature="0"
     style="fill:#a7fffb;fill-opacity:1;stroke:#191919;stroke-width:1.05833328;stroke-miterlimit:10;stroke-dasharray:none;stroke-opacity:1" />
  <path
     id="path1034"
     d="m 32.279166,38.629165 v -6.35 h 6.35 v 6.35 z"
     stroke-miterlimit="10"
     inkscape:connector-curvature="0"
     style="fill:#a7fffb;fill-opacity:1;stroke:#191919;stroke-width:1.05833328;stroke-miterlimit:10;stroke-dasharray:none;stroke-opacity:1" />
  <path
     style="fill:#a7fffb;fill-opacity:1;stroke:#191919;stroke-width:1.05833328;stroke-miterlimit:10;stroke-dasharray:none;stroke-opacity:1"
     inkscape:connector-curvature="0"
     stroke-miterlimit="10"
     d="m 0.52916664,38.629165 v -6.35 H 6.8791666 v 6.35 z"
     id="path1036" />
</svg>
