<?xml version="1.0" encoding="UTF-8" standalone="no"?>
<svg
   xmlns:dc="http://purl.org/dc/elements/1.1/"
   xmlns:cc="http://creativecommons.org/ns#"
   xmlns:rdf="http://www.w3.org/1999/02/22-rdf-syntax-ns#"
   xmlns:svg="http://www.w3.org/2000/svg"
   xmlns="http://www.w3.org/2000/svg"
   xmlns:xlink="http://www.w3.org/1999/xlink"
   xmlns:sodipodi="http://sodipodi.sourceforge.net/DTD/sodipodi-0.dtd"
   xmlns:inkscape="http://www.inkscape.org/namespaces/inkscape"
   width="866"
   height="802"
   viewBox="0 0 229.12943 212.19555"
   version="1.1"
   id="svg111"
   sodipodi:docname="map-building-mansion-cellar-01a.svg"
   inkscape:version="0.92.2 (5c3e80d, 2017-08-06)">
  <metadata
     id="metadata115">
    <rdf:RDF>
      <cc:Work
         rdf:about="">
        <dc:format>image/svg+xml</dc:format>
        <dc:type
           rdf:resource="http://purl.org/dc/dcmitype/StillImage" />
        <dc:title></dc:title>
      </cc:Work>
    </rdf:RDF>
  </metadata>
  <sodipodi:namedview
     pagecolor="#ffffff"
     bordercolor="#666666"
     borderopacity="1"
     objecttolerance="10"
     gridtolerance="10"
     guidetolerance="10"
     inkscape:pageopacity="0"
     inkscape:pageshadow="2"
     inkscape:window-width="1920"
     inkscape:window-height="1017"
     id="namedview113"
     showgrid="true"
     fit-margin-bottom="1"
     fit-margin-top="1"
     fit-margin-left="1"
     fit-margin-right="1"
     inkscape:zoom="0.50862069"
     inkscape:cx="609.34141"
     inkscape:cy="350.94452"
     inkscape:window-x="1912"
     inkscape:window-y="-8"
     inkscape:window-maximized="1"
     inkscape:current-layer="svg111">
    <inkscape:grid
       type="xygrid"
       id="grid922"
       empspacing="4"
       spacingy="1.0583319"
       spacingx="1.0583346"
       originx="0.26458364"
       originy="-33.60205" />
  </sodipodi:namedview>
  <defs
     id="defs61">
    <pattern
       xlink:href="#a"
       id="d"
       patternTransform="matrix(0.18709,-0.18709,0.18709,0.18709,292.36458,118.7976)" />
    <clipPath
       id="e">
      <path
         d="m 293.132,-44.65 h 78.317 v 8.467 h -78.317 z"
         id="path3"
         inkscape:connector-curvature="0"
         style="fill:#b06e24;stroke-width:1.95099998" />
    </clipPath>
    <clipPath
       id="f">
      <path
         d="m 293.132,217.816 h 73.025 v 8.467 h -73.025 z"
         id="path6"
         inkscape:connector-curvature="0"
         style="fill:#b06e24;stroke-width:1.88300002" />
    </clipPath>
    <clipPath
       id="g">
      <path
         d="m 365.099,141.616 h 80.433 v 8.467 h -80.433 z"
         id="path9"
         inkscape:connector-curvature="0"
         style="fill:#b06e24;stroke-width:1.977" />
    </clipPath>
    <clipPath
       id="h">
      <path
         d="m 365.099,141.616 h 80.433 v 8.467 h -80.433 z"
         id="path12"
         inkscape:connector-curvature="0"
         style="fill:#b06e24;stroke-width:1.977" />
    </clipPath>
    <clipPath
       id="i">
      <path
         clip-path="url(#clipPath2845)"
         d="m 402.14,158.55 h 9.526 v -42.334 h -9.525 z"
         id="path15"
         inkscape:connector-curvature="0"
         style="fill:#a3977d;stroke-width:1.98399997" />
    </clipPath>
    <pattern
       patternUnits="userSpaceOnUse"
       width="64"
       height="64"
       patternTransform="translate(415.9 101.4) scale(.26458)"
       id="a">
      <path
         fill="none"
         stroke-width="3.78"
         d="M0 0h64v64H0z"
         id="path18" />
      <path
         fill="#312b2b"
         stroke-width="11.314"
         d="M0 0h64v64H0z"
         id="path20" />
      <path
         transform="rotate(90)"
         fill-opacity=".294"
         stroke-width="2.666"
         stroke-miterlimit="10"
         d="M14-30h2V0h-2z"
         id="path22" />
      <path
         fill-opacity=".294"
         stroke-width="3.302"
         stroke-miterlimit="10"
         d="M30 0h2v46h-2z"
         id="path24" />
      <path
         transform="rotate(90)"
         fill-opacity=".294"
         stroke-width="1.822"
         stroke-miterlimit="10"
         d="M30-14h2V0h-2z"
         id="path26" />
      <path
         fill-opacity=".294"
         stroke-width="3.373"
         stroke-miterlimit="10"
         d="M14 16h2v48h-2z"
         id="path28" />
      <path
         transform="rotate(90)"
         fill-opacity=".294"
         stroke-width="3.302"
         stroke-miterlimit="10"
         d="M46-62h2v46h-2z"
         id="path30" />
      <path
         transform="rotate(90)"
         fill-opacity=".294"
         stroke-width="2.754"
         stroke-miterlimit="10"
         d="M30-64h2v32h-2z"
         id="path32" />
      <path
         transform="rotate(90)"
         fill-opacity=".294"
         stroke-width="1.947"
         stroke-miterlimit="10"
         d="M14-64h2v16h-2z"
         id="path34" />
      <path
         fill-opacity=".294"
         stroke-width="2.666"
         stroke-miterlimit="10"
         d="M46 0h2v30h-2z"
         id="path36" />
      <path
         fill-opacity=".294"
         stroke-width="1.947"
         stroke-miterlimit="10"
         d="M46 48h2v16h-2z"
         id="path38" />
      <path
         transform="rotate(90)"
         fill-opacity=".294"
         stroke-width="2.666"
         stroke-miterlimit="10"
         d="M62-46h2v30h-2z"
         id="path40" />
      <path
         transform="rotate(90)"
         fill-opacity=".294"
         stroke-width="1.822"
         stroke-miterlimit="10"
         d="M62-14h2V0h-2z"
         id="path42" />
      <path
         fill-opacity=".294"
         stroke-width="1.822"
         stroke-miterlimit="10"
         d="M62 0h2v14h-2z"
         id="path44" />
      <path
         fill-opacity=".294"
         stroke-width="2.754"
         stroke-miterlimit="10"
         d="M62 32h2v32h-2z"
         id="path46" />
    </pattern>
    <clipPath
       id="b">
      <path
         clip-path="url(#clipPath6865)"
         d="m 402.14,158.55 h 9.526 v -42.334 h -9.525 z"
         id="path49"
         inkscape:connector-curvature="0"
         style="fill:#a3977d;stroke-width:1.98399997" />
    </clipPath>
    <clipPath
       id="c">
      <path
         d="m 351.34,147.966 h 9.526 V 92.933 h -9.525 z"
         clip-path="url(#clipPath6865)"
         id="path52"
         inkscape:connector-curvature="0"
         style="fill:#a3977d;stroke-width:2.26300001" />
    </clipPath>
    <clipPath
       id="j">
      <path
         d="m 166.132,-19.25 v 76.2 h 67.734 V -2.317 h 110.066 v 101.07 l 67.734,-0.006 v -8.46 h -59.267 v -101.07 h -127 v 59.266 h -50.8 V -19.25 Z"
         id="path55"
         inkscape:connector-curvature="0"
         style="fill:#a3977d;stroke-width:2.24300003" />
    </clipPath>
    <clipPath
       id="k">
      <path
         d="m 123.8,-19.25 v 211.666 h 67.732 v 33.867 h 93.134 v -33.867 h 67.733 v -41.804 h 59.267 v -8.467 H 343.932 V 183.95 H 276.2 v 33.866 H 200 V 183.95 h -67.733 v -203.2 z"
         id="path58"
         inkscape:connector-curvature="0"
         style="fill:#a3977d;stroke-width:2.24300003" />
    </clipPath>
  </defs>
  <path
     transform="matrix(1,0,0,1.3,-132.00142,-38.6344)"
     d="m 402.14,158.55 h 9.526 v -42.334 h -9.525 z"
     clip-path="url(#b)"
     id="path63"
     inkscape:connector-curvature="0"
     style="fill:#646464" />
  <path
     transform="translate(-115.06742,19.5146)"
     clip-path="url(#c)"
     d="m 351.34,147.966 h 9.526 V 92.933 h -9.525 z"
     id="path65"
     inkscape:connector-curvature="0"
     style="fill:#3c3c3c;stroke:#000000;stroke-width:2.1170001;stroke-opacity:0.706" />
  <path
     d="m 351.34,147.966 h 9.526 V 92.933 h -9.525 z"
     clip-path="url(#c)"
     transform="translate(-106.60142,19.5146)"
     id="path67"
     inkscape:connector-curvature="0"
     style="fill:#464646;stroke:#000000;stroke-width:2.1170001;stroke-opacity:0.706" />
  <path
     transform="translate(-98.134416,19.5146)"
     clip-path="url(#c)"
     d="m 351.34,147.966 h 9.526 V 92.933 h -9.525 z"
     id="path69"
     inkscape:connector-curvature="0"
     style="fill:#505050;stroke:#000000;stroke-width:2.1170001;stroke-opacity:0.706" />
  <path
     d="m 351.34,147.966 h 9.526 V 92.933 h -9.525 z"
     clip-path="url(#c)"
     transform="translate(-89.667416,19.5146)"
     id="path71"
     inkscape:connector-curvature="0"
     style="fill:#5a5a5a;stroke:#000000;stroke-width:2.1170001;stroke-opacity:0.706" />
  <path
     d="M 0.26458364,67.9976 H 101.86458 V 8.7306005 h 127 V 211.9306 h -67.734 v 33.867 H 67.996584 v -33.867 H 0.26458364 Z"
     id="path73"
     inkscape:connector-curvature="0"
     style="fill:url(#d)" />
  <path
     d="m 351.34,147.966 h 9.526 V 92.933 h -9.525 z"
     clip-path="url(#c)"
     transform="translate(-123.53542,19.5146)"
     id="path75"
     inkscape:connector-curvature="0"
     style="fill:#323232;stroke:#000000;stroke-width:2.1170001;stroke-opacity:0.706" />
  <path
     transform="translate(-181.74242,63.9646)"
     clip-path="url(#e)"
     d="m 293.132,-44.65 h 78.317 v 8.467 h -78.317 z"
     id="path77"
     inkscape:connector-curvature="0"
     style="fill:#4b2400;fill-opacity:0.88200001;stroke:#191919;stroke-width:2.1170001;stroke-opacity:0.50199998" />
  <path
     transform="translate(-215.08042,9.4596005)"
     clip-path="url(#f)"
     d="m 293.132,217.816 h 73.025 v 8.467 h -73.025 z"
     id="path79"
     inkscape:connector-curvature="0"
     style="fill:#4b2400;fill-opacity:0.88200001;stroke:#191919;stroke-width:2.1170001;stroke-opacity:0.50199998" />
  <path
     transform="translate(-290.75142,-15.4114)"
     clip-path="url(#g)"
     d="m 365.099,141.616 h 80.433 v 8.467 h -80.433 z"
     id="path81"
     inkscape:connector-curvature="0"
     style="fill:#4b2400;fill-opacity:0.88200001;stroke:#191919;stroke-width:2.1170001;stroke-opacity:0.50199998" />
  <path
     transform="translate(-290.75142,3.6386005)"
     clip-path="url(#h)"
     d="m 365.099,141.616 h 80.433 v 8.467 h -80.433 z"
     id="path83"
     inkscape:connector-curvature="0"
     style="fill:#4b2400;fill-opacity:0.88200001;stroke:#191919;stroke-width:2.1170001;stroke-opacity:0.50199998" />
  <path
     d="m 402.14,158.55 h 9.526 v -42.334 h -9.525 z"
     clip-path="url(#i)"
     transform="matrix(0,-1,0.975,0,-107.75542,420.3976)"
     id="path85"
     inkscape:connector-curvature="0"
     style="fill:#99541b" />
  <path
     transform="matrix(0,-1,0.975,0,-107.75542,428.8646)"
     clip-path="url(#i)"
     d="m 402.14,158.55 h 9.526 v -42.334 h -9.525 z"
     id="path87"
     inkscape:connector-curvature="0"
     style="fill:#884a18;stroke:#000000;stroke-width:2.14400005;stroke-opacity:0.706" />
  <path
     d="m 402.14,158.55 h 9.526 v -42.334 h -9.525 z"
     clip-path="url(#i)"
     transform="matrix(0,-1,0.975,0,-107.75542,437.3306)"
     id="path89"
     inkscape:connector-curvature="0"
     style="fill:#774115;stroke:#000000;stroke-width:2.14400005;stroke-opacity:0.706" />
  <path
     transform="matrix(0,-1,0.975,0,-107.75542,445.7976)"
     clip-path="url(#i)"
     d="m 402.14,158.55 h 9.526 v -42.334 h -9.525 z"
     id="path91"
     inkscape:connector-curvature="0"
     style="fill:#663812;stroke:#000000;stroke-width:2.14400005;stroke-opacity:0.706" />
  <path
     d="m 402.14,158.55 h 9.526 v -42.334 h -9.525 z"
     clip-path="url(#i)"
     transform="matrix(0,-1,0.975,0,-107.75542,454.2646)"
     id="path93"
     inkscape:connector-curvature="0"
     style="fill:#552f0f;stroke:#000000;stroke-width:2.14400005;stroke-opacity:0.706" />
  <path
     transform="matrix(0,-1,0.975,0,-107.75542,462.7306)"
     clip-path="url(#i)"
     d="m 402.14,158.55 h 9.526 v -42.334 h -9.525 z"
     id="path95"
     inkscape:connector-curvature="0"
     style="fill:#44250c;stroke:#000000;stroke-width:2.14400005;stroke-opacity:0.706" />
  <path
     d="m 402.14,158.55 h 9.526 v -42.334 h -9.525 z"
     clip-path="url(#i)"
     transform="matrix(0,-1,0.975,0,-107.75542,471.1976)"
     id="path97"
     inkscape:connector-curvature="0"
     style="fill:#331c09;stroke:#000000;stroke-width:2.14400005;stroke-opacity:0.706" />
  <g
     id="g103"
     style="fill:#462d12;stroke:#000000;stroke-width:0.52899998"
     transform="translate(0.26458364,0.26460059)">
    <path
       d="m 8.066,110.96 2.116,-2.118 h 2.117 l 2.117,-2.117 h 2.116 l 1.059,-1.15 h 2.936 l -1.22,1.316 h -0.749 l -1.592,1.69 -2.001,0.007 -1.608,1.662 h -2.116 l -3.175,2.825 z m 0.018,15.11 2.117,2.116 h 2.117 l 2.116,2.117 h 1.584 l 1.463,1.036 h 1.714 l 2.04,-2.548 h -1.886 l -0.694,0.857 -1.046,-0.005 -1.626,-1.197 -1,-0.005 -1.607,-1.662 h -2.117 l -3.175,-2.826 z m -0.018,-9.654 2.116,-2.117 h 2.117 l 2.117,-2.117 h 2.116 l 1.059,1.06 h 2.116 l 2.117,2.115 h -2.493 l -0.682,-0.663 -2.117,-0.009 -0.567,-0.646 -1,0.006 -1.608,1.662 h -2.116 l -3.175,2.825 z m 0.018,5.87 2.117,1.667 h 2.117 l 2.116,1.507 h 2.117 l 2.1,-1.5 -0.013,-1.73 2.175,-2.116 h -2.182 l -1.402,1.373 v 1.47 l -1.246,0.867 -1,-0.006 -1.864,-1.273 h -1.86 l -3.175,-2.377 z"
       id="path99"
       inkscape:connector-curvature="0" />
    <path
       d="m 8.066,118.532 h 2.936 l 2.117,-1.458 h 2.116 l 1.887,2.186 -1.887,-0.009 -0.567,-0.646 -1,0.006 -1.847,1.298 -3.737,0.012 z"
       id="path101"
       inkscape:connector-curvature="0" />
  </g>
  <path
     d="m 22.932584,184.6406 2.663,-2.663 5.663,5.662 -2.663,2.663 z m 23.599,-65.509 2.663,2.663 -5.662,5.662 -2.663,-2.663 z m 83.810996,35.924 2.663,2.663 -5.662,5.663 -2.663,-2.663 z m 80.507,26.613 -2.663,2.663 -5.662,-5.663 2.663,-2.663 z m -35.899,-125.724 -2.663,2.663 -5.663,-5.663 2.663,-2.663 z"
     id="path105"
     inkscape:connector-curvature="0"
     style="fill:#1a1a1a" />
  <path
     clip-path="url(#j)"
     d="m 166.132,-19.25 v 76.2 h 67.734 V -2.317 h 110.066 v 101.07 l 67.734,-0.006 v -8.46 h -59.267 v -101.07 h -127 v 59.266 h -50.8 V -19.25 Z"
     transform="translate(-123.53542,19.5146)"
     id="path107"
     inkscape:connector-curvature="0"
     style="fill:#ccbc9a;stroke:#000000;stroke-width:3.17499995" />
  <path
     clip-path="url(#k)"
     d="m 123.8,-19.25 v 211.666 h 67.732 v 33.867 h 93.134 v -33.867 h 67.733 v -41.804 h 59.267 v -8.467 H 343.932 V 183.95 H 276.2 v 33.866 H 200 V 183.95 h -67.733 v -203.2 z"
     transform="translate(-123.53542,19.5146)"
     id="path109"
     inkscape:connector-curvature="0"
     style="fill:#ccbc9a;stroke:#000000;stroke-width:3.17499995" />
</svg>
