<svg xmlns="http://www.w3.org/2000/svg" xmlns:xlink="http://www.w3.org/1999/xlink" width="1440" height="608" viewBox="0 0 380.999 160.867"><defs><clipPath id="c"><path clip-path="url(#clipPath6865)" d="M402.14 158.55h9.526v-42.334h-9.525z" fill="#a3977d" stroke-width="1.984"/></clipPath><clipPath id="d"><path d="M-22.25 168.075v-9.525h-46.568v9.525z" clip-path="url(#clipPath6865)" fill="#a3977d" stroke-width="2.081"/></clipPath><clipPath id="i"><ellipse ry="6.34" rx="6.35" cy="243.216" cx="-87.868" fill="#3f3f3f" fill-opacity=".611" stroke-width="2.145" stroke-opacity=".706"/></clipPath><clipPath id="e"><path d="M-70.934 202.47h50.8v-60.854h-8.467v48.155l-4.233 4.233h-25.4l-4.234-4.233v-48.155h-8.466z" fill="#a3977d" stroke-width="5.144"/></clipPath><pattern patternTransform="matrix(-.26458 0 0 .26458 304.8 220.134)" id="b" xlink:href="#a"/><pattern patternUnits="userSpaceOnUse" width="128" height="128" patternTransform="translate(403.126 141.712) scale(.26458)" id="a"><path fill="#686868" stroke-width="12" d="M0 0h64v64H0zm64 64h64v64H64z"/><path fill="#5b5b5b" stroke-width="12" d="M64 0h64v64H64zM0 64h64v64H0z"/></pattern><clipPath id="f"><path d="M640-.002v31.998L864 32l-.004 544.002L640 576v31.998l255.996.002.002-607.998z" fill="#363d4d" stroke-width="9.935"/></clipPath><clipPath id="g"><path d="M262.466 25.4H152.4v110.067h110.066l.001 25.4h16.934V152.4h-8.467V97.367h-8.467V127h-101.6V33.867h101.6V63.5h8.467V8.467h8.466V0h-16.933z" fill="#363d4d" stroke-width="3.742"/></clipPath><clipPath id="h"><ellipse ry="10.319" rx="10.335" cy="243.216" cx="-24.735" fill="#3f3f3f" fill-opacity=".612" stroke-width="3.49" stroke-opacity=".706"/></clipPath></defs><path d="M152.399 135.467V25.4h110.067l.001-25.4H381v160.867H262.467v-25.4z" fill="url(#b)"/><path transform="matrix(1 0 0 -1.1 -197.882 231.555)" d="M402.14 158.55h9.526v-42.334h-9.525z" clip-path="url(#c)" fill="#646464"/><path d="M-22.25 168.075v-9.525h-46.568v9.525z" clip-path="url(#d)" transform="matrix(0 -1 -1 0 363.867 34.9)" fill="#5a5a5a" stroke="#000" stroke-width="2.117" stroke-opacity=".706"/><path transform="matrix(0 -1 -1 0 355.4 34.9)" clip-path="url(#d)" d="M-22.25 168.075v-9.525h-46.568v9.525z" fill="#505050" stroke="#000" stroke-width="2.117" stroke-opacity=".706"/><path d="M-22.25 168.075v-9.525h-46.568v9.525z" clip-path="url(#d)" transform="matrix(0 -1 -1 0 346.934 34.9)" fill="#464646" stroke="#000" stroke-width="2.117" stroke-opacity=".706"/><path transform="matrix(0 -1 -1 0 338.467 34.9)" clip-path="url(#d)" d="M-22.25 168.075v-9.525h-46.568v9.525z" fill="#3c3c3c" stroke="#000" stroke-width="2.117" stroke-opacity=".706"/><path d="M-22.25 168.075v-9.525h-46.568v9.525z" clip-path="url(#d)" transform="matrix(0 -1 -1 0 330 34.9)" fill="#323232" stroke="#000" stroke-width="2.117" stroke-opacity=".706"/><path clip-path="url(#e)" d="M-70.934 202.47h50.8v-60.854h-8.467v48.155l-4.233 4.233h-25.4l-4.234-4.233v-48.155h-8.466z" transform="matrix(0 -1 -1 0 363.781 34.9)" fill="#1a1c21" stroke="#000" stroke-width="3.175" stroke-opacity=".706"/><path d="M321.734 76.2V8.467h8.467v59.266h8.467V76.2z" fill="#2a303d" fill-opacity=".581"/><path transform="matrix(.26458 0 0 .26458 143.934 0)" d="M640-.002v31.998L864 32l-.004 544.002L640 576v31.998l255.996.002.002-607.998z" clip-path="url(#f)" fill="#363d4d" stroke="#000" stroke-width="12"/><path d="M262.466 25.4H152.4v110.067h110.066l.001 25.4h16.934V152.4h-8.467V97.367h-8.467V127h-101.6V33.867h101.6V63.5h8.467V8.467h8.467V0h-16.934z" clip-path="url(#g)" fill="#363d4d" stroke-width="3.175" stroke="#000"/><g fill="#3f3f3f" fill-opacity=".612"><ellipse cx="115.888" cy="114.212" rx="12.67" ry="12.612"/><ellipse transform="translate(140.623 -128.916)" clip-path="url(#h)" ry="10.319" rx="10.335" cy="243.216" cx="-24.735" stroke="#404040" stroke-width="2.117" stroke-opacity=".5"/></g><path d="M113.096 96.337c-.638.107-2.204 3.978-2.799 4.23-.593.258-4.291-1.418-4.816-1.054-.533.361-.104 4.478-.514 4.97-.418.497-4.731.81-4.98 1.416-.252.608 1.726 3.733 1.591 4.37-.146.637-3.301 3.65-3.25 4.308.05.657 3.318 3.044 3.518 3.67.19.62-1.112 4.13-.78 4.705.324.573 3.47.805 3.938 1.252.467.447 1.29 3.9 1.838 4.27.545.366 3.375-.666 4.004-.476.625.192 3.052 3.422 3.693 3.478.642.055 3.203-3.46 3.832-3.55.631-.097 3.753 1.718 4.352 1.481.594-.233 1.886-3.326 2.411-3.69.523-.368 3.471-.593 3.865-1.1.397-.503-.134-3.545.139-4.128.268-.58 3.774-2.283 3.91-2.927l.005-.003c.138-.64-2.424-3.712-2.466-4.375-.04-.658 1.948-2.826 1.775-3.456-.172-.63-3.52-2.88-3.872-3.436-.351-.557.032-3.464-.432-3.926-.471-.464-4.254-.608-4.786-.981-.53-.38-1.149-3.47-1.758-3.666-.61-.188-3.787 2.084-4.429 2.028-.641-.055-3.359-3.519-3.99-3.41zm1.558 6.907c.481-.064 2.49 1.378 2.992 1.47.496.09 1.496-1.111 1.97-.946.47.166.845 1.389 1.256 1.645.411.267 1.453-.347 1.848-.032.395.315.192 1.944.497 2.329.31.39 1.591 1.495 1.773 1.96.182.46-.16 1.383-.075 1.87.086.49 2.062 1.533 2.056 2.045-.005.513-1.164.694-1.212 1.191-.054.497.62 2.559.427 3.04-.197.48-1.159.827-1.383 1.265-.219.438-.299 1.95-.651 2.329h-.001c-.353.374-2.74.545-3.119.876-.38.331.374.94-.07 1.148-.438.203-2.58-.657-3.06-.523-.486.134-.956 1.794-1.453 1.821-.497.032-1.282-.534-1.773-.651-.481-.107-1.998.758-2.484.587-.48-.17-.32-1.656-.77-1.896-.442-.24-2.723-.064-3.06-.411-.341-.353-.272-1.496-.565-1.923-.294-.417-1.459-1.042-1.71-1.464-.24-.427.096-1.826.011-2.333-.085-.502-.7-1.55-.77-2.041-.069-.492 1.261-1.293 1.283-1.784.02-.491-.63-1.394-.428-1.87.203-.48 1.074-1.26 1.309-1.698.235-.433.342-2.12.657-2.505.31-.38 1.533.24 1.902-.096.373-.337.94-1.87 1.372-2.131.438-.262 1.298-.507 1.778-.609.481-.096.973-.598 1.453-.662z" fill="#408602" fill-opacity=".941"/><g><g transform="translate(143.392 -.01)" fill="#3f3f3f" fill-opacity=".611"><ellipse cx="-107.937" cy="42.333" rx="8.467" ry="8.453"/><ellipse clip-path="url(#i)" ry="6.34" rx="6.35" cy="243.216" cx="-87.868" transform="translate(-20.07 -200.883)" stroke="#404040" stroke-width="2.117" stroke-opacity=".5"/></g><path d="M39.616 31.418c-.388-.145-2.496 1.5-2.908 1.45-.41-.047-1.926-2.162-2.334-2.128-.411.03-1.492 2.452-1.877 2.593-.391.142-2.885-1.065-3.216-.81-.335.257-.239 2.625-.517 2.935-.286.307-3.002.968-3.184 1.349-.182.381.866 2.752.776 3.163-.093.405-1.94 1.936-1.94 2.36-.003.422 1.668 1.559 1.784 1.957.116.398-.534 2.576-.348 2.957.186.378 2.086.712 2.374 1.02.286.306.597 2.875.935 3.112.339.236 2.885-.894 3.263-.742.382.148 1.532 2.155 1.94 2.215.405.061 2.112-1.24 2.52-1.274.408-.038 2.116.782 2.497.627.381-.152 1.061-2.01 1.4-2.246.334-.236 2.825-.057 3.106-.37l.004-.001c.282-.31-.156-2.836.033-3.218.19-.377 1.986-.944 2.092-1.349.107-.404-1.03-2.725-1.047-3.146-.017-.422 1.127-1.912 1.017-2.317-.112-.408-2.165-1.7-2.34-2.077-.173-.381.474-2.294.198-2.597-.278-.3-2.769-.057-3.107-.294-.338-.236-.736-3.028-1.12-3.17zm-1.348 4.331c.288.119.94 1.562 1.19 1.773.246.21 1.185-.137 1.396.107.208.243.023 1.041.17 1.315.142.28.917.273 1.035.574.118.302-.516 1.14-.47 1.451.047.316.404 1.34.356 1.656-.047.313-.532.716-.64 1.013-.11.3.652 1.511.485 1.794-.167.283-.869.012-1.055.272-.188.259-.475 1.618-.736 1.823-.263.204-.908.088-1.173.26-.262.172-.79.985-1.107 1.083-.316.094-1.695-.576-2.012-.513-.316.062-.093.64-.406.614-.308-.027-1.221-1.19-1.53-1.27-.313-.082-1.106.69-1.39.545-.286-.142-.54-.707-.775-.93-.233-.213-1.351-.219-1.566-.469-.212-.249.352-1.022.18-1.299-.169-.275-1.49-.908-1.566-1.208-.076-.305.328-.917.302-1.248-.03-.326-.475-1.045-.48-1.36.004-.314.639-.982.754-1.291.114-.306.108-1.084.227-1.379.119-.295 1.113-.313 1.283-.579.169-.266.097-.975.361-1.174.267-.202 1-.355 1.27-.523.27-.165.87-1.067 1.167-1.18.294-.11.774.625 1.086.556.316-.067 1.12-.736 1.445-.742.326-.005.882.134 1.181.232.297.1.731-.021 1.018.097z" fill="#408602" fill-opacity=".941"/></g></svg>