<svg xmlns="http://www.w3.org/2000/svg" width="256" height="256" viewBox="0 0 67.733 67.733"><defs><clipPath id="c"><path fill="#595959" stroke-width="1.984" stroke-linecap="round" stroke-miterlimit="10" d="M8.467 16.933h31.75v31.75H8.467z"/></clipPath><clipPath id="b"><path d="M25.4 50.8V40.217H10.583L0 50.8z" fill="#595959" stroke-width=".286"/></clipPath><clipPath id="a"><path d="M0 33.867h14.11v19.755L0 67.733z" fill="#595959"/></clipPath></defs><path fill="#252c19" d="M0 33.867h14.11v19.755L0 67.733z" clip-path="url(#a)" stroke="#000" stroke-width="3.175"/><path clip-path="url(#b)" d="M25.4 50.8V40.217H10.583L0 50.8z" transform="rotate(180 33.867 33.867) scale(1.33333)" fill="#252c19" stroke="#000" stroke-width="2.381"/><path transform="matrix(1.33333 0 0 -1.33333 0 67.733)" d="M25.4 50.8V40.217H10.583L0 50.8z" clip-path="url(#b)" fill="#252c19" stroke="#000" stroke-width="2.381"/><ellipse ry=".871" rx=".871" cy="9.712" cx="3.845" transform="matrix(0 1 1 0 0 0)" fill="#151e09" stroke="#000" stroke-width=".604" stroke-linecap="round"/><ellipse transform="matrix(0 1 1 0 0 0)" cx="10.186" cy="16.062" rx=".871" ry=".871" fill="#151e09" stroke="#000" stroke-width=".604" stroke-linecap="round"/><ellipse transform="rotate(-90)" cx="-10.186" cy="51.671" rx=".871" ry=".871" fill="#151e09" stroke="#000" stroke-width=".604" stroke-linecap="round"/><ellipse ry=".871" rx=".871" cy="58.021" cx="-3.845" transform="rotate(-90)" fill="#151e09" stroke="#000" stroke-width=".604" stroke-linecap="round"/><path transform="scale(1.33333)" d="M25.4 50.8V40.217H10.583L0 50.8z" clip-path="url(#b)" fill="#252c19" stroke="#000" stroke-width="2.381"/><path clip-path="url(#b)" d="M25.4 50.8V40.217H10.583L0 50.8z" transform="matrix(-1.33333 0 0 1.33333 67.733 0)" fill="#252c19" stroke="#000" stroke-width="2.381"/><ellipse transform="matrix(0 -1 -1 0 0 0)" cx="-63.888" cy="-58.021" rx=".871" ry=".871" fill="#151e09" stroke="#000" stroke-width=".604" stroke-linecap="round"/><ellipse ry=".871" rx=".871" cy="-51.671" cx="-57.547" transform="matrix(0 -1 -1 0 0 0)" fill="#151e09" stroke="#000" stroke-width=".604" stroke-linecap="round"/><ellipse ry=".871" rx=".871" cy="-16.062" cx="57.547" transform="rotate(90)" fill="#151e09" stroke="#000" stroke-width=".604" stroke-linecap="round"/><ellipse transform="rotate(90)" cx="63.888" cy="-9.712" rx=".871" ry=".871" fill="#151e09" stroke="#000" stroke-width=".604" stroke-linecap="round"/><path transform="matrix(0 -1.33333 1.33333 0 0 67.733)" d="M25.4 50.8V40.217H10.583L0 50.8z" clip-path="url(#b)" fill="#252c19" stroke="#000" stroke-width="2.381"/><path clip-path="url(#b)" d="M25.4 50.8V40.217H10.583L0 50.8z" transform="matrix(0 1.33333 1.33333 0 0 0)" fill="#252c19" stroke="#000" stroke-width="2.381"/><ellipse transform="scale(-1 1)" cx="-63.888" cy="9.712" rx=".871" ry=".871" fill="#151e09" stroke="#000" stroke-width=".604" stroke-linecap="round"/><ellipse ry=".871" rx=".871" cy="16.062" cx="-57.547" transform="scale(-1 1)" fill="#151e09" stroke="#000" stroke-width=".604" stroke-linecap="round"/><ellipse ry=".871" rx=".871" cy="51.671" cx="57.547" fill="#151e09" stroke="#000" stroke-width=".604" stroke-linecap="round"/><ellipse cx="63.888" cy="58.021" rx=".871" ry=".871" fill="#151e09" stroke="#000" stroke-width=".604" stroke-linecap="round"/><path clip-path="url(#b)" d="M25.4 50.8V40.217H10.583L0 50.8z" transform="matrix(0 1.33333 -1.33333 0 67.733 0)" stroke-width="2.381" stroke="#000" fill="#252c19"/><ellipse ry=".871" rx=".871" cy="-58.021" cx="3.845" transform="scale(1 -1)" fill="#151e09" stroke="#000" stroke-width=".604" stroke-linecap="round"/><ellipse transform="scale(1 -1)" cx="10.186" cy="-51.671" rx=".871" ry=".871" fill="#151e09" stroke="#000" stroke-width=".604" stroke-linecap="round"/><ellipse cx="-10.186" cy="-16.062" rx=".871" ry=".871" transform="scale(-1)" fill="#151e09" stroke="#000" stroke-width=".604" stroke-linecap="round"/><ellipse ry=".871" rx=".871" cy="-9.712" cx="-3.845" transform="scale(-1)" fill="#151e09" stroke="#000" stroke-width=".604" stroke-linecap="round"/><path clip-path="url(#c)" transform="translate(1.411 -9.878) scale(1.33333)" fill="#364024" stroke="#000" stroke-width="3.175" stroke-linecap="round" stroke-miterlimit="10" d="M8.467 16.933h31.75v31.75H8.467z"/><path d="M33.867 20.9A12.966 12.966 0 0 0 20.9 33.868a12.966 12.966 0 0 0 12.966 12.966 12.966 12.966 0 0 0 12.966-12.966A12.966 12.966 0 0 0 33.867 20.9zm-5.848 4.355l13.056 7.487s.55.419.8.67a5.898 5.898 0 0 1 1.734 4.184 5.915 5.915 0 0 1-10.099 4.181c-.104-.104-.297-.32-.297-.32l-6.736-9.137 3.093 1.476-4.528-5.453 4.7 2.37-4.727-5.37 5.322 3.052zm6.062 4.736a1.246 1.246 0 1 0 0 2.493 1.246 1.246 0 0 0 0-2.493zm-3.59 1.56a.527.527 0 1 0 0 1.054.527.527 0 0 0 0-1.053zm6.683 1.702l-.299 1.987-1.518-1.317.535 1.937-1.923-.586 1.277 1.553-1.995.246 1.798.899-1.723 1.036 2.009.09-1.152 1.648 1.871-.735-.382 1.974 1.41-1.432.454 1.958.707-1.882 1.21 1.605-.12-2.007 1.759.973-.927-1.784 2.003.174-1.572-1.253 1.9-.656-1.945-.506 1.47-1.372-1.984.33.785-1.851-1.679 1.107-.036-2.01-1.082 1.695zm-5.546 1.217a.752.752 0 1 0 0 1.504.752.752 0 0 0 0-1.504z" fill-opacity=".626"/><ellipse ry=".871" rx=".871" cy="17.15" cx="17.12" transform="matrix(0 1 1 0 0 0)" fill="#151e09" stroke="#000" stroke-width=".604" stroke-linecap="round"/><ellipse transform="matrix(0 1 1 0 0 0)" cx="50.613" cy="17.15" rx=".871" ry=".871" fill="#151e09" stroke="#000" stroke-width=".604" stroke-linecap="round"/><ellipse transform="matrix(0 1 1 0 0 0)" cx="17.12" cy="50.613" rx=".871" ry=".871" fill="#151e09" stroke="#000" stroke-width=".604" stroke-linecap="round"/><ellipse ry=".871" rx=".871" cy="50.613" cx="50.613" transform="matrix(0 1 1 0 0 0)" fill="#151e09" stroke="#000" stroke-width=".604" stroke-linecap="round"/></svg>