<svg xmlns="http://www.w3.org/2000/svg" width="56" height="104" viewBox="0 0 14.817 27.517"><defs><clipPath id="b"><rect width="27.517" height="6.35" x="-168.075" y="-54.001" rx="1.058" ry="1.058" fill="#b7ebff" stroke-width="2.989"/></clipPath><clipPath id="a"><path d="M-39.184 162.783V145.85c0-2.117-2.117-4.234-4.234-4.234h-6.35c-2.116 0-4.233 2.117-4.233 4.234v16.933c0 2.117 2.117 4.233 4.233 4.233h6.35c2.117 0 4.234-2.116 4.234-4.233z" fill="#400" stroke-width="2.993"/></clipPath></defs><g transform="translate(54.001 -140.558)" stroke="#000" stroke-width="3.175"><path clip-path="url(#a)" d="M-39.184 162.783V145.85c0-2.117-2.117-4.234-4.234-4.234h-6.35c-2.116 0-4.233 2.117-4.233 4.234v16.933c0 2.117 2.117 4.233 4.233 4.233h6.35c2.117 0 4.234-2.116 4.234-4.233z" fill="#400"/><rect transform="rotate(-90 2.117 -2.117)" ry="1.058" rx="1.058" y="-54.001" x="-168.075" height="6.35" width="27.517" clip-path="url(#b)" fill="#a0e4ff" fill-opacity=".788"/></g></svg>