<?xml version="1.0" encoding="UTF-8" standalone="no"?>
<svg
   xmlns:dc="http://purl.org/dc/elements/1.1/"
   xmlns:cc="http://creativecommons.org/ns#"
   xmlns:rdf="http://www.w3.org/1999/02/22-rdf-syntax-ns#"
   xmlns:svg="http://www.w3.org/2000/svg"
   xmlns="http://www.w3.org/2000/svg"
   xmlns:sodipodi="http://sodipodi.sourceforge.net/DTD/sodipodi-0.dtd"
   xmlns:inkscape="http://www.inkscape.org/namespaces/inkscape"
   width="140"
   height="102"
   viewBox="0 0 37.042 26.988"
   version="1.1"
   id="svg32"
   sodipodi:docname="map-case-meteor-01.svg"
   inkscape:version="0.92.2 (5c3e80d, 2017-08-06)">
  <metadata
     id="metadata36">
    <rdf:RDF>
      <cc:Work
         rdf:about="">
        <dc:format>image/svg+xml</dc:format>
        <dc:type
           rdf:resource="http://purl.org/dc/dcmitype/StillImage" />
      </cc:Work>
    </rdf:RDF>
  </metadata>
  <sodipodi:namedview
     pagecolor="#ffffff"
     bordercolor="#666666"
     borderopacity="1"
     objecttolerance="10"
     gridtolerance="10"
     guidetolerance="10"
     inkscape:pageopacity="0"
     inkscape:pageshadow="2"
     inkscape:window-width="1920"
     inkscape:window-height="1017"
     id="namedview34"
     showgrid="false"
     inkscape:zoom="2.0285714"
     inkscape:cx="-30.167419"
     inkscape:cy="88.357376"
     inkscape:window-x="1912"
     inkscape:window-y="-8"
     inkscape:window-maximized="1"
     inkscape:current-layer="svg32" />
  <defs
     id="defs8">
    <clipPath
       id="a">
      <rect
         ry="2.117"
         height="26.988"
         width="37.042"
         rx="2.117"
         fill="#282828"
         stroke-width="5.608"
         id="rect2" />
    </clipPath>
    <clipPath
       id="b">
      <path
         d="M-45.534 209.35l29.33 16.933v33.867l-29.33 16.933-29.33-16.933v-33.867z"
         fill-opacity=".506"
         stroke="#fff"
         stroke-width="2.117"
         stroke-opacity=".502"
         id="path5" />
    </clipPath>
    <clipPath
       id="e-7">
      <path
         d="m -45.534,209.35 29.33,16.933 v 33.867 l -29.33,16.933 -29.33,-16.933 v -33.867 z"
         id="path14-0"
         inkscape:connector-curvature="0"
         style="fill-opacity:0.506;stroke:#ffffff;stroke-width:2.1170001;stroke-opacity:0.50199998" />
    </clipPath>
  </defs>
  <rect
     rx="2.117"
     width="37.042"
     height="26.988"
     ry="2.117"
     clip-path="url(#a)"
     fill="#282828"
     stroke-width="3.175"
     stroke="#191919"
     id="rect10"
     style="fill:#335a00;fill-opacity:1" />
  <rect
     width="2.117"
     height="30.692"
     x="2.646"
     y="-33.867"
     ry="1.058"
     transform="rotate(90)"
     rx="1.058"
     fill="#5b5b5b"
     stroke="#191919"
     stroke-width="1.058"
     id="rect12"
     style="fill:#71aa00;fill-opacity:1" />
  <rect
     rx="1.058"
     transform="rotate(90)"
     ry="1.058"
     y="-33.867"
     x="22.225"
     height="30.692"
     width="2.117"
     fill="#5b5b5b"
     stroke="#191919"
     stroke-width="1.058"
     id="rect14"
     style="fill:#71aa00;fill-opacity:1" />
  <rect
     width="2.117"
     height="4.763"
     x="17.463"
     y="-7.937"
     ry="1.058"
     transform="rotate(90)"
     rx="1.058"
     fill="#5b5b5b"
     stroke="#191919"
     stroke-width="1.058"
     id="rect16"
     style="fill:#71aa00;fill-opacity:1" />
  <rect
     rx="1.058"
     transform="rotate(90)"
     ry="1.058"
     y="-7.937"
     x="12.435"
     height="4.763"
     width="2.117"
     fill="#5b5b5b"
     stroke="#191919"
     stroke-width="1.058"
     id="rect18"
     style="fill:#71aa00;fill-opacity:1" />
  <rect
     width="2.117"
     height="4.763"
     x="7.408"
     y="-7.937"
     ry="1.058"
     transform="rotate(90)"
     rx="1.058"
     fill="#5b5b5b"
     stroke="#191919"
     stroke-width="1.058"
     id="rect20"
     style="fill:#71aa00;fill-opacity:1" />
  <rect
     rx="1.058"
     transform="rotate(90)"
     ry="1.058"
     y="-33.867"
     x="17.463"
     height="4.763"
     width="2.117"
     fill="#5b5b5b"
     stroke="#191919"
     stroke-width="1.058"
     id="rect22"
     style="fill:#71aa00;fill-opacity:1" />
  <rect
     width="2.117"
     height="4.763"
     x="12.435"
     y="-33.867"
     ry="1.058"
     transform="rotate(90)"
     rx="1.058"
     fill="#5b5b5b"
     stroke="#191919"
     stroke-width="1.058"
     id="rect24"
     style="fill:#71aa00;fill-opacity:1" />
  <rect
     rx="1.058"
     transform="rotate(90)"
     ry="1.058"
     y="-33.867"
     x="7.408"
     height="4.763"
     width="2.117"
     fill="#5b5b5b"
     stroke="#191919"
     stroke-width="1.058"
     id="rect26"
     style="fill:#71aa00;fill-opacity:1" />
  <g
     transform="matrix(0.95154309,0,0,0.95155589,3.1615507,-8.3673417)"
     id="g851">
    <path
       style="fill-opacity:0.50199998;stroke:#ffffff;stroke-width:4.01100016"
       inkscape:connector-curvature="0"
       id="path33"
       transform="matrix(-0.22167,-0.12798,0.12798,-0.22167,-25.078747,71.060672)"
       d="m -45.534,209.35 29.33,16.933 v 33.867 l -29.33,16.933 -29.33,-16.933 v -33.867 z"
       clip-path="url(#e-7)" />
    <path
       id="path915"
       d="M 16.1417,18.642276 A 4.3320229,4.3320229 0 0 0 11.809677,22.9743 4.3320229,4.3320229 0 0 0 16.1417,27.306323 4.3320229,4.3320229 0 0 0 20.473723,22.9743 4.3320229,4.3320229 0 0 0 16.1417,18.642276 Z m -1.953697,1.454839 4.36203,2.501292 c 0,0 0.183818,0.139969 0.267593,0.224047 0.38593,0.385931 0.578957,0.89186 0.578957,1.397754 0,0.505789 -0.193027,1.011345 -0.578957,1.397077 -0.771675,0.771861 -2.023184,0.771861 -2.795057,0 -0.03475,-0.03475 -0.09928,-0.106947 -0.09928,-0.106947 l -2.250396,-3.052947 1.033142,0.493444 -1.512824,-1.822157 1.570133,0.791948 -1.578932,-1.793954 1.777935,1.019379 z m 2.02522,1.582316 c -0.229829,4.9e-5 -0.416232,0.18645 -0.41628,0.416281 -9e-5,0.229927 0.186353,0.416458 0.41628,0.416506 0.229928,-4.8e-5 0.416145,-0.186579 0.416055,-0.416506 -4.9e-5,-0.229831 -0.186225,-0.416232 -0.416055,-0.416281 z m -1.199429,0.521423 c -0.09722,-2.6e-5 -0.176013,0.07877 -0.175988,0.175988 -2.5e-5,0.09722 0.07878,0.17624 0.175988,0.176214 0.09712,-1.11e-4 0.175789,-0.0791 0.175763,-0.176214 2.5e-5,-0.09712 -0.07864,-0.175876 -0.175763,-0.175988 z m 2.233022,0.568352 -0.09995,0.664018 -0.507207,-0.440197 0.178696,0.647322 -0.642358,-0.195844 0.426659,0.518715 -0.666725,0.08235 0.600842,0.300309 -0.575572,0.346336 0.671012,0.03001 -0.384918,0.550527 0.62521,-0.245481 -0.127704,0.65928 0.471333,-0.478327 0.15162,0.654315 0.236006,-0.62882 0.404547,0.536088 -0.04039,-0.670561 0.587756,0.325353 -0.309559,-0.596105 0.669208,0.05799 -0.525258,-0.418762 0.634912,-0.219083 -0.650029,-0.168994 0.490962,-0.458246 -0.662664,0.110105 0.262178,-0.618441 -0.560681,0.370027 -0.01219,-0.671464 -0.361453,0.566096 z m -1.853067,0.406579 c -0.138926,4.5e-5 -0.251441,0.112645 -0.251348,0.251573 4.5e-5,0.138828 0.112519,0.251303 0.251348,0.251347 0.138828,-4.4e-5 0.251302,-0.112519 0.251347,-0.251347 9.4e-5,-0.138928 -0.112421,-0.251528 -0.251347,-0.251573 z"
       style="fill:#fefefe;fill-opacity:1;stroke:none;stroke-width:0.70997036;stroke-linecap:round;stroke-linejoin:miter;stroke-miterlimit:4;stroke-dasharray:none;stroke-opacity:0.98823529"
       inkscape:connector-curvature="0" />
  </g>
</svg>
