<svg xmlns="http://www.w3.org/2000/svg" width="1440" height="864"><defs><clipPath id="c"><path stroke-miterlimit="10" d="M32 0h1440v432H32z" fill="#814e3a" stroke-width="167.976"/></clipPath><clipPath id="b"><path d="M0 0v432h1440V0zm224 176h112v-16h128v48h96v64h-32v64H384v-32H256v-32h48v-48h-80zm768-40h208v32h48v56h-48v16h-192v32h-80v-40h-32v-80h96z" stroke-miterlimit="10" fill="#52647f" stroke-width="80.839"/></clipPath><clipPath id="a"><path stroke-miterlimit="10" d="M0 432v432h1440V432zm1360 112v160h-80v-48h-48v-32h-32v-64h32v-48h48v32zM144 496h80v64h-32v96h32v48h-64v-32h-32v-64h-16v-96h32zm560 128h176v32h64v80H752v48H608v-32h-96v-64h48v-32h144z" fill="#414f64" stroke-width="8"/></clipPath></defs><path d="M0 432v432h1440V432zm1360 112v160h-80v-48h-48v-32h-32v-64h32v-48h48v32zM144 496h80v64h-32v96h32v48h-64v-32h-32v-64h-16v-96h32zm560 128h176v32h64v80H752v48H608v-32h-96v-64h48v-32h144z" clip-path="url(#a)" stroke-miterlimit="10" fill="#222e40" stroke="#191919" stroke-width="8"/><path stroke-miterlimit="10" d="M0 0v432h1440V0zm224 176h112v-16h128v48h96v64h-32v64H384v-32H256v-32h48v-48h-80zm768-40h208v32h48v56h-48v16h-192v32h-80v-40h-32v-80h96z" clip-path="url(#b)" fill="#2a394f" stroke-width="8" stroke="#191919"/><path d="M224 176h112v-16h128v48h96v64h-32v64H384v-32H256v-32h48v-48h-80zM896 152v80h32v40h80v-32h192v-16h48v-56h-48v-32H992v16h-96M112 512v96h16v64h32v32h64v-48h-32v-96h32v-64h-80v16zM512 688v64h96v32h144v-48h192v-80h-64v-32H704v32H560v32zM1232 512h48v32h80v160h-80v-48h-48v-32h-32v-64h32z" fill="#52647e" fill-opacity=".392"/><path d="M32 0h1440v432H32z" stroke-miterlimit="10" clip-path="url(#c)" transform="translate(-32)" fill="none" stroke="#191919" stroke-width="16"/><path clip-path="url(#c)" stroke-miterlimit="10" d="M32 0h1440v432H32z" transform="translate(-32 432)" fill="none" stroke="#191919" stroke-width="16"/></svg>