<?xml version="1.0" encoding="UTF-8" standalone="no"?>
<!-- Created with Inkscape (http://www.inkscape.org/) -->

<svg width="60.023335" height="230.12744" version="1.1" viewBox="0 0 15.881096 60.887586" xml:space="preserve" id="svg7" sodipodi:docname="map-plane-01x.svg" inkscape:version="1.4 (e7c3feb100, 2024-10-09)" xmlns:inkscape="http://www.inkscape.org/namespaces/inkscape" xmlns:sodipodi="http://sodipodi.sourceforge.net/DTD/sodipodi-0.dtd" xmlns="http://www.w3.org/2000/svg" xmlns:svg="http://www.w3.org/2000/svg"><sodipodi:namedview id="namedview7" pagecolor="#ffffff" bordercolor="#000000" borderopacity="0.25" inkscape:showpageshadow="2" inkscape:pageopacity="0.0" inkscape:pagecheckerboard="0" inkscape:deskcolor="#d1d1d1" inkscape:zoom="1.9375" inkscape:cx="29.677419" inkscape:cy="113.03226" inkscape:current-layer="svg7" /><defs id="defs1"><filter id="filter28" x="-0.10703134" y="-0.039853536" width="1.2140627" height="1.0797071" color-interpolation-filters="sRGB"><feGaussianBlur stdDeviation="0.30666079" id="feGaussianBlur1" /></filter></defs><g transform="translate(145.09576,-119.69787)" id="g7"><g transform="matrix(0.97142,0,0,0.97142,60.184,11.624)" stroke-width="0.27929" id="g6"><path d="m -203.38,128.77 v 1.7846 l -6.1574,-0.002 v 0.38346 l 6.1574,0.002 v 19.873 l -6.1576,0.001 v 0.38347 l 6.1576,-0.001 -0.0301,1.1711 -3.2609,0.002 -0.51263,0.52231 0.005,3.0012 v 1.773 h -0.008 c -0.25969,0 -0.47325,0.19912 -0.47325,0.44597 v 0.0563 c 0,0.24685 0.21356,0.44545 0.47325,0.44545 h 0.008 v 5.0731 c 0,0 -0.85,1.7468 -0.85256,6.2864 h -0.0171 c -0.27264,0 -0.49214,0.21134 -0.49214,0.47387 0,0.24271 0.1904,0.43386 0.43418,0.46251 -3e-5,0.004 -5.4e-4,0.007 -5.4e-4,0.0108 v 0.004 c 0,0.7027 0.59691,1.279 1.3267,1.279 h 7.3022 c 0.72979,0 1.3283,-0.57629 1.3283,-1.279 v -0.004 c 0,-0.0124 -0.001,-0.0244 -0.002,-0.0367 0.17727,-0.0715 0.30109,-0.23942 0.30109,-0.43667 0,-0.26253 -0.2195,-0.47387 -0.49215,-0.47387 h -0.0171 c -0.003,-4.3157 -0.85308,-6.2864 -0.85308,-6.2864 v -5.0731 h 0.008 c 0.25969,0 0.47325,-0.1986 0.47325,-0.44545 v -0.0563 c 0,-0.24685 -0.21356,-0.44597 -0.47325,-0.44597 h -0.008 v -1.773 l 0.005,-2.9896 -0.54714,-0.53404 -3.2252,-0.002 -0.0301,-1.171 5.9666,0.001 v -0.38347 l -5.9666,-0.001 v -19.873 l 5.9666,-0.002 v -0.38346 l -5.9666,0.002 v -1.7846 z m -2.9286,24.527 2.8985,-0.002 0.0231,1.537 h 0.38379 l 0.0231,-1.5371 2.8979,0.002 -0.0261,0.47557 -0.73426,2.2353 h -4.7062 l -0.73521,-2.2353 z m -0.28699,0.95853 0.30494,1.6804 -0.40686,-0.0427 z m 6.8004,0 0.10028,1.6381 -0.4069,0.0427 z m -7.6242,16.664 h 8.5822 v 0.003 c 0,0.3474 -0.28002,0.61702 -0.64081,0.61702 h -7.3022 c -0.36081,0 -0.63921,-0.26962 -0.63921,-0.61702 z" filter="url(#filter28)" style="mix-blend-mode:normal" id="path1" /><path d="m -210.34,111.99 c -0.0966,0.008 -0.25082,0.0975 -0.24299,0.19947 l 0.0759,2.5056 1.2894,-0.0957 -0.97683,1.1199 c -0.0701,0.14894 -0.0629,0.37654 0.0161,0.50886 0.0793,0.13243 0.20067,0.11904 0.27107,-0.0303 l 1.3757,-1.2771 0.19599,-0.11707 c 0,0.44679 -0.32205,1.6465 -0.5735,2.5704 -0.56651,0.86532 -0.80059,-0.84101 -1.127,-0.87634 -0.0276,-0.002 -0.054,0.0171 -0.0799,0.0619 -0.33398,0.58908 0.61928,2.2477 0.33347,3.3257 l -0.0189,0.94055 c 0,1.5822 0.91349,2.9028 0.91349,3.9279 0,1.0251 -0.51826,2.112 -0.50535,2.6365 0.0116,0.46963 0.18051,1.0528 0.33233,1.2267 -0.0537,0.0824 -0.0865,0.20816 -0.0909,0.45786 -0.003,0.19153 0.0124,0.41278 0.0342,0.62477 0.0436,0.42396 0.11327,0.60395 0.11327,0.60395 0.0185,0.1 0.11659,0.16696 0.22009,0.15037 0.10468,-0.0171 0.33582,-0.0926 0.32008,-0.19691 0,0 -0.0584,-0.17461 -0.0949,-0.59458 -0.0183,-0.20999 -0.0305,-0.42599 -0.028,-0.59739 -0.0233,-0.13834 -0.14724,-0.21578 -0.11324,-0.31998 l 0.4109,0.15477 c -9e-5,0.46231 0.5047,0.83712 0.97597,0.83716 0.47126,-4e-5 0.97603,-0.37487 0.97594,-0.83716 l 0.30621,-0.14702 c 0.0595,0.0916 -0.12215,0.18866 -0.11344,0.31218 0.003,0.17139 -0.0101,0.3874 -0.0283,0.59739 -0.0366,0.41997 -0.0968,0.59458 -0.0968,0.59458 -0.0158,0.10446 0.21538,0.18008 0.32028,0.19691 0.10434,0.0179 0.20381,-0.0495 0.22224,-0.15037 0,0 0.0691,-0.17999 0.1127,-0.60395 0.0218,-0.21199 0.0382,-0.43324 0.0348,-0.62477 -0.003,-0.15978 -0.023,-0.34967 -0.0899,-0.45527 0.16394,-0.17851 0.3115,-0.75535 0.32318,-1.2293 0.0129,-0.52449 -0.50592,-1.9133 -0.50592,-2.6365 0,-0.7232 1.0212,-2.2859 1.0212,-3.9279 0,-0.28856 0.0764,-0.58162 -0.009,-0.92039 0.007,0.01 -0.005,-0.0269 0.002,-0.0177 -0.35285,-1.0719 0.67035,-2.7436 0.33888,-3.3282 -0.0259,-0.0456 -0.0528,-0.0649 -0.0804,-0.0619 -0.32668,0.0354 -0.56119,1.7438 -1.1282,0.87485 -2.2e-4,0.002 -3.8e-4,0.005 -5.9e-4,0.007 -0.26445,-0.93626 -0.58673,-2.1236 -0.58673,-2.5761 l 0.22527,0.11762 1.3728,1.2772 c 0.0703,0.1493 0.19182,0.16269 0.27107,0.0301 0.079,-0.13225 0.0862,-0.35998 0.0161,-0.50887 l -0.95345,-1.1415 1.5802,0.0939 0.0759,-2.4823 c 0.008,-0.10197 -0.066,-0.19147 -0.16507,-0.19947 -0.0996,-0.008 -0.37475,0.0695 -0.38112,0.17209 l -0.10992,1.7508 -1.8477,0.0882 c -0.5577,-0.54186 -0.35758,-1.6607 -1.1045,-1.6607 -0.74692,0 -0.59598,1.1197 -1.105,1.6576 l -1.5227,-0.0851 -0.0934,-1.7508 c -0.007,-0.1026 -0.206,-0.17981 -0.3032,-0.17209 z" filter="url(#filter28)" style="mix-blend-mode:normal" id="path2" /><path d="m -202.34,111.99 c -0.0966,0.008 -0.25082,0.0975 -0.24299,0.19947 l 0.0759,2.5056 1.2894,-0.0957 -0.97683,1.1199 c -0.0701,0.14894 -0.0629,0.37654 0.0161,0.50886 0.0793,0.13243 0.20067,0.11904 0.27107,-0.0303 l 1.3757,-1.2771 0.19599,-0.11707 c 0,0.44679 -0.32205,1.6465 -0.5735,2.5704 -0.56651,0.86532 -0.80059,-0.84101 -1.127,-0.87634 -0.0276,-0.002 -0.054,0.0171 -0.0799,0.0619 -0.33398,0.58908 0.61928,2.2477 0.33347,3.3257 l -0.0189,0.94055 c 0,1.5822 0.91349,2.9028 0.91349,3.9279 0,1.0251 -0.51826,2.112 -0.50535,2.6365 0.0116,0.46963 0.18051,1.0528 0.33233,1.2267 -0.0537,0.0824 -0.0865,0.20816 -0.0909,0.45786 -0.003,0.19153 0.0124,0.41278 0.0342,0.62477 0.0436,0.42396 0.11327,0.60395 0.11327,0.60395 0.0185,0.1 0.11659,0.16696 0.22009,0.15037 0.10468,-0.0171 0.33582,-0.0926 0.32008,-0.19691 0,0 -0.0584,-0.17461 -0.0949,-0.59458 -0.0183,-0.20999 -0.0305,-0.42599 -0.028,-0.59739 -0.0233,-0.13834 -0.14724,-0.21578 -0.11324,-0.31998 l 0.4109,0.15477 c -9e-5,0.46231 0.5047,0.83712 0.97597,0.83716 0.47126,-4e-5 0.97603,-0.37487 0.97594,-0.83716 l 0.30621,-0.14702 c 0.0595,0.0916 -0.12215,0.18866 -0.11344,0.31218 0.003,0.17139 -0.0101,0.3874 -0.0283,0.59739 -0.0366,0.41997 -0.0968,0.59458 -0.0968,0.59458 -0.0158,0.10446 0.21538,0.18008 0.32028,0.19691 0.10434,0.0179 0.20381,-0.0495 0.22224,-0.15037 0,0 0.0691,-0.17999 0.1127,-0.60395 0.0218,-0.21199 0.0382,-0.43324 0.0348,-0.62477 -0.003,-0.15978 -0.023,-0.34967 -0.0899,-0.45527 0.16394,-0.17851 0.3115,-0.75535 0.32318,-1.2293 0.0129,-0.52449 -0.50592,-1.9133 -0.50592,-2.6365 0,-0.7232 1.0212,-2.2859 1.0212,-3.9279 0,-0.28856 0.0764,-0.58162 -0.009,-0.92039 0.007,0.01 -0.005,-0.0269 0.002,-0.0177 -0.35285,-1.0719 0.67035,-2.7436 0.33888,-3.3282 -0.0259,-0.0456 -0.0528,-0.0649 -0.0804,-0.0619 -0.32668,0.0354 -0.56119,1.7438 -1.1282,0.87485 -2.2e-4,0.002 -3.8e-4,0.005 -5.9e-4,0.007 -0.26445,-0.93626 -0.58673,-2.1236 -0.58673,-2.5761 l 0.22527,0.11762 1.3728,1.2772 c 0.0703,0.1493 0.19182,0.16269 0.27107,0.0301 0.079,-0.13225 0.0862,-0.35998 0.0161,-0.50887 l -0.95345,-1.1415 1.5802,0.0939 0.0759,-2.4823 c 0.008,-0.10197 -0.066,-0.19147 -0.16507,-0.19947 -0.0996,-0.008 -0.37475,0.0695 -0.38112,0.17209 l -0.10992,1.7508 -1.8477,0.0882 c -0.5577,-0.54186 -0.35758,-1.6607 -1.1045,-1.6607 -0.74692,0 -0.59598,1.1197 -1.105,1.6576 l -1.5227,-0.0851 -0.0934,-1.7508 c -0.007,-0.1026 -0.206,-0.17981 -0.3032,-0.17209 z" filter="url(#filter28)" style="mix-blend-mode:normal" id="path3" /><g transform="translate(0,19.691)" id="g5"><path d="m -210.34,111.99 c -0.0966,0.008 -0.25082,0.0975 -0.24299,0.19947 l 0.0759,2.5056 1.2894,-0.0957 -0.97683,1.1199 c -0.0701,0.14894 -0.0629,0.37654 0.0161,0.50886 0.0793,0.13243 0.20067,0.11904 0.27107,-0.0303 l 1.3757,-1.2771 0.19599,-0.11707 c 0,0.44679 -0.32205,1.6465 -0.5735,2.5704 -0.56651,0.86532 -0.80059,-0.84101 -1.127,-0.87634 -0.0276,-0.002 -0.054,0.0171 -0.0799,0.0619 -0.33398,0.58908 0.61928,2.2477 0.33347,3.3257 l -0.0189,0.94055 c 0,1.5822 0.91349,2.9028 0.91349,3.9279 0,1.0251 -0.51826,2.112 -0.50535,2.6365 0.0116,0.46963 0.18051,1.0528 0.33233,1.2267 -0.0537,0.0824 -0.0865,0.20816 -0.0909,0.45786 -0.003,0.19153 0.0124,0.41278 0.0342,0.62477 0.0436,0.42396 0.11327,0.60395 0.11327,0.60395 0.0185,0.1 0.11659,0.16696 0.22009,0.15037 0.10468,-0.0171 0.33582,-0.0926 0.32008,-0.19691 0,0 -0.0584,-0.17461 -0.0949,-0.59458 -0.0183,-0.20999 -0.0305,-0.42599 -0.028,-0.59739 -0.0233,-0.13834 -0.14724,-0.21578 -0.11324,-0.31998 l 0.4109,0.15477 c -9e-5,0.46231 0.5047,0.83712 0.97597,0.83716 0.47126,-4e-5 0.97603,-0.37487 0.97594,-0.83716 l 0.30621,-0.14702 c 0.0595,0.0916 -0.12215,0.18866 -0.11344,0.31218 0.003,0.17139 -0.0101,0.3874 -0.0283,0.59739 -0.0366,0.41997 -0.0968,0.59458 -0.0968,0.59458 -0.0158,0.10446 0.21538,0.18008 0.32028,0.19691 0.10434,0.0179 0.20381,-0.0495 0.22224,-0.15037 0,0 0.0691,-0.17999 0.1127,-0.60395 0.0218,-0.21199 0.0382,-0.43324 0.0348,-0.62477 -0.003,-0.15978 -0.023,-0.34967 -0.0899,-0.45527 0.16394,-0.17851 0.3115,-0.75535 0.32318,-1.2293 0.0129,-0.52449 -0.50592,-1.9133 -0.50592,-2.6365 0,-0.7232 1.0212,-2.2859 1.0212,-3.9279 0,-0.28856 0.0764,-0.58162 -0.009,-0.92039 0.007,0.01 -0.005,-0.0269 0.002,-0.0177 -0.35285,-1.0719 0.67035,-2.7436 0.33888,-3.3282 -0.0259,-0.0456 -0.0528,-0.0649 -0.0804,-0.0619 -0.32668,0.0354 -0.56119,1.7438 -1.1282,0.87485 -2.2e-4,0.002 -3.8e-4,0.005 -5.9e-4,0.007 -0.26445,-0.93626 -0.58673,-2.1236 -0.58673,-2.5761 l 0.22527,0.11762 1.3728,1.2772 c 0.0703,0.1493 0.19182,0.16269 0.27107,0.0301 0.079,-0.13225 0.0862,-0.35998 0.0161,-0.50887 l -0.95345,-1.1415 1.5802,0.0939 0.0759,-2.4823 c 0.008,-0.10197 -0.066,-0.19147 -0.16507,-0.19947 -0.0996,-0.008 -0.37475,0.0695 -0.38112,0.17209 l -0.10992,1.7508 -1.8477,0.0882 c -0.5577,-0.54186 -0.35758,-1.6607 -1.1045,-1.6607 -0.74692,0 -0.59598,1.1197 -1.105,1.6576 l -1.5227,-0.0851 -0.0934,-1.7508 c -0.007,-0.1026 -0.206,-0.17981 -0.3032,-0.17209 z" filter="url(#filter28)" style="mix-blend-mode:normal" id="path4" /><path d="m -202.34,111.99 c -0.0966,0.008 -0.25082,0.0975 -0.24299,0.19947 l 0.0759,2.5056 1.2894,-0.0957 -0.97683,1.1199 c -0.0701,0.14894 -0.0629,0.37654 0.0161,0.50886 0.0793,0.13243 0.20067,0.11904 0.27107,-0.0303 l 1.3757,-1.2771 0.19599,-0.11707 c 0,0.44679 -0.32205,1.6465 -0.5735,2.5704 -0.56651,0.86532 -0.80059,-0.84101 -1.127,-0.87634 -0.0276,-0.002 -0.054,0.0171 -0.0799,0.0619 -0.33398,0.58908 0.61928,2.2477 0.33347,3.3257 l -0.0189,0.94055 c 0,1.5822 0.91349,2.9028 0.91349,3.9279 0,1.0251 -0.51826,2.112 -0.50535,2.6365 0.0116,0.46963 0.18051,1.0528 0.33233,1.2267 -0.0537,0.0824 -0.0865,0.20816 -0.0909,0.45786 -0.003,0.19153 0.0124,0.41278 0.0342,0.62477 0.0436,0.42396 0.11327,0.60395 0.11327,0.60395 0.0185,0.1 0.11659,0.16696 0.22009,0.15037 0.10468,-0.0171 0.33582,-0.0926 0.32008,-0.19691 0,0 -0.0584,-0.17461 -0.0949,-0.59458 -0.0183,-0.20999 -0.0305,-0.42599 -0.028,-0.59739 -0.0233,-0.13834 -0.14724,-0.21578 -0.11324,-0.31998 l 0.4109,0.15477 c -9e-5,0.46231 0.5047,0.83712 0.97597,0.83716 0.47126,-4e-5 0.97603,-0.37487 0.97594,-0.83716 l 0.30621,-0.14702 c 0.0595,0.0916 -0.12215,0.18866 -0.11344,0.31218 0.003,0.17139 -0.0101,0.3874 -0.0283,0.59739 -0.0366,0.41997 -0.0968,0.59458 -0.0968,0.59458 -0.0158,0.10446 0.21538,0.18008 0.32028,0.19691 0.10434,0.0179 0.20381,-0.0495 0.22224,-0.15037 0,0 0.0691,-0.17999 0.1127,-0.60395 0.0218,-0.21199 0.0382,-0.43324 0.0348,-0.62477 -0.003,-0.15978 -0.023,-0.34967 -0.0899,-0.45527 0.16394,-0.17851 0.3115,-0.75535 0.32318,-1.2293 0.0129,-0.52449 -0.50592,-1.9133 -0.50592,-2.6365 0,-0.7232 1.0212,-2.2859 1.0212,-3.9279 0,-0.28856 0.0764,-0.58162 -0.009,-0.92039 0.007,0.01 -0.005,-0.0269 0.002,-0.0177 -0.35285,-1.0719 0.67035,-2.7436 0.33888,-3.3282 -0.0259,-0.0456 -0.0528,-0.0649 -0.0804,-0.0619 -0.32668,0.0354 -0.56119,1.7438 -1.1282,0.87485 -2.2e-4,0.002 -3.8e-4,0.005 -5.9e-4,0.007 -0.26445,-0.93626 -0.58673,-2.1236 -0.58673,-2.5761 l 0.22527,0.11762 1.3728,1.2772 c 0.0703,0.1493 0.19182,0.16269 0.27107,0.0301 0.079,-0.13225 0.0862,-0.35998 0.0161,-0.50887 l -0.95345,-1.1415 1.5802,0.0939 0.0759,-2.4823 c 0.008,-0.10197 -0.066,-0.19147 -0.16507,-0.19947 -0.0996,-0.008 -0.37475,0.0695 -0.38112,0.17209 l -0.10992,1.7508 -1.8477,0.0882 c -0.5577,-0.54186 -0.35758,-1.6607 -1.1045,-1.6607 -0.74692,0 -0.59598,1.1197 -1.105,1.6576 l -1.5227,-0.0851 -0.0934,-1.7508 c -0.007,-0.1026 -0.206,-0.17981 -0.3032,-0.17209 z" filter="url(#filter28)" style="mix-blend-mode:normal" id="path5" /></g></g></g></svg>
