<?xml version="1.0" encoding="UTF-8" standalone="no"?>
<svg
   xmlns:dc="http://purl.org/dc/elements/1.1/"
   xmlns:cc="http://creativecommons.org/ns#"
   xmlns:rdf="http://www.w3.org/1999/02/22-rdf-syntax-ns#"
   xmlns:svg="http://www.w3.org/2000/svg"
   xmlns="http://www.w3.org/2000/svg"
   xmlns:sodipodi="http://sodipodi.sourceforge.net/DTD/sodipodi-0.dtd"
   xmlns:inkscape="http://www.inkscape.org/namespaces/inkscape"
   width="172"
   height="89"
   viewBox="0 0 45.508333 23.547917"
   version="1.1"
   id="svg22"
   sodipodi:docname="map-crate-mil-04.svg"
   inkscape:version="0.92.2 (5c3e80d, 2017-08-06)">
  <metadata
     id="metadata28">
    <rdf:RDF>
      <cc:Work
         rdf:about="">
        <dc:format>image/svg+xml</dc:format>
        <dc:type
           rdf:resource="http://purl.org/dc/dcmitype/StillImage" />
        <dc:title />
      </cc:Work>
    </rdf:RDF>
  </metadata>
  <defs
     id="defs26">
    <clipPath
       clipPathUnits="userSpaceOnUse"
       id="clipPath903">
      <rect
         style="fill:#434e35;fill-opacity:1;stroke-width:0.92099494"
         rx="0"
         y="-1.499361e-006"
         x="-23.283335"
         height="45.508331"
         width="6.3500018"
         id="rect905" />
    </clipPath>
    <clipPath
       clipPathUnits="userSpaceOnUse"
       id="clipPath917">
      <path
         style="fill:#4d2600;stroke:none;stroke-width:1.25554967;stroke-miterlimit:10"
         inkscape:connector-curvature="0"
         id="path919"
         d="M 13.758332,1.8520831 V 25.4 H 8.4666651 V 1.8520831 Z"
         stroke-miterlimit="10"
         clip-path="none" />
    </clipPath>
    <clipPath
       clipPathUnits="userSpaceOnUse"
       id="clipPath927">
      <path
         style="fill:#888888;stroke:none;stroke-width:1.44111466;stroke-miterlimit:10"
         inkscape:connector-curvature="0"
         id="path929"
         d="M 39.158331,6.8791664 V 2.910413 h 3.96875 v 3.9687534 z"
         stroke-miterlimit="10" />
    </clipPath>
  </defs>
  <sodipodi:namedview
     pagecolor="#ffffff"
     bordercolor="#666666"
     borderopacity="1"
     objecttolerance="10"
     gridtolerance="10"
     guidetolerance="10"
     inkscape:pageopacity="0"
     inkscape:pageshadow="2"
     inkscape:window-width="1920"
     inkscape:window-height="1017"
     id="namedview24"
     showgrid="true"
     fit-margin-top="0"
     fit-margin-left="0"
     fit-margin-right="0"
     fit-margin-bottom="0"
     inkscape:object-paths="true"
     inkscape:snap-intersection-paths="true"
     inkscape:snap-smooth-nodes="true"
     inkscape:snap-midpoints="true"
     inkscape:zoom="2.317739"
     inkscape:cx="-2.5897171"
     inkscape:cy="86.425553"
     inkscape:window-x="1912"
     inkscape:window-y="-8"
     inkscape:window-maximized="1"
     inkscape:current-layer="svg22">
    <inkscape:grid
       type="xygrid"
       id="grid974"
       empspacing="4"
       originx="2.0767095e-014"
       originy="34.925001" />
  </sodipodi:namedview>
  <rect
     clip-path="url(#clipPath903)"
     style="fill:#374626;fill-opacity:1;stroke:#191919;stroke-width:2.64583325;stroke-miterlimit:4;stroke-dasharray:none;stroke-opacity:1"
     rx="0"
     y="-1.499361e-006"
     x="-23.283335"
     height="45.508331"
     width="6.3500023"
     id="rect907"
     transform="rotate(-90,-2.9104166,-2.9104181)" />
  <rect
     transform="rotate(-90,-5.4239583,-5.4239598)"
     id="rect909"
     width="6.3500023"
     height="45.508331"
     x="-23.283335"
     y="-1.499361e-006"
     rx="0"
     style="fill:#374626;fill-opacity:1;stroke:#191919;stroke-width:2.64583325;stroke-miterlimit:4;stroke-dasharray:none;stroke-opacity:1"
     clip-path="url(#clipPath903)" />
  <rect
     clip-path="url(#clipPath903)"
     style="fill:#374626;fill-opacity:1;stroke:#191919;stroke-width:2.64583325;stroke-miterlimit:4;stroke-dasharray:none;stroke-opacity:1"
     rx="0"
     y="-1.499361e-006"
     x="-23.283335"
     height="45.508331"
     width="6.3500023"
     id="rect911"
     transform="rotate(-90,-7.9374999,-7.9375014)" />
  <rect
     transform="rotate(-90,-0.39687491,-0.39687641)"
     id="rect901"
     width="6.3500023"
     height="45.508331"
     x="-23.283335"
     y="-1.499361e-006"
     rx="0"
     style="fill:#374626;fill-opacity:1;stroke:#191919;stroke-width:2.64583325;stroke-miterlimit:4;stroke-dasharray:none;stroke-opacity:1"
     clip-path="url(#clipPath903)" />
  <path
     clip-path="url(#clipPath917)"
     stroke-miterlimit="10"
     d="M 13.758332,1.8520831 V 25.4 H 8.4666651 V 1.8520831 Z"
     id="path915"
     inkscape:connector-curvature="0"
     style="fill:#224a20;fill-opacity:1;stroke:#191919;stroke-width:2.64583325;stroke-miterlimit:10;stroke-dasharray:none;stroke-opacity:1"
     transform="translate(1.499361e-6,-1.8520831)" />
  <path
     style="fill:#224a20;fill-opacity:1;stroke:#191919;stroke-width:2.64583325;stroke-miterlimit:10;stroke-dasharray:none;stroke-opacity:1"
     inkscape:connector-curvature="0"
     id="path921"
     d="M 13.758332,1.8520831 V 25.4 H 8.4666651 V 1.8520831 Z"
     stroke-miterlimit="10"
     clip-path="url(#clipPath917)"
     transform="translate(24.341668,-1.8520831)" />
  <path
     stroke-miterlimit="10"
     d="M 39.158332,6.8791665 V 2.910413 h 3.96875 v 3.9687535 z"
     id="path925"
     inkscape:connector-curvature="0"
     style="fill:#888888;stroke:#191919;stroke-width:2.64583325;stroke-miterlimit:10;stroke-dasharray:none;stroke-opacity:1"
     clip-path="url(#clipPath927)"
     transform="translate(1.499361e-6,-1.8520831)" />
  <path
     clip-path="url(#clipPath927)"
     style="fill:#888888;stroke:#191919;stroke-width:2.64583325;stroke-miterlimit:10;stroke-dasharray:none;stroke-opacity:1"
     inkscape:connector-curvature="0"
     id="path931"
     d="M 39.158332,6.8791665 V 2.910413 h 3.96875 v 3.9687535 z"
     stroke-miterlimit="10"
     transform="translate(1.499361e-6,15.610417)" />
  <path
     clip-path="url(#clipPath927)"
     style="fill:#888888;stroke:#191919;stroke-width:2.64583325;stroke-miterlimit:10;stroke-dasharray:none;stroke-opacity:1"
     inkscape:connector-curvature="0"
     id="path933"
     d="M 39.158332,6.8791665 V 2.910413 h 3.96875 v 3.9687535 z"
     stroke-miterlimit="10"
     transform="translate(-36.247916,-1.8520831)" />
  <path
     transform="translate(-36.247916,15.610417)"
     stroke-miterlimit="10"
     d="M 39.158332,6.8791665 V 2.910413 h 3.96875 v 3.9687535 z"
     id="path935"
     inkscape:connector-curvature="0"
     style="fill:#888888;stroke:#191919;stroke-width:2.64583325;stroke-miterlimit:10;stroke-dasharray:none;stroke-opacity:1"
     clip-path="url(#clipPath927)" />
  <g
     id="g870"
     transform="matrix(0.57063313,0,0,0.57063313,33.190613,5.1531183)">
    <path
       style="fill:#ffd600;fill-opacity:1;stroke:#ffd600;stroke-width:0.26458332;stroke-miterlimit:4;stroke-dasharray:none;stroke-opacity:1"
       inkscape:connector-curvature="0"
       id="path1133"
       d="m -18.613228,13.463692 c 3.814815,2.847787 8.135521,1.901065 8.135521,1.901065 l -0.0079,-0.155743 0.19444,-0.03801 -0.443601,-2.05351 c 0,0 -3.71856,0.562894 -6.301953,-1.400486 z"
       sodipodi:nodetypes="ccccccc" />
    <path
       sodipodi:nodetypes="cccccccccccc"
       d="m -19.786551,20.35921 c 0.07481,0.125896 -0.107795,0.240172 -0.107795,0.240172 0,0 -0.583635,0.599511 -1.0227,0.385608 -0.122695,-0.07995 -0.250419,-0.231586 -0.250419,-0.231586 l -0.959254,-2.152287 c -0.311535,-0.311534 -0.82194,-0.352259 -0.82194,-0.352259 l -0.05382,-0.05382 1.507011,-1.634201 0.171696,0.211499 c 0.20643,0.227066 -0.08676,0.454595 0.01258,0.778426 l 1.124329,2.398271 c 0.164213,0.149617 0.336462,0.349973 0.400319,0.410182 z"
       id="path1135"
       inkscape:connector-curvature="0"
       style="fill:#ffd600;fill-opacity:1;stroke:#ffd600;stroke-width:0.26458332;stroke-miterlimit:4;stroke-dasharray:none;stroke-opacity:1" />
    <path
       sodipodi:nodetypes="cccccccc"
       d="m -24.963233,16.921427 1.160492,0.887099 7.573927,-8.2568909 -1.29162,-1.2916196 1.1742,-1.1741996 -0.35226,-0.3522599 -8.454237,8.454237 z"
       id="path1137"
       inkscape:connector-curvature="0"
       style="fill:#ffd600;fill-opacity:1;stroke:#ffd600;stroke-width:0.26458332;stroke-miterlimit:4;stroke-dasharray:none;stroke-opacity:1" />
    <path
       style="fill:#ffd600;fill-opacity:1;stroke:none;stroke-width:0.64774889;stroke-opacity:0.4848485"
       inkscape:connector-curvature="0"
       id="path1139"
       d="m -19.667126,15.492604 c 0.107813,-0.177576 0.02108,-0.243178 -0.08321,-0.243178 -0.917756,0.333894 -0.887043,-0.709059 -0.887043,-0.709059 l -0.726607,0.762483 c 0.35579,0.184283 0.592073,0.05382 0.592073,0.05382 0.414286,0.265378 0.796413,0.347467 1.104785,0.13593 z"
       sodipodi:nodetypes="cccccc" />
    <path
       sodipodi:nodetypes="cccccc"
       inkscape:connector-curvature="0"
       id="path1141"
       d="m -19.815033,13.500835 0.990468,0.990467 c 0.273685,0.361266 0.107649,0.645898 0.107649,0.645898 l -1.189618,1.189619 c 0,0 -0.301968,0.197967 -0.699723,-0.05382 l -0.990467,-0.990468"
       style="fill:none;stroke:#ffd600;stroke-width:0.5291667;stroke-linecap:butt;stroke-linejoin:miter;stroke-miterlimit:4;stroke-dasharray:none;stroke-opacity:1" />
    <path
       style="fill:#ffd600;fill-opacity:1;stroke:#ffd600;stroke-width:0.26458332;stroke-miterlimit:4;stroke-dasharray:none;stroke-opacity:1"
       inkscape:connector-curvature="0"
       id="path1143"
       d="m -31.350785,25.099999 2.732725,2.005573 c 0.127371,0.0398 0.282219,-0.20498 0.282219,-0.20498 l 4.071703,-8.343187 -1.132475,-0.876698 -1.533873,2.236189 c 0,0 -0.308991,0.338786 -0.860638,0.507657 z"
       sodipodi:nodetypes="cccccccc" />
    <path
       style="fill:#ffd600;fill-opacity:1;stroke:#ffd600;stroke-width:0.26458332;stroke-miterlimit:4;stroke-dasharray:none;stroke-opacity:1"
       inkscape:connector-curvature="0"
       id="path1145"
       d="m -16.285985,8.2631866 0.821939,0.8219399 c 0.139312,0.067666 0.35226,-0.11742 0.35226,-0.11742 l 0.46968,-1.1741996 2.935499,-2.9354991 c 0,0 0.107469,-0.1751338 0,-0.2348391 l -1.52646,-1.5264596 -3.001174,2.8698231 1.122455,1.1224547 z"
       sodipodi:nodetypes="cccccccccc" />
    <path
       sodipodi:nodetypes="cccccccccccccccccccccccccccccccccccccccc"
       inkscape:connector-curvature="0"
       style="fill:#ffd600;fill-opacity:1;stroke-width:0.0459784"
       d="m -7.8589546,-3.5150217 c -0.1174216,0.1174196 -6e-7,0.2348406 -6e-7,0.2348406 l 0.3522592,0.3522591 0.4696801,1.1742 0.1174196,0.1174196 -1.7270712,1.72707204 c 0,0 -0.6507874,0.52739604 -1.7613015,0.11742096 l -1.996138,1.9961388 -0.11742,-0.11742 -0.182094,0.1820934 -0.287587,0.2875871 1.887205,1.8872047 0.287587,-0.2875869 -0.125905,-0.1259054 5.7840237,-5.784024 5e-7,-0.2348406 -0.1174196,-0.1174196 -0.064673,0.064673 -0.1174229,-0.1174191 0.4169348,-0.4169344 -0.469682,-0.4696783 -0.3522573,0.3522588 -1.2916192,-1.2916192 c 0,0 -0.1174198,-0.1174198 -0.2348414,-2e-7 z m -3.9580534,6.3064509 1.7613,-1.7612995 0.23484,0.23484 -1.7613,1.7612996 z m 0.665419,0.7436213 1.8004007,-1.800401 0.1174199,0.1174198 -1.8962636,1.8962636 z M -8.1769874,0.56044976 -6.1458168,-1.470722 -5.8868971,-1.4948 -8.0595674,0.67786989 Z"
       id="path1147" />
  </g>
</svg>
