<?xml version="1.0" encoding="UTF-8" standalone="no"?>
<svg
   xmlns:dc="http://purl.org/dc/elements/1.1/"
   xmlns:cc="http://creativecommons.org/ns#"
   xmlns:rdf="http://www.w3.org/1999/02/22-rdf-syntax-ns#"
   xmlns:svg="http://www.w3.org/2000/svg"
   xmlns="http://www.w3.org/2000/svg"
   xmlns:sodipodi="http://sodipodi.sourceforge.net/DTD/sodipodi-0.dtd"
   xmlns:inkscape="http://www.inkscape.org/namespaces/inkscape"
   width="152"
   height="160"
   viewBox="0 0 40.215822 42.333889"
   version="1.1"
   id="svg11"
   sodipodi:docname="map-web-01.svg"
   inkscape:version="0.92.2 (5c3e80d, 2017-08-06)">
  <metadata
     id="metadata15">
    <rdf:RDF>
      <cc:Work
         rdf:about="">
        <dc:format>image/svg+xml</dc:format>
        <dc:type
           rdf:resource="http://purl.org/dc/dcmitype/StillImage" />
        <dc:title></dc:title>
      </cc:Work>
    </rdf:RDF>
  </metadata>
  <sodipodi:namedview
     pagecolor="#ffffff"
     bordercolor="#666666"
     borderopacity="1"
     objecttolerance="10"
     gridtolerance="10"
     guidetolerance="10"
     inkscape:pageopacity="0"
     inkscape:pageshadow="2"
     inkscape:window-width="1920"
     inkscape:window-height="1017"
     id="namedview13"
     showgrid="false"
     fit-margin-top="0"
     fit-margin-left="0"
     fit-margin-right="0"
     fit-margin-bottom="0"
     inkscape:zoom="1.1588694"
     inkscape:cx="2.9139058"
     inkscape:cy="183.63228"
     inkscape:window-x="1912"
     inkscape:window-y="-8"
     inkscape:window-maximized="1"
     inkscape:current-layer="svg11" />
  <defs
     id="defs5">
    <clipPath
       id="a">
      <path
         stroke-miterlimit="10"
         d="m -169.334,-203.201 h 16.933 v 76.2 h -16.933 z"
         id="path2"
         inkscape:connector-curvature="0"
         style="fill:#0e5229;fill-opacity:0.86299995;stroke-width:3.17499995;stroke-linecap:square;stroke-miterlimit:10" />
    </clipPath>
  </defs>
  <path
     inkscape:connector-curvature="0"
     style="fill:#353b45;fill-opacity:1;stroke-width:0.08509465"
     d="M 39.169069,0.29036582 H 1.0466654 c -0.11819436,0 -0.23562006,0.0239301 -0.34658226,0.0698721 C 0.47772764,0.45209372 0.30073,0.62906053 0.20882372,0.85149318 0.16285378,0.96239228 0.13900765,1.0798894 0.13900765,1.1980852 V 41.135818 c 0,0.501798 0.40590359,0.907705 0.90770115,0.907705 0.5018075,0 0.9077124,-0.405907 0.9077124,-0.907705 v -4.98875 C 9.5743867,30.201577 19.30939,28.029368 28.734467,30.169231 l 2.531477,2.531489 c 0.17717,0.17733 0.409567,0.265924 0.641782,0.265924 0.23214,0 0.464537,-0.08864 0.641707,-0.265924 0.354497,-0.354503 0.354497,-0.928891 0,-1.283492 L 30.01123,28.878864 C 27.872885,19.46067 30.0412,9.7236242 35.982833,2.1057052 h 3.186277 c 0.501722,0 0.907704,-0.4059078 0.907704,-0.9077054 0,-0.5017963 -0.405893,-0.90762278 -0.907704,-0.90762278 z M 10.664241,9.5319846 3.2378549,2.1057752 H 13.963274 C 12.993362,2.9283011 12.185905,3.9398232 11.603681,5.1142061 10.91348,6.5043144 10.627055,8.009384 10.664241,9.5319846 Z M 9.3740287,10.808924 C 7.8618162,10.774618 6.3545329,11.062162 4.9627246,11.754142 3.788416,12.337211 2.7768953,13.145286 1.9543778,14.115177 V 3.3891697 Z M 1.9543778,17.718859 C 2.6175127,15.818187 3.9617617,14.277706 5.7695062,13.380726 7.559476,12.491743 9.5814127,12.353048 11.539097,12.974063 l 6.481745,6.481748 C 12.176626,18.373494 6.2109829,20.180306 1.9543778,24.285534 Z M 12.814744,11.68259 C 12.194069,9.7679562 12.332011,7.7276371 13.229413,5.9208252 14.125459,4.1140147 15.666866,2.7688401 17.568473,2.1056898 h 6.566502 C 20.028816,6.3645128 18.224551,12.33161 19.306704,18.174461 Z M 1.9543778,33.889051 V 26.966598 C 6.1503944,21.902696 12.896955,19.787086 19.239219,21.594233 l 1.287055,0.366841 5.950927,5.950938 C 17.826316,26.654564 9.0965425,28.765415 1.9543778,33.889051 Z M 27.754899,26.62282 21.808912,20.676671 21.442923,19.389776 C 19.634995,13.046386 21.752407,6.3034049 26.815287,2.1057752 h 6.90781 C 28.603033,9.2476907 26.494483,17.973888 27.754899,26.62282 Z"
     id="path984" />
</svg>
