<svg xmlns="http://www.w3.org/2000/svg" width="144" height="110" viewBox="0 0 38.1 29.104"><defs><clipPath id="b"><rect width="38.1" height="12.7" y="258.9" rx="0" fill="#393939" stroke-width="1.192"/></clipPath><clipPath id="c"><rect width="8.467" height="8.467" x="14.817" y="299.117" rx="1.058" ry="1.058" fill="#e30000" stroke-width="3.766"/></clipPath><clipPath id="a"><rect rx="0" y="279.008" height="17.992" width="38.1" fill="#585858" stroke-width="1.419"/></clipPath><clipPath id="d"><circle cx="19.05" cy="302.556" r="3.969" fill="#e30000" stroke-width="3.175"/></clipPath><clipPath id="e"><circle cx="19.05" cy="302.556" r="3.969" fill="#e30000" stroke-width="3.175"/></clipPath></defs><g transform="translate(0 -267.896)"><rect width="38.1" height="17.992" y="279.008" rx="0" clip-path="url(#a)" fill="#585858" stroke="#191919" stroke-width="3.175"/><rect clip-path="url(#b)" rx="0" y="258.9" height="12.7" width="38.1" transform="translate(0 8.996)" fill="#393939" stroke="#191919" stroke-width="3.175"/><path d="M12.806 270.012h9.313c.424 0 .75.269.847.847.423 2.54.423 4.233 0 6.773-.097.579-.423.847-.847.847h-9.313c-.423 0-.75-.268-.847-.847-.423-2.54-.423-4.233 0-6.773.097-.578.424-.847.847-.847zm12.7 0h9.313c.424 0 .75.269.847.847.423 2.54.423 4.233 0 6.773-.097.579-.423.847-.847.847h-9.313c-.423 0-.75-.268-.847-.847-.423-2.54-.423-4.233 0-6.773.097-.578.424-.847.847-.847z" fill="#585858"/><rect width="4.233" height="8.467" x="5.821" y="284.3" ry=".529" fill="#1a1a1a"/><path fill="#989898" d="M7.408 284.3h1.058v8.467H7.408z"/><rect width="5.292" height="2.117" x="5.292" y="289.062" rx=".661" ry=".529" fill="#040404"/><rect ry="1.058" rx="1.058" y="299.117" x="14.817" height="8.467" width="8.467" clip-path="url(#c)" transform="translate(0 -14.817)" fill="#e30000" stroke="#191919" stroke-width="3.175"/><circle r="3.969" cy="302.556" cx="19.05" clip-path="url(#d)" transform="matrix(.4 0 0 .4 24.66 171.215)" fill="#202020"/><circle transform="matrix(.4 0 0 .4 20.426 171.215)" clip-path="url(#d)" cx="19.05" cy="302.556" r="3.969" fill="#202020"/><circle r="3.969" cy="302.556" cx="19.05" clip-path="url(#e)" transform="translate(12.383 3.501) scale(.93333)" fill="#202020"/><rect width="5.292" height=".529" x="27.517" y="284.565" rx=".265" ry=".265" fill="#5b5b5b"/><rect width="3.704" height=".529" x="28.31" y="287.74" rx=".265" ry=".265" fill="#5b5b5b"/><rect width="5.821" height=".529" x="27.252" y="285.623" rx=".265" ry=".265" fill="#5b5b5b"/><rect width="5.292" height=".529" x="27.517" y="286.681" rx=".265" ry=".265" fill="#5b5b5b"/><rect width="3.704" height=".529" x="28.31" y="283.506" rx=".265" ry=".265" fill="#5b5b5b"/><path fill="#202020" d="M2.91 271.203h2.91v2.91H2.91zm3.969 0h2.91v2.91h-2.91zm-3.969 3.44h2.91v2.91H2.91zm3.969 0h2.91v2.91h-2.91z"/><path d="M17.198 273.188l1.323-1.588-.53 2.117 2.647.529-2.646.529 1.058 2.117-1.587-1.588-2.117 1.059 1.058-1.588-2.116-.794h2.116l-1.058-1.852zm10.076 2.545l1.906-1.337-1.058-1.63 1.62.936 2.095-1.383-.68 1.552 2.456.986-2.182.036-.4 1.62-1.133-1.209z" fill="#232323"/></g></svg>