<svg xmlns="http://www.w3.org/2000/svg" xmlns:xlink="http://www.w3.org/1999/xlink" width="1520" height="432" viewBox="0 0 402.168 114.3"><defs><clipPath id="h"><path d="M114.3 76.2v127h-5.291v-127z" fill="#5d2f09" stroke-width=".748"/></clipPath><clipPath id="g"><path d="M-22.25 168.075v-9.525h-46.568v9.525z" clip-path="url(#clipPath6865)" fill="#a3977d" stroke-width="2.081"/></clipPath><clipPath id="f"><path clip-path="url(#clipPath6865)" d="M402.14 158.55h9.526v-42.334h-9.525z" fill="#a3977d" stroke-width="1.984"/></clipPath><clipPath id="e"><path d="M496.26-65.722v-10.054h-25.4v10.054z" fill="#252525" stroke-width="1.467"/></clipPath><clipPath id="d"><path d="M110.596 76.2v127h12.171v-127z" fill="#3b3b3b" stroke-width="4.7"/></clipPath><pattern xlink:href="#a" id="c" patternTransform="rotate(90 169.334 150.284) scale(.06615)"/><pattern patternUnits="userSpaceOnUse" width="128" height="128" patternTransform="translate(0 -38.1) scale(.26458)" id="a"><path fill="none" stroke-width="3.78" d="M0 0h128v128H0z"/><path fill="none" stroke-width="3.78" d="M0 0h128v128H0z"/><path d="M0 0h128v128H0z" fill="#2e2d2a" stroke-width="15.118" stroke-miterlimit="10"/><path d="M60 128V68H0v-8h60V0h8v60h60v8H68v60z" fill="#6f6f6f" fill-opacity=".303" stroke-width="1.414"/></pattern><clipPath id="i"><path d="M84.667 67.734v16.933h8.467V76.2h267.759v-8.466z" fill="#1b1e25" stroke-width="2.226"/></clipPath><clipPath id="j"><path d="M0 0v84.667h50.8v-50.8H127v-25.4h127.001v28.575h106.892v-8.467h-98.425V0z" fill="#1b1e25" stroke-width="2.226"/></clipPath><filter id="b" x="-.013" width="1.026" y="-.037" height="1.074" color-interpolation-filters="sRGB"><feGaussianBlur stdDeviation="1.457"/></filter></defs><path transform="matrix(1.01065 0 0 .99953 19.59 18.79)" d="M-4.723-3.975h269.126v84.707H95.807v9.53H-4.723z" fill="#130902" fill-opacity=".945" filter="url(#b)"/><path d="M273.051 19.05v76.2H61.384v-76.2z" fill="url(#c)"/><path d="M110.596 76.2v127h12.171v-127z" clip-path="url(#d)" transform="rotate(-90 109.274 39.422)" fill="#3b3b3b" stroke="#191919" stroke-width="3.175"/><path transform="rotate(-180 365.606 -19.896)" d="M496.26-65.722v-10.054h-25.4v10.054z" clip-path="url(#e)" fill="#252525" stroke="#191919" stroke-width="3.175"/><path clip-path="url(#e)" d="M496.26-65.722v-10.054h-25.4v10.054z" transform="rotate(-180 327.506 -19.896)" fill="#252525" stroke="#191919" stroke-width="3.175"/><path clip-path="url(#e)" d="M496.26-65.722v-10.054h-25.4v10.054z" transform="rotate(-180 346.556 -19.896)" fill="#252525" stroke="#191919" stroke-width="3.175"/><path d="M281.518 95.25h-8.467V27.517h8.467z" fill="#302e28"/><path clip-path="url(#f)" d="M402.14 158.55h9.526v-42.334h-9.525z" transform="matrix(1 0 0 1.1 -79.347 -79.471)" fill="#646464"/><path transform="rotate(90 182.61 299.792)" clip-path="url(#g)" d="M-22.25 168.075v-9.525h-46.568v9.525z" fill="#5a5a5a" stroke="#000" stroke-width="2.117" stroke-opacity=".706"/><path d="M-22.25 168.075v-9.525h-46.568v9.525z" clip-path="url(#g)" transform="rotate(90 178.375 295.558)" fill="#505050" stroke="#000" stroke-width="2.117" stroke-opacity=".706"/><path transform="rotate(90 174.143 291.326)" clip-path="url(#g)" d="M-22.25 168.075v-9.525h-46.568v9.525z" fill="#464646" stroke="#000" stroke-width="2.117" stroke-opacity=".706"/><path d="M-22.25 168.075v-9.525h-46.568v9.525z" clip-path="url(#g)" transform="rotate(90 169.91 287.092)" fill="#3c3c3c" stroke="#000" stroke-width="2.117" stroke-opacity=".706"/><path transform="rotate(90 165.675 282.858)" clip-path="url(#g)" d="M-22.25 168.075v-9.525h-46.568v9.525z" fill="#323232" stroke="#000" stroke-width="2.117" stroke-opacity=".706"/><path d="M114.3 76.2v127h-5.291v-127z" clip-path="url(#h)" transform="rotate(-90 109.274 39.422)" fill="#5d2f09" stroke="#191919" stroke-width="2.117"/><path d="M84.667 67.734v16.933h8.467V76.2h267.759v-8.466z" clip-path="url(#i)" transform="translate(19.05 19.05)" fill="#1b1e25" stroke="#000" stroke-width="3.175" stroke-opacity=".706"/><path d="M0 0v84.667h50.8v-50.8H127v-25.4h127.001v28.575h106.892v-8.467h-98.425V0z" clip-path="url(#j)" transform="translate(19.05 19.05)" fill="#1b1e25" stroke="#000" stroke-width="3.175" stroke-opacity=".706"/><path d="M69.85 89.958l6.35-5.291 12.7 1.058 14.817-3.175 6.35 4.233h-6.35v8.467H69.85z" fill="#005a8e" fill-opacity=".485"/></svg>