<svg xmlns="http://www.w3.org/2000/svg" xmlns:xlink="http://www.w3.org/1999/xlink" width="1600" height="1088" viewBox="0 0 423.333 287.867"><defs><pattern xlink:href="#a" id="e" patternTransform="translate(-288.006 480.007) scale(1.00002)"/><pattern xlink:href="#b" id="q" patternTransform="rotate(-45 395.938 192.477) scale(.26458)"/><pattern xlink:href="#c" id="f" patternTransform="matrix(0 .0926 -.0926 0 98.4 31.55)"/><pattern patternUnits="userSpaceOnUse" width="160" height="160" patternTransform="translate(142.971 268.336) scale(.26458)" id="c"><path fill="none" stroke-width="3.78" d="M0 0h160v160H0z"/><path fill="none" stroke-width="3.78" d="M0 0h160v160H0z"/><path fill="none" stroke-width="3.78" d="M0 0h160v160H0z"/><path fill="#b7b7b7" stroke-width="18.898" stroke-miterlimit="10" d="M0 0h160v160H0z"/><path fill-opacity=".354" stroke-width="8.709" stroke-miterlimit="10" d="M36 0h4v160h-4zm40 0h4v160h-4zm40 0h4v160h-4z"/><path transform="rotate(90)" fill-opacity=".354" stroke-width="4.131" stroke-miterlimit="10" d="M36-76h4v36h-4zm120 40h4V0h-4zm-80-80h4v36h-4z"/><path fill-opacity=".354" stroke-width="8.709" stroke-miterlimit="10" d="M156 0h4v160h-4z"/><path transform="rotate(90)" fill-opacity=".354" stroke-width="4.131" stroke-miterlimit="10" d="M116-156h4v36h-4zm0 80h4v36h-4zm40-40h4v36h-4zM36-156h4v36h-4zM76-36h4V0h-4z"/></pattern><clipPath id="g"><path d="M-155.601 95.39h-33.867v33.866H-181v-25.4h25.4z" fill="#a3977d" stroke-width="3.175"/></clipPath><clipPath id="h"><path d="M-138.668 150.083h-8.466v101.6h8.466z" fill="#a3977d" stroke-width="2.898"/></clipPath><clipPath id="i"><path d="M-155.6 288.724v33.867h33.866v-8.467h-25.4v-25.4z" fill="#a3977d" stroke-width="3.175"/></clipPath><clipPath id="j"><path d="M301.6 323.838H183.065v-8.467h110.066v-101.6h-8.466v-8.466h8.466V162.97h8.467z" fill="#a3977d" stroke-width="3.175"/></clipPath><clipPath id="k"><path d="M259.266 82.35v8.466h25.4v25.4h8.466V82.35z" fill="#a3977d" stroke-width="3.175"/></clipPath><clipPath id="l"><path d="M-79.4 310.95v8.466H56.065v-8.466z" fill="#a3977d" stroke-width="5.94"/></clipPath><clipPath id="m"><path d="M98.399 327.883h50.8v-8.467H98.4z" fill="#a3977d" stroke-width="3.81"/></clipPath><clipPath id="n"><path d="M90.042 82.121v8.467h135.466V82.12h-101.6l-.109-33.867H89.932l-.109 8.696h25.51l.109 25.171z" fill="#a3977d" stroke-width="4.49"/></clipPath><clipPath id="o"><path d="M-87.868 82.396v8.466H47.6v-8.466H22.2V56.95h25.4v-8.42H13.732l.144 33.866z" fill="#a3977d" stroke-width="5.59"/></clipPath><pattern xlink:href="#d" id="p" patternTransform="matrix(0 .0926 -.0926 0 98.399 306.716)"/><pattern patternUnits="userSpaceOnUse" width="160" height="160" patternTransform="translate(142.971 268.336) scale(.26458)" id="d"><path fill="none" stroke-width="3.78" d="M0 0h160v160H0z"/><path fill="none" stroke-width="3.78" d="M0 0h160v160H0z"/><path fill="none" stroke-width="3.78" d="M0 0h160v160H0z"/><path fill="#b7b7b7" stroke-width="18.898" stroke-miterlimit="10" d="M0 0h160v160H0z"/><path fill-opacity=".354" stroke-width="8.709" stroke-miterlimit="10" d="M36 0h4v160h-4zm40 0h4v160h-4zm40 0h4v160h-4z"/><path transform="rotate(90)" fill-opacity=".354" stroke-width="4.131" stroke-miterlimit="10" d="M36-76h4v36h-4zm120 40h4V0h-4zm-80-80h4v36h-4z"/><path fill-opacity=".354" stroke-width="8.709" stroke-miterlimit="10" d="M156 0h4v160h-4z"/><path transform="rotate(90)" fill-opacity=".354" stroke-width="4.131" stroke-miterlimit="10" d="M116-156h4v36h-4zm0 80h4v36h-4zm40-40h4v36h-4zM36-156h4v36h-4zM76-36h4V0h-4z"/></pattern><pattern patternUnits="userSpaceOnUse" width="64" height="64" patternTransform="translate(-20.134 336.35) scale(.26458)" id="b"><path d="M0 0h64v64H0z" fill="#8b6539" stroke-width=".516"/><path fill="none" stroke-width="3.78" d="M0 0h64v64H0z"/><path fill="none" stroke-width="3.78" d="M0 0h64v64H0z"/><path fill="none" stroke-width="1.89" d="M0 0h64v64H0z"/><path d="M32 0h32v32H32zM0 32h32v32H0z" fill="#a47743" stroke-width=".258"/></pattern><pattern patternUnits="userSpaceOnUse" width="159.999" height="160" patternTransform="translate(-131.114 135.467) scale(.26458)" id="a"><path fill="#8b6539" stroke-width="18.898" stroke-miterlimit="10" d="M0 0h159.999v160H0z"/><path d="M0 0v159.999h1.778v-9.881L78.133 74.12v35.22L27.473 160h5.029l45.631-45.632v35.197L67.7 160h5.028l5.406-5.406V160h3.556v-5.581L87.272 160H92.3l-9.786-9.786-.825-.825v-35.197L127.496 160h5.031l-50.013-50.012-.825-.824V73.965l76.533 76.531v9.503h1.777V0h-1.777v24.79L133.432 0h-5.03l29.82 29.82v35.197L93.206 0h-5.03l70.046 70.045v35.198L82.514 29.535l-.825-.825V0h-3.556v28.887L1.778 105.243V70.045L71.82 0h-5.028L1.778 65.017V29.82L31.598 0h-5.032L1.778 24.788V0zm81.689 33.738l76.533 76.532v35.198L82.514 69.76l-.825.825v-.004l.825-.82-.825-.825zm-3.556.177v35.189L1.778 145.102V110.27z" fill-opacity=".222" stroke-width="18.898" stroke-miterlimit="10"/></pattern></defs><path d="M608 16v128H0v832h447.778L448 656h224v320h928V144H992V16z" transform="translate(0 12.7) scale(.26458)" fill="url(#e)"/><path d="M177.8 220.133v42.334h8.467v-42.334zM93.133 177.8v8.467h16.934v76.2h8.466v-76.2h67.734V177.8zm-33.866 0h-50.8v8.467h50.8zm0-42.333h-50.8v8.466h50.8zm211.666 8.466H330.2v118.534h8.467v-101.6h33.866V152.4h-33.866v-16.933h-67.734zm67.734-84.666h-8.525l.058 42.333h8.467zm-194.734 0v76.2h-50.8v8.466H152.4V59.267z" fill="#515347" fill-opacity=".196"/><path d="M56.066 40.016h33.866V56.95H56.066z" fill="url(#f)" transform="translate(138.668 -40.016)"/><path d="M-155.601 95.39h-33.867v33.866H-181v-25.4h25.4z" clip-path="url(#g)" transform="translate(189.468 -44.59)" fill="#a3977d" stroke="#050505" stroke-width="3.5"/><path d="M-138.668 150.083h-8.466v101.6h8.466z" clip-path="url(#h)" transform="translate(147.134 -40.016)" fill="#a3977d" stroke="#050505" stroke-width="3.5"/><path d="M-155.6 288.724v33.867h33.866v-8.467h-25.4v-25.4z" clip-path="url(#i)" transform="translate(155.601 -51.657)" fill="#a3977d" stroke="#050505" stroke-width="3.5"/><path d="M301.6 323.838H183.065v-8.467h110.066v-101.6h-8.466v-8.466h8.466V162.97h8.467z" clip-path="url(#j)" transform="translate(121.734 -52.905)" fill="#a3977d" stroke="#050505" stroke-width="3.5"/><path d="M259.266 82.35v8.466h25.4v25.4h8.466V82.35z" clip-path="url(#k)" transform="translate(130.201 -31.55)" fill="#a3977d" stroke="#050505" stroke-width="3.5"/><path fill-opacity=".305" d="M186.267 254h50.8v16.933h-50.8z"/><path d="M-79.4 310.95v8.466H56.065v-8.466z" clip-path="url(#l)" transform="translate(138.668 -48.483)" fill="#a3977d" stroke="#050505" stroke-width="3.5"/><path d="M98.399 327.883h50.8v-8.467H98.4z" clip-path="url(#m)" transform="translate(130.201 -56.95)" fill="#a3977d" stroke="#050505" stroke-width="3.5"/><path fill-opacity=".305" d="M186.267 16.934h50.8v16.933h-50.8z"/><path d="M90.042 82.121v8.467h135.466V82.12h-101.6l-.109-33.867H89.932l-.109 8.696h25.51l.109 25.171z" clip-path="url(#n)" transform="translate(138.668 -31.55)" fill="#a3977d" stroke="#050505" stroke-width="3.5"/><path d="M-87.868 82.396v8.466H47.6v-8.466H22.2V56.95h25.4v-8.42H13.732l.144 33.866z" clip-path="url(#o)" transform="translate(147.134 -31.55)" fill="#a3977d" stroke="#050505" stroke-width="3.5"/><path d="M56.066 310.95h33.866v16.933H56.066z" fill="url(#p)" transform="translate(138.668 -40.016)"/><path d="M-20.134 226.283h62.441v33.867l-3.175-.103v42.436h-59.266z" fill="url(#q)" transform="translate(138.668 -40.016)"/></svg>