<svg xmlns="http://www.w3.org/2000/svg" xmlns:xlink="http://www.w3.org/1999/xlink" width="992" height="384" viewBox="0 0 262.467 101.6"><defs><pattern xlink:href="#a" id="c" patternTransform="matrix(0 .06615 .06615 0 236.901 -33.866)"/><pattern xlink:href="#b" id="a" patternTransform="translate(-159.834 378.683) scale(.06615)"/><pattern patternUnits="userSpaceOnUse" width="32" height="32" patternTransform="translate(-159.834 378.683) scale(.26458)" id="b"><path fill="none" stroke-width="3.78" d="M0 0h32v32H0z"/><path fill="none" stroke-width="4" d="M0 0h32v32H0z"/><path d="M16 0v32M0 16h32" fill="none" stroke="#000" stroke-width="4"/></pattern><clipPath id="j"><path d="M0 0l16.934 16.933h228.6L262.469 0z" fill="#3a3a3a" stroke-width="2.154" stroke-opacity=".706"/></clipPath><clipPath id="i"><path d="M0 0l16.934 16.933-.001 67.734L0 101.6z" fill="#3a3a3a" stroke-width="2.154" stroke-opacity=".706"/></clipPath><clipPath id="h"><path d="M0 101.6l16.932-16.934h59.269L92.968 101.6H84.5l-8.467-8.467H59.101l-8.467 8.467z" fill="#3a3a3a" stroke-width="2.117" stroke-opacity=".706"/></clipPath><clipPath id="g"><path d="M76.2 84.667L92.968 101.6V76.2L76.2 59.266z" fill="#3a3a3a" stroke-width="2.154" stroke-opacity=".706"/></clipPath><clipPath id="f"><path d="M262.468 76.2l-16.933-16.933H76.2L92.968 76.2z" fill="#3a3a3a" stroke-width="2.154" stroke-opacity=".706"/></clipPath><clipPath id="e"><path d="M262.468 0l-16.933 16.933v42.334L262.468 76.2z" fill="#3a3a3a" stroke-width="2.154" stroke-opacity=".706"/></clipPath><clipPath id="d"><path d="M16.935 16.934h228.6v42.332H76.202v25.4H16.935zM92.968 38.1a8.467 8.467 0 1 0 16.933 0 8.467 8.467 0 0 0-16.933 0z" fill="#565656" stroke-width="1.938" stroke-opacity=".706"/></clipPath></defs><path d="M88.734 25.4v25.4h25.4V25.4z" fill="url(#c)"/><path d="M16.935 16.934h228.6v42.332H76.202v25.4H16.935zM92.968 38.1a8.467 8.467 0 1 0 16.933 0 8.467 8.467 0 0 0-16.933 0z" clip-path="url(#d)" fill="#565656" stroke-width="2.117" stroke-opacity=".706" stroke="#000"/><path d="M262.468 0l-16.933 16.933v42.334L262.468 76.2z" clip-path="url(#e)" fill="#3a3a3a" stroke-width="2.117" stroke-opacity=".706" stroke="#000"/><path d="M262.468 76.2l-16.933-16.933H76.2L92.968 76.2z" clip-path="url(#f)" fill="#3a3a3a" stroke-width="2.117" stroke-opacity=".706" stroke="#000"/><path d="M76.2 84.667L92.968 101.6V76.2L76.2 59.266z" clip-path="url(#g)" fill="#3a3a3a" stroke-width="2.117" stroke-opacity=".706" stroke="#000"/><path d="M0 101.6l16.932-16.934h59.269L92.968 101.6H84.5l-8.467-8.467H59.101l-8.467 8.467z" clip-path="url(#h)" fill="#3a3a3a" stroke-width="2.117" stroke-opacity=".706" stroke="#000"/><path d="M0 0l16.934 16.933-.001 67.734L0 101.6z" clip-path="url(#i)" fill="#3a3a3a" stroke-width="2.117" stroke-opacity=".706" stroke="#000"/><path d="M0 0l16.934 16.933h228.6L262.469 0z" clip-path="url(#j)" fill="#3a3a3a" stroke-width="2.117" stroke-opacity=".706" stroke="#000"/></svg>