<?xml version="1.0" encoding="UTF-8" standalone="no"?>
<svg
   width="544"
   height="544"
   viewBox="0 0 143.933 143.933"
   version="1.1"
   id="svg105"
   sodipodi:docname="map-building-hut-ceiling-03.svg"
   inkscape:version="1.3 (0e150ed6c4, 2023-07-21)"
   xmlns:inkscape="http://www.inkscape.org/namespaces/inkscape"
   xmlns:sodipodi="http://sodipodi.sourceforge.net/DTD/sodipodi-0.dtd"
   xmlns:xlink="http://www.w3.org/1999/xlink"
   xmlns="http://www.w3.org/2000/svg"
   xmlns:svg="http://www.w3.org/2000/svg"
   xmlns:rdf="http://www.w3.org/1999/02/22-rdf-syntax-ns#"
   xmlns:cc="http://creativecommons.org/ns#"
   xmlns:dc="http://purl.org/dc/elements/1.1/">
  <metadata
     id="metadata109">
    <rdf:RDF>
      <cc:Work
         rdf:about="">
        <dc:format>image/svg+xml</dc:format>
        <dc:type
           rdf:resource="http://purl.org/dc/dcmitype/StillImage" />
      </cc:Work>
    </rdf:RDF>
  </metadata>
  <sodipodi:namedview
     pagecolor="#ffffff"
     bordercolor="#666666"
     borderopacity="1"
     objecttolerance="10"
     gridtolerance="10"
     guidetolerance="10"
     inkscape:pageopacity="0"
     inkscape:pageshadow="2"
     inkscape:window-width="2560"
     inkscape:window-height="1560"
     id="namedview107"
     showgrid="true"
     inkscape:zoom="1.7352941"
     inkscape:cx="178.0678"
     inkscape:cy="233.38983"
     inkscape:window-x="-12"
     inkscape:window-y="-12"
     inkscape:window-maximized="1"
     inkscape:current-layer="svg105"
     inkscape:showpageshadow="0"
     inkscape:pagecheckerboard="1"
     inkscape:deskcolor="#505050">
    <inkscape:grid
       type="xygrid"
       id="grid864"
       empspacing="4"
       spacingx="1.0583309"
       spacingy="1.0583309"
       originx="0"
       originy="0"
       units="px"
       visible="true" />
  </sodipodi:namedview>
  <defs
     id="defs29">
    <pattern
       inkscape:collect="always"
       xlink:href="#pattern1892"
       id="pattern1898"
       patternTransform="matrix(0.26458272,0,0,0.26458272,1.6e-6,124.88304)" />
    <pattern
       inkscape:collect="always"
       xlink:href="#pattern1873"
       id="pattern1892"
       patternTransform="translate(6.0472581e-6,471.99998)" />
    <pattern
       inkscape:collect="always"
       xlink:href="#pattern1877"
       id="pattern1883"
       patternTransform="matrix(0,0.26458272,-0.26458272,0,-16.932987,7.9374816e-7)" />
    <pattern
       inkscape:collect="always"
       xlink:href="#pattern1860"
       id="pattern1877"
       patternTransform="rotate(90,-31.999421,-31.999418)" />
    <pattern
       inkscape:collect="always"
       xlink:href="#pattern1867"
       id="pattern1873"
       patternTransform="matrix(0.26458272,0,0,0.26458272,1.6e-6,124.88304)" />
    <pattern
       inkscape:collect="always"
       xlink:href="#pattern1863"
       id="pattern1867"
       patternTransform="translate(6.0472581e-6,471.99998)" />
    <pattern
       inkscape:collect="always"
       xlink:href="#pattern1854"
       id="pattern1863"
       patternTransform="matrix(0.26458272,0,0,0.26458272,1.6e-6,124.88304)" />
    <pattern
       inkscape:collect="always"
       xlink:href="#pattern1854"
       id="pattern1860"
       patternTransform="matrix(0,0.26458272,-0.26458272,0,-16.932987,8.9999998e-7)" />
    <pattern
       inkscape:collect="always"
       xlink:href="#pattern1848"
       id="pattern1854"
       patternTransform="matrix(0.26458272,0,0,0.26458272,1.6e-6,124.88304)" />
    <pattern
       inkscape:collect="always"
       xlink:href="#pattern1820"
       id="pattern1848"
       patternTransform="translate(6.0472581e-6,471.99998)" />
    <pattern
       inkscape:collect="always"
       xlink:href="#pattern1832"
       id="pattern1838"
       patternTransform="matrix(0.26458272,0,0,0.26458272,0.2645828,125.14771)" />
    <pattern
       inkscape:collect="always"
       xlink:href="#pattern1826"
       id="pattern1832"
       patternTransform="translate(1.0000003,473.00031)" />
    <pattern
       inkscape:collect="always"
       xlink:href="#pattern1738"
       id="pattern1826"
       patternTransform="matrix(0.26458272,0,0,0.26458272,0.2645828,125.14771)" />
    <pattern
       inkscape:collect="always"
       xlink:href="#pattern1738"
       id="pattern1820"
       patternTransform="matrix(0.26458272,0,0,0.26458272,1.6e-6,124.88304)" />
    <pattern
       inkscape:collect="always"
       xlink:href="#pattern1738"
       id="pattern1794"
       patternTransform="matrix(0.26458272,0,0,0.26458272,10.583022,124.88304)" />
    <pattern
       inkscape:collect="always"
       xlink:href="#pattern1738"
       id="pattern1792"
       patternTransform="matrix(0.26458272,0,0,0.26458272,-8.4666472,124.88304)" />
    <clipPath
       id="a">
      <path
         d="m 94.72,143.404 h -4.232 l -0.53,-0.529 h -3.175 l -1.058,1.058 h -12.7 l -1.058,-1.058 H 69.32 l -0.53,0.53 h -8.466 l -0.53,-0.53 H 49.743 L 38.1,131.233 h 67.733 z"
         id="path26"
         inkscape:connector-curvature="0"
         style="fill:#cc8b27;stroke-width:0.265" />
    </clipPath>
    <clipPath
       clipPathUnits="userSpaceOnUse"
       id="clipPath1682">
      <path
         style="fill:#ab7421;stroke-width:0.311999"
         inkscape:connector-curvature="0"
         id="path1684"
         d="m 88.899297,88.899834 h -4.364991 l -0.397498,0.397498 H 69.055844 l -0.397501,-0.397498 h -3.571491 l -0.793497,0.794248 H 51.593633 l -0.794248,-0.794248 h -4.364991 l -0.397498,0.397498 h -7.93723 l -0.397499,-0.397498 h -2.777245 l -0.794248,0.794248 H 23.812198 L 23.0187,88.899834 h -3.968991 l 23.283526,-23.283319 4.233324,4.233323 9.524978,-2.116662 6.349985,2.116662 3.174993,-4.233323 z"
         sodipodi:nodetypes="cccccccccccccccccccccccc" />
    </clipPath>
    <clipPath
       clipPathUnits="userSpaceOnUse"
       id="clipPath1700">
      <path
         style="fill:#8a5e1a;stroke-width:0.453748"
         inkscape:connector-curvature="0"
         id="path1702"
         d="m 103.18676,103.18727 h -5.159235 l -0.793497,0.79424 H 76.199575 l -0.793497,-0.79424 h -5.953487 l -0.396747,0.3975 H 50.799385 l -0.39675,-0.3975 h -7.54048 l -0.7935,0.79424 H 31.352679 l -0.793496,-0.79424 h -5.159989 l -0.395999,0.3975 H 10.318229 L 9.92148,103.18727 H 4.7622421 L 33.866588,74.083162 h 40.216574 z"
         sodipodi:nodetypes="ccccccccccccccccccccc" />
    </clipPath>
    <pattern
       patternUnits="userSpaceOnUse"
       width="144"
       height="64.000001"
       patternTransform="matrix(0.26458272,0,0,0.26458272,0,124.88304)"
       id="pattern1738">
      <rect
         y="0"
         x="0"
         height="64"
         width="144"
         id="rect1718"
         style="fill:#768a52;fill-opacity:1;stroke:none;stroke-width:5.69210005;stroke-linecap:round;stroke-linejoin:miter;stroke-miterlimit:4;stroke-dasharray:none;stroke-opacity:1;paint-order:normal" />
      <rect
         y="0"
         x="27.999998"
         height="64"
         width="4"
         id="rect1720"
         style="fill:#000000;fill-opacity:0.19607843;stroke:none;stroke-width:6;stroke-linecap:round;stroke-linejoin:miter;stroke-miterlimit:4;stroke-dasharray:none;stroke-opacity:1;paint-order:normal" />
      <rect
         style="fill:#000000;fill-opacity:0.19607843;stroke:none;stroke-width:6;stroke-linecap:round;stroke-linejoin:miter;stroke-miterlimit:4;stroke-dasharray:none;stroke-opacity:1;paint-order:normal"
         id="rect1722"
         width="4"
         height="64"
         x="44"
         y="0" />
      <rect
         y="0"
         x="76"
         height="64"
         width="4"
         id="rect1724"
         style="fill:#000000;fill-opacity:0.19607843;stroke:none;stroke-width:6;stroke-linecap:round;stroke-linejoin:miter;stroke-miterlimit:4;stroke-dasharray:none;stroke-opacity:1;paint-order:normal" />
      <rect
         style="fill:#000000;fill-opacity:0.19607843;stroke:none;stroke-width:6;stroke-linecap:round;stroke-linejoin:miter;stroke-miterlimit:4;stroke-dasharray:none;stroke-opacity:1;paint-order:normal"
         id="rect1726"
         width="4"
         height="64"
         x="92"
         y="0" />
      <rect
         style="fill:#000000;fill-opacity:0.19607843;stroke:none;stroke-width:6;stroke-linecap:round;stroke-linejoin:miter;stroke-miterlimit:4;stroke-dasharray:none;stroke-opacity:1;paint-order:normal"
         id="rect1728"
         width="4"
         height="64"
         x="112.00001"
         y="0" />
      <rect
         y="0"
         x="140"
         height="64"
         width="4"
         id="rect1730"
         style="fill:#000000;fill-opacity:0.19607843;stroke:none;stroke-width:6;stroke-linecap:round;stroke-linejoin:miter;stroke-miterlimit:4;stroke-dasharray:none;stroke-opacity:1;paint-order:normal" />
      <rect
         style="fill:#000000;fill-opacity:0.19607843;stroke:none;stroke-width:6;stroke-linecap:round;stroke-linejoin:miter;stroke-miterlimit:4;stroke-dasharray:none;stroke-opacity:1;paint-order:normal"
         id="rect1732"
         width="4"
         height="64"
         x="20"
         y="0" />
      <rect
         y="0"
         x="68"
         height="64"
         width="4"
         id="rect1734"
         style="fill:#000000;fill-opacity:0.19607843;stroke:none;stroke-width:6;stroke-linecap:round;stroke-linejoin:miter;stroke-miterlimit:4;stroke-dasharray:none;stroke-opacity:1;paint-order:normal" />
      <rect
         y="0"
         x="128"
         height="64"
         width="4"
         id="rect1736"
         style="fill:#000000;fill-opacity:0.19607843;stroke:none;stroke-width:6;stroke-linecap:round;stroke-linejoin:miter;stroke-miterlimit:4;stroke-dasharray:none;stroke-opacity:1;paint-order:normal" />
    </pattern>
    <clipPath
       clipPathUnits="userSpaceOnUse"
       id="clipPath1834">
      <path
         style="fill:url(#pattern1838);fill-opacity:1;stroke-width:0.311999"
         inkscape:connector-curvature="0"
         id="path1836"
         d="m 19.050457,19.050539 h 4.36499 l 0.397499,-0.397498 h 15.080965 l 0.397499,0.397498 h 3.571491 L 43.6564,18.256293 h 12.699722 l 0.794246,0.794246 h 4.36499 l 0.397499,-0.397498 h 7.937233 l 0.397498,0.397498 h 2.777243 l 0.794248,-0.794246 h 10.318478 l 0.793496,0.794246 h 3.968992 L 74.083162,33.866588 H 33.866588 Z"
         sodipodi:nodetypes="ccccccccccccccccccccc" />
    </clipPath>
    <clipPath
       clipPathUnits="userSpaceOnUse"
       id="clipPath1879">
      <path
         sodipodi:nodetypes="cccccccccccccccccccccc"
         style="fill:url(#pattern1883);fill-opacity:1;stroke-width:0.198749"
         inkscape:connector-curvature="0"
         id="path1881"
         d="m 76.597322,31.352677 v 9.52498 l -0.397496,0.397499 V 43.6564 l 0.793492,0.793497 v 9.524978 l -0.793492,0.794248 v 1.984498 l 0.397496,0.396747 v 6.349488 l -0.397496,0.397498 v 2.381242 l 0.793492,0.793497 v 5.159241 l -0.793492,0.793497 v 3.175495 L 61.383191,61.383191 65.616515,58.656642 64.558184,55.033206 60.32486,51.858213 59.266529,48.683221 Z" />
    </clipPath>
    <clipPath
       clipPathUnits="userSpaceOnUse"
       id="clipPath1894">
      <path
         d="m 31.352677,31.352732 h 9.52498 l 0.397499,0.397496 H 43.6564 l 0.793497,-0.793494 h 9.524978 l 0.794248,0.793494 h 1.984498 l 0.396747,-0.397496 h 6.349488 l 0.397498,0.397496 h 2.381242 l 0.793499,-0.793494 h 5.159239 l 0.793497,0.793494 h 3.175495 L 59.266529,48.683221 55.033206,45.508228 52.916544,46.566559 49.741551,45.508228 47.62489,47.62489 Z"
         id="path1896"
         inkscape:connector-curvature="0"
         style="fill:url(#pattern1898);fill-opacity:1;stroke-width:0.198749"
         sodipodi:nodetypes="cccccccccccccccccccccc" />
    </clipPath>
  </defs>
  <path
     sodipodi:nodetypes="ccccccccccccccccccccc"
     d="m 103.18676,103.18727 h -5.159234 l -0.793499,0.79424 H 76.199576 l -0.793498,-0.79424 h -5.953486 l -0.396749,0.3975 H 50.799385 l -0.396749,-0.3975 h -7.540482 l -0.793499,0.79424 H 31.35268 l -0.793498,-0.79424 h -5.159988 l -0.395999,0.3975 H 10.318229 l -0.3967489,-0.3975 H 4.762242 L 33.866589,74.083161 h 40.216574 z"
     id="path1772"
     inkscape:connector-curvature="0"
     style="fill:url(#pattern1738);fill-opacity:1;stroke:#000000;stroke-width:1.5875;stroke-miterlimit:4;stroke-dasharray:none;stroke-opacity:1"
     clip-path="url(#clipPath1700)"
     transform="matrix(0,1.3333333,-1.3333333,0,143.93265,6.8533332e-4)" />
  <path
     d="m 6.3496292,137.58301 v -6.87896 l -1.0589999,-1.058 v -28.04593 l 1.0589999,-1.058 v -7.937984 l -0.53,-0.529 V 67.733194 l 0.53,-0.529 V 57.150218 L 5.2906293,56.09222 V 41.804254 l 1.0589999,-1.057999 v -6.879984 l -0.53,-0.528998 V 13.75832 l 0.53,-0.528999 V 6.350337 L 39.510674,39.511703 v 63.499857 z"
     id="path1774"
     inkscape:connector-curvature="0"
     style="fill:#000000;fill-opacity:0.313725;stroke-width:0.999996"
     sodipodi:nodetypes="ccccccccccccccccccccc" />
  <rect
     style="fill:#000000;fill-opacity:0.278431;stroke:none;stroke-width:2.35347;stroke-linecap:round;stroke-linejoin:miter;stroke-miterlimit:4;stroke-dasharray:none;stroke-opacity:1;paint-order:normal"
     id="rect1784"
     width="84.666466"
     height="84.666473"
     x="29.633265"
     y="29.633263" />
  <path
     clip-path="url(#clipPath1700)"
     style="fill:url(#pattern1738);fill-opacity:1;stroke:#000000;stroke-width:1.5875;stroke-miterlimit:4;stroke-dasharray:none;stroke-opacity:1"
     inkscape:connector-curvature="0"
     id="path1766"
     d="m 103.18676,103.18727 h -5.159234 l -0.793499,0.79424 H 76.199576 l -0.793498,-0.79424 h -5.953486 l -0.396749,0.3975 H 50.799385 l -0.396749,-0.3975 h -7.540482 l -0.793499,0.79424 H 31.35268 l -0.793498,-0.79424 h -5.159988 l -0.395999,0.3975 H 10.318229 l -0.3967489,-0.3975 H 4.762242 L 33.866589,74.083161 h 40.216574 z"
     sodipodi:nodetypes="ccccccccccccccccccccc"
     transform="matrix(-1.3333333,0,0,-1.3333333,143.93197,143.93336)" />
  <path
     clip-path="url(#clipPath1700)"
     style="fill:url(#pattern1738);fill-opacity:1;stroke:#000000;stroke-width:1.5875;stroke-miterlimit:4;stroke-dasharray:none;stroke-opacity:1"
     inkscape:connector-curvature="0"
     id="path1758"
     d="m 103.18676,103.18727 h -5.159234 l -0.793499,0.79424 H 76.199576 l -0.793498,-0.79424 h -5.953486 l -0.396749,0.3975 H 50.799385 l -0.396749,-0.3975 h -7.540482 l -0.793499,0.79424 H 31.35268 l -0.793498,-0.79424 h -5.159988 l -0.395999,0.3975 H 10.318229 l -0.3967489,-0.3975 H 4.762242 L 33.866589,74.083161 h 40.216574 z"
     sodipodi:nodetypes="ccccccccccccccccccccc"
     transform="matrix(0,-1.3333333,1.3333333,0,-7.0133332e-4,143.93268)" />
  <path
     d="m 94.72,143.404 h -4.232 l -0.53,-0.529 h -3.175 l -1.058,1.058 h -12.7 l -1.058,-1.058 H 69.32 l -0.53,0.53 h -8.466 l -0.53,-0.53 H 49.743 L 38.1,131.233 h 67.733 z"
     clip-path="url(#a)"
     id="path31"
     inkscape:connector-curvature="0"
     transform="matrix(0.99999766,0,0,0.99999526,-3.3331079e-4,6.7999999e-4)"
     style="fill:url(#pattern1738);fill-opacity:1;stroke:#000000;stroke-width:2.117" />
  <path
     sodipodi:nodetypes="ccccccccccccccccccccc"
     d="m 103.18676,103.18727 h -5.159234 l -0.793499,0.79424 H 76.199576 l -0.793498,-0.79424 h -5.953486 l -0.396749,0.3975 H 50.799385 l -0.396749,-0.3975 h -7.540482 l -0.793499,0.79424 H 31.35268 l -0.793498,-0.79424 h -5.159988 l -0.395999,0.3975 H 10.318229 l -0.3967489,-0.3975 H 4.762242 L 33.866589,74.083161 h 40.216574 z"
     id="path1698"
     inkscape:connector-curvature="0"
     style="fill:url(#pattern1738);fill-opacity:1;stroke:#000000;stroke-width:1.5875;stroke-miterlimit:4;stroke-dasharray:none;stroke-opacity:1"
     clip-path="url(#clipPath1700)"
     transform="scale(1.3333333)" />
  <path
     d="m 137.58233,137.58302 h -6.87896 l -1.058,1.059 h -28.04594 l -1.058,-1.059 h -7.937979 l -0.529,0.53 H 67.732508 l -0.529,-0.53 H 57.149532 l -1.057997,1.059 H 41.803569 l -1.057999,-1.059 h -6.879984 l -0.528999,0.53 H 13.757634 l -0.528998,-0.53 H 6.3496516 L 39.511018,104.42198 h 63.499852 z"
     id="path59"
     inkscape:connector-curvature="0"
     style="fill:#000000;fill-opacity:0.313725;stroke-width:0.999996"
     sodipodi:nodetypes="ccccccccccccccccccccc" />
  <path
     d="m 12.738637,63.797378 c 0.251,4.871976 1.552996,6.700968 1.552996,6.700968 0,0 0.589999,-7.867963 2.111996,-12.522942 0,0 -1.454997,0.729998 -3.664992,5.821974 z m 7.368983,10.28595 c 2.619994,-4.11598 2.619994,-6.359969 2.619994,-6.359969 0,0 -5.041989,6.068971 -8.97998,8.979957 0,0 1.608998,0.247999 6.359986,-2.619988 z"
     id="path85"
     inkscape:connector-curvature="0"
     style="fill:#4ade00;fill-opacity:1;stroke:#000000;stroke-width:1.058" />
  <path
     sodipodi:nodetypes="cccccccccccccccccccccccc"
     d="m 88.899297,88.899835 h -4.36499 l -0.397499,0.397498 H 69.055843 l -0.397499,-0.397498 h -3.571492 l -0.793498,0.794246 H 51.593633 l -0.794248,-0.794246 h -4.36499 l -0.397499,0.397498 h -7.937231 l -0.397499,-0.397498 h -2.777244 l -0.794248,0.794246 H 23.812198 L 23.0187,88.899835 h -3.968991 l 23.283527,-23.283321 4.233324,4.233324 9.524978,-2.116662 6.349985,2.116662 3.174993,-4.233324 z"
     id="path1680"
     inkscape:connector-curvature="0"
     style="fill:url(#pattern1792);fill-opacity:1;stroke:#000000;stroke-width:1.5875;stroke-miterlimit:4;stroke-dasharray:none;stroke-opacity:1"
     clip-path="url(#clipPath1682)"
     transform="scale(1.3333333)" />
  <path
     transform="matrix(0,1.3333333,-1.3333333,0,143.93272,3.7999999e-4)"
     sodipodi:nodetypes="cccccccccccccccccccccccc"
     d="m 88.899297,88.899835 h -4.36499 l -0.397499,0.397498 H 69.055843 l -0.397499,-0.397498 h -3.571492 l -0.793498,0.794246 H 51.593633 l -0.794248,-0.794246 h -4.36499 l -0.397499,0.397498 h -7.937231 l -0.397499,-0.397498 h -2.777244 l -0.794248,0.794246 H 23.812198 L 23.0187,88.899835 h -3.968991 l 23.283527,-23.283321 4.233324,4.233324 9.524978,-2.116662 6.349985,2.116662 3.174993,-4.233324 z"
     id="path1696"
     inkscape:connector-curvature="0"
     style="fill:url(#pattern1794);fill-opacity:1;stroke:#000000;stroke-width:1.5875;stroke-miterlimit:4;stroke-dasharray:none;stroke-opacity:1"
     clip-path="url(#clipPath1682)" />
  <path
     sodipodi:nodetypes="ccccccccccccccccccccc"
     style="fill:#000000;fill-opacity:0.313725;stroke-width:0.999996"
     inkscape:connector-curvature="0"
     id="path1768"
     d="m 6.3496464,6.3503359 h 6.8789656 l 1.058,-1.059 h 28.045933 l 1.058,1.059 h 7.937982 l 0.529,-0.53 h 24.341942 l 0.529,0.53 h 10.053976 l 1.057998,-1.059 h 14.287967 l 1.058,1.059 h 6.87998 l 0.529,-0.53 h 19.57895 l 0.529,0.53 h 6.87898 L 104.42096,39.511381 H 40.921106 Z" />
  <path
     sodipodi:nodetypes="ccccccccccccccccccccc"
     d="m 19.050457,19.050539 h 4.36499 l 0.397499,-0.397498 h 15.080965 l 0.397499,0.397498 h 3.571492 L 43.6564,18.256293 h 12.699721 l 0.794248,0.794246 h 4.36499 l 0.397499,-0.397498 h 7.937231 l 0.397499,0.397498 h 2.777244 l 0.794248,-0.794246 h 10.318476 l 0.793498,0.794246 h 3.968991 L 74.083163,33.866587 H 33.866589 Z"
     id="path1830"
     inkscape:connector-curvature="0"
     style="fill:url(#pattern1826);fill-opacity:1;stroke:#000000;stroke-width:1.5875;stroke-miterlimit:4;stroke-dasharray:none;stroke-opacity:1"
     clip-path="url(#clipPath1834)"
     transform="scale(1.3333333)" />
  <path
     sodipodi:nodetypes="ccccccccccccccccccccc"
     d="m 25.40061,25.400718 h 5.819987 l 0.529999,-0.529996 h 20.107953 l 0.529998,0.529996 h 4.761988 l 1.057999,-1.058994 h 16.932962 l 1.058995,1.058994 h 5.819986 l 0.529999,-0.529996 h 10.582977 l 0.529998,0.529996 h 3.70299 l 1.058997,-1.058994 h 13.757972 l 1.05799,1.058994 h 5.29199 L 98.777549,45.15545 H 45.155451 Z"
     id="path1842"
     inkscape:connector-curvature="0"
     style="fill:#000000;fill-opacity:0.156863;stroke-width:0.415999" />
  <path
     sodipodi:nodetypes="ccccccccccccccccccccc"
     style="fill:#000000;fill-opacity:0.313725;stroke-width:0.999996"
     inkscape:connector-curvature="0"
     id="path1760"
     d="m 137.58233,6.3503428 v 6.8789732 l 1.059,1.058 v 28.045933 l -1.059,1.057998 v 7.937983 l 0.53,0.529 v 24.341942 l -0.53,0.529 v 10.053976 l 1.059,1.057997 v 14.287965 l -1.059,1.058 v 6.87998 l 0.53,0.529 v 19.57896 l -0.53,0.52899 v 6.87898 L 104.42128,104.42166 V 40.921809 Z" />
  <path
     clip-path="url(#clipPath1834)"
     style="fill:url(#pattern1826);fill-opacity:1;stroke:#000000;stroke-width:1.5875;stroke-miterlimit:4;stroke-dasharray:none;stroke-opacity:1"
     inkscape:connector-curvature="0"
     id="path1904"
     d="m 19.050457,19.050539 h 4.36499 l 0.397499,-0.397498 h 15.080965 l 0.397499,0.397498 h 3.571492 L 43.6564,18.256293 h 12.699721 l 0.794248,0.794246 h 4.36499 l 0.397499,-0.397498 h 7.937231 l 0.397499,0.397498 h 2.777244 l 0.794248,-0.794246 h 10.318476 l 0.793498,0.794246 h 3.968991 L 74.083163,33.866587 H 33.866589 Z"
     sodipodi:nodetypes="ccccccccccccccccccccc"
     transform="matrix(0,1.3333333,-1.3333333,0,143.93378,-0.17622666)" />
  <path
     style="fill:#000000;fill-opacity:0.156863;stroke-width:0.415999"
     inkscape:connector-curvature="0"
     id="path1906"
     d="m 118.53306,25.224384 v 5.819986 l 0.52999,0.529999 v 20.107953 l -0.52999,0.529999 v 4.761987 l 1.05899,1.057999 V 74.96527 l -1.05899,1.058994 v 5.819987 l 0.52999,0.529998 v 10.582978 l -0.52999,0.529997 v 3.70299 l 1.05899,1.058998 v 13.757968 l -1.05899,1.058 v 5.29199 L 98.778326,98.601322 V 44.979225 Z"
     sodipodi:nodetypes="ccccccccccccccccccccc" />
  <path
     sodipodi:nodetypes="cccccccccccccccccccccc"
     style="fill:url(#pattern1873);fill-opacity:1;stroke:#000000;stroke-width:1.5875;stroke-miterlimit:4;stroke-dasharray:none;stroke-opacity:1"
     inkscape:connector-curvature="0"
     id="path1890"
     d="m 31.352677,31.352732 h 9.52498 l 0.397499,0.397496 H 43.6564 l 0.793497,-0.793494 h 9.524978 l 0.794248,0.793494 h 1.984498 l 0.396747,-0.397496 h 6.349488 l 0.397498,0.397496 h 2.381242 l 0.793499,-0.793494 h 5.159239 l 0.793497,0.793494 h 3.175495 l -16.933797,16.932993 -4.233323,-3.174993 -2.116661,1.05833 -3.174993,-1.058331 -2.116661,2.116662 z"
     clip-path="url(#clipPath1894)"
     transform="scale(1.3333333)" />
  <path
     d="m 76.597321,31.352676 v 9.52498 l -0.397496,0.397499 v 2.381244 l 0.793494,0.793497 v 9.524978 l -0.793494,0.794248 v 1.984498 l 0.397496,0.396747 v 6.349488 l -0.397496,0.397498 v 2.381242 l 0.793494,0.793499 v 5.159239 l -0.793494,0.793497 v 3.175495 L 61.383192,61.38319 65.616516,58.656643 64.558185,55.033205 60.324861,51.858212 59.26653,48.68322 Z"
     id="path1875"
     inkscape:connector-curvature="0"
     style="fill:url(#pattern1860);fill-opacity:1;stroke:#000000;stroke-width:1.5875;stroke-miterlimit:4;stroke-dasharray:none;stroke-opacity:1"
     sodipodi:nodetypes="cccccccccccccccccccccc"
     clip-path="url(#clipPath1879)"
     transform="scale(1.3333333)" />
  <path
     sodipodi:nodetypes="cccccccccccccccccccccccc"
     d="m 25.399612,118.53277 v -5.81998 l -0.529998,-0.53 V 92.074837 l 0.529998,-0.530001 V 86.782848 L 24.340614,85.724852 V 68.79189 l 1.058998,-1.058998 V 61.912904 L 24.869614,61.382907 V 50.799934 l 0.529998,-0.529999 V 46.566942 L 24.340614,45.507945 V 31.749977 l 1.058998,-1.057997 v -5.291988 l 31.044424,31.0447 -5.64443,5.644432 2.822216,12.699971 -2.822216,8.466646 5.64443,4.233324 z"
     id="path1916"
     inkscape:connector-curvature="0"
     style="fill:#000000;fill-opacity:0.156863;stroke-width:0.415999" />
  <path
     sodipodi:nodetypes="cccccccccccccccccccccccc"
     d="m 118.53239,118.53311 h -5.81998 l -0.53,0.53 H 92.074457 l -0.530001,-0.53 h -4.761988 l -1.057996,1.059 H 68.79151 l -1.058998,-1.059 h -5.819988 l -0.529997,0.53 H 50.799554 l -0.529999,-0.53 h -3.702993 l -1.058997,1.059 H 31.749597 l -1.057997,-1.059 h -5.291988 l 31.0447,-31.044425 5.644432,5.644431 12.699971,-2.822216 8.466646,2.822216 4.233324,-5.644431 z"
     id="path1920"
     inkscape:connector-curvature="0"
     style="fill:#000000;fill-opacity:0.156863;stroke-width:0.415999" />
  <g
     stroke-miterlimit="10"
     id="g103"
     transform="matrix(0.99999766,0,0,0.99999526,0.06766664,0.07834005)"
     style="fill:#78c600;fill-opacity:1;stroke:#191919;stroke-width:1.058;stroke-miterlimit:10">
    <circle
       cy="100.768"
       cx="42.978001"
       r="1.852"
       id="circle87"
       style="fill:#78c600;fill-opacity:1" />
    <circle
       r="1.852"
       cx="26.08"
       cy="117.723"
       id="circle89"
       style="fill:#78c600;fill-opacity:1" />
    <circle
       transform="rotate(90)"
       r="1.852"
       cx="42.922001"
       cy="-42.946999"
       id="circle91"
       style="fill:#78c600;fill-opacity:1" />
    <circle
       transform="rotate(90)"
       cy="-25.992001"
       cx="26.024"
       r="1.852"
       id="circle93"
       style="fill:#78c600;fill-opacity:1" />
    <circle
       transform="scale(-1)"
       r="1.852"
       cx="-100.82"
       cy="-43.008999"
       id="circle95"
       style="fill:#78c600;fill-opacity:1" />
    <circle
       transform="scale(-1)"
       cy="-26.054001"
       cx="-117.718"
       r="1.852"
       id="circle97"
       style="fill:#78c600;fill-opacity:1" />
    <circle
       cy="100.851"
       cx="-100.855"
       r="1.852"
       transform="rotate(-90)"
       id="circle99"
       style="fill:#78c600;fill-opacity:1" />
    <circle
       r="1.852"
       cx="-117.753"
       cy="117.806"
       transform="rotate(-90)"
       id="circle101"
       style="fill:#78c600;fill-opacity:1" />
  </g>
</svg>
