<?xml version="1.0" encoding="UTF-8" standalone="no"?>
<svg
   xmlns:dc="http://purl.org/dc/elements/1.1/"
   xmlns:cc="http://creativecommons.org/ns#"
   xmlns:rdf="http://www.w3.org/1999/02/22-rdf-syntax-ns#"
   xmlns:svg="http://www.w3.org/2000/svg"
   xmlns="http://www.w3.org/2000/svg"
   xmlns:sodipodi="http://sodipodi.sourceforge.net/DTD/sodipodi-0.dtd"
   xmlns:inkscape="http://www.inkscape.org/namespaces/inkscape"
   width="320"
   height="288"
   viewBox="0 0 84.666 76.2"
   version="1.1"
   id="svg33"
   sodipodi:docname="map-bunker-crossing-ceiling-01.svg"
   inkscape:version="0.92.2 (5c3e80d, 2017-08-06)">
  <metadata
     id="metadata37">
    <rdf:RDF>
      <cc:Work
         rdf:about="">
        <dc:format>image/svg+xml</dc:format>
        <dc:type
           rdf:resource="http://purl.org/dc/dcmitype/StillImage" />
        <dc:title />
      </cc:Work>
    </rdf:RDF>
  </metadata>
  <sodipodi:namedview
     pagecolor="#ffffff"
     bordercolor="#666666"
     borderopacity="1"
     objecttolerance="10"
     gridtolerance="10"
     guidetolerance="10"
     inkscape:pageopacity="0"
     inkscape:pageshadow="2"
     inkscape:window-width="1920"
     inkscape:window-height="1017"
     id="namedview35"
     showgrid="true"
     inkscape:zoom="0.40972223"
     inkscape:cx="444.61964"
     inkscape:cy="48.261135"
     inkscape:window-x="1912"
     inkscape:window-y="-8"
     inkscape:window-maximized="1"
     inkscape:current-layer="svg33">
    <inkscape:grid
       type="xygrid"
       id="grid844"
       empspacing="4"
       spacingy="1.0583333"
       spacingx="1.058325" />
  </sodipodi:namedview>
  <defs
     id="defs11">
    <clipPath
       id="c">
      <path
         d="M-70.934 202.47h50.8v-60.854h-8.467v48.155l-4.233 4.233h-25.4l-4.234-4.233v-48.155h-8.466z"
         fill="#a3977d"
         stroke-width="5.144"
         id="path8" />
    </clipPath>
    <clipPath
       clipPathUnits="userSpaceOnUse"
       id="clipPath895">
      <path
         id="path897"
         d="M 16.93334,-6.6400098e-4 29.633,12.700002 29.634587,48.156334 16.934929,60.856 Z"
         inkscape:connector-curvature="0"
         style="fill:#3a3a3a;stroke-width:3.17499995"
         sodipodi:nodetypes="ccccc" />
    </clipPath>
    <clipPath
       clipPathUnits="userSpaceOnUse"
       id="clipPath901">
      <path
         sodipodi:nodetypes="ccccc"
         style="fill:#3a3a3a;stroke-width:3.17499995"
         inkscape:connector-curvature="0"
         d="M 16.935,60.856 29.635667,48.156339 55.035339,48.155239 67.735006,60.8549 Z"
         id="path903" />
    </clipPath>
    <clipPath
       clipPathUnits="userSpaceOnUse"
       id="clipPath907">
      <path
         sodipodi:nodetypes="ccccc"
         style="fill:#3a3a3a;stroke-width:3.17499995"
         inkscape:connector-curvature="0"
         d="M 67.735,60.856 55.035339,48.155333 55.033,12.700002 67.732659,3.3599967e-4 Z"
         id="path909" />
    </clipPath>
    <clipPath
       clipPathUnits="userSpaceOnUse"
       id="clipPath913">
      <path
         id="path915"
         d="m 16.933,-6.6000048e-4 h 8.46667 C 25.39967,4.2333399 29.632669,8.4663399 33.866669,8.4663399 h 16.933 c 4.233,0 8.467,-4.233 8.468,-8.46699990048 L 67.733,2.4e-6 55.033,12.700002 h -25.4 z"
         inkscape:connector-curvature="0"
         style="fill:#3a3a3a;stroke-width:6.52400017;stroke-opacity:0.22699998"
         sodipodi:nodetypes="ccssccccc" />
    </clipPath>
    <clipPath
       clipPathUnits="userSpaceOnUse"
       id="clipPath919">
      <path
         id="path921"
         d="M 29.634659,12.700002 H 55.033 V 48.156334 H 29.634659 Z"
         inkscape:connector-curvature="0"
         style="fill:#565656;fill-opacity:1;stroke-width:0.91882825" />
    </clipPath>
  </defs>
  <path
     style="fill:#565656;stroke-width:2.11666667;fill-opacity:1;stroke:#000000;stroke-opacity:1;stroke-miterlimit:4;stroke-dasharray:none"
     inkscape:connector-curvature="0"
     d="M 29.63466,12.700002 H 55.033 V 48.156334 H 29.63466 Z"
     id="path917"
     clip-path="url(#clipPath919)" />
  <path
     transform="translate(87.869 -141.614)"
     d="M-70.934 202.47h50.8v-60.854h-8.467v48.155l-4.233 4.233h-25.4l-4.234-4.233v-48.155h-8.466z"
     clip-path="url(#c)"
     fill="#1b1e25"
     stroke="#000"
     stroke-width="3.175"
     stroke-opacity=".706"
     id="path31" />
  <path
     sodipodi:nodetypes="ccccc"
     style="fill:#3a3a3a;stroke-width:2.11666667;stroke:#000000;stroke-opacity:1;stroke-miterlimit:4;stroke-dasharray:none"
     inkscape:connector-curvature="0"
     d="M 16.93334,-6.64e-4 29.633,12.700002 29.63466,48.156334 16.935,60.856 Z"
     id="path893"
     clip-path="url(#clipPath895)" />
  <path
     id="path899"
     d="m 16.935,60.856 12.700666,-12.69966 25.399674,-0.001 12.699666,12.69966 z"
     inkscape:connector-curvature="0"
     style="fill:#3a3a3a;stroke-width:2.11666667;stroke-miterlimit:4;stroke-dasharray:none;stroke:#000000;stroke-opacity:1"
     sodipodi:nodetypes="ccccc"
     clip-path="url(#clipPath901)" />
  <path
     id="path905"
     d="M 67.735,60.856 55.03534,48.155334 55.033,12.700002 67.73266,3.36e-4 Z"
     inkscape:connector-curvature="0"
     style="fill:#3a3a3a;stroke-width:2.11666667;stroke:#000000;stroke-opacity:1;stroke-miterlimit:4;stroke-dasharray:none"
     sodipodi:nodetypes="ccccc"
     clip-path="url(#clipPath907)" />
  <path
     sodipodi:nodetypes="ccssccccc"
     style="fill:#3a3a3a;stroke-width:2.11666667;stroke-opacity:1;stroke:#000000;stroke-miterlimit:4;stroke-dasharray:none"
     inkscape:connector-curvature="0"
     d="m 16.933,-6.6e-4 h 8.46667 c 0,4.234 4.233,8.467 8.467,8.467 h 16.933 c 4.233,0 8.467,-4.233 8.468,-8.467 L 67.733,2.4e-6 55.033,12.700002 h -25.4 z"
     id="path911"
     clip-path="url(#clipPath913)" />
  <path
     inkscape:connector-curvature="0"
     style="fill:#353535;fill-opacity:1;stroke:none;stroke-width:3.66707826;stroke-linecap:square;stroke-linejoin:miter;stroke-miterlimit:4;stroke-dasharray:none;stroke-opacity:1"
     d="M 39.543027,36.091354 39.124825,35.673155 39.293289,35.339452 39.18045,35.188651 V 30.688994 C 37.942248,30.267131 36.785803,29.872005 34.8808,28.34237 v 4.157932 l -0.112837,0.150277 0.168461,0.333705 -0.418198,0.418198 -0.418736,-0.418198 0.168985,-0.333705 -0.113365,-0.150277 v -4.87561 c -0.16865,-0.193567 -0.326583,-0.391796 -0.464724,-0.597886 h 2.173353 c 1.415343,1.251644 3.812183,2.093672 6.469263,2.093672 2.656801,0 5.054189,-0.842028 6.469259,-2.093672 h 2.173353 c -0.150858,0.226416 -0.325864,0.444061 -0.513926,0.655106 v 4.81839 l -0.11285,0.150277 0.168461,0.333705 -0.418197,0.418733 -0.418737,-0.418733 0.168464,-0.333705 -0.113366,-0.150277 v -4.115685 c -1.855357,1.487152 -3.01523,1.892573 -4.25045,2.307051 v 4.483079 l -0.112836,0.150279 0.168461,0.333704 -0.418201,0.418733 -0.418201,-0.418733 0.168462,-0.333704 -0.112837,-0.150279 v -4.262749 c -1.386754,0.240137 -3.499464,0.254131 -4.853683,0 v 4.276653 l -0.112864,0.150801 0.168461,0.333703 z m 2.795842,-2.297956 c -0.608174,3.28e-4 -1.21648,-0.03488 -1.563168,-0.105366 v -0.55243 c 0.693376,0.208009 2.432961,0.216215 3.126337,-0.01006 v 0.559916 c -0.346688,0.07179 -0.954994,0.107697 -1.563169,0.10804 z m -3.979313,-0.64495 c -0.945857,-0.248575 -1.825039,-0.571256 -2.613482,-0.957795 v -0.600024 c 0.776927,0.401081 1.656979,0.73708 2.613481,0.994695 z m 7.946862,-5.56e-4 v -0.562591 c 0.956546,-0.257615 1.836278,-0.594194 2.613482,-0.995228 v 0.600559 c -0.788443,0.386536 -1.667119,0.708959 -2.613482,0.95726 z m -3.967549,-0.884529 c -0.608174,3.17e-4 -1.21648,-0.03489 -1.563168,-0.105366 v -0.552429 c 0.693376,0.208007 2.432961,0.21568 3.126337,-0.01068 v 0.560453 c -0.346688,0.07179 -0.954994,0.107697 -1.563169,0.108016 z m 3.967549,-0.704843 v -0.571148 c 0.974027,-0.306064 1.856007,-0.70715 2.613482,-1.183473 v 0.628371 c -0.773396,0.453611 -1.653401,0.83496 -2.613482,1.12625 z m -7.946862,0 c -0.96063,-0.291565 -1.840135,-0.672639 -2.613482,-1.12625 v -0.628371 c 0.757796,0.476104 1.63918,0.877419 2.613482,1.183483 z"
     id="path980"
     sodipodi:nodetypes="ccccccccccccccccsccccccccccccccccccccccccccccccccccccccccccccccccccccccccccc" />
</svg>
