<svg xmlns="http://www.w3.org/2000/svg" width="256" height="256" viewBox="0 0 67.733 67.733"><defs><filter id="a" color-interpolation-filters="sRGB"><feGaussianBlur result="result6" stdDeviation="3" in="SourceGraphic"/><feColorMatrix values="1 0 0 0 0 0 1 0 0 0 0 0 1 0 0 0 0 0 1 0" result="result7" in="SourceGraphic"/><feComposite operator="in" in="result6" in2="result7" result="fbSourceGraphic"/><feColorMatrix result="fbSourceGraphicAlpha" in="fbSourceGraphic" values="0 0 0 -1 0 0 0 0 -1 0 0 0 0 -1 0 0 0 0 1 0"/><feColorMatrix in="fbSourceGraphic" values="1 0 0 0 0 0 1 0 0 0 0 0 1 0 0 -0.2125 -0.7154 -0.0721 1 0" result="colormatrix"/><feComposite in2="colormatrix" in="fbSourceGraphic" operator="arithmetic" k2="1" result="composite"/><feGaussianBlur stdDeviation="0.426458 0.01" result="blur1"/><feGaussianBlur in="composite" stdDeviation="0.01 0.48" result="blur2"/><feBlend in2="blur1" in="blur2" mode="darken" result="fbSourceGraphic"/><feColorMatrix result="fbSourceGraphicAlpha" in="fbSourceGraphic" values="0 0 0 -1 0 0 0 0 -1 0 0 0 0 -1 0 0 0 0 1 0"/><feGaussianBlur stdDeviation="0.31 0.41" result="blur" in="fbSourceGraphic"/></filter></defs><path transform="translate(40.008 -216.706)" d="M-.792 258.16l2.863 11.774-6.095-10.895-3.175 14.817-.628-14.405-8.374 9.322 5.827-12.91-15.875 9.526 12.7-11.642-13.589.282 13.589-3.457-13.759-7.408 12.494 2.372-7.109-8.228 11.549 6.914-8.467-16.933 11.538 13.975 2.476-12.282.803 14.182 8.466-15.875-4.495 15.638 12.962-8.23L1.267 246.34l15.875-1.058-13.29 5.853 11.174 6.847-13.759-3.175 10.584 13.758z" fill="#424242" filter="url(#a)"/></svg>