<?xml version="1.0" encoding="UTF-8" standalone="no"?>
<svg width="1000.036" height="800.07227" version="1.1" id="svg36" sodipodi:docname="map-building-warehouse-floor-01.svg" inkscape:version="1.4 (e7c3feb100, 2024-10-09)" xmlns:inkscape="http://www.inkscape.org/namespaces/inkscape" xmlns:sodipodi="http://sodipodi.sourceforge.net/DTD/sodipodi-0.dtd" xmlns:xlink="http://www.w3.org/1999/xlink" xmlns="http://www.w3.org/2000/svg" xmlns:svg="http://www.w3.org/2000/svg">
  <sodipodi:namedview id="namedview36" pagecolor="#ffffff" bordercolor="#000000" borderopacity="0.25" inkscape:showpageshadow="2" inkscape:pageopacity="0.0" inkscape:pagecheckerboard="0" inkscape:deskcolor="#d1d1d1" inkscape:zoom="0.2305" inkscape:cx="516.26898" inkscape:cy="123.64425" inkscape:current-layer="svg36" />
  <defs id="defs31">
    <pattern xlink:href="#a" id="k" patternTransform="matrix(.625 0 0 .625 2160 -183)" />
    <pattern xlink:href="#b" id="h" patternTransform="matrix(0.50819764,0.50819764,-0.50819764,0.50819764,2312.0377,1136.0346)" />
    <pattern xlink:href="#c" id="f" patternTransform="translate(2248 -159) scale(.53217)" />
    <pattern xlink:href="#d" id="c" patternTransform="translate(2248 344) scale(.53217)" />
    <pattern xlink:href="#e" id="d" patternTransform="translate(2248 -159) scale(.53217)" />
    <clipPath id="i">
      <path d="m 200,0 v 240 h 40 V 40 h 1520 v 200 h 40 V 0 Z m 0,560 V 800 H 1800 V 560 h -40 V 760 H 240 V 560 Z" fill="#6b6b6b" stroke-width="15.118" stroke-miterlimit="10" id="path1" />
    </clipPath>
    <pattern patternUnits="userSpaceOnUse" width="128" height="128" patternTransform="translate(2248 -159)" id="e">
      <path fill="#999" stroke-width="15.118" stroke-miterlimit="10" d="M0 0h128v128H0z" id="path2" />
      <path d="M0 0v2.34L125.66 128H128v-2.34L2.34 0z" fill="#191919" stroke-width="1.7" id="path3" />
      <path d="M125.66 0L0 125.66V128h2.34L128 2.34V0z" fill="#191919" stroke-width="1.7" id="path4" />
    </pattern>
    <clipPath id="j">
      <path fill="url(#f)" stroke-width="5.781" stroke-miterlimit="10" d="m 1800,-503 h 200 v 800 h -200 z" id="path5" />
    </clipPath>
    <pattern patternUnits="userSpaceOnUse" width="176" height="176" patternTransform="translate(2312 633)" id="b">
      <path fill="#5a433a" stroke-width="20.787" stroke-miterlimit="10" d="M0 0h176v176H0z" id="path6" />
      <g fill="#cebbb4" fill-opacity=".071" stroke-opacity=".49" id="g24">
        <path transform="rotate(180 0 -497.26) scale(3.77953)" stroke-width=".723" d="M-20.108-295.942h2.117v14.817h-2.117z" id="path7" />
        <path transform="matrix(0 -3.77953 3.77953 0 0 -994.52)" stroke-width=".723" d="M-288.533 0h2.117v14.817h-2.117z" id="path8" />
        <path transform="rotate(180 0 -497.26) scale(3.77953)" stroke-width=".723" d="M-8.467-283.242h2.117v14.817h-2.117z" id="path9" />
        <path transform="matrix(0 -3.77953 3.77953 0 0 -994.52)" stroke-width=".723" d="M-277.95 11.642h2.117v14.817h-2.117zm-10.583 11.641h2.117V38.1h-2.117z" id="path10" />
        <path transform="rotate(180 0 -497.26) scale(3.77953)" stroke-width=".723" d="M-31.75-283.242h2.117v14.817h-2.117z" id="path11" />
        <path transform="rotate(180 0 -497.26) scale(3.77953)" stroke-width=".58" d="M-20.108-272.658h2.117v9.525h-2.117z" id="path12" />
        <path transform="matrix(0 -3.77953 3.77953 0 0 -994.52)" stroke-width=".723" d="M-265.25 0h2.117v14.817h-2.117zm0 23.283h2.117V38.1h-2.117z" id="path13" />
        <path transform="matrix(0 -3.77953 3.77953 0 0 -994.52)" stroke-width=".335" d="M-277.95 0h2.117v3.175h-2.117z" id="path14" />
        <path transform="rotate(180 0 -497.26) scale(3.77953)" stroke-width=".58" d="M-43.392-272.658h2.117v9.525h-2.117z" id="path15" />
        <path transform="matrix(0 -3.77953 3.77953 0 0 -994.52)" stroke-width=".641" d="M-277.95 34.925h2.117v11.642h-2.117z" id="path16" />
        <path transform="rotate(180 0 -497.26) scale(3.77953)" stroke-width=".725" d="M-43.406-295.942h2.131v14.817h-2.131z" id="path17" />
        <path stroke-width=".723" d="M29.633 291.708h2.117v14.817h-2.117z" transform="translate(0 -994.52) scale(3.77953)" id="path18" />
        <path transform="matrix(0 3.77953 -3.77953 0 0 -994.52)" stroke-width=".641" d="M299.117-46.567h2.117v11.642h-2.117z" id="path19" />
        <path stroke-width=".432" d="M41.275 304.408h2.117v5.292h-2.117z" transform="translate(0 -994.52) scale(3.77953)" id="path20" />
        <path transform="matrix(0 3.77953 -3.77953 0 0 -994.52)" stroke-width=".723" d="M299.117-26.458h2.117v14.817h-2.117z" id="path21" />
        <path stroke-width=".432" d="M17.992 304.408h2.117v5.292h-2.117z" transform="translate(0 -994.52) scale(3.77953)" id="path22" />
        <path transform="matrix(0 3.77953 -3.77953 0 0 -994.52)" stroke-width=".335" d="M299.117-3.175h2.117V0h-2.117z" id="path23" />
        <path stroke-width=".725" d="M6.35 291.708h2.131v14.817H6.35z" transform="translate(0 -994.52) scale(3.77953)" id="path24" />
      </g>
    </pattern>
    <pattern patternUnits="userSpaceOnUse" width="128" height="128" patternTransform="translate(2160 -183)" id="a">
      <path fill="#999" stroke-width="15.118" stroke-miterlimit="10" d="M0 0h128v128H0z" id="path25" />
      <path d="M0 0v2.34L125.66 128H128v-2.34L2.34 0z" fill="#191919" fill-opacity=".457" stroke-width="1.7" id="path26" />
      <path d="M125.66 0L0 125.66V128h2.34L128 2.34V0z" fill="#191919" fill-opacity=".451" stroke-width="1.7" id="path27" />
    </pattern>
    <pattern xlink:href="#g" id="m" patternTransform="matrix(.625 0 0 .625 2160 -183)" />
    <pattern patternUnits="userSpaceOnUse" width="128" height="128" patternTransform="translate(2160 -183)" id="g">
      <path fill="#999" stroke-width="15.118" stroke-miterlimit="10" d="M0 0h128v128H0z" id="path28" />
      <path d="M0 0v2.34L125.66 128H128v-2.34L2.34 0z" fill="#191919" fill-opacity=".457" stroke-width="1.7" id="path29" />
      <path d="M125.66 0L0 125.66V128h2.34L128 2.34V0z" fill="#191919" fill-opacity=".451" stroke-width="1.7" id="path30" />
    </pattern>
    <clipPath id="l">
      <path fill="url(#f)" stroke-width="5.781" stroke-miterlimit="10" d="m 1800,-503 h 200 v 800 h -200 z" id="path31" />
    </clipPath>
  </defs>
  <path fill="url(#h)" d="M 200.03613,40.036132 H 1800.0361 V 760.03613 H 200.03613 Z" id="path32" />
  <path d="m 200,0 v 240 h 40 V 40 h 1520 v 200 h 40 V 0 Z m 0,560 V 800 H 1800 V 560 h -40 V 760 H 240 V 560 Z" clip-path="url(#i)" fill="#4d4d4d" stroke="#050505" stroke-width="15.118" stroke-miterlimit="10" id="path33" transform="translate(0.03613204,0.03613204)" />
  <path clip-path="url(#j)" fill="url(#k)" d="m 1800,-503 h 200 v 800 h -200 z" transform="translate(0.03613204,503.03613)" id="path34" />
  <path fill="none" d="m 2240.0361,320.03613 h 128 v 128 h -128 z" id="path35" />
  <path transform="translate(-1799.9639,503.03613)" clip-path="url(#l)" fill="url(#m)" d="m 1800,-503 h 200 v 800 h -200 z" id="path36" />
</svg>
