<svg xmlns="http://www.w3.org/2000/svg" xmlns:xlink="http://www.w3.org/1999/xlink" width="512" height="512" viewBox="0 0 135.467 135.467"><defs><pattern xlink:href="#a" id="b" patternTransform="matrix(.21167 0 0 .21167 143.933 59.267)"/><pattern patternUnits="userSpaceOnUse" width="160" height="160" patternTransform="matrix(.26458 0 0 .26458 143.933 59.267)" id="a"><path fill="none" stroke-width="3.78" d="M0 0h160v160H0z"/><path fill="none" stroke-width="3.78" d="M0 0h160v160H0z"/><path fill="#a76118" stroke-width="18.898" stroke-miterlimit="10" d="M0 0h160v160H0z"/><path fill-opacity=".354" stroke-width="8.709" stroke-miterlimit="10" d="M36 0h4v160h-4zM76 0h4v160h-4zM116 0h4v160h-4z"/><path transform="rotate(90)" fill-opacity=".354" stroke-width="4.131" stroke-miterlimit="10" d="M36-76h4v36h-4zM156-36h4V0h-4zM116-116h4v36h-4z"/><path fill-opacity=".354" stroke-width="8.709" stroke-miterlimit="10" d="M156 0h4v160h-4z"/><path transform="rotate(90)" fill-opacity=".354" stroke-width="4.131" stroke-miterlimit="10" d="M76-156h4v36h-4z"/></pattern></defs><path d="M8.467 8.467H127V127H8.467z" fill="url(#b)"/><path d="M8.467 8.467V50.8h8.466V16.933h101.6v101.6H84.667V127H127V8.467H8.467zm0 67.733V127H50.8v-8.467H16.933V76.2H8.467z" fill="#381a06" fill-opacity=".49"/><rect ry="1.663" rx="1.663" y="56.092" x="56.092" height="23.283" width="23.283" fill="#d3a743" fill-opacity=".294"/></svg>