<svg xmlns="http://www.w3.org/2000/svg" xmlns:xlink="http://www.w3.org/1999/xlink" width="288" height="384" viewBox="0 0 76.2 101.6"><defs><pattern xlink:href="#a" id="f" patternTransform="matrix(-.2374 .2374 -.2374 -.2374 45.605 224.031)"/><pattern xlink:href="#b" id="a" patternTransform="rotate(135 -77.48 56.946) scale(1.26893)"/><pattern xlink:href="#c" id="b" patternTransform="matrix(-.2374 .2374 -.2374 -.2374 45.605 224.031)"/><pattern xlink:href="#d" id="c" patternTransform="rotate(135 -77.48 56.946) scale(1.26893)"/><pattern xlink:href="#e" id="d" patternTransform="matrix(-.2374 .2374 -.2374 -.2374 45.605 224.031)"/><pattern patternUnits="userSpaceOnUse" width="175.039" height="75.039" patternTransform="translate(108.576 213.448) scale(.26458)" id="e"><path d="M0 0h175.039v15.04H0z" fill="#fff"/><path d="M0 11.84h175.039v3.12H0z" fill="#191919"/><path d="M0 15.04h175.039V60H0z" fill="#b1b1b1"/><path d="M0 60h175.039v15.04H0z" fill="#fff"/><path d="M0 60h175.039v3.2H0z" fill="#191919"/></pattern><clipPath id="g"><path d="M150.38 289.648H69.946V183.815h37.042l4.233 5.291h22.225l4.196-5.291h12.738z" fill="url(#f)" stroke-width="4.233" stroke-miterlimit="10"/></clipPath><clipPath id="h"><path d="M148.263 287.532H69.946V183.815h37.042l4.233 5.291h22.225l4.196-5.291.038-2.117h10.583z" clip-path="url(#g)" fill="url(#b)" stroke-width="4.233" stroke-miterlimit="10"/></clipPath><clipPath id="i"><path d="M148.263 287.532H69.946V183.815h33.867l4.233 5.291h25.4l4.196-5.291h10.621z" clip-path="url(#h)" fill="url(#b)" stroke-width="4.233" stroke-miterlimit="10"/></clipPath></defs><path clip-path="url(#i)" d="M148.263 287.532H69.946V183.815h33.867l4.233 5.291h25.4l4.196-5.291h10.621z" fill="url(#b)" stroke="#000" stroke-width="4.233" stroke-miterlimit="10" transform="translate(-69.946 -183.815)"/></svg>