<?xml version="1.0" encoding="UTF-8" standalone="no"?>
<svg width="863.99847" height="608.00201" viewBox="0 0 228.599 160.86753" version="1.1" id="svg22" sodipodi:docname="map-bunker-hydra-floor-01.svg" inkscape:version="1.4 (e7c3feb100, 2024-10-09)" xmlns:inkscape="http://www.inkscape.org/namespaces/inkscape" xmlns:sodipodi="http://sodipodi.sourceforge.net/DTD/sodipodi-0.dtd" xmlns:xlink="http://www.w3.org/1999/xlink" xmlns="http://www.w3.org/2000/svg" xmlns:svg="http://www.w3.org/2000/svg">
  <sodipodi:namedview id="namedview22" pagecolor="#ffffff" bordercolor="#000000" borderopacity="0.25" inkscape:showpageshadow="2" inkscape:pageopacity="0.0" inkscape:pagecheckerboard="0" inkscape:deskcolor="#d1d1d1" inkscape:zoom="0.45274476" inkscape:cx="-92.767501" inkscape:cy="378.80063" inkscape:current-layer="svg22" />
  <defs id="defs7">
    <clipPath id="c">
      <path clip-path="url(#clipPath6865)" d="m 402.14,158.55 h 9.526 v -42.334 h -9.525 z" fill="#a3977d" stroke-width="1.984" id="path1" />
    </clipPath>
    <clipPath id="d">
      <path d="m -22.25,168.075 v -9.525 h -46.568 v 9.525 z" clip-path="url(#clipPath6865)" fill="#a3977d" stroke-width="2.081" id="path2" />
    </clipPath>
    <clipPath id="i">
      <ellipse ry="6.3400002" rx="6.3499999" cy="243.216" cx="-87.867996" fill="#3f3f3f" fill-opacity="0.611" stroke-width="2.145" stroke-opacity="0.706" id="ellipse2" />
    </clipPath>
    <clipPath id="e">
      <path d="m -70.934,202.47 h 50.8 v -60.854 h -8.467 v 48.155 l -4.233,4.233 h -25.4 l -4.234,-4.233 v -48.155 h -8.466 z" fill="#a3977d" stroke-width="5.144" id="path3" />
    </clipPath>
    <pattern patternTransform="matrix(-0.26458,0,0,0.26458,152.39917,220.13453)" id="b" xlink:href="#a" />
    <pattern patternUnits="userSpaceOnUse" width="128" height="128" patternTransform="translate(403.126 141.712) scale(.26458)" id="a">
      <path fill="#686868" stroke-width="12" d="M0 0h64v64H0zm64 64h64v64H64z" id="path4" />
      <path fill="#5b5b5b" stroke-width="12" d="M64 0h64v64H64zM0 64h64v64H0z" id="path5" />
    </pattern>
    <clipPath id="f">
      <path d="M 640,-0.002 V 31.996 L 864,32 863.996,576.002 640,576 v 31.998 L 895.996,608 895.998,0.002 Z" fill="#363d4d" stroke-width="9.935" id="path6" />
    </clipPath>
    <clipPath id="g">
      <path d="M 262.466,25.4 H 152.4 v 110.067 h 110.066 l 10e-4,25.4 h 16.934 V 152.4 h -8.467 V 97.367 h -8.467 V 127 h -101.6 V 33.867 h 101.6 V 63.5 h 8.467 V 8.467 H 279.4 V 0 h -16.933 z" fill="#363d4d" stroke-width="3.742" id="path7" />
    </clipPath>
    <clipPath id="h">
      <ellipse ry="10.319" rx="10.335" cy="243.216" cx="-24.735001" fill="#3f3f3f" fill-opacity="0.612" stroke-width="3.49" stroke-opacity="0.706" id="ellipse7" />
    </clipPath>
  </defs>
  <path d="M -0.00183139,135.46753 V 25.400529 H 110.06517 l 0.001,-25.39999984 h 118.533 V 160.86753 h -118.533 v -25.4 z" fill="url(#b)" id="path8" />
  <path transform="matrix(1,0,0,-1.1,-350.28283,231.55553)" d="m 402.14,158.55 h 9.526 v -42.334 h -9.525 z" clip-path="url(#c)" fill="#646464" id="path9" />
  <path d="m -22.25,168.075 v -9.525 h -46.568 v 9.525 z" clip-path="url(#d)" transform="matrix(0,-1,-1,0,211.46617,34.900529)" fill="#5a5a5a" stroke="#000000" stroke-width="2.117" stroke-opacity="0.706" id="path10" />
  <path transform="matrix(0,-1,-1,0,202.99917,34.900529)" clip-path="url(#d)" d="m -22.25,168.075 v -9.525 h -46.568 v 9.525 z" fill="#505050" stroke="#000000" stroke-width="2.117" stroke-opacity="0.706" id="path11" />
  <path d="m -22.25,168.075 v -9.525 h -46.568 v 9.525 z" clip-path="url(#d)" transform="matrix(0,-1,-1,0,194.53317,34.900529)" fill="#464646" stroke="#000000" stroke-width="2.117" stroke-opacity="0.706" id="path12" />
  <path transform="matrix(0,-1,-1,0,186.06617,34.900529)" clip-path="url(#d)" d="m -22.25,168.075 v -9.525 h -46.568 v 9.525 z" fill="#3c3c3c" stroke="#000000" stroke-width="2.117" stroke-opacity="0.706" id="path13" />
  <path d="m -22.25,168.075 v -9.525 h -46.568 v 9.525 z" clip-path="url(#d)" transform="matrix(0,-1,-1,0,177.59917,34.900529)" fill="#323232" stroke="#000000" stroke-width="2.117" stroke-opacity="0.706" id="path14" />
  <path clip-path="url(#e)" d="m -70.934,202.47 h 50.8 v -60.854 h -8.467 v 48.155 l -4.233,4.233 h -25.4 l -4.234,-4.233 v -48.155 h -8.466 z" transform="matrix(0,-1,-1,0,211.38017,34.900529)" fill="#1a1c21" stroke="#000000" stroke-width="3.175" stroke-opacity="0.706" id="path15" />
  <path d="M 169.33317,76.200529 V 8.4675292 h 8.467 V 67.733529 h 8.467 v 8.467 z" fill="#2a303d" fill-opacity="0.581" id="path16" />
  <path transform="matrix(0.26458,0,0,0.26458,-8.4668314,5.2916e-4)" d="M 640,-0.002 V 31.996 L 864,32 863.996,576.002 640,576 v 31.998 L 895.996,608 895.998,0.002 Z" clip-path="url(#f)" fill="#363d4d" stroke="#000000" stroke-width="12" id="path17" />
  <path d="M 262.466,25.4 H 152.4 v 110.067 h 110.066 l 10e-4,25.4 h 16.934 V 152.4 h -8.467 V 97.367 h -8.467 V 127 h -101.6 V 33.867 h 101.6 V 63.5 h 8.467 V 8.467 h 8.467 V 0 h -16.934 z" clip-path="url(#g)" fill="#363d4d" stroke-width="3.175" stroke="#000000" id="path18" transform="translate(-152.40083,5.2916e-4)" />
  <g fill="#3f3f3f" fill-opacity="0.612" id="g19" transform="translate(-152.40083,5.2916e-4)">
    <ellipse cx="115.888" cy="114.212" rx="12.67" ry="12.612" id="ellipse18" />
    <ellipse transform="translate(140.623,-128.916)" clip-path="url(#h)" ry="10.319" rx="10.335" cy="243.216" cx="-24.735001" stroke="#404040" stroke-width="2.117" stroke-opacity="0.5" id="ellipse19" />
  </g>
  <path d="m -39.304832,96.337529 c -0.638,0.107 -2.204,3.978001 -2.799,4.230001 -0.593,0.258 -4.291,-1.418001 -4.816,-1.054001 -0.533,0.361 -0.104,4.478001 -0.514,4.970001 -0.418,0.497 -4.731,0.81 -4.98,1.416 -0.252,0.608 1.726,3.733 1.591,4.37 -0.146,0.637 -3.301,3.65 -3.25,4.308 0.05,0.657 3.318,3.044 3.518,3.67 0.19,0.62 -1.112,4.13 -0.78,4.705 0.324,0.573 3.47,0.805 3.938,1.252 0.467,0.447 1.29,3.9 1.838,4.27 0.545,0.366 3.375,-0.666 4.004,-0.476 0.625,0.192 3.052,3.422 3.693,3.478 0.642,0.055 3.203,-3.46 3.832,-3.55 0.631,-0.097 3.753,1.718 4.352,1.481 0.594,-0.233 1.886001,-3.326 2.411001,-3.69 0.523,-0.368 3.471,-0.593 3.865,-1.1 0.397,-0.503 -0.134,-3.545 0.139,-4.128 0.268,-0.58 3.774,-2.283 3.91,-2.927 l 0.005,-0.003 c 0.138,-0.64 -2.424,-3.712 -2.466,-4.375 -0.04,-0.658 1.948,-2.826 1.775,-3.456 -0.172,-0.63 -3.52,-2.88 -3.872,-3.436 -0.351,-0.557 0.032,-3.464 -0.432,-3.926 -0.471,-0.464 -4.254001,-0.608 -4.786001,-0.981 -0.53,-0.38 -1.149,-3.470001 -1.758,-3.666001 -0.61,-0.188 -3.787,2.084 -4.429,2.028 -0.641,-0.055 -3.359,-3.519 -3.99,-3.41 z m 1.558,6.907001 c 0.481,-0.064 2.49,1.378 2.992,1.47 0.496,0.09 1.496,-1.111 1.97,-0.946 0.47,0.166 0.845,1.389 1.256,1.645 0.411,0.267 1.453,-0.347 1.848,-0.032 0.395,0.315 0.192,1.944 0.497,2.329 0.31,0.39 1.591001,1.495 1.773001,1.96 0.182,0.46 -0.16,1.383 -0.075,1.87 0.086,0.49 2.062,1.533 2.056,2.045 -0.005,0.513 -1.164,0.694 -1.212,1.191 -0.054,0.497 0.62,2.559 0.427,3.04 -0.197,0.48 -1.159,0.827 -1.383,1.265 -0.219,0.438 -0.299,1.95 -0.651001,2.329 h -0.001 c -0.353,0.374 -2.74,0.545 -3.119,0.876 -0.38,0.331 0.374,0.94 -0.07,1.148 -0.438,0.203 -2.58,-0.657 -3.06,-0.523 -0.486,0.134 -0.956,1.794 -1.453,1.821 -0.497,0.032 -1.282,-0.534 -1.773,-0.651 -0.481,-0.107 -1.998,0.758 -2.484,0.587 -0.48,-0.17 -0.32,-1.656 -0.77,-1.896 -0.442,-0.24 -2.723,-0.064 -3.06,-0.411 -0.341,-0.353 -0.272,-1.496 -0.565,-1.923 -0.294,-0.417 -1.459,-1.042 -1.71,-1.464 -0.24,-0.427 0.096,-1.826 0.011,-2.333 -0.085,-0.502 -0.7,-1.55 -0.77,-2.041 -0.069,-0.492 1.261,-1.293 1.283,-1.784 0.02,-0.491 -0.63,-1.394 -0.428,-1.87 0.203,-0.48 1.074,-1.26 1.309,-1.698 0.235,-0.433 0.342,-2.12 0.657,-2.505 0.31,-0.38 1.533,0.24 1.902,-0.096 0.373,-0.337 0.94,-1.87 1.372,-2.131 0.438,-0.262 1.298,-0.507 1.778,-0.609 0.481,-0.096 0.973,-0.598 1.453,-0.662 z" fill="#408602" fill-opacity="0.941" id="path19" />
  <g id="g22" transform="translate(-152.40083,5.2916e-4)">
    <g transform="translate(143.392,-0.01)" fill="#3f3f3f" fill-opacity="0.611" id="g21">
      <ellipse cx="-107.937" cy="42.333" rx="8.467" ry="8.4530001" id="ellipse20" />
      <ellipse clip-path="url(#i)" ry="6.3400002" rx="6.3499999" cy="243.216" cx="-87.867996" transform="translate(-20.07,-200.883)" stroke="#404040" stroke-width="2.117" stroke-opacity="0.5" id="ellipse21" />
    </g>
    <path d="m 39.616,31.418 c -0.388,-0.145 -2.496,1.5 -2.908,1.45 -0.41,-0.047 -1.926,-2.162 -2.334,-2.128 -0.411,0.03 -1.492,2.452 -1.877,2.593 -0.391,0.142 -2.885,-1.065 -3.216,-0.81 -0.335,0.257 -0.239,2.625 -0.517,2.935 -0.286,0.307 -3.002,0.968 -3.184,1.349 -0.182,0.381 0.866,2.752 0.776,3.163 -0.093,0.405 -1.94,1.936 -1.94,2.36 -0.003,0.422 1.668,1.559 1.784,1.957 0.116,0.398 -0.534,2.576 -0.348,2.957 0.186,0.378 2.086,0.712 2.374,1.02 0.286,0.306 0.597,2.875 0.935,3.112 0.339,0.236 2.885,-0.894 3.263,-0.742 0.382,0.148 1.532,2.155 1.94,2.215 0.405,0.061 2.112,-1.24 2.52,-1.274 0.408,-0.038 2.116,0.782 2.497,0.627 0.381,-0.152 1.061,-2.01 1.4,-2.246 0.334,-0.236 2.825,-0.057 3.106,-0.37 l 0.004,-10e-4 c 0.282,-0.31 -0.156,-2.836 0.033,-3.218 0.19,-0.377 1.986,-0.944 2.092,-1.349 0.107,-0.404 -1.03,-2.725 -1.047,-3.146 -0.017,-0.422 1.127,-1.912 1.017,-2.317 -0.112,-0.408 -2.165,-1.7 -2.34,-2.077 -0.173,-0.381 0.474,-2.294 0.198,-2.597 -0.278,-0.3 -2.769,-0.057 -3.107,-0.294 -0.338,-0.236 -0.736,-3.028 -1.12,-3.17 z m -1.348,4.331 c 0.288,0.119 0.94,1.562 1.19,1.773 0.246,0.21 1.185,-0.137 1.396,0.107 0.208,0.243 0.023,1.041 0.17,1.315 0.142,0.28 0.917,0.273 1.035,0.574 0.118,0.302 -0.516,1.14 -0.47,1.451 0.047,0.316 0.404,1.34 0.356,1.656 -0.047,0.313 -0.532,0.716 -0.64,1.013 -0.11,0.3 0.652,1.511 0.485,1.794 -0.167,0.283 -0.869,0.012 -1.055,0.272 -0.188,0.259 -0.475,1.618 -0.736,1.823 -0.263,0.204 -0.908,0.088 -1.173,0.26 -0.262,0.172 -0.79,0.985 -1.107,1.083 -0.316,0.094 -1.695,-0.576 -2.012,-0.513 -0.316,0.062 -0.093,0.64 -0.406,0.614 -0.308,-0.027 -1.221,-1.19 -1.53,-1.27 -0.313,-0.082 -1.106,0.69 -1.39,0.545 -0.286,-0.142 -0.54,-0.707 -0.775,-0.93 -0.233,-0.213 -1.351,-0.219 -1.566,-0.469 -0.212,-0.249 0.352,-1.022 0.18,-1.299 -0.169,-0.275 -1.49,-0.908 -1.566,-1.208 -0.076,-0.305 0.328,-0.917 0.302,-1.248 -0.03,-0.326 -0.475,-1.045 -0.48,-1.36 0.004,-0.314 0.639,-0.982 0.754,-1.291 0.114,-0.306 0.108,-1.084 0.227,-1.379 0.119,-0.295 1.113,-0.313 1.283,-0.579 0.169,-0.266 0.097,-0.975 0.361,-1.174 0.267,-0.202 1,-0.355 1.27,-0.523 0.27,-0.165 0.87,-1.067 1.167,-1.18 0.294,-0.11 0.774,0.625 1.086,0.556 0.316,-0.067 1.12,-0.736 1.445,-0.742 0.326,-0.005 0.882,0.134 1.181,0.232 0.297,0.1 0.731,-0.021 1.018,0.097 z" fill="#408602" fill-opacity="0.941" id="path21" />
  </g>
</svg>
