<?xml version="1.0" encoding="UTF-8" standalone="no"?>
<svg
   width="144"
   height="144"
   viewBox="0 0 38.1 38.1"
   version="1.1"
   id="svg14"
   sodipodi:docname="map-crate-21d.svg"
   xml:space="preserve"
   inkscape:version="1.3 (0e150ed6c4, 2023-07-21)"
   xmlns:inkscape="http://www.inkscape.org/namespaces/inkscape"
   xmlns:sodipodi="http://sodipodi.sourceforge.net/DTD/sodipodi-0.dtd"
   xmlns="http://www.w3.org/2000/svg"
   xmlns:svg="http://www.w3.org/2000/svg"><sodipodi:namedview
     id="namedview14"
     pagecolor="#ffffff"
     bordercolor="#000000"
     borderopacity="0.25"
     inkscape:showpageshadow="2"
     inkscape:pageopacity="0.0"
     inkscape:pagecheckerboard="0"
     inkscape:deskcolor="#d1d1d1"
     inkscape:zoom="1.754102"
     inkscape:cx="71.831626"
     inkscape:cy="72.116672"
     inkscape:window-width="1366"
     inkscape:window-height="697"
     inkscape:window-x="-8"
     inkscape:window-y="-8"
     inkscape:window-maximized="1"
     inkscape:current-layer="svg14" /><defs
     id="defs5"><clipPath
       id="a"><path
         fill="#4d2600"
         stroke-width=".529"
         d="M0 258.9h38.1V297H0z"
         id="path1" /></clipPath><clipPath
       id="c"><path
         d="M-4.763 273.187v-5.82h28.575v5.82z"
         fill="#4d2600"
         stroke-width="3.532"
         id="path2" /></clipPath><clipPath
       id="b"><path
         d="M43.392 296.47h-12.7v-38.1h12.7z"
         fill="#4d2600"
         stroke-width="6.024"
         id="path3" /></clipPath><clipPath
       id="d"><path
         d="M-1.587 297h-5.821v-38.1h5.82z"
         fill="#4d2600"
         stroke-width="4.078"
         id="path4" /></clipPath><clipPath
       id="e"><path
         d="M-45.534 209.35l29.33 16.933v33.867l-29.33 16.933-29.33-16.933v-33.867z"
         fill-opacity=".506"
         stroke="#fff"
         stroke-width="2.117"
         stroke-opacity=".502"
         id="path5" /></clipPath><clipPath
       id="a-2"><path
         style="fill-opacity:0.506;stroke:#ffffff;stroke-width:2.117;stroke-opacity:0.502"
         inkscape:connector-curvature="0"
         d="m -45.534,209.35 29.33,16.933 v 33.867 l -29.33,16.933 -29.33,-16.933 v -33.867 z"
         id="path2-6" /></clipPath></defs><path
     clip-path="url(#a)"
     d="M0 258.9h38.1V297H0z"
     transform="translate(0 -258.9)"
     stroke-width="3.969"
     stroke="#191919"
     fill="#4d2600"
     id="path6" /><path
     transform="rotate(90 163.581 132.89)"
     d="M43.392 296.47h-12.7v-38.1h12.7z"
     clip-path="url(#b)"
     fill="#226dbc"
     stroke="#191919"
     stroke-width="3.969"
     id="path7"
     style="fill:#89ffe6;fill-opacity:1" /><path
     transform="matrix(-1.33333 0 0 -1 31.75 305.467)"
     clip-path="url(#c)"
     d="M-4.763 273.187v-5.82h28.575v5.82z"
     fill="#d19200"
     stroke="#191919"
     stroke-width="3.437"
     id="path8" /><path
     transform="rotate(90 128.656 168.344)"
     d="M-1.587 297h-5.821v-38.1h5.82z"
     clip-path="url(#d)"
     fill="#763800"
     stroke="#191919"
     stroke-width="3.969"
     id="path9" /><path
     clip-path="url(#d)"
     d="M-1.587 297h-5.821v-38.1h5.82z"
     transform="translate(7.408 -258.9)"
     fill="#763800"
     stroke="#191919"
     stroke-width="3.969"
     id="path10" /><path
     clip-path="url(#b)"
     d="M43.392 296.47h-12.7v-38.1h12.7z"
     transform="translate(-5.292 -258.37)"
     fill="#763800"
     stroke="#191919"
     stroke-width="3.969"
     id="path11" /><path
     d="M37.042 16.002V10.88l-9.8-9.822h-5.123z"
     fill="#4d2600"
     stroke="#191919"
     stroke-width="1.968"
     id="path12" /><g
     id="g875"
     transform="translate(-3.4395012,3.4404987)"><path
       id="path7-4"
       clip-path="url(#a-2)"
       d="m -45.534,209.35 29.33,16.933 v 33.867 l -29.33,16.933 -29.33,-16.933 v -33.867 z"
       transform="matrix(-0.23209437,-0.13399975,0.13399975,-0.23209437,-24.109134,69.397637)"
       style="fill:#000000;fill-opacity:0.449495;stroke:#ffffff;stroke-width:4.011"
       inkscape:connector-curvature="0" /><path
       id="path9-1"
       d="m 19.049908,13.686321 a 5.3637659,5.3637659 0 0 0 -5.363766,5.363766 5.3637659,5.3637659 0 0 0 5.363766,5.363766 5.3637659,5.3637659 0 0 0 5.363766,-5.363766 5.3637659,5.3637659 0 0 0 -5.363766,-5.363766 z m 0.143606,2.082142 h 2.86e-4 c 1.170016,0 2.41112,0.586439 2.41112,1.756026 0,0.171068 -0.01888,0.288499 -0.05635,0.44841 0.42481,0.18008 0.71288,0.558404 0.71288,0.981927 0,0.03719 -0.0043,0.07195 -0.0082,0.106989 -0.193811,-0.0049 -0.356154,0.02818 -0.545674,0.129589 -0.192667,-0.687992 -0.980783,-1.236956 -1.866591,-1.236956 -0.871934,0.0163 -1.900918,0.740629 -1.900918,1.767182 h -0.491321 a 0.87136167,0.87136167 0 0 0 -0.761798,0.448125 h -0.140173 c -1.284157,-0.04105 -2.117615,-0.378324 -2.117615,-1.251831 0,-0.58458 0.514207,-0.986218 1.063027,-1.036995 0.02432,-0.708876 0.603603,-1.128822 1.319343,-1.128822 0.178364,0 0.348288,0.03633 0.503479,0.100838 0.350433,-0.684703 1.055589,-1.084482 1.87832,-1.084482 z m 0.665393,2.438154 c 0.06294,-0.001 0.126585,2.86e-4 0.190807,0.0059 0.733191,0.06379 1.336793,0.580717 1.529603,1.268996 0.780535,-0.417802 1.734713,0.147325 1.734713,1.039998 0,0.655095 -0.532085,1.17917 -1.178884,1.17917 h -4.477528 a 0.87200531,0.87200531 0 1 1 0,-1.74401 h 0.491177 a 1.7467283,1.7467283 0 0 1 1.709969,-1.750018 z"
       style="fill:#ffffff;stroke-width:0.143034"
       inkscape:connector-curvature="0" /></g></svg>
