<svg xmlns="http://www.w3.org/2000/svg" width="144" height="144" viewBox="0 0 38.1 38.1"><defs><clipPath id="c"><path d="M31.482 15.852l-5.51 2.906-3.036 7.195-4.973 3.932.031 4.23a16.933 16.933 0 0 0 11.324-8.113 16.933 16.933 0 0 0 2.164-10.15z" fill="#0097f0" fill-opacity=".586" stroke-width="1.881"/></clipPath><clipPath id="b"><path d="M22.48 2.929l-2.503 3.067-5.166.566 4.44 2.825 1.533 5.004 2.422-4.036 4.036-1.13-3.794-2.26z" fill="#0097f0" fill-opacity=".586" stroke-width="1.881"/></clipPath><clipPath id="a"><path d="M7.44 8.946a16.933 16.933 0 0 0-.97 2.072 16.933 16.933 0 0 0 .914 13.97l2.233-4.32-2.16-4.098 1.667-4.634z" fill="#0097f0" fill-opacity=".586" stroke-width="1.881"/></clipPath></defs><path d="M7.44 8.946a16.933 16.933 0 0 0-.97 2.072 16.933 16.933 0 0 0 .914 13.97l2.233-4.32-2.16-4.098 1.667-4.634z" clip-path="url(#a)" fill="#0097f0" fill-opacity=".586" stroke="#191919" stroke-width="1.587"/><path d="M22.48 2.929l-2.503 3.067-5.166.566 4.44 2.825 1.533 5.004 2.422-4.036 4.036-1.13-3.794-2.26z" clip-path="url(#b)" fill="#0097f0" fill-opacity=".586" stroke="#191919" stroke-width="1.587"/><path d="M31.482 15.852l-5.51 2.906-3.036 7.195-4.973 3.932.031 4.23a16.933 16.933 0 0 0 11.324-8.113 16.933 16.933 0 0 0 2.164-10.15z" clip-path="url(#c)" transform="translate(2.18 .726)" fill="#0097f0" fill-opacity=".586" stroke="#191919" stroke-width="1.587"/></svg>