<svg xmlns="http://www.w3.org/2000/svg" width="108" height="94" viewBox="0 0 28.575 24.871"><defs><clipPath id="a"><rect ry="1.138" rx=".893" y="258.9" x="-47.625" height="22.754" width="28.575" fill="#8c4639" stroke-width="3.024"/></clipPath></defs><g transform="translate(47.625 -258.9)"><path d="M-37.6 280.596h8.525c.277 0 .5.223.5.5v1.087c-.8 1.101-9.492 1.086-9.525 0v-1.087c0-.277.223-.5.5-.5z" fill="#4f4f4f" stroke="#191919" stroke-width="1.058"/><rect width="28.575" height="22.754" x="-47.625" y="258.9" rx=".893" ry="1.138" clip-path="url(#a)" fill="#e3e3e3" stroke="#191919" stroke-width="3.024"/><path fill="#191919" d="M-47.625 262.075h28.575v1.588h-28.575z"/><g stroke="#191919" stroke-opacity=".828" fill="none"><ellipse ry="2.636" rx="2.646" cy="268.425" cx="-39.82" stroke-width=".529"/><ellipse cx="-39.82" cy="268.425" rx="1.72" ry="1.714" stroke-width=".491"/><ellipse ry="2.636" rx="2.646" cy="275.833" cx="-39.82" stroke-width=".529"/><ellipse cx="-39.82" cy="275.833" rx="1.72" ry="1.714" stroke-width=".491"/><ellipse cx="-26.657" cy="268.425" rx="2.646" ry="2.636" stroke-width=".529"/><ellipse ry="1.714" rx="1.72" cy="268.425" cx="-26.657" stroke-width=".491"/><ellipse cx="-26.657" cy="275.833" rx="2.646" ry="2.636" stroke-width=".529"/><ellipse ry="1.714" rx="1.72" cy="275.833" cx="-26.657" stroke-width=".491"/></g></g></svg>