<svg xmlns="http://www.w3.org/2000/svg" width="144" height="144" viewBox="0 0 38.1 38.1"><path d="M31.76 30.335c-.202.225-1.688.602-1.913.797-.226.194-1.289 1.95-1.538 2.12-.248.168-1.437-.25-1.703-.113-.267.136-1.296 1.22-1.571 1.33-.276.108-1.535.226-1.826.288-.292.063-1.515 1.271-1.812 1.31-.297.034-2.184-.77-2.48-.776-.297-.004-1.258.186-1.55.144-.294-.04-1.757-.45-2.044-.522-.287-.07-1.548.166-1.827.06-.278-.106-1.61-1.349-1.869-1.497-.258-.147-1.734-.295-1.977-.465-.244-.17-.537-1.647-.754-1.855-.217-.209-1.642-.622-1.834-.85-.191-.23-.347-1.88-.521-2.122-.174-.243-1.825-1.085-1.96-1.356-.134-.272-.281-1.586-.377-1.868-.096-.283-.747-1.765-.816-2.06-.069-.293.53-1.558.502-1.86-.028-.3-1.39-1.453-1.388-1.756 0-.304.772-1.77.817-2.07.044-.3-.444-2.14-.377-2.434.067-.293 1.495-1.06 1.597-1.347.102-.285-.363-2.06-.23-2.333.133-.272 1.873-1.052 2.043-1.297.17-.245.454-1.78.648-2.007.193-.226 1.721-.276 1.95-.47.229-.193.611-2.376.852-2.557.242-.18 2.137.414 2.4.27.264-.145 1.26-1.626 1.534-1.735.274-.11 1.537.506 1.825.436.29-.07 1.555-1.68 1.85-1.707.295-.025 1.451 1.231 1.747 1.235.296.003 1.955-.976 2.246-.93.291.045 1.096 1.428 1.384 1.495.289.066 2.247-.89 2.524-.786.277.104.878 1.813 1.135 1.957.258.144 1.769-.163 2.015.005.247.168.871 2.167 1.088 2.37.217.203 1.985.491 2.184.712.198.22.045 1.552.208 1.8.164.25 2.139.84 2.274 1.11.134.268-.468 1.893-.357 2.17.111.277 1.16 1.71 1.236 2.003.077.293-.22 1.957-.189 2.26.03.303.685 1.452.692 1.757.008.304-.774 1.755-.816 2.053-.043.297.413 1.832.338 2.124-.074.292-.753 1.315-.863 1.595-.11.28-.364 1.878-.503 2.146-.14.268-1.186 1.044-1.347 1.297-.16.252-.446 1.703-.647 1.928z" fill="#1b2d09"/><path d="M34.752 22.661a.227.227 0 0 0-.137-.107c-.04-.01-.98-.267-2.234-.356a10.019 10.019 0 0 0-2.061.05c-.796.109-1.49.33-2.065.656a2.979 2.979 0 0 0-1.41 1.811 2.979 2.979 0 0 0 .284 2.277 2.979 2.979 0 0 0 1.81 1.41 2.98 2.98 0 0 0 2.278-.284c.575-.326 1.12-.81 1.62-1.437.397-.496.766-1.083 1.1-1.745.564-1.123.826-2.063.837-2.102a.227.227 0 0 0-.022-.173zm0 0" fill="#9fb02b"/><path d="M33.162 25.711l-2.235-.615 1.625-.923a.227.227 0 0 0-.225-.395l-1.624.923.615-2.235a.227.227 0 0 0-.438-.12l-.736 2.672-1.248.71.833-3.027a.227.227 0 0 0-.438-.12l-.954 3.464-1.121.637a.227.227 0 1 0 .224.395l1.121-.637 3.464.954a.227.227 0 1 0 .121-.438l-3.026-.834 1.249-.709 2.673.736a.227.227 0 1 0 .12-.438z" fill="#3d6400"/><path d="M23.394 33.91c.056.022.118.02.173-.004a12.62 12.62 0 0 0 1.952-1.145 10.018 10.018 0 0 0 1.56-1.349c.544-.59.94-1.202 1.176-1.819a2.979 2.979 0 0 0-.063-2.294 2.979 2.979 0 0 0-1.667-1.578 2.979 2.979 0 0 0-2.294.063 2.98 2.98 0 0 0-1.577 1.667c-.236.617-.35 1.338-.337 2.14.01.635.097 1.323.26 2.045.278 1.226.674 2.118.69 2.155a.23.23 0 0 0 .127.12zm0 0" fill="#6c8d15"/><path d="M22.683 30.546l2.116-.946-.667 1.745a.227.227 0 0 0 .424.163l.667-1.746.946 2.117a.227.227 0 0 0 .415-.185l-1.131-2.532.513-1.34 1.28 2.865a.227.227 0 0 0 .415-.186l-1.466-3.28.46-1.204a.227.227 0 1 0-.424-.163l-.46 1.205-3.28 1.465a.227.227 0 1 0 .185.415l2.865-1.28L25.03 29l-2.532 1.13a.227.227 0 1 0 .185.416z" fill="#3d6400"/><path d="M35.066 30.752a.227.227 0 0 0 .018-.173 12.62 12.62 0 0 0-.886-2.083 10.018 10.018 0 0 0-1.138-1.719c-.515-.615-1.071-1.086-1.654-1.4a2.979 2.979 0 0 0-2.283-.23 2.979 2.979 0 0 0-1.778 1.45 2.979 2.979 0 0 0-.231 2.283 2.98 2.98 0 0 0 1.45 1.778c.583.313 1.283.518 2.08.609.63.072 1.324.073 2.062.003a12.623 12.623 0 0 0 2.226-.408.227.227 0 0 0 .134-.11zm0 0" fill="#678714"/><path d="M31.638 31.026l-.667-2.22 1.645.885a.227.227 0 0 0 .216-.4l-1.646-.885 2.22-.667a.227.227 0 0 0-.13-.435l-2.655.798-1.265-.681 3.006-.903a.227.227 0 0 0-.13-.435l-3.442 1.034-1.135-.611a.227.227 0 1 0-.216.4l1.136.61 1.033 3.442a.227.227 0 1 0 .435-.13l-.902-3.007 1.264.68.798 2.656a.227.227 0 1 0 .435-.13z" fill="#3d6400"/><circle cx="35.669" cy="13.324" r="1.462" transform="rotate(23.81)" fill="#ffbd0f" stroke="#000" stroke-width=".529"/><path d="M22.4 33.621a.227.227 0 0 0 .006-.174 12.62 12.62 0 0 0-1.013-2.023 10.019 10.019 0 0 0-1.242-1.645c-.552-.583-1.137-1.018-1.737-1.295a2.979 2.979 0 0 0-2.294-.09c-.75.278-1.35.832-1.684 1.559a2.979 2.979 0 0 0-.09 2.293 2.98 2.98 0 0 0 1.559 1.685c.6.276 1.311.437 2.113.478.634.033 1.326-.01 2.058-.125a12.623 12.623 0 0 0 2.196-.545.227.227 0 0 0 .128-.118zm0 0" fill="#9fb02b"/><path d="M18.995 34.107l-.804-2.174 1.698.782a.227.227 0 0 0 .19-.413l-1.697-.782 2.174-.803a.227.227 0 0 0-.157-.426l-2.601.96-1.304-.6 2.944-1.088a.227.227 0 0 0-.157-.426l-3.37 1.245-1.172-.54a.227.227 0 1 0-.19.413l1.171.54 1.245 3.37a.227.227 0 1 0 .426-.157l-1.087-2.945 1.304.601.96 2.6a.227.227 0 1 0 .427-.157z" fill="#3d6400"/><path d="M6.637 30.953a.227.227 0 0 0 .105.138c.036.02.88.51 2.069.918.7.24 1.375.402 2.005.48.796.099 1.524.064 2.164-.105a2.979 2.979 0 0 0 1.827-1.388c.403-.692.513-1.5.31-2.274a2.979 2.979 0 0 0-1.39-1.827 2.98 2.98 0 0 0-2.273-.31c-.64.168-1.29.496-1.935.974a10 10 0 0 0-1.51 1.404 12.623 12.623 0 0 0-1.348 1.817.227.227 0 0 0-.024.173zm0 0" fill="#6c8d15"/><path d="M8.956 28.413l2.003 1.168-1.807.475a.227.227 0 0 0 .115.44l1.807-.476-1.168 2.002a.227.227 0 0 0 .393.23l1.397-2.395 1.388-.366-1.581 2.711a.227.227 0 0 0 .392.23l1.81-3.104L14.954 29a.227.227 0 1 0-.116-.44l-1.247.328-3.103-1.81a.227.227 0 1 0-.23.392l2.712 1.582-1.389.365-2.395-1.397a.227.227 0 1 0-.229.393z" fill="#3d6400"/><path d="M16.568 37.679a.227.227 0 0 0 .123-.123c.016-.037.39-.938.638-2.17.147-.727.218-1.417.213-2.051-.007-.803-.137-1.52-.388-2.132a2.979 2.979 0 0 0-1.617-1.628 2.979 2.979 0 0 0-2.295-.009 2.979 2.979 0 0 0-1.629 1.617 2.979 2.979 0 0 0-.008 2.295c.25.611.661 1.214 1.22 1.79.441.456.976.897 1.59 1.312a12.623 12.623 0 0 0 1.979 1.098.227.227 0 0 0 .174 0zm0 0" fill="#678714"/><path d="M13.745 35.713l.895-2.138.709 1.729a.227.227 0 0 0 .42-.172l-.709-1.73 2.139.896a.227.227 0 0 0 .175-.42l-2.557-1.07-.545-1.328 2.895 1.211a.227.227 0 0 0 .176-.419l-3.315-1.387-.489-1.193a.227.227 0 1 0-.42.172l.489 1.194-1.387 3.314a.227.227 0 1 0 .419.175l1.212-2.895.544 1.329-1.07 2.557a.227.227 0 1 0 .42.176z" fill="#3d6400"/><circle r="1.462" cy="28.257" cx="14.509" transform="rotate(.672)" fill="#e3ba00" stroke="#000" stroke-width=".529"/><path d="M9.324 28.787a.227.227 0 0 0 .154-.082 12.62 12.62 0 0 0 1.236-1.895c.35-.653.617-1.294.795-1.903.224-.77.306-1.495.242-2.153a2.979 2.979 0 0 0-1.08-2.025 2.979 2.979 0 0 0-2.194-.67 2.979 2.979 0 0 0-2.026 1.08 2.98 2.98 0 0 0-.669 2.195c.064.658.283 1.353.652 2.066.292.564.677 1.14 1.146 1.714a12.623 12.623 0 0 0 1.578 1.622.227.227 0 0 0 .166.05zm0 0" fill="#9fb02b"/><path d="M7.187 26.091l1.473-1.79.181 1.86a.227.227 0 0 0 .452-.044l-.18-1.86 1.79 1.474a.227.227 0 0 0 .288-.351l-2.14-1.762-.14-1.43 2.424 1.995a.227.227 0 0 0 .289-.35l-2.775-2.284-.124-1.283a.227.227 0 1 0-.452.044l.124 1.283-2.283 2.775a.227.227 0 1 0 .351.288l1.994-2.423.14 1.429-1.762 2.14a.227.227 0 1 0 .35.29z" fill="#3d6400"/><path d="M3.681 13.829a.227.227 0 0 0-.066.16c0 .042.003 1.017.25 2.25.145.726.346 1.39.596 1.973.317.738.714 1.349 1.182 1.816a2.98 2.98 0 0 0 2.12.878c.801 0 1.554-.313 2.12-.88a2.979 2.979 0 0 0 .878-2.12c0-.8-.313-1.553-.88-2.12-.467-.467-1.078-.864-1.816-1.18-.583-.25-1.248-.45-1.974-.595a12.623 12.623 0 0 0-2.25-.249.227.227 0 0 0-.16.067zm0 0" fill="#6c8d15"/><path d="M7.044 14.551v2.318l-1.32-1.32a.227.227 0 0 0-.322.321l1.322 1.32-2.318.001a.227.227 0 0 0 0 .455l2.772-.001 1.016 1.015-3.139.001a.227.227 0 0 0 0 .454l3.593-.001.912.912a.227.227 0 1 0 .322-.322l-.913-.911V15.2a.227.227 0 1 0-.455 0l.001 3.139-1.016-1.015V14.55a.227.227 0 1 0-.455 0z" fill="#3d6400"/><path d="M1.808 25.776a.227.227 0 0 0 .151.086c.04.006 1.009.127 2.263.04a10.017 10.017 0 0 0 2.033-.338c.773-.22 1.43-.536 1.953-.94a2.979 2.979 0 0 0 1.142-1.99 2.979 2.979 0 0 0-.6-2.215 2.979 2.979 0 0 0-1.991-1.142 2.98 2.98 0 0 0-2.215.6c-.524.404-.996.96-1.404 1.65a10.02 10.02 0 0 0-.843 1.882 12.623 12.623 0 0 0-.534 2.199c-.008.06.008.12.045.168zm0 0" fill="#678714"/><path d="M2.955 22.533l2.3.296-1.48 1.142a.227.227 0 0 0 .278.36l1.479-1.142-.296 2.299a.227.227 0 0 0 .45.058l.355-2.75 1.136-.877-.4 3.113a.227.227 0 0 0 .45.058l.459-3.564 1.02-.788a.227.227 0 1 0-.277-.36l-1.02.789-3.564-.46a.227.227 0 1 0-.058.451l3.113.401-1.137.878-2.75-.354a.227.227 0 1 0-.058.45z" fill="#3d6400"/><circle r="1.462" cy="3.006" cx="21.313" transform="rotate(60.393)" fill="#ffd517" stroke="#000" stroke-width=".529"/><path d="M5.83 12.342a.227.227 0 0 0 .133.113c.04.012.97.305 2.22.444.735.082 1.43.093 2.06.032.8-.078 1.502-.271 2.09-.575a2.979 2.979 0 0 0 1.48-1.753 2.979 2.979 0 0 0-.194-2.287 2.979 2.979 0 0 0-1.754-1.48 2.98 2.98 0 0 0-2.286.193c-.587.304-1.152.766-1.677 1.373-.415.48-.807 1.052-1.166 1.7a12.623 12.623 0 0 0-.92 2.067.227.227 0 0 0 .015.173zm0 0" fill="#9fb02b"/><path d="M7.54 9.358l2.209.703-1.66.858a.227.227 0 0 0 .209.404l1.66-.858-.704 2.209a.227.227 0 0 0 .433.137l.841-2.641 1.276-.66-.952 2.99a.227.227 0 0 0 .433.139l1.09-3.424 1.145-.592a.227.227 0 1 0-.209-.404l-1.145.593-3.424-1.09a.227.227 0 1 0-.137.432l2.99.953-1.275.659-2.642-.841a.227.227 0 1 0-.138.433z" fill="#3d6400"/><path d="M17.625 1.55a.227.227 0 0 0-.174-.002c-.038.015-.943.38-1.996 1.067-.62.405-1.162.838-1.61 1.286-.568.568-.988 1.164-1.248 1.772a2.979 2.979 0 0 0-.028 2.295 2.979 2.979 0 0 0 1.603 1.642 2.979 2.979 0 0 0 2.295.027 2.98 2.98 0 0 0 1.642-1.603c.26-.607.402-1.322.421-2.125a10.016 10.016 0 0 0-.18-2.054 12.623 12.623 0 0 0-.604-2.18.227.227 0 0 0-.121-.125zm0 0" fill="#6c8d15"/><path d="M18.202 4.94l-2.152.862.736-1.717a.227.227 0 0 0-.418-.18l-.735 1.718-.862-2.152a.227.227 0 0 0-.421.169l1.03 2.574-.566 1.32-1.166-2.914a.227.227 0 0 0-.422.169l1.335 3.335-.508 1.186a.227.227 0 1 0 .418.178l.508-1.185 3.335-1.335a.227.227 0 1 0-.168-.421l-2.914 1.166.565-1.32 2.574-1.03a.227.227 0 1 0-.169-.422z" fill="#3d6400"/><path d="M5.836 4.246a.227.227 0 0 0-.024.172c.01.04.256.984.803 2.116.322.667.682 1.26 1.07 1.762.49.636 1.027 1.129 1.596 1.465.69.407 1.497.52 2.272.32a2.973 2.973 0 0 0 1.834-1.379c.407-.69.522-1.496.322-2.272a2.98 2.98 0 0 0-1.38-1.834c-.57-.336-1.26-.568-2.054-.69a10.02 10.02 0 0 0-2.06-.084c-1.255.068-2.2.31-2.24.32a.227.227 0 0 0-.139.104zm0 0" fill="#678714"/><path d="M9.273 4.107l.579 2.245-1.61-.95a.227.227 0 0 0-.23.392l1.609.95-2.245.578a.227.227 0 0 0 .113.44l2.685-.692 1.237.73-3.04.783a.227.227 0 0 0 .114.44l3.479-.897 1.11.655a.227.227 0 1 0 .231-.39l-1.11-.656-.897-3.48a.227.227 0 1 0-.44.114l.784 3.04-1.237-.73-.692-2.685a.227.227 0 1 0-.44.113z" fill="#3d6400"/><circle transform="rotate(-153.926)" r="1.462" cy="-2.414" cx="-15.521" fill="#b49300" stroke="#000" stroke-width=".529"/><path d="M16.503 4.456a.227.227 0 0 0-.023.173c.01.04.262.982.815 2.11.326.666.69 1.257 1.08 1.757.494.632 1.035 1.122 1.606 1.454.692.403 1.5.513 2.274.308a2.979 2.979 0 0 0 1.826-1.39c.403-.693.512-1.5.307-2.275a2.98 2.98 0 0 0-1.39-1.825c-.571-.333-1.264-.561-2.058-.678a10.018 10.018 0 0 0-2.06-.072 12.623 12.623 0 0 0-2.239.333.227.227 0 0 0-.138.105zm0 0" fill="#9fb02b"/><path d="M19.94 4.297l.591 2.241-1.615-.94a.227.227 0 0 0-.228.393l1.614.94-2.24.592a.227.227 0 0 0 .115.44l2.68-.709 1.242.723-3.035.801a.227.227 0 0 0 .116.44l3.474-.918 1.114.648a.227.227 0 1 0 .229-.392l-1.115-.649-.917-3.474a.227.227 0 1 0-.44.116l.802 3.035-1.24-.722-.709-2.681a.227.227 0 1 0-.439.116z" fill="#3d6400"/><path d="M31.94 8.616a.227.227 0 0 0-.092-.147 12.62 12.62 0 0 0-1.972-1.112 10.018 10.018 0 0 0-1.95-.669c-.783-.174-1.511-.208-2.164-.102a2.979 2.979 0 0 0-1.951 1.208 2.979 2.979 0 0 0-.525 2.234c.129.79.558 1.484 1.208 1.951a2.98 2.98 0 0 0 2.234.526c.652-.107 1.332-.37 2.02-.785.543-.327 1.093-.75 1.635-1.254a12.623 12.623 0 0 0 1.516-1.68.227.227 0 0 0 .04-.17zm0 0" fill="#6c8d15"/><path d="M29.388 10.924L27.506 9.57l1.844-.301a.227.227 0 0 0-.073-.449l-1.844.301 1.354-1.881a.227.227 0 0 0-.369-.266L26.8 9.224l-1.417.232 1.833-2.548a.227.227 0 0 0-.369-.265l-2.098 2.916-1.273.208a.227.227 0 1 0 .073.448l1.273-.207 2.916 2.098a.227.227 0 1 0 .266-.369l-2.548-1.833 1.417-.23 2.25 1.618a.227.227 0 1 0 .266-.368z" fill="#3d6400"/><path d="M23.338.116a.227.227 0 0 0-.158.072c-.028.03-.693.744-1.355 1.813-.39.63-.697 1.251-.913 1.848-.273.755-.4 1.473-.378 2.133.026.8.363 1.543.948 2.09a2.979 2.979 0 0 0 2.148.807 2.979 2.979 0 0 0 2.09-.948 2.98 2.98 0 0 0 .807-2.148c-.022-.661-.197-1.369-.52-2.104a10.02 10.02 0 0 0-1.034-1.783A12.623 12.623 0 0 0 23.501.177a.227.227 0 0 0-.163-.06zm0 0" fill="#678714"/><path d="M25.3 2.942l-1.584 1.693-.062-1.868a.227.227 0 0 0-.454.015l.062 1.868-1.693-1.584a.227.227 0 0 0-.31.332l2.024 1.894.048 1.435-2.292-2.144a.227.227 0 0 0-.31.332l2.624 2.454.043 1.289a.227.227 0 1 0 .454-.015l-.043-1.29L26.26 4.73a.227.227 0 1 0-.332-.31l-2.144 2.292-.048-1.435 1.894-2.025a.227.227 0 1 0-.331-.31z" fill="#3d6400"/><path d="M30.084 7.893a.227.227 0 0 0-.162.064c-.03.029-.727.71-1.44 1.746a9.91 9.91 0 0 0-1 1.803c-.31.74-.471 1.451-.481 2.112a2.978 2.978 0 0 0 .847 2.133 2.979 2.979 0 0 0 2.107.91c.8.01 1.558-.29 2.133-.848a2.98 2.98 0 0 0 .909-2.107c.01-.66-.131-1.376-.418-2.126a10.018 10.018 0 0 0-.948-1.83 12.623 12.623 0 0 0-1.388-1.788.227.227 0 0 0-.16-.069zm0 0" fill="#9fb02b"/><path d="M31.907 10.81l-1.663 1.615.028-1.869a.227.227 0 0 0-.455-.006l-.027 1.868-1.615-1.663a.227.227 0 0 0-.326.316l1.932 1.99-.022 1.435-2.186-2.252a.227.227 0 0 0-.326.317l2.503 2.577-.019 1.29a.227.227 0 1 0 .454.006l.02-1.289 2.577-2.503a.227.227 0 1 0-.317-.326l-2.251 2.187.02-1.436 1.99-1.932a.227.227 0 1 0-.317-.325z" fill="#3d6400"/><path d="M34.027 23.386a.227.227 0 0 0 .084-.152c.005-.041.11-1.01.002-2.263-.064-.738-.19-1.42-.373-2.028-.233-.768-.56-1.42-.972-1.936a2.979 2.979 0 0 0-2.01-1.108 2.979 2.979 0 0 0-2.205.637 2.979 2.979 0 0 0-1.108 2.01 2.98 2.98 0 0 0 .638 2.205c.413.516.976.979 1.674 1.375.552.313 1.19.586 1.896.81 1.197.383 2.166.494 2.207.498.06.007.12-.01.167-.048zm0 0" fill="#6c8d15"/><path d="M30.765 22.294l.258-2.304 1.166 1.46a.227.227 0 0 0 .355-.284l-1.166-1.46 2.303.258a.227.227 0 0 0 .05-.452l-2.755-.307-.896-1.122 3.12.348a.227.227 0 0 0 .05-.451l-3.571-.399-.805-1.007a.227.227 0 1 0-.355.283l.805 1.008-.399 3.57a.227.227 0 1 0 .452.05l.348-3.119.897 1.122-.308 2.756a.227.227 0 1 0 .451.05z" fill="#3d6400"/><path d="M37.218 11.722a.227.227 0 0 0-.14-.103 12.62 12.62 0 0 0-2.245-.292 10.02 10.02 0 0 0-2.058.11c-.792.133-1.48.374-2.045.717a2.979 2.979 0 0 0-1.356 1.851 2.979 2.979 0 0 0 .35 2.268 2.979 2.979 0 0 0 1.851 1.357 2.98 2.98 0 0 0 2.268-.35c.565-.344 1.096-.843 1.578-1.485a10.02 10.02 0 0 0 1.047-1.776 12.54 12.54 0 0 0 .776-2.126.227.227 0 0 0-.026-.171zm0 0" fill="#678714"/><path d="M35.717 14.817l-2.252-.55 1.597-.97a.227.227 0 0 0-.236-.389l-1.597.97.55-2.252a.227.227 0 0 0-.44-.107l-.659 2.693-1.227.745.745-3.049a.227.227 0 0 0-.442-.107l-.852 3.49-1.102.67a.227.227 0 1 0 .235.387l1.103-.669 3.49.853a.227.227 0 1 0 .108-.442l-3.05-.744 1.228-.746 2.693.658a.227.227 0 1 0 .108-.441z" fill="#3d6400"/><circle transform="rotate(-35.747)" r="1.462" cy="31.07" cx="14.656" fill="#b49300" stroke="#000" stroke-width=".529"/><path d="M23.277 22.968c-.19.202-1.31.124-1.54.279-.227.154.094.68-.144.79-.237.11-1.061.002-1.32.08-.256.076-.796.59-1.064.608-.268.015-.514-.425-.781-.438-.267-.014-1.207.494-1.466.402-.26-.091-.167-.944-.397-1.078-.23-.133-1.443.048-1.626-.14-.183-.19.3-.79.127-1.007-.173-.218-1.195-.554-1.326-.782-.132-.228.04-.867-.02-1.136-.06-.27-.347-.91-.384-1.174-.038-.263.653-.543.694-.816.04-.274-.352-.858-.242-1.115.109-.257.42-.802.554-1.028.135-.227.315-.984.483-1.19.168-.204.654.035.86-.125.207-.16.637-.911.87-1.051.236-.14 1.023-.2 1.284-.245.26-.045.165-.39.423-.426.258-.035 1.162.732 1.423.793.26.06.942-.606 1.196-.517.255.09.423.882.656 1.005.234.123.77-.324.984-.154.214.17.346 1.089.515 1.3.17.213.587.717.684.966.097.249-.095.64-.017.894.079.254 1.065.897 1.063 1.173-.002.277-.64.853-.657 1.119-.018.266.347.856.242 1.114-.105.259-1.14.484-1.27.727-.13.243.385.97.196 1.172z" fill="#80a460" fill-opacity=".784"/><circle transform="rotate(-46.914)" cx="-10.585" cy="32.174" r="1.462" fill="#ffd517" stroke="#000" stroke-width=".529"/><circle transform="rotate(-20.924)" cx="17.692" cy="16.326" r="1.462" fill="#e3ba00" stroke="#000" stroke-width=".529"/><circle cx="22.031" cy="-15.075" r="1.462" transform="rotate(56.547)" fill="#ffd517" stroke="#000" stroke-width=".529"/><path d="M30.28 21.39c-.12.539-1.972 1.403-2.203 1.903-.23.499.697 1.403.396 1.84-.302.436-1.872.857-2.247 1.246-.375.387-.66 1.894-1.11 2.19-.45.296-1.532-.264-2.018-.033-.486.23-1.446 1.95-1.985 2.049-.54.1-1.39-1.342-1.925-1.345-.537-.003-2.21 1.397-2.724 1.262-.516-.134-.566-1.66-1.08-1.87-.512-.21-2.425.284-2.88.004-.457-.28-.688-1.683-1.065-2.085-.377-.402-1.68-.966-2-1.4-.32-.432.498-1.722.294-2.236-.205-.514-1.55-1.15-1.63-1.7-.081-.55.296-1.772.3-2.307.005-.534-.673-1.928-.58-2.456.093-.53 1.316-.78 1.517-1.271.202-.492-.007-2.16.273-2.63.279-.468 1.693-1.06 2.093-1.413.4-.354.06-1.236.487-1.548.426-.313 2.49.185 3 .014.512-.171 1.065-1.9 1.597-2 .53-.1 1.642 1.097 2.176 1.086.533-.01 1.243-1.267 1.78-1.175.54.093 1.518 1.578 2.023 1.782.504.205 1.828.312 2.258.64.43.326.47 1.455.86 1.828.388.372 2.505.47 2.787.945.283.474-.275 2.072-.05 2.562.227.49 1.545 1.15 1.63 1.699.088.549-1.344 1.885-1.332 2.437.011.55 1.476 1.443 1.357 1.982z" fill="#223412" fill-opacity=".784"/><path d="M10.746 17.466a.227.227 0 0 0 .021.172c.02.036.505.883 1.328 1.832.485.56.988 1.039 1.493 1.422.64.486 1.287.82 1.924.996a2.979 2.979 0 0 0 2.278-.283 2.979 2.979 0 0 0 1.41-1.811 2.979 2.979 0 0 0-.284-2.277 2.98 2.98 0 0 0-1.811-1.41c-.638-.176-1.365-.22-2.163-.13a10.07 10.07 0 0 0-2.01.457 12.623 12.623 0 0 0-2.08.894.227.227 0 0 0-.106.138zm0 0" fill="#778320"/><path d="M14.027 16.434l1.145 2.015-1.801-.496a.227.227 0 0 0-.12.438l1.8.496-2.015 1.145a.227.227 0 0 0 .224.395l2.41-1.37 1.385.382-2.729 1.55a.227.227 0 0 0 .225.395l3.124-1.775 1.243.343a.227.227 0 1 0 .12-.438l-1.243-.342-1.774-3.124a.227.227 0 1 0-.395.224l1.55 2.729-1.384-.381-1.37-2.41a.227.227 0 1 0-.395.224z" fill="#3d6400"/><path d="M17.459 10.885a.227.227 0 0 0-.139.105c-.02.035-.512.878-.923 2.066-.242.7-.405 1.374-.485 2.004-.1.796-.067 1.524.1 2.164a2.979 2.979 0 0 0 1.384 1.83c.69.406 1.498.518 2.273.316a2.979 2.979 0 0 0 1.83-1.385 2.98 2.98 0 0 0 .316-2.273c-.167-.64-.493-1.292-.97-1.938a9.972 9.972 0 0 0-1.4-1.512 12.623 12.623 0 0 0-1.814-1.353.227.227 0 0 0-.172-.024zm0 0" fill="#859324"/><path d="M19.993 13.21l-1.173 2-.47-1.808a.227.227 0 0 0-.44.114l.47 1.808-1.999-1.173a.227.227 0 0 0-.23.392l2.392 1.403.362 1.39-2.708-1.589a.227.227 0 0 0-.23.392l3.1 1.818.325 1.248a.227.227 0 1 0 .44-.114l-.326-1.248 1.818-3.1a.227.227 0 1 0-.392-.23l-1.588 2.708-.362-1.39 1.403-2.39a.227.227 0 1 0-.392-.23z" fill="#3d6400"/><path d="M27.021 15.958a.227.227 0 0 0-.137-.107c-.04-.01-.98-.267-2.235-.357a10.019 10.019 0 0 0-2.06.05c-.796.11-1.49.33-2.066.657a2.979 2.979 0 0 0-1.41 1.81 2.979 2.979 0 0 0 .284 2.278 2.979 2.979 0 0 0 1.811 1.41 2.98 2.98 0 0 0 2.278-.284c.574-.327 1.12-.81 1.62-1.438.396-.496.766-1.083 1.099-1.744a12.63 12.63 0 0 0 .838-2.103.227.227 0 0 0-.022-.172zm0 0" fill="#9fb02b"/><path d="M25.43 19.008l-2.234-.616 1.624-.923a.227.227 0 0 0-.224-.395l-1.625.923.616-2.235a.227.227 0 0 0-.438-.12l-.736 2.673-1.249.709.834-3.026a.227.227 0 0 0-.438-.12l-.954 3.463-1.121.637a.227.227 0 1 0 .224.395l1.121-.637 3.464.954a.227.227 0 1 0 .12-.438l-3.025-.833 1.248-.71 2.673.737a.227.227 0 1 0 .12-.438z" fill="#3d6400"/><path d="M15.662 27.208c.057.021.12.02.174-.005a12.62 12.62 0 0 0 1.952-1.145 10.018 10.018 0 0 0 1.559-1.35c.545-.589.94-1.201 1.177-1.818a2.979 2.979 0 0 0-.063-2.295 2.979 2.979 0 0 0-1.667-1.577 2.979 2.979 0 0 0-2.294.063 2.98 2.98 0 0 0-1.578 1.667c-.236.617-.35 1.337-.337 2.14.01.634.098 1.322.261 2.045.278 1.226.673 2.118.69 2.155.025.055.07.098.126.12zm0 0" fill="#6c8d15"/><path d="M14.951 23.842l2.117-.945-.668 1.745a.227.227 0 0 0 .425.162l.667-1.745.945 2.117a.227.227 0 0 0 .415-.186l-1.13-2.531.512-1.341 1.28 2.865a.227.227 0 0 0 .415-.185l-1.465-3.28.46-1.205a.227.227 0 1 0-.424-.162l-.46 1.204-3.28 1.466a.227.227 0 1 0 .184.415l2.866-1.28-.513 1.34-2.531 1.131a.227.227 0 1 0 .185.415z" fill="#3d6400"/><path d="M27.335 24.048a.227.227 0 0 0 .018-.173 12.62 12.62 0 0 0-.886-2.082 10.018 10.018 0 0 0-1.138-1.72c-.515-.615-1.072-1.086-1.654-1.399a2.979 2.979 0 0 0-2.283-.231 2.979 2.979 0 0 0-1.778 1.45 2.979 2.979 0 0 0-.231 2.284 2.98 2.98 0 0 0 1.45 1.778c.583.313 1.282.518 2.08.608.63.072 1.324.073 2.062.003a12.623 12.623 0 0 0 2.225-.408.227.227 0 0 0 .135-.11zm0 0" fill="#678714"/><path d="M23.906 24.323l-.666-2.22 1.645.885a.227.227 0 0 0 .215-.4l-1.645-.886 2.22-.666a.227.227 0 0 0-.13-.435l-2.656.797-1.264-.68 3.006-.903a.227.227 0 0 0-.131-.435l-3.441 1.033-1.136-.61a.227.227 0 1 0-.215.4l1.136.61 1.033 3.441a.227.227 0 1 0 .435-.13l-.903-3.006 1.265.68.797 2.655a.227.227 0 1 0 .435-.13z" fill="#3d6400"/><circle cx="26.567" cy="9.252" r="1.462" transform="rotate(23.81)" fill="#b49300" stroke="#000" stroke-width=".529"/><circle transform="rotate(-53.66)" cx="-3.877" cy="25.452" r="1.462" fill="#e3ba00" stroke="#000" stroke-width=".529"/><circle r="1.462" cy="27.187" cx="-5.754" transform="rotate(-53.66)" fill="#ffd517" stroke="#000" stroke-width=".529"/></svg>