<?xml version="1.0" encoding="UTF-8" standalone="no"?>
<svg
   xmlns:dc="http://purl.org/dc/elements/1.1/"
   xmlns:cc="http://creativecommons.org/ns#"
   xmlns:rdf="http://www.w3.org/1999/02/22-rdf-syntax-ns#"
   xmlns:svg="http://www.w3.org/2000/svg"
   xmlns="http://www.w3.org/2000/svg"
   xmlns:sodipodi="http://sodipodi.sourceforge.net/DTD/sodipodi-0.dtd"
   xmlns:inkscape="http://www.inkscape.org/namespaces/inkscape"
   width="192"
   height="192"
   viewBox="0 0 50.8 50.8"
   version="1.1"
   id="svg8"
   sodipodi:docname="map-brush-01sv.svg"
   inkscape:version="0.92.2 (5c3e80d, 2017-08-06)">
  <metadata
     id="metadata14">
    <rdf:RDF>
      <cc:Work
         rdf:about="">
        <dc:format>image/svg+xml</dc:format>
        <dc:type
           rdf:resource="http://purl.org/dc/dcmitype/StillImage" />
        <dc:title />
      </cc:Work>
    </rdf:RDF>
  </metadata>
  <defs
     id="defs12" />
  <sodipodi:namedview
     pagecolor="#ffffff"
     bordercolor="#666666"
     borderopacity="1"
     objecttolerance="10"
     gridtolerance="10"
     guidetolerance="10"
     inkscape:pageopacity="0"
     inkscape:pageshadow="2"
     inkscape:window-width="1920"
     inkscape:window-height="1017"
     id="namedview10"
     showgrid="true"
     inkscape:zoom="0.14485868"
     inkscape:cx="-324.58995"
     inkscape:cy="1737.9032"
     inkscape:window-x="1912"
     inkscape:window-y="-8"
     inkscape:window-maximized="1"
     inkscape:current-layer="svg8">
    <inkscape:grid
       type="xygrid"
       id="grid821"
       empspacing="4"
       spacingy="1.0583333"
       spacingx="1.0583333" />
  </sodipodi:namedview>
  <path
     sodipodi:nodetypes="cssssssssscsscsscsccssccsscssssssscscssscc"
     inkscape:connector-curvature="0"
     id="path976"
     d="m 26.342998,1.9707643 c 0.977398,-0.02612 1.628431,-0.98811203 2.580151,-0.795825 0.95172,0.192287 4.501042,1.775294 5.409277,2.144523 0.908235,0.36923 4.833236,-2.37239141 5.665491,-1.8385821 0.661736,0.4244378 2.553419,1.6467779 3.690474,1.7842473 1.953362,0.2361603 2.878274,-1.1484592 4.315627,0.5448172 0.639588,0.7534684 -0.885545,3.3749177 -0.284041,4.1475587 0.601503,0.77264 -1.58981,3.7828886 -1.126375,4.6583076 0.463436,0.875419 0.885803,2.793536 1.218566,3.729139 0.332764,0.935603 -1.488953,3.999298 -1.315679,4.954011 0.173274,0.954714 2.081642,2.978561 2.071508,3.955136 -0.01013,0.976575 -2.006423,2.990745 -2.213064,3.950254 -0.206641,0.959508 3.876211,5.808912 3.567052,6.731385 -0.309159,0.922473 -2.392616,2.216113 -2.837735,3.076694 -0.445118,0.860582 0.539766,4.378391 -0.08157,5.155801 -0.621333,0.77741 -2.856172,1.34336 -3.607464,1.96014 -0.751292,0.61678 -0.299239,2.99443 -1.177223,3.46739 -0.877985,0.47296 -5.098026,-2.28656 -6.011476,-1.94469 -0.91345,0.34187 -2.552806,1.82169 -3.51352,1.94469 -0.960714,0.123 -3.251616,-2.14231 -4.233333,-2.11667 -0.981716,0.0256 -4.044433,1.9803 -5.030877,1.85454 -0.986444,-0.12575 -4.606147,-2.55592 -5.533517,-2.90038 -0.92737,-0.34445 -2.324588,2.57751 -3.193939,2.10418 -0.869352,-0.47333 -2.458234,-1.46104 -3.175,-2.11667 -0.716755,-0.65563 -3.845671,2.20442 -4.4657517,1.45058 -0.6200807,-0.75385 0.1726237,-2.51551 -0.2860501,-3.38075 -0.1821297,-0.34357 -2.8147606,0.0573 -4.9134894,-1.71857 C 1.6188788,40.673291 5.1116766,38.33564 4.9338527,37.774223 4.6389133,36.843055 1.8626023,36.019056 1.6446184,35.056989 1.4266346,34.094922 5.1126578,32.081428 5.0820585,31.097012 5.0514592,30.112596 1.5430643,25.047739 1.7216784,24.088979 1.9002925,23.13022 4.6804789,21.432574 4.9977482,20.48753 5.3150176,19.542487 0.39678316,19.106614 0.89706265,18.276172 1.3973421,17.44573 4.0562737,15.226524 4.6703471,14.448047 4.8504597,14.219713 1.6406527,11.641213 1.0756104,9.7039243 c -0.08072,-1.695127 3.0496338,-1.861645 3.5979398,-2.293547 0.3248334,-0.255872 -1.6765121,-2.965759 -1.613885,-4.38128 2.1166666,-1.058333 4.9769873,-0.276777 5.4584968,-0.582709 0.8282832,-0.526257 4.091377,0.807868 5.008444,0.423484 0.917068,-0.384384 4.313844,-1.332619 5.300333,-1.475772 0.98649,-0.143153 4.421994,1.661118 5.399392,1.634997 z"
     inkscape:transform-center-y="-1.1931859"
     inkscape:transform-center-x="-0.0085450502"
     style="fill:#3d5326;fill-opacity:0.54901961;stroke:none;stroke-width:1.94703746;stroke-linecap:round;stroke-linejoin:miter;stroke-miterlimit:6;stroke-dasharray:none;stroke-opacity:1;paint-order:normal" />
  <path
     sodipodi:nodetypes="csssssssscsscsscsccssccssssssssssssscc"
     inkscape:connector-curvature="0"
     id="path982"
     d="m 26.589259,8.9016473 c 0.687358,-0.01835 0.700097,-0.694891 1.369398,-0.55967 0.669301,0.135228 2.711238,1.645853 3.349958,1.9055147 0.638719,0.259662 2.648375,-1.6479067 3.246307,-1.2929877 0.597932,0.35491 2.311792,0.49272 2.844705,0.938906 0.532917,0.4461937 3.303893,0.09705 3.726905,0.6404107 0.423004,0.543363 -1.004507,5.101304 -0.678596,5.716945 0.325911,0.615643 1.417677,1.907794 1.651693,2.565765 0.234025,0.657964 -1.444479,2.244848 -1.322622,2.916251 0.121857,0.67141 1.449187,2.111891 1.442061,2.798674 -0.0072,0.686777 -0.834326,2.393391 -0.979643,3.068169 -0.145326,0.674779 1.079714,2.382131 0.862305,3.030868 -0.217419,0.64873 -1.058183,3.715626 -1.371218,4.320832 -0.313026,0.605212 1.688341,4.672944 1.251385,5.21966 -0.436947,0.546716 -3.257479,-0.871821 -3.785832,-0.43807 -0.528345,0.43376 -1.487262,2.383385 -2.104708,2.715996 -0.617446,0.332611 -3.673895,-2.344048 -4.316282,-2.103631 -0.642386,0.240427 -3.140234,1.794149 -3.815859,1.880647 -0.675626,0.08647 -2.168113,-1.338413 -2.85851,-1.320385 -0.690395,0.01802 -2.015261,1.39265 -2.708981,1.304214 -0.69372,-0.08846 -2.103952,-0.832425 -2.756128,-1.074662 -0.652176,-0.242247 -2.854836,0.8476 -3.46621,0.514726 -0.611375,-0.332874 -1.728762,-1.027487 -2.23283,-1.488556 -0.50406,-0.461069 -3.528029,1.436736 -3.9641013,0.90659 -0.436074,-0.530136 0.06463,-2.961151 -0.257933,-3.569626 C 9.3919597,36.889744 11.754242,34.156248 11.546824,33.5014 11.339407,32.846551 10.290637,30.291715 10.137339,29.615142 9.9840417,28.938564 8.6025707,26.55753 8.5810517,25.865234 c -0.02152,-0.692291 2.3134003,-1.911638 2.4390113,-2.585889 0.125611,-0.674252 -2.0402223,-3.018557 -1.8171023,-3.683159 0.223122,-0.664603 0.454202,-1.709103 0.8060243,-2.293113 0.351824,-0.58401 -1.4681183,-3.563849 -1.0362693,-4.111318 0.431849,-0.547462 1.8975893,-1.624354 2.4432283,-2.054155 0.545638,-0.429801 1.894176,-2.1558167 2.476669,-2.5259037 0.582492,-0.370095 4.353213,1.079037 4.998143,0.808713 0.644932,-0.270316 2.806659,-0.993929 3.500411,-1.094607 0.693753,-0.100671 2.766458,2.0827697 3.453816,2.0643937 z"
     inkscape:transform-center-y="-0.83911449"
     inkscape:transform-center-x="-0.0060100712"
     style="fill:#3d5326;fill-opacity:0.54901961;stroke:none;stroke-width:1.36926091;stroke-linecap:round;stroke-linejoin:miter;stroke-miterlimit:6;stroke-dasharray:none;stroke-opacity:1;paint-order:normal" />
  <path
     style="fill:#3d5326;fill-opacity:0.54901961;stroke:none;stroke-width:0.84103394;stroke-linecap:round;stroke-linejoin:miter;stroke-miterlimit:6;stroke-dasharray:none;stroke-opacity:1;paint-order:normal"
     inkscape:transform-center-x="0.51540396"
     inkscape:transform-center-y="-0.0036906757"
     d="m 15.34243,24.669454 c -0.0113,-0.422192 -0.42682,-0.430016 -0.34377,-0.841117 0.0831,-0.411101 1.01093,-1.66531 1.17042,-2.057628 0.15949,-0.392317 -1.01219,-1.626698 -0.79419,-1.993962 0.218,-0.367264 0.30264,-1.41996 0.5767,-1.74729 0.27407,-0.327329 0.0596,-2.029331 0.39336,-2.289154 0.33374,-0.259823 3.13334,0.616992 3.51149,0.416809 0.37814,-0.200184 1.17181,-0.870774 1.57595,-1.014514 0.40414,-0.143739 1.37885,0.887236 1.79124,0.812389 0.41239,-0.07485 1.29717,-0.890126 1.71901,-0.885748 0.42184,0.0044 1.47008,0.512462 1.88455,0.601722 0.41446,0.08926 1.46316,-0.663191 1.86163,-0.529648 0.39847,0.133543 2.28223,0.649961 2.65396,0.842232 0.37174,0.192272 2.37942,-0.686434 2.71523,-0.418046 0.3358,0.268389 -0.53549,2.000828 -0.26907,2.325352 0.26642,0.324525 1.46393,0.913516 1.66822,1.292766 0.2043,0.37925 -0.94895,1.906011 -0.80128,2.300581 0.14768,0.394569 1.10201,1.928809 1.15514,2.343795 0.0531,0.414986 -0.82208,1.331709 -0.81101,1.755767 0.0111,0.424058 0.8554,1.237824 0.80108,1.663924 -0.0543,0.4261 -0.5113,1.292299 -0.66009,1.692882 -0.14879,0.400583 0.52062,1.753511 0.31616,2.129032 -0.20446,0.375521 -0.6311,1.061848 -0.9143,1.371459 -0.28321,0.309606 0.88247,2.167001 0.55685,2.434849 -0.32563,0.267848 -1.81881,-0.0397 -2.19256,0.158429 -0.37374,0.198126 -2.49895,0.284148 -2.90117,0.411548 -0.40222,0.127401 -1.52524,-0.765412 -1.94081,-0.671253 -0.41557,0.09416 -1.87806,0.942693 -2.30329,0.955911 -0.42522,0.01322 -1.32291,-0.5285 -1.73706,-0.605654 -0.41414,-0.07715 -1.70533,0.360707 -2.11354,0.223661 -0.40822,-0.137046 -1.04978,-0.278982 -1.40849,-0.49508 -0.35872,-0.216099 -2.189,0.901755 -2.52527,0.636503 -0.33627,-0.265252 -0.99772,-1.165546 -1.26172,-1.500691 -0.26399,-0.335145 -1.32415,-1.16345 -1.55147,-1.521231 -0.22732,-0.357782 0.66277,-2.673851 0.49674,-3.069984 -0.16604,-0.396133 -0.6105,-1.723919 -0.67234,-2.150039 -0.0618,-0.426119 1.27929,-1.699226 1.268,-2.121418 z"
     id="path983"
     inkscape:connector-curvature="0"
     sodipodi:nodetypes="csssssssscsscsscsccssccssssssssssssscc" />
</svg>
