<svg xmlns="http://www.w3.org/2000/svg" width="512" height="512" viewBox="0 0 135.467 135.467"><defs><pattern patternUnits="userSpaceOnUse" width="136" height="112" patternTransform="matrix(.26458 0 0 .26458 103.717 -35.983)" id="b"><path fill="none" stroke-width="3.78" d="M0 0h136v112H0z"/><path fill="#cc8b27" stroke-width="8.662" stroke-linecap="round" d="M0 0h136v112H0z"/><path fill-opacity=".176" stroke-width="7.286" stroke-miterlimit="10" d="M32 0h4v112h-4zM48 0h4v112h-4zM0 0h4v112H0zM72 0h4v112h-4zM112 0h4v112h-4z"/></pattern><clipPath id="c"><path d="M68.792 74.083h2.646l.529-.529h8.466l.53.53h3.175l1.058-1.059h6.879l1.058 1.058h4.234L78.052 93.398l-3.969-8.731-4.233-2.117z" fill="#cc8b27" stroke-width=".265"/></clipPath><clipPath id="a"><path d="M21.167 55.033h5.82l.53-.529h20.108l.53.53h4.762l-6.35 8.466-6.35 2.117v6.35l-4.234-2.117z" fill="#ab7421" stroke-width=".416"/></clipPath></defs><path d="M21.167 55.033h5.82l.53-.529h20.108l.53.53h4.762l-6.35 8.466-6.35 2.117v6.35l-4.234-2.117z" clip-path="url(#a)" transform="rotate(-174.148 51.06 53.439)" fill="url(#b)" stroke="#000" stroke-width="2.117"/><path d="M68.792 74.083h2.646l.529-.529h8.466l.53.53h3.175l1.058-1.059h6.879l1.058 1.058h4.234L78.052 93.398l-3.969-8.731-4.233-2.117z" clip-path="url(#c)" transform="rotate(27.61 55.003 42.783)" fill="url(#b)" stroke="#000" stroke-width="2.117"/><path d="M95.529 71.175l-3.173 1.972.336 3.554-17.855-10.77 3.48-.314-1.228-2.055 1.832-.237-.273-1.939z" fill="#bc8024" stroke="#191919" stroke-width="1.2"/><path d="M35.379 54.783l3.77.672 2.248-2.903 5.837 20.227-2.835-2.127-.524 2.38-1.542-1.065-1.16 1.643z" fill="#bc8024" stroke="#191919" stroke-width="1.226"/><path d="M90.62 63.08l-.381 3.717 3.017 1.907-19.44 7.542 1.88-2.945-2.377-.285.933-1.595-1.7-.97z" fill="#bc8024" stroke="#191919" stroke-width="1.2"/></svg>