<svg xmlns="http://www.w3.org/2000/svg" width="928" height="736" viewBox="0 0 245.533 194.733"><defs><clipPath id="c"><path d="M-22.25 168.075v-9.525h-46.568v9.525z" clip-path="url(#clipPath6865)" fill="#a3977d" stroke-width="2.081"/></clipPath><clipPath id="b"><path clip-path="url(#clipPath6865)" d="M402.14 158.55h9.526v-42.334h-9.525z" fill="#a3977d" stroke-width="1.984"/></clipPath><clipPath id="d"><path d="M-45.534 209.35l29.33 16.933v33.867l-29.33 16.933-29.33-16.933v-33.867z" fill-opacity=".506" stroke="#fff" stroke-width="2.117" stroke-opacity=".502"/></clipPath><clipPath id="f"><path d="M169.333 0v55.033H228.6V63.5h-67.733V8.467H8.467v143.874l42.333.059v38.1H0L.001 0z" fill="#1b1e25" stroke-width="3.175" stroke-opacity=".706"/></clipPath><clipPath id="e"><path d="M169.333 190.5h-50.8v-38.1l42.335-.059V97.367H228.6v8.466h-59.267z" fill="#1b1e25" stroke-width="3.175" stroke-opacity=".706"/></clipPath><filter id="a" x="-.023" width="1.047" y="-.025" height="1.049" color-interpolation-filters="sRGB"><feGaussianBlur stdDeviation="1.651"/></filter></defs><path transform="matrix(1.06645 0 0 1.24968 108.849 -246.284)" d="M-99.231 200.075H70.102v160.867H-99.231z" fill="#130902" fill-opacity=".944" filter="url(#a)"/><path d="M177.8 8.467H8.468l-.001 160.866h169.332z" fill="#302e28"/><path clip-path="url(#b)" d="M402.14 158.55h9.526v-42.334h-9.525z" transform="matrix(1 0 0 -1.1 -183.065 240.022)" fill="#646464"/><path transform="matrix(0 -1 -1 0 378.684 43.367)" clip-path="url(#c)" d="M-22.25 168.075v-9.525h-46.568v9.525z" fill="#5a5a5a" stroke="#000" stroke-width="2.117" stroke-opacity=".706"/><path d="M-22.25 168.075v-9.525h-46.568v9.525z" clip-path="url(#c)" transform="matrix(0 -1 -1 0 370.217 43.367)" fill="#505050" stroke="#000" stroke-width="2.117" stroke-opacity=".706"/><path transform="matrix(0 -1 -1 0 361.75 43.367)" clip-path="url(#c)" d="M-22.25 168.075v-9.525h-46.568v9.525z" fill="#464646" stroke="#000" stroke-width="2.117" stroke-opacity=".706"/><path d="M-22.25 168.075v-9.525h-46.568v9.525z" clip-path="url(#c)" transform="matrix(0 -1 -1 0 353.284 43.367)" fill="#3c3c3c" stroke="#000" stroke-width="2.117" stroke-opacity=".706"/><path transform="matrix(0 -1 -1 0 344.817 43.367)" clip-path="url(#c)" d="M-22.25 168.075v-9.525h-46.568v9.525z" fill="#323232" stroke="#000" stroke-width="2.117" stroke-opacity=".706"/><path clip-path="url(#d)" d="M-45.534 209.35l29.33 16.933v33.867l-29.33 16.933-29.33-16.933v-33.867z" transform="rotate(120 70.974 213.59) scale(1.05556)" fill-opacity=".118" stroke="#fff" stroke-width="4.011" stroke-opacity=".157"/><g fill="#fff" fill-opacity=".157"><path d="M92.537 119.251l.686-16.106a14.227 14.227 0 0 1-.289.01 14.227 14.227 0 0 1-12.45-7.372l-13.61 8.651zM66.873 73.424l13.605 8.647a14.227 14.227 0 0 1 .136-.255 14.227 14.227 0 0 1 12.61-7.095l-.687-16.114zm52.52.688l-14.292 7.46a14.227 14.227 0 0 1 .154.244 14.227 14.227 0 0 1-.16 14.468l14.298 7.462z"/></g><path d="M80.77 88.93a12.364 12.362 0 0 0 12.365 12.362 12.364 12.362 0 0 0 10.898-6.53c1.446-2.895.184-4.733-1.565-4.542-1.615.093-3.814 5.761-8.773 7.623-2.144.476-6.565.515-8.26-5.08-.575-1.694-.838-4.609-.53-5.782-.553.57-1.697.57-1.697.57 1.335-.763 1.705-2.72 1.705-2.72.503-3.163 2.188-1.491 3.572-4.762 0 0 1.16-1.074 2.382.238-2.337 3.99-1.43 6.191-1.43 6.191a2.228 2.228 0 0 1-1.502.723c-.59 2.51.62 6.003 3.854 6.812.74.114 1.444.032 2.13-.204-.717-.213-1.488-.857-2.273-2.197-.62-1.412-.522-2.403-.527-3.295-.474.739-1.046.738-1.046.738.763-1.334.643-2.264.643-2.264-.244-2.34 1.27-1.475 1.63-4.059 0 0 .618-.982 1.735-.283-.9 3.275.163 4.664.163 4.664a1.637 1.637 0 0 1-.929.8c-.302 1.383.027 5.708 4.266 3.262a39.013 39.007 0 0 0 1.39-1.51c-.913.011-2.076-.296-2.873-1.417-.936-1.396-.631-3.345-.446-4.05-.278.336-.85.526-.85.526.763-.953.855-1.816.855-1.816.302-1.9 1.314-.897 2.146-2.862 0 0 .697-.645 1.43.144-1.403 2.396-.858 3.719-.858 3.719a1.34 1.34 0 0 1-.903.434c-.795 3.015.865 3.815 3.725 2.973 1.485-.9 3.153-.09 4.299 1.485a12.364 12.362 0 0 0-12.36-12.254A12.364 12.362 0 0 0 80.77 88.93zm5.333-4.575c0 .29.58.58.58.58s0-.984.87-1.914c-.87.175-1.45 1.334-1.45 1.334zm5.367 1.891c.055.207.522.301.522.301s-.187-.698.253-1.523c-.584.29-.775 1.222-.775 1.222zm4.902-3.604c0 .174.348.348.348.348s0-.592.523-1.15c-.523.105-.87.802-.87.802z" fill="#fff" fill-opacity=".157"/><g transform="matrix(-.39744 0 0 .39744 116.474 36.12)" fill="#391212"><ellipse cx="17.816" cy="279.992" rx="11.982" ry="11.713"/><circle cx="30.785" cy="267.741" r="2.693"/><circle cx="21.496" cy="271.824" r="4.892"/><circle cx="6.866" cy="276.806" r="2.827"/><circle cx="28.272" cy="281.114" r="2.962"/><circle cx="21.63" cy="263.163" r="2.019"/><circle cx="32.311" cy="270.074" r=".763"/><circle cx="34.51" cy="287.98" r="1.84"/><circle cx="27.24" cy="293.096" r="2.199"/><circle cx="4.802" cy="286.095" r=".853"/><circle cx="11.399" cy="289.91" r="3.231"/><circle cx="8.167" cy="278.96" r="1.436"/><circle cx="8.796" cy="267.292" r="1.705"/><circle cx="22.124" cy="288.698" r="3.186"/><circle cx="14.316" cy="268.952" r=".853"/><circle cx="28.855" cy="275.594" r=".763"/><circle cx="27.868" cy="291.121" r=".673"/><circle cx="7.449" cy="268.369" r=".898"/></g><path fill="#555" d="M25.4 160.867h135.467v38.1H25.4z"/><path clip-path="url(#e)" d="M169.333 190.5h-50.8v-38.1l42.335-.059V97.367H228.6v8.466h-59.267z" transform="translate(8.467 8.467)" fill="#1a1c21" stroke="#000" stroke-width="3.175" stroke-opacity=".706"/><path d="M169.333 0v55.033H228.6V63.5h-67.733V8.467H8.467v143.874l42.333.059v38.1H0L.001 0z" clip-path="url(#f)" transform="translate(8.467 8.467)" fill="#1a1c21" stroke="#000" stroke-width="3.175" stroke-opacity=".706"/><g stroke="#2e2e2e" fill="none" stroke-width="1.587" stroke-linecap="square"><path d="M93.133 188.383l-6.35 6.35h12.7zM86.783 169.333l6.35 6.35 6.35-6.35z"/></g></svg>