<svg xmlns="http://www.w3.org/2000/svg" width="152" height="152" viewBox="0 0 40.217 40.217"><path d="M20.108 22.617c7.638 3.818 5.456 10.365 0 17.457-5.455-7.092-7.637-13.639 0-17.457z" fill="#243c0c"/><path d="M20.108 25.344c4.774 2.387 3.41 6.479 0 10.911-3.41-4.432-4.773-8.524 0-10.91z" fill="#426e16"/><path d="M22.178 20.108c3.819-7.637 10.365-5.455 17.457 0-7.092 5.456-13.638 7.638-17.457 0z" fill="#243c0c"/><path d="M24.905 20.108c2.387-4.773 6.479-3.41 10.911 0-4.432 3.41-8.524 4.774-10.91 0z" fill="#426e16"/><path d="M18.039 20.108c-3.819 7.638-10.365 5.456-17.457 0 7.092-5.455 13.638-7.637 17.457 0z" fill="#243c0c"/><path d="M15.311 20.108c-2.387 4.774-6.478 3.41-10.91 0 4.432-3.41 8.523-4.773 10.91 0z" fill="#426e16"/><path d="M20.108 17.6c-7.637-3.819-5.455-10.365 0-17.457 5.456 7.092 7.638 13.638 0 17.457z" fill="#243c0c"/><path d="M20.108 14.872c-4.773-2.386-3.41-6.478 0-10.91 3.41 4.432 4.774 8.524 0 10.91z" fill="#426e16"/><g fill-opacity=".882"><path d="M19.063 21.035c3.21 9.629-4.126 13.297-14.672 14.673 1.375-10.546 5.043-17.883 14.672-14.673z" fill="#406c15"/><path d="M16.77 23.328c2.007 6.018-2.578 8.31-9.17 9.17.86-6.591 3.153-11.176 9.17-9.17z" fill="#5d9e1e"/><path d="M21.153 21.153c9.63-3.21 13.298 4.127 14.673 14.673-10.546-1.375-17.882-5.044-14.673-14.673z" fill="#406c15"/><path d="M23.446 23.446c6.018-2.006 8.31 2.58 9.17 9.17-6.59-.86-11.176-3.152-9.17-9.17z" fill="#5d9e1e"/><path d="M21.153 19.182c-3.21-9.63 4.127-13.298 14.673-14.673-1.375 10.546-5.044 17.882-14.673 14.673z" fill="#406c15"/><path d="M23.446 16.889c-2.006-6.018 2.58-8.31 9.17-9.17-.86 6.59-3.152 11.176-9.17 9.17z" fill="#5d9e1e"/><path d="M19.063 19.063C9.434 22.273 5.766 14.937 4.391 4.391c10.546 1.375 17.882 5.043 14.672 14.672z" fill="#406c15"/><path d="M16.77 16.77c-6.017 2.007-8.31-2.578-9.17-9.17 6.592.86 11.177 3.153 9.17 9.17z" fill="#5d9e1e"/></g><path d="M20.27 20.765c-4.597-3.802-4.597-5.703 0-15.209 4.596 9.506 4.596 11.407 0 15.209z" fill="#da1dc3"/><path d="M20.27 19.339c-3.305-2.733-3.305-4.1 0-10.931 3.303 6.832 3.303 8.198 0 10.931z" fill="#f196e6"/><path d="M20.27 17.913c-2.155-1.782-2.155-2.673 0-7.129 2.154 4.456 2.154 5.347 0 7.13z" fill="#f7c1f1"/><path d="M19.714 20.21c3.802-4.598 5.703-4.598 15.208 0-9.505 4.596-11.406 4.596-15.208 0z" fill="#da1dc3"/><path d="M21.14 20.21c2.732-3.305 4.099-3.305 10.93 0-6.831 3.303-8.198 3.303-10.93 0z" fill="#f196e6"/><path d="M22.565 20.21c1.783-2.156 2.674-2.156 7.13 0-4.456 2.154-5.347 2.154-7.13 0z" fill="#f7c1f1"/><path d="M20.27 19.452c4.596 3.802 4.596 5.703 0 15.208-4.597-9.505-4.597-11.406 0-15.208z" fill="#da1dc3"/><path d="M20.27 20.878c3.303 2.732 3.303 4.099 0 10.93-3.305-6.831-3.305-8.198 0-10.93z" fill="#f196e6"/><path d="M20.27 22.303c2.154 1.783 2.154 2.674 0 7.13-2.155-4.456-2.155-5.347 0-7.13z" fill="#f7c1f1"/><path d="M20.503 20.21c-3.802 4.596-5.703 4.596-15.208 0 9.505-4.598 11.406-4.598 15.208 0z" fill="#da1dc3"/><path d="M19.077 20.21c-2.733 3.303-4.099 3.303-10.93 0 6.831-3.305 8.197-3.305 10.93 0z" fill="#f196e6"/><path d="M17.651 20.21c-1.782 2.154-2.673 2.154-7.129 0 4.456-2.156 5.347-2.156 7.13 0z" fill="#f7c1f1"/></svg>