<svg xmlns="http://www.w3.org/2000/svg" xmlns:xlink="http://www.w3.org/1999/xlink" width="2048" height="1728" viewBox="0 0 541.867 457.2"><defs><pattern xlink:href="#a" id="n" patternTransform="rotate(-90 -18.105 185.121) scale(.26458)"/><pattern xlink:href="#b" id="a" patternTransform="rotate(-90 -20.751 187.767) scale(.26458)"/><pattern xlink:href="#b" id="k" patternTransform="rotate(-90 -62.025 237.508) scale(.26458)"/><pattern xlink:href="#c" id="f" patternTransform="translate(-367.268 243.216) scale(.10749)"/><pattern xlink:href="#d" id="c" patternTransform="translate(-896 1216) scale(.40625)"/><pattern xlink:href="#e" id="d" patternTransform="translate(-367.268 243.216) scale(.10749)"/><pattern patternUnits="userSpaceOnUse" width="128" height="128" patternTransform="translate(-282.6 234.75) scale(.26458)" id="e"><path fill="none" stroke-width="3.78" d="M0 0h128v128H0z"/><path fill="none" stroke-width="3.78" d="M0 0h128v128H0z"/><path fill="none" stroke-width="3.78" d="M0 0h128v128H0z"/><path fill="none" stroke-width="3.78" d="M0 0h128v128H0z"/><path fill="none" stroke-width="3.78" d="M0 0h128v128H0z"/><path fill="none" stroke-width="3.78" d="M0 0h128v128H0z"/><path fill="#a86050" stroke-width="8" d="M0 0h128v128H0z"/><path fill-opacity=".196" stroke-width="11.314" d="M64 0h16v128H64z"/><path d="M0 88c16 32 48 32 64 0v16c-16 24-48 24-64 0zm128 16c-16-32-48-32-64 0V88c16-24 48-24 64 0z" fill="#251512" stroke-width="5.657"/><path fill-opacity=".196" stroke-width="11.314" d="M112 0h16v128h-16z"/><path fill-opacity=".384" stroke-width="22.745" d="M0 0h64.668v128H0z"/></pattern><clipPath id="j"><path d="M-96.334 175.483L-214.868 336.35V14.616z" fill="url(#f)" stroke-width="3.461"/></clipPath><pattern patternUnits="userSpaceOnUse" width="192" height="128" patternTransform="translate(-214.868 167.016) scale(.26458)" id="b"><path fill="#845142" stroke-width="18.516" stroke-miterlimit="10" d="M0 0h192v128H0z"/><path transform="rotate(90)" fill-opacity=".354" stroke-width="9.54" stroke-miterlimit="10" d="M124-192h4V0h-4zm-64 0h4V0h-4z"/><path fill-opacity=".354" stroke-width="5.333" stroke-miterlimit="10" d="M92 64h4v60h-4zm96 0h4v60h-4zM140 0h4v60h-4zM44 0h4v60h-4z"/></pattern><clipPath id="i"><path d="M-11.668 188.183L-130.2 349.05h482.6L233.866 188.183zM73 213.583h101.6v50.8H73z" fill="#ffd7b9" stroke-width="3.461"/></clipPath><clipPath id="h"><path d="M242.332 128.916L360.866-31.95h-482.6L-3.201 128.916zm-59.266-25.4h-101.6v-50.8h101.6z" fill="#ffd7b9" stroke-width="3.461"/></clipPath><clipPath id="l"><path d="M123.8 361.75v-59.267l-33.868 16.933v42.334z" fill="#b22e2e" stroke-width="1.673"/></clipPath><clipPath id="m"><path d="M128.032-61.584v127L22.2 23.083v-84.667z" fill="#b22e2e" stroke-width="1.673"/></clipPath><pattern xlink:href="#g" id="p" patternTransform="translate(-282.6 234.75) scale(.06615)"/><pattern patternUnits="userSpaceOnUse" width="128" height="128" patternTransform="translate(-282.6 234.75) scale(.26458)" id="g"><path fill="#a86050" stroke-width="8" d="M0 0h128v128H0z"/><path fill-opacity=".196" stroke-width="11.314" d="M64 0h16v128H64z"/><path d="M0 88c16 32 48 32 64 0v16c-16 24-48 24-64 0zm128 16c-16-32-48-32-64 0V88c16-24 48-24 64 0z" fill="#724138" stroke-width="5.657"/><path fill-opacity=".196" stroke-width="11.314" d="M112 0h16v128h-16z"/><path fill-opacity=".116" stroke-width="22.627" d="M0 0h64v128H0z"/></pattern><clipPath id="o"><path d="M-130.2 327.883H56.065v25.4c0 5.292-3.175 8.467-8.467 8.467h-169.333c-5.292 0-8.467-3.175-8.467-8.467z" fill="#595959" stroke-width="7.269"/></clipPath></defs><path clip-path="url(#h)" d="M242.332 128.916L360.866-31.95h-482.6L-3.201 128.916zm-59.266-25.4h-101.6v-50.8h101.6z" transform="translate(121.734 116.617)" fill="url(#b)" stroke="#000" stroke-width="2.117"/><path clip-path="url(#i)" d="M-11.668 188.183L-130.2 349.05h482.6L233.866 188.183zM73 213.583h101.6v50.8H73z" transform="translate(130.2 57.35)" fill="url(#b)" stroke="#000" stroke-width="2.117"/><path d="M-96.334 175.483L-214.868 336.35V14.616z" clip-path="url(#j)" transform="translate(214.868 70.05)" fill="url(#k)" stroke="#000" stroke-width="2.117" stroke-opacity=".97"/><path transform="rotate(-180 133.866 210.508)" clip-path="url(#j)" d="M-96.334 175.483L-214.868 336.35V14.616z" fill="url(#k)" stroke="#000" stroke-width="2.117" stroke-opacity=".97"/><path d="M364.067 245.533L482.6 84.667V406.4zm-245.534 0L0 406.4V84.667z" fill-opacity=".137"/><path d="M230.91 270.933l-27.71 27.71v6.157l33.867-33.867zm-13.855 0L203.2 284.788v10.776l24.63-24.63zm87.745 24.505l-27.68 26.295h6.513l21.167-20.108zm0-13.921l-42.333 40.216h11.397l30.936-29.389zm-27.517-61.384l27.71-27.709v-6.157l-33.867 33.866zm13.855 0l13.854-13.854v-10.776l-24.63 24.63zm-87.746-24.504l27.68-26.296h-6.513l-21.167 20.109zm0 13.921l42.334-40.217h-11.398l-30.936 29.39z" fill="#ededed" fill-opacity=".395"/><path fill="#b9e1ff" fill-opacity=".396" d="M203.2 270.933h101.6v50.8H203.2zm0-101.6h101.6v50.8H203.2z"/><path d="M118.533 245.89h245.534L482.6 406.758 0 406.043z" fill-opacity=".294"/><path d="M123.8 361.75v-59.267l-33.868 16.933v42.334z" clip-path="url(#l)" transform="translate(130.2 78.517)" fill="url(#b)" stroke="#000" stroke-width="2.117"/><path clip-path="url(#l)" d="M123.8 361.75v-59.267l-33.868 16.933v42.334z" transform="matrix(-1 0 0 1 377.8 78.517)" fill="url(#b)" stroke="#000" stroke-width="2.117"/><path d="M254 440.267h33.867v-42.334L254 381z" fill-opacity=".137"/><path d="M128.032-61.584v127L22.2 23.083v-84.667z" clip-path="url(#m)" transform="translate(130.2 78.517)" fill="url(#a)" stroke="#000" stroke-width="2.117"/><path clip-path="url(#m)" d="M128.032-61.584v127L22.2 23.083v-84.667z" transform="translate(130.2 78.517)" fill="url(#n)" stroke="#000" stroke-width="2.117"/><path d="M128.032-61.584v127L22.2 23.083v-84.667z" clip-path="url(#m)" transform="matrix(-1 0 0 1 386.266 78.517)" fill="url(#n)" stroke="#000" stroke-width="2.117"/><path d="M258.233 16.933h105.834V101.6l-105.834 42.422z" fill-opacity=".137"/><path d="M-130.2 327.883H56.065v25.4c0 5.292-3.175 8.467-8.467 8.467h-169.333c-5.292 0-8.467-3.175-8.467-8.467z" clip-path="url(#o)" transform="matrix(.94672 0 0 1 128.226 71.783)" fill="url(#p)" stroke="#000" stroke-width="2.175"/></svg>