<?xml version="1.0" encoding="UTF-8" standalone="no"?>
<svg
   xmlns:dc="http://purl.org/dc/elements/1.1/"
   xmlns:cc="http://creativecommons.org/ns#"
   xmlns:rdf="http://www.w3.org/1999/02/22-rdf-syntax-ns#"
   xmlns:svg="http://www.w3.org/2000/svg"
   xmlns="http://www.w3.org/2000/svg"
   xmlns:xlink="http://www.w3.org/1999/xlink"
   xmlns:sodipodi="http://sodipodi.sourceforge.net/DTD/sodipodi-0.dtd"
   xmlns:inkscape="http://www.inkscape.org/namespaces/inkscape"
   width="128"
   height="64"
   viewBox="0 0 33.866669 16.933355"
   version="1.1"
   id="svg139"
   sodipodi:docname="map-building-porch-01.svg"
   inkscape:version="0.92.2 (5c3e80d, 2017-08-06)">
  <metadata
     id="metadata143">
    <rdf:RDF>
      <cc:Work
         rdf:about="">
        <dc:format>image/svg+xml</dc:format>
        <dc:type
           rdf:resource="http://purl.org/dc/dcmitype/StillImage" />
        <dc:title></dc:title>
      </cc:Work>
    </rdf:RDF>
  </metadata>
  <sodipodi:namedview
     pagecolor="#ffffff"
     bordercolor="#666666"
     borderopacity="1"
     objecttolerance="10"
     gridtolerance="10"
     guidetolerance="10"
     inkscape:pageopacity="0"
     inkscape:pageshadow="2"
     inkscape:window-width="1920"
     inkscape:window-height="1017"
     id="namedview141"
     showgrid="true"
     inkscape:zoom="7.6129032"
     inkscape:cx="59.296361"
     inkscape:cy="37.62896"
     inkscape:window-x="1912"
     inkscape:window-y="-8"
     inkscape:window-maximized="1"
     inkscape:current-layer="svg139"
     fit-margin-top="0"
     fit-margin-left="0"
     fit-margin-right="0"
     fit-margin-bottom="0"
     inkscape:showpageshadow="false">
    <inkscape:grid
       type="xygrid"
       id="grid972"
       empspacing="8"
       spacingy="1.0583347"
       spacingx="1.0583333"
       originx="0"
       originy="0" />
  </sodipodi:namedview>
  <defs
     id="defs95">
    <pattern
       xlink:href="#a"
       id="n"
       patternTransform="rotate(-45 270.642 -314.417) scale(.26458)" />
    <clipPath
       id="g">
      <path
         d="m 39.132,158.55 h -8.466 v 84.666 h 8.466 z"
         id="path3"
         inkscape:connector-curvature="0"
         style="fill:#621c1c;stroke-width:3.17499995" />
    </clipPath>
    <clipPath
       id="f">
      <path
         d="m 30.666,268.616 v 42.334 h 42.333 v -8.467 H 39.132 v -33.867 z"
         id="path6"
         inkscape:connector-curvature="0"
         style="fill:#621c1c;stroke-width:3.17499995" />
    </clipPath>
    <clipPath
       id="e">
      <path
         d="m 284.666,310.95 h -42.334 v -8.467 H 276.2 V 285.55 h 8.467 z"
         id="path9"
         inkscape:connector-curvature="0"
         style="fill:#621c1c;stroke-width:3.17499995" />
    </clipPath>
    <clipPath
       id="h">
      <path
         d="m 280.04,183.95 v 76.2 h 8.467 v -76.2 z"
         id="path12"
         inkscape:connector-curvature="0"
         style="fill:#621c1c;stroke-width:3.26799989" />
    </clipPath>
    <clipPath
       id="i">
      <path
         d="m 98.399,304.6 v 8.466 h 42.333 V 304.6 Z"
         id="path15"
         inkscape:connector-curvature="0"
         style="fill:#621c1c;stroke-width:3.17499995" />
    </clipPath>
    <clipPath
       id="j">
      <path
         d="m 174.599,319.416 v -8.466 h 42.333 v 8.466 z"
         id="path18"
         inkscape:connector-curvature="0"
         style="fill:#621c1c;stroke-width:3.17499995" />
    </clipPath>
    <clipPath
       id="k">
      <path
         d="m 132.266,65.416 h -101.6 v 50.8 h 8.466 V 73.883 h 93.134 z"
         id="path21"
         inkscape:connector-curvature="0"
         style="fill:#621c1c;stroke-width:3.17499995" />
    </clipPath>
    <clipPath
       id="o">
      <path
         d="m 166.132,65.416 v 8.467 H 276.2 v 67.733 h 8.467 v -76.2 z"
         id="path24"
         inkscape:connector-curvature="0"
         style="fill:#621c1c;stroke-width:3.17499995" />
    </clipPath>
    <pattern
       xlink:href="#b"
       id="l"
       patternTransform="matrix(0,0.0926,-0.0926,0,42.331839,-12.700646)" />
    <pattern
       patternUnits="userSpaceOnUse"
       width="160"
       height="160"
       patternTransform="translate(142.971 268.336) scale(.26458)"
       id="b">
      <path
         fill="none"
         stroke-width="3.78"
         d="M0 0h160v160H0z"
         id="path28" />
      <path
         fill="none"
         stroke-width="3.78"
         d="M0 0h160v160H0z"
         id="path30" />
      <path
         fill="none"
         stroke-width="3.78"
         d="M0 0h160v160H0z"
         id="path32" />
      <path
         fill="#b7b7b7"
         stroke-width="18.898"
         stroke-miterlimit="10"
         d="M0 0h160v160H0z"
         id="path34" />
      <path
         fill-opacity=".354"
         stroke-width="8.709"
         stroke-miterlimit="10"
         d="M36 0h4v160h-4zm40 0h4v160h-4zm40 0h4v160h-4z"
         id="path36" />
      <path
         transform="rotate(90)"
         fill-opacity=".354"
         stroke-width="4.131"
         stroke-miterlimit="10"
         d="M36-76h4v36h-4zm120 40h4V0h-4zm-80-80h4v36h-4z"
         id="path38" />
      <path
         fill-opacity=".354"
         stroke-width="8.709"
         stroke-miterlimit="10"
         d="M156 0h4v160h-4z"
         id="path40" />
      <path
         transform="rotate(90)"
         fill-opacity=".354"
         stroke-width="4.131"
         stroke-miterlimit="10"
         d="M116-156h4v36h-4zm0 80h4v36h-4zm40-40h4v36h-4zM36-156h4v36h-4zM76-36h4V0h-4z"
         id="path42" />
    </pattern>
    <pattern
       xlink:href="#c"
       id="m"
       patternTransform="rotate(90 -61.825 244.891) scale(.0926)" />
    <pattern
       patternUnits="userSpaceOnUse"
       width="160"
       height="160"
       patternTransform="translate(142.971 268.336) scale(.26458)"
       id="c">
      <path
         fill="none"
         stroke-width="3.78"
         d="M0 0h160v160H0z"
         id="path46" />
      <path
         fill="none"
         stroke-width="3.78"
         d="M0 0h160v160H0z"
         id="path48" />
      <path
         fill="none"
         stroke-width="3.78"
         d="M0 0h160v160H0z"
         id="path50" />
      <path
         fill="#b7b7b7"
         stroke-width="18.898"
         stroke-miterlimit="10"
         d="M0 0h160v160H0z"
         id="path52" />
      <path
         fill-opacity=".354"
         stroke-width="8.709"
         stroke-miterlimit="10"
         d="M36 0h4v160h-4zm40 0h4v160h-4zm40 0h4v160h-4z"
         id="path54" />
      <path
         transform="rotate(90)"
         fill-opacity=".354"
         stroke-width="4.131"
         stroke-miterlimit="10"
         d="M36-76h4v36h-4zm120 40h4V0h-4zm-80-80h4v36h-4z"
         id="path56" />
      <path
         fill-opacity=".354"
         stroke-width="8.709"
         stroke-miterlimit="10"
         d="M156 0h4v160h-4z"
         id="path58" />
      <path
         transform="rotate(90)"
         fill-opacity=".354"
         stroke-width="4.131"
         stroke-miterlimit="10"
         d="M116-156h4v36h-4zm0 80h4v36h-4zm40-40h4v36h-4zM36-156h4v36h-4zM76-36h4V0h-4z"
         id="path60" />
    </pattern>
    <pattern
       patternUnits="userSpaceOnUse"
       width="64"
       height="64"
       patternTransform="translate(301.599 99.283) scale(.26458)"
       id="a">
      <path
         fill="none"
         stroke-width="3.78"
         d="M0 0h64v64H0z"
         id="path63" />
      <path
         fill="none"
         stroke-width="3.78"
         d="M0 0h64v64H0z"
         id="path65" />
      <path
         fill="none"
         stroke-width="3.78"
         d="M0 0h64v64H0z"
         id="path67" />
      <path
         fill="none"
         stroke-width="3.78"
         d="M0 0h64v64H0z"
         id="path69" />
      <path
         fill="none"
         stroke-width="3.78"
         d="M0 0h64v64H0z"
         id="path71" />
      <path
         d="M0 0h64v64H0z"
         fill="#7b4414"
         stroke-width=".516"
         id="path73" />
      <path
         fill="none"
         stroke-width="3.78"
         d="M0 0h64v64H0z"
         id="path75" />
      <path
         fill="none"
         stroke-width="3.78"
         d="M0 0h64v64H0z"
         id="path77" />
      <path
         fill="none"
         stroke-width="1.89"
         d="M0 0h64v64H0z"
         id="path79" />
      <path
         d="M32 0h32v32H32zM0 32h32v32H0z"
         fill="#905018"
         stroke-width=".258"
         id="path81" />
    </pattern>
    <pattern
       patternUnits="userSpaceOnUse"
       width="160"
       height="160"
       patternTransform="translate(310.066 226.283) scale(.26458)"
       id="d">
      <path
         fill="#ae6a2d"
         stroke-width="18.898"
         stroke-miterlimit="10"
         d="M0 0h160v160H0z"
         id="path84" />
      <path
         fill-opacity=".354"
         stroke-width="8.709"
         stroke-miterlimit="10"
         d="M36 0h4v160h-4zm40 0h4v160h-4zm40 0h4v160h-4z"
         id="path86" />
      <path
         transform="rotate(90)"
         fill-opacity=".354"
         stroke-width="4.131"
         stroke-miterlimit="10"
         d="M36-76h4v36h-4zm120 40h4V0h-4zm-40-80h4v36h-4z"
         id="path88" />
      <path
         fill-opacity=".354"
         stroke-width="8.709"
         stroke-miterlimit="10"
         d="M156 0h4v160h-4z"
         id="path90" />
      <path
         transform="rotate(90)"
         fill-opacity=".354"
         stroke-width="4.131"
         stroke-miterlimit="10"
         d="M76-156h4v36h-4z"
         id="path92" />
    </pattern>
    <pattern
       xlink:href="#b-6"
       id="q"
       patternTransform="matrix(-0.19843778,0.19843778,-0.19843778,-0.19843778,-16.933517,86.783727)" />
    <pattern
       patternUnits="userSpaceOnUse"
       width="64"
       height="64"
       patternTransform="translate(-20.134 336.35) scale(.26458)"
       id="b-6">
      <path
         d="M0 0h64v64H0z"
         fill="#8b6539"
         stroke-width=".516"
         id="path67-2" />
      <path
         fill="none"
         stroke-width="3.78"
         d="M0 0h64v64H0z"
         id="path69-9" />
      <path
         fill="none"
         stroke-width="3.78"
         d="M0 0h64v64H0z"
         id="path71-6" />
      <path
         fill="none"
         stroke-width="1.89"
         d="M0 0h64v64H0z"
         id="path73-8" />
      <path
         d="M32 0h32v32H32zM0 32h32v32H0z"
         fill="#a47743"
         stroke-width=".258"
         id="path75-0" />
    </pattern>
  </defs>
  <path
     d="M -1.6129032e-4,-6.4595623e-4 H 33.865839 V 16.933354 H -1.6129032e-4 Z"
     id="path119"
     inkscape:connector-curvature="0"
     style="fill:url(#l)" />
</svg>
