<svg xmlns="http://www.w3.org/2000/svg" width="80" height="224" viewBox="0 0 21.167 59.267"><defs><clipPath id="a"><path d="M-10.503 154.7h7.409l2.116 2.117V180.1c0 2.117-2.116 4.234-4.233 4.234h-5.292z" fill="#8e8380" stroke-width="3.086"/></clipPath><clipPath id="c"><path d="M-10.503 154.7h7.409l2.116 2.117V180.1c0 2.117-2.116 4.234-4.233 4.234h-5.292z" clip-path="url(#a)" fill="#8e8380" stroke-width="3.086"/></clipPath><clipPath id="g"><ellipse ry="2.117" rx="2.117" cy="-1.139" cx="152.584" fill="#8e8380" stroke-width=".873"/></clipPath><clipPath id="b"><path d="M-.998 158.934h50.8c2.116 0 4.233 2.116 4.233 4.233v2.117H-5.232v-2.117c0-2.117 2.117-4.233 4.234-4.233z" fill="#756b68" stroke-width="2.117"/></clipPath><clipPath id="f"><path d="M54.056 170.84v-6.88H-5.211v6.88z" fill="#8e8380" stroke-width="1.207"/></clipPath><clipPath id="e"><path d="M49.802 175.867h-50.8c-2.117 0-4.234-2.117-4.234-4.233v-2.117h59.267v2.117c0 2.116-2.117 4.233-4.233 4.233z" fill="#ada5a3" stroke-width="2.117"/></clipPath><clipPath id="d"><path clip-path="url(#b)" d="M-.998 158.934h50.8c2.116 0 4.233 2.116 4.233 4.233v2.117H-5.21v-2.117c0-2.117 2.096-4.233 4.213-4.233z" fill="#756b68" stroke-width="2.117"/></clipPath></defs><g transform="translate(-13.829 -135.66)"><path clip-path="url(#c)" d="M-10.503 154.7h6.88l2.645 2.646V180.1c0 2.117-2.116 4.234-4.233 4.234h-5.292z" transform="rotate(-180 6.426 174.803)" fill="#8e8380" stroke="#191919" stroke-width="2.117"/><path d="M-.998 158.934h50.8c2.116 0 4.233 2.116 4.233 4.233v2.117H-5.21v-2.117c0-2.117 2.096-4.233 4.213-4.233z" clip-path="url(#d)" transform="matrix(0 -1.00035 1 0 -140.872 189.694)" fill="#756b68" stroke="#191919" stroke-width="3.174"/><path d="M49.802 175.867h-50.8c-2.117 0-4.234-2.117-4.234-4.233v-2.117h59.267v2.117c0 2.116-2.117 4.233-4.233 4.233z" clip-path="url(#e)" transform="rotate(-90 24.412 165.284)" fill="#ada5a3" stroke="#191919" stroke-width="3.175"/><path clip-path="url(#f)" d="M54.056 170.84v-6.88H-5.211v6.88z" transform="rotate(-90 24.412 165.284)" fill="#8e8380" stroke="#191919" stroke-width="3.175"/><ellipse cx="-190.694" cy="31.82" rx="1.038" ry="1.058" transform="rotate(-90)" fill="#363636"/><ellipse ry="1.058" rx="1.038" cy="31.82" cx="-182.227" transform="rotate(-90)" fill="#363636"/><ellipse cx="-173.781" cy="31.82" rx="1.038" ry="1.058" transform="rotate(-90)" fill="#363636"/><ellipse ry="1.058" rx="1.038" cy="31.82" cx="-165.273" transform="rotate(-90)" fill="#363636"/><ellipse cx="-156.807" cy="31.82" rx="1.038" ry="1.058" transform="rotate(-90)" fill="#363636"/><ellipse ry="1.058" rx="1.038" cy="31.82" cx="-148.361" transform="rotate(-90)" fill="#363636"/><ellipse cx="-139.873" cy="31.82" rx="1.038" ry="1.058" transform="rotate(-90)" fill="#363636"/><ellipse transform="rotate(-90 190.66 173.177) scale(1.1227)" cx="152.584" cy="-1.139" rx="2.117" ry="2.117" clip-path="url(#g)" fill="#8e8380" stroke="#191919" stroke-width="2.117"/></g></svg>