<?xml version="1.0" encoding="UTF-8" standalone="no"?>
<svg
   xmlns:dc="http://purl.org/dc/elements/1.1/"
   xmlns:cc="http://creativecommons.org/ns#"
   xmlns:rdf="http://www.w3.org/1999/02/22-rdf-syntax-ns#"
   xmlns:svg="http://www.w3.org/2000/svg"
   xmlns="http://www.w3.org/2000/svg"
   xmlns:sodipodi="http://sodipodi.sourceforge.net/DTD/sodipodi-0.dtd"
   xmlns:inkscape="http://www.inkscape.org/namespaces/inkscape"
   width="416"
   height="416"
   viewBox="0 0 110.067 110.067"
   version="1.1"
   id="svg8"
   sodipodi:docname="map-statue-04.svg"
   inkscape:version="0.92.2 (5c3e80d, 2017-08-06)">
  <metadata
     id="metadata14">
    <rdf:RDF>
      <cc:Work
         rdf:about="">
        <dc:format>image/svg+xml</dc:format>
        <dc:type
           rdf:resource="http://purl.org/dc/dcmitype/StillImage" />
        <dc:title />
      </cc:Work>
    </rdf:RDF>
  </metadata>
  <defs
     id="defs12">
    <clipPath
       id="b">
      <path
         style="fill:#252525;fill-opacity:0.60100002;stroke-width:12.5369997"
         inkscape:connector-curvature="0"
         d="m 188,128 c 0,80 -69.756,119.362 -69.756,119.362 C 64,244 8.638,193.922 8.638,128 8.638,62.078 64,12 118.244,8.638 118.244,8.638 188,48 188,128 Z"
         id="path5" />
    </clipPath>
    <clipPath
       clipPathUnits="userSpaceOnUse"
       id="clipPath4533">
      <path
         style="fill:#515151;stroke-width:2.32683945;stroke-miterlimit:10;stroke-opacity:0.49000005"
         d="m 58.410041,-93.043927 v 20.680359 c 0,3.737513 -1.452763,6.746412 -3.257317,6.746412 -1.804551,0 -3.257316,-3.008899 -3.257316,-6.746412 v -20.770047 l 2.079755,-1.058337 2.116674,2.116673 z"
         id="path4535"
         inkscape:connector-curvature="0"
         sodipodi:nodetypes="cssscccc" />
    </clipPath>
  </defs>
  <sodipodi:namedview
     pagecolor="#ffffff"
     bordercolor="#666666"
     borderopacity="1"
     objecttolerance="10"
     gridtolerance="10"
     guidetolerance="10"
     inkscape:pageopacity="0"
     inkscape:pageshadow="2"
     inkscape:window-width="1920"
     inkscape:window-height="1017"
     id="namedview10"
     showgrid="true"
     inkscape:zoom="2.2692308"
     inkscape:cx="207.2798"
     inkscape:cy="214.83454"
     inkscape:window-x="1912"
     inkscape:window-y="-8"
     inkscape:window-maximized="1"
     inkscape:current-layer="svg8">
    <inkscape:grid
       type="xygrid"
       id="grid817"
       empspacing="4"
       spacingy="0.52916827"
       spacingx="0.52916827" />
  </sodipodi:namedview>
  <path
     style="fill:#2d2d2d;stroke:#191919;stroke-width:2.1170001;stroke-opacity:1"
     clip-path="none"
     d="m 18.891001,18.891001 10.791908,0.133488 3.05654,2.142242 5.360666,-2.116673 27.51675,0 2.116674,2.116673 2.942803,-2.116673 20.498655,-0.159057 -0.158055,14.975768 -2.116673,2.116673 2.116673,3.704178 v 32.279265 l -2.116673,4.233346 2.116673,2.116673 L 91.175,91.174997 76.200231,91.016942 71.966885,88.900269 63.500192,91.016942 H 33.337601 l -2.645841,-2.116673 -1.587505,2.116673 -10.213254,0.158055 0.159057,-12.858093 2.116673,-4.233346 -2.116673,-2.116673 V 52.916827 l 2.116673,-2.116673 -2.116673,-4.233346 z"
     id="rect2"
     inkscape:connector-curvature="0"
     sodipodi:nodetypes="ccccccccccccccccccccccccccccc" />
  <path
     d="m 30.687473,30.8535 h 48.36 l 0.323481,16.609905 -2.116674,2.116673 2.116674,3.083892 -0.323481,26.549531 H 55.558381 l -1.587504,-1.587504 -3.17501,1.587504 H 30.687473 V 39.320193 l 2.116673,-2.116673 -2.116673,-3.33133 z"
     id="path4"
     inkscape:connector-curvature="0"
     style="fill:#404040;stroke:#191919;stroke-width:2.1170001"
     sodipodi:nodetypes="cccccccccccccc" />
  <path
     d="M91.017 19.05l-12.7 12.7M91.017 91.017l-12.7-12.7M19.05 91.017l12.7-12.7M19.05 19.05l12.7 12.7"
     fill="none"
     stroke="#191919"
     stroke-width="2.117"
     id="path6" />
  <circle
     style="fill:#000000;fill-opacity:0.28282827;stroke:none;stroke-width:3.17500949;stroke-miterlimit:4;stroke-dasharray:none;stroke-opacity:1"
     id="path821"
     cx="55.033501"
     cy="55.033501"
     r="11.707346" />
  <g
     id="g852"
     transform="translate(-51.176367,1.0632679)">
    <path
       clip-path="url(#clipPath4533)"
       transform="rotate(90,25.400077,25.400077)"
       style="fill:#cfcfcf;fill-opacity:1;stroke:#333333;stroke-width:3.72322798;stroke-miterlimit:10;stroke-dasharray:none;stroke-opacity:1"
       d="m 58.410041,-93.043926 v 20.680358 c 0,3.737512 -1.452763,6.746411 -3.257316,6.746411 -1.804553,0 -3.257316,-3.008899 -3.257316,-6.746411 v -20.770047 l 2.079754,-1.058337 2.116674,2.116673 z"
       id="path4531"
       inkscape:connector-curvature="0"
       sodipodi:nodetypes="cssscccc" />
    <path
       sodipodi:nodetypes="csccssscccssssc"
       inkscape:connector-curvature="0"
       id="ellipse10"
       d="m 106.81618,38.76137 c 0.51948,0.03144 1.03179,0.0869 1.53593,0.165258 0.54714,0.08505 1.61123,0.33454 1.61123,0.33454 0,0 11.00587,6.905904 11.9764,13.312587 0.0758,0.500268 0.12867,1.007491 0.15762,1.520485 0.0357,0.633093 0.035,1.274975 -0.004,1.923423 -0.15266,2.526418 -0.87253,4.883546 -2.02814,6.954832 -0.27696,0.49642 -1.45604,0.978329 -1.45604,0.978329 l -7.48364,2.724375 -3.088,4.059567 c 0,0 -0.90864,0.558289 -1.38375,0.581686 -0.59433,0.02926 -1.19627,0.02633 -1.80397,-0.01045 C 95.869317,70.762569 89.029585,63.036659 89.572638,54.049707 90.115692,45.062753 97.835888,38.217931 106.81618,38.76137 Z"
       style="fill:#a0a0a0;stroke:#333333;stroke-width:2.70000005;stroke-miterlimit:10" />
    <ellipse
       id="ellipse14"
       stroke-miterlimit="10"
       ry="4.7919998"
       rx="4.7950001"
       transform="matrix(0.06031685,-0.99817928,0.99817507,0.06038654,0,0)"
       cy="122.77267"
       cx="-48.799358"
       style="fill:#7a7a7a;stroke:#333333;stroke-width:1.74600005;stroke-miterlimit:10" />
    <path
       sodipodi:nodetypes="sssccccsss"
       inkscape:connector-curvature="0"
       id="ellipse16"
       d="m 136.36726,55.43527 c 2.19824,0.132987 3.96047,1.728817 4.39816,3.783957 0.0883,0.414614 0.12269,0.847923 0.0959,1.291685 -0.0151,0.249389 -0.10012,0.730047 -0.10012,0.730047 l -3.17742,0.936315 -2.64585,-2.381259 -3.31497,2.194735 c 0,0 -0.20182,-0.589723 -0.25883,-0.901063 -0.0684,-0.373601 -0.0933,-0.761396 -0.0693,-1.157519 0.15973,-2.643384 2.43075,-4.656714 5.07247,-4.496898 z"
       style="fill:#7a7a7a;stroke:#333333;stroke-width:1.74600005;stroke-miterlimit:10" />
    <path
       id="path18"
       clip-path="url(#b)"
       d="m 188,128 c 0,80 -69.756,119.362 -69.756,119.362 C 64,244 8.638,193.922 8.638,128 8.638,62.078 64,12 118.244,8.638 118.244,8.638 188,48 188,128 Z"
       transform="matrix(0.14668,0,0,0.14668,84.358154,36.259)"
       style="fill:#626262;stroke:#272727;stroke-width:36"
       inkscape:connector-curvature="0" />
    <path
       sodipodi:nodetypes="ccccccccccc"
       style="fill:#424242;stroke:#242424;stroke-width:1.21744001"
       inkscape:connector-curvature="0"
       id="path20"
       d="m 106.45561,55.033321 -5.33269,1.785984 -0.0505,5.623508 -3.346443,-4.519746 -3.004834,-0.243725 0.905359,-2.646021 -3.264717,-4.579401 5.36404,1.689655 1.757832,-1.872588 1.639133,2.976349 z" />
    <path
       id="path22"
       d="m 98.425154,38.100001 c -7.937,3.704 -6.35,6.35 -6.35,6.35 h 7.407999 c 2.116997,5.292 6.349997,5.292 6.349997,5.292 0,0 4.234,0 6.35,-5.292 h 7.409 c 0,0 1.587,-2.646 -6.35,-6.35 -3.704,-1.974 -10.054,-1.974 -14.816996,0 z"
       style="fill:#d6d6d6;stroke:#515151;stroke-width:2.64599991;stroke-opacity:0.65499998"
       inkscape:connector-curvature="0" />
  </g>
</svg>
