<svg xmlns="http://www.w3.org/2000/svg" width="160" height="128" viewBox="0 0 42.333 33.867"><defs><clipPath id="c"><path d="M402.14 158.55h9.526v-42.334h-9.525z" clip-path="url(#clipPath2845)" fill="#a3977d" stroke-width="1.984"/></clipPath><clipPath id="d"><path d="M-149.129 222.412v8.505h33.867l-1.058-1.89 3.175-2.835-3.175-3.78z" clip-path="url(#clipPath2845)" fill="#a3977d" stroke-width="1.875"/></clipPath><clipPath id="b"><path d="M-149.129 205.48v9.524h25.4l4.234-2.117-3.175-4.233 2.116-3.175z" clip-path="url(#clipPath2845)" fill="#a3977d" stroke-width="1.959"/></clipPath><clipPath id="a"><path d="M-149.129 198.109v8.477l22.225-.01 1.059-5.292-7.409-3.175-6.35 1.058-5.291-2.117z" clip-path="url(#clipPath2845)" fill="#a3977d" stroke-width="1.985"/></clipPath></defs><g stroke="#000" stroke-width="2.117" stroke-opacity=".706"><path clip-path="url(#a)" d="M-149.129 198.109v8.477l22.225-.01 1.059-5.292-7.409-3.175-6.35 1.058-5.291-2.117z" fill="#71461b" transform="translate(149.129 -197.05)"/><path clip-path="url(#b)" d="M-149.129 205.48v9.524h25.4l4.234-2.117-3.175-4.233 2.116-3.175z" fill="#82501e" transform="translate(149.129 -197.05)"/><path d="M402.14 158.55h9.526v-42.334h-9.525z" clip-path="url(#c)" transform="rotate(90 271.898 -113.348)" fill="#925a22"/><path clip-path="url(#d)" d="M-149.129 222.412v8.505h33.867l-1.058-1.89 3.175-2.835-3.175-3.78z" fill="#a26426" transform="translate(149.129 -197.05)"/></g></svg>