<?xml version="1.0" encoding="UTF-8" standalone="no"?>
<svg
   xmlns:dc="http://purl.org/dc/elements/1.1/"
   xmlns:cc="http://creativecommons.org/ns#"
   xmlns:rdf="http://www.w3.org/1999/02/22-rdf-syntax-ns#"
   xmlns:svg="http://www.w3.org/2000/svg"
   xmlns="http://www.w3.org/2000/svg"
   xmlns:sodipodi="http://sodipodi.sourceforge.net/DTD/sodipodi-0.dtd"
   xmlns:inkscape="http://www.inkscape.org/namespaces/inkscape"
   width="164"
   height="208"
   viewBox="0 0 43.391667 55.03334"
   version="1.1"
   id="svg11"
   sodipodi:docname="map-building-barn-basement-ceiling-02.svg"
   inkscape:version="0.92.2 (5c3e80d, 2017-08-06)">
  <metadata
     id="metadata15">
    <rdf:RDF>
      <cc:Work
         rdf:about="">
        <dc:format>image/svg+xml</dc:format>
        <dc:type
           rdf:resource="http://purl.org/dc/dcmitype/StillImage" />
        <dc:title />
      </cc:Work>
    </rdf:RDF>
  </metadata>
  <sodipodi:namedview
     pagecolor="#ffffff"
     bordercolor="#666666"
     borderopacity="1"
     objecttolerance="10"
     gridtolerance="10"
     guidetolerance="10"
     inkscape:pageopacity="0"
     inkscape:pageshadow="2"
     inkscape:window-width="1920"
     inkscape:window-height="1017"
     id="namedview13"
     showgrid="true"
     inkscape:zoom="0.43457603"
     inkscape:cx="451.95318"
     inkscape:cy="294.90534"
     inkscape:window-x="1912"
     inkscape:window-y="-8"
     inkscape:window-maximized="1"
     inkscape:current-layer="svg11"
     fit-margin-top="0"
     fit-margin-left="0"
     fit-margin-right="0"
     fit-margin-bottom="0"
     inkscape:showpageshadow="false"
     showguides="false">
    <inkscape:grid
       type="xygrid"
       id="grid885"
       empspacing="8"
       spacingy="1.0583333"
       spacingx="1.0583333"
       originx="0"
       originy="0" />
  </sodipodi:namedview>
  <defs
     id="defs5">
    <clipPath
       clipPathUnits="userSpaceOnUse"
       id="clipPath1093">
      <path
         sodipodi:nodetypes="ccccc"
         style="fill:#3a3a3a;fill-opacity:1;stroke-width:2.11702108;stroke-opacity:0.706"
         inkscape:connector-curvature="0"
         id="path1095"
         d="M -9.72e-5,110.06657 16.933283,93.133336 16.933333,25.400005 3.28e-5,8.4669725 Z" />
    </clipPath>
    <clipPath
       clipPathUnits="userSpaceOnUse"
       id="clipPath2082-8">
      <path
         sodipodi:nodetypes="ccccccccccccccccccccccccccccccccc"
         inkscape:connector-curvature="0"
         id="path2084-9"
         d="m -169.33333,110.06524 c 0,0 62.37157,10e-4 245.533327,10e-4 V 3.2e-6 H 67.733331 V 101.6 H -76.199997 l -5.3e-4,-25.403098 -2.11615,1.061429 -3.175,-2.116659 -2.116662,1.058328 -1.058849,-0.003 5.29e-4,0.003 v 25.40004 L -160.86667,101.6 V 16.933336 l 76.200006,-10e-6 V 42.33337 l 5.29e-4,-0.003 2.11613,1.060921 2.116669,-1.058331 2.116661,-1.058328 2.11718,1.056259 -5.29e-4,-25.397555 H -8.4666664 V 76.2 H 33.866667 V 3.2e-6 H 25.399999 V 67.733333 H 0 V 8.4666696 l -169.33333,6.3e-6 z"
         style="fill:#2b2622;fill-opacity:1;stroke-width:2.22600245" />
    </clipPath>
    <clipPath
       clipPathUnits="userSpaceOnUse"
       id="clipPath1020">
      <path
         sodipodi:nodetypes="ccccc"
         style="fill:#3a3a3a;fill-opacity:1;stroke-width:2.11702108;stroke-opacity:0.706"
         inkscape:connector-curvature="0"
         id="path1022"
         d="M 9.38e-5,8.4666307 16.933333,25.40001 l 52.916963,5e-5 16.933035,-16.9332994 z" />
    </clipPath>
    <clipPath
       clipPathUnits="userSpaceOnUse"
       id="clipPath1026">
      <path
         sodipodi:nodetypes="ccccc"
         style="fill:#3a3a3a;fill-opacity:1;stroke-width:2.11702108;stroke-opacity:0.706"
         inkscape:connector-curvature="0"
         id="path1028"
         d="M 86.783236,110.06667 69.849997,93.133295 16.933334,93.133244 2.9900035e-4,110.06654 Z" />
    </clipPath>
    <clipPath
       clipPathUnits="userSpaceOnUse"
       id="clipPath1032">
      <path
         inkscape:connector-curvature="0"
         id="path1034"
         d="M 16.933428,93.133393 V 25.40006 h 52.916569 v 67.733333 z"
         style="fill:#565656;stroke-width:0.80407631;stroke-opacity:0.706"
         sodipodi:nodetypes="ccccc" />
    </clipPath>
  </defs>
  <path
     style="fill:#2b2622;fill-opacity:1;stroke:#000000;stroke-width:3.17499995;stroke-miterlimit:4;stroke-dasharray:none;stroke-opacity:0.70588235"
     d="m -169.33333,110.06524 c 0,0 62.37157,10e-4 245.533328,10e-4 V 3.2e-6 H 67.733331 V 101.6 H -76.199998 l -5.4e-4,-25.403099 -2.11615,1.06143 -3.175,-2.11666 -2.11666,1.05833 -1.05885,-0.003 5.34e-4,0.003 V 101.60004 L -160.86667,101.6 V 16.933336 l 76.200006,-10e-6 v 25.400045 l 5.26e-4,-0.003 2.11613,1.06092 2.11667,-1.05833 2.11666,-1.05833 2.11718,1.05626 -5.3e-4,-25.397555 H -8.4666664 V 76.200001 H 33.866666 V 3.2e-6 H 25.399999 V 67.733334 H 0 V 8.4666696 l -169.33333,6.4e-6 z"
     id="path2080"
     inkscape:connector-curvature="0"
     sodipodi:nodetypes="ccccccccccccccccccccccccccccccccc"
     clip-path="url(#clipPath2082-8)"
     transform="translate(264.58334,-53.974625)" />
  <g
     id="g1009"
     transform="matrix(0.49999717,0,0,0.49999717,-5.3776253e-7,3.087099e-4)">
    <path
       sodipodi:nodetypes="ccccc"
       style="fill:#000000;fill-opacity:1;stroke-width:1.52355671"
       d="M 0,8.4666776 V 110.06667 l 86.783333,-1e-5 V 8.4666706 Z"
       id="path2443"
       inkscape:connector-curvature="0" />
    <path
       clip-path="url(#clipPath1093)"
       sodipodi:nodetypes="ccccc"
       style="fill:#3a3a3a;fill-opacity:1;stroke:#000000;stroke-width:2.11666679;stroke-miterlimit:4;stroke-dasharray:none;stroke-opacity:1"
       inkscape:connector-curvature="0"
       id="path1091"
       d="M -9.72e-5,110.06657 16.933283,93.133337 16.933333,25.400005 3.28e-5,8.4669725 Z"
       transform="translate(9.6124481e-5,-1.3874443e-5)" />
    <path
       transform="rotate(180,43.391665,59.266618)"
       d="M -9.72e-5,110.06657 16.933283,93.133337 16.933333,25.400005 3.28e-5,8.4669725 Z"
       id="path1141"
       inkscape:connector-curvature="0"
       style="fill:#3a3a3a;fill-opacity:1;stroke:#000000;stroke-width:2.11666679;stroke-miterlimit:4;stroke-dasharray:none;stroke-opacity:1"
       sodipodi:nodetypes="ccccc"
       clip-path="url(#clipPath1093)" />
    <path
       transform="translate(9.72e-5,-1.1077444e-4)"
       clip-path="url(#clipPath1020)"
       sodipodi:nodetypes="ccccc"
       style="fill:#3a3a3a;fill-opacity:1;stroke:#000000;stroke-width:2.11666679;stroke-miterlimit:4;stroke-dasharray:none;stroke-opacity:1"
       inkscape:connector-curvature="0"
       id="path1018"
       d="M 9.38e-5,8.4666308 16.933333,25.40001 l 52.916963,5e-5 16.933035,-16.9332993 z" />
    <path
       transform="translate(9.6e-5,-1.4374443e-5)"
       clip-path="url(#clipPath1026)"
       sodipodi:nodetypes="ccccc"
       style="fill:#3a3a3a;fill-opacity:1;stroke:#000000;stroke-width:2.11666679;stroke-miterlimit:4;stroke-dasharray:none;stroke-opacity:1"
       inkscape:connector-curvature="0"
       id="path1024"
       d="M 86.783237,110.06667 69.849998,93.133295 16.933334,93.133245 2.99e-4,110.06654 Z" />
    <path
       transform="translate(9.72e-5,-1.1077444e-4)"
       clip-path="url(#clipPath1032)"
       inkscape:connector-curvature="0"
       id="path1030"
       d="M 16.933428,93.133393 V 25.40006 h 52.91657 v 67.733333 z"
       style="fill:#565656;stroke:#000000;stroke-width:2.11666679;stroke-miterlimit:4;stroke-dasharray:none;stroke-opacity:1"
       sodipodi:nodetypes="ccccc" />
  </g>
</svg>
