<svg xmlns="http://www.w3.org/2000/svg" width="124" height="124" viewBox="0 0 32.808 32.808"><defs><clipPath id="d"><path fill="#b06e24" stroke-width="1.604" d="M292.925-29.475h7.408V3.333h-7.408z"/></clipPath><clipPath id="c"><path fill="#b06e24" stroke-width="1.604" d="M292.925-29.475h7.408V3.333h-7.408z"/></clipPath><clipPath id="b"><path fill="#b06e24" stroke-width="1.604" d="M292.925-29.475h7.408V3.333h-7.408z"/></clipPath><clipPath id="a"><path fill="#b06e24" stroke-width="1.604" d="M292.925-29.475h7.408V3.333h-7.408z"/></clipPath><clipPath id="e"><rect ry="1.411" rx="1.436" y="260.117" x="-1.746" height="4.233" width="10.054" fill="#ffbd0d" stroke-width="1.618"/></clipPath><clipPath id="f"><rect ry="1.411" rx="1.436" y="260.117" x="-1.746" height="4.233" width="10.054" fill="#ffbd0d" stroke-width="1.618"/></clipPath></defs><g transform="translate(3.333 -267.525)" stroke="#191919"><path transform="rotate(180 148.5 135.43)" clip-path="url(#a)" fill="#b06e24" stroke-width="2.117" d="M292.925-29.475h7.408V3.333h-7.408z"/><path transform="rotate(180 161.2 135.43)" clip-path="url(#b)" fill="#b06e24" stroke-width="2.117" d="M292.925-29.475h7.408V3.333h-7.408z"/><path transform="rotate(180 156.967 135.43)" clip-path="url(#c)" fill="#b06e24" stroke-width="2.117" d="M292.925-29.475h7.408V3.333h-7.408z"/><path transform="rotate(180 152.733 135.43)" clip-path="url(#d)" fill="#b06e24" stroke-width="2.117" d="M292.925-29.475h7.408V3.333h-7.408z"/><g transform="rotate(90 -1.878 268.716)" fill="#ffbd0d" stroke-width="1.587"><rect clip-path="url(#e)" ry="1.411" rx="1.436" y="260.117" x="-1.746" height="4.233" width="10.054"/><rect transform="translate(10.054)" width="10.054" height="4.233" x="-1.746" y="260.117" rx="1.436" ry="1.411" clip-path="url(#e)"/><rect clip-path="url(#e)" ry="1.411" rx="1.436" y="260.117" x="-1.746" height="4.233" width="10.054" transform="translate(20.108)"/></g><g transform="rotate(90 -3.995 266.6)" fill="#ffbd0d" stroke-width="1.587"><rect width="10.054" height="4.233" x="-1.746" y="260.117" rx="1.436" ry="1.411" clip-path="url(#e)"/><rect clip-path="url(#e)" ry="1.411" rx="1.436" y="260.117" x="-1.746" height="4.233" width="10.054" transform="translate(10.054)"/><rect transform="translate(20.108)" width="10.054" height="4.233" x="-1.746" y="260.117" rx="1.436" ry="1.411" clip-path="url(#e)"/></g><g transform="rotate(90 2.355 272.95)" fill="#ffbd0d" stroke-width="1.587"><rect width="10.054" height="4.233" x="-1.746" y="260.117" rx="1.436" ry="1.411" clip-path="url(#e)"/><rect clip-path="url(#e)" ry="1.411" rx="1.436" y="260.117" x="-1.746" height="4.233" width="10.054" transform="translate(10.054)"/><rect transform="translate(20.108)" width="10.054" height="4.233" x="-1.746" y="260.117" rx="1.436" ry="1.411" clip-path="url(#e)"/></g><g transform="rotate(90 .238 270.832)" fill="#ffbd0d" stroke-width="1.587"><rect clip-path="url(#e)" ry="1.411" rx="1.436" y="260.117" x="-1.746" height="4.233" width="10.054"/><rect transform="translate(10.054)" width="10.054" height="4.233" x="-1.746" y="260.117" rx="1.436" ry="1.411" clip-path="url(#e)"/><rect clip-path="url(#e)" ry="1.411" rx="1.436" y="260.117" x="-1.746" height="4.233" width="10.054" transform="translate(20.108)"/></g><g transform="rotate(90 6.588 277.182)" fill="#ffbd0d" stroke-width="1.587"><rect width="10.054" height="4.233" x="-1.746" y="260.117" rx="1.436" ry="1.411" clip-path="url(#e)"/><rect clip-path="url(#e)" ry="1.411" rx="1.436" y="260.117" x="-1.746" height="4.233" width="10.054" transform="translate(10.054)"/><rect transform="translate(20.108)" width="10.054" height="4.233" x="-1.746" y="260.117" rx="1.436" ry="1.411" clip-path="url(#e)"/></g><g transform="rotate(90 4.472 275.066)" fill="#ffbd0d" stroke-width="1.587"><rect clip-path="url(#e)" ry="1.411" rx="1.436" y="260.117" x="-1.746" height="4.233" width="10.054"/><rect transform="translate(10.054)" width="10.054" height="4.233" x="-1.746" y="260.117" rx="1.436" ry="1.411" clip-path="url(#e)"/><rect clip-path="url(#e)" ry="1.411" rx="1.436" y="260.117" x="-1.746" height="4.233" width="10.054" transform="translate(20.108)"/></g><g transform="rotate(90 8.705 279.3)" fill="#ffbd0d" stroke-width="1.587"><rect clip-path="url(#e)" ry="1.411" rx="1.436" y="260.117" x="-1.746" height="4.233" width="10.054"/><rect transform="translate(10.054)" width="10.054" height="4.233" x="-1.746" y="260.117" rx="1.436" ry="1.411" clip-path="url(#e)"/><rect clip-path="url(#e)" ry="1.411" rx="1.436" y="260.117" x="-1.746" height="4.233" width="10.054" transform="translate(20.108)"/></g><rect width="10.054" height="4.233" x="-1.746" y="260.117" rx="1.436" ry="1.411" clip-path="url(#f)" transform="rotate(180 3.943 268.054)" fill="#ffbd0d" stroke-width="1.587"/><rect clip-path="url(#f)" ry="1.411" rx="1.436" y="260.117" x="-1.746" height="4.233" width="10.054" transform="rotate(180 12.41 273.081)" fill="#ffbd0d" stroke-width="1.587"/><rect transform="rotate(180 6.06 278.108)" width="10.054" height="4.233" x="-1.746" y="260.117" rx="1.436" ry="1.411" clip-path="url(#f)" fill="#ffbd0d" stroke-width="1.587"/></g></svg>