<svg xmlns="http://www.w3.org/2000/svg" width="200" height="200" viewBox="0 0 52.917 52.917"><path d="M31.026.53c4.545.767 9.97 2.802 14.193 7.26 4.22 4.458 7.235 11.337 7.575 18.46.34 7.122-2 14.482-6.553 19.235-4.554 4.75-11.323 6.89-17.767 7.23-6.442.34-12.558-1.123-16.975-3.548-4.414-2.426-7.127-5.817-8.852-9.404C.92 36.178.185 32.4.099 28.243c-.085-4.156.479-8.69 2.28-12.697 1.803-4.009 4.835-7.488 7.837-9.863 2.997-2.375 5.967-3.644 9.281-4.53 3.315-.886 6.981-1.39 11.529-.622z" fill="#010201" fill-opacity=".704"/><path d="M31.026.53c4.545.767 9.97 2.802 14.193 7.26 4.22 4.458 7.235 11.337 7.575 18.46.34 7.122-2 14.482-6.553 19.235-4.554 4.75-11.323 6.89-17.767 7.23-6.442.34-12.558-1.123-16.975-3.548-4.414-2.426-7.127-5.817-8.852-9.404C.92 36.178.185 32.4.099 28.243c-.085-4.156.479-8.69 2.28-12.697 1.803-4.009 4.835-7.488 7.837-9.863 2.997-2.375 5.967-3.644 9.281-4.53 3.315-.886 6.981-1.39 11.529-.622z" fill="#051427" fill-opacity=".692"/></svg>