<?xml version="1.0" encoding="UTF-8" standalone="no"?>
<svg
   xmlns:dc="http://purl.org/dc/elements/1.1/"
   xmlns:cc="http://creativecommons.org/ns#"
   xmlns:rdf="http://www.w3.org/1999/02/22-rdf-syntax-ns#"
   xmlns:svg="http://www.w3.org/2000/svg"
   xmlns="http://www.w3.org/2000/svg"
   xmlns:sodipodi="http://sodipodi.sourceforge.net/DTD/sodipodi-0.dtd"
   xmlns:inkscape="http://www.inkscape.org/namespaces/inkscape"
   width="256"
   height="256"
   viewBox="0 0 67.733 67.733"
   version="1.1"
   id="svg6"
   sodipodi:docname="map-tree-07s.svg"
   inkscape:version="0.92.2 (5c3e80d, 2017-08-06)">
  <metadata
     id="metadata12">
    <rdf:RDF>
      <cc:Work
         rdf:about="">
        <dc:format>image/svg+xml</dc:format>
        <dc:type
           rdf:resource="http://purl.org/dc/dcmitype/StillImage" />
        <dc:title />
      </cc:Work>
    </rdf:RDF>
  </metadata>
  <defs
     id="defs10" />
  <sodipodi:namedview
     pagecolor="#ffffff"
     bordercolor="#666666"
     borderopacity="1"
     objecttolerance="10"
     gridtolerance="10"
     guidetolerance="10"
     inkscape:pageopacity="0"
     inkscape:pageshadow="2"
     inkscape:window-width="1920"
     inkscape:window-height="1017"
     id="namedview8"
     showgrid="false"
     inkscape:zoom="1.3037281"
     inkscape:cx="124.22584"
     inkscape:cy="171.2283"
     inkscape:window-x="1912"
     inkscape:window-y="-8"
     inkscape:window-maximized="1"
     inkscape:current-layer="svg6" />
  <path
     d="M63.092 50.581c-1.784 2.999-5.67 1.803-8.168 4.253-2.498 2.45-1.179 6.544-4.215 8.27-3.037 1.728-5.96-1.51-9.347-.647-3.387.864-4.068 5.104-7.573 5.084-3.505-.02-4.51-4.222-7.873-5.158-3.362-.936-6.036 2.022-9.068.29-3.033-1.734-1.58-5.504-4.062-7.967-2.483-2.463-6.353-1.082-8.095-4.11-1.741-3.03 1.302-5.885.388-9.256C4.165 37.968.037 37.024.04 33.547c.004-3.476 4.379-4.334 5.284-7.692.906-3.357-2.293-6.074-.502-9.076 1.79-3.002 5.574-1.685 8.05-4.155 2.476-2.47 1.315-6.188 4.35-7.908 3.034-1.72 5.825 1.483 9.212.584C29.821 4.4 30.53.198 34.031.193c3.503-.006 4.147 3.996 7.511 4.919 3.365.923 6.373-2.272 9.388-.519 3.016 1.753 1.653 5.79 4.099 8.277 2.446 2.487 6.424 1.118 8.175 4.142 1.751 3.025-1.572 5.763-.702 9.137.87 3.374 5.195 4.191 5.191 7.675-.003 3.483-4.169 4.453-5.099 7.81-.93 3.356 2.281 5.949.498 8.947z"
     id="path2"
     style="fill:#fec6e1;fill-opacity:0.86274511"
     fill-opacity=".941"
     fill="#3e502e" />
  <path
     d="M24.819 276.842c-.153.172-.788.226-.986.342-.198.115-.558.642-.782.69-.225.05-.77-.28-.999-.303-.228-.023-.828.191-1.038.099-.21-.092-.458-.68-.63-.832-.171-.153-.783-.332-.898-.53-.116-.199.029-.82-.02-1.044-.05-.224-.438-.729-.415-.957.022-.229.504-.646.597-.856.092-.21.074-.847.226-1.019.153-.17.788-.225.986-.34.199-.117.558-.643.783-.692.224-.048.77.28.998.304.228.023.829-.192 1.039-.1.21.093.458.68.63.833.17.153.782.332.898.53.115.199-.03.82.02 1.044.048.224.438.729.415.957-.023.228-.505.646-.597.856-.093.21-.074.847-.227 1.018z"
     id="path4"
     style="fill:#ff6f8c;fill-opacity:1"
     transform="matrix(3.13564 0 0 3.18901 -36.205 -841.955)"
     stroke-width=".644"
     stroke="#1b1917"
     fill="#462d12" />
</svg>
