<svg xmlns="http://www.w3.org/2000/svg" width="200" height="200" viewBox="0 0 52.917 52.917"><defs><clipPath id="a"><path d="M-45.534 209.35l29.33 16.933v33.867l-29.33 16.933-29.33-16.933v-33.867z" fill-opacity=".506" stroke="#fff" stroke-width="2.117" stroke-opacity=".502"/></clipPath></defs><circle cx="26.458" cy="26.458" r="21.355" fill="#303030" fill-opacity=".565"/><path d="M26.845.003A26.458 26.458 45 0 0 9.954 5.796l-5.198-1.04 1.04 5.197A26.458 26.458 45 0 0 5.8 42.936L4.756 48.16l5.197-1.039a26.458 26.458 45 0 0 32.986-.005l5.221 1.044-1.039-5.197a26.458 26.458 45 0 0-.005-32.985l1.044-5.222-5.197 1.04A26.458 26.458 45 0 0 26.845.003zm-.055 3.72a22.739 22.739 45 0 1 15.747 6.657 22.739 22.739 45 0 1 0 32.157 22.739 22.739 45 0 1-32.157 0 22.739 22.739 45 0 1 0-32.157 22.739 22.739 45 0 1 16.41-6.658z" fill="#474747" fill-opacity=".565"/><path clip-path="url(#a)" d="M-45.534 209.35l29.33 16.933v33.867l-29.33 16.933-29.33-16.933v-33.867z" transform="scale(-.52625) rotate(30 499.762 87.618)" fill-opacity=".118" stroke="#fff" stroke-width="4.011" stroke-opacity=".157"/><g fill="#fff" fill-opacity=".157"><path d="M11.341 26.161l8.03.342a7.093 7.093 0 0 1-.005-.144 7.093 7.093 0 0 1 3.675-6.207l-4.313-6.785zM34.188 13.366l-4.31 6.783a7.093 7.093 0 0 1 .126.068 7.093 7.093 0 0 1 3.538 6.287l8.033-.343zm-.343 26.184l-3.718-7.125a7.093 7.093 0 0 1-.123.077 7.093 7.093 0 0 1-7.212-.08l-3.72 7.128z"/></g><path d="M26.458 20.295a6.163 6.164 0 0 0-6.163 6.164 6.163 6.164 0 0 0 3.256 5.433c1.443.721 2.36.092 2.264-.78-.047-.805-2.872-1.901-3.8-4.374-.238-1.068-.257-3.273 2.532-4.118.845-.286 2.298-.417 2.883-.264-.284-.276-.284-.846-.284-.846.38.666 1.355.85 1.355.85 1.577.25.744 1.091 2.375 1.781 0 0 .535.578-.119 1.188-1.99-1.165-3.087-.713-3.087-.713a1.11 1.11 0 0 1-.36-.75c-1.251-.294-2.993.31-3.396 1.922-.057.37-.016.72.102 1.062.106-.357.427-.742 1.095-1.133.704-.309 1.198-.26 1.643-.263-.369-.236-.368-.521-.368-.521.665.38 1.129.32 1.129.32 1.166-.122.735.633 2.023.812 0 0 .49.309.141.866-1.632-.449-2.325.08-2.325.08a.816.816 0 0 1-.398-.462c-.69-.15-2.846.013-1.627 2.127a19.447 19.45 0 0 0 .753.693c-.006-.455.147-1.035.706-1.432.696-.467 1.668-.315 2.019-.223-.167-.138-.262-.423-.262-.423.475.38.906.426.906.426.947.15.446.655 1.426 1.07 0 0 .322.347-.071.713-1.195-.7-1.854-.428-1.854-.428a.668.668 0 0 1-.217-.45c-1.503-.397-1.902.43-1.482 1.857.449.74.045 1.571-.74 2.143a6.163 6.164 0 0 0 6.109-6.163 6.163 6.164 0 0 0-6.164-6.164zm2.28 2.658c-.144 0-.288.29-.288.29s.49 0 .954.433c-.087-.433-.665-.722-.665-.722zm-.942 2.676c-.103.028-.15.26-.15.26s.348-.093.76.127c-.145-.292-.61-.387-.61-.387zm1.797 2.444c-.087 0-.174.173-.174.173s.295 0 .574.261c-.053-.26-.4-.434-.4-.434z" fill="#fff" fill-opacity=".157"/></svg>