<svg xmlns="http://www.w3.org/2000/svg" xmlns:xlink="http://www.w3.org/1999/xlink" width="180" height="536" viewBox="0 0 47.625 141.817"><defs><pattern xlink:href="#a" id="c" patternTransform="matrix(.29022 0 0 .31028 80.53 102.324)"/><pattern patternUnits="userSpaceOnUse" width="175.039" height="75.039" patternTransform="translate(108.576 213.448) scale(.26458)" id="a"><path d="M0 0h175.039v15.04H0z" fill="#fff"/><path d="M0 11.84h175.039v3.12H0z" fill="#191919"/><path d="M0 15.04h175.039V60H0z" fill="#b1b1b1"/><path d="M0 60h175.039v15.04H0z" fill="#fff"/><path d="M0 60h175.039v3.2H0z" fill="#191919"/></pattern><clipPath id="b"><path d="M80.53 109.732v100.541h8.504l4.196-4.233h22.225l4.233 4.233h8.467V109.732zm12.7 33.866l10.583 2.117 10.583-4.233-2.116 8.466 2.116 8.467-8.466-2.117-10.584 4.234 2.117-8.467z" fill="#48362f" fill-opacity=".071" stroke-width="1.323" stroke-miterlimit="10" stroke-opacity=".49"/></clipPath></defs><path d="M80.53 109.732v100.541h8.504l4.196-4.233h22.225l4.233 4.233h8.467V109.732zm12.7 33.866l10.583 2.117 10.583-4.233-2.116 8.466 2.116 8.467-8.466-2.117-10.584 4.234 2.117-8.467z" clip-path="url(#b)" transform="translate(-80.53 -109.732)" stroke-miterlimit="10" fill="url(#c)" stroke="#191919" stroke-width="3.175"/><path d="M23.283 35.983l10.584-4.233-2.117 8.467 2.117 8.466-8.467-2.116L14.817 50.8l2.116-8.467-4.233-8.466z" fill="#fff" fill-opacity=".419"/></svg>