<?xml version="1.0" encoding="UTF-8" standalone="no"?>
<svg
   xmlns:dc="http://purl.org/dc/elements/1.1/"
   xmlns:cc="http://creativecommons.org/ns#"
   xmlns:rdf="http://www.w3.org/1999/02/22-rdf-syntax-ns#"
   xmlns:svg="http://www.w3.org/2000/svg"
   xmlns="http://www.w3.org/2000/svg"
   xmlns:sodipodi="http://sodipodi.sourceforge.net/DTD/sodipodi-0.dtd"
   xmlns:inkscape="http://www.inkscape.org/namespaces/inkscape"
   width="144"
   height="144"
   viewBox="0 0 38.1 38.1"
   version="1.1"
   id="svg14"
   sodipodi:docname="map-crate-18.svg"
   inkscape:version="0.92.2 (5c3e80d, 2017-08-06)">
  <metadata
     id="metadata20">
    <rdf:RDF>
      <cc:Work
         rdf:about="">
        <dc:format>image/svg+xml</dc:format>
        <dc:type
           rdf:resource="http://purl.org/dc/dcmitype/StillImage" />
      </cc:Work>
    </rdf:RDF>
  </metadata>
  <defs
     id="defs18" />
  <sodipodi:namedview
     pagecolor="#ffffff"
     bordercolor="#666666"
     borderopacity="1"
     objecttolerance="10"
     gridtolerance="10"
     guidetolerance="10"
     inkscape:pageopacity="0"
     inkscape:pageshadow="2"
     inkscape:window-width="1920"
     inkscape:window-height="1017"
     id="namedview16"
     showgrid="false"
     inkscape:zoom="1.6388889"
     inkscape:cx="36.0231"
     inkscape:cy="137.39046"
     inkscape:window-x="1912"
     inkscape:window-y="-8"
     inkscape:window-maximized="1"
     inkscape:current-layer="svg14" />
  <rect
     style="fill:#462300;fill-opacity:0.99000001;stroke:#191919;stroke-width:1.95799994"
     id="rect2"
     rx="0"
     y="0.97899783"
     x="0.97899997"
     height="36.141998"
     width="36.141998" />
  <path
     style="fill:#c45900;stroke:#191919;stroke-width:2;fill-opacity:1"
     inkscape:connector-curvature="0"
     id="path4"
     d="M 6.96,6.96 H 31.14 V 31.14 H 6.96 Z" />
  <g
     transform="matrix(0.11228662,0,0,0.11228662,54.477324,-4.1257898)"
     id="g24" />
  <g
     transform="matrix(0.11228662,0,0,0.11228662,54.477324,-4.1257898)"
     id="g26" />
  <g
     transform="matrix(0.11228662,0,0,0.11228662,54.477324,-4.1257898)"
     id="g28" />
  <g
     transform="matrix(0.11228662,0,0,0.11228662,54.477324,-4.1257898)"
     id="g30" />
  <g
     transform="matrix(0.11228662,0,0,0.11228662,54.477324,-4.1257898)"
     id="g32" />
  <g
     transform="matrix(0.11228662,0,0,0.11228662,54.477324,-4.1257898)"
     id="g34" />
  <g
     transform="matrix(0.11228662,0,0,0.11228662,54.477324,-4.1257898)"
     id="g36" />
  <g
     transform="matrix(0.11228662,0,0,0.11228662,54.477324,-4.1257898)"
     id="g38" />
  <g
     transform="matrix(0.11228662,0,0,0.11228662,54.477324,-4.1257898)"
     id="g40" />
  <g
     transform="matrix(0.11228662,0,0,0.11228662,54.477324,-4.1257898)"
     id="g42" />
  <g
     transform="matrix(0.11228662,0,0,0.11228662,54.477324,-4.1257898)"
     id="g44" />
  <g
     transform="matrix(0.11228662,0,0,0.11228662,54.477324,-4.1257898)"
     id="g46" />
  <g
     transform="matrix(0.11228662,0,0,0.11228662,54.477324,-4.1257898)"
     id="g48" />
  <g
     transform="matrix(0.11228662,0,0,0.11228662,54.477324,-4.1257898)"
     id="g50" />
  <g
     transform="matrix(0.11228662,0,0,0.11228662,54.477324,-4.1257898)"
     id="g52" />
  <g
     id="g956"
     transform="translate(-0.01461483,0.11415591)"
     style="fill:#ffe8a2;fill-opacity:1">
    <path
       inkscape:connector-curvature="0"
       id="path8-6"
       d="M 27.865404,9.9565964 27.55431,11.746151 c -0.302395,1.738729 -1.655439,3.105677 -3.391007,3.42563 l -0.870231,0.160197 c 0.322136,0.377745 0.517307,0.867102 0.517281,1.402499 v 0.76016 l 1.262972,-0.310059 c 2.42842,-0.596595 3.895042,-3.06947 3.254065,-5.486486 z"
       style="fill:#ffe8a2;fill-opacity:1;stroke-width:0.05089953" />
    <path
       transform="scale(0.26458333)"
       id="path10-5"
       d="m 64.017578,55.935547 c -4.515262,0 -8.175781,3.660327 -8.175781,8.175781 V 75.71875 c 0,3.783273 2.569466,6.963841 6.058594,7.896484 v 7.1875 c 0,2.219445 1.380133,4.116159 3.328125,4.88086 v 6.291016 c 0,1.95011 1.58132,3.53125 3.53125,3.53125 h 6.673828 c 1.950119,0 3.529297,-1.58133 3.529297,-3.53125 v -6.291016 c 1.947998,-0.764886 3.328125,-2.661612 3.328125,-4.88086 v -7.242187 c 3.390648,-0.996507 5.867187,-4.130119 5.867187,-7.84375 V 64.111328 c 2.16e-4,-4.515069 -3.658559,-8.175781 -8.173828,-8.175781 z m -2.583984,15.871094 7.138672,6.689453 c 0,1.354904 -1.100166,2.455078 -2.455078,2.455078 h -1.169922 c -3.294822,0 -5.966797,-2.671967 -5.966797,-5.966797 v -0.724609 c 0,-1.354901 1.098228,-2.453125 2.453125,-2.453125 z m 21.132812,0 c 1.354934,0 2.453125,1.098224 2.453125,2.453125 v 0.724609 c 0,3.29483 -2.671967,5.966797 -5.966797,5.966797 h -1.169922 c -1.354894,0 -2.453124,-1.100174 -2.453124,-2.455078 z M 69.373047,93.640625 c 0.664078,0 1.201172,0.537094 1.201172,1.201172 v 7.021483 c -1.89e-4,0.66409 -0.537283,1.20313 -1.201172,1.20313 -0.664093,0 -1.203125,-0.53904 -1.203125,-1.20313 v -7.021483 c 0,-0.664078 0.539032,-1.201172 1.203125,-1.201172 z m 5.224609,0 c 0.664078,0 1.201172,0.537094 1.201172,1.201172 v 7.021483 c -1.89e-4,0.66409 -0.537283,1.20313 -1.201172,1.20313 -0.664093,0 -1.203125,-0.53904 -1.203125,-1.20313 v -7.021483 c 0,-0.664078 0.539032,-1.201172 1.203125,-1.201172 z"
       style="fill:#ffe8a2;fill-opacity:1;stroke-width:0.19237618"
       inkscape:connector-curvature="0" />
    <path
       style="fill:#ffe8a2;fill-opacity:1;stroke-width:0.05089953"
       d="m 10.263825,9.9565964 0.311094,1.7895546 c 0.302395,1.738729 1.655439,3.105677 3.391007,3.42563 l 0.870231,0.160197 c -0.322136,0.377745 -0.517307,0.867102 -0.517281,1.402499 v 0.76016 l -1.262972,-0.310059 c -2.42842,-0.596595 -3.8950413,-3.06947 -3.2540643,-5.486486 z"
       id="path951"
       inkscape:connector-curvature="0" />
  </g>
  <path
     style="fill-opacity:0.23600003;stroke:#191919;stroke-width:2"
     inkscape:connector-curvature="0"
     id="path8"
     d="M 6.9600001,6.96 H 31.14 V 31.14 H 6.9600001 Z" />
  <path
     style="fill:#6a3400;fill-opacity:1;stroke:#191919;stroke-width:1.95799994"
     inkscape:connector-curvature="0"
     id="path10"
     d="M 15.913,0.97899997 H 10.791 L 0.97899997,10.789 v 5.123 z" />
</svg>
