<svg xmlns="http://www.w3.org/2000/svg" width="140" height="102" viewBox="0 0 37.042 26.988"><defs><clipPath id="a"><rect ry="2.117" height="26.988" width="37.042" rx="2.117" fill="#282828" stroke-width="5.608"/></clipPath><clipPath id="b"><path d="M-45.534 209.35l29.33 16.933v33.867l-29.33 16.933-29.33-16.933v-33.867z" fill-opacity=".506" stroke="#fff" stroke-width="2.117" stroke-opacity=".502"/></clipPath></defs><rect rx="2.117" width="37.042" height="26.988" ry="2.117" clip-path="url(#a)" fill="#282828" stroke-width="3.175" stroke="#191919"/><rect width="2.117" height="30.692" x="2.646" y="-33.867" ry="1.058" transform="rotate(90)" rx="1.058" fill="#5b5b5b" stroke="#191919" stroke-width="1.058"/><rect rx="1.058" transform="rotate(90)" ry="1.058" y="-33.867" x="22.225" height="30.692" width="2.117" fill="#5b5b5b" stroke="#191919" stroke-width="1.058"/><rect width="2.117" height="4.763" x="17.463" y="-7.937" ry="1.058" transform="rotate(90)" rx="1.058" fill="#5b5b5b" stroke="#191919" stroke-width="1.058"/><rect rx="1.058" transform="rotate(90)" ry="1.058" y="-7.937" x="12.435" height="4.763" width="2.117" fill="#5b5b5b" stroke="#191919" stroke-width="1.058"/><rect width="2.117" height="4.763" x="7.408" y="-7.937" ry="1.058" transform="rotate(90)" rx="1.058" fill="#5b5b5b" stroke="#191919" stroke-width="1.058"/><rect rx="1.058" transform="rotate(90)" ry="1.058" y="-33.867" x="17.463" height="4.763" width="2.117" fill="#5b5b5b" stroke="#191919" stroke-width="1.058"/><rect width="2.117" height="4.763" x="12.435" y="-33.867" ry="1.058" transform="rotate(90)" rx="1.058" fill="#5b5b5b" stroke="#191919" stroke-width="1.058"/><rect rx="1.058" transform="rotate(90)" ry="1.058" y="-33.867" x="7.408" height="4.763" width="2.117" fill="#5b5b5b" stroke="#191919" stroke-width="1.058"/><path transform="scale(-.24356) rotate(30 496.442 36.98)" d="M-45.534 209.35l29.33 16.933v33.867l-29.33 16.933-29.33-16.933v-33.867z" clip-path="url(#b)" fill-opacity=".283" stroke="#fff" stroke-width="4.011"/><path d="M18.521 8.62a4.875 4.875 0 0 0-4.875 4.874 4.875 4.875 0 0 0 4.875 4.875 4.875 4.875 0 0 0 4.875-4.875 4.875 4.875 0 0 0-4.875-4.875zm1.846 1.92c.032 0 .064.013.088.037l.539.544a.124.124 0 0 1 0 .176l-.448.447a.124.124 0 0 1-.164.01l-.608-.473a.124.124 0 0 1-.048-.091v-.008c0-.033.013-.065.037-.088l.517-.517a.123.123 0 0 1 .087-.036zm-1.177.484a.124.124 0 0 1 .084.027l1.799 1.386a1.787 1.787 0 0 1-.067.262c-.176.56-.615 1-1.176 1.175-.086.028-.174.05-.264.067l-1.389-1.794a.125.125 0 0 1 .01-.164l.923-.922a.124.124 0 0 1 .08-.037zm2.11 1.542c.194.048.595.003.595.003.078.422-.014 1.066-.578 1.63-.539.539-1.366.63-1.66.546 0 0 .064-.299.054-.445a.606.606 0 0 0-.015-.132c.08-.018.16-.04.24-.067a2.037 2.037 0 0 0 1.294-1.296c.028-.079.05-.158.07-.24zm-3.018.089c.029 0 .058.01.074.031l.463.617c.035.057.03.125-.027.182l-2.92 2.928v-.002a.124.124 0 0 1-.175 0l-.538-.538a.125.125 0 0 1 0-.175l3.054-3.023c.014-.013.04-.02.07-.02z" fill="#fff"/></svg>