<svg xmlns="http://www.w3.org/2000/svg" xmlns:xlink="http://www.w3.org/1999/xlink" width="865" height="674" viewBox="0 0 228.865 178.329"><defs><pattern xlink:href="#a" id="b" patternTransform="translate(-72.944 307.1) scale(.06615)"/><clipPath id="i"><path d="M-30.611 95.169v17.198h8.467V154.7h16.933V95.17z" fill="#3b3b3b" stroke-width="2.215"/></clipPath><clipPath id="h"><path d="M-106.811 95.169v17.198h33.867V95.169z" fill="#3b3b3b" stroke-width="2.215"/></clipPath><clipPath id="g"><path d="M-174.809 95.169v25.665h17.198v-8.467h8.467V95.169z" fill="#3b3b3b" stroke-width="2.215"/></clipPath><clipPath id="f"><path d="M-174.81 205.5h17.199v-42.333h-17.198z" fill="#3b3b3b" stroke-width="2.477"/></clipPath><clipPath id="e"><path d="M-174.809 273.498h25.665V256.3h-8.467v-8.466h-17.198z" fill="#3b3b3b" stroke-width="2.215"/></clipPath><clipPath id="d"><path d="M-106.811 256.3v17.198h33.867V256.3z" fill="#3b3b3b" stroke-width="2.215"/></clipPath><clipPath id="c"><path d="M-30.611 273.498V256.3h8.467v-42.333h16.933v59.531z" fill="#3b3b3b" stroke-width="2.215"/></clipPath><clipPath id="j"><path d="M-150.732 93.317v17.198h45.508V93.317z" fill="#252525" stroke-width="2.568"/></clipPath><clipPath id="k"><path d="M-150.732 93.317v17.198h45.508V93.317z" fill="#252525" stroke-width="2.568"/></clipPath><clipPath id="l"><path d="M-150.732 93.317v17.198h45.508V93.317z" fill="#252525" stroke-width="2.568"/></clipPath><clipPath id="m"><path d="M-150.732 93.317v17.198h45.508V93.317z" fill="#252525" stroke-width="2.568"/></clipPath><clipPath id="n"><path d="M-150.732 93.317v17.198h45.508V93.317z" fill="#252525" stroke-width="2.568"/></clipPath><clipPath id="o"><path d="M-150.732 93.317v17.198h45.508V93.317z" fill="#252525" stroke-width="2.568"/></clipPath><pattern patternUnits="userSpaceOnUse" width="128" height="128" patternTransform="translate(-72.944 307.1) scale(.26458)" id="a"><path fill="none" stroke-width="3.78" d="M0 0h128v128H0z"/><path fill="none" stroke-width="3.78" d="M0 0h128v128H0z"/><path d="M0 0h128v128H0z" fill="#8c8c8c" stroke-width="15.118" stroke-miterlimit="10"/><path d="M60 128V68H0v-8h60V0h8v60h60v8H68v60z" fill="#323232" fill-opacity=".51" stroke-width="1.414"/></pattern></defs><path fill="url(#b)" d="M-174.809 95.169H-5.211v178.329h-169.598z" transform="translate(174.809 -95.169)"/><path d="M-30.611 273.498V256.3h8.467v-42.333h16.933v59.531z" clip-path="url(#c)" fill="#434343" stroke="#191919" stroke-width="3.175" transform="translate(174.809 -95.169)"/><path d="M-106.811 256.3v17.198h33.867V256.3z" clip-path="url(#d)" fill="#434343" stroke="#191919" stroke-width="3.175" transform="translate(174.809 -95.169)"/><path d="M-174.809 273.498h25.665V256.3h-8.467v-8.466h-17.198z" clip-path="url(#e)" fill="#434343" stroke="#191919" stroke-width="3.175" transform="translate(174.809 -95.169)"/><path d="M-174.81 205.5h17.199v-42.333h-17.198z" clip-path="url(#f)" fill="#434343" stroke="#191919" stroke-width="3.175" transform="translate(174.809 -95.169)"/><path d="M-174.809 95.169v25.665h17.198v-8.467h8.467V95.169z" clip-path="url(#g)" fill="#434343" stroke="#191919" stroke-width="3.175" transform="translate(174.809 -95.169)"/><path d="M-106.811 95.169v17.198h33.867V95.169z" clip-path="url(#h)" fill="#434343" stroke="#191919" stroke-width="3.175" transform="translate(174.809 -95.169)"/><path d="M-30.611 95.169v17.198h8.467V154.7h16.933V95.17z" clip-path="url(#i)" fill="#434343" stroke="#191919" stroke-width="3.175" transform="translate(174.809 -95.169)"/><path clip-path="url(#j)" d="M-150.732 93.317v17.198h45.508V93.317z" transform="translate(174.809 -93.317)" fill="#252525" stroke="#191919" stroke-width="3.175"/><path clip-path="url(#k)" d="M-150.732 93.317v17.198h45.508V93.317z" transform="translate(251.009 -93.317)" fill="#252525" stroke="#191919" stroke-width="3.175"/><path clip-path="url(#l)" d="M-150.732 93.317v17.198h45.508V93.317z" transform="translate(174.809 67.814)" fill="#252525" stroke="#191919" stroke-width="3.175"/><path clip-path="url(#m)" d="M-150.732 93.317v17.198h45.508V93.317z" transform="translate(251.009 67.814)" fill="#252525" stroke="#191919" stroke-width="3.175"/><path clip-path="url(#n)" d="M-150.732 93.317v17.198h45.508V93.317z" transform="rotate(-90 -87.298 6.02)" fill="#252525" stroke="#191919" stroke-width="3.175"/><path clip-path="url(#o)" d="M-150.732 93.317v17.198h45.508V93.317z" transform="rotate(-90 -44.898 48.419)" fill="#252525" stroke="#191919" stroke-width="3.175"/></svg>