<?xml version="1.0" encoding="UTF-8" standalone="no"?>
<svg
   xmlns:dc="http://purl.org/dc/elements/1.1/"
   xmlns:cc="http://creativecommons.org/ns#"
   xmlns:rdf="http://www.w3.org/1999/02/22-rdf-syntax-ns#"
   xmlns:svg="http://www.w3.org/2000/svg"
   xmlns="http://www.w3.org/2000/svg"
   xmlns:sodipodi="http://sodipodi.sourceforge.net/DTD/sodipodi-0.dtd"
   xmlns:inkscape="http://www.inkscape.org/namespaces/inkscape"
   width="216"
   height="156"
   viewBox="0 0 57.15 41.275"
   version="1.1"
   id="svg8"
   sodipodi:docname="map-crate-res-03.svg"
   inkscape:version="0.92.2 (5c3e80d, 2017-08-06)">
  <metadata
     id="metadata14">
    <rdf:RDF>
      <cc:Work
         rdf:about="">
        <dc:format>image/svg+xml</dc:format>
        <dc:type
           rdf:resource="http://purl.org/dc/dcmitype/StillImage" />
        <dc:title />
      </cc:Work>
    </rdf:RDF>
  </metadata>
  <defs
     id="defs12">
    <clipPath
       id="e-7">
      <path
         d="m -45.534,209.35 29.33,16.933 v 33.867 l -29.33,16.933 -29.33,-16.933 v -33.867 z"
         id="path14-0"
         inkscape:connector-curvature="0"
         style="fill-opacity:0.506;stroke:#ffffff;stroke-width:2.1170001;stroke-opacity:0.50199998" />
    </clipPath>
    <clipPath
       clipPathUnits="userSpaceOnUse"
       id="clipPath1034">
      <path
         style="fill:#4d2600;stroke-width:4.07800007"
         inkscape:connector-curvature="0"
         id="path1036"
         d="M 11.1125,35.454167 9.525,36.247917 7.9375,35.189583 5.2916667,35.983333 V 8.4666667 L 6.6145833,9.2604167 7.9375,8.73125 9.525,10.054167 11.1125,8.9958333 Z"
         sodipodi:nodetypes="cccccccccc" />
    </clipPath>
    <clipPath
       clipPathUnits="userSpaceOnUse"
       id="clipPath1082">
      <path
         sodipodi:nodetypes="ccccccccccccccc"
         d="M -14.816667,30.691664 -21.166667,28.575 -25.4,31.75 -33.866667,29.633333 -38.1,30.691667 V 9.4439994 6.3499992 l 6.35,1.0583341 4.233333,-2.1166669 7.408334,3.175 5.291666,-2.1166672 2.116667,6.3499998 -1.058333,6.35 1.058333,7.408334 z"
         id="path1084"
         inkscape:connector-curvature="0"
         style="fill:#4d2600;stroke-width:0.52899998" />
    </clipPath>
    <clipPath
       clipPathUnits="userSpaceOnUse"
       id="clipPath1158">
      <path
         transform="translate(32.218686,4.9826501)"
         clip-path="url(#clipPath1082)"
         sodipodi:nodetypes="ccccccccccccccc"
         d="M -14.816667,30.691665 -21.166667,28.575 -25.4,31.75 -33.866667,29.633333 -38.1,30.691666 v -21.2476667 -3.094 l 6.35,1.058334 4.233333,-2.116667 7.408334,3.175 5.291666,-2.116667 2.116667,6.3499997 -1.058333,6.35 1.058333,7.408334 z"
         id="path1160"
         inkscape:connector-curvature="0"
         style="fill:#4d2600;stroke:#191919;stroke-width:3.96875;stroke-miterlimit:4;stroke-dasharray:none;stroke-opacity:1" />
    </clipPath>
    <clipPath
       clipPathUnits="userSpaceOnUse"
       id="clipPath1233">
      <path
         style="fill:#4d2600;stroke-width:8.03200912"
         inkscape:connector-curvature="0"
         id="path1235"
         d="M 55.033333,0 53.975,4.2333333 l 2.116667,4.2333334 -3.175,3.1750003 2.116666,4.233333 H 37.041667 l 2.116666,-4.233333 -3.175,-7.4083337 L 40.216667,-3.3333335e-7 Z"
         sodipodi:nodetypes="cccccccccc"
         clip-path="none" />
    </clipPath>
  </defs>
  <sodipodi:namedview
     pagecolor="#ffffff"
     bordercolor="#666666"
     borderopacity="1"
     objecttolerance="10"
     gridtolerance="10"
     guidetolerance="10"
     inkscape:pageopacity="0"
     inkscape:pageshadow="2"
     inkscape:window-width="1920"
     inkscape:window-height="1017"
     id="namedview10"
     showgrid="true"
     inkscape:zoom="2.3177389"
     inkscape:cx="-13.115929"
     inkscape:cy="100.50235"
     inkscape:window-x="1912"
     inkscape:window-y="-8"
     inkscape:window-maximized="1"
     inkscape:current-layer="svg8"
     fit-margin-top="0"
     fit-margin-left="0"
     fit-margin-right="0"
     fit-margin-bottom="0">
    <inkscape:grid
       type="xygrid"
       id="grid895"
       empspacing="4"
       originx="-2.1958915"
       originy="-5.1280335" />
  </sodipodi:namedview>
  <g
     id="g1246"
     transform="translate(-1.5059082,-4.2294393)">
    <path
       transform="rotate(96.0508,39.640696,19.103127)"
       clip-path="url(#clipPath1233)"
       style="fill:#c91400;fill-opacity:1;stroke:#191919;stroke-width:3.96875;stroke-miterlimit:4;stroke-dasharray:none;stroke-opacity:1"
       inkscape:connector-curvature="0"
       id="path1231"
       d="M 55.033333,0 53.975,4.2333333 l 2.116667,4.2333334 -3.175,3.1750003 2.116666,4.233333 H 37.041666 l 2.116667,-4.233333 -3.175,-7.4083337 L 40.216666,-3.3333335e-7 Z"
       sodipodi:nodetypes="cccccccccc" />
    <g
       transform="matrix(1.3131925,0.2307542,-0.2308491,1.3114229,-2.6776047,0.11131209)"
       id="g1184">
      <path
         clip-path="none"
         style="fill:#4d2600;stroke:#191919;stroke-width:3.96875;stroke-miterlimit:4;stroke-dasharray:none;stroke-opacity:1"
         inkscape:connector-curvature="0"
         id="path1172"
         d="m 24.867347,27.128316 -7.703733,-0.127123 -2.792898,1.844022 -4.9305029,-18.400887 5.3852749,-0.347313 4.563523,-3.414127 3.414127,4.563524 0.62123,6.407546 2.939689,6.881984 z"
         sodipodi:nodetypes="cccccccccc" />
      <path
         clip-path="none"
         style="fill:#4d2600;stroke-width:0.52899998"
         inkscape:connector-curvature="0"
         id="path1176"
         d="m 24.867347,27.128316 -7.703733,-0.127123 -2.792898,1.844022 -4.9305029,-18.400887 5.3852749,-0.347313 4.563523,-3.414126 3.414127,4.563523 0.62123,6.407546 2.939689,6.881984 z"
         sodipodi:nodetypes="cccccccccc" />
      <g
         transform="rotate(-15,-3.2831244,1.9905846)"
         id="g851"
         clip-path="url(#clipPath1158)">
        <path
           style="fill-opacity:0.50199998;stroke:#ffffff;stroke-width:4.01100016"
           inkscape:connector-curvature="0"
           id="path33"
           transform="matrix(-0.22167,-0.12798,0.12798,-0.22167,-25.078747,71.060672)"
           d="m -45.534,209.35 29.33,16.933 v 33.867 l -29.33,16.933 -29.33,-16.933 v -33.867 z"
           clip-path="url(#e-7)" />
        <path
           id="path915"
           d="M 16.1417,18.642276 A 4.3320229,4.3320229 0 0 0 11.809677,22.9743 4.3320229,4.3320229 0 0 0 16.1417,27.306323 4.3320229,4.3320229 0 0 0 20.473723,22.9743 4.3320229,4.3320229 0 0 0 16.1417,18.642276 Z m -1.953697,1.454839 4.36203,2.501292 c 0,0 0.183818,0.139969 0.267593,0.224047 0.38593,0.385931 0.578957,0.89186 0.578957,1.397754 0,0.505789 -0.193027,1.011345 -0.578957,1.397077 -0.771675,0.771861 -2.023184,0.771861 -2.795057,0 -0.03475,-0.03475 -0.09928,-0.106947 -0.09928,-0.106947 l -2.250396,-3.052947 1.033142,0.493444 -1.512824,-1.822157 1.570133,0.791948 -1.578932,-1.793954 1.777935,1.019379 z m 2.02522,1.582316 c -0.229829,4.9e-5 -0.416232,0.18645 -0.41628,0.416281 -9e-5,0.229927 0.186353,0.416458 0.41628,0.416506 0.229928,-4.8e-5 0.416145,-0.186579 0.416055,-0.416506 -4.9e-5,-0.229831 -0.186225,-0.416232 -0.416055,-0.416281 z m -1.199429,0.521423 c -0.09722,-2.6e-5 -0.176013,0.07877 -0.175988,0.175988 -2.5e-5,0.09722 0.07878,0.17624 0.175988,0.176214 0.09712,-1.11e-4 0.175789,-0.0791 0.175763,-0.176214 2.5e-5,-0.09712 -0.07864,-0.175876 -0.175763,-0.175988 z m 2.233022,0.568352 -0.09995,0.664018 -0.507207,-0.440197 0.178696,0.647322 -0.642358,-0.195844 0.426659,0.518715 -0.666725,0.08235 0.600842,0.300309 -0.575572,0.346336 0.671012,0.03001 -0.384918,0.550527 0.62521,-0.245481 -0.127704,0.65928 0.471333,-0.478327 0.15162,0.654315 0.236006,-0.62882 0.404547,0.536088 -0.04039,-0.670561 0.587756,0.325353 -0.309559,-0.596105 0.669208,0.05799 -0.525258,-0.418762 0.634912,-0.219083 -0.650029,-0.168994 0.490962,-0.458246 -0.662664,0.110105 0.262178,-0.618441 -0.560681,0.370027 -0.01219,-0.671464 -0.361453,0.566096 z m -1.853067,0.406579 c -0.138926,4.5e-5 -0.251441,0.112645 -0.251348,0.251573 4.5e-5,0.138828 0.112519,0.251303 0.251348,0.251347 0.138828,-4.4e-5 0.251302,-0.112519 0.251347,-0.251347 9.4e-5,-0.138928 -0.112421,-0.251528 -0.251347,-0.251573 z"
           style="fill:#fefefe;fill-opacity:1;stroke:none;stroke-width:0.70997036;stroke-linecap:round;stroke-linejoin:miter;stroke-miterlimit:4;stroke-dasharray:none;stroke-opacity:0.98823529"
           inkscape:connector-curvature="0" />
      </g>
    </g>
    <path
       transform="matrix(-0.76848723,-1.0885804,1.0895022,-0.76697361,0.32396721,43.884233)"
       clip-path="url(#clipPath1034)"
       style="fill:#763800;fill-opacity:1;stroke:#191919;stroke-width:3.96875;stroke-miterlimit:4;stroke-dasharray:none;stroke-opacity:1"
       inkscape:connector-curvature="0"
       id="path1032"
       d="M 11.1125,35.454167 9.525,36.247917 7.9375,35.189583 5.2916667,35.983333 V 8.4666667 L 6.6145833,9.2604167 7.9375,8.73125 9.525,10.054167 11.1125,8.9958333 Z"
       sodipodi:nodetypes="cccccccccc" />
    <path
       transform="matrix(0.14230029,1.323987,-1.3257136,0.14190081,48.581831,21.234109)"
       sodipodi:nodetypes="cccccccccc"
       d="M 11.1125,35.454167 9.525,36.247917 7.9375,35.189583 5.2916667,35.983333 V 8.4666667 L 6.6145833,9.2604167 7.9375,8.73125 9.525,10.054167 11.1125,8.9958333 Z"
       id="path1069"
       inkscape:connector-curvature="0"
       style="fill:#763800;fill-opacity:1;stroke:#191919;stroke-width:3.96875;stroke-miterlimit:4;stroke-dasharray:none;stroke-opacity:1"
       clip-path="url(#clipPath1034)" />
  </g>
</svg>
