<?xml version="1.0" encoding="UTF-8"?>
<!-- Created with Inkscape (http://www.inkscape.org/) -->
<svg width="256" height="256" version="1.1" viewBox="0 0 67.733 67.733" xml:space="preserve" xmlns="http://www.w3.org/2000/svg"><defs><filter id="filter28" x="-.10703" y="-.039853" width="1.2141" height="1.0797" color-interpolation-filters="sRGB"><feGaussianBlur stdDeviation="0.30666079"/></filter></defs><g transform="translate(171.02 -115.8)"><g transform="matrix(.97142 0 0 .97142 60.184 11.624)" stroke-width=".27929"><path d="m-203.38 128.77v1.7846l-6.1574-2e-3v0.38346l6.1574 2e-3v19.873l-6.1576 1e-3v0.38347l6.1576-1e-3 -0.0301 1.1711-3.2609 2e-3 -0.51263 0.52231 5e-3 3.0012v1.773h-8e-3c-0.25969 0-0.47325 0.19912-0.47325 0.44597v0.0563c0 0.24685 0.21356 0.44545 0.47325 0.44545h8e-3v5.0731s-0.85 1.7468-0.85256 6.2864h-0.0171c-0.27264 0-0.49214 0.21134-0.49214 0.47387 0 0.24271 0.1904 0.43386 0.43418 0.46251-3e-5 4e-3 -5.4e-4 7e-3 -5.4e-4 0.0108v4e-3c0 0.7027 0.59691 1.279 1.3267 1.279h7.3022c0.72979 0 1.3283-0.57629 1.3283-1.279v-4e-3c0-0.0124-1e-3 -0.0244-2e-3 -0.0367 0.17727-0.0715 0.30109-0.23942 0.30109-0.43667 0-0.26253-0.2195-0.47387-0.49215-0.47387h-0.0171c-3e-3 -4.3157-0.85308-6.2864-0.85308-6.2864v-5.0731h8e-3c0.25969 0 0.47325-0.1986 0.47325-0.44545v-0.0563c0-0.24685-0.21356-0.44597-0.47325-0.44597h-8e-3v-1.773l5e-3 -2.9896-0.54714-0.53404-3.2252-2e-3 -0.0301-1.171 5.9666 1e-3v-0.38347l-5.9666-1e-3v-19.873l5.9666-2e-3v-0.38346l-5.9666 2e-3v-1.7846zm-2.9286 24.527 2.8985-2e-3 0.0231 1.537h0.38379l0.0231-1.5371 2.8979 2e-3 -0.0261 0.47557-0.73426 2.2353h-4.7062l-0.73521-2.2353zm-0.28699 0.95853 0.30494 1.6804-0.40686-0.0427zm6.8004 0 0.10028 1.6381-0.4069 0.0427zm-7.6242 16.664h8.5822v3e-3c0 0.3474-0.28002 0.61702-0.64081 0.61702h-7.3022c-0.36081 0-0.63921-0.26962-0.63921-0.61702z" filter="url(#filter28)" style="mix-blend-mode:normal"/><path d="m-210.34 111.99c-0.0966 8e-3 -0.25082 0.0975-0.24299 0.19947l0.0759 2.5056 1.2894-0.0957-0.97683 1.1199c-0.0701 0.14894-0.0629 0.37654 0.0161 0.50886 0.0793 0.13243 0.20067 0.11904 0.27107-0.0303l1.3757-1.2771 0.19599-0.11707c0 0.44679-0.32205 1.6465-0.5735 2.5704-0.56651 0.86532-0.80059-0.84101-1.127-0.87634-0.0276-2e-3 -0.054 0.0171-0.0799 0.0619-0.33398 0.58908 0.61928 2.2477 0.33347 3.3257l-0.0189 0.94055c0 1.5822 0.91349 2.9028 0.91349 3.9279s-0.51826 2.112-0.50535 2.6365c0.0116 0.46963 0.18051 1.0528 0.33233 1.2267-0.0537 0.0824-0.0865 0.20816-0.0909 0.45786-3e-3 0.19153 0.0124 0.41278 0.0342 0.62477 0.0436 0.42396 0.11327 0.60395 0.11327 0.60395 0.0185 0.1 0.11659 0.16696 0.22009 0.15037 0.10468-0.0171 0.33582-0.0926 0.32008-0.19691 0 0-0.0584-0.17461-0.0949-0.59458-0.0183-0.20999-0.0305-0.42599-0.028-0.59739-0.0233-0.13834-0.14724-0.21578-0.11324-0.31998l0.4109 0.15477c-9e-5 0.46231 0.5047 0.83712 0.97597 0.83716 0.47126-4e-5 0.97603-0.37487 0.97594-0.83716l0.30621-0.14702c0.0595 0.0916-0.12215 0.18866-0.11344 0.31218 3e-3 0.17139-0.0101 0.3874-0.0283 0.59739-0.0366 0.41997-0.0968 0.59458-0.0968 0.59458-0.0158 0.10446 0.21538 0.18008 0.32028 0.19691 0.10434 0.0179 0.20381-0.0495 0.22224-0.15037 0 0 0.0691-0.17999 0.1127-0.60395 0.0218-0.21199 0.0382-0.43324 0.0348-0.62477-3e-3 -0.15978-0.023-0.34967-0.0899-0.45527 0.16394-0.17851 0.3115-0.75535 0.32318-1.2293 0.0129-0.52449-0.50592-1.9133-0.50592-2.6365s1.0212-2.2859 1.0212-3.9279c0-0.28856 0.0764-0.58162-9e-3 -0.92039 7e-3 0.01-5e-3 -0.0269 2e-3 -0.0177-0.35285-1.0719 0.67035-2.7436 0.33888-3.3282-0.0259-0.0456-0.0528-0.0649-0.0804-0.0619-0.32668 0.0354-0.56119 1.7438-1.1282 0.87485-2.2e-4 2e-3 -3.8e-4 5e-3 -5.9e-4 7e-3 -0.26445-0.93626-0.58673-2.1236-0.58673-2.5761l0.22527 0.11762 1.3728 1.2772c0.0703 0.1493 0.19182 0.16269 0.27107 0.0301 0.079-0.13225 0.0862-0.35998 0.0161-0.50887l-0.95345-1.1415 1.5802 0.0939 0.0759-2.4823c8e-3 -0.10197-0.066-0.19147-0.16507-0.19947-0.0996-8e-3 -0.37475 0.0695-0.38112 0.17209l-0.10992 1.7508-1.8477 0.0882c-0.5577-0.54186-0.35758-1.6607-1.1045-1.6607s-0.59598 1.1197-1.105 1.6576l-1.5227-0.0851-0.0934-1.7508c-7e-3 -0.1026-0.206-0.17981-0.3032-0.17209z" filter="url(#filter28)" style="mix-blend-mode:normal"/><path d="m-202.34 111.99c-0.0966 8e-3 -0.25082 0.0975-0.24299 0.19947l0.0759 2.5056 1.2894-0.0957-0.97683 1.1199c-0.0701 0.14894-0.0629 0.37654 0.0161 0.50886 0.0793 0.13243 0.20067 0.11904 0.27107-0.0303l1.3757-1.2771 0.19599-0.11707c0 0.44679-0.32205 1.6465-0.5735 2.5704-0.56651 0.86532-0.80059-0.84101-1.127-0.87634-0.0276-2e-3 -0.054 0.0171-0.0799 0.0619-0.33398 0.58908 0.61928 2.2477 0.33347 3.3257l-0.0189 0.94055c0 1.5822 0.91349 2.9028 0.91349 3.9279s-0.51826 2.112-0.50535 2.6365c0.0116 0.46963 0.18051 1.0528 0.33233 1.2267-0.0537 0.0824-0.0865 0.20816-0.0909 0.45786-3e-3 0.19153 0.0124 0.41278 0.0342 0.62477 0.0436 0.42396 0.11327 0.60395 0.11327 0.60395 0.0185 0.1 0.11659 0.16696 0.22009 0.15037 0.10468-0.0171 0.33582-0.0926 0.32008-0.19691 0 0-0.0584-0.17461-0.0949-0.59458-0.0183-0.20999-0.0305-0.42599-0.028-0.59739-0.0233-0.13834-0.14724-0.21578-0.11324-0.31998l0.4109 0.15477c-9e-5 0.46231 0.5047 0.83712 0.97597 0.83716 0.47126-4e-5 0.97603-0.37487 0.97594-0.83716l0.30621-0.14702c0.0595 0.0916-0.12215 0.18866-0.11344 0.31218 3e-3 0.17139-0.0101 0.3874-0.0283 0.59739-0.0366 0.41997-0.0968 0.59458-0.0968 0.59458-0.0158 0.10446 0.21538 0.18008 0.32028 0.19691 0.10434 0.0179 0.20381-0.0495 0.22224-0.15037 0 0 0.0691-0.17999 0.1127-0.60395 0.0218-0.21199 0.0382-0.43324 0.0348-0.62477-3e-3 -0.15978-0.023-0.34967-0.0899-0.45527 0.16394-0.17851 0.3115-0.75535 0.32318-1.2293 0.0129-0.52449-0.50592-1.9133-0.50592-2.6365s1.0212-2.2859 1.0212-3.9279c0-0.28856 0.0764-0.58162-9e-3 -0.92039 7e-3 0.01-5e-3 -0.0269 2e-3 -0.0177-0.35285-1.0719 0.67035-2.7436 0.33888-3.3282-0.0259-0.0456-0.0528-0.0649-0.0804-0.0619-0.32668 0.0354-0.56119 1.7438-1.1282 0.87485-2.2e-4 2e-3 -3.8e-4 5e-3 -5.9e-4 7e-3 -0.26445-0.93626-0.58673-2.1236-0.58673-2.5761l0.22527 0.11762 1.3728 1.2772c0.0703 0.1493 0.19182 0.16269 0.27107 0.0301 0.079-0.13225 0.0862-0.35998 0.0161-0.50887l-0.95345-1.1415 1.5802 0.0939 0.0759-2.4823c8e-3 -0.10197-0.066-0.19147-0.16507-0.19947-0.0996-8e-3 -0.37475 0.0695-0.38112 0.17209l-0.10992 1.7508-1.8477 0.0882c-0.5577-0.54186-0.35758-1.6607-1.1045-1.6607s-0.59598 1.1197-1.105 1.6576l-1.5227-0.0851-0.0934-1.7508c-7e-3 -0.1026-0.206-0.17981-0.3032-0.17209z" filter="url(#filter28)" style="mix-blend-mode:normal"/><g transform="translate(0 19.691)"><path d="m-210.34 111.99c-0.0966 8e-3 -0.25082 0.0975-0.24299 0.19947l0.0759 2.5056 1.2894-0.0957-0.97683 1.1199c-0.0701 0.14894-0.0629 0.37654 0.0161 0.50886 0.0793 0.13243 0.20067 0.11904 0.27107-0.0303l1.3757-1.2771 0.19599-0.11707c0 0.44679-0.32205 1.6465-0.5735 2.5704-0.56651 0.86532-0.80059-0.84101-1.127-0.87634-0.0276-2e-3 -0.054 0.0171-0.0799 0.0619-0.33398 0.58908 0.61928 2.2477 0.33347 3.3257l-0.0189 0.94055c0 1.5822 0.91349 2.9028 0.91349 3.9279s-0.51826 2.112-0.50535 2.6365c0.0116 0.46963 0.18051 1.0528 0.33233 1.2267-0.0537 0.0824-0.0865 0.20816-0.0909 0.45786-3e-3 0.19153 0.0124 0.41278 0.0342 0.62477 0.0436 0.42396 0.11327 0.60395 0.11327 0.60395 0.0185 0.1 0.11659 0.16696 0.22009 0.15037 0.10468-0.0171 0.33582-0.0926 0.32008-0.19691 0 0-0.0584-0.17461-0.0949-0.59458-0.0183-0.20999-0.0305-0.42599-0.028-0.59739-0.0233-0.13834-0.14724-0.21578-0.11324-0.31998l0.4109 0.15477c-9e-5 0.46231 0.5047 0.83712 0.97597 0.83716 0.47126-4e-5 0.97603-0.37487 0.97594-0.83716l0.30621-0.14702c0.0595 0.0916-0.12215 0.18866-0.11344 0.31218 3e-3 0.17139-0.0101 0.3874-0.0283 0.59739-0.0366 0.41997-0.0968 0.59458-0.0968 0.59458-0.0158 0.10446 0.21538 0.18008 0.32028 0.19691 0.10434 0.0179 0.20381-0.0495 0.22224-0.15037 0 0 0.0691-0.17999 0.1127-0.60395 0.0218-0.21199 0.0382-0.43324 0.0348-0.62477-3e-3 -0.15978-0.023-0.34967-0.0899-0.45527 0.16394-0.17851 0.3115-0.75535 0.32318-1.2293 0.0129-0.52449-0.50592-1.9133-0.50592-2.6365s1.0212-2.2859 1.0212-3.9279c0-0.28856 0.0764-0.58162-9e-3 -0.92039 7e-3 0.01-5e-3 -0.0269 2e-3 -0.0177-0.35285-1.0719 0.67035-2.7436 0.33888-3.3282-0.0259-0.0456-0.0528-0.0649-0.0804-0.0619-0.32668 0.0354-0.56119 1.7438-1.1282 0.87485-2.2e-4 2e-3 -3.8e-4 5e-3 -5.9e-4 7e-3 -0.26445-0.93626-0.58673-2.1236-0.58673-2.5761l0.22527 0.11762 1.3728 1.2772c0.0703 0.1493 0.19182 0.16269 0.27107 0.0301 0.079-0.13225 0.0862-0.35998 0.0161-0.50887l-0.95345-1.1415 1.5802 0.0939 0.0759-2.4823c8e-3 -0.10197-0.066-0.19147-0.16507-0.19947-0.0996-8e-3 -0.37475 0.0695-0.38112 0.17209l-0.10992 1.7508-1.8477 0.0882c-0.5577-0.54186-0.35758-1.6607-1.1045-1.6607s-0.59598 1.1197-1.105 1.6576l-1.5227-0.0851-0.0934-1.7508c-7e-3 -0.1026-0.206-0.17981-0.3032-0.17209z" filter="url(#filter28)" style="mix-blend-mode:normal"/><path d="m-202.34 111.99c-0.0966 8e-3 -0.25082 0.0975-0.24299 0.19947l0.0759 2.5056 1.2894-0.0957-0.97683 1.1199c-0.0701 0.14894-0.0629 0.37654 0.0161 0.50886 0.0793 0.13243 0.20067 0.11904 0.27107-0.0303l1.3757-1.2771 0.19599-0.11707c0 0.44679-0.32205 1.6465-0.5735 2.5704-0.56651 0.86532-0.80059-0.84101-1.127-0.87634-0.0276-2e-3 -0.054 0.0171-0.0799 0.0619-0.33398 0.58908 0.61928 2.2477 0.33347 3.3257l-0.0189 0.94055c0 1.5822 0.91349 2.9028 0.91349 3.9279s-0.51826 2.112-0.50535 2.6365c0.0116 0.46963 0.18051 1.0528 0.33233 1.2267-0.0537 0.0824-0.0865 0.20816-0.0909 0.45786-3e-3 0.19153 0.0124 0.41278 0.0342 0.62477 0.0436 0.42396 0.11327 0.60395 0.11327 0.60395 0.0185 0.1 0.11659 0.16696 0.22009 0.15037 0.10468-0.0171 0.33582-0.0926 0.32008-0.19691 0 0-0.0584-0.17461-0.0949-0.59458-0.0183-0.20999-0.0305-0.42599-0.028-0.59739-0.0233-0.13834-0.14724-0.21578-0.11324-0.31998l0.4109 0.15477c-9e-5 0.46231 0.5047 0.83712 0.97597 0.83716 0.47126-4e-5 0.97603-0.37487 0.97594-0.83716l0.30621-0.14702c0.0595 0.0916-0.12215 0.18866-0.11344 0.31218 3e-3 0.17139-0.0101 0.3874-0.0283 0.59739-0.0366 0.41997-0.0968 0.59458-0.0968 0.59458-0.0158 0.10446 0.21538 0.18008 0.32028 0.19691 0.10434 0.0179 0.20381-0.0495 0.22224-0.15037 0 0 0.0691-0.17999 0.1127-0.60395 0.0218-0.21199 0.0382-0.43324 0.0348-0.62477-3e-3 -0.15978-0.023-0.34967-0.0899-0.45527 0.16394-0.17851 0.3115-0.75535 0.32318-1.2293 0.0129-0.52449-0.50592-1.9133-0.50592-2.6365s1.0212-2.2859 1.0212-3.9279c0-0.28856 0.0764-0.58162-9e-3 -0.92039 7e-3 0.01-5e-3 -0.0269 2e-3 -0.0177-0.35285-1.0719 0.67035-2.7436 0.33888-3.3282-0.0259-0.0456-0.0528-0.0649-0.0804-0.0619-0.32668 0.0354-0.56119 1.7438-1.1282 0.87485-2.2e-4 2e-3 -3.8e-4 5e-3 -5.9e-4 7e-3 -0.26445-0.93626-0.58673-2.1236-0.58673-2.5761l0.22527 0.11762 1.3728 1.2772c0.0703 0.1493 0.19182 0.16269 0.27107 0.0301 0.079-0.13225 0.0862-0.35998 0.0161-0.50887l-0.95345-1.1415 1.5802 0.0939 0.0759-2.4823c8e-3 -0.10197-0.066-0.19147-0.16507-0.19947-0.0996-8e-3 -0.37475 0.0695-0.38112 0.17209l-0.10992 1.7508-1.8477 0.0882c-0.5577-0.54186-0.35758-1.6607-1.1045-1.6607s-0.59598 1.1197-1.105 1.6576l-1.5227-0.0851-0.0934-1.7508c-7e-3 -0.1026-0.206-0.17981-0.3032-0.17209z" filter="url(#filter28)" style="mix-blend-mode:normal"/></g></g></g></svg>
