<svg xmlns="http://www.w3.org/2000/svg" width="224" height="64" viewBox="0 0 59.267 16.933"><defs><clipPath id="b"><path d="M61.913 302.82v8.467h-8.467z" fill="#5e2f00" stroke-width="5.987"/></clipPath><clipPath id="c"><path d="M15.875 303.35c.53 0 1.058.53 1.058 1.058v6.35c0 .53-.529 1.059-1.058 1.059h-5.292v-8.467z" fill="#d1b193" stroke-width="1.64"/></clipPath><clipPath id="a"><path d="M-4.233 284.3h59.266v16.933H-4.233z" fill="#630" stroke-width="1.716"/></clipPath></defs><path clip-path="url(#a)" d="M-4.233 284.3h59.266v16.933H-4.233z" fill="#630" stroke="#191919" stroke-width="3.175" transform="translate(4.233 -284.3)"/><path d="M61.913 302.82v8.467h-8.467z" clip-path="url(#b)" transform="translate(-2.646 -294.354)" fill="#462200" stroke="#191919" stroke-width="2.117"/><path transform="rotate(-90 -95.054 156.967)" clip-path="url(#b)" d="M61.913 302.82v8.467h-8.467z" fill="#462200" stroke="#191919" stroke-width="2.117"/><path d="M61.913 302.82v8.467h-8.467z" clip-path="url(#b)" transform="rotate(-180 30.956 155.644)" fill="#462200" stroke="#191919" stroke-width="2.117"/><path transform="rotate(90 178.133 133.154)" clip-path="url(#b)" d="M61.913 302.82v8.467h-8.467z" fill="#482400" stroke="#191919" stroke-width="2.117"/><path transform="translate(-1.588 -298.588)" clip-path="url(#c)" d="M15.875 303.35c.53 0 1.058.53 1.058 1.058v6.35c0 .53-.529 1.059-1.058 1.059h-5.292v-8.467z" fill="#d1b193" stroke="#191919" stroke-width="1.058"/><path fill="#a37245" d="M12.7 5.292h1.058V12.7H12.7z"/><path d="M15.875 303.35c.53 0 1.058.53 1.058 1.058v6.35c0 .53-.529 1.059-1.058 1.059h-5.292v-8.467z" clip-path="url(#c)" transform="translate(7.937 -300.704)" fill="#3a5e89" stroke="#191919" stroke-width="1.058"/><path fill="#27405c" d="M22.225 3.175h1.058v7.408h-1.058z"/><path transform="translate(33.867 -297.53)" clip-path="url(#c)" d="M15.875 303.35c.53 0 1.058.53 1.058 1.058v6.35c0 .53-.529 1.059-1.058 1.059h-5.292v-8.467z" fill="#d1b193" stroke="#191919" stroke-width="1.058"/><path fill="#a37245" d="M48.154 6.35h1.058v7.408h-1.058z"/><path transform="matrix(1.0531 -.608 .61836 1.07102 -155.795 -272.157)" d="M24.865 276.867c-.085.093-.836.04-.937.11-.102.07-.307.621-.422.666-.115.046-.63-.197-.753-.186-.123.01-.638.396-.76.378-.123-.018-.47-.613-.585-.657-.114-.045-.882.29-.984.22-.102-.07-.196-.832-.282-.923-.087-.091-.66-.19-.716-.302-.056-.113.14-.759.105-.877-.035-.118-.539-.455-.538-.58 0-.126.557-.58.585-.7.027-.122-.289-.825-.234-.938.055-.113.874-.309.96-.4.084-.092.055-.794.156-.87.1-.076.852.282.97.24.116-.042.442-.76.566-.769.123-.01.58.617.704.631.124.015.76-.473.877-.43.116.042.236.87.338.94.102.07.853-.002.937.087.083.09-.112.657-.06.77.053.112.672.495.706.616.033.12-.312.562-.307.687.005.125.348.813.316.933-.032.12-.574.288-.631.4-.057.113.075.862-.01.954z" fill="#408602" stroke="#191919" stroke-width=".647"/><path d="M39.015 9.785c-.066.07-.513.102-.584.164-.071.062.07.176-.013.215-.082.038-.483-.123-.573-.098-.091.025-.179.336-.272.341-.093.006-.24-.1-.332-.122-.09-.02-.374.142-.465.11-.09-.032-.06-.31-.144-.355-.083-.045-.51-.012-.573-.077-.064-.066-.051-.28-.106-.36-.055-.078-.273-.195-.32-.274-.045-.08.018-.342.002-.437-.016-.094-.131-.29-.144-.382-.013-.092.236-.242.24-.334.004-.092-.118-.261-.08-.35.038-.09.201-.236.245-.318.044-.081.064-.397.123-.469.058-.071.287.045.356-.018.07-.063.176-.35.257-.399.082-.049.243-.095.333-.114.09-.018.182-.112.272-.124.09-.012.466.258.56.275.093.017.28-.208.369-.177.088.031.158.26.235.308.077.05.272-.065.346-.006.074.059.036.364.093.436.058.073.298.28.332.367.034.086-.03.259-.014.35.016.092.386.287.385.383-.001.096-.218.13-.227.223-.01.093.116.479.08.569-.037.09-.217.155-.259.237-.041.082-.056.365-.122.436z" fill="#93cc61"/></svg>