<svg xmlns="http://www.w3.org/2000/svg" xmlns:xlink="http://www.w3.org/1999/xlink" width="960" height="992" viewBox="0 0 254 262.467"><defs><pattern xlink:href="#a" id="n" patternTransform="rotate(-45 270.642 -314.417) scale(.26458)"/><clipPath id="g"><path d="M39.132 158.55h-8.466v84.666h8.466z" fill="#621c1c" stroke-width="3.175"/></clipPath><clipPath id="f"><path d="M30.666 268.616v42.334h42.333v-8.467H39.132v-33.867z" fill="#621c1c" stroke-width="3.175"/></clipPath><clipPath id="e"><path d="M284.666 310.95h-42.334v-8.467H276.2V285.55h8.467z" fill="#621c1c" stroke-width="3.175"/></clipPath><clipPath id="h"><path d="M280.04 183.95v76.2h8.467v-76.2z" fill="#621c1c" stroke-width="3.268"/></clipPath><clipPath id="i"><path d="M98.399 304.6v8.466h42.333V304.6z" fill="#621c1c" stroke-width="3.175"/></clipPath><clipPath id="j"><path d="M174.599 319.416v-8.466h42.333v8.466z" fill="#621c1c" stroke-width="3.175"/></clipPath><clipPath id="k"><path d="M132.266 65.416h-101.6v50.8h8.466V73.883h93.134z" fill="#621c1c" stroke-width="3.175"/></clipPath><clipPath id="o"><path d="M166.132 65.416v8.467H276.2v67.733h8.467v-76.2z" fill="#621c1c" stroke-width="3.175"/></clipPath><pattern xlink:href="#b" id="l" patternTransform="rotate(90 60.941 113.657) scale(.0926)"/><pattern patternUnits="userSpaceOnUse" width="160" height="160" patternTransform="translate(142.971 268.336) scale(.26458)" id="b"><path fill="none" stroke-width="3.78" d="M0 0h160v160H0z"/><path fill="none" stroke-width="3.78" d="M0 0h160v160H0z"/><path fill="none" stroke-width="3.78" d="M0 0h160v160H0z"/><path fill="#b7b7b7" stroke-width="18.898" stroke-miterlimit="10" d="M0 0h160v160H0z"/><path fill-opacity=".354" stroke-width="8.709" stroke-miterlimit="10" d="M36 0h4v160h-4zm40 0h4v160h-4zm40 0h4v160h-4z"/><path transform="rotate(90)" fill-opacity=".354" stroke-width="4.131" stroke-miterlimit="10" d="M36-76h4v36h-4zm120 40h4V0h-4zm-80-80h4v36h-4z"/><path fill-opacity=".354" stroke-width="8.709" stroke-miterlimit="10" d="M156 0h4v160h-4z"/><path transform="rotate(90)" fill-opacity=".354" stroke-width="4.131" stroke-miterlimit="10" d="M116-156h4v36h-4zm0 80h4v36h-4zm40-40h4v36h-4zM36-156h4v36h-4zM76-36h4V0h-4z"/></pattern><pattern xlink:href="#c" id="m" patternTransform="rotate(90 -61.825 244.891) scale(.0926)"/><pattern patternUnits="userSpaceOnUse" width="160" height="160" patternTransform="translate(142.971 268.336) scale(.26458)" id="c"><path fill="none" stroke-width="3.78" d="M0 0h160v160H0z"/><path fill="none" stroke-width="3.78" d="M0 0h160v160H0z"/><path fill="none" stroke-width="3.78" d="M0 0h160v160H0z"/><path fill="#b7b7b7" stroke-width="18.898" stroke-miterlimit="10" d="M0 0h160v160H0z"/><path fill-opacity=".354" stroke-width="8.709" stroke-miterlimit="10" d="M36 0h4v160h-4zm40 0h4v160h-4zm40 0h4v160h-4z"/><path transform="rotate(90)" fill-opacity=".354" stroke-width="4.131" stroke-miterlimit="10" d="M36-76h4v36h-4zm120 40h4V0h-4zm-80-80h4v36h-4z"/><path fill-opacity=".354" stroke-width="8.709" stroke-miterlimit="10" d="M156 0h4v160h-4z"/><path transform="rotate(90)" fill-opacity=".354" stroke-width="4.131" stroke-miterlimit="10" d="M116-156h4v36h-4zm0 80h4v36h-4zm40-40h4v36h-4zM36-156h4v36h-4zM76-36h4V0h-4z"/></pattern><pattern patternUnits="userSpaceOnUse" width="64" height="64" patternTransform="translate(301.599 99.283) scale(.26458)" id="a"><path fill="none" stroke-width="3.78" d="M0 0h64v64H0z"/><path fill="none" stroke-width="3.78" d="M0 0h64v64H0z"/><path fill="none" stroke-width="3.78" d="M0 0h64v64H0z"/><path fill="none" stroke-width="3.78" d="M0 0h64v64H0z"/><path fill="none" stroke-width="3.78" d="M0 0h64v64H0z"/><path d="M0 0h64v64H0z" fill="#7b4414" stroke-width=".516"/><path fill="none" stroke-width="3.78" d="M0 0h64v64H0z"/><path fill="none" stroke-width="3.78" d="M0 0h64v64H0z"/><path fill="none" stroke-width="1.89" d="M0 0h64v64H0z"/><path d="M32 0h32v32H32zM0 32h32v32H0z" fill="#905018" stroke-width=".258"/></pattern><pattern patternUnits="userSpaceOnUse" width="160" height="160" patternTransform="translate(310.066 226.283) scale(.26458)" id="d"><path fill="#ae6a2d" stroke-width="18.898" stroke-miterlimit="10" d="M0 0h160v160H0z"/><path fill-opacity=".354" stroke-width="8.709" stroke-miterlimit="10" d="M36 0h4v160h-4zm40 0h4v160h-4zm40 0h4v160h-4z"/><path transform="rotate(90)" fill-opacity=".354" stroke-width="4.131" stroke-miterlimit="10" d="M36-76h4v36h-4zm120 40h4V0h-4zm-40-80h4v36h-4z"/><path fill-opacity=".354" stroke-width="8.709" stroke-miterlimit="10" d="M156 0h4v160h-4z"/><path transform="rotate(90)" fill-opacity=".354" stroke-width="4.131" stroke-miterlimit="10" d="M76-156h4v36h-4z"/></pattern></defs><path d="M30.666 82.35h177.8v50.8h76.2v177.8h-254z" fill="url(#d)" transform="translate(-30.666 -65.416)"/><path d="M284.666 310.95h-42.334v-8.467H276.2V285.55h8.467z" clip-path="url(#e)" fill="#621c1c" stroke="#050505" stroke-width="3.175" transform="translate(-30.666 -65.416)"/><path d="M30.666 268.616v42.334h42.333v-8.467H39.132v-33.867z" clip-path="url(#f)" fill="#621c1c" stroke="#050505" stroke-width="3.175" transform="translate(-30.666 -65.416)"/><path d="M39.132 158.55h-8.466v84.666h8.466z" clip-path="url(#g)" transform="translate(-30.666 -65.416)" fill="#621c1c" stroke="#050505" stroke-width="3.175"/><path d="M160.808 160.867l.059 42.333h8.466v-33.867h76.2v-8.466zM169.333 25.4v67.733h8.467V76.2h33.867v-8.467H177.8V25.4h-8.467zM8.467 143.933h76.2v-8.466h-76.2z" fill="#d8a584" fill-opacity=".196"/><path d="M280.04 183.95v76.2h8.467v-76.2z" clip-path="url(#h)" transform="translate(-34.507 -65.416)" fill="#621c1c" stroke="#050505" stroke-width="3.175"/><path fill-opacity=".305" d="M101.6 228.6h50.8v16.933h-50.8z"/><path d="M98.399 304.6v8.466h42.333V304.6z" clip-path="url(#i)" transform="translate(-30.666 -67.533)" fill="#621c1c" stroke="#050505" stroke-width="3.175"/><path clip-path="url(#j)" d="M174.599 319.416v-8.466h42.333v8.466z" transform="translate(-30.666 -73.883)" fill="#621c1c" stroke="#050505" stroke-width="3.175"/><path fill-opacity=".305" d="M93.133 16.934h50.8v16.933h-50.8z"/><path d="M132.266 65.416h-101.6v50.8h8.466V73.883h93.134z" clip-path="url(#k)" transform="translate(-30.666 -48.483)" fill="#621c1c" stroke="#050505" stroke-width="3.175"/><path d="M132.266 65.416h33.866V82.35h-33.866z" fill="url(#l)" transform="translate(-30.666 -65.416)"/><path d="M140.732 310.95H174.6v16.933h-33.867z" fill="url(#m)" transform="translate(-30.666 -65.416)"/><path d="M208.466 82.35h76.2v53.975h-42.334l.112-3.175h-33.978z" fill="url(#n)" transform="translate(-30.666 -65.416)"/><path d="M166.132 65.416v8.467H276.2v67.733h8.467v-76.2z" clip-path="url(#o)" transform="translate(-30.666 -48.483)" fill="#621c1c" stroke="#050505" stroke-width="3.175"/><g fill="#451810"><path d="M93.386 199.749a.507.507 0 0 0-.507-.507h-2.366v-1.982h2.366a.507.507 0 1 0 0-1.014h-2.366v-1.982h2.366a.507.507 0 1 0 0-1.014h-2.366v-1.982h2.366a.507.507 0 1 0 0-1.014h-2.366v-1.983h2.366a.507.507 0 1 0 0-1.013h-2.366v-1.983h2.366a.507.507 0 0 0 0-1.014h-2.366v-1.982h2.366a.507.507 0 0 0 0-1.014h-2.366v-1.982h2.366a.507.507 0 0 0 0-1.014h-2.366v-1.982h2.366a.507.507 0 0 0 0-1.014h-2.366v-1.983h2.366a.507.507 0 0 0 0-1.013H50.436a.507.507 0 0 0 0 1.013h2.366v1.983h-2.366a.507.507 0 0 0 0 1.014h2.366v1.982h-2.366a.507.507 0 0 0 0 1.014h2.366v1.982h-2.366a.507.507 0 0 0 0 1.014h2.366v1.982h-2.366a.507.507 0 0 0 0 1.014h2.366v1.982h-2.366a.507.507 0 1 0 0 1.014h2.366v1.983h-2.366a.507.507 0 1 0 0 1.013h2.366v1.983h-2.366a.507.507 0 1 0 0 1.014h2.366v1.982h-2.366a.507.507 0 1 0 0 1.014h2.366v1.982h-2.366a.507.507 0 1 0 0 1.014H92.88c.28 0 .507-.227.507-.507z"/><path d="M62.577 186.267l9.08-6.57 9.081 6.57-9.08 6.568zm9.08-4.818L65 186.267l6.659 4.816 6.659-4.816zm7.077 11.347v1.26h-1.26a.456.456 0 0 0 0 .912h1.26v1.26a.456.456 0 0 0 .912 0v-1.26h1.26a.456.456 0 0 0 0-.912h-1.26v-1.26a.456.456 0 0 0-.912 0zm-14.878 3.432v-1.26h1.26a.456.456 0 0 0 0-.912h-1.26v-1.26a.456.456 0 0 0-.912 0v1.26h-1.26a.456.456 0 0 0 0 .912h1.26v1.26a.456.456 0 0 0 .912 0zm15.79-16.979v-1.26h1.26a.456.456 0 0 0 0-.912h-1.26v-1.26a.456.456 0 0 0-.912 0v1.26h-1.26a.456.456 0 0 0 0 .912h1.26v1.26a.456.456 0 0 0 .912 0zm-15.79 0v-1.26h1.26a.456.456 0 0 0 0-.912h-1.26v-1.26a.456.456 0 0 0-.912 0v1.26h-1.26a.456.456 0 0 0 0 .912h1.26v1.26a.456.456 0 0 0 .912 0z"/></g><g fill="#70291b"><path d="M85.185 200.256H58.13l-2.027-3.499 2.027-3.497-2.027-3.497 2.027-3.498-2.027-3.497 2.027-3.497-2.027-3.498 2.027-3.496h27.055l2.027 3.497-2.027 3.498 2.027 3.498-2.027 3.497 2.027 3.498-2.027 3.497 2.027 3.496zm-13.527-8.298l7.87-5.692-7.87-5.693-7.87 5.693z"/><path d="M72.182 188.028v-1.26h1.26a.456.456 0 0 0 0-.912h-1.26v-1.26a.456.456 0 0 0-.912 0v1.26h-1.26a.456.456 0 0 0 0 .912h1.26v1.26a.456.456 0 0 0 .912 0z"/></g></svg>