<?xml version="1.0" encoding="UTF-8" standalone="no"?>
<svg
   xmlns:dc="http://purl.org/dc/elements/1.1/"
   xmlns:cc="http://creativecommons.org/ns#"
   xmlns:rdf="http://www.w3.org/1999/02/22-rdf-syntax-ns#"
   xmlns:svg="http://www.w3.org/2000/svg"
   xmlns="http://www.w3.org/2000/svg"
   xmlns:sodipodi="http://sodipodi.sourceforge.net/DTD/sodipodi-0.dtd"
   xmlns:inkscape="http://www.inkscape.org/namespaces/inkscape"
   width="144"
   height="144"
   viewBox="0 0 38.1 38.1"
   version="1.1"
   id="svg10"
   sodipodi:docname="map-squash-01.svg"
   inkscape:version="0.92.2 (5c3e80d, 2017-08-06)">
  <metadata
     id="metadata16">
    <rdf:RDF>
      <cc:Work
         rdf:about="">
        <dc:format>image/svg+xml</dc:format>
        <dc:type
           rdf:resource="http://purl.org/dc/dcmitype/StillImage" />
        <dc:title />
      </cc:Work>
    </rdf:RDF>
  </metadata>
  <defs
     id="defs14" />
  <sodipodi:namedview
     pagecolor="#ffffff"
     bordercolor="#666666"
     borderopacity="1"
     objecttolerance="10"
     gridtolerance="10"
     guidetolerance="10"
     inkscape:pageopacity="0"
     inkscape:pageshadow="2"
     inkscape:window-width="1920"
     inkscape:window-height="1017"
     id="namedview12"
     showgrid="true"
     inkscape:zoom="1.1588695"
     inkscape:cx="30.129625"
     inkscape:cy="19.67037"
     inkscape:window-x="1912"
     inkscape:window-y="-8"
     inkscape:window-maximized="1"
     inkscape:current-layer="svg10"
     inkscape:snap-nodes="false"
     showguides="false">
    <inkscape:grid
       type="xygrid"
       id="grid823"
       empspacing="4"
       spacingy="1.0583333"
       spacingx="1.0583333" />
  </sodipodi:namedview>
  <path
     sodipodi:nodetypes="ccccccccccccccccc"
     inkscape:connector-curvature="0"
     id="path873"
     d="m 27.723253,14.181014 -1.708767,1.7081 h -1.708101 l -1.7081,1.708992 -6.9e-4,1.708769 2.562836,-2.281183 h 1.708762 l 1.297353,-1.341505 0.807223,-0.0049 0.458466,0.52135 1.708099,0.0074 0.550338,0.536066 h 2.012482 l -1.708101,-1.708992 h -1.708768 l -0.85405,-0.854049 z"
     style="fill:#183905;fill-opacity:1;stroke:#191919;stroke-width:0.5291667;stroke-miterlimit:4;stroke-dasharray:none;stroke-opacity:1" />
  <path
     sodipodi:nodetypes="ccccccccccccccccccccccccccc"
     inkscape:connector-curvature="0"
     id="path871"
     d="m 26.771148,19.807786 -1.523241,0.008 -1.566501,1.944469 -0.807223,-0.0047 -1.490239,-1.047827 -3.017271,-0.0098 -0.01382,1.121416 h 2.369264 l 1.708768,1.177607 h 1.708993 l 0.294346,-0.341175 1.608423,1.608871 h 1.709661 l 1.708768,1.708098 h 1.707208 l 0.855834,-0.854049 h 1.706317 l 1.708768,-1.70877 h -2.012258 l -0.550561,0.536066 -1.708768,0.0071 -0.457799,0.521572 -0.807221,-0.0049 -1.298023,-1.341505 h -1.707875 l -1.648786,-1.444975 z"
     style="fill:#183905;fill-opacity:1;stroke:#191919;stroke-width:0.5291667;stroke-miterlimit:4;stroke-dasharray:none;stroke-opacity:1" />
  <path
     style="fill:#183905;fill-opacity:1;stroke:#191919;stroke-width:0.5291667;stroke-miterlimit:4;stroke-dasharray:none;stroke-opacity:1"
     d="m 14.08703,21.747743 -2.101672,2.379844 0.002,1.613451 -0.781157,0.573509 0.03144,1.865976 -1.208381,1.208156 0.01193,3.425343 -1.4198821,-1.207489 v -2.416754 l 1.207935,-1.20771 4.75e-4,-2.416092 1.1174201,-0.904221 0.02986,-1.426911 1.421781,-1.487117 z"
     id="path17-7"
     inkscape:connector-curvature="0"
     sodipodi:nodetypes="ccccccccccccccc" />
  <path
     style="fill:#183905;fill-opacity:1;stroke:#191919;stroke-width:0.5291667;stroke-miterlimit:4;stroke-dasharray:none;stroke-opacity:1"
     d="m 14.892923,17.048367 -3.424595,-0.199776 -1.208438,-1.208439 -1.8659537,0.03153 -0.5741211,-0.567474 0.043996,-0.692357 -1.2021523,-1.213466 -0.010879,-0.76773 -1.4228826,-1.422883 -6.301e-4,2.416248 1.2082828,1.208283 -6e-7,1.20781 1.208283,1.208283 2.4168786,-1e-6 1.207809,1.207809 2.416563,-2e-6 z"
     id="path1846"
     inkscape:connector-curvature="0"
     sodipodi:nodetypes="ccccccccccccccccc" />
  <path
     inkscape:connector-curvature="0"
     id="path1896"
     d="m 14.888275,17.747978 -0.85562,0.854051 h -1.70654 l -0.0673,0.06734 h -0.72828 l -0.85584,0.928306 H 8.9674945 l -1.7087699,1.708769 h -1.70966 l -1.7081,1.708992 -8.7e-4,1.708768 2.56307,-2.281183 h 1.7081001 l 1.2986898,-1.341505 1.6144405,-0.0058 0.73921,-0.784699 h 0.86609 l 0.55057,-0.536067 1.70876,-0.0074 0.4578,-0.52135 0.80722,0.0049 1.29802,1.341505 h 1.70811 l 2.562814,2.281183 -9.06e-4,-1.708769 -1.708098,-1.708992 h -1.70965 l -1.70877,-1.708101 z"
     style="fill:#183905;fill-opacity:1;stroke:#191919;stroke-width:0.5291667;stroke-miterlimit:4;stroke-dasharray:none;stroke-opacity:1" />
  <path
     sodipodi:nodetypes="ccccccccccccccccc"
     inkscape:connector-curvature="0"
     id="path1898"
     d="m 19.07752,9.731069 3.424595,-0.199778 1.20844,-1.2084404 1.865954,0.03154 0.574116,-0.567468 -0.04399,-0.692361 1.202152,-1.213466 0.01088,-0.7677316 1.422881,-1.42288 6.3e-4,2.4162476 -1.208282,1.208282 v 1.207808 l -1.208282,1.2082824 -2.416879,10e-7 -1.207809,1.207809 h -2.416564 z"
     style="fill:#183905;fill-opacity:1;stroke:#191919;stroke-width:0.5291667;stroke-miterlimit:4;stroke-dasharray:none;stroke-opacity:1" />
  <path
     sodipodi:type="star"
     style="fill:#1d7310;fill-opacity:1;stroke:#2d2d2d;stroke-width:1.58749998;stroke-linecap:round;stroke-linejoin:round;stroke-miterlimit:4;stroke-dasharray:none;stroke-opacity:1;paint-order:normal"
     id="path1073"
     sodipodi:sides="10"
     sodipodi:cx="4.7491541"
     sodipodi:cy="7.5986481"
     sodipodi:r1="9.3083429"
     sodipodi:r2="9.4983091"
     sodipodi:arg1="-1.5707963"
     sodipodi:arg2="-1.256637"
     inkscape:flatsided="false"
     inkscape:rounded="0.34"
     inkscape:randomized="0.009"
     d="m 4.7882492,-1.7600088 c 1.0010497,-0.00132 1.9767784,-0.030334 2.9305031,0.2858485 0.9537245,0.3161823 1.6121059,0.88076243 2.4223507,1.47217112 0.810245,0.59140881 1.626399,1.15772618 2.213849,1.97151178 0.587449,0.8137853 0.853576,1.7720282 1.172229,2.7247719 0.318653,0.9527439 0.692826,1.9122388 0.704596,2.9126356 0.01177,1.0003966 -0.401779,1.8986408 -0.703576,2.8537269 -0.301798,0.955087 -0.591154,1.960486 -1.171174,2.776907 -0.58002,0.81642 -1.40095,1.34863 -2.213277,1.929031 -0.8123271,0.5804 -1.4677405,1.168835 -2.4244462,1.469817 -0.9567054,0.300982 -1.9297503,0.350535 -2.930442,0.338513 C 3.78817,16.962903 2.7311586,16.904337 1.7812131,16.581977 0.83126773,16.259616 0.0909857,15.69658 -0.71511586,15.097592 -1.5212176,14.498604 -2.3427557,13.952212 -2.9287886,13.14085 -3.5148214,12.329488 -3.7789196,11.362696 -4.1010178,10.416078 -4.4231161,9.4694594 -4.7352772,8.6192795 -4.7286416,7.6147031 -4.7220061,6.610127 -4.4252319,5.5991132 -4.1020377,4.649715 -3.7788435,3.7003166 -3.5108295,2.8621664 -2.9308637,2.0437782 -2.3508981,1.2253901 -1.5297258,0.68372116 -0.71776316,0.09997763 0.09419965,-0.48376602 0.82192592,-1.0562531 1.7806616,-1.3576261 2.739397,-1.6589989 3.7871997,-1.7586852 4.7882492,-1.7600088 Z"
     inkscape:transform-center-y="-0.85976352"
     transform="translate(14.298352,11.442837)"
     inkscape:transform-center-x="-0.0016242414" />
  <path
     sodipodi:nodetypes="sssss"
     inkscape:connector-curvature="0"
     id="path841-3"
     d="m 23.646186,22.352464 c 0.360876,0.434628 0.99481,0.573811 1.32102,0.370142 0.326211,-0.203671 0.221164,-0.673077 -0.139717,-1.107704 -0.360879,-0.434624 -0.899875,-0.499672 -1.226084,-0.296001 -0.326211,0.20367 -0.316102,0.598941 0.04478,1.033565 z"
     style="fill:#000000;fill-opacity:0.530303;stroke:none;stroke-width:0.53874981;stroke-linecap:square;stroke-linejoin:miter;stroke-miterlimit:4;stroke-dasharray:none;stroke-opacity:1;paint-order:fill markers stroke" />
  <path
     style="fill:#000000;fill-opacity:0.530303;stroke:none;stroke-width:0.4651908;stroke-linecap:square;stroke-linejoin:miter;stroke-miterlimit:4;stroke-dasharray:none;stroke-opacity:1;paint-order:fill markers stroke"
     d="m 24.468096,16.458334 c 0.364907,-0.323408 0.314032,-0.738633 -0.01724,-0.884883 -0.33128,-0.146249 -0.817519,0.03186 -1.182425,0.355264 -0.364906,0.32341 -0.262592,0.663398 0.06869,0.80965 0.33128,0.14625 0.766073,0.04337 1.13098,-0.280031 z"
     id="path906-4"
     inkscape:connector-curvature="0"
     sodipodi:nodetypes="sssss" />
  <path
     sodipodi:nodetypes="sssss"
     inkscape:connector-curvature="0"
     id="path839-1"
     d="m 18.683578,13.911299 c 0.312886,0.277759 0.78303,0.109791 0.989908,-0.265871 0.206874,-0.375666 0.07215,-0.816768 -0.240739,-1.094527 -0.312886,-0.277759 -0.705837,-0.07895 -0.912714,0.296709 -0.206874,0.375664 -0.149341,0.78593 0.163545,1.063689 z"
     style="fill:#000000;fill-opacity:0.530303;stroke:none;stroke-width:0.48574376;stroke-linecap:square;stroke-linejoin:miter;stroke-miterlimit:4;stroke-dasharray:none;stroke-opacity:1;paint-order:fill markers stroke" />
  <path
     style="fill:#000000;fill-opacity:0.530303;stroke:none;stroke-width:0.60159099;stroke-linecap:square;stroke-linejoin:miter;stroke-miterlimit:4;stroke-dasharray:none;stroke-opacity:1;paint-order:fill markers stroke"
     d="m 13.364863,22.907574 c 0.4845,0.164015 1.055882,-0.222366 1.226543,-0.718652 0.170678,-0.496257 -0.123979,-0.91447 -0.608479,-1.078481 -0.4845,-0.164013 -0.946436,0.222082 -1.117115,0.718336 -0.170679,0.496258 0.01453,0.914753 0.499032,1.078767 z"
     id="path837-2"
     inkscape:connector-curvature="0"
     sodipodi:nodetypes="sssss" />
  <path
     style="fill:#000000;fill-opacity:0.530303;stroke:none;stroke-width:0.54511517;stroke-linecap:square;stroke-linejoin:miter;stroke-miterlimit:4;stroke-dasharray:none;stroke-opacity:1;paint-order:fill markers stroke"
     d="m 14.315863,16.857335 c 0.465312,-0.127024 0.731621,-0.695406 0.625649,-1.140131 -0.105971,-0.444725 -0.544094,-0.597384 -1.009406,-0.470362 -0.465312,0.127024 -0.644695,0.639759 -0.538724,1.084484 0.105971,0.444725 0.457169,0.653033 0.922481,0.526009 z"
     id="path832-4"
     inkscape:connector-curvature="0"
     sodipodi:nodetypes="sssss" />
  <path
     sodipodi:type="star"
     style="fill:#7dce00;fill-opacity:1;stroke:#323232;stroke-width:1.08479167;stroke-linecap:round;stroke-linejoin:round;stroke-miterlimit:4;stroke-dasharray:none;stroke-opacity:1;paint-order:normal"
     id="path875"
     sodipodi:sides="6"
     sodipodi:cx="0.94178528"
     sodipodi:cy="14.041665"
     sodipodi:r1="2.4318466"
     sodipodi:r2="1.9211588"
     sodipodi:arg1="-1.5707963"
     sodipodi:arg2="-1.0471975"
     inkscape:flatsided="false"
     inkscape:rounded="0.34"
     inkscape:randomized="0.009"
     d="m 0.94016204,11.593333 c 0.41689626,-0.0051 0.58208946,0.581625 0.94229706,0.792808 0.3602075,0.211182 0.9356021,0.0732 1.1484425,0.434944 0.2128404,0.36175 -0.1600646,0.785785 -0.1622717,1.202507 -0.00221,0.416722 0.3668429,0.847671 0.1623772,1.212213 -0.2044657,0.364541 -0.7875118,0.236158 -1.148387,0.44969 -0.3608752,0.213531 -0.5232464,0.798773 -0.94296854,0.803245 -0.41972222,0.0045 -0.58594561,-0.586554 -0.94398105,-0.800063 -0.35803541,-0.213509 -0.94382598,-0.07657 -1.14844321,-0.439791 -0.2046173,-0.36322 0.16056475,-0.804301 0.16467651,-1.222294 0.004112,-0.417993 -0.36919271,-0.827082 -0.16478201,-1.192425 0.20441067,-0.365344 0.78497263,-0.236582 1.14838768,-0.444844 0.36341503,-0.208262 0.52775636,-0.79091 0.94465256,-0.79599 z"
     inkscape:transform-center-x="-0.0034364448"
     inkscape:transform-center-y="-0.0035169047"
     transform="translate(18.110139,5.0089673)" />
  <g
     id="g928"
     style="stroke:#000000;stroke-opacity:0.25757575"
     transform="rotate(1.0660222,19.01479,19.051471)">
    <path
       style="fill:none;fill-opacity:1;stroke:#000000;stroke-width:0.79374999;stroke-linecap:round;stroke-linejoin:round;stroke-miterlimit:4;stroke-dasharray:none;stroke-opacity:0.25757575"
       d="m 26.015249,18.770109 -2.86125,0.263966"
       id="path1005"
       inkscape:connector-curvature="0"
       sodipodi:nodetypes="cc" />
    <path
       sodipodi:nodetypes="cc"
       inkscape:connector-curvature="0"
       id="path1077"
       d="M 14.885276,19.018785 12.01435,18.899554"
       style="fill:none;fill-opacity:1;stroke:#000000;stroke-width:0.79374999;stroke-linecap:round;stroke-linejoin:round;stroke-miterlimit:4;stroke-dasharray:none;stroke-opacity:0.25757575" />
    <path
       style="fill:none;fill-opacity:1;stroke:#000000;stroke-width:0.79374999;stroke-linecap:round;stroke-linejoin:round;stroke-miterlimit:4;stroke-dasharray:none;stroke-opacity:0.25757575"
       d="m 16.876139,22.593984 -1.43279,2.490691"
       id="path1079"
       inkscape:connector-curvature="0"
       sodipodi:nodetypes="cc" />
    <path
       style="fill:none;fill-opacity:1;stroke:#000000;stroke-width:0.79374999;stroke-linecap:round;stroke-linejoin:round;stroke-miterlimit:4;stroke-dasharray:none;stroke-opacity:0.25757575"
       d="M 22.776734,25.101132 21.255998,22.663143"
       id="path877"
       inkscape:connector-curvature="0"
       sodipodi:nodetypes="cc" />
    <path
       sodipodi:nodetypes="cc"
       inkscape:connector-curvature="0"
       id="path879"
       d="m 22.745847,13.258252 -1.516536,2.440606"
       style="fill:none;fill-opacity:1;stroke:#000000;stroke-width:0.79374999;stroke-linecap:round;stroke-linejoin:round;stroke-miterlimit:4;stroke-dasharray:none;stroke-opacity:0.25757575" />
    <path
       sodipodi:nodetypes="cc"
       inkscape:connector-curvature="0"
       id="path881"
       d="m 17.087685,15.527697 -1.37011,-2.525715"
       style="fill:none;fill-opacity:1;stroke:#000000;stroke-width:0.79374999;stroke-linecap:round;stroke-linejoin:round;stroke-miterlimit:4;stroke-dasharray:none;stroke-opacity:0.25757575" />
  </g>
  <path
     sodipodi:nodetypes="ssss"
     inkscape:connector-curvature="0"
     id="path883"
     d="m 18.596737,25.388759 c 0.438436,1.073505 1.468271,-0.265944 1.227935,-0.762739 -0.210053,-0.434198 -0.616236,-0.756389 -1.029783,-0.561481 -0.413547,0.194909 -0.380523,0.877687 -0.198152,1.32422 z"
     style="fill:#000000;fill-opacity:0.530303;stroke:none;stroke-width:0.54511517;stroke-linecap:square;stroke-linejoin:miter;stroke-miterlimit:4;stroke-dasharray:none;stroke-opacity:1;paint-order:fill markers stroke" />
</svg>
