<svg xmlns="http://www.w3.org/2000/svg" width="128" height="128"><path d="M110.237 17.762c8.812 8.812-4.75 36.658-30.277 62.186-25.54 25.54-53.386 39.1-62.198 30.289-6.54-6.542-.748-23.552 13.095-42.329.712-.982 1.46-1.951 2.234-2.945a164.701 164.701 0 0 1 6.823-8.248 113.432 113.432 0 0 1 2.81-3.13 186.41 186.41 0 0 1 5.327-5.546c.81-.81 1.62-1.596 2.43-2.381.663-.638 1.338-1.289 2-1.903.455-.43.896-.846 1.35-1.251.651-.602 1.326-1.203 1.976-1.78a160.773 160.773 0 0 1 7.315-6.185c1.19-.97 2.38-1.89 3.559-2.774 19.244-14.506 36.88-20.68 43.556-14.003z" fill="#f6c358"/><path d="M77.5 77.498c-24.336 24.337-50.756 37.777-60.811 31.358.315.495.664.963 1.077 1.377 8.811 8.811 36.654-4.746 62.189-30.28 25.535-25.535 39.092-53.378 30.28-62.19a8.045 8.045 0 0 0-1.377-1.077c6.42 10.055-7.02 36.475-31.357 60.812z" fill="#dc8744"/><path d="M46.099 72.209s-7.295-6.06-13.718-6.334c.673-.877 1.375-1.746 2.099-2.637 2.807.383 9.142 2.006 11.619 8.97zm20.595-22.857s-7.241-5.793-14.212-5.596c.454-.43.895-.847 1.35-1.252.65-.602 1.325-1.203 1.976-1.78 3.35.356 9.045 1.951 10.886 8.628z" fill="#fcd462"/><path d="M64.544 70.72s-16.59-14.336-24.63-14.004c.909-1.056 2.92-3.237 3.89-4.28 1.558.208 16.163 7.84 20.74 18.285zm11.083-11.081S58.533 44.848 50.48 45.658c1.105-1.08 3.132-2.932 4.25-3.951 1.631.233 16.355 7.524 20.896 17.932zm11.094-11.095S71.063 34.968 63.122 34.54c1.19-.97 3.393-2.643 4.571-3.527 3.571.871 15.334 9.1 19.028 17.532zM53.45 81.815s-14.8-12.84-22.593-13.907c.712-.981 1.856-2.455 2.63-3.449 3.436.786 16.17 8.655 19.963 17.356z" fill="#dc8744"/></svg>