<svg xmlns="http://www.w3.org/2000/svg" width="128" height="128"><g fill="#ffe8a2"><path d="M118.527 8.368l-1.928 11.087A26.136 26.136 0 0 1 95.59 40.68l-5.391.993a13.344 13.344 0 0 1 3.205 8.69v4.709l7.825-1.921c15.045-3.697 24.132-19.018 20.16-33.993zM50.824 38.373c-7.402 0-13.402 6-13.402 13.403v19.027c0 6.202 4.212 11.416 9.932 12.945V95.53a8.596 8.596 0 0 0 5.455 8v10.314a5.79 5.79 0 0 0 5.789 5.788h10.94a5.786 5.786 0 0 0 5.785-5.788V103.53a8.597 8.597 0 0 0 5.456-8.001V83.658c5.558-1.633 9.618-6.77 9.618-12.858V51.776c0-7.402-5.997-13.403-13.399-13.403zM46.588 64.39L58.29 75.356a4.027 4.027 0 0 1-4.024 4.025h-1.918c-5.4 0-9.781-4.38-9.781-9.782v-1.187c0-2.221 1.8-4.022 4.021-4.022zm34.643 0c2.22 0 4.02 1.8 4.02 4.022v1.187c0 5.402-4.38 9.782-9.78 9.782h-1.918a4.024 4.024 0 0 1-4.021-4.025zm-21.628 35.792c1.089 0 1.97.88 1.97 1.969v11.51a1.97 1.97 0 1 1-3.942 0v-11.51a1.97 1.97 0 0 1 1.972-1.969zm8.565 0c1.088 0 1.969.88 1.969 1.969v11.51a1.97 1.97 0 1 1-3.942 0v-11.51a1.97 1.97 0 0 1 1.973-1.969zM9.473 8.368l1.928 11.087A26.136 26.136 0 0 0 32.41 40.68l5.391.993a13.344 13.344 0 0 0-3.205 8.69v4.709l-7.825-1.921C11.727 49.453 2.64 34.132 6.612 19.157z"/></g></svg>