<svg xmlns="http://www.w3.org/2000/svg" width="128" height="128"><path d="M74.286 14.175L53.044 35.417l8.497 8.497 21.242-21.242a6.008 6.008 0 1 0 0-8.497 6.008 6.008 0 1 0-8.497 0z" fill="#e1d8dc"/><path d="M64.373 32.585c-4.21-4.21-10.1-6.205-16.588-5.614-6.35.577-12.53 3.577-17.4 8.446-4.869 4.87-7.869 11.05-8.446 17.4-.59 6.486 1.404 12.377 5.615 16.588 3.726 3.725 8.768 5.716 14.374 5.716.729 0 1.467-.034 2.214-.102 6.35-.577 12.529-3.577 17.399-8.447 4.87-4.87 7.87-11.049 8.446-17.398.59-6.487-1.404-12.379-5.614-16.589z" fill="#7b4013"/><path d="M89.711 51.37c-9.822-8.644-22.865-13.405-36.726-13.405-13.86 0-26.904 4.76-36.726 13.404C6.364 60.076.915 71.674.915 84.027c0 12.239 5.36 22.537 15.503 29.78 9.276 6.626 22.262 10.274 36.567 10.274s27.291-3.648 36.567-10.273c10.143-7.244 15.504-17.542 15.504-29.78 0-12.354-5.45-23.952-15.345-32.659z" fill="#a75418"/><path d="M60.996 120.076c-14.305 0-27.291-3.648-36.567-10.274-10.142-7.244-15.503-17.541-15.503-29.78 0-12.353 5.449-23.951 15.344-32.658a51.707 51.707 0 0 1 7.247-5.326c-5.605 2.244-10.769 5.38-15.258 9.331C6.364 60.076.915 71.674.915 84.027c0 12.239 5.36 22.537 15.503 29.78 9.276 6.626 22.262 10.274 36.567 10.274 13.11 0 25.11-3.066 34.164-8.678-7.659 3.047-16.612 4.673-26.153 4.673z" fill="#7b4013"/><path d="M108.332 25.294L87.09 46.536l8.497 8.497 21.242-21.242a6.008 6.008 0 1 0 0-8.497 6.008 6.008 0 1 0-8.497 0z" fill="#e1d8dc"/><path d="M98.419 43.704c-8.59-8.59-23.836-7.319-33.987 2.832C54.28 56.687 53.01 71.933 61.599 80.523c3.726 3.726 8.768 5.716 14.375 5.716.728 0 1.467-.033 2.214-.101 6.35-.578 12.529-3.577 17.398-8.447 10.152-10.151 11.422-25.398 2.833-33.987z" fill="#a75418"/><path d="M83.134 80.086c-.746.068-1.485.102-2.214.102-5.606 0-10.648-1.99-14.374-5.716-7.154-7.154-7.466-18.925-1.508-28.524-.203.192-.406.388-.606.588C54.28 56.687 53.01 71.933 61.6 80.523c3.726 3.726 8.768 5.716 14.374 5.716.729 0 1.468-.033 2.214-.101 6.35-.578 12.529-3.577 17.399-8.447a30.435 30.435 0 0 0 4.35-5.478c-4.774 4.528-10.708 7.32-16.803 7.873z" fill="#7b4013"/></svg>