<svg xmlns="http://www.w3.org/2000/svg" id="Layer_1" viewBox="-49 141 128 128" width="128" height="128"><style id="style2">.st1{fill:#ffda44}</style><circle cx="15" cy="205" id="circle4" r="64" fill="#d80027" stroke-width=".25"/><g id="g16" transform="matrix(.25 0 0 .25 -36.75 105.75)"><path class="st1" id="polygon6" fill="#ffda44" d="M149 474.9l-57.9-42-57.9 42 22.2-68-57.9-42.1H69l22.1-68 22.1 68h71.5l-57.8 42.1z"/><path class="st1" id="polygon8" fill="#ffda44" d="M210.2 483l25.9 6.9 14.6-22.5 1.4 26.8 26 6.9-25.1 9.6 1.5 26.8-16.9-20.8-25 9.7 14.5-22.5z"/><path class="st1" id="polygon10" fill="#ffda44" d="M308.9 409.4l8.7 25.4 26.8-.3-21.5 16 8.6 25.4-21.9-15.5-21.5 16.1 8-25.6-21.9-15.5 26.8-.4z"/><path class="st1" id="polygon12" fill="#ffda44" d="M302.5 391.9l-4.6-26.4-26.6-3.8 23.8-12.5-4.6-26.5 19.2 18.7 23.7-12.5-11.8 24.1 19.2 18.7-26.5-3.8z"/><path class="st1" id="polygon14" fill="#ffda44" d="M250.1 325.9L236 303.1l-26.1 6.4 17.3-20.5-14.2-22.7 24.9 10.1 17.3-20.5-2 26.7 24.9 10.1-26.1 6.4z"/></g></svg>