<svg xmlns="http://www.w3.org/2000/svg" width="128" height="128"><path d="M73.977 56.24a2.904 2.904 0 0 1-1.299-3.897l3.437-6.87a2.904 2.904 0 1 1 5.195 2.598l-3.437 6.87a2.907 2.907 0 0 1-3.896 1.298z" fill="#59422d"/><path d="M50.127 54.94l-3.437-6.87a2.904 2.904 0 1 1 5.195-2.598l3.437 6.871a2.904 2.904 0 1 1-5.195 2.598z" fill="#664b34"/><path d="M93.231 113.558a2.902 2.902 0 0 1-2.903-2.904v-9.82l-8.97-4.486a2.904 2.904 0 0 1-1.298-3.896 2.913 2.913 0 0 1 3.896-1.3l10.574 5.29a2.905 2.905 0 0 1 1.605 2.597v11.615a2.902 2.902 0 0 1-2.904 2.904zm11.616-11.615a2.902 2.902 0 0 1-2.904-2.904v-9.82l-9.126-4.563a2.904 2.904 0 1 1 2.598-5.195l10.73 5.365a2.905 2.905 0 0 1 1.605 2.598v11.615a2.902 2.902 0 0 1-2.903 2.904zm5.807-17.423a2.902 2.902 0 0 1-2.904-2.904v-8.711h-9.193a2.902 2.902 0 0 1-2.904-2.904 2.902 2.902 0 0 1 2.904-2.904h12.097a2.902 2.902 0 0 1 2.904 2.904v11.615a2.902 2.902 0 0 1-2.904 2.904z" fill="#e61e14"/><path d="M34.769 113.558a2.902 2.902 0 0 1-2.904-2.904V99.04c0-1.1.62-2.104 1.605-2.597l10.574-5.289a2.904 2.904 0 1 1 2.598 5.195l-8.97 4.486v9.82a2.902 2.902 0 0 1-2.903 2.904zm-11.616-11.615a2.902 2.902 0 0 1-2.903-2.904V87.424c0-1.1.62-2.104 1.605-2.598l10.73-5.365a2.904 2.904 0 1 1 2.598 5.195l-9.126 4.563v9.82a2.902 2.902 0 0 1-2.904 2.904zM17.346 84.52a2.902 2.902 0 0 1-2.904-2.904V70.001a2.902 2.902 0 0 1 2.904-2.904H28.96a2.902 2.902 0 0 1 2.904 2.904 2.902 2.902 0 0 1-2.904 2.904h-8.71v8.711a2.902 2.902 0 0 1-2.904 2.904z" fill="#fd3018"/><path d="M108.273 44.293c-.126-2.144-2.652-3.466-4.413-2.207-2.73 1.684-5.924 1.858-8.77.464-2.025-.952-4.306.593-4.182 2.846.485 3.87-1.214 7.7-4.007 10.493-1.58 1.338-1.164 3.951.698 4.82 3.252 1.394 6.388 3.31 9.698 5.808 1.141.888 2.885.764 3.95-.407l.696-.87c4.95-6.239 7.013-14.778 6.33-20.947z" fill="#e61e14"/><path d="M41.157 55.83a12.096 12.096 0 0 1-1.22-1.22c-2.21-2.578-3.144-6.405-2.788-9.272.13-2.318-2.24-3.911-4.239-2.788-2.73 1.394-6.214 1.162-8.595-.406-2.002-1.334-4.415.081-4.53 2.15-.633 6.324 1.34 14.613 6.272 20.829.232.348.523.638.755.929a3 3 0 0 0 2.207.987c.58 0 1.22-.174 1.742-.58 3.02-2.265 6.273-4.24 9.699-5.808.871-.407 1.51-1.22 1.626-2.207a2.77 2.77 0 0 0-.93-2.613z" fill="#fd3018"/><path d="M100.781 61.87c-3.658-2.729-7.201-4.878-10.743-6.504 0 0-7.492-3.369-14.23-4.588-4.297-.697-7.723-1.161-11.614-1.103-3.252 0-7.24.406-12.06 1.103-3.485.639-8.131 2.033-12.196 3.833-3.195 1.161-8.247 3.833-12.66 7.201-.117.117-.233.175-.35.29a2.986 2.986 0 0 0-.87 2.092v.929c0 .638.057 1.336.115 1.974.175 1.975.465 3.891.93 5.808 1.045 4.588 2.38 7.318 4.297 10.686 2.323 3.775 4.762 6.737 8.363 9.699 7.318 5.865 15.952 8.653 24.43 8.653 9.293 0 17.83-3.485 24.044-8.653 3.136-2.73 5.11-4.995 6.911-7.492a48.86 48.86 0 0 0 1.452-2.207c.522-.93 1.045-1.8 1.51-2.788 2.846-5.807 3.31-9.93 3.833-15.564v-1.045c0-.93-.407-1.8-1.162-2.324z" fill="#fd4e26"/><path d="M113.558 34.769c0-11.21-9.118-20.327-20.327-20.327h-5.807a2.875 2.875 0 0 0-2.904 2.904v17.423c0 8.084 6.66 14.518 14.52 14.518 7.47 0 14.518-6.053 14.518-14.518z" fill="#fd3018"/><path d="M40.576 14.442H34.77c-11.21 0-20.327 9.118-20.327 20.327 0 8.202 6.766 14.518 14.519 14.518 7.688 0 14.519-6.114 14.519-14.518V17.346a2.875 2.875 0 0 0-2.904-2.904z" fill="#fd4e26"/><path d="M101.943 64.194v1.045c-.523 5.633-.987 9.757-3.833 15.564-.465.987-.987 1.859-1.51 2.788a48.86 48.86 0 0 1-1.452 2.207c-1.8 2.497-3.775 4.762-6.91 7.492-6.215 5.168-14.752 8.653-24.044 8.653V49.675c3.89-.058 7.317.406 11.615 1.103 6.736 1.22 14.228 4.588 14.228 4.588 3.543 1.626 7.085 3.775 10.744 6.504.755.523 1.162 1.394 1.162 2.324z" fill="#fd3018"/></svg>