<svg xmlns="http://www.w3.org/2000/svg" width="128" height="128"><path d="M87.278 36.057l-1.05 1.634h-47.18l-.575-2.847c-.107-.528-2.522-13.012 6.387-19.21 3.617-2.516 8.357-3.056 12.937-3.577 2.42-.274 4.493-.544 6.208-.95 2.828-.666 4.682-1.7 5.5-3.746l1.574-3.937 3.6 2.238c.51.315 12.487 7.866 14.825 18.209.967 4.273.218 8.372-2.226 12.186zm0 0" fill="#e57500" stroke-width="1.333"/><path d="M86.228 37.691H64.005V11.107c2.828-.666 4.682-1.7 5.5-3.746l1.574-3.937 3.6 2.238c.51.315 12.487 7.866 14.825 18.209.967 4.273.218 8.372-2.226 12.186zm0 0" fill="#984c00" stroke-width="1.333"/><path d="M110.761 76.87L97.1 124.576H30.9L17.24 76.87zm0 0" fill="#fff3c9" stroke-width="1.333"/><g fill="#ffd9a7"><path d="M110.761 76.87L97.1 124.576H64.005V76.87zm0 0M49.667 124.576h-7.18l-6.24-43.65 7.034-1.006zm0 0"/><path d="M60.448 80.423h7.105v44.153h-7.105zm0 0"/></g><path d="M91.754 80.925l-6.24 43.651h-7.18L84.72 79.92zm0 0" fill="#fff3c9" stroke-width="1.333"/><path d="M64.005 80.423h3.548v44.153h-3.548zm0 0M91.754 80.925l-6.24 43.651h-7.18L84.72 79.92zm0 0" fill="#ffc273" stroke-width="1.333"/><path d="M104.678 45.71c0 8.34-6.782 15.123-15.122 15.123H38.444c-8.339 0-15.122-6.783-15.122-15.122 0-8.34 6.783-15.125 15.122-15.125h51.112c8.34 0 15.122 6.785 15.122 15.125zm0 0" fill="#984c00" stroke-width="1.333"/><path d="M89.556 60.833H64.005V30.586h25.551c8.34 0 15.122 6.785 15.122 15.125 0 8.339-6.782 15.122-15.122 15.122zm0 0" fill="#703700" stroke-width="1.333"/><path d="M117.24 68.85c0 8.34-6.782 15.125-15.121 15.125H25.882c-8.34 0-15.123-6.785-15.123-15.122 0-8.34 6.784-15.125 15.123-15.125h76.237c8.339 0 15.122 6.785 15.122 15.123zm0 0" fill="#e57500" stroke-width="1.333"/><path d="M117.24 68.85c0 8.34-6.782 15.125-15.121 15.125H64.005V53.728h38.114c8.339 0 15.122 6.785 15.122 15.123zm0 0" fill="#984c00" stroke-width="1.333"/></svg>