<svg xmlns="http://www.w3.org/2000/svg" width="128" height="128"><path d="M64 4.954C31.39 4.954 4.954 31.39 4.954 64S31.39 123.046 64 123.046 123.046 96.61 123.046 64 96.61 4.954 64 4.954zm0 80.149c-11.655 0-21.103-9.448-21.103-21.103 0-11.654 9.448-21.103 21.103-21.103 11.655 0 21.103 9.448 21.103 21.103 0 11.655-9.448 21.103-21.103 21.103z" fill="#fdba55"/><path d="M64 4.954C31.39 4.954 4.954 31.39 4.954 64c0 2.433.15 4.832.436 7.188 4.55 5.093 11.168 8.3 18.536 8.3 8.058 0 15.218-3.836 19.759-9.78A21.09 21.09 0 0 1 42.897 64c0-11.654 9.448-21.103 21.103-21.103 11.655 0 21.103 9.448 21.103 21.103a21.09 21.09 0 0 1-.788 5.707c4.54 5.945 11.701 9.781 19.759 9.781 7.368 0 13.985-3.207 18.535-8.3.287-2.356.437-4.754.437-7.188C123.046 31.39 96.61 4.954 64 4.954z" fill="#866539"/><path d="M95.924 55.331c-.488 0-.976-.186-1.348-.558l-5.49-5.489a1.907 1.907 0 1 1 2.698-2.698l5.489 5.49a1.907 1.907 0 0 1-1.349 3.255z" fill="#ff9596"/><path d="M111.645 52.587c-.488 0-.977-.186-1.35-.559l-5.488-5.488a1.907 1.907 0 1 1 2.697-2.698l5.49 5.489a1.907 1.907 0 0 1-1.35 3.256z" fill="#ff6376"/><path d="M99.432 70.634c-.488 0-.976-.186-1.349-.559l-5.49-5.489a1.907 1.907 0 1 1 2.698-2.697l5.49 5.488a1.907 1.907 0 0 1-1.35 3.257z" fill="#ffd553"/><path d="M67.186 36.062a1.9 1.9 0 0 1-1.349-.559l-5.49-5.489a1.907 1.907 0 1 1 2.698-2.697l5.49 5.489a1.907 1.907 0 0 1-1.349 3.256z" fill="#ff9596"/><path d="M23.656 52.587a1.9 1.9 0 0 1-1.349-.56l-5.489-5.488a1.907 1.907 0 1 1 2.698-2.697l5.489 5.488a1.907 1.907 0 0 1-1.349 3.257z" fill="#fff"/><path d="M20.912 70.634c-.488 0-.977-.186-1.35-.56l-5.488-5.488a1.907 1.907 0 1 1 2.697-2.697l5.49 5.489a1.907 1.907 0 0 1-1.35 3.256z" fill="#ff9596"/><path d="M40.605 43.737a1.907 1.907 0 0 1-1.35-3.256l5.49-5.49a1.907 1.907 0 1 1 2.698 2.698l-5.49 5.49a1.9 1.9 0 0 1-1.348.558z" fill="#ffd553"/><path d="M53.044 19.595a1.907 1.907 0 0 1-1.35-3.256l5.49-5.49a1.907 1.907 0 1 1 2.698 2.698l-5.49 5.489c-.372.372-.86.559-1.348.559z" fill="#fbd151"/><path d="M30.503 61.33a1.907 1.907 0 0 1-1.35-3.257l5.49-5.49a1.907 1.907 0 1 1 2.698 2.698l-5.489 5.49a1.9 1.9 0 0 1-1.349.558z" fill="#65f7c4"/><path d="M81.199 33.183a1.907 1.907 0 0 1-1.35-3.256l5.49-5.49a1.908 1.908 0 0 1 2.698 2.698l-5.49 5.49a1.9 1.9 0 0 1-1.348.558z" fill="#ffd553"/><g fill="#fff"><path d="M95.416 38.248a1.907 1.907 0 0 1-1.35-3.256l5.49-5.49a1.907 1.907 0 1 1 2.698 2.698l-5.49 5.49a1.9 1.9 0 0 1-1.348.558zM71.8 22.34a1.907 1.907 0 0 1-1.35-3.256l5.49-5.49a1.907 1.907 0 1 1 2.698 2.697l-5.49 5.49a1.9 1.9 0 0 1-1.348.558z"/></g><g fill="#65f7c4"><path d="M110.411 67.89a1.907 1.907 0 0 1-1.35-3.256l5.49-5.49a1.907 1.907 0 1 1 2.698 2.697l-5.49 5.49a1.9 1.9 0 0 1-1.348.558zM43.552 27.828c-.488 0-.976-.186-1.35-.558l-5.488-5.49a1.907 1.907 0 1 1 2.697-2.697l5.49 5.49a1.907 1.907 0 0 1-1.349 3.255z"/></g><path d="M31.857 38.298c-.488 0-.977-.186-1.35-.559l-5.489-5.489a1.907 1.907 0 1 1 2.698-2.698l5.49 5.49a1.907 1.907 0 0 1-1.35 3.256z" fill="#ff6376"/><g transform="matrix(.23065 0 0 .23065 4.954 4.954)" fill="#3f4963"><circle r="14.976" cy="385.818" cx="140.438"/><circle r="14.974" cy="385.818" cx="371.56"/></g><g fill="#ff6376"><path d="M41.041 106.014h-7.39a1.907 1.907 0 1 1 0-3.815h7.39a1.907 1.907 0 1 1 0 3.815zM94.349 106.014h-7.39a1.907 1.907 0 1 1 0-3.815h7.39a1.907 1.907 0 0 1 0 3.815z"/></g><g fill="#3f4963"><path d="M58.99 103.628a6.24 6.24 0 0 1-6.232-6.232 1.907 1.907 0 1 1 3.815 0 2.42 2.42 0 0 0 2.417 2.417 2.42 2.42 0 0 0 2.417-2.417 1.907 1.907 0 1 1 3.815 0 6.239 6.239 0 0 1-6.232 6.232z"/><path d="M67.64 103.628a6.24 6.24 0 0 1-6.233-6.232 1.907 1.907 0 1 1 3.815 0 2.42 2.42 0 0 0 2.417 2.417 2.42 2.42 0 0 0 2.417-2.417 1.907 1.907 0 1 1 3.815 0 6.24 6.24 0 0 1-6.232 6.232z"/></g></svg>