<svg xmlns="http://www.w3.org/2000/svg" width="128" height="128"><path d="M0 64C0 28.654 28.654 0 64 0c35.346 0 64 28.654 64 64l-64 5.565z" fill="#ffda44" stroke-width=".25"/><path d="M8.564 96C19.63 115.129 40.311 128 64 128s44.37-12.871 55.436-32L64 91.826z" fill="#d80027" stroke-width=".25"/><path d="M119.436 96C124.881 86.587 128 75.658 128 64H0c0 11.658 3.119 22.587 8.564 32z" fill="#0052b4" stroke-width=".25"/><circle cx="64" cy="64" r="22.261" fill="#ffda44" stroke-width=".25"/><path d="M64 77.913c-7.672 0-13.913-6.242-13.913-13.913v-8.348c0-7.671 6.242-13.913 13.913-13.913s13.913 6.242 13.913 13.913V64c0 7.672-6.241 13.913-13.913 13.913z" fill="#338af3" stroke-width=".25"/><path d="M86.26 30.609H69.566a5.565 5.565 0 0 0-11.13 0H41.739c0 3.073 2.677 5.565 5.75 5.565h-.185a5.565 5.565 0 0 0 5.565 5.565 5.565 5.565 0 0 0 5.566 5.566h11.13a5.565 5.565 0 0 0 5.565-5.566 5.565 5.565 0 0 0 5.566-5.565h-.186c3.074 0 5.75-2.492 5.75-5.565z" stroke-width=".25"/></svg>