<svg xmlns="http://www.w3.org/2000/svg" width="128" height="128"><circle cx="44.746" cy="67.661" r="40.821" fill="none" stroke="red" stroke-width="5.636" stroke-linejoin="round"/><ellipse cx="77.017" cy="64" rx="6.026" ry="6" fill="red"/><path d="M34.965 57.171l7.182-1.541-4.782-2.779L36 44l-5.022 2-4.01-5.956-3.497 5.596-6.399-.95L20 52l-5.28 4.363 6.516 2.863-.279 4.82 5.35-3.596 2.722 6.749 2.711-5.206 4.295 1.41zM82 46h24l6 6-6 6H86z" fill="red"/><rect width="12" height="4" x="15.889" y="111.521" rx="1" ry="1" transform="rotate(-60)" fill="red"/><rect ry="1" rx="1.228" y="109.129" x="45.247" height="4" width="14.732" transform="rotate(-45)" fill="red"/><rect width="13.989" height="4" x="114" y="50" rx="1.166" ry="1" fill="red"/><rect transform="scale(1 -1) rotate(-60)" ry="1" rx="1" y="59.717" x="105.616" height="4" width="12" fill="red"/><rect transform="scale(1 -1) rotate(-45)" width="14.732" height="4" x="118.509" y="35.867" rx="1.228" ry="1" fill="red"/><ellipse ry="6" rx="6.026" cy="64" cx="54" fill="red"/><path d="M77.254 86c0 2-4 4-12 4s-12-2-12-4c.994-2 4-4 12-4s11.03 2 12 4z" fill="red"/></svg>