<svg xmlns="http://www.w3.org/2000/svg" width="128" height="128"><path d="M82.833 37.912s1.326 4.426 8.63 8.891c7.303 4.465 11.847 3.629 11.847 3.629" fill="none" stroke="#00baff" stroke-width="8" stroke-linecap="round"/><path d="M6.328 51.622c53.357-23 112.474-8.597 112.474-8.597l-18.307-20.902s-53.452-9.178-83.29 4.152z" fill="#58d4ff"/><g transform="translate(-94.847 11.994)" fill="#00baff"><circle r="9.559" cy="48" cx="140.068"/><circle cx="177.627" cy="48" r="9.559"/></g><path d="M11.376 87.684c34.708-46.597 86.818-71.122 86.818-71.122L71.89 7.612S27.298 33.832 8.122 60.294z" fill="#58d4ff"/><circle cx="64" cy="64" r="57.944" fill="none" stroke="#00baff" stroke-width="8" stroke-linejoin="round"/><path d="M55.883 88.885c20.694-5.177 34.984 8.384 34.984 8.384" fill="none" stroke="#00baff" stroke-width="8" stroke-linecap="round"/></svg>