<svg xmlns="http://www.w3.org/2000/svg" width="128" height="128"><circle cx="64" cy="64" r="57.944" stroke-linejoin="round" stroke-width="8" stroke="#ffca24" fill="none"/><path d="M75 36s3.44-3.756 12-3.756S99 34 99 34m-70 1s3.44-6 12-6 12 6 12 6" stroke-linecap="round" stroke-width="8" stroke="#ffca24" fill="none"/><circle cx="42.441" cy="48" r="9.559" fill="#ffca24"/><circle r="9.559" cy="48" cx="85.559" fill="#ffca24"/><path d="M43 81s6.429-5 19.286-5C75.143 76 88 84 88 84" stroke-linecap="round" stroke-width="7.171" stroke="#ffca24" fill="none"/><path d="M48.267 125.351s3.942-1.28 4.453-4.213c.539-3.025-1.945-3.636-1.945-3.636s3.244-.648 3.652-4.288c.383-3.428-2.686-4.247-2.686-4.247s3.023-1.246 3.166-4.796c.118-2.988-3.1-4.45-3.1-4.45s15.542-5.361 17.153-5.735c2.346-1.173 3.519-1.81 3.49-3.721-1.144-2.144-3.124-2.502-4.663-2.144-1.54.362-21.642 3.901-28.36 5.466-.717.165-5.25 1.472-5.657 1.572-1.78.316-2.347-2.346-3.52-5.865-1.173-4.692-1.173-7.038-1.173-10.557 0-3.52-1.173-7.038-3.519-7.038-4.692 0-4.692 4.692-4.692 9.384 0 7.038.17 7.734-2.177 11.253-3.519 5.865-4.88 8.72-2.515 18.934 2.577 11.14 11.125 18.787 22.265 16.207.589-.131 9.828-2.126 9.828-2.126" fill="#e5ad00"/></svg>