<svg xmlns="http://www.w3.org/2000/svg" width="128" height="128"><g transform="translate(.703 95.649) scale(.24725)"><path d="M291.484-270.752c-11.393-32.253-46.776-49.164-79.029-37.771l-61.683 21.789 25.245 71.466 119.719-43.45z" fill="#fbbf00"/><g fill="#ffa900"><path d="M176.017-40.733l-25.245 71.466 61.683 21.789c32.253 11.393 67.636-5.517 79.029-37.77l4.251-12.035z"/><path d="M328.793-264.244c-99.049 0-217.351 78.811-249.175 119.559v33.368C111.441-70.568 229.743 8.242 328.793 8.242 444.378 8.243 512-128 512-128s-67.622-136.244-183.207-136.244z"/></g><path d="M79.618-128v16.684C111.441-70.567 229.743 8.243 328.793 8.243 444.378 8.243 512-128 512-128z" fill="#f80"/><path d="M512-128s-47.006-94.673-129.609-126.174c-25.911 34.944-41.323 78.691-41.323 126.173s15.411 91.229 41.323 126.174C464.994-33.327 512-128 512-128z" fill="#fbbf00"/><path d="M512-128H341.068c0 47.482 15.411 91.229 41.323 126.174C464.994-33.327 512-128 512-128z" fill="#ffa900"/><circle r="15" cy="-162.37" cx="416.24" fill="#333"/><path d="M33.53-128h-7.088C11.838-128 0-139.838 0-154.442v-62.027h7.994c41.131 0 74.474 33.343 74.474 74.474v27.989c0 41.131-33.343 74.474-74.474 74.474H0v-62.027C0-116.162 11.838-128 26.442-128" fill="#f80"/><path d="M33.53-128h48.939v13.995c0 41.131-33.343 74.474-74.474 74.474H0v-62.027C0-116.162 11.838-128 26.442-128" fill="#e47700"/></g></svg>