<svg xmlns="http://www.w3.org/2000/svg" width="128" height="128"><circle cx="64" cy="64" r="64" fill="#f0f0f0" stroke-width=".25"/><path d="M2.205 80.696c5.91 21.925 23.173 39.19 45.1 45.1v-45.1z" fill="#d80027" stroke-width=".25"/><path d="M47.304 2.205c-21.926 5.909-39.19 23.173-45.1 45.1h45.1v-45.1z" fill="#0052b4" stroke-width=".25"/><path d="M125.795 47.304c-5.909-21.926-23.174-39.19-45.1-45.1v45.1h45.1z" fill="#d80027" stroke-width=".25"/><path d="M80.696 125.795c21.925-5.91 39.19-23.174 45.1-45.1h-45.1z" fill="#0052b4" stroke-width=".25"/><path d="M80.696 64c0 9.221-7.475 16.696-16.696 16.696-9.22 0-16.696-7.475-16.696-16.696C47.304 54.779 64 47.304 64 47.304S80.696 54.78 80.696 64z" fill="#496e2d" stroke-width=".25"/><path d="M47.304 64c0-9.221 7.475-16.696 16.696-16.696 9.221 0 16.696 7.475 16.696 16.696" fill="#0052b4" stroke-width=".25"/><path d="M54.609 55.652v10.435A9.391 9.391 0 0 0 64 75.478a9.391 9.391 0 0 0 9.391-9.391V55.652z" fill="#d80027" stroke-width=".25"/></svg>