<svg xmlns="http://www.w3.org/2000/svg" width="128" height="128"><circle cx="64" cy="64" r="64" fill="#f0f0f0" stroke-width=".25"/><path d="M64 128c35.346 0 64-28.654 64-64a63.856 63.856 0 0 0-3.98-22.26H3.98A63.862 63.862 0 0 0 0 64c0 35.346 28.654 64 64 64z" fill="#0052b4" stroke-width=".25"/><path d="M64 128c27.518 0 50.977-17.368 60.02-41.74H3.98C13.024 110.633 36.483 128 64 128z" fill="#d80027" stroke-width=".25"/><path d="M16.55 36.174v31.927c0 18.16 23.725 23.725 23.725 23.725S64 86.262 64 68.101V36.173z" fill="#f0f0f0" stroke-width=".25"/><path d="M22.115 36.174v31.927c0 2.131.473 4.145 1.411 6.033h33.497a13.388 13.388 0 0 0 1.411-6.034V36.174z" fill="#d80027" stroke-width=".25"/><path fill="#f0f0f0" d="M48.623 47.304h-5.566V41.74h-5.565v5.565h-5.565v5.566h5.565v5.565h-8.348V64h8.348v5.565h5.566V64h8.347v-5.565h-8.348v-5.566h5.566z"/><path d="M31.118 81.903c3.586 2.253 7.27 3.562 9.157 4.144 1.886-.582 5.57-1.89 9.157-4.144 3.616-2.274 6.151-4.873 7.591-7.77a9.694 9.694 0 0 0-5.618-1.785c-.762 0-1.502.09-2.214.256a9.74 9.74 0 0 0-8.916-5.821 9.74 9.74 0 0 0-8.916 5.821 9.748 9.748 0 0 0-2.214-.256 9.69 9.69 0 0 0-5.618 1.786c1.439 2.896 3.974 5.495 7.59 7.768z" fill="#0052b4" stroke-width=".25"/></svg>