<svg xmlns="http://www.w3.org/2000/svg" width="128" height="128"><circle cx="64" cy="64" r="64" fill="#f0f0f0" stroke-width=".25"/><path d="M64 128c25.373 0 47.297-14.766 57.65-36.174H6.35C16.703 113.234 38.627 128 64 128zM64 0C38.627 0 16.703 14.766 6.35 36.174h115.3C111.296 14.766 89.372 0 64 0zM44.811 58.435l-5.425-3.942-5.425 3.942 2.072-6.378-5.424-3.94h6.705l2.072-6.378 2.072 6.378h6.706l-5.425 3.94zm0 27.825l-5.425-3.94-5.425 3.94 2.072-6.376-5.424-3.941h6.705l2.072-6.378 2.072 6.378h6.706l-5.425 3.94zm49.228-27.825l-5.425-3.942-5.425 3.942 2.072-6.378-5.425-3.94h6.706l2.072-6.378 2.072 6.378h6.705l-5.425 3.94zm0 27.825l-5.425-3.94-5.425 3.94 2.072-6.376-5.425-3.941h6.706l2.072-6.378 2.072 6.378h6.705l-5.425 3.94zM69.425 72.348L64 68.406l-5.425 3.942 2.072-6.377-5.425-3.941h6.706L64 55.652l2.072 6.378h6.706l-5.425 3.94z" fill="#338af3"/></svg>