<svg xmlns="http://www.w3.org/2000/svg" width="128" height="128"><path d="M128 64a63.856 63.856 0 0 0-3.98-22.26L64 38.955 3.98 41.74A63.864 63.864 0 0 0 0 64a63.862 63.862 0 0 0 3.98 22.26L64 89.044l60.02-2.782A63.858 63.858 0 0 0 128 64z" fill="#d80027" stroke-width=".25"/><path d="M64 128c27.518 0 50.977-17.368 60.02-41.74H3.98C13.024 110.633 36.483 128 64 128z" fill="#6da544" stroke-width=".25"/><path d="M3.98 41.74h120.04C114.976 17.367 91.517 0 64 0S13.023 17.368 3.98 41.74z" fill="#338af3" stroke-width=".25"/><g fill="#f0f0f0"><path d="M65.391 82.087c-9.989 0-18.087-8.098-18.087-18.087 0-9.989 8.098-18.087 18.087-18.087 3.115 0 6.045.787 8.604 2.174a22.185 22.185 0 0 0-15.56-6.348c-12.295 0-22.261 9.966-22.261 22.26 0 12.295 9.967 22.261 22.26 22.261a22.184 22.184 0 0 0 15.561-6.347 17.999 17.999 0 0 1-8.604 2.174z"/><path d="M91.826 64l-6.738 2.396 3.07 6.459-6.458-3.071-2.396 6.738-2.395-6.738-6.459 3.07 3.07-6.458L66.784 64l6.737-2.396-3.07-6.459 6.459 3.071 2.395-6.738 2.396 6.738 6.459-3.07-3.07 6.458z"/></g></svg>