<svg xmlns="http://www.w3.org/2000/svg" width="128" height="128"><circle cx="64" cy="64" r="64" fill="#d80027"/><path d="M101.822 52.523H72.928L64 25.043l-8.928 27.48H26.178l23.375 16.982-8.928 27.48L64 80.002l23.376 16.984-8.93-27.48zM56.095 67.38l3.02-9.292h9.77l3.02 9.292L64 73.123l-7.904-5.743zm10.982-14.857h-6.154L64 43.053zm9.561 11.417l-1.902-5.852h9.958zm-23.375-5.852l-1.901 5.852-8.056-5.852zM51.21 82.415l3.077-9.47 4.979 3.618zm17.524-5.852l4.979-3.617 3.077 9.47z" fill="#049a04"/></svg>