<svg xmlns="http://www.w3.org/2000/svg" width="128" height="128"><path d="M128 64c0 35.346-28.654 64-64 64-35.346 0-64-28.654-64-64C0 64.015 64 .007 64 0c35.346 0 64 28.654 64 64z" fill="#0052b4"/><g fill="#f0f0f0"><path d="M64 0h-.01zm-.171 64H64v-.171l-.171.171z"/><path d="M64 33.392V0h-.01C28.647.006 0 28.657 0 64h33.391V45.197L52.194 64H63.83l.171-.171V52.195L45.197 33.392z"/></g><g fill="#d80027"><path d="M32.379 8.348a64.305 64.305 0 0 0-24.031 24.03V64h16.695V25.044H64V8.348H32.379z"/><path d="M64 56.13L41.262 33.392h-7.87L64 64v-7.87z"/></g><path d="M52.87 93.025l-7.942 1.79.022 8.142-6.351-5.094-6.351 5.094.022-8.141-7.942-1.79 6.379-5.059-3.553-7.325 7.933 1.833 3.512-7.344 3.512 7.344 7.932-1.833-3.552 7.325zm50.087 4.966l-3.971.895.01 4.07-3.175-2.546-3.175 2.547.01-4.071-3.97-.895 3.189-2.53-1.776-3.662 3.966.917 1.756-3.672 1.756 3.672 3.966-.917-1.776 3.663zM86.618 59.035l-3.97.895.01 4.07-3.175-2.547L76.308 64l.01-4.07-3.97-.895 3.189-2.53-1.776-3.663 3.966.918 1.756-3.673 1.756 3.672 3.966-.916-1.776 3.662zm16.338-22.262l-3.97.896.01 4.07-3.175-2.546-3.175 2.546.01-4.07-3.97-.895 3.189-2.53-1.776-3.662 3.966.916 1.756-3.672 1.756 3.672 3.966-.916-1.776 3.663zm14.271 16.697l-3.97.895.01 4.07-3.175-2.547-3.175 2.547.01-4.07-3.97-.896 3.189-2.529-1.776-3.663 3.965.917 1.757-3.672 1.756 3.672 3.966-.917-1.776 3.663zm-13.723 21.66l-3.617-2.627-3.616 2.627 1.381-4.25-3.616-2.629h4.47L99.888 64l1.38 4.251h4.471l-3.617 2.628z" fill="#f0f0f0"/></svg>