<svg xmlns="http://www.w3.org/2000/svg" width="128" height="128"><path d="M124.02 86.26A63.856 63.856 0 0 0 128 64a63.856 63.856 0 0 0-3.98-22.26L64 36.173 3.98 41.739A63.856 63.856 0 0 0 0 64a63.856 63.856 0 0 0 3.98 22.26L64 91.827z" fill="#6da544" stroke-width=".25"/><path d="M124.02 41.74C114.976 17.367 91.517 0 64 0S13.023 17.368 3.98 41.74z" fill="#ffda44" stroke-width=".25"/><path d="M64 128c27.518 0 50.977-17.368 60.02-41.74H3.98C13.024 110.633 36.483 128 64 128z" fill="#d80027" stroke-width=".25"/></svg>