<svg xmlns="http://www.w3.org/2000/svg" width="128" height="128"><path d="M128 64c0 35.346-28.654 64-64 64-35.346 0-64-28.654-64-64C0 64.015 64 .007 64 0c35.346 0 64 28.654 64 64z" fill="#0052b4" stroke-width=".25"/><g fill="#f0f0f0"><path d="M64 0h-.01zm-.171 64H64v-.171l-.171.171z"/><path d="M64 33.391V0h-.01C28.647.006 0 28.657 0 64h33.391V45.197L52.194 64H63.83l.171-.171V52.194L45.197 33.391z"/></g><g fill="#d80027"><path d="M32.379 8.348a64.305 64.305 0 0 0-24.031 24.03V64h16.695V25.044H64V8.348H32.379z"/><path d="M64 56.13L41.262 33.39h-7.87v.001L64 64v-7.87zm43.216 2.49l1.381-4.251-3.616-2.628h4.47l1.382-4.251 1.38 4.251h4.471l-3.617 2.628 1.382 4.251-3.617-2.627zM89.428 94.794l2.072-6.377-5.425-3.941h6.706l2.072-6.378 2.072 6.378h6.705l-5.425 3.94 2.073 6.378-5.425-3.941zm1.508-52.869l1.726-5.315-4.52-3.284h5.588l1.726-5.314 1.727 5.314h5.588L98.25 36.61l1.727 5.315-4.52-3.285zM74.656 64l2.072-6.377-5.425-3.941h6.705l2.073-6.378 2.072 6.378h6.705l-5.425 3.94L85.505 64l-5.424-3.941z"/></g></svg>