<svg xmlns="http://www.w3.org/2000/svg" width="128" height="128"><path d="M117.569 97.013c0 28.034-71.688 25.116-76.407 23.322-5.74-2.182-33.192 6.035-31.458-7.187.975-7.427 2.134-10.35 2.177-26.188.031-11.659 4.17-17.941 6.654-25.05 3.74-10.705 6.476-19.844 7.678-24.652.499-1.995-.678-11.593 3.322-17.593 6.56-9.84 8.78-12.95 12.78-12.95 3.807 0 13.954 3.695 21.38 6.555 2.952 1.138 2.12 8.44 1.54 9.053-2.747 2.9-17.754 9.493-19.526 6.39-1.317-2.303-.913-4.97.146-5.546 3.597-1.958 4.083.712 4.683 1.421.302.356-.14-1.444.57-2.076.738-.659 6.368-2.643 6.405-3.15.062-.833-6.918.54-7.28.572-1.5.132-3.723.027-4.735-.56-.794-.461-2.865-2.891-2.75-2.365.258 1.188.122 3.29.338 4.66.209 1.325-1.402 3.68-1.402 4.684 0 2 2.63 7.855 4.801 7.762 12.373-.527 14.955-7.424 17.927-6.214 1.8.732 3.315 5.094 1.774 6.758-3.729 4.027-5.947 4.008-8.555 8.396-3.109 5.231-13.451 5.633-13.672 9.366-1.335 22.605.319 30.506-1.804 41.532-.378 1.964 11.9-28.948 36.895-28.492 19.404.354 38.519 17.552 38.519 31.552z" fill="#fefefe" stroke-width="8" stroke-linejoin="round"/></svg>