<svg xmlns="http://www.w3.org/2000/svg" width="128" height="128"><path d="M33.629 106.466c-3.73 0-6.781-3.052-6.781-6.78V77.727c0-3.73 3.051-6.78 6.78-6.78 3.73 0 6.782 3.05 6.782 6.78v21.957c-.001 3.73-3.052 6.781-6.781 6.781zm0 0" fill="#c97436"/><path d="M48.76 50.249H18.497s-6.08 14.197-13.863 25.06c-1.488 2.076.01 4.966 2.565 4.945 4.322-.032 9.263-.14 9.263-.14l-.98 5.55c-.512 2.904 2.237 5.32 5.048 4.43 4.387-1.388 10.046-3.793 13.099-7.548 3.054 3.755 8.712 6.16 13.1 7.548 2.81.89 5.56-1.526 5.047-4.43l-.98-5.55s4.942.108 9.264.14c2.555.02 4.052-2.869 2.565-4.945-7.783-10.863-13.863-25.06-13.863-25.06zm0 0" fill="#585d1e"/><path d="M53.975 50.474c-7.085-5.982-12.921-13.917-16.498-19.387-1.817-2.778-5.88-2.778-7.696 0-3.578 5.47-9.414 13.405-16.499 19.387-1.793 1.515-.541 4.44 1.794 4.209l10.014-.99 4.904 5.474a4.88 4.88 0 0 0 7.269 0l4.903-5.474 10.015.99c2.335.23 3.588-2.694 1.794-4.21zm0 0" fill="#747b28"/><path d="M94.372 106.466c-3.73 0-6.781-3.052-6.781-6.78V77.727c0-3.73 3.05-6.78 6.78-6.78 3.73 0 6.782 3.05 6.782 6.78v21.957c-.001 3.73-3.052 6.781-6.781 6.781zm0 0" fill="#c97436"/><path d="M109.504 50.249H79.24s-6.081 14.197-13.864 25.06c-1.488 2.076.01 4.966 2.565 4.945 4.322-.032 9.263-.14 9.263-.14l-.98 5.55c-.512 2.904 2.237 5.32 5.048 4.43 4.386-1.388 10.046-3.793 13.1-7.548 3.053 3.755 8.712 6.16 13.099 7.548 2.811.89 5.56-1.526 5.047-4.43l-.979-5.55s4.941.108 9.262.14c2.555.02 4.054-2.869 2.566-4.945-7.783-10.863-13.863-25.06-13.863-25.06zm0 0" fill="#a26217"/><path d="M114.717 50.474c-7.084-5.982-12.92-13.917-16.497-19.387-1.817-2.778-5.88-2.778-7.696 0-3.578 5.47-9.414 13.405-16.5 19.387-1.792 1.515-.54 4.44 1.795 4.209l10.014-.99 4.904 5.474a4.88 4.88 0 0 0 7.268 0l4.904-5.474 10.014.99c2.336.23 3.588-2.694 1.794-4.21zm0 0" fill="#cb7b1d"/><path d="M64 112.915c-4.455 0-8.1-3.645-8.1-8.1v-26.23c0-4.454 3.645-8.099 8.1-8.099s8.1 3.645 8.1 8.1v26.23c0 4.455-3.645 8.1-8.1 8.1zm0 0" fill="#c97436"/><path d="M64 70.486c-4.455 0-8.1 3.645-8.1 8.1v20.171c7.557-.67 13.097-4.573 16.2-7.42v-12.75c0-4.456-3.645-8.1-8.1-8.1zm0 0" fill="#d18954"/><path d="M82.076 40.463H45.924s-7.264 16.96-16.56 29.935c-1.778 2.482.012 5.932 3.064 5.909 5.162-.04 11.064-.168 11.064-.168l-1.169 6.63c-.613 3.468 2.671 6.354 6.03 5.292 5.24-1.66 12-4.531 15.647-9.017 3.648 4.486 10.407 7.358 15.648 9.017 3.358 1.062 6.642-1.824 6.03-5.292l-1.17-6.63s5.902.128 11.064.168c3.051.023 4.842-3.427 3.065-5.909-9.297-12.975-16.561-29.935-16.561-29.935zm0 0" fill="#883610"/><path d="M88.304 40.733c-8.462-7.146-15.434-16.626-19.708-23.16-2.17-3.318-7.022-3.318-9.193 0-4.273 6.535-11.245 16.014-19.707 23.16-2.143 1.808-.648 5.303 2.143 5.028L53.8 44.577l5.859 6.539a5.828 5.828 0 0 0 8.682 0l5.858-6.539 11.962 1.184c2.79.275 4.286-3.22 2.143-5.028zm0 0" fill="#b84916"/></svg>