<svg xmlns="http://www.w3.org/2000/svg" width="128" height="128"><g style="line-height:1.25;-inkscape-font-specification:Jura"><path d="M50.928 28.24q4.249 0 4.249 4.25v52.704q0 7.486-3.54 11.027-3.541 3.54-11.027 3.54H21.794q-12.24 0-14.163-10.015-.1-.303-.1-1.011 0-1.619 1.112-2.63 1.113-.91 3.136-.91 1.82 0 2.731.91.91 1.011 1.619 3.237.607 1.113 1.82 1.517 1.316.405 3.845.405H40.61q3.743 0 4.855-1.214 1.214-1.113 1.214-4.856V73.46q-2.731 2.933-6.777 4.552-4.047 1.517-9.004 1.517h-3.844q-10.116 0-14.972-4.855-4.855-4.856-4.855-14.871V48.068q0-10.217 4.855-15.073 4.856-4.856 14.972-4.754h8.295q7.284 0 11.33 4.248 0-4.248 4.25-4.248zm-20.03 42.792q7.082 0 11.431-1.72 4.35-1.82 4.35-5.26V43.819q0-3.945-2.832-5.462-2.833-1.619-8.498-1.619h-8.295q-4.45-.101-6.879.91-2.428 1.012-3.44 3.44-1.01 2.428-1.01 6.98v11.735q0 4.45 1.01 6.879 1.012 2.326 3.44 3.338t6.88 1.012zm85.627-42.792q4.248 0 4.248 4.25v52.704q0 7.486-3.54 11.027-3.54 3.54-11.027 3.54H87.39q-12.24 0-14.162-10.015-.101-.303-.101-1.011 0-1.619 1.112-2.63 1.113-.91 3.136-.91 1.821 0 2.732.91.91 1.011 1.618 3.237.607 1.113 1.821 1.517 1.315.405 3.844.405h18.816q3.743 0 4.856-1.214 1.214-1.113 1.214-4.856V73.46q-2.731 2.933-6.778 4.552-4.046 1.517-9.003 1.517H92.65q-10.116 0-14.972-4.855-4.856-4.856-4.856-14.871V48.068q0-10.217 4.856-15.073t14.972-4.754h8.295q7.283 0 11.33 4.248 0-4.248 4.249-4.248zm-20.03 42.792q7.081 0 11.431-1.72 4.35-1.82 4.35-5.26V43.819q0-3.945-2.833-5.462-2.832-1.619-8.497-1.619H92.65q-4.451-.101-6.88.91-2.427 1.012-3.439 3.44-1.011 2.428-1.011 6.98v11.735q0 4.45 1.011 6.879 1.012 2.326 3.44 3.338t6.879 1.012z" style="-inkscape-font-specification:'Jura Bold'" aria-label="gg" font-weight="700" font-size="101.161" font-family="Jura" letter-spacing="0" word-spacing="0" fill="#fff"/></g></svg>