<svg xmlns="http://www.w3.org/2000/svg" width="128" height="128"><path d="M93.688 32.999c0 16.396-13.292 29.688-29.688 29.688S34.311 49.395 34.311 33C34.311 16.602 47.604 3.31 64 3.31S93.688 16.602 93.688 33zm0 0" fill="#ff9ba0" stroke-width=".24"/><path d="M91.214 52.791H36.786a4.948 4.948 0 1 1 0-9.896h54.428a4.948 4.948 0 1 1 0 9.896zm0 0" fill="#ff9ba0" stroke-width=".24"/><path d="M37.433 54.6l24.744 69.06c.492 1.372 3.154 1.372 3.645 0L90.565 54.6zm0 0" fill="#f7d291" stroke-width=".205"/><path d="M61.931 60.025h26.691l1.943-5.426H37.433l24.744 69.062c.2.554.757.884 1.38.99l-6.558-60.724c-.227-2.104 2.046-3.902 4.932-3.902zm0 0" fill="#f0c382" stroke-width=".205"/><path d="M58.564 113.575l5.435-3.973 5.436 3.974 1.452-4.053-3.39-2.478 5.796-4.236 2.482-6.93-1.385 1.013-6.892-5.038 6.892-5.039 3.672 2.684 1.451-4.053-1.625-1.188 2.779-2.031 3.16-8.818-5.94-4.342 6.893-5.038 1.908 1.394 3.836-10.707-5.744 4.199-5.903-4.316h-8.976L64 58.915l-5.904-4.316h-8.974l-5.903 4.316-5.744-4.199 3.837 10.707 1.907-1.394 6.892 5.038-5.938 4.34 3.159 8.82 2.778 2.03-1.624 1.189 1.451 4.053 3.672-2.684 6.892 5.039-6.892 5.038-1.386-1.013 2.483 6.93 5.795 4.236-3.39 2.477zm22.718-36.912l-6.892 5.038-6.891-5.039 6.891-5.037zm-6.892-20.23l6.892 5.04-6.892 5.037-6.892-5.038zm-3.499 12.634L64 74.105l-6.893-5.038L64 64.03zm-24.174-7.595l6.892-5.038 6.892 5.038-6.892 5.038zm0 15.19l6.892-5.038 6.892 5.038-6.892 5.039zm10.39 7.596L64 79.22l6.893 5.038L64 89.296zm0 15.192L64 94.41l6.893 5.04L64 104.488zm0 0" fill="#f0c382" stroke-width=".205"/><path d="M37.475 54.716l3.837 10.707 1.908-1.394 6.891 5.038-5.938 4.34 3.159 8.82 2.778 2.03-1.624 1.189 1.451 4.053 3.672-2.684 6.364 4.653-.6-5.553-2.266-1.657 1.935-1.415-.512-4.74-4.921 3.597-6.893-5.038 6.893-5.038 4.582 3.35-.599-5.553-.485-.355.414-.302-.512-4.741-3.4 2.487-6.893-5.039 6.893-5.037 5.678 4.15a6.321 6.321 0 0 1 2.644-.559h7.545l4.913-3.591 4.913 3.591h9.319l1.903-5.31-5.745 4.2-5.902-4.316h-8.976l-5.903 4.316-5.903-4.316h-8.974l-5.904 4.316zm0 0M61.155 102.409l-4.048-2.96 3.456-2.527-.512-4.74-6.442 4.71-1.385-1.012 2.483 6.93 5.794 4.235-3.39 2.477 1.453 4.053 3.52-2.572zm0 0" fill="#e3aa75" stroke-width=".205"/><path d="M91.214 56.408H36.786c-1.367 0-2.475-.81-2.475-1.808 0-1 1.108-1.809 2.475-1.809h54.428c1.366 0 2.474.81 2.474 1.809 0 .998-1.108 1.808-2.474 1.808zm0 0" fill="#f7d291" stroke-width=".205"/><path d="M56.577 54.6c0-1 1.108-1.809 2.475-1.809H36.786c-1.367 0-2.475.81-2.475 1.809 0 .998 1.108 1.808 2.475 1.808h22.266c-1.367 0-2.475-.81-2.475-1.808zm0 0" fill="#f0c382" stroke-width=".205"/><path d="M49.156 47.843a2.474 2.474 0 0 1 0-4.948c2.399 0 3.742-2.809 2.187-4.636-3.932-4.619-5.898-10.411-5.898-16.393A29.568 29.568 0 0 1 49.323 7.19c-8.967 5.108-15.01 14.752-15.01 25.81 0 3.475.628 6.796 1.725 9.896h.748a4.951 4.951 0 0 0-4.88 5.778c.395 2.433 2.68 4.118 5.145 4.118h54.163a4.948 4.948 0 0 0 4.948-4.948zm0 0" fill="#ff8087" stroke-width=".24"/></svg>