<svg xmlns="http://www.w3.org/2000/svg" width="128" height="128"><circle cx="64" cy="64" r="57.944" fill="none" stroke="#ca36e6" stroke-width="8" stroke-linejoin="round"/><g transform="translate(-94.848 24)" fill="#ca36e6"><circle r="9.559" cy="48" cx="140.068"/><circle cx="177.627" cy="48" r="9.559"/></g><path d="M30.818 54.555s4.121-2.089 12.39.127C51.475 56.897 54 60.767 54 60.767m20 0s2.524-3.87 10.793-6.085c8.268-2.216 12.39-.127 12.39-.127" fill="none" stroke="#ca36e6" stroke-width="8" stroke-linecap="round"/><path d="M100.222 15.641c6.644-.135 15.803-1.963 22.447-6.302 0 17.763-7.23 24.788-7.23 24.788zm-72.57 0c-6.644-.135-15.803-1.963-22.447-6.302 0 17.763 7.23 24.788 7.23 24.788z" fill="#ca36e6" stroke="#ca36e6" stroke-width="8"/><path d="M36 88c24 12 32 12 56 0-12 16-24 16-28 16s-16 0-28-16z" fill="#ca36e6"/></svg>