<svg xmlns="http://www.w3.org/2000/svg" width="128" height="128"><circle cx="64" cy="64" r="64" fill="#f0f0f0"/><path d="M64 0C38.627 0 16.703 14.766 6.35 36.174h115.3C111.296 14.766 89.372 0 64 0z" fill="#ff9811"/><path d="M64 128c25.373 0 47.297-14.766 57.65-36.174H6.35C16.703 113.234 38.627 128 64 128z" fill="#6da544"/><circle cx="64" cy="64" r="22.261" fill="#0052b4"/><circle cx="64" cy="64" r="13.913" fill="#f0f0f0"/><path fill="#0052b4" d="M78.868 72.584l-10.576-1.15L64 81.168l-4.292-9.734-10.576 1.15L55.416 64l-6.284-8.584 10.576 1.15L64 46.831l4.292 9.735 10.576-1.15L72.584 64z"/></svg>