<svg xmlns="http://www.w3.org/2000/svg" width="128" height="128"><circle cx="64" cy="64" r="57.944" fill="none" stroke="#00ff28" stroke-width="8" stroke-linejoin="round"/><path d="M96 84s-9.525 16-32 16-30.93-16-30.93-16h31.201z" fill="#0f0" stroke="#00ff28" stroke-width="9.412" stroke-linecap="round"/><path d="M33.278 69.722a7.778 7.778 0 1 1-11-11C25.316 55.685 40 52 40 52s-3.685 14.684-6.722 17.722z" fill="#0f0"/><path d="M30.034 49.143S33.462 40 42.034 40c8.571 0 12 9.143 12 9.143m19.593 0S77.056 40 85.627 40c8.572 0 12 9.143 12 9.143" fill="none" stroke="#00ff28" stroke-width="8" stroke-linecap="round"/><path d="M105.722 58.722a7.778 7.778 0 1 1-11 11C91.685 66.684 88 52 88 52s14.684 3.685 17.722 6.722z" fill="#0f0"/></svg>