<svg xmlns="http://www.w3.org/2000/svg" width="128" height="128"><defs><clipPath id="a"><path d="M-45.534 209.35l29.33 16.933v33.867l-29.33 16.933-29.33-16.933v-33.867z" fill-opacity=".506" stroke="#fff" stroke-width="2.117" stroke-opacity=".502"/></clipPath></defs><path transform="rotate(-150 -63.137 239.85) scale(1.87368)" d="M-45.534 209.35l29.33 16.933v33.867l-29.33 16.933-29.33-16.933v-33.867z" clip-path="url(#a)" stroke="#fff" stroke-width="4.011"/><path d="M64 26.5A37.5 37.5 0 0 0 26.5 64 37.5 37.5 0 0 0 64 101.5 37.5 37.5 0 0 0 101.5 64 37.5 37.5 0 0 0 64 26.5zm14.205 14.78c.244 0 .487.093.674.279l4.142 4.189a.955.955 0 0 1 0 1.348l-3.443 3.443a.955.955 0 0 1-1.262.076l-4.677-3.644a.955.955 0 0 1-.373-.698v-.056a.958.958 0 0 1 .287-.68l3.978-3.978a.954.954 0 0 1 .674-.28zm-9.057 3.722a.957.957 0 0 1 .647.201l13.838 10.662a13.76 13.76 0 0 1-.516 2.02 13.801 13.801 0 0 1-9.049 9.037c-.664.215-1.341.386-2.027.516L61.359 53.636a.955.955 0 0 1 .077-1.262l7.095-7.096a.956.956 0 0 1 .617-.277zm16.225 11.86c1.498.373 4.582.027 4.582.027.602 3.244-.106 8.194-4.45 12.537-4.141 4.142-10.504 4.85-12.767 4.195 0 0 .489-2.296.412-3.418a4.673 4.673 0 0 0-.113-1.016c.624-.14 1.24-.311 1.846-.515a15.663 15.663 0 0 0 9.955-9.975c.212-.601.39-1.214.535-1.836zm-23.209.681c.218.005.443.076.57.242l3.56 4.746c.27.435.228.96-.21 1.4l-22.457 22.52v-.01a.955.955 0 0 1-1.348 0l-4.14-4.14a.958.958 0 0 1 0-1.35l23.492-23.25c.104-.1.315-.163.533-.158z" fill="#fff"/></svg>