<svg xmlns="http://www.w3.org/2000/svg" width="128" height="128"><defs><clipPath id="a"><path d="M-45.534 209.35l29.33 16.933v33.867l-29.33 16.933-29.33-16.933v-33.867z" fill-opacity=".506" stroke="#fff" stroke-width="2.117" stroke-opacity=".502"/></clipPath></defs><path transform="rotate(-150 -63.137 239.85) scale(1.87368)" d="M-45.534 209.35l29.33 16.933v33.867l-29.33 16.933-29.33-16.933v-33.867z" clip-path="url(#a)" stroke="#fff" stroke-width="4.011"/><path d="M63.114 26.51a37.5 37.5 0 0 0-17.863 5.015 37.5 37.5 0 0 0-13.727 51.226 37.5 37.5 0 0 0 51.225 13.725A37.5 37.5 0 0 0 96.476 45.25a37.5 37.5 0 0 0-33.362-18.74zm.89 8.136c6.659 0 12.867 3.651 17.482 10.285a31.227 31.227 0 0 1 .79 1.211h.012l.168.276c-.059-.093-.122-.18-.18-.276h-36.56a32.891 32.89 0 0 1 .804-1.211c4.613-6.634 10.822-10.285 17.482-10.285zm-20.54 15.677h41.079a40.06 40.06 0 0 1 1.975 5.314 7.92 7.92 0 0 0-1.613-.158c-2.416 0-3.74.952-4.706 1.647-.771.556-1.193.86-2.26.86-1.066 0-1.493-.306-2.262-.86-.967-.695-2.289-1.647-4.705-1.647-2.417 0-3.74.952-4.705 1.647-.771.556-1.195.86-2.264.86-1.067 0-1.49-.306-2.262-.86-.965-.695-2.29-1.647-4.706-1.647-2.415 0-3.739.952-4.705 1.647-.77.556-1.195.86-2.262.86-1.066 0-1.493-.306-2.262-.86-.965-.695-2.29-1.647-4.706-1.647-.602 0-1.133.06-1.611.16a40.354 40.354 0 0 1 1.975-5.316zm-.364 9.333v.002c1.067 0 1.493.306 2.262.86.967.695 2.29 1.646 4.706 1.646 2.417 0 3.737-.95 4.705-1.646.77-.556 1.195-.86 2.262-.86 1.068 0 1.493.306 2.262.86.967.695 2.29 1.646 4.706 1.646 2.418 0 3.74-.95 4.706-1.646.77-.556 1.194-.86 2.263-.86 1.068 0 1.492.306 2.26.86.967.695 2.291 1.646 4.707 1.646 2.415 0 3.737-.95 4.702-1.646.771-.556 1.196-.86 2.264-.86 1.067 0 1.493.306 2.262.86a19.793 19.793 0 0 0 .564.395 47.53 47.53 0 0 1 .627 6.267h-48.71a47.532 47.532 0 0 1 .627-6.267c.202-.134.39-.27.566-.395.77-.556 1.192-.862 2.259-.862zm-3.36 11.705h48.527a26.859 26.859 0 0 1-1.067 5.355c-.637-.206-1.388-.338-2.294-.338-2.415 0-3.74.951-4.707 1.646-.771.555-1.193.863-2.26.863-1.066 0-1.493-.308-2.262-.863-.967-.695-2.29-1.646-4.705-1.646-2.417 0-3.74.951-4.705 1.646-.771.555-1.197.863-2.264.863-1.067 0-1.492-.308-2.263-.863-.965-.695-2.289-1.646-4.706-1.646-2.416 0-3.738.951-4.704 1.646-.77.555-1.195.863-2.264.863-1.067 0-1.491-.308-2.26-.863-.965-.695-2.29-1.646-4.706-1.646a7.438 7.438 0 0 0-2.293.338 26.731 26.731 0 0 1-1.066-5.355zm3.36 9.197c1.067 0 1.493.304 2.262.86.967.695 2.288 1.646 4.706 1.646 2.415 0 3.737-.95 4.705-1.646.77-.556 1.195-.86 2.262-.86 1.068 0 1.493.304 2.262.86.967.695 2.29 1.646 4.706 1.646 2.418 0 3.74-.95 4.706-1.646.77-.556 1.194-.86 2.263-.86 1.068 0 1.492.304 2.26.86.967.695 2.291 1.646 4.707 1.646 2.415 0 3.737-.95 4.702-1.646.771-.556 1.198-.86 2.265-.86a3.692 3.692 0 0 1 .748.068c-4.066 8.27-12.241 13.934-21.65 13.934-9.41 0-17.588-5.664-21.652-13.934a3.68 3.68 0 0 1 .748-.068z" fill="#fff" stroke-width="3.736"/></svg>