<svg xmlns="http://www.w3.org/2000/svg" width="128" height="128"><defs><clipPath id="a"><path d="M-45.534 209.35l29.33 16.933v33.867l-29.33 16.933-29.33-16.933v-33.867z" fill-opacity=".506" stroke="#fff" stroke-width="2.117" stroke-opacity=".502"/></clipPath></defs><path transform="rotate(-150 -63.137 239.85) scale(1.87368)" d="M-45.534 209.35l29.33 16.933v33.867l-29.33 16.933-29.33-16.933v-33.867z" clip-path="url(#a)" stroke="#fff" stroke-width="4.011"/><path d="M64 26.5A37.5 37.5 0 0 0 26.5 64 37.5 37.5 0 0 0 64 101.5 37.5 37.5 0 0 0 101.5 64 37.5 37.5 0 0 0 64 26.5zm16.45 9.26c10.593 6.193 16.35 17.477 16.08 28.95H72.209c-.156-2.859-1.673-5.596-4.282-7.175zm-33.618.403l12.22 21.163a8.86 8.86 0 0 0-3.477 3.38 8.854 8.854 0 0 0-1.18 4.005H31.474c-.152-5.804 1.145-11.735 4.26-17.132a32.461 32.461 0 0 1 11.099-11.416zm16.486 23.135a5.862 5.862 0 0 1 2.92.793 5.846 5.846 0 0 1 2.145 8.017 5.84 5.84 0 0 1-8.011 2.145 5.846 5.846 0 0 1-2.15-8.015 5.844 5.844 0 0 1 5.096-2.94zm4.623 13.5l11.382 19.738c-4.984 2.662-10.58 4.087-16.246 3.94-5.196-.135-10.373-1.512-15.2-4.263l11.148-19.21c2.875 1.572 6.273 1.393 8.916-.205z" fill="#fff" stroke-width="4.082"/></svg>