<svg xmlns="http://www.w3.org/2000/svg" width="128" height="128"><defs><clipPath id="a"><path d="M-45.534 209.35l29.33 16.933v33.867l-29.33 16.933-29.33-16.933v-33.867z" fill-opacity=".506" stroke="#fff" stroke-width="2.117" stroke-opacity=".502"/></clipPath></defs><path transform="rotate(-150 -63.137 239.85) scale(1.87368)" d="M-45.534 209.35l29.33 16.933v33.867l-29.33 16.933-29.33-16.933v-33.867z" clip-path="url(#a)" stroke="#fff" stroke-width="4.011"/><path d="M64 26.5A37.5 37.5 0 0 0 26.5 64 37.5 37.5 0 0 0 64 101.5 37.5 37.5 0 0 0 101.5 64 37.5 37.5 0 0 0 64 26.5zm10.19 18.584l1.527 1.527-.615 1.22.412.55v16.433c4.522 1.541 8.745 2.984 15.703 8.57V58.2l.412-.549-.615-1.218 1.527-1.528 1.53 1.528-.618 1.218.414.55v17.806a21.99 21.99 0 0 1 1.697 2.183h-7.937c-5.17-4.57-13.923-7.646-23.627-7.646-9.703 0-18.459 3.075-23.627 7.646h-7.937c.55-.826 1.19-1.621 1.877-2.392V58.199l.412-.549-.616-1.218 1.528-1.53 1.529 1.53-.615 1.218.414.55v15.03c6.776-5.43 11.012-6.912 15.523-8.425V48.432l.412-.55-.615-1.218 1.528-1.53 1.527 1.53-.615 1.219.412.549V64c5.064-.877 12.78-.928 17.726 0V48.38l.412-.55-.615-1.219 1.53-1.527zm-10.211 8.393c2.22-.002 4.442.127 5.709.384v2.018c-2.533-.76-8.886-.79-11.418.037v-2.045c1.266-.262 3.487-.393 5.709-.394zm14.533 2.355c3.454.908 6.665 2.086 9.545 3.498v2.191c-2.838-1.464-6.052-2.691-9.545-3.632v-2.057zm-29.024.002v2.055c-3.493.94-6.706 2.17-9.545 3.634V59.33c2.88-1.412 6.089-2.59 9.545-3.496zm14.49 3.23c2.222 0 4.443.128 5.71.385v2.018c-2.533-.76-8.886-.788-11.418.039v-2.047c1.266-.262 3.487-.393 5.709-.395zm-14.49 2.575v2.086c-3.557 1.117-6.778 2.582-9.545 4.322v-2.295c2.825-1.657 6.039-3.05 9.545-4.113zm29.024 0c3.508 1.065 6.72 2.456 9.545 4.113v2.295c-2.768-1.739-5.987-3.205-9.545-4.322v-2.086z" fill="#fff" stroke-width="13.393" stroke-linecap="square"/></svg>