<svg xmlns="http://www.w3.org/2000/svg" width="128" height="128"><defs><clipPath id="a"><path d="M-45.534 209.35l29.33 16.933v33.867l-29.33 16.933-29.33-16.933v-33.867z" fill-opacity=".506" stroke="#fff" stroke-width="2.117" stroke-opacity=".502"/></clipPath></defs><path transform="rotate(-150 -63.137 239.85) scale(1.87368)" d="M-45.534 209.35l29.33 16.933v33.867l-29.33 16.933-29.33-16.933v-33.867z" clip-path="url(#a)" stroke="#fff" stroke-width="4.011"/><path d="M64 26.5c-20.71 0-37.5 16.79-37.5 37.5s16.79 37.5 37.5 37.5 37.5-16.79 37.5-37.5S84.71 26.5 64 26.5zm.701 18.021a35.349 35.349 0 0 1 16.442 4.11c-.385.394-.74.815-1.061 1.262-1.036 1.455-1.319 2.793-.838 3.98.388.955 1.395 2.104 3.988 2.104a14.336 14.336 0 0 0 2.104-.178 10.97 10.97 0 0 0 3.271-.98c2.15 3.508 2.35 8.004 3.82 8.322a81.4 81.4 0 0 1 3.587.865v5.658s-7.25 4.352-18.346 4.352c-.299 0-.606-.02-.91-.028l-.713 9.66s-1.473.509-2.592 0c0 0-1.979-2.435-3.369-9.29l-22.178-.8-1.281 9.92s-1.8.577-3.088 0c0 0-6.565-13.855-3.16-24.832a29.951 29.951 0 0 1-2.281-1.734c-2.258.653-5.817-1.241-4.975-3.156 1.314 1.006 2.27 1.646 3.277 1.488a6.328 6.328 0 0 1-.627-.883c-.77-1.34-.954-2.77-.523-3.925a3.424 3.424 0 0 1 2.174-2.03c1.54-.52 3.662-.458 4.74.668.401.418.987 1.343.41 2.824-.49 1.267-1.48 2.638-2.642 3.7.392.313.81.627 1.24.935 1.29-2.844 3.387-5.398 6.617-7.332a32.586 32.586 0 0 1 16.914-4.68zm25.295 2.362s2.247 6.966-4.736 8.006c-5.328.778-6.119-2.46-3.524-5.483 1.701-1.967 8.26-2.523 8.26-2.523zm-50.988 3.361c-.674-.038-1.385.184-1.754.69-.54.81-.03 1.581.408 2.341.186.307.407.594.654.854.739-.353 2.68-1.68 2.225-3.018-.22-.533-.859-.829-1.533-.867zm45.484 10.21a1.75 1.75 0 1 0 .002 3.497 1.75 1.75 0 0 0-.002-3.498zm-.803 14.232l.84 8.793s-1.435.711-2.86-.068c-1.83-4.068-2.97-8.32-2.97-8.32h.004c1.95.102 4.986-.405 4.986-.405zm-33.425.015l5.865.21.776 8.568s-1.343.88-3.106 0c-2.205-4.123-3.535-8.778-3.535-8.778z" fill="#fff" stroke-width="2.546"/></svg>