<svg xmlns="http://www.w3.org/2000/svg" width="128" height="128"><defs><clipPath id="a"><path d="M-45.534 209.35l29.33 16.933v33.867l-29.33 16.933-29.33-16.933v-33.867z" fill-opacity=".506" stroke="#fff" stroke-width="2.117" stroke-opacity=".502"/></clipPath></defs><path transform="rotate(-150 -63.137 239.85) scale(1.87368)" d="M-45.534 209.35l29.33 16.933v33.867l-29.33 16.933-29.33-16.933v-33.867z" clip-path="url(#a)" stroke-width="4.011" stroke="#fff"/><path d="M26.5 64A37.5 37.5 0 0 0 64 101.5 37.5 37.5 0 0 0 101.5 64 37.5 37.5 0 0 0 64 26.5 37.5 37.5 0 0 0 26.5 64zm6.137.015a4.637 4.637 0 0 1 4.636-4.637c2.561 0 21.356 3.97 21.356 3.97.667.198.667 1.149 0 1.333 0 0-19.146 3.97-21.356 3.97a4.637 4.637 0 0 1-4.636-4.636zm2.037 10.307a4.64 4.64 0 0 1 2.844-4.266c2.037-.855 21.226-4.603 21.226-4.603.687-.089 1.054.788.516 1.23 0 0-15.793 10.933-18.155 11.924a4.635 4.635 0 0 1-6.068-2.48 4.625 4.625 0 0 1-.363-1.805zm0-20.64v-.003a4.619 4.619 0 0 1 .363-1.804 4.635 4.635 0 0 1 6.068-2.48c2.362.99 18.155 11.923 18.155 11.923a.68.68 0 0 1 .254.607.694.694 0 0 1-.53.614.63.63 0 0 1-.24.012s-19.19-3.749-21.226-4.604a4.638 4.638 0 0 1-2.844-4.265zm5.783 29.251c0-1.187.452-2.374 1.357-3.28 1.563-1.561 17.907-12.292 17.907-12.292.602-.342 1.276.33.945.943 0 0-10.482 16.098-12.293 17.908a4.638 4.638 0 0 1-7.916-3.279zm0-37.863a4.638 4.638 0 0 1 7.916-3.28C50.183 43.602 60.666 59.7 60.666 59.7c.331.612-.343 1.285-.945.943 0 0-16.344-10.73-17.907-12.293a4.623 4.623 0 0 1-1.357-3.28zm8.768 43.748a4.619 4.619 0 0 1 .341-1.809c.832-2.047 11.711-18.29 11.711-18.29.422-.55 1.303-.192 1.237.501 0 0-3.392 18.905-4.356 21.278a4.638 4.638 0 0 1-8.933-1.68zm0-49.633a4.638 4.638 0 0 1 8.934-1.68c.963 2.373 4.355 21.278 4.355 21.278.066.693-.815 1.05-1.237.502 0 0-10.88-16.244-11.71-18.291a4.642 4.642 0 0 1-.342-1.809zM59.379 90.76c0-2.21 3.97-21.353 3.97-21.353.185-.668 1.135-.668 1.335 0 0 0 3.97 18.792 3.97 21.353a4.638 4.638 0 0 1-9.275 0zm0-53.515a4.638 4.638 0 0 1 9.275 0c0 2.56-3.97 21.353-3.97 21.353-.2.668-1.15.668-1.334 0 0 0-3.971-19.144-3.971-21.353zm.158 26.771a4.479 4.479 0 0 1 4.48-4.478 4.479 4.479 0 0 1 4.48 4.478 4.479 4.479 0 0 1-4.48 4.479 4.479 4.479 0 0 1-4.48-4.479zm5.95 5.205c-.067-.693.814-1.05 1.236-.502 0 0 10.88 16.244 11.71 18.291a4.637 4.637 0 1 1-8.591 3.489c-.964-2.373-4.356-21.278-4.356-21.278zm0-10.437s3.391-18.905 4.355-21.278a4.638 4.638 0 1 1 8.592 3.489c-.832 2.047-11.711 18.29-11.711 18.29-.422.55-1.303.192-1.237-.501zm1.767 9.095c.062-.445.564-.779 1.025-.517 0 0 16.344 10.73 17.907 12.293a4.638 4.638 0 0 1-6.559 6.558c-1.81-1.81-12.293-17.908-12.293-17.908a.725.725 0 0 1-.078-.23.654.654 0 0 1-.002-.196zm0-7.751a.68.68 0 0 1 .08-.428S77.816 43.6 79.627 41.79a4.638 4.638 0 0 1 6.558 6.558C84.623 49.911 68.28 60.642 68.28 60.642c-.461.262-.964-.07-1.025-.515zm1.232 5.949c.037-.357.34-.679.77-.623 0 0 19.19 3.748 21.226 4.603a4.637 4.637 0 0 1-3.587 8.551c-2.362-.991-18.155-11.924-18.155-11.924a.68.68 0 0 1-.254-.607zm0-4.149a.683.683 0 0 1 .254-.607s15.793-10.933 18.155-11.924a4.637 4.637 0 0 1 3.588 8.55c-2.038.856-21.227 4.604-21.227 4.604-.43.056-.732-.266-.77-.623zm.385 2.094a.69.69 0 0 1 .5-.674s18.795-3.969 21.356-3.969a4.637 4.637 0 1 1 0 9.274c-2.21 0-21.356-3.97-21.356-3.97a.668.668 0 0 1-.5-.661z" fill="#fff" fill-opacity=".985"/></svg>