<svg xmlns="http://www.w3.org/2000/svg" width="128" height="128"><defs><clipPath id="a"><path d="M-45.534 209.35l29.33 16.933v33.867l-29.33 16.933-29.33-16.933v-33.867z" fill-opacity=".506" stroke="#fff" stroke-width="2.117" stroke-opacity=".502"/></clipPath></defs><path transform="rotate(-150 -63.137 239.85) scale(1.87368)" d="M-45.534 209.35l29.33 16.933v33.867l-29.33 16.933-29.33-16.933v-33.867z" clip-path="url(#a)" stroke="#fff" stroke-width="4.011"/><path d="M64 28a36 36 0 0 0-36 36 36 36 0 0 0 19.018 31.729c8.428 4.21 13.78.537 13.224-4.555-.272-4.704-16.777-11.105-22.199-25.545-1.387-6.241-1.5-19.115 14.795-24.049 4.933-1.675 13.419-2.44 16.836-1.545-1.659-1.609-1.658-4.94-1.658-4.94 2.22 3.887 7.918 4.964 7.918 4.964 9.211 1.465 4.343 6.372 13.869 10.402 0 0 3.127 3.376-.694 6.935-11.619-6.804-18.029-4.162-18.029-4.162-1.613-1.484-2.024-3.24-2.105-4.375-7.308-1.72-17.482 1.805-19.836 11.221-.332 2.157-.094 4.205.593 6.203.622-2.089 2.497-4.334 6.397-6.619 4.113-1.803 7-1.521 9.596-1.535-2.151-1.38-2.15-3.045-2.15-3.045 3.886 2.22 6.595 1.871 6.595 1.871 6.814-.711 4.293 3.696 11.818 4.744 0 0 2.86 1.801.826 5.053-9.537-2.619-13.584.475-13.584.475a4.767 4.767 0 0 1-2.326-2.704c-4.03-.879-16.623.077-9.5 12.422a113.59 113.59 0 0 0 4.397 4.047c-.034-2.658.861-6.045 4.125-8.365 4.066-2.725 9.74-1.839 11.793-1.3-.976-.808-1.531-2.473-1.531-2.473 2.776 2.22 5.29 2.488 5.29 2.488 5.534.88 2.61 3.827 8.333 6.248 0 0 1.877 2.028-.418 4.166-6.98-4.087-10.83-2.5-10.83-2.5a3.902 3.902 0 0 1-1.266-2.629c-8.778-2.314-11.11 2.518-8.656 10.846 2.622 4.324.263 9.178-4.325 12.515A36 36 0 0 0 100 64a36 36 0 0 0-36-36zm13.32 15.525c-.844 0-1.687 1.69-1.687 1.69s2.866-.001 5.574 2.531c-.51-2.532-3.887-4.22-3.887-4.22zm-5.507 15.627c-.6.16-.876 1.518-.876 1.518s2.034-.544 4.436.738c-.843-1.7-3.56-2.256-3.56-2.256zM82.31 73.424c-.508 0-1.014 1.013-1.014 1.013s1.723 0 3.35 1.522c-.307-1.521-2.336-2.535-2.336-2.535z" fill="#fff" stroke-width="4"/></svg>