<svg xmlns="http://www.w3.org/2000/svg" width="128" height="128"><circle cx="64" cy="64" r="64" fill="#f0f0f0" stroke-width=".25"/><path d="M2.205 80.696c3.703 13.74 11.864 25.648 22.838 34.08v-34.08zm56.23 47.061c1.834.157 3.69.243 5.565.243 29.57 0 54.451-20.055 61.795-47.304h-67.36zm67.36-80.453C118.451 20.055 93.57 0 64 0c-1.876 0-3.73.086-5.565.243v47.061zM25.044 13.224c-10.975 8.432-19.136 20.34-22.84 34.08h22.84z" fill="#d80027"/><path d="M127.458 55.652H50.087V1.522a63.564 63.564 0 0 0-16.696 6.26v47.87H.541a64.55 64.55 0 0 0 0 16.696h32.85v47.87a63.564 63.564 0 0 0 16.696 6.26v-54.13h77.371a64.639 64.639 0 0 0 0-16.696z" fill="#0052b4" stroke-width=".25"/></svg>