<svg xmlns="http://www.w3.org/2000/svg" width="128" height="128"><path d="M96.657 25.337c-3.911.58-15.31 3.116-19.511 13.354-.705 1.713-1.206 3.644-1.439 5.816H52.293c-1.613-15.148-16.384-18.495-20.95-19.17-.57-.085-.82-.83-.43-1.291 1.793-2.11 3.618-3.564 5.424-4.515 10.17-5.347 19.775 5.302 19.775 5.302-1.15-12.304 3.818-19.549 6.915-22.797.286-.3.633-.425.973-.419.34-.006.687.119.973.419 3.097 3.248 8.065 10.493 6.915 22.797 0 0 13.319-14.768 25.198-.787.392.46.141 1.206-.43 1.29z" fill="#5eac24"/><path d="M96.657 25.337c-3.106.46-10.938 2.156-16.133 7.964A28.286 28.286 0 0 0 64 28.006c-2.663 0-5.24.365-7.683 1.05a3.368 3.368 0 0 1-3.496-1.084c-5.147-6.156-13.244-7.953-16.484-8.44 10.17-5.348 19.774 5.301 19.774 5.301-1.15-12.304 3.82-19.549 6.916-22.797.286-.3.633-.425.973-.419.34-.006.687.119.973.419 3.096 3.248 8.065 10.493 6.915 22.797 0 0 13.318-14.768 25.198-.787.392.46.141 1.206-.43 1.29z" fill="#6dc82a"/><path d="M91.473 61.114v24.149c0 4.419-1.058 8.602-2.933 12.31a27.438 27.438 0 0 1-1.696 2.905 27.809 27.809 0 0 1-9.363 8.7 27.323 27.323 0 0 1-9.678 3.294 27.04 27.04 0 0 1-3.803.266 27.278 27.278 0 0 1-13.482-3.56 27.809 27.809 0 0 1-9.362-8.7 27.438 27.438 0 0 1-1.696-2.906 27.207 27.207 0 0 1-2.933-12.31V61.115c0-4.5 1.098-8.76 3.038-12.52A27.804 27.804 0 0 1 50.742 37.07 27.232 27.232 0 0 1 64 33.639a27.25 27.25 0 0 1 13.258 3.432 27.72 27.72 0 0 1 9.457 8.636c.63.924 1.205 1.889 1.72 2.889a27.237 27.237 0 0 1 3.038 12.52z" fill="#ddb200"/><path d="M91.473 61.114v24.149c0 4.419-1.058 8.602-2.933 12.31a27.438 27.438 0 0 1-1.696 2.905 27.809 27.809 0 0 1-9.363 8.7 27.323 27.323 0 0 1-9.678 3.294 27.278 27.278 0 0 1-9.678-3.293 27.809 27.809 0 0 1-9.363-8.7 27.438 27.438 0 0 1-1.696-2.907 27.207 27.207 0 0 1-2.933-12.309V61.114c0-4.5 1.098-8.76 3.038-12.52A27.804 27.804 0 0 1 58.348 37.07a27.25 27.25 0 0 1 9.455-3.168 27.25 27.25 0 0 1 9.455 3.169 27.72 27.72 0 0 1 9.456 8.636 26.943 26.943 0 0 1 1.72 2.888 27.232 27.232 0 0 1 3.04 12.52z" fill="#ffcd00"/><path d="M91.473 61.119l-8.746-6.04a1.545 1.545 0 0 1 0-2.542l5.708-3.942c-.515-1-1.09-1.964-1.72-2.888l-7.904 5.457a1.545 1.545 0 0 1-1.755 0l-8.262-5.705a1.544 1.544 0 0 1 0-2.542l8.464-5.846a27.618 27.618 0 0 0-3.526-1.642l-8.855 6.115a1.544 1.544 0 0 1-1.755 0l-8.854-6.115a27.618 27.618 0 0 0-3.526 1.642l8.464 5.846a1.545 1.545 0 0 1 0 2.542l-8.262 5.705a1.545 1.545 0 0 1-1.755 0l-7.904-5.457a27.143 27.143 0 0 0-1.72 2.888l5.708 3.942c.889.614.89 1.928 0 2.542l-8.747 6.04v4.618l8.747 6.04a1.545 1.545 0 0 1 0 2.542l-8.747 6.04v4.617l8.746 6.04c.89.615.89 1.929 0 2.542l-5.813 4.014a27.438 27.438 0 0 0 1.696 2.906l8.034-5.546a1.545 1.545 0 0 1 1.755 0l8.262 5.704c.89.615.89 1.929 0 2.542l-8.688 6a27.323 27.323 0 0 0 3.49 1.667l9.114-6.293a1.544 1.544 0 0 1 1.755 0l9.114 6.293a27.278 27.278 0 0 0 3.49-1.667l-8.687-6a1.545 1.545 0 0 1 0-2.542l8.262-5.704a1.545 1.545 0 0 1 1.755 0l8.033 5.546c.622-.93 1.19-1.902 1.696-2.906l-5.813-4.014a1.544 1.544 0 0 1 0-2.542l8.746-6.04V80.36l-8.746-6.04a1.545 1.545 0 0 1 0-2.542l8.746-6.04zM64.878 46.832l8.261 5.705c.89.614.89 1.928 0 2.542l-8.261 5.705a1.545 1.545 0 0 1-1.756 0l-8.261-5.705a1.545 1.545 0 0 1 0-2.542l8.261-5.705a1.545 1.545 0 0 1 1.756 0zm8.261 27.487l-8.261 5.705a1.545 1.545 0 0 1-1.756 0l-8.261-5.705a1.545 1.545 0 0 1 0-2.542l8.261-5.705a1.545 1.545 0 0 1 1.756 0l8.261 5.705c.89.614.89 1.928 0 2.542zM40.93 62.157l8.26-5.705a1.544 1.544 0 0 1 1.755 0l8.262 5.705c.89.614.89 1.928 0 2.542l-8.262 5.705a1.545 1.545 0 0 1-1.755 0l-8.26-5.705a1.545 1.545 0 0 1 0-2.542zm0 19.24l8.26-5.705a1.544 1.544 0 0 1 1.755 0l8.262 5.705c.89.614.89 1.928 0 2.542l-8.262 5.705a1.545 1.545 0 0 1-1.755 0l-8.26-5.705a1.545 1.545 0 0 1 0-2.542zm22.193 17.867l-8.261-5.705a1.545 1.545 0 0 1 0-2.542l8.261-5.705a1.545 1.545 0 0 1 1.756 0l8.261 5.705c.89.614.89 1.928 0 2.542l-8.261 5.705a1.544 1.544 0 0 1-1.756 0zM87.041 83.96l-8.23 5.684a1.544 1.544 0 0 1-1.755 0l-8.262-5.705a1.545 1.545 0 0 1 0-2.542l8.262-5.705a1.545 1.545 0 0 1 1.755 0l8.23 5.683a1.57 1.57 0 0 1 0 2.585zm-9.985-13.556l-8.262-5.705a1.545 1.545 0 0 1 0-2.542l8.262-5.705a1.545 1.545 0 0 1 1.755 0l8.23 5.684a1.57 1.57 0 0 1 0 2.584l-8.23 5.683a1.544 1.544 0 0 1-1.755 0z" fill="#ff9811"/><path d="M44.133 66.911l-3.199-2.209a1.549 1.549 0 0 1 0-2.549l3.226-2.229c.065-1.523.258-3.015.564-4.465l-8.197 5.66v4.618l7.607 5.253v-4.08zm.017 19.251l-5.061-3.494 5.044-3.483v-4.079l-7.606 5.253v4.618l8.13 5.613a26.724 26.724 0 0 1-.508-4.428zM57.425 37.61l-3.157-2.181a27.618 27.618 0 0 0-3.526 1.642l3.75 2.59c.93-.746 1.91-1.431 2.933-2.05zm-6.906 71.569a27.323 27.323 0 0 0 3.49 1.667l3.201-2.21a27.127 27.127 0 0 1-2.904-2.072zM39.565 48.595l5.904 4.076a27.275 27.275 0 0 1 1.27-3.2l-5.453-3.764a27.165 27.165 0 0 0-1.72 2.888zm-.105 48.977a27.438 27.438 0 0 0 1.696 2.906l5.486-3.787a26.968 26.968 0 0 1-1.247-3.217z" fill="#cc7400"/></svg>