<svg xmlns="http://www.w3.org/2000/svg" width="128" height="128" viewBox="0 0 33.867 33.867"><path d="M12.273 25.618l4.66-3.267 4.661 3.267-1.781-5.286 4.66-3.271h-5.758l-1.782-5.286-1.781 5.286H9.393l4.661 3.27z" fill="#df2407" stroke-width="12"/><path d="M16.933 2.117c5.9 5.162 11.907 6.085 11.907 6.085v5.556s-5.556-.921-11.907-5.291c-6.35 4.37-11.906 5.291-11.906 5.291V8.202s6.006-.923 11.906-6.085zm0 6.35C22.49 12.7 28.84 13.758 28.84 13.758v6.35c-2.95 5.9-11.907 11.646-11.907 11.646S7.977 26.009 5.027 20.109v-6.35s6.349-1.059 11.906-5.292z" fill="none" fill-opacity="0" stroke="#fff" stroke-width="2.213"/></svg>