<?xml version="1.0" encoding="UTF-8" standalone="no"?>
<!-- Generator: Adobe Illustrator 19.0.0, SVG Export Plug-In . SVG Version: 6.00 Build 0)  -->

<svg
   xmlns:dc="http://purl.org/dc/elements/1.1/"
   xmlns:cc="http://creativecommons.org/ns#"
   xmlns:rdf="http://www.w3.org/1999/02/22-rdf-syntax-ns#"
   xmlns:svg="http://www.w3.org/2000/svg"
   xmlns="http://www.w3.org/2000/svg"
   xmlns:sodipodi="http://sodipodi.sourceforge.net/DTD/sodipodi-0.dtd"
   xmlns:inkscape="http://www.inkscape.org/namespaces/inkscape"
   version="1.1"
   id="Capa_1"
   x="0px"
   y="0px"
   viewBox="0 0 128 128"
   xml:space="preserve"
   sodipodi:docname="pumpkin.svg"
   inkscape:export-filename="C:\Users\kjust\Downloads\pumpkin (1).png"
   inkscape:export-xdpi="512"
   inkscape:export-ydpi="512"
   inkscape:version="0.92.2 (5c3e80d, 2017-08-06)"
   width="128"
   height="128"><metadata
     id="metadata55"><rdf:RDF><cc:Work
         rdf:about=""><dc:format>image/svg+xml</dc:format><dc:type
           rdf:resource="http://purl.org/dc/dcmitype/StillImage" /><dc:title></dc:title></cc:Work></rdf:RDF></metadata><defs
     id="defs53" /><sodipodi:namedview
     pagecolor="#ffffff"
     bordercolor="#666666"
     borderopacity="1"
     objecttolerance="10"
     gridtolerance="10"
     guidetolerance="10"
     inkscape:pageopacity="0"
     inkscape:pageshadow="2"
     inkscape:window-width="1920"
     inkscape:window-height="1017"
     id="namedview51"
     showgrid="false"
     inkscape:zoom="2.7244102"
     inkscape:cx="41.998825"
     inkscape:cy="60.87337"
     inkscape:window-x="1912"
     inkscape:window-y="-8"
     inkscape:window-maximized="1"
     inkscape:current-layer="Capa_1" /><g
     id="g20"
     transform="translate(0,-218.49701)" /><g
     id="g22"
     transform="translate(0,-218.49701)" /><g
     id="g24"
     transform="translate(0,-218.49701)" /><g
     id="g26"
     transform="translate(0,-218.49701)" /><g
     id="g28"
     transform="translate(0,-218.49701)" /><g
     id="g30"
     transform="translate(0,-218.49701)" /><g
     id="g32"
     transform="translate(0,-218.49701)" /><g
     id="g34"
     transform="translate(0,-218.49701)" /><g
     id="g36"
     transform="translate(0,-218.49701)" /><g
     id="g38"
     transform="translate(0,-218.49701)" /><g
     id="g40"
     transform="translate(0,-218.49701)" /><g
     id="g42"
     transform="translate(0,-218.49701)" /><g
     id="g44"
     transform="translate(0,-218.49701)" /><g
     id="g46"
     transform="translate(0,-218.49701)" /><g
     id="g48"
     transform="translate(0,-218.49701)" /><g
     id="g850"
     transform="matrix(1.0266329,0,0,1.0266329,-12.807853,5.3187767)"><path
       inkscape:connector-curvature="0"
       id="path2"
       d="m 72.749537,21.187662 c 0,0 1.658014,-10.52417 8.139346,-14.6628885 6.481332,-4.1387183 11.003192,-4.4934672 11.003192,-4.4934672 l 7.234972,6.0307065 c 0,0 -18.690349,4.4934642 -19.896178,18.0921122 -1.055101,13.716897 -6.481332,-4.966463 -6.481332,-4.966463 z"
       style="fill:#68aa00;stroke-width:0.33376196" /><path
       id="path4"
       d="m 124.34381,45.020703 c 4.41579,15.563389 1.67084,34.156819 -7.39944,48.480646 -3.46103,5.646893 -7.63813,10.054221 -12.05392,12.946531 -4.4158,3.03004 -9.070285,4.54506 -13.724772,4.54506 -2.386917,0 -4.893177,-0.41318 -7.280095,-1.37729 l -0.83542,-0.27545 -0.716074,0.55091 c -4.296449,3.3055 -10.144393,3.16777 -14.440842,-0.27546 l -0.716074,-0.55091 -0.83542,0.27546 c -2.62561,1.10183 -5.251215,1.65274 -7.99617,1.65274 -9.308972,0 -18.73729,-6.47326 -25.778692,-17.62932 -8.950935,-14.323828 -11.815234,-32.917257 -7.39944,-48.480646 5.609253,-19.006617 18.140562,-23.13849 27.688226,-23.13849 7.518783,0 13.486076,2.479124 13.605421,2.479124 l 0.83542,0.275458 0.716075,-0.550917 c 4.296449,-3.443227 10.144392,-3.580956 14.440841,-0.275458 l 0.716075,0.550917 0.716074,-0.275459 c 1.909535,-0.688645 6.802713,-2.203665 12.770002,-2.203665 9.667005,0 22.198315,4.131873 27.688225,23.276219 z"
       style="fill:#f27503;stroke-width:0.32052097"
       inkscape:connector-curvature="0" /><path
       sodipodi:nodetypes="cccsccsccccccsccsc"
       inkscape:connector-curvature="0"
       style="fill:#ef8318;fill-opacity:1;stroke-width:0.32052097"
       d="m 124.34381,45.020703 c 4.41579,15.563389 1.67084,34.156819 -7.39944,48.480646 -3.46103,5.646893 -7.63813,10.054221 -12.05392,12.946531 -4.4158,3.03004 -9.070285,4.54506 -13.724772,4.54506 -2.386917,0 -4.893177,-0.41318 -7.280095,-1.37729 l -0.83542,-0.27545 -0.716074,0.55091 c -4.296449,3.3055 -10.144393,3.16777 -14.440842,-0.27546 l -0.716074,-0.55091 -0.83542,0.27546 C 75.109557,83.157783 84.647938,41.614407 66.461098,24.223608 l 0.83542,0.275458 0.716075,-0.550917 c 4.296449,-3.443227 10.144392,-3.580956 14.440841,-0.275458 l 0.716075,0.550917 0.716074,-0.275459 c 1.909535,-0.688645 6.802713,-2.203665 12.770002,-2.203665 9.667005,0 22.198315,4.131873 27.688225,23.276219 z"
       id="path905" /><g
       transform="matrix(0.2983645,0,0,0.34432277,23.123953,-4.8957688)"
       id="g12"><path
         id="path8"
         d="m 198.849,333.77 2.4,-1.6 c -1.2,0.8 -2,1.2 -3.2,2 0.4,0 0.8,-0.4 0.8,-0.4 z"
         style="fill:#d35c02"
         inkscape:connector-curvature="0" /><path
         sodipodi:nodetypes="ccscccscccc"
         id="path10"
         d="m 201.249,332.17 2.8,0.8 c 8,2.4 16,4 24.4,4 15.6,0 31.6,-4.8 46,-13.2 14.8,-8.8 28.4,-21.6 40.4,-37.6 30,-41.6 39.6,-95.6 24.8,-140.8 -18.8,-56 -60.8,-68 -92.8,-68 -20,0 -36.8,4.4 -42.8,6.4 l -2.8,0.8 c 0,0 59.90771,19.00231 83.10771,54.60231 27.2,41.6 30.09229,146.59769 -83.10771,192.99769 z"
         style="fill:#d35c02"
         inkscape:connector-curvature="0" /></g><g
       id="g916"
       transform="matrix(0.56296067,0,0,0.56296067,-21.884122,-7.4178298)"><path
         inkscape:connector-curvature="0"
         style="fill:#231f20;fill-opacity:1;stroke-width:1.13707376"
         d="m 201.1113,79.779118 -22.33782,38.842432 c 4.65293,2.81768 7.3603,7.69798 7.63776,12.79891 h 43.38393 c 0.47984,-20.4662 -9.79021,-40.594673 -28.68501,-51.641342 z m -59.9647,0.720892 c -8.18683,5.039018 -14.99028,12.03707 -19.79649,20.36271 -5.55687,9.62646 -7.87195,20.20582 -7.60133,30.55774 h 40.89031 c 0.12119,-2.51483 0.84159,-4.96432 2.10131,-7.14425 1.46678,-2.54725 3.6148,-4.63504 6.20273,-6.02875 L 141.14546,80.501161 Z m 29.40583,41.26556 c -0.25339,0 -0.50827,0.011 -0.7584,0.0257 -3.47403,0.23871 -6.59959,2.19582 -8.33132,5.21686 -2.91153,5.00424 -1.18926,11.42218 3.83645,14.29644 4.99881,2.91428 11.41481,1.19553 14.28733,-3.8274 2.91516,-5.00189 1.19682,-11.42097 -3.8274,-14.29754 -1.58205,-0.91964 -3.37786,-1.4078 -5.20776,-1.41565 z m 8.24834,24.08093 c -4.7143,2.84953 -10.77605,3.17017 -15.90423,0.36503 l -19.88741,34.26688 c 8.60992,4.90648 17.84522,7.36027 27.11351,7.60019 10.10518,0.26258 20.08867,-2.27527 28.97719,-7.02482 z"
         id="path2-2-1"
         sodipodi:nodetypes="cccccccccccccccccccccccccccc" /><path
         inkscape:connector-curvature="0"
         style="fill:#000000;fill-opacity:1;stroke-width:1.13707364"
         d="m 141.14639,80.49988 c -8.18682,5.039014 -14.99005,12.036861 -19.79627,20.3625 -5.55687,9.62646 -7.87201,20.20633 -7.60139,30.55825 h 8.37334 c 4.14925,-28.67851 17.2293,-40.314703 22.95191,-44.117462 l -3.92829,-6.801876 z"
         id="path874" /><path
         inkscape:connector-curvature="0"
         style="fill:#000000;fill-opacity:1;stroke-width:1.13707364"
         d="m 201.10992,79.778832 c 0,0 7.3e-4,7.24e-4 7.3e-4,7.24e-4 l 7.2e-4,-7.24e-4 z m 7.3e-4,7.24e-4 -22.3369,38.841804 c 2.35208,1.42436 4.20455,3.37724 5.49975,5.61781 l 25.77106,-38.02109 c -2.71986,-2.381467 -5.69716,-4.546117 -8.93391,-6.438524 z"
         id="path881" /><path
         inkscape:connector-curvature="0"
         style="fill:#000000;fill-opacity:1;stroke:none;stroke-width:0.36193725px;stroke-linecap:butt;stroke-linejoin:miter;stroke-opacity:1"
         d="m 170.55167,121.76426 7.3e-4,0.001 c -0.25339,0 -0.50839,0.0108 -0.75851,0.0254 -3.47403,0.23872 -6.59918,2.19595 -8.33092,5.21699 -2.76114,4.74574 -1.35273,10.76034 3.08636,13.82077 -1.72213,-8.19552 1.57292,-15.2489 6.91215,-19.01655 -0.30218,-0.0278 -0.60488,-0.0468 -0.90979,-0.0481 z"
         id="path886" /><path
         inkscape:connector-curvature="0"
         style="fill:#000000;fill-opacity:1;stroke:none;stroke-width:0.36193725px;stroke-linecap:butt;stroke-linejoin:miter;stroke-opacity:1"
         d="m 162.89656,146.21128 -19.88746,34.2674 c 3.35801,1.91361 6.81198,3.44865 10.32511,4.63025 l 15.65944,-37.02505 c -2.08367,-0.19884 -4.15713,-0.81143 -6.09709,-1.8726 z"
         id="path891" /></g></g></svg>