<svg xmlns="http://www.w3.org/2000/svg" xmlns:xlink="http://www.w3.org/1999/xlink" width="128" height="128"><defs><linearGradient id="e"><stop offset="0" stop-color="#5dffff"/><stop offset="1" stop-color="#d6ffff"/></linearGradient><linearGradient id="d"><stop offset="0" stop-color="#ce0000"/><stop offset="1" stop-color="#ff7373"/></linearGradient><linearGradient id="c"><stop offset="0" stop-color="#e2b901"/><stop offset="1" stop-color="#fefe4a"/></linearGradient><linearGradient id="b"><stop offset="0" stop-color="#009517"/><stop offset="1" stop-color="#4dff4d"/></linearGradient><linearGradient id="a"><stop offset="0" stop-color="#006ccb"/><stop offset="1" stop-color="#75bfff"/></linearGradient><linearGradient xlink:href="#a" id="i" x1="41.926" y1="78.615" x2="121.341" y2="78.615" gradientUnits="userSpaceOnUse"/><linearGradient xlink:href="#b" id="h" x1="30.43" y1="72.868" x2="121.341" y2="72.868" gradientUnits="userSpaceOnUse"/><linearGradient xlink:href="#c" id="g" x1="19.288" y1="67.297" x2="121.341" y2="67.297" gradientUnits="userSpaceOnUse"/><linearGradient xlink:href="#d" id="f" x1="8.843" y1="62.082" x2="121.341" y2="62.082" gradientUnits="userSpaceOnUse"/><linearGradient xlink:href="#e" id="j" x1="6.659" y1="100.712" x2="87.875" y2="100.712" gradientUnits="userSpaceOnUse"/></defs><circle cx="-447.61" cy="11.075" r="57.944" fill="none" stroke="#00ff28" stroke-width="8" stroke-linejoin="round"/><circle cx="-469.169" cy="-4.925" r="9.559" fill="#0f0"/><circle r="9.559" cy="-4.925" cx="-426.051" fill="#0f0"/><path d="M-419.61 23.126s-8 16-28 16-28-16-28-16" fill="none" stroke="#00ff28" stroke-width="8" stroke-linecap="round"/><path d="M121.34 7.76v39.46a1.92 1.92 0 0 1-1.874 1.916c-21.88.582-41.227 11.317-53.503 27.669-8.687 11.566-13.833 25.94-13.833 41.52H8.843c0-3.313.142-6.592.424-9.832C14.19 51.601 61.457 6.826 119.388 5.84a1.92 1.92 0 0 1 1.953 1.92z" fill="url(#f)" transform="matrix(1.02967 0 0 1.02967 -1.9 -1.9)"/><path d="M66.02 77.185c-8.944 11.909-14.242 26.71-14.242 42.751H7.206c0-3.41.147-6.787.437-10.123a17.42 17.42 0 0 1 8.701-3.388C16.86 96.52 25.078 88.62 35.11 88.62c.685 0 1.367.037 2.042.112a22.45 22.45 0 0 1 6.424-8.33 22.356 22.356 0 0 1 13.948-4.901c3.006 0 5.879.597 8.498 1.684z" fill="#d10000"/><path d="M121.34 16.269V47.22a1.92 1.92 0 0 1-1.874 1.916c-21.88.582-41.227 11.317-53.503 27.669-8.687 11.565-13.833 25.94-13.833 41.519H19.288c0-8.304.993-16.376 2.865-24.104 10.83-44.73 51.13-77.951 99.188-77.951z" fill="url(#g)" transform="matrix(1.02967 0 0 1.02967 -1.9 -1.9)"/><path d="M66.02 77.185c-8.944 11.909-14.242 26.71-14.242 42.751H17.962c0-8.55 1.022-16.862 2.949-24.82 3.448-3.976 8.533-6.496 14.198-6.496.685 0 1.367.037 2.042.111a22.45 22.45 0 0 1 6.424-8.329A22.356 22.356 0 0 1 57.523 75.5c3.006 0 5.879.598 8.498 1.685z" fill="#ff9300"/><path d="M121.34 27.41v19.81a1.92 1.92 0 0 1-1.874 1.916c-21.88.582-41.227 11.317-53.503 27.669-8.687 11.566-13.833 25.94-13.833 41.52h-21.7c0-10.668 1.836-20.904 5.213-30.412 12.507-35.256 46.154-60.502 85.698-60.502z" fill="url(#h)" transform="matrix(1.02967 0 0 1.02967 -1.9 -1.9)"/><path d="M66.02 77.185c-8.944 11.909-14.242 26.71-14.242 42.751H29.434c0-10.984 1.89-21.523 5.367-31.314.102-.002.206-.002.308-.002.685 0 1.367.037 2.042.111a22.45 22.45 0 0 1 6.424-8.33 22.356 22.356 0 0 1 13.948-4.9c3.006 0 5.879.597 8.498 1.684z" fill="#009655"/><path d="M121.34 38.906v8.314a1.92 1.92 0 0 1-1.874 1.916c-21.88.582-41.227 11.317-53.503 27.669-8.687 11.566-13.833 25.94-13.833 41.52H41.926c0-15.811 4.618-30.54 12.582-42.915h.002c14.127-21.958 38.78-36.504 66.83-36.504z" fill="url(#i)" transform="matrix(1.02967 0 0 1.02967 -1.9 -1.9)"/><path d="M66.02 77.185c-8.944 11.909-14.242 26.71-14.242 42.751H41.27c0-16.28 4.756-31.445 12.956-44.187h.003a22.104 22.104 0 0 1 3.294-.248c3.006 0 5.879.597 8.498 1.684z" fill="#005fd1"/><path d="M85.95 122.16H8.577c-1.201 0-2.095-1.088-1.887-2.27 1.075-6.069 6.376-10.68 12.751-10.68.946 0 1.863.103 2.75.295l-.01-.037a14.275 14.275 0 0 1-.38-3.864c.29-7.56 6.51-13.599 14.14-13.599 1.638 0 3.211.281 4.674.794l.002-.012c.277-1.17.667-2.294 1.163-3.36 2.793-6.004 8.875-10.163 15.93-10.163 9.698 0 17.56 7.861 17.56 17.56 0 .974-.08 1.931-.232 2.86 4.552 1.089 7.953 5.152 8.019 10.022a10.446 10.446 0 0 1-.649 3.787 9.452 9.452 0 0 1 5.406 6.284c.314 1.208-.615 2.383-1.863 2.383z" fill="url(#j)" transform="matrix(1.02967 0 0 1.02967 -1.9 -1.9)"/><g fill="#00e0e0"><path d="M83.624 111.215c0 1.224-.205 2.4-.581 3.496-1.075-.481-6.088-2.32-11.286 2.466a1.803 1.803 0 0 1-2.554-.104 1.807 1.807 0 0 1 .106-2.554c5.887-5.425 11.746-4.34 14.312-3.456.003.05.003.101.003.152zM47.9 101.5a1.804 1.804 0 0 1-2.212-1.282c-.938-3.506-4.266-5.73-5.765-6.576a18.017 18.017 0 0 1 1.197-3.46c1.579.811 6.64 3.785 8.059 9.104a1.809 1.809 0 0 1-1.28 2.214zM28.399 116.177a1.799 1.799 0 0 1-2.408-.86c-1.29-2.729-4.121-4.11-5.051-4.5a14.7 14.7 0 0 1-.393-3.979c.518.174.973.345 1.248.436.212.073 5.246 1.805 7.463 6.497.43.902.042 1.98-.86 2.406zM66.631 95.018c-.998 0-1.807-.81-1.807-1.807v-.205a1.807 1.807 0 1 1 3.615 0v.205c0 .998-.81 1.807-1.808 1.807zM59.768 91.816c-.998 0-1.807-.81-1.807-1.808v-.204a1.807 1.807 0 1 1 3.615 0v.204c0 .999-.81 1.808-1.808 1.808z"/></g></svg>