<svg xmlns="http://www.w3.org/2000/svg" width="128" height="128"><path d="M112.013 12.378c-8.74-8.74-22.911-8.74-31.651 0l31.65 31.65c8.741-8.74 8.741-22.91 0-31.65z" fill="#b3b2b9" stroke-width=".241"/><path d="M115.781 17.377a22.398 22.398 0 0 0-3.768-5c-8.74-8.74-22.91-8.74-31.651 0l8.768 8.768c7.219-7.218 18.142-8.474 26.651-3.768z" fill="#8c8b93" stroke-width=".241"/><path d="M106.982 17.408a6.367 6.367 0 0 0 8.877.121 22.366 22.366 0 0 0-8.998-8.997 6.367 6.367 0 0 0 .121 8.876z" fill="#787680" stroke-width=".241"/><path d="M112.013 12.378a22.371 22.371 0 0 0-5.152-3.846 6.37 6.37 0 0 0-1.514 6.063 22.36 22.36 0 0 1 10.422 2.776 22.362 22.362 0 0 0-3.756-4.993zm-14.625-1.913a6.347 6.347 0 0 0 1.863-4.43A22.435 22.435 0 0 0 86.81 7.876a6.336 6.336 0 0 0 1.568 2.589 6.371 6.371 0 0 0 9.01 0z" fill="#57565c"/><path d="M118.355 25.14a6.348 6.348 0 0 0-4.43 1.862 6.372 6.372 0 0 0 0 9.01 6.34 6.34 0 0 0 2.589 1.568 22.43 22.43 0 0 0 1.841-12.44z" fill="#787680" stroke-width=".241"/><path d="M108.33 42.562L81.828 16.061 7.968 56.375A11.048 11.048 0 0 0 2.247 66.94l1.526 19.41a19.577 19.577 0 0 0 5.674 12.309l16.285 16.286a19.58 19.58 0 0 0 12.31 5.674l19.41 1.526c4.34.34 8.477-1.9 10.563-5.722z" fill="#429ce3" stroke-width=".241"/><path d="M9.447 98.658l16.285 16.286a19.565 19.565 0 0 0 6.089 4.127l76.509-76.509-26.502-26.501L5.32 92.57a19.572 19.572 0 0 0 4.128 6.088z" fill="#8bc2ed" stroke-width=".241"/><path d="M101.693 51.667l-28.97-28.969c-2.966-2.967-2.966-7.821 0-10.789 2.967-2.966 7.822-2.966 10.79 0l28.968 28.97c2.967 2.966 2.967 7.82 0 10.788-2.967 2.967-7.822 2.967-10.788 0z" fill="#d7d6d9" stroke-width=".241"/><path d="M83.777 22.963c2.967-2.967 7.821-2.967 10.789 0L83.512 11.91c-2.967-2.967-7.821-2.967-10.788 0-2.967 2.966-2.967 7.821 0 10.788l11.053 11.054c-2.967-2.967-2.967-7.822 0-10.789z" fill="#b3b2b9" stroke-width=".241"/><path d="M60.542 112.343l19.017-34.842c2.772-4.257 2.293-10.013-1.443-13.749a10.865 10.865 0 0 0-2.87-2.059c-.829-.41-1.317-1.263-1.311-2.188a8.967 8.967 0 0 0-2.634-6.416 8.963 8.963 0 0 0-6.37-2.632 2.434 2.434 0 0 1-2.206-1.36c-.496-1.005-1.15-1.95-2.014-2.75-6.292-5.835-13.469-1.708-13.469-1.708L12.047 63.85a2.536 2.536 0 0 0-1.311 2.423L12.26 85.68a11.072 11.072 0 0 0 3.207 6.956l16.285 16.286c1.861 1.861 4.332 3 6.956 3.206l19.41 1.526a2.534 2.534 0 0 0 2.423-1.312z" fill="#b0d6f3" stroke-width=".241"/><path d="M81.177 69.715a10.919 10.919 0 0 0-5.93-8.022c-.83-.41-1.317-1.263-1.312-2.188a8.967 8.967 0 0 0-2.634-6.416 8.964 8.964 0 0 0-6.37-2.632 2.434 2.434 0 0 1-2.206-1.36c-.496-1.005-1.15-1.95-2.013-2.75-2.051-1.902-4.195-2.742-6.155-3.015l-42.3 42.3.005.049a11.072 11.072 0 0 0 3.206 6.956l16.286 16.286c1.86 1.861 4.331 3 6.955 3.206l.05.004z" fill="#fff" stroke-width=".241"/><circle r="1.865" cy="77.733" cx="44.164" fill="#74aede" stroke-width=".241"/><circle r="1.865" cy="80.309" cx="54.259" fill="#74aede" stroke-width=".241"/><circle r="1.865" cy="68.008" cx="55.422" fill="#74aede" stroke-width=".241"/><circle r="1.865" cy="69.873" cx="65.206" fill="#74aede" stroke-width=".241"/><circle r="1.865" cy="60.348" cx="61.718" fill="#74aede" stroke-width=".241"/><circle r="1.865" cy="88.437" cx="44.853" fill="#74aede" stroke-width=".241"/><circle r="4.964" cy="71.822" cx="120.823" fill="#beddf5" stroke-width=".241"/><path d="M120.824 71.821c0-1.836 1-3.436 2.482-4.294a4.934 4.934 0 0 0-2.482-.67 4.964 4.964 0 1 0 0 9.929 4.93 4.93 0 0 0 2.482-.67 4.958 4.958 0 0 1-2.482-4.295z" fill="#9ad6f0" stroke-width=".241"/><circle r="4.964" cy="91.537" cx="110.489" fill="#beddf5" stroke-width=".241"/><circle r="4.964" cy="109.201" cx="120.823" fill="#beddf5" stroke-width=".241"/><path d="M110.489 91.536c0-1.836 1-3.436 2.482-4.295a4.934 4.934 0 0 0-2.482-.67 4.964 4.964 0 1 0 0 9.93c.905 0 1.752-.246 2.482-.67a4.959 4.959 0 0 1-2.482-4.295zm10.335 17.664c0-1.837 1-3.436 2.482-4.295a4.934 4.934 0 0 0-2.482-.67 4.964 4.964 0 1 0 0 9.93 4.94 4.94 0 0 0 2.482-.67 4.958 4.958 0 0 1-2.482-4.295z" fill="#9ad6f0" stroke-width=".241"/></svg>