<svg xmlns="http://www.w3.org/2000/svg" width="128" height="128"><path d="M101.016 31.578c-25.977-7.652 0 18.456 0 46.047l-9.678 9.677h-60.45L19.66 77.624S34.04 7.497 71.85 7.497c18.905 0 31.51 11.14 39.387 22.281zm0 0" fill="#e95666"/><path d="M76.882 7.768a46.3 46.3 0 0 0-5.03-.272c-37.814 0-52.192 70.128-52.192 70.128l11.227 9.678h9.049l-11.227-9.678S42.065 12.488 76.882 7.768zm0 0" fill="#d64655"/><path d="M101.016 77.624a11.374 11.374 0 0 0-9.04 0 11.364 11.364 0 0 1-9.04 0 11.374 11.374 0 0 0-9.04 0 11.364 11.364 0 0 1-9.038 0 11.374 11.374 0 0 0-9.04 0 11.364 11.364 0 0 1-9.039 0 11.374 11.374 0 0 0-9.04 0 11.364 11.364 0 0 1-9.039 0 11.374 11.374 0 0 0-9.04 0c-2.756 1.201-4.52 3.796-4.52 6.651v23.27c0 2.856 1.764 5.452 4.52 6.653a11.366 11.366 0 0 0 9.04 0 11.372 11.372 0 0 1 9.04 0 11.366 11.366 0 0 0 9.04 0 11.372 11.372 0 0 1 9.038 0 11.366 11.366 0 0 0 9.04 0 11.372 11.372 0 0 1 9.039 0 11.366 11.366 0 0 0 9.04 0 11.372 11.372 0 0 1 9.039 0 11.366 11.366 0 0 0 9.04 0c2.756-1.201 4.52-3.797 4.52-6.652v-23.27c0-2.856-1.764-5.452-4.52-6.652zm0 0" fill="#e4e7eb"/><path d="M24.189 107.546v-23.27c0-2.854 1.762-5.448 4.516-6.65l-.005-.002a11.366 11.366 0 0 0-9.04 0c-2.756 1.201-4.52 3.796-4.52 6.651v23.27c0 2.856 1.764 5.452 4.52 6.653a11.366 11.366 0 0 0 9.04 0l.006-.002c-2.755-1.201-4.516-3.796-4.516-6.65zm0 0" fill="#cacfd7"/><path d="M40.648 98.438a1.697 1.697 0 0 1-1.696-1.697v-3.563a1.697 1.697 0 1 1 3.393 0v3.563c0 .938-.76 1.697-1.697 1.697zm39.379 0a1.697 1.697 0 0 1-1.696-1.697v-3.563a1.697 1.697 0 1 1 3.393 0v3.563c0 .938-.76 1.697-1.696 1.697zm-19.689 1.903c-2.383 0-4.62-.995-6.136-2.731a1.697 1.697 0 0 1 2.553-2.233c.873.997 2.178 1.57 3.583 1.57 1.405 0 2.71-.573 3.583-1.57a1.697 1.697 0 0 1 2.553 2.233c-1.515 1.736-3.754 2.73-6.135 2.73zm0 0" fill="#434a53"/><path d="M125.566 22.5a5.172 5.172 0 0 1-1.955-3.385 5.17 5.17 0 0 0-5.322-4.465 5.17 5.17 0 0 1-3.673-1.338 5.17 5.17 0 0 0-6.947 0 5.172 5.172 0 0 1-3.674 1.338 5.17 5.17 0 0 0-5.32 4.465A5.172 5.172 0 0 1 96.72 22.5a5.17 5.17 0 0 0-1.208 6.843 5.17 5.17 0 0 1 .68 3.85 5.17 5.17 0 0 0 3.473 6.017 5.167 5.167 0 0 1 2.995 2.512 5.169 5.169 0 0 0 6.528 2.375 5.175 5.175 0 0 1 3.91 0 5.168 5.168 0 0 0 6.526-2.375 5.168 5.168 0 0 1 2.995-2.514 5.17 5.17 0 0 0 3.474-6.017 5.169 5.169 0 0 1 .68-3.848 5.168 5.168 0 0 0-1.207-6.843zm0 0" fill="#e4e7eb"/><path d="M98.673 19.115A5.168 5.168 0 0 1 96.72 22.5a5.169 5.169 0 0 0-1.208 6.843 5.171 5.171 0 0 1 .68 3.85 5.168 5.168 0 0 0 3.473 6.015 5.167 5.167 0 0 1 2.994 2.514 5.17 5.17 0 0 0 6.529 2.375c-14.047-14.023-5.193-29.447-5.193-29.447a5.17 5.17 0 0 0-5.322 4.465zm0 0" fill="#cacfd7"/></svg>