<svg xmlns="http://www.w3.org/2000/svg" width="128" height="128"><circle cx="64" cy="64" r="64" fill="#f0f0f0"/><path d="M0 64C0 28.654 28.654 0 64 0c35.346 0 64 28.654 64 64" fill="#d80027"/><g fill="#f0f0f0"><path d="M38.956 33.391c0-9.325 6.554-17.114 15.305-19.025a19.552 19.552 0 0 0-4.174-.453c-10.758 0-19.479 8.72-19.479 19.478 0 10.758 8.721 19.479 19.479 19.479 1.433 0 2.828-.16 4.174-.453-8.751-1.912-15.305-9.701-15.305-19.026zm28.661-6.957L64 23.808l-3.617 2.628 1.382-4.252-3.617-2.628h4.47L64 15.305l1.382 4.25h4.47l-3.617 2.628z"/><path d="M56.773 34.782l-3.617-2.627-3.617 2.627 1.382-4.251-3.617-2.627h4.47l1.382-4.252 1.382 4.252h4.47L55.39 30.53zm21.687 0l-3.616-2.627-3.616 2.627 1.381-4.251-3.616-2.627h4.47l1.381-4.252 1.382 4.252h4.47l-3.617 2.627zm-4.173 12.522l-3.617-2.627-3.616 2.627 1.381-4.251-3.616-2.628h4.47l1.381-4.251 1.382 4.251h4.47l-3.617 2.628zm-13.34 0l-3.617-2.627-3.617 2.627 1.382-4.251-3.617-2.628h4.47l1.382-4.251 1.381 4.251h4.47l-3.616 2.628z"/></g></svg>