<svg xmlns="http://www.w3.org/2000/svg" width="128" height="128"><g fill="#fff" font-weight="400" font-family="Jura" letter-spacing="0" word-spacing="0"><g style="line-height:1.25;-inkscape-font-specification:Jura"><path d="M31.408 111.122q1.318 0 2.08.625.833.624.833 1.733 0 .416-.07.694-.762 3.398-3.259 5.2-2.427 1.734-6.449 1.734H6.583q-1.388 0-2.15-.763-.763-.762-.763-2.15 0-1.317 1.248-2.842L23.78 91.775H11.922q-1.803 0-2.635.277-.832.278-1.248 1.11-.416 1.456-1.04 2.15-.625.624-1.942.624-1.387 0-2.15-.624-.763-.624-.763-1.803 0-.416.07-.624 1.317-6.935 9.708-6.935h16.99q2.912 0 2.912 2.912 0 1.387-1.248 2.913l-18.723 23.439 12.69.07q1.664 0 2.496-.278.902-.347 1.318-1.179.485-1.456 1.11-2.08.693-.625 1.941-.625z" style="-inkscape-font-specification:'Jura Bold'" font-weight="700" aria-label="z" font-size="65.387" stroke-width="1.635"/></g><g style="line-height:1.25;-inkscape-font-specification:Jura"><path d="M73.239 79.662q1.622 0 2.561.769 1.025.768 1.025 2.134 0 .513-.086.854-.939 4.184-4.013 6.404-2.988 2.134-7.94 2.134H42.672q-1.707 0-2.646-.94-.94-.938-.94-2.646 0-1.622 1.537-3.5l23.224-29.03h-14.6q-2.22 0-3.245.342-1.024.341-1.537 1.366-.512 1.793-1.28 2.647-.769.768-2.39.768-1.709 0-2.648-.768-.939-.769-.939-2.22 0-.513.085-.769 1.623-8.538 11.954-8.538h20.918q3.586 0 3.586 3.586 0 1.708-1.537 3.586L49.161 84.7l15.625.085q2.05 0 3.074-.341 1.11-.427 1.622-1.452.598-1.793 1.366-2.561.854-.769 2.39-.769z" style="-inkscape-font-specification:'Jura Bold'" font-weight="700" aria-label="z" font-size="80.507" stroke-width="2.013"/></g><g style="line-height:1.25;-inkscape-font-specification:Jura"><path d="M121.66 43.16q1.898 0 2.997.9 1.199.898 1.199 2.497 0 .6-.1.999-1.1 4.896-4.696 7.493-3.497 2.498-9.292 2.498H85.891q-1.998 0-3.098-1.099-1.099-1.099-1.099-3.097 0-1.898 1.799-4.096l27.176-33.97H93.584q-2.598 0-3.797.399-1.199.4-1.798 1.599-.6 2.098-1.499 3.097-.899.9-2.797.9-1.999 0-3.098-.9-1.099-.9-1.099-2.598 0-.6.1-.899 1.899-9.991 13.988-9.991h24.479q4.196 0 4.196 4.196 0 1.998-1.799 4.196l-26.976 33.77 18.284.1q2.398 0 3.597-.399 1.299-.5 1.898-1.699.7-2.098 1.599-2.997.999-.9 2.797-.9z" style="-inkscape-font-specification:'Jura Bold'" font-weight="700" aria-label="z" font-size="94.209" stroke-width="2.355"/></g></g></svg>