<svg xmlns="http://www.w3.org/2000/svg" width="128" height="128"><path d="M24.484 124.726c0-21.347 17.305-38.652 38.653-38.652 21.347 0 38.653 17.305 38.653 38.652zm0 0" fill="#fefefe"/><path d="M68.024 86.38a38.858 38.858 0 0 0-4.888-.306c-21.347 0-38.652 17.305-38.652 38.652h9.775c0-19.692 14.725-35.944 33.765-38.346zm0 0" fill="#d1e7f8"/><path d="M87.329 118.431c-5.398 0-9.775-4.376-9.775-9.774v-14.99h19.55v14.99c0 5.397-4.377 9.774-9.775 9.774zm0 0" fill="#e04141"/><path d="M111.904 25.443a8.56 8.56 0 1 1-17.12 0 8.56 8.56 0 0 1 17.12 0zm0 0" fill="#d5e7f7"/><path d="M22.348 43.065a41.763 41.763 0 0 0-.736 7.815c0 22.934 18.591 41.526 41.524 41.526 22.935 0 41.526-18.592 41.526-41.526 0-2.671-.256-5.283-.738-7.815zm0 0" fill="#fefefe"/><path d="M31.386 50.88c0-2.671.255-5.283.738-7.815h-9.776a41.763 41.763 0 0 0-.736 7.815c0 22.934 18.591 41.526 41.524 41.526 1.654 0 3.285-.1 4.888-.288-20.63-2.42-36.638-19.957-36.638-41.238zm0 0" fill="#d1e7f8"/><path d="M63.136 3.274c15.64 0 40.208 12.814 40.208 22.17 0 9.354-40.208-3.598-40.208-3.598zm0 0" fill="#c93939"/><path d="M63.136 3.274c-22.725 0-44.047 40.444-44.047 40.444h88.096S85.863 3.274 63.136 3.274zm0 0" fill="#f55"/><path d="M68.024 3.876a20.807 20.807 0 0 0-4.888-.602c-22.725 0-44.047 40.444-44.047 40.444h9.774S47.221 8.898 68.024 3.876zm0 0" fill="#e04141"/><path d="M23.672 31.988h78.93a7.575 7.575 0 1 1 0 15.15h-78.93a7.575 7.575 0 1 1 0-15.15zm0 0" fill="#e1efff"/><path d="M25.87 39.563a7.576 7.576 0 0 1 7.576-7.575h-9.774a7.575 7.575 0 1 0 0 15.15h9.774a7.576 7.576 0 0 1-7.576-7.575zm0 0" fill="#d5e7f7"/><path d="M29.169 93.126c0-5.399 4.376-9.775 9.775-9.775h48.385c5.398 0 9.775 4.376 9.775 9.775 0 5.398-4.377 9.775-9.775 9.775H38.944c-5.399 0-9.775-4.377-9.775-9.775zm0 0" fill="#f55"/><path d="M38.944 93.126c0-5.399 4.376-9.775 9.774-9.775h-9.774c-5.399 0-9.775 4.376-9.775 9.775 0 5.398 4.376 9.775 9.775 9.775h9.774c-5.398 0-9.774-4.377-9.774-9.775zm0 0" fill="#e04141"/><path d="M51.814 83.351H74.46v19.55H51.814zm0 0" fill="#e1efff"/><g fill="#1d1d1f"><path d="M63.136 65.017a6.52 6.52 0 0 1-5.637-3.263 1.78 1.78 0 0 1 3.085-1.774 2.954 2.954 0 0 0 2.552 1.48c1.051 0 2.03-.568 2.554-1.48a1.78 1.78 0 0 1 3.085 1.774 6.521 6.521 0 0 1-5.639 3.263zm0 0M78.7 57.863c-.983 0-1.779-.797-1.779-1.779v-2.775a1.778 1.778 0 1 1 3.559 0v2.775a1.78 1.78 0 0 1-1.78 1.78zm0 0M47.573 57.863a1.78 1.78 0 0 1-1.779-1.779v-2.775a1.779 1.779 0 1 1 3.558 0v2.775a1.78 1.78 0 0 1-1.779 1.78zm0 0"/></g><path d="M80.088 63.108h-2.775a1.778 1.778 0 1 1 0-3.558h2.775a1.779 1.779 0 1 1 0 3.558zm0 0M48.96 63.108h-2.774a1.778 1.778 0 1 1 0-3.558h2.774a1.779 1.779 0 1 1 0 3.558zm0 0" fill="#f55"/></svg>