<svg xmlns="http://www.w3.org/2000/svg" width="128" height="128"><circle cx="64" cy="64" r="57.944" fill="none" stroke="#00ff28" stroke-width="8" stroke-linejoin="round"/><path d="M92 82S82 94 64 94 36 82 36 82" fill="none" stroke="#00ff28" stroke-width="8" stroke-linecap="round"/><g fill="#0f0"><path d="M62.362 49.124c.165 5.276-4.957 18.188-21.544 18.571C30.655 68.175 22.63 61.971 21 52c.096-5.561-5.98-8.408-3.001-12.531 3.091-4.28 43.98-2.624 44.363 9.655z"/><path d="M56 43c7 1 9 1 16 0v8c-6-2-10-2-16 0z"/><path d="M65.703 49.124c-.165 5.276 4.957 18.188 21.544 18.571 10.163.48 18.188-5.724 19.818-15.695-.096-5.561 5.98-8.408 3.001-12.531-3.091-4.28-43.98-2.624-44.363 9.655z"/></g></svg>