<svg xmlns="http://www.w3.org/2000/svg" width="128" height="128"><path d="M64 3.094C30.39 3.094 3.094 30.391 3.094 64c0 33.61 27.297 60.906 60.906 60.906 33.609 0 60.906-27.298 60.906-60.906 0-33.61-27.297-60.906-60.906-60.906zm0 4.804c31.012 0 56.102 25.09 56.102 56.102 0 31.012-25.09 56.102-56.102 56.102-31.012 0-56.102-25.09-56.102-56.102C7.898 32.987 32.988 7.898 64 7.898zm26.015 11.907L70.37 53.965c4.092 2.478 6.473 6.77 6.717 11.256h38.154c.422-17.999-8.61-35.701-25.227-45.416zm-52.736.634a50.924 50.924 0 0 0-17.41 17.908c-4.887 8.466-6.923 17.77-6.685 26.874h35.961a13.893 13.893 0 0 1 1.848-6.283 13.9 13.9 0 0 1 5.455-5.302L37.278 20.44zM63.14 56.73c-.223 0-.447.009-.667.024a9.17 9.17 0 0 0-7.327 4.588 9.171 9.171 0 0 0 3.374 12.573 9.16 9.16 0 0 0 12.565-3.366 9.169 9.169 0 0 0-3.366-12.574 9.192 9.192 0 0 0-4.58-1.245zm7.254 21.178c-4.146 2.506-9.477 2.788-13.987.321l-17.49 30.136c7.572 4.315 15.694 6.473 23.845 6.684 8.887.231 17.667-2.001 25.484-6.178z" fill="#fff"/></svg>