<svg xmlns="http://www.w3.org/2000/svg" width="128" height="128"><path d="M108 36.79h-8.058V22a2.857 2.857 0 0 0-2.857-2.857H79.138v37.428l7.477 4.133a2.856 2.856 0 0 1 1.475 2.5v19.457a2.857 2.857 0 0 1-2.857 2.856H67.328a2.857 2.857 0 0 1-2.856-2.856V63.204c0-1.04.564-1.997 1.474-2.5l7.478-4.133V19.143H22.857A2.857 2.857 0 0 0 20 22v71.376c0 8 8 16 16 16h47.941c8 0 16-8 16-16v-1.595h8.058c11.722 0 18.807-9.536 18.807-21.258V58.048c0-11.721-7.085-21.258-18.806-21.258zm6.5 34.119c0 4.919-1.55 8.92-6.47 8.92h-7.933V48.741h7.933c4.92 0 6.47 4.002 6.47 8.921z" fill="#fff" stroke-width=".571"/></svg>