<svg xmlns="http://www.w3.org/2000/svg" width="128" height="128"><path d="M79.304 2.209c-.648.368-1.177.95-1.703 1.95-.635 1.206-1.163 2.944-1.614 4.969-.9 4.05-1.497 9.188-3.286 13.923l-.147.389-.266.318C57.808 41.03 47.279 50.475 39.96 64.18l-.668 1.25-1.418.042s-2.887.087-6.14.668c-3.254.58-11.741.9-12.531 1.906-3.62 4.61-6.378 12.43-6.81 19.139-.433 6.708 1.051 13.305 4.53 17.81.232.301 8.02 1.24 10.38 1.44 2.362.198 4.488.044 4.488.044l1.652-.124.727 1.488c4.028 8.237 16.693 13.743 30.133 17.943 1.191.067 3.25-.495 5.664-1.71-5.383-2.056-9.607-3.811-14.26-6.271l-1.201-.635-.095-1.356c-.243-3.48 1.541-6.321 3.697-8.218a19.98 19.98 0 0 1 2.17-1.64c-.42-.186-.836-.375-1.256-.558l-1.276-.557-.172-1.381c-.476-3.814.697-7.578 3.168-10.248a10.716 10.716 0 0 1 1.681-1.468l-.062-.027-.12-1.443c-.356-4.299 2.37-7.996 5.513-10.598a23.69 23.69 0 0 1 1.8-1.355l-.248-.583c-1.22-2.881-.634-5.917.818-8.098 1.453-2.182 3.628-3.71 5.954-4.561l.063-.023.064-.02c4.524-1.38 8.86-.274 12.972.823 4.112 1.096 8.106 2.233 12.26 1.88 2.523 4.211 2.2 3.402 2.85 4.666l-2.435.206c-5.274.447-9.909-.955-13.935-2.028-3.995-1.065-7.288-1.754-10.217-.887-1.394.525-2.773 1.553-3.506 2.654-.584.876-.831 1.679-.635 2.648 5.913 2.518 10.423 5.256 15.493 6.736 5.346 1.56 11.542 1.918 21.547-.824 1.591-.772 3.155-2.086 4.078-3.517.952-1.474 1.26-2.891.78-4.346-1.743-5.277-4.13-9.964-8.971-13.178-10.908-4.537-17.916-4.572-27.51-3.622-.17-1.417-.118-2.891.007-4.914.56-4.116 2.402-9.193 4.548-14.965 2.66-7.155 5.892-14.982 8.262-21.43-.555-5.375-2.07-8.384-4.087-10.13-1.981-1.716-4.77-2.46-8.402-2.599zM75.358 81.17c-1.228.299-2.975 1.021-4.486 2.272-1.837 1.52-3.17 3.527-3.604 5.158 6.677 3.118 11.705 6.232 20.272 8.987l18.177-1.03c3.259-1.142 5.373-2.316 6.538-3.314 1.2-1.03 1.438-1.71 1.48-2.382.072-1.127-1.04-3.018-2.683-5.006-10.19 2.671-17.362 2.326-23.37.572-4.516-1.319-8.29-3.32-12.324-5.257zm-6.899 13.421c-1.733.053-3.066.794-4.129 1.942-1.16 1.254-1.861 3.077-1.926 5.023 6.333 2.817 12.245 5.74 20.288 8.259l15.358-.298c5.938-.245 7.548-2.659 7.855-4.85a4.54 4.54 0 0 0-.736-3.183l-18.273 1.037-.426-.135c-7.771-2.454-12.782-5.187-18-7.795h-.011zm-2.705 13.836c-1.668.905-3.274 1.834-4.416 2.839-1.088.957-1.74 1.812-1.966 2.904 4.725 2.397 9.217 4.173 15.587 6.563l12.634.433c2.177-.93 3.476-1.817 4.096-2.474.662-.704.716-1.032.707-1.596-.01-.576-.365-1.47-.815-2.563l-9.616.186-.377-.116c-6.214-1.92-11.18-4.072-15.834-6.177z" fill="#fff"/></svg>