<svg xmlns="http://www.w3.org/2000/svg" width="128" height="128"><path d="M64 0C20 0 20 44 20 44v52s0 2 2 2h84c2 0 2-2 2-2V44s0-44-44-44zM44.697 25.16c4 0 6.801.72 8.721 2.44 1.6 1.4 2.44 3.52 2.44 6 0 3.92-2.4 6.6-5.48 7.76v.08c2.28.84 3.56 3 4.28 6.24.92 4 1.68 7.16 2.28 8.32h-4.8c-.44-.88-1.16-3.56-1.92-7.32-.84-4.08-2.32-5.64-5.56-5.64h-2.8V56h-4.6V25.8c1.96-.36 4.68-.64 7.44-.64zm34.844 0c3.76 0 6.601.8 8.441 2.44 1.72 1.48 2.76 3.8 2.76 6.6 0 7.44-5.92 10-11.44 10-.96 0-1.84-.04-2.6-.2v12h-4.6V25.76c1.84-.32 4.279-.6 7.439-.6zm-18.455.24h4.64V56h-4.64zm-15.988 3.36c-1.56 0-2.68.12-3.24.28v10.52h3.12c3.84 0 6.24-2.2 6.24-5.48 0-3.96-2.8-5.32-6.12-5.32zm34.724.04c-1.44 0-2.52.16-3.12.28v11.2c.68.2 1.52.24 2.6.24 4.24 0 6.8-2.2 6.8-6.12 0-3.72-2.56-5.6-6.28-5.6zM34 64h60c1.108 0 2 .892 2 2s-.892 2-2 2H34c-1.108 0-2-.892-2-2s.892-2 2-2zm4 10h52c1.108 0 2 .892 2 2s-.892 2-2 2H38c-1.108 0-2-.892-2-2s.892-2 2-2z" fill="#fff"/><rect width="112" height="18.983" x="8" y="104" rx="4" ry="4" fill="#fff"/></svg>