<svg xmlns="http://www.w3.org/2000/svg" width="128" height="128"><path d="M34.654 7.106a63.962 63.962 0 0 0-15.91 11.636A63.956 63.956 0 0 0 7.106 34.653l41.151 45.088 45.088 41.152a63.964 63.964 0 0 0 15.91-11.636 63.962 63.962 0 0 0 11.637-15.912L79.741 48.258z" fill="#f0f0f0"/><path d="M109.257 109.257a64.388 64.388 0 0 0 7.187-8.555L27.298 11.555a64.367 64.367 0 0 0-8.555 7.187 64.374 64.374 0 0 0-7.187 8.555l89.146 89.146a64.381 64.381 0 0 0 8.555-7.186z"/><path d="M18.743 109.257c20.192 20.191 50.516 24.067 74.602 11.636L7.107 34.653C-5.325 58.74-1.448 89.065 18.743 109.257zm90.514-90.515C89.065-1.449 58.74-5.325 34.654 7.106l86.239 86.24c12.431-24.087 8.555-54.412-11.636-74.604z" fill="#d80027"/></svg>