<svg xmlns="http://www.w3.org/2000/svg" width="128" height="128"><path d="M103.174 25.353H24.826v88.183h78.348c7.3 0 13.218-19.74 13.218-44.091 0-24.352-5.919-44.092-13.218-44.092zm0 0" fill="#be6332"/><path d="M24.826 113.536h29.246c7.71-19.504 9.108-35.438 8.867-45.592-.156-6.588 1.82-13.047 5.566-18.468 4.122-5.965 3.697-12.203 3.697-12.203l-6.627-11.92H24.826zm0 0" fill="#915738"/><path d="M44.447 26.57l5.998 11.953c2.722 5.426 9.234 7.769 14.773 5.285 9.075-4.072 9.174-14.291 2.386-19.466l-10.919-8.323zm0 0" fill="#d6764d"/><path d="M38.044 69.445c0-24.352-5.917-44.092-13.218-44.092-7.3 0-13.218 19.74-13.218 44.092 0 24.35 5.919 44.091 13.218 44.091 7.3 0 13.218-19.74 13.218-44.091zm0 0" fill="#ffc477"/><path d="M46.823 16.955c-3.38 2.913-4.443 7.22-2.376 9.618 2.069 2.398 6.485 1.98 9.864-.934 3.38-2.914 4.442-7.22 2.374-9.618-2.068-2.398-6.483-1.98-9.862.934zm0 0" fill="#ffcc89"/><path d="M95.62 71.51a1.582 1.582 0 0 1-1.581-1.58v-2.626a1.582 1.582 0 0 1 3.162 0v2.625c0 .873-.707 1.582-1.581 1.582zm-34.01 0a1.581 1.581 0 0 1-1.58-1.58v-2.626a1.581 1.581 0 1 1 3.162 0v2.625c0 .873-.709 1.582-1.582 1.582zm17.005 1.656a9.448 9.448 0 0 1-5.8-1.986 1.58 1.58 0 1 1 1.938-2.499 6.302 6.302 0 0 0 7.725 0 1.582 1.582 0 0 1 1.938 2.499 9.448 9.448 0 0 1-5.8 1.986zm0 0" fill="#2f2e31"/><path d="M115.082 88.6H84.005c-3.743 0-6.805 3.061-6.805 6.804 0 3.743 3.062 6.806 6.805 6.806h28.014c1.268-3.811 2.312-8.428 3.063-13.61zm-1.524-46.437H99.905c-3.743 0-6.805 3.062-6.805 6.805 0 3.742 3.062 6.805 6.805 6.805h15.84c-.488-4.986-1.234-9.582-2.187-13.61zM68.415 95.404a6.805 6.805 0 1 1-13.61.001 6.805 6.805 0 0 1 13.61 0zm0 0" fill="#72472e"/><path d="M54.805 95.404a6.803 6.803 0 0 0 3.453 5.924c1.31-4.51 2.283-8.763 2.991-12.719a6.805 6.805 0 0 0-6.444 6.795zm0 0" fill="#b2785b"/><path d="M28.158 69.445c0-11.93-1.492-21.6-3.332-21.6-1.84 0-3.332 9.67-3.332 21.6 0 11.93 1.492 21.6 3.332 21.6 1.84 0 3.332-9.67 3.332-21.6zm0 0" fill="#ffb255"/></svg>