<svg xmlns="http://www.w3.org/2000/svg" width="128" height="128"><path d="M106.972 47.416C101.315 50.373 61.31 77.466 64 83.684c2.69 6.217 47.058-10.797 52.715-13.754 5.656-2.957 8.06-10.394 5.37-16.611-2.69-6.217-9.457-8.86-15.113-5.903zm0 0" fill="#935b45"/><path d="M64 83.684c-2.14-4.946 22.737-23.101 35.85-31.81 6.488 6.595 9.964 14.365 11.804 20.28C98.404 77.57 66.277 88.947 64 83.685zm0 0" fill="#774d3f"/><path d="M93.091 33.447c-4.395 4.906-33.554 45.406-29.09 50.237 4.463 4.83 40.858-27.838 45.253-32.744 4.395-4.905 4.34-12.798-.123-17.628-4.464-4.831-11.644-4.77-16.04.135zm0 0" fill="#b2785b"/><path d="M64 83.684c-3.357-3.635 12.317-27.462 22.158-41.127 7.863 3.368 13.497 8.418 17.525 13.774C92.127 66.95 67.611 87.59 64 83.684zm0 0" fill="#935b45"/><path d="M73.675 25.092C71.29 31.46 58.208 81.063 64 83.684c5.793 2.62 28.267-42.736 30.652-49.103 2.384-6.366-.38-13.652-6.172-16.272-5.792-2.62-12.421.416-14.805 6.783zm0 0" fill="#c68d6d"/><path d="M64 83.684c-4.17-1.887 1.443-28.12 5.803-45.045 8.186.691 14.853 2.842 20.28 5.834C82.582 59.698 68.426 85.685 64 83.683zm0 0" fill="#b2785b"/><path d="M21.029 47.416C26.686 50.373 66.69 77.466 64 83.684 61.31 89.9 16.942 72.887 11.286 69.93 5.629 66.973 3.224 59.536 5.915 53.32c2.69-6.217 9.457-8.86 15.114-5.903zm0 0" fill="#935b45"/><path d="M64 83.684c2.14-4.946-22.736-23.101-35.848-31.81-6.49 6.595-9.966 14.365-11.805 20.28C29.597 77.57 61.724 88.947 64 83.685zm0 0" fill="#774d3f"/><path d="M34.909 33.447C39.304 38.353 68.464 78.853 64 83.684c-4.463 4.83-40.858-27.838-45.254-32.744-4.394-4.905-4.34-12.798.124-17.628 4.463-4.831 11.644-4.77 16.039.135zm0 0" fill="#b2785b"/><path d="M64 83.684c3.358-3.635-12.317-27.462-22.157-41.127-7.864 3.368-13.497 8.418-17.526 13.774C35.873 66.95 60.389 87.59 64 83.684zm0 0" fill="#935b45"/><path d="M54.325 25.092C56.71 31.46 69.793 81.063 64 83.684c-5.792 2.62-28.268-42.736-30.65-49.103-2.385-6.366.378-13.652 6.17-16.272 5.793-2.62 12.422.416 14.805 6.783zm0 0" fill="#c68d6d"/><path d="M64 83.684c4.17-1.887-1.442-28.12-5.802-45.045-8.186.691-14.854 2.84-20.282 5.834C45.42 59.697 59.576 85.685 64 83.683zm0 0" fill="#b2785b"/><path d="M75.342 25.455c0 6.884-5.078 58.229-11.342 58.229s-11.342-51.345-11.342-58.23c0-6.884 5.078-12.465 11.342-12.465s11.342 5.581 11.342 12.466zm0 0" fill="#dd9f80"/><path d="M95.815 84.724c0 17.57-14.244 25.747-31.815 25.747-17.57 0-31.814-8.176-31.814-25.747 0-17.571 14.244-40.406 31.814-40.406s31.815 22.835 31.815 40.406zm0 0" fill="#dd9f80"/><path d="M64 44.318c-17.57 0-31.814 22.835-31.814 40.406 0 .832.032 1.644.095 2.434C59.263 83.898 64 58.151 64 58.151s4.736 25.748 31.72 29.007c.061-.79.094-1.602.094-2.434 0-17.571-14.244-40.406-31.815-40.406zm0 0" fill="#eab9a4"/><path d="M80.253 46.064c0 8.976-7.276 16.253-16.253 16.253-8.976 0-16.252-7.277-16.252-16.253 0-8.976 7.276-16.253 16.252-16.253 8.977 0 16.253 7.277 16.253 16.253zm0 0" fill="#ffe9c5"/><path d="M60.287 49.248h7.427c2.333 0 3.617 2.712 2.138 4.517l-2.994 3.652a3.695 3.695 0 0 1-5.715 0l-2.994-3.652c-1.48-1.805-.196-4.517 2.138-4.517zm0 0" fill="#ffc477"/><path d="M54.285 114.207c-2.089-1.631-5.005-1.689-7.048 0a3.506 3.506 0 0 1-4.468-5.403 12.553 12.553 0 0 1 15.986 0 3.505 3.505 0 0 1 .466 4.936c-.694.838-3.064 1.927-4.936.467zm0 0M80.763 114.207c-2.089-1.631-5.006-1.689-7.048 0a3.506 3.506 0 0 1-4.47-5.403 12.553 12.553 0 0 1 15.987 0 3.505 3.505 0 0 1 .467 4.936c-.694.838-3.064 1.927-4.936.467zm0 0" fill="#ffe9c5"/><path d="M59.092 42.185a2.482 2.482 0 1 1-4.965 0 2.483 2.483 0 0 1 4.965 0M72.707 42.185a2.482 2.482 0 1 1-4.965 0 2.483 2.483 0 0 1 4.965 0" fill="#292f33"/></svg>