<svg xmlns="http://www.w3.org/2000/svg" width="128" height="128"><path d="M122.144 17.22c-6.46 9.689-6.46-3.23-16.15 6.459-9.689-6.46-9.689 9.69-19.379 0 2.904 8.717 11.043 14.773 19.702 15.91-.895 5.778.652 12.745-6.782 19.615-6.486 5.998-9.764 1.008-25.84-9.686-9.688-6.447-16.148-12.92-32.297-9.69C22.397 43.63 5.869 59.204 5.869 65.663c0 6.46 9.69 45.118 67.827 45.118 6.46 0 16.934-2.145 25.839-9.59 19.233-16.078 18.997-49.575 14.792-62.84 5.75-3.64 7.817-13.403 7.817-21.132" fill="#3b88c3"/><path d="M103.443 97.355c.48-.533.933-1.092 1.385-1.65 6.07-7.591 9.373-17.274 10.836-26.776-6.456 16.136-9.709 32.26-45.211 32.26-35.528 0-48.447-41.989-64.597-35.529 0 6.463 9.69 45.118 67.827 45.118 6.46 0 16.934-2.145 25.839-9.59 1.03-.856 1.976-1.786 2.906-2.739.343-.358.682-.723 1.015-1.094" fill="#55acee"/><path d="M31.708 64.048a4.844 4.844 0 1 1-9.689.001 4.844 4.844 0 0 1 9.69 0" fill="#292f33"/></svg>