<?xml version="1.0" encoding="UTF-8" standalone="no"?>
<svg
   xmlns:dc="http://purl.org/dc/elements/1.1/"
   xmlns:cc="http://creativecommons.org/ns#"
   xmlns:rdf="http://www.w3.org/1999/02/22-rdf-syntax-ns#"
   xmlns:svg="http://www.w3.org/2000/svg"
   xmlns="http://www.w3.org/2000/svg"
   xmlns:sodipodi="http://sodipodi.sourceforge.net/DTD/sodipodi-0.dtd"
   xmlns:inkscape="http://www.inkscape.org/namespaces/inkscape"
   style="isolation:isolate"
   width="128"
   height="128"
   version="1.1"
   id="svg10"
   sodipodi:docname="frag-egg-nopin-nolever.svg"
   inkscape:version="0.92.2 (5c3e80d, 2017-08-06)">
  <metadata
     id="metadata16">
    <rdf:RDF>
      <cc:Work
         rdf:about="">
        <dc:format>image/svg+xml</dc:format>
        <dc:type
           rdf:resource="http://purl.org/dc/dcmitype/StillImage" />
        <dc:title />
      </cc:Work>
    </rdf:RDF>
  </metadata>
  <defs
     id="defs14" />
  <sodipodi:namedview
     pagecolor="#ffffff"
     bordercolor="#666666"
     borderopacity="1"
     objecttolerance="10"
     gridtolerance="10"
     guidetolerance="10"
     inkscape:pageopacity="0"
     inkscape:pageshadow="2"
     inkscape:window-width="1920"
     inkscape:window-height="1017"
     id="namedview12"
     showgrid="true"
     inkscape:zoom="3.6875"
     inkscape:cx="-15.597226"
     inkscape:cy="99.435752"
     inkscape:window-x="1912"
     inkscape:window-y="-8"
     inkscape:window-maximized="1"
     inkscape:current-layer="svg10">
    <inkscape:grid
       type="xygrid"
       id="grid865"
       empspacing="4"
       spacingx="1"
       spacingy="1" />
  </sodipodi:namedview>
  <g
     id="g1122"
     transform="translate(1.27865,-3.2911504)">
    <path
       inkscape:connector-curvature="0"
       style="fill:#f285b9;stroke:#202020;stroke-width:12;stroke-miterlimit:4;stroke-dasharray:none;stroke-opacity:1"
       d="M 89.290136,44.697111 C 82.278468,34.618314 72.84302,29.067641 62.721352,29.067641 c -10.121662,0 -19.556931,5.550673 -26.568598,15.62947 -6.766927,9.72768 -10.493757,22.604313 -10.493757,36.257869 0,21.60399 16.626053,39.18021 37.062355,39.18021 20.436308,0 37.062351,-17.57622 37.062351,-39.18021 1.8e-4,-13.653556 -3.726651,-26.530189 -10.493567,-36.257869 z"
       id="path1074" />
    <g
       transform="matrix(0.7737348,0,0,0.7737348,-85.200545,-38.658297)"
       id="g1085">
      <path
         inkscape:connector-curvature="0"
         style="fill:#f285b9;stroke-width:0.20449024"
         d="m 221.7248,112 c -8.06121,-11.58744 -18.909,-17.968968 -30.54573,-17.968968 -11.63673,0 -22.48432,6.381528 -30.54552,17.968968 -7.77984,11.18377 -12.06452,25.98784 -12.06452,41.68513 0,24.83779 19.11473,45.04491 42.61004,45.04491 23.49532,0 42.61004,-20.20712 42.61004,-45.04491 C 233.78932,137.98784 229.50464,123.18377 221.7248,112 Z"
         id="path2-6" />
      <g
         transform="matrix(0.20449025,0,0,0.20449025,138.82977,94.031032)"
         id="g10">
        <path
           inkscape:connector-curvature="0"
           style="fill:#ffc170"
           d="m 446.452,381.023 c 10.637,-25.256 16.916,-52.998 17.8,-82.158 H 47.749 c 0.883,29.16 7.162,56.902 17.8,82.158 z"
           id="path6-3" />
        <path
           inkscape:connector-curvature="0"
           style="fill:#ffc170"
           d="m 456.32,210.753 c -6.814,-33.388 -17.852,-64.792 -32.722,-92.874 H 88.399 c -14.869,28.083 -25.907,59.486 -32.72,92.874 z"
           id="path8-3" />
      </g>
      <g
         transform="matrix(0.20449025,0,0,0.20449025,138.82977,94.031032)"
         id="g26">
        <path
           inkscape:connector-curvature="0"
           style="fill:#fff8da"
           d="m 47.627,291.721 c 0,7.434 0.355,14.781 1.039,22.028 h 414.666 c 0.683,-7.247 1.039,-14.594 1.039,-22.028 0,-4.582 -0.08,-9.146 -0.227,-13.693 H 47.855 c -0.148,4.547 -0.228,9.111 -0.228,13.693 z"
           id="path18" />
        <path
           inkscape:connector-curvature="0"
           style="fill:#fff8da"
           d="M 412.242,98.233 H 99.757 C 92.632,109.508 86.2,121.455 80.47,133.954 h 351.058 c -5.73,-12.499 -12.161,-24.447 -19.286,-35.721 z"
           id="path20" />
        <path
           inkscape:connector-curvature="0"
           style="fill:#fff8da"
           d="m 77.391,213.73 c 9.123,0 12.749,2.61 19.331,7.35 8.254,5.943 19.558,14.082 40.204,14.082 20.644,0 31.949,-8.14 40.203,-14.082 6.582,-4.739 10.208,-7.35 19.33,-7.35 9.126,0 12.751,2.611 19.335,7.35 8.255,5.943 19.561,14.082 40.206,14.082 20.645,0 31.95,-8.138 40.206,-14.082 6.583,-4.739 10.21,-7.35 19.335,-7.35 9.122,0 12.748,2.61 19.329,7.35 8.254,5.943 19.558,14.082 40.202,14.082 20.644,0 31.949,-8.14 40.203,-14.082 6.581,-4.739 10.208,-7.35 19.329,-7.35 9.123,0 12.749,2.61 19.331,7.35 1.525,1.099 3.158,2.273 4.932,3.457 -2.578,-15.467 -6.042,-30.557 -10.361,-45.146 -4.11,-0.866 -8.709,-1.381 -13.901,-1.381 -20.644,0 -31.949,8.14 -40.203,14.082 -6.581,4.739 -10.208,7.35 -19.329,7.35 -9.121,0 -12.748,-2.61 -19.329,-7.35 -8.254,-5.943 -19.558,-14.082 -40.202,-14.082 -20.646,0 -31.951,8.138 -40.206,14.082 -6.583,4.739 -10.21,7.35 -19.335,7.35 -9.125,0 -12.751,-2.611 -19.335,-7.35 -8.255,-5.943 -19.561,-14.082 -40.206,-14.082 -20.643,0 -31.949,8.14 -40.202,14.082 -6.582,4.739 -10.208,7.35 -19.33,7.35 -9.123,0 -12.749,-2.61 -19.331,-7.35 -8.254,-5.943 -19.558,-14.082 -40.203,-14.082 -5.188,0 -9.785,0.516 -13.894,1.38 -4.319,14.588 -7.784,29.678 -10.361,45.144 1.772,-1.182 3.402,-2.355 4.926,-3.452 6.579,-4.742 10.204,-7.352 19.326,-7.352 z"
           id="path22" />
        <path
           inkscape:connector-curvature="0"
           style="fill:#fff8da"
           d="m 394.398,370.696 c -6.581,4.739 -10.208,7.35 -19.329,7.35 -9.121,0 -12.748,-2.61 -19.329,-7.35 -8.254,-5.943 -19.558,-14.082 -40.202,-14.082 -20.646,0 -31.951,8.138 -40.206,14.082 -6.583,4.739 -10.21,7.35 -19.335,7.35 -9.124,0 -12.751,-2.611 -19.335,-7.35 -8.255,-5.943 -19.561,-14.082 -40.206,-14.082 -20.643,0 -31.949,8.14 -40.202,14.082 -6.582,4.739 -10.208,7.35 -19.33,7.35 -9.123,0 -12.749,-2.61 -19.331,-7.35 -8.254,-5.943 -19.558,-14.082 -40.203,-14.082 -7.76,0 -14.199,1.15 -19.652,2.902 3.552,11.582 7.984,22.747 13.22,33.406 1.85,-0.383 3.93,-0.587 6.432,-0.587 9.123,0 12.749,2.61 19.331,7.35 8.254,5.943 19.558,14.082 40.204,14.082 20.644,0 31.949,-8.14 40.203,-14.082 6.582,-4.739 10.208,-7.35 19.33,-7.35 9.126,0 12.751,2.611 19.335,7.35 8.255,5.943 19.561,14.082 40.206,14.082 20.645,0 31.95,-8.138 40.206,-14.082 6.583,-4.739 10.21,-7.35 19.335,-7.35 9.122,0 12.748,2.61 19.329,7.35 8.254,5.943 19.558,14.082 40.202,14.082 20.644,0 31.949,-8.14 40.203,-14.082 6.581,-4.739 10.208,-7.35 19.329,-7.35 2.505,0 4.588,0.204 6.439,0.588 5.237,-10.658 9.668,-21.823 13.22,-33.405 -5.456,-1.752 -11.896,-2.903 -19.66,-2.903 -20.646,-0.001 -31.949,8.139 -40.204,14.081 z"
           id="path24" />
      </g>
    </g>
  </g>
</svg>
