<svg xmlns="http://www.w3.org/2000/svg" style="isolation:isolate" width="128" height="128"><path d="M64.622 37.558a26.451 26.451 0 0 1 12.603 3.535 26.451 26.451 0 0 1 9.682 36.135 26.451 26.451 0 0 1-36.132 9.682 26.451 26.451 0 0 1-9.682-36.135 26.451 26.451 0 0 1 23.53-13.217zm-.094 9.558a17.077 17.077 0 0 0-15.193 8.536 17.077 17.077 0 0 0 6.25 23.327 17.077 17.077 0 0 0 23.326-6.25 17.077 17.077 0 0 0-6.249-23.33 17.077 17.077 0 0 0-8.134-2.283z" fill="#909090" stroke="#202020" stroke-width="4"/></svg>