<svg xmlns="http://www.w3.org/2000/svg" xmlns:xlink="http://www.w3.org/1999/xlink" style="isolation:isolate" width="128" height="128"><defs><linearGradient id="a"><stop offset="0" stop-color="#bc3400"/><stop offset="1" stop-color="#ff8050"/></linearGradient><linearGradient xlink:href="#a" id="b" gradientUnits="userSpaceOnUse" gradientTransform="translate(9.032 -7.145)" x1="-6.068" y1="117.021" x2="92.569" y2="29.732"/></defs><path d="M18.496 16.752v95.235l6.996 7.322H108.2s-10.577-11.648 0-20.055V8.22l-83.349.14z" style="isolation:isolate" fill="url(#b)"/><path d="M105.815 101.55a5.106 5.106 0 0 0 4.297-5.034V11.09a5.104 5.104 0 0 0-5.099-5.098H29.784c-6.56 0-11.896 5.337-11.896 11.896v92.224c0 6.56 5.337 11.896 11.896 11.896h75.23a5.104 5.104 0 0 0 5.098-5.098 5.106 5.106 0 0 0-4.297-5.035 7.924 7.924 0 0 1 0-10.324zm-5.183 3.463s-.374 2.017 0 3.4c0 0 .539 2.319 1.083 3.398h-71.93c-.938 0-1.7-.762-1.7-1.7v-6.798c0-.936.762-1.699 1.7-1.699h71.93c-.544 1.08-1.083 3.4-1.083 3.4zm6.08-93.923V91.71a5.077 5.077 0 0 0-1.699-.291h-73.53V9.39h73.53c.938 0 1.7.762 1.7 1.7zm-85.425 6.798c0-4.103 2.924-7.536 6.798-8.326v81.98a11.874 11.874 0 0 0-6.798 3.454zm83.726 100.721H29.784c-4.685 0-8.497-3.812-8.497-8.497v-6.798c0-4.686 3.812-8.497 8.497-8.497h75.23c.937 0 1.699.762 1.699 1.7 0 .936-.762 1.699-1.7 1.699H29.784a5.104 5.104 0 0 0-5.098 5.098v6.798a5.104 5.104 0 0 0 5.098 5.098h75.23c.937 0 1.699.762 1.699 1.7 0 .937-.762 1.699-1.7 1.699z" style="isolation:isolate" stroke="#000" stroke-width="2"/><path style="isolation:isolate" d="M86.454 66.233c0-5.565-2.46-10.524-6.41-13.83-1.856 1.168-4.477 2.58-7.945 4.556 2.762.85 6.29 4.516 6.29 9.274 0 5.565-4.516 10.216-10.081 10.216-5.178 0-9.876-4.086-10.067-10.09-.143-4.47 2.618-7.51 6.438-9.803 9.84-6.324 12.29-5.595 16.453-9.759 3.392-3.393 5.323-7.87 5.323-12.823 0-10.074-8.09-18.28-18.146-18.28-10.041 0-18.147 8.239-18.147 18.28 0 5.443 2.38 10.283 6.17 13.59 1.586-.953.393-.236 7.944-4.356a10.046 10.046 0 0 1-6.049-9.234c0-5.565 4.517-10.216 10.082-10.216 5.582 0 10.08 4.655 10.08 10.216 0 2.58-.967 5.12-2.943 7.137-1.715 1.711-13.265 7.844-15.404 8.993h-.04c-5.41 2.705-9.942 9.002-9.825 16.255.17 10.564 8.537 18.155 18.132 18.155 10.04 0 18.146-8.24 18.146-18.28z"/></svg>