<svg xmlns="http://www.w3.org/2000/svg" xmlns:xlink="http://www.w3.org/1999/xlink" width="128" height="128"><defs><linearGradient id="d"><stop offset="0" stop-color="#a31c1c"/><stop offset="1" stop-color="#460707"/></linearGradient><linearGradient id="f"><stop offset="0" stop-color="#b14427"/><stop offset="1" stop-color="#5b2d1e"/></linearGradient><linearGradient id="c"><stop offset="0" stop-color="#0e0e0f"/><stop offset="1" stop-color="#6c6e72"/></linearGradient><linearGradient xlink:href="#a" id="j" x1="79.488" y1="35.848" x2="46.711" y2="70.546" gradientUnits="userSpaceOnUse"/><clipPath id="i"><path d="M34.835 48.759s.128-2.363.64-2.534c5.165 8.869 7.554.56 7.53-.245 6.724 3.265 22.466-3.557 33.868-4.093 10.172-.593 16.759 10.97 16.759 10.97s-18.76-4.23-29.286 3.371c-9.247-.418-12.16 1.023-16.375 2.655l-13.599.195s3.996-4.813.463-10.32z" fill="url(#b)"/></clipPath><linearGradient xlink:href="#c" id="b" gradientUnits="userSpaceOnUse" x1="86.264" y1="43.856" x2="35.469" y2="58.534"/><linearGradient xlink:href="#d" id="h" gradientUnits="userSpaceOnUse" x1="30.756" y1="49.493" x2="8.975" y2="58.407" gradientTransform="translate(.069 -.517)"/><clipPath id="g"><path d="M11.594 47.214c10.629 4.574 10.856 3.356 15.897 1.541 3.997 4.792 6.678 1.297 7.368-.357.606-.101 6.636 3.033 7.176 5.516.262 1.209.182 1.76-.583 2.875-.878 1.28-4.928 1.958-6.178 2.27-8.986.602-16.032.217-21.494-.47-11.853-2.274-10.52-5.681-10.52-5.681 1.38-6.444 6.645-6.693 8.334-5.694z" fill="url(#e)"/></clipPath><linearGradient xlink:href="#f" id="e" gradientUnits="userSpaceOnUse" gradientTransform="translate(.069 -.517)" x1="29.885" y1="48.621" x2="8.975" y2="58.407"/><linearGradient id="a"><stop offset="0" stop-color="#b96915"/><stop offset="1" stop-color="#e1e78c"/></linearGradient></defs><path clip-path="url(#g)" d="M11.594 47.214c10.629 4.574 10.856 3.356 15.897 1.541 3.997 4.792 6.678 1.297 7.368-.357.606-.101 6.636 3.033 7.176 5.516.262 1.209.182 1.76-.583 2.875-.878 1.28-4.928 1.958-6.178 2.27-8.986.602-16.032.217-21.494-.47-11.853-2.274-10.52-5.681-10.52-5.681 1.38-6.444 6.645-6.693 8.334-5.694z" transform="matrix(0 -1.2657 -1.2657 0 128.059 125.228)" fill="url(#h)" stroke="#000" stroke-width="6"/><path d="M34.835 48.759s.128-2.363.64-2.534c5.165 8.869 7.554.56 7.53-.245 6.724 3.265 22.466-3.557 33.868-4.093 10.172-.593 16.759 10.97 16.759 10.97s-18.76-4.23-29.286 3.371c-9.247-.418-12.16 1.023-16.375 2.655l-13.599.195s3.996-4.813.463-10.32z" clip-path="url(#i)" transform="matrix(0 -1.2657 -1.2657 0 128.059 125.351)" fill="url(#j)" stroke="#000" stroke-width="6"/><path d="M62.462 66.127l2.616-18.535c-.915-2.18-2.267-.305-2.267-.305l-2.399 18.579c.96 1.875 2.05.261 2.05.261z"/></svg>