<svg xmlns="http://www.w3.org/2000/svg" width="128" height="128"><path d="M6.845 111.722L5 115.289l8.687 7.575 2.718.575 14.092-24.566 4.242-1.61c-.286-2.636-.08-3.783-.08-3.783l-2.818 1.293-4.339-4.17zM29.66 87.338l2.959 2.868 3.329-1.513c1.106-1.138 2.711-2.56 2.711-2.56l22.514-18.929-5.21-6.197-.788.368-7.054 5.93-3.167 1.547-3.272 2.75-1.893 3.825-8.13 6.836zM66.745 78.83l-7.649-9.097-6.543 5.5L56.39 79.8l-1.31 1.1 5.462 6.496zM78.909 44.147l4.13 4.913c-1.683 1.983-1.517 3.51-1.517 3.51L67.87 64.046s-1.603-.238-3.718.892l-4.13-4.913z" fill="#fff" stroke="#323232" stroke-width="2.351"/><path d="M39.49 86.272c1.058.031 1.443.718 1.935 1.213 0 0 2.37 2.904 3.73 1.759l10.581-8.895-3.815-4.538zm-1.959.887l7.38-5.607c.376-.287 1.554-1.5 2.624-.229l1.226 1.459c.305.362.686 2.46.08 2.969l-3.114 2.618c-2.29 1.926-4.033-.867-4.383-1.228-.317-.352-1.912-1.447-3.813.018z" fill="#fff" stroke="#323232" stroke-width="2.351" stroke-linecap="round"/><path d="M59.91 60.454l-1.319-1.564.463-.397.83.212 64.408-54.328.872 1.033zm24.466-15.121l-1.01-1.198 26.97-22.777 1.011 1.198z" fill="none" stroke="#323232" stroke-width="1.622"/><path d="M3.779 114.304l-2.086-2.002s.578-1.523 1.143-2.078c.563-.54 1.424-.39 1.424-.39l.84-.71c.537-.238 1.37.75 1.37.75l-.967 1.057zM102.142 21.302l1.309-1.1a.853.853 0 0 1 1.204.104l4.256 5.063c.305.362.259.9-.104 1.204l-1.309 1.1a.853.853 0 0 1-1.204-.104l-4.256-5.062a.853.853 0 0 1 .104-1.205zM113.994 6.872l1.308-1.1a.853.853 0 0 1 1.205.104l2.72 3.236c.305.363.259.9-.104 1.205l-1.308 1.1a.853.853 0 0 1-1.205-.104l-2.72-3.236a.853.853 0 0 1 .104-1.205z" fill="#323232"/><rect ry="1.028" rx="1.405" y="84.003" x="-9.322" height="2.19" width="11.335" transform="rotate(-40.062) skewX(.031)" fill="#323232"/><circle cx="-14.173" cy="87.577" r=".855" transform="rotate(-40.055)" fill="#323232"/><path d="M30.007 79.004l6.233-5.24a.426.426 0 0 1 .602.052l1.1 1.309-6.887 5.79-1.1-1.309a.426.426 0 0 1 .052-.602zM39.184 86.08l2.552.887s.713-1.142 1.265-.981c.643.188.675.572 1.575 1.102a.947.947 0 0 0 .603-.036c-1.057-.853-1.1-1.164-1.242-1.945-.149-1.911.561-2.544.561-2.544s.436-.573 1.007-.873c0 0 1.252-.374 2.082.253l-2.088-1.078z" fill="#323232"/></svg>