<svg xmlns="http://www.w3.org/2000/svg" width="128" height="128"><path d="M94.871 62.992l7.72 15.779s-.213.836.502 1.402l1.551 1.519s.218.293.892-.002l5.027-2.452c.917-.537.13-1.075.13-1.075-.909-.68-1.457-2.357-2.108-3.459-.316-.534-.918-.563-.918-.563l-7.906-16.05zM38.586 74.358l-27.436 27.45s.23 5.324 6.302 7.657c1.971.758 12.884 8.7 12.884 8.7l5.375-5.375-.849-2.546-4.526-5.659 14.428-19.521-2.263-6.224 5.093-5.093.848-2.546-4.48-4.481-2.128 2.127z" fill="#fff" stroke="#323232" stroke-width="2.5"/><path d="M17.038 108.83l-5.04-3.642-.428-4.19 6.73 6.637L43.068 82.8l1.332 1.332-26.03 26.029z" fill="#323232"/><path d="M28.92 98.644l4.245 1.98 8.204-11.033-1.697-1.698zM18.17 109.96l11.6 8.206 1.414-1.415-10.75-9.054z" fill="#323232"/><circle r="1.928" cy="94.376" cx="-57.186" transform="rotate(-45)" fill="#323232"/><path fill="#323232" d="M38.354 73.992l2.059-2.058 4.355 4.355-2.059 2.058z"/><path d="M46.412 64.433l4.4 4.4c1.674-1.133 3.396-.733 4.526-.001 1.697 1.132.566 7.356 7.922 17.541l19.804-7.922 13.395-13.395c.177-2.726 1.037-3.532 3.608-3.608l2.061-2.06-8.03-18.565c-.461-1.492 1.132-2.83 1.132-2.83l13.863-13.862-11.98-10.398zm22.329-11.622c2.387.76 8.382 15.738 8.382 15.738s1.566 8.802.29 11.325l-6.618 2.528-9.69-21.922-7.815 7.84 7.812-7.87z" fill="#fff" stroke="#323232" stroke-width="2.5"/><path d="M74.174 60.428l-1.16.029-3.237 3.237-4.681 2.108-.685.745-.418-1.435.827.144 4.684-2.075 3.124-3.148.424-1.312zm-10.183-.002s.572.201 1.113.026c1.323-.274 2.675.92 3.259.696-1.258-.58-2.854-1.54-2.988-2.106z" fill="#323232" stroke="#323232" stroke-width="1.019"/><rect transform="matrix(.91852 -.39538 .4033 .91507 0 0)" ry="1.6" rx="1.6" y="76.012" x="62.44" height="14.861" width="3.541" fill="#fff" stroke="#323232" stroke-width="1.9"/><rect width="2.103" height="8.824" x="48.557" y="89.59" rx=".95" ry=".95" transform="matrix(.91588 -.40146 .40937 .91237 0 0)" fill="#323232" stroke="#323232" stroke-width=".811"/><path d="M108.157 15.118l.006.33-1.547 1.523.122.285 2.348 2.268.34.096 1.394-1.385.32.025 6.983-6.984-.96-.282.15-.812-1.167-1.17-.83.14-.234-.957zm2.178-.9l3.395-3.395c.331.082.614.604.614.604l-2.714 2.705s-.892.182-1.295.086zm4.642-2.158s.523.283.604.615l-3.395 3.395c-.096-.403.086-1.295.086-1.295zM105.274 18.737l1.193-1.206 2.298 2.258-1.044 1.016z" fill="#323232"/><rect ry=".729" rx=".8" y="80.033" x="27.763" height="7.364" width="9.982" transform="rotate(-45)" fill="#323232"/><path d="M85.154 76.32L74.032 52.286c-.76-2.496-.135-3.5.705-4.395l19.369-19.15.054-2.55 7.704-7.704" fill="none" stroke="#323232" stroke-width="2.214"/><path fill="#323232" d="M56.895 51.041l.878-.878 1.32 1.32-.879.878zM58.41 49.526l.878-.878 1.32 1.319-.879.878zM59.973 47.962l.878-.878 1.32 1.32-.878.878zM61.52 46.416l.878-.878 1.32 1.32-.879.877zM63.025 44.91l.878-.878 1.32 1.32-.878.878zM64.625 43.31l.879-.878 1.319 1.32-.878.878zM66.225 41.71l.879-.878 1.32 1.32-.879.878zM67.745 40.19l.878-.878 1.32 1.32-.878.878zM69.29 38.645l.879-.878 1.32 1.319-.879.878zM70.824 37.112l.878-.878 1.32 1.319-.879.878zM72.37 35.566l.878-.878 1.32 1.32-.879.878zM73.916 34.02l.878-.879 1.32 1.32-.879.878zM75.462 32.473l.879-.878 1.32 1.32-.88.878zM77.05 30.886l.877-.878 1.32 1.32-.878.878zM78.528 29.408l.878-.878 1.32 1.32-.879.877zM80.073 27.862l.879-.878 1.32 1.32-.88.878zM81.62 26.316l.878-.879 1.32 1.32-.879.878zM83.166 24.77l.879-.879 1.32 1.32-.88.878zM84.685 23.25l.878-.878 1.32 1.32-.878.878zM86.218 21.718l.878-.878 1.32 1.32-.879.878zM87.777 20.158l.879-.878 1.32 1.32-.88.878zM95.415 38.021l2.668-2.668 1.32 1.32-.879.878zM98.75 34.685l.879-.878 1.319 1.32-.878.877zM100.283 33.152l.879-.878 1.319 1.32-.878.877zM101.802 31.633l.878-.878 1.32 1.32-.878.878zM103.308 30.128l.878-.879 1.32 1.32-.879.878zM104.826 28.609l.879-.878 1.32 1.32-.88.877zM106.36 27.076l.878-.878 1.32 1.32-.88.877zM107.797 25.638l1.665-1.665 1.32 1.32-1.666 1.665zM55.403 52.533l.878-.878 1.32 1.32-.879.878zM47.699 60.237l.878-.878 1.32 1.32-.879.877zM46.157 61.778l.878-.878 1.32 1.32-2.625 2.624zM44.566 53.997l1.189-.991c.98-.21 3.022.99 3.022.99l1.684 1.537 3.412-2.641c.472-.33.83.137.83.137l1.679 1.637-5.528 5.577zM84.886 13.677l1.189-.991c.98-.21 3.022.99 3.022.99l1.684 1.537 3.412-2.641c.472-.33.83.137.83.137l1.679 1.637-5.528 5.577z"/><path d="M102.773 79.122l4.826-4.783" fill="none" stroke="#323232" stroke-width="2"/></svg>