<svg xmlns="http://www.w3.org/2000/svg" style="isolation:isolate" width="128" height="128"><path d="M90.489 113.954c16.59-9.579 10.865-20.876 10.865-20.876l-34.641 20s7.186 10.454 23.776.876z" fill="#a3a3a3" stroke="#323232" stroke-width="2.8"/><path style="isolation:isolate" d="M44.123 72.3l33.18-19.156 13.09 22.67-33.181 19.157zM44.046 33.854c22.12-12.771 33.295 6.584 33.295 6.584l3.193 5.53-44.24 25.542-3.193-5.53S21.926 46.625 44.046 33.854z" fill="#fff" stroke="#323232" stroke-width="2.8" stroke-linecap="round"/><path d="M47.354 65.124l-4.79-8.295M69.474 52.353l-4.79-8.295" fill="none" stroke="#323232" stroke-width="2.8"/><path fill="#323232" d="M30.903 62.172l44.24-25.542 2.198 3.808-44.24 25.542z"/><g><path d="M71.289 112.967c-8.295 4.789-14.243-5.512-14.243-5.512l-3.192-5.53 44.24-25.542 3.192 5.53s5.948 10.3-2.347 15.09l-13.66 7.886z" style="isolation:isolate" fill="#fff" stroke="#323232" stroke-width="2.8" stroke-linecap="round"/><path d="M69.703 103.835l-4.79-8.296M91.823 91.063l-4.79-8.295" fill="none" stroke="#323232" stroke-width="2.8"/><path fill="#323232" d="M57.047 107.455l44.24-25.542 2.198 3.808-44.24 25.542z"/></g><g fill="#fff"><path style="isolation:isolate" d="M24.615 19.266L41.166 9.71l12.599 3.727-24.412 14.036zM31.031 30.309l3.26 5.644c1.935-2.636 5.524-4.756 7.547-5.924 1.877-1.08 5.645-3.225 8.893-3.59l-3.249-5.629z" stroke-miterlimit="5" fill-opacity=".986" stroke="#323232" stroke-width="2"/><path stroke-miterlimit="5" d="M57.517 15.017l14.787 10.962 14.055 17.614-2.695.27-12.904-16.26-15.51-11.26z" style="isolation:isolate" fill-opacity=".986" stroke="#323232" stroke-width="1.8"/><path d="M59.781 10.023a14.08 14.08 0 0 0-6.709 1.881A14.08 14.08 0 0 0 47.92 31.14a14.08 14.08 0 0 0 19.232 5.154 14.08 14.08 0 0 0 5.154-19.236 14.08 14.08 0 0 0-12.525-7.034zm.05 5.087a9.09 9.09 0 0 1 8.086 4.544 9.09 9.09 0 0 1-3.325 12.417 9.09 9.09 0 0 1-12.418-3.327 9.09 9.09 0 0 1 3.327-12.418 9.09 9.09 0 0 1 4.33-1.216z" style="isolation:isolate" stroke="#353535" stroke-width="2.8"/></g></svg>