<?xml version="1.0" encoding="UTF-8" standalone="no"?>
<svg
   xmlns:dc="http://purl.org/dc/elements/1.1/"
   xmlns:cc="http://creativecommons.org/ns#"
   xmlns:rdf="http://www.w3.org/1999/02/22-rdf-syntax-ns#"
   xmlns:svg="http://www.w3.org/2000/svg"
   xmlns="http://www.w3.org/2000/svg"
   xmlns:xlink="http://www.w3.org/1999/xlink"
   xmlns:sodipodi="http://sodipodi.sourceforge.net/DTD/sodipodi-0.dtd"
   xmlns:inkscape="http://www.inkscape.org/namespaces/inkscape"
   width="128"
   height="128"
   version="1.1"
   id="svg4"
   sodipodi:docname="loot-shirt-outfitParmaPrestige.svg"
   inkscape:version="0.92.2 (5c3e80d, 2017-08-06)">
  <metadata
     id="metadata10">
    <rdf:RDF>
      <cc:Work
         rdf:about="">
        <dc:format>image/svg+xml</dc:format>
        <dc:type
           rdf:resource="http://purl.org/dc/dcmitype/StillImage" />
      </cc:Work>
    </rdf:RDF>
  </metadata>
  <defs
     id="defs8">
    <linearGradient
       id="linearGradient924"
       inkscape:collect="always">
      <stop
         id="stop918"
         offset="0"
         style="stop-color:#e3c081;stop-opacity:1" />
      <stop
         style="stop-color:#a78951;stop-opacity:1"
         offset="0.4567937"
         id="stop920" />
      <stop
         id="stop922"
         offset="1"
         style="stop-color:#655231;stop-opacity:1" />
    </linearGradient>
    <clipPath
       clipPathUnits="userSpaceOnUse"
       id="clipPath925-3">
      <path
         style="fill:#2b2b2b;fill-opacity:1;stroke:none;stroke-width:6.22858;stroke-miterlimit:4;stroke-dasharray:none;stroke-opacity:0.49019608"
         d="m -9.8198689,-67.40596 32.6696349,-6.739049 18.420192,20.705573 -10.499276,31.66463 7.594889,2.517548 10.499275,-31.66463 27.139574,-5.598316 22.172276,24.925185 5.978714,-5.317493 -22.172661,-24.927099 8.721685,-26.302371 32.671556,-6.739445 -1.61617,-7.835043 -32.66963,6.73905 -18.420194,-20.70557 10.499273,-31.66463 -7.594881,-2.51755 -10.49928,31.66463 -27.139574,5.59832 -22.172271,-24.92519 -5.9787248,5.3175 22.1722718,24.92518 -8.723208,26.304678 -32.669635,6.73905 z m 38.6483589,-12.056544 8.721295,-26.304286 27.141487,-5.59871 18.420192,20.705575 -8.721295,26.304285 -27.141487,5.59871 z"
         id="path927-4"
         inkscape:connector-curvature="0" />
    </clipPath>
    <radialGradient
       inkscape:collect="always"
       xlink:href="#linearGradient924"
       id="radialGradient923-3"
       gradientUnits="userSpaceOnUse"
       gradientTransform="matrix(1.8088133,0.75634257,-0.88515259,2.116981,-34.358303,-102.66743)"
       cx="-140.05359"
       cy="-64.397835"
       fx="-140.05359"
       fy="-64.397835"
       r="66.500023" />
    <clipPath
       clipPathUnits="userSpaceOnUse"
       id="clipPath965">
      <path
         d="m 339.51751,-146.96835 c -10.38001,0 -22.79601,3.526 -30.35501,7.22 -8.038,3.266 -14.581,7.287 -19.253,14.509 -6.283,9.715 -9.334,24.721 -7.255,48.603003 5.964,2.07 11.333,1.45 16.84201,-0.415 -1.72701,-7.884 -1.44801,-15.764 0.49599,-22.204 2.126,-7.044003 6.404,-12.722003 12.675,-13.701003 l 2.77,-0.432 0.074,2.803 c 0.054,2.043 0.09,4.17 0.116,6.335 l 0.027,6.312003 c -0.037,8.798 -0.38199,18.286 -1.277,27.845 5.637,1.831 14.806,2.954 23.964,3.019 l 4.597,-0.058 c 8.53,-0.275 16.742,-1.449 21.665,-3.063 -1.093,-14.65 -1.166,-29.434 -1.52,-41.334003 l -0.097,-3.283 3.18,0.824 c 6.238,1.617 10.55,7.376 12.76,14.507003 2.02,6.51 2.353,14.37 0.64,22.248 a 29.764,29.764 0 0 0 12.847,1.181 l 4.399,-0.588 c 1.033,-18.811 -1.433,-37.403003 -6.27,-46.264003 l -4.408,-6.376 c -4.647,-5.357 -10.62,-8.399 -17.665,-11.074 -6.746,-3.458 -18.358,-6.614 -28.95,-6.614 z m 0,3.05 c 6.49399,0 13.36999,1.942 19.27399,4.516 -3.123,2.758 -6.971,4.665 -11.067,5.754 l -7.852,17.31 -6.83799,-16.882 c -4.757,-0.93 -9.26001,-2.957 -12.78301,-6.174 6.173,-2.643 13.082,-4.524 19.26601,-4.524 z m 0.57999,28.539 3.51201,5.327 -3.49701,5.053 -3.53,-5.053 z m 0,11.888 3.51201,5.328003 -3.49701,5.052 -3.53,-5.053 3.514,-5.327003 z m 0,11.733003 3.51201,5.327 -3.49701,5.054 -3.53,-5.054 z m 0,11.876 3.51201,5.327 -3.49701,5.054 -3.53,-5.053 3.514,-5.327 z m 25.079,13.715 c -6.61,2.055003 -15.829,2.907003 -25.277,2.951003 -9.5,0.045 -18.965,-0.744 -25.902,-2.892003 -0.205,1.785003 -0.43,3.569003 -0.678,5.347003 5.968,2.132 16.346,3.408 26.497,3.36 10.143,-0.05 20.355,-1.444 25.912,-3.433 a 241.302,241.302 0 0 1 -0.552,-5.333003 z m 1.368,9.086003 c -6.782,2.308004 -16.533,3.262004 -26.53,3.310004 -2.935,0.015 -5.866,-0.052 -8.724,-0.213 l -4.227,-0.315 c -5.358,-0.5 -10.307,-1.382004 -14.329,-2.758004 -0.897,5.430004 -2.02,10.772004 -3.413,15.903004 2.117,1.06 4.41,1.968 6.835,2.733 l 3.97,1.096 c 15.85,3.805 35.88,2.156 49.601,-3.513 -1.355,-5.09 -2.387,-10.57 -3.183,-16.243004 z"
         id="path967"
         style="fill:#857659;fill-opacity:1"
         inkscape:connector-curvature="0" />
    </clipPath>
  </defs>
  <sodipodi:namedview
     pagecolor="#ffffff"
     bordercolor="#666666"
     borderopacity="1"
     objecttolerance="10"
     gridtolerance="10"
     guidetolerance="10"
     inkscape:pageopacity="0"
     inkscape:pageshadow="2"
     inkscape:window-width="1920"
     inkscape:window-height="1017"
     id="namedview6"
     showgrid="false"
     inkscape:zoom="1.3037281"
     inkscape:cx="-10.977958"
     inkscape:cy="115.83547"
     inkscape:window-x="1912"
     inkscape:window-y="-8"
     inkscape:window-maximized="1"
     inkscape:current-layer="svg4" />
  <g
     id="g963"
     transform="translate(-275.52542,155.11864)"
     clip-path="url(#clipPath965)">
    <ellipse
       transform="matrix(-0.20202549,0.97938026,-0.97938129,-0.2020205,0,0)"
       stroke-miterlimit="10"
       id="ellipse921-1"
       style="fill:url(#radialGradient923-3);fill-opacity:1;stroke:none;stroke-width:6.00109148;stroke-miterlimit:10;stroke-opacity:0.769"
       ry="66.499977"
       rx="66.500023"
       cy="-314.11621"
       cx="-157.83099" />
    <ellipse
       clip-path="url(#clipPath925-3)"
       cx="55.969978"
       cy="-85.061211"
       rx="66.500023"
       ry="66.499977"
       style="fill:#000000;fill-opacity:0.40909095;stroke:none;stroke-width:6.00109148;stroke-miterlimit:10;stroke-opacity:0.769"
       id="ellipse2-6-3"
       stroke-miterlimit="10"
       transform="matrix(-0.20202549,0.97938026,-0.97938129,-0.2020205,267.52544,-163.11864)" />
  </g>
</svg>
