<svg xmlns="http://www.w3.org/2000/svg" width="128" height="128"><path d="M59.527 99.342l-20.304 11.723-.35-.152L59.83 98.815a.603.603 0 0 1-.303.527z" fill="#fff" fill-opacity=".389" stroke="#323232" stroke-width="1.262"/><path d="M6.096 58.548c-.195 2.542-.024 4.873.572 6.959-2.565-2.34-5.687-2.184-6.152-4.345.191-1.772 3.302-1.299 5.58-2.614z" fill="#323232"/><path d="M8.697 73.228s-6.526 6.818-3.889 5.89c10.934-6.313 14.416-2.555 15.622-.297 3.5 6.56 4.647 23.881 9.21 31.735.826 1.431 5.679.366 5.679.366l22.778-13.151-4.645-2.785c-5.884-14.832-9.821-22.271-5.266-24.901 4.011-2.31 11.235-6.466 16.4-9.469-1.84-1.323-3.867-6.19-3.867-6.19-1.817-5.545.467-9.02 2.74-11.906a5.79 5.79 0 0 0 .817-1.38zM59.82 59.724l-5.923 3.42c-4.803 2.805-6.57 4.4-9.778 2-1.963-1.296-2.63-4.556-1.79-6.256 1.297-1.963 7.867-6.364 10.671-6.768 3.067.052 5.96 5.063 6.82 7.604z" fill="#fff" stroke="#323232" stroke-width="2.478"/><path d="M46.5 57.695c-.122 1.893-.507 3.33 2.7 5.73-.504.072-2.085.597-3.855-1.418-1.146-1.581-.87-2.91-.87-2.91z" fill="#323232" stroke="#323232" stroke-width=".795"/><path d="M8.87 47.227l4.768.893-5.011 2.893-1.579-2.734zM91.135.34c-.692.515-2.33 4.381-2.33 4.381l5.012-2.893C92.765.006 91.591.076 91.135.34z" fill="#323232"/><path d="M94.701 20.166l-85.39 49.3c.079-1.82-.886-4.133-1.067-5.367-.814-5.53-.122-8.976.716-11.456l29.208-16.864s2.626 4.492 5.965 4.02l47.622-27.515c1.254 1.119 2.836 5.35 3.504 7.56z" fill="#fff" stroke="#323232" stroke-width="2.558"/><path d="M101.7 19.911l-1.31.756c.13-1.876-.305-3.594-.305-3.594l-5.021 2.864s-.929-4.932-4.374-7.195L44.056 39.666c-4.896-.48-5.484-4.12-5.484-4.12L96.428 2.143c5.958 9.724 5.781 15.052 5.272 17.768z" fill="#fff" stroke="#323232" stroke-width="2.558"/><path d="M97.112 22.573l-31.489 18.18.153-.44 31.64-18.267c.005.367-.304.527-.304.527z" fill="#fff" fill-opacity=".389" stroke="#323232" stroke-width="2.558"/><path d="M35.652 41.484L22.19 49.256s-3.493 7.036-8.309 10.146c-2.085.596-3.394-.96-3.394-.96l.964 7.51 26.423-15.256" fill="#323232"/><path d="M14.049 53.104l2.276 10.303m2.055-12.803l2.275 10.303" fill="#323232" stroke="#fff"/><path d="M14.92 57.705c1.56-1.507 4.02-4.568 5.964-7.555.79-1.203-.041-1.937-1.715-.97l-7.745 4.47c-3.075 2.17.378 7.07 3.496 4.055z" fill="#363636"/><path d="M19.725 67.08c1.543 11.805 6.426 36.38 9.845 42.302 2.564-1.328 21.002-12.126 21.002-12.126l-9.518-25.07s.093-.358-1.209.285c-2.284.824-3.541-1.715-1.78-3.062 1.38-.7 1.562-.981 1.562-.981l-3.052-8.04-10.524 6.076-1.315-2.278z" fill="#323232"/><path d="M41.387 68.198c-1.02 1.052-1.662.934-2.944 1.585-1.245.952-.357 2.747 1.258 2.164 1.404-.694 1.784-.423 3.14-.599 3.316-1.68.834-4.449-1.454-3.15z" fill="#323232"/><circle r="1.643" cy="54.865" cx="-16.447" transform="rotate(-30)" fill="#fefefe"/><circle r="1.144" cy="81.524" cx="2.17" transform="rotate(-30)" fill="#fefefe"/><path d="M22.71 48.104l2.275 10.303m2.055-12.803l2.275 10.303m2.055-12.803l2.275 10.303" fill="#323232" stroke="#fff"/><path d="M83.938 114.425l-20.304 11.722-.35-.15 20.957-12.1c.006.368-.303.528-.303.528z" fill="#fff" fill-opacity=".389" stroke="#323232" stroke-width="1.262"/><path d="M30.507 73.631c-.195 2.542-.024 4.873.572 6.959-2.565-2.34-5.687-2.184-6.152-4.345.191-1.772 3.302-1.299 5.58-2.614z" fill="#323232"/><path d="M33.108 88.311s-6.526 6.818-3.889 5.89c10.934-6.313 14.416-2.555 15.622-.297 3.5 6.559 4.647 23.881 9.21 31.735.826 1.431 5.678.366 5.678.366l22.779-13.151-4.645-2.785c-5.884-14.832-9.821-22.271-5.266-24.901 4.011-2.31 11.235-6.466 16.4-9.469-1.84-1.323-3.868-6.19-3.868-6.19-1.816-5.545.468-9.02 2.742-11.906.566-.718.815-1.38.815-1.38zM84.23 74.807s-3.317 1.917-5.922 3.419c-4.803 2.806-6.57 4.4-9.778 2.001-1.963-1.296-2.63-4.556-1.79-6.256 1.297-1.963 7.867-6.364 10.67-6.768 3.068.052 5.96 5.063 6.82 7.604z" fill="#fff" stroke="#323232" stroke-width="2.478"/><path d="M70.91 72.778c-.121 1.893-.506 3.33 2.702 5.73-.505.071-2.086.596-3.856-1.418-1.146-1.581-.87-2.911-.87-2.911z" fill="#323232" stroke="#323232" stroke-width=".795"/><path d="M33.281 62.31l4.768.893-5.012 2.893-1.578-2.734zm82.265-46.888c-.692.516-2.33 4.382-2.33 4.382l5.012-2.893c-1.052-1.822-2.226-1.752-2.682-1.489z" fill="#323232"/><path d="M119.112 35.249l-85.39 49.3c.079-1.82-.886-4.133-1.067-5.367-.814-5.53-.122-8.976.716-11.457l29.207-16.863s2.627 4.492 5.966 4.02l47.622-27.515c1.254 1.119 2.836 5.35 3.504 7.56z" fill="#fff" stroke="#323232" stroke-width="2.558"/><path d="M126.11 34.994l-1.309.756c.13-1.876-.305-3.595-.305-3.595l-5.021 2.865s-.929-4.932-4.374-7.195L68.467 54.749c-4.896-.48-5.484-4.12-5.484-4.12l57.856-33.403c5.958 9.724 5.781 15.052 5.272 17.768z" fill="#fff" stroke="#323232" stroke-width="2.558"/><path d="M121.523 37.656l-31.489 18.18.153-.44 31.64-18.267c.005.367-.304.527-.304.527z" fill="#fff" fill-opacity=".389" stroke="#323232" stroke-width="2.558"/><path d="M60.063 56.567L46.6 64.339s-3.493 7.036-8.309 10.146c-2.085.596-3.395-.96-3.395-.96l.965 7.51 26.423-15.256" fill="#323232"/><path d="M38.46 68.187l2.276 10.303m2.054-12.803l2.276 10.303" fill="#323232" stroke="#fff"/><path d="M39.33 72.788c1.56-1.507 4.02-4.568 5.965-7.555.79-1.203-.042-1.937-1.715-.97l-7.745 4.47c-3.075 2.17.377 7.07 3.496 4.055z" fill="#363636"/><path d="M44.136 82.163c1.542 11.805 6.426 36.38 9.845 42.302 2.564-1.328 21.002-12.126 21.002-12.126l-9.518-25.07s.092-.359-1.209.285c-2.284.824-3.541-1.715-1.78-3.062 1.38-.7 1.562-.981 1.562-.981l-3.052-8.04-10.524 6.076-1.315-2.278z" fill="#323232"/><path d="M65.798 83.281c-1.02 1.052-1.663.934-2.944 1.584-1.245.952-.357 2.748 1.257 2.165 1.405-.694 1.785-.423 3.142-.599 3.314-1.68.832-4.449-1.455-3.15z" fill="#323232"/><circle cx="-2.848" cy="80.133" r="1.643" transform="rotate(-30)" fill="#fefefe"/><circle cx="15.769" cy="106.792" r="1.144" transform="rotate(-30)" fill="#fefefe"/><path d="M47.12 63.187l2.276 10.303m2.054-12.803l2.276 10.303m2.054-12.803l2.276 10.303" stroke="#fff" fill="#323232"/></svg>