<svg xmlns="http://www.w3.org/2000/svg" width="128" height="128"><path d="M40.599 74.019l-.351 6.672 4.214 4.214L75.717 53.65l-7.375-7.374zM74.587 58.842l-8.077 8.077L87.93 78.508l4.934-10.795c.447-.662-1.422-.443-1.422-.443z" fill="#fff" stroke="#323232" stroke-width="2.359"/><path d="M39.86 76.144l29.457-29.651 1.16 1.16-29.555 29.554z" fill="#323232"/><path d="M70.8 43.817l7.375 7.375 25.285-25.285s-5.268-4.565-8.78-5.97z" fill="#fff" stroke="#323232" stroke-width="2.359"/><path d="M44.424 64.499l16.505-16.506.918 1.62L45.342 66.12z" fill="#323232"/><path d="M61.982 95.61l-3.562 2.175s-.616.367-.985-.187l-5.55-10.22c-.595-1-2.317-.395-2.84-.919l-.963-.96 6.16-6.16 2.454 2.472-1.218 1.218c-.226.488.116 1.168.116 1.168l5.494 9.773c1.48 1.106 2.06.318.894 1.64z" fill="#fff" stroke="#323232" stroke-width="2.359"/><path d="M54.57 78.156l3.511 3.512c.703.703 1.405.703 2.107 0l4.917-4.916s.351-1.054-.351-1.756l-3.512-3.512z" fill="none" stroke="#323232" stroke-width="1.117"/><path d="M55.623 77.103l1.054-1.054c2.809 3.512 4.565 1.756 4.565 1.756.524-.095.351.351.351.351-1.053 1.054-3.512 1.405-5.97-1.053zM64.21 73.817l.696-2.724-2.027-2.028-2.028 2.028 3.042 3.042z" fill="#323232"/><path d="M71.777 62.353l18.964 9.833" fill="none" stroke="#323232" stroke-width="2"/><path d="M9.71 110.025s-1.31 1.267.051 2.017c2.279 1.556 9.979 7.66 12.082 11.704 0 0 .427.356.795.014l3.188-3.188c.58-.58-.29-2.029-.29-2.029s3.64-18.131 5.09-19.58l11.882-11.882-4.058-4.057-23.637 23.637s-1.376-.224-2.029.29zm7.004-.884l9.907-9.768-4.181 15.495c-.905-1.096-3.75-4.084-5.726-5.727z" fill="#fff" stroke="#323232" stroke-width="2.359"/><path d="M38.228 79.725l1.198-1.198.12-2.752-1.757 1.755.44 2.195M90.77 17.431l.006-1.041 1.047-.012.351-.351 2.14 2.139.13.571-4.982 4.983-2.139-.735-5.333 5.333c.351.351.351 1.053 0 1.405-.35.35-1.053.35-1.404 0l-4.566 4.565c.351.351.351 1.053 0 1.405-.351.35-1.053.35-1.404 0L70.4 39.907c.352.35.352 1.053 0 1.404-.35.352-1.053.352-1.404 0l-2.459 2.459.831 2.235-1.405 1.405-1.884-1.884-.702-.703c-.527-.527-.351-1.053 0-1.404.35-.352.878-.527 1.404 0zM100.272 19.965l16.1-16.1c.179-.18.382-.265.547-.1.606.343 2.163 1.883 2.363 2.362.165.165.078.368-.101.547L103.485 22.37l-.386-.062-2.766-1.958-.062-.385z" fill="#323232"/><path d="M105.27 14.263L116.5 3.034c.128-.128.303-.16.505.042.675.486 2.573 2.372 2.887 2.887.202.201.17.376.042.505l-11.23 11.229-.389-.158-2.887-2.887-.157-.389z" fill="#323232"/><path d="M109.862 8.268l3.325-3.325c.038-.038.17.034.46.323.858.803 3.57 3.51 4.133 4.133.29.29.361.422.323.46l-3.325 3.325-.426-.357-4.133-4.133-.358-.426zM46.043 64.135l.747-.748 1.495 2.243-.747.747zM47.164 63.013l.748-.747 1.495 2.242-.748.748zM58.397 51.78l.747-.747 1.495 2.243-.747.747zM59.518 50.66l.748-.749 1.495 2.243-.748.748zM9.344 111.595l2.81-2.81a54.01 54.01 0 0 1 12.642 12.643l-2.81 2.81zM33.926 87.714l4.215-4.214 3.863 3.863-4.215 4.214zM72.168 43.835l23.108-23.302 1.16 1.16-23.205 23.205z" fill="#323232"/></svg>