<svg xmlns="http://www.w3.org/2000/svg" width="128" height="128"><path d="M123.404 41.159L84.857 62.118v53.488l38.547-20.96zm-5.85 10.047c1.29.021 2.278.84 2.633 2.36.503 2.15-.143 5.332-1.82 8.96-1.678 3.628-3.918 6.689-6.307 8.617-.057.047-.113.09-.172.137-2.629 2.042-5.164 2.253-6.029.502-.464-.94-.428-2.308.102-3.754a9.491 9.491 0 0 1 2.544-3.732c.894-.801 1.427-1.491 1.84-2.385.413-.893.536-1.617.418-2.496-.285-2.137 1.247-5.107 3.567-6.908v.002c.212-.166.432-.32.65-.46.918-.582 1.8-.856 2.574-.843zm-2.15 2.373c-.242.007-.54.123-.846.348l-.04.03v-.001c-.56.425-1.096 1.12-1.51 1.955-.415.836-.592 1.58-.5 2.096.103.582.59.76 1.158.425.05-.03.102-.064.152-.1.541-.395.916-1.076.873-1.585a1.03 1.03 0 0 1 .12-.586 1.61 1.61 0 0 1 .439-.54c.265-.224.482-.526.61-.849.135-.335.157-.656.062-.885-.09-.212-.276-.315-.518-.308zm-14.629 5.94c1.29.02 2.28.84 2.635 2.359.503 2.15-.145 5.333-1.823 8.96-1.677 3.629-3.915 6.69-6.304 8.618-.058.047-.115.09-.174.137-2.629 2.041-5.164 2.252-6.03.502-.464-.94-.427-2.307.102-3.752a9.498 9.498 0 0 1 2.545-3.735c.894-.8 1.429-1.49 1.842-2.385.413-.893.533-1.617.416-2.496-.285-2.136 1.25-5.104 3.568-6.906.213-.165.43-.32.649-.459.918-.582 1.8-.856 2.574-.844zm-2.15 2.372c-.243.007-.54.124-.846.348l-.041.031c-.558.425-1.093 1.12-1.508 1.955-.415.836-.594 1.58-.502 2.094.104.582.59.761 1.158.426.05-.03.103-.064.153-.1.54-.395.917-1.077.875-1.586-.018-.209.015-.378.117-.584.102-.205.23-.363.44-.54.265-.226.484-.528.613-.85.134-.335.155-.657.06-.885-.089-.213-.277-.316-.52-.309zm18.93 14.147c1.289.021 2.277.84 2.632 2.36.503 2.15-.143 5.332-1.82 8.96-1.678 3.628-3.918 6.689-6.307 8.617-.057.047-.113.09-.172.137-2.629 2.042-5.164 2.253-6.029.502-.464-.94-.428-2.306.102-3.752a9.498 9.498 0 0 1 2.544-3.734c.894-.801 1.427-1.491 1.84-2.385.413-.893.536-1.617.418-2.496-.285-2.136 1.247-5.105 3.567-6.906.212-.166.432-.32.65-.46.918-.582 1.8-.856 2.574-.843zm-2.151 2.373c-.242.007-.54.123-.846.348l-.04.03c-.56.426-1.096 1.12-1.51 1.956-.415.836-.592 1.579-.5 2.094.103.582.59.76 1.158.425.05-.03.102-.063.152-.1.541-.395.916-1.076.873-1.585-.018-.21.017-.378.12-.584.101-.206.229-.363.439-.541.265-.225.482-.527.61-.85.135-.335.157-.656.062-.884-.09-.213-.276-.316-.518-.309zm-14.629 5.941c1.29.022 2.28.839 2.635 2.358.503 2.15-.145 5.335-1.823 8.963-1.677 3.628-3.915 6.688-6.304 8.617-.058.047-.115.09-.174.137-2.629 2.041-5.164 2.25-6.03.5-.464-.94-.427-2.307.102-3.752a9.491 9.491 0 0 1 2.545-3.733c.894-.8 1.429-1.493 1.842-2.386.413-.894.533-1.616.416-2.495-.285-2.136 1.25-5.106 3.568-6.908.213-.165.43-.318.649-.457.918-.582 1.8-.856 2.574-.844zm-2.15 2.373c-.243.007-.54.124-.846.348l-.041.03c-.558.424-1.093 1.119-1.508 1.954-.415.836-.594 1.58-.502 2.094.104.582.59.761 1.158.426.05-.03.103-.064.153-.1.54-.395.917-1.077.875-1.586-.018-.209.015-.378.117-.584a1.61 1.61 0 0 1 .44-.539c.265-.225.484-.527.613-.85.134-.334.155-.658.06-.886-.089-.213-.277-.314-.52-.307zM4.599 41.611V94.72l74.398 20.638V62.252zm11.544 16.842l.508.14v24.645l-4.8-1.334V63.11l-4.682.508v-3.99zm11.307 3.1a7.8 7.8 0 0 1 2.037.304c2.198.611 3.9 1.69 5.106 3.243 1.217 1.544 1.824 3.433 1.824 5.664 0 1.386-.338 2.7-1.014 3.943-.665 1.235-1.877 2.65-3.635 4.246l-3.16 3.635 8.368 2.326v3.973l-14.504-4.031v-3.381l6.66-6.618c.845-.937 1.465-1.789 1.86-2.558.405-.778.609-1.574.609-2.385 0-1.093-.194-2.002-.577-2.728-.372-.723-.91-1.184-1.62-1.381-.778-.216-1.398-.027-1.86.566-.45.596-.676 1.547-.676 2.854l-4.8-1.334c0-1.51.31-2.805.929-3.883.631-1.076 1.51-1.8 2.637-2.174a5.559 5.559 0 0 1 1.816-.281zm15.094 10.564c.609-.038 1.279.045 2.01.248 1.656.46 2.936 1.468 3.838 3.026l.185-1.57 4.31 1.197v18.289c0 2.332-.653 3.932-1.96 4.797-1.307.876-3.184.974-5.63.294-1.002-.278-2.055-.773-3.16-1.486-1.104-.701-1.927-1.437-2.468-2.207l1.605-2.867c.451.598 1.037 1.145 1.758 1.639.721.504 1.403.847 2.045 1.025 1.07.297 1.837.25 2.299-.14.473-.376.717-1.131.728-2.266v-1.573c-.912.941-2.101 1.208-3.566.801-1.95-.541-3.46-1.716-4.531-3.523-1.06-1.816-1.6-4.106-1.623-6.873v-1.354c0-2.997.541-5.082 1.623-6.258.676-.734 1.522-1.135 2.537-1.199zm2.748 4.531c-.62-.026-1.1.205-1.447.692-.451.652-.676 1.84-.676 3.564v1.2c0 1.69.219 2.987.658 3.886.44.889 1.138 1.465 2.096 1.73.98.273 1.708.12 2.181-.458v-8.739c-.495-.915-1.21-1.503-2.146-1.763a2.968 2.968 0 0 0-.666-.112zm14.435.166a8.72 8.72 0 0 1 2.041.334c2.006.558 3.554 1.512 4.647 2.864 1.104 1.343 1.658 2.983 1.658 4.922v8.603c.023 1.584.248 2.882.676 3.89v.288l-4.818-1.34c-.136-.32-.27-.829-.405-1.531-.856.934-2.017 1.196-3.482.789-1.533-.426-2.806-1.286-3.82-2.582-1.003-1.293-1.504-2.744-1.504-4.356 0-1.915.607-3.23 1.824-3.94 1.228-.706 2.992-.75 5.29-.134l1.454.404v-1.47c0-.823-.14-1.443-.422-1.86-.282-.416-.693-.699-1.234-.85-1.195-.331-1.791.201-1.791 1.598l-4.783-1.328c0-1.69.63-2.908 1.892-3.65.796-.47 1.722-.685 2.777-.65zm1.446 10.645a1.643 1.643 0 0 0-.961.361c-.462.39-.692 1.02-.692 1.887 0 1.352.53 2.176 1.588 2.47.53.148.98.166 1.352.055.372-.11.648-.288.828-.53v-3.803l-1.148-.32a3.422 3.422 0 0 0-.577-.112 2.42 2.42 0 0 0-.39-.008zm11.246 6.39c.335-.03.708.011 1.119.126.8.222 1.465.654 1.994 1.297.53.631.795 1.337.795 2.115 0 .789-.27 1.35-.81 1.683-.53.326-1.19.38-1.979.16a3.906 3.906 0 0 1-1.994-1.279c-.518-.628-.777-1.332-.777-2.11 0-.765.252-1.326.76-1.68.258-.177.557-.28.892-.311zM46.167 12.395l75.58 22.395-39.914 22.396L6.253 34.79z" fill="#fff"/></svg>