<svg xmlns="http://www.w3.org/2000/svg" width="128" height="128"><g transform="rotate(-30 58.95 82.85)"><path d="M63.31 35.815h18.396v4.727H63.31z" fill="#323232"/><path d="M26.79 46.07s.481-4.876 3.255-8.996c.169-.251.346-.5.533-.743H63.31v4.406c0 .541.541.541.541.541h17.313s.542 0 .542-.54V36.33h47.34v7.304h-12.714s-4.599.54-7.575 2.435z" fill="#fff" stroke="#323232" stroke-width="2.88"/><path d="M37.143 30.733v2.16s.927.927 1.544.927v.617h-4.322v-.617c.617 0 1.543-.926 1.543-.926v-2.161z" fill="#323232"/><path d="M26.52 49.586c0 5.952-8.657 4.329-10.821 6.493 0 0-.929 1.092 0 1.082 7.92-.495 12.02 4.488 11.903 9.738-2.606 11.11-12.43 34.086-12.43 34.086-.404 1.394 1.068 2.164 1.068 2.164l24.898 3.787 8.105-28.134c2.164-4.328 7.082-4.328 10.821-4.328h12.985c9.739 0 10.82-10.82 10.82-15.149 0-3.246 2.682-4.869 4.329-4.87l17.854-.016v-4.853zm45.717 6.494C76.025 56.079 79 60.768 79 63.653c0 2.885-3.041 6.57-6.762 6.57l-8.928-.002c-3.722 0-6.22-3.683-6.222-6.568.003-2.884 2.706-7.574 6.222-7.574z" fill="#fff" stroke="#323232" stroke-width="2.861"/><path d="M65.092 57.161c-4.232 5.41-2.39 9.738-.61 11.903-5.767 0-6.89-3.013-7.035-6.003 0-2.654 1.624-5.9 3.788-5.9z" fill="#323232" stroke="#323232" stroke-width=".781"/><path d="M51.137 55.267c-6.474-3.484-13.255-1.352-13.255-1.352l-16.773 45.05 16.231 2.56 9.74-32.461c-1.353-2.706-.542-5.41 1.893-6.493z" fill="none" stroke="#323232" stroke-width="3.402"/><path d="M109.298 49.586c2.706-1.893 8.116-2.434 8.116-2.434l11.903-.27v6.221h-20.019z" fill="#fff" stroke="#323232" stroke-width="2.195" stroke-linecap="round"/><path d="M131.342 36.983v8.115h1.606c.402-2.434.402-5.68 0-8.115z" fill="#323232"/><circle r="2.223" cy="58.573" cx="43.103" fill="#323232"/><rect transform="matrix(.96162 .27438 -.2602 .96555 0 0)" ry="1.745" rx="1.409" y="48.761" x="64.749" height="2.897" width="6.233" fill="#323232"/><circle cx="70.527" cy="52.843" r="1.275" fill="#323232"/><path d="M18.675 36.872c-.904.495-1.082 1.353-.317 1.567 1.98.477 6.42 2.976 6.81 4.925.54-1.893 1.352-4.598 2.704-6.763-1.455-.235-3.187 1.068-4.328 1.082-1.892-.017-3.09-1.746-4.87-.811zM125.259 32.003l-2.163 2.2 5.95-.036c-.811-2.705-3.787-2.164-3.787-2.164zM34.635 36.601h18.936v9.739H34.635z" fill="#323232"/><path d="M36.8 37.683v10.01M39.234 37.683v10.01M41.669 37.683v10.01M44.103 37.683v10.01M46.538 37.683v10.01M48.973 37.683v10.01M51.407 37.683v10.01" fill="none" stroke="#fff" stroke-width=".338"/><circle cx="30.446" cy="95.196" r="2.223" fill="#323232"/><circle cx="53.777" cy="67.6" r="2.223" fill="#323232"/><path d="M130.94 35.868v16h1.373v-16zM35.961 105.314l9.507 1.745-.514 2.04-9.36-1.69z" fill="#323232"/></g><g transform="scale(-1 1) rotate(-30 -5.05 321.701)"><path d="M63.31 35.815h18.396v4.727H63.31z" fill="#323232"/><path d="M26.79 46.07s.481-4.876 3.255-8.996c.169-.251.346-.5.533-.743H63.31v4.406c0 .541.541.541.541.541h17.313s.542 0 .542-.54V36.33h47.34v7.304h-12.714s-4.599.54-7.575 2.435z" fill="#fff" stroke="#323232" stroke-width="2.88"/><path d="M37.143 30.733v2.16s.927.927 1.544.927v.617h-4.322v-.617c.617 0 1.543-.926 1.543-.926v-2.161z" fill="#323232"/><path d="M26.52 49.586c0 5.952-8.657 4.329-10.821 6.493 0 0-.929 1.092 0 1.082 7.92-.495 12.02 4.488 11.903 9.738-2.606 11.11-12.43 34.086-12.43 34.086-.404 1.394 1.068 2.164 1.068 2.164l24.898 3.787 8.105-28.134c2.164-4.328 7.082-4.328 10.821-4.328h12.985c9.739 0 10.82-10.82 10.82-15.149 0-3.246 2.682-4.869 4.329-4.87l17.854-.016v-4.853zm45.717 6.494C76.025 56.079 79 60.768 79 63.653c0 2.885-3.041 6.57-6.762 6.57l-8.928-.002c-3.722 0-6.22-3.683-6.222-6.568.003-2.884 2.706-7.574 6.222-7.574z" fill="#fff" stroke="#323232" stroke-width="2.861"/><path d="M65.092 57.161c-4.232 5.41-2.39 9.738-.61 11.903-5.767 0-6.89-3.013-7.035-6.003 0-2.654 1.624-5.9 3.788-5.9z" fill="#323232" stroke="#323232" stroke-width=".781"/><path d="M51.137 55.267c-6.474-3.484-13.255-1.352-13.255-1.352l-16.773 45.05 16.231 2.56 9.74-32.461c-1.353-2.706-.542-5.41 1.893-6.493z" fill="none" stroke="#323232" stroke-width="3.402"/><path d="M109.298 49.586c2.706-1.893 8.116-2.434 8.116-2.434l11.903-.27v6.221h-20.019z" fill="#fff" stroke="#323232" stroke-width="2.195" stroke-linecap="round"/><path d="M131.342 36.983v8.115h1.606c.402-2.434.402-5.68 0-8.115z" fill="#323232"/><circle cx="43.103" cy="58.573" r="2.223" fill="#323232"/><rect width="6.233" height="2.897" x="64.749" y="48.761" rx="1.409" ry="1.745" transform="matrix(.96162 .27438 -.2602 .96555 0 0)" fill="#323232"/><circle r="1.275" cy="52.843" cx="70.527" fill="#323232"/><path d="M18.675 36.872c-.904.495-1.082 1.353-.317 1.567 1.98.477 6.42 2.976 6.81 4.925.54-1.893 1.352-4.598 2.704-6.763-1.455-.235-3.187 1.068-4.328 1.082-1.892-.017-3.09-1.746-4.87-.811zM125.259 32.003l-2.163 2.2 5.95-.036c-.811-2.705-3.787-2.164-3.787-2.164zM34.635 36.601h18.936v9.739H34.635z" fill="#323232"/><path d="M36.8 37.683v10.01M39.234 37.683v10.01M41.669 37.683v10.01M44.103 37.683v10.01M46.538 37.683v10.01M48.973 37.683v10.01M51.407 37.683v10.01" fill="none" stroke="#fff" stroke-width=".338"/><circle r="2.223" cy="95.196" cx="30.446" fill="#323232"/><circle r="2.223" cy="67.6" cx="53.777" fill="#323232"/><path d="M130.94 35.868v16h1.373v-16zM35.961 105.314l9.507 1.745-.514 2.04-9.36-1.69z" fill="#323232"/></g></svg>