<svg xmlns="http://www.w3.org/2000/svg" xmlns:xlink="http://www.w3.org/1999/xlink" style="isolation:isolate" width="128" height="128"><defs><linearGradient id="a"><stop offset="0" stop-color="#bc3400"/><stop offset="1" stop-color="#ff8050"/></linearGradient><linearGradient xlink:href="#a" id="b" gradientUnits="userSpaceOnUse" gradientTransform="translate(9.032 -7.145)" x1="-6.068" y1="117.021" x2="92.569" y2="29.732"/></defs><path d="M18.496 16.752v95.235l6.996 7.322H108.2s-10.577-11.648 0-20.055V8.22l-83.349.14z" style="isolation:isolate" fill="url(#b)"/><path d="M105.815 101.55a5.106 5.106 0 0 0 4.297-5.034V11.09a5.104 5.104 0 0 0-5.099-5.098H29.784c-6.56 0-11.896 5.337-11.896 11.896v92.224c0 6.56 5.337 11.896 11.896 11.896h75.23a5.104 5.104 0 0 0 5.098-5.098 5.106 5.106 0 0 0-4.297-5.035 7.924 7.924 0 0 1 0-10.324zm-5.183 3.463s-.374 2.017 0 3.4c0 0 .539 2.319 1.083 3.398h-71.93c-.938 0-1.7-.762-1.7-1.7v-6.798c0-.936.762-1.699 1.7-1.699h71.93c-.544 1.08-1.083 3.4-1.083 3.4zm6.08-93.923V91.71a5.077 5.077 0 0 0-1.699-.291h-73.53V9.39h73.53c.938 0 1.7.762 1.7 1.7zm-85.425 6.798c0-4.103 2.924-7.536 6.798-8.326v81.98a11.874 11.874 0 0 0-6.798 3.454zm83.726 100.721H29.784c-4.685 0-8.497-3.812-8.497-8.497v-6.798c0-4.686 3.812-8.497 8.497-8.497h75.23c.937 0 1.699.762 1.699 1.7 0 .936-.762 1.699-1.7 1.699H29.784a5.104 5.104 0 0 0-5.098 5.098v6.798a5.104 5.104 0 0 0 5.098 5.098h75.23c.937 0 1.699.762 1.699 1.7 0 .937-.762 1.699-1.7 1.699z" stroke="#000" stroke-width="2"/><path d="M67.917 21.44c21.43 16.8 21.86 29.19 15.37 35.594l6.73 6.727c9.895-12.153 9.034-33.356-22.097-42.322zm-4.582 2.618a21.204 21.204 0 0 1-6.122.82c-1.657-.033-3.11-.176-4.224-.778L39.36 37.73l6.668 6.668L64.85 25.576zm-4.994 11.107l-5.297 5.297 37.2 37.207c.361.36.78.422 1.521.195.741-.224 1.657-.813 2.411-1.56.751-.757 1.34-1.673 1.567-2.414.227-.748.162-1.16-.195-1.524zm-1.05 21.726l-4.926 4.491 6.141 6.087c7.227 6.02 15.267 6.434 22.01 3.548l-9.1-9.099c-5.29.325-10.716-1.267-14.125-5.027zm-7.123 5.547c-.67.13-1.085.358-1.365.634a2.249 2.249 0 0 0-.516.916l6.67 6.389c.66-.124 1.119-.338 1.366-.566a1.105 1.105 0 0 0 .373-.91l-6.531-6.463zm-2.99 3.666l-6.726 6.128c-2.021 3.263 1.778 7.4 6.177 5.398l6.23-6.077z"/></svg>