<svg xmlns="http://www.w3.org/2000/svg" width="128" height="128"><g fill="#fff"><path d="M122.142 50.367L99.604 29.78a23.15 23.15 0 0 0-16.475-6.824c-7.749 0-14.813 3.754-19.129 9.984-5.241-7.566-14.898-11.43-24.083-9.453a23.28 23.28 0 0 0-11.52 6.293L5.857 50.366l17.33-3.628a38.574 38.574 0 0 1 26.615 2.918c8.893 4.443 19.501 4.443 28.394 0a38.552 38.552 0 0 1 26.617-2.918zm0 0M19.534 75.127V54.7l-13.91 2.774 12.989 16.44c.284.427.627.796.921 1.213zm0 0"/><path d="M101.625 53.132a31.68 31.68 0 0 0-18.72 1.995l18.72 49.918zm0 0M26.375 53.132v51.913l18.72-49.917a31.676 31.676 0 0 0-18.72-1.996zm0 0M89.398 91.924l-8.225-21.935A49.136 49.136 0 0 1 64 73.105a49.144 49.144 0 0 1-17.173-3.116l-8.224 21.935a54.48 54.48 0 0 0 50.795 0zm0 0M78.773 63.588l-2.205-5.877a38.83 38.83 0 0 1-25.136 0l-2.205 5.877a42.39 42.39 0 0 0 29.546 0zm0 0M108.466 75.127c.294-.416.637-.786.921-1.213l12.988-16.44-13.91-2.775zm0 0"/></g></svg>