<svg xmlns="http://www.w3.org/2000/svg" width="128" height="128"><path d="M63.761 106.189c2.886 0 14.138-.035 22.557-.505a22.448 19.911 0 0 1-44.67.024c7.816.438 18.163.481 22.113.481zm34.823-19.877c-5.122 1.273-20.025 1.909-34.832 1.909-14.807 0-29.529-.636-34.335-1.908-1.606-.425-3.616-1.1-3.363-2.607l1.769-10.789a12.514 11.1 0 0 0 5.17 1.588c8.275.85 30.063.986 30.988.986h.039c.925 0 22.713-.139 30.987-.986a12.514 11.1 0 0 0 5.171-1.588l1.769 10.79c.247 1.507-1.748 2.21-3.363 2.608zm-60.263-5.818a2.998 2.66 0 1 0-2.998 2.657 2.998 2.66 0 0 0 3.007-2.654zm56.196 0a2.998 2.66 0 1 0-2.999 2.657 2.998 2.66 0 0 0 3.008-2.654zm-.07-10.282c-8.102.832-30.45.915-30.45.915s-22.346-.08-30.449-.915c-3.706-.379-6.629-2.958-6.523-6.358 0 0 2.63-23.425 2.814-33.288.115-6.235-6.22-13.953 2.784-16.998l14.032-5.137V4.388s6.373 3.635 17.477 3.635 17.476-3.635 17.476-3.635v4.044l13.894 5.14c9.003 3.043 2.567 10.762 2.682 16.997.183 9.862 2.799 33.288 2.799 33.288.12 3.397-2.824 5.976-6.53 6.355zM38.33 19.902a2.998 2.66 0 1 0-2.998 2.66 2.998 2.66 0 0 0 2.998-2.66zm56.195 0a2.998 2.66 0 1 0-2.998 2.66 2.998 2.66 0 0 0 2.998-2.66zm-1.229 80.81c-3.884.802-16.75 1.209-29.53 1.209-12.778 0-25.49-.39-29.055-1.192-2.185-.492-3.559-1.35-3.387-2.895l.705-6.681c9.32 1.245 26.14 1.355 31.726 1.355 11.185 0 24.521-.377 32.223-1.382l.696 6.71c.178 1.543-1.184 2.425-3.378 2.877zm-53.46-4.81a2.998 2.66 0 1 0-2.997 2.659 2.998 2.66 0 0 0 2.998-2.662zm53.183 0a2.998 2.66 0 1 0-2.998 2.659 2.998 2.66 0 0 0 2.998-2.662z" fill="#fff"/></svg>