<svg xmlns="http://www.w3.org/2000/svg" width="128" height="128"><path d="M96.19 19.358a25.703 25.703 0 0 0-13.21 3.524C45.41 44.827 57.263 37.727 18.877 59.89l-1.177.68v.078C6.169 68.156 2.358 83.516 9.318 95.571c7.197 12.464 23.254 16.811 35.697 9.552C83.29 82.793 71.4 89.849 109.108 68.115c12.471-7.188 16.764-23.216 9.568-35.681-4.793-8.302-13.52-13.006-22.486-13.077zm.339 4.163c6.385.103 12.561 3.417 15.952 9.316.46.8.704 1.749 1.035 2.584-5.783-6.539-15.64-8.354-23.506-3.793-16.314 9.461-21.147 12.355-26.72 15.644 5.678 4.901 11.205 13.18 13.716 20.74-14.34 8.292-13.06 7.754-37.633 22.004-7.865 4.561-17.722 2.745-23.506-3.792.332.834.576 1.783 1.036 2.584 5.167 8.988 16.8 11.96 25.789 6.747 23.524-13.642 23.217-13.604 35.696-20.811.129 2.428-.257 4.596-1.287 6.305-7.28 4.17-13.477 7.748-34.473 19.997-10.212 5.958-23.3 2.413-29.218-7.838-5.918-10.25-2.42-23.307 7.83-29.225l1.185-.688C40.93 52.617 47.36 48.968 54.235 45.028c9.372-5.436 11.163-6.59 32.457-18.938a18.962 18.962 0 0 1 9.836-2.568z" fill="#fff"/></svg>