<svg xmlns="http://www.w3.org/2000/svg" width="128" height="128"><path d="M114.288 24.31c-.223-.39-.837-.725-1.004-1.115-.893-1.786-2.4-2.902-3.013-5.022-.112-.447-.502-1.005-.893-1.228-2.734-1.786-3.794-5.301-7.924-5.747-.446-.056-.613-.614-1.06-.782h-.111c-.447-.111-1.06.168-1.172.558-.112.39-.781.447-1.228.503-2.566.334-3.85 1.897-5.3 3.348-.336.334-.782.948-.95 1.339-.725 1.73-1.227 3.683-1.004 6.361.168 2.176 1.451 5.134 2.344 7.477 1.786 4.409 4.018 8.594 4.464 14.453.112 1.116.112 2.51-.335 3.627-.167.446-.78.613-1.116.334-.614-.558-.893-1.395-1.395-2.064-1.339-1.674-3.348-3.237-5.357-4.743-2.566-2.009-4.798-3.683-7.867-4.966-1.228-.503-2.12-.391-3.74-.614-2.12-.28-4.463-1.172-6.974-1.618-1.953-.335-4.52-.558-6.473-.614-1.674-.056-4.408.725-5.747.111-.726-.334-.67-1.339-1.116-2.51-.447-1.228-1.563-3.516-2.12-4.465-.559-1.06-1.507-2.343-2.344-3.627a48.27 48.27 0 0 0-5.357-6.361c-1.005-1.004-1.898-2.288-2.846-3.013-.39-.28-1.842-1.116-2.511-1.116-1.786 0-2.4 1.395-3.237 2.678-.279.39-.837.558-1.339.558-1.562-.167-3.18.447-4.185 1.395-.614.614-.893 1.73-1.618 2.344-.39.335-.949.335-1.395.614-1.73 1.227-2.065 3.236-2.958 4.91-.223.39-.78.725-1.283.837-1.116.223-1.897.781-2.51 1.45-.28.336-.615 1.06-.726 1.452-.67 1.841-2.01 3.124-1.842 5.58.056.446-.223 1.06-.558 1.339-1.897 1.45-3.292 3.18-3.46 5.97-.055.838.447 1.675.391 2.512 0 .223-.056.502-.167.725-.112.39-.614.893-.949 1.172-1.562 1.45-2.567 3.348-2.622 5.803.055 2.344 1.171 4.297 2.734 5.915a.863.863 0 0 1 .056 1.172c-1.73 2.288-1.507 5.97.67 7.923.334.28.669.781.725 1.116.055.335.111.67.111.726v.111c0 .056 0 .112.056.112 0 .056.167.502.335.893.056.167.167.334.279.446.223.39.279.948.056 1.395-1.172 2.232-.893 5.245.948 7.03.335.336.67.559.67.615 0 .056-.112.446-.168.892v.056c-.055.447-.111 1.005-.111 1.228v.39c.056.224.056.447.111.67.112.335.335.949.558 1.395a4.986 4.986 0 0 0 1.786 1.953c.39.223.725.781.837 1.227 0 .112.056.168.056.28.111.446.279.948.335 1.171l.167.335s0 .056.056.056c0 0 .223.39.502.725.558.67 1.228 1.228 2.12 1.563.447.167.893.614 1.116 1.004.838 1.618 2.4 2.79 4.744 2.79h.167c.112 0 .39.335.67.67.892 1.06 2.232 1.786 4.073 1.786.725 0 1.34-.112 1.897-.335.447-.168 1.06-.335 1.34-.335h.613c.447.056.949.558.614.893l-.056.056c-.335.334-.223 1.004.112 1.227.39.223.279.837-.056 1.228-.781.892-1.618 1.674-2.009 2.901-.167.447 0 1.228.39 1.395.503.168 1.173 0 1.842 0 .447 0 .837.502.558.893-.725 1.116-2.79 1.283-2.455 2.846.112.614.893.948 1.618 1.004.726.056 1.395-.502 2.009-.502.558 0 .781.502 1.395.726.279.111.67 0 .893.111.558.279.948 1.004 1.618 1.116 1.786.335 3.07-1.45 4.464-2.12.39-.224.893.167.614.558-.167.279-.446.446-.67.67-.334.334.056 1.115.503 1.227.613.111 1.339-.168 1.84-.335 1.229-.446 2.289-1.395 3.349-1.841 1.172-.503 2.623-.168 3.85-.559.447-.111 1.172-.167 1.228.335 0 .28-.056.558-.112.837-.167.447-.279 1.172.056 1.451.335.223.725.39.837.893.167.558-.112 1.172-.112 1.785 0 .447.447 1.06.837 1.284 1.284.67 3.293 1.172 5.301 1.283 1.116.056 2.344-.167 2.902.39.335.336.725.726 1.172.726h1.674c.446 0 .837-.334.837-.725 0-.39.223-1.116.614-1.228.39-.111.893-.167 1.116-.502.167-.223.111-.446.056-.67-.056-.39.446-.837.892-.892.837-.112 1.675.055 2.567 0 1.172-.056 2.288-.559 3.348-.39 1.395.222 2.344 1.84 3.795 2.175.446.112 1.116-.223 1.171-.67.056-.446.112-.948.391-1.115.335-.28.949-.112 1.451-.056.446.056.725-.558.502-.949-.446-.67-1.283-1.227-1.953-1.45-2.734-.95-7.533-.168-9.71-2.01-2.175-1.841-2.622-6.416-2.343-10.211.056-.781.28-1.618.67-2.288.279-.39.949-.614 1.395-.558 5.357.112 8.928-.67 13.615-1.283 1.73-.224 3.516-1.116 4.966-2.01 1.451-.892 2.567-2.287 3.85-3.012 1.172-.614 2.79-1.06 3.628-1.73 2.901-2.4 3.906-6.64 5.356-10.602.893-2.4 1.73-3.46 1.842-6.752.167-3.962.223-8.76-.223-12.443-.168-1.228-.726-2.232-.893-3.348-.167-1.116.111-2.12 0-3.014-.168-1.45-.726-3.069-1.228-4.352-.167-.447-.67-.781-.892-1.228-.224-.446-.168-1.06-.391-1.506-.279-.614-.949-1.116-1.004-1.842-.056-.837.78-1.227 1.116-2.51.223-.782 0-1.786.111-2.512.112-.558.558-1.06.614-1.506.335-2.288-1.284-4.464-1.618-6.752-.28-1.953-.391-5.357 1.506-5.748 1.172-.223 2.065.558 2.958 1.005.39.223.948-.168.78-.558v-.055zm-38.335 88.444c-.837.391-1.339 0-2.51 0-.95 0-1.898.391-2.623.391-1.284-.056-3.516-.837-4.13-1.395-.725-.614-1.897-3.404-1.506-4.966.167-.67 1.283-1.116 1.841-1.73 1.73-1.841 2.958-3.683 4.24-5.524.28-.39.56-.67.67-.67.112 0 .391.335.614.726 1.674 2.678 3.795 5.357 4.018 9.151.056.447.335 1.06.502 1.507.447.836-.223 2.12-1.116 2.51z" fill="#fff"/></svg>