<svg xmlns="http://www.w3.org/2000/svg" xmlns:xlink="http://www.w3.org/1999/xlink" width="128" height="128"><defs><linearGradient xlink:href="#a" id="f" x1="64.015" y1="105" x2="67.644" y2="89" gradientUnits="userSpaceOnUse"/><linearGradient id="a"><stop stop-color="#ffc321" offset="0"/><stop stop-color="#925d15" offset="1"/></linearGradient><clipPath id="e"><path d="M60.387 76v5c0 13 1.708 22 .907 29.079-.224 4.028-4.201 6.535-3.734 7.936 2.103 4.476 6.974 6.644 10.376 7.002 0 0 1.4.21 1.867-.933C72.58 117.638 72.18 108 72.18 108V76z" fill="#3d3522" fill-opacity=".606" stroke-width="10.494"/></clipPath><radialGradient xlink:href="#b" id="d" gradientUnits="userSpaceOnUse" gradientTransform="matrix(1.6672 -1.18318 2.15398 3.03515 -136.3 -14.849)" cx="63.273" cy="42.392" fx="63.273" fy="42.392" r="10.214"/><linearGradient id="b"><stop offset="0" stop-color="#c14a2f"/><stop offset=".529" stop-color="#70461e"/><stop offset="1" stop-color="#381611"/></linearGradient><clipPath id="c"><path d="M58.856 78l-1.532-3.836-2.043-.714s-3.064-19.293-3.064-35.014c0-20.007 13.904-29.556 13.904-29.556s-1.647 20.982 6.524 35.273V78z" fill="#393a3c" fill-opacity=".434" stroke-width="1.536"/></clipPath></defs><path transform="matrix(-1 0 0 1 129.5 -2.956)" clip-path="url(#c)" d="M58.856 78l-1.532-3.836-2.043-.714s-3.064-19.293-3.064-35.014c0-20.007 13.904-29.556 13.904-29.556s-1.647 20.982 6.524 35.273V78z" fill="url(#d)" stroke="#000" stroke-width="7.9"/><path d="M52 72.637h24v5H52zM84.9 81.9C85 79 80 72.636 76 72.636v5c2 0 5 3.363 6 6.363zM43.1 68.1C43 71 48 77.638 52 77.638v-5c-2 0-5-3.637-6-6.637z"/><path transform="matrix(-1.10245 0 0 1 137.073 -2.956)" d="M60.387 76v5c0 13 1.708 22 .907 29.079-.224 4.028-4.201 6.535-3.734 7.936 2.103 4.476 6.974 6.644 10.376 7.002 0 0 1.4.21 1.867-.933C72.58 117.638 72.18 108 72.18 108V76z" clip-path="url(#e)" fill="url(#f)" stroke="#000" stroke-width="7.524"/><path d="M66.5 114.044a1.641 1.641 0 0 1-1.64 1.64 1.641 1.641 0 0 1-1.642-1.64 1.641 1.641 0 0 1 1.641-1.64 1.641 1.641 0 0 1 1.641 1.64zM63.5 44.044h-3.68v2h3.68zM63.5 48.044h-3.68v2h3.68zM63.5 52.044h-3.68v2h3.68zM63.5 56.044h-3.68v2h3.68zM63.5 60.044h-3.68v2h3.68zM63.5 64.044h-3.68v2h3.68z"/></svg>