<?xml version="1.0" encoding="UTF-8" standalone="no"?>
<svg
   xmlns:dc="http://purl.org/dc/elements/1.1/"
   xmlns:cc="http://creativecommons.org/ns#"
   xmlns:rdf="http://www.w3.org/1999/02/22-rdf-syntax-ns#"
   xmlns:svg="http://www.w3.org/2000/svg"
   xmlns="http://www.w3.org/2000/svg"
   xmlns:xlink="http://www.w3.org/1999/xlink"
   xmlns:sodipodi="http://sodipodi.sourceforge.net/DTD/sodipodi-0.dtd"
   xmlns:inkscape="http://www.inkscape.org/namespaces/inkscape"
   width="160"
   height="160"
   version="1.1"
   id="svg45"
   sodipodi:docname="loot-melee-kukri-sniper.svg"
   inkscape:version="0.92.2 (5c3e80d, 2017-08-06)">
  <metadata
     id="metadata49">
    <rdf:RDF>
      <cc:Work
         rdf:about="">
        <dc:format>image/svg+xml</dc:format>
        <dc:type
           rdf:resource="http://purl.org/dc/dcmitype/StillImage" />
        <dc:title></dc:title>
      </cc:Work>
    </rdf:RDF>
  </metadata>
  <sodipodi:namedview
     pagecolor="#ffffff"
     bordercolor="#666666"
     borderopacity="1"
     objecttolerance="10"
     gridtolerance="10"
     guidetolerance="10"
     inkscape:pageopacity="0"
     inkscape:pageshadow="2"
     inkscape:window-width="1920"
     inkscape:window-height="1017"
     id="namedview47"
     showgrid="true"
     inkscape:zoom="3.4766083"
     inkscape:cx="44.422116"
     inkscape:cy="74.343876"
     inkscape:window-x="1912"
     inkscape:window-y="-8"
     inkscape:window-maximized="1"
     inkscape:current-layer="svg45"
     fit-margin-top="0"
     fit-margin-left="0"
     fit-margin-right="0"
     fit-margin-bottom="0">
    <inkscape:grid
       type="xygrid"
       id="grid921"
       empspacing="4"
       spacingy="2"
       spacingx="2"
       originx="-16"
       originy="-16" />
  </sodipodi:namedview>
  <defs
     id="defs33">
    <linearGradient
       id="c">
      <stop
         stop-color="#35311b"
         offset="0"
         id="stop2"
         style="stop-color:#1b2b35;stop-opacity:1" />
      <stop
         stop-color="#c6c3af"
         offset=".414"
         id="stop4"
         style="stop-color:#afbcc6;stop-opacity:1" />
      <stop
         stop-color="#7b715d"
         offset=".579"
         id="stop6"
         style="stop-color:#5d707b;stop-opacity:1" />
      <stop
         stop-color="#5b542e"
         offset="1"
         id="stop8"
         style="stop-color:#2e4d5b;stop-opacity:1" />
    </linearGradient>
    <linearGradient
       id="b">
      <stop
         offset="0"
         stop-color="#1f70ff"
         id="stop16" />
      <stop
         offset="1"
         stop-color="#001e4d"
         id="stop18" />
    </linearGradient>
    <clipPath
       id="h">
      <path
         d="m -192.761,431.42 -29.96,-3.625 -1.949,39.397 c 16.108,1.917 97.844,5.786 125.457,6.553 23.586,-6.136 113.06,-40.822 157.74,-59.806 -21.285,-11.505 -35.361,-25.759 -84.122,-20.294 -58.414,6.546 -110.991,50.394 -166.584,31.954 z"
         id="path21"
         inkscape:connector-curvature="0"
         style="fill:#1a27de;fill-opacity:0.48500001;stroke-width:1.35500002" />
    </clipPath>
    <clipPath
       id="f">
      <path
         d="m -326.511,412.55 c -6.616,-1.247 -23.639,-11.87 -23.639,-11.87 -5.752,12.368 -17.503,46.948 -17.503,46.948 l 31.608,5.4 z"
         id="path24"
         inkscape:connector-curvature="0"
         style="fill:#454545;fill-opacity:0.57099998" />
    </clipPath>
    <clipPath
       id="d">
      <path
         d="m -251.818,419.903 c 5.122,1.263 20.717,14.86 30.343,4.143 l 7.636,0.645 -2.075,44.316 c -40.407,-4.746 -83.565,-9.772 -129.531,-17.637 l 9.695,-42.121 c 54.645,18.576 70.238,9.823 83.932,10.654 z"
         id="path27"
         inkscape:connector-curvature="0"
         style="fill:#894a00;fill-opacity:0.57099998;stroke-width:2.48600006" />
    </clipPath>
    <linearGradient
       xlink:href="#b"
       id="e"
       gradientUnits="userSpaceOnUse"
       x1="-326.54401"
       y1="453.522"
       x2="-253.314"
       y2="426.06201" />
    <linearGradient
       xlink:href="#linearGradient988"
       id="g"
       gradientUnits="userSpaceOnUse"
       x1="-356.36182"
       y1="437.67157"
       x2="-335.50101"
       y2="422.49899" />
    <linearGradient
       xlink:href="#c"
       id="i"
       gradientUnits="userSpaceOnUse"
       x1="-224.67"
       y1="433.09299"
       x2="58.527"
       y2="433.09299" />
    <linearGradient
       id="linearGradient988">
      <stop
         id="stop984"
         stop-color="#66a000"
         offset="0"
         style="stop-color:#002764;stop-opacity:1" />
      <stop
         id="stop986"
         stop-color="#0e2608"
         offset="1"
         style="stop-color:#00101f;stop-opacity:1" />
    </linearGradient>
  </defs>
  <path
     clip-path="url(#d)"
     d="m -251.818,419.903 c 5.122,1.263 20.717,14.86 30.343,4.143 l 7.636,0.645 -2.075,44.316 c -40.407,-4.746 -83.565,-9.772 -129.531,-17.637 l 9.695,-42.121 c 54.645,18.576 70.238,9.823 83.932,10.654 z"
     transform="matrix(-0.04943596,-0.36611747,0.36611747,-0.04943596,-88.69235,44.705555)"
     id="path35"
     style="fill:url(#e);fill-opacity:1;stroke:#000000;stroke-width:21.65399933"
     inkscape:connector-curvature="0" />
  <path
     clip-path="url(#f)"
     d="m -326.511,412.55 c -6.616,-1.247 -23.639,-11.87 -23.639,-11.87 -3.52082,7.57049 -9.28928,23.46317 -13.23467,34.65351 -2.50023,7.09145 -4.26833,12.29449 -4.26833,12.29449 l 31.608,5.4 z"
     transform="matrix(-0.04943596,-0.36611747,0.36611747,-0.04943596,-88.69235,44.705555)"
     id="path37"
     style="fill:url(#g);fill-opacity:1;stroke:#000000;stroke-width:21.65399933"
     inkscape:connector-curvature="0"
     sodipodi:nodetypes="ccsccc" />
  <path
     clip-path="url(#h)"
     d="m -192.761,431.42 -29.96,-3.625 -1.949,39.397 c 16.108,1.917 97.844,5.786 125.457,6.553 23.586,-6.136 113.06,-40.822 157.74,-59.806 -21.285,-11.505 -35.361,-25.759 -84.122,-20.294 -58.414,6.546 -110.991,50.394 -166.584,31.954 z"
     transform="matrix(-0.04943596,-0.36611747,0.36611747,-0.04943596,-88.69235,44.705555)"
     id="path39"
     inkscape:connector-curvature="0"
     style="fill:url(#i);stroke:#000000;stroke-width:21.65399933" />
  <path
     d="m 80.583,93.388 c 0,0 1.581,-1.252 1.426,-3.418 C 81.644,84.891 80.986,74.66 74.378,61.481 69.438,51.628 54.816,29.877 61.548,11.494"
     id="path41"
     inkscape:connector-curvature="0"
     style="fill:none;stroke:#000000;stroke-width:3.69400001;stroke-opacity:0.56099997" />
  <path
     d="M 87.853,101.09 C 87.751,96.1 84.567,60.935 84.378,58.744"
     id="path43"
     inkscape:connector-curvature="0"
     style="fill:none;stroke:#000000;stroke-width:1.47800004" />
</svg>
