<svg xmlns="http://www.w3.org/2000/svg" width="128" height="128"><path d="M64.033 5.164c-5.15 0-10.3.853-14.951 2.56-3.963 1.452-7.407 4.727-10.236 7.64a82.371 72.933 0 0 0-4.053 4.535h6.598c2.627-2.58 6.201-6.52 9.693-7.897 7.882-2.89 18.017-2.89 25.9 0 4.04 2.21 6.987 4.936 9.693 7.897h6.597a82.254 72.829 0 0 0-4.052-4.535c-2.829-2.913-6.273-6.188-10.236-7.64-4.652-1.707-9.802-2.56-14.953-2.56zM31.481 24.531c-4.717.55-11.237 5.92-11.335 10.037v.005c-.031 13.637 7.453 22.036 16.8 27.387 6.213 3.556 13.302 5.625 19.24 6.617v-11.62h15.695v11.62c5.931-.993 13.009-3.062 19.215-6.617 9.34-5.35 16.825-13.753 16.825-27.392-.036-4.118-7.271-9.709-11.335-10.037zM20.08 52.885l.066 69.95h87.774l-.066-69.785c-3.53 5.47-8.5 9.697-13.915 12.8-7.288 4.175-15.308 6.465-22.057 7.467v8.859H56.186v-8.859c-6.755-1-14.785-3.29-22.08-7.467-5.475-3.134-10.495-7.414-14.027-12.965zm41.339 8.703v15.956h5.231V61.588zm-36.04 27.279H58.51v29.337H25.378zm44.178 0h33.133v29.337H69.556zM30.61 93.499v5.199c4.253 5.459 8.104 7.668 11.335 7.668 3.232 0 7.083-2.21 11.336-7.668v-5.2zm44.178 0v5.199c4.253 5.459 8.104 7.668 11.335 7.668 3.232 0 7.083-2.21 11.335-7.668v-5.2zM30.61 106.04v7.53h22.67v-7.53c-3.52 3.18-7.274 4.957-11.335 4.957-4.06 0-7.813-1.777-11.335-4.957zm44.178 0v7.53h22.67v-7.53c-3.521 3.18-7.274 4.957-11.335 4.957-4.06 0-7.813-1.777-11.335-4.957z" fill="#fff"/></svg>