<svg xmlns="http://www.w3.org/2000/svg" width="128" height="128"><path d="M68.253 70.7L98.695 40.26l-9.327-5.55L74.46 49.619l.089 3.48L62.6 65.048z" fill="#fff" stroke="#323232" stroke-width="2.798"/><path d="M87.406 50.957l-9.319-5.92M67.26 58.246l5.952 5.953" fill="none" stroke="#323232" stroke-width="2.276"/><path d="M26.99 122.197l-3.515 3.515s-7.921-9.157-16.402-16.402l3.515-3.514 1.464.292 14.644 14.645z" fill="#323232"/><path d="M67.05 97.952s-6.014 4.457-6.38 4.036c0 0-4.1-4.1-4.028-9.887 0 0-.895-3.238-3-4.171l6.023-6.024.42 1.923.944 4.5 1.106 1.065-.36 1.625 1.258 2.04 1.152.728-.086 1.28c.365.506 2.95 2.885 2.95 2.885z" fill="#fff" stroke="#323232" stroke-width="2.692"/><path d="M21.424 111.946l43.933-43.932-5.565-5.565-6.736 6.736-3.808-3.807-4.1 1.757L28.16 84.122l-.586 2.929-12.887 12.887-.293 4.979z" fill="#fff" stroke="#323232" stroke-width="2.719"/><path d="M53.46 70.298l-36.256 36.256-1.344-1.344 36.19-36.19zM45.44 94.959l-3.27-3.271L66.656 67.2l3.272 3.271-.959.958.586.586-.977.978.878.878-7.029 7.03s-.53.293-.586 2.343l-1.464-.293-.306-2.623zM74.436 84.122L67.7 83.83l2.929-4.686-1.172-2.929 1.465-1.464 3.807 3.807 2.05-.292.293.878-2.05.293z" fill="#323232"/><path d="M68.579 83.536c-1.61 1.61-3.808 2.05-7.67.055l.055-1.226c7.322 4.393 7.615-1.172 9.665-4.393l-3.222-3.222.586-.586 2.929 2.929c.293 3.222-.586 3.515-2.343 6.443zm-6.15-3.807c1.17 2.929 3.663 3.455 4.685 2.929 0 0 .124-.312-.125-.461-.804.01-3.215.05-3.762-3.427zM115.603 11.324L61.752 65.175l-3.222-3.221 53.808-53.808zM50.127 58.641c-1.017 1.115-.586 3.515.586 4.686 1.171 1.172 3.514 1.758 4.686.586l16.71-16.71-5.288-5.256zm1.886.443l10.691-10.69 2.798 2.777-10.7 10.701zM58.157 48.085l.667-.667.678.677-.667.667zm1.151-1.15l.667-.668.676.677-.667.667zm1.187-1.188l.667-.667.677.677-.667.667zm1.175-1.174l.667-.667.676.677-.667.666zm-4.646 4.645l.667-.667.678.677-.667.667zM64.013 42.23l.667-.667.677.677-.667.667zm1.15-1.15l.667-.668.677.677-.667.666zm-2.283 2.283l.667-.667.677.677-.667.667z" fill="#323232"/><path d="M68.092 41.848l-9.764 9.764-1.333-1.333 9.755-9.755z" fill="#323232"/><path d="M64.777 56.89l-6.45-6.45 1.172-1.17 6.444 6.442z" fill="#323232"/><circle cx="-62.014" cy="52.272" r="1.045" transform="rotate(-90)" fill="#7e7e7e"/><circle r="1.045" cy="66.874" cx="-47.411" transform="rotate(-90)" fill="#7e7e7e"/><path d="M87.323 34.332l-20.209 9.08.293-1.465 16.402-7.615 4.686-1.172zM97.696 29.23l-.295 1.468 1.171 1.172.586 2.343-2.527 2.526-.317-.318-1.272 1.272-3.251-1.272 2.261-2.26-.35-.35 1.063-1.063-3.808-3.807 3.222-3.222zM114.653 11.143l.906.225L120.927 6c-.568-1.248-1.86-2.54-3.222-3.222l-5.367 5.368.16.842zm.144-3.072l2.944-2.943c.264-.264.918-.033.918-.033s.221.645-.042.908l-2.943 2.943c-.264.265-.91.043-.91.043s-.23-.654.034-.918z" fill="#323232"/><path d="M105.378 3.18a2.53 2.53 0 0 0-.655 1.451l1.171 1.172 1.172 6.443.878.88 4.686-4.687-4.393-4.393V3.46l-1.171-1.172s-.988.139-1.688.892zm2.376 4.779l.796-.797a.827.827 0 0 1 1.172 0l.126.127a.827.827 0 0 1 0 1.171l-.796.797a.827.827 0 0 1-1.172 0l-.126-.127a.827.827 0 0 1 0-1.171zM110.58 15.761l.586.586.879-.879 1.171 1.172.586-.586 2.343 2.343 2.636-2.636-3.515-3.515.586-.585-.586-.586-.878.879-2.343-2.344-2.05 2.05 2.343 2.344zm3.168-2.262a.967.967 0 1 1 1.348 1.386.967.967 0 0 1-1.348-1.386zm1.883 1.883a.967.967 0 1 1 1.346 1.387.967.967 0 0 1-1.346-1.387z" fill="#323232"/><path d="M100.611 42.98l3.177 3.177.38 2.642 4.467 4.53-2.692 2.692-6.925-6.85-1.87.15-1.456-1.456z" fill="#fff" stroke="#323232" stroke-width="2.25"/><path d="M111.145 54.377l-4.178 4.177-.648-.648 4.174-4.174z" fill="#323232"/><path d="M75.807 72.666H74.15c-1.432-.112-1.242-2.485-1.242-2.485-.085-1.853 1.713-1.993 1.656-3.313l-.414-1.657" fill="none" stroke="#323232" stroke-width="1.18"/><path d="M75.807 63.968l1.323 1.594-.595.71-1.323-1.594zM72.099 49.568l-6.45-6.45 1.172-1.171 6.444 6.443z" fill="#323232"/><path d="M45.148 74.75c8.786 2.929 14.983-.363 20.413-1.732 3.668-.925 9.06-.616 11.028-2.008v4.97c-2.698 1.469-6.974.706-10.403 1.527-6.005 1.437-14.485 5.605-24.553.758z" fill="#fff" stroke="#323232" stroke-width="2" stroke-linecap="square"/><g stroke="#323232" fill="#fff"><path d="M72.756 66.034s.66 1.222.714 2.878l.026.828.214.2.04 1.243.22.407.204 6.417-.2.213.22.408.006.207-2.07.066-.006-.207.194-.42-.214-.201-.205-6.417.194-.42-.04-1.242.201-.214-.026-.828c-.053-1.656.528-2.918.528-2.918zM68.005 66.651s.745 1.173.913 2.822l.084.824.227.185.127 1.236.248.39.652 6.388-.184.227.248.39.02.207-2.06.21-.02-.206.163-.433-.227-.185-.652-6.387.164-.433-.127-1.236.185-.227-.084-.824c-.168-1.648.324-2.948.324-2.948zM63.532 67.607s.793 1.14 1.03 2.78l.118.82.235.175.178 1.23.264.38.918 6.355-.175.234.264.38.03.206-2.05.296-.03-.205.146-.44-.235-.175-.918-6.354.146-.44-.178-1.23.176-.234-.119-.82c-.237-1.64.2-2.958.2-2.958zM59.285 68.362s.783 1.148 1.005 2.79l.112.82.233.178.167 1.231.26.383.863 6.362-.177.233.26.382.029.206-2.053.278-.027-.205.15-.439-.234-.177-.863-6.362.15-.438-.167-1.231.177-.234-.11-.82c-.223-1.642.225-2.957.225-2.957zM55.804 69.399s.695 1.203.794 2.857l.05.827.219.194.075 1.24.231.401.386 6.409-.195.22.232.4.013.207-2.068.124-.012-.207.182-.425-.22-.195-.385-6.408.182-.426-.075-1.24.194-.22-.05-.827c-.099-1.653.447-2.931.447-2.931zM52.544 69.887s.591 1.257.552 2.913l-.02.828.202.212-.03 1.243.197.419-.155 6.418-.212.202.197.42-.005.206-2.07-.05.005-.207.217-.409-.202-.212.154-6.418.217-.41.03-1.241.212-.202.02-.829c.04-1.656.691-2.883.691-2.883zM50.863 70.072s.138 1.383-.453 2.93l-.295.775.12.267-.443 1.161.046.461-2.289 5.998-.267.12.045.46-.073.194-1.935-.738.074-.193.34-.314-.119-.267 2.289-5.998.34-.313.444-1.161.267-.12.295-.774c.59-1.548 1.614-2.488 1.614-2.488z"/></g><path d="M49.105 69.963s-.25 1.366-1.246 2.69l-.498.662.041.29-.746.994-.084.455-3.858 5.131-.29.041-.084.456-.124.165-1.656-1.244.125-.166.414-.206-.04-.29 3.858-5.132.414-.206.747-.993.29-.041.498-.662c.996-1.325 2.24-1.944 2.24-1.944z" fill="#fff" stroke="#323232" stroke-width=".621"/><path d="M51.614 68.284L39.29 80.608l-2.343-2.343 12.301-12.302z" fill="#fff" stroke="#323232" stroke-width="2.197"/><path d="M18.027 100.933l13.765-13.765 3.294-6.078" fill="none" stroke="#323232" stroke-width="1.6" stroke-linecap="round"/><path d="M22.889 105.21l19.33-19.33" fill="none" stroke="#323232" stroke-width="1.657" stroke-linecap="round"/><circle cx="-57.82" cy="95.388" r=".828" transform="rotate(-45)" fill="#323232"/><circle r=".828" cy="95.388" cx="-52.855" transform="rotate(-45)" fill="#323232"/><path d="M78.082 66.913h26.567v1.483l-1.113 1.112v7.2l1.113 1.112v1.328H78.082v-3.013H76.97v-6.213h1.112z" fill="#fff" stroke="#323232" stroke-width="2.869"/><path fill="#323232" d="M87.067 75.46v-4.837h3.432v4.837zM97 75.46v-4.837h3.432v4.837zM83.162 79.871V66.28h2.03v13.591z"/><path fill="#323232" d="M88.096 74.781V71.33h11.69v3.451zM92.88 37.688L82.83 47.736l-1.284-1.283 10.03-10.03z"/></svg>