<svg xmlns="http://www.w3.org/2000/svg" width="128" height="128"><path d="M4.597 41.613V94.72l74.4 20.638V62.252zm9.414 14.918a8.135 8.135 0 0 1 2.404.32c1.737.485 3.281 1.432 4.637 2.84 1.355 1.41 2.408 3.185 3.156 5.329.748 2.129 1.123 4.422 1.123 6.878v2.182c0 5.253-1.159 9.039-3.475 11.358-2.301 2.308-5.568 2.9-9.804 1.775l-.616-.172v-5.168l.403.113c2.344.64 4.103.522 5.275-.351 1.186-.87 1.899-2.42 2.139-4.654-1.27.944-2.661 1.204-4.172.783-2.344-.654-4.195-2.11-5.55-4.366-1.342-2.266-2.013-4.972-2.013-8.12 0-2.034.383-3.785 1.145-5.253.762-1.481 1.82-2.499 3.176-3.052a6.228 6.228 0 0 1 2.172-.442zm1.746 5.221c-.585.051-1.08.45-1.483 1.195-.522.984-.783 2.294-.783 3.932 0 1.779.276 3.26.826 4.445.551 1.17 1.313 1.892 2.287 2.164 1.158.323 2.07-.213 2.733-1.61v-2.753c0-2.019-.276-3.677-.826-4.975-.551-1.311-1.264-2.09-2.139-2.334a1.72 1.72 0 0 0-.615-.064zM27.94 72.625l4.58 1.277.14 1.768c1.094-1.077 2.54-1.365 4.337-.863 1.867.52 3.187 1.729 3.959 3.627 1.072-1.384 2.598-1.798 4.58-1.245 3.273.914 4.95 3.644 5.031 8.196V97.64l-4.892-1.366V84.332c0-1.083-.15-1.897-.45-2.441-.3-.545-.807-.918-1.521-1.118-.91-.254-1.59.116-2.039 1.108l.033.598v12.687l-4.89-1.363v-11.91c0-1.072-.144-1.885-.432-2.438-.288-.564-.802-.948-1.54-1.154-.84-.235-1.51.032-2.005.805v13.587l-4.89-1.365zm24.862 6.936l4.58 1.279.138 1.767c1.095-1.077 2.54-1.366 4.338-.865 1.867.521 3.187 1.731 3.96 3.63 1.071-1.384 2.597-1.8 4.58-1.247 3.272.913 4.95 3.646 5.03 8.197v12.256l-4.892-1.365V91.268c0-1.084-.15-1.897-.45-2.442-.299-.544-.806-.916-1.52-1.115-.911-.254-1.59.115-2.04 1.107l.033.598v12.688l-4.89-1.366v-11.91c0-1.072-.144-1.883-.432-2.435-.288-.565-.801-.95-1.539-1.157-.841-.234-1.51.035-2.006.807v13.586l-4.89-1.365zM123.404 41.159L84.857 62.118v53.488l38.547-20.96zm-17 16.283c.842.044 1.562.58 1.957 1.725l2.312 6.695-11.65 6.395 2.238-9.149c.618-2.524 2.077-4.424 3.54-5.236.548-.304 1.098-.456 1.603-.43zm5.414 11.737l3.09 8.95L94.9 89.113l3.008-12.297zm4.234 12.27l1.553 4.5c.857 2.48-.766 6.556-3.127 7.853L95.4 104.274c-2.349 1.29-3.971-.972-3.139-4.375l1.524-6.228zM46.167 12.395l75.58 22.395-39.914 22.396L6.253 34.79z" fill="#fff"/></svg>