<svg xmlns="http://www.w3.org/2000/svg" xmlns:xlink="http://www.w3.org/1999/xlink" width="128" height="128"><defs><linearGradient id="b"><stop offset="0" stop-color="#4d4d4d"/><stop offset="1" stop-color="#141414"/></linearGradient><linearGradient id="a"><stop offset="0" stop-color="#343434"/><stop offset="1" stop-color="#141414"/></linearGradient><clipPath id="c"><circle r="27.5" cy="92.5" cx="124" fill="#090909" stroke-width="11.512" stroke-linecap="round"/></clipPath><clipPath id="d"><path d="M64 21c-3.897 0-5.86 4.676-5.96 4.92A38.569 38.569 0 0 0 25.431 64a38.569 38.569 0 0 0 32.595 38.057C58.1 102.232 60.073 107 64 107c3.897 0 5.86-4.676 5.96-4.92A38.569 38.569 0 0 0 102.569 64a38.569 38.569 0 0 0-32.595-38.057C69.9 25.768 67.927 21 64 21z" fill="#373737" stroke-width="11.135" stroke-linecap="round"/></clipPath><clipPath id="f"><circle cx="128" cy="114.393" r="26.393" fill-opacity=".995" stroke-width="4.717" stroke-linecap="round" stroke-opacity=".51"/></clipPath><radialGradient xlink:href="#a" id="g" cx="128" cy="114.393" fx="128" fy="114.393" r="26.393" gradientUnits="userSpaceOnUse"/><linearGradient xlink:href="#b" id="e" gradientUnits="userSpaceOnUse" x1="33.623" y1="44" x2="93.623" y2="84"/></defs><path d="M36.873 55s-1.496 5-7 6c-5 1-17-3-20-2 0 0-4 1-4 5s4 5 4 5c3 1 15-3 20-2 5.504 1 7 6 7 6 .005-4.937-.058-13 0-18zm-22.496 7c2 0 9 1.147 9 2s-7 2-9 2-5 0-5-2 3-2 5-2z"/><path d="M107.377 48c3 16 3 16 0 32l14-8c1-5 1-11 0-16zm6 9l5 2c.492 5 .492 5 0 10l-5 2c.558-7 .536-7 0-14z" fill-opacity=".995"/><path d="M64 21c-3.897 0-5.86 4.676-5.96 4.92A38.569 38.569 0 0 0 25.431 64a38.569 38.569 0 0 0 32.595 38.057C58.1 102.232 60.073 107 64 107c3.897 0 5.86-4.676 5.96-4.92A38.569 38.569 0 0 0 102.569 64a38.569 38.569 0 0 0-32.595-38.057C69.9 25.768 67.927 21 64 21z" clip-path="url(#d)" transform="translate(10.377)" fill="url(#e)" stroke="#000" stroke-width="9" stroke-linecap="round"/><circle r="26.393" cy="114.393" cx="128" clip-path="url(#f)" transform="translate(-53.623 -50.393)" fill="url(#g)" stroke="#030303" stroke-width="3" stroke-linecap="round"/></svg>