<svg xmlns="http://www.w3.org/2000/svg" width="128" height="128"><defs><linearGradient id="a"><stop offset="0" stop-color="#4d4d4d"/><stop offset="1" stop-color="#141414"/></linearGradient><linearGradient id="b"><stop offset="0" stop-color="#343434"/><stop offset="1" stop-color="#141414"/></linearGradient></defs><path d="M74.15 114l-2.9 7.25c-7.25.713-7.25.713-14.5 0l-2.9-7.25c10.15 2 10.15 2 20.3 0z" fill="#fff"/><g fill="#fff"><path d="M76.5 43.654s-5.625-2.564-6.75-8.756C68.625 29.274 74 20 72 14s-4-8-8-8.028C60 6 58 8 56 14s3.375 15.274 2.25 20.898c-1.125 6.192-6.75 8.756-6.75 8.756 5.554.006 19.375-.065 25 0zm-7.875-26.187c0 2.25-3.665 15.157-4.625 15.157s-4.625-12.908-4.625-15.157c0-2.25 2.375-6.98 4.625-6.98s4.625 4.73 4.625 6.98z" stroke="#fff" stroke-width="1.68736"/><path d="M63.964 40.391a35.156 35.156 0 0 0-35.158 35.156 35.156 35.156 0 0 0 3.317 14.814 16.11 16.084 0 0 1 6.937-1.583 16.11 16.084 0 0 1 16.11 16.081 16.11 16.084 0 0 1-.655 4.515 35.156 35.156 0 0 0 9.45 1.328 35.156 35.156 0 0 0 9.443-1.328 16.11 16.084 0 0 1-.656-4.515 16.11 16.084 0 0 1 16.11-16.08 16.11 16.084 0 0 1 6.938 1.587 35.156 35.156 0 0 0 3.32-14.82 35.156 35.156 0 0 0-35.156-35.155z"/><path d="M49.389 107.786a13.184 13.16 0 0 1-13.184 13.157 13.184 13.16 0 0 1-13.184-13.16 13.184 13.16 0 0 1 13.184-13.157 13.184 13.16 0 0 1 13.184 13.157zm55.59 0a13.184 13.16 0 0 1-13.184 13.157 13.184 13.16 0 0 1-13.184-13.16 13.184 13.16 0 0 1 13.184-13.157 13.184 13.16 0 0 1 13.184 13.157z"/><g transform="matrix(.84368 0 0 .84368 9.485 21.868)"><circle r="7.769" cy="64" cx="26.04"/><circle cx="103.192" cy="64" r="7.769"/></g></g></svg>