<svg xmlns="http://www.w3.org/2000/svg" width="128" height="128"><g fill="#fff"><path d="M47.38 31.936c-11.096 0-20.025 9.322-20.025 21.22 0 12.952 10.53 21.642 26.115 34.797 7.724 6.513 8.203 6.113 10.53 8.111 2.22-1.905 2.763-1.358 10.769-8.117 12.384-10.453 25.876-20.648 25.876-34.79 0-11.899-8.693-21.221-19.79-21.221-8.68 0-14.01 5.568-16.855 10.235-2.842-4.667-7.938-10.235-16.62-10.235z"/><path d="M105.247 44.15c.91 2.824 1.505 5.817 1.505 9.007 0 12.7-8.176 22.113-17.785 30.692 8.223 0 17.725-.027 16.95-.027a9.161 9.161 0 0 0 9.162-9.161c-1.383 0-8.834.027-8.039.027v-6.107h6.108a9.161 9.161 0 0 0 9.16-9.162h-9.16v-6.107h6.77a6.107 6.107 0 0 0 6.108-6.108v-3.053h-20.78zm-83.999 9.007c0-3.19.6-6.183 1.52-9.006H1.975v3.053a6.107 6.107 0 0 0 6.107 6.108h6.77v6.107h-9.16a9.161 9.161 0 0 0 9.16 9.161h6.108v6.108h-8.066c0 4.986 4.175 9.161 9.161 9.161h17.296c-10.87-9.727-18.103-18.411-18.103-30.692z"/></g></svg>