<svg xmlns="http://www.w3.org/2000/svg" width="128" height="128"><path d="M117.318 36.485A60 60 0 0 0 94 12.04a60 60 0 0 0-28.584-8.021 60 60 0 0 0-53.377 29.983 60 60 0 0 0 21.962 81.96A60 60 0 0 0 115.961 94a60 60 0 0 0 1.357-57.515zm-6.552.515a15 15 0 0 1-5.49 20.49A15 15 0 0 1 84.785 52a15 15 0 0 1 5.49-20.49 15 15 0 0 1 7.145-2.006A15 15 0 0 1 110.766 37zm-.18 38.696a15 15 0 0 1 .18 15.304 15 15 0 0 1-20.49 5.49A15 15 0 0 1 84.786 76a15 15 0 0 1 12.28-7.482 15 15 0 0 1 8.21 1.992 15 15 0 0 1 5.31 5.186zm-33.964-58.8A15 15 0 0 1 79 25a15 15 0 0 1-15 15 15 15 0 0 1-15-15 15 15 0 0 1 1.836-7.192A15 15 0 0 1 64 10a15 15 0 0 1 12.622 6.896zm-3.936 42.09a10.029 10.029 0 0 1-3.67 13.7 10.029 10.029 0 0 1-13.701-3.671 10.029 10.029 0 0 1 3.67-13.7 10.029 10.029 0 0 1 13.701 3.67zm-29.65-22.29A15 15 0 0 1 43.216 52a15 15 0 0 1-20.49 5.49A15 15 0 0 1 17.234 37a15 15 0 0 1 12.284-7.482 15 15 0 0 1 8.206 1.991 15 15 0 0 1 5.31 5.186zm33.585 58.2a15 15 0 0 1 2.38 8.104 15 15 0 0 1-15 15 15 15 0 0 1-15-15 15 15 0 0 1 1.835-7.192 15 15 0 0 1 13.165-7.807 15 15 0 0 1 12.62 6.894zM43.216 76a15 15 0 0 1-5.49 20.49A15 15 0 0 1 17.235 91a15 15 0 0 1-.339-14.378 15 15 0 0 1 5.829-6.112 15 15 0 0 1 7.145-2.006A15 15 0 0 1 43.216 76z" fill="#fff"/><circle cx="87.426" cy="-62.412" r="10.058" transform="rotate(60)" fill="#fff"/></svg>