<svg xmlns="http://www.w3.org/2000/svg" width="128" height="128"><g fill="#fff"><path d="M46.217 8.409a30.72 30.72 0 0 0-30.72 30.72 30.72 30.72 0 0 0 2.898 12.944 14.078 14.054 0 0 1 6.062-1.384 14.078 14.054 0 0 1 14.077 14.054 14.078 14.054 0 0 1-.573 3.943 30.72 30.72 0 0 0 8.255 1.163 30.72 30.72 0 0 0 8.253-1.161 14.078 14.054 0 0 1-.572-3.945A14.078 14.054 0 0 1 67.975 50.69a14.078 14.054 0 0 1 6.061 1.389 30.72 30.72 0 0 0 2.9-12.949 30.72 30.72 0 0 0-30.72-30.72z"/><path d="M33.482 67.3c-.001 6.35-5.158 11.496-11.52 11.497-6.362 0-11.52-5.149-11.52-11.5.001-6.349 5.159-11.496 11.52-11.496 6.362 0 11.519 5.147 11.52 11.497zM79.36 55.31A21.39 21.39 0 0 0 57.97 76.7a21.39 21.39 0 0 0 2.018 9.012 9.803 9.786 0 0 1 4.22-.963 9.803 9.786 0 0 1 9.803 9.786 9.803 9.786 0 0 1-.399 2.745 21.39 21.39 0 0 0 5.748.81 21.39 21.39 0 0 0 5.747-.81 9.803 9.786 0 0 1-.4-2.745 9.803 9.786 0 0 1 9.803-9.786 9.803 9.786 0 0 1 4.22.967 21.39 21.39 0 0 0 2.02-9.016 21.39 21.39 0 0 0-21.39-21.39z"/><path d="M70.493 96.314c0 4.421-3.591 8.005-8.02 8.006-4.431 0-8.022-3.585-8.022-8.008 0-4.42 3.592-8.005 8.022-8.005 4.429.001 8.019 3.585 8.02 8.005zM100.966 88.248a13.071 13.071 0 0 0-13.072 13.07 13.071 13.071 0 0 0 1.233 5.509 5.99 5.98 0 0 1 2.58-.588 5.99 5.98 0 0 1 5.99 5.979 5.99 5.98 0 0 1-.244 1.678 13.071 13.071 0 0 0 3.513.494 13.071 13.071 0 0 0 3.512-.494 5.99 5.98 0 0 1-.244-1.678 5.99 5.98 0 0 1 5.99-5.98 5.99 5.98 0 0 1 2.579.591 13.071 13.071 0 0 0 1.234-5.51 13.071 13.071 0 0 0-13.07-13.071z"/><path d="M95.547 113.306a4.902 4.893 0 0 1-4.902 4.892 4.902 4.893 0 0 1-4.902-4.893 4.902 4.893 0 0 1 4.902-4.892 4.902 4.893 0 0 1 4.902 4.892zm20.669 0a4.902 4.893 0 0 1-4.902 4.892 4.902 4.893 0 0 1-4.902-4.893 4.902 4.893 0 0 1 4.902-4.892 4.902 4.893 0 0 1 4.902 4.892z"/></g></svg>