<svg xmlns="http://www.w3.org/2000/svg" width="128" height="128"><g fill="#fff"><path d="M23.104 37.53c3.424 7.964 9.205 15.841 17.293 19.236.923.385 1.972.674 3.049.914 2.154-3.212 4.626-5.819 7.521-7.954a37.79 37.79 0 0 1 7.78-4.386 21.954 21.954 0 0 0-2.423-1.471c-3.366-1.76-7.011-3.309-10.56-4.973 3.337.904 7.165 1.241 10.358 2.405 1.991.73 3.828 1.74 5.54 2.943 5.107-1.74 10.445-2.578 15.773-3.212-4.318-7.175-13.532-12.936-20.476-15.543-7.252-2.722-15.466-3.058-23.535-3.895-4.943-.51-10.32-2.356-14.253-4.51-.895-.491-1.847.326-1.54 1.317 1.934 6.184 2.915 13.186 5.473 19.13z"/><path d="M108.366 36.588c-9.099 4.944-19.534 5.55-29.757 6.723-4.992.577-9.936 1.289-14.639 2.712-1.02.308-2.039.654-3.039 1.039-2.972 1.135-5.838 2.626-8.54 4.616-2.54 1.866-4.617 4.078-6.367 6.512-2.79 3.885-4.732 8.357-6.329 13.003-2.914 8.435-4.251 17.398-3.991 26.314.105 3.616.163 7.377 1.058 10.907.202.779.394 1.77 1 2.346.789.76 2.202-.02 1.885-1.125-2.29-7.8-.866-16.918 2.299-24.371 3.635-8.57 10.656-13.667 19.235-16.774 2.28-.827 4.607-1.548 6.973-2.231.048-.02.096-.02.144-.02.472 0 .673.693.183.914-2.79 1.26-5.56 2.53-8.194 3.905-12.907 6.733-18.543 22.41-13.706 22.41.395 0 .856-.106 1.385-.327 7.464-3.088 16.331-3.116 24.535-4.636 2.885-.529 5.694-1.25 8.33-2.347 10.463-4.366 17.946-12.907 22.399-23.179 3.318-7.665 4.607-16.715 7.117-24.679.327-1.02-.394-1.894-1.28-1.894a1.322 1.322 0 0 0-.701.182z"/></g></svg>