<svg xmlns="http://www.w3.org/2000/svg" width="128" height="128"><path d="M61.456.68v6.562C32.128 8.539 8.539 32.128 7.242 61.456H.68v5.088h6.56c1.298 29.328 24.887 52.917 54.215 54.214v6.561h5.088v-6.56c29.328-1.298 52.917-24.887 54.214-54.215h6.561v-5.088h-6.56C119.46 32.128 95.871 8.539 66.543 7.242V.68zm0 11.653v4.113h5.088v-4.113c26.572 1.283 47.84 22.551 49.123 49.123h-5.61v5.088h5.61c-1.283 26.572-22.551 47.84-49.123 49.123v-4.413h-5.088v4.413c-26.572-1.283-47.84-22.551-49.123-49.123h5.11v-5.088h-5.11c1.283-26.572 22.551-47.84 49.123-49.123z" fill="#fff"/><text style="line-height:1.25;-inkscape-font-specification:Arial" x="20.49" y="90.311" font-weight="400" font-size="39.9" font-family="Arial" letter-spacing="0" word-spacing="0" fill="#fff" stroke-width=".997"><tspan x="20.49" y="90.311" style="-inkscape-font-specification:Arial" font-size="74.479" letter-spacing="-4.987">15</tspan></text></svg>