<svg xmlns="http://www.w3.org/2000/svg" width="128" height="128"><path d="M61.46.773v6.551C32.175 8.62 8.62 32.174 7.324 61.46H.773v5.08h6.551c1.296 29.285 24.85 52.84 54.136 54.136v6.551h5.08v-6.551c29.285-1.296 52.84-24.85 54.136-54.136h6.551v-5.08h-6.551C119.38 32.175 95.826 8.62 66.54 7.324V.773zm0 11.636v4.106h5.08V12.41c26.533 1.28 47.77 22.518 49.051 49.05h-5.6v5.081h5.6c-1.28 26.533-22.518 47.77-49.05 49.051v-4.405H61.46v4.405c-26.533-1.28-47.77-22.518-49.051-49.05h5.102V61.46H12.41c1.28-26.533 22.518-47.77 49.05-49.051z" fill="#fff"/><text style="line-height:1.25;-inkscape-font-specification:Arial" x="43.446" y="90.273" font-weight="400" font-size="39.841" font-family="Arial" letter-spacing="0" word-spacing="0" fill="#fff" stroke-width=".996"><tspan x="43.446" y="90.273" style="-inkscape-font-specification:Arial" font-size="74.371">8</tspan></text></svg>