<svg xmlns="http://www.w3.org/2000/svg" width="128" height="128"><path d="M13.828 109.608l1.389 1.39-2.778 2.777 5.093 4.167 36.574-39.815L77.022 55.21l1.39-2.314-.232-.232-3.241-3.24-1.156-1.16L51.79 70.258l-.926-.926-1.852-1.852-35.417 35.417z" fill="#fff" stroke="#323232" stroke-width="2.785"/><path d="M42.472 95.84c18.025 13.457 38.44 8.983 38.44 8.983l-.036-.736.918-.18-2.096-9.702s-17.42 2.81-29.627-6.468z" fill="#fff" stroke="#323232" stroke-width="2.786"/><path d="M40.911 103.821l2.001-1.451 1.42 2.252.514-1.032-1.389-2.315-1.482-1.697-2.546-2.547-2.52 2.789z" fill="#323232" fill-opacity=".984"/><path d="M79.36 84.204c.322.542-.463 1.033-.463 1.033l-5.166 2.16c-.455.11-1.205-.94-1.205-.94L66.22 74.42c-.744-.944-2.071-.893-2.071-.893l-.232-.231 6.482-6.482 1.389 1.389c.887.977-.69 1.586-.262 2.979l6.47 12.582c.705.643 1.09.18 1.365.44z" fill="#fff" stroke="#323232" stroke-width="2.786"/><path d="M78.972 62.763s.22-.221-.01-.474c-3.947 1.436-4.741-2.888-4.741-2.888l-2.546 2.546c1.53.793 2.546.231 2.546.231s2.782 2.084 4.751.585z" fill="#323232" fill-opacity=".984"/><path d="M78.18 55.442l3.472 3.472c1.177 1.554.463 2.778.463 2.778l-5.116 5.116s-1.299.851-3.01-.231l-3.472-3.473" fill="none" stroke="#323232" stroke-width="1.309" stroke-opacity=".984"/><path d="M80.957 58.22l1.62-1.62-3.24-3.241-.694.694.694.695c1.157 1.157.106 1.957.106 1.957z" fill="#323232"/><path d="M51.56 64.47l3.009 3.009 14.814-14.815-3.009-3.009c-.463-.463-.926 0-.926 0L51.56 63.544s-.463.463 0 .926z" fill="#fff" stroke="#323232" stroke-width="2.786"/><path d="M39.522 61.692L42.3 64.47l1.62.231 2.315 2.315.463-.463-2.315-2.315s-1.867-2.299.463-4.63l15.741-15.74c4.269-4.08 7.407-.463 7.407-.463l3.298 3.298-2.315 2.315.406.405 2.084-2.083 1.389 1.389.694-.694-5.093-5.093-4.86-4.861s-.515.122-.695.694c0 0 .778 2.533-1.852 4.63L39.754 60.998c-.522.41-.232.694-.232.694z" fill="#323232" stroke="#323232" stroke-width="2.786"/><path d="M39.754 66.09h.463l.463-.463-.463-.463.926-.926-2.315-2.315-.926.926-.463-.463-.463.463v.463z" fill="#323232"/><path d="M38.44 75.118l6.25-6.25-1.978-1.978-1.157.232-1.248 4.308-2.778 2.778zM51.79 69.33l1.621-1.62-2.523-2.522-1.62 1.62z" fill="#323232" fill-opacity=".984"/><path d="M38.269 89.57l-4.97 3.166-.46 1.118-6.343 4.057-.805 2.73-3.67 2.645a1.823 1.823 0 1 0 2.276 2.67L39.213 91.08z" fill="#7e7e7e"/><path d="M34.633 93.885L24.709 102l-2.455 1.485a1.554 1.554 0 0 0-.254.127 1.554 1.554 0 0 0-.49 2.142 1.554 1.554 0 0 0 2.141.49 1.554 1.554 0 0 0 .441-.419L35.303 94.5c.24-.446.025-.865-.67-.614z" fill="#323232"/><circle r="1.172" cy="89.733" cx="-25.085" transform="rotate(-45)" fill="#323232"/><circle cx="-21.281" cy="89.733" r="1.172" transform="rotate(-45)" fill="#323232"/><path d="M12.733 102.511l-7.093 6.026s-.534-.408-.91-.157l-1.546 1.546s-.228.338.039.714l18.526 15.482s.746.29 1.13.079l1.457-1.414c.078-.11.01-.368.01-.368l-1.569-1.192 2.073-2.325s.172-.382.106-.715l-1.76-4.08s-.039-.252-.305-.54l-1.306-1.129-3.861 3.798-5.399-4.582.973-.973-3.672-3.108c-.973-1.036 0-2.009 0-2.009l4.08-3.892z" fill="#323232"/><circle r="1.465" cy="72.346" cx="-13.257" transform="rotate(-45)" fill="#7e7e7e"/><path d="M54.828 76.997l-4.932-4.932 2.315-2.314" fill="none" stroke="#323232" stroke-width="2.786"/><path d="M77.08 41.228v1.118l.56.559-2.236 2.235 1.118 1.118-.56.56 3.914 3.912.559-.559 1.118 1.118 2.236-2.236.576.577 1.1-.018 12.54-12.54.335-1.452-.577-.576 26.585-26.55-.56-.559 1.119-1.118-5.096-5.095-1.118 1.118-.494-.495-26.567 26.567-.56-.559-1.451.335z" fill="#323232"/></svg>