<svg xmlns="http://www.w3.org/2000/svg" width="128" height="128"><ellipse cx="367.166" cy="-278.414" fill="#7e7e7e"/><g transform="rotate(-45 64 64)"><path d="M93.587 61.312h34.23l.152.543h15.026c.406-1.085.406-2.44 0-3.661h-15.026l-.153.543h-34.23zm44.04-1.627h3.35c.315 0 .423.407.423.407s-.108.407-.423.407h-3.35c-.315 0-.478-.407-.478-.407s.23-.603.478-.407z" fill="#323232"/><path d="M-6.322 56.448s-4.612-.09-4.251 1.063c3.278 6.124 2.657 17.005 2.657 17.005.432.829 1.594 0 1.594 0l5.846-3.72 22.851-2.125v5.314l10.804-1.063.018-5.068 11.498-.778v-2.564h14.349v1.501h3.113v-9.565z" fill="#fff" stroke="#323232" stroke-width="2.587"/><path d="M51.072 86.74l-5.314-1.595c-1.405-.36-1.063-1.594-1.063-1.594l3.189-7.972s4.132-5.243 0-7.118v-.853h7.971v4.251s-1.063 1.063-1.594 2.126l-3.72 10.628c.265 1.83 2.292 2.016.531 2.126z" fill="#fff" stroke="#323232" stroke-width="2.587"/><path d="M87.47 54.728V44.225s.086-.519.532-.532h1.333c.293.013.532.532.532.532.866 1.376 1.063 2.657 1.063 2.657v7.846zM29.284 55.916h4.251v-2.125c-2.114-.434-2.307-3.484-1.594-4.783.573-.637 6.573-1.79 6.573-1.79l12.223.711c1.153.054.865.973.865.973l-.876 4.042c-.217.937-.856.847-.856.847H33.004v2.657h18.6l1.594-1.063v-.863l-.897-.003 1.158-6.043s.017-1.692-1.855-2.125L35.13 45.288s-1.122-1.977-3.72-1.595c-.54.127-1.595.532-2.126 2.658zM59.044 70.265s.572 1.561 1.31 2.444l2.941-.318s.213-.392-.138-.609c0 0-1.942.563-2.519-3.111h1.063v-1.595h-3.945v1.595h1.63s.018.837-.342 1.062z" fill="#323232"/><path d="M60.98 68.14c2.126-.74 3.9.044 4.441.53 2.828 2.793.504 4.973 0 5.315-3.243 1.981-6.566-.288-6.566-.288l-3.342-2.37" fill="none" stroke="#323232" stroke-width=".776"/><path d="M65.346 66.013h1.916l1.804 1.595h20.8s.44 1.556 1.064 1.594h1.062V59.105H90.93v-2.657H87.74v2.657H65.346z" fill="#fff" stroke="#323232" stroke-width="2.587"/><path d="M67.547 54.853l-1.595 4.252h18.636v-4.252z" fill="#fff" stroke="#323232" stroke-width="2.587"/><path d="M93.587 59.834v6.71h44.908v-.53h1.594v-2.658h-1.594v-.531h-2.657zm2.223 3.63a1.119 1.119 0 1 1 0 2.237 1.119 1.119 0 0 1 0-2.238zm3.74 0a1.119 1.119 0 1 1 0 2.237 1.119 1.119 0 0 1 0-2.238zm3.74 0a1.119 1.119 0 1 1 0 2.237 1.119 1.119 0 0 1 0-2.238zm3.74 0a1.119 1.119 0 1 1 0 2.237 1.119 1.119 0 0 1 0-2.238zm3.74 0a1.119 1.119 0 1 1 0 2.237 1.119 1.119 0 0 1 0-2.238zm3.74 0a1.119 1.119 0 1 1 0 2.237 1.119 1.119 0 0 1 0-2.238zm3.74 0a1.119 1.119 0 1 1 0 2.237 1.119 1.119 0 0 1 0-2.238zm3.74 0a1.119 1.119 0 1 1 0 2.237 1.119 1.119 0 0 1 0-2.238zm3.74 0a1.119 1.119 0 1 1 0 2.237 1.119 1.119 0 0 1 0-2.238zM103.358 73.058h2.459l1.23-2.05.82 1.23h9.836v-1.23h9.365l.82.41h2.05l.41.41h4.508v-.82h.82v1.64h2.869s2.25-2.05 0-4.509h-2.87v.82h-.82v-.82h-4.508l-.41.41h-2.049l-.82.41h-9.365v-1.23h-9.017l.514-.653h-5.842z" fill="#323232"/><path d="M136.177 66.013h1.594v2.658h-1.594z" fill="#323232"/><circle r="1.15" cx="88.863" cy="63.801" fill="#323232"/><rect width="3.256" height="1.063" x="37.941" y="58.573" rx=".484" ry=".531" fill="#323232"/><rect ry=".531" rx=".484" y="58.573" x="42.502" height="1.063" width="3.256" fill="#323232"/><rect ry=".531" rx=".484" y="58.573" x="47.352" height="1.063" width="3.256" fill="#323232"/><rect width="2.377" height="1.063" x="52.784" y="58.573" rx=".531" ry=".531" fill="#323232"/><rect ry=".531" rx=".531" y="58.573" x="56.387" height="1.063" width="2.377" fill="#323232"/><path d="M-5.867 75.324l1.374 2.942c.151.847-.531 1.171-.943.642l-1.602-3.437z" fill="#323232" stroke="#323232" stroke-width=".636"/><path d="M32.71 76.45s.265 3.26.823 5.79c.657 2.98 3.235 10.191 3.235 10.191.018.116-.617.49-.617.49l-7.468 2.251s-.594.018-.622-.08c0 0-3.35-8.317-3.977-12.304-.314-1.987-.571-5.342-.571-5.342z" fill="#fff" stroke="#323232" stroke-width="2.587"/><path d="M11.15 72.763l.062.639-1.451.459c-1.007.631-.904 1.69-.904 1.69 1.74 6.124 1.337 10.243 1.226 12.64L6.91 88.5c-.683-2.361-1.547-6.127-1.227-12.64 0 0-.103-1.059-1.212-1.485l-1.304-.192-.063-.638z" fill="#fff" stroke="#323232" stroke-width="2.5869525600000003"/></g></svg>