<svg xmlns="http://www.w3.org/2000/svg" width="128" height="128"><path d="M4.597 41.613V94.72l74.4 20.638V62.252zm9.414 14.918a8.135 8.135 0 0 1 2.404.32c1.737.485 3.281 1.432 4.637 2.84 1.355 1.41 2.408 3.185 3.156 5.329.748 2.129 1.123 4.422 1.123 6.878v2.182c0 5.253-1.159 9.039-3.475 11.358-2.301 2.308-5.568 2.9-9.804 1.775l-.616-.172v-5.168l.403.113c2.344.64 4.103.522 5.275-.351 1.186-.87 1.899-2.42 2.139-4.654-1.27.944-2.661 1.204-4.172.783-2.344-.654-4.195-2.11-5.55-4.366-1.342-2.266-2.013-4.972-2.013-8.12 0-2.034.383-3.785 1.145-5.253.762-1.481 1.82-2.499 3.176-3.052a6.228 6.228 0 0 1 2.172-.442zm1.746 5.221c-.585.051-1.08.45-1.483 1.195-.522.984-.783 2.294-.783 3.932 0 1.779.276 3.26.826 4.445.551 1.17 1.313 1.892 2.287 2.164 1.158.323 2.07-.213 2.733-1.61v-2.753c0-2.019-.276-3.677-.826-4.975-.551-1.311-1.264-2.09-2.139-2.334a1.72 1.72 0 0 0-.615-.064zM27.94 72.625l4.58 1.277.14 1.768c1.094-1.077 2.54-1.365 4.337-.863 1.867.52 3.187 1.729 3.959 3.627 1.072-1.384 2.598-1.798 4.58-1.245 3.273.914 4.95 3.644 5.031 8.196V97.64l-4.892-1.366V84.332c0-1.083-.15-1.897-.45-2.441-.3-.545-.807-.918-1.521-1.118-.91-.254-1.59.116-2.039 1.108l.033.598v12.687l-4.89-1.363v-11.91c0-1.072-.144-1.885-.432-2.438-.288-.564-.802-.948-1.54-1.154-.84-.235-1.51.032-2.005.805v13.587l-4.89-1.365zm24.862 6.936l4.58 1.279.138 1.767c1.095-1.077 2.54-1.366 4.338-.865 1.867.521 3.187 1.731 3.96 3.63 1.071-1.384 2.597-1.8 4.58-1.247 3.272.913 4.95 3.646 5.03 8.197v12.256l-4.892-1.365V91.268c0-1.084-.15-1.897-.45-2.442-.299-.544-.806-.916-1.52-1.115-.911-.254-1.59.115-2.04 1.107l.033.598v12.688l-4.89-1.366v-11.91c0-1.072-.144-1.883-.432-2.435-.288-.565-.801-.95-1.539-1.157-.841-.234-1.51.035-2.006.807v13.586l-4.89-1.365zM46.168 12.395L6.254 34.789l75.578 22.397 39.914-22.397-75.578-22.394zm12.145 13.05l5.136 1.526-7.24 4.13 5.422 1.612-4.881 2.785-5.424-1.61-7.555 4.311-5.136-1.525 7.554-4.31-5.517-1.64 4.88-2.787 5.52 1.64 7.24-4.132zm18.763 1.547l9.506 2.822c2.76.82 4.13 1.946 4.107 3.377-.01 1.436-1.342 2.91-3.99 4.42-2.648 1.511-5.55 2.464-8.707 2.858-3.157.394-6.174.164-9.049-.69l-3.757-1.115-9.502 5.422-5.633-1.674 27.025-15.42zm1.086 4.268l-8.426 4.808 3.871 1.149c1.074.318 2.246.372 3.514.158 1.268-.214 2.55-.69 3.85-1.432 1.349-.77 2.119-1.471 2.31-2.101.204-.637-.192-1.11-1.19-1.416l-3.929-1.166zm45.24 9.898l-38.545 20.96v53.487l38.545-20.96V41.158zm-7.6 13.436c.039 0 .075.01.108.033v.002c1.983 1.345 3.166 4.56 3.166 8.603v.616c0 .34-.168.708-.377.822l-6.03 3.295c-.208.114-.38-.07-.38-.41v-.618c0-4.043 1.187-8.552 3.17-12.062.1-.178.23-.28.344-.281zm-11.53 6.248a.19.19 0 0 1 .109.033c1.983 1.345 3.166 4.561 3.166 8.605v.616c0 .34-.167.708-.375.822l-6.035 3.293c-.208.114-.376-.068-.377-.408v-.617c0-4.044 1.185-8.555 3.168-12.065.1-.178.228-.278.343-.28zm14.953 5.605c.136.02.23.189.23.444v17.318c0 .34-.44.856-.648.97v1.753c.208-.114.648-.08.648.26v2.458c0 .34-.17.709-.379.823l-6.787 3.705c-.208.114-.375-.07-.375-.41v-2.46c0-.34.44-.854.648-.968v-1.752c-.207.114-.648.076-.648-.264V71.006c0-.34.167-.706.375-.82l6.787-3.704a.245.245 0 0 1 .149-.035zm-26.485.55a.19.19 0 0 1 .11.032v-.002c1.983 1.346 3.168 4.567 3.168 8.612v.613c0 .34-.17.706-.377.82l-6.034 3.293c-.208.114-.377-.07-.377-.41v-.613c0-4.045 1.183-8.557 3.166-12.067.101-.177.23-.278.344-.279zm14.953 5.7c.136.02.23.187.23.442v17.318c0 .34-.438.855-.646.969v1.752c.208-.114.647-.08.647.26v2.46c0 .34-.168.709-.377.823l-6.787 3.705c-.208.114-.375-.07-.375-.41v-2.461c0-.34.438-.853.646-.967v-1.754c-.208.114-.646.078-.646-.262V77.254c0-.34.167-.706.375-.82l6.787-3.705a.236.236 0 0 1 .146-.032zm-11.529 6.155c.136.02.23.186.23.441v17.318c0 .34-.44.855-.65.97v1.751c.21-.114.65-.077.65.264v2.459c0 .34-.167.706-.376.82l-6.788 3.707c-.209.113-.378-.072-.378-.412v-2.46c0-.34.441-.856.65-.97v-1.752c-.209.114-.65.08-.65-.26V83.41c0-.34.17-.708.378-.822l6.788-3.705a.232.232 0 0 1 .146-.031z" fill="#fff"/></svg>