<svg xmlns="http://www.w3.org/2000/svg" width="128" height="128"><g transform="translate(1.614 -3.285)"><path d="M44.646 92.583c1.325.742 1.616.286 2.708-.836l1.853-1.848s1.551.347 2.341.366c1.02.024 1.517-.522 2.481-.04 1.247.623 1.464 1.981 1.464 1.981l.88 8.886 7.079-3.372-1.243-1.413-2.41-9.76-1.823-1.922-2.24-2.206 6.755-6.782s.605-1.414.631-1.764c.023-.302-.227-.911-.227-.911L73.278 62.55l2.906 2.905c.433.35 1.059.12 1.059.12l6.43-6.428 6.775-7.35.904-.247.963-.954-3.428-3.403.957-.944s-.733-1.83.637-3.2 3.253-.69 3.253-.69l1.535-1.549-4.101-4.148c-.639-.31-1.716-.41-1.716-.41l.68-.667-2.42-2.42L69.52 51.278l1.854 1.86-2.551 2.475-2.788-2.794-27.66 27.663-3.617 6.327zm-10.449 18.346s.95.64.498 1.644L22.481 124.77s-1.348-.149-1.84-.641l-11.979-12.08 10.456-8.137s3.247.66 4.982-.377c1.545-.923 8.328-10.88 8.328-10.88l.909-2.81 8.535 5.04-4.14 4.108-6.172 8.841s-.769 1.467-.12 2.287c.934 1.168 2.233.518 2.757.809z" fill="#fff" stroke="#323232" stroke-width="2.5" stroke-opacity=".99"/><path d="M66.384 74.715l5.82-5.82c.662-.661 1.807.241 1.807.241L87.9 83.006c.371.372.087 1.025.087 1.025l-6.35 6.34s-.656.327-1.058-.054L66.708 76.44s-.934-1.115-.324-1.725z" fill="#fbfbfb" stroke="#323232" stroke-width="2.5"/><path d="M37.773 72.74s-.634.89-.69 1.402c-.054.5.369 1.408.369 1.408l1.736 1.695 6.792-6.792-1.543-1.535c-2.108.711-5.235 2.231-6.664 3.821zm2.296-.991a1.343 1.343 0 1 1 1.898 1.9 1.343 1.343 0 0 1-1.898-1.901z" fill="#323232"/><circle transform="rotate(-135)" r="1.612" cy="33.53" cx="-97.262" fill="none" stroke="#323232" stroke-width="1.5" stroke-linejoin="round"/><path d="M116.668 8.359l1.664 1.66-3.903 3.93-.2-.204-11.733 11.753-1.308-1.326 11.723-11.718-.191-.192z" fill="#fff" fill-opacity=".985" stroke="#323232" stroke-width="1.7"/><path d="M65.641 81.786l-4.245 4.258s-.377.223-.4.198c-.031-.035-1.256-1.253-1.256-1.253l-.03-.11s1.079.967 1.393 1.055c.247.051 4.284-4.241 4.284-4.241.393-.495.646-1.306.624-1.969l-2.94-2.932.175-.176 3.06 3.068c.08.444-.287 1.593-.666 2.103zm-7.036-.867s3.084 3.127 3.924 2.75c-.085-.069-1.378-.977-1.58-1.736-.499-1.23-.122-3.256-.122-3.256z" fill="#323232" stroke="#323232" stroke-width=".451"/><path d="M97.148 38.988l3.505-3.514.918-1.872 2.814-2.82-.305-.312 2.902-2.909-1.724-1.725-10.616 10.627z" fill="#fff" fill-opacity=".985" stroke="#323232" stroke-width="1.7"/><path d="M92.419 21.535l1.385-1.385 3.9 3.9-1.385 1.386-.638.638-1.336-2.613z" fill="#2d2d2d"/><path d="M92.93 29.795l-3.074 1.874 3.22 3.206 7.956-7.9-1.912-1.903-1.203-.28z" fill="#fff" fill-opacity=".985" stroke="#323232" stroke-width="1.7"/><path d="M69.768 50.51s-.767.328-1.048.023c-.22-.238-.05-.97-.05-.97l2.325-2.31 1.073-.537 3.594-3.594s.582-.852.662-1.337c.06-.373-.24-1.239-.24-1.239l-1.415-2.36-10.444 5.05-2.505 1.96s-1.053-.896-1.35-1.515c-.277-.58-.352-1.97-.352-1.97l2.808-.88 10.017-4.669.935 1.215 1.22-.07 1.827 3.12s.286.955.2 1.492c-.073.466-.595 1.363-.595 1.363l-3.892 3.91-.505 1.097z" fill="#fff" stroke="#323232" stroke-width="1.5" stroke-opacity=".995"/><path d="M83.537 55.057c.087.075.108.151-.012.27l-6.188 6.19c-.12.12-.232.115-.303.044-.072-.072-.076-.184.044-.304l6.175-6.175c.092-.092.188-.107.284-.025z" fill="#6a6a6a" stroke="#323232" stroke-width=".586"/><path d="M86.948 48.654c.088.075.11.15-.003.264l-11.14 11.14c-.113.114-.223.107-.295.035-.071-.072-.078-.182.035-.296l11.127-11.126c.088-.088.187-.107.277-.017zm-1.493-1.449c.088.075.11.15-.003.264l-11.11 11.11c-.113.113-.222.106-.294.034-.072-.072-.079-.182.035-.295l11.095-11.096c.088-.088.187-.106.277-.017z" fill="#6a6a6a" stroke="#323232" stroke-width=".573"/><path d="M85.704 43.711c.087.075.108.15-.011.27L72.676 56.999c-.12.12-.232.116-.303.044-.072-.071-.075-.183.044-.303L85.42 43.736c.092-.092.194-.114.284-.025z" fill="#6a6a6a" stroke="#323232" stroke-width=".586"/><path fill="#323232" d="M44.758 91.614l11.73-11.729 1.61 1.61-11.73 11.73z"/><path d="M58.793 69.544c.34.323.502.559.34.72L42.701 86.696c-.163.162-.472-.002-.766-.295-.292-.293-.456-.603-.294-.766l16.412-16.411c.124-.125.365-.036.739.32z" fill="#fefefe" stroke="#323232" stroke-width="1.113"/><path d="M68.28 60.093c.186.18.292.81.114.987l-9.198 9.198c-.178.178-.698.103-.94-.138-.24-.24-2.013-1.85-1.835-2.028l.958-.94.882.88c.378.199.765-.104.765-.104l8.098-8.098c.258-.116.951.044 1.156.243z" fill="#fbfbfb" stroke="#323232"/><path d="M5.974 112.524s-.19-1.055-.002-1.52c.121-.298.454-.643.827-.541l.708.708 14.806 14.807-.67.67s-.883.508-1.824.11L9.124 116.063s-2.13.533-3.076-.432c-.432-.441-.285-1.581-.285-1.581z" fill="#323232" stroke="#323232"/></g></svg>