<svg xmlns="http://www.w3.org/2000/svg" width="128" height="128"><path d="M63.973 33.703c-14.999-.001-27.16 12.158-27.16 27.156.01 3.957.885 7.863 2.562 11.446a12.46 12.46 0 0 1 5.36-1.223c6.872 0 12.444 5.561 12.445 12.422a12.406 12.406 0 0 1-.506 3.486 27.158 27.158 0 0 0 7.299 1.028 27.13 27.13 0 0 0 7.297-1.028 12.407 12.407 0 0 1-.508-3.486c0-6.862 5.572-12.424 12.445-12.424a12.48 12.48 0 0 1 5.36 1.229 27.153 27.153 0 0 0 2.562-11.448c0-14.997-12.159-27.157-27.156-27.158zm.027 9.34L67.67 54l11.555.104-9.287 6.875L73.407 72 64 65.295l-9.41 6.707 3.472-11.022-9.287-6.876 11.555-.106L64 43.043z" fill="#fff"/><path d="M52.713 85.765A10.185 10.166 0 0 1 42.53 95.93a10.185 10.166 0 0 1-10.185-10.166 10.185 10.166 0 0 1 10.185-10.164 10.185 10.166 0 0 1 10.184 10.164zm42.943 0A10.185 10.166 0 0 1 85.471 95.93a10.185 10.166 0 0 1-10.184-10.166A10.185 10.166 0 0 1 85.47 75.599a10.185 10.166 0 0 1 10.185 10.164z" fill="#fff"/><g stroke="#fff" stroke-width="3.002" fill="#fff" stroke-linecap="round"><path d="M3.692 64l15.077-15.077 3.77 3.77L7.46 67.768z" stroke-width="2.00029264"/><path d="M7.461 60.23l15.077 15.078-3.769 3.769L3.692 64zM64 124.308l-15.077-15.077 3.77-3.77 15.076 15.078z" stroke-width="2.00029264"/><path d="M60.23 120.539l15.078-15.077 3.769 3.769L64 124.308z" stroke-width="2.00029264"/><g><path d="M64 3.692l15.077 15.077-3.77 3.77L60.232 7.46z" stroke-width="2.00029264"/><path d="M67.77 7.461L52.691 22.538l-3.769-3.769L64 3.692zM124.308 64l-15.077 15.077-3.77-3.77 15.078-15.076z" stroke-width="2.00029264"/><path d="M120.539 67.77l-15.077-15.078 3.769-3.769L124.308 64z" stroke-width="2.00029264"/></g></g></svg>