<svg xmlns="http://www.w3.org/2000/svg" width="128" height="128"><path d="M201.68 78.48l5.945 12.367 17.257-22.53-6.712-11.123-8.82 11.601-7.191 4.794z" fill="#fff"/><g transform="rotate(-30 15.075 -91.67) scale(.13896)"><path d="M-504.623 419.797c-75.685 97.608-89.44 156.61-69.986 246.023l142.954.064s-5.463-117.098 52.4-190.087c-14.332-40.168-60.74-76.947-79.752-82.528-5.442-1.597-26.165 26.528-26.165 26.528s-10.573-1.38-19.451 0zm56.413-117.824c-2.154 30.095-19.28 64.618-19.28 64.618l8.065-1.105c11.122-1.15 66.7 18.656 104.285 91.14 23.778-11.505 75.768-2.551 75.768-2.551 16.86-47.217 48.853-54.792 48.853-54.792 5.966-2.44 16.01-3.797 16.01-3.797l169.322-.01c2.983-5.424 9.528-13.098 9.528-13.098l-.225-32.417-202.796-.054-.265-181.691-41.58.06C-290.772 268.404-361.82 305.57-448.21 301.974z" fill="#fff" stroke="#323232" stroke-width="22.238"/><path d="M-5.184 169.861l-.67 182.776c18.44-9.763 29.805-14.579 71-20.076H175.07s7.648-16.482.904-44.138h-7.092v-55.336h19.485s12.195-26.614-.55-63.224z" fill="#fff" stroke="#323232" stroke-width="20"/><path d="M-207.626 545.114s-10.27-.496-33.69-14.344c-31.553-18.88-45.778-68.703-82.112-73.177l55.411-2.171c-2.205 6.04 7.758 33.203 34.003 57.174 13.716 10.573 29.607 14.614 29.607 14.614 52.896 2.616 103.102 2.026 124.58-17.917 33.066-36.3 20.118-68.106 20.118-68.106-3.643-10.355-17.464-32.529-42.406-36.924l66.893-4.001c-3.068 8.437-4.709 31.986-4.709 31.986s-.922 32.072.84 58.763c0 0-20.143 37.102-62.106 49.143-25.878 7.426-89.599 6.407-106.429 4.96z" fill="#323232"/><path d="M-154.34 417.086c-44.441 60.584.359 81.952 13.235 91.624 3.93 4.566-2.338 9.666-4.776 8.482-.103-.05-.207-.102-.31-.155-10.368-5.23-44.491-13.538-44.314-62.741l.331-41.507-27.577-.685-2.492-6.177 70.28-2.42z" fill="#323232"/><path d="M-36.846 167.467l-30.877.006-144.409.006 1.548 153.635 173.29-.004.097-37.33h-87.163c-6.558 0-11.872-7.146-11.871-13.424 0-6.279 5.318-13.128 11.876-13.128l87.197-.003v-28.877l-87.72.004c-6.557 0-11.868-6.849-11.874-13.13 0-6.279 5.316-12.835 11.874-12.834l87.94-.003z" fill="#fff" stroke="#323232" stroke-width="20"/><path fill="#7e7e7e" stroke="#323232" stroke-width="20" d="M-1.123 233.105h165.005v42.738H-1.123z"/><path d="M-325.618 255.67c-8.215-22.664-34.146-51.453-56.1-59.39-2.44-8.406 10.2-13.055 14.611-14.206 3.797 0 31.598 7.375 60.48 46.426z" fill="#323232"/><circle cx="-497.486" cy="557.192" r="11.661" fill="#323232"/><circle r="10.848" cy="422.785" cx="-306.156" fill="#323232"/><circle cx="-416.529" cy="343.87" r="17.356" fill="#323232"/><path d="M-403.39 332.746l34.982 41.492c2.576 3.797-.134 5.559-.134 5.559l-7.578 6.912c-2.576 2.17-5.304-.133-5.304-.133l-20.068-22.78c-5.83-6.915-8.135-2.304-14.237-2.711z" fill="#323232"/><path d="M-292.068 228.61l39.322.271s10.089 3.064 11.174 13.098l.216 33.004" fill="none" stroke="#323232" stroke-width="16"/><circle cx="-116.326" cy="370.718" r="8.136" fill="#323232"/><path d="M-581.657 682.678h161.269v29.74c.406 3.932-3.329 3.822-3.329 3.822l-8.18.056s-11.574-17.46-15.642-18.546l-129.236-.345zm83.754-239.153c-28.763 35.667-82.078 117.627-58.3 202h104.545s-1.108-95.869 33.906-146.783c-32-32-80.15-55.217-80.15-55.217zm.067 97.02a16.415 16.415 0 0 1 14.604 8.203c4.533 7.851 1.843 17.89-6.008 22.424-7.851 4.533-17.89 1.843-22.424-6.008-4.533-7.851-1.843-17.89 6.008-22.424a16.415 16.415 0 0 1 7.82-2.195z" fill="#323232"/></g><g transform="matrix(.12034 -.06948 .06948 .12034 71.026 3.05)"><path d="M-504.623 419.797c-75.685 97.608-89.44 156.61-69.986 246.023l142.954.064s-5.463-117.098 52.4-190.087c-14.332-40.168-60.74-76.947-79.752-82.528-5.442-1.597-26.165 26.528-26.165 26.528s-10.573-1.38-19.451 0zm56.413-117.824c-2.154 30.095-19.28 64.618-19.28 64.618l8.065-1.105c11.122-1.15 66.7 18.656 104.285 91.14 23.778-11.505 75.768-2.551 75.768-2.551 16.86-47.217 48.853-54.792 48.853-54.792 5.966-2.44 16.01-3.797 16.01-3.797l169.322-.01c2.983-5.424 9.528-13.098 9.528-13.098l-.225-32.417-202.796-.054-.265-181.691-41.58.06C-290.772 268.404-361.82 305.57-448.21 301.974z" fill="#fff" stroke="#323232" stroke-width="22.238"/><path d="M-5.184 169.861l-.67 182.776c18.44-9.763 29.805-14.579 71-20.076H175.07s7.648-16.482.904-44.138h-7.092v-55.336h19.485s12.195-26.614-.55-63.224z" fill="#fff" stroke="#323232" stroke-width="20"/><path d="M-207.626 545.114s-10.27-.496-33.69-14.344c-31.553-18.88-45.778-68.703-82.112-73.177l55.411-2.171c-2.205 6.04 7.758 33.203 34.003 57.174 13.716 10.573 29.607 14.614 29.607 14.614 52.896 2.616 103.102 2.026 124.58-17.917 33.066-36.3 20.118-68.106 20.118-68.106-3.643-10.355-17.464-32.529-42.406-36.924l66.893-4.001c-3.068 8.437-4.709 31.986-4.709 31.986s-.922 32.072.84 58.763c0 0-20.143 37.102-62.106 49.143-25.878 7.426-89.599 6.407-106.429 4.96z" fill="#323232"/><path d="M-154.34 417.086c-44.441 60.584.359 81.952 13.235 91.624 3.93 4.566-2.338 9.666-4.776 8.482-.103-.05-.207-.102-.31-.155-10.368-5.23-44.491-13.538-44.314-62.741l.331-41.507-27.577-.685-2.492-6.177 70.28-2.42z" fill="#323232"/><path d="M-36.846 167.467l-30.877.006-144.409.006 1.548 153.635 173.29-.004.097-37.33h-87.163c-6.558 0-11.872-7.146-11.871-13.424 0-6.279 5.318-13.128 11.876-13.128l87.197-.003v-28.877l-87.72.004c-6.557 0-11.868-6.849-11.874-13.13 0-6.279 5.316-12.835 11.874-12.834l87.94-.003z" fill="#fff" stroke="#323232" stroke-width="20"/><path fill="#7e7e7e" stroke="#323232" stroke-width="20" d="M-1.123 233.105h165.005v42.738H-1.123z"/><path d="M-325.618 255.67c-8.215-22.664-34.146-51.453-56.1-59.39-2.44-8.406 10.2-13.055 14.611-14.206 3.797 0 31.598 7.375 60.48 46.426z" fill="#323232"/><circle r="11.661" cy="557.192" cx="-497.486" fill="#323232"/><circle cx="-306.156" cy="422.785" r="10.848" fill="#323232"/><circle r="17.356" cy="343.87" cx="-416.529" fill="#323232"/><path d="M-403.39 332.746l34.982 41.492c2.576 3.797-.134 5.559-.134 5.559l-7.578 6.912c-2.576 2.17-5.304-.133-5.304-.133l-20.068-22.78c-5.83-6.915-8.135-2.304-14.237-2.711z" fill="#323232"/><path d="M-292.068 228.61l39.322.271s10.089 3.064 11.174 13.098l.216 33.004" fill="none" stroke="#323232" stroke-width="16"/><circle r="8.136" cy="370.718" cx="-116.326" fill="#323232"/><path d="M-581.657 682.678h161.269v29.74c.406 3.932-3.329 3.822-3.329 3.822l-8.18.056s-11.574-17.46-15.642-18.546l-129.236-.345zm83.754-239.153c-28.763 35.667-82.078 117.627-58.3 202h104.545s-1.108-95.869 33.906-146.783c-32-32-80.15-55.217-80.15-55.217zm.067 97.02a16.415 16.415 0 0 1 14.604 8.203c4.533 7.851 1.843 17.89-6.008 22.424-7.851 4.533-17.89 1.843-22.424-6.008-4.533-7.851-1.843-17.89 6.008-22.424a16.415 16.415 0 0 1 7.82-2.195z" fill="#323232"/></g></svg>