<svg xmlns="http://www.w3.org/2000/svg" width="128" height="128"><path d="M102.38 11.843c-2.03.02-4.205 1.31-5.475 4.364-2.506 6.028-7.18 13.303-13.17 21.02a31.762 31.762 0 0 1 6.185 6.816c7.894-5.975 15.49-10.527 22.067-12.762 10.03-3.409 2.704-15.68-7.948-7.949 6.052-6.26 2.498-11.53-1.66-11.49zm-76.736.007c-4.16.084-8.457 5.388-3.675 11.216-8.154-7.532-15.424 3.003-6.902 6.902 6.316 2.887 14.065 8.019 22.278 14.47a31.741 31.741 0 0 1 6.697-7.408C38.02 28.993 33.15 21.325 30.15 14.886c-1.016-2.18-2.747-3.073-4.505-3.036zm38.118 22.418c-15.09 0-27.28 12.191-27.28 27.281 0 10.048 5.406 18.804 13.47 23.537v12.685h4.211V87.096c1.169.439 2.378.798 3.619 1.075v9.6h4.203v-9.002a27.867 27.867 0 0 0 3.542 0v9.002h4.202v-9.6a27.116 27.116 0 0 0 3.62-1.075v10.675h4.202v-12.67c8.078-4.73 13.493-13.495 13.493-23.55 0-15.093-12.19-27.283-27.282-27.283zM48.723 54.106a8.097 8.097 0 1 1 0 16.194 8.097 8.097 0 0 1 0-16.194zm30.038 0a8.097 8.097 0 0 1 0 16.192 8.097 8.097 0 0 1 0-16.192zM63.755 65.878l6.733 10.837H57.023l6.733-10.837zM39.63 81.748c-9.055 7.303-17.664 13.135-24.562 16.29-8.522 3.898-1.252 14.425 6.902 6.894-6.8 8.288 4.76 15.529 8.18 8.188 3.39-7.276 9.159-16.125 16.29-25.3a31.703 31.703 0 0 1-6.81-6.072zm47.937.386a31.715 31.715 0 0 1-6.276 5.553c7.162 8.858 12.778 17.285 15.615 24.112 3.87 9.306 16.141 2.185 7.134-7.134 10.652 7.731 17.978-4.539 7.948-7.948-7.23-2.457-15.688-7.714-24.421-14.583z" fill="#fff"/></svg>