<?xml version="1.0" encoding="UTF-8" standalone="no"?>
<svg
   width="128"
   height="128"
   version="1.1"
   id="svg4"
   xml:space="preserve"
   xmlns="http://www.w3.org/2000/svg"
   xmlns:svg="http://www.w3.org/2000/svg"><defs
     id="defs8"><clipPath
       clipPathUnits="userSpaceOnUse"
       id="clipPath1672"><circle
         r="66.5"
         cy="331.61356"
         cx="-206.72099"
         id="circle1674"
         style="fill:#000000;fill-opacity:1;stroke:none;stroke-width:28.5;stroke-linecap:round;stroke-linejoin:miter;stroke-miterlimit:4;stroke-dasharray:none;stroke-opacity:1" /></clipPath><clipPath
       clipPathUnits="userSpaceOnUse"
       id="clipPath878"><path
         d="m -246.2071,371.11085 c 7.33977,7.33977 18.61247,13.62595 26.56954,16.35892 7.99314,3.37431 15.46301,5.15764 23.87334,3.35451 11.31229,-2.42679 24.08052,-10.88025 39.49757,-29.23745 -2.75347,-5.68089 -6.98834,-9.03894 -12.20254,-11.61564 -4.35366,6.796 -10.12294,12.17072 -16.05132,15.34987 -6.48417,3.47755 -13.52413,4.4675 -18.65065,0.72549 l -2.26416,-1.65321 1.9297,-2.03435 c 1.40643,-1.4828 2.88499,-3.01227 4.39749,-4.56154 l 4.44417,-4.48235 c 6.24729,-6.19497 13.20027,-12.66004 20.59236,-18.78642 -2.69125,-5.28067 -8.38063,-12.55821 -14.81035,-19.07986 l -3.29158,-3.20956 c -6.22608,-5.83716 -12.86298,-10.81378 -17.48534,-13.1536 -9.58624,11.13199 -19.98849,21.63747 -28.15275,30.30236 l -2.25284,2.39002 -1.66594,-2.83126 c -3.26754,-5.55432 -2.24436,-12.67559 1.23531,-19.28068 3.17491,-6.03162 8.4973,-11.82494 15.27917,-16.18426 a 29.764,29.764 0 0 0 -8.24911,-9.91929 l -3.52634,-2.69479 c -14.03183,12.57095 -25.43463,27.4612 -28.28003,37.14715 l -1.39159,7.62544 c -0.50204,7.0739 1.57049,13.44847 4.66054,20.32154 2.32497,7.21532 8.30426,17.65787 15.79394,25.14755 z m 2.15668,-2.15667 c -4.59195,-4.59195 -8.08082,-10.82722 -10.43548,-16.82207 4.15849,0.25809 8.22789,1.63059 11.89424,3.75686 l 17.79222,-6.68782 -7.10218,16.77257 c 2.7061,4.02132 4.4569,8.63873 4.67327,13.40463 -6.23385,-2.49609 -12.44932,-6.05142 -16.82207,-10.42417 z m 19.77,-20.59024 1.2834,-6.25012 6.04576,-1.10026 -1.07692,6.0691 z m 8.40608,-8.40609 1.28411,-6.25082 6.04506,-1.09956 -1.07693,6.0691 -6.25153,1.28199 z m 8.29649,-8.29648 1.2834,-6.25012 6.04647,-1.10097 -1.07763,6.06981 z m 8.3976,-8.3976 1.2834,-6.25012 6.04647,-1.10097 -1.07693,6.0691 -6.25153,1.28199 z m -8.03556,-27.4315 c 6.12708,3.22087 13.24835,9.13723 19.96021,15.78686 6.74933,6.6857 12.88419,13.93637 16.27052,20.36043 1.40715,-1.11722 2.82772,-2.2196 4.26032,-3.30148 -2.71246,-5.72756 -9.14855,-13.96819 -16.36033,-21.11208 -7.20754,-7.13683 -15.41422,-13.3721 -20.75005,-15.89506 a 241.302,241.302 0 0 1 -3.38067,4.16133 z m 5.45745,-7.3921 c 6.4276,3.1636 13.99717,9.38402 21.10006,16.41902 2.08597,2.06475 4.11112,4.18466 6.01819,6.31941 l 2.7662,3.21168 c 3.43512,4.14223 6.31093,8.26537 8.18193,12.08234 4.47387,-3.20532 9.04531,-6.1886 13.65848,-8.83177 -0.74741,-2.24648 -1.72676,-4.50992 -2.90055,-6.7656 l -2.03223,-3.5822 c -8.5171,-13.89818 -23.84647,-26.89551 -37.55727,-32.58914 -2.64104,4.55731 -5.78625,9.16199 -9.23481,13.73626 z"
         fill="#ffffff"
         id="path880" /></clipPath></defs><g
     id="g1643"
     clip-path="url(#clipPath878)"
     transform="rotate(135,-15.935394,253.87497)"><rect
       y="229.70338"
       x="-343.34747"
       height="253.02544"
       width="246.839"
       id="rect1630"
       style="fill:#d5c06a;fill-opacity:1;stroke:none;stroke-width:0.815675;stroke-opacity:1" /><g
       id="g1628"><path
         id="path1599"
         d="m -170.20068,338.80548 -43.44982,21.35873 -2.86,-24.70256 4.90808,-17.74979 29.8022,11.3252 54.6434,-2.81221 -11.72192,51.50368 -15.85108,-30.76112 z"
         style="fill:#eed057;fill-opacity:1;stroke:none;stroke-opacity:1" /><path
         style="fill:#ebc633;fill-opacity:1;stroke:none;stroke-opacity:1"
         d="m -190.49272,338.29521 -55.42906,34.54886 0.85751,-24.26885 -53.04051,-57.52434 133.33416,-32.59205 33.10794,61.20596 -85.18623,-19.20879 8.99428,22.38012 z"
         id="path1601" /><path
         style="fill:#ffe38b;fill-opacity:1;stroke:none;stroke-opacity:1"
         d="m -229.569,340.49129 -29.4912,-21.90574 9.54352,-16.67862 -9.65386,-13.01736 22.10947,-5.55538 -3.37815,31.66288 23.31931,9.75536 0.64983,23.06867 20.64387,10.21059 -28.92166,14.97572 4.8897,-13.11859 z"
         id="path1603" /><path
         id="path1605"
         d="m -105.84664,301.76834 -28.54344,26.6843 -52.16561,-11.37364 19.63334,-22.2028 -5.74438,-26.35387 z"
         style="fill:#ffe38b;fill-opacity:1;stroke:none;stroke-opacity:1" /><path
         style="fill:#eed057;fill-opacity:1;stroke:none;stroke-opacity:1"
         d="m -210.83402,257.58615 -6.88979,27.34047 -82.13076,-27.34047 44.51028,-20.56003 z"
         id="path1607" /><path
         id="path1609"
         d="m -248.4545,302.42452 6.44104,34.80658 -14.42445,-8.1223 -43.63538,17.27918 8.63959,-61.02391 z"
         style="fill:#eed057;fill-opacity:1;stroke:none;stroke-opacity:1" /><path
         style="fill:#ffe38b;fill-opacity:1;stroke:none;stroke-opacity:1"
         d="m -178.61453,362.87318 16.54677,5.07462 24.51406,-24.42876 2.01138,33.82223 -19.60641,17.75997 -24.8739,19.98849 -16.77447,-17.32009 23.19564,-15.47417 z"
         id="path1611" /><path
         style="fill:#ebc633;fill-opacity:1;stroke:none;stroke-opacity:1"
         d="m -166.87055,387.83612 -25.59067,13.88896 -9.62384,-12.35789 11.59235,-6.45235 z"
         id="ellipse1613" /><path
         style="fill:#ebc633;fill-opacity:1;stroke:none;stroke-opacity:1"
         d="m -234.58248,379.67313 25.84313,29.30721 -28.43135,59.67571 -19.25723,-45.08924 z"
         id="path1615" /></g></g></svg>
