<svg xmlns="http://www.w3.org/2000/svg" width="128" height="128"><path d="M67.542 11.043v-7.5h-7.084v7.5C33.986 12.801 12.8 33.986 11.043 60.458h-7.5v7.084h7.5c1.758 26.472 22.943 47.657 49.415 49.415v7.5h7.084v-7.5c26.472-1.758 47.657-22.943 49.415-49.415h7.5v-7.084h-7.5C115.199 33.986 94.014 12.8 67.542 11.043zm-7.084 7.085v7.085c-18.662 1.692-33.553 16.583-35.245 35.245h-7.085c1.73-22.565 19.765-40.6 42.33-42.33zm0 91.744c-22.565-1.73-40.6-19.765-42.33-42.33h7.085c1.692 18.662 16.583 33.553 35.245 35.245zm-14.17-28.16V78.17c0-9.766 7.946-17.712 17.712-17.712-5.86 0-10.627-4.768-10.627-10.628S58.14 39.203 64 39.203 74.627 43.97 74.627 49.83 69.86 60.458 64 60.458c9.766 0 17.712 7.946 17.712 17.712v3.542zm21.254 28.16v-7.085c18.662-1.692 33.553-16.583 35.245-35.247h7.085c-1.73 22.567-19.765 40.602-42.33 42.332zm35.245-49.414c-1.692-18.662-16.583-33.553-35.245-35.245v-7.085c22.565 1.73 40.6 19.765 42.33 42.33z" fill="#fff"/></svg>