<svg xmlns="http://www.w3.org/2000/svg" width="128" height="128"><path d="M40.288 13.693c-10.4 8.142-11.374 21.22-9.64 34.447 1.961 14.957 13.05 30.204 26.76 36.497 10.39 4.77 26.595 5.89 34.195-2.651 6.19-6.956 4.315-17.721-1.866-24.685-6.168-6.95-20.345-10.283-27.53-4.39-3.77 3.094-3.475 10.707-.566 14.623 2.104 2.833 7.515 4.898 10.248 2.664 1.283-1.049-1.377-3.73-.27-4.964 1.464-1.632 4.937-1.82 6.57-.356 3.467 3.11 5.137 7.779 1.531 10.727-6.422 5.25-19.137.396-24.083-6.262-5.435-7.317-5.99-21.542 1.057-27.323 6.307-5.173 18.038 9.237 24.168 3.854 7.59-6.665.984-19.94-5.769-27.452-7.826-8.708-21.272-10.396-34.804-4.728h-.001zM24.442 31.661c-2.04-9.622-14.237.266-18.461 9.148-7.046 14.819-.386 35.008 9.138 48.369 11.084 15.55 30.654 28.022 49.746 28.411 20.409.417 44.463-10.33 54.372-28.176 8.126-14.635 8.263-38.627-3.961-50.063-6.823-6.383-21.475-7.008-28.029-.348-1.854 1.884-1.518 5.94.226 7.926 2.094 2.384 7.295-.875 9.401 1.498 8.776 9.887 10.338 29.754 1.55 39.63-9.814 11.03-30.741 9.584-44.158 3.424-15.914-7.305-28.784-25.003-31.06-42.364-.092-8.771 2.852-9.828 1.236-17.455z" fill="#fff"/></svg>