<svg xmlns="http://www.w3.org/2000/svg" width="128" height="128"><g transform="rotate(-45 64.084 64.203)"><path d="M41.494 85.891c-1.069.683-4.396-.219-4.396-.219-1.209-.297-4.927-3.916-4.927-3.916-.175-.21.166-.586.277-.733l2.583-1.55 7.75-11.77c1.033-2.18-4.78-4.247-8.912-4.23l20.279-.017-1.55 3.1h-2.584l-8.783 16.533c-1.04.793.736 2.224.263 2.802z" fill="#fff" stroke="#323232" stroke-width="2.306"/><path d="M60.348 67.073l.824 3.616 1.506 1.309 8.003-1.577c1.387-5.82 3.483-5.857 8.783-5.932.666-.245.517-1.033.517-1.033h43.672l.158-.646-1.033-.667-2.584-4.908-8.783-4.883h-76.38v11.104h17.567v3.1h6.716c.806.087 1.034.517 1.034.517z" fill="#fff" stroke="#323232" stroke-width="2.306"/><path d="M61.383 72.224l-.659 2.747-8.643-1.182-4.133-2.066.31-.787 4.077 2.048 5.77.77s.466-.166.641-.568l1.42-3.195z" fill="#323232" stroke="#323232" stroke-width=".748"/><path d="M16.707 58.29l-19.117.516-2.583-.517s-3.083-.135-2.96.163c2.725 9.263 3.156 19.09 2.909 22.36.198.321 2.155-.01 2.155-.01l2.133-2.015.803-2.725 1.211-.49 1.954-7.204 7.295-2.329h1.55l5.683-2.583h13.434v-10.57z" fill="#fff" stroke="#323232" stroke-width="2.306"/><rect width="29.45" height="2.185" x="52.598" y="62.304" ry="0" fill="#323232"/><rect width="5.167" height=".256" x="105.77" y="59.839" rx=".387" ry=".387" fill="#fff" fill-opacity=".48" stroke="#323232" stroke-width="1.356"/><path d="M.568 58.668l2.706 6.855h9.816" fill="none" stroke="#323232" stroke-width="1.845"/><path d="M36.064 55.577h36.684l6.2 1.42 2.583 2.584h12.917l3.1-2.325h22.104" fill="none" stroke="#323232" stroke-width="1.808"/><path d="M144.367 56.756s.507.1.507.38v5.399c0 .28-.546.404-.546.404h-18.083l.258-1.42-1.808-1.163-1.55-3.617zM64.065 50.287h1.58v1.604h-1.58zm2.726.002h1.58v1.602h-1.58zm2.812-.002h1.58v1.604h-1.58zm2.783.002h1.58l-.002 1.603h-1.58zm2.708 0h1.58l-.002 1.603h-1.58zm2.878-.002h1.58v1.604h-1.58zm2.878 0h1.58v1.604h-1.58zm2.735 0h1.58v1.604h-1.58zm2.78 0h1.58v1.603h-1.58zm2.758 0h1.58v1.604h-1.58zm2.782 0h1.58v1.604h-1.58zm2.78 0h1.581v1.604h-1.58zm2.783.002h1.58v1.604l-1.58-.002zm2.856 0l1.58-.002-.003 1.603h-1.58zm-38.943-.002h1.58v1.604h-1.58zM44.421 50.287h1.58v1.604h-1.58zm2.781 0h1.58v1.604h-1.58zm2.782 0h1.58v1.604h-1.58zm2.782.002h1.58v1.604l-1.581-.002zm2.856 0l1.58-.002-.003 1.603h-1.58zm2.658 0h1.58v1.604l-1.579-.002z" fill="#323232"/><path d="M103.33 48.558l3.821-2.03s.482-.113.85.517l.7 1.55.018 1.55h-5.388zM36.064 48.558l3.822-2.03h1.862c.49.281 1.016 2.067 1.016 2.067l.017 1.55h-6.716z" fill="#323232" stroke="#323232" stroke-width="1.067"/><path d="M62.637 53.914h5.907c.313 0 .564.229.564.513v4.163c0 .284-.251.514-.564.514h-7.659c-.312 0-.666-.299-.434-.849l1.622-3.828c.11-.262.251-.513.564-.513z" fill="#323232"/><rect ry=".387" rx=".387" y="59.839" x="113.52" height=".256" width="5.167" fill="#fff" fill-opacity=".48" stroke="#323232" stroke-width="1.356"/><rect width="5.167" height=".256" x="98.02" y="59.839" rx=".387" ry=".387" fill="#fff" fill-opacity=".48" stroke="#323232" stroke-width="1.356"/><path d="M52.081 67.977h1.751s-.998 1.243-1.208 2.382c-.088.805.683 2.049.683 2.049s-.56-.158-1.042-.526c0 0-.447-.438-.727-1.961 0-.806.543-1.944.543-1.944z" fill="#323232"/><path d="M69.89 73.728c1.156 7.707 4.942 17.862 4.942 17.862l-5.423 2.033s-3.932-10.231-5.368-18.638z" fill="#fff" stroke="#323232" stroke-width="2.246"/><rect width="8.832" height="4.582" x="32.524" y="108.24" rx=".324" ry=".324" transform="rotate(-19.564)" fill="#323232"/><path d="M-.86 76.89l-2.586-14.928s-.12-.622.449-.97l4.038-.958-1.384-1.228-7.233-.517.516 4.65 1.55 7.234.466 10.638 1.601.212 3.1-2.584z" fill="#323232"/><circle cx="-.549" cy="62.129" r=".933" fill="#323232"/><circle r=".725" cy="66.109" cx=".557" fill="#323232"/><rect ry=".258" rx=".258" y="55.064" x="98.249" height=".254" width="1.715" fill="#fff" fill-opacity=".48" stroke="#323232" stroke-width=".779"/><rect width="1.715" height=".254" x="102.124" y="55.064" rx=".258" ry=".258" fill="#fff" fill-opacity=".48" stroke="#323232" stroke-width=".779"/><rect width="1.715" height=".254" x="105.823" y="55.064" rx=".258" ry=".258" fill="#fff" fill-opacity=".48" stroke="#323232" stroke-width=".779"/><rect ry=".258" rx=".258" y="55.064" x="109.698" height=".254" width="1.715" fill="#fff" fill-opacity=".48" stroke="#323232" stroke-width=".779"/><rect ry=".447" rx=".317" y="56.464" x="82.656" height=".295" width="4.225" fill="#fff" fill-opacity=".48" stroke="#323232" stroke-width="1.317"/><rect width="4.225" height=".295" x="89.281" y="56.464" rx=".317" ry=".447" fill="#fff" fill-opacity=".48" stroke="#323232" stroke-width="1.317"/></g></svg>