<?xml version="1.0" encoding="UTF-8" standalone="no"?>
<svg
   width="128"
   height="128"
   version="1.1"
   id="svg4"
   xml:space="preserve"
   xmlns="http://www.w3.org/2000/svg"
   xmlns:svg="http://www.w3.org/2000/svg"><defs
     id="defs8"><clipPath
       clipPathUnits="userSpaceOnUse"
       id="clipPath1672"><circle
         r="66.5"
         cy="331.61356"
         cx="-206.72099"
         id="circle1674"
         style="fill:#000000;fill-opacity:1;stroke:none;stroke-width:28.5;stroke-linecap:round;stroke-linejoin:miter;stroke-miterlimit:4;stroke-dasharray:none;stroke-opacity:1" /></clipPath><clipPath
       clipPathUnits="userSpaceOnUse"
       id="clipPath878"><path
         d="m -208.32847,275.76385 c -10.38,0 -22.796,3.526 -30.355,7.22 -8.038,3.266 -14.581,7.287 -19.253,14.509 -6.283,9.715 -9.334,24.721 -7.255,48.603 5.964,2.07 11.333,1.45 16.842,-0.415 -1.727,-7.884 -1.448,-15.764 0.496,-22.204 2.126,-7.044 6.404,-12.722 12.675,-13.701 l 2.77,-0.432 0.074,2.803 c 0.054,2.043 0.09,4.17 0.116,6.335 l 0.027,6.312 c -0.037,8.798 -0.382,18.286 -1.277,27.845 5.637,1.831 14.806,2.954 23.964,3.019 l 4.597,-0.058 c 8.53,-0.275 16.742,-1.449 21.665,-3.063 -1.093,-14.65 -1.166,-29.434 -1.52,-41.334 l -0.097,-3.283 3.18,0.824 c 6.238,1.617 10.55,7.376 12.76,14.507 2.02,6.51 2.353,14.37 0.64,22.248 a 29.764,29.764 0 0 0 12.847,1.181 l 4.399,-0.588 c 1.033,-18.811 -1.433,-37.403 -6.27,-46.264 l -4.408,-6.376 c -4.647,-5.357 -10.62,-8.399 -17.665,-11.074 -6.746,-3.458 -18.358,-6.614 -28.95,-6.614 z m 0,3.05 c 6.494,0 13.37,1.942 19.274,4.516 -3.123,2.758 -6.971,4.665 -11.067,5.754 l -7.852,17.31 -6.838,-16.882 c -4.757,-0.93 -9.26,-2.957 -12.783,-6.174 6.173,-2.643 13.082,-4.524 19.266,-4.524 z m 0.58,28.539 3.512,5.327 -3.497,5.053 -3.53,-5.053 z m 0,11.888 3.512,5.328 -3.497,5.052 -3.53,-5.053 3.514,-5.327 z m 0,11.733 3.512,5.327 -3.497,5.054 -3.53,-5.054 z m 0,11.876 3.512,5.327 -3.497,5.054 -3.53,-5.053 3.514,-5.327 z m 25.079,13.715 c -6.61,2.055 -15.829,2.907 -25.277,2.951 -9.5,0.045 -18.965,-0.744 -25.902,-2.892 -0.205,1.785 -0.43,3.569 -0.678,5.347 5.968,2.132 16.346,3.408 26.497,3.36 10.143,-0.05 20.355,-1.444 25.912,-3.433 a 241.302,241.302 0 0 1 -0.552,-5.333 z m 1.368,9.086 c -6.782,2.308 -16.533,3.262 -26.53,3.31 -2.935,0.015 -5.866,-0.052 -8.724,-0.213 l -4.227,-0.315 c -5.358,-0.5 -10.307,-1.382 -14.329,-2.758 -0.897,5.43 -2.02,10.772 -3.413,15.903 2.117,1.06 4.41,1.968 6.835,2.733 l 3.97,1.096 c 15.85,3.805 35.88,2.156 49.601,-3.513 -1.355,-5.09 -2.387,-10.57 -3.183,-16.243 z"
         fill="#ffffff"
         id="path880" /></clipPath></defs><g
     id="g1643"
     clip-path="url(#clipPath878)"
     transform="translate(272.32147,-267.61385)"><rect
       y="229.70338"
       x="-343.34747"
       height="253.02544"
       width="246.839"
       id="rect1630"
       style="fill:#cacaca;fill-opacity:1;stroke:none;stroke-width:0.815675;stroke-opacity:1" /><g
       id="g1628"><path
         id="path1599"
         d="m -194.04156,338.80548 c -2.30927,5.14937 -4.2443,9.93731 -11.29744,12.60978 -17.02036,6.44909 -11.51602,-7.39415 -8.98426,-17.26595 2.52442,-9.84317 15.06214,-29.8583 23.06214,-19.93703 1.17579,1.45817 5.36054,18.46344 23.24049,12.63754 6.11148,-1.99133 14.23411,19.62629 27.08422,16.87293 15.02042,-3.2184 4.70811,17.80167 -2.75425,14.10192 -14.93029,-7.40227 -17.13985,-3.14077 -25.91237,-10.63854 -14.40593,-12.31256 -23.33706,-10.83678 -24.43853,-8.38065 z"
         style="fill:#8ed1ff;fill-opacity:1;stroke:none;stroke-opacity:1" /><path
         style="fill:#d6d6d6;fill-opacity:1;stroke:none;stroke-opacity:1"
         d="m -211.27147,336.32669 c -30.10019,5.19461 -28.23942,33.46472 -37.94855,38.49537 -21.82651,11.30909 -48.88476,-72.41618 -48.88476,-83.77118 0,-5.00326 94.50142,-44.19867 133.33416,-32.59205 30.79833,9.20524 40.44113,52.56477 33.10794,61.20596 -16.47415,19.41261 -77.12078,-28.47969 -85.18623,-19.20879 -6.68505,7.68419 5.78005,13.7141 12.71258,20.41161 4.78325,4.62109 11.8926,12.17531 -7.13514,15.45908 z"
         id="path1601" /><path
         style="fill:#ceebff;fill-opacity:1;stroke:none;stroke-opacity:1"
         d="m -245.75455,329.77383 c -3.13249,-5.91764 -10.38678,-2.13491 -13.30565,-11.18828 -2.19038,-6.79383 2.11823,-9.92848 9.54352,-16.67862 3.71307,-3.37546 -13.67591,-16.41025 -9.65386,-13.01736 2.5198,2.12563 7.29951,-11.52085 15.32903,-4.02431 5.50072,5.1356 -5.34416,30.94592 15.86954,34.28756 17.32196,2.72859 -3.57328,18.89087 15.00781,21.78516 6.35113,0.98928 11.39234,5.22876 17.13795,17.09371 6.69506,13.8256 1.25679,29.7059 -9.45525,21.53743 -9.13814,-6.96829 -1.93813,-20.25602 -18.29501,-21.21137 -23.53873,-1.37482 -17.32988,-19.42512 -22.17808,-28.58392 z"
         id="path1603" /><path
         id="path1605"
         d="m -105.84664,301.76834 c 0,11.35499 -3.96109,26.6843 -28.54344,26.6843 -24.58235,0 -60.47711,-15.3293 -60.47711,-26.6843 0,-11.35499 19.92793,-20.56003 44.51028,-20.56003 24.58234,1e-5 44.51027,9.20504 44.51027,20.56003 z"
         style="fill:#ceebff;fill-opacity:1;stroke:none;stroke-opacity:1" /><path
         style="fill:#8ed1ff;fill-opacity:1;stroke:none;stroke-opacity:1"
         d="m -210.83402,257.58615 c 0,11.35499 11.34957,27.55919 -13.23278,27.55919 -24.58235,0 -75.78777,-16.20419 -75.78777,-27.55919 0,-11.35499 19.92793,-20.56003 44.51028,-20.56003 24.58234,1e-5 44.51027,9.20504 44.51027,20.56003 z"
         id="path1607" /><path
         id="path1609"
         d="m -248.4545,302.42452 c -16.84172,10.91754 -2.86747,27.77791 -12.5766,32.80855 -21.82651,11.30909 -74.91288,-17.95398 -74.91288,-29.30898 0,-11.35499 19.92793,-20.56003 44.51028,-20.56002 24.58234,0 52.50736,10.88388 42.9792,17.06045 z"
         style="fill:#8ed1ff;fill-opacity:1;stroke:none;stroke-opacity:1" /><path
         style="fill:#ceebff;fill-opacity:1;stroke:none;stroke-opacity:1"
         d="m -157.39833,372.93447 c -0.16246,-5.64113 -4.78621,-11.74455 0.14249,-17.45392 4.56717,-5.29058 11.2212,-8.20758 19.70214,-2.55639 8.45636,5.6348 14.01867,20.14431 2.01138,24.41711 -1.76476,0.62798 -19.19767,-1.04074 -19.60641,17.75997 -0.1397,6.4262 -23.22701,6.95031 -24.8739,19.98849 -1.92502,15.24025 -25.07964,-17.95186 -16.77447,-17.32009 13.66928,1.03981 11.71892,-14.26646 23.19564,-15.47417 11.56886,-1.21741 16.40762,-2.26052 16.20313,-9.361 z"
         id="path1611" /><ellipse
         ry="6.4523497"
         rx="11.592357"
         cy="389.36719"
         cx="-190.49271"
         id="ellipse1613"
         style="fill:#d6d6d6;fill-opacity:1;stroke:none;stroke-opacity:1" /><path
         style="fill:#d6d6d6;fill-opacity:1;stroke:none;stroke-opacity:1"
         d="m -234.58248,379.67313 c 11.35019,0.33014 26.55784,4.73525 25.84313,29.30721 -0.71471,24.57195 -17.08116,60.00585 -28.43135,59.67571 -11.35019,-0.33014 -19.97195,-20.51728 -19.25723,-45.08924 0.71472,-24.57194 10.49526,-44.22382 21.84545,-43.89368 z"
         id="path1615" /></g></g></svg>
