<svg xmlns="http://www.w3.org/2000/svg" width="128" height="128"><path d="M49.917 78.377s.595.733 1.872 2.293c.464.815-.986 2.195-.986 2.195-1.376 1.225-3.06 2.638-4.185 1.681l-1.702-2.084z" fill="none" stroke="#323232" stroke-width="1.076"/><path d="M47.17 80.969c.06 1.94 1.363 2.52 1.363 2.52.513.122.166-.224.166-.224-1.484-.908-.487-3.148-.487-3.148z" fill="#323232" stroke="#323232" stroke-width=".301"/><path d="M85.655 38.763l-24.59 20.085.34.417-21.463 17.533s-3.408 9.406-4.352 9.839c-1.343 1.235-4.908 2.51-5.65 3.186 0 0-14.805 12.864-19.988 17.833-.358.31-.22 1.302.162 1.751 2.857 3.791 9.68 9.367 9.68 9.367s1.243.99 1.945-.028c2.966-4.213 8.636-14.447 13.23-21.462.6-.917 5.333-2.364 5.852-3.92.46-9.702 4.773-12.123 6.61-13.625l5.48-4.502.076-.757 7.502-6.128.758.077 1.048-.857C64.66 63.042 88 41.602 88 41.602zM85.655 38.763L76.7 46.077l-5 .024-11.427 9.226-.34-.417 23.34-19.065z" fill="#fff" stroke="#323232" stroke-width="2.33"/><path d="M38.066 78.33s-1.059-1.744-1.115-2.216l3.202-3.31 1.25-1.022 1.872 2.292z" fill="#fff" stroke="#323232" stroke-width="2.33"/><path d="M41.233 71.573l-1.362-1.666c-.358-2.14 1.68-2.639 2.5-2.043 1.636.33 2.974-1.039 2.974-1.039s.278-.691.455-.719l2.14-.358 4.584-3.745 2.823-3.348 3.126-2.554c.208-.17 1.344-.056 1.344-.056l.625-.51 11.67-9.532 2.48.058-.816 2.404-12.711 10.383.34.417-17.812 14.55-.829-.366zM86.606 33.122l3.404 4.168 16.249-14.135s-.868-1.985-2.981-3.65z" fill="#fff" stroke="#323232" stroke-width="2.33"/><path d="M113.52 18.434l-2.292 1.872-.68-.834-3.127 2.554s-.736-1.177-1.226-1.778l11.743-9.592c1.224.765 1.362 1.667 1.362 1.667l-6.46 5.277z" fill="#323232"/><path d="M111.502 10.008c-.186-.432.076-.758.076-.758l1.667-1.362s.421-.232.757.077l1.361 1.667.834-.68.587-.133 1.459-1.191c1.21.544 1.191 1.459 1.191 1.459l-1.667 1.361.34.417-3.543 2.893-.34-.416-8.201 6.698c-.335-.422-1.326-1.349-1.326-1.349l8.335-6.808zM83.664 33.9l.945-.77 5.028 6.156-.896.83z" fill="#323232"/><circle transform="rotate(-39.243)" cx="-9.72" cy="94.783" r=".994" fill="none" stroke="#323232" stroke-width=".679" stroke-linecap="round"/><circle transform="rotate(-39.243)" r="1.045" cy="94.25" cx="-18.761" fill="none" stroke="#323232" stroke-width=".714" stroke-linecap="round"/><path d="M45.424 86.217l2.543-.87-.852-1.043-2.084 1.703zM52.262 81.673l1.798-1.469c.208-.17.214-.522.044-.73l-2.043-2.501-.515.42-1.25 1.022.851 1.042 1.25-1.021 1.022 1.25-1.628 1.836z" fill="#323232"/><circle transform="rotate(-39.243)" cx="-11.46" cy="80.44" r="1.884" fill="#323232"/><path d="M10.428 107.896c7.56 8.334 11.2 10.308 11.2 10.308" fill="none" stroke="#323232" stroke-width="1.614"/><path d="M53.29 75.275l7.919-6.468" fill="none" stroke="#323232" stroke-width="1.076" stroke-opacity=".988"/><path d="M26.098 113.19l3.268.034c1.303.367 1.294 1.556.262 1.775l-4.126-.05z" fill="#323232"/><path d="M28.348 113.135c3.174-7.496 8.935-1.866 21.701-8.19 13.263-6.8 18.154-20.19 25.917-37.923 6.067-12.925 9.955-20.049 12.24-22.114 1.041-.77 3.16-.555 3.116.484-.987 4.717-4.56 3.942-11.597 21.792-2.933 7.236-12.806 34.648-29.737 42.142-1.587.994-2.157 3.07-4.079 4.368-.415.403-16.44 2.819-17.434 2.132 0 0-.95-.08-.127-2.691z" fill="none" stroke="#323232" stroke-width="2"/><path d="M88.768 45.724l-.706-3.163 1.484-.87.822 3.877c.018.486-.954 1.268-1.6.156zM34.18 107.33l3.18-.334c1.324.097 1.549 2.633.411 2.855l-3.465.357c-1.321-.554-1.204-2.562-.126-2.878zM33.393 114.268l3.176-.364c1.325.084 1.576 2.483.44 2.716l-3.46.39c-1.327-.542-1.231-2.416-.156-2.742zM50.143 107.816l2.78-1.58c1.252-.44 2.393 1.6 1.44 2.26l-3.033 1.714c-1.433.021-2.048-1.673-1.187-2.394zM78.983 65.348l1.167-2.976c.695-1.131 3.02-.006 2.693 1.106l-1.278 3.24c-1.1.919-2.797-.267-2.582-1.37z" fill="#323232"/></svg>