<svg xmlns="http://www.w3.org/2000/svg" style="isolation:isolate" width="128" height="128"><path d="M78.63 20.567a14.207 14.207 0 0 0-6.77 1.898 14.207 14.207 0 0 0-5.2 19.41 14.207 14.207 0 0 0 19.407 5.2 14.207 14.207 0 0 0 5.2-19.41 14.207 14.207 0 0 0-12.638-7.098zm.05 5.133a9.172 9.172 0 0 1 8.16 4.585 9.172 9.172 0 0 1-3.356 12.53 9.172 9.172 0 0 1-12.53-3.357 9.172 9.172 0 0 1 3.357-12.531 9.172 9.172 0 0 1 4.37-1.227z" fill="#fff" stroke="#353535" stroke-width="2.762"/><path style="isolation:isolate" d="M17.84 31.543l27.935-16.13 26.156 14.244-13.433 7.793-20.441 11.802-8.46-14.652z" fill="#fff" fill-opacity=".986" stroke="#323232" stroke-width="2.762" stroke-miterlimit="5"/><path style="isolation:isolate" d="M75.856 32.399l18.526 13.734L111.99 68.2l-3.376.338-16.167-20.37-19.432-14.107z" fill="#fff" fill-opacity=".986" stroke="#323232" stroke-width="1.845" stroke-miterlimit="5"/><path style="isolation:isolate" d="M40.073 52.744l4.578 7.93a29.833 29.833 0 0 1 9.048-8.129 29.833 29.833 0 0 1 11.55-3.791l-4.566-7.91z" fill="#fff" fill-opacity=".986" stroke="#323232" stroke-width="2.762" stroke-miterlimit="5"/><path style="isolation:isolate" d="M55.904 56.566c-13.8 7.984-19.14 25.237-12.262 39.62L96.36 65.749c-9.02-13.153-26.641-17.153-40.456-9.183zm-9.947 43.5c9.152 12.739 26.463 16.476 40.054 8.648 13.594-7.848 19.027-24.722 12.566-39.027z" fill="#fff" fill-opacity=".976" stroke="#323232" stroke-width="2.762"/></svg>