<svg xmlns="http://www.w3.org/2000/svg" width="128" height="128"><path d="M31.646 74.948L41.06 87.95l16.898 11.033L79.996 81.17l16.176-18.656.662-8.081-4.905-8.667-3.334-5.095-2.967-7.21-4.686-.5-4.008-1.515-2.692-2.723-2.197-.38-7.913 5.635-2.453-1.312-2.305-1.527-14.001 8.849-5.041 8.176-4.256 22.237z" fill="#fff"/><path d="M58.006 102.976c1.436 1.005 10.25-9.236 10.25-9.236a16.062 16.062 0 0 1 3.155-2.473l5.414-3.243a37.37 37.37 0 0 0 9.743-8.43L97.85 65.511a10.708 10.708 0 0 0-.857-14.286l-.682-.68a1.784 1.784 0 0 0-.53-.354 8.923 8.923 0 0 0-2.436-7.661l-.82-.82a5.355 5.355 0 0 0-1.994-1.262 8.923 8.923 0 0 0-2.372-8.153l-.682-.68a5.355 5.355 0 0 0-7.041-.53 7.14 7.14 0 0 0-1.793-3.257l-.253-.252a8.924 8.924 0 0 0-12.304-.315l-3.369 3.04-.34-.567a3.57 3.57 0 0 0-4.67-1.16l-11.913 6.41a12.494 12.494 0 0 0-5.338 5.565l-2.903 6.007a23.04 23.04 0 0 0-1.918 14.336l.568 2.738a3.532 3.532 0 0 1-.985 3.181s-6.75 4.765-7.396 6.99c2.9 8.082 17.253 25.386 30.184 29.175zm16.377-18.622L68.54 87.74c-3.192 2.308-7.843 7.897-10.924 10.564-12.248-6.795-19.11-13.163-24.486-23.3l5.198-5.263c1.66-1.64 2.514-4.392 2.12-6.692l-.504-2.725c-.802-4.148-.528-7.423 1.31-11.226l2.902-6.007c.817-1.692 2.208-2.975 3.799-3.975l11.608-7.3c.19.29.359.594.505.91l-6.235 5.627c-.673.672-.65 2.111-.012 2.816.916.928 2.29.979 3.095.216l12.14-10.826c2.117-1.917 4.046-2.29 6.062-.268l.253.252c1.394 1.394 1.55 3.1.152 4.49l-6.35 6.32c-.698.694-.493 2.233.204 2.93.697.696 2.337.647 3.032-.052l10.02-10.092a1.782 1.782 0 0 1 2.525 0l.681.68c1.92 1.882 1.942 4.387.327 6.535l-6.195 6.949c-.537.715.046 2.075.686 2.702.976.469 2.35.111 2.917-.595l5.584-6.441.139-.139c.335.046.65.187.908.404l.77.77c1.897 1.846 1.702 4.192.162 6.344l-5.23 6.34c-.507.718.092 2.053.722 2.665.914.643 2.317.552 2.853-.151l4.964-6.226.226-.227c2.598 2.564 2.124 6.1-.149 8.954L83.323 76.6c-2.47 3.026-5.59 5.744-8.94 7.754z" fill="#323232"/><path d="M52.635 42.425a2.2 2.2 0 0 0-3.032-.077l-4.027 3.563a2.2 2.2 0 0 0-.079 3.032l.079.078a2.2 2.2 0 0 0 3.11 0l4.026-3.563a2.2 2.2 0 0 0-.078-3.033z" fill="#323232"/></svg>