<svg xmlns="http://www.w3.org/2000/svg" width="128" height="128"><path d="M109.754 31.013c-.048-5.499-13.136-9.84-25.705-9.73l.175 19.91c12.568-.111 25.579-4.683 25.53-10.18zM25.628 44.92l51.416-.452a2.92 2.92 0 0 0 2.893-2.945l-.18-20.495a2.92 2.92 0 0 0-2.945-2.893l-51.416.452a3.575 3.575 0 1 0-7.149.062l.231 26.334a3.577 3.577 0 0 0 3.607 3.543 3.576 3.576 0 0 0 3.542-3.605zm10.354-21.779l33.959-.299a2.145 2.145 0 1 1 .038 4.29l-33.959.298a2.138 2.138 0 0 1-2.163-2.125 2.144 2.144 0 0 1 2.125-2.164zM87.695 57.67c-8.175 0-15.461 3.613-20.318 9.418 1.717 2.725 3.79 6.576 6.693 11.67 1.248-4.057 6.635-9.241 13.625-9.241 8.175 0 15.007 6.635 15.007 14.81 0 7.607-6.002 14.508-14.823 14.789-6.567.209-11.033-3.847-14.401-9.458-9.29-14.454-8.219-18.053-14.335-24.17-4.985-4.983-11.562-7.819-18.838-7.819-14.798 0-26.854 11.884-26.854 26.657 0 14.75 12.104 26.657 26.854 26.657 7.997 0 15.106-3.495 19.963-9.063-1.398-2.33-.346-.578-6.398-11.67a14.757 14.757 0 0 1-13.565 8.886c-8.175 0-15.007-6.635-15.007-14.81 0-8.201 6.838-14.809 15.007-14.809 3.791 0 7.523 1.422 10.485 4.324C53.304 76.361 62.313 93.328 64 96.47v.059c3.975 7.947 13.224 14.605 23.88 14.433 15.518-.251 26.67-12.542 26.67-26.636 0-14.75-12.105-26.657-26.855-26.657z" fill="#fff"/></svg>