<svg xmlns="http://www.w3.org/2000/svg" width="128" height="128"><g fill="#fff"><path d="M113.543 100.61L72.557 59.622 24.672 11.738H20.93l-.764 1.941c-2.017 5.125-2.879 10.367-2.492 15.158.441 5.462 2.516 10.19 6 13.675l37.382 37.381 4.93-4.93 34.56 38.644c3.438 3.438 9.355 3.642 12.997 0 3.584-3.584 3.584-9.414 0-12.998zM43.734 71.235l-29.278 29.278c-3.583 3.583-3.583 9.414 0 12.997 3.404 3.404 9.293 3.704 12.998 0L56.73 84.232zM111.823 29.141L95.215 45.75l-4.333-4.333L107.49 24.81l-4.333-4.333L86.55 37.084l-4.333-4.333 16.608-16.607-4.332-4.333L72.83 33.474a15.291 15.291 0 0 0-4.457 9.908 8.826 8.826 0 0 1-.627 2.766L81.819 60.22a8.816 8.816 0 0 1 2.766-.628 15.288 15.288 0 0 0 9.908-4.456l21.662-21.662z"/></g></svg>