<svg xmlns="http://www.w3.org/2000/svg" width="128" height="128"><path d="M22.996 96.812l1.389 1.389-2.778 2.778 5.093 4.166 36.574-39.814L86.19 42.414l1.39-2.315-.232-.231-3.241-3.241-1.156-1.159L60.959 57.46l-.926-.926-1.852-1.851-35.417 35.416zM51.64 83.044c18.025 13.456 38.44 8.983 38.44 8.983l-.036-.736.918-.18-2.096-9.703s-17.42 2.81-29.627-6.467z" fill="#fff" stroke="#323232" stroke-width="2.786"/><path d="M50.08 91.025l2-1.452 1.42 2.252.514-1.031-1.389-2.315-1.482-1.698-2.546-2.546-2.52 2.788z" fill="#323232" fill-opacity=".984"/><path d="M88.528 71.408c.322.541-.463 1.033-.463 1.033l-5.166 2.16c-.455.11-1.205-.941-1.205-.941l-6.306-12.036c-.744-.943-2.071-.892-2.071-.892l-.232-.232 6.482-6.481 1.389 1.389c.887.976-.69 1.586-.262 2.978l6.47 12.583c.705.643 1.09.18 1.364.439z" fill="#fff" stroke="#323232" stroke-width="2.786"/><path d="M88.14 49.967s.22-.221-.01-.474c-3.947 1.436-4.741-2.889-4.741-2.889l-2.546 2.547c1.53.792 2.546.231 2.546.231s2.782 2.083 4.751.585z" fill="#323232" fill-opacity=".984"/><path d="M87.348 42.646l3.472 3.472c1.177 1.553.463 2.778.463 2.778l-5.116 5.116s-1.299.851-3.01-.232l-3.472-3.472" fill="none" stroke="#323232" stroke-width="1.309" stroke-opacity=".984"/><path d="M90.125 45.423l1.62-1.62-3.24-3.24-.694.694.694.694c1.157 1.157.106 1.958.106 1.958z" fill="#323232"/><path d="M60.727 51.673l3.01 3.01L78.55 39.868l-3.009-3.01c-.463-.462-.926 0-.926 0l-13.889 13.89s-.463.462 0 .925z" fill="#fff" stroke="#323232" stroke-width="2.786"/><path d="M48.69 48.896l2.778 2.777 1.62.232 2.315 2.315.463-.463-2.315-2.315s-1.867-2.3.463-4.63l15.741-15.74c4.269-4.08 7.407-.463 7.407-.463l3.298 3.297-2.315 2.315.406.406 2.084-2.083 1.389 1.389.694-.695-5.093-5.092-4.86-4.862s-.515.122-.695.695c0 0 .778 2.532-1.852 4.63L48.922 48.2c-.522.41-.232.695-.232.695z" fill="#323232" stroke="#323232" stroke-width="2.786"/><path d="M48.922 53.294h.463l.463-.463-.463-.463.926-.926-2.315-2.315-.926.926-.463-.463-.463.463v.463z" fill="#323232"/><path d="M86.218 33.645l3.703 3.704.848-.848-.463-.462 5.834-5.897s1.393-.46 3.245 1.393c3.703 7.407 12.303 12.303 12.303 12.303l2.315-2.315s-4.896-8.6-12.304-12.303c-1.851-1.852-1.392-3.245-1.392-3.245l4.86-4.861c1.853-.463 4.37 1.646 4.453 1.574l.413-.413-5.787-5.787L87.5 33.233l-.436-.435z" fill="#fff" stroke="#323232" stroke-width="2.786"/><path d="M47.607 62.321l6.25-6.25-1.977-1.977-1.157.232-1.248 4.307-2.778 2.778zM60.959 56.534l1.62-1.62-2.523-2.523-1.62 1.62z" fill="#323232" fill-opacity=".984"/><path d="M47.437 76.773l-4.97 3.166-.46 1.118-6.343 4.057-.806 2.73-3.67 2.646a1.823 1.823 0 1 0 2.276 2.67l14.918-14.876z" fill="#7e7e7e"/><path d="M43.8 81.089l-9.923 8.116-2.455 1.484a1.554 1.554 0 0 0-.254.128 1.554 1.554 0 0 0-.49 2.142 1.554 1.554 0 0 0 2.141.49 1.554 1.554 0 0 0 .441-.419l11.211-11.327c.24-.447.025-.865-.67-.614z" fill="#323232"/><circle r="1.172" cy="87.168" cx="-9.553" transform="rotate(-45)" fill="#323232"/><circle cx="-5.75" cy="87.168" r="1.172" transform="rotate(-45)" fill="#323232"/><path d="M21.901 89.715l-7.093 6.026s-.534-.408-.91-.157l-1.546 1.546s-.228.337.039.714l18.526 15.482s.746.29 1.13.078l1.457-1.414c.078-.11.01-.367.01-.367l-1.569-1.193 2.073-2.324s.172-.383.106-.716l-1.76-4.08s-.039-.251-.305-.54l-1.307-1.128-3.86 3.798-5.399-4.583.973-.973-3.672-3.107c-.973-1.036 0-2.009 0-2.009l4.08-3.892z" fill="#323232"/><path d="M105.662 38.275l2.778-2.778M107.514 40.127l2.778-2.778M109.338 41.951l2.778-2.778" fill="none" stroke="#323232" stroke-width="1.964"/><circle r="1.465" cy="69.78" cx="2.274" transform="rotate(-45)" fill="#7e7e7e"/><path d="M63.996 64.2l-4.932-4.931 2.315-2.315" fill="none" stroke="#323232" stroke-width="2.786"/></svg>