<svg xmlns="http://www.w3.org/2000/svg" width="128" height="128"><g transform="rotate(-38.752 122.5 -37.899) scale(.13172)"><path d="M-237.13 21.38c-15.86 1.731-30.446-9.172-30.446-9.172l-204.609 18.414s-.883 78.33 7.552 120.823c38.341-13.349 88.756-39.703 175.102-75.383 5.241-1.285 12.32-2.074 19.125 9.94 18.692 5.895 30.588 8.572 30.588 8.572 9.555-43.991 46.391-63.893 86.79-67.128l-9.839-41.621c-6.507 1.73-59.622 34.612-74.262 35.556z" fill="#fff" stroke="#323232" stroke-width="19.386"/><path d="M-489.376 22.482c4.338-1.429 16.784-2.204 16.784-2.204l11.082 141.191s-17.13 7.255-22.062 6.214c-1.261-.556-3.126-2.087-3.214-3.809 2.198-31.815-8.184-105.645-4.534-137.551.42-2.504.687-3.126 1.944-3.841zM-52.746 36.594h-113.627s11.354 6.327 11.773 10.997c.322 4.42.15 14.99 15.442 17.914 7 .192 30.412 4 46.412-12 12-10.754 40-16.911 40-16.911zm-56 2.935c8 3.593 7.187 11.535 7.187 11.535.101 11.932-31.809 14.256-38.383 10.44-4.71-3.41-7.131-8.842-3.369-14.604 4.848-5.763 10.868-6.693 14.565-7.452z" fill="#323232"/><path d="M39.27-13.307l4-20.868h643.826c1.83 14.63 0 20.868 0 20.868z" fill="#323232" stroke="#323232" stroke-width="8.894"/><path d="M-144.095 47.298s3.96-.708 4.434 2.207c-.508 8.61 2.374 10.52 5.081 12.261 2.467-.702-4.173-5.899-.112-14.164 2.508-4.475 6.692-8.73 6.692-8.73s-9.458.392-16.095 8.426z" fill="#323232"/><path d="M319.254 25.075h-16v-28h16c8 0 8 28 0 28z" fill="#323232" fill-opacity=".99"/><path d="M-162.675-14.467l8.998 41.932h184.95L39.27-28.39h-155.958c-19.871 1.272-40.566 10.934-45.988 13.923z" fill="#fff" stroke="#323232" stroke-width="19.386"/><path d="M291.203 33.1H27.273l11.998-55.689h262.001c3.164 4.672 6.61 57.247-10.07 55.69z" fill="#fff" stroke="#323232" stroke-width="19.386"/><rect width="64.987" height="5.592" x="-52.442" y="-10.652" rx="4" ry="4" fill="#fff" fill-opacity=".152" stroke="#323232" stroke-width="8.623"/></g></svg>