<svg xmlns="http://www.w3.org/2000/svg" style="isolation:isolate" width="128" height="128"><path d="M32.56 101.442c-8.583-7.67-9.556-14.06-10.711-24.865-1.157-10.801.73-15.335 7.298-27.74 3.046-5.752 9.502-9.664 12.895-13.629 3.92-4.582 9.668-13.718 15.384-16.21 14.056-4.497 18.77-3.793 27.57.514 8.798 4.31 12.832 9.519 16.244 17.005 3.412 7.487 6.157 13.652 4.893 21.077-1.264 7.422 1.46 17.335-2.518 24.488-3.981 7.152-9.632 13.312-15.947 18.783-6.314 5.468-12.033 7.14-18.314 8.914-6.28 1.775-12.899 2.893-18.126 1.888-11.224-3.747-15.968-8.062-18.669-10.225z" style="isolation:isolate" fill="#fff" stroke="#323232" stroke-width="5.986"/><path style="isolation:isolate" d="M38.942 67.145c-1.759-.48-2.765-2.628-2.365-4.31.4-1.68 2.057-2.257 3.815-1.777 1.759.48 2.437 2.418 2.036 4.099-.4 1.68-1.728 2.468-3.486 1.988zM68.122 95.53c-1.817 3.146-6.5 3.843-9.568 2.072-3.068-1.771-3.358-5.34-1.542-8.487 1.817-3.147 5.926-3.327 8.994-1.556 3.068 1.771 3.932 4.823 2.116 7.97zM43.015 90.85c-1.83.62-3.99-.84-4.636-2.716-.645-1.875.47-3.456 2.3-4.076 1.831-.62 3.577.84 4.222 2.715.645 1.876-.055 3.457-1.886 4.077zM84.535 45.35c-1.502.496-2.882-.791-3.037-2.404-.156-1.614.972-2.943 2.474-3.438 1.501-.496 2.567.782 2.723 2.396.155 1.613-.659 2.95-2.16 3.446zM57.047 64.605c-.876 1.947-3.045 3.093-4.438 2.68-1.394-.412-1.485-2.228-.608-4.175.876-1.947 2.773-2.728 4.167-2.315 1.394.413 1.755 1.863.88 3.81zM55.884 39.901c-.09-3.161 2.87-6.563 5.766-7.365 2.897-.801 4.635 1.3 4.725 4.462.09 3.162-2.693 5.87-5.59 6.672-2.897.802-4.812-.607-4.901-3.769zM86.87 78.65c-1.495-1.077-1.462-2.658-.272-3.334 1.19-.676 3.086-.191 4.582.886 1.495 1.077 1.24 2.394.05 3.07-1.19.677-2.864.455-4.36-.622zM71.924 65.972c-3.802-3.105-2.885-8.454.936-11.162 3.822-2.707 9.102-1.747 12.904 1.358 3.803 3.104 2.375 7.643-1.447 10.35-3.822 2.708-8.59 2.558-12.393-.546z" fill="#a3a3a3" paint-order="fill markers stroke"/></svg>