<svg xmlns="http://www.w3.org/2000/svg" width="128" height="128"><g transform="translate(-2.345 1.241)"><path d="M38.873 112.513s2.431-.003 1.643.548l-5 5s-.821.822-2.19 0c-2.322-1.95-3.599-10.097-3.599-10.097s-.274-4.61-6.3-2.419c-1.129.394-3.924-2.364-3.627-5.484l3.231-7.725 22.46-22.46 5.958 5.958L32.002 95.28s-1.87 2.075-.96 2.873l3.425 2.331c-.724 3.287 4.406 12.028 4.406 12.028z" fill="#fff" stroke="#323232" stroke-width="2.657"/><path d="M45.928 74.241c.182-.168-.145-.49-.333-.302L33.313 86.217c-.21.198.113.507.316.29z" fill="#fff" stroke="#323232" stroke-width="1.286"/><path d="M39.917 93.685s.882 2.176-.622 3.959c-.427.427-3.732 2.293-3.732 2.293l-1.258-.385c1.703.337 3.723-.984 4.819-2.08 2.028-2.029.547-6.026-1.918-5.752l5.227-5.227s.551 1.79-.122 2.856zm-6.7 2.28s2.516 1.985 2.975 1.7c-.499-.05-1.45-.683-1.74-1.192-.304-.538-.394-1.348-.394-1.348z" fill="#323232" stroke="#323232" stroke-width=".862"/><path d="M84.978 30.82l-22.46 22.46-3.013 1.37-12.196 12.195 7.67 7.67 8.36-8.362-3.12-3.12 1.918-1.917-.822-.822 24.94-24.939 2.725-1.081-3.046-3.046z" fill="#fff" stroke="#323232" stroke-width="2.657"/><path d="M111.433 12.131l1.23 1.227L97.077 28.98l.371.366-2.709 2.737-2.584.45-.892-.911 4.216-4.209.305.305z" fill="#fff" stroke="#323232" stroke-width="2.229"/><path d="M99.13 29.166c-.51 2.056-1.755 1.755-1.755 1.755l-3.764-3.764s-.15-1.19 1.755-1.755z" fill="#323232"/><path d="M88.539 28.917l-.276-.276-.516-.226 16.676-16.71-.371-.366 3.952-3.98 1.357 1.382-3.939 3.932-.305-.305z" fill="none" stroke="#323232" stroke-width="2.229"/><path d="M96.068 18.53c-.053-.367 1.411-1.8 2.191-3.286l-1.917-1.918 1.095-1.095 3.287 1.643z" fill="#fff" stroke="#323232" stroke-width="1.508"/><path d="M65.987 68.253s.478-1.426 1.37-2.466l10.955-10.956 6.574-4.382 4.656-4.656 2.465-4.109 4.109-4.109-1.917-1.917-3.287.548-1.498-1.498-3.316 1.066-24.652 24.651.706.706-1.643 1.644z" fill="#fff" stroke="#323232" stroke-width="2.657"/><path d="M47.955 55.104l2.459 2.579s.329.637.444.472c0 0 6.63-6.592 8.988-8.345.044-.032-.494-.527-.494-.527l-2.536-2.698-8.24 7.303c-1.194 1.067-.62 1.216-.62 1.216zm-.4.17L30.322 72.507l-8.015 20.704c-1.917 4.108 2.026 5.904 3.943 2.344l8.844-20.422L50.16 60.068l-.548-.547.822-1.37z" fill="#fff" stroke="#323232" stroke-width="1.952"/><path d="M81.052 49.466c.03.037.184-.117.148-.153l-3.495-3.496c-.036-.041-.184.11-.14.146zm-3.107 1.199c.03.036.183-.118.147-.153l-2.54-2.541c-.036-.042-.184.109-.14.145zm5.674-2.857c.03.036.183-.118.147-.154l-3.948-3.949c-.037-.041-.184.109-.14.146zm1.921-1.921c.03.036.183-.118.147-.154l-3.948-3.949c-.037-.041-.184.11-.141.146zm-8.146 8.6c.03.036.183-.118.147-.154l-4.175-4.176c-.036-.041-.184.109-.14.146zm-2.226 2.226c.03.036.183-.118.147-.154l-4.175-4.176c-.037-.041-.184.109-.14.146zm-2.246 2.245c.03.037.183-.117.147-.153l-4.175-4.176c-.036-.042-.184.109-.14.146zm-2.256 2.256c.03.037.184-.117.148-.153l-4.176-4.177c-.036-.041-.184.11-.14.146zm-2.231 2.231c.03.036.184-.118.148-.154l-4.175-4.176c-.037-.041-.184.11-.141.146z" fill="#fff" stroke="#323232" stroke-width="1.171"/><circle transform="rotate(-45)" cx="-51.131" cy="84.514" r="1.414" fill="#fff" stroke="#323232" stroke-width="1.95" stroke-linejoin="round"/><circle transform="rotate(-45)" cx="-45.682" cy="82.277" r=".975" fill="#323232"/><circle transform="rotate(-45)" r="1.327" cy="88.715" cx="-55.073" fill="#323232"/><circle transform="rotate(-45)" r="1.341" cy="75.286" cx="-26.375" fill="#323232"/><circle transform="rotate(-45)" cx="-21.945" cy="75.286" r="1.341" fill="#323232"/><circle transform="rotate(-45)" cx="-17.722" cy="75.286" r="1.341" fill="#323232"/><circle transform="rotate(-45)" r="1.341" cy="75.286" cx="-13.559" fill="#323232"/><circle transform="rotate(-45)" r=".742" cy="75.139" cx="-3.033" fill="#323232"/><path d="M28.796 76.974c1.451-3.62 6.11-1.402 4.409 2.21" fill="none" stroke="#323232" stroke-width="1.561"/><path d="M26.637 95.727l4.893 3.062" fill="none" stroke="#323232" stroke-width="2.185"/></g></svg>