<svg xmlns="http://www.w3.org/2000/svg" width="128" height="128"><path d="M40.668 69.306l-1.762 6.127-1.662 3.326L9.8 106.203c5.539 3.876 14.968 14.968 14.968 14.968l4.158-4.158L45.56 82.085l4.256-3.632zm-3.371 15c.3.007.58.106.777.275l1.424 1.422c.366.649 0 1.664 0 1.664l-2.32 4.823c-.649 1.014-1.067 1.527-1.899.695l-2.904-2.904c-.24-.439-.265-.797 0-1.664l4.037-4.036c.268-.197.585-.282.885-.275zm-8.237 7.717c.681-.088 1.53 1.705 1.53 1.705s2.336 5.663 2.336 7.326l-5.82 12.475c-.438.775-.823 1.308-1.604 1.086-1.096-.05-3.178-3.682-9.881-9.245l13.306-13.304a.374.374 0 0 1 .133-.043zm10.11-29.321l1.663-6.653 3.848-3.848 3.355 3.298-8.034 8.034zm45.242-18.245l2.057 1.37 4.812 2.502-5.923 7.538-4.158 4.158-2.495-2.495-9.98 9.98.833 4.157 1.663 1.664 4.585 12.046 1.236 2.091-9.98 1.663-4.157-15.8s-2.638-2.465-7.515 1.679l.432-1.962 2.027-2.028z" fill="#fff" stroke="#323232" stroke-width="2.489"/><path d="M42.467 66.007l55.718-55.718 8.316 6.652 1.663 1.664 2.495 4.158-1.663 1.663-3.327-3.327L89.87 36.9l-1.664 3.327-1.663 1.663-2.34-1.607-1.818.775-29.938 29.938-.832 4.158zM89.605 14.01s-.225-3.58-1.663-5.864l1.635-1.691 5.455 2.128z" fill="#fff" stroke="#323232" stroke-width="2.489"/><path d="M81.237 61c.208.207 2.042 5.106 1.16 6.507l-5.046 5.086c-1.435.424-4.867.168-6.354-.743l4.69-.92 5.582-5.582zm-9.225 5.334l-.467.467s1.14 1.457 2.27 1.44c-1.097-.785-1.803-1.907-1.803-1.907z" fill="#fff" stroke="#323232" stroke-width="1.623"/><path d="M94.052 50.104l-4.556 5.953c7.046 4.198 19.442 7.863 28.26 8.222l.949-7.943s-1.947.237-2.628.138c-7.14-1.04-15.861-3.289-22.025-6.37zm-28.065-2.157l2.302 2.302 9.98-9.98-2.35-2.35z" fill="#fff" stroke="#323232" stroke-width="2.489"/><path d="M90.997 28.812c.34.34.441.792.225 1.009l-5.835 5.835c-.217.216-.668.116-1.009-.225-.34-.34-.44-.792-.224-1.009l5.834-5.834c.263-.268.717-.06 1.01.224zm9.294-9.442c.34.34.441.792.224 1.01l-5.834 5.834c-.217.216-.669.116-1.009-.225-.34-.34-.441-.792-.224-1.009l5.834-5.834c.263-.268.717-.06 1.009.224z" fill="#fff" stroke="#323232" stroke-width="1.353"/><path d="M106.12 12.332l2.24 1.835 4.119-4.198-1.998-1.997z" fill="#fff" stroke="#323232" stroke-width="2.489"/><path d="M105.496 25.671l1.923 1.923-.753 1.16s-.265.535.357 1.007c2.075 1.575 6.665 5.27 7.467 7.732l-2.828 2.829c-2.466-.791-6.147-5.368-7.724-7.452-.477-.631-.948-.44-.948-.44l-1.228.82-1.923-1.922z" fill="#fff" stroke="#323232" stroke-width="2"/></svg>