<?xml version="1.0" encoding="UTF-8" standalone="no"?>
<svg
   xmlns:dc="http://purl.org/dc/elements/1.1/"
   xmlns:cc="http://creativecommons.org/ns#"
   xmlns:rdf="http://www.w3.org/1999/02/22-rdf-syntax-ns#"
   xmlns:svg="http://www.w3.org/2000/svg"
   xmlns="http://www.w3.org/2000/svg"
   xmlns:xlink="http://www.w3.org/1999/xlink"
   xmlns:sodipodi="http://sodipodi.sourceforge.net/DTD/sodipodi-0.dtd"
   xmlns:inkscape="http://www.inkscape.org/namespaces/inkscape"
   width="128"
   height="128"
   version="1.1"
   id="svg33"
   sodipodi:docname="loot-melee-knuckles-rusted.svg"
   inkscape:version="0.92.2 (5c3e80d, 2017-08-06)">
  <metadata
     id="metadata37">
    <rdf:RDF>
      <cc:Work
         rdf:about="">
        <dc:format>image/svg+xml</dc:format>
        <dc:type
           rdf:resource="http://purl.org/dc/dcmitype/StillImage" />
        <dc:title />
      </cc:Work>
    </rdf:RDF>
  </metadata>
  <sodipodi:namedview
     pagecolor="#ffffff"
     bordercolor="#666666"
     borderopacity="1"
     objecttolerance="10"
     gridtolerance="10"
     guidetolerance="10"
     inkscape:pageopacity="0"
     inkscape:pageshadow="2"
     inkscape:window-width="1920"
     inkscape:window-height="1017"
     id="namedview35"
     showgrid="true"
     inkscape:zoom="3.6875"
     inkscape:cx="-1.3163648"
     inkscape:cy="91.714723"
     inkscape:window-x="1912"
     inkscape:window-y="-8"
     inkscape:window-maximized="1"
     inkscape:current-layer="svg33">
    <inkscape:grid
       empspacing="4"
       spacingy="4"
       spacingx="4"
       type="xygrid"
       id="grid986" />
  </sodipodi:namedview>
  <defs
     id="defs23">
    <linearGradient
       id="linearGradient841">
      <stop
         id="stop835"
         offset="0"
         stop-color="#362618"
         style="stop-color:#2a2119;stop-opacity:1" />
      <stop
         id="stop837"
         offset=".482"
         stop-color="#946941"
         style="stop-color:#715032;stop-opacity:1" />
      <stop
         id="stop839"
         offset="1"
         stop-color="#3b140e"
         style="stop-color:#2e1e1b;stop-opacity:1" />
    </linearGradient>
    <linearGradient
       inkscape:collect="always"
       xlink:href="#linearGradient841"
       id="linearGradient976"
       x1="26.066183"
       y1="64"
       x2="101.93382"
       y2="64"
       gradientUnits="userSpaceOnUse"
       gradientTransform="matrix(0,0.75391842,-0.75391842,0,112.25077,15.749219)" />
  </defs>
  <path
     inkscape:connector-curvature="0"
     style="fill:url(#linearGradient976);fill-opacity:1;stroke:#000000;stroke-width:3.01567388;stroke-miterlimit:4;stroke-dasharray:none;stroke-opacity:1"
     d="m 95.393607,47.911943 c -2.915947,-1.08e-4 -5.592571,1.014291 -7.70386,2.706312 0.04977,-0.452096 0.07831,-0.910573 0.07727,-1.375428 3e-6,-6.812418 -5.521676,-12.334097 -12.333992,-12.333994 -5.234675,3e-6 -9.705051,3.261088 -11.495459,7.861739 -1.790512,-4.600547 -6.261722,-7.862678 -11.495459,-7.861736 -6.812417,-3e-6 -12.334098,5.521678 -12.333993,12.333994 -0.0015,0.42669 0.02111,0.849202 0.06348,1.264181 -2.089017,-1.625214 -4.712736,-2.595068 -7.565117,-2.595176 -6.812416,3e-6 -12.335141,5.522727 -12.335141,12.335145 0,6.812417 5.522725,12.335145 12.335141,12.335142 2.079401,3e-6 4.036161,-0.516608 5.754635,-1.424149 1.360581,1.714187 3.532198,5.037798 4.114464,9.353533 C 38.86831,79.568101 36,79.224473 32.327947,78.093839 c 1.000495,3.24948 2.000141,5.279665 2.999591,8.530191 8.807128,2.956204 18.416929,4.449154 28.673613,4.467134 10.256685,-0.018 19.865334,-1.50978 28.671422,-4.464937 0.999442,-3.250527 1.999096,-5.280712 2.99959,-8.530195 -3.672163,0.862313 -6.540262,1.47228 -10.146591,2.416627 0.582375,-4.315634 2.755038,-7.640288 4.115512,-9.354582 1.718478,0.907333 3.675128,1.424048 5.753587,1.423105 6.812419,0 12.334099,-5.52168 12.333989,-12.333995 10e-5,-6.812519 -5.52273,-12.335349 -12.335038,-12.335244 z m -27.442159,1.33193 c 0,-4.133496 3.349018,-7.482513 7.481573,-7.481573 4.131406,3e-6 7.480421,3.349019 7.480424,7.480423 0,4.131407 -3.349018,7.480426 -7.481575,7.481574 -4.131407,0 -7.480422,-3.349017 -7.480422,-7.480424 z m -22.989872,-0.0011 c 0,-4.131406 3.349019,-7.480425 7.480424,-7.480422 4.13245,-0.0011 7.481467,3.347973 7.480423,7.480422 10e-4,4.132451 -3.347972,7.481467 -7.480423,7.480424 -4.131405,-3e-6 -7.480424,-3.349019 -7.480424,-7.480424 z m -12.35522,18.485691 c -4.131405,3e-6 -7.481472,-3.350062 -7.481574,-7.481572 0.0015,-4.13245 3.35006,-7.481467 7.481574,-7.481573 4.131515,-1.02e-4 7.481466,3.350065 7.48158,7.481573 9.8e-5,4.13151 -3.349021,7.480424 -7.48158,7.481572 z m 50.453258,-7.482528 c 0,1.391214 0.233995,2.726387 0.657549,3.97363 C 79.180185,71.274447 77.362177,76 76,81.912236 71.252343,82.697867 69.169101,83.089532 64.001028,83.10762 58.83515,83.08964 56.748704,82.697867 52,81.91119 50.993272,76 48.821974,71.27434 44.283849,64.21852 c 0.424601,-1.246197 0.658596,-2.58137 0.657549,-3.97154 0,-0.427839 -0.02113,-0.849199 -0.06346,-1.264181 2.089018,1.625213 4.712733,2.595069 7.564066,2.594127 5.233628,0.0011 9.704005,-3.26004 11.49546,-7.861736 1.790513,4.600545 6.261721,7.862676 11.49441,7.862779 2.916053,3e-6 5.594766,-1.014394 7.705951,-2.706311 -0.04967,0.451993 -0.07821,0.910468 -0.07821,1.374278 z m 19.815566,0.0011 c 0,4.131407 -3.349021,7.480426 -7.480426,7.480423 -4.132449,0.0011 -7.481464,-3.347971 -7.48042,-7.480423 -0.0011,-4.13245 3.347971,-7.481466 7.48042,-7.480422 4.131412,0 7.480426,3.349019 7.480426,7.480422 z"
     id="path2"
     sodipodi:nodetypes="cccccccccsccccccccccccccscscsscccsccscccccccccccccccscccs" />
  <g
     transform="matrix(0.51157089,0,0,0.51157089,-323.78463,75.431635)"
     id="g14" />
  <g
     transform="matrix(0.51157089,0,0,0.51157089,-323.78463,75.431635)"
     id="g16" />
  <g
     transform="matrix(0.51157089,0,0,0.51157089,-323.78463,75.431635)"
     id="g18" />
  <g
     transform="matrix(0.51157089,0,0,0.51157089,-323.78463,75.431635)"
     id="g20" />
  <g
     transform="matrix(0.51157089,0,0,0.51157089,-323.78463,75.431635)"
     id="g22" />
  <g
     transform="matrix(0.51157089,0,0,0.51157089,-323.78463,75.431635)"
     id="g24" />
  <g
     transform="matrix(0.51157089,0,0,0.51157089,-323.78463,75.431635)"
     id="g26" />
  <g
     transform="matrix(0.51157089,0,0,0.51157089,-323.78463,75.431635)"
     id="g28" />
  <g
     transform="matrix(0.51157089,0,0,0.51157089,-323.78463,75.431635)"
     id="g30" />
  <g
     transform="matrix(0.51157089,0,0,0.51157089,-323.78463,75.431635)"
     id="g32" />
  <g
     transform="matrix(0.51157089,0,0,0.51157089,-323.78463,75.431635)"
     id="g34" />
  <g
     transform="matrix(0.51157089,0,0,0.51157089,-323.78463,75.431635)"
     id="g36" />
  <g
     transform="matrix(0.51157089,0,0,0.51157089,-323.78463,75.431635)"
     id="g38" />
  <g
     transform="matrix(0.51157089,0,0,0.51157089,-323.78463,75.431635)"
     id="g40" />
  <g
     transform="matrix(0.51157089,0,0,0.51157089,-323.78463,75.431635)"
     id="g42" />
</svg>
