<svg xmlns="http://www.w3.org/2000/svg" width="128" height="128"><path d="M63.305 70.66c14.418 10.763 30.748 7.184 30.748 7.184l-.03-.588.736-.144-1.677-7.761s-14.054 2.127-23.818-5.293zM58.87 96.721c.283.476-.407.908-.407.908s-2.206 2.266-3.865 1.457c-.464-.302-.947-.875-.947-.875l-3.625-8.135c-1.178-1.177-3.107-1.331-3.107-1.331l-.203-.203 5.696-6.177.648.8c.78.858-.327 1.718.048 2.941l4.25 9.065c.62.565 1.271 1.323 1.512 1.55zM39.305 83.728l4.386 3.353 28.626-31.207-4.882-4.882 4.438-4.438-1.331-1.331-31.953 31.953z" fill="#fff" stroke="#323232" stroke-width="2.5"/><path d="M59.444 78.504c.407-.671.08-.92-.315-.92-3.468 1.263-3.352-2.68-3.352-2.68l-2.746 2.883c1.344.696 2.237.203 2.237.203 1.566 1.003 3.01 1.313 4.176.514z" fill="#323232" fill-opacity=".984"/><path d="M58.763 70.8l3.743 3.743c1.035 1.366.407 2.441.407 2.441l-4.496 4.497s-1.141.748-2.645-.204l-3.743-3.743" fill="none" stroke="#323232" stroke-width="2" stroke-opacity=".984"/><path d="M15.163 114.639l10.329 7.58c.48.15 1.066-.775 1.066-.775l15.39-31.533-4.28-3.313-5.798 8.451s-1.168 1.28-3.253 1.919zM72.1 51.004l3.107 3.106c.527.256 1.332-.443 1.332-.443l1.775-4.438 11.095-11.095s.406-.662 0-.888l-5.77-5.769-11.343 10.847 4.243 4.242z" fill="#fff" stroke="#323232" stroke-width="2.5"/><path d="M103.951 6.488c-.444.444 0 .887 0 .887l1.331 1.332 1.776 4.438.443.443-6.527 6.528s-2.46 1.993-6.657.444l-7.544 7.544-.444-.444-.688.689-1.087 1.087 7.132 7.132 1.087-1.087-.476-.475 21.861-21.861v-.888l-.443-.444-.245.245-.444-.444 1.576-1.576-1.775-1.775-1.331 1.331-4.882-4.881s-.444-.444-.888 0zm-14.96 23.835l6.657-6.657.888.888-6.657 6.657zm2.516 2.81l6.804-6.804.444.444-7.167 7.167zm11.242-11.242l7.677-7.677.979-.09-8.212 8.21z" fill="#323232"/></svg>
