<svg xmlns="http://www.w3.org/2000/svg" xmlns:xlink="http://www.w3.org/1999/xlink" style="isolation:isolate" width="128" height="128"><defs><linearGradient id="a"><stop offset="0" stop-color="#bc3400"/><stop offset="1" stop-color="#ff8050"/></linearGradient><linearGradient xlink:href="#a" id="b" gradientUnits="userSpaceOnUse" gradientTransform="translate(-181.528 .095)" x1="-6.068" y1="117.021" x2="92.569" y2="29.732"/></defs><path style="isolation:isolate" d="M-172.064 23.992v95.235l6.995 7.322h82.71s-10.577-11.648 0-20.055V15.459l-83.349.14z" fill="url(#b)" transform="translate(190.56 -7.24)"/><path style="isolation:isolate" d="M105.815 101.55a5.106 5.106 0 0 0 4.297-5.034V11.09a5.104 5.104 0 0 0-5.099-5.098H29.784c-6.56 0-11.896 5.337-11.896 11.896v92.224c0 6.56 5.337 11.896 11.896 11.896h75.23a5.104 5.104 0 0 0 5.098-5.098 5.106 5.106 0 0 0-4.297-5.035 7.924 7.924 0 0 1 0-10.324zm-5.183 3.463s-.374 2.017 0 3.4c0 0 .539 2.319 1.083 3.398h-71.93c-.938 0-1.7-.762-1.7-1.7v-6.798c0-.936.762-1.699 1.7-1.699h71.93c-.544 1.08-1.083 3.4-1.083 3.4zm6.08-93.923V91.71a5.077 5.077 0 0 0-1.699-.291h-73.53V9.39h73.53c.938 0 1.7.762 1.7 1.7zm-85.425 6.798c0-4.103 2.924-7.536 6.798-8.326v81.98a11.874 11.874 0 0 0-6.798 3.454zm83.726 100.721H29.784c-4.685 0-8.497-3.812-8.497-8.497v-6.798c0-4.686 3.812-8.497 8.497-8.497h75.23c.937 0 1.699.762 1.699 1.7 0 .936-.762 1.699-1.7 1.699H29.784a5.104 5.104 0 0 0-5.098 5.098v6.798a5.104 5.104 0 0 0 5.098 5.098h75.23c.937 0 1.699.762 1.699 1.7 0 .937-.762 1.699-1.7 1.699z" stroke="#000" stroke-width="2"/><path d="M34.107 45.913l-5.493 3.185 2.542 4.385 5.513-3.196 1.77-1.027 1.772-1.027 12.229 7.052 14.774-8.542-.01-17.065-12.24-7.057V7.932h-5.068V22.614l-12.25 7.081.008 14.161-1.773 1.028zM69.105 49.454L54.33 57.995v.295l.01 16.77 12.24 7.058v9.728h5.069v-9.72l12.25-7.083-.01-17.065L69.36 49.6zM70.807 29.695l.01 17.065 14.784 8.525 14.774-8.542-.008-14.266 8.859-5.136-2.543-4.386-8.963 5.197-12.139-6.998z"/></svg>