<svg xmlns="http://www.w3.org/2000/svg" width="128" height="128"><path d="M61.455.662v6.562C32.12 8.522 8.522 32.12 7.225 61.455H.661v5.09h6.562c1.298 29.336 24.895 52.933 54.231 54.23v6.563h5.09v-6.562c29.336-1.298 52.933-24.895 54.23-54.231h6.563v-5.09h-6.562C119.478 32.12 95.88 8.522 66.545 7.225V.661zm0 11.656v4.113h5.09v-4.113c26.58 1.283 47.854 22.558 49.137 49.137h-5.61v5.09h5.61c-1.283 26.58-22.558 47.854-49.137 49.137v-4.413h-5.09v4.413c-26.58-1.283-47.854-22.558-49.137-49.137h5.111v-5.09h-5.111c1.283-26.58 22.558-47.854 49.137-49.137z" fill="#fff"/><text style="line-height:1.25;-inkscape-font-specification:Arial" x="42.611" y="90.665" font-weight="400" font-size="39.912" font-family="Arial" letter-spacing="0" word-spacing="0" fill="#fff" stroke-width=".998"><tspan x="42.611" y="90.665" style="-inkscape-font-specification:Arial" font-size="74.502">4</tspan></text></svg>