<svg xmlns="http://www.w3.org/2000/svg" width="128" height="128"><g><path fill="#323232" d="M46.686 35.6l39.796-22.977 1.647 2.854-39.795 22.976z"/><path d="M19.862 62.185s-.393-7.588 1.378-11.894l24.733-14.28 1.923 3.33L87.85 16.273l-.734-4.016 4.995-2.883 4.805 8.324z" fill="#fff" stroke="#323232" stroke-width="2.539"/><path d="M15.072 54.62a1.996 1.996 0 0 0-.893 1.078c-.394 2.284 1.961 2.45 3.597 4.52-.19-1.637.178-4.735.637-6.617-1.215.462-2.477.506-3.342 1.02zm.465.714a1.09 1.09 0 1 1 1.088 1.888 1.09 1.09 0 0 1-1.088-1.888zm6.67-10.008l1.776 1.479-2.261 1.305-.282-2.341zM86.331 8.054l.33 1.422-.952.549.179 1.044 5.5-3.176c-2.639-1.778-5.056.161-5.056.161z" fill="#323232"/><path d="M19.984 65.762c-.695 2.489-.183 3.81-3.272 6.602 0 0-.498 1.562.207 1.145 5.83-3.87 10.518-1.865 12.743 2.196 3.323 11.007 1.593 27.772 8.558 35l19.951-11.518-6.403-24.03c.503-6.633 7.06-5.345 9.915-6.993l12.366-7.14 8.738-26.607 10.464-6.042c.004-.2-2.011-3.753-2.011-3.753zm32.681-9.947l10.78-6.223c2.842-1.642 6.741-.14 8.013 2.063 1.272 2.203.587 6.27-2.254 7.91l-10.78 6.223c-2.842 1.641-7.272.528-8.545-1.674-1.27-2.203-.055-6.658 2.786-8.299z" fill="#fff" stroke="#323232" stroke-width="2.523"/><path d="M55.836 55.05c-1.92 4.914-1.125 5.732 3.576 8.083 0 0-.522.22-.85.174 0 0-2.952-1.027-3.963-2.469-.842-1.599-1.135-2.516-1.008-4.492z" fill="#323232" stroke="#323232" stroke-width=".689"/><path d="M44.883 64.42l-4.098 2.376a3.43 3.43 0 0 1-1.61 3.803 3.43 3.43 0 0 1-4.091-.498l-3.254 1.886s2.092 3.774 2.842 6.265c1.004 7.824 2.612 15.13 3.642 23.344l4.287-2.465c-.601-1.511.106-3.308 1.514-4.122 1.409-.811 3.42-.577 4.427.698l3.237-1.885-4.865-19.51c-2.953-1.21-3.555-4.754-1.638-6.616z" fill="none" stroke="#323232" stroke-width="3"/><circle transform="rotate(-30)" r="2.06" cy="118.158" cx="-21.443" fill="none" stroke="#323232" stroke-width="1.648"/><path d="M80.782 39.921l1.59.516.452 1.318 1.59.515c.752.39.855 1.062.673 1.537l-2.192 6.758-2.65-.86-.946 2.915-1.053.537-1.59-.515z" fill="#fff" stroke="#323232" stroke-width="2.039"/><path d="M112.832 52.792s-.017.971-.48 1.48l-6 .344-15.985-5.185-4.704 2.4-10.656-3.457c-2.768-1.552-1.424-5.696 1.728-5.328l8.88 2.88 2.352-1.2z" fill="#323232" stroke="#323232" stroke-width="2.039"/><path fill="#fff" stroke="#323232" stroke-width="1.935" stroke-linecap="round" d="M93.655 22.875l4.864-2.808 2.135 3.698-4.864 2.808z"/><path d="M94.418 8.676l3.53 6.115 14.358-8.289c-.523-2.434-1.74-4.543-3.531-6.115zm3.426.241l1.487-.858 1.647 2.854-1.486.858zm3.469-2.002l1.486-.858 1.648 2.854-1.487.858zm3.468-2.003l1.487-.858 1.647 2.854-1.486.858z" fill="#323232"/><path d="M58.538 102.543l3.272 13.746-14.454 8.345-2.797-14.02z" fill="#323232" stroke="#323232" stroke-width="2.197"/><path d="M42.072 108.342l-4.995 2.883.736 2.8c2.008-2.208 3.892-2.935 3.892-2.935l1.558 1.149zM46.478 126.41l18.312-10.573.55.95-15.935 9.2c.153.976-.978 2.15-2.378 1.373z" fill="#323232"/><circle transform="rotate(-30)" cx="6.664" cy="85.189" r="1.96" fill="#323232"/><path d="M23.454 50.281l.167 6.88 17.123-9.886-.076-3.127-6.53 3.77a1.096 1.096 0 0 1-1.5-.403 1.096 1.096 0 0 1 .402-1.5l7.567-4.369-.03-1.25z" fill="#323232"/><path d="M35.175 51.124L34.65 40.33M26.465 56.153l-.525-10.795M38.004 49.491l-.525-10.795" fill="none" stroke="#fff" stroke-width=".51"/><rect transform="rotate(-30)" width="17.195" height="1.406" x="4.911" y="56.773" rx=".816" ry=".816" fill="#323232"/><rect transform="rotate(-30)" width="5.725" height="2.197" x="31.853" y="71.199" rx="1.294" ry="1.323" fill="#323232"/><circle transform="rotate(-30)" r="1.479" cy="69.721" cx="31.42" fill="#323232"/><circle transform="rotate(-30)" cx="43.144" cy="77.805" r="1.644" fill="#fff"/><circle transform="rotate(-30)" r="1.447" cy="77.108" cx="-1.395" fill="#323232"/><circle transform="rotate(-30)" cx="-9.242" cy="107.829" r="1.381" fill="#323232"/><path d="M29.468 54.42l-.525-10.796M32.311 52.778l-.524-10.796" fill="none" stroke="#fff" stroke-width=".51"/></g></svg>