<svg xmlns="http://www.w3.org/2000/svg" width="128" height="128"><g transform="rotate(-37.726 291.688 -22.86) scale(.13923)"><path d="M290.63-667.236s15.006-.479 15.636 11.68c1.183 16.485-23.405 28.208-34.018 21.755-19.415-12.502-4.085-28.456-4.085-28.456s-6.524 5.857-9.208 7.296c0 0-2.488.799-7.713 2.285-6.581 1.872 16.162 27.751 16.93 29.652 22.954 4.286 47.743-7.91 45.677-33.64-.675-6.837 3.975-18.455 3.975-18.455z" fill="#323232"/><path d="M268-700s-79.546 27.093-92 28c-27.02-.797-28.558-15.336-42-22-4.036-.693-216 14-216 14-4.219.959 12 78.219 10 112.219L276-672z" fill="#fff" stroke="#323232" stroke-width="20.489"/><path d="M450-692H332s-9.398 3.781-14 8c0 0-28.577 6.63-42 12l-8-28c16-6 24.214-33.519 38-34h144z" fill="#fff" stroke="#323232" stroke-width="20.489"/><path d="M458-718v-24h48c38 4.8 74 4.8 74 4.8h397.424v19.2z" fill="#323232"/><path d="M661.695-688.916c-1.758 2.117-10.551 2.132-12.306.021l-.082-51.261c1.747-2.117 10.54-2.132 12.305-.021z" fill="#323232"/><rect ry="6.083" rx="10.164" y="-728.994" x="346.124" height="12.962" width="81.999" transform="skewX(.015)" fill="#323232"/><circle transform="rotate(-.094)" cx="303.328" cy="-700.339" r="5.364" fill="#323232"/><path d="M974.079-741.777s-2.655-4.223-3.44-8.038c0 0-3.215-2.185-5.215-6.185h-8c-.48 2.78-4 6-4 6s-10 4-26 4c-2 0-2 4-2 4zM692-694v-16h12v16zM278.466-730.37s-1.85-3.702-3.384-3.798c0 0-5.658.38-7.47-.912-6.051-8.212-12.3-3.178-12.3-3.178 4.986 4.122 13.598 5.584 12.864 11.125-11.125 3.89-16.52 9.707-19.44 18.12 0 0 11.371-2.158 16.895-6.351 4.544-3.45 12.835-15.006 12.835-15.006zM253.958-653.263c-2.876.48-9.925 2.304-9.925 2.304l-60.778 19.857c-14.272 6.375-8.711 25.262-8.711 25.262.573 2.092 6.589 15.726 19.236 12.912l60.93-19.025c7.604-2.56 9.21-10.211 14.628-11.207zm3.916 19.568s3.89 8.276-6.996 11.839l-57.406 17.713c-7.808 2.324-10.183-5.614-10.183-5.614s-3.287-9.24 6.075-12.794l54.79-17.212c9.33-2.982 13.042 4.622 13.042 4.622zM268.116-661.374l3.136 3.564c.51 12.632 8.697 16.332 13.395 17.451 3.143-2.22-8.277-4.31-6.635-18.028l2.325-6.909zM504-737.777s2.828-6.408 4-10.223c0 0 3.013-2 6-6h6c.716 2.78 12 8 12 8s21.121 4 45.013 4c2.987 0 2.987 4 2.987 4zM346-670l-8-8h100l-8 8z" fill="#323232"/><path d="M678-702l-212 10h-14v-36h226z" fill="#fff" stroke="#323232" stroke-width="20.489"/><path d="M110.677-709.098c16.9 4.963 14.094 34.36-5.288 41.22-23.848 8.442-72 24.78-120 30.78-29.07 2.925-27.998-59.797-8-67.797 12.746-3.525 133.288-4.203 133.288-4.203z" fill="#323232"/></g></svg>