<svg xmlns="http://www.w3.org/2000/svg" width="128" height="128"><ellipse cx="367.166" cy="-278.414" fill="#7e7e7e"/><g transform="rotate(-44.999 68.29 -30.986) scale(.24005)"><path d="M-46.93 155.176s-12.905-7.141-2.686-23.512l-6.466 3.128c-6.084 12.413 3.544 20.845 6.468 21.16 1.841.093 2.685-.776 2.685-.776z" fill="#323232"/><path d="M-134 121.017c-12.273 9.204-42 7.507-42 7.507-84.949-.383-123.781-2.575-128 .493 7.67 32.215 2 76.983 2 76.983.192 2.876 4 2 4 2l156-4c10.355-2.493 22 6 22 6h32c-2-8 5.975-42.716 10-54h4l-8-18h-21.898v-16.983zM-262.548 146H-214s9.725 4.76 10 14c.678 5.695-4 19.26-4 19.26-1.492 5.424-10 8.74-10 8.74h-36s-10.339-2.02-14-9.206L-272 158c-.096-6.04 1.877-10.274 9.452-12zm94.548-2h32.493s10.644 2.58 12 10.987c.135 2.577-8 23.013-8 23.013-5.83 9.22-14 10-14 10H-174s-7.624-.603-12-10c-.407-2.712 8-26 8-26 2.576-6.373 10-8 10-8z" fill="#fff" stroke="#323232" stroke-width="11.554"/><path d="M-104.034 121.017v18.051H-82l6 20h10v-16.474l14-8h32.644v20.44l45.356-12v-42.729H8l-6-2h-96l-9.835 8v14.712zM24.625 159.683l6.874 30.14-35.974 8.105-6.422-28.624zM42 104v34l44-8s4.658-1.22 6-4v-22z" fill="#fff" stroke="#323232" stroke-width="11.554"/><path d="M316.151 98c3.849 6 3.849 24 0 30H108l-2-2h-4v-26h4l2-2zM108 96h36v-4s-4-6-6-6h-2.001c-6 0-9.999 6-9.999 6h-12l-2-2h-4zM300.056 96h16v-4h-4v-4c0-2-2-2-2-2h-8c-2 0-2 2-2 2zM-66.068 158.487h41.293v4.021h-41.293zM-100.356 108.702H-26V114h-74.356z" fill="#323232"/><path fill="none" stroke="#323232" stroke-width="8" stroke-linecap="round" stroke-miterlimit="10" d="M-24.969 104.987h47.903v16.724h-47.903z"/><circle cx="-69.622" cy="128.595" r="4.658" fill="#323232"/><path d="M-70.116 125.439l9.773-5.854 21.541-2.543c1.966 1.87.959 5.405.959 5.405l-21.104 2.375-7.644 4.926z" fill="#323232"/><path d="M-298.542 130.373c4.203 15.186 4.474 32 4.474 32 .271 21.56-3.39 41.356-3.39 41.356" fill="none" stroke="#323232" stroke-width="8"/></g></svg>