<svg xmlns="http://www.w3.org/2000/svg" width="128" height="128"><g transform="rotate(-30 64 64)"><path d="M45.154 54.883V33.575c-7.457 2.13-11.72 11.009-6.037 17.402 0 0-5.303.608-6.392 3.196v2.84h5.327v8.524l38.17-7.103 1.42-7.457 1.776-2.486V33.93l-9.588-.71v21.668zM83.837 34.781l-.02 7.317h44.908l-.06-7.317H83.838z" fill="#fff" stroke="#323232" stroke-width="3"/><path d="M65.669 33.904s-7.519 0-9.925-1.024h-6.616v17.744h6.616c2.406-1.023 9.925-1.023 9.925-1.023v-5.814l-8.42.013c-.65 0-1.175-1.166-1.175-1.901 0-.736.526-1.853 1.174-1.853l8.42.027z" fill="#fff" fill-opacity=".975" stroke="#323232" stroke-width="3"/><path d="M54.362 75.65s-5.54 1.329-8.622.478c-4.451-1.664-3.041-6.216-8.608-7.204-.613-.578-.579-2.083-.579-2.083l10.332-2.006s-2.29 1.21-2.868 2.52c0 0-1.595 4.345 2.3 6.78 1.99 1.024 7.704-.375 7.704-.375 2.026-.372 3.004-2.344 3.004-2.344.989-2.91-.207-5.304-.207-5.304s-1.253-2.212-4.526-2.189l8.703-1.568c-.907 1.28-1.896 1.29-1.862 3.486 0 0 .772 4.878-.437 6.768-1.097 1.563-2.468 2.591-4.334 3.042z" fill="#323232"/><path d="M33.801 68.378s-.193-.355-.193-.71v-6.381H28.35v-4.983c-8.423 1.244-13.71 3.87-20.929 24.845-.885 3.132-5.107 13.347-5.107 13.347l26.86-.068c-2.248-7.082-6.677-22.304 4.627-26.05z" fill="#fff" stroke="#323232" stroke-width="3"/><path d="M118.468 33.546v-2.13c.157-1.066 1.776-1.066 1.776-1.066h3.196c2.131.554 2.841 3.196 2.841 3.196z" fill="#323232"/><path d="M83.837 40.798l-.02 5.814h38.07l-.06-5.814h-37.99z" fill="#fff" stroke="#323232" stroke-width="3"/><path d="M36.56 42.735c-.589-.81-.245-1.64-2.873-3.585-2.482-2.04-1.5-4.334-5.621-6.07 3.336-3.952 5.478 2.56 9.233 3.034 1.351.261 3.73-.61 3.73-.61s-5.113 4.65-4.47 7.23z" fill="#323232" stroke="#323232" stroke-width=".95"/><path d="M49.281 64.282c-2.442 2.792-.792 6.907.872 8.157.508.59-.377 1.168-.692 1.015a2.72 2.72 0 0 1-.04-.02c-1.34-.676-4.139-2.993-3.447-8.286 0 0 .4-1.864 1.725-1.106z" fill="#323232"/><circle cx="42.902" cy="59.424" r="1.907" fill="#323232"/><circle r="3.014" cy="78.542" cx="17.91" fill="#323232"/></g></svg>