<svg xmlns="http://www.w3.org/2000/svg" width="128" height="128"><path d="M4.596 41.613v53.108l74.4 20.636V62.252zm2.371 16.223l14.186 4.037v2.625l-7.406 18.71-4.815-1.37 7.44-17.543-9.405-2.674zm25.791 7.504c.894-.012 1.852.125 2.871.41l.707.201v3.865l-.257-.074c-1.707-.475-3.064-.346-4.073.387-.998.725-1.605 1.969-1.82 3.732.977-.838 2.201-1.047 3.672-.629 1.696.483 3.048 1.592 4.057 3.328 1.02 1.74 1.529 3.816 1.529 6.231 0 1.535-.29 2.839-.87 3.908-.579 1.07-1.395 1.798-2.447 2.186-1.04.38-2.22.381-3.54.006-2.126-.605-3.834-1.945-5.122-4.018-1.277-2.07-1.916-4.548-1.916-7.435v-1.692c0-2.587.402-4.737 1.207-6.451.816-1.71 1.986-2.869 3.51-3.477a6.878 6.878 0 0 1 2.492-.478zm13.326 3.553a7.449 7.449 0 0 1 1.94.302c2.093.596 3.713 1.637 4.861 3.123 1.16 1.479 1.74 3.281 1.74 5.407 0 1.32-.322 2.57-.966 3.75-.634 1.172-1.787 2.512-3.461 4.021l-3.012 3.443 7.97 2.268v3.783l-13.814-3.93v-3.22l6.344-6.262c.805-.887 1.396-1.695 1.771-2.426a4.835 4.835 0 0 0 .579-2.267c0-1.042-.182-1.91-.547-2.604-.354-.691-.869-1.132-1.545-1.324-.74-.21-1.332-.036-1.772.525-.429.565-.644 1.47-.644 2.715l-4.572-1.3c0-1.439.294-2.668.884-3.692.601-1.02 1.439-1.705 2.512-2.055a5.293 5.293 0 0 1 1.732-.257zM31.624 76.5a1.465 1.465 0 0 0-.665.223c-.386.255-.675.623-.869 1.105v1.643c0 1.653.22 2.95.66 3.89.44.941 1.02 1.514 1.739 1.719.73.208 1.316-.017 1.756-.676.44-.669.66-1.62.66-2.855 0-1.256-.232-2.343-.694-3.258-.45-.923-1.046-1.489-1.787-1.7a2.214 2.214 0 0 0-.8-.091zm-11.336 3.916a2.99 2.99 0 0 1 1.066.127 3.717 3.717 0 0 1 1.9 1.248c.505.605.756 1.279.756 2.02 0 .75-.258 1.284-.773 1.6-.505.306-1.132.353-1.883.14a3.761 3.761 0 0 1-1.9-1.235c-.494-.602-.74-1.273-.74-2.013 0-.73.24-1.263.724-1.598.247-.166.53-.262.85-.29zM56.44 87.51l1.92.547.058.742c.46-.45 1.067-.568 1.82-.354.784.223 1.337.734 1.66 1.531.45-.577 1.091-.748 1.923-.511 1.373.39 2.075 1.542 2.11 3.45v5.142l-2.052-.584V92.46c0-.455-.063-.796-.19-1.026-.125-.229-.338-.385-.638-.47-.382-.109-.667.043-.855.459l.015.252v5.322l-2.052-.584v-4.996c0-.45-.061-.791-.182-1.024-.12-.237-.335-.4-.645-.488-.352-.1-.633.011-.841.334v5.7l-2.051-.585zm10.213 2.906l1.922.547.056.742c.46-.45 1.067-.568 1.82-.354.784.223 1.337.734 1.66 1.532.45-.578 1.091-.749 1.923-.512 1.373.39 2.077 1.54 2.111 3.45v5.14l-2.053-.582v-5.012c0-.454-.064-.796-.19-1.025-.125-.23-.336-.386-.636-.471-.382-.109-.667.044-.855.459l.013.252v5.322l-2.052-.584v-4.996c0-.45-.06-.79-.18-1.023-.121-.238-.337-.4-.647-.489-.352-.1-.632.012-.84.334v5.7l-2.052-.584zM123.403 41.16L84.857 62.117v53.489l38.546-20.96zm-14.918 12.45V67s-2.9.138-4.06-1.949v-5.356c1.16-3.268 4.06-6.085 4.06-6.085zm-7.423 5.748c.89-.079 1.597.16 1.94.822v5.355c-1.37 4.045-8.577 8.181-9.946 5.532V65.71c1.027-3.034 5.337-6.118 8.006-6.353zm19.765 4.767v13.39s-2.9.138-4.06-1.948V70.21c1.16-3.269 4.06-6.086 4.06-6.086zm-33.222.123s2.9-.14 4.06 1.947v5.356c-1.16 3.269-4.06 6.086-4.06 6.086zm25.796 5.625c.89-.078 1.598.16 1.94.822v5.356c-1.37 4.045-8.574 8.181-9.943 5.531v-5.355c1.026-3.034 5.335-6.119 8.003-6.354zm-13.455 4.89s2.899-.139 4.059 1.948v5.356c-1.16 3.268-4.059 6.086-4.059 6.086zm14.625 7.98V96.13s-2.9.14-4.06-1.947v-5.356c1.16-3.269 4.06-6.086 4.06-6.086zm-7.425 5.747c.89-.078 1.597.16 1.94.823v5.355c-1.37 4.045-8.575 8.181-9.944 5.531v-5.355c1.027-3.034 5.335-6.118 8.004-6.354zm-13.457 4.89s2.9-.139 4.06 1.948v5.356c-1.16 3.269-4.06 6.086-4.06 6.086zM46.167 12.394l75.58 22.395-39.914 22.396L6.253 34.79z" fill="#fff"/></svg>