<svg xmlns="http://www.w3.org/2000/svg" width="128" height="128"><g fill="#fff"><path d="M59.672 21.391c-2.798-.049-5.836.105-9.133.503-17.105 1.65-37.005 15.377-40.435 31.265-6.259 27.35 5.243 49.565 5.243 49.565 12.007 2.038 36.232 1.746 54.096-9.426l-5.961-18.606s-8.124 3.785-11.45 1.125c-4.63-3.701-6.661-7.104-5.397-12.862.364-1.66 1.447-3.174 2.63-3.679C61.21 54.18 85.076 46.871 91.418 41.22c0 0-4.692-19.357-31.746-19.829zm-5.311 60.763a4.955 4.955 0 0 1 4.956 4.954 4.955 4.955 0 0 1-4.956 4.956 4.955 4.955 0 0 1-4.954-4.956 4.955 4.955 0 0 1 4.954-4.954zm-25.026 2.428l2.629 9.214-10.877 2.653-2.633-8.933z"/><path d="M95.585 43.99l-41.67 16.132s-2.245.982-3.164 2.714c-2.844 5.36 2.51 9.877 3.896 10.336 1.89.626 2.844.563 4.345.238 4.258-.922 5.822-2.158 5.822-2.158l11.251 33.928s.775 1.86 3.582 1.35c2.83-.515 30.443-10.045 38.646-11.81 1.334-.286 1.468-3.639 1.468-3.639l-4.22-10.195-30.145 10.706-12.048-31.583 25.387-9.7zm-37.78 18.385a4.048 4.048 0 0 1 4.048 4.048 4.048 4.048 0 0 1-4.048 4.048 4.048 4.048 0 0 1-4.048-4.048 4.048 4.048 0 0 1 4.048-4.048z"/><path d="M106.237 50.551L77.107 61.76l9.803 25.778 30.29-10.363zm-2.512 5.26l7.938 19.273-21.926 7.5-7.096-18.66z"/></g></svg>