<svg xmlns="http://www.w3.org/2000/svg" xmlns:xlink="http://www.w3.org/1999/xlink" style="isolation:isolate" width="128" height="128"><defs><linearGradient id="a"><stop offset="0" stop-color="#bc3400"/><stop offset="1" stop-color="#ff8050"/></linearGradient><linearGradient xlink:href="#a" id="b" gradientUnits="userSpaceOnUse" gradientTransform="translate(9.032 -7.145)" x1="-6.068" y1="117.021" x2="92.569" y2="29.732"/></defs><path d="M18.496 16.752v95.235l6.996 7.322H108.2s-10.577-11.648 0-20.055V8.22l-83.349.14z" style="isolation:isolate" fill="url(#b)"/><path d="M105.815 101.55a5.106 5.106 0 0 0 4.297-5.034V11.09a5.104 5.104 0 0 0-5.099-5.098H29.784c-6.56 0-11.896 5.337-11.896 11.896v92.224c0 6.56 5.337 11.896 11.896 11.896h75.23a5.104 5.104 0 0 0 5.098-5.098 5.106 5.106 0 0 0-4.297-5.035 7.924 7.924 0 0 1 0-10.324zm-5.183 3.463s-.374 2.017 0 3.4c0 0 .539 2.319 1.083 3.398h-71.93c-.938 0-1.7-.762-1.7-1.7v-6.798c0-.936.762-1.699 1.7-1.699h71.93c-.544 1.08-1.083 3.4-1.083 3.4zm6.08-93.923V91.71a5.077 5.077 0 0 0-1.699-.291h-73.53V9.39h73.53c.938 0 1.7.762 1.7 1.7zm-85.425 6.798c0-4.103 2.924-7.536 6.798-8.326v81.98a11.874 11.874 0 0 0-6.798 3.454zm83.726 100.721H29.784c-4.685 0-8.497-3.812-8.497-8.497v-6.798c0-4.686 3.812-8.497 8.497-8.497h75.23c.937 0 1.699.762 1.699 1.7 0 .936-.762 1.699-1.7 1.699H29.784a5.104 5.104 0 0 0-5.098 5.098v6.798a5.104 5.104 0 0 0 5.098 5.098h75.23c.937 0 1.699.762 1.699 1.7 0 .937-.762 1.699-1.7 1.699z" style="isolation:isolate" stroke="#000" stroke-width="2"/><path d="M68.858 21.832a28.824 28.824 0 0 0-28.824 28.824A28.824 28.824 0 0 0 68.858 79.48a28.824 28.824 0 0 0 28.824-28.824 28.824 28.824 0 0 0-28.824-28.824zm.181 3.02a3.821 3.821 0 0 1 3.654 3.762c0 2.109-3.27 17.59-3.27 17.59-.165.551-.95.551-1.101 0 0 0-3.27-15.77-3.27-17.59a3.821 3.821 0 0 1 3.987-3.762zm8.172 1.508a3.821 3.821 0 0 1 3.54 5.343c-.686 1.687-9.65 15.068-9.65 15.068-.348.453-1.074.158-1.02-.413h.003s2.793-15.576 3.587-17.531a3.821 3.821 0 0 1 3.54-2.467zm-16.538.089a3.821 3.821 0 0 1 3.372 2.378c.793 1.955 3.59 17.53 3.59 17.53.054.572-.672.866-1.02.414 0 0-8.963-13.383-9.647-15.07a3.824 3.824 0 0 1-.282-1.489 3.821 3.821 0 0 1 3.987-3.763zm-7.277 4.793a3.821 3.821 0 0 1 2.587 1.116c1.491 1.493 10.128 14.756 10.128 14.756.273.504-.282 1.057-.778.775 0 0-13.465-8.84-14.753-10.128a3.809 3.809 0 0 1-1.118-2.701 3.821 3.821 0 0 1 3.934-3.818zm31.114.048a3.821 3.821 0 0 1 2.626 6.471C85.85 39.05 72.385 47.89 72.385 47.89c-.38.216-.794-.057-.845-.424h-.002a.56.56 0 0 1 .067-.351s8.636-13.265 10.128-14.756a3.821 3.821 0 0 1 2.777-1.068zm-35.89 7.036a3.819 3.819 0 0 1 1.376.297c1.946.816 14.956 9.822 14.956 9.822a.56.56 0 0 1 .211.502.572.572 0 0 1-.437.504.519.519 0 0 1-.198.011s-15.81-3.09-17.488-3.794a3.821 3.821 0 0 1-2.344-3.514v-.002a3.805 3.805 0 0 1 .3-1.486 3.819 3.819 0 0 1 3.623-2.34zm40.595.03a3.82 3.82 0 0 1 1.461 7.312c-1.68.705-17.488 3.794-17.488 3.794-.354.046-.604-.218-.635-.513a.563.563 0 0 1 .211-.5s13.01-9.007 14.956-9.824a3.82 3.82 0 0 1 1.495-.269zM46.838 46.85c2.11 0 17.595 3.27 17.595 3.27.55.163.55.945 0 1.097 0 0-15.775 3.272-17.595 3.272a3.82 3.82 0 0 1-3.818-3.82 3.82 3.82 0 0 1 3.818-3.82zm44.04 0a3.82 3.82 0 1 1 0 7.64c-1.82 0-17.595-3.271-17.595-3.271a.55.55 0 0 1-.411-.545.568.568 0 0 1 .411-.554s15.486-3.27 17.595-3.27zm-22.005.131a3.69 3.69 0 0 1 3.69 3.689 3.69 3.69 0 0 1-3.69 3.69 3.69 3.69 0 0 1-3.693-3.69 3.69 3.69 0 0 1 3.693-3.689zm-4.345 4.874c.566-.074.867.648.424 1.012 0 0-13.01 9.008-14.956 9.824a3.819 3.819 0 0 1-5-2.044 3.81 3.81 0 0 1-.3-1.487 3.823 3.823 0 0 1 2.344-3.514c1.678-.704 17.488-3.791 17.488-3.791zm8.66 0s15.81 3.087 17.488 3.791a3.82 3.82 0 0 1-2.956 7.045c-1.946-.816-14.956-9.824-14.956-9.824a.56.56 0 0 1-.211-.5c.03-.294.281-.559.635-.512zm-1.09 1.495a.558.558 0 0 1 .285.077s13.466 8.84 14.753 10.128a3.821 3.821 0 0 1-5.403 5.401c-1.491-1.49-10.128-14.753-10.128-14.753a.597.597 0 0 1-.065-.19.539.539 0 0 1-.002-.161.588.588 0 0 1 .56-.502zm-6.396.006a.58.58 0 0 1 .41.847s-8.637 13.262-10.129 14.753a3.821 3.821 0 0 1-6.521-2.701 3.81 3.81 0 0 1 1.118-2.702c1.288-1.286 14.753-10.128 14.753-10.128.124-.07.251-.089.369-.069zm1.402.97a.575.575 0 0 1 .53.631s-2.795 15.575-3.589 17.53a3.821 3.821 0 0 1-7.36-1.383 3.805 3.805 0 0 1 .28-1.49c.686-1.687 9.65-15.069 9.65-15.069a.544.544 0 0 1 .49-.22zm3.684.013a.549.549 0 0 1 .313.206s8.964 13.382 9.647 15.069a3.82 3.82 0 1 1-7.077 2.874c-.794-1.956-3.59-17.529-3.59-17.529h.003a.579.579 0 0 1 .705-.62zm-1.921.36a.57.57 0 0 1 .556.413s3.27 15.481 3.27 17.591a3.821 3.821 0 0 1-7.642 0c0-1.82 3.27-17.59 3.27-17.59a.553.553 0 0 1 .546-.415z" stroke="#000" stroke-width="1.103"/></svg>