<svg xmlns="http://www.w3.org/2000/svg" width="128" height="128"><g fill="#fff"><path d="M4.597 41.613v53.105l74.4 20.639V62.252zm30.527 17.335l8.164 2.295v21.86l3.565 1.001v5.672l-3.565-1.005v7.6l-8.136-2.286v-7.6l-13.856-3.898-.376-4.52zm16.947 4.766l20.267 5.7v5.837L58.739 71.43l-.748 7.316c1.572-.442 3.193-.428 4.86.04 3.45.97 6.106 2.746 7.965 5.327 1.878 2.587 2.817 5.763 2.817 9.526 0 3.523-1.113 6.049-3.336 7.58-2.223 1.53-5.194 1.771-8.913.726a18.65 18.65 0 0 1-6.124-3.024c-1.878-1.413-3.36-3.054-4.453-4.921-1.073-1.862-1.62-3.786-1.64-5.77l8.05 2.265c.135 1.502.565 2.755 1.293 3.764.728 1.01 1.667 1.678 2.817 2.001 1.342.377 2.379.128 3.107-.745.728-.89 1.092-2.41 1.092-4.566 0-2.026-.443-3.678-1.325-4.955-.862-1.272-2.079-2.13-3.65-2.573-1.534-.43-2.722-.321-3.566.326l-.515.457-6.468-3.219zm-16.919 5.35l-.172.217-6.153 9.756 6.325 1.776zM10.868 80.282c.57-.017 1.204.073 1.903.27 1.361.382 2.493 1.055 3.394 2.016.9.945 1.35 1.97 1.35 3.08 0 1.126-.459 1.908-1.379 2.34-.9.423-2.023.445-3.365.067-1.36-.382-2.492-1.048-3.393-1.993-.881-.94-1.32-1.962-1.32-3.072 0-1.093.43-1.875 1.292-2.34.44-.23.948-.352 1.518-.368zM46.167 12.395l75.58 22.395-39.914 22.396L6.253 34.79zM123.403 41.158l-38.546 20.96v53.487l38.546-20.96zm-7.493 13.47c1.983 1.345 3.167 4.561 3.167 8.605v.615c0 .34-.168.708-.377.822l-6.031 3.294c-.209.114-.379-.07-.379-.41v-.617c0-4.044 1.186-8.552 3.169-12.062.134-.237.317-.339.451-.248zm-11.53 6.247c1.983 1.345 3.167 4.562 3.167 8.606v.614c0 .34-.168.709-.376.823l-6.034 3.293c-.208.114-.376-.069-.377-.409v-.617c0-4.044 1.184-8.553 3.167-12.063.134-.237.32-.338.454-.247zm14.844 5.573c.136.019.231.188.231.443v17.318c0 .34-.44.855-.648.97v1.752c.208-.114.648-.08.648.26v2.46c0 .34-.17.708-.378.822l-6.787 3.704c-.208.114-.376-.068-.376-.409v-2.46c0-.34.44-.855.648-.969v-1.752c-.208.114-.648.077-.648-.263V71.006c0-.34.168-.706.376-.82l6.787-3.704a.24.24 0 0 1 .147-.034zm-26.375.58c1.983 1.346 3.168 4.565 3.168 8.61v.614c0 .34-.168.706-.376.82l-6.034 3.293c-.208.114-.376-.069-.376-.409v-.614c0-4.045 1.183-8.556 3.166-12.066.134-.237.318-.338.452-.247zm14.845 5.67c.136.02.23.185.23.44v17.319c0 .34-.439.855-.647.969v1.752c.208-.114.647-.08.647.26v2.46c0 .34-.168.709-.377.823l-6.787 3.704c-.208.114-.376-.069-.376-.41v-2.46c0-.34.44-.854.648-.968v-1.753c-.208.114-.648.078-.648-.262V77.253c0-.34.168-.706.376-.82l6.787-3.704a.237.237 0 0 1 .147-.031zm-11.53 6.154c.136.02.23.185.23.44v17.319c0 .34-.44.855-.649.969v1.752c.209-.114.649-.078.649.263v2.46c0 .34-.168.706-.377.82l-6.786 3.707c-.209.113-.379-.072-.379-.412v-2.46c0-.34.44-.856.649-.97v-1.752c-.209.114-.649.08-.649-.26V83.41c0-.34.17-.709.379-.823l6.786-3.704a.236.236 0 0 1 .148-.031z"/></g></svg>