<svg xmlns="http://www.w3.org/2000/svg" width="128" height="128"><g transform="rotate(-45 64.21 64.087)"><path d="M36.245 58.224l-1.13 1.508H41.9l1.131 2.262h58.71V55H73.196l-.377-1H42.655z" fill="#fff" stroke="#323232" stroke-width="2.549"/><path d="M37.614 78.782l-6.844-1.267s-.946-.25-.46-1.222l3.307-6.562s2.79-5.477-2.66-5.096c0 0 .082-.53.363-.812l1.284-1.125 7.334.037 1.937 3.632s-1.55.408-1.806 1.558l-4.072 9.563 1.617 1.294c.237.05 0 0 0 0z" fill="#fff" stroke="#323232" stroke-width="2.337"/><path d="M7.59 61.24l-16.591.754c-.537.103-.473.754-.473.754l.836 15.623s.094.556.58.402l4.255-1.525c.768-2.803.835-4.696 3.097-6.204l18.287-5.09-1.364-4.91-7.806 2.263zm-7.398.361c.362 1.5 2.074 5.064 2.074 5.064l-5.046 1.362c-.47.018-.754-.377-.754-.377l-.377-5.696z" fill="#fff" stroke="#323232" stroke-width="2.113"/><path d="M-8.967 62.38l2.465.036.75 14.83-2.065.986zM48.5 67.462h-3.205s-1.32-.109-2.263-.943l-.754-1.767c1.534 1.93 3.017 1.955 3.017 1.955H48.5c.623.006 1.489-.866 1.696-1.508 0 0 .272-.516 0-1.13 0 0-.415-.82-1.368-.944l6.647-.015c-2.26.219-3.876 2.222-4.713 3.22-.66.755-1.32 1.132-2.262 1.132zm-5.656-4.337c.623 1.284 1.033.732 1.131 1.32.189 1.131.566 1.508.566 1.508.307.28.636.352.754.189-.615-.307-1.131-1.787.188-3.017zM51.705 53.537s-.088-1.708-.377-1.861h-2.64s-1.16-.623-2.074-1.508c0 0-.66-.377-1.32 0 0 0-1.298.96-1.696 2.262v1.131z" fill="#323232"/><path d="M134.845 54.527l1.32-3.205 1.32.189c.171.009 1.354 2.262 2.262 3.016z" fill="none" stroke="#323232" stroke-width="1.434"/><path d="M141.632 57.847c1.885.754 1.885 4.147 0 4.901h-6.41l-.189-.565h-7.352v-.754h-.754v.754h-.566v-.754h-.754v.754h-.565v-.754h-.755v.754H108.64l-.377.754h-4.336v-6.221h4.336v.565l.377 1.131h15.647v.754h.755v-.754h.565v.754h.754v-.754h.566v.754h.754v-.754h7.352l.189-.565z" fill="#323232"/><path d="M142.952 53.797v3.016h-3.582v1.257h-3.96v-1.257h-31.494v-3.016zM135.599 51.534h2.639v.943h-2.639zM52.27 52h1.104v1.131H52.27zm1.904 0h1.103v1.13h-1.103zm1.965 0h1.103v1.13h-1.103zm1.943 0h1.103v1.131h-1.103zm1.892 0h1.103v1.13h-1.103zm2.01 0h1.104v1.13h-1.103zm2.011 0H65.1v1.131h-1.104zm1.91 0h1.103v1.13h-1.103zm1.942 0h1.104v1.13h-1.104zm1.927 0h1.103v1.13h-1.103zm1.942 0h1.104v1.131h-1.104z" fill="#323232"/><path d="M59.246 54.695v1.886c0 .565.565.565.565.565H70.37s.565 0 .565-.565v-1.886" fill="none" stroke="#323232" stroke-width="1.25"/><rect width="8.049" height="1.508" x="50" y="56.246" ry=".754" rx=".7" fill="#323232"/><path d="M74.328 55h27.481v8.082l-.34.42H74.704l-.377-.42z" fill="#fff" stroke="#323232" stroke-width="2.411"/><path d="M-1.064 60.87l22.981-2.646c.92.332 0 1.099 0 1.099l-8.103 3.362s-1.738 1.586-3.425 2.634l-4.525 1.136S1.44 68.142.24 64.947c0 0-.772-1.931-1.304-4.077z" fill="#fff" stroke="#323232" stroke-width="2.113"/><path d="M18.645 63.503l13.83-3.771c-.716 1.432-2.237 1.996-3.362 3.837l-9.726 2.7z" fill="#323232"/><rect width="3.582" height=".597" x="32.475" y="75.568" rx=".377" ry=".377" fill="#323232"/><rect ry=".377" rx=".377" y="74.469" x="33.04" height=".597" width="3.582" fill="#323232"/><rect ry=".377" rx=".377" y="73.463" x="33.606" height=".597" width="3.582" fill="#323232"/><rect width="3.582" height=".597" x="34.172" y="72.363" rx=".377" ry=".377" fill="#323232"/><rect ry=".377" rx=".377" y="71.389" x="34.737" height=".597" width="3.582" fill="#323232"/><rect width="3.582" height=".597" x="35.252" y="70.29" rx=".377" ry=".377" fill="#323232"/><rect width="3.582" height=".597" x="35.68" y="69.284" rx=".377" ry=".377" fill="#323232"/><rect ry=".377" rx=".377" y="68.184" x="36.092" height=".597" width="3.582" fill="#323232"/><path fill="#323232" d="M134.279 56.601h6.221v.566h-6.221z"/><rect ry=".754" rx=".7" y="58" x="78.288" height="5.503" width="1.492" fill="#323232"/><rect width="1.492" height="5.503" x="80.644" y="58" rx=".7" ry=".754" fill="#323232"/><rect width="1.492" height="5.503" x="83.153" y="58" rx=".7" ry=".754" fill="#323232"/><rect ry=".754" rx=".7" y="58" x="85.508" height="5.503" width="1.492" fill="#323232"/><rect ry=".754" rx=".7" y="58" x="87.898" height="5.503" width="1.492" fill="#323232"/><rect width="1.492" height="5.503" x="90.254" y="58" rx=".7" ry=".754" fill="#323232"/><rect width="1.492" height="5.503" x="92.644" y="58" rx=".7" ry=".754" fill="#323232"/><rect ry=".754" rx=".7" y="58" x="95" height="5.503" width="1.492" fill="#323232"/></g></svg>