<svg xmlns="http://www.w3.org/2000/svg" xmlns:xlink="http://www.w3.org/1999/xlink" style="isolation:isolate" width="128" height="128"><defs><linearGradient xlink:href="#a" id="d" x1="44" y1="65.743" x2="80" y2="65.743" gradientUnits="userSpaceOnUse"/><linearGradient xlink:href="#a" id="c" gradientUnits="userSpaceOnUse" x1="44" y1="65.743" x2="80" y2="65.743" gradientTransform="translate(-38.17 44)"/><linearGradient xlink:href="#a" id="b" gradientUnits="userSpaceOnUse" x1="44" y1="65.743" x2="80" y2="65.743" gradientTransform="translate(5.83 -21.73)"/><linearGradient xlink:href="#a" id="e" gradientUnits="userSpaceOnUse" gradientTransform="rotate(6.812 3.989 204.123)" x1="51.766" y1="67.956" x2="124.279" y2="67.964"/><linearGradient id="a"><stop offset="0" stop-color="#741b00"/><stop offset="1" stop-color="#ff440a"/></linearGradient></defs><path d="M78.549 8L120 49.312 90.436 80 72 74.553 50.428 52 48 37.998z" fill="url(#b)"/><path d="M45.191 66.94l16.033 16.267L18.918 120 8 109.48z" fill="url(#c)"/><path d="M71.762 72.788l-45.307 41.627-5.388 4.948c-.99.91-2.523.879-3.475-.073l-9.03-9.03a2.511 2.511 0 0 1-.073-3.475l4.949-5.387L55.064 56.09zm0 0" stroke="#000" stroke-width="5" fill="none"/><path d="M26.455 114.415l-5.388 4.95a2.512 2.512 0 0 1-3.474-.075l-9.03-9.03a2.512 2.512 0 0 1-.074-3.474l4.948-5.39zm0 0M76.983 8.709L49.164 36.527a2.513 2.513 0 0 0-.72 2.057l1.337 11.898a2.51 2.51 0 0 0 .72 1.496L76.17 77.646c.403.403.931.657 1.496.72l11.899 1.337a2.513 2.513 0 0 0 2.056-.72l27.819-27.819a2.512 2.512 0 0 0 0-3.552L80.536 8.709a2.512 2.512 0 0 0-3.553 0zm0 0" stroke="#000" stroke-width="5" fill="none"/><path d="M119.438 51.165l-9.059 9.059-42.456-42.456 9.06-9.059a2.513 2.513 0 0 1 3.553 0l38.902 38.902a2.513 2.513 0 0 1 0 3.554zm0 0" stroke="#000" stroke-width="5" fill="none"/><path d="M57.378 47.486L80 72 62.17 84 44 65.288z" fill="url(#d)"/><path d="M61.224 83.207L44.645 66.63a2.511 2.511 0 0 1-.168-3.367l12.9-15.776 22.99 22.99-15.777 12.9a2.512 2.512 0 0 1-3.366-.169zm0 0" stroke="#000" stroke-width="5" fill="none"/><g><path d="M106.602 57.935l3.766 1.947-16.857 20.222.1 19.527-7.882 1.62 1.85-17.035s-5.34-3.422-10.422-2.098l.352 12.409-7.305.842-.937-14.65-6.17-4.796 7.779-8.673c12.082-.102 35.726-9.315 35.726-9.315z" fill="url(#e)" transform="translate(.421 2.965)"/><path d="M88.92 106.91c3.349.4 6.401-2 6.801-5.35.126-1.049-.195-2.32-.741-4.283-.212-.769-.538-1.93-.545-2.288-.056-14.876 5.996-19.44 11.333-23.47 3.246-2.443 6.307-4.752 6.937-8.954.292-1.962-1.893-3.279-3.072-3.518-5.457-1.096-7.235-.59-11.06.757-.94.332-2.03.716-3.398 1.14-3.516 1.083-5.186 2.268-6.658 3.313-1.4.995-2.609 1.853-5.497 2.745-2.307.71-4.168.574-6.14.425-3.013-.224-6.124-.456-9.721 2.623-2.403 2.063-5.181 5.227-4.77 8.596.173 1.41 1.002 3.407 3.971 4.9 3.15 1.584 3.15 1.584 2.015 6.284-.384.908-.445 2.416-.486 3.516a9.599 9.599 0 0 1-.04.776c-.4 3.35 2.001 6.402 5.35 6.802 3.35.4 6.402-2 6.803-5.35.132-1.11-.23-2.583-.802-4.706-.229-.837-.45-1.606-.497-2.064-.154-1.502.092-2.388.73-2.64C81.14 85.5 84.67 87.178 85.286 88c.935 2.943.148 6.123-.695 8.23-.588 1.478-.918 3.011-1.022 3.879-.4 3.35 2 6.401 5.35 6.802zm19.501-43.945c-.668 1.876-2.393 3.252-5.107 5.298-5.495 4.142-13.022 9.821-12.956 26.74.002.88.32 2.03.691 3.361.24.859.638 2.299.619 2.732a2.04 2.04 0 0 1-4.048-.504c.076-.643.348-1.811.762-2.838 1.57-3.925 1.804-7.817.674-11.255-.799-2.425-6.4-5.202-10.193-4.401-1.454.31-4.775 1.623-4.212 7.125.06.6.317 1.612.613 2.712.25.933.716 2.67.69 3.176a2.042 2.042 0 0 1-4.053-.505c.032-.271.05-.66.065-1.101.028-.712.071-1.902.287-2.435 1.47-5.975 1.466-8.388-4.061-11.168-1.088-.549-1.68-1.137-1.754-1.75-.142-1.16 1.182-3.121 3.375-5.004 2.315-1.982 4.083-1.854 6.763-1.653 2.154.159 4.601.34 7.643-.594 3.514-1.084 5.18-2.27 6.653-3.315 1.4-.991 2.608-1.849 5.5-2.74a85.952 85.952 0 0 0 3.552-1.19c3.213-1.137 4.247-1.507 8.497-.69zm0 0" stroke="#000" stroke-width=".5"/></g></svg>