<svg xmlns="http://www.w3.org/2000/svg" width="128" height="128"><path d="M94.625 37.245s-.172 1.386-.952 1.993L50.247 76.187c-2.054.098-3.724.821-5.362 2.44-1.824 1.8-1.343 4.209-2.767 5.347-4.32 3.364-1.327 8.952-2.323 11.488-1.806.897-7.697 2.979-7.697 2.979l-12.19 9.49 1.193 5.33-4.677 3.641s-.78.607-1.386-.172l-8.323-12.3c-.607-.779.173-1.386.173-1.386l17.149-13.35c3.897-3.034 7.013-.64 10.13-3.068 0 0 2.308-2.553 3.373-6.77.176-.701 1.579-3.768 1.579-3.768s-.477-1.268.121-2.243l3.416-3.654 45.99-35.803s6.434 2.053 5.98 2.857z" fill="#fff" stroke="#323232" stroke-width="2.2705502400000004"/><path d="M44.78 78.192l-1.718 3.267-.448 3.152c1.326-.205 3.17.502 4.568.199 4.016-1.11 4.83-3.91 4.83-3.91 1.074-2.135-.583-3.197.01-6.142l-3.653 1.574zm.613.775l3.429-1.7c2.739.33 2.347 1.912 2.026 3.153 0 0-.666 2.293-3.957 3.203-1.146.248-2.902.192-2.563-1.635z" fill="#323232"/><path d="M39.6 75.915l51.446-40.051" fill="none" stroke="#323232" stroke-width="1.48176"/><path d="M62.321 52.78l.704-.549.825 1.06-.705.548zm1.215-.946l.705-.549.824 1.059-.705.548zm1.255-.977l.704-.549.824 1.06-.704.548zm1.24-.966l.705-.548.824 1.059-.705.547zm1.208-.94l.705-.549.824 1.06-.704.548zm1.284-1l.705-.548.824 1.059-.705.548zm1.284-1l.705-.548.824 1.06-.705.548zm1.219-.948l.704-.549.825 1.06-.705.548zm1.24-.965l.704-.549.825 1.059-.705.548zm1.23-.958l.704-.548.825 1.058-.705.549zm1.24-.966l.705-.548.824 1.06-.705.548zm1.24-.965l.705-.549.825 1.059-.705.548zm1.241-.966l.705-.549.825 1.06-.706.548zm1.274-.991l.704-.549.824 1.06-.704.548zm1.186-.924l.704-.548.825 1.059-.705.548zm1.24-.965l.705-.549.824 1.06-.706.548zm1.24-.966l.705-.549.824 1.06-.705.548zm1.24-.965l.706-.55.824 1.06-.705.548zm1.22-.95l.704-.548.824 1.059-.704.548zm1.23-.957l.704-.548.824 1.06-.705.548zm1.25-.974l.705-.548.825 1.059-.706.548zm-25.973 20.22l.705-.548.824 1.06-.705.548zM43.757 67.23l.705-.547.824 1.059-.704.548zm1.24-.964l.705-.548.824 1.058-.705.548zm1.23-.958l.705-.548.824 1.059-.705.548zm1.24-.965l.705-.549.825 1.06-.705.548zm1.241-.966l.705-.549.824 1.06-.705.548zm1.24-.966l.706-.548.824 1.059-.706.548zm1.274-.991l.704-.548.825 1.059-.705.548zm1.186-.923l.705-.549.824 1.06-.705.547zm1.24-.966l.705-.548.824 1.059-.705.548zm1.24-.965l.706-.55.824 1.06-.705.548zm1.241-.966l.705-.549.825 1.059-.706.548zm1.22-.95l.704-.548.824 1.06-.704.548zm1.229-.956l.704-.549.825 1.06-.705.548zm1.25-.974l.706-.549.824 1.06-.706.547zM90.79 33.108L120.794 9.75c1.413 1.015 1.824 2.344 1.824 2.344L93.975 34.392s-1.157-.423-3.185-1.284zM48.096 81.762s-2.684.613-3.248-4.143l-.774 1.143c.75 3.348 3.197 4.025 3.812 3.632.371-.268.21-.632.21-.632zM25.161 86.314l.44 13.43c-.08.89-.173 1.386-.953 1.993l-7.795 6.068s-.779.607-1.386-.173l-4.248-5.456c-.607-.78-.434-2.166-.434-2.166l.345-2.773z" fill="#323232"/><path d="M64.89 63.285l-.942-6.416" fill="none" stroke="#323232" stroke-width="1.48176"/><path d="M66.13 60.14s-.896-2.053-.095-3.337l16.618-12.937s.625-.291.847-.006c.804 1.032.212 1.88.212 1.88L66.758 60.191s-.295.32-.629-.05z" fill="#7e7e7e"/></svg>