<svg xmlns="http://www.w3.org/2000/svg" width="128" height="128"><path d="M64 5.514a58.486 58.486 0 0 0-9.276.771c.003 7.168-2.776 13.17-7.941 15.284-5.17 2.114-11.365-.226-16.39-5.348a58.486 58.486 0 0 0-13.733 13.53c2.183 2.212 3.833 4.632 4.842 7.08 1.325 3.242 1.608 6.434.369 9.389-2.164 5.164-8.228 7.879-15.436 7.785A58.486 58.486 0 0 0 5.514 64a58.486 58.486 0 0 0 .79 9.43c7.13.019 13.095 2.794 15.202 7.941 2.102 5.136-.197 11.28-5.249 16.286a58.486 58.486 0 0 0 13.662 13.81c5.077-5.133 11.31-7.46 16.482-5.291 2.956 1.237 5.105 3.961 6.423 7.205.982 2.395 1.457 5.208 1.432 8.222a58.486 58.486 0 0 0 9.744.883 58.486 58.486 0 0 0 9.506-.799c-.03-7.212 2.752-13.261 7.945-15.387 5.167-2.113 11.354.213 16.374 5.323a58.486 58.486 0 0 0 13.658-13.564c-5.033-5.07-7.278-11.284-5.128-16.414 2.146-5.115 8.1-7.727 15.21-7.65a58.486 58.486 0 0 0 .921-9.995 58.486 58.486 0 0 0-.792-9.462c-7.137-.015-13.11-2.79-15.217-7.939-2.102-5.136.196-11.28 5.247-16.285a58.486 58.486 0 0 0-13.692-13.818c-5.015 5.032-11.093 7.337-16.207 5.193-5.118-2.145-7.869-8.13-7.845-15.256a58.486 58.486 0 0 0-9.98-.92zm0 18.735A39.75 39.75 0 0 1 103.75 64 39.75 39.75 0 0 1 64 103.75 39.75 39.75 0 0 1 24.25 64 39.75 39.75 0 0 1 64 24.25z" fill="#fff"/><g fill="#fff" stroke-width="0"><path d="M73.142 39.176a8.476 8.476 0 0 0-4.037 1.132 8.476 8.476 0 0 0-3.106 11.582A8.476 8.476 0 0 0 77.58 54.99a8.476 8.476 0 0 0 3.106-11.581 8.476 8.476 0 0 0-7.544-4.234zm.033 3.065a5.476 5.476 0 0 1 4.863 2.734 5.476 5.476 0 0 1-2.003 7.474 5.476 5.476 0 0 1-7.47-2.002 5.476 5.476 0 0 1 2.003-7.478 5.476 5.476 0 0 1 2.607-.728z"/><path style="isolation:isolate" d="M36.874 45.723l16.669-9.62 15.602 8.5-8.01 4.647-12.198 7.04-5.046-8.744zm34.613.51l11.054 8.194 10.503 13.167-2.01.205-9.645-12.154-11.594-8.418zM50.14 58.376l2.734 4.728a17.797 17.797 0 0 1 5.394-4.847 17.797 17.797 0 0 1 6.894-2.264l-2.726-4.72zm9.444 2.28a18.226 18.226 0 0 0-7.315 23.637l31.454-18.16a18.226 18.226 0 0 0-24.14-5.477zm-5.934 25.95a18.226 18.226 0 0 0 23.898 5.161 18.226 18.226 0 0 0 7.495-23.285z"/></g></svg>