<svg xmlns="http://www.w3.org/2000/svg" width="128" height="128"><defs><mask maskUnits="userSpaceOnUse" id="a"><path fill="#fff" stroke-width="2.922" stroke-linecap="square" stroke-linejoin="bevel" d="M20.052 39.272h22.579v8.535H20.052z"/></mask></defs><g transform="rotate(-30 64 64)"><path d="M18.467 49.048S18.953 40.89 22.699 38H54.2l-1.126 5.632h18.019L69.966 38h37.195v11.047zM18.195 52.619s-.07 3.376 2.252 4.078c0 0 6.973.878 6.919 8.166-.334 5.834-12.065 22.531-10.194 34.518 0 0-.242 1.25 1.475 1.289h1.8c.29-.564.633-1.86 2.252-2.986h13.514c1.7 1.126 2.253 2.986 2.253 2.986h2.105s1.407-.368 1.178-1.246c0 0-3.815-4.257.45-10.303 0 0 .402-6.091 2.831-9.222 0 0-1.739-2.529 3.224-6.728 2.34-.921 4.925.597 7.711.902 2.863.344 10.628.702 17.385-1.072 1.476-.518-1.18-6.009.007-12.92l2.253-7.462H18.195zM69.979 69.98s-7.966 1.323-16.873 0l-2.073-2.647c-.972-4.373 2.073-7.94 2.073-7.94h16.873c-.802 5.421 0 10.587 0 10.587z" fill="#fff" stroke="#323232" stroke-width="2.5"/><path d="M32.901 35.876H22.425l.728-2.672c1.27-1.803 9.748 2.672 9.748 2.672zM53.59 37.698h16.922v5.943l-16.921.001z" fill="#323232"/><path d="M110.54 37.625v15.013H79.457l-2.252 6.757c-.229 1.088 1.236 1.126 1.236 1.126h23.695l.999-4.132c.135-.44 1.052-.7 1.43-.583.379.116 2.116.563 1.981 1.003l-.87 3.712h3.031l.998-4.132c.135-.44.895-.7 1.274-.583.378.116 2.196.563 2.06 1.003l-.868 3.712h3.003l.999-4.132c.135-.44.899-.7 1.277-.583.378.116 2.148.563 2.013 1.003l-.87 3.712h4.334l3.85-16.14.002-6.756z" fill="#fff" stroke="#323232" stroke-width="2.5"/><path d="M35.087 99.946s1.413 1.404 2.06 3.915H21.573c.891-2.673 2.252-3.925 2.252-3.925zM61.8 58.797c-2.628 3.965-2.24 6.535 2.605 8.885.184.09-.386 1.02-.71 1.039-.439-.02-4.345-1.779-5.452-4.505-.594-1.944-.674-3.812.397-5.42zM65.037 54.443l-3.416.846H37.34c-.796.486-.81 1.684 0 2.17l27.684.048c1.616-.822 1.616-2.159.014-3.064z" fill="#323232"/><circle r=".864" cy="56.016" cx="64.629" fill="#7e7e7e"/><rect width="9.219" height="2.03" x="23.945" y="93.765" rx="1.209" ry="1.493" fill="#323232"/><path d="M26.517 81.432l-3.602 11.431c7.45-5.669 14.004-4.279 14.004-4.279-1.728-5.182 2.484-8.474 2.484-8.474-5.345-1.242-12.886 1.322-12.886 1.322z" fill="#323232"/><path d="M30.026 69.77l-3.25 10.676c9.204-3.536 13.085-.985 13.085-.985-1.566-3.86 1.944-8.799 3.699-9.798-4.859-2.16-7.19-2.187-13.534.108zM25.187 92.825l8.563.016c.458-1.756 2.465-3.321 2.465-3.321-5.936-.725-11.028 3.305-11.028 3.305zM40.575 80.693s-4.442 3.607-1.922 7.959l3.205.319c-.128-2.975.838-5.14 2.636-7.533zM38.036 89.834s-4.442 3.437-1.922 7.789l3.378.014c-.129-2.975.322-4.835 2.12-7.228z" fill="#323232"/><path d="M44.831 70.138s-5.911 4.408-3.392 8.76l3.168.663c-.128-2.975.97-4.282 3.895-7.285-.878-1.851-3.67-2.138-3.67-2.138zM17.12 96.75l3.177.601 4.725-15.36c-6.753 2.09-7.982 10.388-7.902 14.758z" fill="#323232"/><path d="M19.392 85.354c2.271-3.588 6.02-4.723 6.02-4.723l3.045-10.32-4.257 3.633zM26.17 71.093s3.58-3.163 3.635-4.513c.216-.864-.212-2.828-1.94-4.016 0 0 .464 4.183-1.695 8.53z" fill="#323232"/><path d="M33.181 92.782c.048-1.9 3.218-4.03 3.218-4.03s-1.926-5.513 2.905-9.13c-2.403-5.502 4.104-10.554 4.104-10.554.899-.707-.22-1.313-.22-1.313L27.262 62.69" fill="none" stroke="#323232" stroke-width="2"/><path d="M30.143 72.355L32.3 64.72" fill="none" stroke="#323232" stroke-width="1.689"/><path fill="#323232" d="M68.688 54.607h2.78v2.78h-2.78zM25.153 54.264h1.292l.553 2.284h-2.38zM91.93 39.833l-1.865 5.893h13.372l1.864-5.892zM114.763 39.74l-2.28 7.207h10.17l2.28-7.206z"/><path d="M97.215 39.555l-2.21 7.009M100.136 39.555l-2.21 7.009M103.037 39.555l-2.21 7.009M94.295 39.555l-2.21 7.009M119.891 39.555l-2.496 7.81M122.811 39.555l-2.495 7.81M116.97 39.555l-2.495 7.81" fill="#323232" stroke="#fefefe" stroke-width="1.4"/><path fill="#323232" d="M111.035 47.745h13.863v2.487h-13.863z"/><rect y="54.925" x="80.903" height="2.487" width="13.863" rx="1.408" ry="1.408" fill="#323232"/><path d="M108.296 35.876h-5.857l.728-2.672 3.633.46zM23.997 38.884l-2.916 9.215h19.842l1.225-3.628h-4.164c-.864 0-1.559-.769-1.559-1.532s.695-1.467 1.559-1.467h5.035l.818-2.586z" fill="#323232"/><g transform="translate(.04 -.022)" mask="url(#a)" stroke="#fff" stroke-width="1.5" fill="#323232"><path d="M30.53 38.216l-3.36 10.658M34.284 38.216l-3.36 10.658M26.844 38.216l-3.36 10.658M37.85 38.216l-3.36 10.658M41.476 38.216l-3.36 10.658"/></g></g></svg>