<svg xmlns="http://www.w3.org/2000/svg" width="128" height="128"><path d="M108.288 109.157V74.42c-7.381-6.948-14.762-13.895-14.762-20.842 0-13.894 7.381-34.736 29.525-41.683 0 0-7.381-6.947-14.763-6.947H86.144C86.144 18.843 71.381 25.79 64 25.79c-7.381 0-22.144-6.947-22.144-20.841H19.712c-7.382 0-14.763 6.947-14.763 6.947 22.144 6.948 29.525 27.79 29.525 41.683 0 6.948-7.381 13.895-14.762 20.842v34.736c14.762 6.947 29.525 13.894 44.288 13.894 14.763 0 29.526-6.947 44.288-13.894z" fill="#fff"/></svg>