<svg xmlns="http://www.w3.org/2000/svg" width="128" height="128"><circle cx="-33.138" cy="102.563" r="2.552" transform="rotate(-30)" fill="none" stroke="#323232" stroke-width="1.526"/><path d="M45.181 118.444s-.956.483-1.645.81c0 0-10.8.237-18.05-9.85-7.033-9.786-4.938-25.861 5.762-35.694 3.627-3.187 37.635-27.095 62.992-53.763l2.725-5.632c-.448-1.033-2.313-4.888-.574-5.45 7.539-2.437 30.253 36.009 26.244 38.226-1.92 1.061-5.058-2.348-5.058-2.348s-5.565-1.22-25.54 7.887c0 0-56.077 28.897-57.895 30.741-11.392 12.134-5.995 29.672 11.04 35.073z" fill="#fff" stroke="#323232" stroke-width="2.857"/><ellipse cx="-424.316" cy="64.292" fill="none" stroke="#000" stroke-width="2.446"/><path d="M11.53 94.737c.445-.263.516-1.373.278-2.13l5.707-3.45.25-1.202 1.105-.76.81.501 3.986-2.326L76.53 57.706c3.688-1.532 12.403-4.327 20.38 7.767 4.198 6.367 2.018 17.254-6.661 22.364l-39.582 23.379c-4.05 1.94-12.936.61-16.25-4.991-5.107-8.631-2.375-16.077 3.067-19.22l43.766-23.04c3.208-1.748 8.532-.874 11.367 4.036 4.521 7.831-3.087 14.89-3.087 14.89l-37.435 24.862c-4.751 2.445-7.92 3.41-7.92 3.41 1.251.273 5.036.032 5.036.032l40.114-22.8c2.566-1.58 5.211-3.978 5.211-3.978 4.43-5.24 6.387-13.261 1.958-19.749-4.965-7.272-12.513-10.427-19.868-6.967l-45.46 23.612c-4.39 2.038-10.225 15.346-2.789 28.398 6.059 10.634 20.987 9.751 23.883 7.88L93.85 93.73c3.821-2.504 18.668-16.303 9.84-32.022-5.409-9.631-16.841-14.596-29.142-9.069l-53.668 26.2-4.945 2.106L15.596 82l-.888.414-1.41-.52-5.624 2.552c-.821-.992-1.574-1.623-2.366-1.176-2.08 3.304 4.45 12.114 6.222 11.467z" fill="#fff" stroke="#323232" stroke-width="2.857"/><path d="M13.245 82.521c.301 1.814 3.737 6.92 3.737 6.92M16.65 80.677c1.943 2.506 3.852 6.792 3.852 6.792" fill="none" stroke="#323232" stroke-width="2.857"/><path d="M5.34 84.365c.942 4.798 3.883 8.334 5.291 9.782" fill="none" stroke="#323232" stroke-width="1.905"/><circle r="1.298" cy="101.414" cx="-35.393" transform="rotate(-30)" fill="none" stroke="#323232" stroke-width=".776"/><circle cx="-36.61" cy="100.105" r="1.298" transform="rotate(-30)" fill="none" stroke="#323232" stroke-width=".776"/><circle r="1.298" cy="98.431" cx="-36.215" transform="rotate(-30)" fill="none" stroke="#323232" stroke-width=".776"/><circle r="1.298" cy="96.149" cx="-33.871" transform="rotate(-30)" fill="none" stroke="#323232" stroke-width=".776"/><circle cx="-33.141" cy="94.566" r="1.298" transform="rotate(-30)" fill="none" stroke="#323232" stroke-width=".776"/><circle r="1.298" cy="92.953" cx="-32.654" transform="rotate(-30)" fill="none" stroke="#323232" stroke-width=".776"/><circle cx="-31.802" cy="91.492" r="1.298" transform="rotate(-30)" fill="none" stroke="#323232" stroke-width=".776"/><circle r="1.298" cy="90.001" cx="-30.858" transform="rotate(-30)" fill="none" stroke="#323232" stroke-width=".776"/><circle cx="-29.884" cy="88.631" r="1.298" transform="rotate(-30)" fill="none" stroke="#323232" stroke-width=".776"/><circle r="1.298" cy="87.109" cx="-28.971" transform="rotate(-30)" fill="none" stroke="#323232" stroke-width=".776"/><circle cx="-28.636" cy="85.649" r="1.298" transform="rotate(-30)" fill="none" stroke="#323232" stroke-width=".776"/><path d="M94.663 20.058c5.312 4.453 15.87 22.821 16.638 25.611M96.68 9.91c15.848 11.53 24.888 36.463 24.888 36.463" fill="none" stroke="#323232" stroke-width="2.857"/><circle cx="-35.012" cy="97.268" r="1.298" transform="rotate(-30)" fill="none" stroke="#323232" stroke-width=".776"/><path d="M49.514 64.003l3.089 6.602" fill="none" stroke="#323232" stroke-width="2.857"/></svg>