<svg xmlns="http://www.w3.org/2000/svg" xmlns:xlink="http://www.w3.org/1999/xlink" width="176" height="176"><defs><linearGradient id="d"><stop offset="0" stop-color="#66a000"/><stop offset="1" stop-color="#0e2608"/></linearGradient><linearGradient id="b"><stop offset="0" stop-color="#ee9347"/><stop offset="1" stop-color="#80400b"/></linearGradient><linearGradient id="c"><stop offset="0" stop-color="#3d7519"/><stop offset="1" stop-color="#7fd846"/></linearGradient><clipPath id="f"><path d="M188 128c0 80-69.756 119.362-69.756 119.362C64 244 8.638 193.922 8.638 128S64 12 118.244 8.638C118.244 8.638 188 48 188 128z" fill="#252525" fill-opacity=".601" stroke-width="12.537"/></clipPath><linearGradient xlink:href="#a" id="g" x1="14.454" y1="-2.288" x2="190.761" y2="225.716" gradientUnits="userSpaceOnUse"/><clipPath id="e"><path d="M123.919 88L88.48 139.9s9.15 24-14.85 36c0-16-7.496-19.178-16.502-23.657-23.593-11.734-45.21-35.545-45.21-64.243 0-28.855 21.854-52.663 45.597-64.27C66.4 19.387 73.63 15.9 73.63-.1c24 12 14.803 36 14.803 36z" fill="#b9009d" stroke-width="18"/></clipPath><linearGradient id="a"><stop offset="0" stop-color="#1f1c1a"/><stop offset="1" stop-color="#3d3632"/></linearGradient><linearGradient xlink:href="#b" id="i" x1="77.026" y1="146.112" x2="156.422" y2="146.112" gradientUnits="userSpaceOnUse" gradientTransform="rotate(180 78.305 87.963)"/><linearGradient xlink:href="#b" id="h" x1="77.026" y1="29.814" x2="156.422" y2="29.814" gradientUnits="userSpaceOnUse" gradientTransform="rotate(180 78.305 87.963)"/><linearGradient xlink:href="#c" id="k" gradientUnits="userSpaceOnUse" gradientTransform="translate(127.699 -115.817) scale(.7856)" x1="71.621" y1="99.306" x2="113.125" y2="99.306"/><linearGradient xlink:href="#c" id="l" gradientUnits="userSpaceOnUse" gradientTransform="translate(127.699 -115.817) scale(.7856)" x1="71.639" y1="76.797" x2="113.027" y2="76.797"/><linearGradient xlink:href="#c" id="m" gradientUnits="userSpaceOnUse" gradientTransform="translate(127.699 -115.817) scale(.7856)" x1="98.247" y1="107.222" x2="131.002" y2="107.222"/><linearGradient xlink:href="#c" id="n" gradientUnits="userSpaceOnUse" gradientTransform="translate(127.699 -115.817) scale(.7856)" x1="98.05" y1="68.832" x2="130.747" y2="68.832"/><linearGradient xlink:href="#c" id="o" gradientUnits="userSpaceOnUse" gradientTransform="translate(127.699 -115.817) scale(.7856)" x1="104.322" y1="87.868" x2="153.433" y2="87.868"/><linearGradient xlink:href="#d" id="j" x1="64" y1="64" x2="160" y2="112" gradientUnits="userSpaceOnUse" gradientTransform="translate(0 -.038)"/></defs><path d="M123.919 88L88.48 139.9s9.15 24-14.85 36c0-16-7.496-19.178-16.502-23.657-23.593-11.734-45.21-35.545-45.21-64.243 0-28.855 21.854-52.663 45.597-64.27C66.4 19.387 73.63 15.9 73.63-.1c24 12 14.803 36 14.803 36z" clip-path="url(#e)" fill="#45861c" stroke="#090909" stroke-width="18"/><path d="M188 128c0 80-69.756 119.362-69.756 119.362C64 244 8.638 193.922 8.638 128S64 12 118.244 8.638C118.244 8.638 188 48 188 128z" clip-path="url(#f)" transform="matrix(.5445 0 0 .49122 24.048 25.124)" fill="url(#g)" stroke="#090909" stroke-width="34.804"/><circle cx="56.919" cy="88" r="9" stroke-width="6" stroke="#090909" fill="#78de00"/><path d="M68.183 123.192l-16.366 16.735-.038.031c-3.783 3.593-14.818-2.728-19.887-6.913a6.37 6.37 0 0 0-8.136 9.803c.218.18 5.405 4.463 11.957 7.557a40.986 40.986 0 0 0 5.064 2.01l-1.232 1.395c-9.254 8.505-24.961-2.679-25.247-2.885a6.37 6.37 0 0 0-7.541 10.267c.241.178 6 4.38 13.644 6.808 11.16 3.545 20.883 1.766 28.118-5.143.13-.124 26.094-29.486 26.094-29.486 2.625-6.663-.574-13.006-6.43-10.179z" fill="url(#h)" stroke="#090909" stroke-width="8"/><path d="M68.183 52.735L51.817 36l-.038-.031c-3.783-3.593-14.818 2.728-19.887 6.913a6.37 6.37 0 0 1-8.136-9.803c.218-.18 5.405-4.463 11.957-7.557a40.986 40.986 0 0 1 5.064-2.01l-1.232-1.395c-9.254-8.505-24.961 2.678-25.247 2.885a6.37 6.37 0 0 1-7.541-10.267c.241-.178 6-4.38 13.644-6.808C31.56 4.38 41.284 6.16 48.519 13.069c.13.125 26.094 29.487 26.094 29.487 2.625 6.663-.574 13.005-6.43 10.179z" fill="url(#i)" stroke="#090909" stroke-width="8"/><path d="M120 87.761c-8-15.799-28-47.799-28-47.799s52 19.101 52 47.8c0 28.854-52 48.2-52 48.2s20-32 28-48.2z" fill="url(#j)" stroke="#090909" stroke-width="8"/><g stroke="#090909" stroke-width="7.285"><path d="M188.456-27.325a1.52 1.52 0 0 1-1.321-1.82c.136-.663.33-1.5.587-2.449 2.055-7.542 8.342-22.317 25.155-15.238l.337.144s4.088 22.606-24.758 19.363zm0 0" fill="url(#k)" transform="translate(-132.593 139.228) scale(1.09813)"/><path d="M187.148-64.25a1.521 1.521 0 0 1 1.322-1.82c.268-.03.565-.06.886-.087 6.616-.58 24-.464 23.994 16.741 0 .866-.044 1.774-.136 2.728 0 0-20.237 10.874-26.066-17.562zm0 0" fill="url(#l)" transform="translate(-132.593 139.228) scale(1.09813)"/><path d="M221.84-16.465a41.639 41.639 0 0 1-2.547-1.58c-6.503-4.369-17.63-14.494-6.888-27.69.256-.316.527-.634.809-.953 0 0 22.763 3.097 10.764 29.529a1.52 1.52 0 0 1-2.139.694zm0 0" transform="translate(-132.593 139.228) scale(1.09813)" fill="url(#m)" stroke-linejoin="bevel"/><path d="M213.214-46.688s-16.596-15.886 8.648-30.217a1.521 1.521 0 0 1 2.138.695c.136.3.285.642.443 1.02 2.608 6.238 7.545 22.375-8.354 27.71-.892.299-1.848.564-2.875.792zm0 0" fill="url(#n)" transform="translate(-132.593 139.228) scale(1.09813)"/><path d="M214.456-44.755a28.886 28.886 0 0 1-1.242-1.933s9.979-20.693 31.41-1.113a1.52 1.52 0 0 1 0 2.249c-.281.255-.607.544-.974.857-5.305 4.52-19.27 14.1-29.194-.06zm0 0" fill="url(#o)" transform="translate(-132.593 139.228) scale(1.09813)"/></g></svg>