<svg xmlns="http://www.w3.org/2000/svg" width="176" height="176"><defs><clipPath id="e"><path d="M188 128c0 80-69.756 119.362-69.756 119.362C64 244 8.638 193.922 8.638 128S64 12 118.244 8.638C118.244 8.638 188 48 188 128z" fill="#252525" fill-opacity=".601" stroke-width="12.537"/></clipPath><linearGradient id="a"><stop offset="0" stop-color="#1f1c1a"/><stop offset="1" stop-color="#3d3632"/></linearGradient><linearGradient id="b"><stop offset="0" stop-color="#ee9347"/><stop offset="1" stop-color="#80400b"/></linearGradient><linearGradient id="c"><stop offset="0" stop-color="#66a000"/><stop offset="1" stop-color="#0e2608"/></linearGradient><linearGradient id="d"><stop offset="0" stop-color="#3d7519"/><stop offset="1" stop-color="#7fd846"/></linearGradient></defs><path d="M188 128c0 80-69.756 119.362-69.756 119.362C64 244 8.638 193.922 8.638 128S64 12 118.244 8.638C118.244 8.638 188 48 188 128z" clip-path="url(#e)" transform="matrix(.52122 0 0 .52122 24.17 21.284)" fill="#2d2d2d" stroke="#090909" stroke-width="37.259"/><path d="M101.31 88l-35.443 25.019L78.377 88l-12.51-25.019z" fill="#fff00f" stroke="#0a0a0a" stroke-width="6" stroke-miterlimit="6"/></svg>