<svg xmlns="http://www.w3.org/2000/svg" width="176" height="176"><defs><clipPath id="a"><path d="M188 128c0 80-69.756 119.362-69.756 119.362C64 244 8.638 193.922 8.638 128S64 12 118.244 8.638C118.244 8.638 188 48 188 128z" fill="#252525" fill-opacity=".601" stroke-width="12.537"/></clipPath></defs><path d="M188 128c0 80-69.756 119.362-69.756 119.362C64 244 8.638 193.922 8.638 128S64 12 118.244 8.638C118.244 8.638 188 48 188 128z" clip-path="url(#a)" transform="matrix(.52122 0 0 .52122 24.17 21.284)" fill="#252525" stroke="#090909" stroke-width="37.259"/><path d="M102.692 88l-18.95 6.346-.18 19.984-11.89-16.062-19.061 6.004L64.21 88l-11.6-16.273 19.06 6.005L83.564 61.67l.18 19.983z" fill="#fff00f" stroke="#0a0a0a" stroke-width="6"/></svg>