<svg xmlns="http://www.w3.org/2000/svg" style="isolation:isolate" width="128" height="128"><path fill="#63590d" stroke="#202020" stroke-width="11.8" d="M85.416 12H44v36h41.416z"/><circle cx="-64.708" cy="81.399" r="38.904" transform="scale(-1 1)" fill="#827717" fill-opacity=".995" stroke="#202020" stroke-width="12"/><path d="M44.708 24h-20l-20 12v16l20-12h20z" fill="#827717" fill-opacity=".996" stroke="#202020" stroke-width="8"/><path d="M40.802 18.443a26.451 26.451 0 0 1 12.603 3.534 26.451 26.451 0 0 1 9.682 36.135 26.451 26.451 0 0 1-36.132 9.683 26.451 26.451 0 0 1-9.682-36.136 26.451 26.451 0 0 1 23.53-13.216zM40.708 28a17.077 17.077 0 0 0-15.193 8.536 17.077 17.077 0 0 0 6.25 23.327 17.077 17.077 0 0 0 23.326-6.25 17.077 17.077 0 0 0-6.249-23.33A17.077 17.077 0 0 0 40.708 28z" fill="#909090" stroke="#202020" stroke-width="4"/></svg>