<?xml version="1.0" encoding="UTF-8" standalone="no"?>
<svg
   xmlns:dc="http://purl.org/dc/elements/1.1/"
   xmlns:cc="http://creativecommons.org/ns#"
   xmlns:rdf="http://www.w3.org/1999/02/22-rdf-syntax-ns#"
   xmlns:svg="http://www.w3.org/2000/svg"
   xmlns="http://www.w3.org/2000/svg"
   xmlns:sodipodi="http://sodipodi.sourceforge.net/DTD/sodipodi-0.dtd"
   xmlns:inkscape="http://www.inkscape.org/namespaces/inkscape"
   style="isolation:isolate"
   width="128"
   height="148"
   version="1.1"
   id="svg10"
   sodipodi:docname="proj-mirv-pin.svg"
   inkscape:version="0.92.2 (5c3e80d, 2017-08-06)">
  <metadata
     id="metadata16">
    <rdf:RDF>
      <cc:Work
         rdf:about="">
        <dc:format>image/svg+xml</dc:format>
        <dc:type
           rdf:resource="http://purl.org/dc/dcmitype/StillImage" />
        <dc:title />
      </cc:Work>
    </rdf:RDF>
  </metadata>
  <defs
     id="defs14" />
  <sodipodi:namedview
     pagecolor="#ffffff"
     bordercolor="#666666"
     borderopacity="1"
     objecttolerance="10"
     gridtolerance="10"
     guidetolerance="10"
     inkscape:pageopacity="0"
     inkscape:pageshadow="2"
     inkscape:window-width="1920"
     inkscape:window-height="1017"
     id="namedview12"
     showgrid="true"
     inkscape:object-paths="true"
     inkscape:snap-intersection-paths="true"
     inkscape:snap-smooth-nodes="true"
     inkscape:snap-midpoints="true"
     inkscape:zoom="3.6875"
     inkscape:cx="80.006088"
     inkscape:cy="103.25985"
     inkscape:window-x="1912"
     inkscape:window-y="-8"
     inkscape:window-maximized="1"
     inkscape:current-layer="svg10">
    <inkscape:grid
       type="xygrid"
       id="grid823"
       empspacing="4"
       spacingy="4"
       spacingx="4" />
  </sodipodi:namedview>
  <path
     style="fill:#930000;fill-opacity:1;stroke:#202020;stroke-width:12;stroke-linecap:round;stroke-linejoin:miter;stroke-miterlimit:4;stroke-dasharray:none;stroke-opacity:1"
     d="m 40,68 h 48 v 36 H 40 Z"
     id="rect825"
     inkscape:connector-curvature="0"
     sodipodi:nodetypes="ccccc" />
  <path
     sodipodi:nodetypes="cccccc"
     inkscape:connector-curvature="0"
     id="path828"
     d="m 64,32 c 32,0 32,28 32,28 v 8 H 32 v -8 c 0,0 0,-28 32,-28 z"
     style="fill:#640000;fill-opacity:1;stroke:#202020;stroke-width:12;stroke-linecap:round;stroke-linejoin:miter;stroke-miterlimit:4;stroke-dasharray:none;stroke-opacity:1" />
  <path
     style="fill:#640000;fill-opacity:1;stroke:#202020;stroke-width:12;stroke-linecap:round;stroke-linejoin:miter;stroke-miterlimit:4;stroke-dasharray:none;stroke-opacity:1"
     d="M 64,140 C 32,140 32,112 32,112 v -8 h 64 v 8 c 0,0 0,28 -32,28 z"
     id="path830"
     inkscape:connector-curvature="0"
     sodipodi:nodetypes="cccccc" />
  <path
     d="M 82,8 H 46 v 24 h 36 z"
     id="path2"
     style="fill:#363636;fill-opacity:1;stroke:#202020;stroke-width:11.80000019"
     inkscape:connector-curvature="0"
     sodipodi:nodetypes="ccccc" />
  <path
     d="m 44.708,16 h -20 l -20,12 v 16 l 20,-12 h 20 z"
     id="path6"
     style="fill:#4a4a4a;fill-opacity:1;stroke:#202020;stroke-width:8"
     inkscape:connector-curvature="0" />
  <path
     d="m 40.802,10.443 a 26.451,26.451 0 0 1 12.603,3.534 26.451,26.451 0 0 1 9.682,36.135 26.451,26.451 0 0 1 -36.132,9.683 26.451,26.451 0 0 1 -9.682,-36.136 26.451,26.451 0 0 1 23.53,-13.216 z M 40.708,20 a 17.077,17.077 0 0 0 -15.193,8.536 17.077,17.077 0 0 0 6.25,23.327 17.077,17.077 0 0 0 23.326,-6.25 A 17.077,17.077 0 0 0 48.842,22.283 17.077,17.077 0 0 0 40.708,20 Z"
     id="path8"
     inkscape:connector-curvature="0"
     style="fill:#909090;stroke:#202020;stroke-width:4" />
</svg>
