<?xml version="1.0" encoding="UTF-8" standalone="no"?>
<svg
   style="isolation:isolate"
   width="160"
   height="185"
   version="1.1"
   id="svg1"
   sodipodi:docname="proj-bomb-iron-01-rev.svg"
   xml:space="preserve"
   inkscape:version="1.3 (0e150ed6c4, 2023-07-21)"
   xmlns:inkscape="http://www.inkscape.org/namespaces/inkscape"
   xmlns:sodipodi="http://sodipodi.sourceforge.net/DTD/sodipodi-0.dtd"
   xmlns="http://www.w3.org/2000/svg"
   xmlns:svg="http://www.w3.org/2000/svg"><defs
     id="defs1" /><sodipodi:namedview
     id="namedview1"
     pagecolor="#ffffff"
     bordercolor="#000000"
     borderopacity="0.25"
     inkscape:showpageshadow="2"
     inkscape:pageopacity="0.0"
     inkscape:pagecheckerboard="0"
     inkscape:deskcolor="#d1d1d1"
     inkscape:zoom="2.1507979"
     inkscape:cx="117.39829"
     inkscape:cy="104.84481"
     inkscape:window-width="1366"
     inkscape:window-height="697"
     inkscape:window-x="-8"
     inkscape:window-y="-8"
     inkscape:window-maximized="1"
     inkscape:current-layer="svg1" /><path
     d="m 62.892274,10.903505 17.107732,5.213782 17.10772,-5.213782 v 19.22582 L 87.002771,54.157753 H 74.297426 L 62.892274,30.129325 Z"
     fill="#c9be00"
     stroke="#202020"
     stroke-width="12"
     id="path1"
     style="fill:#3e4837;fill-opacity:1;stroke-width:7.8;stroke-dasharray:none"
     sodipodi:nodetypes="cccccccc" /><ellipse
     style="fill:#c9be00;fill-opacity:1;stroke:#202020;stroke-width:7.8;stroke-dasharray:none;stroke-opacity:1"
     id="path11"
     cx="80"
     cy="150.03136"
     rx="17.685188"
     ry="24.384596" /><path
     style="isolation:isolate;fill:#5d6d53;fill-opacity:1;stroke:#202020;stroke-width:7.8;stroke-dasharray:none;stroke-opacity:1"
     d="m 98.195644,151.62503 c 12.355326,-46.4278 1.35267,-65.166138 0.49377,-105.930681 L 79.589765,37.012688 62.226452,43.958017 c -1.727058,40.764555 -12.849089,61.239223 -0.49376,107.667013 11.630003,-10.96789 23.686371,-13.2634 36.462952,0 z"
     id="path10-9"
     sodipodi:nodetypes="cccccc" /><path
     d="M 80.000002,62.507594 A 10.870046,10.870046 0 0 0 69.129952,73.377644 10.870046,10.870046 0 0 0 80.000002,84.24769 10.870046,10.870046 0 0 0 90.870048,73.377644 10.870046,10.870046 0 0 0 80.000002,62.507594 Z m -4.90225,3.6506 10.945415,6.276216 c 0,0 0.460884,0.351323 0.671334,0.562345 a 4.9448566,4.9448566 0 0 1 1.452817,3.507399 c 0,1.268752 -0.48437,2.537504 -1.452817,3.505378 -1.936318,1.936608 -5.076749,1.936608 -7.013357,0 -0.08725,-0.08697 -0.249283,-0.268423 -0.249283,-0.268423 l -5.646341,-7.660624 2.59229,1.238309 -3.795823,-4.572377 3.939595,1.987342 -3.962204,-4.50165 4.461359,2.558086 z m 5.081676,3.970031 a 1.0449738,1.0449738 0 0 0 0,2.089656 1.044394,1.044394 0 0 0 1.0441,-1.044977 1.044394,1.044394 0 0 0 -1.0441,-1.044679 z m -3.009702,1.308463 a 0.44204855,0.44204855 0 0 0 0,0.883805 0.44204855,0.44204855 0 0 0 0,-0.884094 z m 5.603151,1.426149 -0.250741,1.666157 -1.27252,-1.104392 0.448138,1.624126 -1.611662,-0.491618 1.070477,1.301508 -1.672823,0.206681 1.507311,0.753655 -1.443831,0.869022 1.683548,0.07536 -0.965836,1.38122 1.568762,-0.61597 -0.3203,1.65457 1.182663,-1.200344 0.380302,1.641816 0.592201,-1.577756 1.015121,1.344987 -0.10146,-1.682389 1.474854,0.816266 -0.776845,-1.495716 1.67949,0.145512 -1.318029,-1.050775 1.59311,-0.549881 -1.631082,-0.424071 1.231939,-1.149618 -1.662686,0.27624 0.658,-1.551949 -1.407017,0.928443 -0.03076,-1.684708 -0.906994,1.420352 -0.713074,-1.526732 z m -4.649481,1.020331 a 0.63075255,0.63075255 0 1 0 0,1.261216 0.630753,0.630753 0 0 0 0,-1.261506 z"
     fill="#fefefe"
     stroke-width="1.78153"
     stroke-linecap="round"
     stroke-opacity="0.988"
     id="path3"
     style="fill:#c9be00;fill-opacity:1" /><g
     id="g14"
     transform="translate(-9.610538,-12)"><path
       style="fill:#c9be00;fill-opacity:1;stroke:#c9be00;stroke-width:1.12124;stroke-dasharray:none;stroke-opacity:1"
       d="m 88.272718,131.3372 c 0.712416,-1.00625 3.500486,-5.02225 6.195712,-8.92444 2.695224,-3.9022 5.05086,-7.15263 5.23475,-7.2232 0.18389,-0.0705 2.24213,-0.0918 4.57385,-0.0473 l 4.23951,0.081 -6.17633,8.89128 -6.176327,8.89128 -4.593233,0.0805 -4.593235,0.0805 z"
       id="path14" /><path
       style="isolation:isolate;fill:#c9be00;fill-opacity:1;stroke:#c9be00;stroke-width:1.12124;stroke-dasharray:none;stroke-opacity:1"
       d="m 102.27272,131.3372 c 0.71242,-1.00625 3.50049,-5.02225 6.19571,-8.92444 2.69523,-3.9022 5.05086,-7.15263 5.23475,-7.2232 0.18389,-0.0705 -2.35653,-2.79159 -0.0248,-2.74709 l 0.0248,2.74709 2.63703,8.92498 -6.17632,8.89128 -4.59324,0.0805 -4.59323,0.0805 z"
       id="path14-9"
       sodipodi:nodetypes="cscccccccc" /><path
       style="isolation:isolate;fill:#c9be00;fill-opacity:1;stroke:#c9be00;stroke-width:1.12124;stroke-dasharray:none;stroke-opacity:1"
       d="m 74.27272,131.3372 c 0.71242,-1.00625 3.50049,-5.02225 6.19571,-8.92444 2.69523,-3.9022 5.05086,-7.15263 5.23475,-7.2232 0.18389,-0.0705 2.24214,-0.0918 4.57385,-0.0473 l 4.23951,0.081 -6.17633,8.89128 -6.17632,8.89128 -4.59324,0.0805 -4.59323,0.0805 z"
       id="path14-4" /><path
       style="isolation:isolate;fill:#c9be00;fill-opacity:1;stroke:#c9be00;stroke-width:1.12124;stroke-dasharray:none;stroke-opacity:1"
       d="m 66.116134,129.13844 c 0.71242,-1.00625 -2.190254,-3.36702 0.504966,-7.26921 2.69523,-3.9022 5.05086,-7.15263 5.23475,-7.2232 0.18389,-0.0705 2.24214,-0.0918 4.57385,-0.0473 l 4.23951,0.081 -6.17633,8.89128 -6.17632,8.89128 -4.59324,0.0805 2.786201,2.45297 z"
       id="path14-4-4"
       sodipodi:nodetypes="cscccccccc" /></g><path
     style="isolation:isolate;fill:none;fill-opacity:1;stroke:#202020;stroke-width:7.8;stroke-dasharray:none;stroke-opacity:1"
     d="m 98.195644,151.62503 c 12.355326,-46.4278 1.35267,-65.166131 0.49377,-105.930681 l -19.099649,-8.68166 -17.363313,6.94533 c -1.727058,40.76456 -12.849089,61.239221 -0.49376,107.667011 11.630003,-10.96789 23.686371,-13.2634 36.462952,0 z"
     id="path10-9-7"
     sodipodi:nodetypes="cccccc" /></svg>
