<?xml version="1.0" standalone="no"?>
<!DOCTYPE svg PUBLIC "-//W3C//DTD SVG 20010904//EN"
 "http://www.w3.org/TR/2001/REC-SVG-20010904/DTD/svg10.dtd">
<svg version="1.0" xmlns="http://www.w3.org/2000/svg"
 width="500.000000pt" height="500.000000pt" viewBox="0 0 500.000000 500.000000"
 preserveAspectRatio="xMidYMid meet">

<g transform="translate(0.000000,500.000000) scale(0.100000,-0.100000)"
fill="#000000" stroke="none">
<path d="M0 2500 l0 -2500 2500 0 2500 0 0 2500 0 2500 -2500 0 -2500 0 0
-2500z m2544 1389 l26 -20 0 -188 0 -187 93 -83 c50 -46 97 -85 103 -88 7 -2
76 28 154 67 l142 71 29 -27 c23 -22 29 -37 29 -69 l0 -40 -135 -68 -135 -67
0 -280 0 -280 135 -67 135 -68 0 -40 c0 -32 -6 -47 -29 -69 l-29 -27 -142 71
c-78 39 -146 70 -151 68 -5 -2 -51 -41 -103 -88 l-95 -85 -1 -187 0 -187 -26
-20 c-34 -27 -64 -27 -98 0 l-26 20 0 187 0 187 -95 85 c-52 47 -99 86 -104
88 -5 2 -73 -29 -151 -68 l-142 -71 -29 27 c-23 22 -29 37 -29 69 l0 40 135
68 135 67 0 280 0 280 -135 67 -135 68 0 40 c0 32 6 47 29 69 l29 27 142 -71
c78 -39 147 -69 154 -67 6 3 53 42 104 88 l92 83 0 187 0 188 26 20 c15 12 37
21 49 21 12 0 34 -9 49 -21z m-454 -2142 c51 -18 72 -61 78 -168 l5 -89 -52 0
-51 0 0 79 c0 87 -12 111 -55 111 -44 0 -55 -24 -55 -119 0 -102 6 -112 87
-131 95 -22 123 -71 122 -215 -1 -147 -33 -189 -146 -189 -124 -1 -157 38
-158 184 l0 85 45 0 45 0 5 -87 c3 -47 8 -89 11 -92 3 -3 19 -9 36 -12 50 -10
63 13 63 109 0 100 -11 120 -76 136 -116 29 -139 70 -132 230 3 82 8 106 24
128 24 33 72 52 129 52 22 0 56 -5 75 -12z m400 -5 c51 -25 70 -70 70 -169 l0
-83 -50 0 -50 0 0 85 c0 73 -3 86 -19 95 -29 15 -49 12 -71 -10 -19 -19 -20
-33 -20 -270 0 -237 1 -251 20 -270 11 -11 29 -20 40 -20 11 0 29 9 40 20 17
17 20 33 20 101 l0 80 48 -3 47 -3 -2 -93 c-3 -130 -30 -167 -132 -179 -73 -8
-133 16 -157 65 -16 33 -18 67 -19 302 0 249 1 267 20 300 26 44 76 70 135 70
25 0 61 -8 80 -18z m402 -6 c49 -32 53 -60 53 -346 0 -289 -2 -303 -58 -344
-41 -30 -153 -30 -194 0 -53 39 -55 53 -55 344 0 305 4 326 70 354 46 20 148
16 184 -8z m-1340 -24 l33 -32 3 -278 c2 -264 1 -279 -18 -310 -29 -47 -73
-62 -185 -62 l-95 0 0 361 0 361 115 -4 c114 -3 115 -3 147 -36z m228 -322 l0
-360 -50 0 -50 0 0 360 0 360 50 0 50 0 0 -360z m1488 340 c50 -31 62 -71 62
-210 0 -128 -11 -176 -48 -201 -19 -14 -19 -16 14 -129 52 -181 53 -162 -8
-158 l-52 3 -31 125 c-27 110 -34 125 -53 128 -22 3 -22 2 -22 -127 l0 -131
-50 0 -50 0 0 360 0 360 103 0 c85 0 108 -3 135 -20z m380 0 c57 -35 62 -61
61 -337 0 -270 -5 -302 -52 -337 -24 -18 -46 -22 -143 -24 l-114 -4 0 361 0
361 108 0 c90 0 112 -3 140 -20z m-1958 -888 c51 -25 70 -70 70 -169 l0 -83
-45 0 -45 0 0 75 c0 81 -18 115 -60 115 -42 0 -60 -34 -59 -112 1 -104 4 -109
90 -138 57 -19 78 -32 95 -57 43 -64 39 -261 -7 -309 -29 -31 -91 -48 -148
-40 -93 13 -121 57 -121 191 l0 85 45 0 45 0 0 -80 c0 -67 3 -83 20 -100 25
-25 55 -25 80 0 16 16 20 32 19 88 -2 109 -4 113 -88 142 -86 29 -110 54 -122
127 -9 54 -2 161 13 211 19 63 141 93 218 54z m418 -34 l-3 -43 -78 0 -77 0 0
-112 0 -113 75 0 75 0 0 -45 0 -45 -75 0 -75 0 0 -115 0 -114 78 -3 77 -3 3
-42 3 -43 -130 0 -131 0 0 360 0 360 131 0 130 0 -3 -42z m300 22 c53 -33 64
-73 60 -224 -3 -136 -3 -134 -52 -201 -8 -11 8 -81 60 -258 5 -16 0 -18 -47
-15 l-53 3 -31 125 c-27 110 -34 125 -53 128 -22 3 -22 2 -22 -127 l0 -131
-50 0 -50 0 0 360 0 360 103 0 c85 0 108 -3 135 -20z m240 -172 c12 -106 25
-238 28 -293 6 -114 11 -145 23 -145 4 0 11 55 15 123 6 107 36 381 51 475 6
31 7 32 56 32 l50 0 -6 -32 c-7 -45 -85 -662 -85 -677 0 -7 -28 -11 -84 -11
l-83 0 -7 68 c-3 37 -24 199 -44 360 l-38 292 50 0 51 0 23 -192z m542 146 l0
-45 -77 2 -78 2 -3 -111 -3 -112 76 0 75 0 0 -45 0 -45 -75 0 -75 0 0 -115 0
-115 80 0 80 0 0 -45 0 -45 -130 0 -130 0 0 360 0 360 130 0 130 0 0 -46z
m295 32 c56 -24 69 -62 70 -206 0 -143 -5 -167 -40 -203 l-26 -25 39 -136 40
-136 -53 0 -53 0 -32 130 c-31 124 -34 130 -57 130 l-26 0 5 -130 5 -130 -49
0 -48 0 0 360 0 360 95 0 c60 0 108 -5 130 -14z"/>
<path d="M2390 3269 c-99 -91 -100 -92 -100 -138 l0 -46 122 122 c105 105 120
124 109 137 -8 9 -17 16 -22 16 -5 0 -54 -41 -109 -91z"/>
<path d="M2467 3052 l-178 -178 3 -52 3 -52 203 203 203 203 -29 27 -28 27
-177 -178z"/>
<path d="M2516 2781 l-179 -179 79 -75 79 -74 102 95 103 95 0 159 c0 87 -1
158 -3 158 -1 0 -83 -81 -181 -179z"/>
<path d="M2750 1660 c-19 -19 -20 -33 -20 -270 0 -237 1 -251 20 -270 11 -11
29 -20 40 -20 11 0 29 9 40 20 19 19 20 33 20 273 0 233 -1 255 -18 270 -25
23 -58 21 -82 -3z"/>
<path d="M1386 1663 c-3 -4 -6 -127 -6 -275 l0 -268 44 0 c71 0 71 0 71 271 0
199 -2 241 -15 252 -16 15 -84 29 -94 20z"/>
<path d="M3130 1526 l0 -146 38 0 c21 0 43 5 50 12 17 17 17 242 0 256 -7 6
-30 13 -50 17 l-38 7 0 -146z"/>
<path d="M3506 1663 c-3 -4 -6 -127 -6 -275 l0 -268 43 0 c24 0 48 5 55 12 18
18 17 502 0 515 -16 12 -84 24 -92 16z"/>
<path d="M2270 625 l0 -145 38 0 c21 0 43 5 50 12 17 17 17 242 0 256 -7 5
-30 13 -50 16 l-38 6 0 -145z"/>
<path d="M3356 762 c-3 -3 -6 -68 -6 -144 l0 -138 39 0 c63 0 71 15 71 139 0
70 -4 113 -12 124 -13 16 -81 31 -92 19z"/>
</g>
</svg>
