<?xml version="1.0" encoding="UTF-8" standalone="no"?>
<!-- Created with Inkscape (http://www.inkscape.org/) -->

<svg
   width="300"
   height="250"
   viewBox="0 0 79.374998 66.145833"
   version="1.1"
   id="svg1"
   inkscape:version="1.3 (0e150ed6c4, 2023-07-21)"
   sodipodi:docname="discord-promo.svg"
   xml:space="preserve"
   inkscape:export-filename="discord-promo.png"
   inkscape:export-xdpi="96"
   inkscape:export-ydpi="96"
   xmlns:inkscape="http://www.inkscape.org/namespaces/inkscape"
   xmlns:sodipodi="http://sodipodi.sourceforge.net/DTD/sodipodi-0.dtd"
   xmlns:xlink="http://www.w3.org/1999/xlink"
   xmlns="http://www.w3.org/2000/svg"
   xmlns:svg="http://www.w3.org/2000/svg"><sodipodi:namedview
     id="namedview1"
     pagecolor="#505050"
     bordercolor="#ffffff"
     borderopacity="1"
     inkscape:showpageshadow="0"
     inkscape:pageopacity="0"
     inkscape:pagecheckerboard="1"
     inkscape:deskcolor="#505050"
     inkscape:document-units="px"
     inkscape:zoom="2"
     inkscape:cx="107"
     inkscape:cy="130"
     inkscape:window-width="2560"
     inkscape:window-height="1560"
     inkscape:window-x="-12"
     inkscape:window-y="-12"
     inkscape:window-maximized="1"
     inkscape:current-layer="layer1" /><defs
     id="defs1"><linearGradient
       id="linearGradient8"
       inkscape:collect="always"><stop
         style="stop-color:#7289da;stop-opacity:1;"
         offset="0.2007772"
         id="stop8" /><stop
         style="stop-color:#11143b;stop-opacity:1;"
         offset="1"
         id="stop9" /></linearGradient><radialGradient
       inkscape:collect="always"
       xlink:href="#linearGradient8"
       id="radialGradient9"
       cx="47.832207"
       cy="44.702724"
       fx="47.832207"
       fy="44.702724"
       r="39.686985"
       gradientTransform="matrix(1.2203741,-1.2203742,1.2360349,1.2360349,-73.608562,42.673767)"
       gradientUnits="userSpaceOnUse" /></defs><g
     inkscape:label="Layer 1"
     inkscape:groupmode="layer"
     id="layer1"><rect
       style="font-style:normal;font-variant:normal;font-weight:normal;font-stretch:normal;font-size:8.46667px;line-height:1;font-family:'Roboto Condensed';-inkscape-font-specification:'Roboto Condensed, Normal';font-variant-ligatures:normal;font-variant-caps:normal;font-variant-numeric:normal;font-variant-east-asian:normal;text-align:center;text-anchor:middle;fill:url(#radialGradient9);fill-opacity:1;stroke:#000000;stroke-width:0.52916666;stroke-linejoin:miter;stroke-dasharray:none;paint-order:normal"
       id="rect7"
       width="78.844803"
       height="65.617706"
       x="0.26561686"
       y="0.2635498" /><text
       xml:space="preserve"
       style="font-style:normal;font-variant:normal;font-weight:normal;font-stretch:normal;font-size:8.46667px;line-height:1;font-family:'Roboto Condensed';-inkscape-font-specification:'Roboto Condensed, @wght=600';font-variant-ligatures:normal;font-variant-caps:normal;font-variant-numeric:normal;font-variant-east-asian:normal;text-align:center;text-anchor:middle;fill:#ffffff;fill-opacity:1;stroke-width:0.264583;font-variation-settings:'wght' 600"
       x="39.782562"
       y="11.728485"
       id="text1"><tspan
         sodipodi:role="line"
         style="font-style:normal;font-variant:normal;font-weight:normal;font-stretch:normal;font-size:8.46666957px;line-height:1;font-family:'Roboto Condensed';-inkscape-font-specification:'Roboto Condensed, @wght=600';font-variant-ligatures:normal;font-variant-caps:normal;font-variant-numeric:normal;font-variant-east-asian:normal;text-align:center;text-anchor:middle;fill:#ffffff;fill-opacity:1;stroke-width:0.264583;font-variation-settings:'wght' 600"
         x="39.782562"
         y="11.728485"
         id="tspan2">Join the official</tspan><tspan
         sodipodi:role="line"
         style="font-style:normal;font-variant:normal;font-weight:normal;font-stretch:normal;font-size:8.46666957px;line-height:1;font-family:'Roboto Condensed';-inkscape-font-specification:'Roboto Condensed, @wght=600';font-variant-ligatures:normal;font-variant-caps:normal;font-variant-numeric:normal;font-variant-east-asian:normal;text-align:center;text-anchor:middle;fill:#ffffff;fill-opacity:1;stroke-width:0.264583;font-variation-settings:'wght' 600"
         x="39.782562"
         y="20.195156"
         id="tspan4">survev.io discord!</tspan></text><text
       xml:space="preserve"
       style="font-style:normal;font-variant:normal;font-weight:normal;font-stretch:normal;font-size:4.23333px;line-height:1;font-family:'Roboto Condensed';-inkscape-font-specification:'Roboto Condensed, Normal';font-variant-ligatures:normal;font-variant-caps:normal;font-variant-numeric:normal;font-variant-east-asian:normal;text-align:center;text-anchor:middle;fill:#ffffff;fill-opacity:1;stroke-width:0.264583"
       x="39.782562"
       y="59.882595"
       id="text6"><tspan
         sodipodi:role="line"
         id="tspan7"
         x="39.782562"
         y="59.882595">(Click this banner or the button below it)</tspan></text><path
       fill="#ffffff"
       d="m 51.363537,27.769607 a 27.820937,27.820937 0 0 0 -6.940021,-2.135187 19.065875,19.065875 0 0 0 -0.889,1.807104 25.8445,25.8445 0 0 0 -7.702021,0 19.147896,19.147896 0 0 0 -0.889,-1.807104 28.016729,28.016729 0 0 0 -6.945312,2.140479 c -4.392083,6.498167 -5.582708,12.834937 -4.987396,19.08175 v 0 a 27.974395,27.974395 0 0 0 8.511646,4.273021 20.558125,20.558125 0 0 0 1.822979,-2.939521 18.102791,18.102791 0 0 1 -2.870729,-1.370542 c 0.240771,-0.174625 0.47625,-0.354541 0.703792,-0.529166 a 19.994562,19.994562 0 0 0 17.017999,0 c 0.230188,0.187854 0.465667,0.36777 0.703792,0.529166 a 18.171583,18.171583 0 0 1 -2.876021,1.373188 20.372916,20.372916 0 0 0 1.822979,2.936875 27.847395,27.847395 0 0 0 8.516937,-4.270375 v 0 c 0.6985,-7.244292 -1.19327,-13.522854 -5.000624,-19.089688 z M 34.099474,43.014899 c -1.658937,0 -3.029479,-1.505479 -3.029479,-3.357563 0,-1.852083 1.322917,-3.370791 3.024188,-3.370791 1.70127,0 3.061229,1.518708 3.032125,3.370791 -0.0291,1.852084 -1.336146,3.357563 -3.026834,3.357563 z m 11.176,0 c -1.661583,0 -3.026833,-1.505479 -3.026833,-3.357563 0,-1.852083 1.322917,-3.370791 3.026833,-3.370791 1.703917,0 3.053292,1.518708 3.024188,3.370791 -0.02911,1.852084 -1.3335,3.357563 -3.024188,3.357563 z"
       id="path1"
       style="stroke-width:0.264583" /></g></svg>
