<?xml version="1.0" encoding="UTF-8" standalone="no"?>
<svg
   width="252.64778mm"
   height="74.391029mm"
   viewBox="0 0 252.64778 74.391029"
   version="1.1"
   id="svg5"
   xml:space="preserve"
   xmlns="http://www.w3.org/2000/svg"
   xmlns:svg="http://www.w3.org/2000/svg"
   xmlns:rdf="http://www.w3.org/1999/02/22-rdf-syntax-ns#"
   xmlns:cc="http://creativecommons.org/ns#"
   xmlns:dc="http://purl.org/dc/elements/1.1/"><metadata
     id="metadata55"><rdf:RDF><cc:Work
         rdf:about=""><dc:format>image/svg+xml</dc:format><dc:type
           rdf:resource="http://purl.org/dc/dcmitype/StillImage" /></cc:Work></rdf:RDF></metadata><defs
     id="defs2"><filter
       style="color-interpolation-filters:sRGB"
       id="filter5892"
       x="-0.01297533"
       y="-0.079895924"
       width="1.0330912"
       height="1.2037597"><feFlood
         flood-opacity="0.91000000000000003"
         flood-color="rgb(0,0,0)"
         result="flood"
         id="feFlood5882" /><feComposite
         in="flood"
         in2="SourceGraphic"
         operator="in"
         result="composite1"
         id="feComposite5884" /><feGaussianBlur
         in="composite1"
         stdDeviation="0.7"
         result="blur"
         id="feGaussianBlur5886" /><feOffset
         dx="1.75"
         dy="1.75"
         result="offset"
         id="feOffset5888" /><feComposite
         in="SourceGraphic"
         in2="offset"
         operator="over"
         result="composite2"
         id="feComposite5890" /></filter></defs><g
     id="layer1"
     style="display:inline"
     transform="translate(362.59848,-270.93391)"><g
       id="g5637"><g
         id="g5995"><path
           id="rect161992-2"
           style="fill:none;stroke:#ffffff;stroke-width:3;stroke-linejoin:miter;stroke-dasharray:none;filter:url(#filter5892)"
           d="m -359.56482,273.96757 h 245.08047 v 39.80178 h -245.08047 z" /><g
           id="g5808"
           style="filter:url(#filter5892)"><g
             aria-label="BATTLE ROYALE"
             id="text302784"
             style="font-size:52.9167px;line-height:1.25;font-family:Jura;-inkscape-font-specification:Jura;letter-spacing:0px;word-spacing:0px;stroke-width:0.264583"
             transform="matrix(0.48444306,0,0,0.48444306,-358.13532,271.94619)"><path
               d="m 53.970616,143.36578 q -2.222502,0 -2.222502,-2.2225 v -31.43252 q 0,-2.2225 2.222502,-2.2225 h 13.811258 q 4.206877,0 6.455837,2.2225 2.275418,2.2225 2.275418,6.35001 v 1.42875 q 0,3.57188 -2.248959,5.52979 4.206877,2.3548 4.206877,8.59897 v 1.79916 q 0,4.86834 -2.592918,7.40834 -2.56646,2.54 -7.408338,2.54 z m 2.222501,-4.445 h 12.276674 q 2.989793,0 4.259794,-1.27 1.296459,-1.29646 1.296459,-4.23334 v -1.79916 q 0,-2.93688 -1.243542,-4.18042 -1.243542,-1.27 -4.312711,-1.27 H 56.193117 Z m 0,-17.19793 h 12.541258 q 1.931459,0 2.619376,-1.19062 0.714376,-1.19063 0.714376,-3.04271 v -1.42875 q 0,-2.30188 -0.952501,-3.20146 -0.952501,-0.92605 -3.333752,-0.92605 H 56.193117 Z"
               style="fill:#00ff00"
               id="path918" /><path
               d="m 85.667634,143.15412 q -2.116668,-0.82021 -1.270001,-2.91042 l 12.594174,-31.00919 q 0.793751,-1.74625 2.487085,-1.74625 h 0.105834 q 1.719794,0.0794 2.328334,1.74625 l 12.80584,31.00919 q 0.84667,2.09021 -1.21708,2.91042 -2.09021,0.82021 -2.91042,-1.21709 l -2.8575,-6.93208 H 91.250346 l -2.72521,6.93208 q -0.820209,2.06375 -2.857502,1.21709 z m 7.328963,-12.59418 h 12.911673 l -6.588128,-16.03376 z"
               style="fill:#00ff00"
               id="path920" /><path
               d="m 129.11206,143.36578 q -1.11125,0 -1.66688,-0.55562 -0.55562,-0.55563 -0.55562,-1.66688 v -29.1571 h -10.26584 q -1.11125,0 -1.66688,-0.55562 -0.55562,-0.55563 -0.55562,-1.66688 0,-1.11125 0.55562,-1.66688 0.55563,-0.55562 1.66688,-0.55562 h 24.97668 q 1.11125,0 1.66688,0.55562 0.55562,0.55563 0.55562,1.66688 0,1.11125 -0.55562,1.66688 -0.55563,0.55562 -1.66688,0.55562 h -10.26584 v 29.1571 q 0,1.05834 -0.58208,1.64042 -0.55563,0.58208 -1.64042,0.58208 z"
               style="fill:#00ff00"
               id="path922" /><path
               d="m 161.60283,143.36578 q -1.11125,0 -1.66688,-0.55562 -0.55562,-0.55563 -0.55562,-1.66688 v -29.1571 h -10.26584 q -1.11125,0 -1.66688,-0.55562 -0.55562,-0.55563 -0.55562,-1.66688 0,-1.11125 0.55562,-1.66688 0.55563,-0.55562 1.66688,-0.55562 h 24.97668 q 1.11125,0 1.66688,0.55562 0.55562,0.55563 0.55562,1.66688 0,1.11125 -0.55562,1.66688 -0.55563,0.55562 -1.66688,0.55562 h -10.26584 v 29.1571 q 0,1.05834 -0.58208,1.64042 -0.55563,0.58208 -1.64042,0.58208 z"
               style="fill:#00ff00"
               id="path924" /><path
               d="m 185.57401,143.36578 q -2.2225,0 -2.2225,-2.2225 v -31.43252 q 0,-2.2225 2.2225,-2.2225 2.2225,0 2.2225,2.2225 v 29.21002 h 14.65793 q 2.2225,0 2.2225,2.2225 0,2.2225 -2.2225,2.2225 z"
               style="fill:#00ff00"
               id="path926" /><path
               d="m 214.20186,143.36578 q -2.2225,0 -2.2225,-2.2225 v -31.43252 q 0,-2.2225 2.2225,-2.2225 h 18.9971 q 2.2225,0 2.2225,2.2225 0,2.2225 -2.2225,2.2225 h -16.7746 v 11.11251 h 10.53043 q 2.2225,0 2.2225,2.2225 0,2.2225 -2.2225,2.2225 h -10.53043 v 11.43001 h 16.7746 q 2.2225,0 2.2225,2.2225 0,2.2225 -2.2225,2.2225 z"
               style="fill:#00ff00"
               id="path928" /><path
               d="m 283.57555,143.47162 q -0.87313,0.55562 -1.66688,0.34396 -0.79375,-0.21167 -1.34937,-1.0848 l -8.20209,-13.6525 h -7.40834 v 12.065 q 0,2.2225 -2.2225,2.2225 -2.2225,0 -2.2225,-2.2225 v -31.43252 q 0,-2.2225 2.2225,-2.2225 h 12.38251 q 4.84187,0 7.40833,2.59292 2.59292,2.56646 2.59292,7.40834 v 1.5875 q 0,4.20688 -1.95792,6.72042 -1.95791,2.48708 -5.66208,3.09563 l 6.93208,11.5623 q 1.00542,1.85208 -0.84666,3.01625 z m -18.62668,-18.83835 h 10.16001 q 3.01625,0 4.28625,-1.27 1.27,-1.27 1.27,-4.28625 v -1.5875 q 0,-2.9898 -1.27,-4.2598 -1.27,-1.29646 -4.28625,-1.29646 h -10.16001 z"
               style="fill:#00ff00"
               id="path930" /><path
               d="m 304.16004,143.36578 q -6.05897,0 -8.96938,-2.88396 -2.88396,-2.91041 -2.88396,-8.96938 v -12.22375 q 0,-6.11188 2.91041,-8.96938 2.91042,-2.88396 8.94293,-2.83105 h 6.35 q 6.08542,0 8.96938,2.88396 2.88396,2.88396 2.88396,8.96938 v 12.17084 q 0,6.05897 -2.88396,8.96938 -2.88396,2.88396 -8.96938,2.88396 z m 0,-4.445 h 6.35 q 2.83104,0 4.445,-0.66146 1.61396,-0.68791 2.27542,-2.30187 0.68792,-1.61396 0.68792,-4.44501 V 119.3416 q 0,-2.80458 -0.68792,-4.41854 -0.66146,-1.61396 -2.27542,-2.30188 -1.61396,-0.68792 -4.445,-0.68792 h -6.35 q -2.80459,-0.0265 -4.41855,0.63501 -1.61396,0.66145 -2.30187,2.27541 -0.68792,1.61396 -0.68792,4.44501 v 12.22375 q 0,2.83105 0.66146,4.44501 0.68791,1.61396 2.30187,2.30187 1.61396,0.66146 4.44501,0.66146 z"
               style="fill:#00ff00"
               id="path932" /><path
               d="m 341.5456,143.36578 q -2.2225,0 -2.2225,-2.2225 v -10.795 l -12.11793,-19.3146 q -1.11125,-1.905 0.68792,-3.12208 1.905,-1.16417 3.06917,0.68791 l 10.58334,16.98626 11.1125,-16.98626 q 0.55563,-0.87312 1.34938,-1.03187 0.79375,-0.18521 1.66688,0.44979 1.93146,1.19062 0.68791,3.01625 l -12.59417,19.3146 v 10.795 q 0,2.2225 -2.2225,2.2225 z"
               style="fill:#00ff00"
               id="path934" /><path
               d="m 359.24616,143.15412 q -2.11667,-0.82021 -1.27001,-2.91042 l 12.59418,-31.00919 q 0.79375,-1.74625 2.48708,-1.74625 h 0.10584 q 1.71979,0.0794 2.32833,1.74625 l 12.80584,31.00919 q 0.84667,2.09021 -1.21708,2.91042 -2.09021,0.82021 -2.91042,-1.21709 l -2.8575,-6.93208 h -16.48355 l -2.72521,6.93208 q -0.82021,2.06375 -2.8575,1.21709 z m 7.32896,-12.59418 h 12.91167 l -6.58813,-16.03376 z"
               style="fill:#00ff00"
               id="path936" /><path
               d="m 398.40442,143.36578 q -2.2225,0 -2.2225,-2.2225 v -31.43252 q 0,-2.2225 2.2225,-2.2225 2.2225,0 2.2225,2.2225 v 29.21002 h 14.65793 q 2.2225,0 2.2225,2.2225 0,2.2225 -2.2225,2.2225 z"
               style="fill:#00ff00"
               id="path938" /><path
               d="m 427.03229,143.36578 q -2.2225,0 -2.2225,-2.2225 v -31.43252 q 0,-2.2225 2.2225,-2.2225 h 18.9971 q 2.2225,0 2.2225,2.2225 0,2.2225 -2.2225,2.2225 h -16.7746 v 11.11251 h 10.53043 q 2.2225,0 2.2225,2.2225 0,2.2225 -2.2225,2.2225 h -10.53043 v 11.43001 h 16.7746 q 2.2225,0 2.2225,2.2225 0,2.2225 -2.2225,2.2225 z"
               style="fill:#00ff00"
               id="path940" /></g><g
             aria-label="RESURVIV.IO"
             id="text645"
             style="font-size:76.7292px;vector-effect:none;fill:#ffe400;stroke-width:0.211352;stop-color:#000000"
             transform="matrix(0.48444306,0,0,0.48444306,134.23101,541.88447)"><path
               d="m -962.53284,-486.13502 q -1.26604,0.80565 -2.41697,0.49874 -1.15094,-0.30692 -1.9566,-1.57295 l -11.89303,-19.79614 h -10.74208 v 17.49426 q 0,3.22263 -3.22263,3.22263 -3.22263,0 -3.22263,-3.22263 v -45.57715 q 0,-3.22262 3.22263,-3.22262 h 17.95463 q 7.02073,0 10.74209,3.75973 3.75973,3.72137 3.75973,10.74209 v 2.30187 q 0,6.09998 -2.83898,9.74461 -2.83898,3.60627 -8.21002,4.48866 l 10.05152,16.76533 q 1.45786,2.68552 -1.22766,4.37357 z m -27.00868,-27.3156 h 14.732 q 4.37357,0 6.21507,-1.8415 1.8415,-1.8415 1.8415,-6.21507 v -2.30187 q 0,-4.3352 -1.8415,-6.1767 -1.8415,-1.87987 -6.21507,-1.87987 h -14.732 z"
               style="fill:#ffe400;fill-opacity:1"
               id="path857" /><path
               d="m -944.8084,-486.28848 q -3.22263,0 -3.22263,-3.22263 v -45.57715 q 0,-3.22262 3.22263,-3.22262 h 27.54578 q 3.22263,0 3.22263,3.22262 0,3.22263 -3.22263,3.22263 h -24.32315 v 16.11313 h 15.26911 q 3.22262,0 3.22262,3.22263 0,3.22263 -3.22262,3.22263 h -15.26911 v 16.5735 h 24.32315 q 3.22263,0 3.22263,3.22263 0,3.22263 -3.22263,3.22263 z"
               style="fill:#ffe400;fill-opacity:1"
               id="path859" /><path
               d="m -888.75767,-486.28848 q -6.56034,0 -10.24334,-2.64716 -3.64464,-2.64716 -4.56539,-8.17166 -0.15346,-1.68804 0.69056,-2.53206 0.84402,-0.84403 2.45534,-0.84403 1.61131,0 2.34024,0.7673 0.76729,0.76729 1.03584,2.3786 0.57547,2.64716 2.45533,3.64464 1.91823,0.95911 5.83142,0.95911 h 11.04901 q 4.94903,0 6.7138,-1.76477 1.80314,-1.80313 1.80314,-6.67544 0,-4.94903 -1.8415,-6.75217 -1.8415,-1.8415 -6.67544,-1.8415 h -9.51442 q -7.25091,0 -10.78046,-3.52954 -3.49117,-3.56791 -3.49117,-10.81882 0,-7.21254 3.45281,-10.70372 3.49118,-3.49118 10.74209,-3.49118 h 9.13077 q 6.09998,0 9.55279,2.4937 3.49118,2.4937 4.41193,7.63455 0.23019,1.64968 -0.61384,2.53207 -0.84402,0.84402 -2.53206,0.84402 -1.53458,0 -2.30187,-0.80566 -0.7673,-0.80566 -0.99748,-2.34024 -0.61384,-2.26351 -2.34025,-3.06917 -1.7264,-0.84402 -5.17922,-0.84402 h -9.13077 q -4.60375,0 -6.1767,1.64968 -1.57295,1.61131 -1.57295,6.09997 0,4.52702 1.61131,6.21507 1.61132,1.68804 6.21507,1.68804 h 9.51442 q 7.55783,0 11.24083,3.683 3.72136,3.683 3.72136,11.35592 0,7.63456 -3.683,11.27919 -3.683,3.60628 -11.27919,3.60628 z"
               style="fill:#ffffff"
               id="path861" /><path
               d="m -831.82467,-486.28848 q -8.78549,0 -13.0056,-4.18174 -4.18174,-4.22011 -4.18174,-13.0056 v -31.61244 q 0,-1.61131 0.80566,-2.41697 0.80565,-0.80565 2.41697,-0.80565 1.61131,0 2.41697,0.80565 0.80565,0.80566 0.80565,2.41697 v 31.61244 q 0,4.10501 0.95912,6.44525 0.99748,2.34024 3.33772,3.33772 2.34024,0.95911 6.44525,0.95911 h 9.20751 q 4.10501,0 6.44525,-0.95911 2.34024,-0.99748 3.29936,-3.33772 0.99747,-2.34024 0.99747,-6.44525 v -31.61244 q 0,-1.61131 0.80566,-2.41697 0.80566,-0.80565 2.41697,-0.80565 1.61131,0 2.41697,0.80565 0.80566,0.80566 0.80566,2.41697 v 31.61244 q 0,8.78549 -4.18174,13.0056 -4.18175,4.18174 -13.0056,4.18174 z"
               style="fill:#ffffff"
               id="path863" /><path
               d="m -756.3998,-486.13502 q -1.26603,0.80565 -2.41697,0.49874 -1.15094,-0.30692 -1.9566,-1.57295 l -11.89302,-19.79614 h -10.74209 v 17.49426 q 0,3.22263 -3.22263,3.22263 -3.22263,0 -3.22263,-3.22263 v -45.57715 q 0,-3.22262 3.22263,-3.22262 h 17.95463 q 7.02073,0 10.74209,3.75973 3.75973,3.72137 3.75973,10.74209 v 2.30187 q 0,6.09998 -2.83898,9.74461 -2.83898,3.60627 -8.21002,4.48866 l 10.05152,16.76533 q 1.45786,2.68552 -1.22766,4.37357 z m -27.00868,-27.3156 h 14.732 q 4.37357,0 6.21507,-1.8415 1.8415,-1.8415 1.8415,-6.21507 v -2.30187 q 0,-4.3352 -1.8415,-6.1767 -1.8415,-1.87987 -6.21507,-1.87987 h -14.732 z"
               style="fill:#ffffff"
               id="path865" /><path
               d="m -726.32197,-486.28848 q -1.99496,0 -3.1459,-2.53207 l -18.95211,-44.88658 q -0.57547,-1.34276 -0.30692,-2.3786 0.26856,-1.07421 1.76478,-1.76478 3.14589,-1.57295 4.45029,1.61132 l 17.91627,42.43125 h -2.22515 l 17.45589,-42.43125 q 1.26604,-3.1459 4.4503,-1.61132 1.34276,0.69057 1.64968,1.76478 0.34528,1.03584 -0.19183,2.3786 l -19.10557,44.88658 q -1.1893,2.53207 -3.45281,2.53207 z"
               style="fill:#ffffff"
               id="path867" /><path
               d="m -690.10583,-486.28848 q -1.64967,0 -2.45533,-0.76729 -0.76729,-0.80566 -0.76729,-2.45534 v -45.50042 q 0,-1.68804 0.76729,-2.45533 0.80566,-0.76729 2.45533,-0.76729 1.68805,0 2.45534,0.76729 0.76729,0.76729 0.76729,2.45533 v 45.50042 q 0,1.64968 -0.76729,2.45534 -0.76729,0.76729 -2.45534,0.76729 z"
               style="fill:#ffffff"
               id="path869" /><path
               d="m -654.58022,-486.28848 q -1.99496,0 -3.1459,-2.53207 l -18.95211,-44.88658 q -0.57547,-1.34276 -0.30692,-2.3786 0.26855,-1.07421 1.76477,-1.76478 3.1459,-1.57295 4.45029,1.61132 l 17.91627,42.43125 h -2.22514 l 17.45589,-42.43125 q 1.26603,-3.1459 4.45029,-1.61132 1.34276,0.69057 1.64968,1.76478 0.34528,1.03584 -0.19182,2.3786 l -19.10557,44.88658 q -1.18931,2.53207 -3.45282,2.53207 z"
               style="fill:#ffffff"
               id="path871" /><path
               d="m -620.05211,-486.28848 q -3.06917,0 -3.06917,-3.06917 v -1.91823 q 0,-2.99244 3.06917,-2.99244 h 1.8415 q 2.91571,0 2.91571,2.99244 v 1.91823 q 0,3.06917 -2.91571,3.06917 z"
               style="font-weight:bold;font-family:Jura;-inkscape-font-specification:'Jura Bold';vector-effect:none;stop-color:#000000;stop-opacity:1"
               id="path873" /><path
               d="m -597.64715,-486.28848 q -1.64967,0 -2.45533,-0.76729 -0.76729,-0.80566 -0.76729,-2.45534 v -45.50042 q 0,-1.68804 0.76729,-2.45533 0.80566,-0.76729 2.45533,-0.76729 1.68805,0 2.45534,0.76729 0.76729,0.76729 0.76729,2.45533 v 45.50042 q 0,1.64968 -0.76729,2.45534 -0.76729,0.76729 -2.45534,0.76729 z"
               style="font-weight:bold;font-family:Jura;-inkscape-font-specification:'Jura Bold';vector-effect:none;stop-color:#000000;stop-opacity:1"
               id="path875" /><path
               d="m -563.11902,-486.28848 q -8.7855,0 -13.0056,-4.18174 -4.18175,-4.22011 -4.18175,-13.0056 v -17.72445 q 0,-8.86222 4.22011,-13.0056 4.22011,-4.18174 12.96724,-4.10501 h 9.2075 q 8.82386,0 13.0056,4.18174 4.18174,4.18174 4.18174,13.0056 v 17.64772 q 0,8.78549 -4.18174,13.0056 -4.18174,4.18174 -13.0056,4.18174 z m 0,-6.44526 h 9.2075 q 4.10501,0 6.44525,-0.95911 2.34024,-0.99748 3.29936,-3.33772 0.99748,-2.34024 0.99748,-6.44525 v -17.64772 q 0,-4.06665 -0.99748,-6.40689 -0.95912,-2.34024 -3.29936,-3.33772 -2.34024,-0.99748 -6.44525,-0.99748 h -9.2075 q -4.06665,-0.0384 -6.40689,0.92075 -2.34024,0.95912 -3.33772,3.29936 -0.99748,2.34024 -0.99748,6.44525 v 17.72445 q 0,4.10501 0.95911,6.44525 0.99748,2.34024 3.33772,3.33772 2.34024,0.95911 6.44526,0.95911 z"
               style="font-weight:bold;font-family:Jura;-inkscape-font-specification:'Jura Bold';vector-effect:none;stop-color:#000000;stop-opacity:1"
               id="path877" /></g></g></g></g></g></svg>
