<?xml version="1.0" encoding="UTF-8" standalone="no"?>
<svg
   xmlns:dc="http://purl.org/dc/elements/1.1/"
   xmlns:cc="http://creativecommons.org/ns#"
   xmlns:rdf="http://www.w3.org/1999/02/22-rdf-syntax-ns#"
   xmlns:svg="http://www.w3.org/2000/svg"
   xmlns="http://www.w3.org/2000/svg"
   xmlns:sodipodi="http://sodipodi.sourceforge.net/DTD/sodipodi-0.dtd"
   xmlns:inkscape="http://www.inkscape.org/namespaces/inkscape"
   width="128"
   height="128"
   viewBox="0 0 33.866666 33.866667"
   version="1.1"
   id="svg4"
   sodipodi:docname="part-boost-basic.svg"
   inkscape:version="0.92.2 (5c3e80d, 2017-08-06)">
  <metadata
     id="metadata10">
    <rdf:RDF>
      <cc:Work
         rdf:about="">
        <dc:format>image/svg+xml</dc:format>
        <dc:type
           rdf:resource="http://purl.org/dc/dcmitype/StillImage" />
        <dc:title />
      </cc:Work>
    </rdf:RDF>
  </metadata>
  <defs
     id="defs8" />
  <sodipodi:namedview
     pagecolor="#ffffff"
     bordercolor="#666666"
     borderopacity="1"
     objecttolerance="10"
     gridtolerance="10"
     guidetolerance="10"
     inkscape:pageopacity="0"
     inkscape:pageshadow="2"
     inkscape:window-width="1920"
     inkscape:window-height="1017"
     id="namedview6"
     showgrid="true"
     inkscape:zoom="0.98333333"
     inkscape:cx="38.832742"
     inkscape:cy="119.59277"
     inkscape:window-x="1912"
     inkscape:window-y="-8"
     inkscape:window-maximized="1"
     inkscape:current-layer="svg4">
    <inkscape:grid
       type="xygrid"
       id="grid819"
       empspacing="4"
       spacingy="0.52916667"
       spacingx="0.52916667" />
  </sodipodi:namedview>
  <path
     d="m 21.166667,21.166666 c -4.233334,4.233334 -4.233334,9.190668 -4.233334,9.190668 0,0 0,-4.957334 -4.233333,-9.190668 -4.2333333,-4.233333 -9.1906668,-4.233332 -9.1906668,-4.233332 0,0 4.9573335,-10e-7 9.1906668,-4.233334 4.233333,-4.2333337 4.233333,-9.190667 4.233333,-9.190667 0,0 0,4.9573333 4.233334,9.190667 4.233333,4.233333 9.190666,4.233334 9.190666,4.233334 0,0 -4.957333,-10e-7 -9.190666,4.233332 z"
     id="path2"
     inkscape:connector-curvature="0"
     style="fill:#ffffff;fill-opacity:1;stroke:none;stroke-width:1.93400002;"
     sodipodi:nodetypes="ccccccccc"
     transform="matrix(1.1515305,0,0,1.1515305,-2.5659166,-2.5659172)" />
</svg>
