<?xml version="1.0" encoding="UTF-8" standalone="no"?>
<svg
   xmlns:dc="http://purl.org/dc/elements/1.1/"
   xmlns:cc="http://creativecommons.org/ns#"
   xmlns:rdf="http://www.w3.org/1999/02/22-rdf-syntax-ns#"
   xmlns:svg="http://www.w3.org/2000/svg"
   xmlns="http://www.w3.org/2000/svg"
   xmlns:sodipodi="http://sodipodi.sourceforge.net/DTD/sodipodi-0.dtd"
   xmlns:inkscape="http://www.inkscape.org/namespaces/inkscape"
   width="128"
   height="128"
   version="1.1"
   id="svg4"
   sodipodi:docname="part-blossom-02.svg"
   inkscape:version="0.92.2 (5c3e80d, 2017-08-06)">
  <metadata
     id="metadata10">
    <rdf:RDF>
      <cc:Work
         rdf:about="">
        <dc:format>image/svg+xml</dc:format>
        <dc:type
           rdf:resource="http://purl.org/dc/dcmitype/StillImage" />
        <dc:title />
      </cc:Work>
    </rdf:RDF>
  </metadata>
  <defs
     id="defs8" />
  <sodipodi:namedview
     pagecolor="#ffffff"
     bordercolor="#666666"
     borderopacity="1"
     objecttolerance="10"
     gridtolerance="10"
     guidetolerance="10"
     inkscape:pageopacity="0"
     inkscape:pageshadow="2"
     inkscape:window-width="1920"
     inkscape:window-height="1017"
     id="namedview6"
     showgrid="false"
     inkscape:zoom="0.921875"
     inkscape:cx="-97.812271"
     inkscape:cy="254.19811"
     inkscape:window-x="1912"
     inkscape:window-y="-8"
     inkscape:window-maximized="1"
     inkscape:current-layer="svg4" />
  <path
     inkscape:connector-curvature="0"
     style="fill:#feb6d8;fill-opacity:1;stroke:none;stroke-width:6.66293049;stroke-miterlimit:4;stroke-dasharray:none;stroke-opacity:1"
     d="M 36.229384,35.215269 115.52177,10.891872 c 7.11721,31.674786 -62.430023,62.703221 -74.457237,107.669028 0,0 -4.264303,-6.97059 -8.327744,-6.263 l -8.071482,1.40561 C 17.668164,114.9216 11.291025,109.46877 11.408263,102.36678 L 11.985024,67.451407 C 12.230515,52.58928 22.018242,39.575069 36.229384,35.215269 Z"
     id="path20-8"
     sodipodi:nodetypes="cccccccc" />
  <path
     inkscape:connector-curvature="0"
     style="opacity:0.3;fill:#ffffff;stroke-width:0.4345572;enable-background:new"
     d="M 74.267646,29.537656 106.42153,18.950942 c -7.954574,28.086123 -27.840255,35.301606 -37.85436,49.641701 0,0 -4.312311,-0.907139 -3.892089,-3.131419 l 0.587428,-3.109039 c 0.34499,-1.826168 -1.258322,-3.425465 -3.083316,-3.076661 l -3.107871,0.594402 C 56.84819,60.295275 55.048784,58.069594 55.931206,55.984892 L 62.15028,41.287193 c 2.282235,-5.395513 6.654431,-9.634657 12.117366,-11.749537 z"
     id="path24"
     sodipodi:nodetypes="cccccccccc" />
</svg>
