<?xml version="1.0" encoding="UTF-8" standalone="no"?>
<svg
   xmlns:dc="http://purl.org/dc/elements/1.1/"
   xmlns:cc="http://creativecommons.org/ns#"
   xmlns:rdf="http://www.w3.org/1999/02/22-rdf-syntax-ns#"
   xmlns:svg="http://www.w3.org/2000/svg"
   xmlns="http://www.w3.org/2000/svg"
   xmlns:xlink="http://www.w3.org/1999/xlink"
   xmlns:sodipodi="http://sodipodi.sourceforge.net/DTD/sodipodi-0.dtd"
   xmlns:inkscape="http://www.inkscape.org/namespaces/inkscape"
   width="128"
   height="128"
   viewBox="0 0 33.866666 33.866667"
   version="1.1"
   id="svg4"
   sodipodi:docname="part-boost-shuriken.svg"
   inkscape:version="0.92.2 (5c3e80d, 2017-08-06)">
  <metadata
     id="metadata10">
    <rdf:RDF>
      <cc:Work
         rdf:about="">
        <dc:format>image/svg+xml</dc:format>
        <dc:type
           rdf:resource="http://purl.org/dc/dcmitype/StillImage" />
        <dc:title />
      </cc:Work>
    </rdf:RDF>
  </metadata>
  <defs
     id="defs8">
    <linearGradient
       id="linearGradient878"
       inkscape:collect="always">
      <stop
         id="stop874"
         offset="0"
         style="stop-color:#ffffff;stop-opacity:1" />
      <stop
         id="stop876"
         offset="1"
         style="stop-color:#7d7d7d;stop-opacity:1" />
    </linearGradient>
    <linearGradient
       inkscape:collect="always"
       id="linearGradient862">
      <stop
         style="stop-color:#ffffff;stop-opacity:1"
         offset="0"
         id="stop858" />
      <stop
         style="stop-color:#000000;stop-opacity:1"
         offset="1"
         id="stop860" />
    </linearGradient>
    <linearGradient
       inkscape:collect="always"
       xlink:href="#linearGradient878"
       id="linearGradient864"
       x1="1.2576935"
       y1="6.3701053"
       x2="34.491497"
       y2="31.93457"
       gradientUnits="userSpaceOnUse" />
    <linearGradient
       inkscape:collect="always"
       xlink:href="#linearGradient862"
       id="linearGradient872"
       x1="1.2576935"
       y1="3.813659"
       x2="34.491497"
       y2="26.821676"
       gradientUnits="userSpaceOnUse" />
    <linearGradient
       inkscape:collect="always"
       xlink:href="#linearGradient878"
       id="linearGradient880"
       gradientUnits="userSpaceOnUse"
       x1="3.8141398"
       y1="10.161638"
       x2="29.378605"
       y2="29.378122" />
  </defs>
  <sodipodi:namedview
     pagecolor="#ffffff"
     bordercolor="#666666"
     borderopacity="1"
     objecttolerance="10"
     gridtolerance="10"
     guidetolerance="10"
     inkscape:pageopacity="0"
     inkscape:pageshadow="2"
     inkscape:window-width="1920"
     inkscape:window-height="1017"
     id="namedview6"
     showgrid="true"
     inkscape:zoom="2.7812866"
     inkscape:cx="43.09425"
     inkscape:cy="78.571356"
     inkscape:window-x="1912"
     inkscape:window-y="-8"
     inkscape:window-maximized="1"
     inkscape:current-layer="svg4">
    <inkscape:grid
       type="xygrid"
       id="grid819"
       empspacing="4"
       spacingy="0.52916667"
       spacingx="0.52916667" />
  </sodipodi:namedview>
  <g
     transform="matrix(0.8314363,0,0,0.8314363,3.6438535,3.1383013)"
     id="g4"
     style="fill:url(#linearGradient864);fill-opacity:1;stroke:url(#linearGradient872);stroke-width:1.91733479;stroke-miterlimit:4;stroke-dasharray:none;stroke-opacity:1">
    <path
       inkscape:connector-curvature="0"
       style="fill:url(#linearGradient880);fill-opacity:1;stroke:#000000;stroke-width:1.91733479;stroke-miterlimit:4;stroke-dasharray:none;stroke-opacity:1"
       d="m 31.802,32.153 c -4.046,-1.609 -7.638,-5.072 -8.233,-9.551 -0.033,-0.249 0.164,-0.59 0.42,-0.757 0.154,-0.101 0.309,-0.201 0.467,-0.304 0.811,-0.504 1.568,-1.19 2.342,-1.829 0.727,-0.726 1.473,-1.425 2.102,-2.254 2.627,-3.467 4.531,-8.01 4.268,-12.455 C 33.107,3.977 32.932,2.956 32.622,1.955 32.564,1.746 32.513,1.564 32.47,1.412 32.386,1.112 32.227,1.102 32.114,1.388 32.057,1.533 31.989,1.707 31.909,1.907 31.794,2.231 31.616,2.613 31.379,3.032 29.944,5.556 25.944,10.538 22.45,9.613 21.604,9.389 21.067,8.081 20.55,7.432 19.027,5.519 17.144,3.858 15.035,2.616 11.297,0.415 6.164,-0.744 1.917,0.567 1.708,0.625 1.526,0.676 1.374,0.719 1.031,0.815 0.832,0.87 0.832,0.87 c 0,0 0.377,0.149 1.037,0.41 0.324,0.117 0.706,0.294 1.125,0.531 1.831,1.04 3.429,2.304 4.657,4.042 1.04,1.473 3.147,4.526 1.043,5.833 -4.992,3.101 -8.935,9.485 -8.682,15.496 0.015,0.359 0.03,0.705 0.044,1.038 0.012,0.651 0.112,1.243 0.198,1.755 0.069,0.51 0.165,0.943 0.275,1.297 0.058,0.209 0.109,0.391 0.152,0.543 0.084,0.301 0.243,0.311 0.356,0.024 0.057,-0.146 0.126,-0.319 0.205,-0.519 0.117,-0.324 0.294,-0.707 0.532,-1.125 0.221,-0.42 0.461,-0.881 0.804,-1.344 1.118,-1.51 2.474,-2.874 4.093,-3.844 0.855,-0.514 3.88,-2.198 4.675,-0.979 3.096,4.75 7.824,8.033 13.441,8.955 0.422,0.069 0.832,0.123 1.241,0.133 0.384,0.021 0.757,0.041 1.117,0.061 0.359,-0.016 0.705,-0.029 1.039,-0.044 0.65,-0.013 1.242,-0.112 1.754,-0.198 0.51,-0.068 0.943,-0.165 1.297,-0.275 0.209,-0.058 0.392,-0.108 0.543,-0.151 0.297,-0.084 0.308,-0.242 0.024,-0.356 z M 16.572,19.865 c -1.739,0 -3.147,-1.371 -3.234,-3.088 -0.003,-0.055 -0.016,-0.108 -0.016,-0.164 0,-1.796 1.456,-3.251 3.25,-3.251 1.74,0 3.148,1.37 3.236,3.088 0.002,0.055 0.016,0.108 0.016,0.164 0,1.796 -1.455,3.251 -3.252,3.251 z"
       id="path2" />
  </g>
  <g
     transform="matrix(0.26458333,0,0,0.26458333,8.4666667,-21.482051)"
     id="g6" />
  <g
     transform="matrix(0.26458333,0,0,0.26458333,8.4666667,-21.482051)"
     id="g8" />
  <g
     transform="matrix(0.26458333,0,0,0.26458333,8.4666667,-21.482051)"
     id="g10" />
  <g
     transform="matrix(0.26458333,0,0,0.26458333,8.4666667,-21.482051)"
     id="g12" />
  <g
     transform="matrix(0.26458333,0,0,0.26458333,8.4666667,-21.482051)"
     id="g14" />
  <g
     transform="matrix(0.26458333,0,0,0.26458333,8.4666667,-21.482051)"
     id="g16" />
  <g
     transform="matrix(0.26458333,0,0,0.26458333,8.4666667,-21.482051)"
     id="g18" />
  <g
     transform="matrix(0.26458333,0,0,0.26458333,8.4666667,-21.482051)"
     id="g20" />
  <g
     transform="matrix(0.26458333,0,0,0.26458333,8.4666667,-21.482051)"
     id="g22" />
  <g
     transform="matrix(0.26458333,0,0,0.26458333,8.4666667,-21.482051)"
     id="g24" />
  <g
     transform="matrix(0.26458333,0,0,0.26458333,8.4666667,-21.482051)"
     id="g26" />
  <g
     transform="matrix(0.26458333,0,0,0.26458333,8.4666667,-21.482051)"
     id="g28" />
  <g
     transform="matrix(0.26458333,0,0,0.26458333,8.4666667,-21.482051)"
     id="g30" />
  <g
     transform="matrix(0.26458333,0,0,0.26458333,8.4666667,-21.482051)"
     id="g32" />
  <g
     transform="matrix(0.26458333,0,0,0.26458333,8.4666667,-21.482051)"
     id="g34" />
</svg>
