<?xml version="1.0" encoding="UTF-8" standalone="no"?>
<!-- Generator: Adobe Illustrator 17.1.0, SVG Export Plug-In . SVG Version: 6.00 Build 0)  -->

<svg
   xmlns:dc="http://purl.org/dc/elements/1.1/"
   xmlns:cc="http://creativecommons.org/ns#"
   xmlns:rdf="http://www.w3.org/1999/02/22-rdf-syntax-ns#"
   xmlns:svg="http://www.w3.org/2000/svg"
   xmlns="http://www.w3.org/2000/svg"
   xmlns:sodipodi="http://sodipodi.sourceforge.net/DTD/sodipodi-0.dtd"
   xmlns:inkscape="http://www.inkscape.org/namespaces/inkscape"
   version="1.1"
   id="Capa_1"
   x="0px"
   y="0px"
   viewBox="0 0 128 128"
   xml:space="preserve"
   sodipodi:docname="part-feather-01.svg"
   width="128"
   height="128"
   inkscape:version="0.92.2 (5c3e80d, 2017-08-06)"><metadata
     id="metadata39"><rdf:RDF><cc:Work
         rdf:about=""><dc:format>image/svg+xml</dc:format><dc:type
           rdf:resource="http://purl.org/dc/dcmitype/StillImage" /><dc:title /></cc:Work></rdf:RDF></metadata><defs
     id="defs37" /><sodipodi:namedview
     pagecolor="#ffffff"
     bordercolor="#666666"
     borderopacity="1"
     objecttolerance="10"
     gridtolerance="10"
     guidetolerance="10"
     inkscape:pageopacity="0"
     inkscape:pageshadow="2"
     inkscape:window-width="1920"
     inkscape:window-height="1017"
     id="namedview35"
     showgrid="true"
     inkscape:zoom="0.3093443"
     inkscape:cx="-154.35803"
     inkscape:cy="-166.92102"
     inkscape:window-x="1912"
     inkscape:window-y="-8"
     inkscape:window-maximized="1"
     inkscape:current-layer="Capa_1"
     units="px"
     inkscape:object-paths="true"
     inkscape:snap-intersection-paths="true"
     inkscape:snap-smooth-nodes="true"
     inkscape:snap-midpoints="true"><inkscape:grid
       type="xygrid"
       id="grid888"
       empspacing="4"
       spacingy="4"
       spacingx="4" /></sodipodi:namedview><g
     id="g4"
     transform="translate(0,-253.452)" /><g
     id="g6"
     transform="translate(0,-253.452)" /><g
     id="g8"
     transform="translate(0,-253.452)" /><g
     id="g10"
     transform="translate(0,-253.452)" /><g
     id="g12"
     transform="translate(0,-253.452)" /><g
     id="g14"
     transform="translate(0,-253.452)" /><g
     id="g16"
     transform="translate(0,-253.452)" /><g
     id="g18"
     transform="translate(0,-253.452)" /><g
     id="g20"
     transform="translate(0,-253.452)" /><g
     id="g22"
     transform="translate(0,-253.452)" /><g
     id="g24"
     transform="translate(0,-253.452)" /><g
     id="g26"
     transform="translate(0,-253.452)" /><g
     id="g28"
     transform="translate(0,-253.452)" /><g
     id="g30"
     transform="translate(0,-253.452)" /><g
     id="g32"
     transform="translate(0,-253.452)" /><g
     id="g936"
     transform="translate(0.9838702,-5.3190333)"><g
       transform="matrix(0.64629269,0.64629269,-0.64629269,0.64629269,60.716905,-16.366777)"
       id="g901"><path
         style="fill:#dd3400;fill-opacity:1;stroke-width:0.33046809"
         d="M 68,-23.947258 V 120 l 4.130859,0.006 c 0,0 3.515743,-1.87317 5.148438,-3.50587 h 0.002 c 1.609562,-1.60957 3.124051,-3.674 4.503906,-6.13671 l 2.105469,-3.75587 -9.125,3.09572 13.298828,-17.158209 0.08008,-0.36914 c 0.434168,-2.0213 0.826885,-4.15883 1.169922,-6.35352 l 0.580029,-3.71302 -14.283203,9.51367 15.408203,-24.470701 0.01563,-0.447266 c 0.0708,-2.164075 0.107421,-4.383724 0.107421,-6.595703 0,-16.90741 -1.993202,-35.69332 -5.466796,-51.541015 l -2.240234,-9.013672 -0.01367,-0.05078 C 79.025967,-16.057993 73.836995,-23.947479 68.000007,-23.947257 Z"
         id="path2"
         inkscape:connector-curvature="0" /><path
         style="fill:#b42a00;fill-opacity:1;stroke-width:0.33046809"
         d="m 68.130859,-23.943363 c -1.98064,-2e-6 -3.913281,0.926958 -5.744141,2.757813 -6.42913,6.429135 -10.596102,23.107779 -12.507812,32.476562 L 49.726562,12.0332 58.5625,23.433591 48.291015,19.947262 47.990234,21.892575 c -1.93578,12.564305 -3.001953,26.137772 -3.001953,38.220703 -2.3e-4,2.217354 0.0364,4.437001 0.107422,6.595703 l 0.01563,0.447266 15.408203,24.470703 -14.283203,-9.513672 0.580078,3.712892 c 0.34211,2.19001 0.735282,4.32754 1.169922,6.35351 l 0.08008,0.36914 13.298828,17.15821 -9.125,-3.09571 2.105469,3.75586 C 57.129723,115.337 64,120 64,120 l 4.130859,0.006 z"
         id="path893"
         inkscape:connector-curvature="0" /></g><path
       sodipodi:nodetypes="ccccccccccccccccsscccsscccscc"
       style="fill:#552003;fill-opacity:1;stroke-width:0.20413215"
       inkscape:connector-curvature="0"
       id="path915"
       d="M 94.17179,53.669397 82.518502,54.141975 100.33062,36.330631 c 1.1953,-1.196085 1.19529,-3.135337 0,-4.330636 C 99.13454,30.804714 97.19608,30.804708 96,32 L 78.189472,49.811328 78.661156,38.158327 c -5e-6,-1.690477 -1.371516,-3.061986 -3.061985,-3.061985 -1.691269,-10e-7 -3.061992,1.371508 -3.061986,3.061986 L 72.065496,55.93529 58.376698,69.623302 57.97979,58.839694 c -1e-6,-1.691269 -1.371515,-3.061988 -3.061992,-3.061993 -1.691274,3e-6 -3.061982,1.370726 -3.061986,3.061987 L 52.253921,75.746485 4.851249,123.14992 c -1.196089,1.1961 -1.1960856,3.13456 3e-6,4.33065 0.597245,0.59724 1.381874,0.89626 2.164911,0.89626 0.783837,0 1.567677,-0.29902 2.164917,-0.89707 l 47.401879,-47.401857 16.907853,0.396775 c 1.691265,1e-5 3.061984,-1.370712 3.061983,-3.061985 -3e-6,-1.691261 -1.371867,-2.999789 -3.06198,-3.061969 L 62.706916,73.953953 76.394941,60.265922 94.17219,59.793341 c 1.69127,3e-6 3.06199,-1.370716 3.06199,-3.061986 -10e-6,-1.690464 -1.37073,-3.06198 -3.06199,-3.06198 z" /><path
       sodipodi:nodetypes="ccccccccccscccccc"
       style="fill:#831e00;fill-opacity:1;stroke-width:0.20413215"
       inkscape:connector-curvature="0"
       id="path917"
       d="m 94.17219,53.669375 -11.653688,0.4726 17.812118,-17.811344 c 1.1953,-1.196085 1.19529,-3.134545 0,-4.329826 L 4.850861,127.47976 c 0.597254,0.59804 1.381884,0.89707 2.16492,0.89707 0.783844,0 1.567671,-0.29903 2.164916,-0.89707 l 47.401857,-47.401857 16.908265,0.396785 c 1.691263,0 3.061966,-1.370722 3.061964,-3.061995 6e-6,-1.691261 -1.371843,-2.999789 -3.061968,-3.061969 L 62.706527,73.953953 76.394539,60.265923 94.17219,59.793321 c 1.69125,0 3.06199,-1.370724 3.06199,-3.061991 0,-1.69046 -1.37074,-3.061978 -3.062,-3.061978 z" /></g></svg>