<?xml version="1.0" encoding="UTF-8" standalone="no"?>
<!-- Generator: Adobe Illustrator 17.1.0, SVG Export Plug-In . SVG Version: 6.00 Build 0)  -->

<svg
   xmlns:dc="http://purl.org/dc/elements/1.1/"
   xmlns:cc="http://creativecommons.org/ns#"
   xmlns:rdf="http://www.w3.org/1999/02/22-rdf-syntax-ns#"
   xmlns:svg="http://www.w3.org/2000/svg"
   xmlns="http://www.w3.org/2000/svg"
   xmlns:sodipodi="http://sodipodi.sourceforge.net/DTD/sodipodi-0.dtd"
   xmlns:inkscape="http://www.inkscape.org/namespaces/inkscape"
   version="1.1"
   id="Capa_1"
   x="0px"
   y="0px"
   viewBox="0 0 128 128"
   xml:space="preserve"
   sodipodi:docname="part-feather-02.svg"
   width="128"
   height="128"
   inkscape:version="0.92.2 (5c3e80d, 2017-08-06)"><metadata
     id="metadata39"><rdf:RDF><cc:Work
         rdf:about=""><dc:format>image/svg+xml</dc:format><dc:type
           rdf:resource="http://purl.org/dc/dcmitype/StillImage" /><dc:title /></cc:Work></rdf:RDF></metadata><defs
     id="defs37" /><sodipodi:namedview
     pagecolor="#ffffff"
     bordercolor="#666666"
     borderopacity="1"
     objecttolerance="10"
     gridtolerance="10"
     guidetolerance="10"
     inkscape:pageopacity="0"
     inkscape:pageshadow="2"
     inkscape:window-width="1920"
     inkscape:window-height="1017"
     id="namedview35"
     showgrid="true"
     inkscape:zoom="0.6186886"
     inkscape:cx="-39.970203"
     inkscape:cy="17.041477"
     inkscape:window-x="1912"
     inkscape:window-y="-8"
     inkscape:window-maximized="1"
     inkscape:current-layer="Capa_1"
     units="px"
     inkscape:object-paths="true"
     inkscape:snap-intersection-paths="true"
     inkscape:snap-smooth-nodes="true"
     inkscape:snap-midpoints="true"><inkscape:grid
       type="xygrid"
       id="grid888"
       empspacing="4"
       spacingy="4"
       spacingx="4" /></sodipodi:namedview><g
     id="g4"
     transform="translate(0,-253.452)" /><g
     id="g6"
     transform="translate(0,-253.452)" /><g
     id="g8"
     transform="translate(0,-253.452)" /><g
     id="g10"
     transform="translate(0,-253.452)" /><g
     id="g12"
     transform="translate(0,-253.452)" /><g
     id="g14"
     transform="translate(0,-253.452)" /><g
     id="g16"
     transform="translate(0,-253.452)" /><g
     id="g18"
     transform="translate(0,-253.452)" /><g
     id="g20"
     transform="translate(0,-253.452)" /><g
     id="g22"
     transform="translate(0,-253.452)" /><g
     id="g24"
     transform="translate(0,-253.452)" /><g
     id="g26"
     transform="translate(0,-253.452)" /><g
     id="g28"
     transform="translate(0,-253.452)" /><g
     id="g30"
     transform="translate(0,-253.452)" /><g
     id="g32"
     transform="translate(0,-253.452)" /><path
     style="fill:#d67b00;fill-opacity:1;stroke-width:0.30204648"
     d="m 121.12562,6.7851551 -93.032065,93.0320609 2.665866,2.673624 c 0,0 3.482815,1.06158 5.593216,1.06158 l 0.0013,0.001 c 2.080501,-1e-5 4.393531,-0.35543 6.876952,-1.05527 l 3.788141,-1.06664 -7.898162,-3.896681 19.68416,-2.49429 0.290328,-0.186817 C 60.6823,93.82826 62.31758,92.7006 63.957694,91.50389 L 66.732261,89.479061 51.352515,86.396547 77.12596,80.53952 77.425126,80.260557 c 1.444383,-1.352868 2.902594,-2.763743 4.33218,-4.193329 C 92.684441,65.140093 103.53745,51.710704 111.53474,39.223497 l 4.37762,-7.273318 0.024,-0.04165 c 7.2165,-12.898595 8.96183,-21.351107 5.18928,-25.1233657 z"
     id="path2"
     inkscape:connector-curvature="0" /><path
     style="fill:#e5bc00;fill-opacity:1;stroke-width:0.30204648"
     d="m 121.20767,6.8722457 c -1.28007,-1.2800745 -3.12821,-1.9300388 -5.49475,-1.930042 -8.3102,3.2e-6 -21.782571,8.0862053 -29.073071,12.9056573 l -0.57813,0.381212 -1.657387,13.078591 -4.385197,-8.891574 -1.451634,1.062849 C 69.196202,30.348077 59.73471,38.431449 51.9256,46.240559 50.492392,47.67347 49.081524,49.131686 47.732271,50.57274 l -0.278963,0.299166 -5.857027,25.773446 -3.082513,-15.379747 -2.024715,2.774515 c -1.194284,1.636491 -2.32165,3.272065 -3.350115,4.86234 l -0.186817,0.290327 -2.494291,19.684161 -3.896686,-7.898155 -1.066636,3.788134 c -1.412671,5.011245 0.01388,12.465118 0.01388,12.465118 l 2.665867,2.673622 z"
     id="path893"
     inkscape:connector-curvature="0" /><path
     d="M 95.15566,48.350364 83.502372,48.822942 101.31449,31.011598 c 1.1953,-1.196085 1.19529,-3.135337 0,-4.330636 -1.19608,-1.195281 -3.13454,-1.195287 -4.33062,5e-6 L 79.173342,44.492295 79.645026,32.839294 c -5e-6,-1.690477 -1.371516,-3.061986 -3.061985,-3.061985 -1.691269,-10e-7 -3.061992,1.371508 -3.061986,3.061986 L 73.049366,50.616257 59.360568,64.304269 58.96366,53.520661 c -10e-7,-1.691269 -1.371515,-3.061988 -3.061992,-3.061993 -1.691274,3e-6 -3.061982,1.370726 -3.061986,3.061987 L 53.237791,70.427452 5.8351192,117.83089 c -1.196089,1.1961 -1.1960856,3.13456 3e-6,4.33065 0.597245,0.59724 1.381874,0.89626 2.164911,0.89626 0.783837,0 1.567677,-0.29902 2.1649168,-0.89707 l 47.401879,-47.40186 16.907853,0.396775 c 1.691265,10e-6 3.061984,-1.370712 3.061983,-3.061985 -3e-6,-1.691261 -1.371867,-2.999789 -3.06198,-3.061969 L 63.690786,68.63492 77.378811,54.946889 95.15606,54.474308 c 1.69127,3e-6 3.06199,-1.370716 3.06199,-3.061986 -1e-5,-1.690464 -1.37073,-3.06198 -3.06199,-3.06198 z"
     id="path915"
     inkscape:connector-curvature="0"
     style="fill:#a73f06;fill-opacity:1;stroke-width:0.20413215"
     sodipodi:nodetypes="ccccccccccccccccsscccsscccscc" /><path
     d="m 95.15606,48.350342 -11.653688,0.4726 17.812118,-17.811344 c 1.1953,-1.196085 1.19529,-3.134545 0,-4.329826 L 5.8347312,122.16073 c 0.597254,0.59804 1.381884,0.89707 2.16492,0.89707 0.783844,0 1.567671,-0.29903 2.1649158,-0.89707 l 47.401857,-47.40186 16.908265,0.396785 c 1.691263,0 3.061966,-1.370722 3.061964,-3.061995 6e-6,-1.691261 -1.371843,-2.999789 -3.061968,-3.061969 L 63.690397,68.63492 77.378409,54.94689 95.15606,54.474288 c 1.69125,0 3.06199,-1.370724 3.06199,-3.061991 0,-1.69046 -1.37074,-3.061978 -3.062,-3.061978 z"
     id="path917"
     inkscape:connector-curvature="0"
     style="fill:#834000;fill-opacity:1;stroke-width:0.20413215"
     sodipodi:nodetypes="ccccccccccscccccc" /></svg>