<?xml version="1.0" encoding="UTF-8" standalone="no"?>
<svg
   xmlns:dc="http://purl.org/dc/elements/1.1/"
   xmlns:cc="http://creativecommons.org/ns#"
   xmlns:rdf="http://www.w3.org/1999/02/22-rdf-syntax-ns#"
   xmlns:svg="http://www.w3.org/2000/svg"
   xmlns="http://www.w3.org/2000/svg"
   xmlns:xlink="http://www.w3.org/1999/xlink"
   xmlns:sodipodi="http://sodipodi.sourceforge.net/DTD/sodipodi-0.dtd"
   xmlns:inkscape="http://www.inkscape.org/namespaces/inkscape"
   width="128"
   height="128"
   viewBox="0 0 33.866666 33.866667"
   version="1.1"
   id="svg4"
   sodipodi:docname="part-heal-moon.svg"
   inkscape:version="0.92.2 (5c3e80d, 2017-08-06)">
  <metadata
     id="metadata10">
    <rdf:RDF>
      <cc:Work
         rdf:about="">
        <dc:format>image/svg+xml</dc:format>
        <dc:type
           rdf:resource="http://purl.org/dc/dcmitype/StillImage" />
        <dc:title />
      </cc:Work>
    </rdf:RDF>
  </metadata>
  <defs
     id="defs8">
    <linearGradient
       id="linearGradient914"
       inkscape:collect="always">
      <stop
         id="stop910"
         offset="0"
         style="stop-color:#ffffff;stop-opacity:1" />
      <stop
         id="stop912"
         offset="1"
         style="stop-color:#7d7d7d;stop-opacity:1" />
    </linearGradient>
    <linearGradient
       inkscape:collect="always"
       id="linearGradient876">
      <stop
         style="stop-color:#ffffff;stop-opacity:1"
         offset="0"
         id="stop872" />
      <stop
         style="stop-color:#000000;stop-opacity:1"
         offset="1"
         id="stop874" />
    </linearGradient>
    <linearGradient
       inkscape:collect="always"
       xlink:href="#linearGradient876"
       id="linearGradient875"
       x1="0.57873029"
       y1="22.987713"
       x2="45.398632"
       y2="22.987713"
       gradientUnits="userSpaceOnUse" />
    <linearGradient
       inkscape:collect="always"
       xlink:href="#linearGradient914"
       id="linearGradient877"
       gradientUnits="userSpaceOnUse"
       x1="12.427011"
       y1="5.3849268"
       x2="33.550354"
       y2="51.152168" />
    <linearGradient
       inkscape:collect="always"
       xlink:href="#linearGradient876"
       id="linearGradient879"
       gradientUnits="userSpaceOnUse"
       x1="0.57873029"
       y1="22.987713"
       x2="45.398632"
       y2="22.987713" />
  </defs>
  <sodipodi:namedview
     pagecolor="#ffffff"
     bordercolor="#666666"
     borderopacity="1"
     objecttolerance="10"
     gridtolerance="10"
     guidetolerance="10"
     inkscape:pageopacity="0"
     inkscape:pageshadow="2"
     inkscape:window-width="1920"
     inkscape:window-height="1017"
     id="namedview6"
     showgrid="true"
     inkscape:zoom="3.9333334"
     inkscape:cx="42.423955"
     inkscape:cy="91.999605"
     inkscape:window-x="1912"
     inkscape:window-y="-8"
     inkscape:window-maximized="1"
     inkscape:current-layer="svg4">
    <inkscape:grid
       type="xygrid"
       id="grid819"
       empspacing="4"
       spacingy="0.52916667"
       spacingx="0.52916667" />
  </sodipodi:namedview>
  <g
     transform="matrix(0.6586934,0,0,0.6586934,1.7908405,1.7914789)"
     id="g6"
     style="fill:url(#linearGradient875);fill-opacity:1">
    <g
       id="g4"
       style="fill:url(#linearGradient879);fill-opacity:1">
      <path
         inkscape:connector-curvature="0"
         d="M 29.355,33.836 C 21.664,32.859 15.519,26.588 14.681,18.879 13.91,11.787 17.508,5.461 23.117,2.237 24.207,1.611 23.756,-0.059 22.5,0.001 21.094,0.068 19.659,0.27 18.203,0.623 8.505,2.982 1.286,11.459 0.63,21.419 c -0.882,13.409 9.731,24.557 22.949,24.557 10.078,0 18.639,-6.481 21.748,-15.504 0.414,-1.203 -1.062,-2.112 -1.979,-1.23 -3.544,3.402 -8.556,5.284 -13.993,4.594 z"
         id="path2"
         style="fill:url(#linearGradient877);fill-opacity:1;stroke:none;stroke-opacity:1" />
    </g>
  </g>
  <g
     transform="matrix(0.26458333,0,0,0.26458333,-27.516667,6.8852515)"
     id="g8" />
  <g
     transform="matrix(0.26458333,0,0,0.26458333,-27.516667,6.8852515)"
     id="g10" />
  <g
     transform="matrix(0.26458333,0,0,0.26458333,-27.516667,6.8852515)"
     id="g12" />
  <g
     transform="matrix(0.26458333,0,0,0.26458333,-27.516667,6.8852515)"
     id="g14" />
  <g
     transform="matrix(0.26458333,0,0,0.26458333,-27.516667,6.8852515)"
     id="g16" />
  <g
     transform="matrix(0.26458333,0,0,0.26458333,-27.516667,6.8852515)"
     id="g18" />
  <g
     transform="matrix(0.26458333,0,0,0.26458333,-27.516667,6.8852515)"
     id="g20" />
  <g
     transform="matrix(0.26458333,0,0,0.26458333,-27.516667,6.8852515)"
     id="g22" />
  <g
     transform="matrix(0.26458333,0,0,0.26458333,-27.516667,6.8852515)"
     id="g24" />
  <g
     transform="matrix(0.26458333,0,0,0.26458333,-27.516667,6.8852515)"
     id="g26" />
  <g
     transform="matrix(0.26458333,0,0,0.26458333,-27.516667,6.8852515)"
     id="g28" />
  <g
     transform="matrix(0.26458333,0,0,0.26458333,-27.516667,6.8852515)"
     id="g30" />
  <g
     transform="matrix(0.26458333,0,0,0.26458333,-27.516667,6.8852515)"
     id="g32" />
  <g
     transform="matrix(0.26458333,0,0,0.26458333,-27.516667,6.8852515)"
     id="g34" />
  <g
     transform="matrix(0.26458333,0,0,0.26458333,-27.516667,6.8852515)"
     id="g36" />
</svg>
