<?xml version="1.0" encoding="UTF-8" standalone="no"?>
<svg
   xmlns:dc="http://purl.org/dc/elements/1.1/"
   xmlns:cc="http://creativecommons.org/ns#"
   xmlns:rdf="http://www.w3.org/1999/02/22-rdf-syntax-ns#"
   xmlns:svg="http://www.w3.org/2000/svg"
   xmlns="http://www.w3.org/2000/svg"
   xmlns:sodipodi="http://sodipodi.sourceforge.net/DTD/sodipodi-0.dtd"
   xmlns:inkscape="http://www.inkscape.org/namespaces/inkscape"
   width="128"
   height="128"
   version="1.1"
   id="svg4"
   sodipodi:docname="part-leaf-04.svg"
   inkscape:version="0.92.2 (5c3e80d, 2017-08-06)">
  <metadata
     id="metadata10">
    <rdf:RDF>
      <cc:Work
         rdf:about="">
        <dc:format>image/svg+xml</dc:format>
        <dc:type
           rdf:resource="http://purl.org/dc/dcmitype/StillImage" />
        <dc:title />
      </cc:Work>
    </rdf:RDF>
  </metadata>
  <defs
     id="defs8" />
  <sodipodi:namedview
     pagecolor="#ffffff"
     bordercolor="#666666"
     borderopacity="1"
     objecttolerance="10"
     gridtolerance="10"
     guidetolerance="10"
     inkscape:pageopacity="0"
     inkscape:pageshadow="2"
     inkscape:window-width="1920"
     inkscape:window-height="1017"
     id="namedview6"
     showgrid="false"
     inkscape:zoom="3.6874999"
     inkscape:cx="31.748233"
     inkscape:cy="93.95496"
     inkscape:window-x="1912"
     inkscape:window-y="-8"
     inkscape:window-maximized="1"
     inkscape:current-layer="svg4" />
  <path
     style="fill:#ff7400;stroke-width:0.22334035;fill-opacity:1"
     inkscape:connector-curvature="0"
     id="path819"
     d="m 120.19344,7.806347 c -0.62815,-0.628145 -1.4805,-0.981476 -2.36863,-0.981476 -0.60372,0 -14.99172,0.04187 -33.172144,3.678136 -10.71511,2.142671 -20.51068,5.099313 -29.11364,8.786175 -10.88173,4.663101 -19.89474,10.524039 -26.7895,17.418801 -8.35345,8.353451 -12.95374,19.459399 -12.95374,31.272008 0,11.812617 4.60029,22.918561 12.95374,31.271148 8.35259,8.352571 19.45853,12.952851 31.27114,12.952851 11.81261,0 22.91768,-4.60028 31.27201,-12.952851 6.89388,-6.894772 12.754824,-15.908647 17.417934,-26.790378 3.68773,-8.602972 6.64349,-18.397664 8.78705,-29.112765 3.63538,-18.180427 3.67726,-32.569303 3.67726,-33.173021 0,-0.888998 -0.35246,-1.740483 -0.98148,-2.368628 z m 0,0" />
  <path
     style="fill:#000000;fill-opacity:0.13131313;stroke-width:0.22334035"
     inkscape:connector-curvature="0"
     id="path821"
     d="M 120.19344,7.806347 28.749526,99.251139 c 8.35259,8.352571 19.45853,12.952851 31.27114,12.952851 11.81261,0 22.91768,-4.60028 31.27114,-12.952851 6.89475,-6.894772 12.755694,-15.908647 17.418804,-26.790378 3.68773,-8.602972 6.64349,-18.397664 8.78617,-29.113638 3.63626,-18.179554 3.67814,-32.56843 3.67814,-33.172148 0,-0.888998 -0.35246,-1.740483 -0.98148,-2.368628 z m 0,0" />
  <path
     style="fill:#dd3400;stroke-width:0.22334035"
     inkscape:connector-curvature="0"
     id="path823"
     d="m 109.52457,57.403605 -34.192004,8.97e-4 19.48818,-19.487337 c 1.30777,-1.308635 1.30777,-3.430368 0,-4.73813 -1.30863,-1.307763 -3.42949,-1.307763 -4.73812,0 L 70.596186,52.666349 V 18.474338 c 0,-1.849538 -1.50057,-3.350105 -3.35011,-3.350105 -1.85041,0 -3.35011,1.500567 -3.35011,3.350105 v 40.892221 l -14.97688,14.976015 -6.9e-4,-46.291647 c 0,-1.850408 -1.50057,-3.350105 -3.35011,-3.350105 -1.85042,0 -3.35011,1.499697 -3.35011,3.350105 l 0.002,52.990991 -34.4136198,34.414472 c -1.30863,1.30864 -1.30863,3.4295 0,4.73814 0.65345,0.65344 1.51191,0.9806 2.3686298,0.9806 0.85759,0 1.71519,-0.32716 2.36863,-0.98148 l 34.41275,-34.412733 h 52.99274 c 1.850404,0 3.350104,-1.499694 3.350104,-3.350109 0,-1.850407 -1.4997,-3.350101 -3.350104,-3.350101 h -46.29253 l 14.97602,-14.976019 40.892214,-8.98e-4 c 1.85041,0 3.35011,-1.499695 3.35011,-3.350105 0,-1.849537 -1.4997,-3.350105 -3.35011,-3.350105 z m 0,0" />
  <path
     style="fill:#000000;fill-opacity:0.15151517;stroke-width:0.22334035"
     inkscape:connector-curvature="0"
     id="path825"
     d="m 109.52457,57.403605 -34.192004,8.97e-4 19.48818,-19.487337 c 1.30777,-1.308635 1.30777,-3.429493 0,-4.737257 L 7.8061362,120.19365 c 0.6534501,0.65432 1.5119101,0.98148 2.3686298,0.98148 0.8576,0 1.71518,-0.32716 2.36863,-0.98148 l 34.41273,-34.412733 h 52.99273 c 1.850414,0 3.350094,-1.499694 3.350094,-3.350109 0,-1.850407 -1.49968,-3.350101 -3.350094,-3.350101 h -46.29251 l 14.97601,-14.976019 40.892214,-8.98e-4 c 1.8504,0 3.35012,-1.499695 3.35012,-3.350105 0,-1.849537 -1.49972,-3.350105 -3.35012,-3.350105 z m 0,0" />
</svg>
