<svg xmlns="http://www.w3.org/2000/svg" width="64" height="64" viewBox="0 0 16.933 16.933"><path d="M7.937 0v.546c-1.969.116-3.667.88-5.093 2.298C1.426 4.27.662 5.968.546 7.937H0v1.059h.546c.116 1.968.88 3.662 2.298 5.08 1.426 1.426 3.124 2.195 5.093 2.31v.547h1.059v-.546c1.968-.117 3.662-.886 5.08-2.311 1.425-1.418 2.194-3.112 2.31-5.08h.547V7.937h-.546c-.116-1.969-.885-3.667-2.311-5.093C12.658 1.427 10.964.662 8.996.546V0H7.937zm0 1.607v2.125c-1.087.11-2.031.562-2.83 1.361l-.014.014c-.799.799-1.251 1.743-1.36 2.83H1.606c.114-1.677.777-3.124 1.991-4.339 1.215-1.214 2.662-1.877 4.34-1.99zm1.059 0c1.678.114 3.125.777 4.34 1.991 1.214 1.215 1.876 2.662 1.99 4.34h-2.125c-.11-1.09-.568-2.038-1.374-2.845-.8-.799-1.743-1.251-2.831-1.36V1.606zM7.937 4.801V6.35h1.059V4.8a3.547 3.547 0 0 1 2.09 1.047c.595.595.941 1.293 1.047 2.09h-1.55v1.059h1.55c-.107.79-.453 1.483-1.047 2.077l-.013.013c-.594.594-1.287.94-2.077 1.046v-1.549H7.937v1.55a3.547 3.547 0 0 1-2.09-1.047 3.547 3.547 0 0 1-1.046-2.09H6.35V7.937H4.8a3.547 3.547 0 0 1 1.047-2.09 3.547 3.547 0 0 1 2.09-1.046zm-6.33 4.195h2.125c.11 1.088.562 2.032 1.361 2.83.807.807 1.756 1.265 2.844 1.375v2.125c-1.677-.114-3.124-.776-4.339-1.99-1.214-1.215-1.877-2.662-1.99-4.34zm11.594 0h2.125c-.114 1.678-.776 3.125-1.99 4.34-1.215 1.214-2.662 1.876-4.34 1.99v-2.125c1.08-.112 2.025-.569 2.83-1.374.806-.806 1.263-1.75 1.375-2.831z" fill="#fff"/></svg>