<svg xmlns="http://www.w3.org/2000/svg" width="64" height="64" viewBox="0 0 16.933 16.933"><path d="M2.117 1.058H6.35v1.059H2.117V6.35H1.058V2.117q0-.437.305-.741.317-.318.754-.318m0 14.817q-.437 0-.754-.318-.305-.304-.305-.74v-4.234h1.059v4.234H6.35v1.058H2.117m12.7-14.817q.436 0 .754.318.304.304.304.74V6.35h-1.058V2.117h-4.234V1.058h4.234m1.058 13.759q0 .436-.304.74-.318.318-.754.318h-4.234v-1.058h4.234v-4.234h1.058v4.234M8.996 6.88v1.057h1.058v1.059H8.996v1.058H7.937V8.996H6.88V7.937h1.058V6.88h1.059" fill="#fff"/></svg>