<svg xmlns="http://www.w3.org/2000/svg" width="64" height="64" viewBox="0 0 16.933 16.933"><path d="M8.467 15.346q1.918 0 3.452-.9l.53.913q-1.773 1.045-3.982 1.045-2.196 0-3.97-1.032l.53-.926q1.535.9 3.44.9m-6.88-6.88q0 1.932.913 3.467l-.913.529Q.53 10.689.53 8.467q0-2.21 1.045-3.97l.913.53q-.9 1.535-.9 3.44m13.759 0q0-1.919-.9-3.44l.913-.53q1.045 1.76 1.045 3.97 0 2.222-1.058 3.995l-.913-.53q.913-1.547.913-3.465m-6.88-6.88q-1.918 0-3.452.913l-.53-.926Q6.258.53 8.468.53q2.209 0 3.982 1.045l-.53.926q-1.534-.913-3.452-.913M6.588 6.588l-.013.013q-.754.78-.754 1.866v.013q0 1.085.767 1.865.78.768 1.879.768 1.098 0 1.865-.768l.013-.013q.768-.767.768-1.865 0-1.098-.768-1.879-.78-.767-1.865-.767h-.013q-1.085 0-1.866.754l-.013.013m2.408 1.879q0 .225-.159.37-.145.159-.37.159t-.384-.159q-.146-.145-.146-.37t.146-.384q.159-.145.384-.145t.37.145q.159.159.159.384m2.09-2.633q1.085 1.085 1.085 2.633 0 1.534-1.085 2.619-1.085 1.085-2.62 1.085-1.547 0-2.632-1.085-1.072-1.085-1.072-2.62 0-1.534 1.072-2.619l.013-.013q1.085-1.072 2.62-1.072 1.534 0 2.619 1.072" fill="#fff"/></svg>