<svg xmlns="http://www.w3.org/2000/svg" width="64" height="64" viewBox="0 0 16.933 16.933"><path d="M11.642 4.233q.436 0 .754.318.304.304.304.74v2.117h-1.058V5.292H9.525V4.233h2.117m-.53 3.704h2.117v1.059h-2.116V7.937m.529 4.763H9.525v-1.058h2.117V9.525H12.7v2.117q0 .436-.304.74-.318.318-.754.318M7.937 5.82V3.705h1.059v2.117H7.937M5.292 4.233h2.116v1.059H5.292v2.116H4.233V5.292q0-.437.305-.741.317-.318.754-.318M3.704 7.937h2.117v1.059H3.704V7.937M5.292 12.7q-.437 0-.754-.318-.305-.304-.305-.74V9.525h1.059v2.117h2.116V12.7H5.292m2.645-1.587h1.059v2.116H7.937v-2.116" fill="#fff"/></svg>