<svg xmlns="http://www.w3.org/2000/svg" width="64" height="64" viewBox="0 0 16.933 16.933"><path d="M12.7 8.467q0 1.746-1.244 2.99-1.243 1.243-2.99 1.243-1.759 0-3.002-1.244-1.23-1.243-1.23-2.99 0-1.759 1.23-3.002 1.243-1.23 3.003-1.23 1.746 0 2.99 1.23Q12.7 6.707 12.7 8.467m-1.984-2.25q-.94-.925-2.25-.925-1.322 0-2.248.926-.926.926-.926 2.249 0 1.31.926 2.249.926.926 2.249.926 1.31 0 2.249-.926.926-.94.926-2.25 0-1.322-.926-2.248m-.133 2.249q0 .873-.621 1.495-.622.621-1.495.621-.873 0-1.495-.621-.622-.622-.622-1.495 0-.873.622-1.495.622-.622 1.495-.622.873 0 1.495.622.621.622.621 1.495m-.992-1.125q-.463-.463-1.124-.463-.662 0-1.125.463-.463.463-.463 1.125 0 .661.463 1.124.463.463 1.125.463.661 0 1.124-.463.463-.463.463-1.124 0-.662-.463-1.125" fill="#fff"/></svg>