<svg xmlns="http://www.w3.org/2000/svg" width="64" height="64" viewBox="0 0 16.933 16.933"><path d="M9.79 3.44l3.704 3.704-.384.383-3.704-3.704.384-.383M8.73 5.292v1.587h-.529V5.292h.53M3.44 7.144L7.144 3.44l.37.37L3.81 7.514l-.37-.37m5.556 1.323q0 .225-.159.37-.145.159-.37.159t-.384-.159q-.146-.145-.146-.37t.146-.384q.159-.146.384-.146t.37.146q.159.159.159.384m-3.704-.265h1.587v.53H5.292v-.53m4.762 0h1.588v.53h-1.588v-.53m-1.323 1.852v1.588h-.529v-1.588h.53m4.762-.264L9.79 13.494l-.37-.37 3.703-3.705.37.37m-6.35 3.705L3.44 9.79l.37-.37 3.704 3.703-.37.37" fill="#fff"/></svg>