<svg xmlns="http://www.w3.org/2000/svg" width="64" height="64" viewBox="0 0 16.933 16.933"><path d="M7.937 3.704h1.059V6.88H7.937V3.704M6.88 7.937v1.059H3.704V7.937H6.88m4.207-2.103q.688.688.953 1.574H10.9q-.185-.45-.556-.82-.37-.37-.82-.556V4.908q.873.251 1.561.926m-5.252.013l.013-.013q.688-.675 1.561-.926v1.124q-.436.186-.807.543l-.013.013-.013.013q-.357.37-.542.807H4.908q.251-.873.926-1.56m0 5.238q-.675-.688-.926-1.561h1.125q.185.45.555.82.37.37.82.556v1.138q-.886-.265-1.574-.953m3.162-2.62q0 .226-.159.371-.145.159-.37.159t-.384-.159q-.146-.145-.146-.37t.146-.384q.159-.146.384-.146t.37.146q.159.159.159.384m1.058.529V7.937h3.175v1.059h-3.175m1.032 2.09q-.688.688-1.561.94V10.9q.437-.185.807-.556l.013-.013q.37-.37.556-.807h1.124q-.251.873-.939 1.561m-3.149-1.032h1.059v3.175H7.937v-3.175" fill="#fff"/></svg>