<svg xmlns="http://www.w3.org/2000/svg" width="64" height="64" viewBox="0 0 16.933 16.933"><path d="M8.467 1.587q-2.077 0-3.705 1.059l-.754-.754Q5.953.529 8.467.529q2.513 0 4.471 1.363l-.767.754q-1.627-1.059-3.704-1.059m6.879 6.88q0-2.077-1.059-3.705l.768-.754q1.35 1.945 1.35 4.459 0 2.513-1.35 4.471l-.768-.767q1.059-1.627 1.059-3.704m1.058-6.88L13.23 4.762h-1.058V3.704L15.346.53l1.058 1.058M1.587.53l3.175 3.175v1.058H3.704L.53 1.587 1.587.53m0 7.938q0 2.077 1.059 3.704l-.754.767Q.529 10.98.529 8.467q0-2.514 1.363-4.459l.754.754Q1.587 6.39 1.587 8.467m6.35 0l.53-.53.529.53-.53.529-.529-.53m.53 6.88q2.077 0 3.704-1.059l.767.768q-1.958 1.35-4.471 1.35-2.514 0-4.459-1.35l.754-.768q1.628 1.059 3.705 1.059m-6.88 1.058L.53 15.346l3.175-3.175h1.058v1.058l-3.175 3.175m13.759 0L12.17 13.23v-1.058h1.058l3.175 3.175-1.058 1.058" fill="#fff"/></svg>