<?xml version="1.0" encoding="UTF-8" standalone="no"?>
<!-- Generator: Adobe Illustrator 16.0.0, SVG Export Plug-In . SVG Version: 6.00 Build 0)  -->

<svg
   xmlns:dc="http://purl.org/dc/elements/1.1/"
   xmlns:cc="http://creativecommons.org/ns#"
   xmlns:rdf="http://www.w3.org/1999/02/22-rdf-syntax-ns#"
   xmlns:svg="http://www.w3.org/2000/svg"
   xmlns="http://www.w3.org/2000/svg"
   xmlns:sodipodi="http://sodipodi.sourceforge.net/DTD/sodipodi-0.dtd"
   xmlns:inkscape="http://www.inkscape.org/namespaces/inkscape"
   version="1.1"
   id="Capa_1"
   x="0px"
   y="0px"
   width="97px"
   height="97px"
   viewBox="0 0 97 97"
   style="enable-background:new 0 0 97 97;"
   xml:space="preserve"
   sodipodi:docname="crosshair.svg"
   inkscape:version="0.92.2 (5c3e80d, 2017-08-06)"><metadata
     id="metadata41"><rdf:RDF><cc:Work
         rdf:about=""><dc:format>image/svg+xml</dc:format><dc:type
           rdf:resource="http://purl.org/dc/dcmitype/StillImage" /></cc:Work></rdf:RDF></metadata><defs
     id="defs39" /><sodipodi:namedview
     pagecolor="#ffffff"
     bordercolor="#666666"
     borderopacity="1"
     objecttolerance="10"
     gridtolerance="10"
     guidetolerance="10"
     inkscape:pageopacity="0"
     inkscape:pageshadow="2"
     inkscape:window-width="1920"
     inkscape:window-height="1017"
     id="namedview37"
     showgrid="false"
     inkscape:zoom="2.4329897"
     inkscape:cx="48.5"
     inkscape:cy="48.5"
     inkscape:window-x="1912"
     inkscape:window-y="-8"
     inkscape:window-maximized="1"
     inkscape:current-layer="Capa_1" /><g
     id="g4"
     style="fill:#ffffff;fill-opacity:1"><path
       d="M95,44.312h-7.518C85.54,26.094,70.906,11.46,52.688,9.517V2c0-1.104-0.896-2-2-2h-4.376c-1.104,0-2,0.896-2,2v7.517l0,0   C26.094,11.46,11.46,26.094,9.517,44.312H2c-1.104,0-2,0.896-2,2v4.377c0,1.104,0.896,2,2,2h7.517   C11.46,70.906,26.094,85.54,44.312,87.482V95c0,1.104,0.896,2,2,2h4.377c1.104,0,2-0.896,2-2v-7.518l0,0   C70.906,85.54,85.54,70.906,87.482,52.688H95c1.104,0,2-0.896,2-2v-4.376C97,45.207,96.104,44.312,95,44.312z M24.896,52.688   c1.104,0,2-0.896,2-2v-4.376c0-1.104-0.896-2-2-2h-6.492c1.856-13.397,12.51-24.052,25.907-25.908v6.492c0,1.104,0.896,2,2,2h4.376   c1.104,0,2-0.896,2-2v-6.492C66.086,20.26,76.74,30.914,78.596,44.312h-6.492c-1.104,0-2,0.896-2,2v4.377c0,1.104,0.896,2,2,2   h6.492C76.74,66.086,66.086,76.74,52.689,78.598v-6.492c0-1.104-0.896-2-2-2h-4.377c-1.104,0-2,0.896-2,2v6.492   C30.914,76.74,20.26,66.086,18.404,52.688H24.896z"
       id="path2"
       style="fill:#ffffff;fill-opacity:1" /></g><g
     id="g6"
     style="fill:#ffffff;fill-opacity:1" /><g
     id="g8"
     style="fill:#ffffff;fill-opacity:1" /><g
     id="g10"
     style="fill:#ffffff;fill-opacity:1" /><g
     id="g12"
     style="fill:#ffffff;fill-opacity:1" /><g
     id="g14"
     style="fill:#ffffff;fill-opacity:1" /><g
     id="g16"
     style="fill:#ffffff;fill-opacity:1" /><g
     id="g18"
     style="fill:#ffffff;fill-opacity:1" /><g
     id="g20"
     style="fill:#ffffff;fill-opacity:1" /><g
     id="g22"
     style="fill:#ffffff;fill-opacity:1" /><g
     id="g24"
     style="fill:#ffffff;fill-opacity:1" /><g
     id="g26"
     style="fill:#ffffff;fill-opacity:1" /><g
     id="g28"
     style="fill:#ffffff;fill-opacity:1" /><g
     id="g30"
     style="fill:#ffffff;fill-opacity:1" /><g
     id="g32"
     style="fill:#ffffff;fill-opacity:1" /><g
     id="g34"
     style="fill:#ffffff;fill-opacity:1" /></svg>