<svg xmlns="http://www.w3.org/2000/svg" width="128" height="128"><path d="M64.11 10.168c-7.606-.042-14.729 5.52-19.848 15.511-.018.037-.044.065-.062.102L11.227 83.047l-.055.085c-6.075 9.555-7.353 18.564-3.587 25.181 3.764 6.613 12.136 10.014 23.334 9.46h66.156c11.202.556 19.576-2.845 23.34-9.46 3.767-6.615 2.485-15.62-3.587-25.173l-.054-.094-32.622-57.078-.046-.086C78.878 15.834 71.72 10.21 64.11 10.168zm.015 4.702c3.388.033 6.602 1.73 9.515 4.578 2.896 2.832 5.628 6.851 8.336 12.065.016.03.032.056.047.086L110.777 81.9l.023.04.031.054c3.225 5.06 5.34 9.498 6.31 13.468.975 3.995.764 7.648-.96 10.583-1.724 2.935-4.797 4.875-8.68 5.966-3.854 1.083-8.611 1.411-14.326 1.123h-58.35c-6.2.314-11.162-.08-15.074-1.28-3.938-1.207-6.907-3.356-8.415-6.41-1.507-3.054-1.463-6.688-.374-10.59 1.081-3.877 3.198-8.138 6.208-12.86l.055-.094L46.29 31.442c.02-.039.042-.07.062-.109 2.67-5.22 5.368-9.224 8.251-12.025 2.906-2.822 6.134-4.47 9.522-4.437zm11.893 15.496l-7.12 55.909H58.456l-6.957-54.708c-.35.638-.7 1.3-1.053 1.99l-.023.054-.031.054-29.183 50.653-.023.046-.031.047c-2.886 4.516-4.803 8.479-5.701 11.698-.898 3.22-.776 5.57.062 7.268.838 1.698 2.477 3.065 5.608 4.024 3.13.96 7.654 1.385 13.577 1.077l.062-.008h58.475l.062.007c5.453.284 9.81-.07 12.946-.95 3.136-.882 4.947-2.203 5.911-3.846.965-1.642 1.243-3.879.453-7.112-.79-3.234-2.679-7.33-5.764-12.158l-.031-.047-.031-.055L77.92 33.83l-.024-.04-.016-.046a70.168 70.168 0 0 0-1.864-3.377zm-17.82 61.438h10.957v10.957H58.198V91.804z" fill="#fff"/></svg>