<svg xmlns="http://www.w3.org/2000/svg" width="64" height="64"><path d="M32 4.261c-13.184 0-23.834 10.65-23.834 23.834 0 8.778 4.723 16.428 11.77 20.562v11.082h3.677v-9.326c1.022.383 2.078.698 3.162.94v8.386h3.672v-7.865a24.345 24.345 0 0 0 3.094 0v7.865h3.671v-8.387c1.085-.24 2.14-.556 3.162-.939v9.326h3.672v-11.07c7.057-4.131 11.788-11.788 11.788-20.574 0-13.184-10.65-23.834-23.834-23.834zM18.86 21.593a7.073 7.073 0 1 1-.001 14.147 7.073 7.073 0 0 1 .001-14.147zm26.241 0a7.074 7.074 0 1 1-.002 14.148 7.074 7.074 0 0 1 .002-14.148zM31.994 31.877l5.882 9.468H26.112l5.882-9.468z" fill="#fff"/></svg>