<svg xmlns="http://www.w3.org/2000/svg" width="128" height="128"><path d="M105.01 64.348H22.99s-3.874 35.095 27.508 53.873a26.297 26.297 0 0 0 27.003 0c31.382-18.778 27.509-53.873 27.509-53.873zm0 0" fill="#d27f56"/><path d="M22.99 64.348s-3.874 35.095 27.508 53.873a26.303 26.303 0 0 0 7.615 3.064 63.364 63.364 0 0 1-3.373-7.816c-2.834-7.963 2.336-16.472 10.698-17.712 15.992-2.373 30.216-9.042 38.03-13.296 2.408-10.262 1.54-18.113 1.54-18.113zm0 0" fill="#a66642"/><path d="M15.2 47.347C8.116 58.492 13.396 73.297 25.95 77.4c9.844 3.218 22.882 6.092 38.05 6.092 15.168 0 28.206-2.874 38.051-6.092 12.551-4.103 17.832-18.908 10.75-30.054-8.154-12.83-22.946-26.697-48.8-26.697-25.856 0-40.649 13.867-48.802 26.698zm0 0" fill="#ffc988"/><path d="M43.062 24.184c-13.427 4.94-22.23 14.299-27.863 23.163-7.082 11.145-1.802 25.95 10.75 30.053a123.38 123.38 0 0 0 30.398 5.849C39.209 67.4 41.867 33.935 43.062 24.184zm0 0" fill="#ffb864"/><path d="M64 35.249c-4.257 0-7.74-3.483-7.74-7.74v-13.72c0-4.257 3.483-7.74 7.74-7.74s7.74 3.483 7.74 7.74v13.72c0 4.257-3.483 7.74-7.74 7.74zm0 0" fill="#ffdaaa"/><path d="M82.81 69.507a1.75 1.75 0 0 1-1.75-1.749v-2.904a1.75 1.75 0 0 1 3.498 0v2.904a1.75 1.75 0 0 1-1.749 1.75zm-37.62 0a1.749 1.749 0 0 1-1.748-1.749v-2.904a1.749 1.749 0 1 1 3.497 0v2.904a1.75 1.75 0 0 1-1.75 1.75zM64 71.339c-2.264 0-4.527-.733-6.416-2.199a1.75 1.75 0 0 1 2.143-2.764 6.967 6.967 0 0 0 8.545 0 1.75 1.75 0 0 1 2.144 2.764A10.451 10.451 0 0 1 64 71.34zm0 0" fill="#57565c"/><path d="M83.58 37.47l1.45-1.45a2.632 2.632 0 0 1 3.722 0l1.449 1.45a2.631 2.631 0 0 1 0 3.72l-1.45 1.45a2.632 2.632 0 0 1-3.721 0l-1.45-1.45a2.631 2.631 0 0 1 0-3.72zm9.144 9.143l1.45-1.45a2.632 2.632 0 0 1 3.721 0l1.45 1.45a2.631 2.631 0 0 1 0 3.72l-1.45 1.45a2.63 2.63 0 0 1-3.722 0l-1.45-1.45a2.631 2.631 0 0 1 0-3.72zm-18.287 0l1.45-1.45a2.632 2.632 0 0 1 3.721 0l1.45 1.45a2.631 2.631 0 0 1 0 3.72l-1.45 1.45a2.63 2.63 0 0 1-3.722 0l-1.449-1.45a2.631 2.631 0 0 1 0-3.72zm0 0" fill="#ffb864"/></svg>