<svg xmlns="http://www.w3.org/2000/svg" width="128" height="128"><path d="M122 56c0 15.567-2 38-48 64-8 4-12 4-20 0C8 94 6 72 6 56 6 23.998 31.998 6.056 64 6.056c32.002 0 58 17.942 58 49.944z" fill="none" stroke="#00ff28" stroke-width="8" stroke-linejoin="round"/><path d="M80 94s-6 8-16 8-16-8-16-8" fill="none" stroke="#00ff28" stroke-width="8" stroke-linecap="round"/><path d="M94 72c-4.945 4.951-15.352 9.44-20.3 4.492-4.948-4.948-.207-15.104 4.744-20.048 4.946-4.945 18.026-14.825 24.115-8.811C108.684 53.683 98.945 67.053 94 72zM50 56c4.951 4.945 9.44 15.352 4.492 20.3-4.948 4.948-15.104.207-20.048-4.744-4.945-4.946-14.825-18.026-8.811-24.115C31.683 41.316 45.053 51.055 50 56z" fill="#0f0"/></svg>