<svg xmlns="http://www.w3.org/2000/svg" width="128" height="128"><circle cx="64" cy="64" r="64" fill="#6da544"/><path fill="#ffda44" d="M64 25.044L116.87 64 64 102.957 11.13 64z"/><circle cx="64" cy="64" r="22.261" fill="#f0f0f0"/><path d="M52.87 62.609c-3.871 0-7.607.588-11.124 1.681C41.902 76.45 51.803 86.261 64 86.261c7.542 0 14.203-3.754 18.23-9.492-6.89-8.624-17.49-14.16-29.36-14.16zm32.978 5.656c.268-1.381.413-2.806.413-4.265 0-12.294-9.966-22.26-22.26-22.26-9.174 0-17.05 5.55-20.457 13.474a45.923 45.923 0 0 1 9.326-.953c12.93 0 24.626 5.374 32.978 14.004z" fill="#0052b4"/></svg>