<svg xmlns="http://www.w3.org/2000/svg" xmlns:xlink="http://www.w3.org/1999/xlink" width="128" height="128"><defs><linearGradient id="a"><stop offset="0" stop-color="#8e0000"/><stop offset="1" stop-color="#ff7171"/></linearGradient><linearGradient xlink:href="#a" id="b" x1="228.767" y1="182.431" x2="334.22" y2="50.427" gradientUnits="userSpaceOnUse"/></defs><g transform="matrix(.91268 0 0 .91268 -202.021 -40.573)" fill="url(#b)"><path d="M291.473 53.086c-44 0-44 44-44 44v52s0 2 2 2h84c2 0 2-2 2-2v-52s0-44-44-44zm1.677 17.129l-.021 1.03c.202.46 2.105 3.907 16.883 14.23 9.192 7.075 9.253 16.562 9.25 16.963l-.01 3.177-1.707-2.68c-9.304-14.585-18.675-16.72-21.647-17.015l-.148 40.057h-.068c-.539 4.747-4.914 9.035-10.711 10.478a16.082 16.082 0 0 1-3.948.488c-6.007 0-11.05-3.24-11.726-7.535-.681-2.73.064-5.663 2.105-8.236 1.987-2.505 4.98-4.354 8.434-5.211 2.622-.651 5.355-.676 7.777-.076V74.168c.16-1.26 1.28-3.454 4.473-3.826z"/><rect ry="4" rx="4" y="157.085" x="235.472" height="18.983" width="112"/></g></svg>