<svg xmlns="http://www.w3.org/2000/svg" xmlns:xlink="http://www.w3.org/1999/xlink" width="128" height="128"><defs><linearGradient id="b"><stop offset="0" stop-color="#af0000"/><stop offset="1" stop-color="#ff7171"/></linearGradient><linearGradient xlink:href="#a" id="c" x1="163.234" y1="142.194" x2="222.988" y2="56.733" gradientUnits="userSpaceOnUse"/><linearGradient xlink:href="#b" id="d" gradientUnits="userSpaceOnUse" x1="40.801" y1="288.365" x2="229.235" y2=".514"/><linearGradient id="a"><stop offset="0" stop-color="#8e0000"/><stop offset="1" stop-color="#ff7171"/></linearGradient></defs><g transform="translate(-223.173 -79.194) scale(1.47238)" fill="url(#c)"><path d="M222.941 60.444C164.4 19.553 156.862 5.896 156.062 4.074L156.15 0l-4.215.5c-12.646 1.474-17.09 10.16-17.72 15.153v165.26c-9.595-2.377-20.418-2.274-30.807.305-13.679 3.394-25.542 10.72-33.412 20.64-8.088 10.194-11.041 21.812-8.344 32.63 2.681 17.013 22.659 29.85 46.455 29.85 5.292 0 10.546-.642 15.637-1.931 22.964-5.716 40.298-22.708 42.43-41.516h.277l.587-158.679c11.77 1.169 48.892 9.627 85.747 67.406l6.766 10.617.038-12.591c.012-1.588-.233-39.172-36.648-67.2z" fill="url(#d)" transform="translate(151.973 58.283) scale(.29485)"/></g></svg>