<svg xmlns="http://www.w3.org/2000/svg" width="128" height="128"><path d="M121.4 89.397c-.712 4.27-3.05 5.598-4.385 6.007l-98.429 30.338a2.58 2.58 0 0 1-3.227-1.703l-6.082-19.73a2.577 2.577 0 0 1 1.706-3.223l98.432-30.338a5.149 5.149 0 0 1 1.555-.235c3.874 0 7.747 4.131 9.646 10.282.927 3.011 1.203 6.068.783 8.602z" fill="#844f3e"/><path d="M11.743 103.552c2.724-.84 6.295 2.894 7.975 8.345 1.679 5.447.832 10.538-1.892 11.378-2.723.84-6.294-2.894-7.974-8.34-1.68-5.448-.832-10.543 1.891-11.383z" fill="#b98c6a"/><g fill="#5e382c"><path d="M22.184 111.133c.926 3.01 1.206 6.067.783 8.602-.526 3.166-2.081 5.3-4.38 6.007a5.149 5.149 0 0 1-1.556.234c-3.873 0-7.75-4.13-9.646-10.281-.926-3.011-1.206-6.068-.782-8.602.525-3.167 2.08-5.3 4.38-6.007a5.245 5.245 0 0 1 1.554-.235c3.874 0 7.751 4.13 9.647 10.282zm-5.118 9.68c.083-.027.567-.466.81-1.922.29-1.736.06-4.01-.625-6.238-1.343-4.358-3.783-6.643-4.713-6.643a.08.08 0 0 0-.034.008c-.084.023-.568.465-.81 1.922-.291 1.732-.06 4.01.624 6.234 1.343 4.357 3.783 6.642 4.714 6.642.01 0 .022 0 .034-.003zm80.517-27.52c-1.324.409-1.627 1.06-1.744 1.642-.14.673-.007 1.388.053 1.611l-.007-.03-4.933 1.524c-.098-.329-.95-3.294.514-6.07.632-1.196 1.941-2.789 4.597-3.606 4.142-1.275 19.817-6.28 24.485-7.77l.068.2c.507 1.65.821 3.315.93 4.9-5.268 1.683-19.957 6.366-23.963 7.6z"/><path d="M54.314 93.12l-4.932 1.527-.008-.03c.064.22.193.938.057 1.608-.121.582-.424 1.233-1.744 1.641-4.93 1.517-29.589 9.128-29.589 9.128l1.525 4.93 29.58-9.129c2.656-.817 3.965-2.413 4.596-3.605 1.465-2.776.617-5.738.515-6.07z"/></g><path d="M118.725 104.308l-6.083 19.731a2.576 2.576 0 0 1-3.226 1.703L10.983 95.404c-1.332-.409-3.673-1.736-4.38-6.007-.424-2.534-.144-5.59.782-8.602 1.896-6.15 5.773-10.281 9.646-10.281.53 0 1.052.075 1.555.234l98.433 30.338a2.585 2.585 0 0 1 1.706 3.222z" fill="#925948"/><path d="M36.029 92.332c.518 1.324.771 2.962.752 4.857-.034 2.97-.73 5.693-.756 5.81-.012.038-.027.076-.038.114l-4.933-1.52c.114-.492.545-2.448.568-4.46.007-.813-.053-3.484-1.203-3.84-4.468-1.377-21.074-6.552-23.976-7.46a22.07 22.07 0 0 1 .942-5.038c.008-.023.016-.038.02-.06.049.015.094.022.143.037.193.06 19.523 6.09 24.391 7.592 1.317.405 3.095 1.423 4.09 3.968zm44.286 5.535a91407.42 91407.42 0 0 1 29.585 9.127l-1.52 4.93-29.586-9.129c-2.224-.68-4.89-2.769-4.974-8.798-.038-2.985.582-5.727.61-5.84.014-.061.03-.122.048-.182l4.94 1.52c-.684 3.163-.68 7.883.897 8.372z" fill="#5e382c"/><path d="M116.259 103.552c-2.724-.84-6.295 2.898-7.975 8.345-1.68 5.447-.832 10.538 1.892 11.378 2.723.84 6.294-2.894 7.974-8.34 1.68-5.448.832-10.543-1.891-11.383z" fill="#b98c6a"/><path d="M117.019 101.086c2.3.71 3.855 2.84 4.38 6.007.42 2.534.144 5.591-.783 8.602-1.899 6.15-5.772 10.281-9.646 10.281a5.14 5.14 0 0 1-1.554-.234c-2.3-.708-3.855-2.841-4.381-6.007-.424-2.535-.144-5.591.783-8.602 1.895-6.15 5.773-10.282 9.646-10.282.53 0 1.052.08 1.555.235zm-1.335 13.088c.684-2.224.915-4.501.624-6.234-.242-1.456-.726-1.899-.81-1.922a.074.074 0 0 0-.034-.008c-.93 0-3.37 2.285-4.713 6.643-.685 2.228-.916 4.501-.624 6.238.242 1.456.726 1.895.81 1.921.007.004.018.004.033.004.931 0 3.37-2.285 4.714-6.642z" fill="#5e382c"/><path d="M97.572 59.358c-1.37-6.376-4.956-12.689-10.664-18.76-6.192-6.588-9.68-14.291-10.365-22.897-.518-6.49.836-11.097.848-11.136l1.392-4.541-4.566 1.305c-12.485 3.567-21.968 9.347-28.18 17.184-4.845 6.11-7.765 13.533-8.719 22.135-.026-.034-.049-.068-.072-.1-.582-.84-1.187-1.708-1.804-2.474l-2.675-3.333-1.702 3.921c-3.162 7.278-4.539 14.397-4.093 21.163.405 6.135 2.285 11.858 5.591 17.014 3.507 5.47 8.534 10.096 14.534 13.387 5.602 3.072 11.889 4.827 17.692 4.945.28.004.563.01.847.01 10.181 0 24.65-8.049 30.271-21.05 2.334-5.398 2.898-11.044 1.665-16.773z" fill="#ff7d1c"/><path d="M76.827 64.54c-7.187-8.518-10.325-16.98-10.355-17.063l-1.328-3.664-2.856 2.654c-7.663 7.128-12.804 13.926-15.27 20.205-2.183 5.544-2.346 10.757-.489 15.492 1.737 4.426 5.311 8.41 10.335 11.507a37.327 37.327 0 0 0 4.94 2.55c2.258.95 2.77.95 3.041.95l.47.004.435-.167c4.741-1.759 13.094-7.736 15.34-16.273 1.46-5.553-.015-11.151-4.263-16.194z" fill="#ffc43e"/></svg>