<svg xmlns="http://www.w3.org/2000/svg" width="128" height="128"><path d="M16.056 66.94l7.074-10.48 9.431 9.432 12.576-6.288 9.431 9.432 12.576-18.864 12.575 9.432 9.432-3.144 6.288 9.431 9.431-9.431 6.288 12.575-6.288 22.007-34.583 15.72-34.582-6.287-18.863-18.864z" fill="#99aab5"/><path d="M101.588 52.412c.066-.906.139-1.805.139-2.726 0-18.684-13.595-34.155-31.426-37.157 3.738-.815 6.385-1.6 3.13-3.226-3.505-1.754-7.013.406-9.428 2.656h-.006c-2.418-2.25-5.92-4.41-9.428-2.656-3.254 1.625-.607 2.411 3.131 3.226-17.83 3.002-31.426 18.473-31.426 37.157 0 .922.072 1.82.138 2.726C24.893 73.165 6.596 103.62 64 103.62c57.404 0 39.104-30.454 37.588-51.207" fill="#ffcc4d"/><path d="M73.432 50.174c0 5.209-4.222 6.287-9.432 6.287s-9.431-1.078-9.431-6.287A9.43 9.43 0 0 1 64 40.742a9.43 9.43 0 0 1 9.432 9.432" fill="#f4900c"/><path d="M48.28 42.314a4.714 4.714 0 0 1-4.715 4.716 4.714 4.714 0 0 1-4.716-4.716 4.714 4.714 0 0 1 4.716-4.716 4.713 4.713 0 0 1 4.716 4.716m40.87 0a4.716 4.716 0 1 1-9.431 0 4.716 4.716 0 0 1 9.431 0" fill="#662113"/><path d="M104.87 84.756l-9.43-3.144-12.576 18.864-9.432-15.72-6.288 6.288-12.575-6.288-9.432 12.576-9.431-18.864-9.432 6.288-10.356-24.412a41.686 41.686 0 0 0-2.22 13.409c0 25.18 22.523 45.586 50.302 45.586 27.78 0 50.302-20.407 50.302-45.586 0-3.911-.6-7.684-1.625-11.309z" fill="#e1e8ed"/></svg>