<svg xmlns="http://www.w3.org/2000/svg" width="128" height="128"><g transform="translate(9.157 36.854) scale(.8965)"><ellipse ry="47.97" rx="43.547" cy="38.563" cx="-37.192" transform="rotate(-106.72)" fill="#cc722e"/><path d="M22.461 38.326c-6.92-23.034 8.04-47.886 33.414-55.51a53.386 53.386 0 0 1 4.63-1.167c-8.033-1.69-16.763-1.427-25.4 1.168C9.73-9.56-5.23 15.292 1.69 38.327c6.5 21.634 29.99 33.968 53.844 29.07-15.564-3.272-28.509-13.877-33.073-29.07z" fill="#c15d1a"/><path d="M38.572 38.09c0 23.134 18.754 41.888 41.888 41.888 23.134 0 41.888-18.754 41.888-41.888" fill="#cc722e"/><ellipse ry="4.895" rx="6.335" cy="53.868" cx="-44.809" transform="rotate(-115.181)" fill="#333"/><path d="M56.348 38.09H38.572c0 23.134 18.754 41.888 41.888 41.888 3.05 0 6.023-.329 8.888-.948-18.864-4.076-33-20.856-33-40.94z" fill="#c15d1a"/><path d="M87.336 14.65c.533-1.533.426-3.467-.432-5.29-1.486-3.167-4.676-4.8-7.123-3.651-2.448 1.151-3.222 4.65-1.734 7.814.138.291.288.57.452.836" fill="#333"/><g transform="translate(0 -30.894) scale(.23896)" fill="#f2f2f2"><ellipse ry="99.437" rx="175.29" cy="288.685" cx="336.709"/><path d="M473.542 288.685c0 11.797-12.026 26.148-33.595 37.956-11.387 6.23-25.425 11.748-41.752 15.821-17.906 4.47-38.559 7.193-61.489 7.193-43.861 0-79.394-9.953-103.241-23.015-21.569-11.808-33.595-26.159-33.595-37.956 0-24.858 53.307-60.971 136.834-60.971 33.293 0 61.778 5.736 84.009 14.206 33.549 12.798 52.829 31.812 52.829 46.766z"/></g><path d="M100.535 26.915c-1.508 13.13-14.427 14.627-18.704 14.76-.454-.008-.91-.014-1.371-.014-10.481 0-18.972 2.378-24.67 5.5 5.698 3.12 14.189 5.499 24.67 5.499 10.481 0 18.972-2.378 24.67-5.5 5.155-2.821 8.028-6.25 8.028-9.07 0-3.573-4.607-8.117-12.623-11.175z" fill="#ccc"/><ellipse ry="4.895" rx="6.335" cy="60.976" cx="-27.877" transform="rotate(-115.181)" fill="#333"/></g></svg>