<svg xmlns="http://www.w3.org/2000/svg" width="128" height="128" viewBox="0 0 33.867 33.867"><path style="isolation:isolate" d="M16.941 1.157c-3.507 0-6.776 1.923-9.205 5.416a17.32 17.32 0 0 0-.424.638h19.251a16.444 16.444 0 0 0-.416-.638c-2.43-3.493-5.699-5.416-9.206-5.416zm9.622 6.054c.031.05.064.096.095.145l-.088-.145zm.365.596c.049.084.096.169.143.254-.047-.085-.094-.17-.143-.254zM6.947 7.82c-.044.074-.085.15-.128.226.043-.076.084-.151.128-.226zm20.327.613zM6.605 8.44zm20.982.616c.053.11.107.22.159.332-.052-.112-.106-.222-.159-.332zm-21.313.042c-.043.09-.088.181-.13.273.042-.092.087-.182.13-.273zm-.149.315a21.25 21.25 0 0 0-1.04 2.8c.252-.053.532-.085.849-.085 1.272 0 1.97.502 2.478.868.405.292.63.453 1.191.453.562 0 .786-.16 1.191-.453.509-.366 1.206-.868 2.478-.868 1.272 0 1.97.502 2.478.868.406.292.629.453 1.191.453.563 0 .786-.16 1.192-.453.508-.366 1.205-.868 2.478-.868 1.272 0 1.968.502 2.477.868.405.292.63.453 1.191.453.562 0 .785-.16 1.191-.453.509-.366 1.206-.868 2.478-.868.317 0 .597.032.849.084a21.095 21.095 0 0 0-1.04-2.799zM5.003 12.48l-.034.123.034-.123zm23.876 0l.035.123-.035-.123zM5.934 14.328c-.562 0-.785.161-1.19.454-.093.066-.192.137-.298.208a25.03 25.03 0 0 0-.33 3.3h25.65a25.029 25.029 0 0 0-.33-3.3 10.423 10.423 0 0 1-.297-.208c-.405-.292-.629-.453-1.191-.453s-.786.16-1.192.453c-.508.366-1.205.867-2.477.867-1.272 0-1.969-.501-2.478-.867-.405-.292-.628-.453-1.19-.453-.563 0-.786.16-1.192.453-.509.366-1.205.867-2.478.867-1.272 0-1.969-.501-2.478-.867-.405-.292-.629-.453-1.191-.453s-.786.16-1.191.453c-.51.366-1.205.867-2.478.867-1.272 0-1.969-.501-2.478-.867-.405-.292-.629-.453-1.191-.453zm23.46.396l.015.083-.015-.083zm-24.906.002l-.014.08.014-.08zm-.375 3.642zm.052 2.124c.091.974.284 1.917.561 2.82a3.917 3.917 0 0 1 1.208-.178c1.272 0 1.97.501 2.478.867.405.292.628.454 1.19.454.563 0 .787-.162 1.192-.454.509-.366 1.205-.867 2.477-.867 1.273 0 1.97.501 2.478.867.406.292.63.454 1.192.454.562 0 .786-.162 1.192-.454.508-.366 1.205-.867 2.478-.867 1.272 0 1.968.501 2.477.867.405.292.63.454 1.191.454.562 0 .785-.162 1.191-.454.509-.366 1.206-.867 2.478-.867.477 0 .873.07 1.208.178.277-.903.47-1.846.562-2.82zm24.951 2.953zm-24.347.007zM28.926 24zm-23.959.031l.08.216-.08-.216zm23.741.529c-.034.082-.067.164-.102.245.035-.08.068-.163.102-.245zM5.19 24.6l.08.19-.08-.19zm23.256.554c-.026.055-.05.11-.077.165.027-.055.051-.11.077-.165zm-23.005.009l.074.16-.074-.16zm.493.172c-.153 0-.28.012-.394.036 2.14 4.355 6.446 7.338 11.401 7.338s9.26-2.983 11.401-7.338a1.944 1.944 0 0 0-.394-.036c-.562 0-.786.16-1.192.453-.508.366-1.205.867-2.477.867-1.272 0-1.969-.501-2.478-.867-.405-.293-.628-.453-1.19-.453-.563 0-.786.16-1.192.453-.509.366-1.205.867-2.478.867-1.272 0-1.969-.501-2.478-.867-.405-.293-.629-.453-1.191-.453s-.786.16-1.191.453c-.51.366-1.206.867-2.478.867-1.273 0-1.969-.501-2.478-.867-.405-.293-.629-.453-1.191-.453z" fill="#fff" stroke-width=".062"/></svg>