<svg xmlns="http://www.w3.org/2000/svg" width="128" height="128"><path d="M76.228 46.033a2.52 2.52 0 0 0-1.757-1.636c-1.988-.523-3.445-1.644-4.51-2.931-10.06 11.186-21.014 30.945-34.138 35.581-12.786 4.517-30.005 13.105-22.727 28.642 7.278 15.537 36.406 12.763 59.893-20.801 6.385-9.125 13.505-20.865 16.27-31.62-9.102 1.182-12.122-4.511-13.03-7.235z" fill="#744eaa"/><path d="M20.334 101.59c-4.408-9.41.17-16.27 7.305-21.222C17 85.383 7.312 93.341 13.096 105.69c5.108 10.904 20.977 12.788 38.106 1.34-14.206 6.621-26.49 3.906-30.868-5.44z" fill="#67449e"/><path d="M80.536 52.731c-2.942 6.652-8.025 15.06-16.504 25.566C45.24 101.583 24.57 108.27 12.375 103.95c6.483 17.826 36.71 15.097 60.614-19.063 9.64-13.778 14.252-23.95 16.197-31.336-3.87.754-6.653.233-8.65-.82z" fill="#9266cc"/><path d="M22.59 105.07c-3.804.326-7.259-.072-10.215-1.12 2.617 7.194 9.1 11.038 17.474 10.822.102-.003.204-.005.308-.01.15-.005.3-.014.451-.022.312-.018.626-.039.944-.068.017 0 .033-.003.05-.004 4.276-.392 8.993-1.787 13.912-4.292a52.267 52.267 0 0 0 1.412-.747 52.734 52.734 0 0 0 1.329-.753l.38-.224c.33-.198.662-.398.995-.606l.068-.044c.344-.215.688-.436 1.033-.662l.157-.103.29-.196c-12.234 5.693-23.035 4.457-28.588-1.97z" fill="#7b54ba"/><g fill="#3bbc56"><path d="M116.265 17.828c-15.709-3.427-26.9 6.437-32.957 14.055-.795 1-1.88 1.75-3.122 2.045-3.48.829-7.025 3.9-10.693 8.061 1.006 1.55 2.53 3.02 4.825 3.624a2.311 2.311 0 0 1 1.613 1.502c.876 2.626 3.884 8.263 13.255 6.437 1.77-6.724 1.331-11.14.46-13.865a2.83 2.83 0 0 1 .262-2.323c8.008-13.292 20.82-17.857 26.325-18.616.52-.071.544-.808.032-.92z"/><path d="M83.89 32.88c-.712.128-1.44.192-2.178.189a11.807 11.807 0 0 1-8.391-3.513c-3.832-3.86-3.808-10.12.052-13.951 3.228-3.204 8.461-3.185 11.665.044a1.782 1.782 0 0 1-2.529 2.51 4.69 4.69 0 0 0-6.625-.025 6.308 6.308 0 0 0-.033 8.912 8.268 8.268 0 0 0 5.875 2.46 8.268 8.268 0 0 0 5.894-2.416 1.782 1.782 0 1 1 2.51 2.53 11.803 11.803 0 0 1-6.24 3.26z"/></g></svg>