<svg xmlns="http://www.w3.org/2000/svg" width="128" height="128"><circle cx="64" cy="64" r="57.944" fill="none" stroke="#00baff" stroke-width="8" stroke-linejoin="round"/><path d="M48 100.068s4.915-8 16-8c10.915 0 16 8 16 8" fill="none" stroke="#00baff" stroke-width="8" stroke-linecap="round"/><g transform="translate(-94.848 24)" fill="#00baff"><circle r="9.559" cy="48" cx="140.068"/><circle cx="177.627" cy="48" r="9.559"/></g><path d="M30.818 59.157s4.121 2.09 12.39-.127C51.475 56.815 54 52.945 54 52.945m20 0s2.524 3.87 10.793 6.085c8.268 2.216 12.39.127 12.39.127" fill="none" stroke="#00baff" stroke-width="8" stroke-linecap="round"/><path d="M34.634 101.26c0 8.402-6.812 15.215-15.215 15.215-8.403 0-15.216-6.813-15.216-15.216 0-8.403 15.216-33.734 15.216-33.734s15.215 25.33 15.215 33.734z" fill="#00baff"/></svg>