<svg xmlns="http://www.w3.org/2000/svg" width="128" height="128"><circle cx="64" cy="64" r="57.944" fill="none" stroke="#ff69b4" stroke-width="8" stroke-linejoin="round"/><path d="M91.301 85.175C94.714 92 81.063 105.65 64 105.65S33.286 92 36.699 85.175C40.11 78.349 46.937 92 64 92s23.889-13.65 27.301-6.825zM53.754 41.523c2.501 9.335-8.027 26.053-9.064 26.33-1.038.278-18.514-8.935-21.016-18.27-.833-3.112 1.253-8.117 5.316-9.206 5.704-1.529 8.789 3.76 9.307 3.62.519-.139.546-6.26 6.251-7.789 4.667-1.25 8.372 2.204 9.206 5.315zm20.596 0c-2.502 9.335 8.026 26.053 9.064 26.33 1.037.278 18.513-8.935 21.015-18.27.833-3.112-1.253-8.117-5.315-9.206-5.705-1.529-8.79 3.76-9.308 3.62-.519-.139-.546-6.26-6.25-7.789-4.668-1.25-8.373 2.204-9.207 5.315z" fill="#ff69b4"/></svg>