<svg xmlns="http://www.w3.org/2000/svg" xmlns:xlink="http://www.w3.org/1999/xlink" width="128" height="128"><defs><linearGradient id="b"><stop offset="0" stop-color="#ff1515"/><stop offset="1" stop-color="#ff5a5a"/></linearGradient><linearGradient id="a"><stop offset="0" stop-color="#270000"/><stop offset="1" stop-color="#6f0000"/></linearGradient><linearGradient xlink:href="#a" id="d" x1="7.484" y1="7.593" x2="106.956" y2="109.559" gradientUnits="userSpaceOnUse"/><linearGradient xlink:href="#b" id="c" x1="29.559" y1="32.271" x2="105.763" y2="101.966" gradientUnits="userSpaceOnUse"/></defs><circle cx="64" cy="64" r="54.508" fill="url(#c)"/><path d="M4.37 1.287c-.268 15.73 3.154 26.173 6.202 32.3a61.938 61.938 0 0 0-8.511 31.186A61.938 61.938 0 0 0 64 126.713a61.938 61.938 0 0 0 61.94-61.94 61.938 61.938 0 0 0-8.506-31.2c3.046-6.13 6.464-16.568 6.197-32.286-8.31 5.631-19.216 8.752-28.608 9.965A61.938 61.938 0 0 0 64 2.834a61.938 61.938 0 0 0-31.05 8.414c-9.386-1.216-20.278-4.335-28.58-9.96zM64 13.516a51.256 51.256 0 0 1 51.258 51.257A51.256 51.256 0 0 1 64 116.031a51.256 51.256 0 0 1-51.258-51.258A51.256 51.256 0 0 1 64 13.516zM36.414 45.715c-2.458.01-5.125.3-7.996.97-3.318.89-6.253 9.533 1.416 10.018 13.92-3.4 21.977 5.723 21.977 5.723 2.509 1.488 10.872-1.413 5.035-8.697 0 0-7.16-8.07-20.432-8.014zm55.172 0c-13.273-.056-20.432 8.014-20.432 8.014-5.837 7.284 2.526 10.185 5.035 8.697 0 0 8.056-9.122 21.977-5.723 7.669-.485 4.734-9.127 1.416-10.017-2.87-.67-5.538-.96-7.996-.971zm-8.791 16.738a10.334 10.334 0 0 0-10.156 10.508 10.334 10.334 0 0 0 10.507 10.156A10.334 10.334 0 0 0 93.303 72.61a10.334 10.334 0 0 0-10.508-10.156zm-37.941.645a10.334 10.334 0 0 0-10.157 10.507 10.334 10.334 0 0 0 10.508 10.159 10.334 10.334 0 0 0 10.156-10.508 10.334 10.334 0 0 0-10.507-10.158zM93.7 88.03c-24.038 12.535-32.12 12.67-56.57.961 12.397 15.957 24.52 17.532 28.56 17.463 4.041-.069 16.163-2.055 28.01-18.424z" fill="url(#d)"/></svg>