<svg xmlns="http://www.w3.org/2000/svg" xmlns:xlink="http://www.w3.org/1999/xlink" width="128" height="128"><defs><linearGradient id="a"><stop offset="0" stop-color="#c8978a"/><stop offset="1" stop-color="#f17356"/></linearGradient><linearGradient id="b"><stop offset="0" stop-color="#80260e"/><stop offset="1" stop-color="#ba6f5c"/></linearGradient><linearGradient xlink:href="#a" id="d" x1="84.287" y1="111.9" x2="44.525" y2="81.755" gradientUnits="userSpaceOnUse"/><linearGradient xlink:href="#b" id="c" x1="-23.942" y1="66.279" x2="131.249" y2="66.279" gradientUnits="userSpaceOnUse" gradientTransform="translate(24.421 15.108) scale(.73767)"/></defs><path d="M107.423 80.456a19.207 19.207 0 0 0 2.151-8.873c0-10.53-8.469-19.127-18.958-19.323a24.658 24.658 0 0 0 4.75-15.847C95 29.067 91.41 22.32 85.21 17.688L67.71 7.263a3.594 3.594 0 0 0-3.599-.037 3.57 3.57 0 0 0-1.812 3.11v9.975c0 5.56-4.521 10.081-10.086 10.081-4.648 0-9.01 1.828-12.275 5.136a17.111 17.111 0 0 0-4.96 12.354c.02 1.547.328 3.058.88 4.462-9.774.954-17.438 9.217-17.438 19.234 0 3.138.747 6.164 2.152 8.872C12.49 83.43 6.76 91.193 6.76 100.16c0 11.624 9.455 21.079 21.078 21.079h72.324c11.623 0 21.078-9.455 21.078-21.078 0-8.968-5.73-16.732-13.817-19.705z" fill="url(#c)"/><path d="M63.996 107.9c-8.336 0-15.598-5.357-18.074-13.335a2.472 2.472 0 0 1 .376-2.204 2.473 2.473 0 0 1 1.996-1.007h31.413c.79 0 1.528.376 1.996 1.007.467.635.607 1.451.376 2.204-2.485 7.978-9.747 13.334-18.083 13.334z" fill="url(#d)"/><path d="M103.231 126.098H24.769c-12.611 0-22.868-10.257-22.868-22.868 0-9.729 6.215-18.153 14.987-21.377a20.82 20.82 0 0 1-2.334-9.626c0-10.872 8.31-19.835 18.92-20.865a13.851 13.851 0 0 1-.958-4.849c-.078-5.045 1.837-9.801 5.377-13.398 3.54-3.596 8.274-5.573 13.32-5.573 6.034 0 10.94-4.906 10.94-10.94V5.782a3.882 3.882 0 1 1 5.868-3.333L87.008 13.76c6.727 5.025 10.619 12.347 11.017 20.317a26.704 26.704 0 0 1-5.149 17.19c11.375.213 20.57 9.538 20.57 20.964a20.82 20.82 0 0 1-2.334 9.626C119.884 85.077 126.1 93.5 126.1 103.23c0 12.611-10.257 22.868-22.868 22.868zM35.522 59.021c-7.28 0-13.206 5.925-13.206 13.206 0 3.55 1.397 6.883 3.938 9.382a3.9 3.9 0 0 1 .91 4.12 3.887 3.887 0 0 1-3.383 2.515c-7.918.527-14.118 7.11-14.118 14.986 0 8.327 6.78 15.106 15.106 15.106h78.462c8.326 0 15.106-6.78 15.106-15.106 0-7.876-6.2-14.459-14.118-14.986a3.89 3.89 0 0 1-3.384-2.515 3.89 3.89 0 0 1 .91-4.12 13.076 13.076 0 0 0 3.939-9.382c0-7.28-5.925-13.206-13.206-13.206H82.293a3.878 3.878 0 0 1-3.798-3.1 3.877 3.877 0 0 1 2.267-4.347c1.32-.564 2.463-1.294 3.4-2.158a19.003 19.003 0 0 0 6.116-14.96 19.006 19.006 0 0 0-7.581-14.268L69.92 12.597v3.995c0 10.313-8.388 18.702-18.702 18.702a10.88 10.88 0 0 0-7.793 3.26 10.854 10.854 0 0 0-3.147 7.85c.031 2.236 1.242 4.233 3.245 5.351a3.88 3.88 0 0 1 1.858 4.368 3.882 3.882 0 0 1-3.757 2.903h-6.102z" fill="#392722"/><path d="M63.999 111.337c-11.602 0-21.713-7.46-25.16-18.56a3.474 3.474 0 0 1 .52-3.074 3.45 3.45 0 0 1 2.78-1.404h43.72c1.094 0 2.13.52 2.779 1.404.653.884.847 2.025.52 3.074-3.447 11.1-13.558 18.56-25.16 18.56zm-16.54-16.135a19.339 19.339 0 0 0 16.54 9.232c6.889 0 13.065-3.566 16.54-9.232z" fill="#392722"/><g fill="#392722"><path d="M83.475 81.755a6.831 6.831 0 0 1-6.823-6.822 6.831 6.831 0 0 1 6.823-6.823 6.831 6.831 0 0 1 6.823 6.823 6.831 6.831 0 0 1-6.823 6.822zm0-6.827v.01l3.411-.006zM44.525 81.755a6.831 6.831 0 0 1-6.823-6.822 6.831 6.831 0 0 1 6.823-6.823 6.831 6.831 0 0 1 6.823 6.823 6.831 6.831 0 0 1-6.823 6.822zm0-6.827v.01l3.411-.006z"/></g></svg>