<svg xmlns="http://www.w3.org/2000/svg" width="128" height="128"><g transform="translate(1.84 -1.534)"><path d="M107.73 73.398c-47.186 8.138-12.112 50.08-44.114 50.08-32.001 0-57.944-25.942-57.944-57.944S31.615 7.59 63.616 7.59c32.002 0 75.65 60.37 44.114 65.808z" fill="none" stroke="#ffca24" stroke-width="8" stroke-linejoin="round"/><circle cx="34.735" cy="69.873" r="9.559" fill="#ffca24"/><circle r="9.559" cy="41.941" cx="88.43" fill="#ffca24"/><path d="M82.25 90.58c-2.205 3.068-.396 15.208-20.396 15.208s-26.102-8.135-26.102-8.135M45.763 56.183s-3.455-3.068-12.015-3.025c-8.559.043-11.984 3.144-11.984 3.144M74.712 30.629s-3.015 3.501-2.84 12.06c.174 8.557 3.328 11.934 3.328 11.934" fill="none" stroke="#ffca24" stroke-width="8" stroke-linecap="round"/></g><path d="M98.095 119.469s3.963-1.216 4.521-4.14c.588-3.016-1.886-3.667-1.886-3.667s3.255-.596 3.721-4.229c.439-3.42-2.616-4.29-2.616-4.29s3.043-1.196 3.243-4.744c.166-2.985-3.027-4.5-3.027-4.5s15.627-5.107 17.243-5.455c2.365-1.135 3.548-1.753 3.55-3.664-1.109-2.163-3.083-2.553-4.627-2.22-1.546.337-21.703 3.55-28.445 5.006-.72.153-5.273 1.386-5.682 1.48-1.785.287-2.309-2.384-3.424-5.921-1.097-4.71-1.059-7.057-1.002-10.575.057-3.52-1.059-7.056-3.404-7.094-4.692-.076-4.768 4.615-4.844 9.306-.114 7.038.045 7.736-2.36 11.217-3.613 5.807-5.02 8.64-2.821 18.89 2.396 11.18 10.819 18.965 22 16.566.59-.121 9.86-1.966 9.86-1.966" fill="#e5ad00"/></svg>