<svg xmlns="http://www.w3.org/2000/svg" xmlns:xlink="http://www.w3.org/1999/xlink" width="128" height="128"><defs><linearGradient id="c"><stop offset="0" stop-color="#71b8ff"/><stop offset="1" stop-color="#1288ff"/></linearGradient><linearGradient id="b"><stop offset="0" stop-color="#004993"/><stop offset="1" stop-color="#0076ed"/></linearGradient><linearGradient gradientTransform="matrix(1.05617 0 0 1.05617 -.191 -7.19)" xlink:href="#a" id="d" x1="29.559" y1="32.271" x2="105.763" y2="101.966" gradientUnits="userSpaceOnUse"/><linearGradient id="a"><stop offset="0" stop-color="#7eccff"/><stop offset="1" stop-color="#9df9ff"/></linearGradient><linearGradient xlink:href="#b" id="e" x1="24" y1="28" x2="105.996" y2="108" gradientUnits="userSpaceOnUse" gradientTransform="matrix(1.05617 0 0 1.05617 -.191 -7.19)"/><linearGradient xlink:href="#c" id="f" gradientUnits="userSpaceOnUse" gradientTransform="matrix(1 0 0 .7113 0 3.581)" x1="108" y1="8" x2="20" y2="28"/></defs><g transform="matrix(.98709 0 0 .98709 -2.533 .826)"><circle r="57.57" cy="60.405" cx="67.403" fill="url(#d)"/><path d="M67.403.001a63.999 63.999 0 0 0-64 64 63.999 63.999 0 0 0 64 63.999 63.999 63.999 0 0 0 64-64 63.999 63.999 0 0 0-64-63.999zm0 11.037A52.961 52.961 0 0 1 120.366 64a52.961 52.961 0 0 1-52.963 52.963A52.961 52.961 0 0 1 14.441 64a52.961 52.961 0 0 1 52.962-52.962z" fill="url(#e)"/><path d="M107.785 73.64a56.249 46.708 0 0 1-40.382 14.263 56.249 46.708 0 0 1-40.282-14.115 42.247 35.081 0 0 0 40.282 24.64 42.247 35.081 0 0 0 40.382-24.789zM42.055 38.579a12.674 14.786 0 0 0-12.674 14.786 12.674 14.786 0 0 0 2.32 8.495 10.562 12.322 0 0 1 10.354-9.904 10.562 12.322 0 0 1 10.352 9.926 12.674 14.786 0 0 0 2.322-8.517 12.674 14.786 0 0 0-12.674-14.786zM92.751 38.579a12.674 14.786 0 0 0-12.674 14.786 12.674 14.786 0 0 0 2.319 8.495 10.562 12.322 0 0 1 10.355-9.904 10.562 12.322 0 0 1 10.352 9.926 12.674 14.786 0 0 0 2.322-8.517 12.674 14.786 0 0 0-12.674-14.786z" fill="#0883ff"/></g><path d="M88.55 5.797a63.173 63.173 0 0 1 7.827 3.957 46.509 8.007 0 0 1 14.133 5.737A46.509 8.007 0 0 1 64 23.499a46.509 8.007 0 0 1-46.51-8.008A46.509 8.007 0 0 1 31.72 9.729a63.173 63.173 0 0 1 7.56-3.928A62.576 13.276 0 0 0 1.424 17.995 62.576 13.276 0 0 0 64 31.27a62.576 13.276 0 0 0 62.576-13.275A62.576 13.276 0 0 0 88.551 5.797z" fill="url(#f)"/></svg>