<svg xmlns="http://www.w3.org/2000/svg" width="128" height="128"><circle cx="64" cy="64" r="64" fill="#f0f0f0"/><path d="M88.098 50.087H72.032L64 36.174l-8.032 13.913H39.902L47.935 64l-8.033 13.913h16.066L64 91.826l8.032-13.913h16.066L80.065 64zM73.868 64l-4.933 8.547h-9.869L54.131 64l4.935-8.547h9.868zM64 46.906l1.837 3.18h-3.673zm-14.803 8.547h3.672l-1.836 3.181zm0 17.094l1.836-3.181 1.837 3.181zM64 81.094l-1.836-3.181h3.672zm14.803-8.547h-3.672l1.836-3.181zm-3.672-17.094h3.672l-1.836 3.181zm28.709-41.54H24.16A64.323 64.323 0 0 0 9.394 30.609h109.213a64.336 64.336 0 0 0-14.767-16.696zM24.16 114.087h79.679a64.323 64.323 0 0 0 14.767-16.696H9.394a64.336 64.336 0 0 0 14.767 16.696z" fill="#0052b4"/></svg>