<svg xmlns="http://www.w3.org/2000/svg" width="128" height="128"><circle cx="64" cy="64" r="64" fill="#fcfcfc"/><path d="M26.435 59.362l-6.957-12.62 6.957-12.423L33.39 46.74zm-13.913 0l-6.957-12.62 6.957-12.423 6.956 12.422zm13.913 34.319l-6.957-12.62 6.957-12.423L33.39 81.06zm-13.913 0l-6.957-12.62 6.957-12.423 6.956 12.422zm20.869-81.258l-1.97-3.517a64.175 64.175 0 0 0-9.898 7.227l4.912 8.91zm-6.956 90.534l-4.964 8.864a64.178 64.178 0 0 0 9.892 7.238l2.029-3.68z" fill="#a2001d"/><path d="M38.956 80.696v42.216A63.79 63.79 0 0 0 64 128c27.518 0 50.977-17.368 60.02-41.74z" fill="#6da544"/><path d="M124.02 86.26A63.857 63.857 0 0 0 128 64c0-35.346-28.654-64-64-64a63.8 63.8 0 0 0-25.044 5.087v81.174h85.063z" fill="#a2001d"/></svg>