<svg xmlns="http://www.w3.org/2000/svg" width="128" height="128"><circle cx="64" cy="64" r="64" fill="#d80027" stroke-width=".25"/><path d="M70.608 48.417c-1.455 6.05-4.04 4.896-5.308 10.172-7.47-1.796-12.071-9.309-10.275-16.78 1.796-7.47 9.309-12.072 16.78-10.275-2.537 10.551.104 11.472-1.198 16.883zM51.222 52.9c5.304 3.252 3.408 5.354 8.033 8.191-4.017 6.55-12.583 8.604-19.133 4.587-6.55-4.016-8.605-12.583-4.588-19.133 9.252 5.673 10.943 3.446 15.688 6.355zm-1.727 19.823c4.732-4.04 6.145-1.587 10.272-5.11 4.988 5.845 4.294 14.627-1.55 19.616-5.844 4.988-14.626 4.293-19.614-1.55 8.254-7.046 6.658-9.343 10.892-12.956zm18.319 7.768c-2.38-5.749.389-6.335-1.686-11.348 7.1-2.939 15.238.435 18.176 7.535 2.938 7.1-.436 15.237-7.535 18.176-4.15-10.028-6.827-9.22-8.956-14.363zm13.048-15.022c-6.203.487-5.905-2.328-11.314-1.904-.6-7.66 5.123-14.357 12.783-14.959 7.66-.6 14.358 5.124 14.958 12.784-10.819.848-10.879 3.644-16.427 4.079z" fill="#f0f0f0"/></svg>