<svg xmlns="http://www.w3.org/2000/svg" width="128" height="128"><circle cx="64" cy="64" r="64" fill="#d80027"/><g fill="#f0f0f0"><path d="M75.126 71.241l-8.501-2.768-5.26 7.23.006-8.94-8.502-2.768 8.505-2.758.005-8.94 5.252 7.236 8.504-2.758-5.26 7.23z"/><path d="M47.048 82.087c-9.989 0-18.087-8.098-18.087-18.087 0-9.989 8.098-18.087 18.087-18.087 3.115 0 6.045.788 8.604 2.174a22.183 22.183 0 0 0-15.56-6.348c-12.294 0-22.26 9.966-22.26 22.26 0 12.295 9.966 22.261 22.26 22.261a22.183 22.183 0 0 0 15.56-6.347 18 18 0 0 1-8.604 2.174z"/></g></svg>