<svg xmlns="http://www.w3.org/2000/svg" width="128" height="128"><path d="M0 64c0 27.517 17.368 50.976 41.739 60.019l5.565-60.02L41.74 3.982C17.368 13.024 0 36.482 0 64z" fill="#6da544"/><path d="M128 64c0-35.346-28.654-64-64-64a63.866 63.866 0 0 0-22.261 3.98v120.04A63.86 63.86 0 0 0 64 128c35.346 0 64-28.654 64-64z" fill="#d80027"/><circle cx="41.739" cy="64" r="22.261" fill="#ffda44"/><path d="M29.218 52.87v13.913c0 6.915 5.606 12.521 12.521 12.521 6.916 0 12.522-5.606 12.522-12.522V52.87z" fill="#d80027"/><path d="M41.74 70.957a4.179 4.179 0 0 1-4.175-4.174v-5.566h8.348v5.566a4.179 4.179 0 0 1-4.174 4.174z" fill="#f0f0f0"/></svg>