<svg xmlns="http://www.w3.org/2000/svg" width="128" height="128"><path d="M0 64a63.863 63.863 0 0 0 3.98 22.26L64 89.044l60.02-2.782A63.86 63.86 0 0 0 128 64a63.857 63.857 0 0 0-3.98-22.26L64 38.955 3.98 41.74A63.865 63.865 0 0 0 0 64z" stroke-width=".25"/><path d="M64 0C36.482 0 13.023 17.368 3.98 41.74h120.04C114.976 17.367 91.517 0 64 0z" fill="#0052b4" stroke-width=".25"/><path d="M124.02 86.26H3.98C13.024 110.633 36.483 128 64 128s50.977-17.368 60.02-41.74z" fill="#f0f0f0" stroke-width=".25"/></svg>