<svg xmlns="http://www.w3.org/2000/svg" width="128" height="128"><circle cx="64" cy="64" r="64" fill="#f0f0f0"/><path d="M64 0v64l-45.255 45.255C30.327 120.837 46.327 128 64 128c35.346 0 64-28.654 64-64 0-35.346-64-64-64-64z" fill="#d80027"/><path d="M64 0C46.327 0 30.327 7.163 18.745 18.745L64 64h64c0-35.346-28.654-64-64-64z" fill="#0052b4"/><path d="M30.606 45.803l-5.912 6.306-5.912-6.306-1.076 8.575-8.487-1.624 4.163 7.57L5.565 64l7.817 3.677-4.163 7.57 8.488-1.624 1.075 8.574 5.912-6.306 5.912 6.306 1.075-8.574 8.488 1.623-4.162-7.57L43.823 64l-7.816-3.676 4.162-7.57-8.487 1.623zm-6.729-11.241l-4.241-1.412-2.655 3.596.034-4.47-4.242-1.413 4.262-1.35.033-4.47 2.601 3.636 4.261-1.35-2.654 3.598zm0 66.21l-4.241-1.412-2.655 3.597.034-4.47-4.242-1.413 4.262-1.35.033-4.47 2.601 3.635 4.261-1.35-2.654 3.598zm23.481-33.104l4.241-1.414 2.655 3.597-.034-4.47 4.242-1.413-4.262-1.35-.034-4.47-2.6 3.636-4.262-1.35 2.655 3.597z" fill="#ffda44"/></svg>