<svg xmlns="http://www.w3.org/2000/svg" width="128" height="128"><path d="M128 64a63.862 63.862 0 0 0-3.98-22.26L64 38.955 3.98 41.74A63.864 63.864 0 0 0 0 64a63.862 63.862 0 0 0 3.98 22.26L64 89.044l60.02-2.782A63.864 63.864 0 0 0 128 64z" fill="#f0f0f0"/><path d="M64 128c27.518 0 50.977-17.368 60.02-41.74H3.98C13.024 110.633 36.483 128 64 128z" fill="#0052b4"/><path d="M3.98 41.74h120.04C114.976 17.367 91.517 0 64 0S13.023 17.368 3.98 41.74z" fill="#d80027"/><path d="M86.26 30.609v11.13l-5.564 2.783h-11.13l1.855-13.913 7.42-5.566zm-44.52 0v11.13l5.564 2.783h11.13L56.58 30.609l-7.42-5.566z" fill="#338af3"/><path fill="#0052b4" d="M71.42 30.609v13.913H56.58V30.609L64 25.043z"/><path d="M41.74 41.74v30.608c0 7.288 3.52 13.77 8.95 17.833l3.895-.975 4.916 4.946c1.454.3 2.958.457 4.5.457a22.29 22.29 0 0 0 4.474-.452l5.612-4.673 3.223.688c5.428-4.063 8.951-10.538 8.951-17.824V41.74z" fill="#f0f0f0"/><g fill="#d80027"><path d="M41.74 41.74h8.903v8.903H41.74zm17.808 0h8.904v8.903h-8.904zm17.808 0h8.905v8.903h-8.904zm-26.712 8.904h8.904v8.904h-8.904zm17.808 0h8.905v8.904h-8.905zM41.74 59.545h8.903v8.904H41.74zm8.904 8.905h8.904v8.904h-8.904zm8.904-8.905h8.904v8.904h-8.904z"/><path d="M77.356 59.545h8.905v8.904h-8.904zm-8.904 8.905h8.905v8.904h-8.905zm-8.904 8.904h8.904v8.904h-8.904zm-8.904.001h-8.33a22.192 22.192 0 0 0 4.325 8.904h4.004zm26.712 8.904h4.005a22.187 22.187 0 0 0 4.325-8.904h-8.33zm-26.712 0v3.885a22.171 22.171 0 0 0 8.904 4.017v-7.902zm17.808 0v7.902a22.163 22.163 0 0 0 8.905-4.017V86.26z"/></g></svg>