<svg xmlns="http://www.w3.org/2000/svg" width="128" height="128"><path d="M91.826 6.35C83.412 2.283 73.973 0 64 0c-9.972 0-19.412 2.282-27.826 6.35L30.609 64l5.565 57.65C44.588 125.718 54.028 128 64 128c9.973 0 19.412-2.282 27.826-6.35L97.391 64z" fill="#ffda44"/><path d="M36.174 6.353C14.767 16.704 0 38.627 0 64c0 25.373 14.767 47.295 36.174 57.647z" fill="#0052b4"/><path d="M91.826 6.353v115.294C113.234 111.295 128 89.373 128 64c0-25.373-14.766-47.296-36.174-57.647z" fill="#d80027"/><path d="M86.26 50.355H70.958a6.956 6.956 0 1 0-13.913 0H41.739c0 3.783 3.296 6.849 7.078 6.849h-.228a6.85 6.85 0 0 0 6.85 6.85 6.848 6.848 0 0 0 5.582 6.727l-5.398 12.185A22.193 22.193 0 0 0 64 84.602c2.964 0 5.79-.585 8.376-1.636L66.98 70.781a6.848 6.848 0 0 0 5.583-6.728 6.85 6.85 0 0 0 6.85-6.85h-.229c3.783 0 7.078-3.066 7.078-6.848z" fill="#ff9811"/><path fill="#0052b4" d="M73.043 72.348V64L64 59.826 54.956 64v8.348L64 77.913z"/><path fill="#d80027" d="M54.957 55.652h18.087V64H54.957z"/></svg>