<svg xmlns="http://www.w3.org/2000/svg" width="128" height="128"><circle cx="64" cy="64" r="64" fill="#f0f0f0"/><path d="M64 0C41.307 0 21.375 11.81 10.011 29.62l86.79 89.342C115.487 107.787 128 87.356 128 64c0-35.346-28.654-64-64-64z" fill="#ffda44"/><path d="M128 64c0-16.605-6.325-31.733-16.696-43.107v86.214C121.675 95.733 128 80.606 128 64zm-48.053 56.468l6.704-.004 2.068-6.377 2.075 6.374 3.363-.001a63.938 63.938 0 0 0 5.975-3.633l-88.96-88.96a64.015 64.015 0 0 0-4.005 6.688l.79 2.428 6.704-.004-5.42 3.944 2.075 6.374-5.426-3.936-3.236 2.354A63.978 63.978 0 0 0 0 64c0 35.346 28.654 64 64 64a63.865 63.865 0 0 0 21.313-3.638zm-65.672-59.25l2.067-6.378-5.425-3.937 6.703-.004 2.068-6.378 2.076 6.375 6.703-.004-5.42 3.944 2.075 6.375-5.426-3.937zM28.08 75.13l2.067-6.376-5.425-3.938 6.704-.004 2.067-6.377 2.076 6.374 6.704-.004-5.421 3.944 2.075 6.375-5.426-3.937zm13.806 13.914l2.067-6.378-5.425-3.937 6.704-.004 2.067-6.377 2.076 6.374 6.704-.004-5.421 3.944 2.075 6.374-5.426-3.937zm19.227 9.969l-5.421 3.943 2.067-6.377-5.425-3.937 6.704-.004 2.068-6.378 2.075 6.375 6.704-.004-5.421 3.944 2.075 6.374zm8.385 17.856l2.068-6.376-5.426-3.938 6.704-.004 2.068-6.377 2.075 6.374 6.704-.004-5.421 3.944 2.075 6.375-5.425-3.938z" fill="#0052b4"/></svg>