<svg xmlns="http://www.w3.org/2000/svg" width="128" height="128"><circle cx="64" cy="64" r="64" fill="#d80027"/><path d="M100.174 47.502H76.993A8.348 8.348 0 1 0 64 37.126a8.348 8.348 0 1 0-12.992 10.376H27.826c0 6.147 5.355 11.13 11.501 11.13h-.37c0 6.148 4.982 11.131 11.13 11.131 0 1.991.525 3.858 1.44 5.474l-9.232 9.233 7.084 7.082 10.048-10.047c.393.144.8.26 1.221.339l-6.072 13.708L64 105.74l9.424-10.187-6.072-13.709c.42-.079.828-.194 1.221-.339l10.048 10.048 7.084-7.083-9.233-9.233a11.06 11.06 0 0 0 1.441-5.473c6.147 0 11.13-4.984 11.13-11.131h-.37c6.146 0 11.501-4.982 11.501-11.13z"/></svg>