<svg xmlns="http://www.w3.org/2000/svg" width="128" height="128"><path d="M64 0c35.346 0 64 28.654 64 64 0 35.346-28.654 64-64 64 0-2.783-8.348-64-8.348-64z" fill="#f0f0f0"/><path d="M64 128C28.654 128 0 99.346 0 64 0 28.654 28.654 0 64 0" fill="#496e2d"/><g fill="#d80027"><path d="M64.004 70.668l8.501-2.767 5.26 7.23-.005-8.94 8.5-2.769-8.503-2.757-.006-8.941L72.5 58.96l-8.505-2.758 5.26 7.23z"/><path d="M69.31 82.087c-9.99 0-18.088-8.098-18.088-18.087 0-9.989 8.098-18.087 18.087-18.087 3.115 0 6.046.787 8.604 2.174a22.185 22.185 0 0 0-15.56-6.348c-12.295 0-22.261 9.966-22.261 22.26 0 12.295 9.967 22.261 22.26 22.261a22.184 22.184 0 0 0 15.561-6.347 17.999 17.999 0 0 1-8.604 2.174z"/></g></svg>