<svg xmlns="http://www.w3.org/2000/svg" width="128" height="128"><circle cx="64" cy="64" r="64" fill="#f0f0f0"/><path d="M128 64c0-25.373-14.766-47.297-36.174-57.65v115.3C113.234 111.296 128 89.372 128 64zM0 64c0 25.373 14.766 47.297 36.174 57.65V6.35C14.766 16.703 0 38.627 0 64z" fill="#338af3"/><path fill="#acabb1" d="M51.212 45.31l-2.949 2.949-.467 5.44 10.301 10.302-10.822 10.821 5.903 5.903L64 69.903l10.822 10.822 5.903-5.903L69.903 64l10.3-10.3-.466-5.441-2.949-2.95L64 58.097z"/><path d="M79.74 48.26l-5.902 5.902A13.87 13.87 0 0 1 77.913 64c0 7.684-6.229 13.913-13.913 13.913S50.087 71.684 50.087 64a13.87 13.87 0 0 1 4.075-9.838l-5.902-5.903A22.189 22.189 0 0 0 41.74 64c0 12.294 9.966 22.26 22.26 22.26 12.294 0 22.26-9.966 22.26-22.26a22.19 22.19 0 0 0-6.52-15.74z" fill="#6da544"/></svg>