<svg xmlns="http://www.w3.org/2000/svg" width="128" height="128"><path d="M128 64c0 35.346-28.654 64-64 64-35.346 0-64-28.654-64-64L64 0c35.346 0 64 28.654 64 64z" fill="#d80027" stroke-width=".25"/><path d="M64 64V0C28.654 0 0 28.654 0 64z" fill="#0052b4" stroke-width=".25"/><path fill="#f0f0f0" d="M42.435 55.652l-5.912-6.306-5.912 6.306-1.075-8.574-8.487 1.623 4.162-7.57-7.816-3.676 7.816-3.676-4.162-7.57 8.487 1.624 1.076-8.574 5.912 6.306 5.911-6.306 1.076 8.574 8.487-1.624-4.162 7.57 7.816 3.676-7.816 3.677 4.162 7.57-8.487-1.624z"/><circle cx="36.525" cy="37.454" r="11.913" fill="#0052b4" stroke-width=".25"/><path d="M36.523 43.803a6.355 6.355 0 0 1-6.347-6.348c0-3.5 2.848-6.348 6.348-6.348s6.347 2.848 6.347 6.348-2.848 6.348-6.348 6.348z" fill="#f0f0f0" stroke-width=".25"/></svg>