<svg xmlns="http://www.w3.org/2000/svg" width="128" height="128"><path d="M121.65 91.826C125.718 83.412 128 73.973 128 64c0-9.973-2.282-19.412-6.35-27.826L64 30.609 6.35 36.174C2.282 44.588 0 54.027 0 64c0 9.973 2.282 19.412 6.35 27.826L64 97.391z" fill="#0052b4"/><path d="M64 128c25.373 0 47.297-14.766 57.65-36.174H6.35C16.703 113.234 38.627 128 64 128z" fill="#d80027"/><path d="M101.991 83.478l1.182-4.124-3.556-2.4 4.287-.149 1.183-4.124 1.468 4.032 4.287-.15-3.38 2.641 1.466 4.03-3.556-2.397zm-5.757-12.383l-.3-4.28-4.162-1.037 3.978-1.608-.299-4.28 2.757 3.288 3.977-1.607-2.273 3.638 2.758 3.285-4.163-1.036zm-9.645-9.667l-1.745-3.918-4.267.448 3.189-2.871-1.745-3.919 3.715 2.145 3.188-2.87-.892 4.196 3.715 2.144-4.266.45zM74.22 55.644l-2.98-3.086-3.857 1.88 2.014-3.788-2.98-3.085 4.225.745 2.014-3.788.597 4.248 4.225.744-3.856 1.882zm-13.603-1.205l-3.856-1.881-2.98 3.085.597-4.247-3.855-1.88 4.224-.746.597-4.248 2.014 3.788 4.225-.746-2.98 3.087zm-13.195 3.52l-4.266-.45-1.745 3.92-.891-4.197-4.267-.447 3.715-2.146-.892-4.197 3.189 2.871 3.714-2.145-1.744 3.92zm-11.194 7.82l-4.162 1.037-.3 4.279-2.272-3.637-4.163 1.037 2.757-3.286-2.274-3.639 3.979 1.608 2.756-3.286-.298 4.28zm-7.844 11.177l-3.557 2.399 1.182 4.123-3.38-2.64-3.557 2.398 1.468-4.032-3.381-2.641 4.288.15 1.466-4.031 1.184 4.124z" fill="#f0f0f0"/><path d="M121.65 36.174C111.297 14.766 89.373 0 64 0 38.627 0 16.703 14.766 6.35 36.174z" fill="#ffda44"/></svg>