<svg xmlns="http://www.w3.org/2000/svg" width="128" height="128"><circle cx="64" cy="64" r="64" fill="#f0f0f0" stroke-width=".25"/><path d="M64 0C36.482 0 13.023 17.368 3.98 41.74h120.04C114.976 17.367 91.517 0 64 0z" fill="#d80027" stroke-width=".25"/><path d="M64 128c27.518 0 50.977-17.368 60.02-41.74H3.98C13.024 110.633 36.483 128 64 128z" stroke-width=".25"/><path d="M86.26 57.044H69.566a5.565 5.565 0 0 0-11.13 0H41.739c0 3.073 2.677 5.565 5.75 5.565h-.185a5.565 5.565 0 0 0 5.565 5.565 5.565 5.565 0 0 0 5.566 5.565h11.13a5.565 5.565 0 0 0 5.565-5.565 5.565 5.565 0 0 0 5.566-5.565h-.186c3.074 0 5.75-2.492 5.75-5.565z" fill="#ff9811" stroke-width=".25"/></svg>