<svg xmlns="http://www.w3.org/2000/svg" width="128" height="128"><circle cx="64" cy="64" r="64" fill="#f0f0f0"/><path d="M64 47.304h61.795a63.64 63.64 0 0 0-7.189-16.696H64zm-39.84 66.783h79.679a64.323 64.323 0 0 0 14.767-16.696H9.394a64.336 64.336 0 0 0 14.767 16.696zM64 0v13.913h39.84C92.906 5.206 79.061 0 64 0z" fill="#338af3"/><path d="M64 47.304h61.795a63.64 63.64 0 0 0-7.188-16.695H64zM0 64c0 5.777.77 11.372 2.205 16.696h123.59A64.08 64.08 0 0 0 128 64z" fill="#338af3"/><path fill="#ffda44" d="M42.435 55.652l-5.912-6.306-5.912 6.306-1.075-8.574-8.487 1.623 4.162-7.57-7.816-3.676 7.816-3.676-4.162-7.57 8.487 1.623 1.076-8.573 5.912 6.306 5.911-6.306 1.075 8.573 8.488-1.623-4.162 7.57 7.816 3.676-7.816 3.677 4.162 7.57-8.487-1.623z"/></svg>