<svg xmlns="http://www.w3.org/2000/svg" width="128" height="128"><circle cx="64" cy="64" r="64" fill="#f0f0f0"/><g fill="#d80027"><path d="M127.458 55.652h-55.11V.542a64.639 64.639 0 0 0-16.696 0v55.11H.542a64.639 64.639 0 0 0 0 16.696h55.11v55.11a64.639 64.639 0 0 0 16.696 0v-55.11h55.11a64.633 64.633 0 0 0 0-16.696z"/><path d="M22.26 30.609v8.347h8.349v8.348h8.347v-8.348h8.348V30.61h-8.348v-8.35H30.61v8.348zm58.436 0v8.347h8.347v8.348h8.348v-8.348h8.348V30.61h-8.348v-8.35h-8.348v8.348zM22.26 89.043v8.348h8.349v8.348h8.347v-8.348h8.348v-8.348h-8.348v-8.347H30.61v8.347zm58.436 0v8.348h8.347v8.348h8.348v-8.348h8.348v-8.348h-8.348v-8.347h-8.348v8.347z"/></g></svg>