<svg xmlns="http://www.w3.org/2000/svg" width="128" height="128"><path d="M10.105 97.935a35.375 35.375 0 0 0 8.403 10.798c9.96 8.782 25.149 13.153 42.493 13.153.5 0 .999 0 1.498-.04 18.862-.299 35.249-6.966 44.19-16.766a29.56 29.56 0 0 0 4.89-7.145c.12-.24.22-.48.32-.719a22.802 22.802 0 0 0 1.996-9.261V48.974c0-23.053-18.223-42.494-41.277-42.853a40.911 40.911 0 0 0-9.94 1.038C43.6 11.504 30.066 28.469 30.065 48.036V80.57a22.117 22.117 0 0 1-2.814 11.097c-2.635 4.531-8.243 8.324-17.145 6.268zm0 0" fill="#f0980c"/><path d="M22.085 108.494c10.02 8.642 25.109 13.093 42.414 13.352 18.862-.299 35.249-6.966 44.19-16.766a29.56 29.56 0 0 0 4.89-7.145c.12-.24.22-.48.32-.719V45.341C113.844 24.736 97.1 8.072 76.495 8.117a36.098 36.098 0 0 0-7.546.778C51.59 12.388 39.1 27.634 39.09 45.341V90.83s0 12.655-17.005 17.665zm0 0" fill="#f8c574"/><path d="M91.943 44.044c0-5.512 2.68-9.98 5.988-9.98 3.307 0 5.988 4.468 5.988 9.98 0 5.512-2.681 9.98-5.988 9.98-3.307 0-5.988-4.468-5.988-9.98zm0 0" fill="#37474f"/><path d="M97.931 42.048c0-2.204.894-3.992 1.996-3.992 1.103 0 1.996 1.788 1.996 3.992 0 2.205-.893 3.992-1.996 3.992-1.102 0-1.996-1.787-1.996-3.992zm0 0" fill="#fff"/><path d="M54.02 44.044c0-5.512 2.68-9.98 5.988-9.98 3.307 0 5.987 4.468 5.987 9.98 0 5.512-2.68 9.98-5.987 9.98s-5.988-4.468-5.988-9.98zm0 0" fill="#37474f"/><path d="M69.987 64.004c.834 0 1.58-.517 1.87-1.298a7.884 7.884 0 0 1 1.484-2.495 6.703 6.703 0 0 1 2.12-1.622 5.79 5.79 0 0 1 5.019 0c.81.392 1.531.944 2.122 1.622a7.865 7.865 0 0 1 1.483 2.494 1.995 1.995 0 0 0 3.41.57c.454-.55.58-1.3.331-1.968a11.893 11.893 0 0 0-2.234-3.74 10.638 10.638 0 0 0-3.393-2.58 9.812 9.812 0 0 0-8.47 0 10.671 10.671 0 0 0-3.392 2.58 11.876 11.876 0 0 0-2.234 3.74 1.996 1.996 0 0 0 1.884 2.697zm0 0" fill="#2c3e50"/><path d="M60.008 42.048c0-2.204.894-3.992 1.996-3.992 1.102 0 1.996 1.788 1.996 3.992 0 2.205-.894 3.992-1.996 3.992-1.102 0-1.996-1.787-1.996-3.992zm0 0" fill="#fff"/><path d="M89.948 77.975v9.98a7.984 7.984 0 1 0 15.967 0v-9.98" fill="#8f5b00"/><path d="M89.948 73.983v7.984a7.984 7.984 0 1 0 15.967 0v-7.984a1.996 1.996 0 0 0-1.996-1.995H91.943a1.996 1.996 0 0 0-1.995 1.995zm0 0" fill="#8f5b00"/><path d="M101.923 69.991H93.94V85.96a3.992 3.992 0 1 0 7.984 0zm0 0" fill="#d49400"/><path d="M50.028 77.975v9.98a7.984 7.984 0 1 0 15.967 0v-9.98" fill="#8f5b00"/><path d="M50.028 73.983v7.984a7.984 7.984 0 1 0 15.967 0v-7.984A1.996 1.996 0 0 0 64 71.988H52.024a1.996 1.996 0 0 0-1.996 1.995zm0 0" fill="#8f5b00"/><path d="M62.004 69.991H54.02V85.96a3.992 3.992 0 1 0 7.984 0zm0 0" fill="#d49400"/></svg>