<svg xmlns="http://www.w3.org/2000/svg" width="128" height="128"><circle cx="64" cy="64" r="64" fill="#f0f0f0"/><path d="M64 47.304h61.795a63.64 63.64 0 0 0-7.188-16.695H64zm-39.84 66.783h79.679a64.323 64.323 0 0 0 14.767-16.696H9.394a64.336 64.336 0 0 0 14.767 16.696zm-1.9-98.602A64.313 64.313 0 0 0 9.394 30.609h12.868zM64 64V47.304H38.956V64H22.261V47.304H2.205A64.07 64.07 0 0 0 0 64c0 5.777.77 11.372 2.205 16.696h123.59A64.08 64.08 0 0 0 128 64zm0-64a63.8 63.8 0 0 0-25.044 5.087v25.522H64V13.913h39.84C92.905 5.206 79.061 0 64 0z" fill="#338af3"/></svg>