<svg xmlns="http://www.w3.org/2000/svg" width="128" height="128"><path d="M3.98 41.74A63.864 63.864 0 0 0 0 64a63.862 63.862 0 0 0 3.98 22.26L64 91.827l60.02-5.565A63.862 63.862 0 0 0 128 64a63.864 63.864 0 0 0-3.98-22.26L64 36.173z" fill="#f0f0f0" stroke-width=".25"/><path d="M64 0C36.483 0 13.023 17.368 3.981 41.74H124.02C114.977 17.367 91.518 0 64 0z" fill="#d80027" stroke-width=".25"/><path d="M64 128c27.518 0 50.977-17.368 60.02-41.74H3.98C13.024 110.633 36.483 128 64 128z" fill="#6da544" stroke-width=".25"/></svg>