<svg xmlns="http://www.w3.org/2000/svg" width="128" height="128"><circle cx="64" cy="64" r="64" fill="#338af3" stroke-width=".25"/><path d="M100.174 64.696H27.826c0 4.995 4.35 9.043 9.344 9.043h-.3a9.043 9.043 0 0 0 9.043 9.044 9.043 9.043 0 0 0 9.043 9.043h18.087a9.043 9.043 0 0 0 9.044-9.043 9.043 9.043 0 0 0 9.043-9.044h-.3c4.993 0 9.344-4.049 9.344-9.043z" fill="#ffda44" stroke-width=".25"/><path d="M89.043 52.87c0 13.83-11.212 25.043-25.043 25.043S38.956 66.701 38.956 52.87" fill="#338af3" stroke-width=".25"/><path fill="#ffda44" d="M69.912 71.067L64 64.76l-5.912 6.306-1.075-8.574-8.488 1.624 4.162-7.57-7.816-3.676 7.816-3.677-4.162-7.57 8.488 1.624 1.075-8.574L64 40.979l5.912-6.306 1.075 8.574 8.488-1.624-4.162 7.57 7.816 3.677-7.817 3.676 4.163 7.57-8.488-1.623z"/></svg>