<svg xmlns="http://www.w3.org/2000/svg" width="128" height="128"><path d="M93.168 11.128l5.47 5.47-16.41 18.232.147.218-9.882 6.728 4.613-12.817zM116.87 64l-48.06 3.008-7.292-5.068L89.43 41.994l.092.128 20.054-9.116 3.647 9.116-30.429 14.549 34.075-1.787z" fill="#d1ffc5"/><path fill="#89d84f" d="M77.106 28.959l-4.613 12.817 9.882-6.728 24.722-16.864 5.47 7.293L89.43 41.994 61.518 61.94l-4.813-5.233-.657-.237 17.065-45.342 9.116 3.647z"/><g fill="#307e45"><path d="M22.101 109.58a6.186 6.186 0 0 1-3.591 2.114 6.217 6.217 0 0 1 1.64-5.324l36.883-39.015z"/><path d="M68.81 67.008L29.394 114.63a6.236 6.236 0 0 1-4.777 2.243 6.219 6.219 0 0 1-6.107-5.178 6.186 6.186 0 0 0 3.591-2.115l34.932-42.224 4.485-5.415z"/></g><path d="M56.705 56.707l4.813 5.233-4.485 5.415L20.15 106.37a6.217 6.217 0 0 0-1.64 5.324c-.389.09-.786.131-1.186.128a6.112 6.112 0 0 1-4.375-1.824 6.199 6.199 0 0 1-.091-8.678l43.19-44.85z" fill="#2a6e3c"/></svg>