<svg xmlns="http://www.w3.org/2000/svg" width="128" height="128"><defs><clipPath id="a"><path d="M-45.534 209.35l29.33 16.933v33.867l-29.33 16.933-29.33-16.933v-33.867z" fill-opacity=".506" stroke="#fff" stroke-width="2.117" stroke-opacity=".502"/></clipPath></defs><path transform="rotate(-150 -63.137 239.85) scale(1.87368)" d="M-45.534 209.35l29.33 16.933v33.867l-29.33 16.933-29.33-16.933v-33.867z" clip-path="url(#a)" stroke-width="4.011" stroke="#fff"/><path d="M64 26.5A37.5 37.5 0 0 0 26.5 64 37.5 37.5 0 0 0 64 101.5 37.5 37.5 0 0 0 101.5 64 37.5 37.5 0 0 0 64 26.5zM40.678 42.79c.654.038 1.316-.028 2.931.694-1.64 1.69-2.654 2.925-3.687 4.889-.607-1.406-.652-2.603-.647-4.041.114-1.048.32-1.449 1.403-1.543zm4.195 1.247c.476-.077 2.753.848 3.871 1.615-2.518 2.584-4.724 4.832-6.826 9.588-.772-.606-1.444-4.067-1.469-4.914-.028-.848 3.944-6.21 4.424-6.289zm5.56 2.338c.986.045 6.512 1.666 7.633 2.918-2.895 2.553-7.707 9.19-12.576 18.191-1.85-2.774-2.786-8.39-2.969-9.867-.18-1.476 6.928-11.287 7.913-11.242zm10.286 3.922c1.68.068 3.255.501 5.24 2.617 4.397 4.684 1.718 10.23 4.242 17.895 2.971 9.018 11.532 13.3 9.37 13.894-5.803 1.593-20.63-.846-25.159-3.334-6.796-3.735-7.511-9.131-7.805-10.344-.449-1.856 3.084-7.573 6.58-12.545 3.234-4.602 5.761-8.255 7.532-8.183zm10.732 5.127c3.796.035 10.258 3.855 12.836 5.861 2.75 2.144 5.324 5.248 4.145 10.135-.804 3.332-4.757 10.87-7.248 11.248-.966.146-2.412-1.822-2.069-2.668.792-1.954 4.359-4.228 6.23-9.322 1.453-3.952.459-5.813-2.855-7.223-5.694-2.421-8.866.618-10.982-.428-1.38-.683-2.25-7.343-.78-7.558.228-.033.47-.048.723-.045z" fill="#fff" stroke-width="16.198" stroke-linecap="square" stroke-miterlimit="10"/></svg>