<?xml version="1.0" encoding="UTF-8" standalone="no"?>
<svg
   xmlns:dc="http://purl.org/dc/elements/1.1/"
   xmlns:cc="http://creativecommons.org/ns#"
   xmlns:rdf="http://www.w3.org/1999/02/22-rdf-syntax-ns#"
   xmlns:svg="http://www.w3.org/2000/svg"
   xmlns="http://www.w3.org/2000/svg"
   xmlns:sodipodi="http://sodipodi.sourceforge.net/DTD/sodipodi-0.dtd"
   xmlns:inkscape="http://www.inkscape.org/namespaces/inkscape"
   width="128"
   height="128"
   version="1.1"
   id="svg11"
   sodipodi:docname="logo-twins.svg"
   inkscape:version="0.92.2 (5c3e80d, 2017-08-06)">
  <metadata
     id="metadata15">
    <rdf:RDF>
      <cc:Work
         rdf:about="">
        <dc:format>image/svg+xml</dc:format>
        <dc:type
           rdf:resource="http://purl.org/dc/dcmitype/StillImage" />
        <dc:title></dc:title>
      </cc:Work>
    </rdf:RDF>
  </metadata>
  <sodipodi:namedview
     pagecolor="#ffffff"
     bordercolor="#666666"
     borderopacity="1"
     objecttolerance="10"
     gridtolerance="10"
     guidetolerance="10"
     inkscape:pageopacity="0"
     inkscape:pageshadow="2"
     inkscape:window-width="1920"
     inkscape:window-height="1017"
     id="namedview13"
     showgrid="true"
     inkscape:zoom="1.84375"
     inkscape:cx="35.944093"
     inkscape:cy="51.99353"
     inkscape:window-x="1912"
     inkscape:window-y="-8"
     inkscape:window-maximized="1"
     inkscape:current-layer="svg11">
    <inkscape:grid
       type="xygrid"
       id="grid825"
       empspacing="4"
       spacingy="4"
       spacingx="4" />
  </sodipodi:namedview>
  <defs
     id="defs5">
    <clipPath
       id="a">
      <path
         d="M-45.534 209.35l29.33 16.933v33.867l-29.33 16.933-29.33-16.933v-33.867z"
         fill-opacity=".506"
         stroke="#fff"
         stroke-width="2.117"
         stroke-opacity=".502"
         id="path2" />
    </clipPath>
  </defs>
  <path
     transform="matrix(-1.6226545,-0.93684,0.93684,-1.6226545,-237.7409,415.99828)"
     d="m -45.534,209.35 29.33,16.933 v 33.867 l -29.33,16.933 -29.33,-16.933 v -33.867 z"
     clip-path="url(#a)"
     id="path7"
     inkscape:connector-curvature="0"
     style="stroke:#ffffff;stroke-width:4.01100016" />
  <path
     style="fill:#ffffff;fill-opacity:1"
     d="M 64 26.5 C 43.289322 26.5 26.5 43.289322 26.5 64 C 26.5 84.710678 43.289322 101.5 64 101.5 C 84.710678 101.5 101.5 84.710678 101.5 64 C 101.5 43.289322 84.710678 26.5 64 26.5 z M 49.806641 47.677734 C 49.822911 47.677734 49.833716 47.679688 49.847656 47.679688 C 49.861596 47.679688 49.869656 47.677734 49.884766 47.677734 C 52.627103 47.677734 54.727229 49.09229 54.851562 53.152344 C 54.910825 55.177722 53.848746 56.941636 52.367188 57.888672 L 52.005859 59.001953 C 52.005859 59.001953 57.147667 60.591518 57.378906 60.972656 C 57.378906 60.972656 61.457147 68.740764 63.996094 73.587891 C 66.534726 68.740663 70.609375 60.970703 70.609375 60.970703 C 70.840614 60.589565 75.982422 59 75.982422 59 L 75.623047 57.886719 C 74.139164 56.939683 73.140625 55.176931 73.140625 53.150391 C 73.140625 52.806436 73.176642 52.473008 73.232422 52.146484 C 73.251012 52.041904 73.277541 51.9421 73.300781 51.839844 C 73.350748 51.619062 73.409212 51.406427 73.482422 51.197266 C 73.519606 51.088037 73.558196 50.97879 73.603516 50.873047 C 73.686018 50.673182 73.781347 50.484749 73.884766 50.298828 C 73.934732 50.208192 73.981329 50.113701 74.037109 50.025391 C 74.195142 49.777883 74.368865 49.542305 74.566406 49.326172 C 74.637289 49.245993 74.721345 49.176299 74.796875 49.099609 C 74.930506 48.968303 75.068431 48.839228 75.214844 48.720703 C 75.321748 48.637039 75.432998 48.560698 75.546875 48.486328 C 75.681668 48.395692 75.818011 48.311858 75.960938 48.236328 C 76.081785 48.172418 76.201466 48.110091 76.328125 48.056641 C 76.365313 48.040371 76.401103 48.017063 76.439453 48.001953 C 76.446423 48.004353 76.451984 48.008219 76.458984 48.011719 C 76.97724 47.808367 77.526418 47.677734 78.107422 47.677734 C 78.123692 47.677734 78.134498 47.679688 78.148438 47.679688 C 78.162377 47.679688 78.17239 47.677734 78.1875 47.677734 C 80.929837 47.677734 83.028009 49.09229 83.152344 53.152344 C 83.211606 55.177722 82.149528 56.941636 80.667969 57.888672 L 80.308594 59.001953 C 80.308594 59.001953 85.450401 60.591518 85.681641 60.972656 C 85.681641 60.972656 93.139912 75.165531 94.251953 77.316406 C 95.073492 78.903708 91.892631 80.873352 90.380859 79.023438 C 90.292547 78.915371 90.205229 78.798435 90.130859 78.660156 C 88.428519 75.597105 84.863281 67.634766 84.863281 67.634766 C 84.863281 67.634766 84.871559 67.73143 84.880859 67.890625 C 84.880859 67.918515 84.883219 67.950675 84.886719 67.984375 C 84.889019 68.033179 84.891031 68.091547 84.894531 68.154297 C 84.894531 68.163597 84.895284 68.168434 84.896484 68.177734 C 84.915074 68.596057 84.948306 69.237822 84.978516 70.011719 L 84.978516 70.029297 C 84.984326 70.178034 84.991047 70.33141 84.998047 70.488281 C 84.998047 70.502231 85 70.515357 85 70.529297 C 85.00697 70.690816 85.015231 70.846918 85.019531 71.015625 L 85.019531 71.029297 C 85.040451 71.501072 85.052089 72.00318 85.068359 72.515625 C 85.070759 72.572563 85.071919 72.630609 85.074219 72.693359 C 85.078839 72.82118 85.083638 72.952257 85.085938 73.080078 C 85.088237 73.168391 85.088644 73.251901 85.089844 73.337891 C 85.093344 73.442471 85.097309 73.549345 85.099609 73.65625 C 85.101909 73.774775 85.103922 73.891241 85.107422 74.009766 C 85.107422 74.102726 85.109028 74.194149 85.111328 74.287109 C 85.113728 74.427712 85.117188 74.570706 85.117188 74.708984 C 85.117188 74.777543 85.119141 74.842756 85.119141 74.910156 C 85.144705 77.604851 85.057983 80.026748 84.664062 80.048828 C 84.223663 80.069744 81.172351 80.240926 78.146484 80.322266 C 77.575939 80.307156 77.007773 80.287705 76.451172 80.265625 L 76.4375 80.265625 C 76.279467 80.260975 76.126412 80.255047 75.970703 80.248047 C 75.931199 80.245647 75.893819 80.244487 75.855469 80.242188 C 75.551023 80.231728 75.254975 80.218651 74.966797 80.207031 C 74.923804 80.207031 74.878144 80.205425 74.833984 80.203125 C 74.517918 80.188015 74.216332 80.177219 73.931641 80.162109 C 73.896778 80.159709 73.864938 80.15625 73.830078 80.15625 C 73.602325 80.14695 73.389318 80.138573 73.189453 80.126953 C 73.079062 80.121123 72.984696 80.115928 72.884766 80.111328 C 72.752297 80.104358 72.632617 80.097944 72.517578 80.089844 C 72.428104 80.085224 72.350127 80.080425 72.273438 80.078125 C 72.170019 80.071195 72.08134 80.0671 72 80.0625 C 71.93958 80.0601 71.89139 80.057334 71.84375 80.052734 C 71.748465 80.048114 71.675019 80.043316 71.630859 80.041016 C 70.737276 79.993373 71.421875 67.626953 71.421875 67.626953 C 71.421875 67.626953 71.405259 67.66646 71.380859 67.71875 C 71.363429 67.75942 71.340757 67.8076 71.310547 67.875 C 71.289637 67.920321 71.271654 67.961431 71.246094 68.019531 C 71.226334 68.059041 71.206467 68.102751 71.185547 68.150391 C 71.068184 68.413004 70.91011 68.762107 70.720703 69.175781 C 70.712563 69.195531 70.705366 69.207973 70.697266 69.226562 C 70.502048 69.653019 70.279549 70.141678 70.033203 70.679688 C 69.996018 70.758703 69.962178 70.838166 69.923828 70.916016 C 69.852946 71.071725 69.779448 71.224038 69.705078 71.386719 C 69.66789 71.464573 69.63093 71.54598 69.59375 71.625 C 69.51822 71.791167 69.441131 71.9573 69.363281 72.126953 C 69.302857 72.255936 69.241277 72.390178 69.179688 72.521484 C 69.080917 72.73297 68.981163 72.943553 68.878906 73.150391 C 68.801052 73.314234 68.724334 73.47604 68.646484 73.644531 C 68.594194 73.750274 68.543317 73.859521 68.492188 73.96875 C 68.395741 74.170939 68.300368 74.372029 68.205078 74.574219 C 68.171378 74.643939 68.139962 74.709577 68.107422 74.779297 C 67.985411 75.033776 67.864989 75.284113 67.744141 75.529297 C 67.151517 76.748243 66.591583 77.864132 66.152344 78.654297 C 65.640964 79.575316 64.814629 79.839749 64.025391 79.738281 C 63.333854 79.842835 62.6064 79.667483 62.080078 79.023438 C 61.991766 78.915371 61.904448 78.798435 61.830078 78.660156 C 60.127737 75.597105 56.5625 67.634766 56.5625 67.634766 C 56.5625 67.634766 56.568825 67.73143 56.578125 67.890625 C 56.578125 67.918515 56.580484 67.950675 56.583984 67.984375 C 56.586284 68.033179 56.588297 68.091547 56.591797 68.154297 C 56.591797 68.163597 56.59255 68.168434 56.59375 68.177734 C 56.61234 68.596057 56.645571 69.237822 56.675781 70.011719 C 56.675781 70.016369 56.677734 70.023497 56.677734 70.029297 C 56.683544 70.178034 56.690266 70.33141 56.697266 70.488281 C 56.697266 70.502231 56.699219 70.515357 56.699219 70.529297 C 56.706189 70.690816 56.712197 70.847134 56.716797 71.015625 L 56.716797 71.029297 C 56.737707 71.501072 56.751308 72.00318 56.767578 72.515625 C 56.769878 72.572563 56.769184 72.630609 56.771484 72.693359 C 56.776104 72.82118 56.780903 72.952257 56.783203 73.080078 C 56.785603 73.168391 56.787863 73.251901 56.789062 73.337891 C 56.792562 73.442471 56.794575 73.549345 56.796875 73.65625 C 56.799175 73.774775 56.801188 73.891241 56.804688 74.009766 C 56.804688 74.102726 56.808247 74.194149 56.810547 74.287109 C 56.812847 74.427712 56.814453 74.570706 56.814453 74.708984 C 56.814453 74.777543 56.816406 74.842756 56.816406 74.910156 C 56.84197 77.604851 56.755249 80.026748 56.361328 80.048828 C 55.920927 80.069744 52.87157 80.240926 49.845703 80.322266 C 49.275158 80.307156 48.706992 80.287705 48.150391 80.265625 L 48.134766 80.265625 C 47.976733 80.260975 47.825631 80.255047 47.669922 80.248047 C 47.630418 80.245647 47.593037 80.244487 47.554688 80.242188 C 47.250242 80.231728 46.95224 80.218651 46.664062 80.207031 C 46.621074 80.207031 46.577363 80.205425 46.533203 80.203125 C 46.217137 80.188015 45.913598 80.177219 45.628906 80.162109 C 45.594046 80.159709 45.564157 80.15625 45.529297 80.15625 C 45.301543 80.14695 45.088537 80.138573 44.888672 80.126953 C 44.778281 80.121123 44.683914 80.115928 44.583984 80.111328 C 44.451516 80.104358 44.329882 80.097944 44.214844 80.089844 C 44.125369 80.085224 44.047393 80.080425 43.970703 80.078125 C 43.867284 80.071195 43.780559 80.0671 43.699219 80.0625 C 43.638789 80.0601 43.590609 80.057334 43.542969 80.052734 C 43.447684 80.048114 43.374238 80.043316 43.330078 80.041016 C 42.436495 79.993373 43.121094 67.626953 43.121094 67.626953 C 43.121094 67.626953 43.104478 67.66646 43.080078 67.71875 C 43.062648 67.75942 43.038022 67.8076 43.007812 67.875 C 42.986893 67.920321 42.970882 67.961431 42.945312 68.019531 C 42.925553 68.059041 42.905686 68.102751 42.884766 68.150391 C 42.767403 68.413004 42.609329 68.762107 42.419922 69.175781 C 42.411782 69.195531 42.404584 69.207973 42.396484 69.226562 C 42.201267 69.653019 41.978767 70.141678 41.732422 70.679688 C 41.695234 70.758703 41.659444 70.838166 41.621094 70.916016 C 41.550211 71.071725 41.478667 71.224038 41.404297 71.386719 C 41.367109 71.464573 41.330149 71.54598 41.292969 71.625 C 41.217438 71.791167 41.138397 71.9573 41.060547 72.126953 C 41.000122 72.255936 40.938543 72.390178 40.876953 72.521484 C 40.778183 72.73297 40.680382 72.943553 40.578125 73.150391 C 40.500271 73.314234 40.423553 73.47604 40.345703 73.644531 C 40.293413 73.750274 40.242536 73.859521 40.191406 73.96875 C 40.09496 74.170939 39.999577 74.372029 39.904297 74.574219 C 39.870597 74.643939 39.837227 74.709577 39.804688 74.779297 C 39.682677 75.033776 39.564208 75.284113 39.443359 75.529297 C 38.850736 76.748243 38.290801 77.864132 37.851562 78.654297 C 36.96379 80.253219 35.122496 79.911533 34.183594 79.015625 L 34.181641 79.017578 C 34.171181 79.010598 34.162804 78.997581 34.152344 78.988281 C 34.050087 78.884863 33.958709 78.779101 33.880859 78.664062 C 33.872719 78.650113 33.860862 78.638157 33.851562 78.623047 C 33.770223 78.496388 33.708639 78.366424 33.667969 78.230469 C 33.659789 78.206059 33.657391 78.182603 33.650391 78.158203 C 33.623631 78.047812 33.611734 77.941631 33.615234 77.830078 C 33.615234 77.79173 33.616494 77.75477 33.621094 77.71875 C 33.637362 77.582795 33.669721 77.448875 33.738281 77.316406 C 34.850322 75.166693 42.308594 60.970703 42.308594 60.970703 C 42.539833 60.589565 47.681641 59 47.681641 59 L 47.322266 57.886719 C 45.838382 56.939683 44.839844 55.176931 44.839844 53.150391 C 44.839844 52.806436 44.875861 52.473008 44.931641 52.146484 C 44.950241 52.041904 44.974807 51.9421 44.998047 51.839844 C 45.048013 51.619062 45.106478 51.406427 45.179688 51.197266 C 45.21687 51.088037 45.255461 50.97879 45.300781 50.873047 C 45.383284 50.673182 45.480566 50.484749 45.583984 50.298828 C 45.633951 50.208192 45.678595 50.113701 45.734375 50.025391 C 45.892408 49.777883 46.068084 49.542305 46.265625 49.326172 C 46.336507 49.245993 46.420564 49.176299 46.496094 49.099609 C 46.629725 48.968303 46.767651 48.839228 46.914062 48.720703 C 47.020967 48.637039 47.130264 48.560698 47.244141 48.486328 C 47.378933 48.395692 47.515276 48.311858 47.658203 48.236328 C 47.779052 48.172418 47.898732 48.110091 48.025391 48.056641 C 48.062579 48.040371 48.098369 48.017063 48.136719 48.001953 C 48.143689 48.004353 48.14925 48.008219 48.15625 48.011719 C 48.674505 47.808367 49.225637 47.677734 49.806641 47.677734 z "
     id="path9" />
  <g
     transform="translate(-36,0.750999)"
     id="g14" />
  <g
     transform="translate(-36,0.750999)"
     id="g16" />
  <g
     transform="translate(-36,0.750999)"
     id="g18" />
  <g
     transform="translate(-36,0.750999)"
     id="g20" />
  <g
     transform="translate(-36,0.750999)"
     id="g22" />
  <g
     transform="translate(-36,0.750999)"
     id="g24" />
  <g
     transform="translate(-36,0.750999)"
     id="g26" />
  <g
     transform="translate(-36,0.750999)"
     id="g28" />
  <g
     transform="translate(-36,0.750999)"
     id="g30" />
  <g
     transform="translate(-36,0.750999)"
     id="g32" />
  <g
     transform="translate(-36,0.750999)"
     id="g34" />
  <g
     transform="translate(-36,0.750999)"
     id="g36" />
  <g
     transform="translate(-36,0.750999)"
     id="g38" />
  <g
     transform="translate(-36,0.750999)"
     id="g40" />
  <g
     transform="translate(-36,0.750999)"
     id="g42" />
  <g
     id="g905"
     style="fill:#595959;fill-opacity:1"
     transform="matrix(1.1620073,0,0,1.1620073,29.772322,45.903479)" />
  <g
     style="fill:#ffffff;fill-opacity:1"
     transform="matrix(1.1620073,0,0,1.1620073,58.074133,45.903479)"
     id="g913">
    <g
       style="fill:#ffffff;fill-opacity:1"
       id="g911" />
  </g>
</svg>
