<svg xmlns="http://www.w3.org/2000/svg" width="128" height="128"><defs><clipPath id="a"><path d="M-45.534 209.35l29.33 16.933v33.867l-29.33 16.933-29.33-16.933v-33.867z" fill-opacity=".506" stroke="#fff" stroke-width="2.117" stroke-opacity=".502"/></clipPath></defs><path transform="rotate(-150 -63.137 239.85) scale(1.87368)" d="M-45.534 209.35l29.33 16.933v33.867l-29.33 16.933-29.33-16.933v-33.867z" clip-path="url(#a)" stroke="#fff" stroke-width="4.011"/><path d="M64 26.5c-20.71 0-37.5 16.79-37.5 37.5s16.79 37.5 37.5 37.5 37.5-16.79 37.5-37.5S84.71 26.5 64 26.5zm7.336 8.754c8.596 0 15.559 4.314 15.559 12.906 0 1.257-.187 2.45-.463 3.625 3.122 1.323 5.236 4.103 5.236 7.215 0 6.418-7.311 8.514-16.443 8.59H51.89c-9.434-.302-15.559-2.78-15.559-9.197 0-4.295 3.778-7.247 7.81-7.62.18-5.208 4.435-8.293 9.694-8.293 1.31 0 2.56.266 3.7.74 2.574-5.03 7.755-7.966 13.8-7.966zM60.367 69.039h9.104l-2.377 4.51H77.47l-22 21.49 8.105-14.928H54.47z" fill="#fff" stroke-width="3.778"/></svg>