<svg xmlns="http://www.w3.org/2000/svg" width="128" height="128"><defs><clipPath id="a"><path d="M-45.534 209.35l29.33 16.933v33.867l-29.33 16.933-29.33-16.933v-33.867z" fill-opacity=".506" stroke="#fff" stroke-width="2.117" stroke-opacity=".502"/></clipPath></defs><path transform="rotate(-150 -63.137 239.85) scale(1.87368)" d="M-45.534 209.35l29.33 16.933v33.867l-29.33 16.933-29.33-16.933v-33.867z" clip-path="url(#a)" stroke-width="4.011" stroke="#fff"/><path d="M64 26.5A37.5 37.5 0 0 0 26.5 64 37.5 37.5 0 0 0 64 101.5 37.5 37.5 0 0 0 101.5 64 37.5 37.5 0 0 0 64 26.5zM47.088 39.094l37.76 21.652s1.59 1.212 2.316 1.94a17.059 17.059 0 0 1 5.012 12.1c0 4.377-1.671 8.754-5.012 12.093-6.68 6.681-17.514 6.681-24.195 0-.301-.3-.86-.926-.86-.926L42.63 59.525l8.943 4.272-13.095-15.774 13.591 6.856L38.4 39.349l15.391 8.825-6.703-9.08zM64.619 52.79a3.605 3.605 0 0 0 0 7.209 3.603 3.603 0 0 0 3.602-3.605 3.603 3.603 0 0 0-3.602-3.604zm-10.383 4.514a1.525 1.525 0 0 0 0 3.049 1.525 1.525 0 0 0 0-3.05zm19.33 4.92l-.865 5.748-4.39-3.81 1.546 5.603-5.56-1.696 3.693 4.49-5.771.713 5.2 2.6-4.981 2.998 5.808.26-3.332 4.765 5.412-2.125-1.105 5.708 4.08-4.141 1.312 5.664 2.043-5.443 3.502 4.64-.35-5.804 5.088 2.816-2.68-5.16 5.794.502-4.547-3.625 5.496-1.897-5.627-1.463 4.25-3.966-5.736.953 2.27-5.354-4.854 3.203-.106-5.812-3.129 4.9-2.46-5.267zm-16.04 3.52a2.176 2.176 0 1 0 0 4.351 2.176 2.176 0 0 0 0-4.352z" fill="#fefefe" stroke-width="6.146" stroke-linecap="round" stroke-opacity=".988"/></svg>