<svg xmlns="http://www.w3.org/2000/svg" width="128" height="128"><defs><clipPath id="a"><path d="M-45.534 209.35l29.33 16.933v33.867l-29.33 16.933-29.33-16.933v-33.867z" fill-opacity=".506" stroke="#fff" stroke-width="2.117" stroke-opacity=".502"/></clipPath></defs><path transform="rotate(-150 -63.137 239.85) scale(1.87368)" d="M-45.534 209.35l29.33 16.933v33.867l-29.33 16.933-29.33-16.933v-33.867z" clip-path="url(#a)" stroke="#fff" stroke-width="4.011"/><path d="M64 26.5A37.5 37.5 0 0 0 26.5 64 37.5 37.5 0 0 0 64 101.5 37.5 37.5 0 0 0 101.5 64 37.5 37.5 0 0 0 64 26.5zm1.004 14.557h.002c8.18 0 16.857 4.1 16.857 12.277 0 1.196-.132 2.017-.394 3.135 2.97 1.259 4.984 3.904 4.984 6.865 0 .26-.03.503-.057.748-1.355-.034-2.49.197-3.815.906-1.347-4.81-6.857-8.648-13.05-8.648-6.096.114-13.29 5.178-13.29 12.355h-3.435a6.092 6.092 0 0 0-5.326 3.133h-.98c-8.978-.287-14.805-2.645-14.805-8.752 0-4.087 3.595-6.895 7.432-7.25.17-4.956 4.22-7.892 9.224-7.892 1.247 0 2.435.254 3.52.705 2.45-4.787 7.38-7.582 13.132-7.582zm4.652 17.046c.44-.007.885.002 1.334.041 5.126.446 9.346 4.06 10.694 8.872 5.457-2.921 12.128 1.03 12.128 7.271 0 4.58-3.72 8.244-8.242 8.244H54.266a6.096 6.096 0 1 1 0-12.193H57.7a12.212 12.212 0 0 1 11.955-12.235z" fill="#fff"/></svg>