<svg xmlns="http://www.w3.org/2000/svg" width="128" height="128"><defs><clipPath id="a"><path d="M-45.534 209.35l29.33 16.933v33.867l-29.33 16.933-29.33-16.933v-33.867z" fill-opacity=".506" stroke="#fff" stroke-width="2.117" stroke-opacity=".502"/></clipPath></defs><path transform="rotate(-150 -63.137 239.85) scale(1.87368)" d="M-45.534 209.35l29.33 16.933v33.867l-29.33 16.933-29.33-16.933v-33.867z" clip-path="url(#a)" stroke-width="4.011" stroke="#fff"/><path d="M64 26.5A37.5 37.5 0 0 0 26.5 64a37.5 37.5 0 0 0 35.543 37.432v-8.407c-2.158.923-3.5 2.22-2.281 4.266.24.414-.113.85-.51.83a.534.534 0 0 1-.404-.117c-1.685-1.182-1.797-2.37-1.797-3.33 0-1.671.869-3.094 2.482-4.213l.03-.018c-1.34-.49-2.598-1.127-3.63-1.94-.019.02-.041.038-.06.058-1.437-1.144-2.47-2.707-2.47-4.73 0-2.412 1.55-4.515 4.21-5.845-1.204-.435-1.826-.733-2.64-1.218-3.606-2.155-4.143-4.95-4.143-6.424.006-1.827.414-3.563 2.34-5.225 1.005-.892 2.165-1.366 3.191-1.42 1.027-.054 1.92.312 2.399 1.098.879 1.443.02 3.75-1.922 5.154a5.482 5.482 0 0 1-2.076.94c.238.769.961 1.552 2.064 2.213.885.528 2.633 1.133 5.256 1.998V59.928A4.268 4.268 0 0 1 60.164 58c-.667 1.14-1.933 1.95-3.348 1.95-1.434 0-2.671-.798-3.33-1.964-2.247 2.248-6.424 2.291-8.672.043l3.258-3.26-1.494.62a5.755 5.755 0 0 1-7.52-3.116l4.63-1.918c-4.488 0-6.551-2.815-6.551-5.755h13.142c2.578 0 4.51 1.138 6.174 2.802 1.808 1.808 2.75 5.828 5.629 5.828V47.9a3.819 3.819 0 0 1-1.918-3.304 3.836 3.836 0 1 1 7.674 0A3.82 3.82 0 0 1 65.92 47.9v5.33c2.879 0 3.817-4.02 5.625-5.828 1.664-1.664 3.6-2.802 6.178-2.802H90.86c0 2.94-2.063 5.755-6.55 5.755l4.634 1.918a5.757 5.757 0 0 1-7.521 3.116l-1.498-.62 3.261 3.26c-2.247 2.248-6.426 2.205-8.673-.043-.659 1.166-1.894 1.963-3.328 1.963-1.415 0-2.683-.808-3.35-1.949a4.264 4.264 0 0 1-1.916 1.928v15.174c2.621-.865 4.37-1.47 5.254-1.998 1.103-.66 1.826-1.444 2.064-2.213a5.482 5.482 0 0 1-2.076-.94c-1.942-1.404-2.8-3.711-1.922-5.154.958-1.572 3.577-1.462 5.588.322 1.926 1.662 2.336 3.398 2.342 5.225 0 1.473-.537 4.269-4.143 6.424-.814.485-1.436.783-2.64 1.218 2.66 1.33 4.21 3.433 4.21 5.844 0 2.024-1.033 3.587-2.47 4.73l-.06-.056c-1.032.812-2.29 1.449-3.63 1.94.01.006.02.01.03.017 1.613 1.119 2.48 2.542 2.48 4.213 0 .96-.11 2.148-1.795 3.33a.535.535 0 0 1-.406.117c-.397.019-.748-.416-.508-.83 1.22-2.045-.123-3.343-2.281-4.266v8.377A37.5 37.5 0 0 0 101.5 64 37.5 37.5 0 0 0 64 26.5zm-8.592 38.979a.967.967 0 0 0-.959.974c0 .54.43.975.96.975a.966.966 0 0 0 .958-.975.966.966 0 0 0-.959-.974zm17.184 0a.966.966 0 0 0-.96.974c0 .54.43.975.96.975s.959-.436.959-.975a.967.967 0 0 0-.96-.974zM62.039 80.775s-4.71 1.44-4.71 3.055c0 1.444 2.2 2.576 4.753 3.66v-6.715h-.043zm3.88 0v6.713c2.553-1.084 4.753-2.214 4.753-3.658 0-1.615-4.711-3.055-4.711-3.055h-.041z" fill="#fff"/></svg>