<svg xmlns="http://www.w3.org/2000/svg" width="128" height="128"><circle cx="64" cy="64" r="64" fill="#f0f0f0" stroke-width=".25"/><path d="M61.218 64H128a64.07 64.07 0 0 0-2.205-16.696H61.217zm0-33.391h57.388a64.332 64.332 0 0 0-14.767-16.696H61.218zM64 128c15.062 0 28.907-5.206 39.84-13.913H24.16C35.094 122.794 48.939 128 64 128zM9.393 97.391h109.213a63.623 63.623 0 0 0 7.19-16.696H2.204a63.615 63.615 0 0 0 7.189 16.696z" fill="#d80027"/><path d="M64 64V0C28.654 0 0 28.654 0 64z" fill="#0052b4" stroke-width=".25"/><g fill="#ffda44"><path d="M42.559 54.782c-8.741 0-15.826-7.085-15.826-15.825 0-8.74 7.085-15.827 15.826-15.827 2.725 0 5.289.69 7.528 1.903a19.412 19.412 0 0 0-13.616-5.555c-10.757 0-19.478 8.721-19.478 19.479 0 10.757 8.721 19.478 19.479 19.478 5.3 0 10.103-2.12 13.615-5.554a15.76 15.76 0 0 1-7.528 1.902z"/><path d="M58.435 42.142l-6.354 1.432.018 6.513-5.08-4.075-5.082 4.075.018-6.513-6.354-1.432 5.103-4.047-2.842-5.86 6.346 1.467 2.81-5.876 2.81 5.876 6.345-1.466-2.841 5.86z"/></g></svg>