<svg xmlns="http://www.w3.org/2000/svg" width="128" height="128"><circle cx="64" cy="64" r="64" fill="#f0f0f0"/><path d="M128 64c0-25.373-14.766-47.297-36.174-57.65v115.3C113.234 111.296 128 89.373 128 64z" fill="#d80027"/><path d="M0 64c0 25.374 14.766 47.297 36.174 57.65V6.35C14.766 16.703 0 38.627 0 64zm47.304 0c0 9.22 7.475 16.696 16.696 16.696 9.22 0 16.696-7.475 16.696-16.696v-5.565H47.304z" fill="#6da544"/><path d="M86.26 52.87H69.566a5.565 5.565 0 0 0-11.13 0H41.739c0 3.073 2.677 5.565 5.75 5.565h-.185A5.565 5.565 0 0 0 52.869 64a5.565 5.565 0 0 0 5.566 5.565h11.13A5.565 5.565 0 0 0 75.13 64a5.565 5.565 0 0 0 5.566-5.565h-.186c3.074 0 5.75-2.492 5.75-5.566z" fill="#ff9811"/></svg>