<svg xmlns="http://www.w3.org/2000/svg" width="128" height="128"><circle cx="64" cy="64" r="57.944" fill="none" stroke="#ffca24" stroke-width="8" stroke-linejoin="round"/><path d="M29.903 34.808s5.423-5.39 12.339-4.373c6.17 1.763 9.664 4.023 13.392 3.616" fill="none" stroke="#ffca24" stroke-width="8" stroke-linecap="round"/><circle cx="42.441" cy="48" r="9.559" fill="#ffca24"/><circle r="9.559" cy="52.41" cx="83.45" fill="#ffca24"/><path d="M40.124 83.11s6.429-5 19.286-5c12.857 0 25.714 8 25.714 8" fill="none" stroke="#ffca24" stroke-width="7.171" stroke-linecap="round"/><path d="M96.7 31.515s-3.985-8.266-10.9-7.249c-6.17 1.763-11.103 6.899-14.831 6.492" fill="none" stroke="#ffca24" stroke-width="8" stroke-linecap="round"/><path d="M103.514 50.791c11.889 16.108 4.048 51.08 4.048 51.08-.813 8.406 6.892 20.798 6.892 20.798" fill="none" stroke="#e5ad00" stroke-width="4" stroke-linecap="round"/><circle cx="84.182" cy="50.338" r="18.853" fill="#ececec" fill-opacity=".111" stroke="#e5ad00" stroke-width="4.811" stroke-linecap="square" stroke-miterlimit="10"/></svg>