<svg xmlns="http://www.w3.org/2000/svg" width="128" height="128"><g fill="#fff"><path d="M105.755 32.447c0 1.243.873-2.386-11.668 44.408-.695-2.695-.487 3.135-.487-48.045 3.6-5.482 12.155-2.894 12.155 3.637zM89.545 12.687V67.84C74.79 42.288 81.296 53.55 74.136 41.148V12.687c0-4.248 3.457-7.705 7.705-7.705 4.313 0 7.704 3.496 7.704 7.705zM80.637 60.518l-5.981-5.978c-5.208-5.21-12.056-8.197-20.22-8.197L40.771 23.554c-2.109-3.663-.875-8.375 2.826-10.513 3.722-2.146 8.419-.824 10.525 2.821 20.847 34.647 10.179 16.36 26.515 44.656z"/><path d="M91.674 89.78c0 12.657-5.033 17.187-14.023 26.184a24.003 24.003 0 0 1-16.407 7.046c-.987 0 3.798.008-10.761.008-13.084 0-28.251-20.67-28.251-27.292V63.509a2.3 2.3 0 0 1 2.298-2.296c.2 0 .362-.011.606-.079.631.251 6.332.164 10.188 5.746 2.491 3.328 2.317 7.204 2.317 9.605a30.094 30.094 0 0 0 10.272 22.64c7.067 6.186 18.123 1.113 18.123-8.224-.003-10.368.396-12.757-1.409-16.854-1.615-3.65-3.647-5.225-6.371-7.71-.927-.742.216-.53-18.826-.53-2.51-4.462-7.219-7.843-12.829-8.522a7.69 7.69 0 0 1 3.404-5.604c3.333-1.626-.388-1.282 24.867-1.282a23.77 23.77 0 0 1 16.917 7.007L88.473 74.09l1.262 2.187c1.183 4.345 1.94 8.343 1.94 13.504z"/></g></svg>