<svg xmlns="http://www.w3.org/2000/svg" width="128" height="128"><path d="M80.182 20.693H47.82a13.8 13.8 0 0 0-13.54 11.135L21.272 97.935h85.458L93.72 31.828a13.798 13.798 0 0 0-13.538-11.135zm0 0" fill="#d68d69"/><path d="M58.2 75.814a33.47 33.47 0 0 1-8.215-26.97c1.632-11.702 3.88-23.314 4.852-28.15h-7.018a13.798 13.798 0 0 0-13.54 11.134L21.272 97.935h52.614c-4.84-9.066-10.754-16.618-15.685-22.12zm0 0" fill="#bd7c57"/><path d="M21.27 97.935h85.46l-5.028-25.547H26.298zm0 0" fill="#898890"/><path d="M58.2 75.814a33.496 33.496 0 0 1-2.69-3.426H26.298l-5.027 25.547h52.614c-4.84-9.066-10.754-16.618-15.685-22.12zm0 0" fill="#77777f"/><path d="M70.266 101.583H57.734c-5.24 0-9.504-4.263-9.504-9.504V79.547c0-5.24 4.264-9.504 9.504-9.504h12.532c5.24 0 9.504 4.264 9.504 9.504V92.08c0 5.24-4.263 9.504-9.504 9.504zM57.734 77.34a2.21 2.21 0 0 0-2.207 2.208V92.08a2.21 2.21 0 0 0 2.207 2.208h12.532a2.21 2.21 0 0 0 2.208-2.208V79.547a2.21 2.21 0 0 0-2.208-2.208zm0 0" fill="#f4d662"/><path d="M9.776 107.307h108.449c5.596 0 6.724-7.924 1.35-9.48-13.915-4.03-32.996-7.816-55.575-7.816-22.578 0-41.66 3.786-55.574 7.816-5.375 1.556-4.246 9.48 1.35 9.48zm0 0" fill="#e5a88e"/><g fill="#57565c"><path d="M83.172 53.128a1.782 1.782 0 0 1-1.783-1.783v-2.96a1.782 1.782 0 1 1 3.566 0v2.96c0 .985-.799 1.783-1.783 1.783zm0 0M44.83 53.128a1.782 1.782 0 0 1-1.784-1.783v-2.96a1.782 1.782 0 1 1 3.566 0v2.96c0 .985-.798 1.783-1.783 1.783zm0 0M64 54.994c-2.307 0-4.615-.746-6.54-2.24a1.782 1.782 0 1 1 2.186-2.817 7.101 7.101 0 0 0 8.709 0 1.782 1.782 0 1 1 2.185 2.817 10.651 10.651 0 0 1-6.54 2.24zm0 0"/></g><path d="M48.23 98.659c3.449-5.727 11.686-8.584 11.799-8.61-20.845.411-38.513 3.987-51.603 7.778-5.375 1.556-4.247 9.48 1.349 9.48h30.119s5.183-3.412 8.336-8.648zm0 0" fill="#d58a65"/></svg>