<svg xmlns="http://www.w3.org/2000/svg" width="128" height="128"><path d="M113.643 77.08s-1.052-43.303-50.408-57.825C13.88 4.733 4.615 44.965 23.137 64.701c18.523 19.736 23.119 19.237 31.497 36.274 10.247 20.836 61.203 11.069 59.01-23.894z" fill="#b4732d"/><g fill="#8b5016"><path d="M54.636 100.975C46.255 83.937 41.66 84.437 23.138 64.701 12.53 53.399 11.036 35.377 20.96 24.763c-5.675 10.655-3.261 25.21 5.797 34.864C45.28 79.363 49.875 78.863 58.256 95.9c7.595 15.45 37.585 14.073 51.678-1.931-11.678 20.653-46.963 23.958-55.298 7.005z"/><path d="M35.556 35.502c.075-.282.21-.553.405-.794l3.792-4.676a2.141 2.141 0 1 1 3.327 2.698l-3.792 4.676a2.141 2.141 0 0 1-3.732-1.904zm32.079 51.823a2.141 2.141 0 0 1 2.566-1.527l5.856 1.397a2.141 2.141 0 1 1-.995 4.166l-5.855-1.397a2.142 2.142 0 0 1-1.572-2.639zM81.452 75.08a2.142 2.142 0 0 1 4.205.392l.684 8.962a2.142 2.142 0 0 1-4.27.326l-.686-8.962c-.019-.248.006-.49.067-.717zM51.663 60.473l1.105-4.126a2.141 2.141 0 1 1 4.137 1.11L55.8 61.581a2.141 2.141 0 1 1-4.137-1.109zm27.229-13.355a2.142 2.142 0 0 1 2.861-1.438l6.956 2.768a2.142 2.142 0 0 1-1.584 3.98l-6.955-2.769a2.142 2.142 0 0 1-1.278-2.541zm19.667 36.936a2.141 2.141 0 0 1 2.623-1.515l.247.066a2.142 2.142 0 1 1-1.109 4.138l-.247-.067a2.142 2.142 0 0 1-1.514-2.622zM74.718 55.867a2.141 2.141 0 0 1 2.623-1.514l.247.066a2.142 2.142 0 1 1-1.108 4.138l-.248-.067a2.141 2.141 0 0 1-1.514-2.623zM52.55 37.21a2.141 2.141 0 0 1 2.623-1.514l.247.066a2.142 2.142 0 1 1-1.108 4.137l-.248-.066a2.141 2.141 0 0 1-1.514-2.623zm-10.502 6.544a2.141 2.141 0 0 1 2.623-1.514l.247.066a2.142 2.142 0 1 1-1.109 4.138l-.247-.067a2.142 2.142 0 0 1-1.514-2.623zm-16.483 3.613a2.141 2.141 0 0 1 3.933-.5l5.483 9.7a2.142 2.142 0 0 1-3.73 2.108l-5.482-9.7a2.136 2.136 0 0 1-.204-1.608zm33.949 30.616a2.15 2.15 0 0 1 .17-.437l2.626-5.042a2.142 2.142 0 1 1 3.799 1.98l-2.626 5.04a2.142 2.142 0 0 1-3.97-1.541z"/></g></svg>