<svg xmlns="http://www.w3.org/2000/svg" width="128" height="128"><path d="M63.923 88.732q-6.452 0-6.452-6.452 0-7.527 2.612-12.443 2.611-5.069 5.837-7.68 3.38-2.612 8.295-5.377 4.302-2.458 6.145-3.994 1.997-1.536 3.072-3.994 1.23-2.458 1.23-6.606 0-6.144-1.383-9.37-1.383-3.38-4.762-4.762-3.226-1.383-9.37-1.383H58.853q-6.145 0-9.524 1.383-3.226 1.382-4.609 4.762-1.382 3.226-1.382 9.37 0 6.452-6.452 6.452t-6.452-6.452q0-28.419 28.419-28.419h10.292q14.44 0 21.353 7.067 7.066 6.913 7.066 21.352 0 7.528-2.611 12.597-2.612 4.916-5.991 7.527-3.226 2.612-8.142 5.377-4.301 2.458-6.298 3.994-1.844 1.536-3.073 3.994-1.075 2.458-1.075 6.605 0 6.452-6.452 6.452zm-1.843 25.5q-2.919 0-4.609-1.536-1.536-1.69-1.536-4.608v-3.84q0-2.92 1.536-4.455 1.69-1.537 4.609-1.537h3.687q5.837 0 5.837 5.991v3.84q0 2.92-1.536 4.61-1.383 1.536-4.301 1.536z" aria-label="?" font-weight="700" font-size="153.616" font-family="Jura" letter-spacing="0" word-spacing="0" fill="#fff" stroke-width="3.84"/></svg>