<svg xmlns="http://www.w3.org/2000/svg" width="128" height="128"><path d="M86.26 3.98A63.87 63.87 0 0 0 64 0a63.862 63.862 0 0 0-22.26 3.98L36.173 64l5.565 60.019A63.85 63.85 0 0 0 64 128a63.852 63.852 0 0 0 22.26-3.981L91.827 64z" fill="#ffda44" stroke-width=".25"/><path d="M128 64c0-27.517-17.368-50.977-41.74-60.02v120.04C110.633 114.976 128 91.518 128 64z" fill="#d80027" stroke-width=".25"/><path d="M0 64c0 27.518 17.368 50.976 41.739 60.02V3.98C17.368 13.024 0 36.482 0 64z" fill="#0052b4" stroke-width=".25"/></svg>