<svg xmlns="http://www.w3.org/2000/svg" width="128" height="128"><circle cx="64" cy="64" r="64" fill="#f0f0f0"/><path d="M64 0C28.654 0 0 28.654 0 64a63.862 63.862 0 0 0 3.98 22.26h120.04A63.861 63.861 0 0 0 128 64c0-35.346-28.654-64-64-64z" fill="#0052b4"/><g fill="#d80027"><path d="M64 0C36.482 0 13.023 17.368 3.98 41.74h120.04C114.976 17.367 91.517 0 64 0z"/><path d="M16.55 36.174v31.927c0 18.16 23.725 23.725 23.725 23.725S64 86.262 64 68.101V36.173z"/></g><path d="M40.275 25.044l-8.348 8.347-5.566-2.782v11.13h27.827V30.61l-5.566 2.782zm.073 41.22l12.184 12.184 5.903-5.902-18.087-18.087L22.26 72.546l5.902 5.902z" fill="#ffda44"/><path d="M58.435 55.652h-8.44a5.53 5.53 0 0 0 .751-2.782 5.565 5.565 0 0 0-10.471-2.627 5.565 5.565 0 0 0-10.471 2.627 5.53 5.53 0 0 0 .75 2.782H22.26c0 3.074 2.677 5.566 5.75 5.566h-.185a5.565 5.565 0 0 0 5.565 5.565 5.565 5.565 0 0 0 4.536 5.466l-4.385 9.9a18.031 18.031 0 0 0 6.806 1.33c2.408 0 4.705-.475 6.806-1.33l-4.385-9.9a5.564 5.564 0 0 0 4.536-5.466 5.565 5.565 0 0 0 5.565-5.565h-.185c3.073 0 5.75-2.492 5.75-5.566z" fill="#f0f0f0"/></svg>