<svg xmlns="http://www.w3.org/2000/svg" width="128" height="128"><path d="M116.163 77.178l-14.963 4.01-11.005-6.353v-21.67l11.005-6.353 14.963 4.01a3.714 3.714 0 1 0 1.923-7.175l-7.788-2.088 6.143-3.547a3.715 3.715 0 0 0-3.715-6.434l-6.143 3.547 2.086-7.787a3.713 3.713 0 0 0-2.625-4.55 3.713 3.713 0 0 0-4.55 2.626l-4.01 14.963-11.003 6.353-18.766-10.835V23.192l10.954-10.955a3.716 3.716 0 0 0-5.253-5.255l-5.701 5.702V5.59a3.716 3.716 0 0 0-7.43 0v7.094l-5.701-5.702a3.716 3.716 0 0 0-5.253 5.255l10.954 10.955v12.703L41.519 46.73l-11.004-6.353-4.01-14.963a3.714 3.714 0 1 0-7.175 1.924l2.086 7.787-6.142-3.547a3.716 3.716 0 0 0-3.715 6.434l6.142 3.547-7.787 2.088a3.714 3.714 0 1 0 1.922 7.175l14.964-4.01 11.004 6.353v21.67L26.8 81.188l-14.963-4.01a3.712 3.712 0 0 0-4.55 2.625 3.716 3.716 0 0 0 2.627 4.55l7.787 2.088-6.142 3.547a3.715 3.715 0 0 0 3.715 6.434l6.142-3.547-2.086 7.787a3.714 3.714 0 1 0 7.175 1.924l4.01-14.963L41.52 81.27l18.766 10.835v12.703L49.33 115.763a3.716 3.716 0 0 0 5.253 5.255l5.7-5.702v7.094a3.716 3.716 0 0 0 7.43 0v-7.094l5.702 5.702a3.716 3.716 0 0 0 5.253-5.255l-10.954-10.955V92.105L86.48 81.27l11.004 6.353 4.009 14.963a3.715 3.715 0 1 0 7.175-1.924l-2.086-7.787 6.143 3.547a3.716 3.716 0 0 0 3.715-6.434l-6.143-3.547 7.788-2.088a3.714 3.714 0 0 0-1.922-7.175zM45.234 57.454L56.57 64l-11.336 6.546zm15.05 26.072L48.95 76.98l11.336-6.545zm0-25.96L48.95 51.02l11.336-6.546zm7.43-13.092l11.337 6.546-11.336 6.545zm0 39.052V70.435l11.337 6.545zm15.052-12.98L71.43 64l11.336-6.546zm0 0" fill="#7ed8f6"/><path d="M88.676 29.105a4.425 4.425 0 1 1-8.85 0 4.425 4.425 0 0 1 8.85 0zm0 0" fill="#5ecef4"/><path d="M30.41 64a4.425 4.425 0 1 1-8.85 0 4.425 4.425 0 0 1 8.85 0zm0 0" fill="#7ed8f6"/><path d="M106.44 64a4.425 4.425 0 1 1-8.85 0 4.425 4.425 0 0 1 8.85 0zm0 0" fill="#5ecef4"/><path d="M48.85 29.105a4.425 4.425 0 1 1-8.85 0 4.425 4.425 0 0 1 8.85 0zm0 0" fill="#7ed8f6"/><path d="M88.338 98.895a4.425 4.425 0 1 1-8.85 0 4.425 4.425 0 0 1 8.85 0zm0 0" fill="#5ecef4"/><path d="M48.512 98.895a4.425 4.425 0 1 1-8.85 0 4.425 4.425 0 0 1 8.85 0zm0 0" fill="#7ed8f6"/><path d="M116.163 77.178l-14.963 4.01-11.005-6.353v-21.67l11.005-6.353 14.963 4.01a3.714 3.714 0 1 0 1.923-7.175l-7.788-2.088 6.143-3.547a3.715 3.715 0 0 0-3.715-6.434l-6.143 3.547 2.086-7.787a3.713 3.713 0 0 0-2.625-4.55 3.713 3.713 0 0 0-4.55 2.626l-4.01 14.963-11.003 6.353-18.766-10.835V23.192l10.954-10.955a3.716 3.716 0 0 0-5.253-5.255l-5.701 5.702V5.59A3.716 3.716 0 0 0 64 1.875v124.25a3.716 3.716 0 0 0 3.715-3.715v-7.094l5.701 5.702a3.716 3.716 0 0 0 5.253-5.255l-10.954-10.955V92.105L86.48 81.27l11.004 6.353 4.009 14.963a3.715 3.715 0 1 0 7.175-1.924l-2.086-7.787 6.143 3.547a3.716 3.716 0 0 0 3.715-6.434l-6.143-3.547 7.788-2.088a3.714 3.714 0 0 0-1.922-7.175zM67.715 44.474L79.05 51.02l-11.336 6.545zm0 39.052V70.435L79.05 76.98zm15.051-12.98L71.43 64l11.336-6.546zm0 0" fill="#5ecef4"/></svg>