<svg xmlns="http://www.w3.org/2000/svg" width="128" height="128"><circle cx="64" cy="64" r="64" fill="#f0f0f0" stroke-width=".25"/><path d="M87.61 83.676l5.903-5.903 3.935 3.935-5.903 5.903zm-9.839 9.839l5.903-5.903 3.935 3.935-5.903 5.903zm21.646 1.965l5.903-5.904 3.935 3.935-5.903 5.903zm-9.839 9.84l5.903-5.903 3.935 3.935-5.903 5.903zm3.936-15.742l5.902-5.902 3.936 3.935-5.903 5.902zm-9.837 9.838l5.903-5.903 3.935 3.936-5.903 5.902zM99.42 44.322l-15.742-15.74 3.935-3.936 15.741 15.741zM83.678 40.39l-5.903-5.904 3.935-3.935 5.903 5.903zm9.837 9.837l-5.903-5.903 3.935-3.935 5.903 5.902zm1.964-21.643l-5.903-5.903 3.935-3.935 5.903 5.903zm9.841 9.838l-5.902-5.903 3.935-3.935 5.903 5.903zM22.68 89.58l15.741 15.74-3.935 3.935-15.74-15.74zm15.74 3.933l5.903 5.903-3.935 3.935-5.903-5.903zm-9.838-9.837l5.903 5.903-3.935 3.935-5.903-5.903zm5.903-5.903l15.74 15.741-3.934 3.935L30.55 81.71zM38.42 22.68L22.68 38.42l-3.935-3.934 15.74-15.741zm5.9 5.901L28.58 44.322l-3.935-3.935 15.74-15.74zm5.907 5.905l-15.74 15.741-3.936-3.935 15.741-15.74z" stroke-width=".25"/><g stroke-width=".223"><path d="M75.877 46.183c-9.837-6.558-23.124-3.877-29.678 5.943-3.287 4.902-1.95 11.562 2.967 14.84 4.915 3.28 11.554 1.948 14.833-2.97 3.279-4.919 9.922-6.234 14.836-2.972 4.923 3.279 6.247 9.94 2.963 14.84 6.558-9.836 3.907-23.123-5.921-29.68" fill="#cd2e3a"/><path d="M46.199 52.126c-3.287 4.902-1.951 11.562 2.967 14.841 4.915 3.28 11.553 1.948 14.833-2.971 3.279-4.919 9.922-6.234 14.836-2.972 4.923 3.28 6.247 9.94 2.963 14.84-6.55 9.855-19.832 12.502-29.669 5.944-9.828-6.557-12.488-19.844-5.93-29.682" fill="#0047a0"/></g></svg>