<svg xmlns="http://www.w3.org/2000/svg" width="128" height="128"><g transform="matrix(.25 0 0 .25 0 64)"><circle r="256" cx="256" fill="#f0f0f0"/><path d="M244.87 0H512c0-23.106-3.08-45.49-8.819-66.783H244.87zm0-133.565h229.556a257.35 257.35 0 0 0-59.07-66.783H244.87zM256 256c60.249 0 115.626-20.824 159.356-55.652H96.644C140.374 235.176 195.751 256 256 256zM37.574 133.565h436.852a254.474 254.474 0 0 0 28.755-66.783H8.819a254.474 254.474 0 0 0 28.755 66.783z" fill="#d80027"/><path d="M118.584-216.022h23.329l-21.7 15.765 8.289 25.509-21.699-15.765-21.699 15.765 7.16-22.037a257.407 257.407 0 0 0-49.652 55.337h7.475l-13.813 10.035a255.58 255.58 0 0 0-6.194 10.938l6.596 20.301-12.306-8.941a253.567 253.567 0 0 0-8.372 19.873l7.267 22.368h26.822l-21.7 15.765L36.676-25.6 14.977-41.365 1.979-31.921A258.468 258.468 0 0 0 0 0h256v-256c-50.572 0-97.715 14.67-137.416 39.978zM128.502-25.6l-21.699-15.765L85.104-25.6l8.289-25.509-21.7-15.765h26.822l8.288-25.509 8.288 25.509h26.822l-21.7 15.765zm-8.289-100.083l8.289 25.509-21.699-15.765-21.699 15.765 8.289-25.509-21.7-15.765h26.822l8.288-25.509 8.288 25.509h26.822zM220.328-25.6l-21.699-15.765L176.93-25.6l8.289-25.509-21.7-15.765h26.822l8.288-25.509 8.288 25.509h26.822l-21.7 15.765zm-8.289-100.083l8.289 25.509-21.699-15.765-21.699 15.765 8.289-25.509-21.7-15.765h26.822l8.288-25.509 8.288 25.509h26.822zm0-74.574l8.289 25.509-21.699-15.765-21.699 15.765 8.289-25.509-21.7-15.765h26.822l8.288-25.509 8.288 25.509h26.822z" fill="#0052b4"/></g></svg>