<?xml version="1.0" encoding="UTF-8" standalone="no"?>
<!-- Generator: Gravit.io -->

<svg
   xmlns:dc="http://purl.org/dc/elements/1.1/"
   xmlns:cc="http://creativecommons.org/ns#"
   xmlns:rdf="http://www.w3.org/1999/02/22-rdf-syntax-ns#"
   xmlns:svg="http://www.w3.org/2000/svg"
   xmlns="http://www.w3.org/2000/svg"
   xmlns:sodipodi="http://sodipodi.sourceforge.net/DTD/sodipodi-0.dtd"
   xmlns:inkscape="http://www.inkscape.org/namespaces/inkscape"
   style="isolation:isolate"
   viewBox="0 0 128 128"
   width="128"
   height="128"
   version="1.1"
   id="svg28"
   sodipodi:docname="frag-pin.svg"
   inkscape:version="0.92.1 r15371">
  <metadata
     id="metadata32">
    <rdf:RDF>
      <cc:Work
         rdf:about="">
        <dc:format>image/svg+xml</dc:format>
        <dc:type
           rdf:resource="http://purl.org/dc/dcmitype/StillImage" />
        <dc:title></dc:title>
      </cc:Work>
    </rdf:RDF>
  </metadata>
  <sodipodi:namedview
     pagecolor="#ffffff"
     bordercolor="#666666"
     borderopacity="1"
     objecttolerance="10"
     gridtolerance="10"
     guidetolerance="10"
     inkscape:pageopacity="0"
     inkscape:pageshadow="2"
     inkscape:window-width="1920"
     inkscape:window-height="1018"
     id="namedview30"
     showgrid="true"
     inkscape:zoom="4.1955556"
     inkscape:cx="31.720128"
     inkscape:cy="73.577"
     inkscape:window-x="1912"
     inkscape:window-y="-8"
     inkscape:window-maximized="1"
     inkscape:current-layer="svg28">
    <inkscape:grid
       type="xygrid"
       id="grid4494"
       spacingx="4"
       spacingy="4" />
  </sodipodi:namedview>
  <defs
     id="defs5">
    <clipPath
       id="_clipPath_cXWO6Dm9ad10BTZuvoQoqK8idL3ooyis">
      <rect
         width="450"
         height="450"
         id="rect2"
         x="0"
         y="0" />
    </clipPath>
  </defs>
  <g
     id="g4512"
     transform="matrix(-1.4937916,0,0,1.4937916,147.0639,19.291476)"
     style="isolation:isolate;fill:#909090;fill-opacity:1;stroke:#202020;stroke-width:2.67774963;stroke-miterlimit:4;stroke-dasharray:none;stroke-opacity:1">
    <path
       style="fill:#909090;fill-opacity:1;stroke:#202020;stroke-width:2.67774963;stroke-linecap:butt;stroke-linejoin:miter;stroke-miterlimit:4;stroke-dasharray:none;stroke-opacity:1;paint-order:normal"
       d="m 55.189554,12.228628 a 17.707282,17.707282 0 0 0 -8.43674,2.36599 17.707282,17.707282 0 0 0 -6.481638,24.190439 17.707282,17.707282 0 0 0 24.188185,6.481637 17.707282,17.707282 0 0 0 6.481636,-24.190438 17.707282,17.707282 0 0 0 -15.751443,-8.847628 z m 0.06322,6.398107 a 11.432215,11.432215 0 0 1 10.170595,5.714045 11.432215,11.432215 0 0 1 -4.183376,15.615983 11.432215,11.432215 0 0 1 -15.615984,-4.183376 11.432215,11.432215 0 0 1 4.183377,-15.618242 11.432215,11.432215 0 0 1 5.445388,-1.52841 z"
       id="path4587"
       inkscape:connector-curvature="0" />
  </g>
</svg>
