<svg xmlns="http://www.w3.org/2000/svg" width="256" height="256" id="svg8"><defs id="defs4"><style id="style2"/></defs><path d="M152.032 5.568c21.6 3.694 44.724 13.806 64.78 35.3 20.053 21.493 35.644 51.062 37.255 85.4 1.612 34.339-9.027 63.69-30.663 86.6-21.64 22.909-53.34 37.002-83.96 38.637-30.62 1.635-60.143-6.821-81.125-18.522-20.979-11.698-30.633-22.18-41.135-40.136C7.536 176.349 2.23 156.389 1.82 136.351c-.407-20.04 1.81-40.007 10.37-59.337 8.56-19.328 16.92-33.323 31.178-44.777 11.622-9.444 18.636-14.114 41.31-22.728 17.856-5.201 46.625-6.574 67.355-3.941z" id="path9768-9" fill="#f7f7f7" stroke-width="10.515"/><path id="path820-1" d="M117.65 4.566c55.747-3.332 80.223 15.816 100.279 37.31 20.053 21.492 34.35 51.277 35.96 85.616 1.612 34.338-9.026 63.69-30.663 86.599-21.64 22.91-55.018 36.087-85.637 37.722-69.635-3.03-23.669-5.663 26.035-19.64 49.634-17.025 67.12-52.15 69.316-107.45C236.735 29.163 99.352 3.087 117.65 4.566z" fill="#ececec" stroke-width="10.515"/></svg>