<?xml version="1.0" encoding="UTF-8" standalone="no"?>
<svg
   xmlns:dc="http://purl.org/dc/elements/1.1/"
   xmlns:cc="http://creativecommons.org/ns#"
   xmlns:rdf="http://www.w3.org/1999/02/22-rdf-syntax-ns#"
   xmlns:svg="http://www.w3.org/2000/svg"
   xmlns="http://www.w3.org/2000/svg"
   xmlns:sodipodi="http://sodipodi.sourceforge.net/DTD/sodipodi-0.dtd"
   xmlns:inkscape="http://www.inkscape.org/namespaces/inkscape"
   width="128"
   height="128"
   version="1.1"
   id="svg4"
   sodipodi:docname="part-blossom-04.svg"
   inkscape:version="0.92.2 (5c3e80d, 2017-08-06)">
  <metadata
     id="metadata10">
    <rdf:RDF>
      <cc:Work
         rdf:about="">
        <dc:format>image/svg+xml</dc:format>
        <dc:type
           rdf:resource="http://purl.org/dc/dcmitype/StillImage" />
        <dc:title />
      </cc:Work>
    </rdf:RDF>
  </metadata>
  <defs
     id="defs8" />
  <sodipodi:namedview
     pagecolor="#ffffff"
     bordercolor="#666666"
     borderopacity="1"
     objecttolerance="10"
     gridtolerance="10"
     guidetolerance="10"
     inkscape:pageopacity="0"
     inkscape:pageshadow="2"
     inkscape:window-width="1920"
     inkscape:window-height="1017"
     id="namedview6"
     showgrid="false"
     inkscape:zoom="0.65186406"
     inkscape:cx="-220.72147"
     inkscape:cy="296.45933"
     inkscape:window-x="1912"
     inkscape:window-y="-8"
     inkscape:window-maximized="1"
     inkscape:current-layer="svg4" />
  <path
     id="path923-3"
     d="m 79.347628,104.45075 c 0,0 -51.65142,27.06956 -64.88239,12.56558 -10.8264897,-14.83887 -2.00518,-60.491607 -2.00518,-60.491607 3.29621,-14.31512 17.84107,-27.81952 36.02626,-33.44949 L 91.206868,9.8483832 c 8.68917,-2.69037 -20.12825,28.6214798 -20.12825,28.6214798 0,0 42.396562,-26.31909 49.832622,-11.21178 12.62654,27.80228 -21.826892,66.41523 -41.563612,77.192667 z"
     style="fill:#feb6d8;fill-opacity:1;stroke:none;stroke-width:7.14666986;stroke-miterlimit:4;stroke-dasharray:none;stroke-opacity:1"
     inkscape:connector-curvature="0"
     sodipodi:nodetypes="cccccccc" />
  <path
     id="path925-77"
     d="m 48.263438,105.32916 c -5.23077,3.4834 -17.75277,8.92733 -23.86518,5.12588 -6.67771,-5.27895 -4.71981,-19.106777 -4.98157,-23.664607 0.61279,-20.97518 40.94932,-28.59237 43.30084,-16.31248 -0.14163,11.9455 -5.46667,28.73116 -14.45409,34.851207 z"
     style="opacity:0.3;fill:#ffffff;stroke-width:0.50946796;enable-background:new"
     inkscape:connector-curvature="0"
     sodipodi:nodetypes="ccccc" />
</svg>
