<svg xmlns="http://www.w3.org/2000/svg" width="144" height="144" viewBox="0 0 38.1 38.1"><g transform="translate(0 -258.9)" fill="#fff"><ellipse cx="19.611" cy="276.85" rx="11.982" ry="11.713" stroke-width="3.773"/><circle cx="27.195" cy="269.356" r="2.693" stroke-width="1.958"/><circle cx="21.496" cy="271.824" r="4.892" stroke-width="1.958"/><circle cx="9.289" cy="274.652" r="2.827" stroke-width="1.958"/><circle cx="28.272" cy="281.114" r="2.962" stroke-width="1.958"/><circle cx="21.361" cy="265.317" r="2.019" stroke-width="1.958"/><circle cx="30.875" cy="272.677" r=".763" stroke-width="1.958"/><circle cx="26.253" cy="285.646" r="1.84" stroke-width="1.958"/><circle cx="29.933" cy="276.671" r="2.199" stroke-width="1.958"/><circle cx="5.071" cy="284.21" r=".853" stroke-width="1.958"/><circle cx="11.937" cy="283.537" r="3.231" stroke-width="1.958"/><circle cx="8.167" cy="278.96" r="1.436" stroke-width="1.958"/><circle cx="12.117" cy="267.83" r="1.705" stroke-width="1.958"/><circle cx="18.175" cy="286.275" r="3.186" stroke-width="1.958"/><circle cx="14.316" cy="268.952" r=".853" stroke-width="1.958"/><circle cx="28.855" cy="275.594" r=".763" stroke-width="1.958"/><circle cx="12.161" cy="288.967" r=".673" stroke-width="1.958"/><circle cx="9.963" cy="270.433" r=".898" stroke-width="1.958"/><circle cx="6.642" cy="268.728" r="1.616" stroke-width="1.958"/><circle cx="15.258" cy="262.894" r="1.705" stroke-width="1.958"/><circle cx="27.375" cy="263.163" r="2.513" stroke-width="1.958"/><circle cx="34.196" cy="280.126" r="1.705" stroke-width="1.958"/><circle cx="24.009" cy="290.672" r="1.571" stroke-width="1.958"/><circle cx="31.638" cy="285.826" r="1.032" stroke-width="1.958"/><circle cx="4.936" cy="276.895" r="1.346" stroke-width="1.958"/></g></svg>