<?xml version="1.0" encoding="UTF-8" standalone="no"?>
<svg
   xmlns:dc="http://purl.org/dc/elements/1.1/"
   xmlns:cc="http://creativecommons.org/ns#"
   xmlns:rdf="http://www.w3.org/1999/02/22-rdf-syntax-ns#"
   xmlns:svg="http://www.w3.org/2000/svg"
   xmlns="http://www.w3.org/2000/svg"
   xmlns:sodipodi="http://sodipodi.sourceforge.net/DTD/sodipodi-0.dtd"
   xmlns:inkscape="http://www.inkscape.org/namespaces/inkscape"
   width="128"
   height="128"
   version="1.1"
   id="svg4"
   sodipodi:docname="part-takedown-01.svg"
   inkscape:version="0.92.2 (5c3e80d, 2017-08-06)">
  <metadata
     id="metadata10">
    <rdf:RDF>
      <cc:Work
         rdf:about="">
        <dc:format>image/svg+xml</dc:format>
        <dc:type
           rdf:resource="http://purl.org/dc/dcmitype/StillImage" />
        <dc:title></dc:title>
      </cc:Work>
    </rdf:RDF>
  </metadata>
  <defs
     id="defs8" />
  <sodipodi:namedview
     pagecolor="#ffffff"
     bordercolor="#666666"
     borderopacity="1"
     objecttolerance="10"
     gridtolerance="10"
     guidetolerance="10"
     inkscape:pageopacity="0"
     inkscape:pageshadow="2"
     inkscape:window-width="1920"
     inkscape:window-height="1017"
     id="namedview6"
     showgrid="true"
     inkscape:zoom="1.3037281"
     inkscape:cx="-12.307653"
     inkscape:cy="155.59124"
     inkscape:window-x="1912"
     inkscape:window-y="-8"
     inkscape:window-maximized="1"
     inkscape:current-layer="svg4">
    <inkscape:grid
       type="xygrid"
       id="grid888"
       empspacing="4"
       spacingy="4"
       spacingx="4" />
  </sodipodi:namedview>
  <path
     inkscape:connector-curvature="0"
     id="path825"
     d="M -3.6549067,100.41119 C -21.688805,116.14 -34.259776,122.1525 -68.836048,122.55928 c 0,0 15.263023,6.01295 32.535691,2.25509 22.441856,-4.88247 32.6454503,-24.40318 32.6454503,-24.40318 z"
     style="fill:#ffffff;fill-opacity:1;stroke:none;stroke-width:5.16273594;stroke-linecap:round;stroke-linejoin:miter;stroke-miterlimit:4;stroke-dasharray:none;stroke-opacity:1;paint-order:normal"
     sodipodi:nodetypes="ccsc" />
  <g
     id="g880"
     transform="matrix(0.87168492,0,0,0.87168492,111.20575,131.6073)"
     style="fill:#b7b7b7;fill-opacity:1">
    <path
       inkscape:connector-curvature="0"
       id="path858"
       d="m -101.42373,-135.323 a 57.762714,57.762714 0 0 0 -24.53125,5.53711 52.881355,52.881355 0 0 1 8.04101,-0.65429 52.881355,52.881355 0 0 1 52.880858,52.880855 52.881355,52.881355 0 0 1 -52.880858,52.88086 52.881355,52.881355 0 0 1 -8.09765,-0.68945 57.762714,57.762714 0 0 0 24.58789,5.57226 57.762714,57.762714 0 0 0 57.763668,-57.76367 57.762714,57.762714 0 0 0 -57.763668,-57.763675 z"
       style="fill:#b7b7b7;fill-opacity:1;stroke:none;stroke-width:12;stroke-linecap:round;stroke-linejoin:miter;stroke-miterlimit:4;stroke-dasharray:none;stroke-opacity:1;paint-order:normal" />
    <path
       inkscape:connector-curvature="0"
       style="fill:#b7b7b7;fill-opacity:1;stroke:none;stroke-width:12;stroke-linecap:round;stroke-linejoin:miter;stroke-miterlimit:4;stroke-dasharray:none;stroke-opacity:1;paint-order:normal"
       d="m -6.8854665,-19.795655 a 57.762714,57.762714 0 0 0 24.5312505,-5.53711 52.881355,52.881355 0 0 1 -8.0410205,0.6543 52.881355,52.881355 0 0 1 -52.8808455,-52.880862 52.881355,52.881355 0 0 1 52.8808455,-52.880863 52.881355,52.881355 0 0 1 8.0976605,0.68945 57.762714,57.762714 0 0 0 -24.5878905,-5.57226 57.762714,57.762714 0 0 0 -57.7636655,57.763673 57.762714,57.762714 0 0 0 57.7636655,57.763672 z"
       id="path863" />
  </g>
  <g
     transform="matrix(0.47332152,0,0,0.47332152,89.632537,100.7105)"
     id="g886"
     style="fill:#ffffff;fill-opacity:1">
    <path
       style="fill:#ffffff;fill-opacity:1;stroke:none;stroke-width:12;stroke-linecap:round;stroke-linejoin:miter;stroke-miterlimit:4;stroke-dasharray:none;stroke-opacity:1;paint-order:normal"
       d="m -87.958259,-145.16665 c 0,0 21.813161,31.03306 22.925147,67.607325 2.197221,45.483584 -22.925147,67.6073161 -22.925147,67.6073161 0,0 44.298725,-35.7051041 44.298197,-67.6073161 5.31e-4,-31.902215 -44.298197,-67.607325 -44.298197,-67.607325 z"
       id="path882"
       inkscape:connector-curvature="0"
       sodipodi:nodetypes="ccccc" />
    <path
       id="path884"
       d="m -20.350938,-9.9520089 c 0,0 -21.813162,-31.0330361 -22.925144,-67.6073181 -2.197222,-45.483583 22.925144,-67.607323 22.925144,-67.607323 0,0 -44.298724,35.70511 -44.298194,67.607323 -5.29e-4,31.902212 44.298194,67.6073181 44.298194,67.6073181 z"
       style="fill:#ffffff;fill-opacity:1;stroke:none;stroke-width:12;stroke-linecap:round;stroke-linejoin:miter;stroke-miterlimit:4;stroke-dasharray:none;stroke-opacity:1;paint-order:normal"
       inkscape:connector-curvature="0"
       sodipodi:nodetypes="ccccc" />
  </g>
</svg>
