<svg xmlns="http://www.w3.org/2000/svg" width="256" height="256" id="svg8"><defs id="defs4"><style id="style2"/></defs><path d="M153.944 3.732c21.6 3.695 44.724 13.806 64.78 35.301 20.053 21.492 35.644 51.061 37.255 85.4 1.612 34.338-9.027 63.69-30.663 86.599-21.64 22.91-53.34 37.002-83.96 38.637-30.62 1.635-60.143-6.821-81.125-18.522-20.979-11.698-30.633-22.18-41.135-40.136-9.648-16.498-14.955-36.457-15.365-56.495-.407-20.041 1.81-40.007 10.37-59.338 8.56-19.328 16.92-33.322 31.178-44.777C56.9 20.957 63.915 16.287 86.589 7.673c17.856-5.2 46.625-6.574 67.355-3.941z" id="path9768" fill="#f9f9f9" stroke-width="10.515"/><path id="path820" d="M149.8 3.735c27.702 2.17 48.69 15.027 68.747 36.521 20.053 21.492 35.644 51.062 37.255 85.4 1.611 34.339-9.027 63.69-30.664 86.6-21.64 22.909-53.34 37.001-83.96 38.637-30.619 1.635-60.143-6.822-81.124-18.523-59.652-45.992 10.854 14.537 92.516-13.473 49.634-17.025 67.069-40.467 62.003-95.578C206.503 35.526 131.501 2.256 149.8 3.735z" fill="#eee" stroke-width="10.515"/></svg>