<?xml version="1.0" encoding="UTF-8" standalone="no"?>
<svg
   xmlns:dc="http://purl.org/dc/elements/1.1/"
   xmlns:cc="http://creativecommons.org/ns#"
   xmlns:rdf="http://www.w3.org/1999/02/22-rdf-syntax-ns#"
   xmlns:svg="http://www.w3.org/2000/svg"
   xmlns="http://www.w3.org/2000/svg"
   xmlns:sodipodi="http://sodipodi.sourceforge.net/DTD/sodipodi-0.dtd"
   xmlns:inkscape="http://www.inkscape.org/namespaces/inkscape"
   width="72"
   height="72"
   viewBox="0 0 104.58 104.58"
   id="svg8"
   version="1.1"
   sodipodi:docname="part-cloth-01.svg"
   inkscape:version="0.92.2 (5c3e80d, 2017-08-06)">
  <metadata
     id="metadata8">
    <rdf:RDF>
      <cc:Work
         rdf:about="">
        <dc:format>image/svg+xml</dc:format>
        <dc:type
           rdf:resource="http://purl.org/dc/dcmitype/StillImage" />
        <dc:title></dc:title>
      </cc:Work>
    </rdf:RDF>
  </metadata>
  <sodipodi:namedview
     pagecolor="#ffffff"
     bordercolor="#666666"
     borderopacity="1"
     objecttolerance="10"
     gridtolerance="10"
     guidetolerance="10"
     inkscape:pageopacity="0"
     inkscape:pageshadow="2"
     inkscape:window-width="1920"
     inkscape:window-height="1017"
     id="namedview6"
     showgrid="true"
     inkscape:snap-nodes="false"
     inkscape:snap-others="false"
     inkscape:zoom="6.5555556"
     inkscape:cx="24.800312"
     inkscape:cy="55.292405"
     inkscape:window-x="1912"
     inkscape:window-y="-8"
     inkscape:window-maximized="1"
     inkscape:current-layer="svg8">
    <inkscape:grid
       type="xygrid"
       id="grid823"
       empspacing="4"
       spacingy="5.81"
       spacingx="5.81" />
  </sodipodi:namedview>
  <defs
     id="defs4">
    <style
       id="style2" />
  </defs>
  <path
     style="fill:#f9f9f9;fill-opacity:1;stroke:#282828;stroke-width:5.81;stroke-miterlimit:4;stroke-dasharray:none;stroke-opacity:1"
     d="m 65.751616,4.1930039 c -3.434973,0.049442 -6.953784,0.45188 -9.499422,1.1932169 -2.7045,1.0274567 -4.42051,1.8118095 -5.832597,2.6316153 -1.987511,-0.8575385 -3.984326,-1.4273728 -5.927944,-1.7598588 -4.728586,-0.600594 -11.291688,-0.28714 -15.364709,0.8989988 -5.172015,1.964883 -6.772351,3.0300199 -9.423142,5.1842269 -3.252304,2.612928 -5.160425,5.804385 -7.112989,10.213173 -1.952567,4.409465 -2.45749,8.962596 -2.36464,13.53402 0.006,0.293372 0.02841,0.58691 0.04359,0.879929 -1.2066369,1.740433 -2.2268613,3.717103 -3.2554658,6.039638 -1.9525666,4.409464 -2.4602135,8.965321 -2.3673638,13.536744 0.093519,4.57074 1.3053527,9.122398 3.5060957,12.885651 2.3955389,4.095827 4.5968959,6.487811 9.3822799,9.156169 1.832202,1.02176 3.955056,1.930762 6.263026,2.64796 0.58324,2.028782 1.388789,3.96721 2.419125,5.729075 2.395539,4.095824 4.596894,6.487811 9.382278,9.156167 4.786069,2.66904 11.521224,4.598241 18.505757,4.225301 6.984533,-0.372961 14.215238,-3.58979 19.151401,-8.815644 1.567307,-1.659523 2.851659,-3.481363 3.903835,-5.426683 5.8648,-1.065433 11.617253,-4.005398 15.754275,-8.385209 4.935248,-5.225625 7.360834,-11.920835 6.993123,-19.753458 -0.29938,-6.381045 -2.733178,-12.020732 -6.0914,-16.549753 0.84486,-2.91076 1.230804,-6.04198 1.073351,-9.3959 C 94.522597,24.185536 90.967337,17.43975 86.393176,12.537348 81.81833,7.6342632 76.543937,5.3300676 71.616903,4.4872218 69.843683,4.2619991 67.812599,4.163339 65.751616,4.1930039 Z"
     id="path831"
     inkscape:connector-curvature="0" />
  <path
     inkscape:connector-curvature="0"
     id="path862"
     d="m 61.10768,20.784415 c -2.250076,0.03239 -4.555069,0.296003 -6.222587,0.781615 -1.77158,0.673035 -2.89565,1.186825 -3.820637,1.723837 -1.301917,-0.56173 -2.609929,-0.934999 -3.883094,-1.152793 -3.097456,-0.393418 -7.396609,-0.188091 -10.064638,0.588888 -3.387924,1.287095 -4.436222,1.984812 -6.172621,3.395924 -2.130418,1.711595 -3.380331,3.802156 -4.659356,6.690128 -1.279027,2.888416 -1.609777,5.87094 -1.548955,8.865447 0.004,0.192173 0.0186,0.384456 0.02855,0.576397 -0.790407,1.140068 -1.458703,2.434885 -2.13249,3.956259 -1.279027,2.888414 -1.61156,5.872724 -1.550739,8.867231 0.06126,2.99406 0.855069,5.975618 2.296664,8.440734 1.569195,2.682966 3.011193,4.249833 6.145854,5.997739 1.200182,0.669303 2.590755,1.264744 4.102589,1.734544 0.382051,1.328952 0.909725,2.598718 1.584645,3.752826 1.569196,2.682965 3.011192,4.249833 6.145853,5.997737 3.13511,1.748353 7.546967,3.012072 12.122178,2.76778 4.575212,-0.244311 9.311678,-2.351489 12.545108,-5.774679 1.026662,-1.087069 1.867976,-2.280464 2.557203,-3.554744 3.841732,-0.697911 7.609871,-2.623732 10.319823,-5.492723 3.232829,-3.42304 4.821707,-7.808731 4.580839,-12.939483 -0.196109,-4.179898 -1.790366,-7.87417 -3.990166,-10.840901 0.553424,-1.906691 0.806236,-3.957793 0.703097,-6.154775 -0.24072,-5.130899 -2.569589,-9.549719 -5.565889,-12.761034 -2.996749,-3.21176 -6.451735,-4.721122 -9.679183,-5.273226 -1.161547,-0.147533 -2.492007,-0.21216 -3.842051,-0.192728 z"
     style="fill:#dfdfdf;fill-opacity:1;stroke:none;stroke-width:3.80583477;stroke-miterlimit:4;stroke-dasharray:none;stroke-opacity:1" />
</svg>
