<svg xmlns="http://www.w3.org/2000/svg" xmlns:xlink="http://www.w3.org/1999/xlink" width="288" height="288" viewBox="0 0 418.32 418.32"><defs><linearGradient id="a"><stop offset="0" stop-color="#e57a00"/><stop stop-color="#8bbe00" offset=".604" stop-opacity=".392"/><stop offset="1" stop-color="#963200" stop-opacity="0"/></linearGradient><radialGradient xlink:href="#a" id="d" cx="65.45" cy="65.45" fx="65.45" fy="65.45" r="48.29" gradientUnits="userSpaceOnUse" gradientTransform="translate(-427.657 8.835)"/><radialGradient xlink:href="#b" id="c" gradientUnits="userSpaceOnUse" cx="65.45" cy="65.45" fx="65.45" fy="65.45" r="48.29" gradientTransform="translate(-457.264 -39.707) scale(3.98944)"/><linearGradient id="b"><stop offset="0" stop-color="#b3b3b3"/><stop offset="1" stop-color="#e1e1e1" stop-opacity=".313"/></linearGradient></defs><circle r="192.65" transform="rotate(-86.54)" cy="221.402" cx="-196.156" fill="url(#c)"/><g fill="#fff"><path d="M203.583 5.59c-5.577 11.155-14.989 12.047-22.282 13.045-1.866.255-3.72.544-5.566.85-.013-.002-.024-.007-.036-.009-.56.093-1.116.197-1.675.295a199.193 199.193 0 0 0-3.984.738c-.317.062-.634.121-.95.185-.972.195-1.94.398-2.906.607-.311.067-.623.133-.934.202a197.501 197.501 0 0 0-6.705 1.609l-.975.253c-.935.247-1.867.5-2.796.76-.338.095-.676.187-1.013.283a195.78 195.78 0 0 0-10.03 3.16c-.39.134-.782.268-1.171.405-.81.285-1.615.577-2.418.872-.422.154-.844.308-1.264.465-.78.292-1.554.59-2.328.89-.42.164-.84.327-1.259.494-.867.344-1.73.697-2.592 1.054-.253.104-.507.207-.76.313a193.249 193.249 0 0 0-6.28 2.764l-.795.367c-.8.374-1.595.755-2.388 1.139-.437.21-.873.423-1.307.637-.708.349-1.411.705-2.114 1.062-.402.205-.805.408-1.206.616a192.12 192.12 0 0 0-5.588 3.011c-.366.206-.733.409-1.098.616-.725.412-1.446.831-2.165 1.253-.368.215-.736.43-1.103.648a191.628 191.628 0 0 0-3.32 2.023 191.508 191.508 0 0 0-11.353 7.653 191.032 191.032 0 0 0-3.006 2.23c-.397.3-.793.6-1.187.904-.593.456-1.18.918-1.768 1.38-.417.33-.835.66-1.25.992-.526.422-1.05.85-1.571 1.277-.46.377-.92.755-1.375 1.136a191 191 0 0 0-1.629 1.38 190.92 190.92 0 0 0-4.126 3.627c-.432.392-.86.788-1.288 1.183-.514.474-1.027.95-1.536 1.43-.383.36-.763.724-1.143 1.089-.52.497-1.037.997-1.55 1.5a190.935 190.935 0 0 0-3.772 3.807 190.913 190.913 0 0 0-5.223 5.64 190.947 190.947 0 0 0-3.665 4.246c-.413.493-.82.99-1.229 1.487-.444.541-.887 1.084-1.326 1.631-.302.377-.602.756-.901 1.136-.482.61-.963 1.221-1.438 1.838a191.128 191.128 0 0 0-3.077 4.107 191.203 191.203 0 0 0-4.518 6.48 191.36 191.36 0 0 0-1.128 1.708c-.273.42-.544.842-.814 1.264-.403.63-.805 1.26-1.2 1.895a191.691 191.691 0 0 0-2.75 4.545 191.74 191.74 0 0 0-3.743 6.689 192.134 192.134 0 0 0-1.77 3.393 192.29 192.29 0 0 0-3.287 6.792c-.364.79-.725 1.583-1.079 2.38-.138.312-.274.624-.41.937a193.12 193.12 0 0 0-1.093 2.538 193.489 193.489 0 0 0-1.942 4.804c-.291.748-.58 1.498-.863 2.252-.165.44-.325.882-.487 1.323a194.26 194.26 0 0 0-2.52 7.304 195.248 195.248 0 0 0-2.981 10.182c-.08.301-.157.603-.235.905-.23.887-.455 1.778-.672 2.671-.108.44-.212.882-.316 1.324a197.606 197.606 0 0 0-1.462 6.693c-.05.244-.097.489-.145.733a199.136 199.136 0 0 0-.735 3.96c-.096.548-.2 1.094-.291 1.644.004.006.009.01.013.017-.32 1.92-.622 3.847-.888 5.787-.998 7.293-1.89 16.704-13.044 22.281h9.188c4.886 0 8.523-14.987 9.613-22.295.363-2.43.774-4.846 1.229-7.247l.087-.452c.218-1.139.447-2.275.686-3.406l.027-.126c.243-1.143.494-2.284.757-3.42l.09-.379c.257-1.096.522-2.19.798-3.278l.09-.36c.28-1.095.568-2.186.866-3.273l.092-.332c.29-1.045.587-2.086.894-3.124l.18-.602c.299-1.002.604-2 .92-2.996.054-.171.111-.343.166-.514.33-1.03.669-2.055 1.016-3.078l.139-.41c.342-1.002.692-2 1.05-2.994l.219-.601a188.165 188.165 0 0 1 2.418-6.272l.261-.643c.384-.936.776-1.868 1.174-2.797l.27-.623c.397-.918.803-1.832 1.214-2.743l.275-.61a189.066 189.066 0 0 1 11.762-21.846c.189-.301.376-.603.567-.904a190.9 190.9 0 0 1 3.434-5.226c.203-.298.405-.598.61-.896.362-.525.73-1.046 1.097-1.568.684-.972 1.393-1.923 2.094-2.881.806-1.102 1.612-2.204 2.44-3.287.688-.899 1.397-1.78 2.1-2.666.806-1.016 1.609-2.033 2.435-3.031.717-.868 1.454-1.72 2.186-2.574.847-.988 1.691-1.979 2.558-2.95.793-.887 1.606-1.757 2.415-2.63.826-.892 1.649-1.787 2.492-2.663.864-.898 1.75-1.775 2.63-2.655.832-.832 1.659-1.668 2.506-2.484.933-.898 1.887-1.773 2.838-2.653.829-.767 1.654-1.537 2.497-2.29.965-.861 1.948-1.701 2.93-2.543.858-.736 1.713-1.477 2.584-2.198 1.042-.861 2.102-1.699 3.162-2.538.843-.668 1.681-1.34 2.535-1.994a191.65 191.65 0 0 1 4.891-3.63c.301-.215.602-.431.905-.645a191.27 191.27 0 0 1 5.049-3.453 190.931 190.931 0 0 1 3.05-1.972l.827-.52a190.67 190.67 0 0 1 5.567-3.352c.19-.11.378-.223.569-.332.912-.525 1.83-1.04 2.75-1.55l.325-.18c.94-.518 1.884-1.028 2.834-1.53l.515-.27c.864-.453 1.732-.9 2.604-1.34l.762-.384c.934-.466 1.873-.926 2.816-1.378l.212-.1c1.03-.492 2.065-.976 3.105-1.45.092-.04.183-.083.275-.124a188.75 188.75 0 0 1 6.506-2.805l.25-.101c1.058-.43 2.12-.852 3.187-1.264l.277-.109c1.03-.395 2.064-.782 3.102-1.16l.482-.174c.958-.346 1.92-.685 2.884-1.016l.724-.248c1.003-.339 2.008-.668 3.018-.991l.294-.095c1.073-.341 2.154-.672 3.235-.994l.398-.12a187.244 187.244 0 0 1 3.638-1.035c1.041-.285 2.086-.563 3.135-.83l.443-.112c1.079-.273 2.161-.536 3.247-.79l.38-.09c1.062-.246 2.128-.483 3.195-.71l.575-.12c1.074-.226 2.151-.444 3.232-.651l.324-.06c2.423-.46 4.86-.876 7.312-1.242 7.309-1.09 22.296-4.727 22.296-9.613zM415.518 206.371c-11.154-5.577-12.046-14.988-13.044-22.281-.256-1.866-.544-3.72-.85-5.567 0-.012.007-.023.009-.035-.093-.56-.197-1.116-.295-1.675a199.19 199.19 0 0 0-.738-3.984c-.061-.317-.121-.634-.185-.95-.195-.972-.398-1.94-.607-2.906-.067-.312-.133-.624-.202-.934a197.527 197.527 0 0 0-1.609-6.705l-.253-.975c-.247-.935-.5-1.867-.76-2.797-.094-.338-.187-.676-.283-1.013a195.687 195.687 0 0 0-3.16-10.03c-.134-.39-.268-.781-.405-1.17-.284-.81-.577-1.615-.871-2.419-.155-.421-.309-.843-.466-1.263-.292-.78-.59-1.555-.89-2.329-.164-.42-.327-.84-.494-1.258-.344-.868-.697-1.731-1.053-2.592-.105-.254-.208-.508-.314-.76a193.34 193.34 0 0 0-2.764-6.28l-.367-.795c-.374-.8-.755-1.595-1.139-2.389a192.23 192.23 0 0 0-.637-1.307c-.349-.707-.705-1.41-1.062-2.113-.205-.402-.408-.806-.615-1.206a192.119 192.119 0 0 0-3.012-5.589c-.205-.366-.409-.733-.616-1.097-.412-.725-.831-1.446-1.253-2.165-.215-.368-.43-.737-.648-1.103a191.666 191.666 0 0 0-2.023-3.32 191.49 191.49 0 0 0-7.652-11.353 190.94 190.94 0 0 0-2.23-3.006c-.301-.397-.601-.794-.905-1.188-.456-.592-.918-1.18-1.38-1.767-.33-.418-.66-.835-.992-1.25-.422-.527-.85-1.05-1.277-1.571-.377-.46-.755-.92-1.136-1.376-.456-.546-.918-1.087-1.38-1.628-.334-.39-.668-.78-1.005-1.168a190.682 190.682 0 0 0-2.623-2.958c-.391-.432-.786-.86-1.182-1.288a190.62 190.62 0 0 0-1.43-1.536 191.08 191.08 0 0 0-2.59-2.693 190.906 190.906 0 0 0-3.806-3.772 190.87 190.87 0 0 0-5.64-5.223 190.923 190.923 0 0 0-4.246-3.666c-.493-.413-.99-.82-1.487-1.228-.541-.444-1.084-.887-1.63-1.326-.378-.303-.757-.602-1.137-.902-.61-.482-1.221-.962-1.838-1.437a191.194 191.194 0 0 0-4.107-3.077 191.157 191.157 0 0 0-6.48-4.519c-.568-.378-1.137-.754-1.708-1.127-.42-.274-.842-.544-1.264-.814-.63-.404-1.26-.805-1.895-1.201-.468-.292-.938-.581-1.408-.869a191.762 191.762 0 0 0-3.137-1.882 191.712 191.712 0 0 0-6.689-3.742 192.175 192.175 0 0 0-3.393-1.77 192.35 192.35 0 0 0-6.792-3.287c-.79-.363-1.583-.724-2.38-1.078-.311-.138-.624-.275-.937-.411-.843-.37-1.688-.735-2.538-1.092-.39-.164-.782-.326-1.173-.488a193.453 193.453 0 0 0-3.63-1.454c-.75-.292-1.5-.58-2.253-.863-.44-.165-.882-.326-1.323-.488a194.303 194.303 0 0 0-7.304-2.519 195.224 195.224 0 0 0-10.182-2.982c-.301-.079-.603-.156-.904-.234-.889-.23-1.78-.455-2.672-.673-.44-.107-.882-.211-1.324-.315a197.596 197.596 0 0 0-6.694-1.463l-.732-.144a199.148 199.148 0 0 0-3.96-.735c-.549-.097-1.094-.2-1.645-.292l-.016.014c-1.92-.32-3.847-.623-5.787-.888-7.293-.998-16.705-1.89-22.282-13.044v9.188c0 4.886 14.987 8.523 22.296 9.613 2.43.363 4.846.773 7.246 1.228l.452.087c1.14.22 2.275.447 3.407.687.042.008.084.018.125.027 1.144.242 2.285.494 3.42.757l.38.09c1.096.256 2.189.522 3.278.798l.36.09c1.094.279 2.186.567 3.273.866l.332.092c1.045.289 2.086.587 3.124.893l.602.18c1.001.3 2 .605 2.995.92l.515.167c1.03.33 2.055.669 3.077 1.015l.411.14c1.002.342 2 .692 2.993 1.05l.602.218a188.15 188.15 0 0 1 6.272 2.419l.642.261c.937.384 1.869.775 2.797 1.174l.624.27c.918.397 1.832.802 2.742 1.214.203.092.407.182.61.275a189.059 189.059 0 0 1 21.846 11.762c.302.188.604.376.904.566a190.875 190.875 0 0 1 5.226 3.434c.3.204.599.405.896.61.526.362 1.047.73 1.569 1.098.972.683 1.923 1.393 2.881 2.094 1.102.806 2.204 1.611 3.287 2.44.899.688 1.78 1.397 2.666 2.1 1.016.805 2.032 1.608 3.031 2.434.868.718 1.719 1.455 2.574 2.187.988.847 1.979 1.69 2.949 2.557.888.793 1.757 1.606 2.63 2.416.892.826 1.788 1.648 2.664 2.491.897.864 1.775 1.75 2.655 2.631.831.832 1.668 1.658 2.484 2.506.898.932 1.773 1.887 2.652 2.837.767.83 1.538 1.655 2.29 2.497.862.965 1.702 1.948 2.544 2.93.736.859 1.477 1.714 2.198 2.585.86 1.041 1.699 2.102 2.538 3.162.667.842 1.34 1.681 1.993 2.535a191.653 191.653 0 0 1 3.63 4.891 191.393 191.393 0 0 1 4.099 5.953l.512.782c.491.752.978 1.508 1.46 2.268.174.275.347.552.52.828a190.568 190.568 0 0 1 3.352 5.566c.11.19.223.38.332.57.524.912 1.04 1.829 1.55 2.75l.18.324c.517.94 1.028 1.885 1.53 2.835l.27.515c.453.864.9 1.732 1.34 2.603l.383.763c.467.934.927 1.873 1.378 2.816l.101.212c.492 1.03.975 2.065 1.449 3.105l.125.275a188.7 188.7 0 0 1 2.805 6.505l.1.251c.431 1.057.853 2.12 1.264 3.186l.11.278c.395 1.03.781 2.064 1.16 3.102l.174.482c.346.958.685 1.919 1.016 2.884.082.241.166.482.247.724.34 1.003.669 2.008.992 3.018l.095.294c.341 1.073.672 2.153.994 3.235l.12.397a187.302 187.302 0 0 1 1.035 3.639c.285 1.041.563 2.086.83 3.134l.112.444c.272 1.079.536 2.16.79 3.246l.09.381c.245 1.062.483 2.127.71 3.195.041.191.08.383.12.574.226 1.075.444 2.152.65 3.233.022.108.04.216.06.324.46 2.422.877 4.86 1.243 7.312 1.09 7.308 4.727 22.295 9.613 22.295zM214.737 412.73c5.577-11.155 14.989-12.047 22.282-13.045 1.866-.255 3.72-.544 5.566-.85.012.001.024.007.036.009.56-.093 1.116-.197 1.675-.294a199.19 199.19 0 0 0 3.984-.738c.317-.062.634-.122.95-.185.972-.195 1.94-.399 2.906-.608.311-.067.623-.132.934-.201a197.527 197.527 0 0 0 6.705-1.61c.325-.084.65-.167.975-.253.935-.246 1.867-.5 2.796-.76.338-.094.676-.187 1.013-.283a195.687 195.687 0 0 0 10.03-3.159c.39-.134.782-.269 1.171-.406.81-.284 1.615-.576 2.418-.871.422-.155.844-.308 1.264-.466.78-.291 1.554-.589 2.328-.89.42-.164.84-.327 1.259-.493.867-.345 1.73-.697 2.592-1.054.253-.105.507-.207.76-.313a193.34 193.34 0 0 0 6.28-2.764c.265-.123.53-.244.795-.368.8-.373 1.595-.754 2.388-1.138a192.577 192.577 0 0 0 3.42-1.7c.403-.204.806-.408 1.207-.615a192.119 192.119 0 0 0 5.588-3.012c.366-.205.733-.408 1.098-.615.725-.413 1.446-.832 2.165-1.253.368-.216.736-.43 1.103-.648a191.666 191.666 0 0 0 3.32-2.024 191.458 191.458 0 0 0 11.353-7.652 191.057 191.057 0 0 0 3.006-2.23c.397-.3.793-.601 1.187-.905.593-.456 1.18-.917 1.768-1.38.417-.33.835-.659 1.25-.992.526-.422 1.05-.849 1.571-1.277.46-.377.92-.754 1.375-1.135a190.86 190.86 0 0 0 1.629-1.381c.39-.334.78-.668 1.168-1.005a190.84 190.84 0 0 0 2.958-2.622c.432-.392.86-.787 1.288-1.182.514-.475 1.027-.95 1.536-1.43.383-.361.763-.725 1.143-1.09.52-.497 1.037-.996 1.55-1.5a191.137 191.137 0 0 0 3.772-3.807 190.801 190.801 0 0 0 5.223-5.64 190.82 190.82 0 0 0 3.665-4.245c.413-.493.82-.99 1.229-1.487.444-.542.887-1.085 1.326-1.632.302-.376.602-.756.901-1.135a191.1 191.1 0 0 0 1.438-1.838c.289-.375.575-.751.86-1.128a191.223 191.223 0 0 0 2.217-2.979 191.199 191.199 0 0 0 4.518-6.481c.379-.568.755-1.136 1.128-1.708.273-.42.544-.841.814-1.263.403-.63.805-1.261 1.2-1.896a191.856 191.856 0 0 0 2.75-4.545 191.901 191.901 0 0 0 3.743-6.688 192.057 192.057 0 0 0 1.77-3.394 192.368 192.368 0 0 0 3.287-6.791c.364-.79.725-1.584 1.079-2.38.138-.312.274-.625.41-.937.37-.843.735-1.689 1.093-2.538a193.29 193.29 0 0 0 1.942-4.804c.291-.749.58-1.499.863-2.252.165-.44.325-.882.487-1.324a194.3 194.3 0 0 0 2.52-7.304 195.273 195.273 0 0 0 2.981-10.182c.08-.3.157-.603.235-.904.23-.888.455-1.779.672-2.672a197.671 197.671 0 0 0 1.778-8.017c.05-.244.097-.488.145-.732a199.318 199.318 0 0 0 .735-3.96c.096-.549.2-1.094.291-1.645-.004-.006-.01-.01-.013-.016.32-1.92.622-3.847.888-5.787.998-7.294 1.89-16.705 13.044-22.282h-9.188c-4.886 0-8.523 14.987-9.613 22.295-.363 2.43-.774 4.846-1.229 7.247l-.087.452a187.4 187.4 0 0 1-.686 3.406l-.027.126a187.207 187.207 0 0 1-.757 3.42l-.09.379c-.257 1.096-.522 2.19-.798 3.278l-.09.36c-.28 1.095-.568 2.186-.866 3.273l-.093.333a187.504 187.504 0 0 1-.893 3.123l-.18.602c-.299 1.002-.604 2-.92 2.996-.054.171-.111.343-.166.514-.33 1.03-.669 2.055-1.016 3.078l-.139.41a187.74 187.74 0 0 1-1.05 2.994l-.219.601a188.2 188.2 0 0 1-2.418 6.272l-.261.643c-.384.936-.776 1.868-1.174 2.797l-.27.623a188.99 188.99 0 0 1-1.214 2.743l-.275.61a189.107 189.107 0 0 1-11.762 21.846c-.189.301-.376.603-.567.904a191.055 191.055 0 0 1-3.434 5.226c-.203.298-.405.598-.61.896-.362.525-.73 1.046-1.097 1.568-.684.972-1.393 1.923-2.094 2.881-.806 1.102-1.612 2.204-2.44 3.287-.688.9-1.397 1.78-2.1 2.667-.806 1.015-1.609 2.032-2.435 3.03-.717.868-1.454 1.72-2.186 2.574-.847.988-1.691 1.979-2.558 2.95-.793.887-1.606 1.757-2.415 2.63-.826.892-1.649 1.787-2.492 2.663-.864.898-1.75 1.775-2.63 2.656-.833.83-1.659 1.667-2.506 2.483-.933.898-1.887 1.773-2.838 2.653-.829.767-1.654 1.537-2.497 2.29-.965.861-1.948 1.702-2.93 2.543-.858.736-1.713 1.477-2.584 2.198-1.042.861-2.103 1.699-3.162 2.538-.843.668-1.681 1.34-2.536 1.994a191.657 191.657 0 0 1-4.89 3.63c-.301.215-.602.431-.905.645a191.427 191.427 0 0 1-5.049 3.453 190.885 190.885 0 0 1-3.05 1.972l-.827.52a190.568 190.568 0 0 1-5.567 3.352c-.19.11-.379.223-.569.333-.912.524-1.83 1.04-2.75 1.55l-.325.179c-.94.518-1.884 1.028-2.834 1.53l-.515.27c-.864.453-1.732.9-2.604 1.34l-.762.384c-.934.466-1.873.926-2.816 1.378l-.212.1c-1.03.492-2.065.976-3.105 1.45l-.275.125a188.7 188.7 0 0 1-6.506 2.804c-.083.035-.167.067-.25.101-1.058.43-2.12.852-3.187 1.264l-.277.109c-1.03.395-2.064.782-3.102 1.16l-.482.174c-.958.346-1.92.685-2.884 1.016l-.725.248c-1.002.339-2.007.668-3.017.991l-.294.095a187.87 187.87 0 0 1-3.235.994l-.398.12a187.302 187.302 0 0 1-3.638 1.035c-1.042.285-2.086.563-3.135.83l-.444.112c-1.078.273-2.16.536-3.246.79l-.38.09c-1.062.246-2.128.483-3.195.71l-.575.12c-1.074.226-2.151.444-3.232.651l-.324.06c-2.423.46-4.86.876-7.312 1.242-7.309 1.09-22.296 4.727-22.296 9.613zM2.802 211.949c11.154 5.577 12.046 14.988 13.044 22.281.256 1.866.544 3.72.85 5.567 0 .012-.007.023-.009.035.093.56.197 1.116.295 1.675a199.19 199.19 0 0 0 .738 3.984c.061.317.121.634.185.95.195.972.398 1.94.607 2.906.067.312.133.624.202.934a197.527 197.527 0 0 0 1.609 6.705l.253.975c.247.935.5 1.867.76 2.797.094.338.187.676.283 1.013a195.687 195.687 0 0 0 3.16 10.03c.134.39.268.781.405 1.17.284.81.577 1.615.871 2.419.155.421.309.843.466 1.263.292.78.59 1.555.89 2.329.164.42.327.84.494 1.258.344.868.697 1.731 1.053 2.592.105.254.208.508.314.76a193.34 193.34 0 0 0 2.764 6.28l.367.795c.374.8.755 1.595 1.139 2.389.21.436.423.872.637 1.307.349.707.705 1.41 1.062 2.113.205.402.408.806.615 1.206a192.119 192.119 0 0 0 3.012 5.589c.205.366.409.733.616 1.097.412.725.831 1.446 1.253 2.165.215.368.43.737.648 1.103a191.666 191.666 0 0 0 2.023 3.32 191.458 191.458 0 0 0 7.652 11.353c.278.382.556.764.836 1.144.461.624.926 1.244 1.395 1.862.3.397.6.794.904 1.188.456.592.918 1.18 1.38 1.767.33.418.66.835.992 1.25.422.527.85 1.05 1.277 1.571.377.46.755.92 1.136 1.376.456.546.918 1.087 1.38 1.628a190.683 190.683 0 0 0 3.627 4.126c.392.432.787.86 1.183 1.288.474.514.95 1.027 1.43 1.536a191.032 191.032 0 0 0 2.59 2.693 191.137 191.137 0 0 0 3.806 3.772 190.94 190.94 0 0 0 5.64 5.223 191.026 191.026 0 0 0 4.246 3.666c.493.413.99.82 1.487 1.228.541.444 1.084.887 1.63 1.326.378.303.757.602 1.137.902.61.482 1.221.962 1.838 1.437a191.223 191.223 0 0 0 4.107 3.077 191.199 191.199 0 0 0 6.48 4.519c.568.378 1.137.754 1.708 1.127.42.274.842.544 1.264.814.63.404 1.26.805 1.895 1.201.468.292.938.581 1.408.869a191.856 191.856 0 0 0 3.137 1.882 191.817 191.817 0 0 0 6.689 3.742 192.157 192.157 0 0 0 3.393 1.77 192.455 192.455 0 0 0 6.792 3.287c.79.363 1.583.724 2.38 1.078.311.138.624.275.937.411.843.37 1.688.735 2.538 1.092.39.164.782.326 1.173.488a193.224 193.224 0 0 0 3.63 1.454c.75.292 1.5.58 2.253.863.44.165.882.326 1.323.488a194.404 194.404 0 0 0 7.304 2.519 195.224 195.224 0 0 0 10.182 2.982c.301.079.603.156.904.234.889.23 1.78.455 2.672.673.44.107.882.211 1.324.315a197.639 197.639 0 0 0 6.694 1.463l.732.144a199.316 199.316 0 0 0 3.96.735c.549.097 1.094.2 1.645.292l.016-.014c1.92.32 3.847.623 5.787.888 7.293.998 16.705 1.89 22.282 13.044v-9.188c0-4.886-14.987-8.523-22.296-9.613-2.43-.363-4.846-.773-7.246-1.228l-.452-.087a187.4 187.4 0 0 1-3.407-.687c-.042-.008-.084-.018-.125-.027a187.27 187.27 0 0 1-3.42-.757l-.38-.09a187.26 187.26 0 0 1-3.278-.798l-.36-.09c-1.094-.279-2.186-.567-3.273-.866l-.332-.092a187.478 187.478 0 0 1-3.124-.893l-.602-.18c-1.001-.3-2-.605-2.995-.92l-.515-.167c-1.03-.33-2.055-.669-3.077-1.016l-.411-.138a187.773 187.773 0 0 1-2.993-1.052l-.602-.217a187.994 187.994 0 0 1-6.272-2.419l-.642-.261c-.937-.384-1.869-.775-2.797-1.174l-.624-.27c-.918-.397-1.832-.802-2.742-1.214-.203-.092-.407-.182-.61-.275a189.01 189.01 0 0 1-21.846-11.762c-.302-.188-.604-.376-.904-.566a190.85 190.85 0 0 1-5.226-3.434c-.3-.204-.599-.405-.896-.61-.526-.362-1.047-.73-1.569-1.098-.972-.684-1.923-1.393-2.881-2.094-1.102-.806-2.204-1.611-3.287-2.44-.899-.688-1.78-1.397-2.666-2.1-1.016-.805-2.032-1.608-3.031-2.434-.868-.718-1.719-1.455-2.574-2.187-.988-.847-1.979-1.69-2.949-2.557-.888-.793-1.757-1.606-2.63-2.416-.892-.826-1.788-1.648-2.664-2.492-.897-.864-1.775-1.749-2.655-2.63-.831-.832-1.668-1.659-2.484-2.506-.898-.932-1.773-1.887-2.652-2.837-.767-.83-1.538-1.655-2.29-2.498-.862-.964-1.702-1.948-2.544-2.93-.736-.858-1.477-1.713-2.198-2.584-.86-1.041-1.699-2.102-2.538-3.162-.667-.843-1.34-1.681-1.993-2.535a191.64 191.64 0 0 1-3.63-4.891c-.216-.301-.432-.602-.646-.904a191.427 191.427 0 0 1-3.453-5.05l-.512-.78c-.491-.753-.978-1.51-1.46-2.27l-.52-.827a190.568 190.568 0 0 1-3.352-5.567c-.11-.19-.223-.378-.332-.569-.524-.912-1.04-1.829-1.55-2.75l-.18-.324c-.517-.941-1.028-1.885-1.53-2.835l-.27-.515c-.453-.864-.9-1.732-1.34-2.603l-.383-.763c-.467-.934-.927-1.873-1.378-2.816l-.101-.212c-.492-1.03-.975-2.065-1.449-3.105l-.125-.275a188.7 188.7 0 0 1-2.805-6.506l-.1-.25c-.431-1.057-.853-2.12-1.264-3.186l-.11-.278c-.395-1.03-.781-2.064-1.16-3.102l-.174-.482a187.84 187.84 0 0 1-1.016-2.884c-.082-.241-.166-.482-.247-.724a187.63 187.63 0 0 1-.992-3.018l-.095-.294a187.87 187.87 0 0 1-.994-3.235l-.12-.398a187.302 187.302 0 0 1-1.035-3.638 187.293 187.293 0 0 1-.83-3.134l-.112-.444c-.272-1.079-.536-2.16-.79-3.246l-.09-.382a187.399 187.399 0 0 1-.71-3.194c-.041-.191-.08-.383-.12-.575a187.258 187.258 0 0 1-.65-3.232c-.022-.108-.04-.216-.06-.324a187.45 187.45 0 0 1-1.243-7.312c-1.09-7.308-4.727-22.295-9.613-22.295z"/></g></svg>