<svg xmlns="http://www.w3.org/2000/svg" width="72" height="72" viewBox="0 0 104.58 104.58" id="svg8"><defs id="defs4"><style id="style2"/></defs><path d="M60.074 8.096c7.748 1.306 16.996 4.774 24.19 12.372 7.193 7.597 12.333 19.325 12.911 31.463.578 12.138-3.405 24.685-11.166 32.783-7.762 8.098-19.3 11.743-30.283 12.321-10.983.578-21.406-1.91-28.932-6.046-7.525-4.135-12.149-9.914-15.089-16.025-2.94-6.111-4.195-12.553-4.342-19.636-.146-7.084.816-14.81 3.887-21.643 3.07-6.832 8.241-12.761 13.355-16.81 5.114-4.047 10.168-6.211 15.82-7.72 5.65-1.51 11.9-2.365 19.649-1.06z" id="path9768" fill="#3f3f3f" stroke="#282828" stroke-width="6.242"/></svg>