<svg xmlns="http://www.w3.org/2000/svg" width="160" height="160" viewBox="0 0 42.333 42.333"><defs><clipPath id="a"><path fill="#595959" stroke-width="1.984" stroke-linecap="round" stroke-miterlimit="10" d="M8.467 16.933h31.75v31.75H8.467z"/></clipPath></defs><path clip-path="url(#a)" transform="matrix(1.33333 0 0 1.33333 -11.289 -22.578)" fill="#364024" stroke="#000" stroke-width="3.175" stroke-linecap="round" stroke-miterlimit="10" d="M8.467 16.933h31.75v31.75H8.467z"/><ellipse ry=".871" rx=".871" cy="4.45" cx="4.42" transform="matrix(0 1 1 0 0 0)" fill="#151e09" stroke="#000" stroke-width=".604" stroke-linecap="round"/><ellipse transform="matrix(0 1 1 0 0 0)" cx="37.913" cy="4.45" rx=".871" ry=".871" fill="#151e09" stroke="#000" stroke-width=".604" stroke-linecap="round"/><ellipse transform="matrix(0 1 1 0 0 0)" cx="4.42" cy="37.913" rx=".871" ry=".871" fill="#151e09" stroke="#000" stroke-width=".604" stroke-linecap="round"/><ellipse ry=".871" rx=".871" cy="37.913" cx="37.913" transform="matrix(0 1 1 0 0 0)" fill="#151e09" stroke="#000" stroke-width=".604" stroke-linecap="round"/><path d="M21.167 8.2A12.966 12.966 0 0 0 8.2 21.168a12.966 12.966 0 0 0 12.966 12.966 12.966 12.966 0 0 0 12.966-12.966A12.966 12.966 0 0 0 21.167 8.2zm-5.848 4.355l13.056 7.487s.55.419.8.67a5.898 5.898 0 0 1 1.734 4.184 5.915 5.915 0 0 1-10.099 4.181c-.104-.104-.297-.32-.297-.32l-6.736-9.137 3.093 1.476-4.528-5.453 4.7 2.37-4.727-5.37 5.322 3.052zm6.062 4.736a1.246 1.246 0 1 0 0 2.493 1.246 1.246 0 0 0 0-2.493zm-3.59 1.56a.527.527 0 1 0 0 1.054.527.527 0 0 0 0-1.053zm6.683 1.702l-.299 1.987-1.518-1.317.535 1.937-1.923-.586 1.277 1.553-1.995.246 1.798.899-1.723 1.036 2.009.09-1.152 1.648 1.871-.735-.382 1.974 1.41-1.432.454 1.958.707-1.882 1.21 1.605-.12-2.007 1.759.973-.927-1.784 2.003.174-1.572-1.253 1.9-.656-1.945-.506 1.47-1.372-1.984.33.785-1.851-1.679 1.107-.036-2.01-1.082 1.695zm-5.546 1.217a.752.752 0 1 0 0 1.504.752.752 0 0 0 0-1.504z" fill-opacity=".626"/></svg>