<svg xmlns="http://www.w3.org/2000/svg" width="128" height="128"><g fill="#fff"><path d="M78.65 41.344a9.565 9.565 0 0 0 .139-2.017l4.499-3.063c1.748-.864 3.522-.746 4.46-.587.073.014 2.705.56 4.16-.43a3.924 3.924 0 0 0 1.037-5.453 3.896 3.896 0 0 0-2.932-1.694 3.897 3.897 0 0 0-.494-3.343 3.924 3.924 0 0 0-5.457-1.04c-1 .68-1.597 2.467-1.784 4.148-.084.64-.508 2.835-2.272 4.426l-4.316 2.942c-2.84-.773-7.468-.204-12.107 1.134 4.749.889 9.484 2.41 14.127 4.544zM20.58 82.67h35.784a17.327 17.327 0 0 1-2.658-3.052c-3.368-4.952-3.95-10.935-1.636-16.85 1.993-5.099 5.955-9.772 11.455-13.511 2.422-1.65 5.359-3.16 8.506-4.44-4.163-1.62-8.596-2.785-13.243-3.288a88.817 88.817 0 0 0-9.568-.541c-19.893 0-35.472 7.778-35.472 27.819 0 6.831 3.416 13.863 6.831 13.863z"/><path d="M66.797 54.065c-9.03 6.141-13.039 15.29-8.282 22.282 2.464 3.62 6.53 5.377 11.134 5.377 4.286 0 9.036-1.522 13.39-4.483 7.738-5.27 15.583-18.029 15.22-25.364l5.437-3.695c1.673-.83 3.628-1.026 5.387-.715 1.574.279 3.713.38 5.033-.52a4.762 4.762 0 0 0 1.257-6.598 4.734 4.734 0 0 0-3.549-2.038c.4-1.324.247-2.808-.597-4.046a4.748 4.748 0 0 0-6.598-1.254c-1.207.82-1.928 2.988-2.157 5.016-.097.767-.611 3.423-2.743 5.354l-5.22 3.553c-1.075-.296-2.364-.433-3.8-.433-7.066 0-17.688 3.329-23.912 7.564zm45.132 21.446l-8.487-1.698-.01-.088c-.218-1.92-1.293-4.723-3.355-7.88a49.856 49.856 0 0 1-1.414 2.5c-3.461 5.72-7.963 10.714-12.354 13.705-.117.08-.237.154-.355.233h25.304a3.419 3.419 0 0 0 .67-6.772zm.59 13.363H15.23a3.42 3.42 0 0 0-3.08 4.904l3.055 6.342a8.564 8.564 0 0 0 7.714 4.845h81.91a8.565 8.565 0 0 0 7.715-4.845l3.056-6.342a3.42 3.42 0 0 0-3.08-4.904z"/></g></svg>