<svg xmlns="http://www.w3.org/2000/svg" width="128" height="128"><g stroke="#060606" fill="#fff" stroke-width="12"><path clip-path="url(#a)" d="M80 40V16H56v24zM16 16h64v80H16z" transform="translate(28)"/><path transform="translate(-52) scale(1.5)" d="M88 10.667v18.666h18.667v-2.666l-16-16z" clip-path="url(#b)" stroke-width="8"/></g><defs><clipPath id="c"><path d="M88 8v24h24z" fill="none" stroke="#000"/></clipPath><clipPath id="d"><path clip-path="url(#c)" d="M88 8v24h24z" stroke-width="6.857"/></clipPath><clipPath id="a"><path d="M80 40V16H56v24zM16 16h64v80H16z" fill="#747474" stroke-width="8"/></clipPath><clipPath id="b"><path d="M88 10.667v18.666h18.667v-2.666l-16-16z" clip-path="url(#d)" stroke-width="6.857"/></clipPath></defs><g fill="#fff" stroke="#0d0d0d" stroke-width="12"><path d="M80 40V16H56v24zM16 16h64v80H16z" clip-path="url(#a)" transform="translate(4 16)"/><path clip-path="url(#b)" d="M88 10.667v18.666h18.667v-2.666l-16-16z" transform="matrix(1.5 0 0 1.5 -76 16)" stroke-width="8"/></g></svg>