<svg xmlns="http://www.w3.org/2000/svg" width="97" height="97"><path d="M95 44.312h-7.518C85.54 26.094 70.906 11.46 52.688 9.517V2a2 2 0 0 0-2-2h-4.376a2 2 0 0 0-2 2v7.517C26.094 11.46 11.46 26.094 9.517 44.312H2a2 2 0 0 0-2 2v4.377a2 2 0 0 0 2 2h7.517C11.46 70.906 26.094 85.54 44.312 87.482V95a2 2 0 0 0 2 2h4.377a2 2 0 0 0 2-2v-7.518C70.906 85.54 85.54 70.906 87.482 52.688H95a2 2 0 0 0 2-2v-4.376a2 2 0 0 0-2-2zm-70.104 8.376a2 2 0 0 0 2-2v-4.376a2 2 0 0 0-2-2h-6.492c1.856-13.397 12.51-24.052 25.907-25.908v6.492a2 2 0 0 0 2 2h4.376a2 2 0 0 0 2-2v-6.492c13.399 1.856 24.053 12.51 25.909 25.908h-6.492a2 2 0 0 0-2 2v4.377a2 2 0 0 0 2 2h6.492C76.74 66.086 66.086 76.74 52.689 78.598v-6.492a2 2 0 0 0-2-2h-4.377a2 2 0 0 0-2 2v6.492C30.914 76.74 20.26 66.086 18.404 52.688h6.492z" fill="#fff"/></svg>