<svg xmlns="http://www.w3.org/2000/svg" width="128" height="128"><path d="M64 6.679C32.37 6.679 6.679 32.369 6.679 64c0 31.631 25.69 57.321 57.32 57.321 31.632 0 57.322-25.69 57.322-57.321 0-31.631-25.69-57.321-57.321-57.321zm0 4.521c29.187 0 52.8 23.613 52.8 52.8 0 29.187-23.613 52.8-52.8 52.8-29.187 0-52.8-23.613-52.8-52.8 0-29.188 23.613-52.8 52.8-52.8zm24.483 11.206l-18.488 32.15c3.851 2.331 6.092 6.37 6.322 10.593h35.908c.398-16.94-8.103-33.6-23.742-42.743zm-49.631.597a47.927 47.927 0 0 0-16.386 16.854c-4.6 7.967-6.515 16.724-6.29 25.292h33.843c.1-2.02.663-4.048 1.74-5.913a13.082 13.082 0 0 1 5.133-4.99l-18.04-31.243zm24.34 34.154c-.21 0-.42.008-.629.023a8.63 8.63 0 0 0-6.895 4.317 8.631 8.631 0 0 0 3.175 11.833 8.62 8.62 0 0 0 11.826-3.168A8.63 8.63 0 0 0 67.5 58.33a8.65 8.65 0 0 0-4.31-1.172zm6.827 19.931c-3.902 2.36-8.92 2.624-13.164.303l-16.46 28.362c7.126 4.061 14.77 6.092 22.44 6.29 8.365.218 16.628-1.883 23.985-5.814z" fill="#fff"/></svg>