<svg xmlns="http://www.w3.org/2000/svg" width="128" height="128"><g fill="#fff"><path d="M113.521 35.092c-1.342-1.342-2.962-2.013-4.858-2.013H19.337c-1.897 0-3.516.671-4.858 2.013-1.342 1.342-2.014 2.962-2.014 4.858v48.1c0 1.896.672 3.515 2.014 4.857 1.342 1.342 2.96 2.014 4.858 2.014h89.326c1.896 0 3.516-.672 4.858-2.014 1.342-1.342 2.014-2.96 2.014-4.858V39.95c0-1.896-.672-3.516-2.014-4.858zm-4.858 52.957H19.337V39.95h89.326z"/><path d="M27.067 81.177h5.153c.573 0 .859-.287.859-.859v-5.153c0-.571-.286-.859-.86-.859h-5.152c-.573 0-.86.288-.86.859v5.153c0 .572.287.86.86.86zM27.067 67.436H39.09c.573 0 .86-.288.86-.86v-5.153c0-.573-.287-.859-.86-.86H27.067c-.573 0-.86.287-.86.86v5.153c0 .572.287.86.86.86zM27.067 53.693h5.153c.573 0 .859-.287.859-.86V47.68c0-.572-.286-.858-.86-.859h-5.152c-.573 0-.86.287-.86.86v5.152c0 .573.287.86.86.86zM87.191 74.306H40.81c-.573 0-.86.287-.86.86v5.153c0 .571.287.86.86.86h46.38c.572 0 .859-.288.859-.86v-5.153c0-.572-.287-.86-.858-.86zM46.822 66.576c0 .572.286.86.858.86h5.154c.572 0 .858-.288.858-.86v-5.153c0-.573-.285-.859-.858-.86H47.68c-.572 0-.858.287-.858.86zM40.81 53.693h5.153c.573 0 .86-.287.86-.86V47.68c0-.572-.287-.858-.86-.859H40.81c-.573 0-.86.287-.86.86v5.152c0 .573.287.86.86.86zM60.564 66.576c0 .572.286.86.859.86h5.153c.573 0 .86-.288.86-.86v-5.153c0-.573-.287-.859-.86-.86h-5.153c-.573 0-.86.287-.86.86zM54.552 53.693h5.153c.572 0 .859-.287.859-.86V47.68c0-.572-.286-.858-.86-.859h-5.152c-.573 0-.86.287-.86.86v5.152c0 .573.287.86.86.86zM74.307 66.576c0 .572.286.86.858.86h5.154c.572 0 .858-.288.858-.86v-5.153c0-.573-.286-.859-.858-.86h-5.154c-.572 0-.858.287-.858.86zM100.932 74.306H95.78c-.573 0-.86.287-.86.86v5.153c0 .571.287.86.86.86h5.152c.573 0 .86-.288.86-.86v-5.153c0-.572-.286-.86-.86-.86zM68.294 53.693h5.154c.573 0 .859-.287.859-.86V47.68c0-.572-.286-.858-.859-.859h-5.154c-.572 0-.858.287-.858.86v5.152c0 .573.286.86.858.86zM82.037 53.693h5.153c.572 0 .86-.287.86-.86V47.68c0-.572-.288-.858-.86-.859h-5.153c-.573 0-.86.287-.86.86v5.152c0 .573.287.86.86.86zM88.049 66.576c0 .572.286.86.859.86h12.024c.573 0 .86-.288.86-.86V47.68c0-.572-.286-.858-.86-.859H95.78c-.573 0-.86.287-.86.86v12.883h-6.012c-.573 0-.86.286-.86.859v5.153z"/></g></svg>