<svg xmlns="http://www.w3.org/2000/svg" width="128" height="128"><g fill="#fff"><path d="M97.995 73.064h-4.533c-.662 0-1.205.212-1.628.639-.426.423-.638.966-.638 1.628v22.663c0 3.116-1.109 5.783-3.328 8.003-2.219 2.219-4.887 3.327-8.003 3.327H20.939c-3.116 0-5.784-1.108-8.003-3.327-2.22-2.22-3.329-4.887-3.329-8.003V39.069c0-3.116 1.11-5.783 3.329-8.002 2.219-2.22 4.887-3.329 8.003-3.329h49.859c.662 0 1.205-.213 1.63-.637.424-.425.636-.968.636-1.63v-4.533c0-.66-.212-1.203-.636-1.628-.425-.425-.968-.637-1.63-.637H20.939c-5.618 0-10.422 1.995-14.413 5.985C2.537 28.648.542 33.452.542 39.07v58.925c0 5.618 1.995 10.423 5.984 14.41 3.99 3.99 8.795 5.987 14.413 5.987h58.926c5.618 0 10.422-1.996 14.412-5.986 3.99-3.988 5.985-8.793 5.985-14.411V75.332c0-.662-.212-1.205-.638-1.63-.425-.426-.968-.638-1.629-.638z"/><path d="M126.111 10.954c-.897-.897-1.96-1.346-3.188-1.346h-36.26c-1.228 0-2.291.449-3.188 1.346-.897.897-1.346 1.96-1.346 3.187 0 1.227.45 2.29 1.346 3.187L95.94 29.793 49.764 75.97c-.473.472-.709 1.015-.709 1.628 0 .615.237 1.158.709 1.63l8.074 8.073c.472.472 1.015.707 1.629.707.614 0 1.157-.235 1.629-.707l46.176-46.176 12.465 12.464c.897.897 1.96 1.346 3.187 1.346 1.228 0 2.29-.449 3.188-1.346.897-.897 1.346-1.959 1.346-3.187V14.141c0-1.229-.45-2.29-1.347-3.187z"/></g></svg>