<svg xmlns="http://www.w3.org/2000/svg" xmlns:xlink="http://www.w3.org/1999/xlink" width="128" height="128"><defs><linearGradient id="a"><stop offset="0" stop-color="#3d3522"/><stop offset="1" stop-color="#776742"/></linearGradient><clipPath id="c"><path d="M24 52h27v4H41v25l1 1v8c0 .515-1 1-2 1h-8c-1 0-2-.485-2-1v-8l1-1V56h-7z" fill="#3d3522" stroke-width="7.449"/></clipPath><linearGradient id="b"><stop offset="0" stop-color="#1f2021"/><stop offset="1" stop-color="#a1a3a6"/></linearGradient><clipPath id="e"><path d="M30 52v-6l-1-1V20c.43-11 6-19 6-19l8 23v24l-1 1v3z" fill="#393a3c"/></clipPath><linearGradient xlink:href="#a" id="d" gradientUnits="userSpaceOnUse" x1="27" y1="68" x2="44.657" y2="64"/><linearGradient xlink:href="#b" id="f" gradientUnits="userSpaceOnUse" x1="30" y1="48" x2="41" y2="5"/></defs><path d="M48.205 66.632L16.022 98.815h-2.414l-9.658 9.658c-.622.622 0 2.414 1.207 3.621l9.658 9.658c1.207 1.207 3 1.829 3.621 1.207l9.658-9.657v-2.415l32.183-32.183zM125.552 3.232L88.129 21.339l-27.99 27.99v2.414l-3.621 3.621L71.004 69.85l7.242-7.242h2.414l29.197-29.197c12.76-13.798 15.695-30.18 15.695-30.18zM95.846 30.589a4.9 4.9 0 0 1 .002 6.932 4.9 4.9 0 0 1-6.93-.003 4.9 4.9 0 0 1-.002-6.929 4.9 4.9 0 0 1 6.93 0z" fill="#fff"/><path d="M24 52h27v4H41v25l1 1v8c0 .515-1 1-2 1h-8c-1 0-2-.485-2-1v-8l1-1V56h-7z" clip-path="url(#c)" transform="matrix(-1.70722 0 0 1.70722 4.422 -18.452)" fill="url(#d)" stroke="#000" stroke-width="6"/><path d="M30 52v-6l-1-1V20c.43-11 6-19 6-19l8 23v24l-1 1v3z" clip-path="url(#e)" transform="matrix(-1.70722 0 0 1.70722 4.422 -16.744)" fill="url(#f)" stroke="#000" stroke-width="6"/><path d="M-60.451 29.35a3.414 3.414 0 0 0 3.413 3.414 3.414 3.414 0 0 0 3.416-3.414 3.414 3.414 0 0 0-3.415-3.414 3.414 3.414 0 0 0-3.414 3.414z"/><path d="M76.142 79.74L43.548 47.146l-4.829 4.828 32.594 32.594z" fill="#fff"/></svg>