<?xml version="1.0" encoding="UTF-8" standalone="no"?>
<svg
   xmlns:dc="http://purl.org/dc/elements/1.1/"
   xmlns:cc="http://creativecommons.org/ns#"
   xmlns:rdf="http://www.w3.org/1999/02/22-rdf-syntax-ns#"
   xmlns:svg="http://www.w3.org/2000/svg"
   xmlns="http://www.w3.org/2000/svg"
   xmlns:sodipodi="http://sodipodi.sourceforge.net/DTD/sodipodi-0.dtd"
   xmlns:inkscape="http://www.inkscape.org/namespaces/inkscape"
   width="128"
   height="128"
   viewBox="0 0 33.866666 33.866667"
   version="1.1"
   id="svg4"
   sodipodi:docname="loadout-player-icon.svg"
   inkscape:version="0.92.2 (5c3e80d, 2017-08-06)">
  <metadata
     id="metadata10">
    <rdf:RDF>
      <cc:Work
         rdf:about="">
        <dc:format>image/svg+xml</dc:format>
        <dc:type
           rdf:resource="http://purl.org/dc/dcmitype/StillImage" />
        <dc:title />
      </cc:Work>
    </rdf:RDF>
  </metadata>
  <defs
     id="defs8" />
  <sodipodi:namedview
     pagecolor="#ffffff"
     bordercolor="#666666"
     borderopacity="1"
     objecttolerance="10"
     gridtolerance="10"
     guidetolerance="10"
     inkscape:pageopacity="0"
     inkscape:pageshadow="2"
     inkscape:window-width="1920"
     inkscape:window-height="1017"
     id="namedview6"
     showgrid="true"
     inkscape:zoom="1.3906433"
     inkscape:cx="-188.09098"
     inkscape:cy="165.73604"
     inkscape:window-x="1912"
     inkscape:window-y="-8"
     inkscape:window-maximized="1"
     inkscape:current-layer="svg4">
    <inkscape:grid
       type="xygrid"
       id="grid819"
       empspacing="4"
       spacingy="0.52916667"
       spacingx="0.52916667" />
  </sodipodi:namedview>
  <g
     id="g827"
     transform="translate(29.619839,6.0826385)">
    <path
       id="path2-6"
       d="m -12.7,-3.6986105 a 12.7,12.7 0 0 0 -12.7,12.7 12.7,12.7 0 0 0 1.198562,5.3511985 5.8208333,5.8097208 0 0 1 2.505604,-0.572029 5.8208333,5.8097208 0 0 1 5.820834,5.809456 5.8208333,5.8097208 0 0 1 -0.237596,1.630892 12.7,12.7 0 0 0 3.412596,0.480483 12.7,12.7 0 0 0 3.4125956,-0.480483 5.8208333,5.8097208 0 0 1 -0.237596,-1.630892 5.8208333,5.8097208 0 0 1 5.820833,-5.809456 5.8208333,5.8097208 0 0 1 2.50534,0.573616 A 12.7,12.7 0 0 0 -3.6388281e-7,9.0016545 12.7,12.7 0 0 0 -12.7,-3.6983459 Z"
       style="fill:#ffffff;stroke-width:6.45953751"
       inkscape:connector-curvature="0" />
    <path
       id="path4"
       d="m -17.964679,20.646496 a 4.7625,4.7535041 0 0 1 -4.7625,4.753504 4.7625,4.7535041 0 0 1 -4.7625,-4.753504 4.7625,4.7535041 0 0 1 4.7625,-4.753239 4.7625,4.7535041 0 0 1 4.7625,4.753239 z m 20.0813456,0 a 4.7625,4.7535041 0 0 1 -4.7625,4.753504 4.7625,4.7535041 0 0 1 -4.7625,-4.753504 4.7625,4.7535041 0 0 1 4.7625,-4.753239 4.7625,4.7535041 0 0 1 4.7625,4.753239 z"
       style="fill:#ffffff;stroke-width:2.4198792"
       inkscape:connector-curvature="0" />
  </g>
</svg>
