<svg xmlns="http://www.w3.org/2000/svg" width="128" height="128"><g fill="#fff"><path d="M123.474 43.069l-9.304-9.23c-2.756 2.757-6.104 4.135-10.041 4.135-3.939 0-7.285-1.378-10.04-4.134-2.758-2.757-4.135-6.103-4.135-10.042 0-3.938 1.379-7.285 4.135-10.042l-9.23-9.229c-1.824-1.82-4.05-2.731-6.682-2.731-2.634 0-4.86.91-6.682 2.731L4.528 71.42c-1.822 1.822-2.733 4.05-2.733 6.682 0 2.633.91 4.86 2.733 6.681l9.229 9.304c2.757-2.755 6.104-4.134 10.042-4.134 3.937 0 7.284 1.377 10.04 4.134 2.756 2.756 4.134 6.103 4.134 10.041 0 3.938-1.377 7.284-4.134 10.041l9.304 9.303c1.821 1.822 4.049 2.732 6.682 2.732 2.634 0 4.862-.91 6.682-2.732l66.967-67.04c1.82-1.821 2.73-4.048 2.73-6.682 0-2.633-.91-4.86-2.73-6.681zm-20.01 14.766l-45.629 45.628c-.885.887-1.992 1.33-3.322 1.33-1.328 0-2.436-.443-3.322-1.33L24.463 76.737c-.936-.936-1.403-2.043-1.403-3.322 0-1.28.467-2.389 1.403-3.324L70.09 24.462c.887-.886 1.995-1.33 3.324-1.33 1.328 0 2.436.444 3.323 1.33l26.726 26.728c.937.936 1.404 2.043 1.404 3.323 0 1.28-.468 2.387-1.404 3.322z"/><path d="M73.417 31.183l23.332 23.33-42.232 42.233-23.33-23.331z"/></g></svg>