<svg xmlns="http://www.w3.org/2000/svg" width="28" height="28"><path d="M20.484 25.251l-.314-.343a12.803 12.803 0 0 1-6.035 1.599A12.803 12.803 0 0 1 1.198 13.839 12.803 12.803 0 0 1 9.872 1.602l-.005-.477a13.244 13.244 0 0 0-9.11 12.718A13.244 13.244 0 0 0 14.14 26.946a13.244 13.244 0 0 0 6.344-1.695zm4.42-4.058a13.244 13.244 0 0 0 2.34-7.63 13.244 13.244 0 0 0-9.378-12.51l.006.458a12.803 12.803 0 0 1 8.93 12.059 12.803 12.803 0 0 1-2.195 7.299z" fill-opacity=".276" stroke-width="8.83" stroke-linejoin="round"/></svg>