<svg xmlns="http://www.w3.org/2000/svg" width="128" height="128"><circle cx="64" cy="64" r="57.978" fill="none" stroke="#fff" stroke-width="8.931" stroke-linejoin="round"/><g fill="#fff"><path d="M37.891 65.917h24.243v30.708h-20.9s-2.095.134-2.768-.52c-.649-.633-.575-2.658-.575-2.658zm52.218 0H65.866v30.708h20.9s2.095.134 2.768-.52c.649-.633.575-2.658.575-2.658z" stroke-width=".399" stroke-linejoin="round"/><path d="M34.659 62.185v-12.93h27.475v12.93zm31.207 0v-12.93H93.34v12.93z" stroke-width=".866"/><path d="M62.134 45.394l-3.419-8.206s-1.352-3.31-3.376-4.659a6.934 6.934 0 0 0-7.693 11.54c2.024 1.35 5.598 1.325 5.598 1.325zm3.732 0l3.419-8.206s1.352-3.31 3.376-4.659a6.934 6.934 0 0 1 7.693 11.54c-2.024 1.35-5.598 1.325-5.598 1.325z" stroke-width=".135"/></g></svg>