<svg xmlns="http://www.w3.org/2000/svg" width="128" height="128"><path d="M64 10.021a48 48 0 0 0-48 48 48 48 0 0 0 4.53 20.225A22 21.958 0 0 1 30 76.084a22 21.958 0 0 1 22 21.957 22 21.958 0 0 1-.898 6.164A48 48 0 0 0 64 106.021a48 48 0 0 0 12.898-1.816A22 21.958 0 0 1 76 98.041a22 21.958 0 0 1 22-21.957 22 21.958 0 0 1 9.469 2.168A48 48 0 0 0 112 58.022a48 48 0 0 0-48-48z" fill="#fff" stroke-width="24.414"/><path d="M44.102 102.034a18 17.966 0 0 1-18 17.966 18 17.966 0 0 1-18-17.966 18 17.966 0 0 1 18-17.965 18 17.966 0 0 1 18 17.965zm75.898 0A18 17.966 0 0 1 102 120a18 17.966 0 0 1-18-17.966 18 17.966 0 0 1 18-17.965 18 17.966 0 0 1 18 17.965z" fill="#fff" stroke-width="9.146"/></svg>