<svg xmlns="http://www.w3.org/2000/svg" width="144" height="144"><path d="M64.662 5.962v18.102a48.554 48.554 0 0 0-40.621 40.598H5.962v14.676h18.102a48.554 48.554 0 0 0 40.598 40.621v18.079h14.676v-18.102a48.554 48.554 0 0 0 40.621-40.598h18.079V64.662h-18.102a48.554 48.554 0 0 0-40.598-40.621V5.962zM72 40.112A31.889 31.889 0 0 1 103.889 72 31.889 31.889 0 0 1 72 103.889 31.889 31.889 0 0 1 40.111 72 31.889 31.889 0 0 1 72 40.111z" fill="#d6d6d6" stroke="#090909" stroke-width="6" stroke-linecap="round"/><path d="M72 52.372c5.412 0 9.814 4.402 9.814 9.814C81.814 67.597 77.412 72 72 72c9.018 0 16.357 7.337 16.357 16.355v3.272H55.643v-3.272C55.643 79.337 62.982 72 72 72c-5.412 0-9.814-4.404-9.814-9.815 0-5.412 4.402-9.814 9.814-9.814z"/></svg>