<svg xmlns="http://www.w3.org/2000/svg" width="48" height="48"><path d="M22.946 11.547s.605-5.461 2.971-7.609c2.367-2.147 4.018-2.332 4.018-2.332l2.641 3.13-6.253 8.058z" fill="#323232" stroke-width=".145"/><path d="M41.503 19.715c1.468 5 .555 10.974-2.46 15.576-1.152 1.815-2.54 3.23-4.009 4.16-1.468.974-3.016 1.46-4.564 1.46a6.68 6.68 0 0 1-2.42-.442l-.278-.089-.238.177c-1.429 1.062-3.373 1.018-4.802-.088l-.238-.177-.278.088a6.97 6.97 0 0 1-2.659.531c-3.095 0-6.23-2.08-8.572-5.664-2.976-4.602-3.928-10.576-2.46-15.577 1.865-6.106 6.032-7.434 9.207-7.434 2.5 0 4.484.797 4.524.797l.277.088.239-.177c1.428-1.106 3.373-1.15 4.801-.088l.238.177.239-.089a13.411 13.411 0 0 1 4.246-.708c3.214 0 7.381 1.328 9.207 7.479z" fill="#f78f00" stroke="#323232" stroke-width="4"/><path d="M15.708 18.83l7.262 3.407c-.04.044-4.802 5.355-7.262-3.407z" fill="#323232" stroke-width=".105"/><g fill="#323232"><path d="M18.05 31.397l-1.39 1.593-4.405-7.567 4.405 3.142 1.39-1.593 4.404 3.23 2.58-2.39 2.58 2.39 4.404-3.23 1.35 1.593 4.444-3.142-4.445 7.567-1.349-1.593-4.405 3.23-2.58-2.389-2.579 2.39zM34.796 18.83l-7.262 3.407c0 .044 4.801 5.355 7.262-3.407z"/></g></svg>