<svg xmlns="http://www.w3.org/2000/svg" width="128" height="128"><path fill="rgba(255, 255, 255, 1)" d="M107.022 5.535c-2.275.022-4.714 1.469-6.137 4.892-2.809 6.757-8.049 14.912-14.763 23.562a35.603 35.603 0 0 1 6.933 7.641c8.848-6.698 17.364-11.8 24.736-14.306 11.243-3.821 3.03-17.575-8.91-8.91 6.784-7.018 2.8-12.924-1.86-12.879zm-86.016.008c-4.664.095-9.48 6.04-4.12 12.573-9.14-8.443-17.289 3.366-7.736 7.736 7.08 3.237 15.766 8.989 24.972 16.22a35.58 35.58 0 0 1 7.507-8.303c-6.75-9.01-12.21-17.605-15.573-24.823-1.139-2.443-3.08-3.444-5.05-3.403zm42.728 25.13c-16.916 0-30.58 13.665-30.58 30.58 0 11.263 6.06 21.078 15.1 26.383v14.219h4.72V89.889c1.31.492 2.665.895 4.056 1.205v10.761h4.712V91.764a31.237 31.237 0 0 0 3.97 0v10.091h4.71v-10.76a30.395 30.395 0 0 0 4.057-1.206v11.966h4.711V87.652c9.055-5.301 15.125-15.126 15.125-26.398 0-16.917-13.665-30.582-30.581-30.582zM46.876 52.91a9.076 9.076 0 1 1-.001 18.152 9.076 9.076 0 0 1 .001-18.152zm33.67 0a9.076 9.076 0 0 1 0 18.15 9.076 9.076 0 0 1 0-18.15zm-16.82 13.195l7.547 12.148H56.18l7.547-12.148zM36.682 83.894c-10.15 8.186-19.8 14.724-27.532 18.26-9.553 4.37-1.404 16.17 7.736 7.728-7.623 9.29 5.336 17.407 9.17 9.178 3.799-8.156 10.266-18.075 18.26-28.36a35.537 35.537 0 0 1-7.633-6.806zm53.734.433a35.55 35.55 0 0 1-7.035 6.224c8.028 9.93 14.323 19.376 17.504 27.028 4.337 10.432 18.093 2.45 7.996-7.996 11.94 8.666 20.152-5.088 8.91-8.91-8.104-2.754-17.586-8.646-27.375-16.346z"/></svg>