<svg xmlns="http://www.w3.org/2000/svg" width="128" height="128"><g fill="#fff"><path d="M110.519 93.898l1.326-28.15c0-5.308-4.32-9.635-9.677-9.635a9.44 9.44 0 0 0-4.676 1.224c-.624-4.712-4.676-8.357-9.591-8.357a9.61 9.61 0 0 0-4.677 1.216c-.631-4.705-4.68-8.354-9.591-8.35a9.548 9.548 0 0 0-4.59 1.166V30.371c0-5.308-4.32-9.634-9.678-9.634-5.31-.004-9.634 4.32-9.634 9.634v48.567L33.066 66.796c-4.447-3.335-10.765-2.89-14.699 1.045-2.95 2.95-2.95 7.751 0 10.701L52 112.175c5.24 5.24 12.205 8.125 19.618 8.125h11.221c7.401.004 14.36-2.882 19.593-8.115a27.666 27.666 0 0 0 8.087-18.287zm-27.68 21.358H71.618a22.55 22.55 0 0 1-16.051-6.649L21.934 74.975a2.523 2.523 0 0 1 0-3.567c2.169-2.169 5.654-2.415 8.136-.553l20.7 15.078c.766.56 1.779.638 2.628.21a2.524 2.524 0 0 0 1.377-2.247V30.371c0-2.533 2.062-4.595 4.633-4.598a4.596 4.596 0 0 1 3.246 1.348A4.58 4.58 0 0 1 64 30.371v35.69a2.524 2.524 0 0 0 2.522 2.523 2.534 2.534 0 0 0 1.783-.742 2.517 2.517 0 0 0 .739-1.787V51.48c0-2.532 2.058-4.59 4.633-4.59a4.603 4.603 0 0 1 4.59 4.59v14.582a2.524 2.524 0 0 0 2.523 2.522 2.534 2.534 0 0 0 1.783-.742 2.517 2.517 0 0 0 .738-1.787v-7.441c0-2.533 2.059-4.591 4.634-4.591a4.604 4.604 0 0 1 4.59 4.59v7.477c.004.01 0 .007 0 .007v.021l.004.003c.003.004 0 .007 0 .007a2.519 2.519 0 0 0 2.522 2.451 2.524 2.524 0 0 0 2.522-2.522v-.307a4.568 4.568 0 0 1 1.344-3.25 4.576 4.576 0 0 1 3.286-1.344c2.532.007 4.583 2.065 4.594 4.473l-1.324 28.033a22.651 22.651 0 0 1-6.617 14.956 22.513 22.513 0 0 1-16.026 6.638z"/><path d="M80.585 38.41c3.15-8.342 1.13-17.795-5.147-24.073-8.85-8.85-23.253-8.85-32.103 0-6.278 6.278-8.296 15.73-5.15 24.077a2.535 2.535 0 0 0 .578.892 2.534 2.534 0 0 0 2.675.578 2.531 2.531 0 0 0 1.47-3.253c-2.451-6.496-.885-13.847 3.995-18.727 6.884-6.884 18.084-6.884 24.968 0 4.88 4.88 6.446 12.231 3.995 18.727a2.513 2.513 0 0 0 1.466 3.249 2.522 2.522 0 0 0 3.253-1.47z"/></g></svg>