<svg xmlns="http://www.w3.org/2000/svg" width="128" height="128"><path d="M17.591 38.616l6.363 76.807c.456 5.54 5.174 9.882 10.734 9.882h58.624c5.56 0 10.278-4.343 10.734-9.882l6.363-76.807zm28.445 72.32a3.592 3.592 0 0 1-3.581-3.367l-3.592-57.952a3.592 3.592 0 0 1 3.36-3.81c2.052-.144 3.683 1.379 3.81 3.36l3.592 57.953a3.593 3.593 0 0 1-3.589 3.817zm21.556-3.591A3.59 3.59 0 0 1 64 110.937a3.59 3.59 0 0 1-3.592-3.592V49.392A3.59 3.59 0 0 1 64 45.8a3.59 3.59 0 0 1 3.592 3.592zm21.545-57.728l-3.592 57.952c-.118 1.886-1.69 3.457-3.81 3.36a3.592 3.592 0 0 1-3.36-3.809l3.592-57.952c.123-1.982 1.86-3.424 3.81-3.36a3.592 3.592 0 0 1 3.36 3.809zm21.56-32.554H89.145v-3.592c0-5.942-4.834-10.776-10.777-10.776H49.632c-5.943 0-10.777 4.834-10.777 10.776v3.592H17.303a7.184 7.184 0 1 0 0 14.369h93.394a7.184 7.184 0 0 0 0-14.369zm-28.737 0H46.04v-3.592a3.595 3.595 0 0 1 3.592-3.592h28.736a3.595 3.595 0 0 1 3.592 3.592z" fill="#fff"/></svg>