<?xml version="1.0" encoding="UTF-8" standalone="no"?>
<svg
   xmlns:dc="http://purl.org/dc/elements/1.1/"
   xmlns:cc="http://creativecommons.org/ns#"
   xmlns:rdf="http://www.w3.org/1999/02/22-rdf-syntax-ns#"
   xmlns:svg="http://www.w3.org/2000/svg"
   xmlns="http://www.w3.org/2000/svg"
   xmlns:sodipodi="http://sodipodi.sourceforge.net/DTD/sodipodi-0.dtd"
   xmlns:inkscape="http://www.inkscape.org/namespaces/inkscape"
   width="140"
   height="140"
   version="1.1"
   id="svg4"
   sodipodi:docname="player-base-05.svg"
   inkscape:version="0.92.2 (5c3e80d, 2017-08-06)">
  <metadata
     id="metadata10">
    <rdf:RDF>
      <cc:Work
         rdf:about="">
        <dc:format>image/svg+xml</dc:format>
        <dc:type
           rdf:resource="http://purl.org/dc/dcmitype/StillImage" />
        <dc:title />
      </cc:Work>
    </rdf:RDF>
  </metadata>
  <defs
     id="defs8">
    <clipPath
       clipPathUnits="userSpaceOnUse"
       id="clipPath1672">
      <circle
         r="66.5"
         cy="331.61356"
         cx="-206.72099"
         id="circle1674"
         style="fill:#000000;fill-opacity:1;stroke:none;stroke-width:28.5;stroke-linecap:round;stroke-linejoin:miter;stroke-miterlimit:4;stroke-dasharray:none;stroke-opacity:1" />
    </clipPath>
  </defs>
  <sodipodi:namedview
     pagecolor="#ffffff"
     bordercolor="#666666"
     borderopacity="1"
     objecttolerance="10"
     gridtolerance="10"
     guidetolerance="10"
     inkscape:pageopacity="0"
     inkscape:pageshadow="2"
     inkscape:window-width="1920"
     inkscape:window-height="1017"
     id="namedview6"
     showgrid="true"
     inkscape:zoom="0.40410958"
     inkscape:cx="614.46781"
     inkscape:cy="-160.26681"
     inkscape:window-x="1912"
     inkscape:window-y="-8"
     inkscape:window-maximized="1"
     inkscape:current-layer="svg4"
     fit-margin-top="3.5"
     fit-margin-bottom="3.5"
     fit-margin-left="3.5"
     fit-margin-right="3.5"
     inkscape:object-paths="true"
     inkscape:snap-intersection-paths="true"
     inkscape:snap-smooth-nodes="true"
     inkscape:snap-midpoints="true"
     inkscape:snap-nodes="false">
    <inkscape:grid
       type="xygrid"
       id="grid817"
       empspacing="4"
       spacingy="4"
       spacingx="4" />
  </sodipodi:namedview>
  <g
     id="g1643"
     clip-path="url(#clipPath1672)"
     transform="translate(276.72099,-261.61356)">
    <rect
       y="229.70338"
       x="-343.34747"
       height="253.02544"
       width="246.839"
       id="rect1630"
       style="fill:#cacaca;fill-opacity:1;stroke:none;stroke-width:0.81567478;stroke-opacity:1" />
    <g
       id="g1628">
      <path
         sodipodi:nodetypes="sssssssss"
         inkscape:connector-curvature="0"
         id="path1599"
         d="m -194.04156,338.80548 c -2.30927,5.14937 -4.2443,9.93731 -11.29744,12.60978 -17.02036,6.44909 -11.51602,-7.39415 -8.98426,-17.26595 2.52442,-9.84317 15.06214,-29.8583 23.06214,-19.93703 1.17579,1.45817 5.36054,18.46344 23.24049,12.63754 6.11148,-1.99133 14.23411,19.62629 27.08422,16.87293 15.02042,-3.2184 4.70811,17.80167 -2.75425,14.10192 -14.93029,-7.40227 -17.13985,-3.14077 -25.91237,-10.63854 -14.40593,-12.31256 -23.33706,-10.83678 -24.43853,-8.38065 z"
         style="fill:#8ed1ff;fill-opacity:1;stroke:none;stroke-opacity:1" />
      <path
         inkscape:transform-center-y="-43.088572"
         inkscape:transform-center-x="13.123423"
         style="fill:#d6d6d6;fill-opacity:1;stroke:none;stroke-opacity:1"
         d="m -211.27147,336.32669 c -30.10019,5.19461 -28.23942,33.46472 -37.94855,38.49537 -21.82651,11.30909 -48.88476,-72.41618 -48.88476,-83.77118 0,-5.00326 94.50142,-44.19867 133.33416,-32.59205 30.79833,9.20524 40.44113,52.56477 33.10794,61.20596 -16.47415,19.41261 -77.12078,-28.47969 -85.18623,-19.20879 -6.68505,7.68419 5.78005,13.7141 12.71258,20.41161 4.78325,4.62109 11.8926,12.17531 -7.13514,15.45908 z"
         id="path1601"
         inkscape:connector-curvature="0"
         sodipodi:nodetypes="ssssssss" />
      <path
         style="fill:#ceebff;fill-opacity:1;stroke:none;stroke-opacity:1"
         d="m -245.75455,329.77383 c -3.13249,-5.91764 -10.38678,-2.13491 -13.30565,-11.18828 -2.19038,-6.79383 2.11823,-9.92848 9.54352,-16.67862 3.71307,-3.37546 -13.67591,-16.41025 -9.65386,-13.01736 2.5198,2.12563 7.29951,-11.52085 15.32903,-4.02431 5.50072,5.1356 -5.34416,30.94592 15.86954,34.28756 17.32196,2.72859 -3.57328,18.89087 15.00781,21.78516 6.35113,0.98928 11.39234,5.22876 17.13795,17.09371 6.69506,13.8256 1.25679,29.7059 -9.45525,21.53743 -9.13814,-6.96829 -1.93813,-20.25602 -18.29501,-21.21137 -23.53873,-1.37482 -17.32988,-19.42512 -22.17808,-28.58392 z"
         id="path1603"
         inkscape:connector-curvature="0"
         sodipodi:nodetypes="sssssssssss" />
      <path
         sodipodi:nodetypes="sssss"
         inkscape:connector-curvature="0"
         id="path1605"
         d="m -105.84664,301.76834 c 0,11.35499 -3.96109,26.6843 -28.54344,26.6843 -24.58235,0 -60.47711,-15.3293 -60.47711,-26.6843 0,-11.35499 19.92793,-20.56003 44.51028,-20.56003 24.58234,1e-5 44.51027,9.20504 44.51027,20.56003 z"
         style="fill:#ceebff;fill-opacity:1;stroke:none;stroke-opacity:1" />
      <path
         style="fill:#8ed1ff;fill-opacity:1;stroke:none;stroke-opacity:1"
         d="m -210.83402,257.58615 c 0,11.35499 11.34957,27.55919 -13.23278,27.55919 -24.58235,0 -75.78777,-16.20419 -75.78777,-27.55919 0,-11.35499 19.92793,-20.56003 44.51028,-20.56003 24.58234,1e-5 44.51027,9.20504 44.51027,20.56003 z"
         id="path1607"
         inkscape:connector-curvature="0"
         sodipodi:nodetypes="sssss" />
      <path
         sodipodi:nodetypes="sssss"
         inkscape:connector-curvature="0"
         id="path1609"
         d="m -248.4545,302.42452 c -16.84172,10.91754 -2.86747,27.77791 -12.5766,32.80855 -21.82651,11.30909 -74.91288,-17.95398 -74.91288,-29.30898 0,-11.35499 19.92793,-20.56003 44.51028,-20.56002 24.58234,0 52.50736,10.88388 42.9792,17.06045 z"
         style="fill:#8ed1ff;fill-opacity:1;stroke:none;stroke-opacity:1" />
      <path
         style="fill:#ceebff;fill-opacity:1;stroke:none;stroke-opacity:1"
         d="m -157.39833,372.93447 c -0.16246,-5.64113 -4.78621,-11.74455 0.14249,-17.45392 4.56717,-5.29058 11.2212,-8.20758 19.70214,-2.55639 8.45636,5.6348 14.01867,20.14431 2.01138,24.41711 -1.76476,0.62798 -19.19767,-1.04074 -19.60641,17.75997 -0.1397,6.4262 -23.22701,6.95031 -24.8739,19.98849 -1.92502,15.24025 -25.07964,-17.95186 -16.77447,-17.32009 13.66928,1.03981 11.71892,-14.26646 23.19564,-15.47417 11.56886,-1.21741 16.40762,-2.26052 16.20313,-9.361 z"
         id="path1611"
         inkscape:connector-curvature="0"
         sodipodi:nodetypes="sssssssss" />
      <ellipse
         ry="6.4523497"
         rx="11.592357"
         cy="389.36719"
         cx="-190.49271"
         id="ellipse1613"
         style="fill:#d6d6d6;fill-opacity:1;stroke:none;stroke-opacity:1" />
      <path
         style="fill:#d6d6d6;fill-opacity:1;stroke:none;stroke-opacity:1"
         d="m -234.58248,379.67313 c 11.35019,0.33014 26.55784,4.73525 25.84313,29.30721 -0.71471,24.57195 -17.08116,60.00585 -28.43135,59.67571 -11.35019,-0.33014 -19.97195,-20.51728 -19.25723,-45.08924 0.71472,-24.57194 10.49526,-44.22382 21.84545,-43.89368 z"
         id="path1615"
         inkscape:connector-curvature="0"
         sodipodi:nodetypes="sssss" />
    </g>
  </g>
</svg>
