<?xml version="1.0" encoding="UTF-8" standalone="no"?>
<svg
   xmlns:dc="http://purl.org/dc/elements/1.1/"
   xmlns:cc="http://creativecommons.org/ns#"
   xmlns:rdf="http://www.w3.org/1999/02/22-rdf-syntax-ns#"
   xmlns:svg="http://www.w3.org/2000/svg"
   xmlns="http://www.w3.org/2000/svg"
   xmlns:xlink="http://www.w3.org/1999/xlink"
   xmlns:sodipodi="http://sodipodi.sourceforge.net/DTD/sodipodi-0.dtd"
   xmlns:inkscape="http://www.inkscape.org/namespaces/inkscape"
   width="140"
   height="140"
   version="1.1"
   id="svg4"
   sodipodi:docname="player-base-outfitDC.svg"
   inkscape:version="0.92.2 (5c3e80d, 2017-08-06)">
  <metadata
     id="metadata10">
    <rdf:RDF>
      <cc:Work
         rdf:about="">
        <dc:format>image/svg+xml</dc:format>
        <dc:type
           rdf:resource="http://purl.org/dc/dcmitype/StillImage" />
        <dc:title />
      </cc:Work>
    </rdf:RDF>
  </metadata>
  <defs
     id="defs8">
    <radialGradient
       inkscape:collect="always"
       xlink:href="#linearGradient821-3"
       id="radialGradient832"
       cx="-140.05359"
       cy="-64.397835"
       fx="-140.05359"
       fy="-64.397835"
       r="66.500023"
       gradientTransform="matrix(1.8088133,0.75634257,-0.88515259,2.116981,177.88795,128.75038)"
       gradientUnits="userSpaceOnUse" />
    <linearGradient
       inkscape:collect="always"
       id="linearGradient821-3">
      <stop
         style="stop-color:#ffffff;stop-opacity:1"
         offset="0"
         id="stop817-2" />
      <stop
         id="stop834-0"
         offset="0.4567937"
         style="stop-color:#bfbfbf;stop-opacity:1" />
      <stop
         style="stop-color:#797979;stop-opacity:1"
         offset="1"
         id="stop819-8" />
    </linearGradient>
    <clipPath
       clipPathUnits="userSpaceOnUse"
       id="clipPath827">
      <ellipse
         transform="matrix(-0.20202549,0.97938026,-0.97938129,-0.2020205,0,0)"
         stroke-miterlimit="10"
         id="ellipse829"
         style="fill:#7abe2f;fill-opacity:1;stroke:none;stroke-width:6.00109148;stroke-miterlimit:10;stroke-opacity:0.769"
         ry="66.499977"
         rx="66.500023"
         cy="-82.698402"
         cx="54.415257" />
    </clipPath>
  </defs>
  <sodipodi:namedview
     pagecolor="#ffffff"
     bordercolor="#666666"
     borderopacity="1"
     objecttolerance="10"
     gridtolerance="10"
     guidetolerance="10"
     inkscape:pageopacity="0"
     inkscape:pageshadow="2"
     inkscape:window-width="1920"
     inkscape:window-height="1017"
     id="namedview6"
     showgrid="false"
     inkscape:zoom="3.2328766"
     inkscape:cx="47.358316"
     inkscape:cy="85.928226"
     inkscape:window-x="1912"
     inkscape:window-y="-8"
     inkscape:window-maximized="1"
     inkscape:current-layer="svg4"
     fit-margin-top="3.5"
     fit-margin-bottom="3.5"
     fit-margin-left="3.5"
     fit-margin-right="3.5" />
  <ellipse
     transform="matrix(-0.20202549,0.97938026,-0.97938129,-0.2020205,0,0)"
     stroke-miterlimit="10"
     id="ellipse2"
     style="fill:url(#radialGradient832);fill-opacity:1.0;stroke:none;stroke-width:6.00109148;stroke-miterlimit:10;stroke-opacity:0.769"
     ry="66.499977"
     rx="66.500023"
     cy="-82.69841"
     cx="54.415257" />
  <path
     inkscape:connector-curvature="0"
     style="fill:#000000;fill-opacity:0.55555558;stroke-width:8.46465778"
     d="M 108.88102,2.6560985 C 71.68801,-18.817304 24.129484,-6.0740372 2.656089,31.11898 -18.817304,68.311992 -6.0740345,115.87051 31.118978,137.3439 68.31199,158.8173 115.87051,146.07404 137.34391,108.88102 158.8173,71.68801 146.07403,24.12949 108.88102,2.6560985 Z m 19.9405,33.6852625 c 12.60224,22.104733 11.24132,48.337982 -1.13906,68.661699 L 86.557782,78.236529 C 89.241918,72.940487 89.355431,66.45241 86.307243,60.911701 Z M 70.583123,0.65919593 70.585901,51.334532 c -3.415523,-0.100904 -6.79151,0.752695 -9.748605,2.464879 -2.536459,1.461221 -4.686768,3.507743 -6.27158,5.968874 L 10.851402,37.552998 C 16.596178,26.972362 25.074803,17.666013 36.264594,11.203594 45.943237,5.614902 59.413034,0.97425453 70.584918,0.66023213 Z M 76.202302,59.299027 c 1.838047,1.071372 3.362719,2.606386 4.421641,4.451633 3.385746,5.817822 1.38333,13.279999 -4.460174,16.621225 -5.812806,3.386858 -13.271936,1.386756 -16.610449,-4.453952 -3.388671,-5.815267 -1.39133,-13.277737 4.449122,-16.622815 3.770779,-2.195057 8.43045,-2.193605 12.19986,0.0038 z m -5.695011,29.037057 -0.02466,49.103336 C 58.772127,137.05239 44.693241,133.50326 34.670436,127.36463 25.479249,121.7348 17.609907,113.89432 11.793698,103.94921 L 54.283055,79.459879 c 3.533138,5.803937 9.820985,9.005621 16.224236,8.876205 z"
     id="path9"
     clip-path="url(#clipPath827)"
     sodipodi:nodetypes="ssssscccccccccccccccccccccccccc" />
</svg>
