<svg xmlns="http://www.w3.org/2000/svg" width="128" height="128"><path d="M56.545 78.82l7.211 5.98 4.648-6.188-7.301-6.112zM29.392 93.546s-13.08 12.799-16.942 16.44l-.027.027a1.192 1.192 0 0 0 .055 1.72l11.868 11.737c.705.705 1.442.03 1.442.03l1.772-1.796-5.35-13.512 9.765-11.96zm49.004-44.153L62.456 65.48l-5.764-5.906 13.605-13.551s2.193 1.993 3.699 1.848c1.459-.142 2.31-.538 2.31-.538zM105.684 9.18l2.35 2.292 6.841-6.74.499.486L96.495 23.91l1.836 1.88-9.333 9.283-2.354-2.356 19.798-19.66-2.379-2.356s-.107-.73.354-1.167c.653-.618 1.267-.354 1.267-.354zm-61.21 97.173s3.705-.8 5.097-4.196c.11-.255-4.99-8-4.878-10.706l-2.46-2.587 10.807-10.74 5.917-8.36 1.522-1.987-5.985-6.045-1.538 1.54-1.217 3.554L39.685 78.81l-3.334 4.324.96 2.658-4.998 4.89 3.722 3.839c2.556.93 1.956-.394 3.838 1.615 2.086 2.58 2.043 8.102 4.601 10.216z" fill="#fff" fill-opacity=".986" stroke="#323232" stroke-width="2.5"/><path d="M25.455 122.427L13.44 110.339" fill="none" stroke="#323232" stroke-width="1.547"/><path d="M49.23 84.646c.629-.149 1.205.46 1.746 1.692-.208 3.185-2.444 4.154-3.852 4.119-.386.097-1.992-1.168-1.94-1.742 0 0 1.358 1.434 2.11 1.5 1.987.07 3.428-1.759 3.32-3.774-.215-.805-1.383-1.795-1.383-1.795zm-3.092 2.834s1.008 1.044 1.309 1.051c-.12-.106-.366-.22-.574-.622a2.605 2.605 0 0 1-.247-.919z" fill="#fff" stroke="#323232" stroke-width=".666"/><path d="M37.654 74.358c.61-.653 1.197-.354 1.481-.244l.671.289 3.119-2.064-1.884-1.877 13.604-13.566 1.258 1.258-11.379 11.222s-.24 1.075-.192 1.567c.045.47.454 1.265.454 1.265L39.332 77.9l-1.827-1.814s-.245-1.307.15-1.73z" fill="#323232"/><path d="M72.674 43.647l9.15-9.151 1.888-.21 3.88 3.828.64 1.4-7.495 7.588-3.823-3.777s-.49.475-1.907 1.134c-.69.295-1.56.014-2.333-.812z" fill="#fff" stroke="#323232" stroke-width="2.5"/></svg>