<svg xmlns="http://www.w3.org/2000/svg" width="128" height="128"><path d="M71.671 106.97l-20.304 11.722-.35-.15 20.957-12.1c.006.368-.303.528-.303.528z" fill="#fff" fill-opacity=".389" stroke="#323232" stroke-width="1.262"/><path d="M18.24 66.176c-.195 2.542-.024 4.873.572 6.959-2.565-2.34-5.687-2.184-6.152-4.345.191-1.772 3.302-1.299 5.58-2.614z" fill="#323232"/><path d="M20.84 80.856s-6.525 6.818-3.888 5.89c10.934-6.313 14.416-2.555 15.622-.297 3.5 6.559 4.647 23.881 9.21 31.735.826 1.431 5.679.366 5.679.366l22.778-13.151-4.645-2.785c-5.884-14.832-9.821-22.271-5.265-24.901 4.01-2.31 11.235-6.466 16.4-9.469-1.842-1.323-3.868-6.19-3.868-6.19-1.817-5.545.467-9.02 2.74-11.906a5.79 5.79 0 0 0 .817-1.38zm51.124-13.504s-3.318 1.917-5.923 3.419c-4.803 2.806-6.57 4.4-9.778 2.001-1.963-1.296-2.63-4.556-1.79-6.256 1.297-1.963 7.867-6.364 10.671-6.768 3.067.052 5.96 5.063 6.82 7.604z" fill="#fff" stroke="#323232" stroke-width="2.478"/><path d="M58.644 65.323c-.122 1.893-.507 3.33 2.7 5.73-.504.071-2.084.596-3.855-1.418-1.146-1.581-.87-2.911-.87-2.911z" fill="#323232" stroke="#323232" stroke-width=".795"/><path d="M21.015 54.855l4.767.893-5.011 2.893-1.579-2.734zM103.28 7.967c-.693.516-2.33 4.382-2.33 4.382l5.011-2.893c-1.052-1.822-2.226-1.752-2.682-1.489z" fill="#323232"/><path d="M106.845 27.794l-85.39 49.3c.079-1.82-.886-4.133-1.067-5.367-.814-5.53-.122-8.976.716-11.457l29.208-16.863s2.626 4.492 5.965 4.02l47.622-27.515c1.254 1.119 2.836 5.35 3.504 7.56z" fill="#fff" stroke="#323232" stroke-width="2.558"/><path d="M113.844 27.54l-1.31.755c.131-1.876-.305-3.594-.305-3.594l-5.021 2.864s-.928-4.932-4.374-7.195L56.2 47.294c-4.896-.48-5.484-4.12-5.484-4.12l57.856-33.403c5.958 9.724 5.782 15.052 5.272 17.768z" fill="#fff" stroke="#323232" stroke-width="2.558"/><path d="M109.257 30.201l-31.49 18.18.153-.44 31.64-18.267c.005.367-.303.527-.303.527z" fill="#fff" fill-opacity=".389" stroke="#323232" stroke-width="2.558"/><path d="M47.796 49.112l-13.462 7.772s-3.493 7.036-8.309 10.146c-2.085.596-3.394-.96-3.394-.96l.964 7.51 26.423-15.256" fill="#323232"/><path d="M26.193 60.732l2.276 10.303m2.054-12.803L32.8 68.535" fill="#323232" stroke="#fff"/><path d="M27.064 65.333c1.56-1.507 4.02-4.568 5.964-7.555.79-1.203-.041-1.937-1.715-.97l-7.745 4.47c-3.075 2.17.378 7.07 3.496 4.055z" fill="#363636"/><path d="M31.87 74.708c1.542 11.805 6.425 36.38 9.844 42.302 2.565-1.328 21.002-12.126 21.002-12.126L53.2 79.814s.092-.359-1.21.285c-2.284.824-3.54-1.715-1.78-3.062 1.38-.7 1.563-.981 1.563-.981l-3.052-8.04-10.525 6.076-1.315-2.278z" fill="#323232"/><path d="M53.531 75.826c-1.02 1.052-1.662.934-2.944 1.584-1.245.952-.357 2.748 1.258 2.165 1.404-.694 1.784-.423 3.141-.599 3.315-1.68.833-4.449-1.455-3.15z" fill="#323232"/><circle cx="-9.744" cy="67.543" r="1.643" transform="rotate(-30)" fill="#fefefe"/><circle cx="8.873" cy="94.202" r="1.144" transform="rotate(-30)" fill="#fefefe"/><path d="M34.853 55.732l2.276 10.303m2.054-12.803l2.276 10.303m2.055-12.803l2.275 10.303" fill="#323232" stroke="#fff"/></svg>