<svg xmlns="http://www.w3.org/2000/svg" xmlns:xlink="http://www.w3.org/1999/xlink" width="128" height="128"><defs><linearGradient id="a"><stop offset="0" stop-color="#757575"/><stop offset="1" stop-color="#141414"/></linearGradient><clipPath id="b"><path d="M96 4v80s10-1 16-4c0 0 4-28 0-64-3.578-1.79-8.546-2.855-12-3.434V4c-1-.508-3-.448-4 0z" fill="#545454" stroke-width="2" stroke-linecap="round"/></clipPath><linearGradient xlink:href="#a" id="c" x1="100" y1="73.591" x2="108" y2="16" gradientUnits="userSpaceOnUse"/></defs><path d="M96 4v80s10-1 16-4c0 0 4-28 0-64-3.578-1.79-8.546-2.855-12-3.434V4c-1-.508-3-.448-4 0z" clip-path="url(#b)" transform="translate(-40 4)" fill="url(#c)" stroke="#000" stroke-width="9" stroke-linecap="round"/><path d="M56 88l6-4c-2.667 20.222 0 34.222 0 34.222s-3 2-6 0c0 0-1.667-14 0-30.222z"/></svg>