<svg xmlns="http://www.w3.org/2000/svg" width="128" height="128"><defs><linearGradient id="a"><stop offset="0" stop-color="#9b9b9b"/><stop offset="1" stop-color="#fff"/></linearGradient></defs><g fill="#fff"><path d="M30.002 40.693c-9.983.193-19.63 3.502-25.323 5.882a83.461 83.461 0 0 0-2.127.924 3.174 3.174 0 0 0-1.45 4.463c21.747 38.307 45.195 30.432 56.373 23.291-7.487-5.21-19.896-16.45-20.754-34.148a41.773 41.773 0 0 0-6.719-.412z"/><path d="M81.273 28.638c-3.26-9.438-9.381-17.595-13.4-22.278a83.461 83.461 0 0 0-1.535-1.739 3.174 3.174 0 0 0-4.692-.005c-29.74 32.495-15.023 52.375-4.785 60.808 2.649-8.728 9.517-23.996 26.09-30.268a41.773 41.773 0 0 0-1.678-6.518z"/><path d="M108.696 73.71c7.962-6.025 13.819-14.373 17.025-19.646a83.461 83.461 0 0 0 1.177-1.998 3.174 3.174 0 0 0-1.45-4.463c-40.114-18.2-54.451 1.955-59.294 14.303 9.118-.187 25.764 1.61 36.865 15.421a41.773 41.773 0 0 0 5.677-3.617z"/><path d="M74.615 114.124c8.274 5.589 18.066 8.436 24.092 9.768a83.461 83.461 0 0 0 2.271.469 3.174 3.174 0 0 0 3.755-2.813c4.271-43.843-19.434-50.903-32.685-51.5 3.122 8.57 6.798 24.905-2.69 39.87a41.771 41.771 0 0 0 5.257 4.206z"/><path d="M25.89 93.239c-2.898 9.555-2.73 19.751-2.224 25.902a83.461 83.461 0 0 0 .222 2.308 3.174 3.174 0 0 0 3.796 2.758c43.151-8.856 42.902-33.59 39.562-46.426-7.267 5.512-21.79 13.843-38.888 9.195a41.771 41.771 0 0 0-2.467 6.263z"/></g></svg>