<svg xmlns="http://www.w3.org/2000/svg" xmlns:xlink="http://www.w3.org/1999/xlink" style="isolation:isolate" width="128" height="128"><defs><linearGradient id="a"><stop offset="0" stop-color="#741b00"/><stop offset="1" stop-color="#ff440a"/></linearGradient><linearGradient xlink:href="#a" id="c" x1="77.516" y1="15.47" x2="8.758" y2="51.538" gradientUnits="userSpaceOnUse"/><linearGradient xlink:href="#a" id="b" x1="105.977" y1="12.556" x2="87.955" y2="113.166" gradientUnits="userSpaceOnUse"/></defs><path d="M75.847 23.193l19.457 1.066 15.34-7.862 6.328 4.41L105.3 37.998c7.095.959 13.016 69.676-45.854 74.853l-.384-11.697 5.753-3.643 6.328 1.534c43.53-27.614 26.463-61.938 19.368-66.349l-15.341-2.109-1.918-5.56z" fill="url(#b)" transform="rotate(-15 93.806 63.063)"/><path d="M11.889 63.761c3.26-24.161 21.285-33.557 21.285-33.557l30.681-9.972.767 10.739s-19.76 1.59-34.133 15.148l-4.41 8.63-.767 10.738z" fill="url(#c)" transform="rotate(-15 93.806 63.063)"/><g stroke="#000" stroke-width="1.5"><path d="M12.677 83.42a5.365 5.365 0 0 0 2.66 4.182 5.452 5.452 0 0 0 3.51.672l5.13-.72a7.362 7.362 0 0 0 5.91-9.791l-.837-2.328a11.002 11.002 0 0 1 .005-7.43 34.582 34.582 0 0 1 4.897-9.034 58.103 58.103 0 0 1 23.061-18.136 3.553 3.553 0 0 0 2.093-2.412 3.689 3.689 0 0 0-.703-3.224l-.434-.552.2-3.033a3.622 3.622 0 0 0-1.424-3.13 3.665 3.665 0 0 0-3.409-.533A66.511 66.511 0 0 0 22.33 50.234a48.315 48.315 0 0 0-9.653 33.186zm12.558-31.01a63.71 63.71 0 0 1 29.32-21.052l-.198 3.02a3.605 3.605 0 0 0 .795 2.575l.466.523a61.867 61.867 0 0 0-24.562 19.303 38.175 38.175 0 0 0-5.412 9.985 14.636 14.636 0 0 0-.008 9.896l.837 2.33a3.73 3.73 0 0 1-2.993 4.962l-5.156.728a1.78 1.78 0 0 1-1.364-.367 1.715 1.715 0 0 1-.655-1.218 44.675 44.675 0 0 1 8.93-30.684zM77.174 102.513l-2.461.144a7.374 7.374 0 0 0-6.69 9.29l1.353 4.978a5.452 5.452 0 0 0 2.535 3.331l.117.068a5.323 5.323 0 0 0 4.239.384 48.228 48.228 0 0 0 26.722-21.912 65.908 65.908 0 0 0 8-40.48 52.337 52.337 0 0 0-2.899-11.882 38.791 38.791 0 0 0-3.274-6.366c-.296-.486-.625-.974-.956-1.47a12.475 12.475 0 0 1-1.917-3.584 9.786 9.786 0 0 1 .798-6.213l3.056-6.601a7.776 7.776 0 0 0-13.428-7.753c-.427.61-.844 1.238-1.266 1.87a27.148 27.148 0 0 1-4.735 5.869c-2.296 1.914-4.545 1.881-7.657 1.834-.668-.01-1.353-.02-2.057-.01a45.813 45.813 0 0 0-11.468 1.69 3.635 3.635 0 0 0-2.653 3.295l-.119 1.986a3.635 3.635 0 0 0 .953 2.675l2.818 3.067a3.618 3.618 0 0 0 3.708 1.014c6.659-1.956 12.655-1.561 17.33 1.138 14.182 8.188 13.352 35.027 3.175 52.654a35.037 35.037 0 0 1-6.39 8.061 11.005 11.005 0 0 1-6.834 2.923zm11.867-66.785c-5.556-3.208-12.54-3.723-20.201-1.476l-2.808-3.05.108-2.003a42.013 42.013 0 0 1 10.552-1.558c.669-.01 1.318 0 1.952.009 3.298.049 6.71.096 10.039-2.678a29.736 29.736 0 0 0 5.439-6.64c.404-.606.808-1.212 1.227-1.81a4.142 4.142 0 0 1 7.154 4.13l-3.056 6.607a13.348 13.348 0 0 0-1.027 8.619 15.345 15.345 0 0 0 2.423 4.733c.301.449.6.89.864 1.338a35.391 35.391 0 0 1 2.98 5.762 48.64 48.64 0 0 1 2.69 11.055 62.186 62.186 0 0 1-7.535 38.213 44.594 44.594 0 0 1-24.716 20.276 1.72 1.72 0 0 1-1.371-.123 1.817 1.817 0 0 1-.88-1.137l-1.353-4.999a3.742 3.742 0 0 1 3.396-4.71l2.463-.145a14.64 14.64 0 0 0 9.112-3.897 38.735 38.735 0 0 0 7.054-8.9c11.246-19.478 11.704-48.258-4.506-57.616z"/><path d="M95.401 24.711a1.817 1.817 0 0 0-2.482.665l-.603 1.044a5.599 5.599 0 0 1-2.208 2.183 1.817 1.817 0 0 0 .76 3.549 3.271 3.271 0 0 0 1.039-.39 9.123 9.123 0 0 0 3.557-3.525l.602-1.044a1.817 1.817 0 0 0-.665-2.482z"/></g></svg>