<svg xmlns="http://www.w3.org/2000/svg" width="128" height="128"><path d="M94.656 12.303C74.22 12.303 64 29.602 64 29.602S53.78 12.305 33.344 12.305c-9.775 0-28.364 8.875-28.364 32.933 0 42.437 59.02 70.46 59.02 70.46s59.02-28.023 59.02-70.46c0-24.06-18.589-32.933-28.364-32.935zM43.78 38.76c3.081 0 5.546.956 7.39 2.867 1.855 1.911 2.782 4.568 2.782 7.973 0 3.376-.918 6.02-2.754 7.931-1.835 1.902-4.288 2.854-7.36 2.854-3.109 0-5.582-.948-7.417-2.84-1.835-1.902-2.754-4.517-2.754-7.846 0-2.13.32-3.918.957-5.363a9.911 9.911 0 0 1 1.94-2.867c.827-.847 1.73-1.474 2.71-1.883 1.303-.552 2.804-.826 4.506-.826zm22.71 0c3.08 0 5.545.956 7.39 2.867 1.854 1.911 2.781 4.568 2.781 7.973 0 3.376-.918 6.02-2.754 7.931-1.835 1.902-4.288 2.854-7.36 2.854-3.109 0-5.582-.948-7.417-2.84-1.835-1.902-2.754-4.517-2.754-7.846 0-2.13.32-3.918.957-5.363a9.911 9.911 0 0 1 1.94-2.867c.827-.847 1.73-1.474 2.71-1.883 1.303-.552 2.804-.826 4.506-.826zm20.769 0c2.624 0 4.598.574 5.92 1.724 1.331 1.151 2.03 2.687 2.097 4.608l-4.222.185c-.18-1.074-.571-1.844-1.17-2.31-.59-.476-1.48-.713-2.668-.713-1.227 0-2.187.252-2.881.756-.447.323-.67.757-.67 1.299 0 .494.209.917.627 1.27.533.446 1.827.91 3.88 1.396 2.055.485 3.57.99 4.55 1.513.989.514 1.759 1.222 2.31 2.125.561.894.842 2 .842 3.323 0 1.198-.332 2.32-.998 3.367-.666 1.046-1.607 1.826-2.824 2.34-1.217.504-2.735.755-4.551.755-2.644 0-4.673-.609-6.09-1.826-1.417-1.226-2.263-3.01-2.539-5.35l4.108-.398c.247 1.38.746 2.39 1.498 3.037.76.647 1.782.971 3.066.971 1.36 0 2.382-.285 3.066-.855.695-.58 1.043-1.256 1.043-2.026 0-.494-.148-.913-.443-1.256-.285-.352-.789-.655-1.512-.912-.494-.171-1.621-.476-3.38-.914-2.264-.56-3.851-1.25-4.764-2.068-1.284-1.15-1.926-2.553-1.926-4.207 0-1.065.3-2.06.898-2.983.609-.932 1.478-1.64 2.61-2.125 1.14-.485 2.516-.726 4.123-.726zm-73.832.355h8.36c1.654 0 2.884.072 3.693.215a5.313 5.313 0 0 1 2.183.856c.647.437 1.184 1.021 1.611 1.753.428.723.643 1.536.643 2.44 0 .98-.266 1.88-.799 2.697a4.863 4.863 0 0 1-2.14 1.84c1.274.37 2.254 1.003 2.939 1.896.685.894 1.025 1.945 1.025 3.153 0 .95-.223 1.878-.67 2.781-.437.894-1.04 1.612-1.81 2.154-.76.533-1.702.861-2.824.985-.704.076-2.403.123-5.094.142h-7.117V39.115zm84.531 0h16.617v3.537h-6.191v17.375h-4.22V42.652h-6.206v-3.537zm-54.135 3.252c-1.74 0-3.142.6-4.207 1.799-1.065 1.189-1.597 2.985-1.597 5.39 0 2.369.547 4.166 1.64 5.393 1.094 1.217 2.481 1.826 4.164 1.826 1.683 0 3.062-.604 4.137-1.812 1.084-1.217 1.627-3.038 1.627-5.463 0-2.396-.528-4.184-1.584-5.363-1.046-1.18-2.44-1.77-4.18-1.77zm22.71 0c-1.741 0-3.143.6-4.208 1.799-1.065 1.189-1.597 2.985-1.597 5.39 0 2.369.547 4.166 1.64 5.393 1.094 1.217 2.481 1.826 4.164 1.826 1.683 0 3.062-.604 4.137-1.812 1.084-1.217 1.627-3.038 1.627-5.463 0-2.396-.529-4.184-1.584-5.363-1.046-1.18-2.44-1.77-4.18-1.77zm-48.884.229v4.836h2.768c1.645 0 2.667-.023 3.066-.07.723-.086 1.289-.334 1.698-.743.418-.418.627-.965.627-1.64 0-.647-.18-1.17-.541-1.569-.352-.409-.88-.656-1.584-.742-.419-.048-1.622-.072-3.61-.072h-2.424zm0 8.316v5.592h3.909c1.521 0 2.485-.043 2.894-.129.628-.114 1.138-.389 1.528-.826.399-.447.6-1.042.6-1.783 0-.628-.154-1.16-.458-1.598-.304-.437-.746-.755-1.326-.955-.57-.2-1.817-.3-3.738-.3h-3.409zm25.69 17.418h6.318l3.795 14.264 3.752-14.264h6.334v20.91h-3.924V72.78l-4.15 16.46h-4.067L47.26 72.78v16.46h-3.922V68.33zm24.42 0h15.506v3.537H71.98v4.635h10.5v3.523h-10.5v5.692h11.684v3.523H67.758V68.33z" fill="#fff"/></svg>