<svg xmlns="http://www.w3.org/2000/svg" xmlns:xlink="http://www.w3.org/1999/xlink" style="isolation:isolate" width="128" height="128"><defs><linearGradient id="a"><stop offset="0" stop-color="#bc3400"/><stop offset="1" stop-color="#ff8050"/></linearGradient><linearGradient xlink:href="#a" id="b" gradientUnits="userSpaceOnUse" gradientTransform="translate(9.032 -7.145)" x1="-6.068" y1="117.021" x2="92.569" y2="29.732"/><clipPath id="c"><path d="M-45.534 209.35l29.33 16.933v33.867l-29.33 16.933-29.33-16.933v-33.867z" fill-opacity=".506" stroke="#fff" stroke-width="2.117" stroke-opacity=".502"/></clipPath></defs><path d="M18.496 16.752v95.235l6.996 7.322H108.2s-10.577-11.648 0-20.055V8.22l-83.349.14z" style="isolation:isolate" fill="url(#b)"/><path d="M105.815 101.55a5.106 5.106 0 0 0 4.297-5.034V11.09a5.104 5.104 0 0 0-5.099-5.098H29.784c-6.56 0-11.896 5.337-11.896 11.896v92.224c0 6.56 5.337 11.896 11.896 11.896h75.23a5.104 5.104 0 0 0 5.098-5.098 5.106 5.106 0 0 0-4.297-5.035 7.924 7.924 0 0 1 0-10.324zm-5.183 3.463s-.374 2.017 0 3.4c0 0 .539 2.319 1.083 3.398h-71.93c-.938 0-1.7-.762-1.7-1.7v-6.798c0-.936.762-1.699 1.7-1.699h71.93c-.544 1.08-1.083 3.4-1.083 3.4zm6.08-93.923V91.71a5.077 5.077 0 0 0-1.699-.291h-73.53V9.39h73.53c.938 0 1.7.762 1.7 1.7zm-85.425 6.798c0-4.103 2.924-7.536 6.798-8.326v81.98a11.874 11.874 0 0 0-6.798 3.454zm83.726 100.721H29.784c-4.685 0-8.497-3.812-8.497-8.497v-6.798c0-4.686 3.812-8.497 8.497-8.497h75.23c.937 0 1.699.762 1.699 1.7 0 .936-.762 1.699-1.7 1.699H29.784a5.104 5.104 0 0 0-5.098 5.098v6.798a5.104 5.104 0 0 0 5.098 5.098h75.23c.937 0 1.699.762 1.699 1.7 0 .937-.762 1.699-1.7 1.699z" style="isolation:isolate" stroke="#000" stroke-width="2"/><path clip-path="url(#c)" d="M-45.534 209.35l29.33 16.933v33.867l-29.33 16.933-29.33-16.933v-33.867z" transform="rotate(-150 -10.662 124.172) scale(.93728)" stroke="#000" stroke-width="9.602" fill="none"/><path d="M68.96 31.536a18.759 18.759 0 0 0-18.76 18.76 18.759 18.759 0 0 0 18.76 18.758 18.759 18.759 0 0 0 18.758-18.759 18.759 18.759 0 0 0-18.759-18.759zm8.228 4.633c5.299 3.098 8.179 8.742 8.044 14.481H73.066a4.473 4.473 0 0 0-2.142-3.589zm-16.817.201l6.113 10.587a4.432 4.432 0 0 0-1.74 1.69 4.43 4.43 0 0 0-.59 2.004H52.69c-.077-2.903.572-5.87 2.13-8.57a16.238 16.238 0 0 1 5.553-5.71zm8.247 11.573a2.932 2.932 0 0 1 1.46.397 2.924 2.924 0 0 1 1.074 4.01 2.921 2.921 0 0 1-4.008 1.073 2.924 2.924 0 0 1-1.075-4.01 2.923 2.923 0 0 1 2.549-1.47zm2.313 6.753l5.693 9.874c-2.493 1.332-5.292 2.044-8.127 1.97a16.111 16.111 0 0 1-7.603-2.132l5.576-9.61a4.475 4.475 0 0 0 4.46-.102z"/></svg>