<svg xmlns="http://www.w3.org/2000/svg" width="128" height="128"><g transform="matrix(.1035 -.07895 .07895 .1035 -6.816 82.967)"><path d="M626.305 229.153h.077l-.077-40h-150c31.772 0-11.363 2 0 2 70 0 62 30 62 42.745 0 0-43.254 27.255-42.983 59.255 0 0-22.102 12.88-21.017 40 0 0-35.243 2.984-53.017-40-4.61-26.577 53.063-63.587 52.792-96.13.225-7.87-7.775-19.87-23.775-19.87h-30V163.66h-128l-18-14.508V101.4h489.372v47.753H714.66v-12h-88.355z" fill="#fff" stroke="#323232" stroke-width="20"/><path d="M1108.948 97.13v24.576h24.604V97.13z" fill="#323232"/><path d="M292.305 187.322c-19.898 10-44.712 11.864-74-12l-240.644 62.576c10 60-6 127.695 8 154 0 0 4.439 4.877 10 2 56-16 137.282-56.335 202.48-96.605 88-51.884 190.151-62.161 196.639-109.971z" fill="#fff" stroke="#323232" stroke-width="20"/><path d="M532.305 195.153l12 43.988h80v-43.988zm30.881 3.066h44.238c6.028 0 10.881 6.25 10.881 13.29v3.177c0 7.04-4.853 15.224-10.88 15.224h-44.239c-6.028 0-10.88-7.271-10.88-14.312v-3.176c0-7.041 4.852-14.203 10.88-14.203z" fill="#323232"/><path d="M580.305 197.153c-12.881 18.915 3.932 28.508 0 31.084-15.458-4-12.915-23.084-12.915-23.084-2.305-5.356-9.085-8-9.085-8zM618.305 205.153v18h-12c1.763-8 8-18 8-18zM418.203 153.618h212.203v8H418.203z" fill="#323232"/><path d="M452.276 120.37h149.821c2.698 0 4.87 2.49 4.87 5.584 0 3.093-2.172 5.583-4.87 5.583h-70.922c-3.989 8.934-15.955 8.934-19.944 0h-58.955c-2.698 0-4.87-2.49-4.87-5.583 0-3.094 2.172-5.584 4.87-5.584z" fill="#fff" stroke="#323232" stroke-width="8"/><circle cx="599.458" cy="125.605" r="12.78" fill="#323232"/><path fill="#fff" stroke="#323232" stroke-width="18.702" d="M649.291 160.816h41.791V440.55h-41.791z"/><path fill="#323232" d="M631.661 241.153h16v207h-16zM303.356 83.885l18.95-26c1.917-2.876 6-2 6-2l62 28v4h-86.95zM779.785 95.032c161.816 0 154.782 3.43 330.757 4.42v20.122H779.785zM1117.506 76.045h6c4 0 6 6 6 6v16h-16v-12c1.628-2.237 4-4 4-4z"/><circle r="8.013" cy="377.491" cx="53.839" fill="#323232"/><rect transform="rotate(84.171)" ry="3.909" rx="3.258" y="-20.429" x="378.395" height="7.818" width="26.06" fill="#323232"/><circle r="11.732" cy="211.438" cx="329.922" fill="#323232"/><path d="M789.787 111.05h280.518v47.9c-.271 2.033-2 2-2 2l-278.518 5.124z" fill="#fff" stroke="#323232" stroke-width="20"/><circle r="8.013" cy="169.663" cx="1012.378" fill="#323232"/><rect transform="rotate(86.244)" ry="3.909" rx="3.258" y="-1003.124" x="233.045" height="7.818" width="26.06" fill="#323232"/></g></svg>