<svg xmlns="http://www.w3.org/2000/svg" xmlns:xlink="http://www.w3.org/1999/xlink" width="192" height="192"><defs><linearGradient id="b"><stop stop-color="#1c0803" offset="0"/><stop stop-color="#8e3405" offset="1"/></linearGradient><linearGradient id="c"><stop offset="0" stop-color="#400000"/><stop offset="1" stop-color="#953737"/></linearGradient><linearGradient id="a"><stop stop-color="#212121" offset="0"/><stop stop-color="#949494" offset="1"/></linearGradient><clipPath id="k"><path d="M976-1056v156h124v-156z" fill="#b2b2b2" stroke-width="95.458"/></clipPath><clipPath id="g"><path d="M-863.208-528c-32.792 0-32.792 48 0 48H-560v-48z" fill-opacity=".566" stroke-width="1.257"/></clipPath><linearGradient id="d"><stop stop-color="#362618" offset="0"/><stop stop-color="#946941" offset=".482"/><stop stop-color="#3b140e" offset="1"/></linearGradient><clipPath id="i"><path d="M157.953 126.88a6.448 6.448 0 0 0-1.953.372c-5.72 1.845-10.255 7.727-15.973 7.992-5.202 0-7.803-3.467-13.873-3.467-6.07 0-6.938 6.793-13.875 6.793v10.407s6.44 0 6.44 6.937c0 4.336 2.185 11.271 8.255 10.404 2.414-.525 4.28-2.817 5.147-6.285 1.175-4.695 8.259-6.132 10.611-3.062 5.203 6.937 7.374 12.457 11.71 15.925 13.874 10.406 24.278 0 20.81-10.406-5.203-13.007-21.35-16.982-21.35-20.45 0-3.47 8.67-.001 10.405-3.47 1.13-2.259-.5-11.818-6.354-11.69zm-29.869 15.817a2.031 2.031 0 1 1 0 4.063 2.031 2.031 0 0 1 0-4.063zm30.465 15.91c1.462-.084 4.576 1.58 5.69 4.438 1.18 3.233-1.002 3.885-3.06 2.266-2.974-2.213-4.56-5.476-3.146-6.56.13-.084.307-.132.516-.144z" fill="#545454" stroke-width="1.301" stroke-linecap="square"/></clipPath><linearGradient xlink:href="#a" id="h" gradientUnits="userSpaceOnUse" x1="-807.584" y1="-563.108" x2="-630.366" y2="-464.595"/><linearGradient xlink:href="#b" id="j" gradientUnits="userSpaceOnUse" x1="115.443" y1="131.046" x2="183.403" y2="171.602"/><linearGradient xlink:href="#c" id="l" gradientUnits="userSpaceOnUse" x1="987.932" y1="-938.949" x2="1084.814" y2="-1019.22"/><clipPath id="e"><path d="M119.13 47.753c-8.612-7.8-8.33-8.892-12.716-18.528-4.027-8.413-21.602-6.146-21.602-6.146v104.078l31.217-.05z" fill="#787878" stroke-width=".217"/></clipPath><linearGradient xlink:href="#d" id="f" x1="125.081" y1="66.35" x2="60.452" y2="111.221" gradientUnits="userSpaceOnUse"/></defs><path d="M119.13 47.753c-8.612-7.8-8.33-8.892-12.716-18.528-4.027-8.413-21.602-6.146-21.602-6.146v104.078l31.217-.05z" clip-path="url(#e)" fill="url(#f)" stroke="#000" stroke-width="8.3"/><path d="M85.219 127.157l-3.469-5.203 3.469-1.734zM85.219 120.22l-3.469-5.203 3.469-1.734zM85.219 113.283l-3.469-5.203 3.469-1.734zM85.219 106.346l-3.469-5.203 3.469-1.734zM85.219 99.409l-3.469-5.203 3.469-1.734zM85.219 92.472l-3.469-5.203 3.469-1.735z"/><path d="M85.219 85.534l-3.469-5.202 3.469-1.735zM85.219 78.597l-3.469-5.202 3.469-1.735zM85.219 71.66l-3.469-5.202 3.469-1.735zM85.219 64.723L81.75 59.52l3.469-1.734zM85.219 57.786l-3.469-5.203 3.469-1.734z"/><path d="M85.219 50.85l-3.469-5.204 3.469-1.734zM85.219 43.912L81.75 38.71l3.469-1.734zM85.219 36.975l-3.469-5.203 3.469-1.734zM85.219 30.038l-3.469-5.203 3.469-1.734z"/><path clip-path="url(#g)" d="M-863.208-528c-32.792 0-32.792 48 0 48H-560v-48z" transform="matrix(0 .21678 -.21678 0 8.504 238.15)" fill="url(#h)" stroke="#000" stroke-width="38.287"/><path transform="rotate(90 130.266 131.27)" d="M157.953 126.88a6.448 6.448 0 0 0-1.953.372c-5.72 1.845-10.255 7.727-15.973 7.992-5.202 0-7.803-3.467-13.873-3.467-6.07 0-6.938 6.793-13.875 6.793v10.407s6.44 0 6.44 6.937c0 4.336 2.185 11.271 8.255 10.404 2.414-.525 4.28-2.817 5.147-6.285 1.175-4.695 8.259-6.132 10.611-3.062 5.203 6.937 7.374 12.457 11.71 15.925 13.874 10.406 24.278 0 20.81-10.406-5.203-13.007-21.35-16.982-21.35-20.45 0-3.47 8.67-.001 10.405-3.47 1.13-2.259-.5-11.818-6.354-11.69zm-29.869 15.817a2.031 2.031 0 1 1 0 4.063 2.031 2.031 0 0 1 0-4.063zm30.465 15.91c1.462-.084 4.576 1.58 5.69 4.438 1.18 3.233-1.002 3.885-3.06 2.266-2.974-2.213-4.56-5.476-3.146-6.56.13-.084.307-.132.516-.144z" clip-path="url(#i)" fill="url(#j)" stroke="#000" stroke-width="8.3" stroke-linecap="square"/><circle cx="-104.239" cy="-126.908" r="1.439" transform="scale(-1)"/><circle transform="scale(-1)" r="1.439" cy="-158.535" cx="-127.73"/><path transform="matrix(0 -.07408 .07408 0 190.28 189.99)" clip-path="url(#k)" d="M976-1056v156h124v-156z" fill="url(#l)" stroke="#000" stroke-width="90"/><path d="M89.859 124.068V48" fill="none" stroke="#000" stroke-width="4.019" stroke-opacity=".561"/></svg>