<svg xmlns="http://www.w3.org/2000/svg" width="128" height="128"><path d="M56.925 13.056c4.38.017 8.733.448 12.91 1.159 21.17 3.603 33.104 13.052 39.543 26.321-7.62-.594-15.135-1.226-22.45-1.18-5.886.036-11.643.511-17.22 1.798-3.698.855-6.017 4.064-6.739 7.747-.72 3.683-.209 8.036 1.234 12.585l.07.22.115.202c1.895 3.33 5.923 5.98 11.057 8.787 5.134 2.806 11.399 5.54 17.642 7.916 6.243 2.376 12.452 4.389 17.472 5.72 1.77.47 3.381.85 4.818 1.138-.556 7.599-1.602 15.472-2.932 23.43C78.241 99.56 45.681 89.397 13.944 78.81 7.613 67.958 6.638 57.708 9.802 47.874c5.466-16.992 14.866-26.132 25.684-30.8 6.761-2.917 14.137-4.044 21.438-4.018zM97.01 44.078c2.211.124 4.458.282 6.72.448l10.58 36.213a89.455 89.455 0 0 1-2.624-.654c-.978-.26-2.02-.554-3.09-.867-2.447-7.585-10.57-32.08-11.586-35.14zm11.4.796c2.653.202 5.327.404 8.033.578.078.11.174.232.322.554.385.842.823 2.299 1.199 4.082.75 3.567 1.31 8.478 1.636 13.397.326 4.918.423 9.87.292 13.568-.066 1.848-.193 3.394-.352 4.384-.012.075-.02.076-.032.144-.112-.002-.252-.01-.377-.016zm-34.302.13c3.807 0 6.996 3.071 6.996 6.872 0 3.801-3.189 6.873-6.996 6.873-3.807 0-6.996-3.072-6.996-6.873 0-3.8 3.189-6.872 6.996-6.872zm0 4.394c-1.494 0-2.602 1.115-2.602 2.478 0 1.364 1.108 2.48 2.602 2.48 1.494 0 2.602-1.116 2.602-2.48 0-1.363-1.108-2.478-2.602-2.478zM17.917 84.761c30.223 10.006 61.249 19.618 93.772 28.487-.1.566-.198 1.13-.3 1.696-36.033-6.506-62.487-16.835-90.654-26.648a75.377 75.377 0 0 1-2.819-3.535z" fill="#fff"/></svg>