<svg xmlns="http://www.w3.org/2000/svg" width="128" height="128"><path d="M43.766 92.143l11.145-11.145s.989-1.085 2.833-.566c1.795.504 2.363 1.64 2.644 1.889 0 0 .469.21.897.2.56-.014 1.048-.762 1.048-.762l5.833-8.209c.464-.573-1.391-.638-1.391-.638l-3.279-3.303c-.62-.655.293-2.937.293-2.937l-6.623-6.623-.664-.664-24.636 24.636 1.322 1.322-1.133 1.889 6.422 6.422c1.023-.984 3.39-2.655 5.289-1.511zM54.967 105.2c1.047.746 1.34 1.276.196 1.889l-6.307 3.457s-2.065-9.613-2.423-15.043l-.756-.755 3.992-3.992 2.162 2.162 1.054 3.767s1.659.332 1.398.834l-.726 1.591z" fill="#fff" stroke="#323232" stroke-width="2.842"/><path d="M63.228 82.92l-9.43 9.432-4.554-4.554 2.026-1.374s-.704 1.563.618 2.886c.19.208.945.944 2.645.377l.189.19 4.722-4.723-.189-.189c.55-.704-.189-2.078-.189-2.078z" fill="#323232"/><path d="M70.233 76.61s3.949 3.257 6.086 4.543c2.518 1.517 7.634 3.194 6.942 3.655 0 0-3.493 8.469-4.052 8.178 0 0-4.735-1.958-7.937-4.162-1.596-1.098-6.145-4.815-6.145-4.815z" fill="#fff" stroke="#323232" stroke-width="2.842"/><path d="M67.293 63.327l20.343-20.342-7.367-7.367L59.926 55.96z" fill="#fff" fill-opacity=".985" stroke="#323232" stroke-width="2.842"/><path d="M38.157 87.318l5.705-5.635c.04-.117 1.237-2.37.635-2.966-.61-.605-3.041.47-3.12.55l-5.618 5.609.451.467-1.079 1.051s-.8.081-.689.307c.417.85 1.113 1.508 1.89 1.923.25.134.345-.732.345-.732l1.045-1.024z" fill="#323232"/><path d="M11.17 114.8c1.79.34 14.29 11.082 14.451 10.681l2.745-2.745c.454-.284-.389-1.496-.389-1.496l3.927-21.519 3.455-3.455-5.968-5.969L8.029 111.66zm5.347-1.163l2.356-2.356-.157-2.042 6.126-6.126c1.246.237 1.57 1.57 1.57 1.57l-1.368 13.59c-.679 1.121-1.707.896-1.975.66z" fill="#fff" stroke="#323232" stroke-width="2.842" stroke-opacity=".985"/><path d="M48.74 74.488l9.93-9.878-1.096-1.094s-.166-.233-.364-.201c-.184.03-.441.3-.441.3l-8.913 8.911s-.284.318-.32.529c-.029.173.102.303.102.303z" fill="#323232" stroke="#323232" stroke-width="1.069"/><path d="M65.496 64.635l1.134-2.267-5.527-5.527-2.456.945z" fill="#fff" stroke="#323232" stroke-width="1.603"/><path d="M91.736 72.06l3.778-3.778-1.89-1.889-3.777 3.778zM81.375 23.171a1.807 1.807 0 0 0-.463.848l.755 9.823 7.178 7.177c1.133 0 1.7-.566 1.7-1.7l-4.911-4.91v-.756l2.456-2.456h.755l5.1 5.1 3.022-3.022-.944-.945c-.884.218-1.7.945-1.7.945L83.745 22.697l-1.322-.189s-.594.184-1.048.663zM82.8 27.42l.755-.755 1.322 1.322c.19.118.378 0 .378 0l.567-.567 1.889 1.89-3.59 3.588s-.232.073-.377 0c-.308-.09-.378-.378-.378-.378z" fill="#323232"/><path d="M85.25 34.792l7.571-7.57 1.036.474 1.511 1.511.475 1.036-7.57 7.571c-.311.31-.898.224-1.317-.195l-1.51-1.51c-.42-.42-.506-1.006-.196-1.317zM94.04 23.358l21.85-21.85c.418-.418.903-.607 1.322-.189l4.533 4.534c.419.418.23.903-.189 1.322l-21.85 21.85c-.124.124-.944-.19-.944-.19l-.756.756-.944-.566-.567.566-3.022-3.022.567-.567-.567-.944.756-.756s-.335-.798-.19-.944zM39.668 73.36s-2.122-.663-3.589.188l-2.078 2.078c-.163.525 0 1.134 0 1.134l-1.7 1.7.378.377-1.51 1.511c.035.38.566.945.566.945zM58.828 53.942l.78-.78.792.792-.78.78zm1.346-1.345l.78-.78.791.791-.78.78zm1.388-1.389l.78-.78.792.792-.78.78zm1.374-1.373l.78-.78.791.792-.78.78zm1.337-1.337l.78-.78.791.792-.78.78zm1.42-1.421l.78-.78.792.792-.78.78zm1.421-1.421l.78-.78.792.792-.78.78zm1.35-1.35l.78-.78.792.792-.78.78zm1.372-1.372l.78-.78.793.79-.78.78zm1.362-1.362l.78-.78.792.792-.78.78zm1.373-1.373l.78-.78.792.792-.78.78zm1.373-1.373l.78-.78.792.792-.78.78zm1.374-1.373l.78-.78.792.792-.781.78zm1.41-1.41l.779-.78.791.792-.78.78zm1.312-1.312l.78-.78.792.792-.78.779zM57.503 55.267l.78-.78.792.792-.78.78z" fill="#323232"/><path d="M82.425 52.927l2.267 2.267-.613 1.22s-.298.602.402 1.133c1.99 1.913 5.847 5.172 7.736 7.816l-3.4 3.4c-2.644-1.889-5.936-5.714-7.809-7.716-.537-.71-1.067-.496-1.067-.496l-1.294.687-2.266-2.267z" fill="#fff" stroke="#323232" stroke-width="2.842"/><path d="M80.599 48.472c.023.03.195-.143.166-.172l-5.885-5.886c-.027-.034-.194.135-.158.163zm-2.644 2.644c.023.03.195-.144.167-.172l-5.886-5.887c-.028-.033-.194.135-.158.163zm-2.527 2.526c.023.03.195-.142.166-.17l-5.885-5.887c-.028-.034-.194.135-.158.163zM72.76 56.31c.023.03.196-.143.167-.172l-5.886-5.887c-.027-.033-.194.136-.158.163zm-2.579 2.58c.023.029.196-.144.168-.173l-5.886-5.886c-.028-.033-.194.136-.159.164z" fill="#fff" stroke="#323232" stroke-width="1.107"/><path fill="#323232" d="M62.702 55.829l.756-.756 4.533 4.533-.756.756zM39.86 72.911l.78-.78.79.792-.78.78zm1.336-1.337l.78-.78.792.792-.78.78zm1.421-1.42l.78-.78.791.791-.78.78zm1.421-1.422l.78-.78.792.792-.78.78zm1.35-1.35l.78-.78.791.792-.78.78zm1.372-1.372l.78-.78.792.791-.78.78zm1.362-1.361l.78-.78.792.79-.78.78zm1.373-1.373l.78-.78.791.792-.78.78zm1.373-1.373l.78-.78.792.791-.78.78zm1.373-1.374l.78-.78.792.792-.78.78zm1.41-1.41l.78-.779.791.792-.78.78zm1.313-1.312l.78-.78.791.792-.78.78zM68.541 63.655l.78-.78.792.792-.78.78zm1.346-1.345l.78-.78.791.791-.78.78zm1.388-1.389l.78-.78.792.792-.78.78zm1.374-1.373l.78-.78.791.792-.78.78zm9.635-9.636l.78-.78.792.792-.78.78zm1.373-1.373l.78-.78.792.792-.78.78zm1.374-1.373l.78-.78.792.791-.781.78zm1.41-1.41l.779-.78.791.792-.78.78zm1.312-1.312l.78-.78.791.792-.78.779zM67.216 64.98l.78-.78.792.792-.78.78zM51.478 86.145c.68 1.187 2.622 2.815 4.154 2.266.332-.235.274-.448.274-.448-1.802-.324-2.832-1.058-2.746-3.535z"/><path d="M83.301 45.77c.023.029.196-.144.167-.173l-5.885-5.886c-.028-.033-.194.136-.159.164z" fill="#fff" stroke="#323232" stroke-width="1.107"/><circle cx="-32.607" cy="91.5" r="1.213" transform="rotate(-45)" fill="#323232"/><circle r="1.162" cy="93.187" cx="-29.211" transform="rotate(-45)" fill="#323232"/></svg>