<svg xmlns="http://www.w3.org/2000/svg" width="128" height="128"><path d="M64 3.67L48.709 49.322l-48.145.434 38.694 28.65-14.463 45.924L64 96.38l39.203 27.95L88.74 78.406l38.696-28.648-48.145-.436L64 3.67zm0 14.62l11.826 35.308 37.237.336-29.928 22.158 11.185 35.517L64 89.994 33.678 111.61l11.185-35.517-29.925-22.158 37.236-.336L64 18.289z" fill="#fff"/><path d="M64 41.21l-6.498 19.4-20.46.185L53.487 72.97l-6.147 19.515L64 80.608l16.66 11.877-6.146-19.515 16.444-12.175-20.46-.185z" fill="#fff"/></svg>