<svg xmlns="http://www.w3.org/2000/svg" width="128" height="128"><path d="M114.68 13.215L42.358 54.97l3.907 6.767L64.05 51.469l1.687-2.554 42.681-24.643 1.87.501 8.3-4.791c-.372-1.34-2.864-5.842-3.907-6.767zM111.837 28.62l-1.185.685-1.87-.5-39.807 22.982-1.687 2.554-2.37 1.37 2.053 3.556s39.215-22.124 45.551-29.46z" fill="#fff" stroke="#323232" stroke-width="2.829"/><path d="M61.36 57.764l-16.598 9.583-5.569-9.645-6.077 7.77c7.32.472 10.296 8.853 10.296 8.853L63.414 61.32zM28.231 71.185c-9.539 11.861-16.94 21.412-18.641 38.206-.488 2.182-.876 5.033.82 5.555 1.954.693 5.983-1.681 9.47-3.358 1.817-.874 3.292-1.958 3.26-3.869-.22-11.013 3.816-21.468 15.47-30.004-1.368-5.15-5.883-7.652-10.379-6.53z" fill="#fff" stroke="#323232" stroke-width="2.829"/><path d="M49.96 82.888l-7.813 4.423c-3.685 1.933-10.13-2.3-10.13-2.3l1.739-2.225s4.07 3.77 7.214 2.646l7.58-4.351c1.223-.823 2.1-2.833 2.1-2.833.365-2.569-1.09-3.62-1.09-3.62-2.578-2.03-6.192-1.174-2.433-3.242 1.368-.228 3.687.983 4.454 2.015.183.27 2.049 3.18 1.032 5.994-.422 1.477-1.745 2.664-2.653 3.493z" fill="#323232"/><path d="M42.042 76.468c-.602 3.12 2.248 5.36 2.47 5.436.42.167 1.268.316 1.365.206-.206-.877-3.53-2.638-1.957-6.732zM39.658 77.762c-2.288 2.48-2.387 5.376-1.513 6.481.325.332.755.79.97.92.234.046.088-.18.013-.499-.575-2.439.41-5.066 2.54-7.885z" fill="#323232"/><path d="M28.533 65.203s-1.608.122-4.133.14c-.235 0-1.206.743-1.206.743-.695.805 1.869 3.54 1.869 3.54z" fill="#fff" fill-opacity=".965" stroke="#323232" stroke-width="2.829"/><path d="M28.426 70.976l4.313-5.082c4.004-1.744 9.666 4.938 10.557 8.42l-4.835 3.432c.892-2.902-5.306-9.013-10.035-6.77z" fill="#fff" stroke="#323232" stroke-width="2.829"/></svg>