<svg xmlns="http://www.w3.org/2000/svg" xmlns:xlink="http://www.w3.org/1999/xlink" style="isolation:isolate" width="128" height="128"><defs><linearGradient xlink:href="#a" id="d" gradientUnits="userSpaceOnUse" x1="62.329" y1="112.182" x2="20.644" y2="71.302" gradientTransform="translate(1.464 -204.49) scale(1.60479)"/><linearGradient xlink:href="#a" id="b" x1="13.998" y1="34.278" x2="42.672" y2="20.855" gradientUnits="userSpaceOnUse" gradientTransform="rotate(90 64 64)"/><linearGradient xlink:href="#a" id="c" gradientUnits="userSpaceOnUse" gradientTransform="matrix(1.9461 0 0 1.9461 -11.69 -234.708)" x1="24.165" y1="73.583" x2="55.673" y2="108.332"/><linearGradient id="a"><stop offset="0" stop-color="#741b00"/><stop offset="1" stop-color="#ff440a"/></linearGradient><linearGradient xlink:href="#a" id="e" x1="56" y1="57.627" x2="107.119" y2="91.254" gradientUnits="userSpaceOnUse"/></defs><path d="M101.248 18.12l7.958 7.192-1.054 9.204-11.507 11.99L80.539 32.79l13.614-12.272z" fill="url(#b)"/><circle transform="rotate(90)" cx="65.627" cy="-63.187" r="44.068" fill="url(#c)"/><circle r="36.339" cy="-63.051" cx="65.22" transform="rotate(90)" fill="url(#d)"/><path d="M102.446 41.662l4.75-4.75a11.39 11.39 0 0 0-16.108-16.109l-4.75 4.751a45.663 45.663 0 1 0 16.108 16.108zM88.881 27.187l4.296-4.296a8.437 8.437 0 0 1 11.932 11.932l-4.296 4.296a45.698 45.698 0 0 0-11.932-11.932zM32.919 95.08a42.705 42.705 0 1 1 60.4 0 42.758 42.758 0 0 1-60.4 0z" stroke="#000" stroke-width="2"/><path d="M97.473 27.843l2.684 2.684a1.477 1.477 0 0 0 2.089-2.088l-2.685-2.685a1.477 1.477 0 0 0-2.088 2.089z" stroke="#000" stroke-width="2"/><path d="M75.932 52.068L58.576 60.61 50.17 78.373l17.356-9.085z" fill="url(#e)"/><path d="M77.028 48.968L58.124 59.296a1.486 1.486 0 0 0-.59.59L47.206 78.79a1.477 1.477 0 0 0 2.004 2.004l18.904-10.327a1.486 1.486 0 0 0 .59-.59l10.327-18.904a1.477 1.477 0 0 0-2.004-2.004zM66.318 68.08L52.212 75.79 59.92 61.68l14.108-7.709z" stroke="#000" stroke-width="2"/><path d="M89.443 91.203a37.198 37.198 0 0 0 2.298-2.53 37.058 37.058 0 0 0 8.422-20.267 20.657 20.657 0 0 0 .184-3.525 20.941 20.941 0 0 0-.183-3.524 37.056 37.056 0 0 0-8.423-20.274 35.99 35.99 0 0 0-4.821-4.821 37.056 37.056 0 0 0-20.274-8.423 20.947 20.947 0 0 0-3.524-.183 20.652 20.652 0 0 0-3.528.181 37.058 37.058 0 0 0-20.27 8.42 36.275 36.275 0 0 0-3.716 3.549 37.049 37.049 0 0 0-9.532 21.55 23.748 23.748 0 0 0-.004 6.993A37.056 37.056 0 0 0 34.5 88.676a35.993 35.993 0 0 0 4.822 4.821 37.056 37.056 0 0 0 20.327 8.43 23.751 23.751 0 0 0 6.995-.003 37.049 37.049 0 0 0 21.551-9.531c.429-.397.847-.79 1.248-1.19zm-3.39-.859L83.93 88.22a1.793 1.793 0 1 1 2.536-2.536l2.122 2.122a31.829 31.829 0 0 1-2.533 2.539zm2.497-6.746a4.746 4.746 0 1 0-6.711 6.712l1.92 1.92a34.098 34.098 0 0 1-15.895 6.574V96.1a4.746 4.746 0 0 0-9.492 0v2.703a34.097 34.097 0 0 1-15.895-6.573l1.92-1.92a4.746 4.746 0 0 0-6.712-6.712l-1.92 1.92a34.097 34.097 0 0 1-6.572-15.896h2.704a4.746 4.746 0 1 0 0-9.491l-2.703.003a34.098 34.098 0 0 1 6.576-15.897l1.922 1.922a4.746 4.746 0 0 0 6.712-6.712l-1.922-1.922a34.1 34.1 0 0 1 15.894-6.573v2.703a4.746 4.746 0 1 0 9.492 0l-.002-2.7a34.098 34.098 0 0 1 15.895 6.572l-1.92 1.92a4.746 4.746 0 0 0 6.712 6.712l1.92-1.92a34.098 34.098 0 0 1 6.573 15.895h-2.704a4.746 4.746 0 0 0 0 9.492h2.704a34.1 34.1 0 0 1-6.573 15.895zM61.322 99.087v-2.983a1.793 1.793 0 0 1 3.583.004v2.983a34.555 34.555 0 0 1-3.578-.004zm-22.437-9.972a31.89 31.89 0 0 1-1.231-1.304l2.121-2.122a1.793 1.793 0 0 1 2.536 2.536l-2.122 2.121a31.725 31.725 0 0 1-1.304-1.231zm-9.973-26.028h2.984a1.837 1.837 0 0 1 1.793 1.793 1.795 1.795 0 0 1-1.79 1.79h-2.983a34.555 34.555 0 0 1-.004-3.583zM40.19 39.413l2.124 2.125a1.793 1.793 0 0 1-2.533 2.533l-2.124-2.125a31.829 31.829 0 0 1 2.533-2.533zm24.726-8.737v2.983a1.795 1.795 0 0 1-1.79 1.79 1.837 1.837 0 0 1-1.793-1.794v-2.983a34.535 34.535 0 0 1 3.58.001zm22.44 9.97c.422.422.833.859 1.23 1.304l-2.12 2.121a1.793 1.793 0 0 1-2.536-2.535l2.122-2.122c.445.398.88.81 1.303 1.232zm9.972 26.027h-2.983a1.837 1.837 0 0 1-1.794-1.794 1.795 1.795 0 0 1 1.79-1.79h2.983a34.535 34.535 0 0 1 .004 3.584z" stroke="#000" stroke-width="2"/></svg>