<?xml version="1.0" encoding="UTF-8" standalone="no"?>
<svg
   xmlns:dc="http://purl.org/dc/elements/1.1/"
   xmlns:cc="http://creativecommons.org/ns#"
   xmlns:rdf="http://www.w3.org/1999/02/22-rdf-syntax-ns#"
   xmlns:svg="http://www.w3.org/2000/svg"
   xmlns="http://www.w3.org/2000/svg"
   xmlns:sodipodi="http://sodipodi.sourceforge.net/DTD/sodipodi-0.dtd"
   xmlns:inkscape="http://www.inkscape.org/namespaces/inkscape"
   width="128"
   height="128"
   version="1.1"
   id="svg21"
   sodipodi:docname="perk-5.svg"
   inkscape:version="0.92.2 (5c3e80d, 2017-08-06)">
  <metadata
     id="metadata25">
    <rdf:RDF>
      <cc:Work
         rdf:about="">
        <dc:format>image/svg+xml</dc:format>
        <dc:type
           rdf:resource="http://purl.org/dc/dcmitype/StillImage" />
      </cc:Work>
    </rdf:RDF>
  </metadata>
  <sodipodi:namedview
     pagecolor="#ffffff"
     bordercolor="#666666"
     borderopacity="1"
     objecttolerance="10"
     gridtolerance="10"
     guidetolerance="10"
     inkscape:pageopacity="0"
     inkscape:pageshadow="2"
     inkscape:window-width="1920"
     inkscape:window-height="1017"
     id="namedview23"
     showgrid="false"
     inkscape:zoom="1.3037281"
     inkscape:cx="-26.315928"
     inkscape:cy="166.70368"
     inkscape:window-x="1912"
     inkscape:window-y="-8"
     inkscape:window-maximized="1"
     inkscape:current-layer="svg21" />
  <defs
     id="defs7">
    <linearGradient
       id="a">
      <stop
         offset="0"
         stop-color="#9b9b9b"
         id="stop2" />
      <stop
         offset="1"
         stop-color="#fff"
         id="stop4" />
    </linearGradient>
  </defs>
  <path
     style="fill:#ffffff;fill-opacity:1;stroke-width:0.27979442"
     d="M 76.626334,3.3924482 C 58.898986,3.4811993 35.746423,32.835644 41.03649,64.576042 c 1.692821,7.406093 6.731223,17.479699 13.003907,22.625 -9.325932,-1.179575 -20.681641,-14.871094 -20.681641,-14.871094 0,0 -13.701172,5.395426 -13.701172,21.265625 0.846411,10.368527 17.694381,27.742077 31.660156,29.646487 0,0 41.398489,9.37519 50.62695,-20.9961 C 120.53789,41.057995 93.678576,6.0391541 83.686881,4.029167 81.560296,3.601237 79.166881,3.3797287 76.626334,3.3924482 Z M 67.66116,24.406749 c 3.669016,8.23e-4 6.642834,2.975514 6.642578,6.644531 -8.22e-4,3.668254 -2.974324,6.641756 -6.642578,6.642579 -3.669018,2.56e-4 -6.64371,-2.973562 -6.644532,-6.642579 -2.56e-4,-3.66978 2.974752,-6.644788 6.644532,-6.644531 z m 18.033864,30.373279 c 5.391021,5.48e-4 9.761171,4.370697 9.761719,9.761718 5.31e-4,5.391784 -4.369935,9.763124 -9.761719,9.763672 -5.392547,5.31e-4 -9.764202,-4.371125 -9.763672,-9.763672 5.49e-4,-5.391784 4.371888,-9.762249 9.763672,-9.761718 z M 39.050162,90.033073 c 2.99552,-5.5e-5 5.423883,2.428308 5.423828,5.423828 5.6e-5,2.995521 -2.428307,5.423879 -5.423828,5.423829 -2.995521,5e-5 -5.423884,-2.428308 -5.423828,-5.423829 -5.5e-5,-2.99552 2.428308,-5.423883 5.423828,-5.423828 z m 26.983349,10.034097 c 4.418279,0 8.000001,3.58172 8,8 10e-7,4.41828 -3.581721,8 -8,8 -4.418278,0 -8,-3.58172 -8,-8 0,-4.41828 3.581722,-8 8,-8 z"
     id="path2"
     inkscape:connector-curvature="0"
     sodipodi:nodetypes="scccccccscccccccccccccccssscs" />
  <g
     transform="matrix(0.40525085,0,0,0.40525085,170.15336,-18.215813)"
     id="g18" />
  <g
     transform="matrix(0.40525085,0,0,0.40525085,170.15336,-18.215813)"
     id="g20" />
  <g
     transform="matrix(0.40525085,0,0,0.40525085,170.15336,-18.215813)"
     id="g22" />
  <g
     transform="matrix(0.40525085,0,0,0.40525085,170.15336,-18.215813)"
     id="g24" />
  <g
     transform="matrix(0.40525085,0,0,0.40525085,170.15336,-18.215813)"
     id="g26" />
  <g
     transform="matrix(0.40525085,0,0,0.40525085,170.15336,-18.215813)"
     id="g28" />
  <g
     transform="matrix(0.40525085,0,0,0.40525085,170.15336,-18.215813)"
     id="g30" />
  <g
     transform="matrix(0.40525085,0,0,0.40525085,170.15336,-18.215813)"
     id="g32" />
  <g
     transform="matrix(0.40525085,0,0,0.40525085,170.15336,-18.215813)"
     id="g34" />
  <g
     transform="matrix(0.40525085,0,0,0.40525085,170.15336,-18.215813)"
     id="g36" />
  <g
     transform="matrix(0.40525085,0,0,0.40525085,170.15336,-18.215813)"
     id="g38" />
  <g
     transform="matrix(0.40525085,0,0,0.40525085,170.15336,-18.215813)"
     id="g40" />
  <g
     transform="matrix(0.40525085,0,0,0.40525085,170.15336,-18.215813)"
     id="g42" />
  <g
     transform="matrix(0.40525085,0,0,0.40525085,170.15336,-18.215813)"
     id="g44" />
  <g
     transform="matrix(0.40525085,0,0,0.40525085,170.15336,-18.215813)"
     id="g46" />
</svg>
