<svg xmlns="http://www.w3.org/2000/svg" xmlns:xlink="http://www.w3.org/1999/xlink" style="isolation:isolate" width="128" height="128"><defs><linearGradient id="a"><stop offset="0" stop-color="#480d00"/><stop offset="1" stop-color="#b41c00"/></linearGradient><linearGradient id="b"><stop offset="0" stop-color="#741500"/><stop offset="1" stop-color="#f22500"/></linearGradient><linearGradient xlink:href="#a" id="c" x1="38.486" y1="112.902" x2="57.685" y2="64.826" gradientUnits="userSpaceOnUse" gradientTransform="matrix(0 2.23214 -2.23214 0 260.731 -24.68)"/><linearGradient xlink:href="#b" id="d" x1="4.602" y1="63.546" x2="120.04" y2="29.604" gradientUnits="userSpaceOnUse"/></defs><path d="M64 13.455A50.545 50.545 0 0 0 13.455 64 50.545 50.545 0 0 0 64 114.545 50.545 50.545 0 0 0 114.545 64 50.545 50.545 0 0 0 64 13.455zm0 32.12A18.425 18.425 0 0 1 82.426 64 18.425 18.425 0 0 1 64 82.426 18.425 18.425 0 0 1 45.574 64 18.425 18.425 0 0 1 64 45.574z" fill="url(#c)"/><path d="M11.889 69.13c21.017 16.407 32.588-.542 32.588-.542 3.526-32.543 38.783-23.365 37.02-.992 20.746 19.661 33.75.384 33.75.384S115.524 16.71 64 13.455c0 0-48.179-.46-52.111 55.675z" fill="url(#d)"/><g stroke="#000" stroke-width="9.639"><path d="M45.004 31.99a1.658 1.658 0 0 0 2.352 0c.649-.649.649-1.701 0-2.35l-4.784-4.784a1.662 1.662 0 1 0-2.351 2.35z" stroke-width="2.0000924999999996"/><path d="M101.562 26.438C91.529 16.405 78.189 10.88 64 10.88c-14.189 0-27.529 5.525-37.562 15.558C16.405 36.471 10.88 49.811 10.88 64c0 14.189 5.525 27.529 15.558 37.562C36.471 111.595 49.811 117.12 64 117.12c14.189 0 27.529-5.525 37.562-15.558C111.595 91.529 117.12 78.189 117.12 64c0-14.189-5.525-27.529-15.558-37.562zM99.21 99.211c-9.405 9.405-21.91 14.585-35.21 14.585-13.301 0-25.806-5.18-35.211-14.585-6.833-6.833-11.433-15.301-13.44-24.522a23.346 23.346 0 0 0 13.726 4.471c6.344 0 12.259-2.508 16.624-6.965 3.14 6.983 10.16 11.858 18.3 11.858s15.161-4.875 18.3-11.858c4.366 4.457 10.28 6.965 16.624 6.965 4.967 0 9.77-1.593 13.726-4.471-2.007 9.22-6.607 17.69-13.44 24.522zM47.27 64c0-9.224 7.505-16.728 16.729-16.728S80.728 54.776 80.728 64c0 9.224-7.504 16.728-16.728 16.728-9.224 0-16.728-7.504-16.728-16.728zm51.653 11.835c-6.017 0-11.585-2.632-15.4-7.247.345-1.474.53-3.01.53-4.588 0-11.057-8.996-20.053-20.054-20.053-11.057 0-20.053 8.996-20.053 20.053 0 1.578.184 3.114.53 4.588-3.816 4.615-9.384 7.247-15.4 7.247a20.022 20.022 0 0 1-14.566-6.3A50.613 50.613 0 0 1 14.205 64c0-13.301 5.18-25.806 14.584-35.21C38.195 19.383 50.7 14.204 64 14.204c13.3 0 25.806 5.18 35.21 14.584 9.406 9.406 14.585 21.91 14.585 35.211 0 1.863-.105 3.71-.306 5.536a20.023 20.023 0 0 1-14.565 6.3z" stroke-width="2.0000924999999996"/><path d="M34.812 41.114a1.658 1.658 0 0 0 2.351 0c.65-.649.65-1.701 0-2.35L32.38 33.98a1.662 1.662 0 1 0-2.351 2.35zM22.841 62.16a1.662 1.662 0 1 0-2.35 2.35l4.783 4.784a1.658 1.658 0 0 0 2.351 0c.65-.65.65-1.702 0-2.35zM25.233 46.432a1.662 1.662 0 1 0-2.351 2.35l4.784 4.784a1.658 1.658 0 0 0 2.35 0c.65-.649.65-1.701 0-2.35zM60.411 17.68a1.662 1.662 0 0 0-2.35 0l-4.784 4.784a1.662 1.662 0 1 0 2.351 2.35l4.784-4.783a1.663 1.663 0 0 0 0-2.351zM91.27 62.16a1.662 1.662 0 1 0-2.35 2.35l4.783 4.784c.324.325.75.487 1.175.487a1.662 1.662 0 0 0 1.175-2.838zM91.822 56.445a1.662 1.662 0 0 0 1.175-2.838l-4.783-4.783a1.662 1.662 0 1 0-2.351 2.35l4.784 4.784c.324.325.75.487 1.175.487zM94.987 33.936l-4.784 4.784a1.662 1.662 0 1 0 2.351 2.35l4.784-4.783a1.662 1.662 0 1 0-2.351-2.35zM84.948 29.522a1.663 1.663 0 0 0-2.351 0l-4.784 4.784a1.662 1.662 0 1 0 2.351 2.35l4.784-4.783c.65-.649.65-1.702 0-2.351zM38.417 54.05l-4.784 4.785a1.662 1.662 0 1 0 2.351 2.35l4.784-4.783a1.662 1.662 0 1 0-2.351-2.351zM105.522 54.054a1.662 1.662 0 0 0 1.175-2.838l-4.784-4.784a1.662 1.662 0 1 0-2.35 2.351l4.784 4.784c.324.324.75.487 1.175.487zM108.055 59.768l-4.784 4.784a1.662 1.662 0 1 0 2.352 2.35l4.784-4.783a1.662 1.662 0 1 0-2.352-2.351zM47.22 38.72l-4.784 4.783a1.662 1.662 0 1 0 2.351 2.351l4.784-4.783a1.662 1.662 0 1 0-2.351-2.351zM63.168 32.031a1.662 1.662 0 1 0-2.35 2.35l4.783 4.784c.325.325.75.487 1.176.487a1.662 1.662 0 0 0 1.175-2.838zM74.406 20.072l-4.784 4.783a1.662 1.662 0 1 0 2.352 2.351l4.783-4.784a1.662 1.662 0 1 0-2.351-2.35z" stroke-width="2.0000924999999996"/></g></svg>