<svg xmlns="http://www.w3.org/2000/svg" width="128" height="128"><g fill="#fff"><path d="M41.628 3.633c-4.664-1.592-12.223 8.187-15.863 18.848l16.888 5.765c3.64-10.661 3.638-23.02-1.025-24.613zM28.402 78.905L43.29 35.292a2.617 2.617 0 0 0-1.63-3.322l-17.385-5.935a2.617 2.617 0 0 0-3.322 1.631L6.065 71.28a3.204 3.204 0 1 0-2.07 6.064l22.337 7.626a3.206 3.206 0 0 0 4.067-1.997 3.205 3.205 0 0 0-1.997-4.067zM13.06 63.68l9.834-28.806a1.921 1.921 0 1 1 3.638 1.242L16.7 64.922a1.916 1.916 0 0 1-2.44 1.198 1.922 1.922 0 0 1-1.199-2.44zM86.917 25.988c-4.153-2.652-13.816 5.054-19.88 14.548l15.038 9.606c6.065-9.494 8.995-21.5 4.842-24.154zM56.214 95.974l24.809-38.836a2.617 2.617 0 0 0-.796-3.614l-15.481-9.89a2.617 2.617 0 0 0-3.614.797L36.323 83.268a3.204 3.204 0 1 0-3.45 5.4l19.891 12.706a3.206 3.206 0 0 0 4.426-.975 3.205 3.205 0 0 0-.976-4.425zm-11.292-18.43l16.386-25.65a1.921 1.921 0 1 1 3.24 2.07l-16.386 25.65a1.916 1.916 0 0 1-2.655.585 1.922 1.922 0 0 1-.585-2.654z"/><g><path d="M125.074 56.918c-3.515-3.454-14.561 2.089-22.457 10.125l12.729 12.507c7.895-8.036 13.243-19.179 9.728-22.632zM80.572 119.048l32.299-32.872a2.617 2.617 0 0 0-.033-3.7L99.735 69.601a2.617 2.617 0 0 0-3.7.033l-32.299 32.872a3.204 3.204 0 1 0-4.491 4.57l16.836 16.543a3.206 3.206 0 0 0 4.531-.04 3.205 3.205 0 0 0-.04-4.53zm-7.24-20.365l21.332-21.711a1.921 1.921 0 1 1 2.743 2.694l-21.333 21.711a1.916 1.916 0 0 1-2.718.024 1.922 1.922 0 0 1-.024-2.718z"/></g></g></svg>