<?xml version="1.0" encoding="UTF-8" standalone="no"?>
<!-- Created with Inkscape (http://www.inkscape.org/) -->

<svg
   width="128"
   height="128"
   viewBox="0 0 33.866666 33.866668"
   version="1.1"
   id="svg5"
   inkscape:version="1.1.2 (b8e25be833, 2022-02-05)"
   sodipodi:docname="armor_piercing.svg"
   xmlns:inkscape="http://www.inkscape.org/namespaces/inkscape"
   xmlns:sodipodi="http://sodipodi.sourceforge.net/DTD/sodipodi-0.dtd"
   xmlns="http://www.w3.org/2000/svg"
   xmlns:svg="http://www.w3.org/2000/svg">
  <sodipodi:namedview
     id="namedview7"
     pagecolor="#585858"
     bordercolor="#999999"
     borderopacity="1"
     inkscape:pageshadow="0"
     inkscape:pageopacity="0"
     inkscape:pagecheckerboard="true"
     inkscape:document-units="px"
     showgrid="false"
     units="px"
     inkscape:zoom="8"
     inkscape:cx="78.5625"
     inkscape:cy="58.5"
     inkscape:window-width="2560"
     inkscape:window-height="1377"
     inkscape:window-x="-8"
     inkscape:window-y="-8"
     inkscape:window-maximized="1"
     inkscape:current-layer="layer1" />
  <defs
     id="defs2">
    <inkscape:path-effect
       effect="perspective-envelope"
       up_left_point="-2.8532515,80.332132"
       up_right_point="84.423547,79.116056"
       down_left_point="9.307512,115.22417"
       down_right_point="78.810887,114.28872"
       id="path-effect15801"
       is_visible="true"
       lpeversion="1"
       deform_type="perspective"
       horizontal_mirror="false"
       vertical_mirror="false"
       overflow_perspective="false" />
    <inkscape:path-effect
       effect="perspective-envelope"
       up_left_point="55.167641,98.128233"
       up_right_point="82.641215,102.71191"
       down_left_point="55.448274,154.97417"
       down_right_point="82.267038,159.37075"
       id="path-effect15723"
       is_visible="true"
       lpeversion="1"
       deform_type="perspective"
       horizontal_mirror="false"
       vertical_mirror="false"
       overflow_perspective="false" />
    <inkscape:path-effect
       effect="perspective-envelope"
       up_left_point="-0.70113454,103.45974"
       up_right_point="51.525432,98.127713"
       down_left_point="-0.23341286,158.90303"
       down_right_point="51.338343,155.16126"
       id="path-effect15146"
       is_visible="true"
       lpeversion="1"
       deform_type="perspective"
       horizontal_mirror="false"
       vertical_mirror="false"
       overflow_perspective="false" />
    <inkscape:path-effect
       effect="perspective-envelope"
       up_left_point="119.2766,138.39675"
       up_right_point="120.45222,138.39675"
       down_left_point="119.2766,140.42997"
       down_right_point="120.45222,140.42997"
       id="path-effect13703"
       is_visible="true"
       lpeversion="1"
       deform_type="perspective"
       horizontal_mirror="false"
       vertical_mirror="false"
       overflow_perspective="false" />
    <inkscape:path-effect
       effect="perspective-envelope"
       up_left_point="105.48607,173.89773"
       up_right_point="113.8406,169.66922"
       down_left_point="105.48607,225.60364"
       down_right_point="113.8406,221.61095"
       id="path-effect11727"
       is_visible="true"
       lpeversion="1"
       deform_type="perspective"
       horizontal_mirror="false"
       vertical_mirror="false"
       overflow_perspective="false" />
    <inkscape:path-effect
       effect="perspective-envelope"
       up_left_point="56.267361,123.66551"
       up_right_point="105.6875,138.53906"
       down_left_point="56.267361,153.00964"
       down_right_point="105.6875,167.88319"
       id="path-effect6313"
       is_visible="true"
       lpeversion="1"
       deform_type="perspective"
       horizontal_mirror="false"
       vertical_mirror="false"
       overflow_perspective="false" />
    <inkscape:path-effect
       effect="perspective-envelope"
       up_left_point="105.48607,173.89773"
       up_right_point="113.8406,169.66922"
       down_left_point="105.48607,225.60364"
       down_right_point="113.8406,221.61095"
       id="path-effect11727-3"
       is_visible="true"
       lpeversion="1"
       deform_type="perspective"
       horizontal_mirror="false"
       vertical_mirror="false"
       overflow_perspective="false" />
    <inkscape:path-effect
       effect="perspective-envelope"
       up_left_point="105.48607,173.89773"
       up_right_point="113.8406,169.66922"
       down_left_point="105.48607,225.60364"
       down_right_point="113.8406,221.61095"
       id="path-effect11727-3-1"
       is_visible="true"
       lpeversion="1"
       deform_type="perspective"
       horizontal_mirror="false"
       vertical_mirror="false"
       overflow_perspective="false" />
    <inkscape:path-effect
       effect="perspective-envelope"
       up_left_point="105.48607,173.89773"
       up_right_point="113.8406,169.66922"
       down_left_point="105.48607,225.60364"
       down_right_point="113.8406,221.61095"
       id="path-effect11727-9"
       is_visible="true"
       lpeversion="1"
       deform_type="perspective"
       horizontal_mirror="false"
       vertical_mirror="false"
       overflow_perspective="false" />
  </defs>
  <g
     inkscape:label="Layer 1"
     inkscape:groupmode="layer"
     id="layer1">
    <g
       aria-label="AP"
       id="text4396"
       style="font-size:22.5778px;line-height:1.25;stroke-width:0.264583"
       transform="matrix(0.63854123,0,0,0.63854123,29.270002,52.425759)" />
    <path
       id="rect846"
       style="fill:#ffffff;fill-opacity:1;fill-rule:evenodd;stroke-width:0.093454;stroke-linecap:round;stroke-linejoin:round;stroke-miterlimit:4;stroke-dasharray:none"
       d="m 2.2657303,10.746241 -1.505e-4,13.050707 18.2789362,5.724924 0.04366,-13.310869 z m 5.4000652,4.190038 1.6451121,0.515673 2.2042644,9.028472 L 9.9459327,23.984328 9.5321352,22.215148 7.384476,21.613803 7.0584878,23.083143 5.5687029,22.62024 Z m 4.6479235,1.377942 2.501425,0.78442 c 0.376013,0.102115 0.692643,0.235862 0.949876,0.4009 0.260022,0.162044 0.489582,0.363502 0.688681,0.60427 0.238988,0.289761 0.420886,0.579921 0.545508,0.964185 0.127265,0.384938 0.190623,0.717395 0.190076,1.207732 -4.24e-4,0.379898 -0.04733,0.739338 -0.14066,1.077994 -0.09327,0.33463 -0.226249,0.601041 -0.398811,0.799525 -0.236068,0.267746 -0.499634,0.446278 -0.790701,0.535496 -0.28815,0.08987 -0.647225,0.07475 -1.077267,-0.04508 l -0.944328,-0.263224 0.0029,2.832736 -1.509814,-0.461141 z m -3.877271,1.053475 -0.6984282,2.813378 1.4252326,0.396213 z m 5.396844,0.919433 0.0026,2.507705 0.434864,0.120216 c 0.25843,0.07151 0.470695,0.107578 0.636992,0.108182 0.169017,0.0014 0.310365,-0.05039 0.424012,-0.155311 0.09783,-0.09418 0.167874,-0.218695 0.210212,-0.373752 0.045,-0.158173 0.06755,-0.358705 0.06758,-0.601433 2.7e-5,-0.239012 -0.04486,-0.41489 -0.134871,-0.610379 -0.09001,-0.199279 -0.194546,-0.349422 -0.313643,-0.45036 -0.158758,-0.13455 -0.313578,-0.226332 -0.464275,-0.275146 -0.150642,-0.0526 -0.351494,-0.129514 -0.602307,-0.198122 z"
       sodipodi:nodetypes="cccccccccccccccccccsccccccccccccccccccscsccc" />
    <path
       id="rect846-2"
       style="fill:#ffffff;fill-opacity:1;fill-rule:evenodd;stroke-width:0.093454;stroke-linecap:round;stroke-linejoin:round;stroke-miterlimit:4;stroke-dasharray:none"
       d="M 11.940537,4.3447949 30.828798,9.9648181 21.158661,15.208344 2.2704005,9.5883251 Z"
       sodipodi:nodetypes="ccccc" />
    <path
       id="rect1542"
       style="fill:#ffffff;fill-opacity:1;fill-rule:evenodd;stroke-width:0.093454;stroke-linecap:round;stroke-linejoin:round;stroke-miterlimit:4;stroke-dasharray:none"
       d="m 31.601087,10.996096 -9.670133,5.243531 -4.6e-5,13.216162 9.670101,-5.071485 z m -2.965852,5.049246 c 0.0093,0.0038 0.01942,0.01646 0.02688,0.04717 0.01752,0.07248 0.143015,0.640287 0.143015,0.640287 l -0.191346,0.102551 -0.0044,0.0025 -0.191127,0.102319 c 0,0 0.129201,-0.7039 0.147198,-0.795471 0.01349,-0.06854 0.03507,-0.08877 0.04515,-0.09478 0.0014,-7.05e-4 0.0025,-0.0014 0.0035,-0.0017 0.0037,-0.0025 0.0084,-0.0053 0.01783,-0.0035 z m 0.191006,0.925255 c 0,0 0.08898,0.555529 0.09776,0.845906 0.0088,0.290206 0.01604,0.612682 0.01604,0.612682 l -0.333874,0.175858 -0.332872,0.175211 c 0,0 0.0093,-0.330071 0.01981,-0.629496 0.01053,-0.299666 0.10268,-0.950262 0.10268,-0.950262 l 0.215034,-0.11484 z m -1.735016,-0.09721 c 0,0 0.0043,7.06e-4 0.0066,0.0014 0.0093,0.0038 0.01942,0.01622 0.02692,0.04685 0.01762,0.07232 0.144196,0.639234 0.144196,0.639234 l -0.191107,0.102308 -0.0044,0.0025 -0.190717,0.1021 c 0,0 0.127761,-0.702205 0.145569,-0.793582 0.01335,-0.06854 0.03508,-0.08884 0.04509,-0.09479 0.0014,-7.06e-4 0.0021,-0.0014 0.0032,-0.0017 0.0029,-0.0017 0.0082,-0.0048 0.01459,-0.0044 z m 0.199106,0.924686 c 0,0 0.09006,0.554654 0.09937,0.844432 0.0093,0.289614 0.01713,0.611423 0.01713,0.611423 l -0.333333,0.175218 -0.331999,0.174857 c 0,0 0.0085,-0.329183 0.01848,-0.627986 0.01,-0.299052 0.100814,-0.948296 0.100814,-0.948296 l 0.214574,-0.114834 z m -1.733189,-0.09708 c 0,0 0.0045,7.07e-4 0.0068,0.0014 0.0093,0.0038 0.01929,0.01635 0.02681,0.04695 0.01777,0.07218 0.145202,0.63769 0.145202,0.63769 l -0.1907,0.102082 -0.0042,0.0025 -0.190308,0.101881 c 0,0 0.126154,-0.70101 0.143772,-0.792199 0.01321,-0.06841 0.03486,-0.08842 0.04487,-0.09436 0.0014,-7.06e-4 0.0021,-0.0014 0.0032,-0.0017 0.0029,-0.0017 0.0081,-0.0048 0.01459,-0.0044 z m 3.381629,0.991747 -0.0021,0.593566 c 0,0 0.116038,0.308998 0.115674,0.409929 -3.53e-4,0.100902 0.0225,3.167192 0.0225,3.167192 0,0 -0.03504,0.04422 -0.0436,0.09526 -0.0086,0.05104 -0.01847,0.218318 -0.01847,0.218318 0,0 0.07086,-0.05061 0.07052,0.04352 -3.47e-4,0.0941 -0.01614,0.137195 -0.08708,0.213372 -0.07086,0.07611 -0.280147,0.200058 -0.334979,0.227219 l -0.07427,0.03679 -0.07444,0.03676 c -0.05473,0.02709 -0.262646,0.10937 -0.332709,0.103122 -0.07002,-0.0062 -0.08549,-0.03366 -0.08526,-0.1272 2.3e-4,-0.09358 0.07024,-0.112738 0.07024,-0.112738 0,0 -0.0088,-0.157462 -0.01699,-0.199936 -0.0082,-0.04257 -0.04277,-0.05192 -0.04277,-0.05192 0,0 0.04807,-3.081956 0.04832,-3.182332 2.51e-4,-0.100393 0.117581,-0.529533 0.117581,-0.529533 l 0.0017,-0.591405 z m -3.181058,-0.06872 c 0,0 0.09097,0.553512 0.1008,0.842694 0.0098,0.289013 0.01823,0.609931 0.01823,0.609931 l -0.332628,0.175074 -0.331292,0.174483 c 0,0 0.0078,-0.328502 0.01731,-0.626694 0.0094,-0.29843 0.09913,-0.946547 0.09913,-0.946547 l 0.213948,-0.114377 z m 1.648182,0.892656 -0.0011,0.592582 c 0,0 0.116472,0.308132 0.116292,0.408854 -1.77e-4,0.100694 0.03031,3.158678 0.03031,3.158678 0,0 -0.03493,0.04389 -0.04338,0.09483 -0.0084,0.05093 -0.01805,0.218098 -0.01805,0.218098 0,0 0.07069,-0.05073 0.07052,0.0432 -1.73e-4,0.09391 -0.01589,0.136913 -0.08659,0.212928 -0.07065,0.07595 -0.279271,0.199743 -0.334008,0.226769 l -0.07429,0.03668 -0.07412,0.0367 c -0.05461,0.02702 -0.262309,0.109337 -0.332302,0.103099 -0.06995,-0.0062 -0.08546,-0.03359 -0.0854,-0.126941 5.6e-5,-0.09339 0.06995,-0.112505 0.06995,-0.112505 0,0 -0.0091,-0.157375 -0.01735,-0.199763 -0.0082,-0.04249 -0.04265,-0.05156 -0.04265,-0.05156 0,0 0.04018,-3.073412 0.04024,-3.173572 7e-5,-0.100192 0.116644,-0.528413 0.116644,-0.528413 l 3.53e-4,-0.590191 z m -1.529597,0.82241 1.23e-4,0.59113 c 0,0 0.117073,0.307768 0.117079,0.408282 7e-6,0.100478 0.03793,3.149688 0.03793,3.149688 0,0 -0.03483,0.04403 -0.04315,0.09486 -0.0083,0.05083 -0.01762,0.217649 -0.01762,0.217649 0,0 0.07051,-0.05063 0.07051,0.04312 2e-6,0.09372 -0.01561,0.13663 -0.0861,0.21249 -0.07043,0.0758 -0.278585,0.199316 -0.33321,0.226289 l -0.07414,0.03661 -0.07396,0.03663 c -0.05451,0.02695 -0.261812,0.108871 -0.331737,0.102644 -0.06988,-0.0062 -0.08542,-0.0333 -0.08553,-0.12645 -1.13e-4,-0.0932 0.06967,-0.112509 0.06967,-0.112509 0,0 -0.0094,-0.156819 -0.0177,-0.199124 -0.0083,-0.0424 -0.04269,-0.05168 -0.04269,-0.05168 0,0 0.03263,-3.064603 0.03253,-3.164566 -1.13e-4,-0.09998 0.115373,-0.527586 0.115373,-0.527586 l -7.06e-4,-0.588976 z"
       sodipodi:nodetypes="cccccccccccsccscscccccccsscccccsccscssccccccsssccccsccsccscccsscccsscscsccccscscccccccssscsscccsscscscccccscscsscccsscscscccccc" />
  </g>
</svg>
