<svg xmlns="http://www.w3.org/2000/svg" xmlns:xlink="http://www.w3.org/1999/xlink" width="128" height="128"><defs><linearGradient id="b"><stop offset="0" stop-color="#3d3522"/><stop offset="1" stop-color="#776742"/></linearGradient><linearGradient id="a"><stop offset="0" stop-color="#1f2021"/><stop offset="1" stop-color="#a1a3a6"/></linearGradient><clipPath id="e"><path d="M30 52v-6l-1-1V20c.43-11 6-19 6-19l8 23v24l-1 1v3z" fill="#393a3c"/></clipPath><clipPath id="c"><path d="M24 52h27v4H41v25l1 1v8c0 .515-1 1-2 1h-8c-1 0-2-.485-2-1v-8l1-1V56h-7z" fill="#3d3522" stroke-width="7.449"/></clipPath><linearGradient xlink:href="#a" id="f" x1="30" y1="48" x2="41" y2="5" gradientUnits="userSpaceOnUse"/><linearGradient xlink:href="#b" id="d" x1="27" y1="68" x2="44.657" y2="64" gradientUnits="userSpaceOnUse"/></defs><path transform="matrix(-1.32049 0 0 1.32049 113.518 2.597)" clip-path="url(#c)" d="M24 52h27v4H41v25l1 1v8c0 .515-1 1-2 1h-8c-1 0-2-.485-2-1v-8l1-1V56h-7z" fill="url(#d)" stroke="#000" stroke-width="6"/><path transform="matrix(-1.32049 0 0 1.32049 113.518 3.918)" clip-path="url(#e)" d="M30 52v-6l-1-1V20c.43-11 6-19 6-19l8 23v24l-1 1v3z" fill="url(#f)" stroke="#000" stroke-width="6"/><path d="M63.34 39.571a2.641 2.641 0 0 0 2.64 2.64 2.641 2.641 0 0 0 2.642-2.64 2.641 2.641 0 0 0-2.641-2.641 2.641 2.641 0 0 0-2.641 2.641z"/></svg>