<svg xmlns="http://www.w3.org/2000/svg" width="128" height="128"><g transform="translate(1.548 -6.103)"><path d="M104.501 14.51l1.982 3.433 2.06-1.19-1.982-3.432zM98.56 26.618L21 71.396c-1.128-5.28 1.139-10.867 1.139-10.867l78.265-45.187 3.438 5.956s-3.063 2.147-5.283 5.32z" fill="#fff" stroke="#323232" stroke-width="2.775"/><path d="M15.53 63.311c-.448.266-.801.642-1.014 1.224-.448 2.595 2.228 2.784 4.086 5.136-.216-1.86.203-5.38.724-7.518-1.38.525-2.814.574-3.797 1.158zm.528.81a1.238 1.238 45 0 1 1.69.453 1.238 1.238 45 0 1-.452 1.69 1.238 1.238 45 0 1-1.692-.452 1.238 1.238 45 0 1 .454-1.691zM25.676 53.333l2.018 1.68-3.65 2.107-.32-2.66zm69.17-40.225l.375 1.615-1.082.624.203 1.186 6.249-3.608c-2.998-2.02-5.744.183-5.744.183z" fill="#323232"/><path d="M105.825 24.73c-2.26 1.677-3.461 3.518-3.461 3.518l2.116 3.665 3.955-2.283c-.139-.468-2.61-4.9-2.61-4.9zM21.487 75.254c-.765 2.738.283 4.218-3.115 7.29 0 0-.548 1.719.227 1.26 5.913-3.5 10.718-1.559 13.166 2.908 3.655 12.108 1.752 30.551 9.414 38.502l24.714-14.268c-.618-1.223-2.673-2.17-4.235-6.899-4.01-12.14-8.942-22.41-4.797-25.417 1.91-1.229 3.074.619 6.328-.907l10.985-6.341s3.722-3.066 3.8-7.688l-2.378-4.119c-2.613-5.513 3.582-11.222 6.335-12.812l20.139-11.627c.004-.221-2.7-4.848-2.7-4.848zm35.76-12.408l6.254-3.61c3.126-1.806 7.026-.827 8.425 1.596 1.399 2.423.646 6.896-2.48 8.701l-6.253 3.61c-3.127 1.805-8 .581-9.4-1.842-1.398-2.423.328-6.65 3.454-8.455z" fill="#fff" stroke="#323232" stroke-width="2.775"/><path d="M59.645 63.798c.472 1.163 1.862 2.431 3.161 3.161 1.156.65 2.278.861 3.866.94-.898.545-4.3-.206-4.806-.397-.975-.358-3.207-2.28-4.22-2.55z" fill="#323232" stroke="#323232" stroke-width=".783"/><path d="M34.985 81.191l1.585 2.746 3.865 28.892 2.485 5.888 14.417-8.323-10.313-41.646-10.985 6.342z" fill="none" stroke="#323232" stroke-width="2.775"/><circle transform="rotate(-30)" r="1.585" cy="89" cx="-2.832" fill="none" stroke="#323232" stroke-width="2.378"/><circle transform="rotate(-30)" cx="-11.421" cy="119.479" r="1.585" fill="none" stroke="#323232" stroke-width="2.378"/><circle transform="rotate(-30)" r="4.27" cy="100.004" cx="-6.196" fill="#323232" stroke="#505050" stroke-width="1.067"/><path d="M67.927 114.922l-18.46 9.69-1.257-2.176 18.297-10.564c.87 1.376 1.42 3.05 1.42 3.05z" fill="#323232" stroke="#323232" stroke-width="1.421"/><circle transform="rotate(-30)" r="2.075" cy="131.103" cx="-24.339" fill="none" stroke="#323232" stroke-width="2"/></g></svg>