<svg xmlns="http://www.w3.org/2000/svg" width="128" height="128"><defs><linearGradient id="a"><stop offset="0"/><stop offset="1" stop-opacity="0"/></linearGradient></defs><g fill="#fff"><path d="M109.128 105.472L98.725 94.886l8.4-14.542 15.474 2.554zM18.354 22.692l10.403 10.586-8.4 14.542-15.473-2.554zM34.208 35.511L24.41 52.417c-1.547 2.771.979 4.203.979 4.203l2.574 1.448 2.41-4.174a2.14 2.14 0 0 1 2.92-.783c.99.572 1.358 1.926.783 2.922l-2.41 4.173 51.993 30.03 2.41-4.175a2.143 2.143 0 0 1 2.923-.784c1 .58 1.363 1.917.783 2.922l-2.412 4.176 2.342 1.352s2.554 1.483 4.116-1.222l9.773-16.92c1.567-2.687-1-4.176-1-4.176l-2.343-1.354-1.924 3.332c-.577 1-1.918 1.358-2.922.782-1.008-.578-1.362-1.913-.78-2.92l1.924-3.332-51.996-30.03-1.924 3.332a2.14 2.14 0 0 1-2.92.783c-1-.578-1.36-1.915-.78-2.92l1.924-3.332-2.574-1.448s-2.53-1.458-4.071 1.21zm24.549 14.513l1.355.783c.273.158.453.398.539.717.085.319.048.614-.11.887l-1.278 2.214c-.062.107-.038.192.07.254l4.978 2.875c.273.158.451.397.537.716.085.319.05.615-.108.888l-.474.821a1.13 1.13 0 0 1-.717.539 1.124 1.124 0 0 1-.887-.11l-4.764-2.75c-.107-.063-.178-.039-.21.07-.568 1.671-.737 3.326-.51 4.965.228 1.638.848 3.336 1.863 5.095a1 1 0 0 1 .105.848.975.975 0 0 1-.554.631l-1.243.545a1.4 1.4 0 0 1-.963.063 1.173 1.173 0 0 1-.724-.563c-.707-1.249-1.222-2.632-1.55-4.154a17.31 17.31 0 0 1-.33-4.664c-.006-.1-.053-.126-.142-.083a17.264 17.264 0 0 1-4.34 1.992 15.2 15.2 0 0 1-4.534.64 1.16 1.16 0 0 1-.855-.373 1.402 1.402 0 0 1-.41-.856l-.148-1.348a.975.975 0 0 1 .268-.796c.21-.228.467-.343.769-.343 2.031-.001 3.813-.311 5.346-.933 1.545-.615 2.9-1.585 4.063-2.912.079-.081.064-.155-.043-.217l-4.764-2.751a1.129 1.129 0 0 1-.54-.715 1.129 1.129 0 0 1 .11-.89l.475-.82c.158-.274.395-.453.714-.538.319-.086.616-.05.89.108l4.978 2.875c.107.062.191.04.253-.067l1.278-2.214c.159-.274.397-.452.716-.537.32-.086.617-.05.89.108zm12.723 7.349l.998.576c.274.158.454.398.54.717.085.32.048.614-.11.888l-.763 1.32c-.062.108-.037.193.07.254l.16.093c.273.158.451.397.537.716.085.319.05.615-.108.888l-.474.82c-.433.75-.923 1.34-1.472 1.77-.175.136-.45.334-.822.595a.315.315 0 0 0-.119.289c.122.832.204 1.459.247 1.88.01.038.027.064.05.078.031.001.054-.01.068-.034l3.38-5.853c.158-.273.396-.454.715-.54.32-.085.616-.047.89.11l2.48 1.433c.107.062.192.038.253-.07l.35-.606c.159-.274.398-.452.717-.537.319-.085.614-.05.888.107l1.179.681c.274.158.452.397.537.716.085.32.05.615-.107.889l-.35.606c-.063.107-.041.193.066.255l2.57 1.484c.274.158.454.396.54.715.085.32.048.616-.11.89l-5.576 9.654a1.124 1.124 0 0 1-.714.538 1.13 1.13 0 0 1-.89-.109l-1.16-.67a.913.913 0 0 1-.43-.534.908.908 0 0 1 .105-.676c.048-.083.032-.15-.052-.198l-.518-.299c-.107-.062-.19-.04-.253.068l-1.536 2.66a1.126 1.126 0 0 1-.716.537c-.319.085-.615.05-.888-.108l-1.18-.68a1.126 1.126 0 0 1-.536-.716c-.086-.32-.05-.615.107-.889l1.537-2.66c.061-.107.039-.19-.068-.252l-.517-.299c-.083-.048-.15-.03-.198.053a.87.87 0 0 1-.552.419.837.837 0 0 1-.658-.095l-1.07-.618a1.13 1.13 0 0 1-.54-.717 1.124 1.124 0 0 1 .11-.887l.567-.983c.014-.024.011-.047-.006-.073-.01-.038-.034-.052-.072-.042l-.057.016a.964.964 0 0 1-.81-.16 1.007 1.007 0 0 1-.397-.754 8.126 8.126 0 0 0-.045-.5c.002-.032-.013-.048-.043-.05-.024-.014-.043-.009-.057.015l-2.566 4.444a1.124 1.124 0 0 1-.715.538 1.13 1.13 0 0 1-.89-.108l-.999-.577a1.13 1.13 0 0 1-.538-.717 1.124 1.124 0 0 1 .109-.888l2.04-3.533c.014-.023.012-.049-.005-.074-.016-.026-.044-.034-.082-.024-.249.047-.45.08-.606.101-.267.052-.487-.034-.658-.26a.708.708 0 0 1-.086-.717l.59-1.515c.269-.685.802-1.1 1.599-1.243 1.593-.286 3.003-.914 4.231-1.886.103-.068.1-.133-.008-.195l-1.623-.937a1.13 1.13 0 0 1-.539-.717 1.129 1.129 0 0 1 .11-.89l.474-.82c.158-.274.395-.453.714-.538.32-.086.617-.05.89.108l.25.145c.108.062.192.04.253-.068l.763-1.32c.158-.275.395-.454.714-.539.32-.085.617-.05.89.109zm4.22 8.387c-.094-.054-.169-.035-.224.06l-.65 1.125c-.061.108-.045.188.05.243l.5.289c.108.062.192.04.253-.068l.65-1.125c.055-.095.03-.173-.078-.235zm4.034 2.33c-.107-.062-.187-.046-.242.05l-.65 1.125c-.062.107-.04.19.068.252l.482.279c.107.062.191.04.253-.068l.65-1.125c.055-.095.029-.173-.079-.234zm-42.41-21.966h.002a2.138 2.138 0 1 1-2.193 3.672 2.138 2.138 0 0 1 2.191-3.672zm55.729 32.185a2.138 2.138 0 1 1-3.161 2.39 2.138 2.138 0 0 1 3.16-2.39zm-19.671-8.533c-.096-.055-.173-.03-.235.078l-.69 1.195c-.062.107-.046.187.05.242l.5.29c.107.061.19.039.252-.068l.69-1.195c.062-.107.04-.191-.067-.253zm4.033 2.33c-.107-.062-.19-.04-.253.067l-.69 1.195c-.062.107-.04.191.068.253l.482.278c.107.062.191.04.253-.067l.69-1.195c.062-.107.04-.191-.068-.253z"/><path d="M30.791 33.452L19.08 19.97c-1.071-1.176-3.094-.597-3.382.965l-1.158 6.265-2.592.931a1.963 1.963 0 0 0-1.296 1.973l.207 3.248-3.04 1.604A1.963 1.963 0 0 0 6.8 37.039l.487 2.698s-4.71 3.93-4.716 3.937c-1.202 1.003-.693 3.09.839 3.424l17.532 3.407zM8.165 44.12l2.515-2.1c.542-.453.8-1.16.674-1.855l-.434-2.407 2.893-1.527a1.962 1.962 0 0 0 1.043-1.86l-.194-3.044 2.265-.813a1.962 1.962 0 0 0 1.267-1.49l.644-3.485 7.487 8.225-7.346 12.718zM97.209 94.548l11.712 13.483c1.071 1.176 3.094.597 3.382-.965l1.158-6.265 2.592-.931a1.963 1.963 0 0 0 1.296-1.973l-.207-3.248 3.04-1.604a1.963 1.963 0 0 0 1.017-2.084l-.487-2.698s4.71-3.93 4.716-3.937c1.202-1.003.693-3.09-.839-3.424l-17.532-3.407zm22.626-10.667l-2.515 2.1a1.964 1.964 0 0 0-.674 1.855l.434 2.407-2.893 1.527a1.962 1.962 0 0 0-1.043 1.86l.194 3.044-2.265.813a1.962 1.962 0 0 0-1.267 1.49l-.644 3.485-7.487-8.225 7.346-12.718z"/></g></svg>