<svg xmlns="http://www.w3.org/2000/svg" width="128" height="128"><path d="M30.424 94.596l3.573 3.493 3.812-3.798 7.592-10.271 20.65-20.65-5.576-5.575s-23.337 23.37-31.017 31.051c1.52 2.446.966 5.75.966 5.75zm-5.259 19.424c-.057.121 3.696 3.07.919 7.023-2.679 3.813-6.389 2.603-6.389 2.603l-1.01 1.01a.983.983 0 0 1-1.39 0l-8.025-8.105a1.553 1.553 0 0 1-.05-2.143l13-13.042.954-.953c2.746-.499 4.128-1.535 5.36-2.897l3.394 3.338-.916 5.173-3.405 1.17z" fill="#fff" stroke="#323232" stroke-width="2.356"/><path d="M45.935 88.507s-.853 1.106-2.002 2.443c.767 1.528-.679 4.336-2.671 3.586l-1.42 1.891c4.36 3.315 9.955-2.642 6.093-7.92z" fill="#fff" stroke="#323232" stroke-width="2.173"/><path d="M25.241 78.823s.802-.761 1.617-1.055c.907-.326 1.97-.11 2.418-.253.626-.199 1.963-1.675 1.963-1.675l6.244-6.199 3.49 3.492-9.535 9.535-4.15-2.575z" fill="#fff" stroke="#323232" stroke-width="1.937" stroke-miterlimit="10"/><path d="M39.66 67.56l19.157-19.157 3.37 3.37L43.03 70.931z" fill="#fff" stroke="#323232" stroke-width="2.123"/><path d="M62.735 55.503L90.93 27.308l3.678 3.677L66.413 59.18z" fill="#fff" stroke="#323232" stroke-width="2.261"/><g fill="#323232"><path d="M62.782 56.745l3.912-3.912s-1.18 1.208.049 2.437c1.138 1.138 2.384-.004 2.384-.004l-3.912 3.912s1.292-1.292.098-2.5c-1.248-1.262-2.53.067-2.53.067zM88.466 31.06l3.911-3.91s-1.18 1.207.05 2.436c1.138 1.138 2.383-.003 2.383-.003l-3.91 3.91s1.29-1.291.096-2.499c-1.247-1.261-2.53.067-2.53.067z"/><path d="M66.694 52.833l3.91-3.91s-1.179 1.207.05 2.436c1.138 1.138 2.384-.004 2.384-.004l-3.911 3.911s1.29-1.291.097-2.5c-1.248-1.26-2.53.067-2.53.067zm7.227-7.227l3.912-3.912s-1.18 1.208.049 2.437c1.138 1.138 2.384-.004 2.384-.004l-3.912 3.912s1.292-1.292.098-2.5c-1.248-1.262-2.53.067-2.53.067zm7.453-7.453l3.911-3.911s-1.18 1.207.05 2.436c1.138 1.138 2.383-.003 2.383-.003l-3.91 3.91s1.29-1.291.096-2.499c-1.247-1.261-2.53.067-2.53.067z"/></g><path d="M68.884 61.04l35.038-35.037 3.182 3.182-35.038 35.038z" fill="#fff" stroke="#323232" stroke-width="3.222"/><path d="M93.102 25.112l1.192-1.205s-.515-.579-.912-1.736c-.396-1.156.885-2.404 1.97-1.997a9.408 9.408 0 0 1 1.792.886l1.233-1.222 3.654 3.654-5.275 5.275z" fill="#fff" stroke="#323232" stroke-width="2.34"/><path d="M101.129 18.445l5.016-5.016 8.103-9.995 4.555 4.555-10.055 8.043-5.016 5.016z" fill="#fff" stroke="#323232" stroke-width="2.075"/></svg>