<svg xmlns="http://www.w3.org/2000/svg" width="128" height="128"><path d="M13.356 73.191c.198.101.184.21-.033.256-.83.17-3.777-.276-4.426-.237-.621.038-1.25-.04-1.9-.095-.221-.02-.305.12-.174.3 1.785 2.438 6.076 3.84 9.78 1.907.197-.102 1.319-.552 1.295-.33-.057.504-3.035 2.272-4.77 4.31-.144.17-.082.333.139.35 1.737.144 5.966-1.064 7.312-1.932 1.504-.97 2.89-2.757 4.153-4.019.846-.844 1.558-1.822 2.272-2.799.13-.179.31-.16.42.034.122.216.26.421.412.613.138.174.26.483.244.704-.281 4.322-3.066 8.245-7.212 9.763-2.91 1.066-2.913 1.066-2.783 4.15.173 4.128.313 8.259.575 12.382.03.49.725 1.332 1.123 1.339 2.205.037 4.433.009 6.614-.29 1.178-.16 1.616-1.577 1.163-2.754-.585-1.515-1.939-2.336-3.918-2.341a.393.393 0 0 1-.4-.392c.002-.714.013-1.425-.006-2.137-.045-1.744.717-3.06 2.233-3.833 2.11-1.077 4.27-2.055 6.425-3.038 2.698-1.23 5.258-2.64 7.235-4.934.666-.773 1.666-.655 1.966.417.383 1.363.701 2.94.375 4.258-.406 1.651-1.47 3.147-2.302 4.683-.35.647-.537 1.086.183 1.685 3.026 2.522 6.033 5.07 8.952 7.713.99.897 1.975 1.417 3.297 1.31 1.373-.11 2.756-.133 4.12-.311 1.622-.213 2.054-1.159 1.293-2.635-.217-.422-.47-.826-.737-1.218-.77-1.122-1.763-1.622-3.036-.866-.815.483-1.35.34-1.919-.394-1.4-1.807-2.848-3.575-4.346-5.435a.341.341 0 0 1 .093-.52c4.758-2.936 6.19-7.37 6.228-12.838.002-.222.159-.316.356-.217 3.852 1.94 7.383 1.397 10.77-1.097.178-.132.316-.062.319.16.038 2.608.975 5.11-.325 7.602-.241.462.125 1.243.212 1.876l.379 2.79a.419.419 0 0 1-.342.466c-.263.045-.447.077-.632.102-3.358.455-5.122 3.704-3.686 6.795.605 1.305 1.228 1.477 2.473.771 2.091-1.186 4.294-2.205 6.26-3.566.773-.535 1.137-1.764 1.513-2.744.59-1.542.97-3.165 1.557-4.708.395-1.037.947-2.015 1.548-3.213.1-.199.268-.203.378-.01 2.526 4.42 4.913 8.63 7.343 12.815.355.611.847 1.143 1.308 1.693.142.17.368.171.507-.002L84.47 94a.334.334 0 0 1 .523-.016c1.367 1.493 2.945 3.077 4.286 4.84.744.98 1.408 1.503 2.656 1.437 1.898-.1 3.804-.062 5.705-.053 1.187.006 1.541-.594 1.225-1.646-.57-1.9-1.711-3.38-3.462-4.33-.39-.212-1.006-.398-1.35-.238-1.285.605-1.947-.234-2.647-.988-1.52-1.637-3.08-3.246-4.478-4.983-.56-.695-.72-1.704-1.093-2.556-1.329-3.04-2.714-6.057-3.993-9.118-.914-2.185-1.712-4.417-2.51-6.526a.668.668 0 0 1 .143-.656c1.096-1.084 2.105-2.144 3.219-3.08.361-.304 1.093-.344 1.613-.255 5.035.857 9.592 2.993 13.909 5.592 1.072.645 1.734 2.075 2.411 3.245.733 1.266 1.244 2.66 1.885 3.982.524 1.082 1.4 1.634 2.626 1.598.202-.005.404-.009.607-.01.222-.002.499.009.618.015a3.701 3.701 0 0 0 .435 0c.122-.007.247-.018.28-.018h.057c2.611-.023 4.172-1.22 4.53-3.782.374-2.672 1.178-4.923 3.835-6.19 1.248-.595 1.727-1.9 1.782-3.228.051-1.247.763-1.815 1.757-2.302 3.435-1.687 3.909-2.278 3.419-6.085a36.015 36.015 0 0 0-.787-4.066 4.573 4.573 0 0 0-.18-.7c-.285-1.084-.6-2.16-.927-3.226-.527-1.723-1.028-1.794-2.65-.933-1.593.845-3.14 1.78-4.74 2.61-1.395.725-2.138.559-2.73-.865-.494-1.19-.81-5-1.15-6.42-.053-.215-.176-.228-.274-.029-.364.75-3.096 4.39-3.096 4.39s-.204.204-.324-.012l-1.706-6.844s-.131-.244-.245-.053c-.398.672-.884 4.317-1.178 4.814a.45.45 0 0 1-.571.179c-2.944-1.468-2.624-7.323-3.913-9.841-.101-.198-.21-.174-.227.047-.05.641.017 3.275-.608 4.612-.069.292-.28.55-.488.809-.14.173-.572.158-.728 0-.316-.32-.398-.726-.398-.726-.648-2.157.421-5.366.545-6.546.023-.221-.086-.266-.233-.1-.47.533-3.707 3.755-3.707 3.755s-.27.223-.464-.048c-1.055-3.212-1.62-9.03-1.62-9.03l-.192-.023s-2.01 4.28-4.024 5.575c0 0-.475.13-.547-.301 0 0-1.291-5.999-1.962-7.707-.08-.207-.188-.2-.238.017-.234.996-2.506 5.856-2.506 5.856-.192.168-.356.088-.356.088-2.445-1.294-6.66-6.077-7.067-6.197 0 0-.388.131-.312.34 1.347 1.69 1.155 5.646 1.155 5.646-.024.264-.222.197-.222.197s-2.756-.822-6.823-4.009c0 0-.3-.022-.237.19.219.723 2.16 5.502 2.16 5.502s.133.294-.275.294l-6.055-.21s-.457.123-.526.25c-.068.126.038.307.238.405.18.087 3.063.975 3.307 1.094.2.097.181.182-.04.193-11.07.577-19.5 6.262-27.657 12.432a58.387 58.387 0 0 0-7.973 7.265c-1.524 1.68-2.378 3.97-3.513 5.996-1.146 2.045-2.639 3.754-4.865 4.607-3.32 1.271-7.21-1.609-10.003-4.599-.151-.162-.32-.123-.369.093-.261 1.17 1.306 3.806 3.275 6.398.134.177.063.33-.159.32-2.006-.09-6.724-2.479-8.568-5.674-.111-.192-.246-.174-.287.044-.524 2.847 4.402 6.868 7.938 8.683z" fill="#fff"/></svg>