<svg xmlns="http://www.w3.org/2000/svg" width="128" height="128"><defs><clipPath id="a"><path d="M-45.534 209.35l29.33 16.933v33.867l-29.33 16.933-29.33-16.933v-33.867z" fill-opacity=".506" stroke="#fff" stroke-width="2.117" stroke-opacity=".502"/></clipPath></defs><g transform="translate(6.141 -2.417)"><path d="M118.235 17.141L106.752 5.658l-1.435 1.435L116.8 18.577zM15.276 118.9l5.202 5.201c2.6-5.201 13.004-15.604 18.205-18.205l-5.201-5.201z" fill="#323232"/><path d="M2.436 107.919l14.305 14.305L68.404 70.56l.35-2.953-10.403-10.403-4.252-.949zm74.323-7.987c.551.86-.649 2.601-.649 2.601l-5.664 5.664c-.706.265-1.639-1.263-1.639-1.263L53.682 91.808l8.065-8.065 1.643 1.643c1.26 1.386-.242 1.516.366 3.491l10.078 10.079s2.55.337 2.925.976z" fill="#fff" stroke="#323232" stroke-width="3"/><path d="M97.115 56.846s-3.983.557-6.827-4.226l-1.653 1.652 4.552 4.552c1.785.33 3.603-1.003 3.603-1.003s.567-.468.326-.976z" fill="#323232"/><path d="M93.128 45.655l7.264 7.264s1.209 1.845-.33 4.274l-4.93 4.93" fill="none" stroke="#323232" stroke-width="1.859"/><path d="M-2.518 112.873l.144 1.445 12.715 12.715 1.445.144 2.6-2.6L.084 110.271z" fill="#323232"/><path d="M62.633 54.874l6.502 6.502 45.513-45.514-6.502-6.502z" fill="#fff" stroke="#323232" stroke-width="3"/><path d="M45.999 48.752l-2.276-.975c-.65 0-1.3.65-1.3 1.3l2.276.976 3.9 3.9 1.301-1.3z" fill="#323232"/><path d="M43.074 58.83c-.651.65-.001 1.3-.001 1.3l1.625 1.626 7.803-7.802-1.627-1.626s-.65-.65-1.3 0zm2.057-.757a.768.768 0 0 1 1.086 0 .768.768 0 0 1 0 1.085.768.768 0 0 1-1.086 0 .768.768 0 0 1 0-1.086zm3.686-3.687a.768.768 0 0 1 1.086 0 .768.768 0 0 1 0 1.085.768.768 0 0 1-1.086.001.768.768 0 0 1 0-1.086zm-25.25 10.945l-.976.976 1.626 1.626v.65l5.851 5.852.976-.976-5.526-5.526v-.65z" fill="#323232"/><path d="M107.193 72.776c.551.86-.65 2.6-.65 2.6l-5.663 5.664c-.707.266-1.64-1.262-1.64-1.262L82.486 63.023l6.501-6.502 15.28 15.28s2.55.336 2.926.974z" fill="#fff" stroke="#323232" stroke-width="3"/><path d="M97.319 46.647l-2.601-2.6L76.513 62.25l6.726 6.726 10.403-10.403-4.126-4.125zM2.25 117.642l-1.626 1.625 4.768 4.768 1.625-1.626zm34.32-51.01s-.65-.65-1.3 0l-6.502 6.502c-.65.65 0 1.3 0 1.3l1.625 1.626 7.803-7.803z" fill="#323232"/><circle transform="rotate(-45)" r="1.379" cy="69.976" cx="-30.693" fill="#323232"/><path d="M66.972 59.213l4.114 4.114 35.11-35.11-4.113-4.114z" fill="#fff" stroke="#323232" stroke-width="3"/><path d="M25.8 89.064l1.649 1.65-9.846 9.846-1.65-1.65z" fill="#7e7e7e"/><path d="M10.238 100.117l3.901-3.901 14.305 14.304-3.902 3.9zm13.004-13.004l3.901-3.901 14.304 14.304-3.9 3.901z" fill="#323232"/><path d="M65.412 63.15l1.95 1.95-13.56 13.561-7.153-1.952L9.587 113.77l-1.95-1.95L45.998 73.46l7.152 1.95z" fill="#323232"/><path d="M11.214 108.244l24.707-24.707 5.202 5.202-24.707 24.707z" fill="#fff" stroke="#323232" stroke-width="3" stroke-linecap="round"/><path clip-path="url(#a)" d="M-45.534 209.35l29.33 16.933v33.867l-29.33 16.933-29.33-16.933v-33.867z" transform="rotate(165 21.628 53.952) scale(.13544)" fill="#7e7e7e"/><path transform="rotate(-75 68.242 29.203) scale(.04498)" d="M-45.534 209.35l29.33 16.933v33.867l-29.33 16.933-29.33-16.933v-33.867z" clip-path="url(#a)" fill="#323232"/><path clip-path="url(#a)" d="M-45.534 209.35l29.33 16.933v33.867l-29.33 16.933-29.33-16.933v-33.867z" transform="rotate(-75 70.203 44.097) scale(.04498)" fill="#323232"/><path transform="rotate(-75 88.022 10.03) scale(.04498)" d="M-45.534 209.35l29.33 16.933v33.867l-29.33 16.933-29.33-16.933v-33.867z" clip-path="url(#a)" fill="#323232"/><path transform="rotate(-75 90.004 -24.095) scale(.04498)" d="M-45.534 209.35l29.33 16.933v33.867l-29.33 16.933-29.33-16.933v-33.867z" clip-path="url(#a)" fill="#323232"/><path clip-path="url(#a)" d="M-45.534 209.35l29.33 16.933v33.867l-29.33 16.933-29.33-16.933v-33.867z" transform="rotate(-75 80.232 -22.809) scale(.04498)" fill="#323232"/></g></svg>