<svg xmlns="http://www.w3.org/2000/svg" width="128" height="128"><path d="M5.765 88.488c1.472-1.656 10.353-10.41 11.088-17.241.843-7.828 1.921-24.491 6.66-30.744 6.093-8.042 12.765-14.28 41.283-14.28 20.355 0 30.708 4.215 37.536 13.403 4.1 5.528 7.527 19.78 8.285 28.146 1.15 12.467 12.554 9.781 12.308 13.394-.244 3.565-16.733 4.468-39.071 4.55-14.81.053-25.952 15.007-33.854 15.733C26.415 103.628.476 94.46 5.765 88.488zm54.19-30.723a4.046 4.046 0 1 0-4.045-4.046 4.046 4.046 0 0 0 4.043 4.046z" fill="#fff"/></svg>