<svg xmlns="http://www.w3.org/2000/svg" width="128" height="128"><g fill="#fff"><path d="M57.497 97.476l-11.8-29.497-4.222 12.668H17.467c6.434 9.99 17.593 19.531 31.68 31.534 4.029 3.433 8.314 7.083 12.817 11.024L64 124.988l2.037-1.783c4.503-3.94 8.788-7.591 12.816-11.024 14.087-12.003 25.246-21.544 31.68-31.534h-44.62zm0 0"/><path d="M88.974 31.136C76.3 31.18 68.23 39.82 64 47.747 59.79 39.87 51.756 31.136 39.24 31.136h-.211c-14.727.117-27.052 12.68-27.8 28.599-.25 5.296.735 10.11 2.714 14.723h23.073l8.155-24.466 12.956 32.39 3.961-7.924h51.97c1.98-4.612 2.966-9.427 2.716-14.723-.749-15.92-13.073-28.482-27.8-28.6zm0 0"/><g><path d="M66.926 34.748s5.218-8.204 9.257-12.838h.004c3.42-3.934 10.12-8.982 10.12-8.982 1.006-.76.898-1.82-.247-2.353L77.964 6.79c-1.145-.536-2.7-.145-3.46.864L61.469 34.532 64 39.264zM57.679 28.195c1.26-.106 2.372-1.22 2.473-2.478 0 0 .81-9.806-6.025-16.647-6.854-6.844-16.642-6.028-16.642-6.028-1.26.106-2.373 1.22-2.476 2.478 0 0-.823 9.811 6.02 16.655 6.839 6.836 16.65 6.02 16.65 6.02z"/></g></g></svg>