<svg xmlns="http://www.w3.org/2000/svg" xmlns:xlink="http://www.w3.org/1999/xlink" style="isolation:isolate" width="128" height="128"><defs><linearGradient id="a"><stop offset="0" stop-color="#741b00"/><stop offset="1" stop-color="#ff440a"/></linearGradient><linearGradient xlink:href="#a" id="d" x1="13.831" y1="105.085" x2="55.881" y2="74.448" gradientUnits="userSpaceOnUse" gradientTransform="translate(0 -128)"/><linearGradient xlink:href="#a" id="c" x1="109.424" y1="-109.017" x2="72.136" y2="-74.305" gradientUnits="userSpaceOnUse"/><linearGradient xlink:href="#a" id="b" gradientUnits="userSpaceOnUse" gradientTransform="translate(48.814 -176.271)" x1="60.044" y1="67.692" x2="17.912" y2="106.28"/></defs><circle transform="rotate(90)" r="22.644" cy="-88.136" cx="88.542" style="isolation:isolate" fill="url(#b)"/><circle style="isolation:isolate" cx="39.729" cy="-39.864" r="22.644" transform="rotate(90)" fill="url(#d)"/><path style="isolation:isolate" d="M105.03 109.282l4.467 4.468a3.007 3.007 0 1 0 4.253-4.253l-4.468-4.468c3.836-4.782 5.92-10.68 5.92-16.9 0-7.231-2.815-14.03-7.929-19.143-5.113-5.114-11.912-7.93-19.144-7.93-5.341 0-10.446 1.539-14.81 4.403a16.71 16.71 0 0 0-4.08-6.698 16.71 16.71 0 0 0-6.698-4.08c2.865-4.364 4.403-9.469 4.403-14.81 0-7.232-2.816-14.03-7.93-19.144-5.113-5.114-11.912-7.93-19.143-7.93-6.22 0-12.118 2.085-16.9 5.92l-4.468-4.467a3.007 3.007 0 0 0-4.253 4.253l4.468 4.468c-3.836 4.782-5.92 10.68-5.92 16.9 0 7.231 2.815 14.03 7.929 19.143 5.113 5.114 11.912 7.93 19.144 7.93 6.799 0 13.215-2.49 18.208-7.038a10.584 10.584 0 0 1 6.907 3.108 10.582 10.582 0 0 1 3.108 6.907c-4.548 4.993-7.038 11.409-7.038 18.208 0 7.232 2.816 14.03 7.93 19.144 5.113 5.113 11.912 7.93 19.143 7.93 6.22 0 12.118-2.085 16.9-5.92zm-80.05-54.52a20.921 20.921 0 0 1-6.168-14.891c0-5.625 2.19-10.914 6.168-14.891a20.921 20.921 0 0 1 14.89-6.168 20.92 20.92 0 0 1 14.891 6.168 20.921 20.921 0 0 1 6.168 14.89 20.92 20.92 0 0 1-6.168 14.891c-.39.391-.794.764-1.21 1.12l-3.383-3.385a3.007 3.007 0 0 0-4.253 4.253l2.417 2.417a21.007 21.007 0 0 1-8.461 1.763 20.921 20.921 0 0 1-14.891-6.168zm48.259 48.258a20.921 20.921 0 0 1-6.168-14.89c0-2.962.608-5.83 1.763-8.462l2.425 2.425a3.007 3.007 0 1 0 4.253-4.252l-3.393-3.393c.356-.415.729-.819 1.12-1.21a20.921 20.921 0 0 1 14.89-6.167c5.625 0 10.914 2.19 14.891 6.168a20.921 20.921 0 0 1 6.168 14.89c0 5.626-2.19 10.914-6.168 14.891a20.921 20.921 0 0 1-14.89 6.168 20.923 20.923 0 0 1-14.891-6.168z"/></svg>