<svg xmlns="http://www.w3.org/2000/svg" width="128" height="128"><path d="M64 21.967A42.034 42.034 0 0 0 21.967 64 42.034 42.034 0 0 0 64 106.033 42.034 42.034 0 0 0 106.033 64 42.034 42.034 0 0 0 64 21.967zm0 7.705V36a28 28 0 0 0-28 28 28 28 0 0 0 28 28 28 28 0 0 0 28-28h6.328A34.328 34.328 0 0 1 64 98.328 34.328 34.328 0 0 1 29.672 64 34.328 34.328 0 0 1 64 29.672zm0 9.889A24.44 24.44 0 0 1 88.44 64 24.44 24.44 0 0 1 64 88.441v-5.66A18.78 18.78 0 0 0 82.781 64 18.78 18.78 0 0 0 64 45.219 18.78 18.78 0 0 0 45.219 64h-5.66A24.44 24.44 0 0 1 64 39.56zm0 10.472A13.966 13.966 0 0 1 77.967 64 13.966 13.966 0 0 1 64 77.967 13.966 13.966 0 0 1 50.033 64 13.966 13.966 0 0 1 64 50.033z" fill="#fff"/><path d="M25.735 68C24.565 38.352 52.367 10.23 96 10.05M101.977 62.904c1.17 29.648-26.344 57.77-69.977 57.95" fill="none" stroke="#fff" stroke-width="7"/><circle cx="64" cy="64" r="8.658" fill="#fff"/></svg>