<svg xmlns="http://www.w3.org/2000/svg" width="128" height="128"><path d="M16 112l96-96" fill="#fff" stroke="#fff" stroke-width="9" stroke-linecap="round" stroke-linejoin="round"/><path d="M64 12.576A51.424 51.424 0 0 0 12.576 64a51.424 51.424 0 0 0 9.885 30.225l7.678-7.678A40.712 40.712 0 0 1 23.289 64 40.712 40.712 0 0 1 64 23.29a40.712 40.712 0 0 1 22.553 6.843l7.664-7.664A51.424 51.424 0 0 0 64 12.576zm41.54 21.2l-7.679 7.677A40.712 40.712 0 0 1 104.711 64 40.712 40.712 0 0 1 64 104.71a40.712 40.712 0 0 1-22.553-6.843l-7.664 7.664A51.424 51.424 0 0 0 64 115.424 51.424 51.424 0 0 0 115.424 64a51.424 51.424 0 0 0-9.885-30.225z" fill="#fff"/></svg>