<svg xmlns="http://www.w3.org/2000/svg" xmlns:xlink="http://www.w3.org/1999/xlink" style="isolation:isolate" width="128" height="128"><defs><linearGradient id="a"><stop offset="0" stop-color="#bc3400"/><stop offset="1" stop-color="#ff8050"/></linearGradient><linearGradient xlink:href="#a" id="b" gradientUnits="userSpaceOnUse" gradientTransform="translate(-102.697 -9.857)" x1="-6.068" y1="117.021" x2="92.569" y2="29.732"/></defs><path style="isolation:isolate" d="M-93.232 14.04v95.235l6.995 7.322h82.709s-10.576-11.648 0-20.055V5.507l-83.348.14z" fill="url(#b)" transform="translate(111.729 2.712)"/><path style="isolation:isolate" d="M105.815 101.55a5.106 5.106 0 0 0 4.297-5.034V11.09a5.104 5.104 0 0 0-5.099-5.098H29.784c-6.56 0-11.896 5.337-11.896 11.896v92.224c0 6.56 5.337 11.896 11.896 11.896h75.23a5.104 5.104 0 0 0 5.098-5.098 5.106 5.106 0 0 0-4.297-5.035 7.924 7.924 0 0 1 0-10.324zm-5.183 3.463s-.374 2.017 0 3.4c0 0 .539 2.319 1.083 3.398h-71.93c-.938 0-1.7-.762-1.7-1.7v-6.798c0-.936.762-1.699 1.7-1.699h71.93c-.544 1.08-1.083 3.4-1.083 3.4zm6.08-93.923V91.71a5.077 5.077 0 0 0-1.699-.291h-73.53V9.39h73.53c.938 0 1.7.762 1.7 1.7zm-85.425 6.798c0-4.103 2.924-7.536 6.798-8.326v81.98a11.874 11.874 0 0 0-6.798 3.454zm83.726 100.721H29.784c-4.685 0-8.497-3.812-8.497-8.497v-6.798c0-4.686 3.812-8.497 8.497-8.497h75.23c.937 0 1.699.762 1.699 1.7 0 .936-.762 1.699-1.7 1.699H29.784a5.104 5.104 0 0 0-5.098 5.098v6.798a5.104 5.104 0 0 0 5.098 5.098h75.23c.937 0 1.699.762 1.699 1.7 0 .937-.762 1.699-1.7 1.699z" stroke="#000" stroke-width="2"/><path d="M66.143 91.225c-8.084-3.771-11.227-8.846-14-13.323-1.973-3.185-3.676-5.935-6.974-8.155-3.187-2.147-7.687-3.592-13.685-4.389v26.06h35.088c-.143-.065-.288-.128-.429-.193zM91.61 73.849c-5.447 0-10.184-3.083-12.567-7.593-.56-.05-1.122-.124-1.686-.226-7.797-1.418-12.988-8.916-11.57-16.713.545-3.001 2.227-5.61 4.734-7.346a11.342 11.342 0 0 1 8.542-1.845l-.962 5.29a6.003 6.003 0 0 0-4.519.976 6.001 6.001 0 0 0-2.505 3.886c-.887 4.881 2.362 9.574 7.242 10.461 7.027 1.277 13.784-3.4 15.061-10.427a18.19 18.19 0 0 0-2.896-13.556 18.45 18.45 0 0 0-11.318-6.84c-6.24-1.135-12.537.264-17.73 3.94-5.044 3.57-8.636 8.975-10.115 15.219-.13.548-.262 1.209-.394 1.964a16.89 16.89 0 0 1-7.94 11.58c7.914 3.069 10.855 7.814 13.727 12.451 2.608 4.211 5.072 8.189 11.702 11.281 5.664 2.642 13.76 4.318 24.544 5.067h13.803v-17.57z"/></svg>