<svg xmlns="http://www.w3.org/2000/svg" xmlns:xlink="http://www.w3.org/1999/xlink" width="128" height="128"><defs><linearGradient id="a"><stop offset="0" stop-color="#1f2021"/><stop offset="1" stop-color="#a1a3a6"/></linearGradient><clipPath id="d"><path d="M64 42.6c-7.953 0-14.4 6.447-14.4 14.4 5.595-6.659 10.56-7 14.4-7 4.33 0 7 3.717 7 7 0 3.98-1.665 5.908-4.12 6.53-.953.304-2.03.465-2.88.47-1.092 0-3.055-.195-4.007-.48v10.76h8.055v-3.169C74.62 69.777 78.4 63.967 78.4 57c0-7.953-6.447-14.4-14.4-14.4z" fill="#676767" stroke-width="2.88" stroke-linecap="round"/></clipPath><linearGradient xlink:href="#a" id="e" x1="72.897" y1="74.899" x2="60.203" y2="46.27" gradientUnits="userSpaceOnUse"/><clipPath id="b"><path d="M54.79 71.05c-4.604 0-13.185 5.05-13.185 13.447V106c0 2.8 2.799 5.599 5.598 5.599h33.594c2.799 0 5.598-2.8 5.598-5.599V84.497c0-8.398-8.581-13.447-13.186-13.447z" fill="gray" stroke-width=".271"/></clipPath><linearGradient xlink:href="#a" id="c" x1="41.605" y1="91.324" x2="86.395" y2="91.324" gradientUnits="userSpaceOnUse"/></defs><path clip-path="url(#b)" d="M54.79 71.05c-4.604 0-13.185 5.05-13.185 13.447V106c0 2.8 2.799 5.599 5.598 5.599h33.594c2.799 0 5.598-2.8 5.598-5.599V84.497c0-8.398-8.581-13.447-13.186-13.447z" fill="url(#c)" stroke="#000" stroke-width="7" transform="matrix(.84265 0 0 .84265 10.07 7.985)"/><path transform="matrix(1.17946 0 0 1.17946 -11.486 -24.606)" clip-path="url(#d)" d="M64 42.6c-7.953 0-14.4 6.447-14.4 14.4 5.595-6.659 10.56-7 14.4-7 4.33 0 7 3.717 7 7 0 3.98-1.665 5.908-4.12 6.53-.953.304-2.03.465-2.88.47-1.092 0-3.055-.195-4.007-.48v10.76h8.055v-3.169C74.62 69.777 78.4 63.967 78.4 57c0-7.953-6.447-14.4-14.4-14.4z" fill="url(#e)" stroke="#000" stroke-width="5" stroke-linecap="round"/><path d="M71.76 63.005H56.24a2.427 2.427 0 0 0-2.426 2.424 2.428 2.428 0 0 0 2.425 2.426h15.52a2.428 2.428 0 0 0 2.427-2.426 2.428 2.428 0 0 0-2.426-2.424zM82.43 97.511H45.569a2.427 2.427 0 0 0-2.426 2.425 2.428 2.428 0 0 0 2.426 2.425h36.86a2.428 2.428 0 0 0 2.428-2.425 2.428 2.428 0 0 0-2.427-2.425z" fill="#171717"/></svg>