<svg xmlns="http://www.w3.org/2000/svg" width="128" height="128"><path fill="#fefefe" stroke="#323232" stroke-width="1.993" stroke-linecap="square" d="M13.312 99.652l10.61-8.224 1.837 2.37-10.61 8.224z"/><path d="M39.569 74.231l-4.607 9.28-6.268 4.858-.117 3.828-1.548 1.19-14.08 10.823s-.202.218-.062.587c3.48 8.582 9.529 12.274 9.529 12.274s.283.215.572.053l3.995-3.102 1.035-2.996L38.486 97.85c3.805.243 5.434-1.152 8.476-3.51.364-.266.088-.69.088-.69s-2.306-3.524-5.448-5.807c0 0-.636-1.35.499-1.652 1.536-.409 4.182-.335 4.656-.523 2.777-.885 5.113-3.89 5.113-3.89l11.925-14.935 27.676-21.454s.809-3.359.302-4.668c-.743-1.574-3.173-4.495-3.173-4.495zm-1.5 10.024c.708-.36 1.562.397 1.226 1.58-.24.849-.971 2.828-1.146 3.42-.554 1.557-1.298 4.111-1.936 4.03-1.16-.01-4.211-1.688-4.466-4.129zm6.237-6.645c1.362-1.056 3.003-1.752 4.36 0 1.358 1.75.33 3.236-1.033 4.292-1.362 1.056-3.252 1.832-4.609.08-1.357-1.75-.08-3.317 1.282-4.372zM17.74 104.334l9.967-7.726c1.75.221 5.437 2.696 5.073 3.675 0 0-6.042 7.71-9.167 11.627-.255.32-.785.192-1.036-.131l-4.968-6.409a.737.737 0 0 1 .131-1.036z" fill="#fff" stroke="#323232" stroke-width="2.2"/><path d="M11.474 97.28L25.7 86.252l-.12 3.89-14.21 11.015z" fill="#fff" stroke="#323232" stroke-width="2"/><path d="M12.69 105.407s3.832 8.55 9.17 11.831l-2.987 2.316-9.17-11.831z" fill="#fcfcfc" stroke="#323232" stroke-width="1.529" stroke-linecap="square"/><path d="M8.924 107.826l9.702 12.517-3.253 2.522s-3.279-6.408-9.702-12.517z" fill="#323232" stroke="#323232" stroke-width="1.669" stroke-linecap="square"/><path d="M122.53 9.151l.906 1.168-4.179 3.238.302.39-3.994 3.095-.301-.39L89.387 36.71l-.901-1.17L62.02 56.053l52.338-40.568-.3-.39L118.051 12l.3.39z" fill="#f9f9f9" stroke="#323232" stroke-width="2.2"/><path d="M62.37 56.503l-.755-.973-1.834-.759-21.184 16.251s1.147 2.335 1.05 3.093zm49.405-45.556l.39-.302.496.239 1.556-1.207-.107-.54.39-.301 2.261 2.918-2.723 2.111z" fill="#f9f9f9" stroke="#323232" stroke-width="2.2"/><rect ry="1.5" rx="1.5" y="85.285" x="-6.665" height="2.666" width="16.142" transform="rotate(-37.793) skewX(-.016)" fill="#7e7e7e"/><rect width="30.576" height="2.666" x="11.471" y="85.284" rx="1.5" ry="1.5" transform="rotate(-37.785) skewX(-.005)" fill="#7e7e7e"/><path d="M91.044 39.393l2.882-2.234 2.45 3.162s.162.733-.353 1.175l-3.952 3.063.398-3.327z" fill="#f9f9f9" stroke="#323232" stroke-width="1.812" stroke-linecap="square"/><path d="M91.813 42.593l3.951-3.063" fill="#f9f9f9" stroke="#323232"/><path d="M44.536 78.365s.72 2.167 2.316 1.943c-.09-.095-.981-.028-1.643-1.16-.198-.337-.021-1.29-.021-1.29z" fill="#f9f9f9" stroke="#323232" stroke-width=".546"/><path d="M53.846 80.593l4.287 4.083 8.305-11.557-4.351-2.839z" fill="#f9f9f9" stroke="#323232" stroke-width="2.223"/><path d="M60.556 73.392l3.647 2.492" fill="#f9f9f9" stroke="#323232" stroke-width="2"/><path d="M41.268 96.559c-2.2-1.782-2.493-3.071-2.493-3.071.32-3.342 2.812-4.299 2.812-4.299 2.433 1.913 4.246 4.644 4.246 4.644s-2.973 2.657-4.565 2.726z" fill="#7e7e7e"/><path d="M49.48 58.397c.79-.613 2.065-.601 2.065-.601l5.548-4.268 1.403.178.965 1.246-7.905 6.124z" fill="#323232"/><ellipse cx="42.322" cy="75.462" rx="1.462" ry="1.462" fill="#323232"/><path d="M41.345 73.68l.6.956" fill="none" stroke="#323232" stroke-width="1.119"/></svg>