<svg xmlns="http://www.w3.org/2000/svg" width="128" height="128"><g transform="rotate(-45 64 63.998)"><path d="M86.71 77.836l-9.943 24.83 6.738 2.589L94.47 77.828zM39.332 48.332H19.481s-1.027 0-1.347.674l-2.355 6.392H5.35v4.375c3.7 0 8.412 1.346 8.412 3.701-.115 1.255-3.03 8.412-3.03 8.412C9.57 72.96 5.349 73.57 5.349 73.57s-1.848 6.93 0 8.23c0 0 6.052-2.312 6.73-3.183l10.094-24.612c.146-.564.86-.624.86-.624H45.39c.744-1.01 3.311-1.905 3.311-1.905V45.64s-3.311 1.013-5.138 1.03c-1.162.033-2.262 1.661-4.23 1.661z" fill="#fff" stroke="#323232" stroke-width="2.473"/><path d="M52.192 45.077v6.155c1.964.379 2.889 1.863 3.167 3.165.395 1.98-4.75 5.541-6.728 17.81l19.393 8.312h18.74c2.03-1.783 3.195-1.745 5.047 0h2.882l7.37-18.602c.72-1.366 2.77-1.187 2.77-1.187h20.556l-.494-15.652zm23.748 7.49c1.138 2.2-5.145 16.87-5.145 16.87s-5.061 7.252-7.72 8.125L56.679 74.7l8.556-22.112-10.95.017 10.97-.04z" fill="#fff" stroke="#323232" stroke-width="2.473"/><path d="M74.413 61.694l-.832-.79h-4.529l-4.748-1.801-1 .042.711-1.296.478.679 4.728 1.825 4.387-.017 1.214-.621zM67.29 54.57s.26.54.76.797c1.118.733 1.228 2.514 1.793 2.766-.474-1.285-.919-3.074-.616-3.563z" fill="#323232" stroke="#323232" stroke-width="1.008"/><rect width="3.503" height="14.701" x="110.43" y="21.065" rx="1.583" ry="1.583" transform="matrix(.92906 .36992 -.36188 .93223 0 0)" fill="#fff" stroke="#323232" stroke-width="1.88"/><path d="M129.57 54.32l-.228.234-2.147-.016-.114.284.056 3.23.17.304 1.945.006.206.241h4.962c.257-.85.257-2.868.029-4.282z" fill="#323232"/><rect width="10.39" height="7.284" x="93.036" y="46.712" rx=".833" ry=".721" fill="#323232"/><path d="M70.977 80.49l9.032-24.59c1.214-2.278 2.353-2.543 3.567-2.581l26.943.153 1.822-1.746h12.874" fill="none" stroke="#323232" stroke-width="2.19"/><path d="M68.892 43.042h1.229v1.847l-1.23-.001zm2.12 0h1.228v1.846l-1.229-.001zm2.187 0h1.228v1.845H73.2zm2.164 0h1.228v1.847l-1.229-.001zm2.106 0h1.228v1.845h-1.229zm2.238 0h1.229v1.846h-1.229zm2.238 0h1.229v1.847l-1.229-.001zm2.127 0H85.3v1.845h-1.228zm2.161 0h1.229v1.846l-1.229-.001zm2.146 0h1.228v1.846l-1.23-.001zm2.162 0h1.229v1.847l-1.23-.001zm2.163 0h1.229v1.845h-1.229zm2.163 0h1.23v1.847l-1.23-.001zm2.221 0h1.228v1.845h-1.229zm2.068 0h1.229v1.847l-1.23-.001zm2.162 0h1.229v1.847l-1.23-.001zm2.164 0h1.228v1.845h-1.228zm2.162 0h1.23v1.847l-1.23-.001zm2.126 0H109v1.845h-1.229zm2.144 0h1.229v1.847l-1.23-.001zm2.182 0h1.229v1.847l-1.23-.001zm-7.152 17.836h3.732v1.847h-1.229zm17.322 0h2.33v1.846h-2.33zM66.806 43.04h1.228v1.848l-1.23-.001zm-10.778 0h1.228v1.848l-1.229-.001zm-2.157 0H55.1v1.846h-3.671zm4.33-6.556l1.525.139c.832.538 1.421 2.806 1.421 2.806l.103 2.253 4.234.54c.56.098.485.675.485.675l.03 2.32-7.769.034zm56.406 0l1.525.139c.832.538 1.421 2.806 1.421 2.806l.103 2.253 4.234.54c.56.098.485.675.485.675l.029 2.32-7.768.034z" fill="#323232"/><path d="M75.802 104.168l8.196 3.183" fill="none" stroke="#323232" stroke-width="1.534"/><path d="M120.093 63.81v3.276l-1.629.347s-.681.23-.553 1.16c.425 3.11 1.187 10.164-.226 12.944h-4.818c-1.426-2.773-.663-9.805-.231-12.923.131-.943-.433-1.181-.433-1.181l-1.743-.348-.001-3.274z" fill="#fff" stroke="#323232" stroke-width="2.408"/><path d="M.172 54.726c.896-.371 3.893-1.002 4.167-1.01.814.008 2.019.462 2.019.462v28.476s-.856.673-2.02.673l-3.7-.673c-.571-.217-1.047-.768-1.01-1.01.336-2.019 2.675-15.246-.336-25.42-.009-.791.71-1.434.88-1.498zm13.588 17.16v2.02H9.049v-2.02zm4.712-11.44v2.019H12.75v-2.02z" fill="#323232"/></g></svg>