<svg xmlns="http://www.w3.org/2000/svg" width="128" height="128"><path d="M29.356 6.34c-1.986 0-3.984.93-6.044 3.003-2.06 2.073-4.066 5.257-5.765 9.295-3.396 8.077-5.575 19.515-5.575 32.15 0 12.635 2.179 24.074 5.575 32.15 1.699 4.039 3.705 7.223 5.765 9.296 2.06 2.073 4.059 3.01 6.044 3.01v-.022l22.786-.075c-4.536-11.444-6.293-24.014-5.689-37.002.749-16.087-4.66-30.001-9.65-34.776-1.42-1.358-2.645-1.796-3.78-1.765-1.136.03-2.382.565-3.758 1.924-2.75 2.718-5.542 8.705-6.835 17.437-.986 6.65-.899 14.15.127 20.493 1.028 6.342 3.189 11.492 5.267 13.34.733.65 1.225.765 1.675.731.452-.034 1.05-.274 1.797-1.049 1.433-1.488 3.038-4.894 3.802-9.899l-.023.023c.328-1.473.521-3.196.521-5.048 0-5.37-1.59-9.726-3.546-9.726-1.863 0-3.382 3.952-3.523 8.964-.369-1.696-.581-3.618-.581-5.659 0-6.828 2.327-12.367 5.198-12.367.744 0 1.45.373 2.09 1.042l.016.014c2.47 2.123 3.511 5.598 4.195 9.583.705 4.114.799 8.828.21 13.174-.803 5.937-2.519 10.335-5.115 13.03-1.298 1.348-2.914 2.28-4.708 2.415-1.794.135-3.582-.594-5.003-1.856-3.687-3.277-5.614-9.14-6.722-15.988-1.11-6.848-1.198-14.706-.136-21.874 1.382-9.33 4.195-16.117 8.119-19.995 1.962-1.939 4.317-3.155 6.82-3.221 2.504-.067 4.952 1.048 7.01 3.018 6.775 6.483 11.837 21.095 11.039 38.246-.723 15.532 2.028 30.171 8.993 42.872a62.427 62.427 0 0 0 8.368 11.454l.068.075 7.975 8.903 3.358-3.018-2.06-2.293 3.282-2.913-3.576-4.021c1.452-.488 2.982-.873 4.573-1.2.264.28.585.64.98 1.071a434.3 434.3 0 0 1 3.011 3.327c2.13 2.38 4.172 4.693 4.172 4.693l3.38-2.987s-2.053-2.316-4.194-4.709l-1.819-2.022.083.046c1.44.805 3.295 1.847 5.123 2.882 3.657 2.07 7.213 4.097 7.213 4.097l2.136-3.75c3.14 1.78 6.33 3.592 6.33 3.592l2.241-3.924s-3.564-2.03-7.228-4.104c-1.172-.663-2.21-1.248-3.29-1.856a30.584 30.584 0 0 0 3.192-1.275l12.607.445.151-4.513-7.048-.249c-12.004-2.527-21.014-17.951-21.414-35.145a93.59 93.59 0 0 0 .899-13.045c0-12.359-2.34-23.526-6.006-31.517-3.657-7.97-8.499-12.447-13.13-12.782l-39.974-.128V6.34z" fill="#fff"/></svg>