<svg xmlns="http://www.w3.org/2000/svg" width="128" height="128"><g fill="#fbfbfb" stroke="#323232"><path d="M72.094 11.109l.983 1.702 2.705-1.562zM7.362 48.511l.061 2.205 2.803-1.618-.97-1.681zm-2.273 7.537l5.176 8.966 6.911-3.99L12 52.058zm9.899-5.715l5.176 8.966 2.988-1.725-5.176-8.966zm5.978-3.451l5.176 8.966 2.988-1.726-5.176-8.966zm5.976-3.45l5.176 8.965 2.99-1.726-5.177-8.966zm5.978-3.452l5.176 8.966 47.443-27.392-5.176-8.965zM12.312 67.816c-2.08 1.325-.826 3.575 1.842 2.636 3.21-1.13 6.5 1.299 7.72 3.584 3.542 6.636.15 29.765 4.767 37.711.835 1.448 6.73.195 6.73.195l18.12-10.461s-.543-3.098-1.677-10.239L51 89.845l-1.684-1.391c-.304-1.93-1.012-6.504-1.324-8.503l1.52-1.326-1.943-1.368c-.325-2.113-.662-4.35-1.005-6.604 1.658-3.275 5.81-3.23 8.785-4.879 3.808-2.192 6.657-4.102 11.883-7.14-1.863-1.339-5.028-7.18-6.584-9.874-.195-.357-.233-1.713.224-2.3 1.035-1.33 4.185-3.199 4.185-3.199l-2.496-4.456zm47.072-9.486c-.816 1.195-1.446 1.59-4.081 3.11-4.86 2.839-6.554 2.876-8.555 1.539-2.676-1.788-3.255-6.013-2.287-6.877 1.78-1.587 3.847-2.43 9.276-5.565 3.395-1.387 7.48 4.702 5.647 7.793zm-24.167 55.942l1.726 2.99 16.623-9.597-1.726-2.99z" stroke-width="2.507"/><path d="M48.317 56.045c.839 1.415 1.288 3.144 2.891 4.452-.96.136-2.402-1.13-3.76-2.052l-.519-1.569z" stroke-width="1.512"/><path d="M27.522 79.265c-.439-2.677-1.347-6.68.423-6.91 5.144-.666 7.926-2 13.102-4.817.58-.315.929 1.885 1.102 2.857 1.611 9.023 2.55 17.831 4.047 26.556 0 0-9.127 5.422-14.002 7.946-.941.487-1.836-.22-2.387-1.175-2.669-5.55-1.528-19.836-2.285-24.457z" stroke-width="2.507"/><path d="M65.487 37.147l21.834-12.606 1.847 3.2L68.026 41.6zM83.715 12.42l2.914-1.682 3.826 6.627-2.914 1.682z" stroke-miterlimit="10" stroke-width="2.507"/></g><path d="M44 28l8-8 36 22.17L72 48z" fill="#fbfbfb"/><g fill="#fbfbfb" stroke="#323232"><path d="M56.07 11.109l-.983 1.702-2.705-1.562zm64.732 37.402l-.061 2.205-2.803-1.618.97-1.681zm2.273 7.537l-5.176 8.966-6.911-3.99 5.176-8.966zm-9.899-5.715L108 59.299l-2.988-1.725 5.176-8.966zm-5.978-3.451l-5.176 8.966-2.988-1.726 5.176-8.966zm-5.976-3.45l-5.176 8.965-2.99-1.726 5.177-8.966zm-5.978-3.452l-5.176 8.966-47.443-27.392 5.176-8.965zm20.608 27.836c2.08 1.325.826 3.575-1.842 2.636-3.21-1.13-6.5 1.299-7.72 3.584-3.542 6.636-.15 29.765-4.767 37.711-.835 1.448-6.73.195-6.73.195l-18.12-10.461s.543-3.098 1.677-10.239l-1.186-1.397 1.684-1.391c.304-1.93 1.012-6.504 1.324-8.503l-1.52-1.326 1.943-1.368c.325-2.113.662-4.35 1.005-6.604-1.658-3.275-5.81-3.23-8.785-4.879-3.808-2.192-6.657-4.102-11.883-7.14 1.863-1.339 5.028-7.18 6.584-9.874.195-.357.233-1.713-.224-2.3-1.035-1.33-4.185-3.199-4.185-3.199l2.496-4.456zM68.78 58.33c.816 1.195 1.446 1.59 4.081 3.11 4.86 2.839 6.554 2.876 8.555 1.539 2.676-1.788 3.255-6.013 2.287-6.877-1.78-1.587-3.847-2.43-9.276-5.565-3.395-1.387-7.48 4.702-5.647 7.793zm24.167 55.942l-1.726 2.99-16.623-9.597 1.726-2.99z" stroke-width="2.507"/><path d="M79.847 56.045c-.839 1.415-1.288 3.144-2.891 4.452.96.136 2.402-1.13 3.76-2.052l.519-1.569z" stroke-width="1.512"/><path d="M100.642 79.265c.439-2.677 1.347-6.68-.423-6.91-5.144-.666-7.926-2-13.102-4.817-.58-.315-.929 1.885-1.102 2.857-1.611 9.023-2.55 17.831-4.047 26.556 0 0 9.127 5.422 14.002 7.946.941.487 1.836-.22 2.387-1.175 2.669-5.55 1.528-19.836 2.285-24.457z" stroke-width="2.507"/><path stroke-miterlimit="10" d="M62.677 37.147L40.843 24.541l-1.847 3.2L60.138 41.6zM44.449 12.42l-2.914-1.682-3.826 6.627 2.914 1.682z" stroke-width="2.507"/></g></svg>