<svg xmlns="http://www.w3.org/2000/svg" width="128" height="128"><g transform="rotate(-40.481 28.994 24.116) scale(.1173)"><path d="M-83.028 625.337C-99.548 627.247-116 600.52-116 600.52c-1.342-2.3-231.672 24.206-231.672 24.206-.6 10.377 3.04 27.909 4.5 40.107 2.662 22.217 7.785 79.893 7.172 108.84 39.878-14.168 98.638-23.183 188.407-60.947 5.455-1.374 18.42-4.478 25.593 8 19.523 6.021 34 8 34 8 9.669-45.918 50.59-60.36 92.679-64l-10.532-88c-6.771 1.847-61.92 47.53-77.174 48.61z" fill="#fff" stroke="#323232" stroke-width="25"/><path d="M136 675.844l-145.171.922s14.557 7.991 15.13 13.954c.448 5.645 5.85 32.713 25.41 36.325 10 2 36.951 4.104 57.726-16 14.794-14.317 46.905-35.2 46.905-35.2zm-68 4.204c10.25 4.526 12 14.68 12 14.68.226 15.243-39.57 21.139-48 16.317-6.045-4.319-12.76-14.608-8-22 6.147-7.403 10.207-7.938 14.925-8.938z" fill="#323232"/><path d="M24 685.045s7.37 2.28 8 6c-.58 11.004 6.785 15.797 10.258 18 3.146-.917-7.38-11.408-2.258-22 3.168-5.738 8-12 8-12s-15.586-.319-24 10z" fill="#323232"/><path d="M480 658.727H198l4-48 278-2zM880 600.727H202l6-36h672c8 19.273 0 36 0 36z" fill="#fff" stroke="#323232" stroke-width="25"/><path d="M880 664.727H202l6-36h672c8 19.273 0 36 0 36z" fill="#fff" stroke="#323232" stroke-width="25"/><path d="M-5.654 579.478L4 664.728h220l6-100H42c-20.705 1.457-38.368 6.848-44 10z" fill="#fff" stroke="#323232" stroke-width="25"/><rect width="96" height="27" x="112" y="585.352" rx="12.632" ry="12.632" fill="#323232"/><path d="M304 624c34.91 0 76.364-15.273 76.364-15.273H544c4.438 48.666 0 69.818 0 69.818H304z" fill="#fff" stroke="#323232" stroke-width="25" stroke-linecap="round"/><path d="M746 560.727h20c5.54 0 10 4.46 10 10v108c0 5.54-4.46 10-10 10h-20c-5.54 0-10-4.46-10-10v-108c0-5.54 4.46-10 10-10z" fill="#323232"/></g></svg>