<svg xmlns="http://www.w3.org/2000/svg" width="128" height="128"><g transform="rotate(-30 -240.339 233.264)"><path fill="#323232" d="M95.207 198.748h45.952v3.295H95.207z"/><path d="M58.683 208.36s3.454-6.769 7.14-9.612h28.56v3.844h46.135l1.373-3.844h5.767v9.611z" fill="#fff" stroke="#323232" stroke-width="2.539"/><path d="M58.317 199.413a1.994 1.994 0 0 0-1.312.487c-1.484 1.78.473 3.103.854 5.713.654-1.513 2.523-4.012 3.86-5.412-1.282-.207-2.397-.8-3.403-.788zm.046.85a1.09 1.09 0 1 1-.002 2.18 1.09 1.09 0 0 1 .002-2.18zm10.78-5.332l.8 2.169H67.33l.927-2.169zm74.17-.216l-.425 1.396h-1.1l-.367.993h6.351c-1.396-2.86-4.459-2.388-4.459-2.388z" fill="#323232"/><path d="M57 211.518c-1.846 1.808-2.063 3.207-6.134 4.081 0 0-1.213 1.105-.394 1.095 6.983-.436 10.042 3.645 9.938 8.274-2.626 11.193-12.507 24.848-10.088 34.59h23.037l6.47-24.012c3.751-5.492 8.787-1.099 12.082-1.099h14.28l20.87-18.673h12.084c.104-.172.134-4.256.134-4.256zm33.276 7.726l12.448.001c3.282 0 5.907 3.25 5.907 5.793 0 2.544-2.626 5.723-5.907 5.723H90.277c-3.282 0-6.562-3.179-6.563-5.723.001-2.543 3.281-5.793 6.562-5.794z" fill="#fff" stroke="#323232" stroke-width="2.523"/><path d="M93.405 220.167c-4.12 3.296-3.841 4.402-.945 8.788 0 0-.563-.07-.823-.275 0 0-2.043-2.365-2.197-4.119.07-1.806.274-2.746 1.373-4.394z" fill="#323232" stroke="#323232" stroke-width=".689"/><path d="M79.234 222.806l-4.737.008a3.43 3.43 0 0 1-3.296 2.488 3.43 3.43 0 0 1-3.294-2.476l-3.76.006s-.076 4.314-.672 6.846c-3.042 7.277-5.303 14.41-8.518 22.038l4.945.008c.236-1.61 1.746-2.811 3.372-2.813 1.626.002 3.25 1.21 3.485 2.819l3.746-.014 5.543-19.33c-1.953-2.524-.703-5.894 1.888-6.548z" fill="none" stroke="#323232" stroke-width="3"/><circle r="2.06" cy="262.732" cx="51.131" fill="none" stroke="#323232" stroke-width="1.648"/><path d="M122.573 219.538l1.12 1.242-.269 1.367 1.12 1.242c.456.714.21 1.347-.186 1.667l-5.277 4.756-1.865-2.07-2.277 2.052-1.18-.06-1.12-1.243z" fill="#fff" stroke="#323232" stroke-width="2.039"/><path d="M152.655 217.695s.285.929.002 1.556l-5.598 2.186-16.804.022-3.73 3.74-11.202.015c-3.113-.618-3.118-4.975-.008-5.601l9.336-.013 1.864-1.87z" fill="#323232" stroke="#323232" stroke-width="2.039"/><path fill="#fff" stroke="#323232" stroke-width="1.935" stroke-linecap="round" d="M142.244 211.212h5.616v4.27h-5.616z"/><path d="M150.005 199.297v7.062h16.578c.764-2.37.764-4.805 0-7.062zm2.846 1.922h1.717v3.296h-1.717zm4.005 0h1.717v3.296h-1.717zm4.005 0h1.717v3.296h-1.717z" fill="#323232"/><path d="M71.998 262.648l-4.039 13.54H51.27l4.588-13.54z" fill="#323232" stroke="#323232" stroke-width="2.197"/><path d="M54.839 259.437h-5.767l-.764 2.793c2.844-.909 4.84-.596 4.84-.596l.774 1.773zM49.62 277.287h21.146v1.098H52.367c-.355.922-1.922 1.373-2.746 0z" fill="#323232"/><circle cx="79.238" cy="229.764" r="1.96" fill="#323232"/><path d="M67.745 199.846l-3.295 6.042h19.772l1.498-2.747h-7.54c-.608 0-1.098-.49-1.098-1.098 0-.608.49-1.098 1.099-1.098h8.737l.6-1.099z" fill="#323232"/><path d="M77.475 206.437l4.943-9.612M67.417 206.437l4.943-9.612M80.741 206.437l4.943-9.612" fill="none" stroke="#fff" stroke-width=".51"/><rect width="17.195" height="1.406" x="77.485" y="201.348" rx=".816" ry=".816" fill="#323232"/><rect width="5.725" height="2.197" x="104.427" y="215.774" rx="1.294" ry="1.323" fill="#323232"/><circle r="1.479" cy="214.295" cx="103.994" fill="#323232"/><circle cx="115.718" cy="222.379" r="1.644" fill="#fff"/><circle r="1.447" cy="221.683" cx="71.179" fill="#323232"/><circle cx="63.332" cy="252.403" r="1.381" fill="#323232"/><path d="M70.885 206.437l4.943-9.612M74.168 206.437l4.943-9.612" fill="none" stroke="#fff" stroke-width=".51"/></g><g transform="scale(-1 1) rotate(-30 -304.339 472.115)"><path fill="#323232" d="M95.207 198.748h45.952v3.295H95.207z"/><path d="M58.683 208.36s3.454-6.769 7.14-9.612h28.56v3.844h46.135l1.373-3.844h5.767v9.611z" fill="#fff" stroke="#323232" stroke-width="2.539"/><path d="M58.317 199.413a1.994 1.994 0 0 0-1.312.487c-1.484 1.78.473 3.103.854 5.713.654-1.513 2.523-4.012 3.86-5.412-1.282-.207-2.397-.8-3.403-.788zm.046.85a1.09 1.09 0 1 1-.002 2.18 1.09 1.09 0 0 1 .002-2.18zm10.78-5.332l.8 2.169H67.33l.927-2.169zm74.17-.216l-.425 1.396h-1.1l-.367.993h6.351c-1.396-2.86-4.459-2.388-4.459-2.388z" fill="#323232"/><path d="M57 211.518c-1.846 1.808-2.063 3.207-6.134 4.081 0 0-1.213 1.105-.394 1.095 6.983-.436 10.042 3.645 9.938 8.274-2.626 11.193-12.507 24.848-10.088 34.59h23.037l6.47-24.012c3.751-5.492 8.787-1.099 12.082-1.099h14.28l20.87-18.673h12.084c.104-.172.134-4.256.134-4.256zm33.276 7.726l12.448.001c3.282 0 5.907 3.25 5.907 5.793 0 2.544-2.626 5.723-5.907 5.723H90.277c-3.282 0-6.562-3.179-6.563-5.723.001-2.543 3.281-5.793 6.562-5.794z" fill="#fff" stroke="#323232" stroke-width="2.523"/><path d="M93.405 220.167c-4.12 3.296-3.841 4.402-.945 8.788 0 0-.563-.07-.823-.275 0 0-2.043-2.365-2.197-4.119.07-1.806.274-2.746 1.373-4.394z" fill="#323232" stroke="#323232" stroke-width=".689"/><path d="M79.234 222.806l-4.737.008a3.43 3.43 0 0 1-3.296 2.488 3.43 3.43 0 0 1-3.294-2.476l-3.76.006s-.076 4.314-.672 6.846c-3.042 7.277-5.303 14.41-8.518 22.038l4.945.008c.236-1.61 1.746-2.811 3.372-2.813 1.626.002 3.25 1.21 3.485 2.819l3.746-.014 5.543-19.33c-1.953-2.524-.703-5.894 1.888-6.548z" fill="none" stroke="#323232" stroke-width="3"/><circle cx="51.131" cy="262.732" r="2.06" fill="none" stroke="#323232" stroke-width="1.648"/><path d="M122.573 219.538l1.12 1.242-.269 1.367 1.12 1.242c.456.714.21 1.347-.186 1.667l-5.277 4.756-1.865-2.07-2.277 2.052-1.18-.06-1.12-1.243z" fill="#fff" stroke="#323232" stroke-width="2.039"/><path d="M152.655 217.695s.285.929.002 1.556l-5.598 2.186-16.804.022-3.73 3.74-11.202.015c-3.113-.618-3.118-4.975-.008-5.601l9.336-.013 1.864-1.87z" fill="#323232" stroke="#323232" stroke-width="2.039"/><path fill="#fff" stroke="#323232" stroke-width="1.935" stroke-linecap="round" d="M142.244 211.212h5.616v4.27h-5.616z"/><path d="M150.005 199.297v7.062h16.578c.764-2.37.764-4.805 0-7.062zm2.846 1.922h1.717v3.296h-1.717zm4.005 0h1.717v3.296h-1.717zm4.005 0h1.717v3.296h-1.717z" fill="#323232"/><path d="M71.998 262.648l-4.039 13.54H51.27l4.588-13.54z" fill="#323232" stroke="#323232" stroke-width="2.197"/><path d="M54.839 259.437h-5.767l-.764 2.793c2.844-.909 4.84-.596 4.84-.596l.774 1.773zM49.62 277.287h21.146v1.098H52.367c-.355.922-1.922 1.373-2.746 0z" fill="#323232"/><circle r="1.96" cy="229.764" cx="79.238" fill="#323232"/><path d="M67.745 199.846l-3.295 6.042h19.772l1.498-2.747h-7.54c-.608 0-1.098-.49-1.098-1.098 0-.608.49-1.098 1.099-1.098h8.737l.6-1.099z" fill="#323232"/><path d="M77.475 206.437l4.943-9.612M67.417 206.437l4.943-9.612M80.741 206.437l4.943-9.612" fill="none" stroke="#fff" stroke-width=".51"/><rect ry=".816" rx=".816" y="201.348" x="77.485" height="1.406" width="17.195" fill="#323232"/><rect ry="1.323" rx="1.294" y="215.774" x="104.427" height="2.197" width="5.725" fill="#323232"/><circle cx="103.994" cy="214.295" r="1.479" fill="#323232"/><circle r="1.644" cy="222.379" cx="115.718" fill="#fff"/><circle cx="71.179" cy="221.683" r="1.447" fill="#323232"/><circle r="1.381" cy="252.403" cx="63.332" fill="#323232"/><path d="M70.885 206.437l4.943-9.612M74.168 206.437l4.943-9.612" fill="none" stroke="#fff" stroke-width=".51"/></g></svg>