<svg xmlns="http://www.w3.org/2000/svg" width="128" height="128"><path d="M93.156 85.225l-8.451 8.452 19.876 19.876 8.451-8.452zm-76.687-7.74c-1.484-1.416-2.193-2.92-2.075-4.44.18-2.323 2.147-3.959 3.618-4.982.41-.285 20.073-13.266 21.303-14.342a1.77 1.77 0 1 1 2.33 2.662c-1.3 1.139-21.24 14.317-21.613 14.577-1.847 1.283-2.097 2.066-2.119 2.341-.04.536.626 1.252.998 1.625 1.54 1.468 7.96 7.906 12.801 12.769L29.207 90.2c-4.681-4.712-11.246-11.293-12.738-12.716zM87.403 53.86a6.272 6.272 0 0 1-.006 8.821l-5.603 5.603-2.504-2.504 5.603-5.603a2.727 2.727 0 0 0 .006-3.813l-2.949-2.948 2.504-2.504zm-27.52-22.824l3.756-3.756 2.504 2.504-.626.626 1.096 1.095-2.504 2.504-1.096-1.095-.626.626zm13.641-8.27l2.958-6.12 2.495 2.496-4.539 4.538zm24.233-8.32l4.382 4.383-8.607 8.607-4.382-4.382zM30.93 93.482l8.92 8.92 4.915-4.914-8.983-8.858zm41.004-30.049l19.094 19.094-9.078 9.077L62.857 72.51zm3.73 34.458s-9.325-11.109-10.638-14.926c-1.416-4.118-4.063-5.744-6.528-6.096l1.855-1.855 19.093 19.094zM51.53 66.934L89.776 28.69l-7.67-7.668-46.994 46.995zm-20.229 4.89l21.794-1.447L92.28 31.193l3.443 3.443-54.307 54.307L27.8 75.327zm45.17-12.93l-1.72 1.722s2.807 1.478 5.456 1.038c-2.817-.92-3.735-2.76-3.735-2.76z" fill="#fefefe" stroke="#323232" stroke-width="2.83"/></svg>