<svg xmlns="http://www.w3.org/2000/svg" style="isolation:isolate" width="128" height="128"><g stroke="#323232" stroke-width="5.986"><path d="M43.48 98.29c-4.693-2.71-5.534-5.96-9.017-10.112-3.484-4.151-6.539-5.544-8.392-10.636-1.854-5.092-.409-8.123-.409-13.542 0-5.42-1.445-8.45.409-13.542 1.853-5.092 4.908-6.485 8.392-10.636 3.483-4.152 4.324-7.402 9.017-10.112s7.928-1.812 13.265-2.753c5.337-.941 8.07-2.89 13.407-1.95 5.337.941 7.239 3.708 11.932 6.418 4.693 2.71 8.04 2.973 11.524 7.124 3.483 4.152 3.162 7.494 5.015 12.586 1.854 5.093 4.248 7.446 4.248 12.865 0 5.42-2.394 7.772-4.248 12.865-1.853 5.092-1.532 8.434-5.015 12.586-3.484 4.151-6.83 4.414-11.524 7.124-4.693 2.71-6.595 5.477-11.932 6.418-5.336.94-8.07-1.009-13.407-1.95-5.337-.941-8.572-.044-13.265-2.753z" style="isolation:isolate" fill="#fff" stroke-width="5.0004051"/><path d="M76.128 85.568a1.574 1.574 0 0 0-1.316-.296 1.557 1.557 0 0 0-1.178 1.873 1.57 1.57 0 0 0 1.524 1.218 1.565 1.565 0 0 0 .97-2.795zm0 0" fill="#323232" stroke-width="5.0004051"/><path d="M71.275 76.444c5.1.15 10.3-4.923 9.798-11.497M82.994 82.056c4.59-3.36 8.26-10.19 7.759-16.763" fill="none" stroke-linecap="round" stroke-linejoin="round" stroke-width="5.0004051"/></g></svg>