<svg xmlns="http://www.w3.org/2000/svg" width="128" height="128"><g fill="#fff"><path d="M30.504 9.225l-1.01 4.357 1.638 6.806 2.88 3.421 3.889-.936 1.009-4.356-1.637-6.806-2.88-3.422zM55.412 6.621l-2.353 3.803-.631 6.972 1.631 4.164 3.984.36 2.352-3.803.632-6.971-1.631-4.164zM77.574 10.341l-2.945 3.366-1.766 6.774.926 4.375 3.87 1.009 2.945-3.366 1.766-6.773-.926-4.376zM99.814 18.025l-3.723 2.478-3.477 6.075-.251 4.465 3.471 1.987 3.723-2.478 3.478-6.075.25-4.465zM8.467 24.414l1.824 4.083 5.412 4.44 4.36.991 2.538-3.092-1.824-4.083-5.412-4.44-4.36-.991zM1.626 49.801l4.035 1.928 7-.125 3.963-2.071-.072-4-4.035-1.928-6.999.126-3.963 2.07zM27.364 70.755l1.298-4.28-1.178-6.9-2.644-3.606-3.943.673-1.299 4.28 1.179 6.9 2.644 3.606zM109.444 45.36l4.436-.57 5.81-3.903 2.206-3.891-2.23-3.32-4.436.57-5.81 3.903-2.206 3.89zM112.315 62.505l3.906 2.179 6.993.315 4.086-1.817.18-3.996-3.906-2.179-6.993-.315-4.086 1.818zM105.468 80.04l2.371 3.792 5.974 3.648 4.457.378 2.084-3.414-2.371-3.791-5.975-3.648-4.456-.378zM91.937 96.163l1.38 4.254 4.91 4.989 4.232 1.448 2.85-2.806-1.38-4.254-4.91-4.989-4.231-1.448zM75.912 106.923l-.535 4.44 2.358 6.59 3.23 3.093 3.767-1.348.535-4.44-2.358-6.59-3.23-3.093zM56.154 117.793l3.995-2.011 4.184-5.612.788-4.402-3.206-2.391-3.995 2.01L53.736 111l-.788 4.403zM41.464 92.183l3.969 2.06 7 .107 4.03-1.94.06-3.999-3.97-2.06-6.999-.106-4.03 1.939zM64.757 68.638l-1.841 4.075.274 6.995 2.156 3.918 3.997-.157 1.841-4.075-.275-6.995-2.155-3.918zM84.64 69.97l.084 4.47 3.248 6.202 3.627 2.616 3.544-1.856-.084-4.471-3.248-6.202-3.627-2.615zM90.11 66.66l4.035 1.928 6.998-.125 3.964-2.072-.072-4L101 60.465l-6.999.125-3.963 2.071zM87.29 51.085l4.177-1.597 4.73-5.16 1.228-4.3-2.948-2.703-4.177 1.597-4.73 5.16-1.229 4.3zM80.148 46.104l3.247-3.075 2.393-6.578-.512-4.443-3.759-1.368-3.247 3.076-2.393 6.578.512 4.443zM55.399 30.442l-.764 4.406 2.016 6.704 3.067 3.254 3.83-1.152.764-4.406-2.016-6.704-3.067-3.254zM36.257 44.557l.877 4.385 4.298 5.525 4.034 1.93 3.158-2.456-.877-4.385-4.298-5.526-4.034-1.93zM2.49 37.937l3.513 2.767 6.855 1.416 4.322-1.15.81-3.917-3.514-2.768-6.855-1.415-4.322 1.15zM6.91 66.141l4.346-1.054 5.346-4.518 1.764-4.11-2.582-3.055-4.346 1.054-5.346 4.519-1.764 4.11zM18.038 15.663l.681 4.42 4.048 5.712 3.945 2.107 3.263-2.313-.681-4.42-4.048-5.711-3.944-2.107zM43.387 7.275l-1.643 4.159.611 6.973 2.342 3.81 3.984-.349 1.644-4.16-.611-6.972-2.342-3.81zM68.337 23.427l2.55-3.674 1-6.928-1.409-4.245-3.959-.57-2.55 3.673-1 6.928 1.41 4.245zM88.467 13.841l-3.199 3.125-2.29 6.615.58 4.434 3.78 1.309 3.199-3.125 2.29-6.615-.58-4.434zM103.194 38.462l4.233-1.443 4.917-4.983 1.386-4.252-2.848-2.81-4.233 1.443-4.916 4.983-1.386 4.252zM111.556 53.012l4.225 1.465 6.941-.907 3.707-2.502-.518-3.966-4.226-1.465-6.94.907-3.708 2.502zM110.428 71.206l3.062 3.259 6.568 2.42 4.445-.494 1.383-3.754-3.062-3.26-6.569-2.419-4.444.494zM99.449 88.439l1.674 4.147 5.247 4.634 4.322 1.148 2.648-2.998-1.675-4.147-5.246-4.633-4.322-1.15zM84.072 102.76l.77 4.404 4.164 5.628 3.986 2.026 3.216-2.378-.77-4.405-4.164-5.628-3.986-2.027zM68.168 107.09l-2.389 3.781-.696 6.965 1.591 4.18 3.98.398 2.389-3.781.697-6.965-1.592-4.18zM45.217 105.778l4.449.46 6.55-2.47 3.037-3.282-1.41-3.743-4.45-.46-6.55 2.47-3.037 3.282zM50.071 73.032l.008 4.472 3.142 6.256 3.583 2.677 3.574-1.796-.008-4.472-3.142-6.255-3.582-2.677zM75.83 69.806l-1.652 4.155.597 6.975 2.333 3.815 3.986-.34 1.652-4.156-.597-6.975-2.333-3.815zM90.083 58.617l4.432.596 6.622-2.269 3.136-3.188-1.296-3.784-4.432-.596-6.623 2.269-3.136 3.188zM71.912 43.54l2.182-3.904.321-6.993-1.814-4.088-3.996-.184-2.181 3.904-.322 6.993 1.814 4.088zM44.048 37.226l.64 4.426 3.995 5.748 3.925 2.144 3.285-2.283-.64-4.426-3.995-5.748-3.925-2.144zM28.281 51.355l.585 4.434 3.922 5.798 3.897 2.193L40 61.539l-.585-4.434-3.922-5.798-3.897-2.193z"/></g></svg>