<svg xmlns="http://www.w3.org/2000/svg" width="128" height="128"><path d="M4.597 41.612v53.107l74.4 20.639V62.251zm3.767 16.016l11.39 3.24v3.91l-7.642-2.174-.42 4.92c.884-.341 1.794-.378 2.73-.111 1.94.551 3.43 1.666 4.475 3.341 1.056 1.68 1.584 3.779 1.584 6.3 0 2.358-.625 4.081-1.875 5.17-1.249 1.087-2.918 1.334-5.007.74-1.24-.353-2.386-.97-3.442-1.852a10.003 10.003 0 0 1-2.504-3.168 8.646 8.646 0 0 1-.92-3.816l4.524 1.287c.075 1.001.317 1.829.726 2.484.41.655.938 1.074 1.584 1.258.754.214 1.335.02 1.744-.586.41-.616.614-1.645.614-3.088 0-1.357-.247-2.451-.742-3.281-.485-.827-1.17-1.368-2.053-1.62-.862-.245-1.528-.137-2.002.32l-.291.321-3.635-1.97zm20.147 5.732L39.9 66.6v3.91l-7.642-2.173-.42 4.92c.883-.342 1.793-.379 2.73-.112 1.939.552 3.43 1.666 4.475 3.342 1.055 1.679 1.584 3.778 1.584 6.299 0 2.358-.626 4.082-1.875 5.17-1.25 1.087-2.918 1.332-5.008.738-1.239-.352-2.386-.968-3.441-1.85a10.01 10.01 0 0 1-2.504-3.17 8.646 8.646 0 0 1-.92-3.816l4.523 1.287c.076 1.002.318 1.831.727 2.486.41.655.938 1.074 1.584 1.258.754.215 1.335.02 1.744-.586.41-.616.613-1.646.613-3.09 0-1.357-.247-2.45-.742-3.28-.485-.828-1.17-1.367-2.053-1.618-.861-.245-1.528-.14-2.002.318l-.29.323-3.637-1.973zm20.92 6.117c.896-.011 1.857.127 2.88.412l.711.201v3.88l-.26-.075c-1.712-.476-3.073-.346-4.085.389-1.002.727-1.611 1.974-1.826 3.744.98-.841 2.208-1.05 3.683-.63 1.702.483 3.058 1.595 4.07 3.337 1.024 1.745 1.536 3.83 1.536 6.254 0 1.54-.292 2.847-.873 3.92-.582 1.073-1.4 1.804-2.456 2.193-1.044.381-2.23.383-3.554.006-2.133-.607-3.844-1.949-5.137-4.03-1.282-2.076-1.922-4.565-1.922-7.462V79.92c0-2.596.403-4.755 1.211-6.475.819-1.717 1.992-2.879 3.522-3.488a6.899 6.899 0 0 1 2.5-.48zM22.55 80.518a3 3 0 0 1 1.07.127c.765.218 1.4.634 1.906 1.252.507.607.76 1.282.76 2.025 0 .754-.258 1.29-.775 1.606-.507.308-1.137.355-1.891.14a3.768 3.768 0 0 1-1.906-1.236c-.496-.604-.742-1.278-.742-2.021 0-.733.241-1.268.726-1.604.248-.166.531-.262.852-.289zm25.742.158a1.467 1.467 0 0 0-.666.223c-.388.256-.68.626-.873 1.11v1.646c0 1.659.22 2.96.662 3.904.442.944 1.024 1.52 1.746 1.725.732.208 1.318-.017 1.76-.678.441-.671.662-1.627.662-2.865 0-1.26-.23-2.35-.693-3.268-.453-.925-1.05-1.493-1.793-1.705a2.227 2.227 0 0 0-.805-.092zm8.934 6.504l1.927.55.059.743c.46-.45 1.07-.569 1.826-.353.786.223 1.341.734 1.666 1.535.451-.58 1.093-.751 1.928-.514 1.377.392 2.083 1.547 2.117 3.463v5.158l-2.059-.586V92.15c0-.456-.063-.8-.19-1.03-.125-.23-.339-.386-.64-.472-.383-.109-.668.044-.857.461l.014.252v5.34l-2.06-.586v-5.012c0-.45-.06-.794-.18-1.027-.122-.238-.337-.402-.647-.49-.354-.101-.637.012-.846.336v5.718l-2.058-.586zm10.248 2.916l1.927.55.059.743c.46-.45 1.07-.569 1.826-.353.786.223 1.341.734 1.666 1.535.451-.58 1.094-.751 1.928-.514 1.377.392 2.083 1.547 2.117 3.463v5.158l-2.059-.586v-5.027c0-.456-.063-.8-.189-1.03-.126-.23-.338-.386-.639-.472-.383-.109-.67.044-.86.461l.015.252v5.34l-2.059-.586v-5.012c0-.45-.06-.794-.182-1.027-.12-.238-.336-.402-.646-.49-.354-.101-.635.01-.844.334v5.718l-2.06-.586zM123.404 41.159L84.857 62.118v53.488l38.547-20.96zm-7.07 9.211c1.97.103 3.381 1.457 3.73 3.78-1.368-1.237-3.56-1.318-6.033.066L96.888 63.8v-3.602l16.461-9.203v.037c1.078-.497 2.09-.709 2.985-.662zm.62 4.773c1.914 0 3.217 1.357 3.217 3.746v1.526c-1.57-1.657-4.343-1.8-7.503-.033l-.682.38-15.098 8.442v-3.602l17.143-9.586c1.058-.591 2.054-.872 2.924-.873zm-.71 5.91c2.339-.087 3.927 1.404 3.927 4.14 0 3.978-3.36 9.083-7.503 11.4-4.144 2.316-7.504.969-7.504-3.01 0-3.98 3.36-9.084 7.504-11.4 1.294-.725 2.513-1.09 3.576-1.13zm-.928 3.133c-.764-.064-1.678.157-2.648.7-2.588 1.446-4.776 4.731-4.776 7.171 0 2.44 2.188 3.281 4.776 1.834 2.587-1.446 4.775-4.733 4.775-7.173 0-1.526-.855-2.424-2.127-2.532zm-7.809.883a20.532 20.532 0 0 0-2.343 3.736v-2.427zm7.084 1.067c.906.029 1.487.564 1.487 1.345 0 1.25-1.49 3.534-3.41 4.608-1.92 1.073-3.41.455-3.41-.795s1.49-3.534 3.41-4.608c.72-.402 1.38-.568 1.923-.55zM99.392 79.179c2.34-.088 3.928 1.405 3.928 4.14 0 3.98-3.36 9.082-7.504 11.399-4.144 2.316-7.504.969-7.504-3.01 0-3.98 3.36-9.082 7.504-11.399 1.295-.724 2.513-1.09 3.576-1.13zm-.928 3.132c-.763-.064-1.678.157-2.648.7-2.588 1.446-4.775 4.731-4.775 7.171 0 2.44 2.187 3.281 4.775 1.834 2.588-1.446 4.775-4.73 4.775-7.171 0-1.526-.854-2.426-2.127-2.534zm-.724 1.952c.905.029 1.486.562 1.486 1.343 0 1.25-1.49 3.536-3.41 4.61-1.92 1.073-3.41.455-3.41-.795s1.49-3.536 3.41-4.61c.72-.402 1.38-.566 1.924-.548zm13.855 3.435V91.3l-17.142 9.584c-3.385 1.892-6.14.604-6.14-2.871v-1.528c1.57 1.657 4.343 1.802 7.503.035l.682-.382zm-8.275.399v2.427l-2.344 1.309a20.532 20.532 0 0 0 2.344-3.736zm8.275 5.003v3.604l-16.46 9.203v-.037c-3.449 1.59-6.209.26-6.715-3.117 1.367 1.236 3.559 1.317 6.033-.067zM46.167 12.395l75.58 22.395-39.914 22.396L6.253 34.79z" fill="#fff"/></svg>