<svg xmlns="http://www.w3.org/2000/svg" width="128" height="128"><path d="M51.993 53.15c1.458 3.176 2.16 3.341 4.17 4.937-3.824.906-4.99.494-6.99-3.34zm-18.855 8.083a2.813 2.813 0 1 1 2.67 4.952 2.813 2.813 0 0 1-2.67-4.952zM17.365 84.088c.738 18.423 3.277 19.693 8.452 27.367 3.79 1.341 7.863.778 11.678-.86 3.544-1.523 4.566-3.31 6.85-5.706-5.137-8.78-9.401-14.41-8.323-26.664-8.514-1.576-11.235-.112-18.657 5.863zM27.869 93.1a2.813 2.813 0 1 1 2.67 4.951 2.813 2.813 0 0 1-2.67-4.95zm31.117-74.92l5.142 8.955 26.118-15.08-5.227-8.905c-14.243 8.225-13.47 7.775-26.033 15.03zm-3.713 2.071l-3.898 2.252-18.233 10.528L45.035 53.18l21.88-12.633-2.83-4.93-15.462 8.927c-.828.478-2.043-.077-2.521-.905-.478-.828-.328-2.119.5-2.597l15.466-8.93-2.2-3.808-15.531 8.968c-.828.478-2.02-.038-2.5-.866-.477-.828-.305-2.08.523-2.558l15.56-8.984zM15.1 69.215c1.43 3.265 2.152 5.427 2.14 9.887 7.866-6.618 15.059-6.902 20.494-5.107l8.375-4.934c5.246 1.193 11.278.004 15.07-3.073 3.79-3.077 8.452-9.985 9.378-14.223.68-3.115-.155-5.675-1.92-8.37l-4.893 2.826 2.802 4.89c-1.866 3.54-5.856 10.383-9.22 12.493-2.535 1.478-11.336.202-11.336.202S35.18 45.15 29.43 35.13l-7.664 4.631c10.302 16.115 1.836 24.65-6.666 29.454zM4.21 48.282c4.332.277 17.18.073 17.18.073s2.63 6.19-.745 9.023c-3.68-4.854-8.891-6.777-16.435-9.096zm61.95-17.6a1483.28 1483.28 0 0 1 5.003 8.77c.296-3.92 1.104-6.129 5.546-9.55l14.87-8.585-2.3-3.983L66.16 30.681z" fill="#fff" stroke="#323232" stroke-width="3"/><path d="M50.528 67.788l5.945 12.368L73.73 57.625l-6.712-11.122-8.82 11.601-7.191 4.794z" fill="#fff"/><path d="M82.596 66.34c1.458 3.176 2.16 3.341 4.17 4.937-3.824.906-4.99.494-6.99-3.34zM63.74 74.422a2.813 2.813 0 1 1 2.67 4.952 2.813 2.813 0 0 1-2.67-4.952zM47.968 97.278c.738 18.423 3.277 19.693 8.452 27.367 3.79 1.341 7.863.778 11.678-.86 3.544-1.523 4.566-3.31 6.85-5.706-5.137-8.78-9.401-14.41-8.323-26.664-8.514-1.576-11.235-.112-18.657 5.863zm10.504 9.012a2.813 2.813 0 1 1 2.67 4.951 2.813 2.813 0 0 1-2.67-4.95zm31.117-74.92l5.142 8.955 26.118-15.08-5.227-8.905c-14.243 8.225-13.47 7.775-26.033 15.03zm-3.713 2.071l-3.898 2.252-18.233 10.528L75.638 66.37l21.88-12.633-2.83-4.93-15.462 8.927c-.828.478-2.043-.077-2.521-.905-.478-.828-.328-2.119.5-2.597l15.466-8.93-2.2-3.808-15.531 8.968c-.828.478-2.02-.038-2.5-.866-.477-.828-.305-2.08.523-2.558l15.56-8.984zM45.704 82.405c1.43 3.265 2.152 5.427 2.14 9.887 7.866-6.618 15.059-6.902 20.494-5.107l8.375-4.934c5.246 1.193 11.278.004 15.07-3.073 3.79-3.077 8.452-9.985 9.378-14.223.68-3.115-.155-5.675-1.92-8.37l-4.893 2.826 2.802 4.89c-1.866 3.54-5.856 10.383-9.22 12.493-2.535 1.478-11.336.202-11.336.202S65.784 58.34 60.034 48.32l-7.664 4.631c10.302 16.115 1.836 24.65-6.666 29.454zM34.813 61.472c4.332.277 17.18.073 17.18.073s2.63 6.19-.745 9.023c-3.68-4.854-8.891-6.777-16.435-9.096zm61.95-17.6a1483.28 1483.28 0 0 1 5.003 8.77c.296-3.92 1.104-6.129 5.546-9.55l14.87-8.585-2.3-3.983-23.118 13.347z" fill="#fff" stroke="#323232" stroke-width="3"/></svg>