<svg xmlns="http://www.w3.org/2000/svg" width="128" height="128"><g fill="#fff"><path d="M99.233 65.008a115.1 115.1 0 0 0 9.197 11.044c.243.256.406.577.47.924a56.45 56.45 0 0 1 4.383-2.18L97.566 57.647a14.481 14.481 0 0 0 1.667 7.36zM19.57 76.052a115.054 115.054 0 0 0 9.197-11.045 14.478 14.478 0 0 0 1.668-7.36L14.717 74.796a56.486 56.486 0 0 1 4.383 2.18c.064-.346.228-.667.47-.923zM29.577 24.306l.026.01c.21.092.435.141.663.144a47.46 47.46 0 0 0 13.149-3.179 30.975 30.975 0 0 1-.629-12.774l-16.272 5.436a1.875 1.875 0 0 0-1.233 2.214c1.116 4.47 2.714 7.46 4.296 8.15zM97.734 24.46c.227-.003.452-.052.66-.143.01-.006.022-.007.032-.013 1.581-.69 3.178-3.68 4.295-8.15a1.876 1.876 0 0 0-1.235-2.21L85.216 8.52a30.95 30.95 0 0 1-.63 12.761 47.542 47.542 0 0 0 13.148 3.18zM13.4 78.316v29.046h11.672c.862-3.46 2.894-12.716 1.503-18.286-1.111-4.44-8.456-8.618-13.176-10.76zM58.063 30.919a21.036 21.036 0 0 0 11.874 0 15.288 15.288 0 0 0 10.557-9.192 23.81 23.81 0 0 0 1.292-10.16c-3.07 4.803-8.777 11.02-17.786 11.02-9.005 0-14.71-6.212-17.784-11.019a23.832 23.832 0 0 0 1.294 10.17 15.284 15.284 0 0 0 10.553 9.181z"/><path d="M97.79 88.166c.937-3.749 4.437-6.947 8.117-9.38-.04-.034-.09-.047-.128-.085a115.467 115.467 0 0 1-9.544-11.445c-4.846-6.465-1.459-27.773.787-39.074a53.997 53.997 0 0 1-13.812-3.41 18.975 18.975 0 0 1-12.215 9.743 24.784 24.784 0 0 1-13.99 0 18.974 18.974 0 0 1-12.216-9.743 53.99 53.99 0 0 1-13.812 3.41c2.246 11.302 5.634 32.61.788 39.073a115.42 115.42 0 0 1-9.545 11.446c-.037.038-.087.051-.128.085 3.681 2.433 7.18 5.631 8.117 9.38 1.809 7.23-1.142 18.83-1.772 21.16l6.097 3.658h58.932l6.096-3.657c-.63-2.33-3.58-13.931-1.771-21.16zm-7.552-25.782v37.482a8.066 8.066 0 0 1-8.52 7.496H46.282a8.066 8.066 0 0 1-8.52-7.496V49.265a8.066 8.066 0 0 1 8.52-7.497h35.436a8.066 8.066 0 0 1 8.52 7.497v13.119z"/><path d="M46.282 71.754a9.3 9.3 0 0 1-4.771-1.29v29.402a4.36 4.36 0 0 0 4.771 3.748h35.436a4.359 4.359 0 0 0 4.772-3.748V70.464a9.302 9.302 0 0 1-4.772 1.29H46.282zM101.425 89.076c-1.394 5.58.64 14.828 1.503 18.286h11.673V78.318c-4.722 2.146-12.066 6.327-13.176 10.758zM81.718 45.517H46.282a4.359 4.359 0 0 0-4.771 3.748v14.993a4.36 4.36 0 0 0 4.771 3.748h35.436a4.359 4.359 0 0 0 4.772-3.748V49.265a4.36 4.36 0 0 0-4.772-3.748z"/></g></svg>