<svg xmlns="http://www.w3.org/2000/svg" width="128" height="128"><path d="M64.479 28.123c-2.604.053-5.209.973-7.415 2.74l-.734.565-.857-.282c-.122 0-6.248-2.546-13.967-2.546-9.802 0-22.669 4.243-28.428 23.757-4.534 15.977-1.591 35.066 7.598 49.77 7.229 11.454 16.909 18.1 26.465 18.1 2.819 0 5.513-.567 8.209-1.698l.857-.283.736.567c4.41 3.534 10.415 3.676 14.825.283l.736-.567.857.284c2.45.99 5.023 1.414 7.473 1.414 4.778 0 9.559-1.556 14.092-4.666 4.534-2.97 8.822-7.493 12.375-13.291 9.312-14.705 12.128-33.795 7.595-49.772C109.26 32.843 96.395 28.6 86.471 28.6c-6.126 0-11.15 1.556-13.11 2.263l-.736.283-.734-.566a11.709 11.709 0 0 0-7.412-2.457zm-.344 13.08c6.663 0 11.816 1.538 15.46 4.615 3.676 3.078 5.514 7.454 5.514 13.131 0 2.48-.492 4.736-1.478 6.768s-2.571 4.109-4.752 6.23l-5.154 4.795c-1.464 1.404-2.48 2.854-3.047 4.348-.568 1.464-.882 3.33-.942 5.601H56.918c0-4.362.494-7.796 1.48-10.306.986-2.54 2.584-4.736 4.795-6.588 2.211-1.853 3.885-3.54 5.02-5.065 1.165-1.553 1.748-3.256 1.748-5.109 0-4.512-1.942-6.768-5.826-6.768-1.793 0-3.242.657-4.348 1.971-1.105 1.315-1.688 3.093-1.748 5.334H42.891c.06-5.976 1.941-10.62 5.646-13.937 3.705-3.347 8.905-5.02 15.598-5.02zm-30.86 1.541c-4.354 31.012-2.328 41.155 7.977 66.647 0 0-14.833-17.283-16.67-32.43-1.793-14.782 8.693-34.217 8.693-34.217zm61.45 0s10.486 19.435 8.693 34.217c-1.837 15.147-16.67 32.43-16.67 32.43 10.305-25.492 12.33-35.635 7.977-66.647zM63.463 92.742c2.39 0 4.377.718 5.96 2.153 1.614 1.404 2.42 3.21 2.42 5.421 0 2.211-.806 4.035-2.42 5.47-1.583 1.403-3.57 2.105-5.96 2.105s-4.393-.702-6.006-2.106c-1.584-1.434-2.375-3.258-2.375-5.469 0-2.21.791-4.017 2.375-5.421 1.613-1.435 3.616-2.153 6.006-2.153zM87.431 2.242s-7.87 1.468-15.026 6.647c-4.207 3.045-9.198 9.06-9.718 14.917 2.482-.572 7.546.187 10.09 2.633 3.956-13.891 22.08-18.006 22.08-18.006z" fill="#fff"/></svg>