<svg xmlns="http://www.w3.org/2000/svg" width="128" height="128"><g fill="#fff"><path d="M123.404 41.16L84.857 62.115v53.488l38.547-20.96V41.158zm-7.97 10.063c.184-.028.334.066.392.261l.78 2.618c.657 2.208 1.002 4.672 1.056 7.316l-4.842 2.621c.055-2.702.398-5.539 1.055-8.459l.78-3.463c.077-.344.317-.68.587-.826a.58.58 0 0 1 .192-.068zM104.2 60.155c.185-.027.333.067.39.262l.782 2.62c.657 2.208 1 4.672 1.055 7.316l-4.842 2.62c.054-2.704.401-5.54 1.06-8.46l.776-3.463c.078-.345.316-.68.586-.826a.59.59 0 0 1 .193-.069zm13.485 2.68v3.406l.99 1.778-6.865 3.714.99-2.847V65.48l4.885-2.644zm-24.72 6.26c.185-.028.333.066.392.261l.78 2.618c.658 2.208 1.003 4.673 1.057 7.316l-4.843 2.621c.054-2.702.4-5.54 1.056-8.46l.782-3.462c.077-.344.312-.68.582-.826a.603.603 0 0 1 .195-.068zm25.942.228V85.05l-7.33 3.967V73.29zM106.45 71.77v3.406l.987 1.78-6.862 3.712.99-2.848v-3.406zm1.221 6.49v12.866l-7.33 3.967V82.225zm-12.455 2.45v3.406l.99 1.778-6.865 3.714.986-2.847v-3.406zM118.9 86.41v4.09s-.67 2.064-1.5 2.514l-4.32 2.338c-.83.45-1.457-.915-1.457-.915V90.35zm-22.462.787v10.008l-7.332 3.967V91.164zm11.232 5.291v4.088s-.67 2.067-1.5 2.516l-4.32 2.338c-.83.45-1.457-.916-1.457-.916v-4.086zm-11.232 6.078v4.09s-.67 2.067-1.5 2.516l-4.32 2.338c-.83.45-1.46-.916-1.46-.916v-4.088zM46.168 12.396L6.254 34.79l75.578 22.397 39.914-22.397zM4.598 41.614V94.72l74.398 20.638V62.253zm8.941 10.606l7.617 2.129v15.26L32.4 72.75v-15.26l7.592 2.121v37.723L32.4 95.214v-16.14L21.156 75.93v16.14l-7.617-2.127zm32.541 9.093l12.852 3.59c3.73 1.043 6.7 3.03 8.912 5.963 2.228 2.937 3.342 6.253 3.342 9.95 0 3.696-1.096 6.308-3.29 7.837-2.193 1.53-5.234 1.75-9.12.664L53.696 87.9v13.266l-7.617-2.129zm7.617 8.477v11.762l5.235 1.463c1.45.405 2.572.243 3.367-.485.794-.728 1.191-1.999 1.191-3.812 0-1.883-.405-3.49-1.217-4.822-.811-1.35-1.899-2.225-3.263-2.624z"/></g></svg>