<svg xmlns="http://www.w3.org/2000/svg" width="128" height="128"><path d="M60.497 120.054v-15.061c-3.866 1.653-6.27 3.977-4.087 7.642.43.742-.202 1.523-.913 1.487a.957.957 0 0 1-.724-.21c-3.019-2.117-3.22-4.245-3.22-5.965 0-2.994 1.557-5.543 4.447-7.548l.054-.032c-2.4-.878-4.654-2.019-6.503-3.475-.034.035-.074.068-.108.103-2.574-2.049-4.425-4.85-4.425-8.473 0-4.321 2.777-8.089 7.542-10.471-2.156-.78-3.27-1.314-4.729-2.183-6.46-3.86-7.422-8.867-7.422-11.508.01-3.273.742-6.383 4.192-9.36 1.8-1.599 3.878-2.448 5.717-2.544 1.84-.097 3.44.559 4.297 1.967 1.575 2.585.036 6.718-3.443 9.233a9.82 9.82 0 0 1-3.72 1.684c.427 1.378 1.723 2.78 3.699 3.964 1.585.946 4.717 2.03 9.416 3.58V45.7a7.646 7.646 0 0 1-3.436-3.454c-1.195 2.042-3.463 3.493-5.998 3.493-2.57 0-4.785-1.43-5.966-3.518-4.025 4.027-11.508 4.104-15.536.077l5.837-5.84-2.677 1.11c-5.261 2.18-11.294-.32-13.472-5.582l8.295-3.436c-8.04 0-11.736-5.043-11.736-10.31h23.544c4.618 0 8.08 2.039 11.06 5.02 3.24 3.239 4.927 10.44 10.085 10.44v-9.548a6.842 6.842 0 0 1-3.436-5.92c0-9.164 13.747-9.164 13.747 0a6.844 6.844 0 0 1-3.436 5.92V33.7c5.158 0 6.838-7.202 10.077-10.441 2.981-2.981 6.45-5.02 11.068-5.02h23.535c0 5.267-3.696 10.31-11.734 10.31l8.302 3.436c-2.18 5.262-8.212 7.761-13.474 5.582l-2.684-1.11 5.842 5.84c-4.025 4.027-11.512 3.95-15.537-.077-1.181 2.089-3.393 3.517-5.962 3.517-2.535 0-4.807-1.448-6.002-3.492a7.639 7.639 0 0 1-3.432 3.454v27.184c4.695-1.55 7.828-2.634 9.412-3.58 1.976-1.182 3.271-2.586 3.698-3.964a9.82 9.82 0 0 1-3.72-1.684c-3.479-2.515-5.016-6.648-3.443-9.233 1.717-2.817 6.408-2.62 10.011.577 3.45 2.977 4.185 6.087 4.196 9.36 0 2.639-.962 7.648-7.422 11.509-1.459.868-2.573 1.402-4.73 2.182 4.765 2.382 7.542 6.15 7.542 10.469 0 3.626-1.85 6.426-4.425 8.474l-.107-.1c-1.849 1.454-4.103 2.595-6.503 3.475.018.01.036.018.053.03 2.89 2.005 4.443 4.554 4.443 7.548 0 1.72-.197 3.848-3.215 5.966a.958.958 0 0 1-.728.21c-.71.033-1.34-.746-.91-1.488 2.186-3.663-.22-5.989-4.086-7.642V120c-1.36 3.696-5.655 3.696-7.01.054zM48.61 55.644a1.732 1.732 0 0 0-1.718 1.745c0 .968.77 1.747 1.72 1.747a1.73 1.73 0 0 0 1.716-1.747 1.73 1.73 0 0 0-1.718-1.745zm30.785 0a1.73 1.73 0 0 0-1.72 1.745c0 .968.77 1.747 1.72 1.747s1.718-.781 1.718-1.747a1.732 1.732 0 0 0-1.72-1.745zM60.49 83.047s-8.438 2.58-8.438 5.473c0 2.587 3.941 4.615 8.515 6.557v-12.03zm6.95 0v12.026c4.574-1.942 8.515-3.966 8.515-6.553 0-2.893-8.44-5.473-8.44-5.473h-.073z" fill="#fff"/></svg>