<svg xmlns="http://www.w3.org/2000/svg" width="128" height="128"><path d="M115.844 7.444l-5.475 5.474 2.246 2.246 5.474-5.475zM12.53 109.589l14.053 11.258c1.297 1.297 3.66-3.328 4.653-4.87L42.182 95.84l2.161-2.162 9.624-2.413 1.294-1.274s3.201-.987 3.22-1.265c-1.846-1.946-5.849-8.434-.275-14.643l9.138-6.719 32.41-32.57c1.778-1.779-1.716-7.24-3.495-9.018l-7.463-7.393c-1.478-1.477-3.148-1.982-4.625-.504L40.443 59.46s-.792 1.029-.475 2.476c-.023 1.506 5.507 8.58 6.413 9.486l-21.1 21.412-4.58-.07-11.014 10.514c-1.45 1.996 2.844 6.311 2.844 6.311zm37.171-46.756s-1.858-2.105-.282-3.682l33.736-33.552c1.569-1.569 2.554-.75 3.842.537l2.343 2.343-37.069 36.995zM75.974 79.8s-.13 1.42.052 2.239c.164.735 1.349 1.687 1.728 2.397.21.394-.409.934-.409.934s-3.736 2.895-6.057 2.87c-2.657-2.099-6.606-7.604-5.906-11.856.61-1.753.258-2.953-.653-3.68l4.342-3.095 1.116-1.09s.57.763 1.13 1.16c.473.333 1.013.797 1.013.797s-.04 1.554.306 2.385c.303.728 1.644 1.796 1.644 1.796s-.21 1.999.009 2.796c.251.918 1.685 2.347 1.685 2.347zm-17.99 13.57l7.051 7.052-4.599 9.037-13.352-13.351zm50.708-78.176l1.694 1.689-.301.296-7.923 7.782.361.577-1.692 1.727-.806-1.305-1.276-1.622 1.574-1.564.394.405 7.662-7.671z" stroke-opacity=".986" fill="#fff" fill-opacity=".995" stroke="#323232" stroke-width="2.5"/><path d="M69.802 47.838s-.926-.907-1.246-1.83c-.156-.452-.23-1.168-.23-1.168s.989.693 1.86.817c1.076.153 3.704-1.89 3.704-1.89z" fill="#fff" stroke="#323232" stroke-width="1.473"/><path d="M78.61 59.082c.859-.24 1.97.34 2.786 2.013.492 1.008-.29 3.583-.412 3.777-.55.749-6.276 4.069-6.775 4.243-.528.156-2.615-1.91-2.576-2.707 0 0 2.158 1.954 2.582 1.954.624-.225 5.78-3.511 6.066-4.073 0 0 .626-1.872.338-2.803-.34-1.1-2.01-2.404-2.01-2.404zm-5.727 5.567s1.45 1.387 1.867 1.38c-.173-.14-.518-.283-.827-.828a3.353 3.353 0 0 1-.382-1.21z" fill="#fff" stroke="#323232" stroke-width=".92"/><circle cx="-22.473" cy="94.254" r="1.622" transform="rotate(-45)" fill="none" stroke="#323232" stroke-width="2" stroke-linejoin="round"/><path d="M34.684 92.509L47.912 79.23s.246-.486.25-.75c.003-.2-.175-.573-.175-.573l-1.622-1.672c-.262-.287-.649-.15-.649-.15l-11.78 12.03c-.5 1.048-.574 2.97-.35 3.494l.899.899c.162.112.2 0 .2 0z" fill="none" stroke="#323232" stroke-width="2"/><path d="M77.64 56.43L98.2 35.833s-1.43-.553-2.279.262c-.828.797-.174 2.19-.174 2.19l-1.66 1.66s-2.336-.996-3.213-.144c-.821.799.337 3.056.337 3.056l-1.659 1.659s-2.546-1.371-3.46-.426c-.855.882.425 3.426.425 3.426l-1.377 1.376s-2.55-.938-3.32-.143C81.057 49.54 82 52 82 52l-1.712 1.711s-1.336-.523-2.244.404c-.78.797-.21 2.12-.21 2.12z" fill="#323232" stroke="#323232" stroke-width="1.473"/><circle cx="-13.442" cy="83.64" r="1.451" transform="rotate(-45)" fill="none" stroke="#323232" stroke-width="2" stroke-linejoin="round"/></svg>