<svg xmlns="http://www.w3.org/2000/svg" width="128" height="128"><path d="M87.49 5.484l-9.199 21.37 9.922 4.271 9.2-21.37-9.923-4.271zm-46.926.085l-9.993 4.1 8.832 21.525 9.994-4.1-8.832-21.525zm7.698 1.582L46.236 8l7.167 17.472 1.644 4.009-4.006 1.633-9.993 4.1-4.009 1.645-1.644-4.008-7.116-17.337-2.765 1.157a28.14 28.14 0 0 1-4.508 38.465v9.085h23.296v19.444H21.006v3.554h23.296v19.47H21.006v9.552c4.185 4.185 23.591 6.276 42.997 6.276s38.812-2.091 42.997-6.276v-9.551H83.704V87.22H107v-3.558H83.696V64.195h23.295v-9.083a28.14 28.14 0 0 1-4.507-38.465l-2.825-1.183-7.474 17.36-1.715 3.983-3.982-1.715-9.908-4.25-3.982-1.715 1.714-3.982 7.395-17.182-1.966-.812a18.005 18.005 0 0 1-31.48 0zM16.666 68.53v10.802H39.97V68.53zm71.364 0v10.802h23.304V68.53zM16.666 91.554v10.804H39.97V91.554H16.666zm71.364 0v10.804h23.304V91.554H88.03z" fill="#fff"/></svg>