<svg xmlns="http://www.w3.org/2000/svg" width="128" height="128"><path d="M61.453.614v6.568C32.095 8.48 8.48 32.095 7.182 61.453H.614v5.094h6.568c1.298 29.358 24.913 52.973 54.271 54.271v6.568h5.094v-6.568c29.358-1.298 52.973-24.913 54.271-54.271h6.568v-5.094h-6.568C119.52 32.095 95.905 8.48 66.547 7.182V.614zm0 11.665v4.117h5.094v-4.117c26.6 1.284 47.89 22.575 49.174 49.174h-5.615v5.094h5.615c-1.284 26.6-22.575 47.89-49.174 49.174v-4.417h-5.094v4.417c-26.6-1.284-47.89-22.575-49.174-49.174h5.115v-5.094H12.28c1.284-26.6 22.575-47.89 49.174-49.174z" fill="#fefefe"/><text style="line-height:1.25;-inkscape-font-specification:Arial" x="44.107" y="90.794" font-weight="400" font-size="39.942" font-family="Arial" letter-spacing="0" word-spacing="0" fill="#fefefe" stroke-width=".999"><tspan x="44.107" y="90.794" style="-inkscape-font-specification:Arial" font-size="74.558">2</tspan></text></svg>