<svg xmlns="http://www.w3.org/2000/svg" width="128" height="128"><g transform="rotate(-45 98.302 66.948) scale(.19621)"><path d="M312 226c4 0 10 4 10 10v20.373L362 250c3.463-.364-2.515-.927-2.515-.927l4.595-31.053C364.09 217.697 384 208 384 208h32l8-6h296v-32H262v-4h-36v12h-6v40c8 4 10 8 10 8zm-82 90s7.867 5.773 2 4l-32-16c14.644-29.153 34-50.954 34-50.954s1.525-5.046.712-11.046H260v15.288s-2.95.712-6 6.712z" fill="#fff" stroke="#323232" stroke-width="13.422"/><path d="M316 264s-28.454 9.697-46-2v-30h11.354s-7.57 1.167-7.574 10c-.06 1.33.22 16 .22 16 5.177 5.561 14 6 14 6s12.974.41 24-4c3.068-1.438 4-4 4-4z" fill="#323232"/><path d="M352 268l-4.746 27.273-19.254 2 4-26.136z" fill="#fff" stroke="#323232" stroke-width="13.422"/><path d="M245.95 198l37.868.234c.525-.258 12.045-3.784 12.025-7.784-.019-4.058-11.724-8.586-12.255-8.583l-37.491-.028-.054 3.066-7.113-.094s-2.942-2.4-3.326-1.275c-1.446 4.23-1.319 8.752-.11 12.733.388 1.282 3.597-1.293 3.597-1.293l6.909.07z" fill="#323232"/><path d="M16.08 200.267c4.842 7.113 9.71 86.534 11.587 85.733h10.636c2.465.568 3.697-6.295 3.697-6.295l98.946-66.881h17.802l.003-33.535-142.675.003zM39.254 230s10.25-3.015 12.373-6.61c2.362-4 5.459-11.39 5.459-11.39H98c6 0 2.763 5.382 2.763 5.382L50 254c-6.01 1.476-8.692-2.708-8.8-4.391z" fill="#fff" stroke="#323232" stroke-width="13.424"/><path d="M310 194l66.146.174-.005-8.174s.224-1.332-.544-1.887c-.715-.514-2.474-.47-2.474-.47l-59.521-.005s-2.01.114-2.836.698c-.674.481-.67 1.353-.67 1.353z" fill="#323232" stroke="#323232" stroke-width="5.048"/><circle cx="239.843" cy="208.338" r="5.729" fill="#323232"/><circle r="6.474" cy="211.927" cx="37.573" fill="#323232"/><path d="M120 192h20.823a3.278 3.278 0 0 1 3.285 3.285 3.278 3.278 0 0 1-3.285 3.285H120a3.278 3.278 0 0 1-3.285-3.285A3.278 3.278 0 0 1 120 192z" fill="#323232"/><path d="M176 182h25.61v-4h.39v21.017h-.39v-4H176z" fill="#fff" stroke="#323232" stroke-width="13.4"/><path d="M284.72 232c-1.694 6.235-4.72 20 4.869 24.581 1.893.324 2.411-.581 2.411-.581-6-4-8.801-14 3.35-24.117zM320.714 299.233c-4.714 3.462-.45 5.98-.45 5.98L353.56 302s4.897-2.644.439-6.48z" fill="#323232"/><g transform="translate(392 349.288)" fill="#323232"><rect ry="3" rx="3" y="-166" x="58" height="6" width="13.288"/><circle r="4.559" cy="-163.034" cx="59.305"/></g><g transform="translate(410.978 349.288)" fill="#323232"><rect width="13.288" height="6" x="58" y="-166" rx="3" ry="3"/><circle cx="59.305" cy="-163.034" r="4.559"/></g><g transform="translate(429.956 349.288)" fill="#323232"><rect width="13.288" height="6" x="58" y="-166" rx="3" ry="3"/><circle cx="59.305" cy="-163.034" r="4.559"/></g><g transform="translate(448.934 349.288)" fill="#323232"><rect ry="3" rx="3" y="-166" x="58" height="6" width="13.288"/><circle r="4.559" cy="-163.034" cx="59.305"/></g><g transform="translate(467.911 349.288)" fill="#323232"><rect width="13.288" height="6" x="58" y="-166" rx="3" ry="3"/><circle cx="59.305" cy="-163.034" r="4.559"/></g><g transform="translate(486.89 349.288)" fill="#323232"><rect ry="3" rx="3" y="-166" x="58" height="6" width="13.288"/><circle r="4.559" cy="-163.034" cx="59.305"/></g><g transform="translate(505.867 349.288)" fill="#323232"><rect ry="3" rx="3" y="-166" x="58" height="6" width="13.288"/><circle r="4.559" cy="-163.034" cx="59.305"/></g><g transform="translate(524.845 349.288)" fill="#323232"><rect width="13.288" height="6" x="58" y="-166" rx="3" ry="3"/><circle cx="59.305" cy="-163.034" r="4.559"/></g><g transform="translate(543.823 349.288)" fill="#323232"><rect ry="3" rx="3" y="-166" x="58" height="6" width="13.288"/><circle r="4.559" cy="-163.034" cx="59.305"/></g><g transform="translate(562.8 349.288)" fill="#323232"><rect width="13.288" height="6" x="58" y="-166" rx="3" ry="3"/><circle cx="59.305" cy="-163.034" r="4.559"/></g><g transform="translate(581.778 349.288)" fill="#323232"><rect width="13.288" height="6" x="58" y="-166" rx="3" ry="3"/><circle cx="59.305" cy="-163.034" r="4.559"/></g><g transform="translate(600.756 349.288)" fill="#323232"><rect ry="3" rx="3" y="-166" x="58" height="6" width="13.288"/><circle r="4.559" cy="-163.034" cx="59.305"/></g><g transform="translate(619.734 349.288)" fill="#323232"><rect ry="3" rx="3" y="-166" x="58" height="6" width="13.288"/><circle r="4.559" cy="-163.034" cx="59.305"/></g><g transform="translate(638.712 349.288)" fill="#323232"><rect width="13.288" height="6" x="58" y="-166" rx="3" ry="3"/><circle cx="59.305" cy="-163.034" r="4.559"/></g><circle r="5.051" cy="186.168" cx="437.605" fill="#323232"/><path d="M756 178l-2 2h-24v18h24l2 2h16v-2h4v2h32v-22h-32v2h-4v-2zm34 4h14v14h-14z" fill="#323232"/><g fill="#323232"><path d="M272.795 159.256h5.209L278 164.54h-5.21zM281.813 159.256h5.21l-.004 5.283h-5.21zM290.832 159.256h5.21l-.005 5.283h-5.21zM299.85 159.256h5.21l-.004 5.283h-5.21zM308.87 159.256h5.209l-.004 5.283h-5.21zM317.888 159.256h5.21l-.005 5.283h-5.21zM326.907 159.256h5.21l-.005 5.283h-5.21zM335.925 159.256h5.21l-.004 5.283h-5.21zM344.944 159.256h5.21l-.005 5.283h-5.209zM353.963 159.256h5.21l-.005 5.283h-5.21zM362.981 159.256h5.21l-.004 5.283h-5.21zM372 159.256h5.21l-.005 5.283h-5.209z"/></g><path d="M382.009 159.256h16.58l-.012 5.283h-16.58z" fill="#323232"/><g fill="#323232"><path d="M403.51 159.256h5.21l-.005 5.283h-5.21zM412.528 159.256h5.21l-.004 5.283h-5.21zM421.547 159.256h5.21l-.005 5.283h-5.209zM430.566 159.256h5.21l-.005 5.283h-5.21zM439.584 159.256h5.21l-.004 5.283h-5.21zM448.603 159.256h5.21l-.005 5.283H448.6zM457.622 159.256h5.21l-.005 5.283h-5.21zM466.64 159.256h5.21l-.004 5.283h-5.21zM475.659 159.256h5.21l-.005 5.283h-5.209zM484.678 159.256h5.21l-.005 5.283h-5.21zM493.696 159.256h5.21l-.004 5.283h-5.21zM502.715 159.256h5.21l-.004 5.283h-5.21z"/></g><g fill="#323232"><path d="M512.907 159.256h5.21l-.005 5.283h-5.21zM521.926 159.256h5.209l-.004 5.283h-5.21zM530.944 159.256h5.21l-.004 5.283h-5.21zM539.963 159.256h5.21l-.005 5.283h-5.21zM548.982 159.256h5.21l-.005 5.283h-5.21zM558 159.256h5.21l-.004 5.283h-5.21zM567.019 159.256h5.21l-.005 5.283h-5.209zM576.038 159.256h5.21l-.005 5.283h-5.21zM585.056 159.256h5.21l-.004 5.283h-5.21zM594.075 159.256h5.21l-.005 5.283h-5.209zM603.094 159.256h5.21l-.005 5.283h-5.21zM612.112 159.256h5.21l-.004 5.283h-5.21z"/></g><g fill="#323232"><path d="M622.304 159.256h5.21l-.004 5.283h-5.21zM631.323 159.256h5.21l-.005 5.283h-5.21zM640.341 159.256h5.21l-.004 5.283h-5.21zM649.36 159.256h5.21l-.004 5.283h-5.21zM658.379 159.256h5.21l-.005 5.283h-5.21zM667.398 159.256h5.209l-.004 5.283h-5.21zM676.416 159.256h5.21l-.004 5.283h-5.21zM685.435 159.256h5.21l-.005 5.283h-5.21zM694.454 159.256h5.209l-.004 5.283h-5.21zM703.472 159.256h5.21l-.004 5.283h-5.21zM712.49 159.256h5.21l-.004 5.283h-5.21zM721.51 159.256h5.21l-.005 5.283h-5.21z"/></g></g></svg>