<svg xmlns="http://www.w3.org/2000/svg" width="128" height="128"><g fill="#fff"><path d="M58.973 22.714C41.713 10.657 39.49 6.63 39.254 6.094l.026-1.202-1.243.147c-3.729.435-5.039 2.996-5.225 4.468v48.727c-2.829-.7-6.02-.67-9.083.09-4.033 1.001-7.531 3.161-9.852 6.086-2.384 3.006-3.255 6.431-2.46 9.621.79 5.016 6.681 8.801 13.697 8.801 1.56 0 3.11-.189 4.61-.569 6.772-1.685 11.883-6.695 12.512-12.241h.081l.173-46.787c3.47.345 14.416 2.839 25.283 19.875l1.995 3.13.011-3.712c.004-.468-.069-11.55-10.806-19.814zM116.814 39.983c-13.085-9.14-14.77-12.192-14.948-12.6l.02-.91-.943.112c-2.826.33-3.82 2.27-3.96 3.387v36.937c-2.145-.53-4.564-.508-6.886.069-3.057.758-5.709 2.396-7.468 4.613-1.808 2.278-2.468 4.875-1.865 7.293.6 3.803 5.065 6.672 10.383 6.672 1.183 0 2.357-.144 3.495-.432 5.133-1.277 9.007-5.075 9.484-9.279h.062l.131-35.467c2.63.262 10.928 2.152 19.166 15.066l1.512 2.374.008-2.815c.003-.355-.052-8.755-8.191-15.02zM71.818 84.543c-9.925-6.932-11.203-9.248-11.338-9.556l.015-.691-.715.085c-2.144.25-2.897 1.722-3.004 2.568v28.016c-1.626-.403-3.461-.385-5.222.052-2.32.575-4.33 1.817-5.665 3.5-1.37 1.727-1.871 3.697-1.414 5.53.454 2.885 3.841 5.061 7.875 5.061a10.8 10.8 0 0 0 2.651-.327c3.893-.97 6.832-3.85 7.193-7.038h.047l.1-26.9c1.995.198 8.288 1.631 14.536 11.426l1.147 1.8.006-2.134c.002-.27-.04-6.64-6.212-11.392z"/></g></svg>