<svg xmlns="http://www.w3.org/2000/svg" width="128" height="128"><g transform="translate(-14.27 -6.158)"><path d="M28.583 110.703c7.43 12.188 23.413 10.378 27.679 5.567 2.218-2.501-2.688-8.203-2.688-8.203-2.924-2.987-12.789-20.09 1.571-27.988-3.1-6.238-11.058-12.722-20.11-13.6-4.119 2.38-14.902 30.753-6.452 44.224zm18.91-73.387c1.976 9.761-1.948 18.824-7.757 24.62 7.638.92 14.723 8.587 14.723 8.587l5.286 9.155c3.171 5.493 9.72 4.153 9.72 4.153l16.48-9.514s4.435-5.003 1.264-10.495l-3.171-5.493c-1.586-2.747-.354-5.899 1.934-7.22l9.155-5.286c.458-.264.651-.986.387-1.444L89.7 34.31 59.49 51.751l-9.25-16.02zm27.564 21.315c4.72-.283 9.74 8.414 7.136 12.359L68.46 78.918c-4.72.283-9.74-8.414-7.136-12.359z" fill="#fff" stroke="#323232" stroke-width="3.177"/><path d="M64.3 66.425c-.968 3.61 2.24 8.11 5.85 9.077.517.312 1.192-.48.651-.987-6.111-3.185-3.245-8.69-2.84-10.204z" fill="#323232"/><path d="M53.131 32.23l7.906 13.745L102.3 22.151C101.034 18 97.335 11.59 94.305 8.458c-15.083 8.71-27.87 16.09-41.174 23.772z" fill="#fff" stroke="#323232" stroke-width="3.177"/><rect width="33.827" height="3.982" x="37.8" y="60.82" rx="2.114" ry="2.655" transform="rotate(-30)" fill="#323232"/><circle cx="16.394" cy="81.434" r="1.85" transform="rotate(-30)" fill="#323232"/><circle r="1.85" cy="80.641" cx="28.815" transform="rotate(-30)" fill="#323232"/><circle cx="56.035" cy="79.319" r="1.85" transform="rotate(-30)" fill="#323232"/><path d="M32.298 40.596c-.264-.458 7.414 1.213 11.604.014 0 0 .02 4.261-.368 5.705-2.485-3.158-10.443-4.346-11.236-5.719z" fill="#323232" stroke="#323232" stroke-width="3.177"/><path d="M55.17 38.987l2.747-1.586 1.322 2.29-2.747 1.585z" fill="#a9a9a9"/><circle r="2.425" cy="123.959" cx="-12.49" transform="rotate(-30)" fill="#323232"/><path d="M36.184 70.076c-2.702 1.56-11.857 26.441-5.279 38.075 5.561 10.332 17.164 8.352 17.164 8.352-1.386-3.834-.159-6.106 3.019-7.196-7.634-9.496-9.335-22.874-.323-30.054-2.789-4.387-8.59-8.105-14.58-9.177zM34.797 93.45a2.293 2.293 0 1 1 2.293 3.972 2.293 2.293 0 0 1-2.293-3.972z" fill="#323232"/><circle r="1.474" cy="100.673" cx="-16.57" transform="rotate(-30)" fill="#323232"/><rect width="14" height="6" x="33.426" y="77.426" rx="1" ry="1" transform="rotate(-30)" fill="#a9a9a9"/></g><g transform="translate(14.27 6.158)"><path d="M28.583 110.703c7.43 12.188 23.413 10.378 27.679 5.567 2.218-2.501-2.688-8.203-2.688-8.203-2.924-2.987-12.789-20.09 1.571-27.988-3.1-6.238-11.058-12.722-20.11-13.6-4.119 2.38-14.902 30.753-6.452 44.224zm18.91-73.387c1.976 9.761-1.948 18.824-7.757 24.62 7.638.92 14.723 8.587 14.723 8.587l5.286 9.155c3.171 5.493 9.72 4.153 9.72 4.153l16.48-9.514s4.435-5.003 1.264-10.495l-3.171-5.493c-1.586-2.747-.354-5.899 1.934-7.22l9.155-5.286c.458-.264.651-.986.387-1.444L89.7 34.31 59.49 51.751l-9.25-16.02zm27.564 21.315c4.72-.283 9.74 8.414 7.136 12.359L68.46 78.918c-4.72.283-9.74-8.414-7.136-12.359z" fill="#fff" stroke="#323232" stroke-width="3.177"/><path d="M64.3 66.425c-.968 3.61 2.24 8.11 5.85 9.077.517.312 1.192-.48.651-.987-6.111-3.185-3.245-8.69-2.84-10.204z" fill="#323232"/><path d="M53.131 32.23l7.906 13.745L102.3 22.151C101.034 18 97.335 11.59 94.305 8.458c-15.083 8.71-27.87 16.09-41.174 23.772z" fill="#fff" stroke="#323232" stroke-width="3.177"/><rect transform="rotate(-30)" ry="2.655" rx="2.114" y="60.82" x="37.8" height="3.982" width="33.827" fill="#323232"/><circle transform="rotate(-30)" r="1.85" cy="81.434" cx="16.394" fill="#323232"/><circle transform="rotate(-30)" cx="28.815" cy="80.641" r="1.85" fill="#323232"/><circle transform="rotate(-30)" r="1.85" cy="79.319" cx="56.035" fill="#323232"/><path d="M32.298 40.596c-.264-.458 7.414 1.213 11.604.014 0 0 .02 4.261-.368 5.705-2.485-3.158-10.443-4.346-11.236-5.719z" fill="#323232" stroke="#323232" stroke-width="3.177"/><path d="M55.17 38.987l2.747-1.586 1.322 2.29-2.747 1.585z" fill="#a9a9a9"/><circle transform="rotate(-30)" cx="-12.49" cy="123.959" r="2.425" fill="#323232"/><path d="M36.184 70.076c-2.702 1.56-11.857 26.441-5.279 38.075 5.561 10.332 17.164 8.352 17.164 8.352-1.386-3.834-.159-6.106 3.019-7.196-7.634-9.496-9.335-22.874-.323-30.054-2.789-4.387-8.59-8.105-14.58-9.177zM34.797 93.45a2.293 2.293 0 1 1 2.293 3.972 2.293 2.293 0 0 1-2.293-3.972z" fill="#323232"/><circle transform="rotate(-30)" cx="-16.57" cy="100.673" r="1.474" fill="#323232"/><rect transform="rotate(-30)" ry="1" rx="1" y="77.426" x="33.426" height="6" width="14" fill="#a9a9a9"/></g></svg>