<svg xmlns="http://www.w3.org/2000/svg" xmlns:xlink="http://www.w3.org/1999/xlink" width="128" height="128"><defs><linearGradient id="d"><stop offset="0" stop-color="#00e8e8"/><stop offset="1" stop-color="#001883"/></linearGradient><linearGradient id="c"><stop offset="0" stop-color="#9e1134"/><stop offset="1" stop-color="#0b0708"/></linearGradient><linearGradient id="b"><stop offset="0" stop-color="#1a27de"/><stop offset=".397" stop-color="#20e195"/><stop offset=".594" stop-color="#7db146"/><stop offset="1" stop-color="#940cec"/></linearGradient><clipPath id="g"><path d="M77.722 36.303S65.15 57.353 45.464 50.922l.975 14.472s25.095-.487 31.283-29.091z" fill="url(#a)"/></clipPath><radialGradient xlink:href="#b" id="a" gradientUnits="userSpaceOnUse" gradientTransform="matrix(-.85001 .89724 -.65467 -.62022 158.448 19.155)" cx="68.14" cy="49.473" fx="68.14" fy="49.473" r="16.129"/><clipPath id="e"><path d="M25.8 44.505c1.586 3.445 3.097 3.856 6.896 3.143 2.767 4.826 5.43 3.982 7.796 3.118 2.929 6.343 8.886 3.151 10.33-2.631l2.608 1.023 1.047 16.08s-4.864-1.9-7.931-2.245c-3.446-.276-5.466.64-5.466.64-16.435-3.997-23.231-8.818-26.024-13.16 2.095 1.17 8.454 2.315 10.744-5.968z" fill="#303030" fill-opacity=".753"/></clipPath><linearGradient xlink:href="#c" id="f" x1="48.825" y1="49.481" x2="24.675" y2="62.805" gradientUnits="userSpaceOnUse"/><linearGradient xlink:href="#d" id="h" x1="53.871" y1="63.48" x2="57.271" y2="49.354" gradientUnits="userSpaceOnUse"/></defs><path d="M25.8 44.505c1.586 3.445 3.097 3.856 6.896 3.143 2.767 4.826 5.43 3.982 7.796 3.118 2.929 6.343 8.886 3.151 10.33-2.631l2.608 1.023 1.047 16.08s-4.864-1.9-7.931-2.245c-3.446-.276-5.466.64-5.466.64-16.435-3.997-23.231-8.818-26.024-13.16 2.095 1.17 8.454 2.315 10.744-5.968z" clip-path="url(#e)" transform="matrix(1.355 0 0 1.355 .128 -3.883)" fill="url(#f)" stroke="#000" stroke-width="6"/><path d="M77.722 36.303S65.15 57.353 45.464 50.922l.975 14.472s25.095-.487 31.283-29.091z" clip-path="url(#g)" transform="matrix(1.355 0 0 1.355 8.335 -5.706)" fill="url(#h)" stroke="#000" stroke-width="6"/><path d="M19.996 51.954c-.286.286-1.188 1.09-1.823 1.336-2.068.803-3.989 1.108-3.385 2.079 2.165 3.484 2.256 5.202 3.21 7.348a9.639 9.639 0 0 0 1.998 2.901 9.662 9.662 0 1 0 0-13.664zm2.329 2.33a6.368 6.368 0 1 1 9.006 9.005 6.368 6.368 0 0 1-9.006-9.006z" stroke="#000" stroke-width=".678"/><path d="M72.248 62.594l1.704 11.064c.357.92 2.442-1.187 3.841-.113 1.288.989 1.202 2.894.312 3.543-1.382 1.007-2.84-.3-3.714.41-.694.99-.724 6.886-.724 6.886z"/></svg>