<svg xmlns="http://www.w3.org/2000/svg" width="128" height="128"><g transform="rotate(-45 71.68 58.345) scale(.88927)"><path d="M50.142 66.39s1.49.137 2.077.55c.58.405 1.214 1.746 1.214 1.746l7.313.013s1.273-.938 2.062-.769l7.638.005c1.128 1.184.913 4.744.953 5.381l11.896-2.163-.075-5.543c.02-.757.348-.833.873-1.074.681-.312 1.355.083 2.005-.289.378-.216.736-.61.867-1.025.18-.568.18-2.385.18-2.385l31.566.015.015-9.437-71.14-.052-1.747 15.068zm3.471 18.566l.061 2.013-9.51-2.357s.18-.635.3-.795l9.002-12.18 6.091.055.036 3.094s-1.352 1.721-1.655 2.455c-.264.643.045 1.965.045 1.965l-1.698.553zm99.925-26.666l.003 1.95-23.12.027.004.585-8.414.022.02-3.123 8.365.006v.484z" fill="#fff" stroke="#323232" stroke-width="2.5"/><path d="M70.046 74.374l-.706.475-8.296-.035-.025-1.403s.496.848.926.923c1.401.244 6.743.311 7.148.18l.981-.7zm-6.885-4.327s.08 2.665.343 2.92c-.02-.194-.206-.818-.06-1.35.155-.56.836-1.57.836-1.57z" fill="#323232" fill-opacity=".314" stroke="#323232" stroke-width=".811"/><path d="M66.514 58.85l17.132.037c.414-.085.381-.698-.033-.698l-17.128-.004c-.466.128-.357.592.03.665z" fill="#fff" stroke="#323232" stroke-width="2"/><circle r=".96" cy="65.254" cx="58.258" fill="#fff" stroke="#323232" stroke-width="1.324" stroke-linejoin="round"/><path d="M19.17 56.286L2.1 56.26l-.602-.676s-3.198-.58-3.208-.384c0 0 1.068 8.333 1.02 12.593-.052 4.45-1.287 13.276-1.287 13.276l2.336-.01.972-.614 2.08-.002c1.184-.225 8.76-14.435 8.76-14.435l11.32.097 1.38.343 16.88-.005 1.768-14.72s-6.695 1.156-9.714 1.656c-3.979.66-5.987.502-8.772.786-1.555.16-3.652.174-5.086 1.157-.387.265-.778.964-.778.964z" fill="#fff" stroke="#323232" stroke-width="2.5"/><rect ry="0" y="62.495" x="89.608" height="2.391" width="30.444" fill="#393939" fill-opacity=".995"/><path d="M124.068 43.965s-.507.2-1.026.197c-.476-.003-.898-.157-.898-.157l-.024 10.476h5.57l.005-.755-3.939.026z" fill="#fff" stroke="#323232" stroke-width="2.5"/><path d="M49.256 49.964l7.945.01-.687-.025-5.067-1.482-.17-4.862-.17-.001s-.24 4.315-.24 4.85c-1.544.008-1.61 1.51-1.61 1.51z" fill="none" stroke="#323232" stroke-width="2.204"/><path d="M.623 56.187S.553 64.48.431 68.603c-.118 4.028-.527 12.033-.527 12.033" fill="none" stroke="#323232" stroke-width="2"/><rect ry="0" y="60.377" x="46.803" height="1.954" width="39.413" fill="#323232"/><path d="M71.933 76.622v10.453h10.939v-12.43z" fill="#fff" stroke="#323232" stroke-width="2.5"/><rect ry=".5" rx=".5" y="55.129" x="96.521" height=".277" width="4.154" fill="#fff" fill-opacity=".48" stroke="#323232" stroke-width="1.266"/><rect width="4.154" height=".277" x="103.209" y="55.129" rx=".5" ry=".5" fill="#fff" fill-opacity=".48" stroke="#323232" stroke-width="1.266"/><rect ry=".5" rx=".5" y="55.129" x="109.801" height=".277" width="4.154" fill="#fff" fill-opacity=".48" stroke="#323232" stroke-width="1.266"/><path d="M90.214 55.129h3.154c.277 0 .5.061.5.138 0 .077-.223.139-.5.139h-3.154c-.277 0-.5-.062-.5-.139 0-.077.223-.138.5-.138z" fill="#fff" fill-opacity=".48" stroke="#323232" stroke-width="1.266"/><path d="M19.17 56.286l1.813 4.63 1.661.033 1.458 5.187m-1.458-5.186l19.543-.113" fill="none" stroke="#323232" stroke-width="2"/></g><path d="M101.632 16.947c.47-1.898 1.62-1.62 1.62-1.62l3.475 3.474s.138 1.098-1.62 1.62z" fill="#323232"/></svg>