<svg xmlns="http://www.w3.org/2000/svg" width="128" height="128"><path d="M94.452 99.3c-20.993-2.034-8.62-38.128-4.258-35.044 9.083 4.48 8.618-6.302 23.276 7.19 5.917-17.291 2.639-31.132-4.432-26.555-8.784 6.283-16.633 9.453-15.127 4.664C110.468 5.03 37.192-7.633 31.57 41.863c-3.227 6.142-14.3-6.341-18.621-5.924-5.753 1.518-6.912 10.201-3.896 25.35 12.15-11.711 11.477-3.894 21.101-5.291 2.592 39.585 21.104 60.739 64.719 52.824 8.505-1.89 15.482.545 21.69 5.135-.643-7.993-7.969-12.872-22.11-14.658zM46.183 26.965l13.461 13.259c-9.077 4.55-18.742-3.618-13.46-13.259zM77.41 55.168c-.977 2.603-2.7 5.25-5.178 7.943L70.32 60.08l-4.485 4.99-3.014-5.323-4.576 5.833-1.712-6.972-4.437 4.524-1.64-8.385-4.767 4.113-.325-7.398-2.11 1.567c-.253-1.348-.44-3.792-.558-7.328 2.722 5.263 7.497 8.953 14.33 11.063.969.234 2.117.42 3.447.562 6.045.647 11.693-.073 16.937-2.157zm-7.353-13.435l17.454-7.234c1.276 10.918-10.75 14.86-17.454 7.234z" fill="#fff"/></svg>