<svg xmlns="http://www.w3.org/2000/svg" style="isolation:isolate" width="128" height="128"><g transform="rotate(-30 64 64)"><path stroke-miterlimit="5" d="M68.564 12.163l15.722 20.975 3.34 42.23-3.093-1.394-2.94-40.041-16.32-21.752z" style="isolation:isolate" fill="#fff" stroke="#323232" stroke-width="1.845"/><path stroke-miterlimit="5" d="M51.173 10.902l17.49.107 10.505 14.738-28.085.023z" style="isolation:isolate" fill="#fff" stroke="#323232" stroke-width="1.982"/><path d="M37.022 37.281l.066 78.779c12.28 4.224 28.05 4.242 41.726-.024l-.058-79.11c-10.76-1.233-30.735-1.323-41.734.355z" fill="#fff" stroke="#323232" stroke-width="2.762"/><path d="M83.056 6.205a11.935 11.935 0 0 0-5.723-1.463 11.935 11.935 0 0 0-11.936 11.937 11.935 11.935 0 0 0 11.935 11.935 11.935 11.935 0 0 0 11.936-11.937 11.935 11.935 0 0 0-6.213-10.473zm-2.12 3.755a7.705 7.705 0 0 1 4.011 6.763 7.705 7.705 0 0 1-7.705 7.707 7.705 7.705 0 0 1-7.706-7.706 7.705 7.705 0 0 1 7.706-7.706 7.705 7.705 0 0 1 3.695.942z" fill="#fff" stroke="#353535" stroke-width="2.32"/><path stroke-miterlimit="5" d="M51.069 28.439l-.034 3.856 13.75-.014.034-3.843z" style="isolation:isolate" fill="#fff" stroke="#323232" stroke-width="1.982"/><circle transform="rotate(-15)" style="isolation:isolate" r="1.85" cy="25.363" cx="43.885" fill="none" stroke="#323232" stroke-width="1.982" stroke-linejoin="round"/><path d="M37.485 83.964l-.07 11.767c11.1 3.222 30.87 3.136 41.455-.227l-.058-11.894c-10.72 2.975-30.18 3.12-41.327.354z" style="isolation:isolate" fill="#a3a3a3" stroke="#323232" stroke-width="2.5"/><path style="isolation:isolate" d="M79.598 36.456c-11.56-1.525-31.611-1.568-43.553-.069 0 0-.18 3.074.299 4.128 11.669-1.62 31.722-1.893 43.004-.21.343-.601.25-3.849.25-3.849zm-43.549 79.889c11.1 3.222 33.17 3.136 43.756-.227-.024-1.726-.155-1.769-.73-2.44-12.483 4.467-29.608 4.575-42.314-.225-.493 1.015-.726 1.094-.712 2.892z" fill="#323232" stroke="#323232" stroke-width="2.5"/><path style="isolation:isolate" d="M78.664 47.604c-10.625-1.527-30.631-1.34-41.454.227l.058 3.648c10.755-1.6 30.813-1.717 41.327-.354l.07-3.521z" fill="#a3a3a3" stroke="#323232" stroke-width="2.5"/></g></svg>