<svg xmlns="http://www.w3.org/2000/svg" width="128" height="128"><path d="M58.02 6.136V59.24h12.006V6.136zm-36.843.799l-3.896 33.334c11.86 7.332 23.773 11.65 36.188 12.928V9.78c-10.772-.444-21.538-1.435-32.292-2.846zm85.083.068c-10.567 1.66-21.13 2.593-31.684 2.915v42.61c11.379-1.817 23.33-5.936 36.143-12.38l-4.46-33.144zm-.472 40.548c-10.829 4.832-21.198 7.995-31.212 9.489v4.816-.62 2.122c0 8.378-4.995 13.655-10.53 13.703-5.536.049-10.577-5.196-10.577-13.703v-2.123.62-4.184c-10.658-1.014-20.973-4.105-31.089-9.268 1.227 22.569.891 45.135-1.233 67.704 28.586 7.803 57.167 7.548 85.752 0-1.668-22.853-2.245-45.703-1.11-68.556zM58.02 57.989v5.556c0 6.873 3.243 9.177 5.988 9.153 2.744-.023 6.018-2.439 6.018-9.153v-5.557H58.02z" fill="#fff"/></svg>