<svg xmlns="http://www.w3.org/2000/svg" width="128" height="128"><g transform="scale(.09579) rotate(-40.616 60.796 638.111)"><path d="M88 950v122h56s6.575 1.665 12 5.482c5.36 3.744 8 16.137 8 16.137l60 .381 8-2h82c6 0 16 8 16 16v34l121.068-22c3.26-.383 2.932-4 2.932-4l-6-8v-20c2.489-15.941 19.727-23.89 32-26 6-2 4-32 4-32h481.153l7.864-15.322V950zm672 0h152v32c0 8-8 8-8 8H768s-8 0-8-8zm-596 172c-4.61 32.271-65.424 82.814-76 114 0 0-2.305 5.729 0 6l62 16c4.602 1.534 4-2 4-2s-2.71-26.247 18-32c0 0-6.654-30.63 20-36 0 0 1.292-19.865 23.153-40h4v-26z" fill="#fff" stroke="#323232" stroke-width="23.107"/><path d="M319.741 1149.004l-6.525 4.39-82.985-.323-.231-12.967s6.994 9.203 10.968 9.896c12.949 2.255 66.222 1.51 69.965.298l9.067-6.47zM255.657 1106s.74 24.632 3.17 26.988c-.184-1.793-1.903-7.56-.554-12.477C259.706 1115.335 266 1106 266 1106z" fill="#323232" fill-opacity=".314" stroke="#323232" stroke-width="7.496"/><path d="M464 997.68c0-4.663-4-4.663-4-4.663H294s-28 0-28 10.59C266 1014 294 1014 294 1014h170z" fill="#323232"/><path d="M40 974l-10 12-277.56 20h-20l-6-12s-19.907-5.812-20-4c8.517 73.061 21.488 120.113 7.298 229.031.095 1.726 1.648 1.737 1.648 1.737l15.055-2.768v-6l10-6h14v-61.017H-94V1110s25.896-36.85 70-38h80v-98zm-40 39.763c3.703-.123 12.207.237 16 12.237l5.254 11.492c-.746 4.813-8 10-8 10H-26s-5.315-1.774-6-6c-.517-3.187 6-10 6-10l9.793-9.98s9.138-7.514 16.207-7.75z" fill="#fff" stroke="#323232" stroke-width="23.107"/><rect width="392" height="22.099" x="88" y="1018" ry="0" fill="#393939" fill-opacity=".995"/><path d="M110 934h62v-14l-30-2s-2-4.814-6-6v-44s-8-8-16 0l-2 44s-10 2-8 22z" fill="#323232"/><path d="M-283.219 996.027c8.03 69.926 11.219 129.973 7.93 209.973" fill="none" stroke="#323232" stroke-width="18.485"/><path d="M504 1030h480l-11.22 26.114H504z" fill="#323232"/><path d="M340.895 1168.273v31.49H442V1150z" fill="#fff" stroke="#323232" stroke-width="23.107"/><path d="M-221.94 1150.536h11.29V1162h-11.29zm19.476.01h11.29v11.45h-11.29zm20.098-.01h11.29V1162h-11.29zm19.882.01h11.29l-.008 11.457h-11.29zm19.353 0h11.29l-.007 11.457h-11.29zm20.562-.01h11.29V1162h-11.29zm20.569 0h11.29V1162H-102zM199.889 930.536h11.29V942h-11.29zm19.476.008h11.29v11.45h-11.29zm20.099-.008h11.29V942h-11.29zm19.881.008h11.29L270.629 942h-11.29zm19.353 0h11.291L289.981 942h-11.29zm20.562-.008h11.29V942h-11.29zm20.57 0h11.29V942h-11.29zm19.54 0h11.291V942h-11.29zm19.86 0h11.291l.02 11.457h-11.29zm19.716 0h11.29V942h-11.29zm19.874 0h11.29V942h-11.29zm19.874 0h11.29V942h-11.29zm19.882.008h11.29v11.464L438.568 942zm20.41 0l11.283-.008-.008 11.457h-11.29zm18.99 0h11.291v11.464L477.984 942zm-297.267-.008H192V942h-11.29zM516.71 930.536H528V942h-11.29zm19.476.008h11.29v11.45h-11.29zm20.098-.008h11.29V942h-11.29zm19.882.008h11.29L587.448 942h-11.29zm19.353 0h11.29L606.803 942H595.51zm20.562-.008h11.29V942h-11.29zm20.569 0h11.29V942h-11.29zm19.541 0h11.29V942h-11.29zm19.86 0h11.29l.021 11.457h-11.29zm19.715 0h11.29V942h-11.29zm19.874 0h11.291V942h-11.29zm19.875 0h11.29V942h-11.29zm19.881.008h11.29v11.464L755.39 942zm20.41 0l11.283-.008-.008 11.457h-11.29zm18.991 0h11.291v11.464L794.805 942zm-297.267-.008h11.29V942h-11.29zM833.18 930.536h11.29V942h-11.29zm19.476.008h11.29v11.45h-11.29zm20.098-.008h11.29V942h-11.29zm-58.754 0h11.29V942H814zM966.71 930.536H978V942h-11.29zM557.18 1052h11.29v11.464h-11.29zm19.476.01h11.29v11.45h-11.29zm20.098-.01h11.29v11.464h-11.29zm19.882.01h11.29l-.008 11.457h-11.29zm19.353 0h11.29l-.007 11.457H635.98zm20.562-.01h11.29v11.464h-11.29zm20.569 0h11.29v11.464h-11.29zm19.541 0h11.29v11.464h-11.29zm19.86 0h11.29l.021 11.457h-11.29zm19.715 0h11.29v11.464h-11.29zm19.874 0h11.291v11.464h-11.29zm19.875 0h11.29v11.464h-11.29zm19.881.01h11.29v11.464l-11.297-.01zm20.41 0l11.283-.01-.008 11.457h-11.29zm18.991 0h11.291v11.464l-11.283-.01zM538 1052h11.29v11.464H538zM504.516 1052h26.775v11.464h-26.775zM992 1030h164l2-2v-28l-2-2H992zM550 966H328s0-2-4-2h-8c-2 0-2 2-2 2v10s0 2 2 2h8c4 0 4-2 4-2h222c2 4 6 2.753 6 2.753l4-2.753v-10l-4-2s-4-2-6 2zM480 1014h114s28 0 28-10.59c0-10.393-28-10.393-28-10.393l-114-.058c-12 .017-12 21.041 0 21.041z" fill="#323232"/><rect ry="6" rx="6" y="1052" x="-224.017" height="40" width="18.017" fill="#323232"/><rect width="18.017" height="28" x="-224.017" y="1102" rx="6" ry="6" fill="#323232"/><path fill="#7e7e7e" d="M-192 1038h76.881v96H-192z"/><path d="M24 962l-88 76h-184v-68c1.22-7.05 8-8 8-8z" fill="#323232"/><path fill="#323232" d="M-248 1028h12.034v112H-248z"/><circle r="12" cy="1066.271" cx="217.288" fill="#323232"/><path d="M218 1070.863l-18-.252s-3.864 0-3.864-4.01 3.864-4.01 3.864-4.01l17.932.182zM704 1003.886h280V1030l-280 8zM795.627 979.377L766 978.962v-13.2l29.516.299zM818 1084c0-6 6-6 6-6h48v-16h88v45.46l98.182.632 4.07-4.828 29.976-.64c2.492-7.478 6.272-6.561 6.272-6.561s13.085 10.045 12.697 24.46c-.384 14.28-15.155 24.62-15.155 24.62s-3.589-1.423-3.972-7.942l-30.853-1.69-2.485-3.244-152.202-2.011s-11.266 16.503-45.4 19.187c0 0-1.13 8.557-6.912 7.264C845.656 1150.345 840 1114 840 1114h-16s-6 0-6-6zM960 934h-68c0-8 6-10 6-10h32s2-4.814 6-6v-40h12v40s12 0 12 16zM1154.795 988.169H1352c3.741 0 6.757 1.324 6.762 5.07v40.574c0 3.746-3.012 5.07-6.762 5.07h-197.205c-1.11 0-3.374-5.074-3.374-5.074h-18.153s-4.42-1.809-4.42-6.757V1000c0-4 4.415-6.762 4.415-6.762h18.153s2.072-5.07 3.374-5.074z" fill="#323232"/><circle cx="337.388" cy="1069.548" r="12" fill="#323232"/></g></svg>