<svg xmlns="http://www.w3.org/2000/svg" width="128" height="128"><path d="M54.042 80.642c1.515-.374 2.892.465 2.892.465l5.68-5.661 1.582-1.854 4.106-4.065s1.157-.922 2.853-.445c1.651.464 2.477 3.547 2.736 3.776 0 0 .431.194.825.184.515-.013.964-.701.964-.701l9.16-10.385c.426-.527-1.28-.587-1.28-.587l-5.847-5.54c-.571-.602-.462-1.542-.462-1.542l.992-.958 1.534-.805 30.268-30.257 1.349-2.148-7.846-7.836-2.591.537L53.68 60.28l-.795.79-1.384-.99-4.302 4.357 1.067 1.067-.962 2.21-2.97 2.878-1.043 1.765 1.583 1.592-.904 1.458 7.131 7.151s1.306-1.479 2.941-1.916zm19.144 13.455s.498-.112.72.092c0 0 .358.695.354.988-.004.378-.38 1.023-.38 1.023l-6.391 6.424-.983.282s-4.794-6.082-6.02-12.266c-.45-2.27-.496-3.956-.507-4.034 0 0 .072-1.101-.049-1.477-.164-.511-.604-1.49-.604-1.49l6.043-6.031s.467.612.723.847c.267.243 1.011.137 1.011.137s1.392-.065 1.75.155c.434.266.11 1.147.11 1.147L67.1 81.756l1.634 3.342c.032.168.039.467 1.76.419.343-.01-.857 1.248-.857 1.248z" fill="#fff" stroke="#323232" stroke-width="2.5"/><path d="M114.853 6.735l1.744 1.743-3.812 3.833-.165-.168-1.01 1.026-1.45-1.466 1.001-.997-.157-.158z" fill="#fff" stroke="#323232" stroke-width="1.705"/><path d="M75.601 73.531l-5.69 5.71s-.063-.095-.096-.13a1.89 1.89 0 0 0-.154-.137l5.578-5.576zm-9.642.34s1.73 2.29 2.778 2.106c-.12-.098-1.464-1.065-1.68-1.446-.227-.4-.41-1.347-.41-1.347z" fill="#323232" fill-opacity=".314" stroke="#323232" stroke-width=".643"/><path d="M62.23 63.488l10.923-10.843-1.675-1.673s-.268-.342-.521-.342c-.235 0-.515.3-.515.3l-9.795 9.792s-.305.356-.306.626c-.001.221.198.42.198.42z" fill="#fff" stroke="#323232" stroke-width="1.832"/><path d="M86.354 65.47s4.1 3.32 6.352 4.676c2.654 1.598 8.372 4.037 8.372 4.037l-3.847 9.69s-6.932-3.167-10.307-5.49c-1.681-1.157-7.086-5.387-7.086-5.387z" fill="#fff" stroke="#323232" stroke-width="2.5"/><path d="M107.331 11.138l-1.081 1.111 5.015 5.042 1.116-1.1z" fill="#fff" stroke="#323232" stroke-width="1.608"/><rect width="1.612" height="9.384" x="66.463" y="73.947" ry="0" transform="rotate(-45)" fill="#2d2d2d"/><path d="M45.772 57.507l2.457-1.08.778 2.053-3.356 3.356c-.866-.94-.902-2.072.207-3.18z" fill="#fff" stroke="#323232" stroke-width="1.587"/><path d="M50.698 75.883l6.217-6.14c.043-.128 1.348-2.583.692-3.233-.664-.659-3.314.513-3.4.599l-6.122 6.113.492.509-1.176 1.146s-.872.088-.751.334c.454.927 1.213 1.643 2.06 2.096.273.146.376-.798.376-.798l1.138-1.116z" fill="#323232"/><path d="M102.01 17.922c.325.316.289.736.2.824l-4.142 4.142c-.088.088-.558.1-.84-.183-.283-.282-.27-.752-.183-.84l4.125-4.126c.068-.067.484-.165.84.183zm.715 6.446c.358.353.265.873.216.922l-1.952 1.952c-.05.048-.605.096-.92-.218-.313-.314-.266-.87-.218-.92l1.943-1.942c.038-.038.537-.183.931.206zm-7.767.605c.325.316.289.736.2.824l-4.142 4.142c-.088.088-.558.1-.84-.183-.283-.282-.27-.752-.183-.84l4.125-4.125c.067-.068.483-.166.84.182zm-7.071 7.047c.325.316.288.736.2.824l-4.142 4.142c-.088.088-.558.1-.84-.183-.283-.282-.271-.752-.183-.84l4.125-4.125c.067-.068.483-.166.84.182zm-6.737 6.737c.353.346.3.818.246.872l-2.345 2.346c-.056.054-.563.062-.871-.247-.308-.308-.3-.816-.247-.87l2.335-2.335c.042-.043.495-.148.883.234zM98.58 28.54c.324.315.288.735.2.823l-4.143 4.142c-.088.088-.558.1-.84-.183-.283-.282-.27-.752-.183-.84l4.125-4.125c.068-.068.484-.166.84.182zm-7.071 7.046c.324.316.288.736.2.824l-4.143 4.143c-.088.087-.558.1-.84-.184-.283-.282-.27-.752-.183-.84l4.125-4.125c.068-.068.484-.166.84.182zm-6.737 6.737c.352.347.288.83.233.884l-2.321 2.322c-.055.054-.574.074-.883-.235-.308-.308-.289-.828-.234-.883l2.31-2.31c.042-.042.507-.16.895.222z" fill="#fff" stroke="#323232"/><g fill="#fefefe" stroke="#323232"><path d="M19.346 99.413s-.87-.569-1.355-.17c0 0-3.381 3.254-3.796 3.925 0 0 1.446 5.209 7.488 10.857 4.245 3.968 10.835 7.47 10.835 7.47l6.24-6.114.024-16.015 6.775-6.7s-1.585-2.52-1.652-3.944c-.037-.782.29-1.766.29-1.766l3.19-3.07-5.715-5.728-1.623.558z" stroke-width="2.5" stroke-linejoin="round"/><path d="M32.973 100.285c.547.533.525 1.202.391 1.335l-6.271 6.272c-.134.132-.884.112-1.362-.366-.475-.475-.497-1.226-.364-1.36l6.245-6.246c.103-.102.76-.223 1.361.365z" stroke-width="1.5"/></g><rect width="36.77" height="2.391" x="-63.036" y="91.211" ry="0" transform="rotate(-45)" fill="#323232"/><path d="M15.269 102.552s3.783 6.197 7.445 9.873c3.853 3.867 10.197 7.395 10.197 7.395" fill="none" stroke="#323232" stroke-width="2"/></svg>