<svg xmlns="http://www.w3.org/2000/svg" width="128" height="128"><g fill="#fff"><path d="M74.396 19.121a3.371 3.371 0 0 0-4.615 1.237l-3.502 6.065a36.408 36.408 0 0 1 11.693 4.254 36.408 36.408 0 0 1 9.526 8.008l3.507-6.074a3.371 3.371 0 0 0-1.237-4.615zM52.007 29.567a42.646 42.646 0 0 0-34.922 21.275 42.646 42.646 0 0 0 15.61 58.256 42.646 42.646 0 0 0 58.256-15.61 42.646 42.646 0 0 0-15.61-58.255 42.646 42.646 0 0 0-23.334-5.666zM39.621 44.52a6.767 6.767 0 0 1 6.767 6.768 6.767 6.767 0 0 1-6.767 6.767 6.767 6.767 0 0 1-6.766-6.767 6.767 6.767 0 0 1 6.766-6.768z"/><path d="M109.99 22.941a3.378 3.378 0 0 1-4.615 1.237l-3.148-1.818c-6.464-3.731-14.728-1.517-18.46 4.947l-1.534 2.656-5.852-3.378 1.534-2.657c5.598-9.695 17.995-13.017 27.69-7.42l3.148 1.818c1.616.933 2.17 3 1.237 4.615z"/><path d="M116.628 27.383c-1.96 3.394-8.78 2.629-14.926-.92-3.395-1.96-5.472-6.33-3.512-9.725a7.097 7.097 0 0 1 9.695-2.598c7.682 4.436 1.06 8.808 8.743 13.243z"/></g></svg>