<svg xmlns="http://www.w3.org/2000/svg" width="128" height="128"><defs><clipPath id="c"><path d="M-45.534 209.35l29.33 16.933v33.867l-29.33 16.933-29.33-16.933v-33.867z" fill-opacity=".506" stroke="#fff" stroke-width="2.117" stroke-opacity=".502"/></clipPath><clipPath id="b"><path fill="#5b1616" stroke-width="6.729" stroke-miterlimit="10" d="M-118-88h12v14h-12z"/></clipPath><clipPath id="a"><path d="M-45.534 209.35l29.33 16.933v33.867l-29.33 16.933-29.33-16.933v-33.867z" fill-opacity=".506" stroke="#fff" stroke-width="2.117" stroke-opacity=".502"/></clipPath></defs><path d="M66.71 48.818l6.243 6.243 30.449-30.449 1.706-2.746 8.14-8.14.697-2.134 2.123-2.124s-1.17-2.053-3.716-3.716l-2.123 2.124-2.184.647-8.14 8.14-2.746 1.706zM38.523 72.777L51.97 59.329l.217-2.614 8.494-8.494 3.832 3.832-23.358 23.358z" fill="#fff" stroke="#323232" stroke-width="2.6629915200000003"/><path d="M28.122 93.521l1.377-8.533 8.494-8.493 3.224 3.224 25.595-25.596 3.54 3.54-34.09 34.089-1.416 8.494-2.477 2.477-6.724-6.724z" fill="#fff" stroke="#323232" stroke-width="2.6629915200000003"/><path d="M26.176 79.542l.177 1.592 2.123 2.124 1.77-1.77-2.124-2.123-.088-1.681z" fill="#323232"/><path d="M49.641 83.585l-.155-.552 6.724-6.724c.78-.306 1.062.354 1.062.354s2.436 14.349 3.995 17.444c0 0 2.274 1.59 1.95 2.297 0 0-2.831 2.124-7.078 1.416-1.416-1.416-2.436-10.33-3.468-13.018-1.08-1.751-3.03-1.217-3.03-1.217z" fill="#fff" stroke="#323232" stroke-width="2.6629915200000003"/><path d="M55.27 75.37l4.08 11.864 2.468-12.042c.186-.774 2.831-5.131 2.831-5.131.426-.596.885-.708.885-.708l.938-1.185c-.033-.746-.938-3.062-.938-3.062z" fill="#323232"/><path d="M61.473 74.122l1.23-1.584c1.01 2.137.635 4.137 1.731 4.861.97.641 2.438-.41 2.604.005.265.62-.982 1.294-4.137 1.15-.378-.582-.64-1.68-.64-1.68-1.042-.39-1.2.49-1.2.49z" fill="#323232"/><path d="M68.596 78.418c4.724-7.65-2.708-10.127-2.708-10.127l-.354.885s6.45 1.782 2.448 8.68c-1.74 2.999-7.05 1.052-7.05 1.052l-.353 1.062s5.73 2.152 8.017-1.552z" fill="#323232"/><path d="M12.197 117.233l12.386 7.432s.624.204.876-.168c.448-.28-.522-2.31-.522-2.31l2.147-19.652-.023-1.582 17.695-17.695c.264-.552-.354-.354-.354-.354L26 101.307l-14.156 14.156c-.456.456-.198 1.482.354 1.77zm4.954 2.831l1.062-8.847 8.848-8.848-2.343 21.015s-.099.597-.843.573z" fill="#fff" stroke="#323232" stroke-width="2.6629915200000003"/><g fill="#7e7e7e"><path clip-path="url(#a)" d="M-45.534 209.35l29.33 16.933v33.867l-29.33 16.933-29.33-16.933v-33.867z" transform="matrix(.041 .041 -.041 .041 97.076 28.727)"/><path transform="matrix(.041 .041 -.041 .041 100.568 25.236)" d="M-45.534 209.35l29.33 16.933v33.867l-29.33 16.933-29.33-16.933v-33.867z" clip-path="url(#a)"/><path transform="matrix(.041 .041 -.041 .041 104.06 21.744)" d="M-45.534 209.35l29.33 16.933v33.867l-29.33 16.933-29.33-16.933v-33.867z" clip-path="url(#a)"/></g><path d="M95.251 18.606l7.78 7.78-4.212 4.21-7.78-7.778z" fill="#323232"/><path transform="matrix(-.11797 -.11797 .07584 -.07584 88.56 3.827)" clip-path="url(#b)" fill="#fff" d="M-118-88h12v14h-12z"/><path d="M74.484 39.373l7.779 7.78-2.796 2.795-7.779-7.779z" fill="#323232"/><path clip-path="url(#c)" d="M-45.534 209.35l29.33 16.933v33.867l-29.33 16.933-29.33-16.933v-33.867z" transform="rotate(164.996 15.998 57.62) scale(.10345)" fill="#fff" stroke="#323232" stroke-width="30.239" stroke-opacity=".995"/><path d="M78.168 44.185l1.111 1.111-4.423 4.424-2.832-.709-2.881 2.88-1.112-1.11 3.622-3.622 2.831.708zM102.797 13.184l6.016 6.017-2.442 2.442-6.016-6.017zM106.69 9.291l6.016 6.017-2.442 2.442-6.016-6.017zM40.289 77.794l1.476 1.477-5.877 5.878-3.762-.942-2.059 2.058-1.476-1.477 3.042-3.041 3.761.94zM101.912 3.806l.177 1.592 3.185 3.186 1.77-1.77-3.186-3.185-.088-1.681z" fill="#323232"/></svg>