<svg xmlns="http://www.w3.org/2000/svg" width="128" height="128"><ellipse transform="rotate(-.974)" cy="194.956" cx="189.009" fill="none" stroke="#323232" stroke-width="4.112" stroke-linejoin="round"/><path d="M46.168 12.395L6.254 34.789l75.578 22.397 39.914-22.397-75.578-22.394zm11.865 7.043c1.107 1.66 3.385 3.164 5.63 4.234a11.22 20.258 85.815 0 1 9.792 1.596 11.22 20.258 85.815 0 1 6.55 4.216c2.712.693 6.184 1.233 9.466 1.131-2.972 2.495-5.866 3.782-7.85 4.451a11.22 20.258 85.815 0 1-3.77 5.686 11.22 20.258 85.815 0 1-28.255 3.875 11.22 20.258 85.815 0 1-4.399-15.484 11.22 20.258 85.815 0 1 8.272-4.082c.37-1.243 1.447-3.177 4.564-5.623zm4.498 6.173a9.285 16.764 85.815 0 0-14.517 4.534 9.285 16.764 85.815 0 0 3.638 12.814 9.285 16.764 85.815 0 0 23.383-3.207 9.285 16.764 85.815 0 0-3.639-12.815 9.285 16.764 85.815 0 0-8.865-1.326zm-7.347 3.166a1.81 1.81 0 0 1 .445.008c5.669 1.052 6.137 3.766 6.137 3.766.135 1.685-2.628 1.354-3.002.886 0 0-.368-2.18-4.692-2.953-1.687-.695-.03-1.605 1.112-1.707zm-.098 4.274a1.75 3.159 85.815 0 1 1.68.232 1.75 3.159 85.815 0 1 .761 2.404 1.75 3.159 85.815 0 1-4.394.645 1.75 3.159 85.815 0 1-.76-2.402 1.75 3.159 85.815 0 1 2.713-.88zm12.193.705c1.77-.033 4.6.204 7.11 1.7.703.45-.19 2.076-2.305 1.433-3.015-1.836-6.895-1.166-6.895-1.166-.947-.003-2.594-1.24.348-1.83 0 0 .68-.118 1.742-.137zm-17.502 2.459c4.19 4.121 6.348 4.856 15.098 5.15-6.276 1.448-9.853.624-10.932.256-1.078-.368-3.971-1.75-4.166-5.406zm15.434.29a1.75 3.159 85.815 0 1 1.68.233 1.75 3.159 85.815 0 1 .761 2.405 1.75 3.159 85.815 0 1-4.394.644 1.75 3.159 85.815 0 1-.76-2.402 1.75 3.159 85.815 0 1 2.713-.88zm58.191 4.653l-38.545 20.96v53.487l38.545-20.96V41.158zm-118.804.455V94.72l74.398 20.638V62.252L4.598 41.613zm15.752 9.885c2.883 2.757 6.662 4.881 9.92 6.209a24.67 18.689 48.965 0 1 10.751.086 24.67 18.689 48.965 0 1 10.74 5.902c3.262.49 7.046.473 9.934-.68.094 5.506-1.101 8.746-2.162 10.57a24.67 18.689 48.965 0 1 2.961 11.663 24.67 18.689 48.965 0 1-21.473 15.49 24.67 18.689 48.965 0 1-21.47-27.455 24.67 18.689 48.965 0 1 2.963-10.008c-1.061-2.415-2.258-6.321-2.164-11.777zm95.453 3.096c.039 0 .074.01.107.033v.002c1.983 1.345 3.166 4.56 3.166 8.603v.616c0 .34-.168.708-.377.822l-6.03 3.295c-.207.114-.38-.07-.38-.41v-.618c0-4.042 1.187-8.552 3.17-12.062.1-.178.23-.28.344-.281zM36.268 60.82a20.415 15.465 48.965 0 0-13.016 13.496 20.415 15.465 48.965 0 0 17.77 22.72 20.415 15.465 48.965 0 0 17.769-12.82 20.415 15.465 48.965 0 0-17.77-22.72 20.415 15.465 48.965 0 0-4.753-.676zm68.003.02v.002c.04 0 .078.011.11.033 1.983 1.345 3.166 4.561 3.166 8.605v.616c0 .34-.167.708-.375.822l-6.035 3.293c-.208.114-.376-.068-.377-.408v-.617c0-4.044 1.185-8.555 3.168-12.065.1-.178.228-.28.343-.281zm14.954 5.607c.136.02.23.189.23.444v17.318c0 .34-.44.855-.648.969v1.754c.208-.114.648-.08.648.26v2.458c0 .34-.17.709-.379.823l-6.787 3.705c-.208.114-.375-.07-.375-.41v-2.461c0-.34.44-.853.648-.967v-1.752c-.206.114-.648.076-.648-.264V71.006c0-.34.167-.706.375-.82l6.787-3.704a.243.243 0 0 1 .149-.035zm-26.485.55a.19.19 0 0 1 .11.032v-.002c1.983 1.346 3.168 4.567 3.168 8.612v.613c0 .34-.17.706-.377.82l-6.034 3.293c-.208.114-.377-.07-.377-.41v-.613c0-4.045 1.183-8.557 3.166-12.067.101-.177.23-.278.344-.279zm-64.052 2.562c6.369.287 9.855 5.187 9.855 5.187 2.024 3.089-.876 3.288-1.746 2.53 0 0-2.793-3.942-7.62-4.108-2.658-.909-1.64-3.621-.49-3.61zm79.005 3.138c.136.02.23.187.23.442v17.318c0 .34-.438.855-.646.969v1.752c.208-.114.647-.08.647.26v2.46c0 .34-.168.709-.377.823l-6.787 3.705c-.208.114-.375-.07-.375-.41v-2.461c0-.34.438-.853.646-.967v-1.754c-.208.114-.646.078-.646-.262V77.254c0-.34.167-.706.375-.82l6.787-3.705a.237.237 0 0 1 .146-.032zM47.44 74.902c1.546-.042 3.53.307 5.918 1.53 1.15.629 2.169 3.908-.49 3.336-4.826-2.523-7.619-.14-7.619-.14-.87.274-3.77-1.54-1.746-3.501 0 0 1.361-1.154 3.937-1.225zM33.9 77.462a3.847 2.914 48.965 0 1 .002 0 3.847 2.914 48.965 0 1 .893.112 3.847 2.914 48.965 0 1 3.404 4.239 3.847 2.914 48.965 0 1-3.29 2.488 3.847 2.914 48.965 0 1-3.405-4.239 3.847 2.914 48.965 0 1 2.396-2.6zm62.264 1.39c.136.02.23.186.23.441v17.318c0 .34-.44.854-.65.97v1.751c.21-.114.65-.077.65.264v2.459c0 .34-.167.706-.376.82l-6.788 3.707c-.209.113-.378-.072-.378-.412v-2.461c0-.34.441-.855.65-.969v-1.752c-.209.114-.65.079-.65-.261V83.41c0-.34.17-.708.378-.822l6.788-3.705a.233.233 0 0 1 .146-.031zm-49.11 2.05a3.847 2.914 48.965 0 1 .893.114 3.847 2.914 48.965 0 1 3.407 4.238 3.847 2.914 48.965 0 1-3.291 2.488 3.847 2.914 48.965 0 1-3.405-4.24 3.847 2.914 48.965 0 1 2.397-2.6zm-15.347 4.164c8.476 6.421 11.278 7.155 19.611 5.131-4.107 4.53-8.31 4.048-9.71 3.682-1.401-.366-5.603-2.084-9.901-8.813z" fill="#fff"/></svg>