<?xml version="1.0" encoding="UTF-8" standalone="no"?>
<svg
   xmlns:dc="http://purl.org/dc/elements/1.1/"
   xmlns:cc="http://creativecommons.org/ns#"
   xmlns:rdf="http://www.w3.org/1999/02/22-rdf-syntax-ns#"
   xmlns:svg="http://www.w3.org/2000/svg"
   xmlns="http://www.w3.org/2000/svg"
   xmlns:xlink="http://www.w3.org/1999/xlink"
   width="128"
   height="128"
   version="1.1"
   id="svg4">
  <metadata
     id="metadata10">
    <rdf:RDF>
      <cc:Work
         rdf:about="">
        <dc:format>image/svg+xml</dc:format>
        <dc:type
           rdf:resource="http://purl.org/dc/dcmitype/StillImage" />
        <dc:title></dc:title>
      </cc:Work>
    </rdf:RDF>
  </metadata>
  <defs
     id="defs8">
    <radialGradient
       gradientUnits="userSpaceOnUse"
       gradientTransform="matrix(1.6864115,0.70516073,-0.82525431,1.9737243,33.594806,238.06214)"
       r="66.500023"
       fy="-64.397835"
       fx="-140.05359"
       cy="-64.397835"
       cx="-140.05359"
       id="radialGradient832"
       xlink:href="#linearGradient821-3" />
    <linearGradient
       id="linearGradient821-3">
      <stop
         id="stop817-2"
         offset="0"
         style="stop-color:#abe6a3;stop-opacity:1" />
      <stop
         style="stop-color:#43b033;stop-opacity:1"
         offset="0.4567937"
         id="stop834-0" />
      <stop
         id="stop819-8"
         offset="1"
         style="stop-color:#1a5011;stop-opacity:1" />
    </linearGradient>
    <clipPath
       id="clipPath827"
       clipPathUnits="userSpaceOnUse">
      <ellipse
         cx="54.415257"
         cy="-82.698402"
         rx="66.500023"
         ry="66.499977"
         style="fill:#7abe2f;fill-opacity:1;stroke:none;stroke-width:6.00109;stroke-miterlimit:10;stroke-opacity:0.769"
         id="ellipse829"
         stroke-miterlimit="10"
         transform="matrix(-0.20202549,0.97938026,-0.97938129,-0.2020205,0,0)" />
    </clipPath>
    <clipPath
       clipPathUnits="userSpaceOnUse"
       id="clipPath868">
      <path
         id="path870"
         fill="#fff"
         d="m 41.591757,120.29215 c 9.641807,5.5667 23.065781,8.95005 32.068266,9.57258 9.217889,1.27697 17.451997,1.05088 25.664831,-3.15196 11.046236,-5.65458 21.927846,-17.95718 32.804396,-41.255715 -4.42974,-5.121226 -9.74941,-7.424665 -15.86681,-8.646724 -2.62394,8.249488 -7.10907,15.419462 -12.36853,20.35892 -5.75244,5.402899 -12.771261,8.382839 -19.121316,5.929139 l -2.804684,-1.08425 1.434486,-2.643342 c 1.045483,-1.926668 2.152734,-3.921709 3.289653,-5.946685 l 3.359988,-5.87759 C 94.804693,79.394052 100.21349,70.76583 106.17124,62.366617 101.91708,57.64276 94.002401,51.682377 85.530548,46.710644 L 81.229367,44.299189 C 73.158515,39.980071 64.900921,36.666562 59.462457,35.525619 52.621065,49.719919 44.760349,63.491676 38.707311,74.735232 L 37.03677,77.836775 34.524826,75.365971 C 29.597635,70.518585 28.680791,62.85666 30.452249,55.047592 32.067159,47.917255 35.973088,40.437648 41.789164,34.038574 A 31.924325,31.924326 1.7174744 0 0 30.489162,26.051834 L 26.087669,24.23887 C 15.039963,41.158104 7.3598679,59.750393 7.1008017,70.575265 l 0.6751259,8.286529 c 1.4436093,7.468171 5.3604314,13.497099 10.4698344,19.760031 4.411751,6.829895 13.505408,15.988865 23.344137,21.669255 z m 1.635687,-2.83309 c -6.032167,-3.48267 -11.37769,-8.9741 -15.481403,-14.53131 4.379993,-0.88702 8.977041,-0.59475 13.365767,0.59034 l 16.576786,-11.868011 -2.70196,19.348561 c 3.919946,3.415 7.015645,7.71276 8.562852,12.59033 -7.151412,-0.85548 -14.577829,-2.81349 -20.322042,-6.12991 z m 14.766454,-26.820445 -0.405416,-6.831614 5.958182,-2.818237 0.56908,6.586753 z m 6.375425,-11.042563 -0.404878,-6.832543 5.957646,-2.817308 0.569079,6.586754 -6.120917,3.063634 z m 6.292303,-10.898585 -0.405416,-6.831614 5.958719,-2.819166 0.568542,6.587682 z m 6.36899,-11.031416 -0.405416,-6.831614 5.958719,-2.819166 0.569079,6.586753 -6.120917,3.063634 z M 61.090386,31.47678 c 7.241995,1.636028 16.262288,5.788688 25.061972,10.814695 8.848524,5.052956 17.217272,10.861842 22.508982,16.577333 1.1477,-1.548116 2.31344,-3.084579 3.49733,-4.60313 C 107.75847,49.084708 98.802824,42.333826 89.347989,36.934526 79.899511,31.541377 69.666169,27.359633 63.437683,26.227012 a 258.81613,258.81614 1.7174744 0 1 -2.347297,5.249768 z m 3.602027,-9.173475 c 7.537453,1.493226 17.106606,5.836477 26.418391,11.153191 2.734316,1.56008 5.420942,3.194185 7.989346,4.876454 l 3.75746,2.5595 c 4.70881,3.337889 8.83284,6.811267 11.83087,10.246375 3.74527,-4.562786 7.65327,-8.922624 11.69892,-12.94167 -1.39798,-2.119943 -3.04096,-4.193085 -4.88324,-6.204185 l -3.09989,-3.147132 C 105.72206,16.811228 86.232192,7.6010494 70.446751,5.5084385 68.975667,10.963128 66.995401,16.606859 64.692413,22.303305 Z"
         style="stroke-width:1.07258" />
    </clipPath>
    <clipPath
       clipPathUnits="userSpaceOnUse"
       id="clipPath872">
      <path
         id="path874"
         fill="#fff"
         d="m -27.876697,58.175878 c 3.266957,-9.852498 3.82791,-22.747269 2.700729,-31.084744 -0.570173,-8.657428 -2.327507,-16.133452 -7.712035,-22.8410118 -7.243793,-9.0213147 -20.526919,-16.6401182 -43.849555,-22.1831752 -3.841885,5.009423 -4.943211,10.3007078 -4.906869,16.1167191 8.026877,0.84210283 15.418599,3.587004 20.919467,7.459079 6.016891,4.2349233 10.059892,10.0825619 9.015431,16.3429969 l -0.461773,2.765195 -2.68384,-0.811952 c -1.956169,-0.591739 -3.986404,-1.227001 -6.04956,-1.883715 l -5.999718,-1.960954 c -8.339235,-2.804122 -17.236464,-6.117757 -26.027981,-9.975787 -3.512113,4.774261 -7.463849,13.123857 -10.407899,21.796 l -1.39179,4.38164 c -2.42367,8.183063 -3.89394,16.347231 -3.91141,21.528024 14.24948,3.573354 28.305123,8.157046 39.711774,11.566334 l 3.146685,0.941191 -1.782984,2.759057 c -3.498143,5.412071 -10.321609,7.692403 -17.785772,7.545747 -6.814924,-0.131553 -14.380281,-2.289261 -21.318773,-6.394658 a 29.763924,29.764076 45 0 0 -5.16439,11.82243 l -0.82641,4.360508 c 17.529894,6.900908 35.953174,10.411708 45.886229,8.609348 l 7.439323,-2.177265 c 6.547331,-2.72483 11.314651,-7.436876 16.071019,-13.281951 5.40547,-5.314835 12.055791,-15.343433 15.389472,-25.397157 z m -2.894997,-0.959929 c -2.043894,6.163981 -6.051322,12.079342 -10.352711,16.873188 -1.634917,-3.83232 -2.233898,-8.08496 -1.978397,-12.315547 l -13.958989,-12.900961 18.176208,-1.177212 c 2.379935,-4.222553 5.721177,-7.858756 9.883501,-10.190231 0.565817,6.691128 0.176714,13.841028 -1.769612,19.710763 z m -27.271176,-8.431581 -6.16163,1.656952 -3.695572,-4.909621 5.90722,-1.760274 z m -11.283844,-3.74152 -6.162579,1.656636 -3.694623,-4.909307 5.90722,-1.760273 3.950297,5.011993 z m -11.136721,-3.692739 -6.16163,1.656951 -3.696521,-4.909936 5.908169,-1.759958 z m -11.272453,-3.737745 -6.161631,1.656952 -3.696521,-4.909936 5.90722,-1.760273 3.950297,5.011993 z m -20.911252,19.487974 c 0.12984,-6.920858 2.22269,-15.939508 5.15455,-24.921217 2.94727,-9.031382 6.67515,-17.767057 10.897309,-23.6754831 -1.629763,-0.7563765 -3.252285,-1.5314225 -4.861869,-2.3264113 -3.902,4.9937054 -8.37948,14.4427084 -11.5288,24.0929504 -3.1449,9.64328 -5.03583,19.77505 -4.8969,25.675649 a 241.30139,241.30261 45 0 1 5.23571,1.154512 z m -9.0548,-1.561166 c -0.0562,-7.163745 2.1073,-16.71946 5.20815,-26.223528 0.90951,-2.790566 1.8956,-5.551531 2.94793,-8.213617 l 1.62938,-3.913049 c 2.16095,-4.928348 4.55575,-9.3482494 7.12769,-12.7327856 -4.87173,-2.560403 -9.5888,-5.30762583 -14.02061,-8.2447193 -1.67242,1.6757994 -3.25597,3.56649746 -4.74532,5.6274902 l -2.28981,3.4233051 c -8.60018,13.8469646 -13.33914,33.3780486 -12.27674,48.1859736 5.25779,0.31584 10.7841,1.061011 16.41933,2.09093 z" />
    </clipPath>
  </defs>
  <ellipse
     cx="-81.522514"
     cy="40.921932"
     rx="61.999931"
     ry="61.999893"
     style="fill:url(#radialGradient832);fill-opacity:1;stroke:none;stroke-width:5.59501;stroke-miterlimit:10;stroke-opacity:0.769"
     id="ellipse2"
     stroke-miterlimit="10"
     transform="matrix(-0.31473093,-0.94918093,0.94917933,-0.31473576,0,0)"
     clip-path="url(#clipPath872)" />
  <path
     clip-path="url(#clipPath868)"
     id="path9"
     d="M 108.88102,2.6560985 C 71.68801,-18.817304 24.129484,-6.0740372 2.656089,31.11898 -18.817304,68.311992 -6.0740345,115.87051 31.118978,137.3439 68.31199,158.8173 115.87051,146.07404 137.34391,108.88102 158.8173,71.68801 146.07403,24.12949 108.88102,2.6560985 Z m 19.9405,33.6852625 c 12.60224,22.104733 12.92164,46.28516 0.54126,66.608879 L 86.557782,78.236529 C 89.241918,72.940487 89.355431,66.45241 86.307243,60.911701 Z M 70.583123,0.65919593 70.5812,51.832056 c -6.832971,-0.15534 -12.111373,2.834639 -15.613599,8.166107 L 11.696511,35.015587 C 17.441287,24.434951 25.074803,17.666013 36.264594,11.203594 45.943237,5.614902 59.413034,0.97425453 70.584918,0.66023213 Z M 80.623943,63.75066 c 3.385746,5.817822 1.38356,13.280132 -4.459944,16.621358 -5.812806,3.386858 -13.272166,1.386623 -16.610679,-4.454085 -3.388671,-5.815267 -1.020155,-13.06297 4.820297,-16.408048 5.4097,-3.123292 13.395004,-0.621635 16.250326,4.240775 z M 70.507291,88.336084 70.482631,137.43942 C 58.772127,137.05239 44.693241,133.50326 34.670436,127.36463 25.479249,121.7348 17.609907,113.89432 11.793698,103.94921 L 54.283055,79.459879 c 3.533138,5.803937 9.820985,9.005621 16.224236,8.876205 z"
     style="fill:#000a00;fill-opacity:0.62;stroke-width:8.46466"
     transform="matrix(-0.80742131,0.46616491,-0.4661649,-0.80742129,153.65105,85.887827)" />
</svg>
