<svg xmlns="http://www.w3.org/2000/svg" width="128" height="128"><path d="M73.359 45.604l-20.585 16.2 1.295 1.645c1.11 1.411-.771 2.892-2.182 4.003l-3.764 2.961c-1.542 1.206-3.292 2.592-4.403 1.18l-1.295-1.645-4.703 3.702c-.36.283-.605.802-.322 1.294l.491.858c.24.36.242.827.007 1.19 0 0-5.446 10.69-6.48 11.14-1.486 1.314-3.755.979-4.576 1.698 0 0-15.253 13.528-19.888 20.222-.396.33-.388 1.001.018 1.497 3.87 2.687 8.77 7.963 8.77 7.963s.824.97 1.609-.122C27.902 108.6 38.835 88.658 47.38 79.378c9.36-9.266 14.357-14.113 29.954-28.724z" fill="#fff" stroke="#323232" stroke-width="2.7"/><path d="M110.663 23.315l-33.33 27.339-3.974-5.05 33.903-26.61z" fill="#fff" stroke="#323232" stroke-width="2.7"/><path d="M48.862 77.97s1.797 1.733 2.808 3.713c.486.896-.384 1.95-.384 1.95s-2.448 3.122-3.564 3.745c0 0-1.787.832-2.943-.266l-2.123-1.882z" fill="none" stroke="#323232" stroke-width="2"/><path d="M61.511 66.68L49.23 77.6c1.17 1.161 3.156 4.772 3.156 4.772s6.768-8.68 7.452-9.75c.64-1.12 1.436-4.555 1.674-5.941z" fill="#323232" stroke="#323232" stroke-width="1.743" stroke-opacity=".98"/><path d="M45.207 83.887s.656 1.664 1.616 1.567c-.052-.059-.356-.092-.725-.784-.11-.207-.218-1.645-.218-1.645z" fill="#323232" stroke="#323232" stroke-width=".327"/><ellipse transform="rotate(171.321)" ry="1.463" rx="1.463" cy="-72.005" cx="-33.386" fill="#323232"/><path d="M45.02 67.62l-.44-.511" fill="none" stroke="#323232" stroke-width=".67"/><rect ry="1.197" rx="1.197" y="80.659" x="-8.155" height="2.55" width="9.652" transform="rotate(-38.203)" fill="#323232"/><path d="M115.434 17.763l-2.823 2.22-2.524-3.207 10.349-8.144.37.47-7.526 5.923z" fill="#fff" stroke="#323232" stroke-width="2.658"/><path fill="#323232" d="M113.812 18.606l7.353-5.786 1.029 1.307-7.353 5.787z"/></svg>