<svg xmlns="http://www.w3.org/2000/svg" width="128" height="128"><g transform="matrix(.1595 -.1595 .1595 .1595 5.606 47.652)"><rect width="64" height="18.765" x="-155.603" y="205.596" rx="4" ry="4" transform="rotate(-1.845)" fill="#323232" stroke="#323232" stroke-width="11" stroke-linecap="round" stroke-miterlimit="10"/><path d="M-48.616 221.465l-141.448 4s-4.552 1.544-4.552 3.544c6.15 24.696 2.91 67.69 2.91 67.69.17 2.208 3.09 1.505 3.09 1.505l97.047-15.533c7.937-1.997 28.953-1.563 28.953-1.563s4.608 1.579 7.32 5.782c5.288 2.847 20.68 3.202 20.68 3.202 1.22-.407 4-32.627 4-32.627 2-8 14-8 14-8l2-18-28-4zm-124.753 17.438h14c2 0 4 2 4 4v14c0 2-2 4-4 4h-14c-2 0-4-2-4-4v-14c0-2 2-4 4-4zm68.855-1.133l48-1.186c5.56.068 7.186 6.203 7.186 6.203l-3.83 16.777s-4.034 5.457-10 6c-31.257-.384-43.728 7.451-56 6.493 0 0-5.56-3.714-8-10.493l-1.356-23.116 14-.678c2.685 5.561 4 4 4 4z" fill="#fff" stroke="#323232" stroke-width="11"/><path d="M-44.616 223.465l4 4 26 4v2H47.55v12h4v-20h71.795v-28.339H47.549l-6 2h-76.165c-4.474 1.085-8 14.34-8 14.34z" fill="#fff" stroke="#323232" stroke-width="11"/><path d="M113.494 181.492v7.559h39.522v-3.56h-.37s0-2.677-2.938-2.677c-3.062 0-3.062 2.678-3.062 2.678h-16s0-2.678-3.006-2.678c-2.994 0-2.994 2.678-2.994 2.678h-8v-2z" fill="#323232"/><path d="M277.18 219.465v-28.339H156.383l-19.603 2v32.34l53.603-6z" fill="#fff" stroke="#323232" stroke-width="11"/><path d="M285.033 211.256h161.16l.473 1.687h46.694c1.262-3.372 1.262-7.584 0-11.378h-46.694l-.473 1.688h-161.16zM452.9 206.2h25.271c.979 0 1.317 1.265 1.317 1.265s-.338 1.263-1.317 1.263h-25.269c-1.078-.024-1.487-1.263-1.487-1.263s.406-1.29 1.485-1.265z" fill="#323232"/><path d="M327.033 205.465v10h16v-10s-10.441-6.104-12-10.986v-4l-4-2h-26v2h-16v26.986h4v-4h40v-6h-40v-8.11h34zM427.94 174.671v8l2 2-4 12.54-.004 22.254h6.003l1.356-9.999h7.621V184.67l1.982-2v-8zm4.854 17.332l3.145-.002a2.31 2.31 0 0 1 2.315 2.315l-.002 2.736a2.31 2.31 0 0 1-2.313 2.313l-3.145.002a2.31 2.31 0 0 1-2.315-2.315l.002-2.736a2.31 2.31 0 0 1 2.313-2.313z" fill="#323232"/><path d="M107.885 240.054c-3.119 20.881 2 35.411 2 35.411l-40.37 10s-5.343-13.963-4-45.411z" fill="#fff" stroke="#323232" stroke-width="11"/><rect width="19.933" height="5.594" x="191.518" y="198.223" rx="2.965" ry="2.797" fill="#323232"/><rect ry="2.797" rx="2.965" y="198.357" x="220.598" height="5.594" width="19.933" fill="#323232"/><rect width="19.933" height="5.594" x="249.677" y="198.357" rx="2.965" ry="2.797" fill="#323232"/><path d="M6.453 254.907s-11.787-4.624.674-18.134l-4.881-.033c-8.954 13.501-.275 17.96 1.207 18.79.841.101 2.318-.231 3-.623z" fill="#323232"/><path d="M-12.243 235.07l8.837-.346-1.432 3.87s-.877 3.912-5.284 4.725l-1.138 7.294c.644 1.66 6.327 5.805 7.357 6.284 4.41 1.534 17.656.905 18.972.21 1.752-.915 3.657-2.828 5.25-5.676.78-2.203.813-8.88.813-8.88.373-1.762 2.618-5.212 2.618-5.212l4.337-.189s-3.546 4.245-3.919 6.076c0 0-.038 8.38-1.055 9.804-.915 2.372-4.854 6.546-6.908 7.508-1.424.576-16.007 1.735-21.4-.062-.887-.432-4.98-2.74-8.641-6.74zM46.816 259.546s-1.558-.048-2.11-1.247l4.507-9.683h3.451z" fill="#323232"/><rect ry="2.797" rx="2.965" y="206.085" x="177.136" height="5.594" width="19.933" fill="#323232"/><rect width="19.933" height="5.594" x="206.216" y="206.219" rx="2.965" ry="2.797" fill="#323232"/><rect ry="2.797" rx="2.965" y="206.219" x="235.295" height="5.594" width="19.933" fill="#323232"/></g></svg>