<svg xmlns="http://www.w3.org/2000/svg" width="128" height="128"><defs><clipPath id="a"><path d="M79.284 11.438c-10.38 0-22.796 3.526-30.355 7.22-8.038 3.266-14.58 7.287-19.253 14.51-6.283 9.714-9.334 24.72-7.255 48.602 5.964 2.07 11.333 1.45 16.842-.415-1.727-7.884-1.448-15.764.496-22.204 2.126-7.044 6.404-12.722 12.675-13.7l2.77-.433.074 2.803c.054 2.043.09 4.17.116 6.335l.027 6.312c-.037 8.798-.382 18.286-1.277 27.845 5.637 1.83 14.806 2.954 23.964 3.02l4.597-.059c8.53-.275 16.742-1.45 21.665-3.063-1.093-14.65-1.166-29.434-1.52-41.334l-.097-3.283 3.18.824c6.238 1.617 10.55 7.376 12.76 14.507 2.02 6.51 2.353 14.37.64 22.248a29.764 29.764 0 0 0 12.847 1.18l4.4-.587c1.032-18.81-1.434-37.403-6.27-46.264l-4.409-6.376c-4.647-5.357-10.62-8.4-17.665-11.074-6.746-3.458-18.358-6.614-28.95-6.614zm0 3.05c6.494 0 13.37 1.942 19.274 4.516-3.123 2.758-6.97 4.665-11.067 5.754l-7.852 17.31-6.838-16.882c-4.757-.93-9.26-2.957-12.783-6.174 6.173-2.643 13.082-4.524 19.266-4.524zm.58 28.54l3.512 5.326-3.497 5.053-3.53-5.053zm0 11.887l3.512 5.328-3.497 5.052-3.53-5.053 3.514-5.327zm0 11.733l3.512 5.327-3.497 5.054-3.53-5.054zm0 11.876l3.512 5.327-3.497 5.054-3.53-5.053 3.514-5.327zm25.08 13.715c-6.61 2.055-15.83 2.907-25.278 2.95-9.5.046-18.965-.743-25.902-2.89a222.41 222.41 0 0 1-.678 5.346c5.968 2.132 16.346 3.408 26.497 3.36 10.143-.05 20.355-1.444 25.912-3.433a241.302 241.302 0 0 1-.552-5.333zm1.367 9.086c-6.782 2.308-16.533 3.262-26.53 3.31-2.935.015-5.866-.052-8.724-.213l-4.227-.315c-5.358-.5-10.307-1.382-14.33-2.758-.896 5.43-2.02 10.772-3.412 15.903 2.117 1.06 4.41 1.968 6.835 2.733l3.97 1.096c15.85 3.805 35.88 2.156 49.6-3.513-1.354-5.09-2.386-10.57-3.182-16.243z"/></clipPath></defs><g transform="translate(-15.291 -3.288)" clip-path="url(#a)"><path d="M60.798-5.453L3.822 51.523l1.633 1.638s2.133.65 3.425.65c1.275 0 2.692-.217 4.213-.645l2.32-.654-4.838-2.386 12.056-1.528.178-.114a64.338 64.338 0 0 0 2.977-2.052l1.7-1.24-9.42-1.888 15.785-3.587.183-.17a113.45 113.45 0 0 0 2.654-2.569c6.692-6.692 13.339-14.917 18.236-22.564l2.681-4.455.015-.025c4.42-7.9 5.489-13.077 3.178-15.387z" fill="#dd3400"/><path d="M60.848-5.4c-.784-.783-1.915-1.182-3.365-1.182-5.09 0-13.34 4.953-17.805 7.904l-.354.234-1.015 8.01-2.686-5.446-.889.651c-5.74 4.207-11.534 9.158-16.317 13.94-.877.878-1.741 1.77-2.568 2.653l-.17.184-3.588 15.784-1.887-9.419-1.24 1.7a64.51 64.51 0 0 0-2.052 2.977l-.115.178L5.27 44.823l-2.387-4.837-.653 2.32c-.865 3.07.009 7.634.009 7.634l1.632 1.638z" fill="#b42a00"/><path d="M44.893 20.003l-7.137.29 10.91-10.909a1.876 1.876 0 0 0-2.653-2.652L35.105 17.64l.289-7.136a1.876 1.876 0 0 0-3.75 0l-.29 10.887-8.383 8.383-.243-6.604a1.875 1.875 0 0 0-3.75 0l.243 10.354L-9.81 62.556a1.875 1.875 0 1 0 2.652 2.651l29.03-29.03 10.355.243c1.036 0 1.876-.84 1.876-1.875 0-1.036-.84-1.838-1.876-1.876l-6.604-.243 8.383-8.383 10.887-.29a1.875 1.875 0 1 0 0-3.75z" fill="#552003"/><path d="M44.893 20.003l-7.137.29 10.91-10.909a1.875 1.875 0 0 0 0-2.651L-9.81 65.207c.365.367.846.55 1.326.55.48 0 .96-.183 1.325-.55l29.031-29.03 10.355.243c1.036 0 1.876-.84 1.876-1.875 0-1.036-.84-1.838-1.876-1.876l-6.604-.243 8.383-8.383 10.887-.29a1.875 1.875 0 1 0 0-3.75z" fill="#831e00"/><path d="M144.557 80.78l-56.976 56.977 1.633 1.637s2.133.65 3.425.65c1.275 0 2.692-.217 4.213-.645l2.32-.654-4.838-2.386 12.056-1.528.178-.114a64.195 64.195 0 0 0 2.977-2.052l1.7-1.24-9.42-1.888 15.785-3.587.183-.17c.885-.83 1.778-1.693 2.654-2.569 6.692-6.692 13.339-14.917 18.236-22.564l2.681-4.455.015-.025c4.42-7.9 5.489-13.076 3.178-15.387z" fill="#d67b00"/><path d="M144.608 80.834c-.784-.784-1.916-1.182-3.366-1.182-5.09 0-13.34 4.952-17.805 7.904l-.354.233-1.015 8.01-2.686-5.446-.889.651c-5.74 4.207-11.534 9.158-16.316 13.94-.878.878-1.742 1.77-2.568 2.653l-.171.184-3.587 15.784-1.888-9.419-1.24 1.7a64.51 64.51 0 0 0-2.052 2.977l-.114.178-1.528 12.055-2.386-4.837-.654 2.32c-.865 3.07.009 7.634.009 7.634l1.632 1.638z" fill="#e5bc00"/><path d="M128.652 106.236l-7.137.29 10.91-10.909a1.876 1.876 0 0 0-2.653-2.652l-10.908 10.909.29-7.137a1.876 1.876 0 0 0-3.751 0l-.29 10.887-8.383 8.383-.243-6.604a1.875 1.875 0 0 0-3.75 0l.243 10.354-29.03 29.032a1.875 1.875 0 1 0 2.65 2.652l29.032-29.031 10.355.243c1.035 0 1.875-.84 1.875-1.875 0-1.036-.84-1.838-1.875-1.876l-6.605-.243 8.383-8.383 10.888-.29a1.875 1.875 0 1 0 0-3.75z" fill="#a73f06"/><path d="M128.653 106.236l-7.138.29 10.91-10.909a1.875 1.875 0 0 0 0-2.651L73.948 151.44c.366.366.846.549 1.326.549.48 0 .96-.183 1.326-.55l29.03-29.03 10.356.243c1.035 0 1.875-.84 1.875-1.875 0-1.036-.84-1.838-1.875-1.876l-6.605-.243 8.383-8.383 10.888-.29a1.875 1.875 0 1 0 0-3.75z" fill="#834000"/><g><path d="M60.687-6.774l69.954 39.988 1.15-2.006s.067-2.229-.273-3.476c-.335-1.23-.917-2.54-1.73-3.894l-1.241-2.067-1.03 5.295-4.645-11.23-.157-.141a64.195 64.195 0 0 0-2.762-2.334l-1.644-1.313.656 9.584-7.612-14.286-.213-.132c-1.032-.635-2.1-1.27-3.175-1.884-8.217-4.697-17.9-8.947-26.566-11.661l-5.003-1.416-.028-.007c-8.784-2.187-14.06-1.857-15.681.98z" fill="#d67b00"/><path d="M60.725-6.837c-.55.963-.636 2.16-.255 3.558 1.338 4.91 8.286 11.568 12.308 15.1l.318.28 7.995-1.127-4.548 4.023.862.687c5.568 4.431 11.868 8.72 17.74 12.076 1.078.616 2.166 1.215 3.235 1.78l.222.117 16.172-.69-8.59 4.298 1.965.75a64.51 64.51 0 0 0 3.412 1.196l.202.064 12.033-1.696-4.04 3.574 2.41.02c3.189.028 7.364-2.015 7.364-2.015l1.15-2.006z" fill="#e5bc00"/><path d="M89.43 1.877l2.156 6.81L78.192 1.03a1.876 1.876 0 0 0-1.861 3.256l13.393 7.656-6.962 1.598a1.876 1.876 0 0 0 .987 3.618l10.58-2.584 10.292 5.884-6.308 1.971a1.875 1.875 0 0 0 .987 3.619l9.925-2.958 35.645 20.375a1.875 1.875 0 1 0 1.86-3.256l-35.642-20.375-2.489-10.054a1.875 1.875 0 0 0-2.302-1.316c-1 .272-1.552 1.293-1.317 2.302l1.503 6.436-10.293-5.884L93.048.89a1.875 1.875 0 1 0-3.619.986z" fill="#a73f06"/><path d="M89.43 1.876l2.156 6.81L78.192 1.03a1.875 1.875 0 0 0-2.558.697l71.794 41.04c.257-.449.308-.96.181-1.423a1.868 1.868 0 0 0-.878-1.135l-35.643-20.375-2.489-10.054a1.875 1.875 0 0 0-2.302-1.316c-1 .272-1.552 1.293-1.317 2.302l1.503 6.436L96.19 11.32 93.048.89a1.875 1.875 0 1 0-3.619.986z" fill="#834000"/></g><g><path d="M71.719 138.109L6.113 91.329l-1.345 1.88s-.29 2.211-.076 3.486c.21 1.258.659 2.619 1.333 4.048l1.027 2.18 1.555-5.165 3.498 11.638.142.156c.78.855 1.627 1.728 2.516 2.598l1.504 1.471.305-9.602 6.146 14.976.199.152a113.45 113.45 0 0 0 2.97 2.193c7.707 5.494 16.916 10.69 25.268 14.258l4.836 1.908.028.01c8.521 3.054 13.803 3.253 15.7.593z" fill="#dd3400"/><path d="M71.675 138.167c.643-.902.849-2.084.61-3.514-.841-5.02-7.089-12.339-10.737-16.255l-.29-.31-8.067.322 4.927-3.549-.788-.769c-5.098-4.965-10.938-9.863-16.444-13.79-1.011-.72-2.035-1.425-3.041-2.094l-.21-.138-16.16-.93 8.978-3.418-1.88-.942a64.51 64.51 0 0 0-3.277-1.532l-.194-.083-12.142.485 4.377-3.153-2.397-.261c-3.17-.346-7.527 1.27-7.527 1.27l-1.346 1.88z" fill="#b42a00"/><path d="M43.985 126.628l-1.464-6.991 12.56 8.957a1.876 1.876 0 0 0 2.178-3.054l-12.56-8.956 7.086-.894a1.876 1.876 0 0 0-.62-3.7l-10.785 1.515-9.653-6.884 6.473-1.33a1.875 1.875 0 0 0-.62-3.7l-10.171 1.951L-7.02 79.706a1.875 1.875 0 1 0-2.177 3.054l33.428 23.836 1.47 10.252a1.875 1.875 0 0 0 2.16 1.54c1.022-.171 1.673-1.132 1.54-2.16l-.852-6.553 9.653 6.883 2.084 10.69a1.875 1.875 0 1 0 3.7-.62z" fill="#552003"/><path d="M43.985 126.628l-1.464-6.991 12.56 8.957a1.875 1.875 0 0 0 2.616-.438L-9.635 80.144c-.301.422-.402.926-.323 1.399.08.473.34.916.76 1.217l33.429 23.835 1.47 10.253a1.875 1.875 0 0 0 2.16 1.54c1.022-.171 1.673-1.132 1.54-2.16l-.852-6.553 9.653 6.883 2.084 10.69a1.875 1.875 0 1 0 3.7-.62z" fill="#831e00"/></g><g><path d="M6.552 25.483l1.472 80.563 2.312-.039s1.948-1.084 2.845-2.014h.001c.885-.918 1.711-2.089 2.458-3.48l1.14-2.124-5.075 1.825 7.267-9.739.041-.207c.223-1.136.42-2.336.59-3.568l.287-2.084-7.897 5.47 8.374-13.852.004-.25c.017-1.213.015-2.455-.007-3.693-.173-9.463-1.48-19.956-3.587-28.79l-1.346-5.022-.008-.028c-2.62-8.665-5.604-13.028-8.87-12.968z" fill="#d67b00"/><path d="M6.626 25.484c-1.109.02-2.181.559-3.187 1.602C-.094 30.75-2.255 40.127-3.23 45.39l-.078.417 5.062 6.29-5.785-1.846-.148 1.092c-.955 7.052-1.413 14.66-1.29 21.422.023 1.24.066 2.483.128 3.69l.013.25 8.874 13.538-8.091-5.178.363 2.072a64.51 64.51 0 0 0 .72 3.544l.048.205 7.618 9.467-5.138-1.639 1.216 2.08c1.61 2.754 5.502 5.293 5.502 5.293l2.312-.039z" fill="#e5bc00"/><path d="M13.839 54.602L9.094 59.94l-.282-15.424a1.876 1.876 0 0 0-3.75.068l.282 15.424-4.937-5.161a1.876 1.876 0 0 0-2.603 2.7L5.44 65.31l.216 11.854-4.923-4.409a1.875 1.875 0 0 0-2.603 2.7l7.623 7.011.75 41.05a1.875 1.875 0 1 0 3.75-.068L9.504 82.4l7.362-7.286a1.875 1.875 0 0 0-.048-2.652c-.746-.718-1.906-.67-2.652.049l-4.759 4.586-.216-11.854 7.348-8.038a1.875 1.875 0 1 0-2.7-2.604z" fill="#a73f06"/><path d="M13.84 54.601l-4.746 5.34-.282-15.425a1.875 1.875 0 0 0-1.909-1.84l1.51 82.682c.518-.01.983-.228 1.316-.573.333-.346.534-.819.525-1.336L9.504 82.4l7.362-7.286a1.875 1.875 0 0 0-.048-2.652c-.746-.718-1.906-.67-2.652.049l-4.759 4.586-.216-11.854 7.348-8.038a1.875 1.875 0 1 0-2.7-2.604z" fill="#834000"/></g><g><path d="M125.54 11.995l9.8 79.978 2.295-.278s1.826-1.28 2.622-2.298h.001c.785-1.004 1.486-2.254 2.085-3.716l.914-2.23-4.86 2.34 6.222-10.438.019-.21c.104-1.153.176-2.368.217-3.61l.07-2.103-7.288 6.259 6.895-14.646-.022-.25a113.45 113.45 0 0 0-.39-3.671c-1.15-9.394-3.537-19.696-6.546-28.265l-1.858-4.855-.011-.028c-3.502-8.347-6.922-12.377-10.165-11.98z" fill="#dd3400"/><path d="M125.613 11.988c-1.1.135-2.111.781-3.004 1.923-3.134 4.01-4.314 13.56-4.738 18.896l-.035.423 5.686 5.732-5.944-1.237-.035 1.101c-.22 7.113.111 14.727.934 21.44.15 1.232.322 2.463.509 3.658l.039.247 10.227 12.547-8.584-4.313.575 2.023a64.51 64.51 0 0 0 1.083 3.45l.07.2 8.557 8.628-5.281-1.099 1.426 1.944c1.885 2.571 6.02 4.695 6.02 4.695l2.295-.278z" fill="#b42a00"/><path d="M135.8 40.203l-4.167 5.801-1.876-15.313a1.876 1.876 0 0 0-3.723.457l1.877 15.311-5.445-4.622a1.876 1.876 0 0 0-2.31 2.955l8.4 6.932 1.441 11.768-5.353-3.876a1.875 1.875 0 0 0-2.31 2.955l8.309 6.185 4.993 40.751a1.875 1.875 0 1 0 3.723-.456l-4.994-40.75 6.569-8.009a1.875 1.875 0 0 0-.323-2.632c-.816-.638-1.964-.47-2.632.322l-4.259 5.054-1.442-11.768 6.477-8.756a1.875 1.875 0 1 0-2.955-2.31z" fill="#552003"/><path d="M135.8 40.203l-4.167 5.801-1.876-15.313a1.875 1.875 0 0 0-2.09-1.633l10.058 82.083a1.869 1.869 0 0 0 1.25-.706c.295-.379.447-.87.384-1.383L134.365 68.3l6.569-8.009a1.875 1.875 0 0 0-.323-2.632c-.816-.638-1.964-.47-2.632.322l-4.259 5.054-1.442-11.767 6.477-8.757a1.875 1.875 0 1 0-2.955-2.31z" fill="#831e00"/></g><g><path d="M63.262 76.628l-.476-80.575-2.312.01s-1.962 1.06-2.87 1.98h-.001c-.896.906-1.737 2.066-2.501 3.45l-1.166 2.109 5.097-1.763-7.387 9.648-.044.207a64.338 64.338 0 0 0-.634 3.56l-.312 2.08 7.964-5.372-8.544 13.749-.008.25a113.45 113.45 0 0 0-.038 3.692c.056 9.464 1.234 19.973 3.23 28.833l1.284 5.038.008.028c2.512 8.696 5.442 13.096 8.71 13.076z" fill="#dd3400"/><path d="M63.188 76.626c1.11-.006 2.188-.531 3.207-1.562 3.577-3.62 5.855-12.97 6.894-18.22l.083-.416-4.984-6.353 5.761 1.918.162-1.09c1.042-7.04 1.594-14.64 1.554-21.404a112.463 112.463 0 0 0-.082-3.692l-.01-.25-8.706-13.647 8.027 5.278-.337-2.076a64.51 64.51 0 0 0-.676-3.553l-.046-.206-7.5-9.56 5.117 1.702-1.19-2.095c-1.576-2.773-5.437-5.36-5.437-5.36l-2.312.01z" fill="#b42a00"/><path d="M56.336 47.422l4.81-5.28.091 15.427a1.876 1.876 0 0 0 3.75-.022l-.09-15.426 4.873 5.222a1.876 1.876 0 0 0 2.636-2.668l-7.54-7.858-.07-11.856 4.868 4.47a1.875 1.875 0 0 0 2.636-2.668l-7.536-7.105-.242-41.056a1.875 1.875 0 1 0-3.75.022l.242 41.055-7.452 7.194a1.875 1.875 0 0 0 .016 2.652c.737.729 1.897.694 2.652-.015l4.815-4.527.07 11.855-7.447 7.948a1.875 1.875 0 1 0 2.667 2.636z" fill="#552003"/><path d="M56.335 47.422l4.811-5.28.091 15.427a1.875 1.875 0 0 0 1.886 1.864l-.487-82.695a1.869 1.869 0 0 0-1.323.557 1.868 1.868 0 0 0-.541 1.33l.242 41.054-7.452 7.194a1.875 1.875 0 0 0 .016 2.652c.737.729 1.897.694 2.652-.015l4.815-4.527.07 11.855-7.447 7.948a1.875 1.875 0 1 0 2.667 2.636z" fill="#831e00"/></g><g><path d="M43.448 98.782l54.222 59.603 1.713-1.553s.75-2.1.811-3.391v-.001c.06-1.273-.09-2.698-.446-4.238l-.543-2.348-2.612 4.72-.957-12.115-.106-.183c-.581-1-1.224-2.033-1.908-3.071l-1.159-1.756-2.33 9.32-2.838-15.937-.162-.191a113.458 113.458 0 0 0-2.44-2.772c-6.369-7-14.27-14.028-21.678-19.281l-4.323-2.889-.025-.016c-7.682-4.787-12.803-6.1-15.22-3.9z" fill="#d67b00"/><path d="M43.503 98.735c-.82.746-1.27 1.857-1.34 3.305-.24 5.084 4.318 13.56 7.055 18.159l.217.365 7.953 1.392-5.567 2.425.609.919c3.93 5.932 8.602 11.953 13.154 16.957.835.918 1.686 1.823 2.529 2.69l.175.18 15.597 4.328-9.498 1.44 1.64 1.32a64.51 64.51 0 0 0 2.877 2.19l.172.122 11.97 2.095-4.945 2.156 2.287.762c3.025 1.009 7.626.352 7.626.352l1.713-1.554z" fill="#e5bc00"/><path d="M68.124 115.871l-.047 7.143-10.382-11.412a1.876 1.876 0 0 0-2.774 2.524l10.381 11.411-7.115-.625a1.876 1.876 0 0 0-.177 3.746l10.861.802 7.978 8.77-6.608-.069a1.875 1.875 0 0 0-.177 3.747l10.354.245 27.629 30.37a1.875 1.875 0 1 0 2.774-2.524L83.193 139.63l.732-10.332a1.875 1.875 0 0 0-1.785-1.962c-1.035-.048-1.875.753-1.962 1.785l-.554 6.586-7.978-8.77.225-10.889a1.875 1.875 0 1 0-3.747-.177z" fill="#a73f06"/><path d="M68.124 115.871l-.047 7.143-10.382-11.412a1.875 1.875 0 0 0-2.648-.125l55.648 61.171c.383-.348.59-.82.612-1.298a1.868 1.868 0 0 0-.486-1.35l-27.628-30.37.732-10.332a1.875 1.875 0 0 0-1.785-1.962c-1.035-.048-1.875.753-1.962 1.785l-.554 6.586-7.978-8.77.225-10.889a1.875 1.875 0 1 0-3.747-.177z" fill="#834000"/></g><g><path d="M130.667 84.242l-31.64-74.105-2.127.905S95.5 12.78 95.02 13.98h-.001c-.475 1.182-.8 2.578-.97 4.15l-.258 2.395 4.017-3.599-3.075 11.756.04.208c.22 1.136.488 2.323.794 3.528l.517 2.039 5.262-8.037-2.553 15.984.09.234c.44 1.13.908 2.28 1.394 3.419 3.717 8.704 8.872 17.937 14.143 25.332l3.135 4.148.018.023c5.684 7.045 10.089 9.966 13.094 8.683z" fill="#d67b00"/><path d="M130.599 84.27c1.02-.436 1.81-1.338 2.35-2.683 1.897-4.723.376-14.225-.699-19.469l-.084-.415-7.055-3.927 6.054-.463-.273-1.067c-1.765-6.894-4.2-14.116-6.855-20.337a112.457 112.457 0 0 0-1.505-3.371l-.106-.227-13.311-9.211 9.444 1.758-1.115-1.784a64.51 64.51 0 0 0-1.998-3.014l-.123-.172-10.617-5.91 5.378-.412-1.91-1.47c-2.525-1.947-7.087-2.838-7.087-2.838l-2.128.905z" fill="#e5bc00"/><path d="M112.972 59.997l2.39-6.731 6.058 14.188a1.876 1.876 0 0 0 3.45-1.473l-6.058-14.187 6.515 2.928a1.876 1.876 0 0 0 1.398-3.48l-9.996-4.326-4.655-10.904 6.22 2.236a1.875 1.875 0 0 0 1.397-3.48l-9.7-3.633L93.87-6.624a1.875 1.875 0 1 0-3.449 1.473l16.121 37.758-4.084 9.518a1.875 1.875 0 0 0 1.041 2.44c.961.385 2.018-.096 2.439-1.042l2.687-6.038 4.655 10.903-3.789 10.211a1.875 1.875 0 1 0 3.48 1.398z" fill="#a73f06"/><path d="M112.972 59.997l2.39-6.731 6.058 14.188a1.875 1.875 0 0 0 2.46.988L91.41-7.612c-.477.203-.826.58-1.005 1.025-.178.446-.187.96.016 1.435l16.121 37.759-4.084 9.518a1.875 1.875 0 0 0 1.041 2.44c.961.385 2.018-.096 2.439-1.042l2.687-6.038 4.655 10.903-3.789 10.211a1.875 1.875 0 1 0 3.48 1.398z" fill="#834000"/></g><g><path d="M79.295 64.956l72.14 35.892 1.034-2.068s-.062-2.23-.473-3.455c-.405-1.209-1.062-2.482-1.952-3.788l-1.358-1.992-.723 5.345-5.283-10.943-.166-.132a64.338 64.338 0 0 0-2.892-2.17l-1.716-1.217 1.206 9.53-8.422-13.823-.22-.12a113.45 113.45 0 0 0-3.279-1.698c-8.473-4.216-18.385-7.901-27.193-10.112l-5.076-1.125-.029-.006c-8.895-1.677-14.143-1.044-15.598 1.882z" fill="#dd3400"/><path d="M79.33 64.891c-.494.993-.512 2.192-.05 3.567 1.618 4.825 8.938 11.072 13.157 14.366l.334.261 7.916-1.585-4.308 4.278.9.636c5.814 4.103 12.35 8.022 18.406 11.034 1.111.553 2.233 1.089 3.332 1.591l.228.104 16.106-1.62-8.33 4.786 2.006.635a64.51 64.51 0 0 0 3.476.998l.205.052 11.915-2.387-3.827 3.801 2.408-.118c3.185-.157 7.234-2.437 7.234-2.437l1.034-2.069z" fill="#b42a00"/><path d="M108.488 71.937l2.545 6.674L97.22 71.74a1.876 1.876 0 0 0-1.67 3.358l13.81 6.871-6.857 1.997a1.876 1.876 0 0 0 1.193 3.555l10.413-3.189 10.615 5.281-6.184 2.332a1.875 1.875 0 0 0 1.193 3.555l9.739-3.524 36.758 18.288a1.875 1.875 0 1 0 1.67-3.358l-36.757-18.288-3.063-9.894a1.875 1.875 0 0 0-2.374-1.182c-.982.33-1.475 1.381-1.182 2.375l1.87 6.339-10.614-5.281-3.737-10.23a1.875 1.875 0 1 0-3.556 1.193z" fill="#552003"/><path d="M108.488 71.937l2.545 6.674L97.22 71.74a1.875 1.875 0 0 0-2.514.843l74.038 36.838c.231-.464.252-.978.1-1.432a1.868 1.868 0 0 0-.943-1.082l-36.757-18.289-3.064-9.894a1.875 1.875 0 0 0-2.374-1.182c-.982.33-1.475 1.381-1.182 2.375l1.87 6.339-10.613-5.281-3.738-10.23a1.875 1.875 0 1 0-3.556 1.193z" fill="#831e00"/></g><g><path d="M2.473 122.226l45.332-66.615-1.91-1.303s-2.217-.24-3.486 0h-.001c-1.252.238-2.603.716-4.017 1.422l-2.157 1.075 5.197 1.44-11.558 3.753-.153.146a64.338 64.338 0 0 0-2.542 2.571l-1.438 1.536 9.606.095-14.837 6.472-.148.203c-.714.979-1.43 1.994-2.127 3.018-5.324 7.824-10.318 17.146-13.701 25.574l-1.802 4.876-.01.028c-2.866 8.586-2.95 13.871-.248 15.71z" fill="#dd3400"/><path d="M2.413 122.183c.917.624 2.103.804 3.527.533 5-.95 12.18-7.357 16.016-11.09l.304-.296-.499-8.058 3.656 4.848.752-.806c4.852-5.204 9.62-11.15 13.426-16.742.698-1.026 1.38-2.065 2.027-3.086l.134-.212.575-16.177 3.614 8.901.901-1.9a64.51 64.51 0 0 0 1.46-3.31l.079-.195-.751-12.129 3.248 4.306.208-2.4c.277-3.178-1.434-7.499-1.434-7.499l-1.91-1.304z" fill="#b42a00"/><path d="M13.343 94.248l6.958-1.618-8.68 12.754a1.876 1.876 0 0 0 3.101 2.11l8.679-12.753 1.049 7.065a1.876 1.876 0 0 0 3.684-.7l-1.75-10.75 6.671-9.802 1.472 6.443a1.875 1.875 0 0 0 3.685-.7L36.038 76.17l23.098-33.943a1.875 1.875 0 1 0-3.1-2.11L32.938 74.06 22.72 75.754a1.875 1.875 0 0 0-1.492 2.193c.194 1.018 1.169 1.648 2.193 1.492l6.533-.995-6.67 9.801-10.641 2.318a1.875 1.875 0 1 0 .7 3.685z" fill="#552003"/><path d="M13.343 94.248l6.958-1.618-8.68 12.754a1.875 1.875 0 0 0 .495 2.605l46.525-68.367a1.869 1.869 0 0 0-1.405-.292c-.471.09-.909.36-1.2.787L32.94 74.06 22.72 75.754a1.875 1.875 0 0 0-1.492 2.193c.194 1.018 1.169 1.648 2.193 1.492l6.534-.995-6.67 9.801-10.642 2.318a1.875 1.875 0 1 0 .7 3.685z" fill="#831e00"/></g><g><path d="M-1.346 65.52l62.071-51.38-1.472-1.783s-2.062-.847-3.35-.968v-.001c-1.268-.12-2.7-.036-4.254.248l-2.37.433 4.591 2.83-12.145.39-.188.097a64.195 64.195 0 0 0-3.157 1.763l-1.808 1.075 9.2 2.763-16.051 2.09-.199.153c-.958.742-1.928 1.519-2.882 2.308-7.29 6.035-14.68 13.6-20.274 20.754L3.28 50.475l-.017.025c-5.141 7.45-6.691 12.503-4.608 15.02z" fill="#d67b00"/><path d="M-1.39 65.462c.706.854 1.796 1.357 3.239 1.493 5.067.477 13.746-3.68 18.468-6.199l.375-.199 1.762-7.88 2.162 5.674.947-.564c6.108-3.65 12.342-8.035 17.552-12.348.956-.791 1.9-1.6 2.806-2.4l.187-.167 5.052-15.378.996 9.554 1.394-1.575a64.51 64.51 0 0 0 2.322-2.772l.13-.167 2.653-11.858 1.922 5.04.868-2.25c1.15-2.974.708-7.6.708-7.6l-1.472-1.784z" fill="#e5bc00"/><path d="M16.877 41.668l7.133.382-11.884 9.837a1.876 1.876 0 0 0 2.392 2.889L26.4 44.939l-.957 7.078a1.876 1.876 0 0 0 3.734.352l1.309-10.812 9.133-7.56-.378 6.599a1.875 1.875 0 0 0 3.734.351l.729-10.331 31.627-26.18a1.875 1.875 0 1 0-2.391-2.889l-31.627 26.18-10.286-1.214a1.875 1.875 0 0 0-2.043 1.69c-.097 1.032.664 1.909 1.69 2.044l6.553.861-9.132 7.56-10.867-.734a1.875 1.875 0 1 0-.352 3.734z" fill="#a73f06"/><path d="M16.877 41.668l7.133.382-11.884 9.837a1.875 1.875 0 0 0-.249 2.64l63.704-52.73a1.869 1.869 0 0 0-1.269-.672 1.868 1.868 0 0 0-1.371.422l-31.627 26.18-10.286-1.214a1.875 1.875 0 0 0-2.043 1.69c-.097 1.032.664 1.909 1.69 2.044l6.554.861-9.133 7.56-10.867-.734a1.875 1.875 0 1 0-.352 3.734z" fill="#834000"/></g><g><path d="M59.957 28.702L4.644 87.294l1.68 1.59s2.15.589 3.442.552h.001c1.274-.036 2.683-.295 4.191-.767l2.3-.72-4.903-2.246L23.36 83.83l.175-.12a64.338 64.338 0 0 0 2.917-2.136l1.663-1.288-9.47-1.616 15.675-4.04.179-.176a113.45 113.45 0 0 0 2.578-2.644c6.497-6.882 12.904-15.294 17.58-23.08l2.551-4.53.014-.025c4.19-8.024 5.11-13.23 2.734-15.472z" fill="#dd3400"/><path d="M60.01 28.754c-.807-.761-1.95-1.126-3.399-1.085-5.087.147-13.192 5.334-17.57 8.413l-.348.244-.784 8.036-2.84-5.366-.87.676c-5.617 4.37-11.266 9.485-15.91 14.404-.852.902-1.69 1.82-2.49 2.726l-.166.188-3.131 15.881-2.158-9.36-1.19 1.733a64.51 64.51 0 0 0-1.966 3.036l-.11.181-1.18 12.094-2.524-4.766-.586 2.338c-.777 3.092.228 7.63.228 7.63l1.68 1.59z" fill="#b42a00"/><path d="M44.792 54.605l-7.126.495 10.59-11.218a1.876 1.876 0 0 0-2.727-2.575l-10.59 11.218.084-7.142a1.876 1.876 0 0 0-3.75.108l.025 10.891-8.138 8.62-.434-6.594a1.875 1.875 0 0 0-3.749.108l.542 10.343-28.183 29.855a1.875 1.875 0 1 0 2.727 2.575l28.183-29.854 10.357-.055a1.875 1.875 0 0 0 1.82-1.929c-.029-1.035-.892-1.812-1.928-1.82l-6.608-.053 8.138-8.621 10.875-.603a1.875 1.875 0 1 0-.108-3.749z" fill="#552003"/><path d="M44.792 54.605l-7.126.495 10.59-11.218c.71-.753.677-1.94-.076-2.65l-56.768 60.133c.376.356.861.525 1.34.511.48-.014.955-.21 1.31-.587l28.183-29.854 10.358-.055a1.875 1.875 0 0 0 1.82-1.929c-.029-1.035-.892-1.812-1.928-1.82l-6.608-.053 8.138-8.621 10.875-.603a1.875 1.875 0 1 0-.108-3.749z" fill="#831e00"/></g><g><path d="M60.016 43.274L22.86 114.772l2.05 1.07s2.23-.023 3.462-.413c1.216-.383 2.501-1.018 3.822-1.885l2.015-1.322-5.331-.818 11.034-5.09.135-.162a64.195 64.195 0 0 0 2.222-2.854l1.246-1.694-9.55 1.038 13.97-8.177.123-.218c.594-1.057 1.185-2.15 1.756-3.248 4.364-8.398 8.224-18.243 10.59-27.012l1.213-5.055.006-.029c1.834-8.864 1.293-14.122-1.606-15.629z" fill="#d67b00"/><path d="M60.08 43.31c-.984-.511-2.183-.55-3.565-.113C51.662 44.731 45.287 51.94 41.92 56.1l-.267.33 1.446 7.943-4.202-4.383-.651.889c-4.205 5.74-8.238 12.207-11.357 18.209a112.457 112.457 0 0 0-1.65 3.304l-.107.226 1.336 16.132-4.638-8.413-.67 1.994a64.51 64.51 0 0 0-1.06 3.458l-.055.204 2.176 11.955-3.733-3.893.076 2.409c.1 3.187 2.309 7.277 2.309 7.277l2.05 1.069z" fill="#e5bc00"/><path d="M52.522 72.34l-6.718 2.427 7.114-13.689a1.876 1.876 0 0 0-3.328-1.73l-7.113 13.689-1.876-6.892a1.876 1.876 0 0 0-3.576 1.13l3.006 10.468-5.468 10.52-2.222-6.224a1.875 1.875 0 0 0-3.576 1.13l3.353 9.8-18.933 36.43a1.875 1.875 0 1 0 3.328 1.73l18.932-36.43 9.947-2.889a1.875 1.875 0 0 0 1.223-2.353c-.312-.987-1.355-1.498-2.353-1.223l-6.37 1.759 5.466-10.52 10.294-3.557a1.875 1.875 0 1 0-1.13-3.576z" fill="#a73f06"/><path d="M52.522 72.34l-6.718 2.427 7.114-13.689c.478-.919.12-2.05-.799-2.528l-38.135 73.378c.46.24.973.269 1.43.124.458-.144.86-.463 1.099-.923L35.445 94.7l9.947-2.889a1.875 1.875 0 0 0 1.223-2.353c-.312-.987-1.355-1.498-2.353-1.223l-6.371 1.759 5.467-10.52 10.294-3.557a1.875 1.875 0 1 0-1.13-3.576z" fill="#834000"/></g><g><path d="M100.822 71.63L21.876 87.756l.46 2.267s1.42 1.718 2.499 2.43v.002c1.063.702 2.365 1.301 3.87 1.782l2.296.734-2.72-4.658 10.9 5.372.212.002a64.338 64.338 0 0 0 3.615-.07l2.101-.098-6.817-6.767 15.147 5.709.247-.042a113.45 113.45 0 0 0 3.629-.68c9.273-1.894 19.352-5.092 27.655-8.772l4.692-2.239.026-.013c8.043-4.154 11.788-7.884 11.134-11.085z" fill="#dd3400"/><path d="M100.835 71.702c-.222-1.086-.947-2.042-2.156-2.841-4.246-2.806-13.86-3.223-19.213-3.222h-.424l-5.263 6.123.762-6.024-1.1.053c-7.108.346-14.672 1.282-21.299 2.636-1.216.248-2.43.517-3.605.798l-.244.058L36.6 80.475l3.617-8.9-1.971.735a64.51 64.51 0 0 0-3.353 1.353l-.194.086-7.92 9.216.675-5.352-1.824 1.576c-2.414 2.083-4.201 6.374-4.201 6.374l.46 2.266z" fill="#b42a00"/><path d="M73.519 84.1l-6.114-3.693L82.52 77.32a1.876 1.876 0 0 0-.75-3.675l-15.115 3.088 4.176-5.795a1.876 1.876 0 0 0-3.13-2.068l-6.243 8.924-11.616 2.373 3.438-5.644a1.875 1.875 0 0 0-3.129-2.068l-5.504 8.773L4.42 89.446a1.875 1.875 0 1 0 .75 3.674l40.225-8.217 8.506 5.912a1.875 1.875 0 0 0 2.598-.531c.571-.864.312-1.996-.53-2.599l-5.377-3.843 11.615-2.373 9.244 5.76a1.875 1.875 0 1 0 2.067-3.129z" fill="#552003"/><path d="M73.52 84.1l-6.115-3.693L82.52 77.32a1.875 1.875 0 0 0 1.462-2.212L2.959 91.658c.103.507.403.925.803 1.19.4.264.902.376 1.409.272l40.225-8.217 8.506 5.912a1.875 1.875 0 0 0 2.598-.531c.571-.864.312-1.996-.53-2.599l-5.377-3.843 11.615-2.373 9.244 5.76a1.875 1.875 0 1 0 2.067-3.129z" fill="#831e00"/></g><g><path d="M20.53 115.507l71.79-36.591-1.048-2.062s-1.828-1.277-3.057-1.676v-.001c-1.212-.394-2.627-.624-4.206-.686l-2.408-.096 3.863 3.764-11.937-2.27-.205.053a64.195 64.195 0 0 0-3.466 1.032l-1.999.654 8.376 4.705-16.121-1.464-.227.106c-1.097.515-2.214 1.061-3.317 1.623-8.432 4.298-17.294 10.068-24.315 15.829l-3.925 3.408-.022.02c-6.644 6.148-9.26 10.741-7.776 13.652z" fill="#d67b00"/><path d="M20.499 115.44c.503.989 1.457 1.717 2.835 2.165 4.841 1.572 14.218-.59 19.377-2.018l.408-.113 3.44-7.304.872 6.008 1.047-.344c6.758-2.229 13.798-5.147 19.824-8.219a112.457 112.457 0 0 0 3.262-1.73l.22-.121 8.287-13.905-1.114 9.542 1.704-1.234a64.51 64.51 0 0 0 2.871-2.198l.164-.134 5.177-10.994.775 5.338 1.338-2.005c1.771-2.652 2.35-7.263 2.35-7.263l-1.047-2.062z" fill="#e5bc00"/><path d="M43.52 96.209l6.878 1.929-13.745 7.005a1.876 1.876 0 0 0 1.703 3.342l13.744-7.006-2.48 6.699a1.876 1.876 0 0 0 3.568 1.158l3.638-10.265 10.563-5.384-1.81 6.356a1.875 1.875 0 0 0 3.568 1.159l2.966-9.924 36.58-18.644a1.875 1.875 0 1 0-1.704-3.342L70.411 87.937l-9.773-3.43a1.875 1.875 0 0 0-2.363 1.204c-.32.985.231 2.007 1.204 2.363l6.207 2.271-10.563 5.384-10.444-3.088a1.875 1.875 0 1 0-1.159 3.568z" fill="#a73f06"/><path d="M43.52 96.209l6.878 1.929-13.745 7.005c-.923.47-1.29 1.6-.82 2.522l73.679-37.553a1.869 1.869 0 0 0-1.092-.932 1.868 1.868 0 0 0-1.43.113L70.41 87.937l-9.773-3.43a1.875 1.875 0 0 0-2.363 1.204c-.32.985.231 2.007 1.204 2.363l6.207 2.271-10.563 5.384-10.444-3.088a1.875 1.875 0 1 0-1.159 3.568z" fill="#834000"/></g><g><path d="M56.76 16.14l33.748 73.17 2.101-.966s1.348-1.776 1.795-2.99c.442-1.195.728-2.6.852-4.175l.19-2.402-3.913 3.712L94.27 70.65l-.046-.206a64.195 64.195 0 0 0-.894-3.504l-.576-2.023-5.03 8.184 2.095-16.051-.097-.231a113.458 113.458 0 0 0-1.491-3.378c-3.964-8.594-9.381-17.676-14.862-24.917l-3.252-4.056-.02-.023c-5.882-6.88-10.37-9.673-13.336-8.305z" fill="#d67b00"/><path d="M56.828 16.111c-1.006.465-1.771 1.389-2.273 2.749-1.76 4.775.031 14.23 1.256 19.44l.097.413 7.164 3.724-6.039.635.304 1.06c1.961 6.84 4.601 13.99 7.434 20.131.52 1.128 1.059 2.247 1.601 3.328l.113.224 13.569 8.826-9.49-1.487 1.164 1.75a64.51 64.51 0 0 0 2.085 2.956l.127.169 10.782 5.604-5.364.565 1.951 1.416c2.58 1.874 7.166 2.633 7.166 2.633l2.1-.965z" fill="#e5bc00"/><path d="M75.143 39.87l-2.198 6.796-6.46-14.01a1.876 1.876 0 0 0-3.407 1.572l6.462 14.008-6.597-2.74a1.876 1.876 0 0 0-1.297 3.519l10.115 4.037 4.965 10.766-6.28-2.056a1.875 1.875 0 0 0-1.298 3.519l9.8 3.353 17.195 37.282a1.875 1.875 0 1 0 3.405-1.57L82.354 67.063l3.81-9.631a1.875 1.875 0 0 0-1.11-2.409c-.973-.358-2.015.153-2.41 1.111l-2.512 6.113-4.965-10.766 3.495-10.315a1.875 1.875 0 1 0-3.52-1.298z" fill="#a73f06"/><path d="M75.143 39.87l-2.198 6.796-6.46-14.01a1.875 1.875 0 0 0-2.489-.916l34.635 75.094c.47-.217.808-.604.974-1.054.166-.45.16-.964-.057-1.434L82.353 67.064l3.81-9.631a1.875 1.875 0 0 0-1.11-2.409c-.972-.358-2.014.153-2.408 1.111l-2.513 6.113-4.965-10.766 3.495-10.315a1.875 1.875 0 1 0-3.52-1.298z" fill="#834000"/></g><g><path d="M56.096 8.968l72.14 35.893 1.034-2.069s-.062-2.229-.474-3.454l.001-.001c-.405-1.208-1.062-2.482-1.952-3.787l-1.358-1.992-.724 5.345-5.283-10.943-.165-.132a64.338 64.338 0 0 0-2.892-2.171l-1.716-1.216 1.206 9.53-8.422-13.824-.22-.12a113.45 113.45 0 0 0-3.279-1.698C95.52 14.114 85.607 10.43 76.8 8.218l-5.076-1.125-.029-.006C62.799 5.41 57.551 6.043 56.096 8.968z" fill="#dd3400"/><path d="M56.13 8.904c-.493.992-.51 2.192-.05 3.566 1.62 4.825 8.939 11.072 13.157 14.367l.334.261 7.917-1.586-4.308 4.279.9.636c5.814 4.103 12.35 8.021 18.406 11.034 1.111.553 2.233 1.088 3.332 1.591l.228.104 16.106-1.62-8.33 4.785 2.006.635a64.51 64.51 0 0 0 3.476.998l.205.052 11.915-2.386-3.827 3.8 2.407-.118c3.185-.156 7.235-2.436 7.235-2.436l1.033-2.069z" fill="#b42a00"/><path d="M85.289 15.95l2.545 6.674-13.812-6.872a1.876 1.876 0 0 0-1.671 3.358l13.811 6.871-6.857 1.996a1.876 1.876 0 0 0 1.193 3.556l10.413-3.19 10.615 5.282-6.184 2.331a1.875 1.875 0 0 0 1.193 3.556l9.739-3.525 36.758 18.289a1.875 1.875 0 1 0 1.67-3.358L107.946 32.63l-3.063-9.894a1.875 1.875 0 0 0-2.375-1.182c-.982.33-1.474 1.381-1.18 2.375l1.87 6.338-10.615-5.28-3.737-10.23a1.875 1.875 0 1 0-3.556 1.192z" fill="#552003"/><path d="M85.289 15.95l2.545 6.674-13.812-6.872a1.875 1.875 0 0 0-2.514.843l74.038 36.837c.231-.463.252-.977.1-1.431a1.868 1.868 0 0 0-.943-1.083L107.945 32.63l-3.063-9.895a1.875 1.875 0 0 0-2.375-1.18c-.982.329-1.474 1.38-1.18 2.374l1.87 6.338-10.615-5.28-3.737-10.23a1.875 1.875 0 1 0-3.556 1.192z" fill="#831e00"/></g><g><path d="M112.855 80.74L66.59 14.768l-1.896 1.325s-1.009 1.988-1.232 3.261c-.221 1.256-.252 2.689-.093 4.26l.243 2.399 3.187-4.352-.58 12.138.081.195c.451 1.066.958 2.172 1.506 3.288l.928 1.888 3.488-8.95.804 16.166.136.21c.663 1.015 1.36 2.044 2.07 3.058 5.435 7.748 12.386 15.717 19.072 21.863l3.924 3.411.022.02c7.017 5.718 11.93 7.666 14.605 5.79z" fill="#d67b00"/><path d="M112.794 80.78c.908-.637 1.496-1.683 1.746-3.11.88-5.013-2.57-13.996-4.706-18.905l-.168-.389-7.714-2.384 5.828-1.704-.488-.988c-3.15-6.38-7.025-12.944-10.908-18.481a112.457 112.457 0 0 0-2.17-2.989l-.15-.2-14.927-6.262 9.604-.23-1.46-1.516a64.51 64.51 0 0 0-2.578-2.536l-.155-.143-11.61-3.59 5.177-1.513-2.172-1.045c-2.873-1.383-7.52-1.312-7.52-1.312l-1.895 1.325z" fill="#e5bc00"/><path d="M90.533 60.672l.949-7.08 8.858 12.631a1.876 1.876 0 0 0 3.07-2.153l-8.857-12.63 6.98 1.518a1.876 1.876 0 0 0 .648-3.694l-10.674-2.167-6.807-9.706 6.547.902a1.875 1.875 0 0 0 .649-3.694l-10.241-1.55L58.081-.565a1.875 1.875 0 1 0-3.07 2.153l23.573 33.613-2.03 10.157a1.875 1.875 0 0 0 1.523 2.172c1.02.179 1.954-.51 2.17-1.523l1.382-6.463 6.807 9.706-1.597 10.774a1.875 1.875 0 1 0 3.694.648z" fill="#a73f06"/><path d="M90.533 60.672l.949-7.08 8.858 12.631a1.875 1.875 0 0 0 2.612.459L55.469-1.024a1.869 1.869 0 0 0-.77 1.21c-.084.474.014.978.311 1.402L78.584 35.2l-2.03 10.157a1.875 1.875 0 0 0 1.523 2.172c1.02.179 1.954-.51 2.17-1.523l1.382-6.463 6.808 9.706-1.598 10.774a1.875 1.875 0 1 0 3.694.648z" fill="#834000"/></g><g><path d="M70.884 64.208l78.611-17.687-.504-2.257s-1.455-1.69-2.547-2.38v-.002c-1.077-.68-2.39-1.254-3.905-1.705l-2.31-.689 2.812 4.603-11.004-5.154-.212.002c-1.157.01-2.373.059-3.613.141l-2.1.14 6.951 6.631-15.257-5.408-.246.047c-1.19.227-2.407.48-3.615.751-9.234 2.078-19.248 5.475-27.476 9.319l-4.647 2.33-.026.014c-7.958 4.313-11.63 8.116-10.912 11.304z" fill="#dd3400"/><path d="M70.87 64.136c.243 1.082.987 2.023 2.212 2.798 4.3 2.721 13.921 2.948 19.273 2.84l.424-.008 5.14-6.226-.642 6.038 1.1-.075c7.099-.486 14.642-1.572 21.241-3.057 1.211-.272 2.419-.565 3.589-.869l.242-.063 11.47-11.422-3.44 8.97 1.957-.773a64.51 64.51 0 0 0 3.326-1.42l.191-.09 7.737-9.37-.57 5.364 1.793-1.612c2.372-2.13 4.074-6.456 4.074-6.456l-.504-2.256z" fill="#b42a00"/><path d="M97.935 51.2l6.186 3.57-15.051 3.386a1.876 1.876 0 0 0 .823 3.66l15.05-3.387-4.06 5.877a1.876 1.876 0 0 0 3.17 2.005l6.065-9.046 11.567-2.602-3.326 5.71a1.875 1.875 0 0 0 3.17 2.006l5.33-8.88 40.055-9.013a1.875 1.875 0 1 0-.823-3.659l-40.055 9.012-8.62-5.741a1.875 1.875 0 0 0-2.588.582c-.554.875-.272 2.002.582 2.587l5.452 3.737-11.567 2.602-9.355-5.576a1.875 1.875 0 1 0-2.005 3.17z" fill="#552003"/><path d="M97.935 51.2l6.186 3.57-15.051 3.386a1.875 1.875 0 0 0-1.418 2.241l80.68-18.152a1.869 1.869 0 0 0-.827-1.173 1.868 1.868 0 0 0-1.414-.244l-40.054 9.011-8.621-5.741a1.875 1.875 0 0 0-2.588.582c-.554.875-.272 2.002.582 2.587l5.452 3.737-11.566 2.602-9.356-5.576a1.875 1.875 0 1 0-2.005 3.17z" fill="#831e00"/></g><g><path d="M66.542 70.758l23.469 77.083 2.213-.67s1.577-1.576 2.185-2.717h.001c.6-1.125 1.074-2.477 1.412-4.02l.515-2.355-4.382 3.145 4.324-11.356-.017-.21a64.338 64.338 0 0 0-.41-3.594l-.294-2.083-6.098 7.423 4.261-15.616-.064-.242a113.45 113.45 0 0 0-1.018-3.55c-2.757-9.053-6.887-18.788-11.33-26.708l-2.67-4.461-.016-.025c-4.89-7.617-8.956-10.996-12.081-10.044z" fill="#dd3400"/><path d="M66.612 70.739c-1.06.323-1.944 1.134-2.626 2.413-2.395 4.491-1.907 14.102-1.403 19.43l.04.423 6.59 4.664-6.069-.192.156 1.09c1.012 7.044 2.654 14.487 4.624 20.957.362 1.187.743 2.37 1.133 3.514l.081.237 12.241 10.592-9.2-2.766.916 1.894a64.51 64.51 0 0 0 1.663 3.212l.103.184 9.919 7.02-5.391-.17 1.74 1.668c2.3 2.207 6.74 3.584 6.74 3.584l2.213-.67z" fill="#b42a00"/><path d="M81.521 96.77l-3.103 6.433-4.493-14.758a1.876 1.876 0 0 0-3.588 1.093l4.494 14.757-6.162-3.613a1.876 1.876 0 0 0-1.764 3.31l9.47 5.377 3.454 11.342-5.943-2.893a1.875 1.875 0 0 0-1.764 3.31l9.251 4.656 11.96 39.277a1.875 1.875 0 1 0 3.587-1.093l-11.958-39.275 5.086-9.023a1.875 1.875 0 0 0-.773-2.537c-.914-.488-2.016-.123-2.537.772l-3.321 5.714-3.453-11.342 4.867-9.743a1.875 1.875 0 1 0-3.31-1.765z" fill="#552003"/><path d="M81.521 96.77l-3.103 6.433-4.493-14.758a1.875 1.875 0 0 0-2.34-1.247l24.087 79.11c.495-.15.883-.488 1.109-.911.225-.424.29-.933.139-1.429L84.96 124.693l5.087-9.023a1.875 1.875 0 0 0-.773-2.537c-.914-.488-2.016-.123-2.537.772l-3.322 5.714-3.453-11.341 4.868-9.744a1.875 1.875 0 1 0-3.31-1.765z" fill="#831e00"/></g><g><path d="M117.628 130.946l-59.37-54.479-1.565 1.702s-.558 2.159-.503 3.45c.054 1.274.333 2.68.826 4.18l.752 2.29 2.177-4.935 2.044 11.979.122.173c.669.944 1.402 1.915 2.177 2.887l1.312 1.644 1.482-9.491 4.261 15.616.179.176c.865.848 1.767 1.703 2.68 2.54 6.972 6.399 15.475 12.687 23.326 17.252l4.565 2.487.026.014c8.082 4.076 13.3 4.922 15.509 2.514z" fill="#d67b00"/><path d="M117.577 130.998c.75-.817 1.098-1.965 1.036-3.413-.218-5.085-5.52-13.115-8.66-17.45l-.25-.343-8.045-.67 5.325-2.917-.688-.86c-4.45-5.554-9.644-11.131-14.628-15.704-.914-.84-1.844-1.664-2.76-2.452l-.191-.163-15.924-2.906 9.33-2.29-1.752-1.166a64.51 64.51 0 0 0-3.063-1.922l-.182-.107-12.11-1.009 4.73-2.592-2.346-.553c-3.103-.732-7.627.336-7.627.336l-1.565 1.702z" fill="#e5bc00"/><path d="M91.513 116.148l-.596-7.118 11.367 10.43a1.876 1.876 0 0 0 2.536-2.763l-11.367-10.43 7.143-.017a1.876 1.876 0 0 0-.161-3.747l-10.89.178-8.735-8.016 6.588-.526a1.875 1.875 0 0 0-.161-3.747l-10.335.688-30.25-27.759a1.875 1.875 0 1 0-2.536 2.763l30.25 27.758.202 10.356a1.875 1.875 0 0 0 1.954 1.793c1.034-.044 1.799-.918 1.793-1.954l-.041-6.608 8.735 8.015.757 10.865a1.875 1.875 0 1 0 3.747-.16z" fill="#a73f06"/><path d="M91.513 116.148l-.596-7.118 11.367 10.43c.763.7 1.949.65 2.649-.113l-60.93-55.912c-.351.381-.513.87-.493 1.348.02.48.224.952.606 1.301l30.25 27.758.202 10.356a1.875 1.875 0 0 0 1.954 1.793c1.034-.044 1.799-.918 1.793-1.954l-.041-6.609 8.735 8.016.757 10.865a1.875 1.875 0 1 0 3.747-.16z" fill="#834000"/></g><g><path d="M136.702 95.82l-79.98-9.79-.284 2.294s.802 2.081 1.598 3.1c.785 1.004 1.829 1.986 3.103 2.92l1.944 1.426-1.1-5.281 8.63 8.556.199.07c1.093.378 2.254.742 3.45 1.082l2.024.575-4.314-8.583 12.548 10.225.247.04c1.198.186 2.429.357 3.658.507 9.394 1.15 19.967 1.32 29.009.469l5.16-.632.03-.004c8.945-1.384 13.681-3.73 14.078-6.974z" fill="#dd3400"/><path d="M136.691 95.893c.135-1.1-.249-2.238-1.142-3.38-3.134-4.009-12.118-7.458-17.193-9.158l-.402-.135-6.936 4.134 2.636-5.47-1.06-.3c-6.85-1.93-14.319-3.445-21.032-4.267-1.232-.15-2.468-.281-3.672-.389l-.25-.022-14.644 6.897 6.257-7.289-2.102.07a64.51 64.51 0 0 0-3.61.218l-.21.02-10.438 6.221 2.34-4.86-2.23.915c-2.95 1.209-6.008 4.71-6.008 4.71l-.285 2.294z" fill="#b42a00"/><path d="M106.852 98.97l-4.624-5.444 15.312 1.875a1.876 1.876 0 0 0 .456-3.723l-15.312-1.874 5.8-4.168a1.876 1.876 0 0 0-2.31-2.955l-8.755 6.478-11.768-1.44 5.053-4.26a1.875 1.875 0 0 0-2.31-2.955l-8.007 6.57-40.752-4.988a1.875 1.875 0 1 0-.456 3.722l40.752 4.989 6.186 8.307c.638.816 1.817.96 2.633.322.816-.638.93-1.793.322-2.632l-3.877-5.353 11.768 1.44 6.934 8.4a1.875 1.875 0 1 0 2.955-2.31z" fill="#552003"/><path d="M106.852 98.97l-4.624-5.444 15.312 1.875a1.875 1.875 0 0 0 2.09-1.633l-82.084-10.05a1.869 1.869 0 0 0 .384 1.384c.295.378.735.643 1.25.706l40.75 4.989 6.187 8.307c.638.816 1.817.96 2.633.322.816-.638.93-1.793.322-2.632l-3.877-5.353 11.768 1.44 6.934 8.4a1.875 1.875 0 1 0 2.955-2.31z" fill="#831e00"/></g></g></svg>
