<svg xmlns="http://www.w3.org/2000/svg" width="128" height="128"><g fill="#fff"><path d="M26.442 116.272l-.017-.03c2.337.926 4.866 1.47 7.532 1.47 10.564 0 19.263-7.94 20.485-18.177a23.646 23.646 0 0 1-8.485 1.59c-3.507 0-6.83-.78-9.83-2.149l-.58 4.619H21.076l3.06 8.838-6.218-10.333 14.332-1.993-.044-3.384c-6.084-4.32-10.074-11.407-10.074-19.42 0-.902.062-1.791.16-2.668-8.717 3.388-14.307 12.4-12.965 22.067 1.146 8.224 9.66 17.298 17.115 19.57z"/><path d="M77.648 10.288l-28.15 35.247-5.996-24.5-8.05 28.46-8.73-10.859V70.244c0 1.135.012 2.19.035 3.198.17 6.8 1.114 11 5.362 16.515a57.024 57.024 0 0 0 3.485 4.072c.31.33.652.637 1.027.927 2.175 1.681 5.491 2.636 10.135 2.952 1.148.078 2.35.13 3.667.13 1.332 0 2.713-.042 4.125-.115 1.217-.064 2.454-.153 3.706-.263 13.777-1.21 28.898-4.91 29.656-5.097l14.63-3.61-28.64-5.02 32.87-13.175-32.812-1.66L118.87 17.51 68.63 48.27zm-10.31 56.58l-2.332 2.47-2.437 2.584-3.33 3.53h19.569l-9.094 3.233-3.28 1.167-3.423 1.218-12.065 4.29-1.88.67 2.6.454 8.146 1.428 3.47.607 3.346.587 3.426.601c-1.36.227-2.77.44-4.184.648-1.468.214-2.94.402-4.424.576-1.774.21-3.53.381-5.257.508-.795.06-1.559.097-2.33.136-1.16.055-2.327.116-3.418.116-7.725 0-9.749-1.527-10.185-1.993a58.932 58.932 0 0 1-2.586-2.945c-4.366-5.364-4.588-8.532-4.588-16.502V56.678l.332.415 2.002 2.486 2.01 2.498 1.399 1.741.59-2.7.797-3.634.76-3.468 1.976-9.025 1.565 8.561.576 3.147.575 3.146.288 1.578 1.1-1.538 2.115-2.958 2.037-2.85L67.23 31.671 59.07 57.43l-1.003 3.17-1.017 3.212-.063.174.142-.097 2.691-1.851 2.677-1.84L94.245 38.36z"/></g></svg>