<svg xmlns="http://www.w3.org/2000/svg" width="128" height="128"><g fill="#fff"><path d="M30.206 59.706l-5.67 5.67L41.072 77.19l-8.978 8.977-2.834 4.725 1.417 2.363H14.613l-3.308 3.307 11.34 6.615s-1.417 1.418-.472 2.363c.945.945 2.362-.473 2.362-.473l6.615 11.34 3.308-3.308V97.035l2.362 1.417 4.725-2.835 8.978-8.978 11.813 16.538 5.67-5.67-1.89-20.79 3.78-9.45 3.307-2.363 3.78-3.78-2.303-2.303 17.081-16.939s8.848-11.943 10.265-16.195c-4.253 1.417-16.163 10.297-16.163 10.297l-17.011 17.01-2.265-2.264-3.78 3.78-2.362 3.307-9.45 3.78zM83.244 84.761l-3.154 3.155 9.2 6.573-4.994 4.994-1.577 2.63.788 1.314H74.57l-1.84 1.84 6.309 3.68s-.789.789-.263 1.315c.526.525 1.315-.263 1.315-.263l3.68 6.309 1.84-1.84v-8.938l1.315.788 2.628-1.577 4.995-4.995 6.573 9.201 3.154-3.154-1.051-11.568 2.103-5.258 1.84-1.314 2.103-2.103-1.281-1.281 9.503-9.425s4.923-6.644 5.711-9.01c-2.366.788-8.992 5.729-8.992 5.729l-9.465 9.464-1.26-1.26-2.103 2.103-1.314 1.84-5.258 2.103zM22.495 24.012l-3.155 3.155 9.202 6.572-4.995 4.995-1.578 2.629.789 1.315H13.82l-1.84 1.84 6.309 3.68s-.789.789-.263 1.315c.526.525 1.314-.263 1.314-.263l3.68 6.309 1.841-1.84V44.78l1.315.788 2.628-1.577 4.995-4.995 6.573 9.201 3.154-3.154-1.052-11.568 2.103-5.258 1.84-1.314 2.104-2.103-1.281-1.281 9.503-9.425s4.923-6.645 5.711-9.01c-2.366.788-8.993 5.728-8.993 5.728l-9.464 9.465-1.26-1.26-2.103 2.103-1.314 1.84-5.258 2.103z"/></g></svg>