<svg xmlns="http://www.w3.org/2000/svg" width="128" height="128"><g transform="rotate(-39.799 98.333 61.026) scale(.72301)"><path d="M96.412 50.67l-.013-4.041-38.108.113.003 1.058-5.293.016.015 5.046" fill="#fff" stroke="#323232" stroke-width="2.836"/><path d="M69.456 71.549l14.644-2.88-.016-5.199-6.153.614c-1.43-1.219-4.014-1.056-5.66.496l-2.834.352z" fill="#fff" stroke="#323232" stroke-width="2.127"/><path d="M91.12 51.2s-.26 1.589-1.054 1.59l-20.112.06c-.794.003-1.064-1.584-1.064-1.584l-3.175.01c.003 1.058-1.054 1.59-1.054 1.59l-3.705.011s-1.06-.396-1.062-1.055l-5.557.016-3.434 2.127-51.87.154.064 21.436 5.822-.018c2.655 2.904 4.234-.012 4.234-.012l-.008-2.911c-.004-1.323 1.049-3.179 3.166-3.185l8.998-.027c3.179 1.152 4.762 5.082 8.507 6.433.506.182 2.699-.737 2.699-.737s.197 1.481.435 1.511c1.336.169 1.895-.018 3.662.158 7.141 3.709 12.246 1.551 12.246 1.551 2.93-3.967.74-9.376 4.718-15.381 0 0 .255-.624.728-.626l8.508-.025c2.363.059 3.669 2.064 3.673 3.364l5.246-.832c2.894-3.512 6.355-.561 6.355-.561l9.894-.874 14.542-4.542 38.373-.114-.017-5.557c-.003-1.058-.8-2.115-2.123-2.11zm-49.342 9.56c1.418-.02 3.593 1.957 3.598 3.543.008 2.646-2.865 5.842-5.582 5.968-1.155.15-2.364-.111-2.364-.111-1.064-.115-2.48.491-2.48.491s-.173-2.002-.479-2.137c0 0-1.263-1.949-1.266-3.465-.005-1.869 2.189-4.27 3.607-4.275z" fill="#fff" stroke="#323232" stroke-width="2.986"/><path d="M.565 62.945l2.222-.009c1.418-.004 1.888-.95 1.884-2.368l-.003-.946c-.004-1.418-.48-2.362-1.897-2.357l-2.223.008" fill="none" stroke="#7e7e7e" stroke-width="2.363"/><circle transform="rotate(37.649)" cx="81.935" cy="9.587" r="2.828" fill="#323232"/><path d="M63.07 52.077l.004 1.323-3.693 3.848" fill="none" stroke="#323232" stroke-width="1.588"/><path d="M62.772 70.978l-6.508.019c-1.957-.353-3.73-2.499-3.73-2.499s-.474-4 1.407-4.768c0 0-.531 2.334-.087 3.705 0 0 1.22 1.86 2.638 2.162l5.986.04c2.128.036 2.943-4.103 2.943-4.103l1.437.351s-.358 5.082-4.086 5.093zm-5.489-7.258c-.993 3.948 1.603 5.154 2.133 5.287.814.114 1.058-.268 1.058-.268s-3.712-2.106-1.603-5.023zM1.668 50.141l25.14-.074c.795-.002 1.857 1.053 1.857 1.053l.006 2.234-31.125.077s.75-2.265 4.122-3.29zM64.862 44.426l1.143-.004.005 1.719-1.144.003zm1.972-.006l1.143-.004.005 1.718-1.143.003zm2.036-.007l1.142-.003.005 1.718-1.142.004zm2.013-.005l1.143-.004.005 1.719-1.143.002zm1.96-.006l1.143-.004.005 1.719-1.143.003zm2.082-.007l1.144-.003.005 1.718-1.143.003zm2.083-.006l1.144-.003.005 1.718-1.144.003zm1.979-.006l1.143-.003.005 1.718-1.143.004zm2.011-.006l1.144-.003.005 1.718-1.144.003zm1.997-.005l1.143-.003.005 1.717-1.144.003zm2.012-.006l1.143-.003.005 1.718-1.144.003zm2.013-.006l1.143-.004.005 1.719-1.143.003zm2.013-.006l1.143-.003.005 1.718-1.144.003zm2.066-.006l1.143-.004.005 1.719-1.143.003zm-28.18.084l1.144-.004.005 1.719-1.144.003z" fill="#323232"/><circle transform="rotate(-.17)" cx="132.007" cy="60.747" r="1.067" fill="none" stroke="#323232" stroke-width=".945" stroke-linecap="round"/><path d="M96.397 45.939L208 45.597c.533 1.224.542 4.29.016 5.518l-111.603.342z" fill="#323232"/><path d="M78.43 69.33l-.014-4.727" fill="none" stroke="#323232" stroke-width="2.127"/><path d="M35.892 69.455l-4.234 6.63" fill="none" stroke="#323232" stroke-width="2.363"/><rect transform="rotate(-.17)" width="3.171" height="1.96" x="134.824" y="54.552" ry=".784" rx=".784" fill="none" stroke="#7e7e7e" stroke-width="1.654" stroke-linecap="round"/><path d="M41.994 55.087l.018 6.145M36.322 55.104l.018 6.144" fill="none" stroke="#323232" stroke-width="2.363"/><rect width="39.584" height="1.997" x="98.643" y="53.763" rx=".91" ry="1.124" transform="rotate(-.19) skewX(-.119)" fill="#7e7e7e"/><rect transform="rotate(-.17)" width="14.787" height="2.526" x="70.662" y="48.594" rx=".473" ry=".473" fill="#323232"/><path d="M67.55 66.355l.007 2.363" fill="none" stroke="#323232" stroke-width="1.182" stroke-linecap="round"/><path d="M-2.033 51.476l.073 24.546s-.144 1.559-.881 1.561l-4.407.013c-1.323.004-5.067 1.962-5.067 1.962.812-9 .048-26.2.048-26.2s.546-1.697 1.315-2.65c0 0 .899.63 3.627.783z" fill="#323232"/></g></svg>