<svg xmlns="http://www.w3.org/2000/svg" width="128" height="128"><path d="M91.996 5.608c-2.431.014-4.122.757-5.156 2.54-4.353 7.502-9.553 15.323-12.069 24.172.705.206 1.4.444 2.082.71 1.827.71 3.574 1.61 5.106 2.698 6.844-6.349 14.458-11.238 21.737-16.272 2.823-1.952 3.05-3.376 2.531-5.177-.52-1.801-2.453-4.068-5.102-5.761-2.649-1.693-5.933-2.816-8.633-2.903a13.424 13.424 0 0 0-.496-.007zm-17.15.185c-2.491-.045-4.423 1.59-5.947 5.031-2.223 5.02-2.539 13.283-.36 20.677l.116-.007a15.8 15.8 0 0 1 1.492.007c2.345-8.655 6.951-16.087 10.94-22.75-2.563-2.113-4.692-2.93-6.241-2.958zM50.662 20.262l-2.61 3.845c3.684 2.496 7.223 4.903 9.897 7.799a20.739 20.739 0 0 1 2.562 3.382 9.478 9.478 0 0 1 3.403-2.682c.101-.047.204-.089.306-.132a25.51 25.51 0 0 0-2.862-3.722c-3.173-3.437-7.02-6-10.696-8.49zm55.623 3.05c-7.272 5.028-14.56 9.732-20.967 15.605.11.143.211.29.313.438 5.14-1.678 12.3-3.812 18.373-4.825 2.855-.476 3.893-1.629 4.369-3.288.475-1.66.11-4.154-1.322-6.707-.23-.41-.487-.818-.766-1.223zM50.622 35.211c-3.717.05-7.39 1.069-10.927 3.173l2.377 3.985c5.384-3.204 10.596-3.513 16.215-1.134.13-1.39.439-2.65.927-3.781.087-.2.181-.394.279-.585-2.95-1.124-5.924-1.697-8.871-1.658zm18.841.978c-1.386-.02-2.634.184-3.586.628-1.088.506-1.856 1.221-2.398 2.478-.22.509-.391 1.128-.494 1.863.114-.002.227-.008.34-.008 3.99-.021 8.1.688 12.257 2.284 1.918.736 3.744 1.852 5.48 3.277.8-.608 1.24-1.173 1.436-1.624.3-.696.272-1.289-.158-2.193-.86-1.808-3.78-4.214-7.173-5.535-1.696-.661-3.475-1.05-5.101-1.147-.203-.013-.405-.02-.603-.023zm-6.154 9.56c-5.712.018-11.116 1.835-16.157 4.916-8.065 4.93-15.054 13.205-19.97 22.38-4.917 9.174-7.74 19.241-7.753 27.474-.013 8.217 2.55 14.235 8.156 16.848l.032.016h.007c6.183 2.86 16.31 4.806 26.947 4.994 10.636.188 21.822-1.356 30.294-5.018 5.459-2.359 8.587-7.072 10.067-13.461 1.48-6.39 1.123-14.332-.59-22.2-1.714-7.87-4.773-15.676-8.475-21.844-3.702-6.168-8.107-10.605-11.947-12.079-3.645-1.398-7.183-2.038-10.61-2.027z" fill="#fdfdfd"/></svg>