<svg xmlns="http://www.w3.org/2000/svg" width="128" height="128"><path d="M103.305 18.494l3.403-3.403-2.253-2.252-3.403 3.403 2.253 2.252zM84.95 10.77l1.326-1.327c1.319-1.319 2.25-.112 3.57 1.206l.445.446-2.508 2.508-2.832-2.831zM28.245 66.08l2.967-1.238 1.709 2.78-5.085 5.086c-1.544-1.678-1.758-3.546.22-5.524zm81.788 7.418l-.762 7.125a151.252 151.252 0 0 1-35.276-8.154l5.627-5.627a144.083 144.083 0 0 0 30.41 6.656zm-76.28 44.855c-3.029-3.482-14.081-15.631-14.081-15.631-1.686-1.686-2.692-3.417-1.051-5.057 1.165-1.166 5.554-2.333 5.554-2.333l6.14 5.553s-2.927.825-2.26 2.24c2.353 4.344 5.028 9.562 8.095 13.631 1.16 1.542-.76 3.474-2.391 1.599zm59.28-104.528l7.631 7.632C92.46 31.731 83.141 44.306 74.27 55.387l-11.4-11.4 30.162-30.162zM76.817 64.25L59.712 47.144 24.88 81.977a2.258 2.258 0 0 0-.555 2.276l2.243 7.137 7.306 7.198s1.09-1.342 7.4-7.653l.304-.304c2.437-2.437 7.421-3.368 8.884-.3.616 1.29 3.857 16.692 3.857 16.692a1.687 1.687 0 0 0 2.14 1.232l9.418-2.892a1.45 1.45 0 0 0 .67-.316c.706-.705-1.398-2.044-2.052-3.649-.655-1.605-2.07-5.67-3.443-9.677a1.341 1.341 0 0 1 .741-1.664c1.586-.674 7.83-5.897 8.283-6.35l.01-.01c1.298-1.36-.846-7.435-1.69-9.257a1.901 1.901 0 0 1 .383-2.145c1.267-1.101 8.04-8.045 8.04-8.045zm-19.501 22.8a588.696 588.696 0 0 1-1.197-3.563 2.57 2.57 0 0 1 .621-2.636l5.995-5.994a1.138 1.138 0 0 1 1.837.327c.783 1.694 2.376 6.347 1.599 7.16l-.055.055c-.947.946-5.69 4.803-7.097 5.412-.975.088-1.278-.296-1.703-.76zm4.17-29.215a2.23 2.23 0 0 1 0 3.154L38.024 84.452a2.23 2.23 0 0 1-3.154-3.155l23.462-23.462c1.061-1.074 2.402-.721 3.155 0z" fill="#fff" stroke="#323232" stroke-width="2.83"/></svg>