<svg xmlns="http://www.w3.org/2000/svg" width="128" height="128"><g fill="#fff" stroke="#323232" stroke-width="3"><path d="M67.293 59.744c1.458 3.177 2.16 3.342 4.17 4.938-3.824.906-4.99.494-6.989-3.341zM32.665 90.683c.738 18.423 3.277 19.693 8.452 27.367 3.79 1.341 7.863.778 11.678-.86 3.544-1.523 4.566-3.31 6.851-5.706-5.138-8.78-9.402-14.411-8.324-26.664-8.514-1.576-11.235-.112-18.657 5.863zm41.621-65.908l5.142 8.955 26.118-15.08-5.227-8.905C86.076 17.97 86.85 17.52 74.286 24.775zm-3.713 2.071l-3.898 2.252-18.233 10.528 11.893 20.148 21.88-12.633-2.83-4.93-15.462 8.927c-.828.478-2.043-.077-2.521-.905-.478-.828-.328-2.119.5-2.597l15.466-8.93-2.199-3.808-15.532 8.968c-.828.478-2.02-.038-2.499-.866-.478-.828-.306-2.08.522-2.558l15.56-8.984zM30.401 75.81c1.43 3.265 2.152 5.427 2.14 9.887 7.866-6.618 15.059-6.902 20.494-5.107l8.375-4.934c5.246 1.193 11.278.004 15.07-3.073 3.79-3.077 8.452-9.985 9.378-14.223.68-3.115-.155-5.675-1.919-8.37l-4.894 2.826 2.802 4.889c-1.866 3.54-5.856 10.384-9.22 12.494-2.535 1.478-11.336.202-11.336.202s-10.81-18.656-16.56-28.676l-7.664 4.631c10.302 16.115 1.836 24.65-6.666 29.454zM19.51 54.877c4.332.277 17.18.073 17.18.073s2.63 6.19-.745 9.023c-3.68-4.854-8.891-6.777-16.435-9.096zm61.951-17.6c1.677 2.918 3.345 5.841 5.002 8.77.296-3.921 1.104-6.129 5.546-9.55l14.87-8.585-2.3-3.983-23.118 13.347z"/><circle r="2.708" cy="102.169" cx="44.61"/><circle cx="49.763" cy="70.305" r="2.708"/></g></svg>