<svg xmlns="http://www.w3.org/2000/svg" width="128" height="128"><path d="M47.244 7.287l-3.176 6.351c1.638-.063 3.282-.118 4.93-.165l.926-1.85h28.153l.908 1.816c1.647.045 3.29.098 4.927.159l-3.156-6.311H47.244zM64 17.583a526.479 526.479 0 0 0-32.61 1.05c-.781 12.185-2.024 24.327-.19 35.127 21.51 2.986 43.383 3.128 65.703-.013 1.7-7.464 1.233-20.398-.25-35.142C86.06 17.908 75.039 17.569 64 17.583zm37.043 1.334c1.546 15.446 2.195 28.864-.273 37.39l-.388 1.34-1.38.202c-23.799 3.5-47.119 3.327-70 0l-1.515-.22-.3-1.5c-2.382-11.922-.984-24.76-.16-37.197a462.92 462.92 0 0 0-3.517.266c-2.07 14.108-2.262 28.173-.012 42.225 26.555 2.912 53.542 2.94 80.985-.002 2.048-13.93 1.997-28.003-.004-42.23a410.614 410.614 0 0 0-3.436-.275zm-37.051 5.65a136.56 136.56 0 0 1 23.504 2.022l1.796.312v1.824c0 3.746.406 8.456-3.056 12.104-2.388 2.516-6.18 4.176-12.36 4.959v4.375H54.124v-4.445c-5.78-.812-9.48-2.45-11.89-4.862-3.573-3.571-3.526-8.276-3.526-12.13v-1.83l1.802-.308a139.93 139.93 0 0 1 23.481-2.02zm.003 4.335c-6.976.006-13.95.59-20.923 1.686.064 2.958.394 5.37 2.227 7.203 1.424 1.424 4.083 2.75 8.825 3.512v-7.038h19.752v7.108c5.147-.75 7.867-2.109 9.215-3.529 1.694-1.785 1.854-4.216 1.862-7.256-6.986-1.115-13.973-1.69-20.959-1.686zm-5.535 9.7v7.226h11.08v-7.226zm50.506 22.262c-.121.873-.25 1.746-.388 2.618.052.567.102 1.134.152 1.7l7.06 7.06v-5.358l-6.824-6.02zm-89.965.029l-6.79 5.991v5.357l7.062-7.062.148-1.682a130.66 130.66 0 0 1-.42-2.604zm85.424 4.913c-2.478.263-4.953.5-7.425.715v17.848h3.855v15.898H97v19.419c2.486-.153 4.97-.317 7.45-.502 2.276-17.828 1.56-35.578-.025-53.378zm-80.833.007c-1.572 17.961-2.33 35.789-.046 53.373 2.487.19 4.972.362 7.453.517v-19.436h-3.854V84.37H31V66.54a370.267 370.267 0 0 1-7.407-.726zm69.073 1.06a384.88 384.88 0 0 1-7.227.48v17.016h7.227zm-57.33.02V84.37h7.226V67.375a375.118 375.118 0 0 1-7.226-.481zm45.767.681a378.06 378.06 0 0 1-34.205.019v4.652a80.507 80.507 0 0 1 17.227-1.828c5.694.014 11.356.64 16.978 1.837v-4.68zm-62.376 4.284l-6.515 6.516v13.703h5.554c.09-6.741.453-13.483.961-20.22zm90.56.011c.51 6.714.869 13.448.952 20.208h5.551V78.373l-6.504-6.504zm-45.17 2.879c-5.705-.016-11.44.62-17.219 1.94v7.68h3.855v4.443c4.102 1.288 7.643 2.046 11.08 2.27v-.69h4.336v.69c3.437-.224 6.978-.982 11.08-2.27V84.37h3.855v-7.676c-5.642-1.269-11.3-1.93-16.988-1.946zM31.48 88.704v7.227h5.3v-5.54h4.335v5.54h5.3v-7.227zm50.103 0v7.227h5.3v-5.54h4.336v5.54h5.299v-7.227zM50.752 93.34v6.928h-3.855v3.82c11.69 2.617 23.056 2.569 34.206.01v-3.83h-3.855V93.34c-3.934 1.144-7.535 1.812-11.08 2.006V98.1h-4.336v-2.754c-3.545-.194-7.146-.863-11.08-2.006zM12.21 96.413v3.372h5.574a224.908 224.908 0 0 1-.04-3.372zm98.041 0a225.17 225.17 0 0 1-.043 3.372h5.58v-3.372zm-74.917 3.854v4.77c1.478 1.737 2.703 2.353 3.597 2.37.9.018 2.095-.51 3.63-2.358v-4.782h-1.446v1.686H36.78v-1.686zm50.103 0v4.77c1.479 1.737 2.704 2.353 3.598 2.37.9.018 2.095-.51 3.629-2.358v-4.782H91.22v1.686h-4.336v-1.686zm-73.227 3.854v8.468c1.348 1.327 2.09 1.987 2.853 2.242.591.197 1.858.277 3.624.317-.372-3.673-.623-7.35-.772-11.027H12.21zm97.862 0a187.797 187.797 0 0 1-.773 11.028c1.772-.04 3.044-.12 3.636-.318.764-.255 1.505-.914 2.853-2.242v-8.468zm-63.176 4.404v11.923c11.454.364 22.855.348 34.206-.018v-11.89c-11.157 2.416-22.58 2.453-34.206-.014zm-11.562 2.198v9.23c2.411.13 4.82.242 7.227.339v-9.558c-1.171.671-2.412 1.034-3.717 1.008-1.25-.025-2.418-.391-3.51-1.02zm50.103 0v9.551c2.412-.097 4.82-.211 7.227-.34v-9.2c-1.17.671-2.411 1.034-3.717 1.008-1.25-.025-2.417-.391-3.51-1.02z" fill="#fff"/></svg>