<svg xmlns="http://www.w3.org/2000/svg" width="128" height="128"><path d="M105.644 8.895l1.982 3.433 2.06-1.19.91-2.736-2.892-.696z" fill="#323232" stroke="#323232" stroke-width="2.775"/><path d="M99.703 21.003l-77.56 44.778c-1.128-5.28 1.139-10.867 1.139-10.867s.679-3.77-.135-6.346c5.512 2.768 9.848 1.834 9.848 1.834l5.631-2.866 5.835-8.32c.984 1.899 5.161 1.625 5.161 1.625l6.497-3.914c.738-1.312-2.713-3.441-2.713-3.441l12.442-1.072s4.826-4.897 4.803-7.43l6.46.419 4.755-8.475c5.322 1.356 12.127-2.84 12.127-2.84l7.554-4.36 3.438 5.955c-2.236 1.855-3.712 3.024-5.282 5.32z" fill="#fff" stroke="#323232" stroke-width="2.775"/><path d="M16.673 57.696a2.269 2.269 0 0 0-1.014 1.224c-.448 2.595 2.228 2.784 4.086 5.136-.216-1.86.203-5.38.724-7.518-1.38.525-2.814.574-3.797 1.158zm.528.81a1.238 1.238 0 1 1 1.236 2.145 1.238 1.238 0 0 1-1.236-2.145zM95.974 8.433l-1.082.624.593 1.861 6.249-3.608c-2.998-2.02-7.278-2.474-7.278-2.474.972 1.346 3.317 2.317 1.518 3.597z" fill="#323232"/><path d="M106.968 19.115c-2.26 1.677-3.461 3.518-3.461 3.518l2.116 3.665 3.955-2.283c-.139-.468-2.61-4.9-2.61-4.9zM22.63 69.64c.231 2.163.14 3.58-1.003 5.571l-1.885 2.98s10.718-1.56 13.166 2.907c3.655 12.108 1.752 30.551 9.414 38.502l24.714-14.268c-.618-1.223-2.673-2.17-4.235-6.899-4.01-12.14-8.942-22.41-4.797-25.417 1.91-1.229 3.074.62 6.328-.907l10.985-6.34s3.722-3.067 3.8-7.689l-2.378-4.119c-2.613-5.513 3.582-11.222 6.335-12.812l14.12 2.722-5.332-6.619 13.158-.53-7.097-4.146 5.29-3.054c.004-.22-2.7-4.848-2.7-4.848zm35.76-12.408l6.254-3.61c3.126-1.806 7.026-.827 8.425 1.596 1.399 2.423.646 6.896-2.48 8.701l-6.253 3.61c-3.127 1.805-8 .581-9.4-1.842-1.398-2.423.328-6.65 3.454-8.455z" fill="#fff" stroke="#323232" stroke-width="2.775"/><path d="M59.964 57.954c.472 1.163 1.074 3.08 2.373 3.81 1.156.65 1.908 1.13 3.496 1.21-.898.544-4.678-.238-5.184-.429-.975-.358-3.207-2.28-4.22-2.55z" fill="#323232" stroke="#323232" stroke-width=".783"/><path d="M36.128 75.576l1.585 2.746 3.865 28.892 2.485 5.888 14.417-8.323-10.313-41.646-10.985 6.342z" fill="#fff" stroke="#323232" stroke-width="2.775"/><circle cx=".965" cy="84.709" r="1.585" transform="rotate(-30)" fill="none" stroke="#323232" stroke-width="2.378"/><circle r="1.585" cy="115.188" cx="-7.624" transform="rotate(-30)" fill="none" stroke="#323232" stroke-width="2.378"/><path d="M69.07 109.307l-18.46 9.69-1.257-2.176 18.297-10.564c.87 1.376 1.42 3.05 1.42 3.05z" fill="#323232" stroke="#323232" stroke-width="1.421"/><circle cx="-20.542" cy="126.812" r="2.075" transform="rotate(-30)" fill="none" stroke="#323232" stroke-width="2"/><g transform="rotate(1.892 189.972 875.938) scale(1.05488)" stroke="#323232"><circle cx="-3.678" cy="88.729" r="4.217" transform="rotate(-15)" fill="none" stroke-linejoin="round"/><g transform="rotate(-14.999 333.545 14.954) scale(.07277)" fill="#323232" stroke-width="2.748"><circle r="9.559" cy="49.863" cx="140.068"/><circle cx="177.627" cy="49.863" r="9.559"/></g><path d="M16.809 86.27s.25-.224.873-.224.873.224.873.224m1.406-.376s.104-.32.644-.631c.54-.312.868-.243.868-.243" fill="none" stroke-width=".75" stroke-linecap="round"/><path d="M21.047 82.576c.465-.135 1.074-.436 1.46-.866.334 1.249-.042 1.879-.042 1.879zm-5.1 1.367c-.47.115-1.148.16-1.697-.02.335 1.248.975 1.606.975 1.606z" fill="#323232"/><path d="M17.896 88.872c1.913.391 2.475.24 3.936-1.055-.542 1.35-1.385 1.577-1.666 1.652-.282.075-1.125.301-2.27-.597z" fill="#323232" stroke-width=".2"/></g></svg>