<svg xmlns="http://www.w3.org/2000/svg" width="128" height="128"><g transform="rotate(-36.001 -99.312 -192.544) scale(.97097)"><path d="M-133.794 112.835l-6.935.186-4.783 2.604.215.516s2.52 3.564 2.701 4.097c4.57.861 8.403-1.143 8-6.268.002-.808.802-1.135.802-1.135zm-3.175.444s-.195.813.224 1.64c.248 3.99-3.2 4.42-5.528 3.455-1.698-.914-1.317-2.344-1.324-2.662l-.233-.166-.774.29-.192-.447 4.835-1.703z" fill="#323232" fill-opacity=".99"/><path d="M-145.415 108.091s-13.68 4.808-15.353 4.927c-3.629-.113-3.366-1.516-5.17-2.414-.542-.094-19.557 1.584-27.884 2.81-.578.173-.784.33-.64.692 3.019 5.638 2.309 11.274 2.042 15.67-.06.332.262.2.262.2 12.434-3.595 48.28-16.321 48.28-16.321z" fill="#fff" stroke="#323232" stroke-width="2.752"/><path d="M-121.12 111.11c-12.228.562-19.525 1.676-22.762 2.568l-1.432-5.53c.36-.223 1.102-1.25 1.774-1.804 1.088-.899 1.86-1.882 3.394-1.904l17.258.036v-1.274l1.7.001zM-89.199 110.652l-31.899.487.012-6.859 31.896.131z" fill="#fff" stroke="#323232" stroke-width="2.752"/><path d="M-50.541 111.381c-.352.448-2.11.448-2.46 0v-9.008c.35-.447 2.108-.447 2.46 0z" fill="#323232"/><path d="M-119.06 105.233v-1.458h75.7v1.458zM-86.206 109.42v-1.69h41.79v1.69z" fill="none" stroke="#323232" stroke-width="1.749" stroke-opacity=".995"/><path fill="#323232" d="M-45.465 104.676h1.194v3.489h-1.194zM-92.451 112.525c-.352.414-2.11.414-2.46 0v-10.039c.35-.414 2.108-.414 2.46 0zM-144.91 115.983l-8.614 3.277c-1.854.985-.936 3.465-.936 3.465.096.275 1.027 2.047 2.696 1.554l7.44-2.71c.702-.703 1.16-1.17 1.877-1.353zm.708 2.457s.7 1.26-.726 1.837l-6.98 2.502c-1.025.383-1.416-.659-1.416-.659s-.525-1.208.697-1.77l6.634-2.411c1.223-.485 1.79.5 1.79.5zM-142.058 114.36l.564.643c.088 2.276 1.562 2.945 2.408 3.148.567-.399-1.49-.779-1.19-3.25l.421-1.244zM-141.736 103.88l-.892-.254s-1.197-.466-1.44-.64c-1.082-.77-2.038-.25-2.038-.25s1.426.688 2.227 1.82l-.014.183s-1.325.785-1.841 2.003l2.593-1.042z"/><rect transform="rotate(.104) skewX(.015)" width="6.091" height="1.741" x="-132.663" y="107.951" rx=".755" ry=".817" fill="#323232"/><path d="M-118.318 103.071c.346-.768.828-1.235.828-1.235h4.143s.58-.244 1.658-.206c.15.009.138.206.138.206l8.494 1.268z" fill="#323232"/><circle cx="-138.191" cy="108.128" r=".851" fill="#323232"/><circle r=".593" cy="109.991" cx="-138.221" fill="#323232"/><circle cx="-141.697" cy="110.423" r=".593" fill="#323232"/><path d="M-48.76 104.157v-.938l.091-1.469h3.067l1.224 1.087v1.316z" fill="#323232"/></g></svg>