<svg xmlns="http://www.w3.org/2000/svg" width="128" height="128"><path d="M117.131 55.172c.772-3.442.36-6.697-.038-9.844-.34-2.688-.66-5.226-.175-7.583 1.15-5.587-2.416-11.72-5.652-16.438-3.61-5.264-7.515-6.01-12.64-6.49a9.086 9.086 0 0 0-.84-.04c-3.439 0-6.311 1.925-7.854 2.958-.4.268-.815.546-.936.57-.192.038-.641.044-1.21.052-1.527.02-4.083.055-7.126.706-2.966.636-5.342 2.146-5.297 3.367.016.463.354 1.059 1.872 1.27 3.178.445 5.989 1.306 8.247 1.998.446.137.865.265 1.254.38 2.443.72 4.7 1.706 5.473 5.792.538 2.84-4.347 6.1-8.657 8.977-1.787 1.193-3.475 2.32-4.835 3.425-4.743 3.853-13.785 11.662-16.682 14.406C59.29 61.28 36.2 77.112 29.993 80.14c-6.343 3.094-12.525 7.945-14.074 11.042-.347.695-.421 1.134-.24 1.426.078.127.24.279.568.279.39 0 .925-.225 1.386-.443 0 .056.011.113.035.171.138.333.582.376.953.376 1.013 0 3.127-.417 5.704-1.121-.925.684-2.762 1.862-4.433 2.934-6.606 4.239-9.54 6.297-9.456 7.292.045.552.41 1.209 1.886 1.209.906 0 2.01-.233 2.897-.42.46-.097.86-.18 1.135-.213-.1.211-.358.573-.541.83-.592.834-1.205 1.695-.769 2.24.131.164.354.244.68.244.977 0 3.062-.725 5.079-1.425 1.44-.5 2.8-.973 3.622-1.137 1.255-.251 7.338-3.402 13.22-6.449 4.39-2.273 9.365-4.849 9.9-4.908 1.042 0 9.464-.614 14.776-2.132a13.683 13.683 0 0 1 3.76-.51c3.186 0 6.262.99 8.897 1.975a355.418 355.418 0 0 0-.107 8.505c.008 1.012 1.919 2.797 4.617 5.21 1.11.991 2.472 2.21 2.722 2.648-.452.28-1.145.29-2.005.3-1.501.018-3.558.042-5.69 1.669-1.243.947-2.064 2.302-2.25 2.961-.018.061-.07.246.045.398a.335.335 0 0 0 .269.133c.09 0 .18-.033.276-.102l.22-.156c.695-.499 2.324-1.667 3.2-2 1.182-.45 2.051-.633 3-.633 1.244 0 2.716.32 4.995.91 1.396.362 2.587.538 3.643.538 1.373 0 2.37-.29 3.425-.598 1.228-.358 2.497-.728 4.573-.728.385 0 .792.013 1.209.039 2.273.142 4.31 1.326 5.29 1.895.42.245.548.32.686.32l.21-.01.079-.175c.103-.229-.027-.374-.649-1.075-1.045-1.177-2.023-1.897-2.968-2.363a18.346 18.346 0 0 0 1.66-.426c1.228-.358 2.497-.728 4.572-.728.386 0 .792.013 1.209.04 2.274.142 4.31 1.326 5.29 1.894.422.246.55.32.687.32l.21-.009.079-.175c.103-.23-.027-.375-.649-1.076-2.213-2.492-4.128-2.95-6.058-3.233-.758-.11-1.332-.365-1.394-.618-.051-.208.23-.56.753-.94.928-.677 1.862-1.02 2.774-1.02 1.618 0 2.624 1.062 2.733 1.466.05.183.194.248.304.248.111 0 .258-.068.306-.258.09-.356-.018-1.914-1.334-2.618-.657-.353-1.674-.546-2.864-.546-2.81 0-5.869.988-8.389 2.678a8.65 8.65 0 0 0-1.7-.156c-.174 0-.348.005-.523.012-2.152-1.72-5.94-5.725-6.158-7.087-.144-.897-.227-3.735-.227-6.479v-.03c1.783-.887 3.594-1.932 5.693-3.168 10.511-6.181 18.964-25.648 20.39-32.004zM84.988 93.331a272.027 272.027 0 0 0-.028 4.05c.009 1.012 1.92 2.798 4.617 5.21 1.05.937 2.322 2.076 2.67 2.568-.236.1-.47.206-.702.318-.359.05-.778.056-1.25.062-.972.012-2.177.03-3.485.48-2.185-1.889-5.385-5.387-5.586-6.642-.109-.68-.149-2.475-.171-4.499.868-.298 2.16-.772 3.935-1.547z" fill="#fff"/></svg>