<svg xmlns="http://www.w3.org/2000/svg" width="128" height="128"><g transform="rotate(-45 63.9 63.937)"><path d="M21.95 74.91c-3.056 7.947.612 24.453 3.668 26.898l12.838-1.223c.058-4.806-1.24-20.04-3.057-26.898z" fill="#fff" stroke="#323232" stroke-width="2.5"/><path d="M41.252 46.178c-.157 0-1.016-.217-1.223.612l-2.445 8.558s-.466 1.254-1.834 1.834H5.796l-3.057-1.834H-7.653v18.34s.943 2.341 1.834 2.445h7.947c2.374-5.861 6.724-6.725 6.724-6.725h9.17l1.834 1.834H22.3v4.89h1.223v2.446h8.558v-2.445l1.223-.612 1.222.612h.612v-4.89l1.222-1.223h15.283l3.057-2.446h6.724v1.834l11.615-1.834h31.177c1.834 0 1.222-10.392 1.222-10.392H80.376l-4.58-7.72s-.31-.838-1.533-1.056zm4.89 2.218l26.898.228c1.528 0 2.445 1.512 2.445 1.512l2.751 3.99c.611 1.528-.306 3.667-1.528 3.667H46.142c-.611 0-1.834-.764-1.834-2.14v-5.501c0-.917.917-1.681 1.834-1.756z" fill="#fff" stroke="#323232" stroke-width="2.5"/><path d="M58.216 88.512l-5.96-.917-.612-.917-.917-.306 3.362-10.85s1.84-3.864-2.201-5.697l2.813-2.25h6.724v3.056l-3.057 15.283c.259 1.79 1.57 2.49-.152 2.598z" fill="#fff" stroke="#323232" stroke-width="2.292"/><path d="M-7.042 55.96h3.057v8.558H41.8l-.02-7.501L43.138 57v8.282s.002.181-.153.306l-2.342 1.375c-.306.251-.306.399-.306.611v2.446h-1.223v-2.446c0-.458-.305-.61-.611-.61H1.517c-.306 0-.612.305-.612.61v1.529c0 .611-.458.917-.917.917h-3.362c-.306 0-.611.305-.611.61v4.891h-3.057z" fill="#323232"/><path d="M41.82 48.72C41.787 47.43 44 46.447 44 46.447h1.247v12.568H43c-.611 0-1.223-.611-1.223-1.223z" fill="#323232"/><path d="M45.072 57.335l59.466-.153v1.834H45.072z" fill="#323232"/><rect ry=".611" rx=".611" y="59.015" x="24.746" height="4.279" width="12.226" fill="#323232"/><circle cx="-2.348" cy="67.304" r="1.283" fill="#fff"/><path d="M71.858 75.534l-6.351-.054s-2.136-.872-2.913-.85c-.578.08-1.486.667-1.486.667l1.053-6.078 1.394-.045s-.853.984-.972 1.973c0 0-.178 1.968.32 2.3l2.86 1.066 5.805.017c1.171.01 1.73-1.29 1.73-1.29l.449-3.161s-.492-1.266-1.57-1.618l4.05-.03c-.644.617-1.473 2.104-1.473 2.104l-.763 3.727c-.78.755-1.283 1.086-2.133 1.272zm-5.71-6.463c-.56 3.14 2 5.012 2.224 5.085.787.135 1-.24 1-.24-.145-.57-4.025-2.075-.471-5.39zM106.991 57.64c.249 2.404.083 6.546-.124 8.1h1.194c.611.765 1.14.44 1.375 0h.459v-.764h23.053l.459.612h11.768c.458-1.223.458-2.751 0-4.127h-11.768l-.459.612h-23.053v-.765h-1.681v-.61h.917v-.765h-.306l-.153.153h-.306v-1.223l.153-.153h.459l.153.153h.305v-.917h-1.375v-.305zm34.545 5.502h2.081c.355 0 .64.459.64.459s-.285.458-.64.458h-2.08c-.356 0-.641-.458-.641-.458s.285-.459.64-.459zM100.09 55.654l3.43-7.669.086-4.252h3.667v6.725l-1.528 3.515v1.68z" fill="#323232"/><path d="M86.24 67.001c-.002.03.135.03.135-.003v-6.63c.003-.034-.13-.033-.128.003zm-1.526 0c-.003.03.135.03.135-.003v-6.63c.002-.035-.131-.033-.128.003zm-1.522 0c-.003.03.134.03.134-.003v-6.63c.003-.034-.13-.033-.128.003zm-1.543 0c-.003.03.135.03.135-.003v-6.63c.003-.035-.131-.033-.128.002zm-1.533 0c-.003.03.135.03.135-.003v-6.63c.002-.034-.131-.032-.128.003zM93.955 67.001c-.003.03.135.03.135-.003v-6.63c.003-.034-.131-.033-.128.003zm-1.526 0c-.003.03.134.03.134-.003v-6.63c.003-.035-.13-.033-.127.003zm-1.522 0c-.004.03.134.03.134-.003v-6.63c.003-.034-.13-.033-.128.003zm-1.543 0c-.003.03.135.03.135-.003v-6.63c.003-.035-.132-.033-.128.002zm-1.534 0c-.002.03.136.03.136-.003v-6.63c.002-.034-.131-.032-.128.003zM101.582 67.001c-.003.03.135.03.135-.003v-6.63c.003-.034-.131-.033-.128.003zm-1.527 0c-.003.03.135.03.135-.003v-6.63c.003-.035-.13-.033-.127.003zm-1.522 0c-.003.03.135.03.135-.003v-6.63c.003-.034-.13-.033-.128.003zm-1.542 0c-.003.03.135.03.135-.003v-6.63c.003-.035-.132-.033-.128.002zm-1.534 0c-.002.03.136.03.136-.003v-6.63c.002-.034-.132-.032-.128.003z" fill="#fff" stroke="#323232" stroke-width=".742"/><circle r="1.107" cy="52.332" cx="104.056" fill="#7e7e7e"/><path d="M73.957 57.182s-2.22-1.552-.459-4.432h-3.515c-.85.601-1.222 1.682-1.222 1.682v2.75z" fill="#323232"/><circle cx="70.509" cy="55.794" r=".801" fill="#fff"/><path d="M76.708 75.063c0 .306.458.458.458.458h1.529c.527-.014 1.07-.458 1.07-.458.144-.254-.57-.536-.612-.764v-1.223c0-.305.459-.611.459-.611l46-.611v-3.668h-1.222c-.306 0-.611-.306-.611-.612V65.74c0-.305.305-.61.611-.61v-3.057c0-.306-.306-.612-.611-.612h-1.223V60.24h-1.528v1.222h-2.14v5.502l-.611.611h-1.223l-.61 1.834H76.707z" fill="#323232"/><path d="M52.941 81.514c-.023-.001-.016.105.009.103l4.109-.242c.027 0 .02-.102-.007-.098zm.505-1.19c-.023 0-.016.106.009.105l3.868-.237c.027 0 .02-.103-.007-.099zm.164-1.18c-.024 0-.018.105.007.104l3.983-.237c.027 0 .02-.102-.008-.098zm.12-1.194c-.023-.001-.017.105.008.104l4.16-.237c.026 0 .02-.103-.008-.099zm.205-1.15c-.022 0-.017.106.008.105l4.273-.237c.027 0 .02-.103-.008-.099zM52.048 86.209c-.023-.001-.016.105.009.103l3.868-.236c.027 0 .02-.103-.007-.099zm.163-1.18c-.023-.002-.017.104.008.103l3.983-.237c.027 0 .02-.102-.008-.098zm.121-1.195c-.023-.001-.017.105.008.104l4.16-.237c.026 0 .019-.103-.008-.099zm.205-1.15c-.022 0-.017.106.008.105l4.273-.237c.027 0 .02-.103-.008-.099z" fill="#fff" stroke="#323232" stroke-width=".572"/><path d="M27.907 101.497l-.814-3.606c-.235-1.172.992-1.33.992-1.33 2.538-.262-3.119.285 6.617-.696 0 0 .964.024.993 1.109l.169 3.445z" fill="none" stroke="#323232" stroke-width="1.223"/><circle r="1.171" cy="66.654" cx="45.288" fill="#fff" stroke="#323232" stroke-width="1.117"/></g></svg>