<svg xmlns="http://www.w3.org/2000/svg" width="128" height="128"><g transform="rotate(-45 24.681 5.2) scale(.21563)"><path d="M-65.966 273.904s-4 .637-4 2.362l-17.792 33.269-8.869.053-7.67-.867v58.257c5.353 9.594 27.901 6.603 38.467 16H4.923v23.49l1.972.004 14.218-7.494-1.601-37.356h67.471l.19 14.645L103.4 365.96v-6.983h9.619V308.47h-4.74l-6.11.99-20 .1-13.888-24.869c-.068-1.627-3.753-2.39-3.753-2.39zm8 6.701l120.136 2.373c7.766.767 11.79 11.659 13.995 20 0 0-3.48 6.533-9.52 6.341l-129.492.168s-4-.136-8-9.017c.38-4 4.806-12.388 12.88-19.865z" fill="#fff" stroke="#323232" stroke-width="11"/><path d="M-72.457 457.032l-25.384-5.887s-3.455-.877-2.805-4.126l37.044-51.72.435-6.509h22.58l-.068 17.67h-2.81l-3.705 4.518-22.66 37.134c1.316 9.1 6.128 8.371-2.627 8.92zM-278.043 302.708s-15.748-.774-15.787 0c8 36.27 4.216 61.465 4 86.914 0 0 .296 3.339 3.328 3.447h28.672c6.211 0 52.891-27.108 80-36.144h56.603v-48.273z" fill="#fff" stroke="#323232" stroke-width="11"/><path d="M-283.932 303.453s-2.114 29.691-2.596 45.975c-.466 15.91 1.064 41.17 1.064 41.17" fill="none" stroke="#323232" stroke-width="7.899"/><path d="M73.138 375.382l-38.968.21 1.147 25.733c6.509 66.711 27.905 139.259 27.905 139.259l38.652-10.254c3.899-.758-2.733-5.725-2.733-5.725-3.112-9.904-22.373-68.407-25.627-138.645z" fill="#fff" stroke="#323232" stroke-width="11"/><path d="M-89.83 307.496l208-.681v8.163h-208z" fill="#323232"/><path d="M-85.695 298.64l18.102-.682-.136 12.502H-85.83z" fill="#323232"/><path d="M129.534 308.741v52.203l128.848-5.173h10.025v-47.323z" fill="#fff" stroke="#323232" stroke-width="11"/><path d="M278.521 269.4s-1.096.832-1.197 1.578v13.356l4 3.593s-3.288 4.252-4 10.252v63.772l17.9.191-.017-31.164h13.675c4.407-1.22 6.441-17.085 0-21.763l-13.686-.203-.007-14.034-1.865-7.154 1.055-2.723.095-10.123s-.325-2.983-3.037-4h-7.14s-3.369-2.019-5.776-1.578zm4.258 27.526h6.103v3.931h-6.103zm.144 6.052h5.96v3.008h-5.96z" fill="#323232"/><path d="M299.224 339.084h136.723c1.066 0 1.925.412 1.927 1.574.779 3.342.828 10.205 0 12.592 0 1.162-.859 1.573-1.927 1.573H299.224l-.961-1.575-.001-12.59.961-1.575z" fill="#323232"/><path d="M.16 410.748l-36.678-.01.128-9.152c1.66 6.068 6.864 8.144 6.864 8.144l23.448-.067c2.136-.78 6.285-6.317 6.285-6.317zm-26.862-21.184c-3.39 8.983 1.394 12.861 2.188 13.631-1.46-5.174-1.552-8.403 1.19-13.63z" fill="#323232" stroke="#323232" stroke-width="2.449"/><path d="M-36.106 387.277l37.559.01-.128 9.152c-1.661-6.068-6.864-8.143-6.864-8.143l-24.33.066c-3.627.848-6.284 6.317-6.284 6.317z" fill="#323232" stroke="#323232" stroke-width="2.449"/><rect width="75.842" height="27.317" x="-3.213" y="326.081" rx="3.79" ry="3.901" fill="#7e7e7e"/><circle cx="-66.023" cy="279.89" r="6.971" fill="#7e7e7e"/><circle r="4.526" cy="370.611" cx="6.983" fill="#323232"/><path d="M-102.808 356.778l123.17-.681v8.163h-123.17z" fill="#323232"/><rect width="114.085" height=".373" x="141.863" y="319.115" rx="2" ry="2" fill="#fff" fill-opacity=".354" stroke="#323232" stroke-width="5.929" stroke-linecap="round"/><rect ry="2" rx="2" y="345.525" x="159.595" height=".433" width="96.112" fill="#fff" fill-opacity=".354" stroke="#323232" stroke-width="5.869" stroke-linecap="round"/><rect ry="4" rx="4" y="331.999" x="142.747" height=".638" width="112.316" fill="#fff" fill-opacity=".354" stroke="#323232" stroke-width="7.698" stroke-linecap="round"/><circle cx="146.78" cy="332.334" r="8.339" fill="#323232"/><path d="M-286.808 352.08l123.17-.681v8.163h-123.17z" fill="#323232"/><circle cx="55.956" cy="405.21" r="3.28" fill="#323232"/><circle r="3.28" cy="450.465" cx="61.516" fill="#323232"/><circle cx="70.913" cy="494.761" r="3.28" fill="#323232"/></g></svg>