<svg xmlns="http://www.w3.org/2000/svg" width="128" height="128"><g transform="translate(.21 -4.237)"><path d="M58.7 87.351l6.464 6.452 4.947-7.532-6.319-6.287zm-12.422 21.54s4.202-1.343 6.715-3.738c-2.343-3.756-3.63-11.205-3.63-11.205l.69-1.93s-1.478-.543-1.875-.965c-.596-.631-1.255-2.518-1.255-2.518l5.91-5.874s1.396.673 1.938 1.208c.472.467 1.106 1.511 1.106 1.511l5.739-8.157-3.2-3.227s.485-.932.52-1.44c.048-.682-.419-2.007-.419-2.007s.769-.822 1.26-1.07c.42-.213 1.375-.325 1.375-.325l33.732-33.788-5.577-5.523-56.869 56.933.884 1.4-1.133 1.128 4.817 4.884c2.855 1.008 3.704-1.876 5.457-.321 1.432 4.218 1.535 12.14 3.815 15.024zM29.681 91.938L8.973 112.617s-.7.982.054 2.395l12.372 12.306s1.25.724 2.334-.077l3.078-3.103 7.414-27.657zm-2.218 10.79l1.25 1.275-4.397 16.416s-.853 1.65-1.885 1.15l-6.102-6.259c-.4-.999.17-1.568.17-1.568z" fill="#fff" stroke="#323232" stroke-width="2.5"/><path d="M55.756 86.964l-4.584 4.6s-.054-.079-.081-.109c-.038-.042-.131-.116-.131-.116l4.736-4.735zm-7.015.775s.986 2.06 2.542 1.637c-.102-.083-.977.095-1.776-.944-.239-.31-.183-1.277-.183-1.277z" fill="#323232" fill-opacity=".314" stroke="#323232" stroke-width=".546"/><path d="M37.68 89.543l4.421-4.421c.058-.115.977-1.837.517-2.297-.46-.516-2.354.345-2.411.402l-4.421 4.364.344.402-.803.803s-.632.058-.575.23c.345.689.862 1.206 1.493 1.493.172.115.287-.574.287-.574l.804-.747z" fill="#323232"/><path d="M46.92 79.972l8.389-8.266-1.286-1.286s-.245-.306-.429-.306c-.183 0-.367.245-.367.245l-7.531 7.531s-.245.245-.245.429.183.367.183.367z" fill="#fff" stroke="#323232" stroke-width="1.8"/><circle transform="rotate(-90)" r=".563" cy="63.259" cx="-61.162" fill="#323232" stroke="#323232" stroke-linejoin="round"/><circle transform="rotate(-90)" r=".563" cy="67.877" cx="-56.544" fill="#323232" stroke="#323232" stroke-linejoin="round"/><circle transform="rotate(-90)" r=".563" cy="72.482" cx="-51.939" fill="#323232" stroke="#323232" stroke-linejoin="round"/><circle transform="rotate(-90)" r=".563" cy="77.079" cx="-47.342" fill="#323232" stroke="#323232" stroke-linejoin="round"/><circle transform="rotate(-90)" r=".563" cy="81.748" cx="-42.673" fill="#323232" stroke="#323232" stroke-linejoin="round"/><circle transform="rotate(-90)" r=".563" cy="86.401" cx="-38.021" fill="#323232" stroke="#323232" stroke-linejoin="round"/><path d="M92.822 28.948l19.92-19.921 2.073 2.072-19.921 19.92zm-2.245-2.485l.311-3.356 4.862-4.928c.612-.283 1.132.2 1.132.2l1.366 1.432-7.16 7.16zm-1.561 19.006l6.876-6.876 2.402.895 11.774-13.47-.8-1.365 5.98-6.452s2.492-1.073 3.391-.377c.79.612.424 2.967.424 2.967l-18.744 21.475-3.485 4.804z" fill="#fff" stroke="#323232" stroke-width="2"/></g></svg>