<svg xmlns="http://www.w3.org/2000/svg" width="128" height="128"><g transform="scale(.2945) rotate(-45 280.75 -499.166)"><path d="M8.95-54.096l.017 7.818-118.713.087.017 1-36.573.07.053-10.143 36.443.02v.988z" fill="#323232"/><path d="M-526.2-45.518s-4.882 1.378-4.657 4.077c2.25 11.846 3.749 22.385 2.09 36.29-.197 1.658 2.015 1.105 2.015 1.105l94.004-22.478h28.754v-18.441z" fill="#fff" stroke="#323232" stroke-width="7.742"/><path d="M-87.276-43.911h35.749v12.49h-14.605v2.08l-8.294 4.423h-8.295l-3.317-6.503h-1.238z" fill="#323232"/><path d="M-297.824-22.706h-28.755c1.89 42.025 37.384 91.203 62.312 110.571 0 0-.537 2.305 2.462 1.555l16.157-21.67c-31.534-24.864-49.948-66.126-52.176-90.456z" fill="#fff" stroke="#323232" stroke-width="8"/><path d="M-215.985-64.732h-119.441s-4.424 4.424-11.06 4.424c-6.635 0-11.059-4.424-11.059-4.424l-8.847 4.424-8.848 9.985-17.694 4.423v16.558c1.855-.424 26.542-4.424 26.542-4.424h132.712z" fill="#fff" stroke="#323232" stroke-width="7.742"/><path d="M-246.952-24.918h8.848l35.39-8.848h48.66v-30.966h-66.355v4.341h-13.271v13.354l-5.01 9.512-8.501.003zM-376.533 19.458l-13.563-1.516c-.9-.15-.575-1.405-.575-1.405l5.769-35.304c.262-6.704-4.23-9.87-8.032-8.916v-.953l23.224-4.441 2.212 11.702c-1.65.187-3.561 1.855-4.424 4.48l-5.646 34.586s2.52 1.82 1.035 1.767z" fill="#fff" stroke="#323232" stroke-width="7.742"/><path d="M-342.717-9.435h-18.146L-363.074-11l-4.424-21.66h2.792l3.774 18.715 2.177 1.876 14.481.043 2.212-2.151v-10.742l-2.849-2.212.038-4.424h12.765l-2.64 17.695-2.21 1.106-.68 4.424-1.496.445.017-4.322-1.03.26z" fill="#323232"/><path d="M-360.863-28.811h5.923c-.777 4.804 2.37 9.553 2.37 9.553.883 1.647.88 2.895 0 2.824-4.739-2.369-7.108-7.107-8.293-12.377zM-142.441-29.895h-3.87v-9.953h3.87zM-60.883-55.683h8.981v12.903l-7.8.033-.084-2.829-1.097-.053zM-50.096-61.414l2.212-4.424v-12.165h4.424v12.165l2.212 4.424v3.318h6.635v-1.106h8.848v1.106H.777v4.424h-42.025v6.635l-1.12.796-3.177.002c-2.253-2.147-3.445-7.434-3.445-7.434h-1.106z" fill="#323232"/><circle r="8.029" cy="-52.279" cx="-2.541" fill="#323232"/><circle cx="-17.205" cy="-52.279" r="8.029" fill="#323232"/><rect width="8.847" height="7.742" x="-34.613" y="-59.202" ry="0" fill="#323232"/><path d="M-87.023-38.876l.017 7.818-55.983.088v-8.065z" fill="#323232"/><circle r="2.787" cy="-58.671" cx="-45.672" fill="#323232"/><path d="M-520.045-39.435h20.388c1.79 0 3.232 1.285 3.232 2.907s-1.441 2.928-3.232 2.929h-20.388c-1.79 0-3.232-1.307-3.232-2.929 0-1.622 1.442-2.907 3.232-2.907z" fill="#323232"/><path d="M-197.091-32.313c-.017.094.526.093.526-.009v-11.859c.017-.11-.512-.106-.5.007zm-7.783 0c-.017.094.526.093.526-.009v-11.859c0-.11-.512-.106-.5.007zm-7.851-.001c-.017.095.524.093.524-.008V-44.18c.013-.11-.512-.106-.5.008zm-7.888 1.938c-.017.095.526.095.526-.007v-13.8c.017-.11-.514-.106-.5.007zm-7.8 2.17c-.018.093.527.093.527-.008V-44.18c0-.11-.514-.105-.501.008z" fill="#fff" stroke="#323232" stroke-width="2.609"/><path d="M-166.875-47.932c-.017.101.386.1.386-.01V-61.4c.017-.117-.375-.114-.366.01zm-5.696 0c-.017.101.385.1.385-.01V-61.4c.017-.118-.375-.114-.366.01zm-5.747-.001c-.017.102.384.1.384-.01v-13.456c.017-.118-.375-.114-.366.01zm-5.774 0c-.017.102.386.102.386-.008V-61.4c.017-.117-.377-.112-.366.01zm-5.71 0c-.016.1.387.1.387-.01v-13.456c.017-.118-.376-.112-.367.008z" fill="#fff" stroke="#323232" stroke-width="2.31"/><rect width="6.435" height="12.777" x="-199.949" y="-53.755" rx="3.318" ry="3.318" fill="#323232"/><circle cx="-196.632" cy="-50.549" r="2.018" fill="#7e7e7e"/><path fill="#323232" d="M-200.502-60.308h7.742v6.083h-7.742zM-284.553-30.448h15.483l-2.212 4.424h-11.06z"/><ellipse cx="-346.485" cy="-69.708" rx="6.636" ry="3.318" fill="#323232"/><path fill="#323232" d="M-347.591-74.685h2.212v3.318h-2.212zM-339.85-72.325l1.106 1.916-2.394 1.382-1.106-1.915zM-350.726-70.943l-1.106 1.916-2.395-1.382 1.106-1.916z"/><path d="M-316.072-63.417v9.192c0 2.212 2.212 2.212 2.212 2.212h59.72v2.211h17.695" fill="none" stroke="#323232" stroke-width="5.142"/><path d="M-165.535-32.313c-.017.094.526.093.526-.009v-11.859c0-.11-.512-.107-.5.007zm-7.851-.001c-.017.095.524.094.524-.008V-44.18c.017-.11-.512-.106-.5.008zm-7.888-1.985c-.017.095.526.095.526-.007v-9.877c.017-.11-.514-.106-.5.007zm-7.8 2.17c-.018.093.528.093.528-.008v-12.044c0-.11-.514-.105-.502.008z" fill="#fff" stroke="#323232" stroke-width="2.609"/><path d="M-161.151-47.954c-.017.1.402.1.402-.009v-13.416c.017-.118-.391-.112-.382.008z" fill="#fff" stroke="#323232" stroke-width="2.352"/><path d="M-236.26-28.207c-.017.094.528.094.528-.007v-15.967c0-.11-.514-.105-.502.008z" fill="#fff" stroke="#323232" stroke-width="2.609"/><circle r="4.236" cy="-35.69" cx="-413.347" fill="#7e7e7e"/><path d="M-375.666-46.747l3.486 3.951h39.342v-12.99l-2.875-3.142h-32.167z" fill="none" stroke="#323232" stroke-width="5.142"/></g></svg>