<?xml version="1.0" encoding="UTF-8" standalone="no"?>
<svg
   xmlns:dc="http://purl.org/dc/elements/1.1/"
   xmlns:cc="http://creativecommons.org/ns#"
   xmlns:rdf="http://www.w3.org/1999/02/22-rdf-syntax-ns#"
   xmlns:svg="http://www.w3.org/2000/svg"
   xmlns="http://www.w3.org/2000/svg"
   xmlns:sodipodi="http://sodipodi.sourceforge.net/DTD/sodipodi-0.dtd"
   xmlns:inkscape="http://www.inkscape.org/namespaces/inkscape"
   width="176"
   height="176"
   version="1.1"
   id="svg31"
   sodipodi:docname="player-helmet-demo_faction.svg"
   inkscape:version="0.92.2 (5c3e80d, 2017-08-06)">
  <metadata
     id="metadata35">
    <rdf:RDF>
      <cc:Work
         rdf:about="">
        <dc:format>image/svg+xml</dc:format>
        <dc:type
           rdf:resource="http://purl.org/dc/dcmitype/StillImage" />
        <dc:title />
      </cc:Work>
    </rdf:RDF>
  </metadata>
  <sodipodi:namedview
     pagecolor="#ffffff"
     bordercolor="#666666"
     borderopacity="1"
     objecttolerance="10"
     gridtolerance="10"
     guidetolerance="10"
     inkscape:pageopacity="0"
     inkscape:pageshadow="2"
     inkscape:window-width="1920"
     inkscape:window-height="1017"
     id="namedview33"
     showgrid="true"
     inkscape:zoom="1.3409091"
     inkscape:cx="-154.56844"
     inkscape:cy="139.07788"
     inkscape:window-x="1912"
     inkscape:window-y="-8"
     inkscape:window-maximized="1"
     inkscape:current-layer="svg31">
    <inkscape:grid
       type="xygrid"
       id="grid4685"
       empspacing="4"
       spacingy="1"
       spacingx="1" />
  </sodipodi:namedview>
  <defs
     id="defs25">
    <clipPath
       id="e">
      <path
         d="M188 128c0 80-69.756 119.362-69.756 119.362C64 244 8.638 193.922 8.638 128S64 12 118.244 8.638C118.244 8.638 188 48 188 128z"
         fill="#252525"
         fill-opacity=".601"
         stroke-width="12.537"
         id="path2" />
    </clipPath>
  </defs>
  <path
     d="m 188,128 c 0,80 -69.756,119.362 -69.756,119.362 C 64,244 8.638,193.922 8.638,128 8.638,62.078 64,12 118.244,8.638 118.244,8.638 188,48 188,128 Z"
     clip-path="url(#e)"
     transform="matrix(0.52122,0,0,0.52122,24.170001,21.284)"
     id="path27"
     inkscape:connector-curvature="0"
     style="fill:#2d2d2d;stroke:#090909;stroke-width:37.25899887" />
  <path
     style="fill:#fff00f;fill-opacity:1;stroke:#090909;stroke-width:6;stroke-linecap:butt;stroke-linejoin:miter;stroke-miterlimit:4;stroke-dasharray:none;stroke-opacity:1;paint-order:normal"
     d="m 51.57454,96 h 12.98479 4.795327 A 18.04554,18.04554 0 0 0 86.187966,107.55401 18.04554,18.04554 0 0 0 104.23438,89.507605 18.04554,18.04554 0 0 0 86.187966,71.461202 18.04554,18.04554 0 0 0 69.37368,83.015209 H 64.55933 V 65.702155 L 51.57454,78.686946 v 4.328263 z"
     id="rect4687"
     inkscape:connector-curvature="0"
     clip-path="none" />
</svg>
