<?xml version="1.0" encoding="UTF-8" standalone="no"?>
<svg
   xmlns:dc="http://purl.org/dc/elements/1.1/"
   xmlns:cc="http://creativecommons.org/ns#"
   xmlns:rdf="http://www.w3.org/1999/02/22-rdf-syntax-ns#"
   xmlns:svg="http://www.w3.org/2000/svg"
   xmlns="http://www.w3.org/2000/svg"
   xmlns:xlink="http://www.w3.org/1999/xlink"
   xmlns:sodipodi="http://sodipodi.sourceforge.net/DTD/sodipodi-0.dtd"
   xmlns:inkscape="http://www.inkscape.org/namespaces/inkscape"
   width="176"
   height="176"
   version="1.1"
   id="svg11"
   sodipodi:docname="player-helmet-moon.svg"
   inkscape:version="0.92.4 (unknown)">
  <metadata
     id="metadata15">
    <rdf:RDF>
      <cc:Work
         rdf:about="">
        <dc:format>image/svg+xml</dc:format>
        <dc:type
           rdf:resource="http://purl.org/dc/dcmitype/StillImage" />
        <dc:title></dc:title>
      </cc:Work>
    </rdf:RDF>
  </metadata>
  <sodipodi:namedview
     pagecolor="#ffffff"
     bordercolor="#666666"
     borderopacity="1"
     objecttolerance="10"
     gridtolerance="10"
     guidetolerance="10"
     inkscape:pageopacity="0"
     inkscape:pageshadow="2"
     inkscape:window-width="2560"
     inkscape:window-height="1413"
     id="namedview13"
     showgrid="true"
     inkscape:object-paths="true"
     inkscape:snap-intersection-paths="true"
     inkscape:snap-smooth-nodes="true"
     inkscape:snap-midpoints="true"
     fit-margin-top="0"
     fit-margin-right="0"
     fit-margin-bottom="0"
     fit-margin-left="0"
     inkscape:zoom="2"
     inkscape:cx="-41.195889"
     inkscape:cy="79.311522"
     inkscape:window-x="0"
     inkscape:window-y="27"
     inkscape:window-maximized="1"
     inkscape:current-layer="svg11">
    <inkscape:grid
       type="xygrid"
       id="grid835"
       empspacing="4"
       spacingy="4"
       spacingx="4"
       originx="-30.370134"
       originy="-55.899495" />
  </sodipodi:namedview>
  <defs
     id="defs5">
    <linearGradient
       inkscape:collect="always"
       id="linearGradient860">
      <stop
         style="stop-color:#1f1c1a;stop-opacity:1"
         offset="0"
         id="stop856" />
      <stop
         style="stop-color:#3d3632;stop-opacity:1"
         offset="1"
         id="stop858" />
    </linearGradient>
    <linearGradient
       inkscape:collect="always"
       id="linearGradient852">
      <stop
         style="stop-color:#c66600;stop-opacity:1"
         offset="0"
         id="stop848" />
      <stop
         style="stop-color:#ffe10a;stop-opacity:1"
         offset="1"
         id="stop850" />
    </linearGradient>
    <clipPath
       id="a">
      <path
         d="m 188,128 c 0,80 -69.756,119.362 -69.756,119.362 C 64,244 8.638,193.922 8.638,128 8.638,62.078 64,12 118.244,8.638 118.244,8.638 188,48 188,128 Z"
         id="path2"
         inkscape:connector-curvature="0"
         style="fill:#252525;fill-opacity:0.60100002;stroke-width:12.5369997" />
    </clipPath>
    <clipPath
       clipPathUnits="userSpaceOnUse"
       id="clipPath880">
      <path
         style="fill:#252525;fill-opacity:0.60100002;stroke-width:10.79250526"
         inkscape:connector-curvature="0"
         id="path882"
         d="m 272.00001,176 c 0,55.383 -74.67107,82.63283 -74.67107,82.63283 C 139.26286,256.30536 80,221.63698 80,176 c 0,-45.63698 59.26286,-80.305357 117.32894,-82.632828 0,0 74.67107,27.249818 74.67107,82.632828 z" />
    </clipPath>
    <clipPath
       clipPathUnits="userSpaceOnUse"
       id="clipPath835">
      <path
         style="fill:#252525;fill-opacity:0.60100002;stroke-width:14.63670254"
         inkscape:connector-curvature="0"
         id="path838"
         d="M 248,176 177.12332,293.10338 C 177.12332,293.10338 160,304 168,320 106.54336,315.95536 24,255.30718 24,176 24,96.69282 106.54336,36.446691 168,32.402051 160,48 177.02781,58.734344 177.02781,58.734344 Z"
         sodipodi:nodetypes="cccsccc" />
    </clipPath>
    <linearGradient
       inkscape:collect="always"
       xlink:href="#linearGradient852"
       id="linearGradient854"
       x1="80"
       y1="64"
       x2="208"
       y2="288"
       gradientUnits="userSpaceOnUse" />
    <linearGradient
       inkscape:collect="always"
       xlink:href="#linearGradient860"
       id="linearGradient862"
       x1="14.454465"
       y1="-2.2882402"
       x2="190.76143"
       y2="225.71619"
       gradientUnits="userSpaceOnUse" />
  </defs>
  <g
     id="g4765"
     transform="matrix(0.5,0,0,0.5,-0.08129351,0)">
    <path
       clip-path="url(#clipPath835)"
       style="fill:#957100;fill-opacity:1;stroke:#090909;stroke-width:36;stroke-miterlimit:4;stroke-dasharray:none;stroke-opacity:1"
       inkscape:connector-curvature="0"
       id="path833"
       d="M 248,176 177.12332,293.10338 C 177.12332,293.10338 160,304 168,320 106.54336,315.95536 24,255.30718 24,176 24,96.69282 106.54336,36.446691 168,32.402051 160,48 177.02781,58.734344 177.02781,58.734344 Z"
       sodipodi:nodetypes="cccsccc" />
    <path
       transform="matrix(1.0890097,0,0,0.98243709,48.258948,50.248052)"
       inkscape:connector-curvature="0"
       style="fill:url(#linearGradient862);fill-opacity:1;stroke:#090909;stroke-width:34.80440903;stroke-miterlimit:4;stroke-dasharray:none"
       id="path7"
       clip-path="url(#a)"
       d="m 188,128 c 0,80 -69.756,119.362 -69.756,119.362 C 64,244 8.638,193.922 8.638,128 8.638,62.078 64,12 118.244,8.638 118.244,8.638 188,48 188,128 Z" />
    <circle
       r="18"
       cy="176"
       cx="114"
       id="path847"
       style="fill:#b28700;fill-opacity:1;stroke:#090909;stroke-width:12;stroke-miterlimit:4;stroke-dasharray:none;stroke-opacity:1" />
    <path
       inkscape:connector-curvature="0"
       id="path891"
       d="M 96,64 A 112,112 0 0 0 28.158203,86.996094 96,96 0 0 1 64,80 96,96 0 0 1 160,176 96,96 0 0 1 64,272 96,96 0 0 1 28.275391,265.02734 112,112 0 0 0 96,288 112,112 0 0 0 208,176 112,112 0 0 0 96,64 Z"
       style="fill:url(#linearGradient854);fill-opacity:1;stroke:#000000;stroke-width:16;stroke-linecap:square;stroke-linejoin:round;stroke-miterlimit:8;stroke-dasharray:none;stroke-opacity:1;paint-order:fill markers stroke" />
  </g>
</svg>
