<?xml version="1.0" encoding="UTF-8" standalone="no"?>
<svg
   xmlns:dc="http://purl.org/dc/elements/1.1/"
   xmlns:cc="http://creativecommons.org/ns#"
   xmlns:rdf="http://www.w3.org/1999/02/22-rdf-syntax-ns#"
   xmlns:svg="http://www.w3.org/2000/svg"
   xmlns="http://www.w3.org/2000/svg"
   xmlns:sodipodi="http://sodipodi.sourceforge.net/DTD/sodipodi-0.dtd"
   xmlns:inkscape="http://www.inkscape.org/namespaces/inkscape"
   width="176"
   height="176"
   version="1.1"
   id="svg11"
   sodipodi:docname="player-helmet-last-man-02.svg"
   inkscape:version="0.92.2 (5c3e80d, 2017-08-06)">
  <metadata
     id="metadata15">
    <rdf:RDF>
      <cc:Work
         rdf:about="">
        <dc:format>image/svg+xml</dc:format>
        <dc:type
           rdf:resource="http://purl.org/dc/dcmitype/StillImage" />
        <dc:title />
      </cc:Work>
    </rdf:RDF>
  </metadata>
  <sodipodi:namedview
     pagecolor="#ffffff"
     bordercolor="#666666"
     borderopacity="1"
     objecttolerance="10"
     gridtolerance="10"
     guidetolerance="10"
     inkscape:pageopacity="0"
     inkscape:pageshadow="2"
     inkscape:window-width="1920"
     inkscape:window-height="1017"
     id="namedview13"
     showgrid="true"
     inkscape:zoom="5.3636364"
     inkscape:cx="81.130578"
     inkscape:cy="82.936607"
     inkscape:window-x="1912"
     inkscape:window-y="-8"
     inkscape:window-maximized="1"
     inkscape:current-layer="svg11">
    <inkscape:grid
       type="xygrid"
       id="grid831"
       empspacing="4"
       spacingy="2"
       spacingx="2" />
  </sodipodi:namedview>
  <defs
     id="defs5">
    <clipPath
       id="a">
      <path
         d="M188 128c0 80-69.756 119.362-69.756 119.362C64 244 8.638 193.922 8.638 128S64 12 118.244 8.638C118.244 8.638 188 48 188 128z"
         fill="#252525"
         fill-opacity=".601"
         stroke-width="12.537"
         id="path2" />
    </clipPath>
    <clipPath
       clipPathUnits="userSpaceOnUse"
       id="clipPath881">
      <path
         id="path883"
         d="M 53.110836,88.000002 C 53.110836,41.958818 80,32 80,32 111.21823,33.93488 156.33632,50.060916 156.33632,88.000002 156.33632,125.93909 111.21823,142.06513 80,144 80,144 53.110836,134.04118 53.110836,88.000002 Z"
         inkscape:connector-curvature="0"
         style="fill:#252525;fill-opacity:0.60100002;stroke-width:7.21522856"
         sodipodi:nodetypes="scscs" />
    </clipPath>
  </defs>
  <path
     sodipodi:nodetypes="scscs"
     style="fill:#171e15;fill-opacity:0.83333331;stroke-width:19;stroke:#090909;stroke-opacity:1;stroke-miterlimit:4;stroke-dasharray:none"
     inkscape:connector-curvature="0"
     d="M 53.110836,88.000002 C 53.110836,41.958818 80,32 80,32 111.21823,33.93488 156.33632,50.060916 156.33632,88.000002 156.33632,125.93909 111.21823,142.06513 80,144 80,144 53.110836,134.04118 53.110836,88.000002 Z"
     id="path879"
     clip-path="url(#clipPath881)" />
  <path
     d="M188 128c0 80-69.756 119.362-69.756 119.362C64 244 8.638 193.922 8.638 128S64 12 118.244 8.638C118.244 8.638 188 48 188 128z"
     clip-path="url(#a)"
     transform="matrix(.52122 0 0 .52122 24.17 21.284)"
     fill="#252525"
     stroke="#090909"
     stroke-width="37.259"
     id="path7"
     style="stroke-width:37.25873911;stroke-miterlimit:4;stroke-dasharray:none;fill:#273424;fill-opacity:1" />
  <g
     transform="matrix(1,0,0,-1,0,174.21354)"
     id="g848">
    <g
       id="g855">
      <g
         transform="matrix(1,0,0,-1,0,172.42708)"
         id="g844"
         style="">
        <path
           style="fill:none;stroke:#090909;stroke-width:8;stroke-linecap:butt;stroke-linejoin:miter;stroke-miterlimit:4;stroke-dasharray:none;stroke-opacity:1"
           d="m 48,46.21354 c 36,20 100,23.999998 100,23.999998"
           id="path835"
           inkscape:connector-curvature="0"
           sodipodi:nodetypes="cc" />
      </g>
      <path
         sodipodi:nodetypes="cc"
         inkscape:connector-curvature="0"
         id="path846"
         d="m 48,46.21354 c 36,20 100,23.999998 100,23.999998"
         style="fill:none;stroke:#090909;stroke-width:8;stroke-linecap:butt;stroke-linejoin:miter;stroke-miterlimit:4;stroke-dasharray:none;stroke-opacity:1" />
    </g>
  </g>
  <path
     style="fill:#004b98;stroke:#0a0a0a;stroke-width:5.328866;fill-opacity:1"
     inkscape:connector-curvature="0"
     id="path885"
     d="M 98.177572,87.998937 90,100 c 0,0 -18,4 -32,10 L 68,87.998937 58,66 c 14,6 32,10 32,10 z"
     sodipodi:nodetypes="ccccccc" />
  <path
     style="fill:#273424;fill-opacity:1;stroke:#090909;stroke-width:9.5;stroke-linecap:butt;stroke-linejoin:miter;stroke-miterlimit:4;stroke-dasharray:none;stroke-opacity:1"
     d="M 114,68 100,38 c 40,8 56,34 56,34 z"
     id="path895"
     inkscape:connector-curvature="0"
     sodipodi:nodetypes="cccc" />
  <path
     sodipodi:nodetypes="cccc"
     inkscape:connector-curvature="0"
     id="path897"
     d="m 114,108 -14,30 c 40,-8 56,-34 56,-34 z"
     style="fill:#273424;fill-opacity:1;stroke:#090909;stroke-width:9.5;stroke-linecap:butt;stroke-linejoin:miter;stroke-miterlimit:4;stroke-dasharray:none;stroke-opacity:1" />
  <g
     id="g893">
    <path
       sodipodi:nodetypes="cccc"
       inkscape:connector-curvature="0"
       id="path887"
       d="m 116,68 c 0,0 -36,-4 -72,-20 0,0 12,-16 36,-22 0,0 28,16 36,42 z"
       style="fill:#4b6446;fill-opacity:1;stroke:#090909;stroke-width:9.5;stroke-linecap:butt;stroke-linejoin:miter;stroke-miterlimit:4;stroke-dasharray:none;stroke-opacity:1" />
    <path
       style="fill:#4b6446;fill-opacity:1;stroke:#090909;stroke-width:9.5;stroke-linecap:butt;stroke-linejoin:miter;stroke-miterlimit:4;stroke-dasharray:none;stroke-opacity:1"
       d="m 116,108 c 0,0 -36,4 -72,20 0,0 12,16 36,22 0,0 28,-16 36,-42 z"
       id="path889"
       inkscape:connector-curvature="0"
       sodipodi:nodetypes="cccc" />
  </g>
</svg>
