<svg xmlns="http://www.w3.org/2000/svg" width="176" height="176"><defs><clipPath id="a"><path d="M202.297 144.81c13.099-2.734 15.213-12.953 22.657-23.16 7.443-10.202 10.76-11.514 11.356-27.821.278-7.563-2.842-18.433-3.953-24.397-1.284-6.893-6.552-13.576-10.858-19.408-11.539-12.699-13.009-16.57-24.371-17.349-11.365-.775-18.454 2.124-26.241 7.678-7.787 5.555-14.135 9.33-17.177 17.54-3.043 8.208-11.549 16.605-11.7 26.12-.15 9.514 1.959 19.002 5.137 28.181 3.178 9.176 6.674 11.005 11.968 16.442 5.29 5.437 11.304 10.41 17.152 12.438 13.478 2.75 22.053 4.343 26.03 3.735z" style="isolation:isolate" fill="#958358" stroke-width="13.951"/></clipPath></defs><path style="isolation:isolate" d="M202.297 144.81c13.099-2.734 15.213-12.953 22.657-23.16 7.443-10.202 10.76-11.514 11.356-27.821.278-7.563-2.842-18.433-3.953-24.397-1.284-6.893-6.552-13.576-10.858-19.408-11.539-12.699-13.009-16.57-24.371-17.349-11.365-.775-18.454 2.124-26.241 7.678-7.787 5.555-14.135 9.33-17.177 17.54-3.043 8.208-11.549 16.605-11.7 26.12-.15 9.514 1.959 19.002 5.137 28.181 3.178 9.176 6.674 11.005 11.968 16.442 5.29 5.437 11.304 10.41 17.152 12.438 13.478 2.75 22.053 4.343 26.03 3.735z" clip-path="url(#a)" transform="matrix(1.0116 0 0 1.11438 -114.977 -10.899)" fill="#3a3422" stroke="#090909" stroke-width="18.291"/><path style="isolation:isolate" d="M97.79 65.924c2.05.539 4.312-1.04 4.886-2.964.574-1.925-.758-3.469-2.808-4.008-2.05-.539-3.859 1.018-4.433 2.943-.573 1.926.305 3.49 2.355 4.029zM52.47 109.421c0 4.224 4.31 7.649 8.429 7.649 4.118 0 6.485-3.425 6.485-7.649s-4.032-6.795-8.15-6.795-6.763 2.57-6.763 6.795zM69.852 129.777c1.484 1.689 4.507 1.474 6.247-.04 1.74-1.513 1.537-3.752.054-5.44-1.484-1.69-4.09-1.235-5.83.279-1.74 1.513-1.954 3.512-.47 5.201zM60.64 61.477c1.224 1.372 3.361.879 4.456-.655 1.094-1.534.73-3.528-.493-4.9-1.224-1.372-3.04-.705-4.135.83-1.094 1.533-1.052 3.353.172 4.725zM90.287 118.298c-.25 2.47 1.268 4.884 2.91 5.278 1.644.395 2.79-1.38 3.04-3.85s-1.207-4.359-2.85-4.753c-1.643-.395-2.85.855-3.1 3.325zM66.18 84.95c1.927-3.13.925-8.276-1.525-10.767-2.451-2.49-5.423-1.384-7.35 1.747-1.929 3.13-.702 7.475 1.748 9.966 2.451 2.491 5.198 2.186 7.126-.945zM47.507 86.935c2.132-.215 3.017-1.826 2.212-3.198-.805-1.373-2.996-1.987-5.127-1.772-2.132.215-2.64 1.69-1.836 3.062.805 1.373 2.62 2.123 4.751 1.908zM84.095 60.858c5.633-.915 7.82-6.834 5.545-11.782-2.274-4.947-8.147-7.05-13.78-6.134-5.633.915-6.834 6.316-4.56 11.263s7.162 7.568 12.795 6.653z" fill="#201c13" paint-order="fill markers stroke"/><path d="M96.686 76.05c-5.324-8.682-8.968-8.462-15.736-5.657-4.937 2.999-6.365 7.348-6.547 14.942-.113 4.7-2.128 8.481 1.02 15.982 4.544 11.235 17.602 3.325 17.602 3.325 5.204-2.561 7.289-9.613 8.584-13.818 2.259-7.336-2.53-9.644-4.923-14.775z" style="isolation:isolate" fill="#fff00f" stroke="#0a0a0a" stroke-width="6.253" stroke-linecap="square" paint-order="fill markers stroke"/></svg>