<?xml version="1.0" encoding="UTF-8" standalone="no"?>
<svg
   xmlns:dc="http://purl.org/dc/elements/1.1/"
   xmlns:cc="http://creativecommons.org/ns#"
   xmlns:rdf="http://www.w3.org/1999/02/22-rdf-syntax-ns#"
   xmlns:svg="http://www.w3.org/2000/svg"
   xmlns="http://www.w3.org/2000/svg"
   xmlns:xlink="http://www.w3.org/1999/xlink"
   xmlns:sodipodi="http://sodipodi.sourceforge.net/DTD/sodipodi-0.dtd"
   xmlns:inkscape="http://www.inkscape.org/namespaces/inkscape"
   width="128"
   height="128"
   viewBox="0 0 128 128"
   version="1.1"
   id="svg9"
   sodipodi:docname="melee-bayonet-rugged.svg"
   inkscape:version="0.92.2 (5c3e80d, 2017-08-06)"
   inkscape:export-filename="C:\Users\kjust\Desktop\projects\surviv\client\img\guns\melee-bayonet.png"
   inkscape:export-xdpi="266.66666"
   inkscape:export-ydpi="266.66666">
  <metadata
     id="metadata13">
    <rdf:RDF>
      <cc:Work
         rdf:about="">
        <dc:format>image/svg+xml</dc:format>
        <dc:type
           rdf:resource="http://purl.org/dc/dcmitype/StillImage" />
        <dc:title></dc:title>
      </cc:Work>
    </rdf:RDF>
  </metadata>
  <sodipodi:namedview
     pagecolor="#ffffff"
     bordercolor="#666666"
     borderopacity="1"
     objecttolerance="10"
     gridtolerance="10"
     guidetolerance="10"
     inkscape:pageopacity="0"
     inkscape:pageshadow="2"
     inkscape:window-width="1920"
     inkscape:window-height="1017"
     id="namedview11"
     showgrid="true"
     inkscape:showpageshadow="false"
     inkscape:zoom="3.6277652"
     inkscape:cx="6.665467"
     inkscape:cy="72.61327"
     inkscape:window-x="1912"
     inkscape:window-y="-8"
     inkscape:window-maximized="1"
     inkscape:current-layer="svg9"
     inkscape:snap-smooth-nodes="true"
     inkscape:object-paths="true"
     inkscape:snap-intersection-paths="true">
    <inkscape:grid
       type="xygrid"
       id="grid822"
       empspacing="4"
       spacingx="1"
       spacingy="1" />
  </sodipodi:namedview>
  <defs
     id="defs5">
    <linearGradient
       inkscape:collect="always"
       id="linearGradient835">
      <stop
         style="stop-color:#3d3522;stop-opacity:1;"
         offset="0"
         id="stop831" />
      <stop
         style="stop-color:#776742;stop-opacity:1"
         offset="1"
         id="stop833" />
    </linearGradient>
    <linearGradient
       inkscape:collect="always"
       id="linearGradient827">
      <stop
         style="stop-color:#1f2021;stop-opacity:1"
         offset="0"
         id="stop823" />
      <stop
         style="stop-color:#a1a3a6;stop-opacity:1"
         offset="1"
         id="stop825" />
    </linearGradient>
    <clipPath
       id="a">
      <rect
         ry="3.836"
         rx="2.4690001"
         y="272.65799"
         x="0.52899998"
         height="24.341999"
         width="3.704"
         stroke-miterlimit="10"
         id="rect2"
         style="fill:#515151;stroke-width:1.32299995;stroke-miterlimit:10;stroke-opacity:0.49000005" />
    </clipPath>
    <clipPath
       clipPathUnits="userSpaceOnUse"
       id="clipPath4585">
      <path
         style="fill:#929292;fill-opacity:1;stroke:none;stroke-width:1.17260396px;stroke-linecap:butt;stroke-linejoin:miter;stroke-opacity:1"
         d="M 68,21 V 16 C 68,12 56,5 36,5 16,5 4,12 4,16 v 5 c 0,8 12,-3 32,-3 20,0 32,11 32,3 z"
         id="path4587"
         inkscape:connector-curvature="0"
         sodipodi:nodetypes="cccccsc" />
    </clipPath>
    <clipPath
       clipPathUnits="userSpaceOnUse"
       id="clipPath853">
      <path
         style="fill:#393a3c;fill-opacity:1;stroke:none;stroke-width:1px;stroke-linecap:butt;stroke-linejoin:miter;stroke-opacity:1"
         d="M 30,52 V 46 L 29,45 V 20 C 29.430325,9 35,1 35,1 l 8,23 v 24 l -1,1 v 3 z"
         id="path855"
         inkscape:connector-curvature="0"
         sodipodi:nodetypes="cccccccccc" />
    </clipPath>
    <clipPath
       clipPathUnits="userSpaceOnUse"
       id="clipPath859">
      <path
         sodipodi:nodetypes="ccccccssssccccc"
         inkscape:connector-curvature="0"
         id="path861"
         d="m 24,52 h 27 v 4 H 41 v 25 l 1,1 v 8 c 0,0.514951 -1,1 -2,1 h -8 c -1,0 -2.000036,-0.485049 -2,-1 L 30.000489,82 31,81 V 56 h -7 z"
         style="fill:#3d3522;fill-opacity:1;stroke:none;stroke-width:7.44852924;stroke-miterlimit:4;stroke-dasharray:none;stroke-opacity:1" />
    </clipPath>
    <linearGradient
       inkscape:collect="always"
       xlink:href="#linearGradient827"
       id="linearGradient829"
       x1="30"
       y1="48"
       x2="41"
       y2="5"
       gradientUnits="userSpaceOnUse" />
    <linearGradient
       inkscape:collect="always"
       xlink:href="#linearGradient835"
       id="linearGradient837"
       x1="27"
       y1="68"
       x2="44.65696"
       y2="64"
       gradientUnits="userSpaceOnUse" />
  </defs>
  <g
     id="g837"
     transform="translate(26.5,-18.5)">
    <path
       transform="matrix(-1,0,0,1,75,36)"
       clip-path="url(#clipPath859)"
       sodipodi:nodetypes="ccccccssssccccc"
       inkscape:connector-curvature="0"
       id="path857"
       d="m 24,52 h 27 v 4 H 41 v 25 l 1,1 v 8 c 0,0.514951 -1,1 -2,1 h -8 c -1,0 -2.000036,-0.485049 -2,-1 L 30.000489,82 31,81 V 56 h -7 z"
       style="fill:url(#linearGradient837);fill-opacity:1;stroke:#000000;stroke-width:6;stroke-miterlimit:4;stroke-dasharray:none;stroke-opacity:1" />
    <path
       transform="matrix(-1,0,0,1,75,37)"
       clip-path="url(#clipPath853)"
       style="fill:url(#linearGradient829);fill-opacity:1;stroke:#000000;stroke-width:6;stroke-linecap:butt;stroke-linejoin:miter;stroke-miterlimit:4;stroke-dasharray:none;stroke-opacity:1"
       d="M 30,52 V 46 L 29,45 V 20 C 29.430325,9 35,1 35,1 l 8,23 v 24 l -1,1 v 3 z"
       id="path851"
       inkscape:connector-curvature="0"
       sodipodi:nodetypes="cccccccccc" />
    <path
       inkscape:connector-curvature="0"
       id="path866"
       d="m 37,64 a 2,2 0 0 0 2,2 2,2 0 0 0 2,-2 2,2 0 0 0 -2,-2 2,2 0 0 0 -2,2 z"
       style="fill:#000000;fill-opacity:1;stroke:none;stroke-width:2.92118716;stroke-miterlimit:4;stroke-dasharray:none;stroke-opacity:1" />
  </g>
</svg>
