<?xml version="1.0" encoding="UTF-8" standalone="no"?>
<svg
   xmlns:dc="http://purl.org/dc/elements/1.1/"
   xmlns:cc="http://creativecommons.org/ns#"
   xmlns:rdf="http://www.w3.org/1999/02/22-rdf-syntax-ns#"
   xmlns:svg="http://www.w3.org/2000/svg"
   xmlns="http://www.w3.org/2000/svg"
   xmlns:xlink="http://www.w3.org/1999/xlink"
   xmlns:sodipodi="http://sodipodi.sourceforge.net/DTD/sodipodi-0.dtd"
   xmlns:inkscape="http://www.inkscape.org/namespaces/inkscape"
   width="128"
   height="128"
   viewBox="0 0 128 128"
   version="1.1"
   id="svg9"
   sodipodi:docname="melee-huntsman-burnished.svg"
   inkscape:version="0.92.2 (5c3e80d, 2017-08-06)"
   inkscape:export-filename="C:\Users\kjust\Desktop\projects\surviv\client\img\melee\melee-huntsman.png"
   inkscape:export-xdpi="256"
   inkscape:export-ydpi="256">
  <metadata
     id="metadata13">
    <rdf:RDF>
      <cc:Work
         rdf:about="">
        <dc:format>image/svg+xml</dc:format>
        <dc:type
           rdf:resource="http://purl.org/dc/dcmitype/StillImage" />
        <dc:title></dc:title>
      </cc:Work>
    </rdf:RDF>
  </metadata>
  <sodipodi:namedview
     pagecolor="#ffffff"
     bordercolor="#666666"
     borderopacity="1"
     objecttolerance="10"
     gridtolerance="10"
     guidetolerance="10"
     inkscape:pageopacity="0"
     inkscape:pageshadow="2"
     inkscape:window-width="1920"
     inkscape:window-height="1017"
     id="namedview11"
     showgrid="true"
     inkscape:showpageshadow="false"
     inkscape:zoom="2.5652174"
     inkscape:cx="1.6394426"
     inkscape:cy="59.382852"
     inkscape:window-x="1912"
     inkscape:window-y="-8"
     inkscape:window-maximized="1"
     inkscape:current-layer="svg9"
     inkscape:snap-smooth-nodes="false"
     inkscape:object-paths="false"
     inkscape:snap-intersection-paths="false"
     inkscape:object-nodes="false"
     inkscape:snap-nodes="false">
    <inkscape:grid
       type="xygrid"
       id="grid822"
       empspacing="4"
       spacingx="1"
       spacingy="1" />
  </sodipodi:namedview>
  <defs
     id="defs5">
    <linearGradient
       inkscape:collect="always"
       id="linearGradient989">
      <stop
         style="stop-color:#b96915;stop-opacity:1"
         offset="0"
         id="stop985" />
      <stop
         style="stop-color:#e1e78c;stop-opacity:1"
         offset="1"
         id="stop987" />
    </linearGradient>
    <linearGradient
       inkscape:collect="always"
       id="linearGradient906">
      <stop
         style="stop-color:#b14427;stop-opacity:1"
         offset="0"
         id="stop902" />
      <stop
         style="stop-color:#5b2d1e;stop-opacity:1"
         offset="1"
         id="stop904" />
    </linearGradient>
    <linearGradient
       id="linearGradient900"
       inkscape:collect="always">
      <stop
         id="stop896"
         offset="0"
         style="stop-color:#0e0e0f;stop-opacity:1" />
      <stop
         id="stop898"
         offset="1"
         style="stop-color:#6c6e72;stop-opacity:1" />
    </linearGradient>
    <linearGradient
       inkscape:collect="always"
       xlink:href="#linearGradient989"
       id="linearGradient876"
       x1="86.26384"
       y1="43.855785"
       x2="35.469406"
       y2="58.534248"
       gradientUnits="userSpaceOnUse" />
    <clipPath
       clipPathUnits="userSpaceOnUse"
       id="clipPath853">
      <path
         style="fill:#393a3c;fill-opacity:1;stroke:none;stroke-width:1px;stroke-linecap:butt;stroke-linejoin:miter;stroke-opacity:1"
         d="M 30,52 V 46 L 29,45 V 20 C 29.430325,9 35,1 35,1 l 8,23 v 24 l -1,1 v 3 z"
         id="path855-2"
         inkscape:connector-curvature="0"
         sodipodi:nodetypes="cccccccccc" />
    </clipPath>
    <clipPath
       clipPathUnits="userSpaceOnUse"
       id="clipPath914">
      <path
         sodipodi:nodetypes="ccccccccc"
         inkscape:connector-curvature="0"
         id="path916"
         d="m 34.835322,48.758939 c 0,0 0.128178,-2.363347 0.63983,-2.533898 5.165255,8.868644 7.554026,0.559322 7.529661,-0.244704 6.724577,3.264831 22.466103,-3.557203 33.868645,-4.09322 10.17161,-0.59298 16.758474,10.970339 16.758474,10.970339 0,0 -18.760593,-4.230932 -29.286017,3.370763 -9.246714,-0.417869 -12.159178,1.023025 -16.375,2.654661 l -13.598517,0.194915 c 0,0 3.995763,-4.8125 0.462924,-10.318856 z"
         style="fill:url(#linearGradient918);fill-opacity:1;stroke:none;stroke-width:1px;stroke-linecap:butt;stroke-linejoin:miter;stroke-opacity:1" />
    </clipPath>
    <linearGradient
       inkscape:collect="always"
       xlink:href="#linearGradient900"
       id="linearGradient918"
       gradientUnits="userSpaceOnUse"
       x1="86.26384"
       y1="43.855785"
       x2="35.469406"
       y2="58.534248" />
    <linearGradient
       inkscape:collect="always"
       xlink:href="#linearGradient906"
       id="linearGradient928"
       gradientUnits="userSpaceOnUse"
       x1="29.885138"
       y1="48.621422"
       x2="8.9751101"
       y2="58.407059"
       gradientTransform="translate(0.06891291,-0.51684712)" />
    <clipPath
       clipPathUnits="userSpaceOnUse"
       id="clipPath971">
      <path
         sodipodi:nodetypes="cccsscccc"
         inkscape:connector-curvature="0"
         id="path973"
         d="m 11.593596,47.214146 c 10.629052,4.57427 10.856034,3.356192 15.897715,1.541115 3.9967,4.792147 6.678121,1.296682 7.36725,-0.357229 0.606358,-0.10106 6.635984,3.033079 7.176002,5.516133 0.262797,1.208367 0.182678,1.760738 -0.582149,2.875242 -0.878641,1.280352 -4.928254,1.957585 -6.178099,2.269079 C 26.287762,59.661061 19.242201,59.276477 13.780017,58.589372 1.92699,56.315245 3.2608455,52.907774 3.2608455,52.907774 4.6391044,46.464413 9.9052296,46.214908 11.593596,47.214146 Z"
         style="fill:url(#linearGradient975);fill-opacity:1;stroke:none;stroke-width:1px;stroke-linecap:butt;stroke-linejoin:miter;stroke-opacity:1"
         clip-path="none" />
    </clipPath>
    <linearGradient
       inkscape:collect="always"
       xlink:href="#linearGradient906"
       id="linearGradient975"
       gradientUnits="userSpaceOnUse"
       gradientTransform="translate(0.06891291,-0.51684712)"
       x1="29.885138"
       y1="48.621422"
       x2="8.9751101"
       y2="58.407059" />
  </defs>
  <g
     id="g840"
     transform="translate(16,-16.000001)">
    <path
       transform="matrix(0,-1,-1,0,98.611425,128.37515)"
       sodipodi:nodetypes="cccsscccc"
       inkscape:connector-curvature="0"
       id="path967"
       d="m 11.593596,47.214146 c 10.629052,4.57427 10.856034,3.356192 15.897715,1.541115 3.9967,4.792147 6.678121,1.296682 7.36725,-0.357229 0.606358,-0.10106 6.635984,3.033079 7.176002,5.516133 0.262797,1.208367 0.182678,1.760738 -0.582149,2.875242 -0.878641,1.280352 -4.928254,1.957585 -6.178099,2.269079 C 26.287762,59.661061 19.242201,59.276477 13.780017,58.589372 1.92699,56.315245 3.2608455,52.907774 3.2608455,52.907774 4.6391044,46.464413 9.9052296,46.214908 11.593596,47.214146 Z"
       style="fill:url(#linearGradient928);fill-opacity:1;stroke:#000000;stroke-width:6;stroke-linecap:butt;stroke-linejoin:miter;stroke-miterlimit:4;stroke-dasharray:none;stroke-opacity:1"
       clip-path="url(#clipPath971)" />
    <path
       transform="matrix(0,-1,-1,0,98.611425,128.47261)"
       clip-path="url(#clipPath914)"
       sodipodi:nodetypes="ccccccccc"
       inkscape:connector-curvature="0"
       id="path910"
       d="m 34.835322,48.758939 c 0,0 0.128178,-2.363347 0.63983,-2.533898 5.165255,8.868644 7.554026,0.559322 7.529661,-0.244704 6.724577,3.264831 22.466103,-3.557203 33.868645,-4.09322 10.17161,-0.59298 16.758474,10.970339 16.758474,10.970339 0,0 -18.760593,-4.230932 -29.286017,3.370763 -9.246714,-0.417869 -12.159178,1.023025 -16.375,2.654661 l -13.598517,0.194915 c 0,0 3.995763,-4.8125 0.462924,-10.318856 z"
       style="fill:url(#linearGradient876);fill-opacity:1;stroke:#000000;stroke-width:6;stroke-linecap:butt;stroke-linejoin:miter;stroke-miterlimit:4;stroke-dasharray:none;stroke-opacity:1" />
    <path
       sodipodi:nodetypes="ccccc"
       inkscape:connector-curvature="0"
       id="path859"
       d="m 46.784625,81.680714 2.067388,-14.644001 c -0.723586,-1.722824 -1.791736,-0.241196 -1.791736,-0.241196 l -1.895106,14.678459 c 0.758042,1.481628 1.619454,0.206738 1.619454,0.206738 z"
       style="fill:#000000;fill-opacity:1;stroke:none;stroke-width:1px;stroke-linecap:butt;stroke-linejoin:miter;stroke-opacity:1" />
  </g>
</svg>
