<svg xmlns="http://www.w3.org/2000/svg" width="128" height="128"><path d="M69.126 24.872L43.89 48.35H18.654v31.302H43.89l25.236 23.477zm13.528 6.767l-1.225 4.252C95.116 39.302 104.615 50.818 104.615 64c0 13.182-9.5 24.698-23.186 28.11l1.225 4.251C98.387 92.44 109.346 79.153 109.346 64c0-15.153-10.959-28.44-26.692-32.361zm-3.266 11.338l-1.225 4.252C86.334 49.266 91.997 56.131 91.997 64c0 7.869-5.663 14.734-13.834 16.771l1.225 4.252C89.605 82.476 96.728 73.84 96.728 64s-7.123-18.476-17.34-21.023zm-3.266 11.338l-1.225 4.252c2.654.662 4.481 2.877 4.481 5.433s-1.827 4.771-4.48 5.433l1.224 4.252c4.7-1.172 7.988-5.157 7.988-9.685 0-4.527-3.287-8.513-7.988-9.685z" fill="#fff"/></svg>