<svg xmlns="http://www.w3.org/2000/svg" width="72" height="72" viewBox="0 0 104.58 104.58" id="svg8"><defs id="defs4"><style id="style2"/></defs><path d="M88.48 7.588a3.84 3.84 0 0 0-3.063 1.918L45.683 80.013 17.856 54.22c-1.575-1.437-3.936-1.507-5.443 0l-3.08 3.077a3.841 3.841 0 0 0 0 5.444l35.469 33.373c.125.126.261.208.404.272 1.556.95 4.485.864 5.462-.83l45.185-80.025a3.84 3.84 0 0 0-1.408-5.257l-3.771-2.178a3.835 3.835 0 0 0-2.193-.508z" id="rect4484" fill="#fff" stroke="#fff" stroke-width="5.81" stroke-miterlimit="10"/></svg>