<?xml version="1.0" encoding="UTF-8" standalone="no"?>
<svg xmlns:dc="http://purl.org/dc/elements/1.1/" xmlns:cc="http://creativecommons.org/ns#" xmlns:rdf="http://www.w3.org/1999/02/22-rdf-syntax-ns#" xmlns:svg="http://www.w3.org/2000/svg" xmlns="http://www.w3.org/2000/svg" xmlns:sodipodi="http://sodipodi.sourceforge.net/DTD/sodipodi-0.dtd" xmlns:inkscape="http://www.inkscape.org/namespaces/inkscape" width="48" height="48" version="1.1" id="svg4" sodipodi:docname="cobalt.svg" inkscape:version="0.92.2 (5c3e80d, 2017-08-06)">
  <metadata id="metadata10">
    <rdf:RDF>
      <cc:Work rdf:about="">
        <dc:format>image/svg+xml</dc:format>
        <dc:type rdf:resource="http://purl.org/dc/dcmitype/StillImage"/>
      </cc:Work>
    </rdf:RDF>
  </metadata>
  <defs id="defs8"/>
  <sodipodi:namedview pagecolor="#ffffff" bordercolor="#666666" borderopacity="1" objecttolerance="10" gridtolerance="10" guidetolerance="10" inkscape:pageopacity="0" inkscape:pageshadow="2" inkscape:window-width="1920" inkscape:window-height="1017" id="namedview6" showgrid="false" inkscape:zoom="6.9532167" inkscape:cx="4.199531" inkscape:cy="41.738844" inkscape:window-x="1912" inkscape:window-y="-8" inkscape:window-maximized="1" inkscape:current-layer="svg4"/>
  <g id="g1395" style="fill:#ffffff;fill-opacity:1;stroke:#000000;stroke-width:1.04674895;stroke-miterlimit:4;stroke-dasharray:none;stroke-opacity:1" transform="matrix(2.1017456,0,0,2.1017456,-20.486599,-20.486597)">
    <path inkscape:connector-curvature="0" id="path1065" transform="scale(0.26458125)" d="M 80,44.222656 A 35.778002,35.778002 0 0 0 44.464844,76 H 53.59375 L 65.642578,55.130859 H 89.738281 L 94.28125,47.263672 A 35.778002,35.778002 0 0 0 80,44.222656 Z m 21.21289,7.03711 -4.544921,7.873046 L 106.40625,76 h 9.10352 A 35.778002,35.778002 0 0 0 101.21289,51.259766 Z M 44.490234,84 a 35.778002,35.778002 0 0 0 14.296875,24.74023 L 63.332031,100.86719 53.59375,84 Z m 61.916016,0 -12.048828,20.86914 H 70.261719 l -4.542969,7.86719 A 35.778002,35.778002 0 0 0 80,115.77734 35.778002,35.778002 0 0 0 115.53516,84 Z" style="fill:#ffffff;fill-opacity:1;stroke:#000000;stroke-width:3.95624766;stroke-linecap:round;stroke-linejoin:round;stroke-miterlimit:4;stroke-dasharray:none;stroke-opacity:1;paint-order:normal"/>
    <path inkscape:connector-curvature="0" id="path1083" d="m 23.990078,16.275919 -5.647189,-1.9e-5 -2.823578,4.890581 2.823611,4.8906 5.647189,1.9e-5 2.823578,-4.890581 z m -1.055121,1.760155 1.176528,2.037365 -1.176663,2.038041 -2.352675,-2.21e-4 -1.176527,-2.037365 1.176663,-2.038041 z" style="fill:#ffffff;fill-opacity:1;stroke:#000000;stroke-width:1.04674895;stroke-linecap:butt;stroke-linejoin:round;stroke-miterlimit:4;stroke-dasharray:none;stroke-opacity:1;paint-order:normal" sodipodi:nodetypes="cccccccccccccc"/>
  </g>
</svg>