<svg xmlns="http://www.w3.org/2000/svg" width="48" height="48"><path d="M36.33 6.009l3.21 3.247a.74.74 0 0 1 0 1.045l-2.669 2.67a.74.74 0 0 1-.978.059l-3.626-2.826a.74.74 0 0 1-.29-.54V9.62c.001-.198.082-.388.223-.527l3.084-3.084c.331-.331.731-.314 1.045 0zm-8.356 3.48a.742.742 0 0 1 .502.156l10.727 8.266c-.094.53-.227 1.055-.4 1.566a10.7 10.7 0 0 1-7.015 7.005c-.515.167-1.04.3-1.571.4l-8.28-10.699a.74.74 0 0 1 .058-.978l5.5-5.5a.74.74 0 0 1 .48-.215zm12.97 9.833c1.161.29 3.552.021 3.552.021.467 2.515-.082 6.352-3.449 9.719-3.21 3.211-8.143 3.76-9.898 3.252 0 0 .379-1.78.32-2.65-.001-.264-.03-.529-.088-.787.484-.109.961-.241 1.43-.4a12.143 12.143 0 0 0 7.718-7.732c.165-.466.36-1.915.415-1.423zm-18.747.253c.169.003.343.059.442.187l2.76 3.68c.21.337.176.744-.163 1.085L7.826 41.985c-.347.348-.72.316-1.044-.008l-3.21-3.21a.742.742 0 0 1 0-1.046l18.212-18.024c.08-.078.244-.126.413-.122z" fill="#fff" stroke="#323232" stroke-width="1.5"/></svg>