<svg xmlns="http://www.w3.org/2000/svg" width="128" height="128" viewBox="0 0 33.867 33.867"><path fill="#fff" d="M28.316 1.464c-.602.006-1.247.39-1.624 1.295-.743 1.788-2.13 3.945-3.906 6.234a9.42 9.42 0 0 1 1.835 2.022c2.34-1.773 4.594-3.122 6.544-3.786 2.975-1.01.802-4.65-2.357-2.357 1.795-1.857.74-3.42-.492-3.408zm-22.758.003c-1.234.025-2.508 1.598-1.09 3.326C2.049 2.56-.107 5.683 2.42 6.84c1.873.856 4.171 2.378 6.607 4.292a9.414 9.414 0 0 1 1.986-2.197c-1.786-2.384-3.23-4.658-4.12-6.568-.301-.646-.815-.911-1.336-.9zm11.305 6.649a8.082 8.082 0 0 0-8.091 8.09 8.077 8.077 0 0 0 3.995 6.981v3.762h1.249v-3.166c.347.13.705.237 1.073.319v2.847h1.247v-2.67a8.265 8.265 0 0 0 1.05 0v2.67h1.246v-2.847a8.042 8.042 0 0 0 1.074-.319v3.166h1.246v-3.758a8.076 8.076 0 0 0 4.002-6.984 8.082 8.082 0 0 0-8.091-8.092zm-4.46 5.883a2.401 2.401 0 1 1 0 4.803 2.401 2.401 0 0 1 0-4.803zm8.908 0a2.401 2.401 0 0 1 0 4.802 2.401 2.401 0 0 1 0-4.802zm-4.45 3.491l1.997 3.214h-3.994l1.997-3.214zm-7.156 4.707c-2.685 2.166-5.238 3.896-7.284 4.831-2.528 1.156-.372 4.279 2.047 2.045C2.45 31.53 5.879 33.679 6.894 31.5c1.005-2.158 2.716-4.782 4.831-7.503a9.402 9.402 0 0 1-2.02-1.801zm14.217.115a9.406 9.406 0 0 1-1.86 1.646c2.123 2.628 3.789 5.127 4.63 7.151 1.148 2.76 4.788.649 2.116-2.115 3.16 2.293 5.332-1.346 2.357-2.358-2.144-.728-4.653-2.287-7.243-4.324z"/></svg>