<svg xmlns="http://www.w3.org/2000/svg" width="64" height="64"><g fill="#fff"><path d="M10.4 28C9.07 28 8 29.25 8 30.803v30.394C8 62.75 9.07 64 10.4 64h43.2c1.33 0 2.4-1.25 2.4-2.803V30.803C56 29.25 54.93 28 53.6 28zM32 38.455a6.983 6.983 0 0 1 6.982 6.982A6.983 6.983 0 0 1 32 52.422a6.983 6.983 0 0 1-6.982-6.985A6.983 6.983 0 0 1 32 38.455z" stroke-width="2.593"/><path d="M32 0C16 0 16 16 16 16v20h32V16S48 0 32 0zm0 7.861c8.63 0 8.63 8.631 8.63 8.631V28H23.37V16.492s0-8.63 8.63-8.63z" stroke-width="10.667"/></g></svg>