<svg xmlns="http://www.w3.org/2000/svg" width="128" height="128"><path d="M83.25 5.676c-10.01 0-20.024 3.81-27.648 11.433C40.911 31.8 40.378 55.353 53.998 70.691l-3.952 3.944 3.318 3.318 3.944-3.952c15.338 13.62 38.89 13.087 53.582-1.604 15.247-15.247 15.247-40.04 0-55.288-7.623-7.624-17.63-11.433-27.64-11.433zm0 4.648a34.3 34.3 0 0 1 24.33 10.095c13.459 13.46 13.459 35.21 0 48.668C94.677 81.99 74.159 82.52 60.626 70.683l.055-.054a34.744 34.744 0 0 1-1.73-1.605 34.582 34.582 0 0 1-1.58-1.706l-.055.056C45.479 53.84 46.009 33.322 58.912 20.419A34.315 34.315 0 0 1 83.25 10.324zm0 4.711a29.593 29.593 0 0 0-20.988 8.71c-11.61 11.61-11.61 30.36 0 41.969a29.696 29.696 0 0 0 8.49 5.955c-6.237-4.78-10.26-12.304-10.26-20.77 0-3.837.825-7.484 2.31-10.768-1.043 5.13.11 10.238 3.623 13.75 6.156 6.157 17.215 5.088 24.698-2.394 7.482-7.483 8.55-18.541 2.394-24.698a13.117 13.117 0 0 0-1.917-1.581c11.301 2.166 20.022 11.606 21.098 23.258 1.111-8.782-1.708-17.962-8.468-24.721a29.575 29.575 0 0 0-20.98-8.71zM43.966 75.167l-33.76 33.76 8.655 8.655 33.76-33.76-8.656-8.655zM9.68 115.015l-4.006 3.999 3.31 3.31 3.999-4.006-3.303-3.303z" fill="#fff"/></svg>