<svg width="14" height="13" viewBox="0 0 14 13" fill="none" xmlns="http://www.w3.org/2000/svg">
<path d="M6.79728 0.45547C5.96088 0.450852 5.17759 1.06248 4.61468 2.16114C4.6127 2.16521 4.60984 2.16829 4.60786 2.17236L0.981973 8.46964L0.975925 8.47899C0.307885 9.52971 0.167349 10.5204 0.581479 11.248C0.995389 11.9752 1.91602 12.3492 3.14741 12.2883H10.4223C11.6541 12.3494 12.575 11.9755 12.9889 11.248C13.4031 10.5206 13.2621 9.53037 12.5944 8.47987L12.5885 8.46953L9.0012 2.19292L8.99615 2.18347C8.42125 1.07853 7.63411 0.460089 6.79728 0.45547ZM6.79892 0.972528C7.17149 0.976157 7.52492 1.16277 7.84525 1.47595C8.16371 1.78737 8.46413 2.22932 8.76192 2.80268C8.76368 2.80598 8.76544 2.80884 8.76709 2.81214L11.929 8.34351L11.9316 8.34791L11.935 8.35385C12.2896 8.91027 12.5222 9.3983 12.6289 9.83486C12.7361 10.2742 12.7129 10.6759 12.5233 10.9986C12.3337 11.3214 11.9958 11.5347 11.5688 11.6547C11.145 11.7738 10.6219 11.8098 9.99342 11.7782H3.57694C2.89515 11.8127 2.3495 11.7694 1.91932 11.6374C1.48627 11.5047 1.15979 11.2684 0.993959 10.9325C0.828241 10.5967 0.83308 10.1971 0.952832 9.768C1.0717 9.34167 1.3045 8.87311 1.6355 8.35385L1.64155 8.34351L4.83769 2.79487C4.83989 2.79059 4.84231 2.78718 4.84451 2.78289C5.13812 2.20887 5.4348 1.76857 5.75183 1.46055C6.07139 1.15023 6.42636 0.969009 6.79892 0.972638V0.972528ZM8.10674 2.67655L7.32379 8.82461H6.17553L5.4105 2.80862C5.37201 2.87878 5.33353 2.95158 5.29471 3.02745L5.29218 3.03339L5.28877 3.03933L2.07965 8.60941L2.07712 8.61447L2.07371 8.61964C1.75635 9.11624 1.54555 9.55203 1.4468 9.90601C1.34805 10.2601 1.36146 10.5185 1.45361 10.7052C1.54577 10.892 1.726 11.0423 2.0703 11.1477C2.41449 11.2533 2.91198 11.3 3.5633 11.2662L3.57012 11.2653H10.0003L10.0072 11.2661C10.6068 11.2973 11.0859 11.2584 11.4308 11.1616C11.7756 11.0646 11.9748 10.9193 12.0808 10.7387C12.1869 10.5581 12.2175 10.3121 12.1306 9.95659C12.0437 9.60097 11.836 9.15055 11.4968 8.61964L11.4934 8.61447L11.4899 8.60842L8.3159 3.05747L8.31326 3.05307L8.3115 3.04802C8.24659 2.92238 8.17824 2.79854 8.10652 2.67666L8.10674 2.67655ZM6.14716 9.43261H7.35205V10.6375H6.14716V9.43261Z" fill="white"/>
</svg>
