<svg xmlns="http://www.w3.org/2000/svg" width="128" height="128"><path d="M57.876 97.057h-7.914c-1.612 0-2.428 1.948-1.318 3.1l14.048 14.445a1.832 1.832 0 0 0 2.616 0l14.048-14.446c1.13-1.151.314-3.099-1.319-3.099h-7.914V70.113h26.945v7.914c0 1.612 1.947 2.428 3.098 1.319l14.446-14.048a1.832 1.832 0 0 0 0-2.617l-14.446-14.048c-1.151-1.13-3.098-.314-3.098 1.32v7.913H70.103V30.942h7.914c1.612 0 2.428-1.947 1.318-3.098L65.288 13.398a1.832 1.832 0 0 0-2.617 0L48.623 27.844c-1.13 1.151-.314 3.099 1.319 3.099h7.914v26.944H30.932v-7.914c0-1.612-1.947-2.429-3.098-1.32l-14.446 14.05a1.832 1.832 0 0 0 0 2.617l14.446 14.048c1.151 1.13 3.098.314 3.098-1.32v-7.913h26.945z" fill="#fff"/></svg>