<svg xmlns="http://www.w3.org/2000/svg" width="128" height="128"><g fill="#fff"><path d="M115.848 19.351a2.84 2.84 0 0 0-2.832 2.833v75.182c0 7.955-6.468 14.399-14.4 14.399h-69.21c-7.954 0-14.398-6.468-14.398-14.4V16.26h82.924v72.94a2.84 2.84 0 0 0 2.833 2.832 2.84 2.84 0 0 0 2.832-2.833V13.426a2.84 2.84 0 0 0-2.832-2.832h-88.59a2.84 2.84 0 0 0-2.833 2.832v83.916c0 11.07 8.994 20.064 20.065 20.064h69.186c11.07 0 20.064-8.993 20.064-20.064V22.184c.024-1.558-1.25-2.833-2.809-2.833z"/><path d="M87.074 32.593a2.84 2.84 0 0 0 2.832-2.832 2.84 2.84 0 0 0-2.832-2.833H25.323a2.84 2.84 0 0 0-2.833 2.833 2.84 2.84 0 0 0 2.833 2.832zM87.074 84.666H25.323A2.84 2.84 0 0 0 22.49 87.5a2.84 2.84 0 0 0 2.833 2.832H87.05a2.84 2.84 0 0 0 2.833-2.832c0-1.558-1.251-2.833-2.81-2.833zM87.074 99.183H35.119a2.84 2.84 0 0 0-2.833 2.833 2.84 2.84 0 0 0 2.833 2.833h51.955a2.84 2.84 0 0 0 2.832-2.833 2.84 2.84 0 0 0-2.832-2.833zM21.546 42.484v30.64a2.84 2.84 0 0 0 2.833 2.832h30.757a2.84 2.84 0 0 0 2.833-2.833V42.484a2.84 2.84 0 0 0-2.833-2.833H24.38a2.84 2.84 0 0 0-2.833 2.833zm5.665 2.833h25.093V70.29H27.21zM88.584 42.484h-20.37a2.84 2.84 0 0 0-2.833 2.833 2.84 2.84 0 0 0 2.832 2.832h20.371a2.84 2.84 0 0 0 2.833-2.832 2.826 2.826 0 0 0-2.833-2.833zM88.584 55.278h-20.37a2.84 2.84 0 0 0-2.833 2.833 2.84 2.84 0 0 0 2.832 2.832h20.371a2.84 2.84 0 0 0 2.833-2.832 2.826 2.826 0 0 0-2.833-2.833zM91.417 71.707a2.84 2.84 0 0 0-2.833-2.833h-20.37a2.84 2.84 0 0 0-2.833 2.833 2.84 2.84 0 0 0 2.832 2.833h20.371a2.826 2.826 0 0 0 2.833-2.833z"/></g></svg>