<svg xmlns="http://www.w3.org/2000/svg" width="128" height="128"><g fill="#fff" stroke="#000" stroke-width="13.891"><path d="M74.518 15.013c.794.597 1.56 1.254 2.28 2.006 8.722 9.102 9.374 27.07 9.354 32.735h5.78l-27.933 34.35-28.506-34.35h6.334c-.021-5.665.633-23.634 9.354-32.735a18.836 18.836 0 0 1 2.264-1.993C39.918 19.473 30.12 32.216 30.12 47.213c0 .02.005.038.005.058.003.107.016.212.033.32.009.06.015.122.028.181.022.096.055.19.088.282.023.066.043.132.07.194.036.081.082.157.128.235.04.069.078.138.124.203.016.022.025.047.042.07l32.125 37.207h-8.717c-4.202 0-7.622 3.42-7.622 7.623v11.645c0 4.204 3.42 7.623 7.622 7.623H75.01c4.203 0 7.623-3.42 7.623-7.623V93.586c0-4.204-3.42-7.623-7.623-7.623h-9.392l31.74-37.208c.018-.02.026-.045.042-.067.049-.067.088-.14.13-.211.044-.076.089-.15.124-.227.028-.066.05-.134.074-.203.032-.09.063-.18.085-.272.014-.063.02-.127.03-.19.015-.105.028-.208.03-.312 0-.02.006-.04.006-.06 0-15.01-9.815-27.763-23.36-32.2z" stroke-width="5.3373389300000005"/><path d="M61.436 49.753V13.24c-2.521.472-4.307.622-7.539 1.633-7.362 7.676-6.985 29.81-6.982 34.881zM74.082 14.872a138.51 138.51 0 0 0-7.539-1.633v36.514h14.522c.003-5.07-.293-30.273-6.983-34.88z" stroke-width="5.3373389300000005"/></g></svg>