<svg xmlns="http://www.w3.org/2000/svg" width="128" height="128"><g fill="#f6f6f6" stroke="#000"><path d="M25.903 62.212H64v48.256H31.155s-3.29.21-4.348-.818c-1.02-.993-.904-4.175-.904-4.175zm76.194 0H64v48.256h32.845s3.29.21 4.348-.818c1.02-.993.904-4.175.904-4.175z" stroke-width="7.297" stroke-linejoin="round"/><path d="M18.282 62.212v-20.14H64v20.14z" stroke-width="7.475"/><path d="M59.54 39.699l-5.373-12.895s-2.125-5.2-5.306-7.321c-5.008-3.338-11.773-1.985-15.111 3.022-3.339 5.008-1.986 11.774 3.022 15.112 3.181 2.12 8.798 2.082 8.798 2.082zm8.825-.157l5.373-12.896s2.125-5.2 5.306-7.32c5.007-3.339 11.773-1.985 15.111 3.022 3.339 5.008 1.985 11.773-3.022 15.112-3.181 2.12-8.798 2.082-8.798 2.082z" stroke-width="7.297"/><path d="M64 62.212v-20.14h45.718v20.14z" stroke-width="7.475"/></g></svg>