<svg xmlns="http://www.w3.org/2000/svg" width="128" height="128"><g stroke="#000" stroke-width="47.012" fill="#fff"><path d="M89.535 90.537c-1.06 8.108-9.57 13.088-17.443 10.884-2.343-.656-5.119-1.036-8.092-1.036-2.924 0-5.654.367-7.972 1.002-8.392 2.301-17.543-3.434-17.543-12.646a12.74 12.74 0 0 1 4.257-9.52s5.468-4.758 9.489-13.987c1.92-4.622 6.478-7.872 11.794-7.872 5.318 0 9.876 3.249 11.797 7.87 3.218 7.386 7.36 11.907 8.887 13.42 3.487 2.71 5.452 7.07 4.826 11.885zM39.169 57.006c2.9 5.615 1.879 11.91-2.284 14.061-4.162 2.15-9.89-.658-12.791-6.274-2.9-5.615-1.879-11.91 2.284-14.061 4.162-2.153 9.889.657 12.791 6.274zM78.923 26.129c4.418.522 7.492 6.536 6.712 13.134-.727 6.126-4.966 11.799-9.594 11.202-4.417-.52-7.49-6.536-6.71-13.135.711-6.007 4.894-11.808 9.592-11.201zM58.704 37.297c.402 3.385-.2 6.774-1.645 9.3-1.25 2.184-3.215 3.874-5.695 3.874-4.208 0-8.229-5.044-8.96-11.24-.4-3.382.2-6.774 1.645-9.301 1.235-2.158 3.188-3.87 5.693-3.87 4.208 0 8.23 5.04 8.962 11.237zM101.622 50.737c4.163 2.152 5.185 8.448 2.284 14.063-2.902 5.615-8.629 8.425-12.79 6.274-4.163-2.15-5.185-8.446-2.285-14.062 2.902-5.616 8.629-8.426 12.791-6.275z" stroke-width="7.94173716"/></g></svg>