<svg xmlns="http://www.w3.org/2000/svg" width="128" height="128"><path d="M64 27.87c-18.065 0-18.065 14.817-18.065 14.817v4.625h8.32v-4.069s.001-6.497 9.745-6.497 9.745 9.745 9.745 9.745v12.993H39.613c-1.502 0-2.71 1.41-2.71 3.164v34.318c0 1.753 1.208 3.164 2.71 3.164h48.774c1.502 0 2.71-1.41 2.71-3.164V62.648c0-1.753-1.208-3.164-2.71-3.164h-6.322v-13.55S82.065 27.87 64 27.87zm0 43.418a7.884 7.884 0 0 1 7.884 7.884A7.884 7.884 0 1 1 64 71.288z" fill="#fff" stroke="#000" stroke-width="5.4003418100000005"/></svg>