<svg xmlns="http://www.w3.org/2000/svg" width="128" height="128"><circle cx="64" cy="64" r="57.978" fill="none" stroke="#fff" stroke-width="8.931" stroke-linejoin="round"/><path d="M64 32c-16 0-16 16-16 16v4h7.37v-3.508s0-8.63 8.63-8.63 8.63 8.63 8.63 8.63V60H42.4c-1.33 0-2.4 1.25-2.4 2.803v30.394C40 94.75 41.07 96 42.4 96h43.2c1.33 0 2.4-1.25 2.4-2.803V62.803C88 61.25 86.93 60 85.6 60H80V48s0-16-16-16zm0 38.455a6.983 6.983 0 0 1 6.982 6.983A6.983 6.983 0 0 1 64 84.421a6.983 6.983 0 0 1-6.982-6.984A6.983 6.983 0 0 1 64 70.454z" fill="#fff"/></svg>