<svg xmlns="http://www.w3.org/2000/svg" width="128" height="128"><circle cx="64" cy="64" r="57.978" stroke-linejoin="round" stroke-width="8.931" stroke="#fff" fill="none"/><g fill="#fff"><path d="M72.92 22.509a15.816 15.816 0 0 1 1.934 1.7c7.398 7.72 7.951 22.96 7.934 27.764h3.438L64 81.107 41.774 51.973h3.42c-.018-4.804.537-20.044 7.934-27.764a15.975 15.975 0 0 1 1.92-1.69c-11.473 3.772-19.783 14.58-19.783 27.3 0 .016.005.031.005.049.003.09.014.18.028.27.007.052.013.105.024.155.018.081.046.16.074.24.02.054.037.11.06.163.03.07.07.134.108.2.034.058.066.117.105.172.014.018.022.04.036.058L59.78 82.684h-4.221a6.473 6.473 0 0 0-6.465 6.465v9.877c0 3.565 2.9 6.465 6.465 6.465h17.779c3.565 0 6.465-2.9 6.465-6.465V89.15c0-3.565-2.9-6.465-6.465-6.465h-5.12l24.075-31.558c.014-.017.022-.038.035-.056.041-.058.075-.119.11-.18.038-.064.076-.127.105-.192.024-.056.043-.114.063-.172.027-.077.054-.153.072-.231.012-.053.017-.108.025-.162a2.19 2.19 0 0 0 .027-.263c0-.018.005-.034.005-.052 0-12.73-8.325-23.547-19.814-27.31z"/><path d="M61.825 51.973v-27.88c-2.138.401-3.978 1.423-5.58 3.094-6.244 6.51-6.738 20.485-6.736 24.786zM71.738 27.187c-1.603-1.671-3.442-2.693-5.581-3.093v27.88h12.317c.002-4.302-.493-18.277-6.736-24.787z"/></g></svg>