<?xml version="1.0" encoding="UTF-8" standalone="no"?>
<svg width="148" height="148" version="1.1" id="svg1" sodipodi:docname="player-star.svg" inkscape:version="1.3.2 (091e20ef0f, 2023-11-25, custom)" xml:space="preserve" xmlns:inkscape="http://www.inkscape.org/namespaces/inkscape" xmlns:sodipodi="http://sodipodi.sourceforge.net/DTD/sodipodi-0.dtd" xmlns="http://www.w3.org/2000/svg" xmlns:svg="http://www.w3.org/2000/svg"><defs id="defs1" /><sodipodi:namedview id="namedview1" pagecolor="#ffffff" bordercolor="#000000" borderopacity="0.25" inkscape:showpageshadow="2" inkscape:pageopacity="0.0" inkscape:pagecheckerboard="0" inkscape:deskcolor="#d1d1d1" inkscape:zoom="0.53631757" inkscape:cx="262.90394" inkscape:cy="150.09764" inkscape:current-layer="svg1" /><path d="m 74,53.527 6.578,19.644 20.717,0.188 -16.65,12.328 6.224,19.76 L 74,93.419 57.13,105.447 63.355,85.687 46.705,73.359 67.422,73.171 Z" id="path3" style="fill:#ffffff;fill-opacity:1" /><path d="M74 12.43L58.166 59.704l-49.853.449L48.38 89.82l-14.977 47.554L74 108.433l40.596 28.941L99.619 89.82l40.069-29.666-49.854-.45zm0 41.097l6.578 19.644 20.717.188-16.65 12.328 6.224 19.76L74 93.419l-16.87 12.028 6.225-19.76-16.65-12.328 20.717-.188z" fill="#c9c9c9" stroke="#0a0a0a" stroke-width="6" id="path1" style="fill:#c9c9c9;fill-opacity:1" /></svg>
