<svg xmlns="http://www.w3.org/2000/svg" xmlns:xlink="http://www.w3.org/1999/xlink" width="148" height="148"><defs><linearGradient id="a"><stop offset="0" stop-color="#9b9b9b"/><stop offset="1" stop-color="#fff"/></linearGradient><linearGradient xlink:href="#a" id="b" gradientUnits="userSpaceOnUse" gradientTransform="rotate(-90 94.954 171.268) scale(1.70811)" x1="71.621" y1="99.306" x2="113.125" y2="99.306"/><linearGradient xlink:href="#a" id="c" gradientUnits="userSpaceOnUse" gradientTransform="rotate(-90 94.954 171.268) scale(1.70811)" x1="71.639" y1="76.797" x2="113.027" y2="76.797"/><linearGradient xlink:href="#a" id="d" gradientUnits="userSpaceOnUse" gradientTransform="rotate(-90 94.954 171.268) scale(1.70811)" x1="98.247" y1="107.222" x2="131.002" y2="107.222"/><linearGradient xlink:href="#a" id="e" gradientUnits="userSpaceOnUse" gradientTransform="rotate(-90 94.954 171.268) scale(1.70811)" x1="98.05" y1="68.832" x2="130.747" y2="68.832"/><linearGradient xlink:href="#a" id="f" gradientUnits="userSpaceOnUse" gradientTransform="rotate(-90 94.954 171.268) scale(1.70811)" x1="107.178" y1="99.68" x2="146.684" y2="78.911"/></defs><path d="M116.093 134.12a3.307 3.307 0 0 1-3.956 2.872 88.547 88.547 0 0 1-5.325-1.277c-16.4-4.469-48.524-18.138-33.133-54.695.102-.242.208-.485.313-.731 0 0 49.153-8.89 42.1 53.83zm0 0" fill="url(#b)" stroke="#090909" stroke-width="6"/><path d="M35.808 136.963a3.307 3.307 0 0 1-3.957-2.874 76.736 76.736 0 0 1-.188-1.927c-1.262-14.385-1.01-52.183 36.399-52.17 1.882 0 3.856.097 5.93.297 0 0 23.644 44.002-38.184 56.674zm0 0" fill="url(#c)" stroke="#090909" stroke-width="6"/><path d="M139.706 61.535a90.045 90.045 0 0 1-3.434 5.536c-9.5 14.14-31.515 38.334-60.209 14.976a63.659 63.659 0 0 1-2.07-1.758s6.734-49.494 64.204-23.404a3.305 3.305 0 0 1 1.509 4.65zm0 0" fill="url(#d)" stroke="#090909" stroke-width="6"/><path d="M73.992 80.289s-34.539 36.084-65.7-18.803a3.308 3.308 0 0 1 1.512-4.65 86.98 86.98 0 0 1 2.217-.963c13.563-5.67 48.65-16.404 60.249 18.164a61.243 61.243 0 0 1 1.722 6.252zm0 0" fill="url(#e)" stroke="#090909" stroke-width="6"/><path d="M78.197 77.589a62.806 62.806 0 0 1-4.205 2.7S29 58.592 71.573 11.996a3.306 3.306 0 0 1 4.89 0c.554.61 1.183 1.317 1.863 2.117 9.829 11.533 30.659 41.897-.13 63.476zm0 0" fill="url(#f)" stroke="#090909" stroke-width="6"/></svg>