<svg xmlns="http://www.w3.org/2000/svg" width="128" height="128"><path d="M69.928 125.64c24.87-2.787 44.8-22.667 47.636-47.536 3.723-32.517-21.551-60.197-53.233-60.551V2.966c0-.81-1.013-1.241-1.696-.735L32.599 24.29a.925.925 0 0 0 0 1.494l30.036 22.058c.683.507 1.696.051 1.696-.734V32.545c22.261.355 40.09 19.298 38.57 41.938-1.291 19.475-17.17 35.277-36.645 36.518-20.64 1.317-38.19-13.422-41.33-32.922-.582-3.621-3.748-6.255-7.395-6.255-4.533 0-8.078 4.027-7.37 8.51 4.407 27.78 30.061 48.623 59.767 45.305z" fill="#fff"/></svg>