<svg xmlns="http://www.w3.org/2000/svg" width="128" height="128"><path d="M-128.283 47.916V83.76h10.33V47.916h-10.33zm-5.371 7.909c-17.255 4.257-29.956 18.717-29.956 35.9 0 20.53 18.129 37.173 40.491 37.173 22.363 0 40.491-16.643 40.491-37.172 0-17.184-12.7-31.644-29.955-35.901v8.726c12.166 3.975 20.877 14.641 20.877 27.175 0 15.926-14.064 28.837-31.413 28.837-17.348 0-31.412-12.911-31.412-28.838 0-12.533 8.71-23.199 20.877-27.175v-8.726z" fill="#fff"/><path d="M36 31.273v65.454L100 64z" fill="#fff" stroke-width=".818"/></svg>