<svg xmlns="http://www.w3.org/2000/svg" viewBox="0 0 198.194 198.194"><path d="M132.447 46.884h-88.02l7.267-7.267c4.531-4.531 4.531-11.873 0-16.41-4.531-4.531-11.873-4.531-16.41 0l-27.07 27.07c-.005.005-.011.005-.011.005L0 58.491l8.202 8.197s.005.005.011.016L37.214 95.7a11.565 11.565 0 0 0 8.202 3.399c2.975 0 5.939-1.131 8.208-3.399 4.531-4.531 4.531-11.873 0-16.41l-9.197-9.197h88.02c23.459 0 42.544 19.091 42.544 42.544s-19.091 42.544-42.544 42.544H16.421c-6.413 0-11.607 5.194-11.607 11.602 0 6.407 5.194 11.602 11.607 11.602h116.026c36.257 0 65.747-29.496 65.747-65.747s-29.491-65.754-65.747-65.754z" fill="#fbfbfb"/></svg>