<svg xmlns="http://www.w3.org/2000/svg" width="148" height="148"><path d="M74.037 37.659a.075.075 0 0 0-.037 0l-.037-.003v.003c-15.86.194-28.713 13.148-28.713 29.054 0 15.91 12.852 28.858 28.713 29.055v.003c.012 0 .025 0 .037-.003l.037.003v-.003c15.864-.19 28.713-13.138 28.713-29.055.003-15.9-12.85-28.854-28.713-29.054z" fill="red"/><path d="M110.522 92.575c.897-1.302 1.503-2.676 1.763-3.994.28-1.388.205-2.69-.161-3.807l-.007-.006c-.006-.023-.013-.05-.02-.07a.504.504 0 0 1-.046-.135l-.006-.016c-.481-1.371-.54-3.068-.172-4.815l-.016-.01c.069-.297.142-.59.237-.89.264-.797.607-1.539.999-2.211 1.49-2.1 5.777-3.912 5.777-10.467 0-6.862-5.53-8.72-6.572-11.706-.026-.066-.059-.102-.085-.162-.056-.145-.112-.283-.162-.431-.662-2.093-.718-4.17-.171-5.807l.043-.112c.356-1.058.445-2.327.214-3.675h-.003v-.01c-.03-.171-.07-.342-.106-.517l-.003-.053c-.04-.155-.08-.313-.125-.468l-.037-.118a3.059 3.059 0 0 0-.131-.406l-.066-.178-.129-.326-.099-.257-.099-.211c-.056-.122-.108-.237-.168-.356l-.03-.056a11.97 11.97 0 0 0-.955-1.549l-.066-.089-.036-.046c-.999-1.355-2.192-2.406-3.428-3.095-1.232-.695-2.501-1.028-3.664-1.018h-.014c-.03 0-.052 0-.072-.003-.05.003-.092.006-.145.003h-.02c-1.447.04-3.085-.432-4.63-1.328l-.01.01a11.74 11.74 0 0 1-.765-.504c-1.77-1.306-3.025-2.957-3.54-4.601l-.039-.119c-.33-1.064-1.002-2.139-1.984-3.094v-.004a5.752 5.752 0 0 0-.392-.359l-.046-.043c-.122-.102-.244-.207-.372-.306l-.096-.076-.35-.254-.154-.105-.297-.195-.23-.141-.205-.116a5.949 5.949 0 0 0-.346-.188l-.056-.03a11.444 11.444 0 0 0-1.68-.695l-.106-.033-.066-.023c-1.602-.5-3.187-.649-4.594-.484-1.407.168-2.63.64-3.563 1.341l-.013.003c-.02.02-.043.033-.066.047a.377.377 0 0 1-.115.085l-.01.01c-1.157.89-2.749 1.463-4.532 1.655v.016c-.161.017-.326.02-.487.023-.165-.003-.33-.003-.488-.023v-.013c-1.783-.191-3.378-.765-4.532-1.655l-.01-.01c-.039-.03-.079-.052-.111-.092a.297.297 0 0 1-.066-.046l-.01-.003c-.936-.702-2.159-1.173-3.566-1.341-1.404-.165-2.986-.017-4.594.484l-.063.023-.105.036c-.594.191-1.154.429-1.681.696l-.056.03c-.115.059-.23.118-.346.187l-.204.116-.231.141-.297.195-.155.105-.342.247-.1.08c-.128.098-.25.2-.372.303l-.046.042a5.752 5.752 0 0 0-.392.36l-.003.003c-.982.956-1.651 2.033-1.981 3.095l-.04.122c-.51 1.644-1.766 3.298-3.536 4.6a11 11 0 0 1-.768.508l-.013-.013c-1.545.896-3.18 1.367-4.627 1.331h-.02c-.052.003-.098 0-.145-.003-.03.003-.046.003-.079.003h-.01c-1.17-.01-2.432.32-3.664 1.015-1.236.689-2.43 1.74-3.428 3.095l-.04.05-.065.091c-.37.498-.682 1.022-.956 1.55l-.03.052c-.056.119-.112.234-.164.356l-.1.21-.101.258-.129.33-.06.174c-.049.132-.095.27-.131.402l-.036.122a5.42 5.42 0 0 0-.126.468l-.01.056c-.039.172-.082.35-.108.514v.007c-.23 1.351-.142 2.617.217 3.678l.04.112c.547 1.638.49 3.714-.172 5.807-.046.145-.105.283-.161.428-.03.06-.063.099-.086.162-1.041 2.985-6.571 4.844-6.571 11.706 0 6.555 4.287 8.367 5.777 10.467.392.672.732 1.413.999 2.211.095.3.171.593.237.89l-.017.01c.373 1.746.317 3.444-.168 4.815l-.006.016a.504.504 0 0 1-.046.135.63.63 0 0 1-.02.07l-.007.006c-.369 1.117-.441 2.419-.161 3.806.26 1.315.866 2.693 1.763 3.995l-12.125 22.716h12.932l6.569 9.96 11.175-18.403c.089.089.148.198.244.283 1.041.953 2.412 1.764 4.014 2.288.593.194 1.186.332 1.77.425l.059.01c.135.02.264.033.389.05l.244.032.27.023.35.023h.734c.162-.01.327-.016.481-.033l.06-.003c.181-.017.356-.046.534-.07h.003c1.354-.2 2.528-.675 3.42-1.344l.096-.07c1.322-.984 3.217-1.565 5.303-1.627 2.086.066 3.981.643 5.303 1.628l.092.07c.893.668 2.066 1.15 3.424 1.344.181.023.353.052.534.069l.063.003c.158.017.323.023.48.033h.736l.349-.023.27-.023.244-.033c.125-.016.254-.03.389-.05l.06-.01c.586-.092 1.176-.23 1.77-.424 1.597-.524 2.968-1.335 4.016-2.288.093-.085.155-.194.241-.283l11.179 18.403 6.565-9.956h12.932zm-4.535-16.65a33.148 33.148 0 0 1-1.292 3.61 33.635 33.635 0 0 1-7.22 10.713A33.475 33.475 0 0 1 74 100.098c-4.426-.045-8.72-.922-12.767-2.632a33.615 33.615 0 0 1-10.708-7.218 33.49 33.49 0 0 1-7.22-10.714 34.065 34.065 0 0 1-1.292-3.608c-.402-1.47-1.358-5.395-1.358-9.508 0-5.21 1.358-9.508 1.358-9.508a33.707 33.707 0 0 1 1.292-3.612 33.562 33.562 0 0 1 7.224-10.708 33.57 33.57 0 0 1 10.707-7.22c4.05-1.71 8.341-2.587 12.767-2.63 4.426.043 8.72.92 12.77 2.63a33.556 33.556 0 0 1 10.705 7.22 33.481 33.481 0 0 1 7.22 10.708c.502 1.183.927 2.39 1.293 3.612 0 0 1.357 4.297 1.357 9.508-.003 4.113-.959 8.038-1.36 9.508z" fill="#c00"/></svg>