<svg xmlns="http://www.w3.org/2000/svg" width="64" height="64"><path d="M32 4.261c-13.184 0-23.834 10.65-23.834 23.834 0 8.778 4.723 16.428 11.77 20.562v11.082h4.684v-9.326c1.03.333 4.122 1.248 5.23 1.587l-.096 7.739h4.582L34.432 52c1.084-.24 3.939-1.204 4.961-1.587v9.326h4.653v-11.07c7.057-4.131 11.788-11.788 11.788-20.574 0-13.184-10.65-23.834-23.834-23.834zM19.878 21.593a7.073 7.073 0 1 1-.001 14.147 7.073 7.073 0 0 1 .001-14.147zm24.207 0a7.074 7.074 0 1 1-.002 14.148 7.074 7.074 0 0 1 .002-14.148zM31.994 31.877l5.882 9.468H26.112z" fill="#fff" stroke="#000" stroke-width="4"/></svg>