<svg xmlns="http://www.w3.org/2000/svg" width="128" height="128"><g fill="#fff"><path d="M126.989 54.903a2.661 2.661 0 0 0-2.411-1.531H116.7C111.693 26.195 87.828 5.535 59.225 5.535 26.989 5.535.759 31.765.759 64.001c0 32.237 26.227 58.464 58.466 58.464 20.805 0 40.207-11.198 50.635-29.217a5.314 5.314 0 0 0-1.943-7.263 5.305 5.305 0 0 0-7.258 1.937c-8.536 14.75-24.413 23.916-41.434 23.916-26.375 0-47.837-21.459-47.837-47.831 0-26.378 21.462-47.837 47.837-47.837 22.718 0 41.752 15.934 46.601 37.204h-7.815c-1.036 0-1.97.598-2.41 1.532a2.652 2.652 0 0 0 .365 2.828l13.289 15.944a2.658 2.658 0 0 0 4.082 0l13.288-15.944a2.656 2.656 0 0 0 .364-2.831z"/><path d="M59.225 18.824a5.314 5.314 0 0 0-5.315 5.315v32.25c-2.403 1.684-3.985 4.461-3.985 7.615 0 5.13 4.173 9.303 9.303 9.303a9.185 9.185 0 0 0 3.923-.899l18.488 10.67c.84.487 1.749.716 2.653.716a5.312 5.312 0 0 0 4.607-2.659 5.311 5.311 0 0 0-1.948-7.257L68.444 63.19a9.257 9.257 0 0 0-3.899-6.797V24.139a5.326 5.326 0 0 0-5.32-5.315z"/></g></svg>