<?xml version="1.0" encoding="UTF-8" standalone="no"?>
<svg
   xmlns:dc="http://purl.org/dc/elements/1.1/"
   xmlns:cc="http://creativecommons.org/ns#"
   xmlns:rdf="http://www.w3.org/1999/02/22-rdf-syntax-ns#"
   xmlns:svg="http://www.w3.org/2000/svg"
   xmlns="http://www.w3.org/2000/svg"
   xmlns:sodipodi="http://sodipodi.sourceforge.net/DTD/sodipodi-0.dtd"
   xmlns:inkscape="http://www.inkscape.org/namespaces/inkscape"
   width="56"
   height="232"
   version="1.1"
   id="svg854"
   sodipodi:docname="gun-usas-01.svg"
   inkscape:version="0.92.2 (5c3e80d, 2017-08-06)">
  <metadata
     id="metadata858">
    <rdf:RDF>
      <cc:Work
         rdf:about="">
        <dc:format>image/svg+xml</dc:format>
        <dc:type
           rdf:resource="http://purl.org/dc/dcmitype/StillImage" />
        <dc:title />
      </cc:Work>
    </rdf:RDF>
  </metadata>
  <sodipodi:namedview
     pagecolor="#ffffff"
     bordercolor="#666666"
     borderopacity="1"
     objecttolerance="10"
     gridtolerance="10"
     guidetolerance="10"
     inkscape:pageopacity="0"
     inkscape:pageshadow="2"
     inkscape:window-width="1920"
     inkscape:window-height="1017"
     id="namedview856"
     showgrid="true"
     fit-margin-top="1"
     fit-margin-left="1"
     fit-margin-bottom="1"
     fit-margin-right="1"
     inkscape:zoom="2.0354331"
     inkscape:cx="-49.253633"
     inkscape:cy="113.69034"
     inkscape:window-x="1912"
     inkscape:window-y="-8"
     inkscape:window-maximized="1"
     inkscape:current-layer="svg854"
     inkscape:showpageshadow="false"
     inkscape:object-paths="true"
     inkscape:snap-intersection-paths="true"
     inkscape:snap-smooth-nodes="true"
     inkscape:snap-midpoints="true">
    <inkscape:grid
       type="xygrid"
       id="grid816"
       empspacing="4"
       spacingy="2"
       spacingx="2"
       originx="0"
       originy="0" />
  </sodipodi:namedview>
  <defs
     id="defs850">
    <clipPath
       clipPathUnits="userSpaceOnUse"
       id="clipPath854">
      <path
         sodipodi:nodetypes="ccccccccccccc"
         inkscape:connector-curvature="0"
         id="path856"
         d="m 34,40 v 56 l 2,4 v 68 l -6,4 v 22 H 18 v -22 l -6,-4 v -68 l 2,-4 V 40 Z"
         style="fill:#515151;stroke-width:10.00078678;stroke-miterlimit:10;stroke-opacity:0.49000005" />
    </clipPath>
    <clipPath
       clipPathUnits="userSpaceOnUse"
       id="clipPath917">
      <path
         inkscape:connector-curvature="0"
         id="path919"
         d="m 24,9.9999981 c 7.479,0 13.5,12.9323089 13.5,28.9961399 V 165.00386 C 37.5,181.06769 31.479,194 24,194 16.521,194 10.5,181.06769 10.5,165.00386 V 38.996138 C 10.5,22.932307 16.521,9.9999981 24,9.9999981 Z"
         clip-path="none"
         style="fill:#7b673c;fill-opacity:1;stroke:none;stroke-width:7.8558445;stroke-miterlimit:10;stroke-dasharray:none;stroke-opacity:1" />
    </clipPath>
    <clipPath
       clipPathUnits="userSpaceOnUse"
       id="clipPath1007">
      <path
         sodipodi:nodetypes="ccccccccc"
         inkscape:connector-curvature="0"
         id="path1009"
         d="m 12,134 h 24 l 4,4 v 46 l -4,4 H 12 l -4,-4 v -46 z"
         style="fill:#353535;fill-opacity:1;stroke:none;stroke-width:18.05043411;stroke-linecap:round;stroke-linejoin:miter;stroke-miterlimit:10;stroke-dasharray:none;stroke-opacity:1" />
    </clipPath>
    <clipPath
       clipPathUnits="userSpaceOnUse"
       id="clipPath978">
      <path
         style="fill:#515151;stroke-width:10.00078678;stroke-miterlimit:10;stroke-opacity:0.49000005"
         clip-path="none"
         d="M 234.11719,84 232,120 v 32 h 28 v -32 l -2.11719,-36 z"
         id="path980"
         inkscape:connector-curvature="0" />
    </clipPath>
    <clipPath
       clipPathUnits="userSpaceOnUse"
       id="clipPath960">
      <path
         clip-path="none"
         style="fill:#515151;stroke-width:10.00078678;stroke-miterlimit:10;stroke-opacity:0.49000005"
         d="m 30,48 4,4 4,68 v 68 l -4,12 v 14 l 2,10 v 32 H 12 v -32 l 2,-10 v -14 l -4,-12 v -68 l 4,-68 4,-4 z"
         id="path962"
         inkscape:connector-curvature="0"
         sodipodi:nodetypes="ccccccccccccccccc" />
    </clipPath>
    <clipPath
       clipPathUnits="userSpaceOnUse"
       id="clipPath969">
      <path
         style="fill:#515151;stroke-width:11.47149086;stroke-miterlimit:10;stroke-opacity:0.49000005"
         d="m 38,76 4,4 v 36 l -4,4 H 10 L 6,116 V 80 l 4,-4 z"
         id="path971"
         inkscape:connector-curvature="0"
         sodipodi:nodetypes="ccccccccc"
         clip-path="none" />
    </clipPath>
    <clipPath
       clipPathUnits="userSpaceOnUse"
       id="clipPath934">
      <path
         style="fill:#515151;stroke-width:11.47149086;stroke-miterlimit:10;stroke-opacity:0.49000005"
         d="m 40,112 4,4 v 76 l -4,4 H 16 l -4,-4 v -76 l 4,-4 z"
         id="path936"
         inkscape:connector-curvature="0"
         sodipodi:nodetypes="ccccccccc" />
    </clipPath>
    <clipPath
       clipPathUnits="userSpaceOnUse"
       id="clipPath961">
      <path
         inkscape:connector-curvature="0"
         id="path963"
         d="M 18,68 14.11719,74 14,120 h 2 v 72 l 2,2 v 62 h 20 v -62 l 2,-2 v -72 h 2 L 42.11719,74 38,68 Z"
         clip-path="none"
         style="fill:#515151;stroke-width:10.00078678;stroke-miterlimit:10;stroke-opacity:0.49000005"
         sodipodi:nodetypes="ccccccccccccccc" />
    </clipPath>
    <clipPath
       clipPathUnits="userSpaceOnUse"
       id="clipPath994">
      <path
         inkscape:connector-curvature="0"
         id="path996"
         d="m 16,112 -4,4 v 17 l -2,1 v 27 l 2,1 v 30 l 4,4 h 24 l 4,-4 v -30 l 2,-1 v -27 l -2,-1 v -17 l -4,-4 z"
         style="fill:#515151;stroke-width:11.47149086;stroke-miterlimit:10;stroke-opacity:0.49000005"
         sodipodi:nodetypes="ccccccccccccccccc" />
    </clipPath>
  </defs>
  <path
     sodipodi:nodetypes="ccccccccccccccc"
     style="fill:#191c22;stroke-width:16;stroke-miterlimit:10;stroke-opacity:1;stroke:#000000;stroke-dasharray:none;fill-opacity:1"
     clip-path="url(#clipPath961)"
     d="M 18,68 14.11719,74 14,120 h 2 v 72 l 2,2 v 62 h 20 v -62 l 2,-2 v -72 h 2 L 42.11719,74 38,68 Z"
     id="path959"
     inkscape:connector-curvature="0" />
  <path
     sodipodi:nodetypes="ccccccccccccccccc"
     style="fill:#909090;stroke-width:16;stroke-miterlimit:10;stroke-opacity:1;stroke:#000000;stroke-dasharray:none;fill-opacity:1"
     d="m 16,112 -4,4 v 17 l -2,1 v 27 l 2,1 v 30 l 4,4 h 24 l 4,-4 v -30 l 2,-1 v -27 l -2,-1 v -17 l -4,-4 z"
     id="path992"
     inkscape:connector-curvature="0"
     clip-path="url(#clipPath994)" />
  <path
     sodipodi:nodetypes="ccccc"
     inkscape:connector-curvature="0"
     id="path927"
     d="M 22,70 V 24 h 12 v 46 z"
     style="fill:#000000;fill-opacity:1;stroke:none;stroke-width:18.88589287;stroke-linecap:round;stroke-linejoin:miter;stroke-miterlimit:4;stroke-dasharray:none;stroke-opacity:1" />
  <rect
     y="-16"
     x="78.488922"
     height="8.4527655"
     width="7.022151"
     id="rect1037"
     style="fill:#2c313b;fill-opacity:1;stroke:#000000;stroke-width:4;stroke-linecap:butt;stroke-linejoin:miter;stroke-miterlimit:10;stroke-dasharray:none;stroke-opacity:1"
     transform="rotate(90)" />
  <rect
     style="fill:#e0e0e0;fill-opacity:1;stroke:#000000;stroke-width:4;stroke-linecap:butt;stroke-linejoin:miter;stroke-miterlimit:10;stroke-dasharray:none;stroke-opacity:1"
     id="rect942"
     width="8"
     height="58"
     x="24"
     y="126" />
  <rect
     y="-128"
     x="-30"
     height="8"
     width="3.9999995"
     id="rect950"
     style="fill:#a4a4a4;fill-opacity:1;stroke:none;stroke-width:9.43958187;stroke-linecap:butt;stroke-linejoin:miter;stroke-miterlimit:10;stroke-dasharray:none;stroke-opacity:1"
     transform="scale(-1)" />
  <rect
     transform="scale(-1)"
     style="fill:#a4a4a4;fill-opacity:1;stroke:none;stroke-width:10.55377293;stroke-linecap:butt;stroke-linejoin:miter;stroke-miterlimit:10;stroke-dasharray:none;stroke-opacity:1"
     id="rect956"
     width="3.9999995"
     height="10"
     x="-30"
     y="-188" />
  <rect
     transform="rotate(90)"
     style="fill:#2c313b;fill-opacity:1;stroke:#000000;stroke-width:3;stroke-linecap:butt;stroke-linejoin:miter;stroke-miterlimit:10;stroke-dasharray:none;stroke-opacity:1"
     id="rect954"
     width="7.022151"
     height="8.4527655"
     x="170.97784"
     y="-32.226383" />
  <path
     style="fill:none;stroke:#000000;stroke-width:2;stroke-linecap:butt;stroke-linejoin:miter;stroke-miterlimit:4;stroke-dasharray:none;stroke-opacity:1"
     d="m 24.829062,76 v 36"
     id="path987"
     inkscape:connector-curvature="0" />
  <path
     inkscape:connector-curvature="0"
     id="path989"
     d="m 31.170938,76 v 36"
     style="fill:none;stroke:#000000;stroke-width:2;stroke-linecap:butt;stroke-linejoin:miter;stroke-miterlimit:4;stroke-dasharray:none;stroke-opacity:1" />
</svg>
