<svg xmlns="http://www.w3.org/2000/svg" width="64" height="64" viewBox="0 0 16.933 16.933"><path d="M8.98 8.46q0 .218-.141.372-.154.142-.372.142t-.36-.142q-.154-.154-.154-.372t.154-.359q.142-.154.36-.154t.372.154q.14.141.14.36m-7.698 0q0 1.808.834 3.271l.706-.706.988.988-1.604 1.579q-.475-.526-.834-1.104Q.255 10.706.255 8.46q0-2.976 1.95-5.132L3.848 4.97 2.82 5.997l-.744-.744Q1.28 6.69 1.28 8.46m14.371 0q0-1.77-.783-3.195l-.641.63L13.2 4.867l1.527-1.54q.513.564.886 1.18 1.064 1.758 1.064 3.952 0 2.207-1.077 3.965l-.886 1.168-1.63-1.63 1.027-1.026.744.744q.796-1.45.796-3.22" fill="#fff"/></svg>