<svg xmlns="http://www.w3.org/2000/svg" width="64" height="64" viewBox="0 0 16.933 16.933"><path d="M7.693.215v1.471A6.829 6.829 0 0 0 1.69 7.693H.215V9.24h1.471a6.829 6.829 0 0 0 6.007 6.003v1.475H9.24v-1.47a6.829 6.829 0 0 0 6.003-6.008h1.475V7.693h-1.47A6.829 6.829 0 0 0 9.24 1.69V.215zm0 2.745v1.897H9.24V2.96a5.567 5.567 0 0 1 4.734 4.733h-1.897V9.24h1.896a5.567 5.567 0 0 1-4.733 4.734v-1.897H7.693v1.896A5.567 5.567 0 0 1 2.96 9.24h1.897V7.693H2.96A5.567 5.567 0 0 1 7.693 2.96z" fill="#fff" paint-order="fill markers stroke"/></svg>