<svg xmlns="http://www.w3.org/2000/svg" width="64" height="64" viewBox="0 0 16.933 16.933"><path d="M3.598 3.598q-1.627 1.628-1.931 3.81H.595q.318-2.619 2.25-4.564Q4.788.913 7.407.595v1.072q-2.182.304-3.81 1.931m9.737 9.737q1.627-1.627 1.945-3.81h1.058q-.317 2.62-2.262 4.55-1.932 1.946-4.551 2.263V15.28q2.183-.318 3.81-1.945m0-9.737q-1.627-1.627-3.81-1.931V.595q2.62.318 4.55 2.25 1.946 1.944 2.263 4.563H15.28q-.318-2.182-1.945-3.81M6.879 6.88h1.058v1.058H6.88V6.88m2.117 0h1.058v1.058H8.996V6.88m0 2.117h1.058v1.058H8.996V8.996m-2.117 0h1.058v1.058H6.88V8.996M3.6 13.335q1.627 1.627 3.81 1.945v1.058q-2.62-.317-4.565-2.262Q.913 12.144.595 9.525h1.072q.304 2.183 1.931 3.81" fill="#fff"/></svg>