<svg xmlns="http://www.w3.org/2000/svg" width="64" height="64" viewBox="0 0 16.933 16.933"><path d="M11.642 8.467q0-.926-.45-1.654l-.609.595L9.525 6.35l.609-.595q-.741-.463-1.667-.463t-1.654.463l.595.595L6.35 7.408l-.595-.595q-.463.728-.463 1.654 0 .926.463 1.667l.595-.609 1.058 1.058-.595.609q.728.45 1.654.45.926 0 1.667-.45l-.609-.609 1.058-1.058.609.609q.45-.741.45-1.667m1.058 0q0 1.362-.754 2.42l.754.755-1.058 1.058-.754-.754-.305.198q-.939.556-2.116.556-1.363 0-2.421-.754l-.754.754-1.059-1.058.754-.754q-.754-1.059-.754-2.421 0-1.376.754-2.421l-.754-.754 1.059-1.059.754.754q1.045-.754 2.42-.754 1.178 0 2.117.556l.305.198.754-.754L12.7 5.292l-.754.754q.754 1.058.754 2.42" fill="#fff"/></svg>