<svg xmlns="http://www.w3.org/2000/svg" width="64" height="64" viewBox="0 0 16.933 16.933"><path d="M6.588 6.588l-.013.013q-.754.78-.754 1.866v.013q0 .542.185 1.005.198.463.582.86l.066.066q.754.702 1.813.702 1.058 0 1.812-.715l.053-.053.013-.013q.384-.384.582-.86.186-.463.186-1.005 0-1.098-.768-1.879-.582-.582-1.35-.714L8.48 5.82h-.013l-.53.053q-.754.132-1.336.7l-.013.014m1.35-4.471h1.058v2.685q1.204.146 2.09 1.032 1.085 1.085 1.085 2.633 0 .926-.397 1.693l2.222 1.773-.767.767-2.116-1.64-.027.026q-1.085 1.085-2.62 1.085-1.547 0-2.632-1.085l-.026-.026-2.104 1.64-.767-.767 2.222-1.773q-.396-.767-.396-1.693 0-1.535 1.071-2.62l.013-.013q.887-.886 2.09-1.032V2.117m1.059 6.35q0 .225-.159.37-.145.159-.37.159t-.384-.159q-.145-.145-.145-.37t.145-.384q.159-.146.384-.146t.37.146q.159.159.159.384" fill="#fff"/></svg>