<svg xmlns="http://www.w3.org/2000/svg" width="64" height="64" viewBox="0 0 16.933 16.933"><path d="M13.335 3.598q-2.01-2.01-4.868-2.01-2.858 0-4.869 2.01-2.01 2.011-2.01 4.869 0 2.857 2.01 4.868 2.011 2.01 4.869 2.01 2.857 0 4.868-2.01 2.01-2.01 2.01-4.868 0-2.858-2.01-4.869m3.07 4.869q0 3.294-2.33 5.609-2.314 2.328-5.608 2.328-3.294 0-5.623-2.328Q.53 11.76.53 8.466q0-3.293 2.315-5.622Q5.173.53 8.467.53t5.609 2.315q2.328 2.329 2.328 5.623" fill="#fff"/><path d="M8.996 8.467q0 .225-.159.37-.145.159-.37.159t-.384-.159q-.146-.145-.146-.37t.146-.384q.159-.146.384-.146t.37.146q.159.159.159.384" fill="#fff"/></svg>