<svg xmlns="http://www.w3.org/2000/svg" width="64" height="64" viewBox="0 0 16.933 16.933"><path d="M4.233 6.88V5.82l1.588-1.587h1.058v1.059H6.35L5.292 6.35v.53H4.233m4.763 1.587q0 .225-.159.37-.145.159-.37.159t-.384-.159q-.146-.145-.146-.37t.146-.384q.159-.146.384-.146t.37.146q.159.159.159.384M12.7 6.879h-1.058V6.35l-1.059-1.058h-.529V4.233h1.059L12.7 5.821v1.058m0 3.175v1.059L11.113 12.7h-1.059v-1.058h.53l1.058-1.059v-.529H12.7m-8.467 0h1.059v.53l1.058 1.058h.53V12.7H5.82l-1.587-1.587v-1.059" fill="#fff"/></svg>