<svg xmlns="http://www.w3.org/2000/svg" width="64" height="64" viewBox="0 0 16.933 16.933"><path d="M12.7 8.467q0 1.137-.53 2.063v1.112h-.912Q10.081 12.7 8.467 12.7q-1.628 0-2.805-1.058h-.9v-1.098q-.529-.926-.529-2.077 0-1.151.53-2.077V5.292h.886q1.19-1.059 2.818-1.059 1.614 0 2.804 1.059h.9V6.39q.529.926.529 2.077m-1.984-2.25q-.913-.899-2.17-.925h-.159q-1.27.026-2.17.926-.925.926-.925 2.249 0 1.31.926 2.249.9.9 2.17.926h.158q1.257-.027 2.17-.926.926-.94.926-2.25 0-1.322-.926-2.248m-1.72 2.249q0 .225-.159.37-.145.159-.37.159t-.384-.159q-.145-.145-.145-.37t.145-.384q.159-.146.384-.146t.37.146q.159.159.159.384" fill="#fff"/></svg>