<svg xmlns="http://www.w3.org/2000/svg" width="64" height="64" viewBox="0 0 16.933 16.933"><path d="M8.467 5.292L4.762 1.588l.53-.53 3.175 3.175 3.175-3.175.529.53-3.704 3.704M5.292 8.467L1.587 12.17l-.529-.53 3.175-3.174-3.175-3.175.53-.53 3.704 3.705m6.35 0l3.704-3.704.529.529L12.7 8.467l3.175 3.175-.53.529-3.703-3.704m-3.175 3.175l3.704 3.704-.53.529L8.468 12.7l-3.175 3.175-.53-.53 3.705-3.703M6.88 7.514l.634-.635.953.953.952-.953.635.635-.952.953.952.952-.635.635-.952-.952-.953.952-.635-.635.953-.952-.953-.953" fill="#fff"/></svg>