<svg width="289" height="289" viewBox="0 0 289 289" fill="none" xmlns="http://www.w3.org/2000/svg">
<g clip-path="url(#clip0)">
<path d="M167.44 9.9259C204.48 17.4169 220.637 24.171 242.586 47.3525C264.534 70.5262 279.762 105.406 281.522 142.444C283.289 179.475 270.235 218.206 246.551 242.911C222.874 267.617 188.576 278.281 155.072 280.049C121.561 281.808 96.9785 280.535 74.0169 267.919C51.0554 255.303 29.7381 231.361 20.7671 212.712C11.7961 194.071 7.96267 174.416 7.51491 152.806C7.075 131.195 10.0051 103.562 19.3767 82.7132C28.7483 61.8726 41.8079 47.3898 57.4168 35.041C73.0177 22.6922 85.7318 17.8899 102.975 13.2866C121.735 10.3769 132.315 7.69334 167.44 9.9259Z" fill="#55656A" stroke="#3E4837" stroke-width="18"/>
<path d="M145.187 9.10035C126.514 9.04964 117.046 11.1036 102.976 13.2859C85.7331 17.8892 73.0182 22.6929 57.4173 35.0418C41.8084 47.3906 28.7478 61.873 19.3762 82.7136C10.0047 103.562 7.075 131.195 7.51491 152.805C7.96267 174.416 11.7959 194.071 20.7669 212.712C29.7378 231.361 51.0553 255.303 74.0169 267.919C96.9784 280.535 121.562 281.809 155.074 280.05C188.577 278.282 222.874 267.616 246.55 242.911C270.234 218.205 283.29 179.475 281.523 142.444C279.763 105.406 264.533 70.526 242.585 47.3523C220.637 24.1708 204.481 17.4176 167.441 9.92652C158.659 9.36838 151.411 9.11725 145.187 9.10035ZM166.578 35.3822C196.601 40.7376 207.241 43.3342 229.189 66.5158C251.137 89.6894 253.772 110.867 256.447 143.329C258.214 180.36 253.786 197.012 230.102 221.717C206.426 246.423 183.529 254.3 161.008 257.288C127.497 259.047 114.788 259.905 92.5252 246.093C71.6992 233.172 59.4132 221.712 51.0525 207.335C31.2613 169.489 27.8115 147.056 37.362 114.808C45.8183 95.1879 52.2031 80.5319 72.9984 60.861C96.7277 40.2241 130.666 31.9661 166.578 35.3822Z" fill="#3576C8"/>
<path d="M204.567 66.2617C221.442 82.6271 236.817 109.604 218.48 127.941C200.149 146.272 162.528 142.018 148.119 125.49C138.527 110.733 130.96 88.4195 144.206 75.5345C171.115 50.7558 191.163 54.0358 204.567 66.2617Z" fill="#6AA2E9"/>
</g>
<defs>
<clipPath id="clip0">
<rect x="0.578125" y="0.895264" width="288" height="288" fill="white"/>
</clipPath>
</defs>
</svg>
