<?xml version="1.0" encoding="UTF-8" standalone="no"?>
<svg
   xmlns:dc="http://purl.org/dc/elements/1.1/"
   xmlns:cc="http://creativecommons.org/ns#"
   xmlns:rdf="http://www.w3.org/1999/02/22-rdf-syntax-ns#"
   xmlns:svg="http://www.w3.org/2000/svg"
   xmlns="http://www.w3.org/2000/svg"
   xmlns:xlink="http://www.w3.org/1999/xlink"
   xmlns:sodipodi="http://sodipodi.sourceforge.net/DTD/sodipodi-0.dtd"
   xmlns:inkscape="http://www.inkscape.org/namespaces/inkscape"
   width="1112"
   height="729"
   viewBox="0 0 294.21684 192.88125"
   version="1.1"
   id="svg306"
   sodipodi:docname="map-building-bathhouse-sideroom-02.svg"
   inkscape:version="0.92.2 (5c3e80d, 2017-08-06)"
   inkscape:export-filename="C:\Users\kjust\Desktop\projects\surviv\client\src\img\map\map-building-bathhouse-basement-01.png"
   inkscape:export-xdpi="256"
   inkscape:export-ydpi="256">
  <metadata
     id="metadata310">
    <rdf:RDF>
      <cc:Work
         rdf:about="">
        <dc:format>image/svg+xml</dc:format>
        <dc:type
           rdf:resource="http://purl.org/dc/dcmitype/StillImage" />
        <dc:title />
      </cc:Work>
    </rdf:RDF>
  </metadata>
  <sodipodi:namedview
     pagecolor="#ffffff"
     bordercolor="#666666"
     borderopacity="1"
     objecttolerance="10"
     gridtolerance="10"
     guidetolerance="10"
     inkscape:pageopacity="0"
     inkscape:pageshadow="2"
     inkscape:window-width="1920"
     inkscape:window-height="1017"
     id="namedview308"
     showgrid="true"
     fit-margin-top="12"
     fit-margin-left="12"
     fit-margin-bottom="12"
     fit-margin-right="12"
     inkscape:zoom="0.13657408"
     inkscape:cx="-93.000135"
     inkscape:cy="-887.68751"
     inkscape:window-x="1912"
     inkscape:window-y="-8"
     inkscape:window-maximized="1"
     inkscape:current-layer="svg306"
     inkscape:showpageshadow="false"
     showguides="false">
    <inkscape:grid
       type="xygrid"
       id="grid1117"
       empspacing="8"
       spacingy="1.0583336"
       spacingx="1.0583336"
       originx="4.8057646e-006"
       originy="1.2816711e-006"
       visible="true" />
  </sodipodi:namedview>
  <defs
     id="defs190">
    <pattern
       inkscape:collect="always"
       xlink:href="#pattern6695"
       id="pattern9606"
       patternTransform="matrix(0.26458341,0,0,0.26458341,147.10879,-30.429136)" />
    <clipPath
       id="o-0">
      <path
         style="fill:#252525;stroke-width:2.56800008"
         inkscape:connector-curvature="0"
         d="m -150.732,93.317 v 17.198 h 45.508 V 93.317 Z"
         id="path39-0" />
    </clipPath>
    <clipPath
       id="n-1">
      <path
         style="fill:#252525;stroke-width:2.56800008"
         inkscape:connector-curvature="0"
         d="m -150.732,93.317 v 17.198 h 45.508 V 93.317 Z"
         id="path36-6" />
    </clipPath>
    <pattern
       patternUnits="userSpaceOnUse"
       width="96.000107"
       height="96.000139"
       patternTransform="matrix(0.26458341,0,0,0.26458341,12.699975,76.199997)"
       id="pattern6695">
      <rect
         id="rect6651"
         y="0"
         x="0"
         height="96.000137"
         width="96.000107"
         style="fill:none;stroke:none;stroke-width:3.77952647" />
      <rect
         id="rect6653"
         y="0"
         x="0"
         height="96.000137"
         width="96.000107"
         style="fill:none;stroke:none;stroke-width:3.77952647" />
      <rect
         id="rect6655"
         y="0"
         x="0"
         height="96.000137"
         width="96.000107"
         style="fill:none;stroke:none;stroke-width:3.77952647" />
      <rect
         id="rect6657"
         y="0"
         x="0"
         height="96.000137"
         width="96.000107"
         style="fill:none;stroke:none;stroke-width:3.77952647" />
      <rect
         id="rect6659"
         y="0"
         x="0"
         height="96.000137"
         width="96.000107"
         style="fill:none;stroke:none;stroke-width:3.77952647" />
      <rect
         id="rect6661"
         y="0"
         x="0"
         height="96.000137"
         width="96.000107"
         style="fill:none;stroke:none;stroke-width:3.77952647" />
      <rect
         style="fill:none;stroke:none;stroke-width:3.77952647"
         width="96.000099"
         height="96.000137"
         x="0"
         y="0"
         id="rect6663" />
      <rect
         id="rect6665"
         y="0"
         x="2.8835499e-005"
         height="96.000061"
         width="96.000046"
         style="fill:none;stroke:none;stroke-width:3.77952647" />
      <rect
         id="rect6667"
         y="0"
         x="2.8835499e-005"
         height="96.000061"
         width="96.000046"
         style="fill:none;stroke:none;stroke-width:3.77952647" />
      <rect
         id="rect6669"
         y="0"
         x="2.8835499e-005"
         height="96.000061"
         width="96.000046"
         style="fill:none;stroke:none;stroke-width:3.77952647" />
      <rect
         id="rect6671"
         y="2.8835499e-005"
         x="2.8835499e-005"
         height="96.000038"
         width="96.000046"
         style="fill:none;stroke:none;stroke-width:3.77952647" />
      <rect
         y="2.8835499e-005"
         x="2.8835499e-005"
         height="96.000031"
         width="96.000031"
         id="rect6673"
         style="fill:#2e343a;fill-opacity:1;stroke:none;stroke-width:24.00000381;stroke-miterlimit:4;stroke-dasharray:none;stroke-opacity:0.68181817" />
      <g
         style="fill:#171a1d;fill-opacity:1"
         id="g6683"
         transform="matrix(3.7795264,0,0,3.7795264,-47.999891,-287.9999)">
        <rect
           style="fill:#171a1d;fill-opacity:1;stroke:none;stroke-width:2.24512744;stroke-linecap:square;stroke-linejoin:bevel;stroke-miterlimit:4;stroke-dasharray:none;stroke-opacity:1;paint-order:normal"
           id="rect6675"
           width="25.400015"
           height="0.52919626"
           x="12.69999"
           y="76.199997" />
        <rect
           y="101.07084"
           x="12.699983"
           height="0.52919626"
           width="25.400015"
           id="rect6677"
           style="fill:#171a1d;fill-opacity:1;stroke:none;stroke-width:2.24512744;stroke-linecap:square;stroke-linejoin:bevel;stroke-miterlimit:4;stroke-dasharray:none;stroke-opacity:1;paint-order:normal" />
        <rect
           y="-38.10001"
           x="76.200012"
           height="0.52919626"
           width="25.400015"
           id="rect6679"
           style="fill:#171a1d;fill-opacity:1;stroke:none;stroke-width:2.24512744;stroke-linecap:square;stroke-linejoin:bevel;stroke-miterlimit:4;stroke-dasharray:none;stroke-opacity:1;paint-order:normal"
           transform="rotate(90)" />
        <rect
           style="fill:#171a1d;fill-opacity:1;stroke:none;stroke-width:2.24512744;stroke-linecap:square;stroke-linejoin:bevel;stroke-miterlimit:4;stroke-dasharray:none;stroke-opacity:1;paint-order:normal"
           id="rect6681"
           width="25.400015"
           height="0.52919626"
           x="76.200005"
           y="-13.229173"
           transform="rotate(90)" />
      </g>
      <g
         style="fill:#121517;fill-opacity:1"
         id="g6693"
         transform="matrix(3.7795264,0,0,3.7795264,-47.999891,-287.9999)">
        <path
           style="fill:#121517;fill-opacity:1;stroke:none;stroke-width:1.67829144;stroke-miterlimit:4;stroke-dasharray:none;stroke-opacity:0.68181817"
           d="m 12.699991,76.200003 3.174998,2.3e-5 -3.175,3.175001 z"
           id="path6685"
           inkscape:connector-curvature="0"
           sodipodi:nodetypes="cccc" />
        <path
           sodipodi:nodetypes="cccc"
           inkscape:connector-curvature="0"
           id="path6687"
           d="M 12.699977,101.60003 12.7,98.425034 15.875,101.60004 Z"
           style="fill:#121517;fill-opacity:1;stroke:none;stroke-width:1.67829144;stroke-miterlimit:4;stroke-dasharray:none;stroke-opacity:0.68181817" />
        <path
           sodipodi:nodetypes="cccc"
           inkscape:connector-curvature="0"
           id="path6689"
           d="m 38.099981,101.60004 -3.174999,-2e-5 3.175001,-3.175004 z"
           style="fill:#121517;fill-opacity:1;stroke:none;stroke-width:1.67829144;stroke-miterlimit:4;stroke-dasharray:none;stroke-opacity:0.68181817" />
        <path
           style="fill:#121517;fill-opacity:1;stroke:none;stroke-width:1.67829144;stroke-miterlimit:4;stroke-dasharray:none;stroke-opacity:0.68181817"
           d="m 38.099995,76.200013 -2.3e-5,3.174996 -3.175001,-3.175006 z"
           id="path6691"
           inkscape:connector-curvature="0"
           sodipodi:nodetypes="cccc" />
      </g>
    </pattern>
    <clipPath
       clipPathUnits="userSpaceOnUse"
       id="clipPath9633">
      <path
         style="fill:#42080c;fill-opacity:1;stroke-width:2.24300003"
         d="M 0.0382464,-6.9125169e-6 V 177.80005 H 101.63828 V 160.86672 H 25.400006 V 25.400003 H 245.53342 V 160.86672 h -76.16179 v 16.93333 H 270.97168 V -6.9125169e-6 Z"
         id="path9635"
         inkscape:connector-curvature="0" />
    </clipPath>
    <pattern
       inkscape:collect="always"
       xlink:href="#pattern9584-0"
       id="pattern9600-9"
       patternTransform="matrix(0.18708872,-0.18708872,0.18708872,0.18708872,-89.95838,735.80636)" />
    <pattern
       patternUnits="userSpaceOnUse"
       width="80.000003"
       height="80.000334"
       patternTransform="matrix(0.26458341,0,0,0.26458341,67.733353,512.2334)"
       id="pattern9584-0">
      <rect
         id="rect9558-2"
         y="0"
         x="0"
         height="80.000336"
         width="80"
         style="fill:none;stroke:none;stroke-width:3.77952647" />
      <rect
         style="fill:none;stroke:none;stroke-width:3.77952647"
         width="80"
         height="80.000336"
         x="0"
         y="0"
         id="rect9562-8" />
      <rect
         id="rect9564-8"
         y="0"
         x="0"
         height="80.000336"
         width="79.999985"
         style="fill:none;stroke:none;stroke-width:3.77952647" />
      <rect
         id="rect9566-6"
         y="0"
         x="0"
         height="80.000336"
         width="79.999985"
         style="fill:none;stroke:none;stroke-width:3.77952647" />
      <rect
         style="fill:none;stroke:none;stroke-width:3.77952647"
         width="79.999985"
         height="80.000336"
         x="0"
         y="0"
         id="rect9568-0" />
      <rect
         style="fill:#702025;fill-opacity:1;stroke:none;stroke-width:20.00000381;stroke-miterlimit:4;stroke-dasharray:none;stroke-opacity:0.68181817"
         id="rect9570-4"
         width="79.999985"
         height="80.000046"
         x="0"
         y="0.00023068399" />
      <rect
         style="fill:none;stroke:none;stroke-width:3.7795279"
         width="79.999985"
         height="80.000107"
         x="0"
         y="0.00023068399"
         id="rect9572-9" />
      <rect
         style="fill:none;stroke:none;stroke-width:3.7795279"
         width="79.999977"
         height="80.000092"
         x="2.8835499e-005"
         y="0"
         id="rect9574-5" />
      <rect
         style="fill:none;stroke:none;stroke-width:3.7795279"
         width="63.999977"
         height="64.000038"
         x="15.999982"
         y="0"
         id="rect9576-3" />
      <path
         style="fill:#54181c;fill-opacity:1;stroke:none;stroke-width:8;stroke-miterlimit:4;stroke-dasharray:none;stroke-opacity:0.68181817"
         d="M 8.8398104e-6,8.1496039e-5 H 16.000037 L 15.999961,64.000163 H 79.999983 V 80.000184 L 8.8398104e-6,80.000108 Z"
         id="path9578-3"
         inkscape:connector-curvature="0"
         sodipodi:nodetypes="ccccccc" />
      <rect
         style="fill:#631b21;fill-opacity:1;stroke:none;stroke-width:8;stroke-miterlimit:4;stroke-dasharray:none;stroke-opacity:0.68181817"
         id="rect9580-9"
         width="32.000004"
         height="32.000004"
         x="47.999947"
         y="0" />
      <rect
         style="fill:#631b21;fill-opacity:1;stroke:none;stroke-width:8;stroke-miterlimit:4;stroke-dasharray:none;stroke-opacity:0.68181817"
         id="rect9582-13"
         width="32.000004"
         height="32.000004"
         x="15.999982"
         y="32.000023" />
    </pattern>
    <filter
       inkscape:collect="always"
       style="color-interpolation-filters:sRGB"
       id="filter1309"
       x="-0.010411764"
       width="1.0208235"
       y="-0.01416"
       height="1.02832">
      <feGaussianBlur
         inkscape:collect="always"
         stdDeviation="1.2488336"
         id="feGaussianBlur1311" />
    </filter>
    <clipPath
       clipPathUnits="userSpaceOnUse"
       id="clipPath2189">
      <path
         inkscape:connector-curvature="0"
         id="path2191-4"
         d="M 194.73442,-177.80212 V 16.933338 h -42.37158 l 0.007,67.733354 H 25.400007 V 203.20006 H 152.38092 l 0.0191,194.73339 H 84.666692 v 76.20002 H 0 v 8.46667 h 93.133361 l 0.0011,-76.20055 h 67.732289 l -0.0114,-118.48426 0.0486,-0.0486 -0.0372,-127.00001 h -0.0238 -8.4429 -0.0232 l 0.003,33.86668 H 33.866677 V 93.133361 H 152.37059 l 0.003,33.866679 h 0.0264 8.43928 0.0274 V 50.800015 l -0.0346,-0.03462 -0.003,-25.365381 H 296.33445 V -16.934372 H 220.09619 V -152.40108 H 440.2296 v 135.466708 h -76.16179 v 42.334379 h 135.42847 l 0.0372,237.066733 h 8.46667 V 228.60007 H 626.53352 V 330.2001 H 508.00015 v -33.86668 h -8.46667 V 397.93345 H 381.00011 v 160.86671 h 110.06667 v -67.73388 h -8.46666 V 550.3335 H 389.46678 V 406.40012 H 508.00015 V 338.66677 H 635.00019 V 220.1334 H 508.00015 l -0.0372,-203.200062 -42.29511,-10e-4 V -177.80109 Z m -50.80001,634.9976 v 33.87133 h 169.33235 v 76.20002 h 33.86668 V 457.19857 Z m 380.99905,33.87133 v 110.0667 H 347.13344 152.40004 V 541.86683 524.93349 H 0 v 8.46511 h 59.266684 l 8.466669,8.46616 76.200027,0.003 v 67.73338 H 330.2001 l 8.46667,8.46556 H 533.40013 V 491.0669 Z"
         style="fill:#42080c;fill-opacity:1;stroke-width:2.24300003"
         sodipodi:nodetypes="ccccccccccccccccccccccccccccccccccccccccccccccccccccccccccccccccccccccccccccccccccccccccccc" />
    </clipPath>
  </defs>
  <path
     inkscape:connector-curvature="0"
     style="fill:#130902;fill-opacity:0.94499966;stroke-width:1.89940774;filter:url(#filter1309)"
     d="M 3.174981,215.10632 3.174971,3.4396096 H 291.04171 V 215.10632 Z"
     id="path38-1"
     sodipodi:nodetypes="ccccc" />
  <path
     sodipodi:nodetypes="ccccccccc"
     style="fill:url(#pattern9606);fill-opacity:1;stroke-width:1.06904507"
     inkscape:connector-curvature="0"
     id="path2191"
     d="M 11.64209,28.837488 V 181.23755 l 93.13335,4e-5 v 8.46666 h 84.66669 v -8.46666 l 93.13339,-4e-5 -2e-5,-152.400062 z" />
  <path
     d="m -30.691737,206.63967 -8e-5,389.46669 H 324.9083 l 8e-5,-389.4667 H 189.44169 v -25.4 h -84.6667 v 25.4 z"
     id="path208-8"
     inkscape:connector-curvature="0"
     style="fill:url(#pattern9600-9);fill-opacity:1;stroke-width:1"
     sodipodi:nodetypes="ccccccccc" />
  <path
     sodipodi:nodetypes="ccccccccccccccccccccccccccccccccccccccccccccccccccccccccccccccccccccccccccccccccccccccccccc"
     style="fill:#42080c;fill-opacity:1;stroke:#050505;stroke-width:3.17500091;stroke-miterlimit:4;stroke-dasharray:none;stroke-opacity:1"
     d="M 194.73442,-177.80212 V 16.933338 h -42.37158 l 0.007,67.733354 H 25.400007 V 203.20006 H 152.38092 l 0.0191,194.73339 H 84.666692 v 76.20002 H 0 v 8.46667 h 93.133361 l 0.0011,-76.20055 h 67.732289 l -0.0114,-118.48426 0.0486,-0.0486 -0.0372,-127.00002 h -0.0238 -8.4429 -0.0232 l 0.003,33.86668 H 33.866677 V 93.133361 H 152.37059 l 0.003,33.866679 h 0.0264 8.43928 0.0274 V 50.800015 l -0.0346,-0.03462 -0.003,-25.365382 H 296.33445 V -16.934372 H 220.09619 V -152.40108 H 440.2296 v 135.466708 h -76.16179 v 42.334379 h 135.42847 l 0.0372,237.066733 h 8.46667 V 228.60007 H 626.53352 V 330.2001 H 508.00015 v -33.86668 h -8.46667 V 397.93345 H 381.00011 v 160.86671 h 110.06667 v -67.73388 h -8.46666 V 550.3335 H 389.46678 V 406.40012 H 508.00015 V 338.66677 H 635.00019 V 220.1334 H 508.00015 l -0.0372,-203.200062 -42.29511,-10e-4 V -177.80109 Z m -50.80001,634.9976 v 33.87133 h 169.33235 v 76.20002 h 33.86668 V 457.19857 Z m 380.99905,33.87133 v 110.0667 H 347.13344 152.40004 V 541.86683 524.93349 H 0 v 8.46511 h 59.266684 l 8.466669,8.46616 76.200027,0.003 v 67.73338 H 330.2001 l 8.46667,8.46556 H 533.40013 V 491.0669 Z"
     id="path2187"
     inkscape:connector-curvature="0"
     clip-path="url(#clipPath2189)"
     transform="translate(-183.05451,189.70631)" />
  <rect
     style="fill:#e5e5e5;fill-opacity:0.52020204;stroke:none;stroke-width:3.20077968;stroke-linecap:square;stroke-linejoin:miter;stroke-miterlimit:4;stroke-dasharray:none;stroke-opacity:1;paint-order:normal"
     id="rect9623"
     width="287.86673"
     height="186.26671"
     x="-372.53339"
     y="-10.318746" />
  <path
     id="path4296"
     d="m 274.37248,119.85377 h -17.19897 v 44.45044 h 17.19797 z"
     inkscape:connector-curvature="0"
     style="fill:#434343;fill-opacity:1;stroke-width:2.53818989" />
  <path
     inkscape:connector-curvature="0"
     id="path2189"
     d="m 104.77533,174.77103 v 4.33232 5e-5 4.33231 4.33238 h 84.6668 v -4.33236 -4.33232 -5e-5 -4.33233 z"
     style="fill:#555555;fill-opacity:1;stroke-width:0.22620679" />
  <path
     inkscape:connector-curvature="0"
     id="path9631"
     d="M 0.0382464,-6.9125168e-6 V 177.80005 H 101.63828 V 160.86672 H 25.400006 V 25.400003 H 245.53342 V 160.86672 h -76.16179 v 16.93333 H 270.97167 V -6.9125168e-6 Z"
     style="fill:#4b3e2c;fill-opacity:1;stroke:#050505;stroke-width:3.17500091;stroke-miterlimit:4;stroke-dasharray:none;stroke-opacity:1"
     clip-path="url(#clipPath9633)"
     transform="translate(11.642089,11.904198)" />
  <path
     id="path4298"
     transform="matrix(0,0.99999849,-0.99999849,0,367.68934,225.07762)"
     d="m -150.732,93.317 v 17.198 h 45.508 V 93.317 Z"
     clip-path="url(#o-0)"
     style="fill:#252525;stroke:#191919;stroke-width:3.17499995"
     inkscape:connector-curvature="0" />
  <path
     inkscape:connector-curvature="0"
     style="fill:#252525;stroke:#191919;stroke-width:3.17499995"
     clip-path="url(#n-1)"
     d="m -150.732,93.317 v 17.198 h 45.508 V 93.317 Z"
     transform="matrix(0,0.99999849,-0.99999849,0,367.69034,269.52847)"
     id="path4312" />
  <path
     style="fill:#434343;fill-opacity:1;stroke-width:2.53818989"
     inkscape:connector-curvature="0"
     d="M 20.10876,118.7967 H 37.30773 V 74.346258 H 20.10976 Z"
     id="path4266" />
  <path
     inkscape:connector-curvature="0"
     style="fill:#252525;stroke:#191919;stroke-width:3.17499995"
     clip-path="url(#o-0)"
     d="m -150.732,93.317 v 17.198 h 45.508 V 93.317 Z"
     transform="matrix(0,-0.99999849,0.99999849,0,-73.208097,13.572847)"
     id="path4268" />
  <path
     id="path4282"
     transform="matrix(0,-0.99999849,0.99999849,0,-73.209097,-30.878002)"
     d="m -150.732,93.317 v 17.198 h 45.508 V 93.317 Z"
     clip-path="url(#n-1)"
     style="fill:#252525;stroke:#191919;stroke-width:3.17499995"
     inkscape:connector-curvature="0" />
</svg>
