<svg xmlns="http://www.w3.org/2000/svg" width="144" height="144" viewBox="0 0 38.1 38.1"><path d="M18.898 12.988c-1.074-.704-2.221-.857-3.273-.719-1.24.163-2.34.747-2.938 1.29-1.289 1.174-1.343 2.58-.805 3.493.812-1.672 2.29-2.742 3.907-2.98-1.5.558-2.775 2.078-3.285 3.642.186.123.394.211.619.259.516.109 1.13.008 1.8-.44.708-.472 1.292-1.672 1.956-2.737.332-.533.69-1.032 1.141-1.386.258-.202.553-.35.878-.422z" fill="#28a200" stroke="#191919" stroke-width=".403"/><path d="M19.265 25.389a2.26 2.26 0 0 0 .845-.554c.415-.425.717-.987.986-1.58.54-1.185.978-2.499 1.642-3.08.629-.552 1.246-.738 1.792-.695.237.018.463.08.672.181-.313 1.678-1.42 3.414-2.887 4.191 1.632-.464 3.007-1.765 3.615-3.595.678.866.812 2.321-.355 3.703-.54.64-1.594 1.388-2.847 1.724-1.063.285-2.263.283-3.463-.295z" fill="#28a200" stroke="#191919" stroke-width=".419"/><path d="M16.911 24.797s-.701-2.003-5.458-5.458c0 0 3.132 4.705 3.49 8.25 0 0 .712-2.388 1.968-2.792zm8.399-9.225c-1.346-2.558-3.006-2.199-3.006-2.199-1.84.225-2.29 1.257-2.29 1.257s2.2 2.423 5.027 3.006c0 0-.763-1.48.27-2.064z" fill="#822e0c" stroke="#000" stroke-width=".397"/></svg>