<svg xmlns="http://www.w3.org/2000/svg" xmlns:xlink="http://www.w3.org/1999/xlink" width="160" height="90" viewBox="0 0 42.333 23.813"><defs><pattern xlink:href="#a" id="c" patternTransform="translate(2.117 261.017) scale(.26458)"/><pattern xlink:href="#b" id="a" patternTransform="translate(24 -62)"/><pattern patternUnits="userSpaceOnUse" width="67.999" height="20" patternTransform="translate(2.117 261.017) scale(.26458)" id="b"><path d="M0 20V10h68v10z" fill="#6d3300"/><path d="M0 10V0h68v10z" fill="#7c3d00"/></pattern><clipPath id="d"><rect width="42.333" height="21.696" x="-4.233" y="277.421" rx="2.117" ry="2.117" fill="url(#c)" stroke-width="3.195"/></clipPath><pattern patternUnits="userSpaceOnUse" width="2" height="20" patternTransform="translate(39.688 279.008) scale(.26458)" id="e"><path fill="#7c3d00" stroke-width="6.325" d="M0 0h2v20H0z"/><path fill="#6d3300" stroke-width="4" d="M0 0h2v10H0z"/></pattern></defs><g transform="translate(4.233 -277.42)"><ellipse cx="27.517" cy="298.852" rx="1.852" ry="1.852" fill="#4f4f4f" stroke="#191919" stroke-width="1.058" stroke-miterlimit="10"/><ellipse cx="6.35" cy="298.852" rx="1.852" ry="1.852" fill="#4f4f4f" stroke="#191919" stroke-width="1.058" stroke-miterlimit="10"/><rect ry="2.117" rx="2.117" y="277.421" x="-4.233" height="21.696" width="42.333" clip-path="url(#d)" fill="url(#e)" stroke="#191919" stroke-width="3.175"/><path d="M24.865 276.867c-.085.093-.836.04-.937.11-.102.07-.307.621-.422.666-.115.046-.63-.197-.753-.186-.123.01-.638.396-.76.378-.123-.018-.47-.613-.585-.657-.114-.045-.882.29-.984.22-.102-.07-.196-.832-.282-.923-.087-.091-.66-.19-.716-.302-.056-.113.14-.759.105-.877-.035-.118-.539-.455-.538-.58 0-.126.557-.58.585-.7.027-.122-.289-.825-.234-.938.055-.113.874-.309.96-.4.084-.092.055-.794.156-.87.1-.076.852.282.97.24.116-.042.442-.76.566-.769.123-.01.58.617.704.631.124.015.76-.473.877-.43.116.042.236.87.338.94.102.07.853-.002.937.087.083.09-.112.657-.06.77.053.112.672.495.706.616.033.12-.312.562-.307.687.005.125.348.813.316.933-.032.12-.574.288-.631.4-.057.113.075.862-.01.954z" transform="matrix(1.0531 -.608 .61836 1.07102 -176.378 7.821)" fill="#408602" stroke="#191919" stroke-width=".647"/><path d="M18.432 289.763c-.066.07-.513.102-.584.164-.072.062.07.177-.013.215-.083.038-.483-.123-.574-.098-.09.025-.178.336-.271.342-.093.005-.241-.101-.332-.122-.09-.021-.375.141-.465.11-.09-.033-.06-.311-.144-.356-.084-.045-.51-.011-.573-.077-.064-.065-.051-.28-.106-.359-.055-.079-.273-.196-.32-.275-.045-.08.017-.342.001-.436-.015-.095-.13-.291-.144-.383-.013-.091.237-.241.24-.334.005-.092-.117-.261-.08-.35.039-.09.202-.236.246-.317.044-.082.064-.398.123-.47.058-.07.286.045.356-.018s.176-.35.257-.399c.082-.048.243-.095.333-.113.09-.019.182-.112.272-.124.09-.013.465.258.56.274.093.017.28-.208.369-.177.088.031.158.26.235.309.077.048.272-.066.346-.007.074.06.036.364.093.437.058.072.298.28.332.366.034.087-.03.26-.014.35.015.092.385.287.385.383-.001.096-.218.13-.228.224-.01.092.117.478.08.568-.036.09-.217.155-.258.237-.042.082-.057.365-.122.436z" fill="#93cc61"/></g></svg>