<svg xmlns="http://www.w3.org/2000/svg" width="100" height="100" viewBox="0 0 26.458 26.458"><defs><clipPath id="c"><path d="M61.383 253.608c0 5.262-3.83 12.167-8.625 12.167-4.794 0-8.624-6.905-8.624-12.167 0-5.261 3.861-9.517 8.624-9.517 4.764 0 8.625 4.256 8.625 9.517z" fill="#939393" stroke-width="2.96"/></clipPath><clipPath id="b"><path d="M52.917 283.242c0 5.261-3.83 12.166-8.625 12.166s-8.625-6.905-8.625-12.166c0-5.262 3.861-9.518 8.625-9.518 4.763 0 8.625 4.256 8.625 9.518z" fill="#939393" stroke-width="2.96"/></clipPath><clipPath id="a"><path fill="#fff" stroke-width="16.285" d="M172.608-141.712h16.933v15.226h-16.933z"/></clipPath></defs><g transform="translate(-8.302 -262.6)"><path clip-path="url(#a)" transform="translate(-159.537 404.582)" fill="#797979" stroke="#2d2d2d" stroke-width="3.175" d="M172.608-141.712h16.933v15.226h-16.933z"/><path transform="translate(-22.754 -6.62)" clip-path="url(#b)" d="M52.917 283.242c0 5.261-3.83 12.166-8.625 12.166s-8.625-6.905-8.625-12.166c0-5.262 3.861-9.518 8.625-9.518 4.763 0 8.625 4.256 8.625 9.518z" fill="#bdbdbd" stroke="#9e9e9e" stroke-width="8.467"/><path d="M23.073 276.092c0 1.192-.688 2.766-1.535 2.766-.848 0-1.535-1.574-1.535-2.766s.687-1.55 1.535-1.55c.847 0 1.535.358 1.535 1.55z" fill="#2d2d2d"/><path transform="translate(-31.233 23.013)" clip-path="url(#c)" d="M61.383 253.608c0 5.262-3.83 12.167-8.625 12.167-4.794 0-8.624-6.905-8.624-12.167 0-5.261 3.861-9.517 8.624-9.517 4.764 0 8.625 4.256 8.625 9.517z" fill="none" stroke="#2d2d2d" stroke-width="2.96"/><rect width="1.753" height="6.35" x="-155.884" y="-230.979" ry="2.117" rx=".876" transform="rotate(-150)" fill="#5f3f14"/></g></svg>