<svg xmlns="http://www.w3.org/2000/svg" width="544" height="544" viewBox="0 0 143.933 143.933"><defs><clipPath id="d"><path d="M21.167 21.167h5.82l.53-.53h20.108l.53.53h4.762l1.058-1.059h16.933l1.059 1.059h5.82l.53-.53H88.9l.53.53h3.703l1.059-1.059h13.758l1.058 1.059h5.292L67.733 67.733z" fill="#ab7421" stroke-width=".416"/></clipPath><clipPath id="c"><path d="M2.117 2.117h6.879l1.058-1.059H38.1l1.058 1.059h7.938l.529-.53h24.342l.529.53H82.55l1.058-1.059h14.288l1.058 1.059h6.88l.528-.53h19.58l.529.53h6.879L67.733 67.733z" fill="#8a5e1a" stroke-width=".605"/></clipPath><clipPath id="e"><path d="M37.57 37.57h12.7l.53.53h3.175l1.058-1.058h12.7l1.059 1.058h2.646l.529-.53h8.466l.53.53h3.175l1.058-1.058h6.879l1.058 1.058h4.234L67.733 67.733z" fill="#cc8b27" stroke-width=".265"/></clipPath><pattern patternUnits="userSpaceOnUse" width="136" height="112" patternTransform="matrix(.26458 0 0 .26458 103.717 -35.983)" id="b"><path fill="none" stroke-width="3.78" d="M0 0h136v112H0z"/><path fill="none" stroke-width="3.78" d="M0 0h136v112H0z"/><path fill="none" stroke-width="3.78" d="M0 0h136v112H0z"/><path fill="none" stroke-width="3.78" d="M0 0h136v112H0z"/><path fill="none" stroke-width="3.78" d="M0 0h136v112H0z"/><path fill="#ed9c1f" stroke-width="8.662" stroke-linecap="round" d="M0 0h136v112H0z"/><path fill-opacity=".176" stroke-width="7.286" stroke-miterlimit="10" d="M32 0h4v112h-4zM48 0h4v112h-4zM0 0h4v112H0zM72 0h4v112h-4zM112 0h4v112h-4z"/></pattern><clipPath id="a"><path d="M94.72 143.404h-4.232l-.53-.529h-3.175l-1.058 1.058h-12.7l-1.058-1.058H69.32l-.53.53h-8.466l-.53-.53H49.743L38.1 131.233h67.733z" fill="#cc8b27" stroke-width=".265"/></clipPath></defs><path d="M94.72 143.404h-4.232l-.53-.529h-3.175l-1.058 1.058h-12.7l-1.058-1.058H69.32l-.53.53h-8.466l-.53-.53H49.743L38.1 131.233h67.733z" clip-path="url(#a)" fill="url(#b)" stroke="#000" stroke-width="2.117"/><path d="M2.117 2.117h6.879l1.058-1.059H38.1l1.058 1.059h7.938l.529-.53h24.342l.529.53H82.55l1.058-1.059h14.288l1.058 1.059h6.88l.528-.53h19.58l.529.53h6.879L67.733 67.733z" clip-path="url(#c)" transform="translate(4.233 4.233)" fill="url(#b)" stroke="#000" stroke-width="2.117"/><path d="M6.35 6.35h6.88l1.058-1.058h28.045l1.059 1.058h7.937l.53-.53H76.2l.53.53h10.053l1.059-1.058h14.287l1.058 1.058h6.88l.529-.53h19.579l.53.53h6.878L71.967 71.967z" fill-opacity=".196"/><path d="M21.167 21.167h5.82l.53-.53h20.108l.53.53h4.762l1.058-1.059h16.933l1.059 1.059h5.82l.53-.53H88.9l.53.53h3.703l1.059-1.059h13.758l1.058 1.059h5.292L67.733 67.733z" clip-path="url(#d)" transform="translate(4.233 4.233)" fill="url(#b)" stroke="#000" stroke-width="2.117"/><path d="M42.333 42.333h4.234v-.529h8.466v.53h4.234v-1.059h12.7v1.058H76.2v-.529h8.467v.53H88.9v-1.059h8.467v1.058h4.233L71.967 71.967z" fill="#cc8b27"/><path d="M25.4 25.4h5.82l.53-.53h20.108l.53.53h4.762l1.058-1.058h16.934L76.2 25.4h5.82l.53-.53h10.583l.53.53h3.704l1.058-1.058h13.758l1.059 1.058h5.291L71.967 71.967z" fill-opacity=".098"/><path d="M37.57 37.57h12.7l.53.53h3.175l1.058-1.058h12.7l1.059 1.058h2.646l.529-.53h8.466l.53.53h3.175l1.058-1.058h6.879l1.058 1.058h4.234L67.733 67.733z" clip-path="url(#e)" transform="translate(4.233 4.233)" fill="url(#b)" stroke="#000" stroke-width="2.117"/><path d="M2.117 2.117h6.879l1.058-1.059H38.1l1.058 1.059h7.938l.529-.53h24.342l.529.53H82.55l1.058-1.059h14.288l1.058 1.059h6.88l.528-.53h19.58l.529.53h6.879L67.733 67.733z" clip-path="url(#c)" fill="url(#b)" stroke="#000" stroke-width="2.117" transform="rotate(90 67.733 71.967)"/><path d="M137.583 6.35v6.88l1.059 1.058v28.045l-1.059 1.059v7.937l.53.53V76.2l-.53.53v10.053l1.059 1.059v14.287l-1.059 1.059v6.879l.53.529v19.579l-.53.53v6.878L71.967 71.967z" fill-opacity=".196"/><path d="M21.167 21.167h5.82l.53-.53h20.108l.53.53h4.762l1.058-1.059h16.933l1.059 1.059h5.82l.53-.53H88.9l.53.53h3.703l1.059-1.059h13.758l1.058 1.059h5.292L67.733 67.733z" clip-path="url(#d)" fill="url(#b)" stroke="#000" stroke-width="2.117" transform="rotate(90 67.733 71.967)"/><path d="M101.6 42.333v4.234h.53v8.466h-.53v4.234h1.058v12.7H101.6V76.2h.53v8.467h-.53V88.9h1.058v8.467H101.6v4.233L71.967 71.967z" fill="#cc8b27"/><path d="M118.533 25.4v5.82l.53.53v20.108l-.53.53v4.762l1.059 1.058v16.934l-1.059 1.058v5.82l.53.53v10.583l-.53.53v3.704l1.059 1.058v13.758l-1.059 1.059v5.291L71.967 71.967z" fill-opacity=".098"/><path d="M37.57 37.57h12.7l.53.53h3.175l1.058-1.058h12.7l1.059 1.058h2.646l.529-.53h8.466l.53.53h3.175l1.058-1.058h6.879l1.058 1.058h4.234L67.733 67.733z" clip-path="url(#e)" fill="url(#b)" stroke="#000" stroke-width="2.117" transform="rotate(90 67.733 71.967)"/><g><path clip-path="url(#c)" d="M2.117 2.117h6.879l1.058-1.059H38.1l1.058 1.059h7.938l.529-.53h24.342l.529.53H82.55l1.058-1.059h14.288l1.058 1.059h6.88l.528-.53h19.58l.529.53h6.879L67.733 67.733z" fill="url(#b)" stroke="#000" stroke-width="2.117" transform="rotate(180 69.85 69.85)"/><path d="M137.583 137.583h-6.879l-1.058 1.059H101.6l-1.058-1.059h-7.938l-.529.53H67.733l-.529-.53H57.15l-1.058 1.059H41.804l-1.058-1.059h-6.88l-.529.53H13.758l-.529-.53H6.35l65.617-65.616z" fill-opacity=".196"/><path clip-path="url(#d)" d="M21.167 21.167h5.82l.53-.53h20.108l.53.53h4.762l1.058-1.059h16.933l1.059 1.059h5.82l.53-.53H88.9l.53.53h3.703l1.059-1.059h13.758l1.058 1.059h5.292L67.733 67.733z" fill="url(#b)" stroke="#000" stroke-width="2.117" transform="rotate(180 69.85 69.85)"/><path d="M101.6 101.6h-4.233v.53H88.9v-.53h-4.233v1.058h-12.7V101.6h-4.234v.53h-8.466v-.53h-4.234v1.058h-8.466V101.6h-4.234l29.634-29.633z" fill="#cc8b27"/><path d="M118.533 118.533h-5.82l-.53.53H92.075l-.53-.53h-4.762l-1.058 1.059H68.792l-1.059-1.059h-5.82l-.53.53H50.8l-.53-.53h-3.703l-1.059 1.059H31.75l-1.058-1.059H25.4l46.567-46.566z" fill-opacity=".098"/><path clip-path="url(#e)" d="M37.57 37.57h12.7l.53.53h3.175l1.058-1.058h12.7l1.059 1.058h2.646l.529-.53h8.466l.53.53h3.175l1.058-1.058h6.879l1.058 1.058h4.234L67.733 67.733z" fill="url(#b)" stroke="#000" stroke-width="2.117" transform="rotate(180 69.85 69.85)"/></g><g><path d="M2.117 2.117h6.879l1.058-1.059H38.1l1.058 1.059h7.938l.529-.53h24.342l.529.53H82.55l1.058-1.059h14.288l1.058 1.059h6.88l.528-.53h19.58l.529.53h6.879L67.733 67.733z" clip-path="url(#c)" fill="url(#b)" stroke="#000" stroke-width="2.117" transform="rotate(-90 71.967 67.733)"/><path d="M6.35 137.583v-6.879l-1.058-1.058V101.6l1.058-1.058v-7.938l-.53-.529V67.733l.53-.529V57.15l-1.058-1.058V41.804l1.058-1.058v-6.88l-.53-.529V13.758l.53-.529V6.35l65.617 65.617z" fill-opacity=".196"/><path d="M21.167 21.167h5.82l.53-.53h20.108l.53.53h4.762l1.058-1.059h16.933l1.059 1.059h5.82l.53-.53H88.9l.53.53h3.703l1.059-1.059h13.758l1.058 1.059h5.292L67.733 67.733z" clip-path="url(#d)" fill="url(#b)" stroke="#000" stroke-width="2.117" transform="rotate(-90 71.967 67.733)"/><path d="M42.333 101.6v-4.233h-.529V88.9h.53v-4.233h-1.059v-12.7h1.058v-4.234h-.529v-8.466h.53v-4.234h-1.059v-8.466h1.058v-4.234l29.634 29.634z" fill="#cc8b27"/><path d="M25.4 118.533v-5.82l-.53-.53V92.075l.53-.53v-4.762l-1.058-1.058V68.792l1.058-1.059v-5.82l-.53-.53V50.8l.53-.53v-3.703l-1.058-1.059V31.75l1.058-1.058V25.4l46.567 46.567z" fill-opacity=".098"/><path d="M37.57 37.57h12.7l.53.53h3.175l1.058-1.058h12.7l1.059 1.058h2.646l.529-.53h8.466l.53.53h3.175l1.058-1.058h6.879l1.058 1.058h4.234L67.733 67.733z" clip-path="url(#e)" fill="url(#b)" stroke="#000" stroke-width="2.117" transform="rotate(-90 71.967 67.733)"/></g><circle cx="71.967" cy="71.967" r="12.217" fill="#dda44c" stroke="#000" stroke-width="2.117" stroke-linecap="round"/><path d="M12.739 63.797c.251 4.872 1.553 6.701 1.553 6.701s.59-7.868 2.112-12.523c0 0-1.455.73-3.665 5.822zM20.108 74.083c2.62-4.116 2.62-6.36 2.62-6.36s-5.042 6.069-8.98 8.98c0 0 1.609.248 6.36-2.62z" fill="#43c900" stroke="#000" stroke-width="1.058"/></svg>