<?xml version="1.0" encoding="UTF-8" standalone="no"?>
<svg
   xmlns:dc="http://purl.org/dc/elements/1.1/"
   xmlns:cc="http://creativecommons.org/ns#"
   xmlns:rdf="http://www.w3.org/1999/02/22-rdf-syntax-ns#"
   xmlns:svg="http://www.w3.org/2000/svg"
   xmlns="http://www.w3.org/2000/svg"
   xmlns:sodipodi="http://sodipodi.sourceforge.net/DTD/sodipodi-0.dtd"
   xmlns:inkscape="http://www.inkscape.org/namespaces/inkscape"
   width="144"
   height="144"
   viewBox="0 0 38.1 38.1"
   version="1.1"
   id="svg8"
   sodipodi:docname="map-case-meteor-res-01.svg"
   inkscape:version="0.92.2 (5c3e80d, 2017-08-06)">
  <metadata
     id="metadata14">
    <rdf:RDF>
      <cc:Work
         rdf:about="">
        <dc:format>image/svg+xml</dc:format>
        <dc:type
           rdf:resource="http://purl.org/dc/dcmitype/StillImage" />
      </cc:Work>
    </rdf:RDF>
  </metadata>
  <defs
     id="defs12" />
  <sodipodi:namedview
     pagecolor="#ffffff"
     bordercolor="#666666"
     borderopacity="1"
     objecttolerance="10"
     gridtolerance="10"
     guidetolerance="10"
     inkscape:pageopacity="0"
     inkscape:pageshadow="2"
     inkscape:window-width="1920"
     inkscape:window-height="1017"
     id="namedview10"
     showgrid="false"
     inkscape:zoom="1.6388889"
     inkscape:cx="72"
     inkscape:cy="72"
     inkscape:window-x="1912"
     inkscape:window-y="-8"
     inkscape:window-maximized="1"
     inkscape:current-layer="svg8" />
  <path
     d="M14.834 8.793l3.567-1.064.66-3.565 14.047 15.379-3.402-.638.603 2.34-1.81-.265-.275 1.968z"
     fill="#282828"
     stroke="#191919"
     stroke-width="1.204"
     id="path2"
     style="fill:#335a00;fill-opacity:1" />
  <path
     d="M31.743 6.305l.561 3.85 3.502 1.195L18.272 23.7l1.133-3.434-2.448.289.528-1.84-1.947-.567z"
     fill="#282828"
     stroke="#191919"
     stroke-width="1.243"
     id="path4"
     style="fill:#335a00;fill-opacity:1" />
  <path
     d="M6.03 12.1a1.056 1.056 0 0 0-1.372-.6 1.056 1.056 0 0 0-.6 1.37l5.3 13.548.922-1.55.783.099zM15.316 30.236l-.833.815.939 1.301h12.821c.586 0 1.058-.472 1.058-1.058 0-.586-.472-1.058-1.058-1.058z"
     fill="#5b5b5b"
     stroke="#191919"
     stroke-width="1.058"
     id="path6"
     style="fill:#71aa00;fill-opacity:1" />
</svg>
