<svg xmlns="http://www.w3.org/2000/svg" xmlns:xlink="http://www.w3.org/1999/xlink" width="320" height="320" viewBox="0 0 84.667 84.666"><defs><pattern xlink:href="#a" id="c" patternTransform="matrix(.26458 0 0 .26458 -67.733 -12.7)"/><pattern xlink:href="#b" id="d" patternTransform="rotate(90 0 67.734) scale(.0926)"/><pattern patternUnits="userSpaceOnUse" width="160" height="160" patternTransform="translate(142.971 268.336) scale(.26458)" id="b"><path fill="none" stroke-width="3.78" d="M0 0h160v160H0z"/><path fill="none" stroke-width="3.78" d="M0 0h160v160H0z"/><path fill="none" stroke-width="3.78" d="M0 0h160v160H0z"/><path fill="#b7b7b7" stroke-width="18.898" stroke-miterlimit="10" d="M0 0h160v160H0z"/><path fill-opacity=".354" stroke-width="8.709" stroke-miterlimit="10" d="M36 0h4v160h-4zm40 0h4v160h-4zm40 0h4v160h-4z"/><path transform="rotate(90)" fill-opacity=".354" stroke-width="4.131" stroke-miterlimit="10" d="M36-76h4v36h-4zm120 40h4V0h-4zm-80-80h4v36h-4z"/><path fill-opacity=".354" stroke-width="8.709" stroke-miterlimit="10" d="M156 0h4v160h-4z"/><path transform="rotate(90)" fill-opacity=".354" stroke-width="4.131" stroke-miterlimit="10" d="M116-156h4v36h-4zm0 80h4v36h-4zm40-40h4v36h-4zM36-156h4v36h-4zM76-36h4V0h-4z"/></pattern><pattern patternUnits="userSpaceOnUse" width="160" height="160" patternTransform="matrix(.26458 0 0 .26458 -55.033 -3.175)" id="a"><path fill="#5e6048" stroke-width="18.898" stroke-miterlimit="10" d="M0 0h160v160H0z"/><path fill-opacity=".354" stroke-width="8.709" stroke-miterlimit="10" d="M36 0h4v160h-4zM76 0h4v160h-4zM116 0h4v160h-4z"/><path transform="rotate(90)" fill-opacity=".354" stroke-width="4.131" stroke-miterlimit="10" d="M36-76h4v36h-4zM156-36h4V0h-4zM116-116h4v36h-4z"/><path fill-opacity=".354" stroke-width="8.709" stroke-miterlimit="10" d="M156 0h4v160h-4z"/><path transform="rotate(90)" fill-opacity=".354" stroke-width="4.131" stroke-miterlimit="10" d="M76-156h4v36h-4z"/></pattern></defs><path d="M0 0h84.667v67.733H0z" fill="url(#c)"/><path d="M25.4 59.266v8.467H0V0h84.667v67.733h-25.4v-8.467H76.2v-50.8H8.467v50.8z" fill="#bcc3a8" fill-opacity=".31"/><path d="M25.4 67.733h33.867v16.933H25.4z" fill="url(#d)"/></svg>