<?xml version="1.0" encoding="UTF-8" standalone="no"?>
<svg
   xmlns:dc="http://purl.org/dc/elements/1.1/"
   xmlns:cc="http://creativecommons.org/ns#"
   xmlns:rdf="http://www.w3.org/1999/02/22-rdf-syntax-ns#"
   xmlns:svg="http://www.w3.org/2000/svg"
   xmlns="http://www.w3.org/2000/svg"
   xmlns:sodipodi="http://sodipodi.sourceforge.net/DTD/sodipodi-0.dtd"
   xmlns:inkscape="http://www.inkscape.org/namespaces/inkscape"
   width="512"
   height="512"
   viewBox="0 0 135.466 135.466"
   version="1.1"
   id="svg6"
   sodipodi:docname="map-tree-05.svg"
   inkscape:version="0.92.2 (5c3e80d, 2017-08-06)">
  <metadata
     id="metadata12">
    <rdf:RDF>
      <cc:Work
         rdf:about="">
        <dc:format>image/svg+xml</dc:format>
        <dc:type
           rdf:resource="http://purl.org/dc/dcmitype/StillImage" />
        <dc:title />
      </cc:Work>
    </rdf:RDF>
  </metadata>
  <defs
     id="defs10">
    <pattern
       y="0"
       x="0"
       height="6"
       width="6"
       patternUnits="userSpaceOnUse"
       id="EMFhbasepattern" />
  </defs>
  <sodipodi:namedview
     pagecolor="#ffffff"
     bordercolor="#666666"
     borderopacity="1"
     objecttolerance="10"
     gridtolerance="10"
     guidetolerance="10"
     inkscape:pageopacity="0"
     inkscape:pageshadow="2"
     inkscape:window-width="1920"
     inkscape:window-height="1017"
     id="namedview8"
     showgrid="true"
     inkscape:zoom="0.65186405"
     inkscape:cx="527.37397"
     inkscape:cy="171.82518"
     inkscape:window-x="1912"
     inkscape:window-y="-8"
     inkscape:window-maximized="1"
     inkscape:current-layer="svg6">
    <inkscape:grid
       type="xygrid"
       id="grid822"
       empspacing="4"
       spacingy="1.0583281"
       spacingx="1.0583281" />
  </sodipodi:namedview>
  <path
     sodipodi:nodetypes="ccccccc"
     inkscape:connector-curvature="0"
     id="path1186"
     d="m 100.01206,63.605544 10.25571,9.130364 11.50644,-0.750492 6.37862,4.252403 -19.13587,4.252422 -21.262065,-8.504825 z"
     style="fill:#3e250f;fill-opacity:1;stroke:#1b1917;stroke-width:1.58749223;stroke-linecap:butt;stroke-linejoin:miter;stroke-miterlimit:4;stroke-dasharray:none;stroke-opacity:1" />
  <path
     sodipodi:nodetypes="ccccccccc"
     inkscape:connector-curvature="0"
     id="path1188"
     d="m 66.492814,57.101959 h 25.51449 l 14.883456,-8.504828 17.00965,-3.190734 6.37862,2.126207 -19.13585,9.569355 -19.135875,17.009668 -25.51449,4.252402 z"
     style="fill:#5a3517;fill-opacity:1;stroke:#1b1917;stroke-width:1.58749223;stroke-linecap:butt;stroke-linejoin:miter;stroke-miterlimit:4;stroke-dasharray:none;stroke-opacity:1" />
  <path
     sodipodi:nodetypes="ccccccc"
     inkscape:connector-curvature="0"
     id="path1190"
     d="m 70.620274,101.25222 -12.63228,6.87873 -2.12621,12.75721 -4.25242,6.37863 -1.37571,-22.51285 12.00675,-15.758875 z"
     style="fill:#3e250f;fill-opacity:1;stroke:#1b1917;stroke-width:1.58749223;stroke-linecap:butt;stroke-linejoin:miter;stroke-miterlimit:4;stroke-dasharray:none;stroke-opacity:1" />
  <path
     style="fill:#3e250f;fill-opacity:1;stroke:#1b1917;stroke-width:1.58749223;stroke-linecap:butt;stroke-linejoin:miter;stroke-miterlimit:4;stroke-dasharray:none;stroke-opacity:1"
     d="m 66.617784,90.621189 12.63228,6.878692 8.50483,8.504859 -4.25242,-14.883465 -8.50482,-12.757246 z"
     id="path1192"
     inkscape:connector-curvature="0"
     sodipodi:nodetypes="cccccc" />
  <path
     style="fill:#5a3517;fill-opacity:1;stroke:#1b1917;stroke-width:1.58749223;stroke-linecap:butt;stroke-linejoin:miter;stroke-miterlimit:4;stroke-dasharray:none;stroke-opacity:1"
     d="m 77.123854,67.732995 v 25.514492 l -4.25241,12.757253 3.19073,17.00964 -2.12621,6.37863 -9.56935,-19.13588 -4.25242,-17.009643 -4.25241,-25.514492 z"
     id="path1194"
     inkscape:connector-curvature="0"
     sodipodi:nodetypes="ccccccccc" />
  <path
     style="fill:#3e250f;fill-opacity:1;stroke:#1b1917;stroke-width:1.58749223;stroke-linecap:butt;stroke-linejoin:miter;stroke-miterlimit:4;stroke-dasharray:none;stroke-opacity:1"
     d="m 43.104544,65.606783 -13.9712,6.663774 -9.42486,8.054662 -4.87853,9.44559 16.8239,-10.061075 25.7955,-5.736789 z"
     id="path1196"
     inkscape:connector-curvature="0"
     sodipodi:nodetypes="ccccccc" />
  <path
     sodipodi:nodetypes="ccccccccc"
     inkscape:connector-curvature="0"
     id="path1198"
     d="m 63.365884,57.884308 -21.32006,1.432336 -13.63901,-4.172714 -16.06791,7.016671 -7.1519305,8.748721 24.9843705,-5.281826 14.34481,8.366162 22.37878,4.857801 z"
     style="fill:#5a3517;fill-opacity:1;stroke:#1b1917;stroke-width:1.58749223;stroke-linecap:butt;stroke-linejoin:miter;stroke-miterlimit:4;stroke-dasharray:none;stroke-opacity:1" />
  <path
     style="fill:#3e250f;fill-opacity:1;stroke:#1b1917;stroke-width:1.58749223;stroke-linecap:butt;stroke-linejoin:miter;stroke-miterlimit:4;stroke-dasharray:none;stroke-opacity:1"
     d="m 62.365364,34.213761 12.63229,-11.131112 10.63103,-2.12621 14.883456,2.12621 -19.135866,8.50483 -10.63104,14.883443 z"
     id="path1200"
     inkscape:connector-curvature="0"
     sodipodi:nodetypes="ccccccc" />
  <path
     sodipodi:nodetypes="cccccc"
     inkscape:connector-curvature="0"
     id="path1202"
     d="m 66.367854,44.8448 -12.63228,-6.878707 -13.55007,-2.126205 9.29766,8.504827 8.50482,12.757244 z"
     style="fill:#3e250f;fill-opacity:1;stroke:#1b1917;stroke-width:1.58749223;stroke-linecap:butt;stroke-linejoin:miter;stroke-miterlimit:4;stroke-dasharray:none;stroke-opacity:1" />
  <path
     sodipodi:nodetypes="ccccccccc"
     inkscape:connector-curvature="0"
     id="path1204"
     d="M 55.861784,67.732995 V 42.218509 l -4.25242,-13.77654 5.3141,-15.99036 11.69556,-6.37862 -4.25241,23.38828 8.50483,12.75724 4.25241,25.514486 z"
     style="fill:#5a3517;fill-opacity:1;stroke:#1b1917;stroke-width:1.58749223;stroke-linecap:butt;stroke-linejoin:miter;stroke-miterlimit:4;stroke-dasharray:none;stroke-opacity:1" />
  <path
     sodipodi:type="star"
     style="fill:#7d4a20;fill-opacity:1;stroke:#1b1917;stroke-width:2.11665625;stroke-linecap:round;stroke-linejoin:round;stroke-miterlimit:4;stroke-dasharray:none;stroke-opacity:1"
     id="path1206"
     sodipodi:sides="8"
     sodipodi:cx="67.733002"
     sodipodi:cy="67.733"
     sodipodi:r1="13.180267"
     sodipodi:r2="12.389452"
     sodipodi:arg1="0.78539816"
     sodipodi:arg2="1.1780972"
     inkscape:flatsided="false"
     inkscape:rounded="0.35"
     inkscape:randomized="0"
     d="m 77.052858,77.052858 c -1.249401,1.249401 -2.946197,1.450334 -4.578618,2.126505 -1.632421,0.676171 -2.974318,1.733906 -4.741238,1.733906 -1.76692,0 -3.108817,-1.057735 -4.741238,-1.733906 -1.632421,-0.676171 -3.329217,-0.877104 -4.578619,-2.126505 -1.249401,-1.249401 -1.450333,-2.946197 -2.126504,-4.578618 -0.676171,-1.632421 -1.733907,-2.974318 -1.733907,-4.741238 0,-1.76692 1.057735,-3.108817 1.733906,-4.741238 0.676172,-1.632421 0.877104,-3.329217 2.126505,-4.578619 1.249401,-1.249401 2.946197,-1.450333 4.578618,-2.126504 1.632422,-0.676171 2.974318,-1.733907 4.741239,-1.733907 1.76692,0 3.108816,1.057735 4.741237,1.733906 1.632422,0.676172 3.329218,0.877104 4.578619,2.126505 1.249401,1.249401 1.450334,2.946197 2.126505,4.578618 0.676171,1.632422 1.733906,2.974318 1.733906,4.741239 0,1.76692 -1.057735,3.108816 -1.733906,4.741237 -0.676171,1.632422 -0.877104,3.329218 -2.126505,4.578619 z" />
</svg>
