<svg xmlns="http://www.w3.org/2000/svg" width="89" height="35" viewBox="0 0 23.548 9.26"><path d="M.132.132c.53 4.234.53 4.763 2.117 8.996h19.05c1.587-4.233 1.587-4.762 2.117-8.996z" fill="#ab6f22"/><path d="M10.186 7.9c-.46-2.486-.46-6.525-.46-7.768M13.361 7.9c.461-2.486.461-6.525.461-7.768M6.395 7.9C5.473 5.414 5.012 1.375 5.012.132M17.153 7.9c.922-2.486 1.383-6.525 1.383-7.768" fill="none" stroke="#630" stroke-width=".568" stroke-opacity=".566"/><path d="M2.399 4.895h18.75s.23-.877.425-2.117h-19.6c.088.702.425 2.117.425 2.117z" fill="#630"/><path d="M.132.132H1.72s0 4.234 2.116 8.996H2.25C.132 4.366.132.132.132.132zm23.284 0h-1.588s0 4.234-2.117 8.996H21.3C23.416 4.366 23.416.132 23.416.132z" fill="#191919"/><path d="M2.249 9.128h19.05s.608-1.31.824-2.117H1.425c.281.856.824 2.117.824 2.117z" fill="#323232"/></svg>