<svg xmlns="http://www.w3.org/2000/svg" width="256" height="256"><path d="M103.88 224.875c-3.811 8.62-12.962 10.294-21.586 6.484-8.624-3.81-13.456-11.66-9.644-20.28 3.812-8.62 45.153-65.971 45.153-65.971 1.664-1.95 4.867-.535 4.495 1.985 0 0-15.129 70.346-18.417 77.782z" fill="#580b00" stroke="#000" stroke-width="5.949" stroke-linecap="round"/><path d="M68.192 208.131c-6.852 6.474-15.76 4.474-22.237-2.375-6.477-6.849-8.07-15.954-1.218-22.427 6.852-6.474 67.179-43.364 67.179-43.364 2.29-1.154 4.695 1.39 3.375 3.57 0 0-41.187 59.011-47.099 64.596z" fill="#7e1300" stroke="#000" stroke-width="5.949" stroke-linecap="round"/><path d="M29.033 142.356c-9.424-.288-14.338-8.093-14.05-17.513.287-9.42 5.666-16.887 15.09-16.6 9.426.287 78.143 16.996 78.143 16.996 2.433.808 2.327 4.306-.15 4.91 0 0-70.901 12.454-79.033 12.207z" fill="#710000" stroke="#000" stroke-width="5.949" stroke-linecap="round"/><path d="M31.013 103.743c-8.624-3.81-10.18-12.939-6.367-21.559 3.812-8.62 11.547-13.467 20.171-9.657 8.625 3.81 66.004 45.13 66.004 45.13 1.95 1.664.535 4.866-1.986 4.493 0 0-70.381-15.12-77.822-18.407zM42.267 179.387c-8.793 3.4-16.36-1.91-19.763-10.698-3.403-8.79-1.353-17.73 7.44-21.13 8.794-3.402 78.6-14.737 78.6-14.737 2.557-.202 3.82 3.062 1.774 4.58 0 0-60.464 39.05-68.05 41.985zM211.235 183.36c8.624 3.81 16.386-1.1 20.198-9.72 3.812-8.62 2.23-17.686-6.394-21.496-8.624-3.81-77.821-18.407-77.821-18.407-2.544-.322-3.96 2.88-1.987 4.492 0 0 58.563 41.844 66.004 45.13z" fill="#580b00" stroke="#000" stroke-width="5.949" stroke-linecap="round"/><path d="M108.972 226.147c-.177 9.422 7.154 14.68 16.581 14.858 9.428.177 17.382-4.794 17.56-14.217.176-9.423-13.137-78.845-13.137-78.845-.687-2.469-4.189-2.535-4.913-.092 0 0-15.938 70.166-16.09 78.296z" fill="#710000" stroke="#000" stroke-width="5.949" stroke-linecap="round"/><path d="M183.998 210.815c6.557 6.773 15.645 5.146 22.42-1.407 6.777-6.554 8.676-15.552 2.12-22.325-6.557-6.773-65.176-46.317-65.176-46.317-2.236-1.255-4.753 1.179-3.532 3.415 0 0 38.511 60.79 44.168 66.634z" fill="#7e1300" stroke="#000" stroke-width="5.949" stroke-linecap="round"/><path d="M147.691 225.96c3.403 8.79 12.22 10.87 21.013 7.469 8.794-3.402 14.235-10.996 10.832-19.786-3.403-8.789-42.006-68.016-42.006-68.016-1.57-2.025-4.837-.762-4.582 1.773 0 0 11.807 70.977 14.743 78.56zM183.442 44.961c3.812-8.62-1.11-16.51-9.734-20.32-8.624-3.81-17.685-2.097-21.497 6.523-3.812 8.62-18.417 77.782-18.417 77.782-.322 2.543 2.881 3.958 4.495 1.986 0 0 41.865-58.534 45.153-65.971z" fill="#580b00" stroke="#000" stroke-width="5.949" stroke-linecap="round"/><path d="M147.03 29.853c.177-9.423-7.187-14.681-16.615-14.858-9.428-.177-17.348 4.794-17.525 14.218-.177 9.422 13.136 78.844 13.136 78.844.688 2.47 4.189 2.535 4.913.093 0 0 15.938-70.167 16.091-78.296z" fill="#710000" stroke="#000" stroke-width="5.949" stroke-linecap="round"/><path d="M72.004 45.185c-6.556-6.773-15.687-5.104-22.464 1.45-6.776 6.553-8.632 15.509-2.075 22.282 6.556 6.773 65.175 46.317 65.175 46.317 2.236 1.255 4.753-1.179 3.532-3.415 0 0-38.511-60.79-44.168-66.634z" fill="#7e1300" stroke="#000" stroke-width="5.949" stroke-linecap="round"/><path d="M108.311 30.04c-3.403-8.79-12.346-10.82-21.14-7.42-8.793 3.402-14.107 10.947-10.704 19.736 3.402 8.79 42.005 68.016 42.005 68.016 1.57 2.026 4.837.763 4.583-1.772 0 0-11.808-70.978-14.744-78.56z" fill="#580b00" stroke="#000" stroke-width="5.949" stroke-linecap="round"/><path d="M187.81 47.868c6.853-6.473 15.827-4.405 22.304 2.444 6.476 6.849 8.004 15.885 1.151 22.36-6.852 6.473-67.179 43.363-67.179 43.363-2.29 1.154-4.695-1.39-3.375-3.57 0 0 41.187-59.011 47.1-64.597z" fill="#7e1300" stroke="#000" stroke-width="5.949" stroke-linecap="round"/><path d="M226.969 113.644c9.425.287 14.336 8.192 14.048 17.612-.287 9.42-5.664 16.788-15.089 16.5-9.424-.286-78.142-16.995-78.142-16.995-2.433-.808-2.326-4.307.15-4.91 0 0 70.902-12.455 79.033-12.207z" fill="#710000" stroke="#000" stroke-width="5.949" stroke-linecap="round"/><path d="M213.735 76.613c8.794-3.401 16.36 1.909 19.763 10.698 3.403 8.79 1.354 17.73-7.44 21.13-8.794 3.402-78.6 14.737-78.6 14.737-2.556.202-3.82-3.062-1.773-4.58 0 0 60.464-39.05 68.05-41.985z" fill="#580b00" stroke="#000" stroke-width="5.949" stroke-linecap="round"/><circle cy="128" cx="128" r="17.252" fill="#7e1300" stroke="#000" stroke-width="6.877" stroke-linecap="round"/><circle cx="128" cy="128" r="73.625" fill="none" stroke="#000" stroke-width="4" stroke-linecap="round"/></svg>