<svg xmlns="http://www.w3.org/2000/svg" xmlns:xlink="http://www.w3.org/1999/xlink" width="1600" height="1152" viewBox="0 0 423.333 304.8"><defs><pattern xlink:href="#a" id="o" patternTransform="translate(375.767 327.883) scale(.26458)"/><pattern xlink:href="#b" id="m" patternTransform="translate(428.6 320.475) scale(.26458)"/><pattern xlink:href="#c" id="b" patternTransform="translate(1504 1076)"/><pattern xlink:href="#d" id="l" patternTransform="translate(322.766 344.816) scale(.26458)"/><pattern xlink:href="#e" id="d" patternTransform="translate(1104 1168)"/><pattern xlink:href="#f" id="c" patternTransform="translate(428.6 320.475) scale(.26458)"/><pattern xlink:href="#g" id="e" patternTransform="translate(322.766 344.816) scale(.26458)"/><pattern xlink:href="#h" id="k" patternTransform="rotate(90 33.95 365.008) scale(.10851)"/><pattern xlink:href="#i" id="h" patternTransform="rotate(90 138 1254) scale(.41013)"/><pattern xlink:href="#j" id="i" patternTransform="rotate(90 33.95 365.008) scale(.10851)"/><pattern patternUnits="userSpaceOnUse" width="320" height="320" patternTransform="translate(398.966 331.058) scale(.26458)" id="j"><path fill="#bbb2a7" stroke-width="37.795" stroke-miterlimit="10" d="M0 0h320v320H0z"/><path fill-opacity=".354" stroke-width="12.316" stroke-miterlimit="10" d="M80 0h4v320h-4zM0 0h4v320H0z"/><path transform="rotate(90)" fill-opacity=".354" stroke-width="6.002" stroke-miterlimit="10" d="M0-80h4v76H0zm240-80h4v76h-4z"/><path fill-opacity=".354" stroke-width="12.316" stroke-miterlimit="10" d="M160 0h4v320h-4zm80 0h4v320h-4z"/><path transform="rotate(90)" fill-opacity=".354" stroke-width="6.002" stroke-miterlimit="10" d="M80-240h4v76h-4zm80-80h4v76h-4z"/></pattern><pattern patternUnits="userSpaceOnUse" width="207.998" height="159.999" patternTransform="translate(360.866 319.416) scale(.26458)" id="f"><path d="M104 0h95.999v159.999h-96z" fill="#545833"/><path d="M0 0h96v159.999H0z" fill="#4c502e"/><path d="M199.999 159.999V0h8v159.999zm-103.999 0V0h8v159.999z" fill="#363921"/></pattern><clipPath id="s"><path d="M-96.334 387.15h440.266v118.533H-96.334z" fill-opacity=".095" stroke-width="14.341"/></clipPath><clipPath id="r"><path d="M191.532 35.783h118.534v38.1H191.532z" fill="url(#k)" stroke-width="4.224"/></clipPath><pattern patternUnits="userSpaceOnUse" width="207.998" height="160" patternTransform="translate(297.366 327.883) scale(.26458)" id="g"><path fill="none" stroke-width="3.78" d="M0 .001h207.998V160H0z"/><path d="M104 .001h95.999v160h-96z" fill="#545833"/><path d="M0 .001h96v160H0z" fill="#4c502e"/><path d="M199.999 160V.001h8v160zM96 160V.001h8v160z" fill="#363921"/><path d="M0 0h207.998v160H0z" fill-opacity=".167" stroke-width="11.452"/></pattern><clipPath id="p"><path d="M47.599 209.35v118.533h440.267V209.35zm275.167 16.933l12.625 16.933 12.775 8.467 4.233 16.933 12.7 16.934-29.633-16.934-12.7-25.4zM77.232 271.791H98.4l10.583 6.35 24.342-6.35-17.992 13.759-6.35 13.758L98.4 282.375z" fill="url(#l)" stroke-width="14.341"/></clipPath><clipPath id="n"><path d="M98.399 74.941v118.534h440.267V74.94zm203.2 33.867l16.933 8.467 23.284 3.175 19.05 12.7h-29.634l-15.875 9.525L301.6 126.8l-25.4-9.525z" fill="url(#m)" stroke-width="14.341"/></clipPath><pattern patternUnits="userSpaceOnUse" width="207.998" height="159.999" patternTransform="translate(382.033 327.883) scale(.26458)" id="a"><path fill="none" stroke-width="3.78" d="M0 0h207.998v159.999H0z"/><path d="M104 0h103.998v159.999H104z" fill="#545833" stroke-width="1.041"/><path d="M0 0h103.999v159.999H0z" fill="#4c502e" stroke-width="1.041"/><path d="M199.999 159.999V0h8v159.999zm-103.999 0V0h8v159.999z" fill="#363921"/></pattern><pattern patternUnits="userSpaceOnUse" width="207.998" height="160" patternTransform="translate(297.366 327.883) scale(.26458)" id="q"><path fill="none" stroke-width="3.78" d="M0 0h207.998v160H0z"/><path fill="none" stroke-width="3.78" d="M0 0h207.998v160H0z"/><path fill="none" stroke-width="3.78" d="M0 .001h207.998V160H0z"/><path d="M104 .001h103.998v160H104z" fill="#545833" stroke-width="1.041"/><path d="M0 .001h103.998v160H0z" fill="#4c502e" stroke-width="1.041"/><path d="M199.999 160V.001h8v160zM96 160V.001h8v160z" fill="#363921"/><path d="M0 0h207.998v160H0z" fill-opacity=".233" stroke-width="11.452"/></pattern></defs><path d="M98.399 74.941v118.534h440.267V74.94zm203.2 33.867l16.933 8.467 23.284 3.175 19.05 12.7h-29.634l-15.875 9.525L301.6 126.8l-25.4-9.525z" clip-path="url(#n)" transform="matrix(.96154 0 0 .92818 -94.614 -10.199)" fill="url(#o)" stroke="#000" stroke-width="2.117"/><path d="M47.599 209.35v118.533h440.267V209.35zm275.167 16.933l12.625 16.933 12.775 8.467 4.233 16.933 12.7 16.934-29.633-16.934-12.7-25.4zM77.232 271.791H98.4l10.583 6.35 24.342-6.35-17.992 13.759-6.35 13.758L98.4 282.375z" clip-path="url(#p)" transform="matrix(.96154 0 0 .92818 -45.768 -24.933)" fill="url(#q)" stroke="#000" stroke-width="2.117"/><path d="M191.532 35.783h118.534v40.434H191.532z" clip-path="url(#r)" transform="matrix(.92857 0 0 1 -21.218 -14.616)" fill="url(#i)" stroke="#000" stroke-width="2.117"/><path d="M195.385 107.494l13.229 14.735 15.264-8.841h28.494L234.054 101.6l-22.387-2.947-16.282-7.859-24.423 7.859zm97.692 116.896l-4.07-15.717-12.284-7.859-12.14-15.717v15.717l12.212 23.576 28.493 15.717zM59.022 252.877l6.106-12.77 17.3-12.77-23.406 5.894-10.176-5.894H28.494l20.352 9.823z" fill-opacity=".186"/><path d="M-96.334 387.15h440.266v118.533H-96.334z" clip-path="url(#s)" transform="matrix(.96154 0 0 .92818 92.63 -189.963)" fill="none" stroke="#000" stroke-width="4.233"/><path transform="matrix(.96154 0 0 .92818 92.63 -299.983)" clip-path="url(#s)" d="M-96.334 387.15h440.266v118.533H-96.334z" fill="none" stroke="#000" stroke-width="4.233"/></svg>