<svg xmlns="http://www.w3.org/2000/svg" xmlns:xlink="http://www.w3.org/1999/xlink" width="640" height="640" viewBox="0 0 169.333 169.333"><defs><pattern xlink:href="#a" id="s" patternTransform="matrix(.26458 0 0 .26458 -84.666 336.55)"/><pattern xlink:href="#b" id="a" patternTransform="translate(-320 1272)"/><pattern xlink:href="#c" id="r" patternTransform="matrix(.26458 0 0 .26458 -38.1 220.133)"/><pattern xlink:href="#d" id="c" patternTransform="translate(-144 832)"/><pattern xlink:href="#d" id="b" patternTransform="matrix(.26458 0 0 .26458 -84.666 336.55)"/><pattern xlink:href="#e" id="d" patternTransform="matrix(.26458 0 0 .26458 -38.1 220.133)"/><pattern xlink:href="#f" id="q" patternTransform="matrix(.09922 0 0 .09922 -59.267 143.933)"/><pattern xlink:href="#g" id="f" patternTransform="matrix(.375 0 0 .375 -224 544)"/><pattern xlink:href="#h" id="g" patternTransform="matrix(.09922 0 0 .09922 -59.267 143.933)"/><pattern xlink:href="#h" id="v" patternTransform="matrix(.26458 0 0 .26458 -59.267 143.933)"/><pattern xlink:href="#h" id="u" patternTransform="scale(.09354) rotate(-45 1540.548 1534.117)"/><pattern xlink:href="#i" id="p" patternTransform="scale(.09354) rotate(-45 1540.548 1534.116)"/><pattern xlink:href="#j" id="i" patternTransform="matrix(.25 -.25 .25 .25 -224 544)"/><pattern xlink:href="#k" id="j" patternTransform="scale(.09354) rotate(-45 1540.548 1534.116)"/><pattern xlink:href="#l" id="k" patternTransform="matrix(.25 -.25 .25 .25 -224 544)"/><pattern xlink:href="#m" id="l" patternTransform="scale(.09354) rotate(-45 1540.548 1534.116)"/><pattern xlink:href="#n" id="m" patternTransform="matrix(.25 -.25 .25 .25 -256 512)"/><pattern xlink:href="#o" id="n" patternTransform="scale(.09354) rotate(-45 1386.039 1598.116)"/><pattern patternUnits="userSpaceOnUse" width="128" height="128" patternTransform="matrix(.26458 0 0 .26458 -67.733 135.466)" id="o"><path fill="none" stroke-width="3.78" d="M0 0h128v128H0z"/><path fill="#627693" stroke-width="8" d="M0 0h128v128H0z"/><path fill-opacity=".196" stroke-width="11.314" d="M64 0h16v128H64z"/><path d="M0 88c16 32 48 32 64 0v16c-16 24-48 24-64 0zM128 104c-16-32-48-32-64 0V88c16-24 48-24 64 0z" fill="#455368" stroke-width="5.657"/><path fill-opacity=".196" stroke-width="11.314" d="M112 0h16v128h-16z"/><path fill-opacity=".116" stroke-width="22.627" d="M0 0h64v128H0z"/></pattern><pattern patternUnits="userSpaceOnUse" width="128" height="128" patternTransform="matrix(.26458 0 0 .26458 -59.267 143.933)" id="h"><path fill="none" stroke-width="3.78" d="M0 0h128v128H0z"/><path fill="none" stroke-width="3.78" d="M0 0h128v128H0z"/><path fill="#cf4a3d" stroke-width="8" d="M0 0h128v128H0z"/><path fill-opacity=".196" stroke-width="11.314" d="M64 0h16v128H64z"/><path d="M0 88c16 32 48 32 64 0v16c-16 24-48 24-64 0zM128 104c-16-32-48-32-64 0V88c16-24 48-24 64 0z" fill="#8f2d23" stroke-width="5.657"/><path fill-opacity=".196" stroke-width="11.314" d="M112 0h16v128h-16z"/><path fill-opacity=".116" stroke-width="22.627" d="M0 0h64v128H0z"/></pattern><clipPath id="t"><path d="M8.467 8.467h152.4v152.4H8.466z" fill="url(#p)"/></clipPath><pattern patternUnits="userSpaceOnUse" width="32" height="32" patternTransform="matrix(.26458 0 0 .26458 -42.333 220.133)" id="e"><path fill="none" stroke-width="3.78" d="M0 0h32v32H0z"/><path fill="none" stroke-width="3.78" d="M0 0h32v32H0z"/><path fill="none" stroke-width="1.89" d="M0 0h32v32H0z"/><path fill="#801717" stroke-width="2" d="M0 0h32v32H0z"/><path fill-opacity=".196" stroke-width="4" d="M0 0h8v32H0zM24 0h8v32h-8z"/><path d="M32 4v8C20 8 12 8 0 12V4c12-4 20-4 32 0z" fill-opacity=".394" stroke-width="4"/></pattern><clipPath id="x"><path d="M59.267 59.267h50.8v50.8h-50.8z" fill="url(#q)"/></clipPath><clipPath id="y"><path d="M80.433 57.15H88.9v55.033h-8.467z" fill="url(#r)" stroke-width="3.321"/></clipPath><clipPath id="w"><path d="M33.867 160.866h8.466v84.667h-8.466z" fill="url(#s)" stroke-width="3.321"/></clipPath></defs><path clip-path="url(#t)" d="M8.467 8.467h152.4v152.4H8.466z" fill="url(#u)" stroke="#000" stroke-width="2.117"/><path d="M8.467 8.467h152.4v152.4H8.466z" fill-opacity=".294"/><path fill="url(#v)" d="M-59.267 143.933H-25.4V177.8h-33.867z"/><path fill="none" d="M-110.066 143.933h33.867V177.8h-33.867z"/><path fill="#627693" d="M-110.066 143.933h33.867V177.8h-33.867z"/><path fill-opacity=".196" d="M-93.133 143.933h4.233V177.8h-4.233z"/><path d="M-110.066 167.216c4.233 8.467 12.7 8.467 16.933 0v4.234c-4.233 6.35-12.7 6.35-16.933 0zM-76.2 171.45c-4.233-8.467-12.7-8.467-16.933 0v-4.234c4.233-6.35 12.7-6.35 16.933 0z" fill="#455368"/><path fill-opacity=".196" d="M-80.433 143.933h4.233V177.8h-4.233z"/><path fill="none" d="M-59.267 194.733H-25.4V228.6h-33.867z"/><path fill="url(#e)" d="M-42.333 220.133h8.467v8.467h-8.467z"/><path fill="#455368" d="M-76.2 194.733h16.933v16.933H-76.2z"/><path fill-opacity=".196" d="M-76.2 194.733h4.233v16.933H-76.2zM-63.5 194.733h4.233v16.933H-63.5z"/><path d="M-59.267 196.85v4.233c-6.35-2.117-10.583-2.117-16.933 0v-4.233c6.35-2.117 10.583-2.117 16.933 0z" fill-opacity=".394"/><g stroke="#000" stroke-width=".794"><path d="M91.11 150.822l4.823 3.808c-1.63 1.768-6.451-1.163-9.699-.001 0 0 .246-.554.031-.772l-.426-.432a.839.839 0 0 1 .133-1.286l2.152-1.436a2.542 2.542 0 0 1 2.986.12z" fill="#f37d8b"/><path d="M77.146 152.197l-3.753 4.866c2.012 1.32 6.607-1.316 10.04-.98 0 0-2.057-2.204-1.902-2.467l.308-.523a.839.839 0 0 0-.441-1.215l-1.385-.523a2.542 2.542 0 0 0-2.867.842z" fill="#feb6d8"/></g><path d="M59.267 110.066h50.8v-50.8l50.8-48.683v150.283H8.466z" fill-opacity=".294"/><path d="M63.248 188.584l1.903-.403c-.635 1.577-1.816 1.866-2.48 2.632 0 0-.24-.08-.202-.207l.054-.177a.153.153 0 0 0-.156-.198l-.181.014c-.13.01-.218-.131-.154-.246l.45-.812c.164-.298.441-.516.766-.603z" opacity=".3" fill="#fff"/><path d="M33.867 160.866h8.466v84.667h-8.466z" clip-path="url(#w)" transform="rotate(45 122.491 164.436)" fill="url(#b)" stroke="#000" stroke-width="2.117"/><path transform="rotate(135 71.141 119.623)" clip-path="url(#w)" d="M33.867 160.866h8.466v84.667h-8.466z" fill="url(#b)" stroke="#000" stroke-width="2.117"/><path transform="rotate(-135 51.807 100.259)" clip-path="url(#w)" d="M33.867 160.866h8.466v84.667h-8.466z" fill="url(#b)" stroke="#000" stroke-width="2.117"/><path d="M33.867 160.866h8.466v84.667h-8.466z" clip-path="url(#w)" transform="rotate(-45 .457 51.576)" fill="url(#b)" stroke="#000" stroke-width="2.117"/><path d="M59.267 59.267h50.8v50.8h-50.8z" clip-path="url(#x)" fill="url(#g)" stroke-width="2.117" stroke="#000"/><path clip-path="url(#y)" d="M80.433 57.15H88.9v55.033h-8.467z" transform="translate(-25.4)" fill="url(#d)" stroke="#000" stroke-width="2.117"/><path d="M84.666 59.267h27.974v50.8H84.666z" fill-opacity=".118"/><path d="M80.433 57.15H88.9v55.033h-8.467z" clip-path="url(#y)" fill="url(#d)" stroke="#000" stroke-width="2.117"/><path clip-path="url(#y)" d="M80.433 57.15H88.9v55.033h-8.467z" transform="translate(25.4)" fill="url(#d)" stroke="#000" stroke-width="2.117"/></svg>