<svg xmlns="http://www.w3.org/2000/svg" width="136" height="136" viewBox="0 0 35.983 35.983"><defs><clipPath id="a"><ellipse ry="10.319" rx="10.335" cy="243.216" cx="-24.735" fill="#3f3f3f" fill-opacity=".612" stroke-width="3.49" stroke-opacity=".706"/></clipPath></defs><g transform="translate(-97.896 -96.22)" fill="#3f3f3f" fill-opacity=".612"><ellipse cx="115.888" cy="114.212" rx="12.67" ry="12.612"/><ellipse transform="translate(140.623 -128.916)" clip-path="url(#a)" ry="10.319" rx="10.335" cy="243.216" cx="-24.735" stroke="#404040" stroke-width="2.117" stroke-opacity=".5"/></g><path d="M15.395.424c-.638.106-2.204 3.977-2.799 4.23-.593.257-4.292-1.42-4.817-1.055-.532.362-.103 4.478-.513 4.97-.418.497-4.73.811-4.98 1.416-.252.608 1.726 3.733 1.591 4.37-.146.637-3.3 3.65-3.25 4.308.05.658 3.318 3.044 3.518 3.67.19.62-1.112 4.131-.78 4.705.324.573 3.47.805 3.938 1.252.467.448 1.29 3.9 1.838 4.27.545.366 3.375-.666 4.004-.476.625.192 3.052 3.422 3.693 3.478.642.055 3.202-3.46 3.832-3.55.631-.097 3.753 1.718 4.352 1.481.594-.233 1.886-3.326 2.411-3.69.523-.368 3.47-.593 3.865-1.1.397-.503-.134-3.545.14-4.128.267-.58 3.773-2.283 3.91-2.927l.003-.003c.14-.64-2.423-3.712-2.465-4.375-.04-.658 1.948-2.826 1.775-3.456-.172-.63-3.52-2.88-3.872-3.436-.35-.557.032-3.464-.432-3.926-.47-.464-4.254-.608-4.786-.98-.53-.38-1.149-3.47-1.758-3.667-.61-.188-3.788 2.084-4.429 2.028-.64-.055-3.359-3.519-3.99-3.41zm1.558 6.907c.481-.065 2.49 1.378 2.992 1.468.496.091 1.495-1.11 1.97-.945.47.166.844 1.39 1.256 1.645.411.267 1.453-.347 1.848-.032.395.315.192 1.944.497 2.33.31.39 1.591 1.494 1.773 1.96.182.46-.16 1.382-.075 1.87.086.49 2.062 1.532 2.056 2.044-.005.513-1.164.694-1.212 1.191-.054.497.62 2.56.427 3.04-.197.48-1.159.827-1.383 1.265-.219.438-.299 1.95-.652 2.33-.353.373-2.74.544-3.12.875-.378.331.375.94-.069 1.148-.438.203-2.58-.656-3.06-.523-.486.134-.956 1.795-1.453 1.821-.497.032-1.282-.534-1.773-.65-.48-.108-1.998.757-2.484.587-.48-.17-.32-1.657-.77-1.897-.442-.24-2.723-.064-3.06-.41-.34-.354-.272-1.497-.565-1.924-.294-.417-1.46-1.042-1.71-1.464-.24-.427.096-1.826.01-2.333-.085-.502-.7-1.55-.768-2.04-.07-.492 1.26-1.294 1.281-1.785.022-.49-.63-1.394-.427-1.87.203-.48 1.074-1.26 1.31-1.698.234-.433.341-2.12.656-2.505.31-.38 1.533.24 1.902-.096.373-.337.94-1.87 1.372-2.13.438-.263 1.298-.508 1.778-.61.481-.096.972-.598 1.453-.662z" fill="#408602" fill-opacity=".941"/><ellipse cx="17.992" cy="17.992" rx="12.67" ry="12.612" fill="#3f3f3f" fill-opacity=".612"/></svg>