<svg xmlns="http://www.w3.org/2000/svg" width="224" height="64" viewBox="0 0 59.267 16.933"><defs><clipPath id="b"><path d="M61.913 302.82v8.467h-8.467z" fill="#5e2f00" stroke-width="5.987"/></clipPath><clipPath id="c"><path d="M15.875 303.35c.53 0 1.058.53 1.058 1.058v6.35c0 .53-.529 1.059-1.058 1.059h-5.292v-8.467z" fill="#d1b193" stroke-width="1.64"/></clipPath><clipPath id="a"><path d="M-4.233 284.3h59.266v16.933H-4.233z" fill="#630" stroke-width="1.716"/></clipPath></defs><path transform="translate(4.233 -284.3)" clip-path="url(#a)" d="M-4.233 284.3h59.266v16.933H-4.233z" fill="#630" stroke="#191919" stroke-width="3.175"/><path d="M61.913 302.82v8.467h-8.467z" clip-path="url(#b)" transform="translate(-2.646 -294.354)" fill="#462200" stroke="#191919" stroke-width="2.117"/><path transform="rotate(-90 -95.054 156.967)" clip-path="url(#b)" d="M61.913 302.82v8.467h-8.467z" fill="#462200" stroke="#191919" stroke-width="2.117"/><path d="M61.913 302.82v8.467h-8.467z" clip-path="url(#b)" transform="rotate(-180 30.956 155.644)" fill="#462200" stroke="#191919" stroke-width="2.117"/><path transform="rotate(90 178.133 133.154)" clip-path="url(#b)" d="M61.913 302.82v8.467h-8.467z" fill="#482400" stroke="#191919" stroke-width="2.117"/><path transform="translate(-2.646 -300.175)" clip-path="url(#c)" d="M15.875 303.35c.53 0 1.058.53 1.058 1.058v6.35c0 .53-.529 1.059-1.058 1.059h-5.292v-8.467z" fill="#d1b193" stroke="#191919" stroke-width="1.058"/><path fill="#a37245" d="M11.641 3.704H12.7v7.408h-1.058z"/><path transform="translate(33.337 -297.53)" clip-path="url(#c)" d="M15.875 303.35c.53 0 1.058.53 1.058 1.058v6.35c0 .53-.529 1.059-1.058 1.059h-5.292v-8.467z" fill="#d1b193" stroke="#191919" stroke-width="1.058"/><path fill="#a37245" d="M47.625 6.35h1.058v7.408h-1.058z"/></svg>