<svg xmlns="http://www.w3.org/2000/svg" width="108" height="94" viewBox="0 0 28.575 24.871"><defs><clipPath id="a"><path d="M-2.117 276.362h24.342c1.173 0 2.117.945 2.117 2.117v16.933c0 3.175-4.234 4.234-13.759 4.234s-14.816-1.059-14.816-4.234V278.48c0-1.172.944-2.117 2.116-2.117z" fill="#a8000f" stroke-width="3.432"/></clipPath></defs><g transform="translate(4.233 -276.362)"><rect width="5.292" height="2.117" x="1.588" y="298.587" rx=".5" ry=".5" fill="#4f4f4f" stroke="#191919" stroke-width="1.058"/><path d="M-2.117 276.362h24.342c1.173 0 2.117.945 2.117 2.117v16.933c0 3.175-4.234 4.234-13.759 4.234s-14.816-1.059-14.816-4.234V278.48c0-1.172.944-2.117 2.116-2.117z" clip-path="url(#a)" fill="#86000c" stroke="#191919" stroke-width="3.175"/><path fill="#191919" d="M-4.233 293.825h28.575v1.588H-4.233z"/><path d="M-2.646 277.95h25.4v15.875h-25.4z" fill="#76000b"/></g></svg>