<svg xmlns="http://www.w3.org/2000/svg" width="120" height="120" viewBox="0 0 31.75 31.75"><path d="M18.562.622c2.674.451 5.866 1.648 8.35 4.27 2.482 2.623 4.256 6.67 4.456 10.86.2 4.19-1.176 8.52-3.855 11.316-2.679 2.795-6.661 4.053-10.452 4.253-3.79.2-7.388-.66-9.986-2.087-2.597-1.427-4.193-3.422-5.208-5.532C.852 21.593.419 19.37.368 16.925c-.05-2.445.282-5.112 1.342-7.47C2.77 7.097 4.554 5.05 6.32 3.653 8.083 2.256 9.83 1.509 11.78.988 13.73.467 15.887.17 18.562.622z" fill="#2d4a17" fill-opacity=".704"/></svg>