<svg xmlns="http://www.w3.org/2000/svg" width="976" height="352" viewBox="0 0 258.233 93.133"><defs><clipPath id="a"><path d="M0 0l16.934 16.932V76.2L0 93.133v-50.8l8.467-8.466V16.933L0 8.467z" fill="#3a3a3a" stroke-width="2.117" stroke-opacity=".706"/></clipPath><clipPath id="b"><path d="M262.466 190.5l-16.933-16.933H21.167L4.233 190.5z" fill="#3a3a3a" stroke-width="2.154" stroke-opacity=".706"/></clipPath><clipPath id="c"><path d="M4.233 97.367L21.167 114.3H177.8l16.933-16.933z" fill="#3a3a3a" stroke-width="2.154" stroke-opacity=".706"/></clipPath><clipPath id="d"><path d="M194.733 142.875L177.8 159.808V114.3l16.933-16.933z" fill="#3a3a3a" stroke-width="2.154" stroke-opacity=".706"/></clipPath><clipPath id="e"><path d="M194.733 142.875L177.8 159.808h67.733l16.933-16.933z" fill="#3a3a3a" stroke-width="2.154" stroke-opacity=".706"/></clipPath><clipPath id="f"><path d="M177.8 114.3H21.167v59.267h224.366v-13.759H177.8z" fill="#565656" stroke-width="1.938" stroke-opacity=".706"/></clipPath><clipPath id="g"><path d="M262.467 142.875l-16.933 16.933v13.759l16.932 16.933z" fill="#3a3a3a" stroke-width="2.154" stroke-opacity=".706"/></clipPath></defs><path d="M0 0l16.934 16.932V76.2L0 93.133v-50.8l8.467-8.466V16.933L0 8.467z" clip-path="url(#a)" fill="#3a3a3a" stroke="#000" stroke-width="2.117" stroke-opacity=".926"/><path d="M262.466 190.5l-16.933-16.933H21.167L4.233 190.5z" clip-path="url(#b)" transform="translate(-4.233 -97.367)" fill="#3a3a3a" stroke="#000" stroke-width="2.117" stroke-opacity=".706"/><path d="M4.233 97.367L21.167 114.3H177.8l16.933-16.933z" clip-path="url(#c)" transform="translate(-4.233 -97.367)" fill="#3a3a3a" stroke="#000" stroke-width="2.117" stroke-opacity=".706"/><path d="M194.733 142.875L177.8 159.808V114.3l16.933-16.933z" clip-path="url(#d)" transform="translate(-4.233 -97.367)" fill="#3a3a3a" stroke="#000" stroke-width="2.117" stroke-opacity=".706"/><path d="M194.733 142.875L177.8 159.808h67.733l16.933-16.933z" clip-path="url(#e)" transform="translate(-4.233 -97.367)" fill="#3a3a3a" stroke="#000" stroke-width="2.117" stroke-opacity=".706"/><path d="M177.8 114.3H21.167v59.267h224.366v-13.759H177.8z" clip-path="url(#f)" transform="translate(-4.233 -97.367)" fill="#565656" stroke="#000" stroke-width="2.117" stroke-opacity=".706"/><path d="M262.467 142.875l-16.933 16.933v13.759l16.932 16.933z" clip-path="url(#g)" transform="translate(-4.233 -97.367)" fill="#3a3a3a" stroke="#000" stroke-width="2.117" stroke-opacity=".706"/></svg>