<svg xmlns="http://www.w3.org/2000/svg" xmlns:xlink="http://www.w3.org/1999/xlink" width="640" height="960" viewBox="0 0 169.333 254"><defs><clipPath id="g"><path clip-path="url(#clipPath6865)" d="M402.14 158.55h9.526v-42.334h-9.525z" fill="#a3977d" stroke-width="1.984"/></clipPath><clipPath id="h"><path d="M-22.25 168.075v-9.525h-46.568v9.525z" clip-path="url(#clipPath6865)" fill="#a3977d" stroke-width="2.081"/></clipPath><clipPath id="i"><path d="M-70.934 202.47h50.8v-60.854h-8.467v48.155l-4.233 4.233h-25.4l-4.234-4.233v-48.155h-8.466z" fill="#a3977d" stroke-width="5.144"/></clipPath><clipPath id="f"><ellipse ry="6.34" rx="6.35" cy="243.216" cx="-87.868" fill="#3f3f3f" fill-opacity=".611" stroke-width="2.145" stroke-opacity=".706"/></clipPath><clipPath id="e"><ellipse ry="10.319" rx="10.335" cy="243.216" cx="-24.735" fill="#3f3f3f" fill-opacity=".612" stroke-width="3.49" stroke-opacity=".706"/></clipPath><pattern xlink:href="#a" id="c" patternTransform="translate(296.863 10.055) scale(.14235)"/><pattern patternUnits="userSpaceOnUse" width="160" height="160" patternTransform="translate(193.242 244.524) scale(.26458)" id="a"><path fill="none" stroke-width="3.78" d="M0 0h160v160H0z"/><path fill="none" stroke-width="3.78" d="M0 0h160v160H0z"/><path fill="none" stroke-width="3.78" d="M0 0h160v160H0z"/><path fill="#502900" stroke-width="18.898" stroke-miterlimit="10" d="M0 0h160v160H0z"/><path fill-opacity=".354" stroke-width="8.709" stroke-miterlimit="10" d="M36 0h4v160h-4zm40 0h4v160h-4zm40 0h4v160h-4z"/><path transform="rotate(90)" fill-opacity=".354" stroke-width="4.131" stroke-miterlimit="10" d="M36-76h4v36h-4zm120 40h4V0h-4zm-40-80h4v36h-4z"/><path fill-opacity=".354" stroke-width="8.709" stroke-miterlimit="10" d="M156 0h4v160h-4z"/><path transform="rotate(90)" fill-opacity=".354" stroke-width="4.131" stroke-miterlimit="10" d="M76-156h4v36h-4z"/></pattern><pattern xlink:href="#b" id="d" patternTransform="rotate(90 106.362 140.23) scale(.0926)"/><pattern patternUnits="userSpaceOnUse" width="160" height="160" patternTransform="translate(142.971 268.336) scale(.26458)" id="b"><path fill="none" stroke-width="3.78" d="M0 0h160v160H0z"/><path fill="none" stroke-width="3.78" d="M0 0h160v160H0z"/><path fill="none" stroke-width="3.78" d="M0 0h160v160H0z"/><path fill="#b7b7b7" stroke-width="18.898" stroke-miterlimit="10" d="M0 0h160v160H0z"/><path fill-opacity=".354" stroke-width="8.709" stroke-miterlimit="10" d="M36 0h4v160h-4zm40 0h4v160h-4zm40 0h4v160h-4z"/><path transform="rotate(90)" fill-opacity=".354" stroke-width="4.131" stroke-miterlimit="10" d="M36-76h4v36h-4zm120 40h4V0h-4zm-80-80h4v36h-4z"/><path fill-opacity=".354" stroke-width="8.709" stroke-miterlimit="10" d="M156 0h4v160h-4z"/><path transform="rotate(90)" fill-opacity=".354" stroke-width="4.131" stroke-miterlimit="10" d="M116-156h4v36h-4zm0 80h4v36h-4zm40-40h4v36h-4zM36-156h4v36h-4zM76-36h4V0h-4z"/></pattern></defs><path d="M140.726-29.633h100.542v63.5H140.726z" fill="url(#c)" transform="rotate(-90 161.925 79.376)"/><path d="M110.067 30.726h6.35v69.816h-63.5V.001h63.5v6.383l-57.15-.033v87.841h50.8z" fill="#ff8102" fill-opacity=".31"/><path d="M204.259 33.867H241.3v21.167h-37.042z" fill="url(#d)" transform="rotate(-90 161.925 79.376)"/><g fill="#3f3f3f" fill-opacity=".612" transform="translate(6.024 93.432)"><ellipse cx="115.888" cy="114.212" rx="12.67" ry="12.612"/><ellipse transform="translate(140.623 -128.916)" clip-path="url(#e)" ry="10.319" rx="10.335" cy="243.216" cx="-24.735" stroke="#404040" stroke-width="2.117" stroke-opacity=".5"/></g><path d="M119.12 189.77c-.638.106-2.204 3.977-2.799 4.23-.593.257-4.292-1.42-4.817-1.055-.532.362-.103 4.478-.513 4.97-.418.497-4.731.811-4.98 1.416-.252.608 1.726 3.733 1.591 4.37-.146.637-3.301 3.65-3.25 4.308.05.658 3.318 3.044 3.518 3.67.19.62-1.112 4.131-.78 4.705.324.573 3.47.805 3.938 1.252.467.448 1.29 3.9 1.838 4.27.545.366 3.375-.666 4.004-.476.625.192 3.052 3.422 3.693 3.478.642.055 3.202-3.46 3.832-3.55.631-.097 3.753 1.718 4.352 1.481.594-.233 1.886-3.326 2.411-3.69.523-.368 3.47-.593 3.865-1.1.397-.503-.134-3.545.139-4.128.268-.58 3.774-2.283 3.91-2.927l.004-.003c.14-.64-2.423-3.712-2.465-4.375-.04-.658 1.948-2.826 1.775-3.456-.172-.63-3.52-2.88-3.872-3.436-.351-.557.032-3.464-.432-3.926-.471-.464-4.254-.608-4.786-.981-.53-.38-1.149-3.47-1.758-3.666-.61-.188-3.788 2.084-4.429 2.028-.641-.055-3.359-3.519-3.99-3.41zm1.558 6.907c.481-.065 2.49 1.378 2.992 1.468.496.091 1.495-1.11 1.97-.945.47.166.844 1.389 1.256 1.645.411.267 1.453-.347 1.848-.032.395.315.192 1.944.497 2.329.31.39 1.591 1.495 1.773 1.96.182.46-.16 1.383-.075 1.87.086.49 2.062 1.533 2.056 2.045-.005.513-1.164.694-1.212 1.191-.054.497.62 2.559.427 3.04-.197.48-1.159.827-1.383 1.265-.219.438-.299 1.95-.652 2.329-.353.374-2.74.545-3.12.876-.378.331.375.94-.069 1.148-.438.203-2.58-.656-3.06-.523-.486.134-.956 1.795-1.453 1.821-.497.032-1.282-.534-1.773-.651-.481-.107-1.998.758-2.484.588-.48-.171-.32-1.657-.77-1.897-.442-.24-2.723-.064-3.06-.411-.341-.353-.272-1.496-.565-1.923-.294-.417-1.46-1.042-1.71-1.464-.24-.427.096-1.826.01-2.333-.085-.502-.7-1.55-.768-2.041-.07-.491 1.26-1.293 1.281-1.784.022-.491-.63-1.394-.427-1.87.203-.48 1.074-1.26 1.309-1.698.235-.433.342-2.12.657-2.505.31-.38 1.533.24 1.902-.096.373-.337.94-1.87 1.372-2.131.438-.262 1.298-.507 1.778-.609.481-.096.972-.598 1.453-.662z" fill="#408602" fill-opacity=".941"/><g transform="translate(150.342 92.893)" fill="#3f3f3f" fill-opacity=".611"><ellipse cx="-107.937" cy="42.333" rx="8.467" ry="8.453"/><ellipse clip-path="url(#f)" ry="6.34" rx="6.35" cy="243.216" cx="-87.868" transform="translate(-20.07 -200.883)" stroke="#404040" stroke-width="2.117" stroke-opacity=".5"/></g><path d="M46.566 124.321c-.388-.145-2.497 1.501-2.908 1.45-.41-.047-1.926-2.161-2.334-2.128-.411.03-1.492 2.452-1.877 2.594-.391.141-2.885-1.066-3.216-.81-.335.256-.239 2.624-.517 2.934-.286.307-3.002.968-3.184 1.35-.182.38.866 2.75.776 3.162-.093.405-1.94 1.936-1.94 2.36-.003.422 1.668 1.559 1.784 1.957.116.398-.534 2.576-.348 2.958.186.377 2.086.711 2.374 1.018.286.307.597 2.877.935 3.113.339.236 2.885-.894 3.263-.742.382.148 1.532 2.155 1.94 2.216.405.06 2.112-1.241 2.52-1.275.408-.037 2.116.782 2.497.627.381-.151 1.061-2.01 1.4-2.246.334-.236 2.825-.057 3.106-.37l.004-.001c.282-.31-.156-2.836.033-3.217.19-.378 1.986-.945 2.092-1.35.106-.404-1.03-2.724-1.047-3.146-.017-.421 1.127-1.912 1.017-2.317-.112-.408-2.165-1.7-2.34-2.077-.173-.381.474-2.293.198-2.597-.278-.3-2.769-.057-3.107-.293-.338-.236-.736-3.029-1.12-3.17zm-1.348 4.331c.288.119.94 1.562 1.19 1.773.246.21 1.185-.137 1.396.108.208.242.023 1.04.17 1.314.142.28.917.273 1.035.574.118.302-.516 1.14-.47 1.452.047.315.404 1.34.356 1.655-.047.313-.532.716-.64 1.013-.11.3.652 1.511.485 1.794-.167.283-.869.012-1.055.272-.188.259-.475 1.619-.736 1.824-.263.203-.908.088-1.173.259-.262.173-.79.986-1.107 1.083-.316.094-1.695-.575-2.012-.513-.316.062-.093.641-.406.615-.308-.028-1.221-1.191-1.53-1.271-.313-.082-1.106.69-1.39.545-.286-.141-.54-.707-.775-.93-.233-.213-1.351-.218-1.566-.469-.212-.249.352-1.021.18-1.298-.169-.276-1.49-.908-1.566-1.209-.076-.305.328-.917.302-1.248-.03-.325-.476-1.045-.48-1.36.004-.314.639-.982.754-1.29.114-.307.108-1.085.227-1.38.119-.295 1.113-.313 1.283-.579.169-.266.097-.975.361-1.174.267-.201 1-.355 1.27-.523.27-.165.87-1.067 1.167-1.18.294-.11.774.625 1.086.557.316-.067 1.12-.736 1.444-.743.327-.005.883.134 1.182.232.297.1.731-.02 1.018.097z" fill="#408602" fill-opacity=".941"/><ellipse cx="122.223" cy="207.345" rx="12.67" ry="12.612" fill="#3f3f3f" fill-opacity=".612"/><ellipse cx="42.332" cy="134.938" rx="8.467" ry="8.453" fill="#3f3f3f" fill-opacity=".611"/><path transform="matrix(0 -1 1.1 0 -66.456 453.47)" d="M402.14 158.55h9.526v-42.334h-9.525z" clip-path="url(#g)" fill="#646464"/><path d="M-22.25 168.075v-9.525h-46.568v9.525z" clip-path="url(#h)" transform="translate(130.2 -108.278)" fill="#5a5a5a" stroke="#000" stroke-width="2.117" stroke-opacity=".706"/><path transform="translate(130.2 -99.811)" clip-path="url(#h)" d="M-22.25 168.075v-9.525h-46.568v9.525z" fill="#505050" stroke="#000" stroke-width="2.117" stroke-opacity=".706"/><path d="M-22.25 168.075v-9.525h-46.568v9.525z" clip-path="url(#h)" transform="translate(130.2 -91.345)" fill="#464646" stroke="#000" stroke-width="2.117" stroke-opacity=".706"/><path transform="translate(130.2 -82.878)" clip-path="url(#h)" d="M-22.25 168.075v-9.525h-46.568v9.525z" fill="#3c3c3c" stroke="#000" stroke-width="2.117" stroke-opacity=".706"/><path d="M-22.25 168.075v-9.525h-46.568v9.525z" clip-path="url(#h)" transform="translate(130.2 -74.411)" fill="#323232" stroke="#000" stroke-width="2.117" stroke-opacity=".706"/><path clip-path="url(#i)" d="M-70.934 202.47h50.8v-60.854h-8.467v48.155l-4.233 4.233h-25.4l-4.234-4.233v-48.155h-8.466z" transform="translate(130.2 -108.278)" fill="#1b1e25" stroke="#000" stroke-width="3.175" stroke-opacity=".706"/></svg>