<svg xmlns="http://www.w3.org/2000/svg" xmlns:xlink="http://www.w3.org/1999/xlink" width="704" height="512" viewBox="0 0 186.267 135.467"><defs><pattern xlink:href="#a" id="c" patternTransform="matrix(.06615 0 0 .06615 -228.6 -309.034)"/><pattern patternUnits="userSpaceOnUse" width="128" height="128" patternTransform="matrix(.26458 0 0 .26458 0 -38.1)" id="a"><path fill="none" stroke-width="3.78" d="M0 0h128v128H0z"/><path fill="none" stroke-width="3.78" d="M0 0h128v128H0z"/><path d="M0 0h128v128H0z" fill="#2e2d2a" stroke-width="15.118" stroke-miterlimit="10"/><path d="M60 128V68H0v-8h60V0h8v60h60v8H68v60z" fill="#6f6f6f" fill-opacity=".303" stroke-width="1.414"/></pattern><clipPath id="d"><path d="M0 127h169.334V16.934L50.8 16.933v-25.4h-8.467V25.4h118.534v93.074H8.467V-8.466H0z" fill="#1b1e25" stroke-width="2.226"/></clipPath><filter id="b" x="-.024" width="1.047" y="-.025" height="1.05" color-interpolation-filters="sRGB"><feGaussianBlur stdDeviation="1.672"/></filter></defs><path transform="matrix(1.0634 0 0 .7443 108.624 -136.832)" d="M-98.167 166.776h55.733v34.126H69.033v159.254h-167.2z" fill="#130902" fill-opacity=".944" filter="url(#b)"/><path d="M8.467 0h50.8v16.933H177.8V127H8.467z" fill="url(#c)"/><g transform="scale(-.4432) rotate(-48.191 -658.562 382.906)" fill="#391212"><circle r="11.264" cy="278.017" cx="19.162"/><circle r="3.725" cy="270.029" cx="10.187"/><circle r="2.693" cy="265.856" cx="28.093"/><circle r="4.892" cy="276.402" cx="27.868"/><circle r="2.827" cy="285.826" cx="5.43"/><circle r="2.962" cy="287.666" cx="23.605"/><circle r="2.019" cy="263.388" cx="16.829"/><circle r=".763" cy="270.299" cx="32.446"/><circle r="1.84" cy="284.928" cx="33.702"/><circle r="2.199" cy="291.66" cx="29.573"/><circle r=".853" cy="277.21" cx="3.276"/><circle r="3.231" cy="289.192" cx="14.63"/><circle r="1.436" cy="278.96" cx="8.167"/></g><path d="M158.783 45.279l.852 2.856 2.854.527-12.314 11.248.511-2.724-1.874.483.213-1.449-1.576-.22z" fill="#282828" fill-opacity=".773" stroke="#191919" stroke-width=".964"/><path d="M160.775 58.817l-3.083.45-.957 2.804-9.888-14.04 2.75.907-.232-1.96 1.473.423.454-1.559z" fill="#282828" fill-opacity=".773" stroke="#191919" stroke-width=".995"/><path d="M156.135 38.229a.846.846 0 0 0 .48-1.098.846.846 0 0 0-1.097-.48l-10.847 4.242 1.24.74-.079.626zM141.613 45.664l-.652-.666-1.042.751v10.266c0 .47.378.847.847.847.47 0 .847-.377.847-.847z" fill="#5b5b5b" fill-opacity=".768" stroke="#191919" stroke-width=".847"/><path fill="#555" d="M16.933 0H50.8v6.375H16.933z"/><path d="M0 127h169.334V16.934L50.8 16.933v-25.4h-8.467V25.4h118.534v93.074H8.467V-8.466H0z" clip-path="url(#d)" transform="translate(8.467)" fill="#1a1c21" stroke="#000" stroke-width="3.175" stroke-opacity=".706"/><path d="M33.867-2.895l-6.35 6.35h12.7z" fill="none" stroke="#2e2e2e" stroke-width="1.588" stroke-linecap="square"/></svg>