<svg xmlns="http://www.w3.org/2000/svg" width="128" height="128" viewBox="0 0 33.867 33.867"><defs><clipPath id="a"><path fill="#fff" stroke-width="12.144" d="M32.808 274.775h16.933v8.467H32.808z"/></clipPath><clipPath id="c"><path d="M52.917 283.242c0 5.261-3.83 12.166-8.625 12.166s-8.625-6.905-8.625-12.166c0-5.262 3.861-9.518 8.625-9.518 4.763 0 8.625 4.256 8.625 9.518z" fill="#939393" stroke-width="2.96"/></clipPath><clipPath id="d"><path d="M61.383 253.608c0 5.262-3.83 12.167-8.625 12.167-4.794 0-8.624-6.905-8.624-12.167 0-5.261 3.861-9.517 8.624-9.517 4.764 0 8.625 4.256 8.625 9.517z" fill="#939393" stroke-width="2.96"/></clipPath><clipPath id="b"><path d="M16.933 264.192c4.586 0 12.7 2.116 12.7 5.291v3.175c0 1.059-.944 2.117-2.116 2.117H6.35c-1.17-.073-2.117-1.058-2.117-2.117v-3.175c0-3.175 8.114-5.291 12.7-5.291z" fill="#424242" stroke-width="3.772"/></clipPath></defs><path clip-path="url(#a)" transform="matrix(1 0 0 1.79831 -24.342 -489.368)" fill="#fff" stroke="#2d2d2d" stroke-width="3.175" d="M32.808 274.775h16.933v8.467H32.808z"/><path d="M16.933 264.192c4.586 0 12.7 2.116 12.7 5.291v3.175c0 1.059-.944 2.117-2.116 2.117H6.35c-1.17-.073-2.117-1.058-2.117-2.117v-3.175c0-3.175 8.114-5.291 12.7-5.291z" clip-path="url(#b)" transform="translate(0 -263.662)" fill="#fefefe" stroke="#2d2d2d" stroke-width="3.175"/><path d="M52.917 283.242c0 5.261-3.83 12.166-8.625 12.166s-8.625-6.905-8.625-12.166c0-5.262 3.861-9.518 8.625-9.518 4.763 0 8.625 4.256 8.625 9.518z" clip-path="url(#c)" transform="translate(-27.358 -262.075)" fill="#bdbdbd" stroke="#fff" stroke-width="8.467"/><path d="M18.468 20.637c0 1.192-.687 2.766-1.535 2.766-.847 0-1.535-1.574-1.535-2.766 0-1.191.688-1.55 1.535-1.55.848 0 1.535.359 1.535 1.55z" fill="#2d2d2d"/><path d="M61.383 253.608c0 5.262-3.83 12.167-8.625 12.167-4.794 0-8.624-6.905-8.624-12.167 0-5.261 3.861-9.517 8.624-9.517 4.764 0 8.625 4.256 8.625 9.517z" clip-path="url(#d)" transform="translate(-35.825 -232.442)" fill="none" stroke="#2d2d2d" stroke-width="2.96"/></svg>