<svg xmlns="http://www.w3.org/2000/svg" width="128" height="128" viewBox="0 0 33.867 33.867"><defs><clipPath id="a"><path d="M11.392 286.1l-1.216.532c-.002 5.291 3.83 12.166 8.624 12.166 4.26 0 8.625-6.875 8.625-12.166l-.688-.531-1.058.808-1.058-1.337-1.338.315c.078.41.124.835.124 1.274 0 3.103-2.046 7.055-4.607 7.055-2.56 0-4.606-3.952-4.606-7.055 0-.335.028-.662.074-.981l-.76-.608-1.058 1.587z" fill="#939393" stroke-width="2.96"/></clipPath><clipPath id="b"><path d="M11.392 286.1l-1.216.532c-.002 5.291 3.83 12.166 8.624 12.166 4.26 0 8.625-6.875 8.625-12.166l-.688-.531-1.058.808-1.058-1.337-1.338.315c.078.41.124.835.124 1.274 0 3.103-2.046 7.055-4.607 7.055-2.56 0-4.606-3.952-4.606-7.055 0-.335.028-.662.074-.981l-.76-.608-1.058 1.587z" clip-path="url(#a)" fill="#939393" stroke-width="2.96"/></clipPath><clipPath id="c"><path d="M15.346 274.246c-4.764 0-8.615 4.225-8.62 9.517l1.214-.53 1.058 1.06 1.059-1.588.76.604c.382-2.632 2.263-4.63 4.531-4.63 2.185 0 4.01 1.853 4.484 4.341l1.337-.315 1.059 1.337 1.058-.808.685.53c0-5.293-3.969-9.518-8.625-9.518z" fill="#939393" stroke-width="2.96"/></clipPath><clipPath id="d"><path d="M-19.678 158.645l-6.35-3.175v-8.467l5.291-3.175-1.058 6.35 3.175 4.234z" fill="#797979" stroke-width="16.285"/></clipPath></defs><g stroke="#2d2d2d"><path d="M11.392 286.1l-1.216.532c-.002 5.291 3.83 12.166 8.624 12.166 4.26 0 8.625-6.875 8.625-12.166l-.688-.531-1.058.808-1.058-1.337-1.338.315c.078.41.124.835.124 1.274 0 3.103-2.046 7.055-4.607 7.055-2.56 0-4.606-3.952-4.606-7.055 0-.335.028-.662.074-.981l-.76-.608-1.058 1.587z" clip-path="url(#b)" transform="rotate(-21.282 -613.88 130.251) scale(.89385)" fill="#9e9e9e" stroke-width="2.117"/><path transform="rotate(-37.967 -323.25 136.507) scale(.89385)" clip-path="url(#c)" d="M15.346 274.246c-4.764 0-8.615 4.225-8.62 9.517l1.214-.53 1.058 1.06 1.059-1.588.76.604c.382-2.632 2.263-4.63 4.531-4.63 2.185 0 4.01 1.853 4.484 4.341l1.337-.315 1.059 1.337 1.058-.808.685.53c0-5.293-3.969-9.518-8.625-9.518z" fill="#9e9e9e" stroke-width="2.117"/><path transform="rotate(105 53.101 96.432)" clip-path="url(#d)" d="M-19.678 158.645l-6.35-3.175v-8.467l5.291-3.175-1.058 6.35 3.175 4.234z" fill="#797979" stroke-width="1.905"/></g></svg>