<svg xmlns="http://www.w3.org/2000/svg" width="144" height="110" viewBox="0 0 38.1 29.104"><defs><clipPath id="b"><rect width="38.1" height="12.7" y="258.9" rx="0" fill="#393939" stroke-width="1.192"/></clipPath><clipPath id="c"><rect width="8.467" height="8.467" x="14.817" y="299.117" rx="1.058" ry="1.058" fill="#e30000" stroke-width="3.766"/></clipPath><clipPath id="a"><rect rx="0" y="279.008" height="17.992" width="38.1" fill="#585858" stroke-width="1.419"/></clipPath><clipPath id="d"><circle cx="19.05" cy="302.556" r="3.969" fill="#e30000" stroke-width="3.175"/></clipPath><clipPath id="e"><circle cx="19.05" cy="302.556" r="3.969" fill="#e30000" stroke-width="3.175"/></clipPath></defs><rect clip-path="url(#a)" rx="0" y="279.008" height="17.992" width="38.1" transform="translate(0 -267.896)" fill="#585858" stroke="#191919" stroke-width="3.175"/><rect transform="translate(0 -258.9)" width="38.1" height="12.7" y="258.9" rx="0" clip-path="url(#b)" fill="#393939" stroke="#191919" stroke-width="3.175"/><path d="M12.806 2.116h9.313c.424 0 .75.269.847.847.423 2.54.423 4.233 0 6.773-.097.579-.423.847-.847.847h-9.313c-.423 0-.75-.268-.847-.847-.423-2.54-.423-4.233 0-6.773.097-.578.424-.847.847-.847zm12.7 0h9.313c.424 0 .75.269.847.847.423 2.54.423 4.233 0 6.773-.097.579-.423.847-.847.847h-9.313c-.423 0-.75-.268-.847-.847-.423-2.54-.423-4.233 0-6.773.097-.578.424-.847.847-.847z" fill="#585858"/><rect ry=".529" y="16.404" x="5.821" height="8.467" width="4.233" fill="#1a1a1a"/><path d="M7.408 16.404h1.058v8.467H7.408z" fill="#989898"/><rect ry=".529" rx=".661" y="21.166" x="5.292" height="2.117" width="5.292" fill="#040404"/><rect transform="translate(0 -282.713)" clip-path="url(#c)" width="8.467" height="8.467" x="14.817" y="299.117" rx="1.058" ry="1.058" fill="#412b2b" stroke="#191919" stroke-width="3.175"/><circle transform="matrix(.4 0 0 .4 24.66 -96.681)" clip-path="url(#d)" cx="19.05" cy="302.556" r="3.969" fill="#202020"/><circle r="3.969" cy="302.556" cx="19.05" clip-path="url(#d)" transform="matrix(.4 0 0 .4 20.426 -96.681)" fill="#202020"/><circle transform="translate(12.383 -264.395) scale(.93333)" clip-path="url(#e)" cx="19.05" cy="302.556" r="3.969" fill="#202020"/><rect ry=".265" rx=".265" y="16.669" x="27.517" height=".529" width="5.292" fill="#5b5b5b"/><rect ry=".265" rx=".265" y="19.844" x="28.31" height=".529" width="3.704" fill="#5b5b5b"/><rect ry=".265" rx=".265" y="17.727" x="27.252" height=".529" width="5.821" fill="#5b5b5b"/><rect ry=".265" rx=".265" y="18.785" x="27.517" height=".529" width="5.292" fill="#5b5b5b"/><rect ry=".265" rx=".265" y="15.61" x="28.31" height=".529" width="3.704" fill="#5b5b5b"/><path d="M2.91 3.307h2.91v2.91H2.91zm3.969 0h2.91v2.91h-2.91zM2.91 6.747h2.91v2.91H2.91zm3.969 0h2.91v2.91h-2.91z" fill="#202020"/><path d="M17.198 5.292l1.323-1.588-.53 2.117 2.647.529-2.646.529 1.058 2.117-1.587-1.588-2.117 1.059 1.058-1.588-2.116-.794h2.116l-1.058-1.852zm10.076 2.545L29.18 6.5l-1.058-1.63 1.62.936 2.095-1.383-.68 1.552 2.456.986-2.182.036-.4 1.62-1.133-1.209z" fill="#232323"/></svg>