<svg xmlns="http://www.w3.org/2000/svg" width="96" height="94" viewBox="0 0 25.4 24.871"><defs><clipPath id="d"><circle cx="19.05" cy="302.556" r="3.969" fill="#e30000" stroke-width="3.175"/></clipPath><clipPath id="c"><circle cx="19.05" cy="302.556" r="3.969" fill="#e30000" stroke-width="3.175"/></clipPath><clipPath id="b"><rect rx="0" y="113.242" height="12.7" width="25.4" x="50.801" fill="#393939" stroke-width=".973"/></clipPath><clipPath id="a"><rect x="148.167" rx="0" y="46.567" height="13.759" width="25.4" fill="#585858" stroke-width="1.013"/></clipPath></defs><rect width="25.4" height="13.759" y="46.567" rx="0" x="148.167" transform="matrix(1 0 0 -1 -148.167 71.438)" clip-path="url(#a)" fill="#585858" stroke="#191919" stroke-width="3.175"/><rect transform="matrix(1 0 0 1 -50.8 -113.242)" x="50.801" width="25.4" height="12.7" y="113.242" rx="0" clip-path="url(#b)" fill="#393939" stroke="#191919" stroke-width="3.175"/><path d="M3.602 2.646h7.65c.348 0 .616.235.695.74.348 2.223.348 3.705 0 5.927-.08.507-.347.741-.695.741h-7.65c-.347 0-.616-.234-.696-.741-.347-2.222-.347-3.704 0-5.926.08-.506.349-.741.696-.741zm10.432 0h7.65c.347 0 .615.235.695.74.347 2.223.347 3.705 0 5.927-.08.507-.348.741-.696.741h-7.65c-.347 0-.615-.234-.695-.741-.347-2.222-.347-3.704 0-5.926.08-.506.348-.741.696-.741z" fill="#585858"/><path d="M7.21 5.425l1.086-1.39-.435 1.852 2.174.463-2.173.463.869 1.853-1.304-1.39-1.739.927.87-1.39-1.739-.695h1.738l-.869-1.62zm8.276 2.226l1.565-1.17-.869-1.426 1.331.82 1.72-1.21-.558 1.357 2.018.863-1.793.031-.328 1.418-.93-1.058z" fill="#232323"/><circle transform="matrix(.4 0 0 .4 2.434 -100.738)" clip-path="url(#c)" cx="19.05" cy="302.556" r="3.969" fill="#202020"/><circle r="3.969" cy="302.556" cx="19.05" clip-path="url(#c)" transform="matrix(.4 0 0 .4 -1.8 -100.738)" fill="#202020"/><circle transform="matrix(.93333 0 0 .93333 .212 -264.218)" clip-path="url(#d)" cx="19.05" cy="302.556" r="3.969" fill="#202020"/><rect ry=".265" rx=".265" y="16.846" x="15.346" height=".529" width="5.292" fill="#5b5b5b"/><rect ry=".265" rx=".265" y="20.021" x="16.139" height=".529" width="3.704" fill="#5b5b5b"/><rect ry=".265" rx=".265" y="17.904" x="15.081" height=".529" width="5.821" fill="#5b5b5b"/><rect ry=".265" rx=".265" y="18.962" x="15.346" height=".529" width="5.292" fill="#5b5b5b"/><rect ry=".265" rx=".265" y="15.787" x="16.139" height=".529" width="3.704" fill="#5b5b5b"/><path d="M2.646 14.287h1.41V15.7h-1.41zm1.764 0h1.41V15.7H4.41zm-1.764 1.764h1.41v1.411h-1.41zm1.764 0h1.41v1.411H4.41zM6.174 14.287h1.41V15.7h-1.41zm1.763 0H9.35V15.7H7.937zm-1.763 1.764h1.41v1.411h-1.41zm1.763 0H9.35v1.411H7.937zM9.701 14.287h1.412v1.411H9.7zm1.764 0h1.411v1.411h-1.41zm-1.764 1.764h1.412v1.411H9.7zm1.764 0h1.411v1.411h-1.41z" fill="#a1a1a1"/></svg>