<svg xmlns="http://www.w3.org/2000/svg" width="100" height="100" viewBox="0 0 26.458 26.458"><defs><clipPath id="c"><path d="M61.383 253.608c0 5.262-3.83 12.167-8.625 12.167-4.794 0-8.624-6.905-8.624-12.167 0-5.261 3.861-9.517 8.624-9.517 4.764 0 8.625 4.256 8.625 9.517z" fill="#939393" stroke-width="2.96"/></clipPath><clipPath id="b"><path d="M52.917 283.242c0 5.261-3.83 12.166-8.625 12.166s-8.625-6.905-8.625-12.166c0-5.262 3.861-9.518 8.625-9.518 4.763 0 8.625 4.256 8.625 9.518z" fill="#939393" stroke-width="2.96"/></clipPath><clipPath id="a"><path fill="#fff" stroke-width="16.285" d="M172.608-141.712h16.933v15.226h-16.933z"/></clipPath></defs><path clip-path="url(#a)" transform="translate(-167.839 141.982)" fill="#797979" stroke="#2d2d2d" stroke-width="3.175" d="M172.608-141.712h16.933v15.226h-16.933z"/><path transform="translate(-31.056 -269.22)" clip-path="url(#b)" d="M52.917 283.242c0 5.261-3.83 12.166-8.625 12.166s-8.625-6.905-8.625-12.166c0-5.262 3.861-9.518 8.625-9.518 4.763 0 8.625 4.256 8.625 9.518z" fill="#bdbdbd" stroke="#9e9e9e" stroke-width="8.467"/><path d="M14.77 13.492c0 1.192-.687 2.766-1.535 2.766-.847 0-1.535-1.574-1.535-2.766s.688-1.55 1.535-1.55c.848 0 1.536.358 1.536 1.55z" fill="#2d2d2d"/><path transform="translate(-39.536 -239.587)" clip-path="url(#c)" d="M61.383 253.608c0 5.262-3.83 12.167-8.625 12.167-4.794 0-8.624-6.905-8.624-12.167 0-5.261 3.861-9.517 8.624-9.517 4.764 0 8.625 4.256 8.625 9.517z" fill="none" stroke="#2d2d2d" stroke-width="2.96"/></svg>