<svg xmlns="http://www.w3.org/2000/svg" xmlns:xlink="http://www.w3.org/1999/xlink" width="420" height="340" viewBox="0 0 111.125 89.958"><defs><pattern xlink:href="#a" id="d" patternTransform="rotate(90 -62.683 205.654) scale(.0926)"/><pattern xlink:href="#b" id="c" patternTransform="translate(193.242 244.524) scale(.14235)"/><pattern patternUnits="userSpaceOnUse" width="160" height="160" patternTransform="translate(193.242 244.524) scale(.26458)" id="b"><path fill="none" stroke-width="3.78" d="M0 0h160v160H0z"/><path fill="none" stroke-width="3.78" d="M0 0h160v160H0z"/><path fill="none" stroke-width="3.78" d="M0 0h160v160H0z"/><path fill="#502900" stroke-width="18.898" stroke-miterlimit="10" d="M0 0h160v160H0z"/><path fill-opacity=".354" stroke-width="8.709" stroke-miterlimit="10" d="M36 0h4v160h-4zm40 0h4v160h-4zm40 0h4v160h-4z"/><path transform="rotate(90)" fill-opacity=".354" stroke-width="4.131" stroke-miterlimit="10" d="M36-76h4v36h-4zm120 40h4V0h-4zm-40-80h4v36h-4z"/><path fill-opacity=".354" stroke-width="8.709" stroke-miterlimit="10" d="M156 0h4v160h-4z"/><path transform="rotate(90)" fill-opacity=".354" stroke-width="4.131" stroke-miterlimit="10" d="M76-156h4v36h-4z"/></pattern><pattern patternUnits="userSpaceOnUse" width="160" height="160" patternTransform="translate(142.971 268.336) scale(.26458)" id="a"><path fill="none" stroke-width="3.78" d="M0 0h160v160H0z"/><path fill="none" stroke-width="3.78" d="M0 0h160v160H0z"/><path fill="none" stroke-width="3.78" d="M0 0h160v160H0z"/><path fill="#b7b7b7" stroke-width="18.898" stroke-miterlimit="10" d="M0 0h160v160H0z"/><path fill-opacity=".354" stroke-width="8.709" stroke-miterlimit="10" d="M36 0h4v160h-4zm40 0h4v160h-4zm40 0h4v160h-4z"/><path transform="rotate(90)" fill-opacity=".354" stroke-width="4.131" stroke-miterlimit="10" d="M36-76h4v36h-4zm120 40h4V0h-4zm-80-80h4v36h-4z"/><path fill-opacity=".354" stroke-width="8.709" stroke-miterlimit="10" d="M156 0h4v160h-4z"/><path transform="rotate(90)" fill-opacity=".354" stroke-width="4.131" stroke-miterlimit="10" d="M116-156h4v36h-4zm0 80h4v36h-4zm40-40h4v36h-4zM36-156h4v36h-4zM76-36h4V0h-4z"/></pattern></defs><path d="M37.105 204.836h100.542v63.5H37.105z" fill="url(#c)" transform="translate(-31.846 -199.544)"/><path d="M75.108 62.442v6.35H5.292v-63.5h100.541v63.5H99.45l.033-57.15H11.642v50.8z" fill-opacity=".31" fill="#ff8102"/><path d="M100.638 268.336h37.042v21.167h-37.042z" fill="url(#d)" transform="translate(-31.846 -199.544)"/></svg>