<svg xmlns="http://www.w3.org/2000/svg" width="288" height="288" viewBox="0 0 76.2 76.2"><defs><clipPath id="a"><path d="M44.15 2.39c9.8 1.981 14.074 3.768 19.881 9.902 5.808 6.131 9.837 15.36 10.302 25.16.468 9.797-2.986 20.045-9.252 26.581-6.265 6.537-15.34 9.359-24.204 9.826-8.867.466-15.37.129-21.446-3.209-6.075-3.338-11.715-9.673-14.089-14.607-2.374-4.932-3.388-10.132-3.506-15.85-.117-5.718.659-13.03 3.138-18.545 2.48-5.514 5.935-9.346 10.065-12.614 4.128-3.267 7.492-4.537 12.054-5.755 4.963-.77 7.763-1.48 17.056-.89z" fill="#6c6c6c" stroke="#2d2d2d" stroke-width="2.489"/></clipPath></defs><path d="M44.15 2.39c9.8 1.981 14.074 3.768 19.881 9.902 5.808 6.131 9.837 15.36 10.302 25.16.468 9.797-2.986 20.045-9.252 26.581-6.265 6.537-15.34 9.359-24.204 9.826-8.867.466-15.37.129-21.446-3.209-6.075-3.338-11.715-9.673-14.089-14.607-2.374-4.932-3.388-10.132-3.506-15.85-.117-5.718.659-13.03 3.138-18.545 2.48-5.514 5.935-9.346 10.065-12.614 4.128-3.267 7.492-4.537 12.054-5.755 4.963-.77 7.763-1.48 17.056-.89z" clip-path="url(#a)" fill="#4f4f4f" stroke="#2d2d2d" stroke-width="4.763"/><path d="M38.261 2.17c-4.94-.012-7.445.531-11.168 1.108-4.562 1.218-7.926 2.49-12.054 5.757-4.13 3.267-7.586 7.099-10.065 12.613-2.48 5.516-3.255 12.827-3.138 18.545.118 5.718 1.132 10.918 3.506 15.85 2.373 4.934 8.014 11.269 14.089 14.607 6.075 3.338 12.58 3.675 21.446 3.21 8.865-.468 17.939-3.29 24.203-9.827 6.267-6.536 9.721-16.784 9.253-26.582-.465-9.8-4.495-19.028-10.302-25.16C58.224 6.159 53.95 4.372 44.15 2.39a97.349 97.349 0 0 0-5.888-.22zm5.66 6.955c7.944 1.417 10.759 2.104 16.566 8.237 5.807 6.131 6.504 11.735 7.212 20.324.467 9.797-.704 14.203-6.97 20.74-6.265 6.536-12.323 8.62-18.282 9.411-8.866.466-12.229.693-18.12-2.962-5.51-3.418-8.76-6.45-10.972-10.255-5.237-10.013-6.15-15.948-3.622-24.48 2.237-5.192 3.926-9.07 9.428-14.274 6.279-5.46 15.258-7.645 24.76-6.741z" fill="#071b35" fill-opacity=".749"/><path d="M53.972 17.295c4.465 4.33 8.533 11.468 3.681 16.32-4.85 4.85-14.804 3.724-18.616-.65-2.538-3.904-4.54-9.808-1.036-13.217 7.12-6.556 12.424-5.688 15.97-2.453z" fill="#616161"/></svg>