<?xml version="1.0" encoding="UTF-8" standalone="no"?>
<svg
   xmlns:dc="http://purl.org/dc/elements/1.1/"
   xmlns:cc="http://creativecommons.org/ns#"
   xmlns:rdf="http://www.w3.org/1999/02/22-rdf-syntax-ns#"
   xmlns:svg="http://www.w3.org/2000/svg"
   xmlns="http://www.w3.org/2000/svg"
   xmlns:sodipodi="http://sodipodi.sourceforge.net/DTD/sodipodi-0.dtd"
   xmlns:inkscape="http://www.inkscape.org/namespaces/inkscape"
   width="144"
   height="144"
   viewBox="0 0 38.1 38.1"
   version="1.1"
   id="svg4"
   sodipodi:docname="map-bush-res-01sv.svg"
   inkscape:version="0.92.2 (5c3e80d, 2017-08-06)">
  <metadata
     id="metadata10">
    <rdf:RDF>
      <cc:Work
         rdf:about="">
        <dc:format>image/svg+xml</dc:format>
        <dc:type
           rdf:resource="http://purl.org/dc/dcmitype/StillImage" />
      </cc:Work>
    </rdf:RDF>
  </metadata>
  <defs
     id="defs8" />
  <sodipodi:namedview
     pagecolor="#ffffff"
     bordercolor="#666666"
     borderopacity="1"
     objecttolerance="10"
     gridtolerance="10"
     guidetolerance="10"
     inkscape:pageopacity="0"
     inkscape:pageshadow="2"
     inkscape:window-width="1920"
     inkscape:window-height="1017"
     id="namedview6"
     showgrid="false"
     inkscape:zoom="1.6388889"
     inkscape:cx="48.772065"
     inkscape:cy="165.94985"
     inkscape:window-x="1912"
     inkscape:window-y="-8"
     inkscape:window-maximized="1"
     inkscape:current-layer="svg4" />
  <g
     id="g841"
     transform="matrix(0.85003588,0,0,0.85003588,2.8568165,2.8568169)">
    <path
       transform="translate(17.933315,16.125806)"
       inkscape:transform-center-y="-0.15413411"
       d="M 3.9223654,0.48531086 C 4.0751432,0.4881078 4.3083378,1.2178891 4.456046,1.2527929 4.6037543,1.2876967 5.1739264,0.74945462 5.3116728,0.81419766 5.4494191,0.87894068 5.5250982,1.7776663 5.6572877,1.8595274 5.7894772,1.9413885 6.5080458,1.531458 6.611907,1.6418956 6.7157681,1.7523331 6.4038824,2.4645678 6.4910765,2.5913349 6.5782707,2.718102 7.3175166,2.6845606 7.3807867,2.82425 7.4440568,2.9639394 6.8413603,3.4763007 6.871764,3.6259724 6.9021678,3.775644 7.6413089,4.0536512 7.6465087,4.2093097 7.6517084,4.3649681 6.9080536,4.5501781 6.8721439,4.6975556 6.8362342,4.8449332 7.437385,5.4845749 7.3814306,5.6283793 7.3254762,5.7721837 6.5749265,5.758766 6.4919918,5.8854818 6.4090572,6.0121976 6.7223388,6.7020126 6.6133249,6.810157 6.5043111,6.9183015 5.7882392,6.6173006 5.6586155,6.7031794 5.5289917,6.7890583 5.4532641,7.6863302 5.3134706,7.7487976 5.1736771,7.8112651 4.6074259,6.9982853 4.4576089,7.0253168 4.307792,7.0523483 4.0754176,7.9874882 3.924098,7.9922716 3.7727784,7.997055 3.5291197,7.1822772 3.3782936,7.1458657 3.2274676,7.1094543 2.6879821,7.6563669 2.5469251,7.592076 2.4058682,7.5277852 2.450278,6.7387111 2.3249931,6.6502181 2.1997082,6.5617252 1.4809375,6.952064 1.3703702,6.8429415 1.2598029,6.733819 1.5767043,6.0477091 1.4912043,5.9184106 1.4057043,5.7891121 0.6655575,5.8001889 0.60149049,5.6605871 0.53742348,5.5209853 1.1290467,4.8801423 1.0983822,4.7301241 1.0677177,4.5801058 0.18550694,4.3405209 0.18783098,4.189349 0.19015502,4.0381771 1.0615667,3.8083325 1.0980024,3.6585408 1.134438,3.5087491 0.53604711,2.994665 0.60084662,2.8564578 0.66564612,2.7182506 1.4052761,2.7512588 1.490289,2.6242637 1.5753018,2.4972687 1.2583273,1.7809453 1.3689523,1.6746801 1.4795772,1.5684148 2.1972177,1.893377 2.3236653,1.8065661 2.450113,1.7197552 2.4018896,0.7143194 2.5451274,0.65747607 2.6883651,0.60063275 3.2261838,1.4089425 3.3767307,1.3733419 3.5272777,1.3377413 3.7695875,0.48251392 3.9223654,0.48531086 Z"
       inkscape:randomized="0.03"
       inkscape:rounded="0.15"
       inkscape:flatsided="false"
       sodipodi:arg2="-1.3744468"
       sodipodi:arg1="-1.5707963"
       sodipodi:r2="2.9619453"
       sodipodi:r1="3.7492976"
       sodipodi:cy="4.2179613"
       sodipodi:cx="3.9836292"
       sodipodi:sides="16"
       id="path891"
       style="fill:#8c9b48;fill-opacity:1;stroke:#74803c;stroke-width:0.39687499;stroke-linecap:round;stroke-linejoin:miter;stroke-miterlimit:6;stroke-dasharray:none;stroke-opacity:1;paint-order:normal"
       sodipodi:type="star"
       inkscape:transform-center-x="0.07182443" />
    <path
       transform="translate(12.380341,13.548727)"
       inkscape:transform-center-y="-0.17679563"
       d="M 3.0479726,0.43314373 C 3.1639412,0.43365572 3.2141992,0.90383208 3.3242443,0.93063382 3.4342894,0.95743555 3.8508812,0.58900911 3.957122,0.63506175 4.0633628,0.68111438 4.164164,1.1780499 4.2598813,1.2436412 4.3555986,1.3092326 4.8570365,1.0919084 4.9402241,1.168097 5.0234116,1.2442855 4.7564405,1.8751339 4.8171127,1.9705969 4.8777849,2.06606 5.5863645,2.0172906 5.6256701,2.1249488 5.6649757,2.232607 5.0586181,2.6129764 5.0795166,2.7268944 5.1004151,2.8408125 5.785377,3.0587275 5.7803,3.17364 5.775223,3.2885525 5.1006156,3.4004224 5.0796272,3.5111569 5.0586387,3.6218913 5.6694302,4.1109564 5.6260772,4.21687 5.5827243,4.3227835 4.8815217,4.3560196 4.8175793,4.4498365 4.7536369,4.5436534 5.0211699,5.0043174 4.9409493,5.0843327 4.8607288,5.1643481 4.3548758,4.893546 4.2604718,4.9567972 4.1660679,5.0200485 4.0666387,5.7579146 3.9579497,5.7977248 3.8492607,5.837535 3.435843,5.3494924 3.3250398,5.3727122 3.2142366,5.3959321 3.1622013,5.965477 3.0488407,5.9644079 2.9354801,5.9633387 2.7077893,5.408665 2.5960177,5.3854414 2.4842461,5.3622177 2.0678479,5.7287102 1.96314,5.6810134 1.8584322,5.6333167 1.753265,4.9722479 1.6603808,4.9047524 1.5674965,4.837257 1.0718662,5.1360739 0.98907755,5.0576923 0.90628893,4.9793108 1.1639535,4.4422736 1.1031493,4.3454782 1.0423451,4.2486829 0.50229951,4.2832164 0.46210084,4.1766407 0.42190217,4.070065 0.86635885,3.6844 0.84057284,3.574695 0.81478683,3.4649901 0.14005245,3.2614355 0.13979216,3.146516 0.13953187,3.0315964 0.81907007,2.9042475 0.84046227,2.7904326 0.86185448,2.6766177 0.41967008,2.1907676 0.46169372,2.0847195 0.50371734,1.9786714 1.0355035,1.9581998 1.1026827,1.8662387 1.169862,1.7742775 0.90636427,1.2199547 0.98835228,1.1414565 1.0703403,1.0629584 1.5679129,1.4264035 1.6597902,1.359278 1.7516674,1.2921524 1.8555598,0.56138941 1.9623123,0.51835038 2.0690649,0.47531135 2.4840012,0.96932384 2.5952222,0.94336295 2.7064432,0.91740205 2.9320039,0.43263173 3.0479726,0.43314373 Z"
       inkscape:randomized="0.03"
       inkscape:rounded="0.15"
       inkscape:flatsided="false"
       sodipodi:arg2="-1.3744468"
       sodipodi:arg1="-1.5707963"
       sodipodi:r2="2.2078063"
       sodipodi:r1="2.794692"
       sodipodi:cy="3.1440301"
       sodipodi:cx="2.9693611"
       sodipodi:sides="16"
       id="path897"
       style="fill:#8c9b48;fill-opacity:1;stroke:#74803c;stroke-width:0.39687499;stroke-linecap:round;stroke-linejoin:miter;stroke-miterlimit:6;stroke-dasharray:none;stroke-opacity:1;paint-order:normal"
       sodipodi:type="star"
       inkscape:transform-center-x="0.027689297" />
  </g>
</svg>
