<svg xmlns="http://www.w3.org/2000/svg" width="144" height="144" viewBox="0 0 38.1 38.1"><defs><clipPath id="c"><ellipse cx="19.05" cy="19.05" rx="10.583" ry="11.642" fill="#382b25" stroke-width="2.367" stroke-linecap="square"/></clipPath><clipPath id="b"><ellipse ry="3.175" rx="3.175" cy="7.408" cx="19.05" fill="#382b25" stroke-width=".677" stroke-linecap="square"/></clipPath><clipPath id="a"><path d="M3.175 7.408h13.758a3.168 3.168 0 0 1 3.175 3.175v16.934a3.168 3.168 0 0 1-3.175 3.175H3.175A3.168 3.168 0 0 1 0 27.517V10.583a3.168 3.168 0 0 1 3.175-3.175z" fill="#7e4e40" stroke-width=".365" stroke-linecap="square"/></clipPath></defs><path d="M3.175 7.408h13.758a3.168 3.168 0 0 1 3.175 3.175v16.934a3.168 3.168 0 0 1-3.175 3.175H3.175A3.168 3.168 0 0 1 0 27.517V10.583a3.168 3.168 0 0 1 3.175-3.175z" clip-path="url(#a)" fill="#7b4c3e" stroke="#323232" stroke-width="3.175" stroke-linecap="square" stroke-opacity=".561"/><ellipse cx="19.05" cy="7.408" rx="3.175" ry="3.175" clip-path="url(#b)" transform="translate(0 .53)" fill="#554139" stroke="#191919" stroke-width="3.175" stroke-linecap="square"/><ellipse transform="translate(0 22.754)" clip-path="url(#b)" ry="3.175" rx="3.175" cy="7.408" cx="19.05" fill="#554139" stroke="#191919" stroke-width="3.175" stroke-linecap="square"/><ellipse ry="11.642" rx="10.583" cy="19.05" cx="19.05" clip-path="url(#c)" fill="#604a40" stroke="#191919" stroke-width="4.233" stroke-linecap="square"/><ellipse cx="4.706" cy="12.171" rx="1.531" ry="1.587" fill="#323232" fill-opacity=".561"/><circle r="2.117" cx="21.167" cy="19.05" fill="#191919"/><ellipse ry="1.587" rx="1.531" cy="25.929" cx="4.706" fill="#323232" fill-opacity=".561"/></svg>