<?xml version="1.0" encoding="UTF-8" standalone="no"?>
<svg
   xmlns:dc="http://purl.org/dc/elements/1.1/"
   xmlns:cc="http://creativecommons.org/ns#"
   xmlns:rdf="http://www.w3.org/1999/02/22-rdf-syntax-ns#"
   xmlns:svg="http://www.w3.org/2000/svg"
   xmlns="http://www.w3.org/2000/svg"
   xmlns:sodipodi="http://sodipodi.sourceforge.net/DTD/sodipodi-0.dtd"
   xmlns:inkscape="http://www.inkscape.org/namespaces/inkscape"
   width="320"
   height="288"
   viewBox="0 0 84.666 76.2"
   version="1.1"
   id="svg33"
   sodipodi:docname="map-bunker-twins-ceiling-01.svg"
   inkscape:version="0.92.2 (5c3e80d, 2017-08-06)">
  <metadata
     id="metadata37">
    <rdf:RDF>
      <cc:Work
         rdf:about="">
        <dc:format>image/svg+xml</dc:format>
        <dc:type
           rdf:resource="http://purl.org/dc/dcmitype/StillImage" />
        <dc:title />
      </cc:Work>
    </rdf:RDF>
  </metadata>
  <sodipodi:namedview
     pagecolor="#ffffff"
     bordercolor="#666666"
     borderopacity="1"
     objecttolerance="10"
     gridtolerance="10"
     guidetolerance="10"
     inkscape:pageopacity="0"
     inkscape:pageshadow="2"
     inkscape:window-width="1920"
     inkscape:window-height="1017"
     id="namedview35"
     showgrid="true"
     inkscape:zoom="0.81944445"
     inkscape:cx="-171.02407"
     inkscape:cy="246.11416"
     inkscape:window-x="1912"
     inkscape:window-y="-8"
     inkscape:window-maximized="1"
     inkscape:current-layer="svg33">
    <inkscape:grid
       type="xygrid"
       id="grid844"
       empspacing="4"
       spacingy="1.0583333"
       spacingx="1.058325" />
  </sodipodi:namedview>
  <defs
     id="defs11">
    <clipPath
       id="c">
      <path
         d="M-70.934 202.47h50.8v-60.854h-8.467v48.155l-4.233 4.233h-25.4l-4.234-4.233v-48.155h-8.466z"
         fill="#a3977d"
         stroke-width="5.144"
         id="path8" />
    </clipPath>
    <clipPath
       clipPathUnits="userSpaceOnUse"
       id="clipPath895">
      <path
         id="path897"
         d="M 16.93334,-6.6400098e-4 29.633,12.700002 29.634587,48.156334 16.934929,60.856 Z"
         inkscape:connector-curvature="0"
         style="fill:#3a3a3a;stroke-width:3.17499995"
         sodipodi:nodetypes="ccccc" />
    </clipPath>
    <clipPath
       clipPathUnits="userSpaceOnUse"
       id="clipPath901">
      <path
         sodipodi:nodetypes="ccccc"
         style="fill:#3a3a3a;stroke-width:3.17499995"
         inkscape:connector-curvature="0"
         d="M 16.935,60.856 29.635667,48.156339 55.035339,48.155239 67.735006,60.8549 Z"
         id="path903" />
    </clipPath>
    <clipPath
       clipPathUnits="userSpaceOnUse"
       id="clipPath907">
      <path
         sodipodi:nodetypes="ccccc"
         style="fill:#3a3a3a;stroke-width:3.17499995"
         inkscape:connector-curvature="0"
         d="M 67.735,60.856 55.035339,48.155333 55.033,12.700002 67.732659,3.3599967e-4 Z"
         id="path909" />
    </clipPath>
    <clipPath
       clipPathUnits="userSpaceOnUse"
       id="clipPath913">
      <path
         id="path915"
         d="m 16.933,-6.6000048e-4 h 8.46667 C 25.39967,4.2333399 29.632669,8.4663399 33.866669,8.4663399 h 16.933 c 4.233,0 8.467,-4.233 8.468,-8.46699990048 L 67.733,2.4e-6 55.033,12.700002 h -25.4 z"
         inkscape:connector-curvature="0"
         style="fill:#3a3a3a;stroke-width:6.52400017;stroke-opacity:0.22699998"
         sodipodi:nodetypes="ccssccccc" />
    </clipPath>
    <clipPath
       clipPathUnits="userSpaceOnUse"
       id="clipPath919">
      <path
         id="path921"
         d="M 29.634659,12.700002 H 55.033 V 48.156334 H 29.634659 Z"
         inkscape:connector-curvature="0"
         style="fill:#565656;fill-opacity:1;stroke-width:0.91882825" />
    </clipPath>
  </defs>
  <path
     style="fill:#645548;stroke-width:2.11666667;fill-opacity:1;stroke:#000000;stroke-opacity:1;stroke-miterlimit:4;stroke-dasharray:none"
     inkscape:connector-curvature="0"
     d="M 29.63466,12.700002 H 55.033 V 48.156334 H 29.63466 Z"
     id="path917"
     clip-path="url(#clipPath919)" />
  <path
     transform="translate(87.869 -141.614)"
     d="M-70.934 202.47h50.8v-60.854h-8.467v48.155l-4.233 4.233h-25.4l-4.234-4.233v-48.155h-8.466z"
     clip-path="url(#c)"
     fill="#1b1e25"
     stroke="#000"
     stroke-width="3.175"
     stroke-opacity=".706"
     id="path31" />
  <path
     sodipodi:nodetypes="ccccc"
     style="fill:#443930;stroke-width:2.11666667;stroke:#000000;stroke-opacity:1;stroke-miterlimit:4;stroke-dasharray:none;fill-opacity:1"
     inkscape:connector-curvature="0"
     d="M 16.93334,-6.64e-4 29.633,12.700002 29.63466,48.156334 16.935,60.856 Z"
     id="path893"
     clip-path="url(#clipPath895)" />
  <path
     id="path899"
     d="m 16.935,60.856 12.700666,-12.69966 25.399674,-0.001 12.699666,12.69966 z"
     inkscape:connector-curvature="0"
     style="fill:#443930;stroke-width:2.11666667;stroke-miterlimit:4;stroke-dasharray:none;stroke:#000000;stroke-opacity:1;fill-opacity:1"
     sodipodi:nodetypes="ccccc"
     clip-path="url(#clipPath901)" />
  <path
     id="path905"
     d="M 67.735,60.856 55.03534,48.155334 55.033,12.700002 67.73266,3.36e-4 Z"
     inkscape:connector-curvature="0"
     style="fill:#443930;stroke-width:2.11666667;stroke:#000000;stroke-opacity:1;stroke-miterlimit:4;stroke-dasharray:none;fill-opacity:1"
     sodipodi:nodetypes="ccccc"
     clip-path="url(#clipPath907)" />
  <path
     sodipodi:nodetypes="ccssccccc"
     style="fill:#443930;stroke-width:2.11666667;stroke-opacity:1;stroke:#000000;stroke-miterlimit:4;stroke-dasharray:none;fill-opacity:1"
     inkscape:connector-curvature="0"
     d="m 16.933,-6.6e-4 h 8.46667 c 0,4.234 4.233,8.467 8.467,8.467 h 16.933 c 4.233,0 8.467,-4.233 8.468,-8.467 L 67.733,2.4e-6 55.033,12.700002 h -25.4 z"
     id="path911"
     clip-path="url(#clipPath913)" />
  <path
     inkscape:connector-curvature="0"
     style="fill:#2e2721;fill-opacity:1;stroke-width:0.2802828"
     d="m 46.309551,36.285858 c -0.0043,0 -0.0077,-5.62e-4 -0.01156,-5.62e-4 -0.0043,0 -0.006,5.62e-4 -0.01063,5.62e-4 -0.768604,0 -1.357226,-0.396488 -1.392074,-1.534479 -0.01666,-0.567689 0.28106,-1.062094 0.696305,-1.327536 l 0.101272,-0.312041 c 0,0 -1.441129,-0.445537 -1.505938,-0.55237 0,0 -1.143039,-2.177308 -1.854656,-3.535902 -0.711522,1.35862 -1.853543,3.536454 -1.853543,3.536454 -0.06487,0.106825 -1.505938,0.55237 -1.505938,0.55237 l 0.100737,0.312033 c 0.4159,0.265442 0.69577,0.759524 0.69577,1.327545 0,0.0964 -0.01063,0.189854 -0.02576,0.281384 -0.0051,0.02933 -0.01258,0.0573 -0.01921,0.08591 -0.01394,0.06189 -0.03044,0.121482 -0.05093,0.180102 -0.01063,0.03061 -0.02117,0.06121 -0.03392,0.09089 -0.02313,0.05603 -0.04982,0.108831 -0.07881,0.160947 -0.01394,0.02542 -0.02712,0.05195 -0.04268,0.0766 -0.04429,0.06938 -0.093,0.135408 -0.148339,0.195992 -0.01989,0.02245 -0.04344,0.04208 -0.06461,0.06342 -0.03749,0.03673 -0.07609,0.07295 -0.117147,0.106204 -0.03001,0.02338 -0.06113,0.04481 -0.09312,0.06563 -0.03783,0.02542 -0.07592,0.04897 -0.116058,0.07005 -0.03392,0.01794 -0.06733,0.03537 -0.102855,0.05033 -0.01063,0.0043 -0.0204,0.01114 -0.03129,0.01539 -0.0017,-6.75e-4 -0.0034,-0.0017 -0.0051,-0.0034 -0.145253,0.05696 -0.29917,0.09365 -0.462021,0.09365 -0.0043,0 -0.0077,-5.63e-4 -0.01156,-5.63e-4 -0.0043,0 -0.006,5.63e-4 -0.01088,5.63e-4 -0.768604,0 -1.356681,-0.396481 -1.391522,-1.534472 -0.01666,-0.567698 0.28107,-1.062094 0.696306,-1.327536 l 0.100737,-0.312051 c 0,0 -1.441129,-0.445527 -1.505939,-0.55236 0,0 -2.090376,-3.978106 -2.402061,-4.580976 -0.230254,-0.444898 0.66127,-0.996971 1.084982,-0.478455 0.02482,0.03027 0.04922,0.063 0.07014,0.101801 0.477129,0.858544 1.476387,3.090297 1.476387,3.090297 0,0 -0.0017,-0.02712 -0.0051,-0.07175 0,-0.0077 -6.75e-4,-0.01683 -0.0017,-0.02627 -6.52e-4,-0.01369 -8.5e-4,-0.0301 -0.0017,-0.0477 0,-0.0017 -2.13e-4,-0.0043 -5.62e-4,-0.006 -0.0051,-0.117247 -0.01454,-0.297129 -0.02295,-0.514043 v -0.0051 c -0.0017,-0.04166 -0.0034,-0.08468 -0.0051,-0.128649 0,-0.0043 -5.62e-4,-0.0077 -5.62e-4,-0.01156 -0.0017,-0.04523 -0.0043,-0.08899 -0.0051,-0.136318 v -0.0043 c -0.0051,-0.132227 -0.0095,-0.272966 -0.01369,-0.416604 -6.52e-4,-0.01598 -8.5e-4,-0.03222 -0.0017,-0.04982 -8.5e-4,-0.03579 -0.0017,-0.0726 -0.0034,-0.10838 -6.53e-4,-0.02482 -7.43e-4,-0.04821 -8.5e-4,-0.07227 -8.5e-4,-0.02933 -0.0017,-0.05917 -0.0034,-0.08919 -6.53e-4,-0.03324 -8.5e-4,-0.06589 -0.0017,-0.09905 0,-0.0261 -4.5e-4,-0.05169 -8.5e-4,-0.07779 -6.52e-4,-0.03945 -0.0017,-0.07949 -0.0017,-0.118252 0,-0.01921 -5.63e-4,-0.03749 -5.63e-4,-0.05637 -0.0077,-0.75529 0.01717,-1.434115 0.127553,-1.440313 0.123428,-0.0051 0.97864,-0.05382 1.826719,-0.07669 0.159911,0.0043 0.319157,0.0095 0.475165,0.0159 h 0.0043 c 0.04429,8.51e-4 0.08719,0.0034 0.130826,0.0051 0.01105,6.75e-4 0.02151,8.51e-4 0.03231,0.0017 0.08537,0.0034 0.168301,0.006 0.249068,0.0095 0.01207,0 0.02491,4.5e-4 0.03715,8.5e-4 0.08855,0.0043 0.173114,0.0077 0.252911,0.01139 0.0095,6.75e-4 0.01879,0.0017 0.02848,0.0017 0.06385,0.0034 0.12354,0.0051 0.179558,0.0085 0.03095,0.0017 0.05739,0.0034 0.08538,0.0043 0.03715,0.0017 0.07065,0.0043 0.102854,0.006 0.02508,8.5e-4 0.04693,0.0017 0.06844,0.0034 0.02899,0.0017 0.05382,0.0034 0.0766,0.0043 0.01692,6.75e-4 0.03044,8.51e-4 0.04378,0.0034 0.02669,8.5e-4 0.04727,0.0034 0.0596,0.0034 0.250437,0.01335 0.05858,3.479535 0.05858,3.479535 0,0 0.0043,-0.01105 0.01156,-0.02576 0.0051,-0.01148 0.01122,-0.02491 0.01973,-0.04378 0.006,-0.01267 0.01088,-0.02423 0.01811,-0.04047 0.0051,-0.01105 0.01114,-0.0233 0.01692,-0.03664 0.03282,-0.07363 0.0772,-0.171472 0.130282,-0.287411 0.0017,-0.0051 0.0043,-0.0085 0.006,-0.0142 0.05467,-0.119527 0.117069,-0.256491 0.186121,-0.407296 0.01063,-0.0221 0.01989,-0.04438 0.03061,-0.06623 0.01981,-0.04361 0.04047,-0.08634 0.0613,-0.131939 0.01063,-0.02185 0.02075,-0.04463 0.03129,-0.06674 0.02117,-0.04659 0.04276,-0.09311 0.06461,-0.140687 0.01692,-0.03613 0.03426,-0.07371 0.05152,-0.110592 0.02763,-0.05934 0.0556,-0.118294 0.08434,-0.176276 0.02185,-0.04599 0.04336,-0.09132 0.06512,-0.138502 0.01462,-0.02967 0.02891,-0.06028 0.04319,-0.09089 0.02704,-0.05671 0.05373,-0.113032 0.08051,-0.169696 0.0095,-0.01956 0.01819,-0.03792 0.02729,-0.05756 0.03426,-0.07133 0.06793,-0.141495 0.1018,-0.210215 0.1661,-0.34167 0.323035,-0.654434 0.44614,-0.875914 0.143323,-0.25814 0.374937,-0.332267 0.596137,-0.30382 0.193824,-0.02933 0.397714,0.01981 0.545228,0.200354 0.02482,0.03027 0.04922,0.063 0.07006,0.101808 0.477137,0.858545 1.476386,3.090289 1.476386,3.090289 0,0 -0.0017,-0.02712 -0.0043,-0.07175 0,-0.0077 -6.74e-4,-0.01683 -0.0017,-0.02627 -6.52e-4,-0.01369 -8.5e-4,-0.0301 -0.0017,-0.0477 0,-0.0017 -2.12e-4,-0.0043 -5.62e-4,-0.006 -0.0051,-0.117248 -0.01454,-0.297129 -0.02295,-0.514035 0,-8.51e-4 -5.63e-4,-0.0034 -5.63e-4,-0.0051 -0.0017,-0.04174 -0.0034,-0.08468 -0.0051,-0.128649 0,-0.0043 -5.62e-4,-0.0077 -5.62e-4,-0.01156 -0.0017,-0.04523 -0.0034,-0.08909 -0.0051,-0.136301 v -0.0043 c -0.006,-0.132237 -0.0095,-0.272975 -0.0142,-0.416605 -6.53e-4,-0.01598 -4.5e-4,-0.03222 -8.51e-4,-0.04982 -8.5e-4,-0.03579 -0.0017,-0.07261 -0.0034,-0.10839 -6.52e-4,-0.02482 -8.5e-4,-0.04821 -0.0017,-0.07227 -8.5e-4,-0.02933 -8.5e-4,-0.05926 -0.0017,-0.0892 -6.52e-4,-0.03324 -8.5e-4,-0.06589 -0.0017,-0.09905 0,-0.0261 -8.51e-4,-0.05169 -0.0017,-0.07779 -6.52e-4,-0.03936 -8.5e-4,-0.07941 -8.5e-4,-0.118243 0,-0.01921 -5.62e-4,-0.03749 -5.62e-4,-0.05637 -0.0077,-0.75529 0.01717,-1.434123 0.127552,-1.440313 0.123429,-0.006 0.978088,-0.05382 1.826176,-0.07669 0.159918,0.0043 0.319148,0.0095 0.475156,0.0159 h 0.0043 c 0.04429,8.51e-4 0.08665,0.0034 0.13029,0.0051 0.01097,6.76e-4 0.02151,8.51e-4 0.03231,0.0017 0.08527,0.0034 0.168853,0.006 0.249629,0.0095 0.01207,0 0.02423,4.5e-4 0.03664,8.5e-4 0.08855,0.0043 0.173657,0.0077 0.253446,0.01156 0.0095,6.52e-4 0.01811,0.0017 0.02797,0.0017 0.06385,0.0017 0.123523,0.0051 0.17955,0.0085 0.03095,8.5e-4 0.05739,0.0034 0.08538,0.0043 0.03715,0.0017 0.07116,0.0042 0.103493,0.006 0.02508,8.5e-4 0.04693,0.0017 0.06844,0.0034 0.02899,0.0025 0.05331,0.0034 0.07609,0.0042 0.01692,6.53e-4 0.03044,8.51e-4 0.04378,0.0034 0.0267,8.5e-4 0.04727,0.0017 0.0596,0.0034 0.250446,0.01335 0.05858,3.479518 0.05858,3.479518 0,0 0.0043,-0.01114 0.01156,-0.02576 0.0051,-0.01148 0.01173,-0.02491 0.02023,-0.04378 0.006,-0.01267 0.01063,-0.02423 0.01751,-0.04047 0.0051,-0.01114 0.01114,-0.0233 0.01692,-0.03664 0.03282,-0.07363 0.0772,-0.171456 0.130282,-0.287403 0.0017,-0.0051 0.0043,-0.0085 0.006,-0.0142 0.05467,-0.119527 0.11707,-0.256499 0.186122,-0.407295 0.01063,-0.0221 0.02049,-0.04438 0.03129,-0.06623 0.01989,-0.04361 0.03996,-0.08635 0.06079,-0.131947 0.01063,-0.02185 0.02074,-0.04463 0.03112,-0.06683 0.02117,-0.04659 0.04336,-0.09312 0.06512,-0.140687 0.01692,-0.03613 0.03426,-0.07371 0.05152,-0.110583 0.02763,-0.05934 0.05509,-0.118302 0.08383,-0.176276 0.02185,-0.046 0.04336,-0.09132 0.06512,-0.138503 0.01462,-0.02967 0.02891,-0.06028 0.04319,-0.09089 0.02704,-0.05671 0.05382,-0.11303 0.08051,-0.169712 0.0095,-0.01964 0.01887,-0.03792 0.02797,-0.05756 0.03418,-0.07133 0.06742,-0.141487 0.101273,-0.210224 0.1661,-0.341652 0.323034,-0.654417 0.44614,-0.875888 0.248822,-0.448163 0.764897,-0.352407 1.028045,-0.101282 l 5.6e-4,-5.62e-4 c 0.0034,0.0017 0.0051,0.0051 0.0085,0.0085 0.02874,0.02899 0.05424,0.05858 0.07609,0.09089 0.0017,0.0043 0.0051,0.0077 0.0085,0.01156 0.02292,0.0354 0.04018,0.07187 0.05166,0.109983 0.0017,0.0077 0.0034,0.01343 0.0051,0.02023 0.0077,0.03095 0.0108,0.0607 0.0095,0.09196 0,0.0108 -3.66e-4,0.02108 -0.0017,0.03129 -0.0043,0.03817 -0.01369,0.07567 -0.03282,0.112768 -0.311675,0.602539 -2.40206,4.58152 -2.40206,4.58152 -0.06453,0.10657 -1.505599,0.552115 -1.505599,0.552115 l 0.100535,0.312156 c 0.415899,0.265442 0.695769,0.759524 0.695769,1.327545 0,0.0964 -0.01063,0.189854 -0.02576,0.281384 -0.0051,0.02933 -0.01207,0.0573 -0.01862,0.08591 -0.01394,0.06189 -0.03044,0.121481 -0.05093,0.180101 -0.01063,0.03061 -0.02117,0.06121 -0.03392,0.09089 -0.02313,0.05603 -0.05042,0.108839 -0.07932,0.160947 -0.01394,0.02542 -0.02644,0.05195 -0.04217,0.0766 -0.0443,0.06938 -0.09354,0.135408 -0.148891,0.195992 -0.0199,0.02245 -0.04345,0.04208 -0.06461,0.06342 -0.03749,0.03673 -0.07618,0.07294 -0.117138,0.106204 -0.03001,0.02338 -0.06062,0.0448 -0.09247,0.06563 -0.03783,0.02542 -0.07592,0.04897 -0.11605,0.07005 -0.03392,0.01794 -0.06733,0.03537 -0.102862,0.05033 -0.01063,0.0043 -0.02041,0.01114 -0.03129,0.01539 -0.0017,-6.74e-4 -0.0034,-0.0017 -0.0051,-0.0034 -0.145253,0.05696 -0.299723,0.09365 -0.462574,0.09365 z"
     id="path9"
     sodipodi:nodetypes="cssccccccccsccccccccccccccssscccccccccccccccccccccccccscccccccccccccccccccccccccccccccccccccccccccccccccccccccccccscccccccccccccccccccccccccccccccccccccccccccccccccccscccccccccccccccc" />
</svg>
