<?xml version="1.0" encoding="UTF-8" standalone="no"?>
<svg
   xmlns:dc="http://purl.org/dc/elements/1.1/"
   xmlns:cc="http://creativecommons.org/ns#"
   xmlns:rdf="http://www.w3.org/1999/02/22-rdf-syntax-ns#"
   xmlns:svg="http://www.w3.org/2000/svg"
   xmlns="http://www.w3.org/2000/svg"
   xmlns:sodipodi="http://sodipodi.sourceforge.net/DTD/sodipodi-0.dtd"
   xmlns:inkscape="http://www.inkscape.org/namespaces/inkscape"
   width="320"
   height="360"
   viewBox="0 0 84.667 95.25"
   version="1.1"
   id="svg26"
   sodipodi:docname="map-bunker-hydra-compartment-ceiling-01.svg"
   inkscape:version="0.92.2 (5c3e80d, 2017-08-06)">
  <metadata
     id="metadata30">
    <rdf:RDF>
      <cc:Work
         rdf:about="">
        <dc:format>image/svg+xml</dc:format>
        <dc:type
           rdf:resource="http://purl.org/dc/dcmitype/StillImage" />
        <dc:title></dc:title>
      </cc:Work>
    </rdf:RDF>
  </metadata>
  <sodipodi:namedview
     pagecolor="#ffffff"
     bordercolor="#666666"
     borderopacity="1"
     objecttolerance="10"
     gridtolerance="10"
     guidetolerance="10"
     inkscape:pageopacity="0"
     inkscape:pageshadow="2"
     inkscape:window-width="1920"
     inkscape:window-height="1017"
     id="namedview28"
     showgrid="false"
     inkscape:zoom="0.46354778"
     inkscape:cx="23.297783"
     inkscape:cy="698.10776"
     inkscape:window-x="1912"
     inkscape:window-y="-8"
     inkscape:window-maximized="1"
     inkscape:current-layer="svg26"
     fit-margin-top="0"
     fit-margin-left="0"
     fit-margin-right="0"
     fit-margin-bottom="0" />
  <defs
     id="defs14">
    <clipPath
       id="d">
      <path
         d="M 169.333,-0.002 152.402,16.93 H 16.934 L 0.002,-0.002 H 50.8 l 8.468,8.466 h 50.8 l 8.466,-8.467 z"
         id="path2"
         inkscape:connector-curvature="0"
         style="fill:#3a3a3a;stroke-width:2.1170001;stroke-opacity:0.706" />
    </clipPath>
    <clipPath
       id="c">
      <path
         d="M 0.001,190.497 16.933,173.564 H 152.4 l 16.933,16.933 h -50.798 l -12.7,-12.7 H 63.5 l -12.7,12.7 z"
         id="path5"
         inkscape:connector-curvature="0"
         style="fill:#3a3a3a;stroke-width:2.1170001;stroke-opacity:0.706" />
    </clipPath>
    <clipPath
       id="b">
      <path
         d="M 0.002,-0.003 16.934,16.93 16.932,173.565 0,190.5 Z"
         id="path8"
         inkscape:connector-curvature="0"
         style="fill:#3a3a3a;stroke-width:2.1170001;stroke-opacity:0.706" />
    </clipPath>
    <clipPath
       id="a">
      <path
         d="M 16.933,16.931 H 152.4 V 173.565 H 16.933 Z"
         id="path11"
         inkscape:connector-curvature="0"
         style="fill:#565656;stroke-width:3.52600002;stroke-opacity:0.706" />
    </clipPath>
  </defs>
  <path
     clip-path="url(#a)"
     d="M 16.933,16.931 H 152.4 V 173.565 H 16.933 Z"
     id="path16"
     style="fill:#565656;stroke:#000000;stroke-width:2.1170001;stroke-opacity:1"
     inkscape:connector-curvature="0"
     transform="matrix(0.5,0,0,0.49999409,0,0.00112498)" />
  <path
     d="M 0.002,-0.003 16.934,16.93 16.932,173.565 0,190.5 Z"
     clip-path="url(#b)"
     id="path18"
     style="fill:#3a3a3a;stroke:#000000;stroke-width:2.1170001;stroke-opacity:1"
     inkscape:connector-curvature="0"
     transform="matrix(0.5,0,0,0.49999409,0,0.00112498)" />
  <path
     d="M 0.001,190.497 16.933,173.564 H 152.4 l 16.933,16.933 h -50.798 l -12.7,-12.7 H 63.5 l -12.7,12.7 z"
     clip-path="url(#c)"
     id="path20"
     style="fill:#3a3a3a;stroke:#000000;stroke-width:2.1170001;stroke-opacity:1"
     inkscape:connector-curvature="0"
     transform="matrix(0.5,0,0,0.49999409,0,0.00112498)" />
  <path
     d="M 169.333,-0.002 152.402,16.93 H 16.934 L 0.002,-0.002 H 50.8 l 8.468,8.466 h 50.8 l 8.466,-8.467 z"
     clip-path="url(#d)"
     id="path22"
     style="fill:#3a3a3a;stroke:#000000;stroke-width:2.1170001;stroke-opacity:1"
     inkscape:connector-curvature="0"
     transform="matrix(0.5,0,0,0.49999409,0,0.00112498)" />
  <path
     clip-path="url(#b)"
     d="M 0.002,-0.003 16.934,16.93 16.932,173.565 0,190.5 Z"
     transform="matrix(-0.5,0,0,0.49999409,84.667,0.00112498)"
     id="path24"
     style="fill:#3a3a3a;stroke:#000000;stroke-width:2.1170001;stroke-opacity:1"
     inkscape:connector-curvature="0" />
</svg>
