<svg xmlns="http://www.w3.org/2000/svg" xmlns:xlink="http://www.w3.org/1999/xlink" width="1104" height="1232" viewBox="0 0 292.101 325.967"><defs><clipPath id="c"><path d="M-45.534 209.35l29.33 16.933v33.867l-29.33 16.933-29.33-16.933v-33.867z" fill-opacity=".506" stroke="#fff" stroke-width="2.117" stroke-opacity=".502"/></clipPath><linearGradient id="a"><stop offset="0"/><stop offset="1" stop-color="#080808" stop-opacity=".052"/></linearGradient><clipPath id="f"><path d="M279.4 220.133v-8.467h-50.8V25.4H93.134V-8.467h-8.467v42.334h135.467v186.267z" fill="#1a1c21" stroke-width="2.226"/></clipPath><clipPath id="g"><path d="M50.8 211.667V152.4H16.933V59.267H50.8V-8.467H0v228.6h177.8v84.668h101.6V254h-93.133v-42.334z" fill="#1b1e25" stroke-width="1.922" stroke-opacity=".706"/></clipPath><filter id="b" x="-.013" width="1.025" y="-.011" height="1.023" color-interpolation-filters="sRGB"><feGaussianBlur stdDeviation="1.528"/></filter><radialGradient xlink:href="#a" id="d" cx="7.457" cy="10.606" fx="7.457" fy="10.606" r="18.477" gradientTransform="matrix(2.11914 0 0 2.05684 25.08 234.926)" gradientUnits="userSpaceOnUse"/><filter id="e" color-interpolation-filters="sRGB"><feColorMatrix in="SourceGraphic" values="1 0 0 0 0 0 1 0 0 0 0 0 1 0 0 -0.2125 -0.7154 -0.0721 1 0" result="colormatrix"/><feComposite in="SourceGraphic" in2="colormatrix" operator="arithmetic" k2="1" result="composite"/><feGaussianBlur stdDeviation="1.62 0.01" result="blur1"/><feGaussianBlur in="composite" stdDeviation="0.01 1.57" result="blur2"/><feBlend in="blur2" in2="blur1" mode="darken" result="blend"/></filter></defs><path d="M17.33-14.288h101.6l-.396 35.454H254v186.267h50.8v101.6H194.734v-84.666h-177.8z" fill="#130902" fill-opacity=".945" filter="url(#b)"/><path d="M249.767 211.667h42.334v50.8h-93.134v-42.333h-177.8V0H114.3v33.867h135.467z" fill="#3a3a3a"/><path clip-path="url(#c)" d="M-45.534 209.35l29.33 16.933v33.867l-29.33 16.933-29.33-16.933v-33.867z" transform="scale(1.05556) rotate(-60 -63.704 14.067)" fill-opacity=".118" stroke="#fff" stroke-width="4.011" stroke-opacity=".157"/><path d="M152.418 88.857l-.686 16.106a14.227 14.227 0 0 1 .289-.01 14.227 14.227 0 0 1 12.45 7.372l13.61-8.65zm25.664 45.827l-13.605-8.647a14.227 14.227 0 0 1-.136.255 14.227 14.227 0 0 1-12.61 7.095l.687 16.115zm-52.52-.688l14.292-7.459a14.227 14.227 0 0 1-.154-.245 14.227 14.227 0 0 1 .16-14.468l-14.298-7.46z" fill="#fff" fill-opacity=".157"/><path d="M139.46 119.18a12.363 12.363 0 0 0 12.362 12.362 12.363 12.363 0 0 0 12.362-12.363 12.363 12.363 0 0 0-12.362-12.362 12.363 12.363 0 0 0-12.363 12.362zm5.37 7.688c.012-.216-.01-.434.228-.966.558.54.964.875 1.612 1.215-.463.2-.858.215-1.332.213-.345-.037-.478-.105-.509-.462zm.41-1.383c-.025-.157.28-.907.533-1.276.852.83 1.593 1.557 3.161 2.25-.2.255-1.34.476-1.62.484-.28.01-2.047-1.3-2.073-1.458zm.771-1.833c.015-.325.55-2.147.962-2.517.842.955 3.03 2.541 5.998 4.146-.915.61-2.767.919-3.253.98-.487.058-3.721-2.285-3.707-2.61zm1.293-3.39c.023-.555.166-1.074.863-1.728 1.544-1.45 3.373-.567 5.9-1.399 2.972-.98 4.384-3.802 4.58-3.089.525 1.913-.279 6.801-1.1 8.294-1.23 2.24-3.01 2.476-3.41 2.573-.611.148-2.496-1.016-4.135-2.17-1.517-1.065-2.721-1.898-2.698-2.482zm1.69-3.539c.012-1.251 1.271-3.382 1.933-4.232.706-.906 1.73-1.755 3.34-1.366 1.1.265 3.585 1.568 3.71 2.39.047.318-.602.794-.88.681-.644-.26-1.394-1.437-3.074-2.054-1.302-.478-1.916-.15-2.38.942-.8 1.877.203 2.923-.142 3.62-.225.455-2.42.742-2.492.257a1.52 1.52 0 0 1-.014-.238z" fill="#fff" fill-opacity=".157"/><path d="M88.9 23.283l-6.35 6.35h12.7zm-6.35-19.05l6.35 6.35 6.35-6.35zM264.584 237.067l-6.35-6.35v12.7zm19.05-6.35l-6.35 6.35 6.35 6.35z" fill="none" stroke="#2e2e2e" stroke-width="1.587" stroke-linecap="square"/><path d="M61.281 282.344l-15.094-15.157 6.682 23.643-9.957-20.369-1.255 17.49-2.02-19.127-7.036 23.888 3.762-23.888-8.723 16.323 5.448-17.96-21.3 15.786 18.025-19.061-16.19 4.414 14.553-7.689-24.709 4.476 24.173-8-16.82-5.607 14.081.944-22.388-9.052 25.663 5.778L9.02 235.105l22.432 12.433-6.614-10.05 8.251 6.775-5.597-25.297L38 244.263l.853-15.185 2.421 15.185 8.22-25.525-5.646 27.891 14.106-24.924-8.493 22.558 9.016-9.578-7.379 12.853 22.153-9.47-21.362 14.545 14.998-1.107-14.151 4.219 27.3 3.26-27.3.015 19.758 6.523-19.758-3.248 20.152 17.686-21.79-16.049z" transform="matrix(.38205 0 0 .38205 37.103 39.367)" fill="url(#d)" filter="url(#e)"/><path d="M249.767 211.667h42.334v50.8h-93.134v-42.333h-177.8V0H114.3v25.4h135.467z" fill="#005a8e" fill-opacity=".485"/><path d="M279.4 220.133v-8.467h-50.8V25.4H93.134V-8.467h-8.467v42.334h135.467v186.267z" clip-path="url(#f)" transform="translate(21.167)" fill="#1a1c21" stroke="#000" stroke-width="3.175" stroke-opacity=".706"/><path d="M50.8 211.667V152.4H16.933V59.267H50.8V-8.467H0v228.6h177.8v84.668h101.6V254h-93.133v-42.334z" clip-path="url(#g)" transform="translate(21.167)" fill="#1b1e25" stroke="#000" stroke-width="3.175" stroke-opacity=".706"/></svg>