<svg xmlns="http://www.w3.org/2000/svg" width="144" height="144" viewBox="0 0 38.1 38.1"><path d="M14.834 8.793l3.567-1.064.66-3.565 14.047 15.379-3.402-.638.603 2.34-1.81-.265-.275 1.968z" fill="#282828" stroke="#191919" stroke-width="1.204"/><path d="M31.743 6.305l.561 3.85 3.502 1.195L18.272 23.7l1.133-3.434-2.448.289.528-1.84-1.947-.567z" fill="#282828" stroke="#191919" stroke-width="1.243"/><path d="M6.03 12.1a1.056 1.056 0 0 0-1.372-.6 1.056 1.056 0 0 0-.6 1.37l5.3 13.548.922-1.55.783.099zM15.316 30.236l-.833.815.939 1.301h12.821c.586 0 1.058-.472 1.058-1.058 0-.586-.472-1.058-1.058-1.058z" fill="#5b5b5b" stroke="#191919" stroke-width="1.058"/></svg>