<svg xmlns="http://www.w3.org/2000/svg" width="128" height="128" viewBox="0 0 33.867 33.867"><circle cx="16.933" cy="16.933" r="10.703" fill="#303030" fill-opacity=".565"/><path d="M26.692 7.456a13.604 13.604 0 0 0-8.247-4.035l-1.512-2.268-1.51 2.268A13.604 13.604 0 0 0 3.431 15.414l-2.279 1.52 2.267 1.511a13.604 13.604 0 0 0 11.995 11.991l1.518 2.278 1.512-2.267a13.604 13.604 0 0 0 11.99-11.995l2.279-1.519-2.268-1.51a13.604 13.604 0 0 0-3.754-7.967zM25.32 8.788a11.692 11.692 0 0 1 3.305 8.146 11.692 11.692 0 0 1-11.692 11.691 11.692 11.692 0 0 1-11.69-11.691 11.692 11.692 0 0 1 11.69-11.691 11.692 11.692 0 0 1 8.387 3.545z" fill="#474747" fill-opacity=".565"/><path d="M16.933 8.149a8.785 8.785 0 0 0-8.784 8.784 8.785 8.785 0 0 0 8.784 8.785 8.785 8.785 0 0 0 8.785-8.785 8.785 8.785 0 0 0-8.785-8.784zm3.854 2.169c2.482 1.45 3.83 4.094 3.767 6.782h-5.698a2.095 2.095 0 0 0-1.003-1.681zm-7.875.094l2.862 4.958a2.076 2.076 0 0 0-.814.792 2.074 2.074 0 0 0-.277.938h-5.37a7.587 7.587 0 0 1 .999-4.013 7.604 7.604 0 0 1 2.6-2.675zm3.862 5.42a1.373 1.373 0 0 1 .684.186 1.37 1.37 0 0 1 .502 1.878 1.368 1.368 0 0 1-1.876.502 1.37 1.37 0 0 1-.504-1.877 1.369 1.369 0 0 1 1.194-.69zm1.083 3.162l2.666 4.624a7.676 7.676 0 0 1-3.806.923 7.545 7.545 0 0 1-3.56-.998l2.611-4.5c.673.368 1.47.326 2.089-.049z" fill="#fff" fill-opacity=".157"/></svg>