<?xml version="1.0" encoding="UTF-8" standalone="no"?>
<svg
   xmlns:dc="http://purl.org/dc/elements/1.1/"
   xmlns:cc="http://creativecommons.org/ns#"
   xmlns:rdf="http://www.w3.org/1999/02/22-rdf-syntax-ns#"
   xmlns:svg="http://www.w3.org/2000/svg"
   xmlns="http://www.w3.org/2000/svg"
   xmlns:sodipodi="http://sodipodi.sourceforge.net/DTD/sodipodi-0.dtd"
   xmlns:inkscape="http://www.inkscape.org/namespaces/inkscape"
   width="96"
   height="96"
   viewBox="0 0 25.4 25.4"
   version="1.1"
   id="svg8"
   sodipodi:docname="map-pot-03.svg"
   inkscape:version="0.92.2 (5c3e80d, 2017-08-06)">
  <metadata
     id="metadata14">
    <rdf:RDF>
      <cc:Work
         rdf:about="">
        <dc:format>image/svg+xml</dc:format>
        <dc:type
           rdf:resource="http://purl.org/dc/dcmitype/StillImage" />
        <dc:title></dc:title>
      </cc:Work>
    </rdf:RDF>
  </metadata>
  <defs
     id="defs12" />
  <sodipodi:namedview
     pagecolor="#ffffff"
     bordercolor="#666666"
     borderopacity="1"
     objecttolerance="10"
     gridtolerance="10"
     guidetolerance="10"
     inkscape:pageopacity="0"
     inkscape:pageshadow="2"
     inkscape:window-width="1920"
     inkscape:window-height="1017"
     id="namedview10"
     showgrid="true"
     inkscape:zoom="2.4583333"
     inkscape:cx="14.647862"
     inkscape:cy="75.882247"
     inkscape:window-x="1912"
     inkscape:window-y="-8"
     inkscape:window-maximized="1"
     inkscape:current-layer="svg8">
    <inkscape:grid
       type="xygrid"
       id="grid827"
       empspacing="4" />
  </sodipodi:namedview>
  <circle
     r="11.532"
     cy="12.7"
     cx="12.7"
     id="circle2"
     style="fill:#760000;fill-opacity:1"
     stroke-width="1.391"
     stroke="#1e1e1e"
     fill="#752a04" />
  <g
     transform="matrix(0.37385787,0,0,0.37385787,3.1862519,2.1698369)"
     id="g16"
     style="fill:#d1d1d1;fill-opacity:1">
    <g
       id="g14"
       style="fill:#d1d1d1;fill-opacity:1">
      <path
         inkscape:connector-curvature="0"
         style="fill:#d1d1d1;fill-opacity:1"
         d="m 15.271,12.384 c 0.116,0.064 0.222,0.152 0.308,0.264 l 8.286,10.84 c 0.172,-0.058 0.34,-0.123 0.52,-0.162 v -4.013 c 0,-0.553 0.447,-1 1,-1 0.553,0 1,0.447 1,1 v 4.014 c 0.306,0.065 0.6,0.159 0.88,0.28 l 8.263,-11.396 c 0.038,-0.225 0.069,-0.452 0.098,-0.687 C 35.77,10.298 35.049,7.774 32.741,6.043 31.803,5.466 26.251,2.077 25.385,1.067 24.52,2.077 18.967,5.466 18.029,6.043 15.721,7.774 15,10.298 15.144,11.524 c 0.035,0.296 0.074,0.578 0.127,0.86 z"
         id="path2" />
      <path
         inkscape:connector-curvature="0"
         style="fill:#d1d1d1;fill-opacity:1"
         d="M 7.582,32.751 20.674,28.34 c -0.01,-0.126 -0.038,-0.246 -0.038,-0.374 0,-0.163 0.032,-0.318 0.048,-0.477 l -3.837,-1.246 c -0.525,-0.171 -0.813,-0.734 -0.643,-1.26 0.17,-0.526 0.736,-0.812 1.26,-0.643 l 3.835,1.245 c 0.231,-0.394 0.507,-0.755 0.837,-1.066 L 13.99,13.862 C 13.902,13.746 13.846,13.617 13.815,13.484 13.586,13.362 13.354,13.248 13.109,13.136 11.988,12.62 9.364,12.526 7.005,14.186 6.167,14.899 1.227,19.133 0,19.644 c 0.693,1.135 2.2,7.464 2.459,8.533 0.933,2.73 3.111,4.195 4.321,4.437 0.273,0.055 0.537,0.101 0.802,0.137 z"
         id="path4-0" />
      <path
         inkscape:connector-curvature="0"
         style="fill:#d1d1d1;fill-opacity:1"
         d="m 21.108,35.555 c -0.195,0.271 -0.5,0.412 -0.81,0.412 -0.204,0 -0.409,-0.062 -0.587,-0.191 -0.446,-0.323 -0.546,-0.948 -0.221,-1.396 l 2.369,-3.26 c -0.236,-0.263 -0.437,-0.552 -0.61,-0.863 L 7.994,34.723 c -0.104,0.106 -0.206,0.215 -0.31,0.328 -0.837,0.907 -1.738,3.373 -0.888,6.129 0.419,1.018 2.92,7.024 3.026,8.35 1.294,-0.309 7.778,0.214 8.876,0.298 2.884,-0.044 4.951,-1.662 5.555,-2.738 0.125,-0.223 0.24,-0.44 0.349,-0.661 v -13.79 c -0.396,-0.066 -0.776,-0.175 -1.133,-0.332 z"
         id="path6" />
      <path
         inkscape:connector-curvature="0"
         style="fill:#d1d1d1;fill-opacity:1"
         d="m 42.912,34.421 -13.236,-4.45 c -0.197,0.422 -0.457,0.805 -0.764,1.147 l 2.369,3.261 c 0.325,0.447 0.227,1.072 -0.221,1.396 -0.178,0.129 -0.383,0.19 -0.588,0.19 -0.31,0 -0.613,-0.144 -0.81,-0.412 L 27.3,32.302 c -0.223,0.1 -0.459,0.17 -0.7,0.234 V 46.52 c 0.079,0.151 0.16,0.303 0.247,0.457 0.604,1.076 2.671,2.694 5.555,2.738 1.097,-0.084 7.582,-0.605 8.876,-0.298 0.105,-1.326 2.607,-7.332 3.025,-8.349 0.851,-2.758 -0.049,-5.223 -0.888,-6.131 -0.165,-0.178 -0.332,-0.349 -0.503,-0.516 z"
         id="path8" />
      <path
         inkscape:connector-curvature="0"
         style="fill:#d1d1d1;fill-opacity:1"
         d="m 43.892,14.012 c -2.358,-1.66 -4.982,-1.566 -6.104,-1.05 -0.177,0.082 -0.348,0.165 -0.516,0.25 l -8.389,11.569 c 0.226,0.247 0.42,0.517 0.588,0.806 l 3.836,-1.246 c 0.522,-0.171 1.088,0.117 1.26,0.643 0.171,0.524 -0.117,1.089 -0.643,1.26 l -3.838,1.247 c 0.016,0.159 0.049,0.312 0.049,0.476 0,0.016 -0.006,0.031 -0.006,0.047 l 13.455,4.524 c 0.176,-0.029 0.352,-0.06 0.531,-0.097 1.211,-0.242 3.389,-1.707 4.32,-4.438 0.26,-1.07 1.767,-7.398 2.46,-8.533 -1.225,-0.511 -6.164,-4.745 -7.003,-5.458 z"
         id="path10" />
      <path
         inkscape:connector-curvature="0"
         style="fill:#d1d1d1;fill-opacity:1"
         d="m 28.028,28.684 c 0.006,-0.021 0.014,-0.039 0.019,-0.061 0.053,-0.212 0.088,-0.43 0.088,-0.658 0,-0.906 -0.444,-1.703 -1.121,-2.205 -0.018,-0.013 -0.032,-0.028 -0.049,-0.04 -0.449,-0.316 -0.991,-0.505 -1.58,-0.505 -0.067,0 -0.13,0.015 -0.195,0.02 -0.462,0.033 -0.892,0.174 -1.263,0.408 -0.018,0.011 -0.039,0.019 -0.056,0.031 -0.19,0.126 -0.357,0.279 -0.51,0.447 -0.445,0.489 -0.724,1.132 -0.724,1.845 0,0.251 0.045,0.489 0.108,0.72 0.006,0.021 0.013,0.041 0.019,0.062 0.339,1.135 1.38,1.969 2.623,1.969 0.022,0 0.043,-0.006 0.065,-0.007 0.022,0 0.042,-0.005 0.064,-0.006 1.207,-0.057 2.204,-0.893 2.512,-2.02 z"
         id="path12" />
    </g>
  </g>
  <circle
     r="5.466"
     cy="12.7"
     cx="12.7"
     stroke="#502a0d"
     stroke-width="1.391"
     id="circle6" />
  <g
     transform="matrix(0.26458333,0,0,0.26458333,3.175,22.517365)"
     id="g18" />
  <g
     transform="matrix(0.26458333,0,0,0.26458333,3.175,22.517365)"
     id="g20" />
  <g
     transform="matrix(0.26458333,0,0,0.26458333,3.175,22.517365)"
     id="g22" />
  <g
     transform="matrix(0.26458333,0,0,0.26458333,3.175,22.517365)"
     id="g24" />
  <g
     transform="matrix(0.26458333,0,0,0.26458333,3.175,22.517365)"
     id="g26" />
  <g
     transform="matrix(0.26458333,0,0,0.26458333,3.175,22.517365)"
     id="g28" />
  <g
     transform="matrix(0.26458333,0,0,0.26458333,3.175,22.517365)"
     id="g30" />
  <g
     transform="matrix(0.26458333,0,0,0.26458333,3.175,22.517365)"
     id="g32" />
  <g
     transform="matrix(0.26458333,0,0,0.26458333,3.175,22.517365)"
     id="g34" />
  <g
     transform="matrix(0.26458333,0,0,0.26458333,3.175,22.517365)"
     id="g36" />
  <g
     transform="matrix(0.26458333,0,0,0.26458333,3.175,22.517365)"
     id="g38" />
  <g
     transform="matrix(0.26458333,0,0,0.26458333,3.175,22.517365)"
     id="g40" />
  <g
     transform="matrix(0.26458333,0,0,0.26458333,3.175,22.517365)"
     id="g42" />
  <g
     transform="matrix(0.26458333,0,0,0.26458333,3.175,22.517365)"
     id="g44" />
  <g
     transform="matrix(0.26458333,0,0,0.26458333,3.175,22.517365)"
     id="g46" />
</svg>
