<svg xmlns="http://www.w3.org/2000/svg" xmlns:xlink="http://www.w3.org/1999/xlink" width="840" height="1092" viewBox="0 0 222.25 288.925"><defs><clipPath id="e"><path d="M-45.534 209.35l29.33 16.933v33.867l-29.33 16.933-29.33-16.933v-33.867z" fill-opacity=".506" stroke="#fff" stroke-width="2.117" stroke-opacity=".502"/></clipPath><radialGradient xlink:href="#a" id="f" cx="7.457" cy="10.606" fx="7.457" fy="10.606" r="18.477" gradientTransform="matrix(2.11914 0 0 2.05684 25.08 234.926)" gradientUnits="userSpaceOnUse"/><linearGradient id="a"><stop offset="0"/><stop offset="1" stop-color="#080808" stop-opacity=".052"/></linearGradient><filter id="g" color-interpolation-filters="sRGB"><feColorMatrix in="SourceGraphic" values="1 0 0 0 0 0 1 0 0 0 0 0 1 0 0 -0.2125 -0.7154 -0.0721 1 0" result="colormatrix"/><feComposite in="SourceGraphic" in2="colormatrix" operator="arithmetic" k2="1" result="composite"/><feGaussianBlur stdDeviation="1.62 0.01" result="blur1"/><feGaussianBlur in="composite" stdDeviation="0.01 1.57" result="blur2"/><feBlend in="blur2" in2="blur1" mode="darken" result="blend"/></filter><clipPath id="d"><path d="M-22.25 168.075v-9.525h-46.568v9.525z" clip-path="url(#clipPath6865)" fill="#a3977d" stroke-width="2.081"/></clipPath><clipPath id="c"><path clip-path="url(#clipPath6865)" d="M402.14 158.55h9.526v-42.334h-9.525z" fill="#a3977d" stroke-width="1.984"/></clipPath><clipPath id="h"><path d="M-70.934 141.616v59.267h-59.267V361.75H39.132V200.883h-59.266v-59.267h-8.467v67.734h59.267v143.874l-152.4.059V209.35h59.266v-67.734z" fill="#a3977d" stroke-width="2.226"/></clipPath><filter id="b" x="-.023" width="1.047" y="-.025" height="1.049" color-interpolation-filters="sRGB"><feGaussianBlur stdDeviation="1.651"/></filter></defs><path transform="translate(126.818 -120.678) scale(1.0838)" d="M-99.231 200.075H70.102v160.867H-99.231z" fill="#130902" fill-opacity=".944" filter="url(#b)"/><path d="M26.459 102.13h169.332v160.866H26.459z" fill="#302e28"/><path clip-path="url(#c)" d="M402.14 158.55h9.526v-42.334h-9.525z" transform="matrix(0 -1 1.1 0 -39.996 462.995)" fill="#646464"/><path transform="translate(156.66 -98.754)" clip-path="url(#d)" d="M-22.25 168.075v-9.525h-46.568v9.525z" fill="#5a5a5a" stroke="#000" stroke-width="2.117" stroke-opacity=".706"/><path d="M-22.25 168.075v-9.525h-46.568v9.525z" clip-path="url(#d)" transform="translate(156.66 -90.287)" fill="#505050" stroke="#000" stroke-width="2.117" stroke-opacity=".706"/><path transform="translate(156.66 -81.82)" clip-path="url(#d)" d="M-22.25 168.075v-9.525h-46.568v9.525z" fill="#464646" stroke="#000" stroke-width="2.117" stroke-opacity=".706"/><path d="M-22.25 168.075v-9.525h-46.568v9.525z" clip-path="url(#d)" transform="translate(156.66 -73.354)" fill="#3c3c3c" stroke="#000" stroke-width="2.117" stroke-opacity=".706"/><path transform="rotate(-150 21.48 197.894) scale(1.05556)" d="M-45.534 209.35l29.33 16.933v33.867l-29.33 16.933-29.33-16.933v-33.867z" clip-path="url(#e)" fill-opacity=".118" stroke="#fff" stroke-width="4.011" stroke-opacity=".157"/><path d="M80.802 181.116l16.106.686a14.227 14.227 0 0 1-.01-.289 14.227 14.227 0 0 1 7.373-12.45l-8.652-13.61z" fill="#fff" fill-opacity=".157"/><path d="M111.416 193.872a12.362 12.362 0 0 0 5.89-1.653 12.362 12.362 0 0 0 4.524-16.888 12.362 12.362 0 0 0-16.887-4.524 12.362 12.362 0 0 0-4.525 16.887 12.362 12.362 0 0 0 10.998 6.178zm-.293-2.682c-2.196 0-4.242-1.204-5.764-3.39a10.295 10.295 0 0 1-.26-.4h-.004l-.055-.09.06.09h12.051a10.843 10.843 0 0 1-.265.4c-1.52 2.186-3.567 3.39-5.763 3.39zm6.771-5.168h-13.542a13.206 13.206 0 0 1-.65-1.752 2.613 2.613 0 0 0 .53.052c.797 0 1.233-.314 1.552-.543.254-.183.393-.284.745-.284.351 0 .492.101.746.284.318.23.754.543 1.55.543.797 0 1.234-.314 1.552-.543.254-.183.394-.284.746-.284s.492.101.746.284c.318.23.755.543 1.551.543.796 0 1.233-.314 1.551-.543.254-.183.394-.284.746-.284.351 0 .492.101.746.284.318.23.755.543 1.551.543.198 0 .373-.02.531-.053a13.303 13.303 0 0 1-.65 1.753zm.12-3.077c-.352 0-.492-.101-.746-.284-.318-.23-.755-.543-1.55-.543-.798 0-1.233.314-1.552.543-.254.183-.394.283-.746.283s-.492-.1-.746-.283c-.318-.23-.755-.543-1.55-.543-.798 0-1.234.314-1.552.543-.255.183-.394.283-.747.283-.35 0-.49-.1-.745-.283-.318-.23-.755-.543-1.55-.543-.797 0-1.233.314-1.55.543-.256.183-.396.283-.748.283-.35 0-.492-.1-.745-.283a6.525 6.525 0 0 0-.186-.13 15.67 15.67 0 0 1-.207-2.067h16.058a15.67 15.67 0 0 1-.207 2.067 5.828 5.828 0 0 0-.186.13c-.254.183-.393.284-.745.284zm1.107-3.859h-15.997c.058-.61.178-1.2.352-1.765a2.44 2.44 0 0 0 .756.111c.796 0 1.233-.313 1.552-.542.254-.183.393-.285.745-.285.351 0 .492.102.746.285.318.229.754.542 1.55.542.797 0 1.234-.313 1.552-.542.254-.183.394-.285.746-.285s.492.102.746.285c.318.229.755.542 1.552.542.796 0 1.232-.313 1.55-.542.254-.183.394-.285.747-.285.351 0 .491.102.745.285.318.229.755.542 1.551.542a2.452 2.452 0 0 0 .756-.111 8.813 8.813 0 0 1 .351 1.765zm-1.107-3.032c-.352 0-.492-.1-.746-.283-.318-.23-.754-.543-1.55-.543-.797 0-1.233.314-1.552.543-.254.183-.394.283-.746.283s-.492-.1-.746-.283c-.318-.23-.755-.543-1.55-.543-.798 0-1.234.314-1.552.543-.255.183-.394.283-.747.283-.35 0-.49-.1-.745-.283-.318-.23-.755-.543-1.55-.543-.797 0-1.233.314-1.55.543-.256.183-.396.283-.748.283a1.217 1.217 0 0 1-.247-.022c1.34-2.727 4.036-4.594 7.138-4.594 3.102 0 5.798 1.867 7.138 4.594a1.272 1.272 0 0 1-.247.022z" fill="#fff" fill-opacity=".157"/><path d="M126.63 155.452l-8.648 13.605a14.227 14.227 0 0 1 .255.136 14.227 14.227 0 0 1 7.095 12.61l16.114-.687zm-.689 52.52l-7.459-14.292a14.227 14.227 0 0 1-.245.154 14.227 14.227 0 0 1-14.468-.16l-7.462 14.298z" fill="#fff" fill-opacity=".157"/><path d="M56.92 225.182c2.034-2.363 4.9-2.356 6.935-.937 2.126 1.625 4.176 5.026-1.02 10.254-3.3 2.408-4.283 1.791-6.744-1.137-1.605-2.209-.806-5.309.828-8.18z" fill="#0c0c0c" fill-opacity=".328"/><path d="M61.281 282.344l-15.094-15.157 6.682 23.643-9.957-20.369-1.255 17.49-2.02-19.127-7.036 23.888 3.762-23.888-8.723 16.323 5.448-17.96-21.3 15.786 18.025-19.061-16.19 4.414 14.553-7.689-24.709 4.476 24.173-8-16.82-5.607 14.081.944-22.388-9.052 25.663 5.778L9.02 235.105l22.432 12.433-6.614-10.05 8.251 6.775-5.597-25.297L38 244.263l.853-15.185 2.421 15.185 8.22-25.525-5.646 27.891 14.106-24.924-8.493 22.558 9.016-9.578-7.379 12.853 22.153-9.47-21.362 14.545 14.998-1.107-14.151 4.219 27.3 3.26-27.3.015 19.758 6.523-19.758-3.248 20.152 17.686-21.79-16.049z" transform="translate(156.75 39.697) scale(.33897)" fill="url(#f)" filter="url(#g)"/><path d="M46.553 119.85l1.936-.576.357-1.934 7.62 8.342-1.844-.347.327 1.27-.982-.144-.15 1.068z" fill="#4d2600" fill-opacity=".995" stroke="#191919" stroke-width=".653"/><path d="M68.791 135.996l-.77 1.93 1.295 1.512-11.387.88 1.44-1.273-1.205-.54.735-.702-.746-.796z" fill="#4d2600" fill-opacity=".995" stroke="#191919" stroke-width=".665"/><path d="M154.66 212.984l1.936-.577.357-1.934 7.622 8.342-1.846-.346.326 1.27-.982-.145-.149 1.069z" fill="#4d2600" fill-opacity=".995" stroke="#191919" stroke-width=".653"/><path d="M161.924 212.196l.304 2.088 1.9.649-9.511 6.7.615-1.864-1.328.157.286-.998-1.056-.308z" fill="#4d2600" fill-opacity=".995" stroke="#191919" stroke-width=".675"/><path transform="translate(156.66 -64.887)" clip-path="url(#d)" d="M-22.25 168.075v-9.525h-46.568v9.525z" fill="#323232" stroke="#000" stroke-width="2.117" stroke-opacity=".706"/><path d="M-70.934 141.616v59.267h-59.267V361.75H39.132V200.883h-59.266v-59.267h-8.467v67.734h59.267v143.874l-152.4.059V209.35h59.266v-67.734z" clip-path="url(#h)" transform="translate(156.66 -98.754)" fill="#1b1e25" stroke="#000" stroke-width="3.175" stroke-opacity=".706"/><circle r="4.646" cy="126.38" cx="72.193" transform="rotate(11.075)" fill="#391212"/><circle r="1.536" cy="123.085" cx="68.491" transform="rotate(11.075)" fill="#391212"/><circle r="1.111" cy="121.364" cx="75.876" transform="rotate(11.075)" fill="#391212"/><circle r="2.018" cy="125.714" cx="75.783" transform="rotate(11.075)" fill="#391212"/><circle r="1.166" cy="129.601" cx="66.529" transform="rotate(11.075)" fill="#391212"/><circle r="1.222" cy="130.36" cx="74.025" transform="rotate(11.075)" fill="#391212"/><circle r=".833" cy="120.347" cx="71.23" transform="rotate(11.075)" fill="#391212"/><circle r=".315" cy="123.197" cx="77.671" transform="rotate(11.075)" fill="#391212"/><circle r=".759" cy="129.23" cx="78.189" transform="rotate(11.075)" fill="#391212"/><circle r=".907" cy="132.007" cx="76.486" transform="rotate(11.075)" fill="#391212"/><circle r=".352" cy="126.047" cx="65.641" transform="rotate(11.075)" fill="#391212"/><circle r="1.333" cy="130.989" cx="70.323" transform="rotate(11.075)" fill="#391212"/><circle r=".592" cy="126.769" cx="67.658" transform="rotate(11.075)" fill="#391212"/></svg>