<?xml version="1.0" encoding="UTF-8" standalone="no"?>
<svg
   xmlns:dc="http://purl.org/dc/elements/1.1/"
   xmlns:cc="http://creativecommons.org/ns#"
   xmlns:rdf="http://www.w3.org/1999/02/22-rdf-syntax-ns#"
   xmlns:svg="http://www.w3.org/2000/svg"
   xmlns="http://www.w3.org/2000/svg"
   xmlns:sodipodi="http://sodipodi.sourceforge.net/DTD/sodipodi-0.dtd"
   xmlns:inkscape="http://www.inkscape.org/namespaces/inkscape"
   width="64"
   height="256"
   viewBox="0 0 16.934 67.733"
   version="1.1"
   id="svg9"
   sodipodi:docname="map-wall-08-grassy.svg"
   inkscape:version="0.92.2 (5c3e80d, 2017-08-06)">
  <metadata
     id="metadata13">
    <rdf:RDF>
      <cc:Work
         rdf:about="">
        <dc:format>image/svg+xml</dc:format>
        <dc:type
           rdf:resource="http://purl.org/dc/dcmitype/StillImage" />
        <dc:title />
      </cc:Work>
    </rdf:RDF>
  </metadata>
  <sodipodi:namedview
     pagecolor="#ffffff"
     bordercolor="#666666"
     borderopacity="1"
     objecttolerance="10"
     gridtolerance="10"
     guidetolerance="10"
     inkscape:pageopacity="0"
     inkscape:pageshadow="2"
     inkscape:window-width="1920"
     inkscape:window-height="1017"
     id="namedview11"
     showgrid="true"
     inkscape:zoom="0.46093749"
     inkscape:cx="-269.42123"
     inkscape:cy="-133.98052"
     inkscape:window-x="1912"
     inkscape:window-y="-8"
     inkscape:window-maximized="1"
     inkscape:current-layer="svg9"
     fit-margin-top="0"
     fit-margin-left="0"
     fit-margin-right="0"
     fit-margin-bottom="0">
    <inkscape:grid
       type="xygrid"
       id="grid844"
       empspacing="4"
       spacingy="1.0583281"
       spacingx="1.058375"
       originx="5.291875"
       originy="1.6610102e-006" />
  </sodipodi:namedview>
  <defs
     id="defs5">
    <clipPath
       clipPathUnits="userSpaceOnUse"
       id="clipPath855">
      <rect
         style="fill:#6f1e00;fill-opacity:1;stroke-width:3.66592598"
         ry="1.058375"
         rx="1.058375"
         y="-0.0014983999"
         x="-3.9672852e-007"
         height="67.734497"
         width="6.3502507"
         id="rect857" />
    </clipPath>
  </defs>
  <rect
     id="rect853"
     width="6.3502507"
     height="67.734497"
     x="-3.9672852e-007"
     y="-0.0014983999"
     rx="1.058375"
     ry="1.058375"
     style="fill:#6f1e00;fill-opacity:1;stroke:#000000;stroke-width:3.17512488;stroke-miterlimit:4;stroke-dasharray:none;stroke-opacity:1"
     clip-path="url(#clipPath855)"
     transform="translate(5.291875,-2.5586103e-6)" />
  <path
     style="fill:#445a17;stroke:#000000;stroke-width:0.52892292;stroke-miterlimit:4;stroke-dasharray:none"
     d="M 10.128964,12.894667 V 10.893108 L 8.467,9.2848762 8.461,8.2848968 9.106978,7.7179846 l 0.009,-2.117266 0.664079,-0.682156 v -2.492968 l -2.117273,2.117265 v 2.113651 L 6.604937,7.7169526 V 9.8316352 L 8.72065,11.948901 v 1.315784 l 0.149867,0.253691 -0.004,3.599923 -1.496096,1.496608 0.0383,2.312095 -0.702811,0.711611 -0.857868,-0.05633 -1.503347,1.490926 -0.951902,0.01291 -1.762748,1.762752 H 4.624298 L 6.118824,23.35381 7.61648,23.35221 9.112047,21.856623 v -2.9932 l 1.497546,-1.49764 v -3.847419 z"
     id="path1192"
     inkscape:connector-curvature="0"
     sodipodi:nodetypes="ccccccccccccccccccccccccccccccc" />
  <path
     style="fill:#445a17;stroke:#000000;stroke-width:0.52902085"
     d="m 12.399217,61.659965 -1.37258,-1.402037 H 9.556385 l -0.868199,-1.246483 0.0062,-1.152192 1.273874,-1.711829 v -1.859909 l 2.376838,-2.617009 -1.46e-4,-2.841787 -1.058229,-1.656812 v -2.974094 l -1.058375,-1.239767 v -1.79066 l -1.009943,-1.342088 -3.265046,-0.01138 1.172585,1.475936 1.104368,0.01035 0.645981,0.821169 0.01048,2.018562 0.599991,0.786029 0.03824,2.29194 1.058746,1.657846 -3.71e-4,2.236642 -2.022829,2.117266 v 2.11675 l -1.507473,1.976706 v 2.256794 l 1.500226,2.099697 1.730195,-0.01291 2.115716,2.175149 z"
     id="path17"
     inkscape:connector-curvature="0"
     sodipodi:nodetypes="ccccccccccccccccccccccccccccccc" />
</svg>
