<?xml version="1.0" encoding="UTF-8" standalone="no"?>
<svg
   xmlns:dc="http://purl.org/dc/elements/1.1/"
   xmlns:cc="http://creativecommons.org/ns#"
   xmlns:rdf="http://www.w3.org/1999/02/22-rdf-syntax-ns#"
   xmlns:svg="http://www.w3.org/2000/svg"
   xmlns="http://www.w3.org/2000/svg"
   xmlns:xlink="http://www.w3.org/1999/xlink"
   xmlns:sodipodi="http://sodipodi.sourceforge.net/DTD/sodipodi-0.dtd"
   xmlns:inkscape="http://www.inkscape.org/namespaces/inkscape"
   width="608"
   height="304"
   viewBox="0 0 160.86632 80.43358"
   version="1.1"
   id="svg53"
   sodipodi:docname="map-bunker-hatchet-compartment-ceiling-03.svg"
   inkscape:version="0.92.2 (5c3e80d, 2017-08-06)">
  <metadata
     id="metadata57">
    <rdf:RDF>
      <cc:Work
         rdf:about="">
        <dc:format>image/svg+xml</dc:format>
        <dc:type
           rdf:resource="http://purl.org/dc/dcmitype/StillImage" />
        <dc:title></dc:title>
      </cc:Work>
    </rdf:RDF>
  </metadata>
  <sodipodi:namedview
     pagecolor="#ffffff"
     bordercolor="#666666"
     borderopacity="1"
     objecttolerance="10"
     gridtolerance="10"
     guidetolerance="10"
     inkscape:pageopacity="0"
     inkscape:pageshadow="2"
     inkscape:window-width="1920"
     inkscape:window-height="1017"
     id="namedview55"
     showgrid="true"
     fit-margin-top="0"
     fit-margin-left="0"
     fit-margin-right="0"
     fit-margin-bottom="0"
     inkscape:zoom="1.3568806"
     inkscape:cx="300.89566"
     inkscape:cy="176.13404"
     inkscape:window-x="1912"
     inkscape:window-y="-8"
     inkscape:window-maximized="1"
     inkscape:current-layer="svg53">
    <inkscape:grid
       type="xygrid"
       id="grid871"
       empspacing="4"
       spacingy="1.0583365"
       spacingx="1.0583311"
       originx="-0.084472288"
       originy="1.0998898e-005" />
  </sodipodi:namedview>
  <defs
     id="defs33">
    <pattern
       xlink:href="#a"
       id="h"
       patternTransform="matrix(0.03307517,0,0,0.03307441,-14.817884,88.899424)" />
    <pattern
       xlink:href="#a"
       id="g"
       patternTransform="matrix(0.03307517,0,0,0.03307441,25.399323,124.88229)" />
    <pattern
       xlink:href="#b"
       id="a"
       patternTransform="translate(-159.834 378.683) scale(.06615)" />
    <clipPath
       id="j">
      <path
         d="M 39.132,200.883 22.2,217.816 H -113.267 L -130.2,200.883 Z"
         id="path5"
         inkscape:connector-curvature="0"
         style="fill:#3f3c34;stroke-width:2.1170001;stroke-opacity:0.706" />
    </clipPath>
    <clipPath
       id="i">
      <path
         d="m -130.2,200.883 16.932,16.933 v 127 L -130.2,361.75 Z"
         id="path8"
         inkscape:connector-curvature="0"
         style="fill:#3f3c34;stroke-width:2.1170001;stroke-opacity:0.706" />
    </clipPath>
    <pattern
       patternUnits="userSpaceOnUse"
       width="32"
       height="32"
       patternTransform="translate(-159.834 378.683) scale(.26458)"
       id="b">
      <path
         fill="none"
         stroke-width="3.78"
         d="M0 0h32v32H0z"
         id="path11" />
      <path
         fill="none"
         stroke-width="4"
         d="M0 0h32v32H0z"
         id="path13" />
      <path
         d="M16 0v32M0 16h32"
         fill="none"
         stroke="#000"
         stroke-width="4"
         id="path15" />
    </pattern>
    <clipPath
       id="f">
      <path
         d="M 169.333,76.2 152.4,93.133 V 76.198 l 16.931,-16.934 z"
         id="path18"
         inkscape:connector-curvature="0"
         style="fill:#3f3c34;stroke-width:2.1170001;stroke-opacity:0.706" />
    </clipPath>
    <clipPath
       id="e">
      <path
         d="M 169.333,76.2 H 313.267 L 296.997,93.132 152.4,93.133 Z"
         id="path21"
         inkscape:connector-curvature="0"
         style="fill:#3a3a3a;stroke-width:2.1170001;stroke-opacity:0.706" />
    </clipPath>
    <clipPath
       id="d">
      <path
         d="M 296.333,93.133 V 203.2 l 16.932,16.934 V 76.2 Z"
         id="path24"
         inkscape:connector-curvature="0"
         style="fill:#3a3a3a;stroke-width:2.1170001;stroke-opacity:0.706" />
    </clipPath>
    <clipPath
       id="c">
      <path
         d="M 0.001,220.133 16.933,203.2 h 279.4 l 16.934,16.934 z"
         id="path27"
         inkscape:connector-curvature="0"
         style="fill:#3a3a3a;stroke-width:2.1170001;stroke-opacity:0.706" />
    </clipPath>
    <clipPath
       id="k">
      <path
         d="m 16.934,76.198 v 126.999 h 279.4 V 93.133 H 152.4 V 76.198 Z m 25.4,16.933 a 8.467,8.467 0 1 1 0,16.934 8.467,8.467 0 0 1 0,-16.934 z m 80.432,67.733 c 7.014,0 12.7,5.686 12.7,12.7 0,7.014 -5.686,12.7 -12.7,12.7 -7.014,0 -12.7,-5.686 -12.7,-12.7 0,-7.014 5.686,-12.7 12.7,-12.7 z"
         id="path30"
         inkscape:connector-curvature="0"
         style="fill:#565656;stroke-width:1.68200004;stroke-opacity:0.706" />
    </clipPath>
    <clipPath
       clipPathUnits="userSpaceOnUse"
       id="clipPath1700">
      <path
         style="fill:#1b1e25;stroke-width:2.22600007"
         d="m 292.09983,114.2998 -237.066522,-5.3e-4 6e-6,84.66713 33.866644,4e-5 -2e-6,-76.19993 H 258.23321 v 76.19993 l 33.86662,-4e-5 z M 182.03323,12.69986 H 12.699449 l 5.29e-4,186.26656 h 8.46666 l 1.5e-5,-177.79989 H 173.56657 V 80.433157 H 325.96648 V 198.9664 h 8.46666 V 71.966494 H 182.03323 Z"
         id="path1702"
         inkscape:connector-curvature="0"
         sodipodi:nodetypes="cccccccccccccccccccccc" />
    </clipPath>
    <clipPath
       clipPathUnits="userSpaceOnUse"
       id="clipPath856">
      <path
         id="path859"
         d="m 59.266013,93.133632 v 50.800148 l -42.248995,1.3e-4 V 16.933536 H 152.4841 v 59.266843 h 152.39945 v 67.732361 l -42.41691,0.001 V 93.133997 Z"
         style="fill:#565656;fill-opacity:1;fill-rule:nonzero;stroke:none;stroke-width:0.26458409"
         inkscape:connector-curvature="0"
         sodipodi:nodetypes="ccccccccccc" />
    </clipPath>
    <clipPath
       clipPathUnits="userSpaceOnUse"
       id="clipPath863">
      <path
         inkscape:connector-curvature="0"
         style="fill:#3a3a3a;fill-opacity:1;fill-rule:nonzero;stroke:none;stroke-width:0.26458409"
         d="M 169.41736,2.7642164e-4 152.4841,16.933536 17.016898,16.933416 0.08363773,1.5642282e-4 Z"
         id="path865"
         sodipodi:nodetypes="ccccc" />
    </clipPath>
    <clipPath
       clipPathUnits="userSpaceOnUse"
       id="clipPath869">
      <path
         id="path871"
         d="M 0.08375773,160.86717 17.017018,143.93391 V 16.933536 L 0.08363773,1.5642282e-4 Z"
         style="fill:#3a3a3a;fill-opacity:1;fill-rule:nonzero;stroke:none;stroke-width:0.26458409"
         inkscape:connector-curvature="0"
         sodipodi:nodetypes="ccccc" />
    </clipPath>
    <clipPath
       clipPathUnits="userSpaceOnUse"
       id="clipPath875">
      <path
         inkscape:connector-curvature="0"
         style="fill:#3a3a3a;fill-opacity:1;fill-rule:nonzero;stroke:none;stroke-width:0.26458409"
         d="M 0.08389773,160.86716 17.017158,143.93391 h 42.248993 l 16.933248,16.93325 h -33.86703 l -2.03199,-2.11666 H 10.667168 l -2.2013104,2.11666 z"
         id="path877"
         sodipodi:nodetypes="ccccccccc" />
    </clipPath>
    <clipPath
       clipPathUnits="userSpaceOnUse"
       id="clipPath881">
      <path
         sodipodi:nodetypes="ccccc"
         id="path883"
         d="m 59.26613,93.133746 16.933269,16.933264 v 50.80014 L 59.26613,143.93389 Z"
         style="fill:#3a3a3a;fill-opacity:1;fill-rule:nonzero;stroke:none;stroke-width:0.26458409"
         inkscape:connector-curvature="0" />
    </clipPath>
    <clipPath
       clipPathUnits="userSpaceOnUse"
       id="clipPath887">
      <path
         id="path889"
         d="M 262.4665,93.133738 245.53325,110.06701 H 76.199399 L 59.266019,93.133738 Z"
         style="fill:#3a3a3a;fill-opacity:1;fill-rule:nonzero;stroke:none;stroke-width:0.26458409"
         inkscape:connector-curvature="0"
         sodipodi:nodetypes="ccccc" />
    </clipPath>
    <clipPath
       clipPathUnits="userSpaceOnUse"
       id="clipPath893">
      <path
         id="path895"
         d="m 245.53339,160.86703 16.93325,-16.93325 V 93.133997 l -16.93325,16.933273 z"
         style="fill:#3a3a3a;fill-opacity:1;fill-rule:nonzero;stroke:none;stroke-width:0.26458409"
         inkscape:connector-curvature="0" />
    </clipPath>
    <clipPath
       clipPathUnits="userSpaceOnUse"
       id="clipPath899">
      <path
         id="path901"
         d="m 245.53325,160.86716 16.93325,-16.93325 42.41705,-0.001 16.93325,16.93325 h -8.55128 l -2.032,-2.11666 h -29.63319 l -2.20134,2.11666 z"
         style="fill:#3a3a3a;fill-opacity:1;fill-rule:nonzero;stroke:none;stroke-width:0.26458409"
         inkscape:connector-curvature="0"
         sodipodi:nodetypes="ccccccccc" />
    </clipPath>
    <clipPath
       clipPathUnits="userSpaceOnUse"
       id="clipPath905">
      <path
         id="path907"
         d="M 321.8168,160.86599 304.88355,143.93274 V 76.200379 l 16.93338,-16.933382 z"
         style="fill:#3a3a3a;fill-opacity:1;fill-rule:nonzero;stroke:none;stroke-width:0.26458409"
         inkscape:connector-curvature="0"
         sodipodi:nodetypes="ccccc" />
    </clipPath>
    <clipPath
       clipPathUnits="userSpaceOnUse"
       id="clipPath911">
      <path
         id="path913"
         d="M 152.48422,76.200255 169.41748,59.266997 H 321.81754 L 304.88429,76.200255 Z"
         style="fill:#3a3a3a;fill-opacity:1;fill-rule:nonzero;stroke:none;stroke-width:0.26458409"
         inkscape:connector-curvature="0"
         sodipodi:nodetypes="ccccc" />
    </clipPath>
    <clipPath
       clipPathUnits="userSpaceOnUse"
       id="clipPath917">
      <path
         inkscape:connector-curvature="0"
         style="fill:#3a3a3a;fill-opacity:1;fill-rule:nonzero;stroke:none;stroke-width:0.26458409"
         d="M 169.41737,2.8639911e-4 152.4841,16.933536 V 76.20039 l 16.93327,-16.933261 z"
         id="path919"
         sodipodi:nodetypes="ccccc" />
    </clipPath>
  </defs>
  <path
     sodipodi:nodetypes="ccccc"
     id="path915"
     d="M 169.41737,2.864e-4 152.4841,16.933536 V 76.20039 l 16.93327,-16.93326 z"
     style="fill:#3a3a3a;fill-opacity:1;fill-rule:nonzero;stroke:#000000;stroke-width:2.11667323;stroke-miterlimit:4;stroke-dasharray:none;stroke-opacity:1"
     inkscape:connector-curvature="0"
     clip-path="url(#clipPath917)"
     transform="matrix(0.50000065,0,0,0.50000046,-0.04265392,-7.8211482e-5)" />
  <path
     sodipodi:nodetypes="ccccc"
     inkscape:connector-curvature="0"
     style="fill:#3a3a3a;fill-opacity:1;fill-rule:nonzero;stroke:#000000;stroke-width:2.11667323;stroke-miterlimit:4;stroke-dasharray:none;stroke-opacity:1"
     d="m 152.48422,76.200256 16.93326,-16.93326 h 152.40007 l -16.93326,16.93326 z"
     id="path909"
     clip-path="url(#clipPath911)"
     transform="matrix(0.50000065,0,0,0.50000046,-0.04265392,-7.8211482e-5)" />
  <path
     sodipodi:nodetypes="ccccc"
     inkscape:connector-curvature="0"
     style="fill:#3a3a3a;fill-opacity:1;fill-rule:nonzero;stroke:#000000;stroke-width:2.11667323;stroke-miterlimit:4;stroke-dasharray:none;stroke-opacity:1"
     d="M 321.81681,160.86599 304.88355,143.93274 V 76.20038 l 16.93339,-16.933384 z"
     id="path903"
     clip-path="url(#clipPath905)"
     transform="matrix(0.50000065,0,0,0.50000046,-0.04265392,-7.8211482e-5)" />
  <path
     sodipodi:nodetypes="ccccccccc"
     inkscape:connector-curvature="0"
     style="fill:#3a3a3a;fill-opacity:1;fill-rule:nonzero;stroke:#000000;stroke-width:2.11667323;stroke-miterlimit:4;stroke-dasharray:none;stroke-opacity:1"
     d="m 245.53325,160.86716 16.93325,-16.93325 42.41705,-0.001 16.93326,16.93325 h -8.55128 l -2.03201,-2.11666 h -29.63318 l -2.20134,2.11666 z"
     id="path897"
     clip-path="url(#clipPath899)"
     transform="matrix(0.50000065,0,0,0.50000046,-0.04265392,-7.8211482e-5)" />
  <path
     inkscape:connector-curvature="0"
     style="fill:#3a3a3a;fill-opacity:1;fill-rule:nonzero;stroke:#000000;stroke-width:2.11667323;stroke-miterlimit:4;stroke-dasharray:none;stroke-opacity:1"
     d="m 245.53339,160.86703 16.93325,-16.93325 V 93.133996 l -16.93325,16.933274 z"
     id="path891"
     clip-path="url(#clipPath893)"
     transform="matrix(0.50000065,0,0,0.50000046,-0.04265392,-7.8211482e-5)" />
  <path
     sodipodi:nodetypes="ccccc"
     inkscape:connector-curvature="0"
     style="fill:#3a3a3a;fill-opacity:1;fill-rule:nonzero;stroke:#000000;stroke-width:2.11667323;stroke-miterlimit:4;stroke-dasharray:none;stroke-opacity:1"
     d="M 262.4665,93.133738 245.53325,110.06701 H 76.1994 L 59.26602,93.133738 Z"
     id="path885"
     clip-path="url(#clipPath887)"
     transform="matrix(0.50000065,0,0,0.50000046,-0.04265392,-7.8211482e-5)" />
  <path
     inkscape:connector-curvature="0"
     style="fill:#3a3a3a;fill-opacity:1;fill-rule:nonzero;stroke:#000000;stroke-width:2.11667323;stroke-miterlimit:4;stroke-dasharray:none;stroke-opacity:1"
     d="M 59.26613,93.133745 76.1994,110.06701 v 50.80014 L 59.26613,143.93389 Z"
     id="path879"
     sodipodi:nodetypes="ccccc"
     clip-path="url(#clipPath881)"
     transform="matrix(0.50000065,0,0,0.50000046,-0.04265392,-7.8211482e-5)" />
  <path
     sodipodi:nodetypes="ccccccccc"
     id="path873"
     d="M 0.08389773,160.86716 17.017158,143.93391 H 59.26615 L 76.1994,160.86716 H 42.332368 l -2.03199,-2.11666 h -29.63321 l -2.2013103,2.11666 z"
     style="fill:#3a3a3a;fill-opacity:1;fill-rule:nonzero;stroke:#000000;stroke-width:2.11667323;stroke-miterlimit:4;stroke-dasharray:none;stroke-opacity:1"
     inkscape:connector-curvature="0"
     clip-path="url(#clipPath875)"
     transform="matrix(0.50000065,0,0,0.50000046,-0.04265392,-7.8211482e-5)" />
  <path
     sodipodi:nodetypes="ccccc"
     inkscape:connector-curvature="0"
     style="fill:#3a3a3a;fill-opacity:1;fill-rule:nonzero;stroke:#000000;stroke-width:2.11667323;stroke-miterlimit:4;stroke-dasharray:none;stroke-opacity:1"
     d="M 0.08375773,160.86717 17.017018,143.93391 V 16.933536 L 0.08363773,1.5642282e-4 Z"
     id="path867"
     clip-path="url(#clipPath869)"
     transform="matrix(0.50000065,0,0,0.50000046,-0.04265392,-7.8211482e-5)" />
  <path
     sodipodi:nodetypes="ccccc"
     id="path861"
     d="M 169.41736,2.7642282e-4 152.4841,16.933536 17.016898,16.933416 0.08363773,1.5642282e-4 Z"
     style="fill:#3a3a3a;fill-opacity:1;fill-rule:nonzero;stroke:#000000;stroke-width:2.11667323;stroke-miterlimit:4;stroke-dasharray:none;stroke-opacity:1"
     inkscape:connector-curvature="0"
     clip-path="url(#clipPath863)"
     transform="matrix(0.50000065,0,0,0.50000046,-0.04265392,-7.8211482e-5)" />
  <path
     sodipodi:nodetypes="ccccccccccc"
     inkscape:connector-curvature="0"
     style="fill:#565656;fill-opacity:1;fill-rule:nonzero;stroke:#000000;stroke-width:2.11667323;stroke-miterlimit:4;stroke-dasharray:none;stroke-opacity:1"
     d="m 59.266014,93.133631 v 50.800149 l -42.248996,1.3e-4 V 16.933536 H 152.4841 V 76.20038 h 152.39945 v 67.73236 l -42.41691,0.001 V 93.133996 Z"
     id="path854"
     clip-path="url(#clipPath856)"
     transform="matrix(0.50000065,0,0,0.50000046,-0.04265392,-7.8211482e-5)" />
</svg>
