<?xml version="1.0" encoding="UTF-8" standalone="no"?>
<svg
   xmlns:dc="http://purl.org/dc/elements/1.1/"
   xmlns:cc="http://creativecommons.org/ns#"
   xmlns:rdf="http://www.w3.org/1999/02/22-rdf-syntax-ns#"
   xmlns:svg="http://www.w3.org/2000/svg"
   xmlns="http://www.w3.org/2000/svg"
   xmlns:sodipodi="http://sodipodi.sourceforge.net/DTD/sodipodi-0.dtd"
   xmlns:inkscape="http://www.inkscape.org/namespaces/inkscape"
   width="144"
   height="144"
   viewBox="0 0 38.1 38.1"
   version="1.1"
   id="svg8"
   sodipodi:docname="map-bush-01sv.svg"
   inkscape:version="0.92.2 (5c3e80d, 2017-08-06)">
  <metadata
     id="metadata14">
    <rdf:RDF>
      <cc:Work
         rdf:about="">
        <dc:format>image/svg+xml</dc:format>
        <dc:type
           rdf:resource="http://purl.org/dc/dcmitype/StillImage" />
        <dc:title />
      </cc:Work>
    </rdf:RDF>
  </metadata>
  <defs
     id="defs12" />
  <sodipodi:namedview
     pagecolor="#ffffff"
     bordercolor="#666666"
     borderopacity="1"
     objecttolerance="10"
     gridtolerance="10"
     guidetolerance="10"
     inkscape:pageopacity="0"
     inkscape:pageshadow="2"
     inkscape:window-width="1920"
     inkscape:window-height="1017"
     id="namedview10"
     showgrid="true"
     inkscape:zoom="1.6388889"
     inkscape:cx="-30.823399"
     inkscape:cy="50.818883"
     inkscape:window-x="1912"
     inkscape:window-y="-8"
     inkscape:window-maximized="1"
     inkscape:current-layer="svg8">
    <inkscape:grid
       type="xygrid"
       id="grid821"
       empspacing="4"
       spacingy="1.0583333"
       spacingx="1.0583333" />
  </sodipodi:namedview>
  <path
     sodipodi:type="star"
     style="fill:#73802f;fill-opacity:1;stroke:none;stroke-width:1.44191504;stroke-linecap:round;stroke-linejoin:miter;stroke-miterlimit:6;stroke-dasharray:none;stroke-opacity:1;paint-order:normal"
     id="path881-6"
     sodipodi:sides="31"
     sodipodi:cx="19.610046"
     sodipodi:cy="20.763578"
     sodipodi:r1="18.456512"
     sodipodi:r2="14.580644"
     sodipodi:arg1="-1.5707963"
     sodipodi:arg2="-1.4694546"
     inkscape:flatsided="false"
     inkscape:rounded="0.15"
     inkscape:randomized="0.03"
     d="m 19.105068,2.2790614 c 0.636272,0.019741 1.640951,4.1491852 2.275732,4.1879553 0.63478,0.03877 1.81091,-3.6773137 2.425239,-3.5606339 0.61433,0.1166798 -0.377163,4.1345282 0.224267,4.3472836 0.601429,0.2127554 1.97962,-4.1302254 2.555271,-3.8566676 0.575651,0.2735578 -0.820371,4.0133527 -0.263952,4.3041108 0.556418,0.2907582 3.168431,-2.2314325 3.674695,-1.843902 0.506265,0.3875304 -1.20703,3.0187173 -0.705014,3.4119872 0.502017,0.3932699 2.830221,-1.6951775 3.253823,-1.2273905 0.423601,0.467787 -2.346502,3.2009557 -1.952739,3.7017337 0.393762,0.500777 4.36204,-1.7848062 4.700912,-1.260021 0.338872,0.524786 -3.304541,2.910887 -3.048867,3.488425 0.255675,0.577538 4.167923,-0.677863 4.408644,-0.0903 0.240722,0.587564 -2.559003,2.361608 -2.39579,2.968308 0.163213,0.6067 3.415438,0.494014 3.517601,1.124105 0.102163,0.63009 -4.097538,1.466964 -4.061845,2.091684 0.03569,0.624721 3.93169,1.027224 3.923547,1.668522 -0.0081,0.641297 -3.876571,0.385328 -3.944118,1.021867 -0.06755,0.636539 3.416131,1.572738 3.269429,2.196635 -0.146703,0.623898 -3.789369,0.0317 -4.00007,0.626506 -0.210701,0.594805 3.403235,2.534746 3.136878,3.107799 -0.266357,0.573053 -3.640581,-1.225799 -3.957078,-0.667485 -0.316497,0.558315 2.475154,3.120152 2.0841,3.625069 -0.391053,0.504917 -3.278231,-1.788726 -3.690018,-1.320469 -0.411786,0.468256 1.349054,3.915673 0.863625,4.316525 -0.48543,0.400851 -3.155528,-2.224111 -3.685774,-1.884853 -0.530246,0.339258 1.490621,3.831238 0.92452,4.121549 -0.566101,0.290311 -2.278783,-3.389239 -2.85489,-3.136839 -0.576107,0.252401 -0.561829,3.986882 -1.168793,4.188415 -0.606964,0.201532 -1.982873,-2.738621 -2.603306,-2.618276 -0.620433,0.120344 -0.419689,3.752964 -1.052139,3.814852 -0.63245,0.06189 -1.214837,-4.31454 -1.853161,-4.319052 -0.638324,-0.0045 -1.283909,4.484507 -1.90538,4.398149 -0.621472,-0.08636 -0.389825,-3.510782 -1.000134,-3.648497 -0.610309,-0.137715 -1.216773,3.504464 -1.821061,3.318827 -0.604289,-0.185638 -0.05047,-4.952074 -0.620988,-5.211741 -0.570517,-0.259667 -2.852669,3.846797 -3.407325,3.552195 -0.5546567,-0.294603 1.513658,-4.627346 0.97535,-4.971068 C 10.787951,31.900648 8.1307562,35.112691 7.644225,34.712353 7.1576938,34.312015 9.480052,30.846363 9.0353128,30.400087 8.5905737,29.95381 4.8985096,32.927073 4.5285643,32.416139 4.158619,31.905205 7.6870837,29.577687 7.3636416,29.026587 7.0401996,28.475487 3.4445951,29.169877 3.1818027,28.599455 2.9190103,28.029033 6.5550568,26.084468 6.3115934,25.503011 6.06813,24.921554 1.3553134,25.646177 1.2031355,25.03186 1.0509575,24.417544 5.2324533,23.039601 5.1363035,22.420578 5.0401538,21.801556 1.6500782,22.441158 1.6272897,21.811228 1.6045013,21.181299 4.5342602,21.125112 4.5595308,20.496709 4.5848014,19.868306 1.4374037,18.943545 1.540926,18.317632 1.6444483,17.691719 4.8224547,17.985004 4.9974035,17.368178 5.1723523,16.751352 2.3925643,15.059084 2.6316382,14.473644 2.8707122,13.888203 6.2838968,14.468413 6.5412771,13.897103 6.7986574,13.325793 3.1344653,11.447556 3.4837554,10.910227 3.8330455,10.372899 8.049541,11.992058 8.4124206,11.47573 8.7753001,10.959401 6.297232,8.265439 6.7254491,7.7952868 7.1536662,7.3251346 9.7877176,9.8561402 10.266402,9.4344851 10.745087,9.0128299 8.5434346,5.6355895 9.054975,5.2513661 c 0.5115403,-0.3842233 2.473889,2.7729981 3.010244,2.4522271 0.536355,-0.3207711 -0.237885,-3.2874705 0.336705,-3.5372374 0.574589,-0.2497669 2.519869,2.5358522 3.119958,2.333921 0.600089,-0.2019312 0.201337,-3.9017303 0.824354,-4.0046372 0.623017,-0.1029068 1.578937,3.7937261 2.206534,3.7103115 0.627597,-0.083415 -0.08397,-3.9466309 0.552298,-3.9268897 z"
     inkscape:transform-center-y="-1.6169894"
     transform="translate(-0.437902,-1.692435)" />
  <path
     transform="translate(4.7741829,3.4811323)"
     inkscape:transform-center-y="-0.71876908"
     d="m 14.620654,4.505008 c 0.52731,-0.02478 1.8778,-2.5193689 2.390897,-2.4080181 0.513097,0.1113509 0.160073,2.3133985 0.666642,2.4779237 0.506568,0.1645252 2.645653,-1.6570917 3.111968,-1.3926559 0.466314,0.2644359 0.304402,3.0799635 0.693132,3.4337123 0.388731,0.3537487 2.586341,-0.8876393 2.924891,-0.4699099 0.338549,0.4177295 -0.774303,3.1974 -0.510107,3.6605428 0.264197,0.4631431 2.898114,0.6254881 3.081636,1.1148591 0.183522,0.489371 -2.405409,2.000473 -2.304787,2.529028 0.100622,0.528554 2.839189,1.116312 2.857938,1.643473 0.01875,0.527162 -2.784158,1.500444 -2.869198,2.025632 -0.08504,0.525189 2.513052,1.974404 2.310099,2.469517 -0.202954,0.495113 -2.822994,0.668031 -3.080931,1.134606 -0.257936,0.466574 0.881304,2.577004 0.516014,2.971819 -0.365291,0.394814 -2.52629,-0.754665 -2.925057,-0.412053 -0.398767,0.342612 -0.229302,3.613678 -0.687655,3.89494 -0.458352,0.281261 -2.611676,-2.053591 -3.113655,-1.863807 -0.50198,0.189784 -0.139145,3.307349 -0.661164,3.402584 -0.522019,0.09524 -1.858538,-2.845616 -2.396098,-2.835067 -0.53756,0.01055 -1.997622,2.363508 -2.51925,2.253991 C 11.58434,28.026608 11.071775,25.840907 10.579138,25.658202 10.086502,25.475496 7.8731399,26.920262 7.4207984,26.653826 6.968457,26.387391 8.0311596,23.972031 7.6342262,23.617145 7.2372929,23.262259 4.2130813,24.482338 3.8491477,24.087055 3.485214,23.691772 5.4584862,21.437336 5.1730837,20.984913 4.8876811,20.532491 1.4703721,19.811142 1.2776185,19.311654 1.0848648,18.812165 3.6193477,17.762108 3.5360333,17.245782 3.4527189,16.729457 0.7494768,16.06565 0.73951735,15.542236 0.7295579,15.018822 3.4476435,14.096229 3.5472935,13.576677 3.6469434,13.057125 1.089259,11.129511 1.2835667,10.644003 1.4778744,10.158495 4.9179969,10.535182 5.1783267,10.067798 5.4386564,9.600415 3.4938045,6.9409355 3.8484837,6.5375785 4.203163,6.1342215 7.231932,7.2987862 7.6337287,6.9496311 8.0355253,6.6004761 6.9545612,3.7668152 7.4148226,3.5178487 7.8750841,3.2688822 10.072094,5.1109688 10.574851,4.9184978 11.077608,4.7260267 11.579055,1.6194325 12.096202,1.515914 12.61335,1.4123956 14.093345,4.5297883 14.620654,4.505008 Z"
     inkscape:randomized="0.032"
     inkscape:rounded="0.16"
     inkscape:flatsided="false"
     sodipodi:arg2="-1.3962634"
     sodipodi:arg1="-1.5707963"
     sodipodi:r2="13.44044"
     sodipodi:r1="10.886755"
     sodipodi:cy="15.120495"
     sodipodi:cx="14.280468"
     sodipodi:sides="18"
     id="path895-8"
     style="fill:#859536;fill-opacity:1;stroke:none;stroke-width:1.05003428;stroke-linecap:round;stroke-linejoin:miter;stroke-miterlimit:6;stroke-dasharray:none;stroke-opacity:1;paint-order:normal"
     sodipodi:type="star"
     inkscape:transform-center-x="0.0095113318" />
  <path
     inkscape:transform-center-x="-0.25141229"
     sodipodi:type="star"
     style="fill:#a8bb49;fill-opacity:1;stroke:none;stroke-width:0.62277901;stroke-linecap:round;stroke-linejoin:miter;stroke-miterlimit:6;stroke-dasharray:none;stroke-opacity:1;paint-order:normal"
     id="path899-3"
     sodipodi:sides="15"
     sodipodi:cx="8.4697952"
     sodipodi:cy="8.9680195"
     sodipodi:r1="6.5366888"
     sodipodi:r2="7.9715719"
     sodipodi:arg1="-1.5707963"
     sodipodi:arg2="-1.3613568"
     inkscape:flatsided="false"
     inkscape:rounded="0.16"
     inkscape:randomized="0.032"
     d="m 8.2153468,2.6213554 c 0.3288351,-0.00574 1.3573284,-1.63645785 1.6786667,-1.5512074 0.3213385,0.08525 0.9500765,1.9606278 1.2595875,2.0842452 0.30951,0.1236174 1.479239,-0.8613726 1.7527,-0.6796336 0.27346,0.1817389 0.328905,1.7458362 0.545995,2.0027969 0.217089,0.2569607 1.687149,0.2205567 1.839994,0.518235 0.152845,0.2976784 -0.961437,1.7724819 -0.848365,2.0825392 0.113071,0.3100572 1.981719,0.83746 2.002829,1.1729954 0.02111,0.3355354 -1.467049,1.1182858 -1.509517,1.4535914 -0.04247,0.3353055 1.469887,1.4825075 1.357679,1.7964205 -0.112209,0.313914 -2.256098,0.5876 -2.410624,0.885354 -0.154527,0.297753 0.839196,1.447773 0.606628,1.68626 -0.232567,0.238487 -1.745115,0.216746 -2.006683,0.425207 -0.261569,0.20846 -0.359942,1.36724 -0.656782,1.508112 -0.296839,0.140872 -1.524404,-0.939628 -1.8516169,-0.855131 -0.3272134,0.0845 -0.9176964,1.667091 -1.2515417,1.667918 C 8.3904511,16.819884 7.2848146,15.164448 6.9510036,15.110122 6.6171926,15.055796 5.358251,16.324136 5.0551952,16.197464 4.7521393,16.070793 4.6875307,14.289515 4.4132146,14.09877 4.1388984,13.908026 2.6248965,14.393257 2.4073515,14.142236 2.1898065,13.891215 3.1819295,12.548497 3.0117651,12.260532 2.8416006,11.972566 1.1044605,11.54018 1.0069529,11.226801 0.90944518,10.913423 2.0165049,9.7935636 1.9832052,9.4589739 1.9499056,9.1243843 0.30262171,8.5467999 0.34068433,8.2124332 0.37874695,7.8780666 2.367838,7.0746377 2.4734166,6.7536211 2.5789953,6.4326045 1.4347321,5.3970556 1.5960548,5.1016793 1.7573776,4.806303 3.2188438,5.0022792 3.4354421,4.7448997 3.6520404,4.4875202 3.7435562,2.870554 4.006545,2.6635004 4.2695337,2.4564468 5.4349205,3.2227677 5.7329065,3.0723575 6.0308925,2.9219473 6.6674679,1.067903 6.990344,0.9897472 7.3132201,0.91159135 7.8865116,2.6270997 8.2153468,2.6213554 Z"
     inkscape:transform-center-y="-0.47083638"
     transform="matrix(0.77071217,0.77071217,-0.77071217,0.77071217,19.767136,4.9902389)" />
  <path
     transform="translate(9.0811048,10.654076)"
     inkscape:transform-center-y="-0.33635737"
     d="M 5.6991529,0.58947542 C 5.9125419,0.58525504 6.1655897,1.6954435 6.3783974,1.7413807 6.5912051,1.787318 7.3194967,0.86442981 7.5140044,0.95146849 7.7085121,1.0385071 7.6448921,2.3455611 7.8262305,2.4564699 8.007569,2.5673787 9.2771482,2.1518981 9.4320309,2.2997972 9.5869137,2.4476962 8.8431302,3.3108641 8.9576882,3.4901253 9.0722463,3.6693866 10.373654,3.6200014 10.455583,3.8208789 10.537512,4.0217563 9.4786224,4.9807706 9.5245027,5.191714 9.5703829,5.4026575 10.931742,5.8051005 10.932914,6.0167743 10.934086,6.2284482 9.5623191,6.4476209 9.5249837,6.6576607 9.4876483,6.8677004 10.534361,7.7462044 10.45697,7.943554 10.379579,8.1409036 9.0818478,8.0982422 8.9590857,8.2724913 8.8363236,8.4467405 9.5882251,9.5112923 9.4346736,9.6570456 9.2811222,9.8027988 8.0053612,9.2021776 7.8285596,9.328937 7.6517579,9.4556963 7.7096593,10.767903 7.5168698,10.858141 7.3240803,10.94838 6.5873769,9.9693788 6.3810708,10.018411 6.1747646,10.067444 5.9164079,11.035832 5.7025297,11.037839 5.4886515,11.039846 4.9159787,9.9655514 4.7084552,9.9207939 4.5009318,9.8760364 3.7728917,10.794568 3.5728482,10.710706 3.3728046,10.626844 3.4440047,9.3225389 3.2606221,9.2057048 3.0772396,9.0888706 1.9538795,9.6767933 1.796559,9.5324007 1.6392384,9.3880082 2.2477089,8.354124 2.1291644,8.1720493 2.0106199,7.9899746 0.85150249,8.2138344 0.77300716,8.011319 0.69451185,7.8088037 1.6072738,6.9636392 1.5623449,6.7504356 1.517416,6.537232 0.44383191,6.2739846 0.45179105,6.0600341 0.45975019,5.8460836 1.5219503,5.1798846 1.5618639,4.969654 1.6017775,4.7594233 0.69850543,4.0915887 0.77162001,3.8886439 0.84473457,3.6856991 2.0059196,3.8839026 2.1277669,3.7045184 2.2496143,3.5251342 1.64084,2.3275213 1.7939163,2.1751523 1.9469925,2.0227834 3.0851329,2.4563378 3.2582931,2.3332377 3.4314533,2.2101376 3.3707989,1.2053328 3.5699828,1.1188686 3.7691666,1.0324045 4.4931448,2.0064355 4.7057819,1.9585985 4.9184189,1.9107616 5.485764,0.5936958 5.6991529,0.58947542 Z"
     inkscape:randomized="0.03"
     inkscape:rounded="0.15"
     inkscape:flatsided="false"
     sodipodi:arg2="-1.3744468"
     sodipodi:arg1="-1.5707963"
     sodipodi:r2="4.145329"
     sodipodi:r1="5.247251"
     sodipodi:cy="5.9031596"
     sodipodi:cx="5.5752053"
     sodipodi:sides="16"
     id="path883-0"
     style="fill:#73802f;fill-opacity:1;stroke:none;stroke-width:0.40994152;stroke-linecap:round;stroke-linejoin:miter;stroke-miterlimit:6;stroke-dasharray:none;stroke-opacity:1;paint-order:normal"
     sodipodi:type="star"
     inkscape:transform-center-x="0.019124416" />
  <path
     inkscape:transform-center-x="0.07182443"
     sodipodi:type="star"
     style="fill:#73802f;fill-opacity:1;stroke:none;stroke-width:0.29291388;stroke-linecap:round;stroke-linejoin:miter;stroke-miterlimit:6;stroke-dasharray:none;stroke-opacity:1;paint-order:normal"
     id="path891-1"
     sodipodi:sides="16"
     sodipodi:cx="3.9836295"
     sodipodi:cy="4.2179618"
     sodipodi:r1="3.7492976"
     sodipodi:r2="2.9619453"
     sodipodi:arg1="-1.5707963"
     sodipodi:arg2="-1.3744468"
     inkscape:flatsided="false"
     inkscape:rounded="0.15"
     inkscape:randomized="0.03"
     d="M 3.9223656,0.48531134 C 4.0751434,0.48810827 4.3083381,1.2178896 4.4560463,1.2527934 4.6037545,1.2876972 5.1739267,0.74945509 5.311673,0.81419813 5.4494193,0.87894116 5.5250985,1.7776668 5.657288,1.8595279 5.7894775,1.941389 6.5080461,1.5314585 6.6119072,1.6418961 6.7157683,1.7523336 6.4038826,2.4645683 6.4910768,2.5913354 6.5782709,2.7181025 7.3175169,2.6845611 7.3807869,2.8242505 7.444057,2.9639399 6.8413606,3.4763012 6.8717643,3.6259728 6.902168,3.7756445 7.6413092,4.0536517 7.6465089,4.2093101 7.6517087,4.3649685 6.9080538,4.5501786 6.8721441,4.6975561 6.8362345,4.8449337 7.4373852,5.4845754 7.3814308,5.6283798 7.3254764,5.7721842 6.5749267,5.7587665 6.4919921,5.8854823 6.4090574,6.012198 6.7223391,6.702013 6.6133252,6.8101575 6.5043113,6.918302 5.7882395,6.6173011 5.6586157,6.7031799 5.5289919,6.7890588 5.4532643,7.6863306 5.3134708,7.7487981 5.1736773,7.8112656 4.6074261,6.9982857 4.4576092,7.0253173 4.3077922,7.0523488 4.0754178,7.9874887 3.9240982,7.9922721 3.7727787,7.9970555 3.5291199,7.1822777 3.3782939,7.1458662 3.2274678,7.1094547 2.6879824,7.6563674 2.5469254,7.5920765 2.4058684,7.5277857 2.4502782,6.7387116 2.3249933,6.6502186 2.1997084,6.5617257 1.4809378,6.9520645 1.3703705,6.842942 1.2598032,6.7338195 1.5767045,6.0477096 1.4912045,5.9184111 1.4057045,5.7891126 0.66555774,5.8001894 0.60149072,5.6605876 0.53742372,5.5209858 1.129047,4.8801428 1.0983825,4.7301246 1.067718,4.5801063 0.18550718,4.3405214 0.18783122,4.1893495 0.19015526,4.0381775 1.0615669,3.8083329 1.0980026,3.6585413 1.1344383,3.5087496 0.53604735,2.9946655 0.60084686,2.8564582 0.66564636,2.718251 1.4052764,2.7512593 1.4902892,2.6242642 1.5753021,2.4972692 1.2583275,1.7809458 1.3689525,1.6746805 1.4795775,1.5684153 2.1972179,1.8933774 2.3236656,1.8065666 2.4501133,1.7197557 2.4018898,0.71431988 2.5451276,0.65747655 2.6883654,0.60063322 3.2261841,1.4089429 3.376731,1.3733423 3.5272779,1.3377417 3.7695877,0.4825144 3.9223656,0.48531134 Z"
     inkscape:transform-center-y="-0.15413411"
     transform="translate(18.27768,19.233859)" />
  <path
     inkscape:transform-center-x="0.027689297"
     sodipodi:type="star"
     style="fill:#73802f;fill-opacity:1;stroke:none;stroke-width:0.21833538;stroke-linecap:round;stroke-linejoin:miter;stroke-miterlimit:6;stroke-dasharray:none;stroke-opacity:1;paint-order:normal"
     id="path897-8"
     sodipodi:sides="16"
     sodipodi:cx="2.9693611"
     sodipodi:cy="3.1440301"
     sodipodi:r1="2.794692"
     sodipodi:r2="2.2078063"
     sodipodi:arg1="-1.5707963"
     sodipodi:arg2="-1.3744468"
     inkscape:flatsided="false"
     inkscape:rounded="0.15"
     inkscape:randomized="0.03"
     d="M 3.0479726,0.43314373 C 3.1639412,0.43365572 3.2141992,0.90383208 3.3242443,0.93063382 3.4342894,0.95743555 3.8508812,0.58900911 3.957122,0.63506175 4.0633628,0.68111438 4.164164,1.1780499 4.2598813,1.2436412 4.3555986,1.3092326 4.8570365,1.0919084 4.9402241,1.168097 5.0234116,1.2442855 4.7564405,1.8751339 4.8171127,1.9705969 4.8777849,2.06606 5.5863645,2.0172906 5.6256701,2.1249488 5.6649757,2.232607 5.0586181,2.6129764 5.0795166,2.7268944 5.1004151,2.8408125 5.785377,3.0587275 5.7803,3.17364 5.775223,3.2885525 5.1006156,3.4004224 5.0796272,3.5111569 5.0586387,3.6218913 5.6694302,4.1109564 5.6260772,4.21687 5.5827243,4.3227835 4.8815217,4.3560196 4.8175793,4.4498365 4.7536369,4.5436534 5.0211699,5.0043174 4.9409493,5.0843327 4.8607288,5.1643481 4.3548758,4.893546 4.2604718,4.9567972 4.1660679,5.0200485 4.0666387,5.7579146 3.9579497,5.7977248 3.8492607,5.837535 3.435843,5.3494924 3.3250398,5.3727122 3.2142366,5.3959321 3.1622013,5.965477 3.0488407,5.9644079 2.9354801,5.9633387 2.7077893,5.408665 2.5960177,5.3854414 2.4842461,5.3622177 2.0678479,5.7287102 1.96314,5.6810134 1.8584322,5.6333167 1.753265,4.9722479 1.6603808,4.9047524 1.5674965,4.837257 1.0718662,5.1360739 0.98907755,5.0576923 0.90628893,4.9793108 1.1639535,4.4422736 1.1031493,4.3454782 1.0423451,4.2486829 0.50229951,4.2832164 0.46210084,4.1766407 0.42190217,4.070065 0.86635885,3.6844 0.84057284,3.574695 0.81478683,3.4649901 0.14005245,3.2614355 0.13979216,3.146516 0.13953187,3.0315964 0.81907007,2.9042475 0.84046227,2.7904326 0.86185448,2.6766177 0.41967008,2.1907676 0.46169372,2.0847195 0.50371734,1.9786714 1.0355035,1.9581998 1.1026827,1.8662387 1.169862,1.7742775 0.90636427,1.2199547 0.98835228,1.1414565 1.0703403,1.0629584 1.5679129,1.4264035 1.6597902,1.359278 1.7516674,1.2921524 1.8555598,0.56138941 1.9623123,0.51835038 2.0690649,0.47531135 2.4840012,0.96932384 2.5952222,0.94336295 2.7064432,0.91740205 2.9320039,0.43263173 3.0479726,0.43314373 Z"
     inkscape:transform-center-y="-0.17679563"
     transform="translate(22.085479,11.748084)" />
</svg>
