<svg xmlns="http://www.w3.org/2000/svg" width="320" height="320" viewBox="0 0 84.667 84.666"><defs><clipPath id="a"><path d="M.22 0C.098 0 0 .105 0 .235v67.263c0 .13.098.235.22.235h84.226c.122 0 .22-.105.22-.235V.235c0-.13-.098-.235-.22-.235zm4.013 4.233h76.2V63.5h-76.2z" fill="#4e553b" stroke-width=".455" stroke-linecap="square"/></clipPath></defs><rect ry=".235" rx=".22" height="67.733" width="84.667" fill="#4e553b"/><path d="M82.845 2.115l.334 27.989S63.5 37.629 49.39 33.867C45.86 30.104 45.86 2.066 45.86 2.066zM42.333 63.5c-6.68 4.233-40.006 2.267-40.006 2.267L2.26 1.832S27.237-.307 38.1 4.233c7.404 3.992 6.251 45.716 4.233 59.267zM83.099 37.63l.034 27.742s-18.575.245-33.391-.814c-3.528-3.557-2.79-16.97 0-25.4 4.233-4.233 33.357-1.529 33.357-1.529z" fill="#96a076" fill-opacity=".162"/><path d="M.22 0C.098 0 0 .105 0 .235v67.263c0 .13.098.235.22.235h84.226c.122 0 .22-.105.22-.235V.235c0-.13-.098-.235-.22-.235zm4.013 4.233h76.2V63.5h-76.2z" clip-path="url(#a)" fill="#4e553b" stroke="#191919" stroke-width="2.117" stroke-linecap="square"/></svg>