<svg xmlns="http://www.w3.org/2000/svg" xmlns:xlink="http://www.w3.org/1999/xlink" width="1184" height="832" viewBox="0 0 313.266 220.134"><defs><pattern xlink:href="#a" id="h" patternTransform="translate(-29.633 237.066) scale(.06615)"/><pattern xlink:href="#a" id="g" patternTransform="translate(50.801 309.033) scale(.06615)"/><pattern xlink:href="#b" id="a" patternTransform="translate(-159.834 378.683) scale(.06615)"/><clipPath id="j"><path d="M39.132 200.883L22.2 217.816h-135.467l-16.933-16.933z" fill="#3f3c34" stroke-width="2.117" stroke-opacity=".706"/></clipPath><clipPath id="i"><path d="M-130.2 200.883l16.932 16.933v127L-130.2 361.75z" fill="#3f3c34" stroke-width="2.117" stroke-opacity=".706"/></clipPath><pattern patternUnits="userSpaceOnUse" width="32" height="32" patternTransform="translate(-159.834 378.683) scale(.26458)" id="b"><path fill="none" stroke-width="3.78" d="M0 0h32v32H0z"/><path fill="none" stroke-width="4" d="M0 0h32v32H0z"/><path d="M16 0v32M0 16h32" fill="none" stroke="#000" stroke-width="4"/></pattern><clipPath id="f"><path d="M169.333 76.2L152.4 93.133V76.198l16.931-16.934z" fill="#3f3c34" stroke-width="2.117" stroke-opacity=".706"/></clipPath><clipPath id="e"><path d="M169.333 76.2h143.934l-16.27 16.932-144.597.001z" fill="#3a3a3a" stroke-width="2.117" stroke-opacity=".706"/></clipPath><clipPath id="d"><path d="M296.333 93.133V203.2l16.932 16.934V76.2z" fill="#3a3a3a" stroke-width="2.117" stroke-opacity=".706"/></clipPath><clipPath id="c"><path d="M.001 220.133L16.933 203.2h279.4l16.934 16.934z" fill="#3a3a3a" stroke-width="2.117" stroke-opacity=".706"/></clipPath><clipPath id="k"><path d="M16.934 76.198v126.999h279.4V93.133H152.4V76.198zm25.4 16.933a8.467 8.467 0 1 1 0 16.934 8.467 8.467 0 0 1 0-16.934zm80.432 67.733c7.014 0 12.7 5.686 12.7 12.7 0 7.014-5.686 12.7-12.7 12.7-7.014 0-12.7-5.686-12.7-12.7 0-7.014 5.686-12.7 12.7-12.7z" fill="#565656" stroke-width="1.682" stroke-opacity=".706"/></clipPath></defs><path d="M.001 220.133L16.933 203.2h279.4l16.934 16.934z" clip-path="url(#c)" fill="#3a3a3a" stroke-width="2.117" stroke="#000"/><path d="M296.333 93.133V203.2l16.932 16.934.001-143.934z" clip-path="url(#d)" fill="#3a3a3a" stroke-width="2.117" stroke="#000"/><path d="M169.333 76.2h143.934l-16.27 16.932-144.597.001z" clip-path="url(#e)" fill="#3a3a3a" stroke-width="2.117" stroke="#000"/><path d="M169.333 76.2L152.4 93.133V76.198l16.931-16.934z" clip-path="url(#f)" fill="#3a3a3a" stroke-width="2.117" stroke="#000"/><path d="M110.067 160.866h25.4v25.4h-25.4z" fill="url(#g)"/><path d="M29.633 88.9h25.4v25.4h-25.4z" fill="url(#h)"/><path transform="translate(130.201 -141.617)" clip-path="url(#i)" d="M-130.2 200.883l16.932 16.933v127L-130.2 361.75z" fill="#3a3a3a" stroke="#000" stroke-width="2.117"/><path transform="translate(130.201 -141.617)" clip-path="url(#j)" d="M39.132 200.883L22.2 217.816h-135.467l-16.933-16.933z" fill="#3a3a3a" stroke="#000" stroke-width="2.117"/><path d="M16.934 76.198v126.999h279.4V93.133H152.4V76.198zm25.4 16.933a8.467 8.467 0 1 1 0 16.934 8.467 8.467 0 0 1 0-16.934zm80.432 67.733c7.014 0 12.7 5.686 12.7 12.7 0 7.014-5.686 12.7-12.7 12.7-7.014 0-12.7-5.686-12.7-12.7 0-7.014 5.686-12.7 12.7-12.7z" clip-path="url(#k)" fill="#565656" stroke-width="2.117" stroke="#000"/></svg>