<?xml version="1.0" encoding="UTF-8" standalone="no"?>
<svg
   xmlns:dc="http://purl.org/dc/elements/1.1/"
   xmlns:cc="http://creativecommons.org/ns#"
   xmlns:rdf="http://www.w3.org/1999/02/22-rdf-syntax-ns#"
   xmlns:svg="http://www.w3.org/2000/svg"
   xmlns="http://www.w3.org/2000/svg"
   xmlns:sodipodi="http://sodipodi.sourceforge.net/DTD/sodipodi-0.dtd"
   xmlns:inkscape="http://www.inkscape.org/namespaces/inkscape"
   width="144"
   height="272"
   viewBox="0 0 144 272"
   version="1.1"
   id="svg60"
   sodipodi:docname="map-planter-06.svg"
   inkscape:version="0.92.2 (5c3e80d, 2017-08-06)">
  <metadata
     id="metadata66">
    <rdf:RDF>
      <cc:Work
         rdf:about="">
        <dc:format>image/svg+xml</dc:format>
        <dc:type
           rdf:resource="http://purl.org/dc/dcmitype/StillImage" />
        <dc:title />
      </cc:Work>
    </rdf:RDF>
  </metadata>
  <defs
     id="defs64" />
  <sodipodi:namedview
     pagecolor="#ffffff"
     bordercolor="#666666"
     borderopacity="1"
     objecttolerance="10"
     gridtolerance="10"
     guidetolerance="10"
     inkscape:pageopacity="0"
     inkscape:pageshadow="2"
     inkscape:window-width="1920"
     inkscape:window-height="1017"
     id="namedview62"
     showgrid="true"
     inkscape:showpageshadow="false"
     scale-x="1"
     fit-margin-top="0"
     fit-margin-left="0"
     fit-margin-right="0"
     fit-margin-bottom="0"
     inkscape:zoom="1.0978763"
     inkscape:cx="-31.028357"
     inkscape:cy="215.37047"
     inkscape:window-x="1912"
     inkscape:window-y="-8"
     inkscape:window-maximized="1"
     inkscape:current-layer="svg60">
    <inkscape:grid
       type="xygrid"
       id="grid1044"
       empspacing="8"
       spacingy="1.0583421"
       spacingx="1.0583421"
       originx="1.5913668e-007"
       originy="3.0517578e-005" />
  </sodipodi:namedview>
  <rect
     style="fill:#191919;fill-opacity:1;stroke:none;stroke-width:10.37325573;stroke-linecap:butt;stroke-linejoin:miter;stroke-miterlimit:4;stroke-dasharray:none;stroke-opacity:1"
     id="rect2209-9"
     width="144"
     height="272.00006"
     x="0"
     y="-6.1035156e-005"
     rx="6"
     ry="6" />
  <rect
     y="7.999939"
     x="8"
     height="256.00003"
     width="128"
     id="rect2217-7"
     style="fill:#803a01;fill-opacity:1;stroke:none;stroke-width:9.48799229;stroke-linecap:butt;stroke-linejoin:miter;stroke-miterlimit:4;stroke-dasharray:none;stroke-opacity:1" />
  <rect
     y="15.999931"
     x="16"
     height="240"
     width="111.99999"
     id="rect2211-2"
     style="fill:#642d01;fill-opacity:1;stroke:none;stroke-width:8.59337807;stroke-linecap:butt;stroke-linejoin:miter;stroke-miterlimit:4;stroke-dasharray:none;stroke-opacity:1" />
  <rect
     style="fill:#451f01;fill-opacity:1;stroke:none;stroke-width:7.68615055;stroke-linecap:butt;stroke-linejoin:miter;stroke-miterlimit:4;stroke-dasharray:none;stroke-opacity:1"
     id="rect2213-3"
     width="96"
     height="223.99989"
     x="24"
     y="24.000046" />
  <rect
     y="31.999931"
     x="32"
     height="208.00005"
     width="79.999992"
     id="rect2215-2"
     style="fill:#2b1301;fill-opacity:1;stroke:none;stroke-width:6.76123571;stroke-linecap:butt;stroke-linejoin:miter;stroke-miterlimit:4;stroke-dasharray:none;stroke-opacity:1" />
  <g
     id="g997"
     transform="translate(-9.8571214,6.3224793)">
    <path
       id="path925"
       d="m 84.667368,69.408174 c 21.998032,10.996127 15.713702,29.851981 0,50.277496 -15.710822,-20.425515 -21.995152,-39.281369 0,-50.277496 z"
       style="fill:#3b3c0c;fill-opacity:1;stroke-width:2.8800776"
       inkscape:connector-curvature="0" />
    <path
       id="path927"
       d="m 84.667368,77.262143 c 13.74949,6.874732 9.821064,18.660012 0,31.424527 -9.821068,-12.764515 -13.746613,-24.549795 0,-31.421647 z"
       style="fill:#616e16;fill-opacity:1;stroke-width:2.8800776"
       inkscape:connector-curvature="0" />
    <path
       id="path929"
       d="M 80.689594,70.307579 C 92.751287,91.738395 76.986161,103.83752 52.530946,111.95995 50.952526,86.237745 56.305176,67.09938 80.689594,70.307579 Z"
       style="fill:#3b3c0c;fill-opacity:1;stroke-width:2.8800776"
       inkscape:connector-curvature="0" />
    <path
       id="path931"
       d="m 76.290864,76.814195 c 7.538054,13.39435 -2.314576,20.9593 -17.599758,26.033625 -0.98731,-16.075185 2.3587,-28.038858 17.598145,-26.03124 z"
       style="fill:#616e16;fill-opacity:1;stroke-width:2.8800776"
       inkscape:connector-curvature="0" />
    <path
       id="path933"
       d="m 78.708485,62.182037 c -10.999019,21.998048 -29.851999,15.713728 -50.277509,0 20.42551,-15.710819 39.27849,-21.995135 50.277509,0 z"
       style="fill:#3b3c0c;fill-opacity:1;stroke-width:2.8800776"
       inkscape:connector-curvature="0" />
    <path
       id="path935"
       d="m 70.851633,62.182037 c -6.874747,13.749501 -18.657137,9.821076 -31.421637,0 12.7645,-9.821047 24.54689,-13.746592 31.421637,0 z"
       style="fill:#616e16;fill-opacity:1;stroke-width:2.8800776"
       inkscape:connector-curvature="0" />
    <path
       style="fill:#6c6115;fill-opacity:0.88200001;stroke-width:2.8800776"
       inkscape:connector-curvature="0"
       d="M 85.740434,63.216557 C 88.466512,92.321855 65.495086,97.827975 35.013916,94.808395 45.748036,66.120442 60.821506,47.93269 85.740434,63.216557 Z"
       id="path937" />
    <path
       style="fill:#929e1e;fill-opacity:0.88200001;stroke-width:2.8800776"
       inkscape:connector-curvature="0"
       d="M 77.812679,68.153857 C 79.519315,86.341985 65.161856,89.784725 46.108616,87.898755 52.819686,69.96709 62.241996,58.600069 77.812679,68.153857 Z"
       id="path939" />
    <path
       id="path941"
       d="m 84.667368,61.645527 c 13.23684,10.950046 13.23684,16.425083 0,43.800223 -13.239715,-27.37514 -13.239715,-32.850177 0,-43.800223 z"
       style="fill:#b7a540;fill-opacity:1;stroke-width:2.8800776"
       inkscape:connector-curvature="0" />
    <path
       id="path943"
       d="m 84.667368,65.752518 c 9.512897,7.868369 9.512897,11.805434 0,31.479242 -9.518658,-19.673808 -9.518658,-23.610873 0,-31.479242 z"
       style="fill:#d4b323;fill-opacity:1;stroke-width:2.8800776"
       inkscape:connector-curvature="0" />
    <path
       id="path945"
       d="m 84.667368,69.856628 c 6.203687,5.135186 6.203687,7.701324 0,20.534952 -6.206568,-12.833628 -6.206568,-15.399766 0,-20.534952 z"
       style="fill:#e9c10e;fill-opacity:1;stroke-width:2.8800776"
       inkscape:connector-curvature="0" />
    <path
       id="path947"
       d="m 85.804998,62.475807 c -10.950058,13.236844 -16.425083,13.236844 -43.800212,0 27.375129,-13.242575 32.850154,-13.242575 43.800212,0 z"
       style="fill:#b7a540;fill-opacity:1;stroke-width:2.8800776"
       inkscape:connector-curvature="0" />
    <path
       id="path949"
       d="m 81.698007,62.475807 c -7.871253,9.512906 -11.805441,9.512906 -31.479241,0 19.6738,-9.518637 23.607988,-9.518637 31.479241,0 z"
       style="fill:#d4b323;fill-opacity:1;stroke-width:2.8800776"
       inkscape:connector-curvature="0" />
    <path
       id="path951"
       d="m 77.591016,62.475807 c -5.1323,6.203702 -7.69845,6.203702 -20.53207,0 12.83362,-6.209433 15.39977,-6.209433 20.53495,0 z"
       style="fill:#e9c10e;fill-opacity:1;stroke-width:2.8800776"
       inkscape:connector-curvature="0" />
  </g>
  <path
     id="path999"
     d="m 68.988214,180.47791 c 10.996127,-21.99803 29.851981,-15.7137 50.277496,0 -20.425515,15.71082 -39.281369,21.99515 -50.277496,0 z"
     style="fill:#3b3c0c;fill-opacity:1;stroke-width:2.8800776"
     inkscape:connector-curvature="0" />
  <path
     id="path1001"
     d="m 76.842183,180.47791 c 6.874732,-13.74949 18.660012,-9.82106 31.424527,0 -12.764515,9.82107 -24.549795,13.74662 -31.421647,0 z"
     style="fill:#616e16;fill-opacity:1;stroke-width:2.8800776"
     inkscape:connector-curvature="0" />
  <path
     id="path1003"
     d="m 69.887619,184.45569 c 21.430816,-12.0617 33.529941,3.70343 41.652371,28.15864 -25.722205,1.57842 -44.86057,-3.77423 -41.652371,-28.15864 z"
     style="fill:#3b3c0c;fill-opacity:1;stroke-width:2.8800776"
     inkscape:connector-curvature="0" />
  <path
     id="path1005"
     d="m 76.394235,188.85442 c 13.39435,-7.53806 20.9593,2.31457 26.033625,17.59975 -16.075185,0.98731 -28.038858,-2.3587 -26.03124,-17.59814 z"
     style="fill:#616e16;fill-opacity:1;stroke-width:2.8800776"
     inkscape:connector-curvature="0" />
  <path
     style="fill:#6c6115;fill-opacity:0.88200001;stroke-width:2.8800776"
     inkscape:connector-curvature="0"
     d="M 73.655951,186.66864 C 96.469615,204.94668 84.454575,225.28488 61.090428,245.09236 47.935766,217.43057 45.34488,193.95098 73.655951,186.66864 Z"
     id="path1011" />
  <path
     style="fill:#929e1e;fill-opacity:0.88200001;stroke-width:2.8800776"
     inkscape:connector-curvature="0"
     d="m 71.692156,195.79934 c 14.258586,11.41987 6.749979,24.13246 -7.853446,36.51482 -8.221321,-17.29141 -9.839425,-31.96693 7.853446,-36.51482 z"
     id="path1013" />
  <path
     id="path1021"
     d="m 67.733895,178.86586 c 15.83149,6.66946 17.409767,11.91208 12.626207,41.94087 -20.5718,-22.39562 -22.150077,-27.63823 -12.626207,-41.94087 z"
     style="fill:#b7a540;fill-opacity:1;stroke-width:2.8800776"
     inkscape:connector-curvature="0" />
  <path
     id="path1023"
     d="m 68.91781,182.7985 c 11.378114,4.79486 12.512213,8.56203 9.074463,30.14294 C 63.206374,196.84672 62.072275,193.07955 68.91781,182.7985 Z"
     style="fill:#d4b323;fill-opacity:1;stroke-width:2.8800776"
     inkscape:connector-curvature="0" />
  <path
     id="path1025"
     d="m 70.101724,186.73115 c 7.419832,3.1261 8.159572,5.58332 5.918743,19.66048 -9.645365,-10.49885 -10.385105,-12.95607 -5.919573,-19.66324 z"
     style="fill:#e9c10e;fill-opacity:1;stroke-width:2.8800776"
     inkscape:connector-curvature="0" />
  <path
     inkscape:connector-curvature="0"
     style="fill:#b7a540;fill-opacity:1;stroke-width:2.43380475"
     d="M 67.733895,51.864813 C 71.634236,37.881518 75.860463,35.998677 101.54364,36.802114 84.965632,56.436144 80.739408,58.318985 67.733895,51.864813 Z"
     id="path1043" />
  <path
     inkscape:connector-curvature="0"
     style="fill:#d4b323;fill-opacity:1;stroke-width:2.43380475"
     d="M 70.904114,50.45244 C 73.706332,40.403458 76.745384,39.049519 95.203193,39.626871 83.290253,53.740138 80.251198,55.094069 70.904114,50.45244 Z"
     id="path1045" />
  <path
     inkscape:connector-curvature="0"
     style="fill:#e9c10e;fill-opacity:1;stroke-width:2.43380475"
     d="m 74.072111,49.041055 c 1.830473,-6.554646 3.811296,-7.43713 15.851102,-7.061878 -7.771974,9.20433 -9.752797,10.086813 -15.851102,7.061878 z"
     id="path1047" />
  <path
     id="path1049"
     d="M 79.715717,62.236129 C 89.828694,57.157042 93.13038,58.608696 106.12915,73.849338 86.110374,74.575204 82.808687,73.123553 79.715717,62.236129 Z"
     style="fill:#b7a540;fill-opacity:1;stroke-width:1.89727163"
     inkscape:connector-curvature="0" />
  <path
     id="path1051"
     d="m 82.192412,63.325058 c 7.267224,-3.650466 9.641445,-2.60659 18.983338,8.346417 -14.387931,0.523849 -16.762149,-0.52003 -18.983338,-8.346417 z"
     style="fill:#d4b323;fill-opacity:1;stroke-width:1.89727163"
     inkscape:connector-curvature="0" />
  <path
     id="path1053"
     d="m 84.667368,64.413224 c 4.74159,-2.379546 6.289084,-1.699159 12.383463,5.444651 -9.384843,0.340114 -10.932335,-0.340273 -12.383463,-5.444651 z"
     style="fill:#e9c10e;fill-opacity:1;stroke-width:1.89727163"
     inkscape:connector-curvature="0" />
  <path
     id="path1055"
     d="m 62.446777,183.50486 c -14.401531,1.82791 -17.776023,-1.33736 -26.995886,-25.32204 24.526649,7.66609 27.90114,10.83135 26.995886,25.32204 z"
     style="fill:#b7a540;fill-opacity:1;stroke-width:2.43380475"
     inkscape:connector-curvature="0" />
  <path
     id="path1057"
     d="m 59.915465,181.13051 c -10.349256,1.31428 -12.775832,-0.96184 -19.401956,-18.19897 17.628767,5.50719 20.055335,7.78331 19.401956,18.19897 z"
     style="fill:#d4b323;fill-opacity:1;stroke-width:2.43380475"
     inkscape:connector-curvature="0" />
  <path
     id="path1059"
     d="m 57.385937,178.75781 c -6.751547,0.85481 -8.333161,-0.62875 -12.656544,-11.87179 11.498077,3.59409 13.079691,5.07764 12.656544,11.87179 z"
     style="fill:#e9c10e;fill-opacity:1;stroke-width:2.43380475"
     inkscape:connector-curvature="0" />
  <path
     inkscape:connector-curvature="0"
     style="fill:#b7a540;fill-opacity:1;stroke-width:1.89727163"
     d="m 67.359605,168.4386 c -8.603582,-7.35172 -8.545992,-10.95799 0.460679,-28.85002 8.43272,18.17051 8.37514,21.77677 -0.460679,28.85002 z"
     id="path1061" />
  <path
     inkscape:connector-curvature="0"
     style="fill:#d4b323;fill-opacity:1;stroke-width:1.89727163"
     d="m 67.402801,165.73343 c -6.183135,-5.28273 -6.141722,-7.87597 0.331094,-20.73451 6.062763,13.05871 6.021349,15.65194 -0.331094,20.73451 z"
     id="path1063" />
  <path
     inkscape:connector-curvature="0"
     style="fill:#e9c10e;fill-opacity:1;stroke-width:1.89727163"
     d="m 67.445971,163.03017 c -4.032194,-3.44766 -4.005202,-5.13791 0.215986,-13.52582 3.953111,8.51844 3.926118,10.20869 -0.215986,13.52582 z"
     id="path1065" />
</svg>
