<?xml version="1.0" encoding="UTF-8" standalone="no"?>
<svg
   xmlns:dc="http://purl.org/dc/elements/1.1/"
   xmlns:cc="http://creativecommons.org/ns#"
   xmlns:rdf="http://www.w3.org/1999/02/22-rdf-syntax-ns#"
   xmlns:svg="http://www.w3.org/2000/svg"
   xmlns="http://www.w3.org/2000/svg"
   xmlns:xlink="http://www.w3.org/1999/xlink"
   xmlns:sodipodi="http://sodipodi.sourceforge.net/DTD/sodipodi-0.dtd"
   xmlns:inkscape="http://www.inkscape.org/namespaces/inkscape"
   width="112"
   height="192"
   viewBox="0 0 29.633271 50.80015"
   version="1.1"
   id="svg53"
   sodipodi:docname="map-bunker-chrys-compartment-ceiling-01a.svg"
   inkscape:version="0.92.2 (5c3e80d, 2017-08-06)">
  <metadata
     id="metadata57">
    <rdf:RDF>
      <cc:Work
         rdf:about="">
        <dc:format>image/svg+xml</dc:format>
        <dc:type
           rdf:resource="http://purl.org/dc/dcmitype/StillImage" />
        <dc:title />
      </cc:Work>
    </rdf:RDF>
  </metadata>
  <sodipodi:namedview
     pagecolor="#ffffff"
     bordercolor="#666666"
     borderopacity="1"
     objecttolerance="10"
     gridtolerance="10"
     guidetolerance="10"
     inkscape:pageopacity="0"
     inkscape:pageshadow="2"
     inkscape:window-width="1920"
     inkscape:window-height="1017"
     id="namedview55"
     showgrid="true"
     fit-margin-top="0"
     fit-margin-left="0"
     fit-margin-right="0"
     fit-margin-bottom="0"
     inkscape:zoom="1.3568806"
     inkscape:cx="218.94236"
     inkscape:cy="130.25153"
     inkscape:window-x="1912"
     inkscape:window-y="-8"
     inkscape:window-maximized="1"
     inkscape:current-layer="svg53"
     inkscape:showpageshadow="false">
    <inkscape:grid
       type="xygrid"
       id="grid905"
       empspacing="4"
       spacingy="1.0583365"
       spacingx="1.0583311"
       originx="-25.399946"
       originy="8.4666919" />
  </sodipodi:namedview>
  <defs
     id="defs33">
    <pattern
       xlink:href="#a"
       id="h"
       patternTransform="matrix(0.03307517,0,0,0.03307441,-219.43424,164.36925)" />
    <pattern
       xlink:href="#a"
       id="g"
       patternTransform="matrix(0.03307517,0,0,0.03307441,-179.21704,200.35212)" />
    <pattern
       xlink:href="#b"
       id="a"
       patternTransform="translate(-159.834 378.683) scale(.06615)" />
    <clipPath
       id="j">
      <path
         d="M 39.132,200.883 22.2,217.816 H -113.267 L -130.2,200.883 Z"
         id="path5"
         inkscape:connector-curvature="0"
         style="fill:#3f3c34;stroke-width:2.1170001;stroke-opacity:0.706" />
    </clipPath>
    <clipPath
       id="i">
      <path
         d="m -130.2,200.883 16.932,16.933 v 127 L -130.2,361.75 Z"
         id="path8"
         inkscape:connector-curvature="0"
         style="fill:#3f3c34;stroke-width:2.1170001;stroke-opacity:0.706" />
    </clipPath>
    <pattern
       patternUnits="userSpaceOnUse"
       width="32"
       height="32"
       patternTransform="translate(-159.834 378.683) scale(.26458)"
       id="b">
      <path
         fill="none"
         stroke-width="3.78"
         d="M0 0h32v32H0z"
         id="path11" />
      <path
         fill="none"
         stroke-width="4"
         d="M0 0h32v32H0z"
         id="path13" />
      <path
         d="M16 0v32M0 16h32"
         fill="none"
         stroke="#000"
         stroke-width="4"
         id="path15" />
    </pattern>
    <clipPath
       id="f">
      <path
         d="M 169.333,76.2 152.4,93.133 V 76.198 l 16.931,-16.934 z"
         id="path18"
         inkscape:connector-curvature="0"
         style="fill:#3f3c34;stroke-width:2.1170001;stroke-opacity:0.706" />
    </clipPath>
    <clipPath
       id="e">
      <path
         d="M 169.333,76.2 H 313.267 L 296.997,93.132 152.4,93.133 Z"
         id="path21"
         inkscape:connector-curvature="0"
         style="fill:#3a3a3a;stroke-width:2.1170001;stroke-opacity:0.706" />
    </clipPath>
    <clipPath
       id="d">
      <path
         d="M 296.333,93.133 V 203.2 l 16.932,16.934 V 76.2 Z"
         id="path24"
         inkscape:connector-curvature="0"
         style="fill:#3a3a3a;stroke-width:2.1170001;stroke-opacity:0.706" />
    </clipPath>
    <clipPath
       id="c">
      <path
         d="M 0.001,220.133 16.933,203.2 h 279.4 l 16.934,16.934 z"
         id="path27"
         inkscape:connector-curvature="0"
         style="fill:#3a3a3a;stroke-width:2.1170001;stroke-opacity:0.706" />
    </clipPath>
    <clipPath
       id="k">
      <path
         d="m 16.934,76.198 v 126.999 h 279.4 V 93.133 H 152.4 V 76.198 Z m 25.4,16.933 a 8.467,8.467 0 1 1 0,16.934 8.467,8.467 0 0 1 0,-16.934 z m 80.432,67.733 c 7.014,0 12.7,5.686 12.7,12.7 0,7.014 -5.686,12.7 -12.7,12.7 -7.014,0 -12.7,-5.686 -12.7,-12.7 0,-7.014 5.686,-12.7 12.7,-12.7 z"
         id="path30"
         inkscape:connector-curvature="0"
         style="fill:#565656;stroke-width:1.68200004;stroke-opacity:0.706" />
    </clipPath>
    <clipPath
       clipPathUnits="userSpaceOnUse"
       id="clipPath2066">
      <path
         style="fill:#1b1e25;stroke-width:2.22600007"
         d="m 182.03426,12.699319 -8.46511,0.001 v 67.732259 h 59.26611 V 224.36846 l -237.0685948,-0.002 v 8.46669 l 245.5342248,5.3e-4 V 71.966471 h -59.26663 z m -50.80049,0.001 v 59.266147 l -59.267145,3.4e-5 v 84.66664 H -4.2333348 v 33.86664 l 84.6671328,-3e-5 V 80.434165 H 139.70095 V 12.700352 Z"
         id="path2068"
         inkscape:connector-curvature="0"
         sodipodi:nodetypes="cccccccccccccccccccccc" />
    </clipPath>
    <clipPath
       clipPathUnits="userSpaceOnUse"
       id="clipPath867">
      <path
         style="fill:#3a3a3a;fill-opacity:1;stroke-width:2.11698699;stroke-opacity:0.706"
         inkscape:connector-curvature="0"
         id="path869"
         d="M 220.13325,6.8300011e-4 203.20117,16.933384 H 67.733473 L 50.800385,6.8300011e-4 Z" />
    </clipPath>
    <clipPath
       clipPathUnits="userSpaceOnUse"
       id="clipPath873">
      <path
         style="fill:#3a3a3a;fill-opacity:1;stroke-width:2.11698699;stroke-opacity:0.706"
         inkscape:connector-curvature="0"
         id="path875"
         d="M 50.800385,6.8300011e-4 67.732473,16.933384 67.733531,101.60031 50.800147,84.666929 Z"
         sodipodi:nodetypes="ccccc" />
    </clipPath>
    <clipPath
       clipPathUnits="userSpaceOnUse"
       id="clipPath879">
      <path
         sodipodi:nodetypes="ccccc"
         d="M 67.732788,101.59901 50.800089,84.666924 -6.1920499e-5,84.666913 16.933318,101.6003 Z"
         id="path881"
         inkscape:connector-curvature="0"
         style="fill:#3a3a3a;fill-opacity:1;stroke-width:2.11698699;stroke-opacity:0.706" />
    </clipPath>
    <clipPath
       clipPathUnits="userSpaceOnUse"
       id="clipPath885">
      <path
         style="fill:#3a3a3a;fill-opacity:1;stroke-width:2.11695504;stroke-opacity:0.706"
         inkscape:connector-curvature="0"
         id="path887"
         d="M -6.6921139e-5,84.666921 16.933318,101.6003 v 42.33347 L -6.6921139e-5,160.86715 -4.0392105e-4,152.31613 2.1164463,150.28379 V 120.65036 L -4.0392105e-4,118.451 Z"
         sodipodi:nodetypes="ccccccccc" />
    </clipPath>
    <clipPath
       clipPathUnits="userSpaceOnUse"
       id="clipPath891">
      <path
         style="fill:#3a3a3a;fill-opacity:1;stroke-width:2.11698699;stroke-opacity:0.706"
         inkscape:connector-curvature="0"
         id="path893"
         d="M -6.6921139e-5,160.86715 16.93202,143.93445 l 186.26783,-0.001 16.93408,16.9337 z"
         sodipodi:nodetypes="ccccc" />
    </clipPath>
    <clipPath
       clipPathUnits="userSpaceOnUse"
       id="clipPath897">
      <path
         d="M 220.13325,160.86585 203.20055,143.93377 203.20123,16.933087 220.13393,0 Z"
         id="path899"
         inkscape:connector-curvature="0"
         style="fill:#3a3a3a;fill-opacity:1;stroke-width:2.11698699;stroke-opacity:0.706"
         sodipodi:nodetypes="ccccc" />
    </clipPath>
    <pattern
       xlink:href="#b-7"
       id="a-0"
       patternTransform="translate(-159.834 378.683) scale(.06615)" />
    <pattern
       patternUnits="userSpaceOnUse"
       width="32"
       height="32"
       patternTransform="translate(-159.834 378.683) scale(.26458)"
       id="b-7">
      <path
         fill="none"
         stroke-width="3.78"
         d="M0 0h32v32H0z"
         id="path10" />
      <path
         fill="none"
         stroke-width="4"
         d="M0 0h32v32H0z"
         id="path12" />
      <path
         d="M16 0v32M0 16h32"
         fill="none"
         stroke="#000"
         stroke-width="4"
         id="path14" />
    </pattern>
    <pattern
       xlink:href="#a-0"
       id="c-9"
       patternTransform="matrix(-0.06615072,0,0,0.06615006,249.76776,249.76761)" />
    <pattern
       xlink:href="#b-7"
       id="pattern1565"
       patternTransform="translate(-159.834 378.683) scale(.06615)" />
    <pattern
       patternUnits="userSpaceOnUse"
       width="32"
       height="32"
       patternTransform="translate(-159.834 378.683) scale(.26458)"
       id="pattern1573">
      <path
         fill="none"
         stroke-width="3.78"
         d="M0 0h32v32H0z"
         id="path1567" />
      <path
         fill="none"
         stroke-width="4"
         d="M0 0h32v32H0z"
         id="path1569" />
      <path
         d="M16 0v32M0 16h32"
         fill="none"
         stroke="#000"
         stroke-width="4"
         id="path1571" />
    </pattern>
    <clipPath
       clipPathUnits="userSpaceOnUse"
       id="clipPath1627">
      <path
         style="fill:#565656;stroke-width:1.58927548;stroke-opacity:0.706"
         d="m 128,32 v 160 l -96.001953,-0.002 v 79.99804 L 383.99805,272 V 32.003906 Z m 208.30078,32.044922 a 16,16 0 0 1 16,16 16,16 0 0 1 -16,16 16,16 0 0 1 -16,-16 16,16 0 0 1 16,-16 z M 336,192 a 24,24 0 0 1 24,24 24,24 0 0 1 -24,24 24,24 0 0 1 -24,-24 24,24 0 0 1 24,-24 z"
         id="path1629"
         inkscape:connector-curvature="0" />
    </clipPath>
    <clipPath
       clipPathUnits="userSpaceOnUse"
       id="clipPath902">
      <path
         sodipodi:nodetypes="ccccccccccc"
         d="M 245.53364,1.8340539e-4 228.60047,16.932913 H 76.200003 L 59.266402,-4.7659537e-4 H 122.7661 V 3.1745234 c 0,3.1750199 2.11668,5.29169 4.23339,5.29169 h 50.80078 c 2.1167,0 4.23341,-2.1166701 4.23341,-5.29169 V -4.7659537e-4 Z"
         id="path904"
         inkscape:connector-curvature="0"
         style="fill:#3a3a3a;fill-opacity:1;stroke-width:2.11704898;stroke-opacity:0.706" />
    </clipPath>
    <clipPath
       clipPathUnits="userSpaceOnUse"
       id="clipPath874">
      <path
         sodipodi:nodetypes="ccccc"
         style="fill:#3a3a3a;fill-opacity:1;stroke-width:2.11703324;stroke-opacity:0.706"
         inkscape:connector-curvature="0"
         id="path876"
         d="M 59.266222,93.131482 76.199603,110.06496 V 16.927013 L 59.266222,-0.00613659 Z" />
    </clipPath>
    <clipPath
       clipPathUnits="userSpaceOnUse"
       id="clipPath880">
      <path
         sodipodi:nodetypes="ccccc"
         style="fill:#3a3a3a;fill-opacity:1;stroke-width:2.11698508;stroke-opacity:0.706"
         inkscape:connector-curvature="0"
         id="path882"
         d="M 245.53285,194.73391 228.60026,177.80173 V 16.933163 L 245.53285,-1.6594614e-5 Z" />
    </clipPath>
    <clipPath
       clipPathUnits="userSpaceOnUse"
       id="clipPath886">
      <path
         d="M -6.2608696e-4,194.73391 16.931713,177.80052 H 228.60006 l 16.93336,16.93339 z"
         id="path888"
         inkscape:connector-curvature="0"
         style="fill:#3a3a3a;fill-opacity:1;stroke-width:2.11704659;stroke-opacity:0.706"
         sodipodi:nodetypes="ccccc" />
    </clipPath>
    <clipPath
       clipPathUnits="userSpaceOnUse"
       id="clipPath892">
      <path
         sodipodi:nodetypes="ccccc"
         style="fill:#3a3a3a;fill-opacity:1;stroke-width:2.11703157;stroke-opacity:0.706"
         inkscape:connector-curvature="0"
         id="path894"
         d="M 59.266114,93.131482 76.199563,110.06487 H 16.932723 L -3.7608696e-4,93.131482 Z" />
    </clipPath>
    <clipPath
       clipPathUnits="userSpaceOnUse"
       id="clipPath898">
      <path
         style="fill:#3a3a3a;fill-opacity:1;stroke-width:2.1169343;stroke-opacity:0.706"
         inkscape:connector-curvature="0"
         id="path901"
         d="M -3.1608789e-4,93.131852 16.932723,110.06524 v 67.73528 L -3.1608789e-4,194.73391 -6.4608696e-4,186.26109 2.1161533,184.22875 v -29.6334 l -2.11679938696,-2.19939 z"
         sodipodi:nodetypes="ccccccccc" />
    </clipPath>
    <clipPath
       clipPathUnits="userSpaceOnUse"
       id="clipPath905">
      <path
         sodipodi:nodetypes="ccccccc"
         style="fill:#565656;stroke:none;stroke-width:2.45934701;stroke-opacity:1"
         inkscape:connector-curvature="0"
         id="path907"
         d="m 76.199923,16.933453 v 93.130887 l -59.2672,5.3e-4 v 67.73573 l 211.667657,-5.3e-4 V 16.933453 Z"
         clip-path="none" />
    </clipPath>
    <clipPath
       clipPathUnits="userSpaceOnUse"
       id="clipPath902-3">
      <path
         sodipodi:nodetypes="ccccccccccc"
         d="M 245.53364,1.8340539e-4 228.60047,16.932913 H 76.200003 L 59.266402,-4.7659537e-4 H 122.7661 V 3.1745234 c 0,3.1750199 2.11668,5.29169 4.23339,5.29169 h 50.80078 c 2.1167,0 4.23341,-2.1166701 4.23341,-5.29169 V -4.7659537e-4 Z"
         id="path904-6"
         inkscape:connector-curvature="0"
         style="fill:#3a3a3a;fill-opacity:1;stroke-width:2.11704898;stroke-opacity:0.706" />
    </clipPath>
    <clipPath
       clipPathUnits="userSpaceOnUse"
       id="clipPath874-7">
      <path
         sodipodi:nodetypes="ccccc"
         style="fill:#3a3a3a;fill-opacity:1;stroke-width:2.11703324;stroke-opacity:0.706"
         inkscape:connector-curvature="0"
         id="path876-3"
         d="M 59.266222,93.131482 76.199603,110.06496 V 16.927013 L 59.266222,-0.00613659 Z" />
    </clipPath>
    <clipPath
       clipPathUnits="userSpaceOnUse"
       id="clipPath880-3">
      <path
         sodipodi:nodetypes="ccccc"
         style="fill:#3a3a3a;fill-opacity:1;stroke-width:2.11698508;stroke-opacity:0.706"
         inkscape:connector-curvature="0"
         id="path882-5"
         d="M 245.53285,194.73391 228.60026,177.80173 V 16.933163 L 245.53285,-1.6594614e-5 Z" />
    </clipPath>
    <clipPath
       clipPathUnits="userSpaceOnUse"
       id="clipPath886-4">
      <path
         d="M -6.2608696e-4,194.73391 16.931713,177.80052 H 228.60006 l 16.93336,16.93339 z"
         id="path888-3"
         inkscape:connector-curvature="0"
         style="fill:#3a3a3a;fill-opacity:1;stroke-width:2.11704659;stroke-opacity:0.706"
         sodipodi:nodetypes="ccccc" />
    </clipPath>
    <clipPath
       clipPathUnits="userSpaceOnUse"
       id="clipPath892-4">
      <path
         sodipodi:nodetypes="ccccc"
         style="fill:#3a3a3a;fill-opacity:1;stroke-width:2.11703157;stroke-opacity:0.706"
         inkscape:connector-curvature="0"
         id="path894-7"
         d="M 59.266114,93.131482 76.199563,110.06487 H 16.932723 L -3.7608696e-4,93.131482 Z" />
    </clipPath>
    <clipPath
       clipPathUnits="userSpaceOnUse"
       id="clipPath898-1">
      <path
         style="fill:#3a3a3a;fill-opacity:1;stroke-width:2.1169343;stroke-opacity:0.706"
         inkscape:connector-curvature="0"
         id="path901-7"
         d="M -3.1608789e-4,93.131852 16.932723,110.06524 v 67.73528 L -3.1608789e-4,194.73391 -6.4608696e-4,186.26109 2.1161533,184.22875 v -29.6334 l -2.11679938696,-2.19939 z"
         sodipodi:nodetypes="ccccccccc" />
    </clipPath>
    <clipPath
       clipPathUnits="userSpaceOnUse"
       id="clipPath905-5">
      <path
         sodipodi:nodetypes="ccccccc"
         style="fill:#565656;stroke:none;stroke-width:2.45934701;stroke-opacity:1"
         inkscape:connector-curvature="0"
         id="path907-1"
         d="m 76.199923,16.933453 v 93.130887 l -59.2672,5.3e-4 v 67.73573 l 211.667657,-5.3e-4 V 16.933453 Z"
         clip-path="none" />
    </clipPath>
  </defs>
  <path
     style="fill:#000000;fill-opacity:1;stroke:none;stroke-width:7.40835524;stroke-linecap:butt;stroke-linejoin:miter;stroke-miterlimit:4;stroke-dasharray:none;stroke-opacity:1"
     d="M -7.4516662e-5,-1.8999999e-6 H 29.633346 V 50.800146 H -7.4516662e-5 l -3e-12,-4.233342 L 1.0582619,45.508468 V 30.691757 L -7.4516665e-5,29.63342 Z"
     id="rect901"
     inkscape:connector-curvature="0"
     sodipodi:nodetypes="ccccccccc" />
  <path
     clip-path="url(#clipPath905-5)"
     d="m 76.199923,16.933453 v 93.130887 l -59.2672,5.3e-4 v 67.73573 l 211.667657,-5.3e-4 V 16.933453 Z"
     id="path903"
     inkscape:connector-curvature="0"
     style="fill:#565656;stroke:#000000;stroke-width:2.11667299;stroke-miterlimit:4;stroke-dasharray:none;stroke-opacity:1"
     sodipodi:nodetypes="ccccccc"
     transform="matrix(0.49999953,0,0,0.49998424,-7.1057628e-4,-46.563731)" />
  <path
     sodipodi:nodetypes="ccccccccc"
     d="M -3.1608696e-4,93.131853 16.932723,110.06524 v 67.73528 l -16.93303908696,16.93339 -3.3e-4,-8.47282 L 2.1161533,184.22875 v -29.6334 l -2.11679938696,-2.19939 z"
     id="path896"
     inkscape:connector-curvature="0"
     style="fill:#3a3a3a;fill-opacity:1;stroke:#000000;stroke-width:2.11667299;stroke-miterlimit:4;stroke-dasharray:none;stroke-opacity:1"
     clip-path="url(#clipPath898-1)"
     transform="matrix(0.49999953,0,0,0.49998424,-7.1057628e-4,-46.563731)" />
  <path
     d="m 59.266113,93.131483 16.93345,16.933387 H 16.932723 L -3.7608696e-4,93.131483 Z"
     id="path890"
     inkscape:connector-curvature="0"
     style="fill:#3a3a3a;fill-opacity:1;stroke:#000000;stroke-width:2.11667299;stroke-miterlimit:4;stroke-dasharray:none;stroke-opacity:1"
     sodipodi:nodetypes="ccccc"
     clip-path="url(#clipPath892-4)"
     transform="matrix(0.49999953,0,0,0.49998424,-7.1057628e-4,-46.563731)" />
  <path
     sodipodi:nodetypes="ccccc"
     style="fill:#3a3a3a;fill-opacity:1;stroke:#000000;stroke-width:2.11667299;stroke-miterlimit:4;stroke-dasharray:none;stroke-opacity:1"
     inkscape:connector-curvature="0"
     id="path884"
     d="M -6.2608696e-4,194.73391 16.931713,177.80052 H 228.60006 l 16.93336,16.93339 z"
     clip-path="url(#clipPath886-4)"
     transform="matrix(0.49999953,0,0,0.49998424,-7.1057628e-4,-46.563731)" />
  <path
     d="M 245.53285,194.73391 228.60026,177.80173 V 16.933163 L 245.53285,-1.6594614e-5 Z"
     id="path878"
     inkscape:connector-curvature="0"
     style="fill:#3a3a3a;fill-opacity:1;stroke:#000000;stroke-width:2.11667299;stroke-miterlimit:4;stroke-dasharray:none;stroke-opacity:1"
     sodipodi:nodetypes="ccccc"
     clip-path="url(#clipPath880-3)"
     transform="matrix(0.49999953,0,0,0.49998424,-7.1057628e-4,-46.563731)" />
  <path
     d="m 59.266223,93.131483 16.93338,16.933477 V 16.927013 L 59.266223,-0.00613659 Z"
     id="path872"
     inkscape:connector-curvature="0"
     style="fill:#3a3a3a;fill-opacity:1;stroke:#000000;stroke-width:2.11667299;stroke-miterlimit:4;stroke-dasharray:none;stroke-opacity:1"
     sodipodi:nodetypes="ccccc"
     clip-path="url(#clipPath874-7)"
     transform="matrix(0.49999953,0,0,0.49998424,-7.1057628e-4,-46.563731)" />
  <path
     style="fill:#3a3a3a;fill-opacity:1;stroke:#000000;stroke-width:2.11667299;stroke-miterlimit:4;stroke-dasharray:none;stroke-opacity:1"
     inkscape:connector-curvature="0"
     id="path900"
     d="M 245.53364,1.8340539e-4 228.60047,16.932913 H 76.200003 L 59.266403,-4.7659461e-4 H 122.7661 V 3.1745234 c 0,3.17502 2.11668,5.29169 4.23339,5.29169 h 50.80078 c 2.1167,0 4.23341,-2.11667 4.23341,-5.29169 V -4.7659461e-4 Z"
     sodipodi:nodetypes="ccccccccccc"
     clip-path="url(#clipPath902-3)"
     transform="matrix(0.49999953,0,0,0.49998424,-7.1057628e-4,-46.563731)" />
</svg>
