<svg xmlns="http://www.w3.org/2000/svg" xmlns:xlink="http://www.w3.org/1999/xlink" width="704.002" height="832" viewBox="0 0 186.268 220.133"><defs><pattern xlink:href="#a" id="c" patternTransform="matrix(-.06284 0 0 -.06615 177.8 249.767)"/><clipPath id="f"><path d="M496.26-65.722v-10.054h-25.4v10.054z" fill="#252525" stroke-width="1.467"/></clipPath><clipPath id="i"><path d="M25.93 128.587h-39.688V15.346h39.687v5.291H-8.467v102.659H25.93z" fill="#5d2f09" stroke-width=".748"/></clipPath><clipPath id="g"><path d="M29.104 137.054v-13.23H-6.879V17.992h35.983V5.821H-19.05v131.233z" fill="#3b3b3b" stroke-width="4.7"/></clipPath><clipPath id="h"><path d="M496.26-65.722v-10.054h-25.4v10.054z" fill="#252525" stroke-width="1.467"/></clipPath><pattern patternUnits="userSpaceOnUse" width="128" height="128" patternTransform="matrix(.26458 0 0 .26458 0 -38.1)" id="a"><path fill="none" stroke-width="3.78" d="M0 0h128v128H0z"/><path fill="none" stroke-width="3.78" d="M0 0h128v128H0z"/><path d="M0 0h128v128H0z" fill="#2e2d2a" stroke-width="15.118" stroke-miterlimit="10"/><path d="M60 128V68H0v-8h60V0h8v60h60v8H68v60z" fill="#6f6f6f" fill-opacity=".303" stroke-width="1.414"/></pattern><clipPath id="d"><path clip-path="url(#clipPath6865)" d="M402.14 158.55h9.526v-42.334h-9.525z" fill="#a3977d" stroke-width="1.984"/></clipPath><clipPath id="e"><path d="M-22.25 168.075v-9.525h-46.568v9.525z" clip-path="url(#clipPath6865)" fill="#a3977d" stroke-width="2.081"/></clipPath><clipPath id="j"><path d="M63.5 0h-8.466v59.267H.001L0 101.6h8.467V67.733H63.5z" fill="#a3977d" stroke-width="2.226"/></clipPath><clipPath id="k"><path d="M97.367 0h8.467v59.267h63.5V203.2H.001L0 169.333h8.467v25.4h152.401v-127h-63.5z" fill="#a3977d" stroke-width="2.226"/></clipPath><filter id="b" x="-.023" width="1.047" y="-.025" height="1.049" color-interpolation-filters="sRGB"><feGaussianBlur stdDeviation="1.651"/></filter></defs><path transform="matrix(0 .9 -1.10526 0 403.17 152.808)" d="M-99.231 200.075H70.102v160.867H39.528v-17.236h-96.426v17.236H-99.23z" fill="#130902" fill-opacity=".944" filter="url(#b)"/><path d="M177.8 211.667H16.933V67.733H177.8z" fill="url(#c)"/><path fill="#555" d="M105.834 76.2H71.967v-8.467h33.867z"/><path transform="matrix(0 -1 1.1 0 -62.221 428.6)" d="M402.14 158.55h9.526v-42.334h-9.525z" clip-path="url(#d)" fill="#646464"/><path d="M-22.25 168.075v-9.525h-46.568v9.525z" clip-path="url(#e)" transform="translate(134.435 -133.15)" fill="#5a5a5a" stroke="#000" stroke-width="2.117" stroke-opacity=".706"/><path transform="translate(134.435 -124.683)" clip-path="url(#e)" d="M-22.25 168.075v-9.525h-46.568v9.525z" fill="#505050" stroke="#000" stroke-width="2.117" stroke-opacity=".706"/><path d="M-22.25 168.075v-9.525h-46.568v9.525z" clip-path="url(#e)" transform="translate(134.435 -116.217)" fill="#464646" stroke="#000" stroke-width="2.117" stroke-opacity=".706"/><path transform="translate(134.435 -107.75)" clip-path="url(#e)" d="M-22.25 168.075v-9.525h-46.568v9.525z" fill="#3c3c3c" stroke="#000" stroke-width="2.117" stroke-opacity=".706"/><path d="M-22.25 168.075v-9.525h-46.568v9.525z" clip-path="url(#e)" transform="translate(134.435 -99.283)" fill="#323232" stroke="#000" stroke-width="2.117" stroke-opacity=".706"/><path clip-path="url(#f)" d="M496.26-65.722v-10.054h-25.4v10.054z" transform="translate(-339.627 150.389)" fill="#252525" stroke="#191919" stroke-width="3.175"/><path transform="translate(-339.627 270.51)" d="M496.26-65.722v-10.054h-25.4v10.054z" clip-path="url(#f)" fill="#252525" stroke="#191919" stroke-width="3.175"/><path d="M29.104 137.054v-13.23H-6.879V17.992h35.983V5.821H-19.05v131.233z" clip-path="url(#g)" transform="rotate(180 75.936 105.304)" fill="#3b3b3b" stroke="#191919" stroke-width="3.175"/><path clip-path="url(#h)" d="M496.26-65.722v-10.054h-25.4v10.054z" transform="translate(-339.627 270.51)" fill="#252525" stroke="#191919" stroke-width="3.175"/><path transform="rotate(-90 449.002 212.358)" d="M496.26-65.722v-10.054h-25.4v10.054z" clip-path="url(#h)" fill="#252525" stroke="#191919" stroke-width="3.175"/><path transform="translate(-339.627 150.389)" d="M496.26-65.722v-10.054h-25.4v10.054z" clip-path="url(#h)" fill="#252525" stroke="#191919" stroke-width="3.175"/><path clip-path="url(#h)" d="M496.26-65.722v-10.054h-25.4v10.054z" transform="rotate(-90 410.902 174.258)" fill="#252525" stroke="#191919" stroke-width="3.175"/><path clip-path="url(#h)" d="M496.26-65.722v-10.054h-25.4v10.054z" transform="rotate(-90 429.952 193.308)" fill="#252525" stroke="#191919" stroke-width="3.175"/><path d="M25.93 128.587h-39.688V15.346h39.687v5.291H-8.467v102.659H25.93z" clip-path="url(#i)" transform="rotate(180 74.348 105.833)" fill="#5d2f09" stroke="#191919" stroke-width="2.117"/><g transform="scale(-.4432) rotate(-48.191 -612.741 145.262)" fill="#391212"><circle r="11.264" cy="278.017" cx="19.162"/><circle r="3.725" cy="270.029" cx="10.187"/><circle r="2.693" cy="265.856" cx="28.093"/><circle r="4.892" cy="276.402" cx="27.868"/><circle r="2.827" cy="285.826" cx="5.43"/><circle r="2.962" cy="287.666" cx="23.605"/><circle r="2.019" cy="263.388" cx="16.829"/><circle r=".763" cy="270.299" cx="32.446"/><circle r="1.84" cy="284.928" cx="33.702"/><circle r="2.199" cy="291.66" cx="29.573"/><circle r=".853" cy="277.21" cx="3.276"/><circle r="3.231" cy="289.192" cx="14.63"/><circle r="1.436" cy="278.96" cx="8.167"/></g><path d="M63.5 0h-8.466v59.267H.001L0 101.6h8.467V67.733H63.5z" clip-path="url(#j)" transform="translate(8.467 8.467)" fill="#1a1c21" stroke="#000" stroke-width="3.175" stroke-opacity=".706"/><path d="M97.367 0h8.467v59.267h63.5V203.2H.001L0 169.333h8.467v25.4h152.401v-127h-63.5z" clip-path="url(#k)" transform="translate(8.467 8.467)" fill="#1a1c21" stroke="#000" stroke-width="3.175" stroke-opacity=".706"/><path d="M8.467 103.187v5.292h6.879v-5.292zM8.467 177.8v6.88h6.879v-6.88z" fill="#1a1c21"/><path d="M88.714 142.303c8.703 0 15.758-7.056 15.758-15.76a15.762 15.762 0 0 0-8.325-13.891c-3.689-1.843-5.87.31-5.788 1.994.286 1.893 7.329 4.99 4.6 10.897 0 0-1.092 1.898-2.8 2.898-1.8.79-3.064.666-4.2.672.942.604.941 1.333.941 1.333-1.7-.972-2.887-.82-2.887-.82-2.982.312-1.879-1.617-5.173-2.076 0 0-1.251-.788-.361-2.212 4.174 1.146 5.946-.208 5.946-.208.48.248.845.672 1.018 1.184 1.764.385 7.276-.034 4.158-5.439a49.733 49.733 0 0 0-1.924-1.771c.015 1.163-.377 2.646-1.806 3.662-1.78 1.193-4.263.805-5.162.569.427.354.67 1.083.67 1.083-1.215-.972-2.315-1.09-2.315-1.09-2.423-.385-1.143-1.675-3.648-2.735 0 0-.821-.888.183-1.824 3.055 1.79 4.74 1.095 4.74 1.095.327.297.526.71.555 1.15 3.842 1.014 4.863-1.102 3.789-4.748-1.148-1.893-.115-4.018 1.893-5.479-8.647.076-15.617 7.107-15.62 15.756 0 8.704 7.055 15.76 15.758 15.76zm-3.42-13.638c.263-.07.384-.664.384-.664s-.89.238-1.942-.324c.369.745 1.558.988 1.558.988zm-4.595-6.248c.223 0 .444-.444.444-.444s-.754 0-1.466-.666c.134.666 1.022 1.11 1.022 1.11z" fill-opacity=".294"/></svg>