<svg xmlns="http://www.w3.org/2000/svg" width="684" height="236" viewBox="0 0 180.974 62.442"><defs><clipPath id="a"><path d="M0 3.175v16.934h63.499c2.117 0 4.233 2.116 4.233 4.233l.002 38.1h16.933l-.001-38.1c0-2.117 2.117-4.233 4.233-4.233h67.734c2.117 0 4.234 2.116 4.234 4.233v38.1h16.934v-50.8c0-4.234-4.234-8.467-8.468-8.467z" fill="#0e5229" fill-opacity=".863" stroke-width="3.175" stroke-linecap="square" stroke-miterlimit="10"/></clipPath></defs><path d="M0 3.175v16.934h63.499c2.117 0 4.233 2.116 4.233 4.233l.002 38.1h16.933l-.001-38.1c0-2.117 2.117-4.233 4.233-4.233h67.734c2.117 0 4.234 2.116 4.234 4.233v38.1h16.934v-50.8c0-4.234-4.234-8.467-8.468-8.467z" clip-path="url(#a)" fill="#003b19" stroke="#191919" stroke-width="3.175" stroke-linecap="square" stroke-miterlimit="10"/><rect transform="rotate(-90)" width="21.696" height="4.402" x="-22.49" y="118.534" rx=".529" ry=".529" fill="#003115" stroke="#191919" stroke-width="1.694" stroke-linecap="square" stroke-miterlimit="10"/><rect y="37.042" x="65.353" height="4.402" width="21.696" rx=".529" ry=".529" fill="#003115" stroke="#191919" stroke-width="1.694" stroke-linecap="square" stroke-miterlimit="10"/><rect width="21.696" height="4.402" x="158.487" y="37.042" rx=".529" ry=".529" fill="#003115" stroke="#191919" stroke-width="1.694" stroke-linecap="square" stroke-miterlimit="10"/></svg>