<svg xmlns="http://www.w3.org/2000/svg" width="420" height="340" viewBox="0 0 111.125 89.958"><path d="M70.687 19.41l2.762 2.496 3.389-1.288L70.99 40.61l-1.22-3.24-1.689 1.732-.712-1.685-1.826.788z" fill="#665a4e" stroke="#191919" stroke-width="1.204"/><path d="M44.423 45.718l3.829.06 1.756-3.224 8.995 19.034-3.139-1.646-.137 2.433-1.692-.806-.882 1.808z" fill="#665a4e" stroke="#191919" stroke-width="1.226"/><path d="M60.957 29.167l3.103-2.348-.641-3.644 19.272 9.41-3.556.662 1.434 2.007-1.866.423.44 1.98zM31.883 39.853l-.56-3.85-3.503-1.195 17.534-12.35-1.133 3.435 2.449-.289-.53 1.839 1.948.567z" fill="#665a4e" stroke="#191919" stroke-width="1.243"/></svg>