<svg xmlns="http://www.w3.org/2000/svg" xmlns:xlink="http://www.w3.org/1999/xlink" width="420" height="340" viewBox="0 0 111.125 89.958"><defs><pattern xlink:href="#a" id="i" patternTransform="translate(31.846 83.128) scale(.19735)"/><pattern xlink:href="#b" id="a" patternTransform="translate(0 -380) scale(.74587)"/><pattern xlink:href="#c" id="b" patternTransform="translate(31.846 83.128) scale(.19735)"/><pattern xlink:href="#d" id="c" patternTransform="translate(0 -380) scale(.74587)"/><pattern xlink:href="#e" id="d" patternTransform="translate(31.846 83.128) scale(.19735)"/><pattern xlink:href="#f" id="e" patternTransform="translate(-89.163 99.11) scale(.19735)"/><pattern xlink:href="#g" id="f" patternTransform="translate(0 -380) scale(.74587)"/><pattern xlink:href="#h" id="g" patternTransform="translate(31.846 83.128) scale(.19735)"/><pattern patternUnits="userSpaceOnUse" width="320" height="320" patternTransform="translate(42.43 83.128) scale(.26458)" id="h"><path fill="#665a4e" stroke-width="37.795" stroke-miterlimit="10" d="M0 0h320v320H0z"/><path fill-opacity=".354" stroke-width="12.316" stroke-miterlimit="10" d="M80 0h4v320h-4zM0 0h4v320H0z"/><path transform="rotate(90)" fill-opacity=".354" stroke-width="6.002" stroke-miterlimit="10" d="M0-80h4v76H0zm240-80h4v76h-4z"/><path fill-opacity=".354" stroke-width="12.316" stroke-miterlimit="10" d="M160 0h4v320h-4zm80 0h4v320h-4z"/><path transform="rotate(90)" fill-opacity=".354" stroke-width="6.002" stroke-miterlimit="10" d="M80-240h4v76h-4zm80-80h4v76h-4z"/></pattern><clipPath id="j"><path d="M87.867 204.569l-3.576 5.452-.657 6.35-4.87 1.534-6.342 2.7 11.148 2.116 4.234 10.584 3.31-8.467 3.103-2.117 7.711-2.116-7.711-3.022-4.233-2.164zm-56.02-20.9H142.97v73.025H31.846z" fill="url(#i)" stroke-width=".265"/></clipPath></defs><path d="M56.02 20.9l-3.576 5.452-.657 6.35-4.869 1.533-6.342 2.7 11.148 2.117 4.233 10.583 3.31-8.466 3.104-2.117 7.71-2.117-7.71-3.021-4.234-2.164z" fill-opacity=".395"/><path d="M87.867 204.569l-3.576 5.452-.657 6.35-4.87 1.534-6.342 2.7 11.148 2.116 4.234 10.584 3.31-8.467 3.103-2.117 7.711-2.116-7.711-3.022-4.233-2.164zm-56.02-20.9H142.97v73.025H31.846z" clip-path="url(#j)" transform="translate(-31.846 -183.67)" stroke-width="2.117" stroke="#191919" fill="url(#b)"/></svg>