<svg xmlns="http://www.w3.org/2000/svg" xmlns:xlink="http://www.w3.org/1999/xlink" width="400" height="316" viewBox="0 0 105.833 83.608"><defs><pattern xlink:href="#a" id="d" patternTransform="matrix(0 -.27438 .26458 0 156.73 256.38)"/><pattern xlink:href="#b" id="a" patternTransform="matrix(0 -1.03704 1 0 472 190.815)"/><pattern xlink:href="#c" id="b" patternTransform="matrix(0 -.27438 .26458 0 156.73 256.38)"/><pattern patternUnits="userSpaceOnUse" width="120" height="120" patternTransform="translate(156.73 257.753) scale(.26458)" id="c"><path fill="none" stroke-width="3.78" d="M0 0h120v120H0z"/><path fill="none" stroke-width="3.78" d="M0 0h120v120H0z"/><path fill="none" stroke-width="3.78" d="M0 0h120v120H0z"/><path fill="none" stroke-width="3.78" d="M0 0h120v120H0z"/><path fill="none" stroke-width="3.78" d="M0 0h120v120H0z"/><path fill="#864f1c" stroke-width="14.173" stroke-miterlimit="10" d="M0 0h120v120H0z"/><path fill-opacity=".354" stroke-width="7.542" stroke-miterlimit="10" d="M36 0h4v120h-4zm40 0h4v120h-4zm40 0h4v120h-4z"/></pattern><clipPath id="e"><path fill="url(#d)" stroke-width="2.286" d="M48.78 205.894h35.983v59.267H48.78z"/></clipPath></defs><path clip-path="url(#e)" fill="url(#b)" stroke="#191919" stroke-width="2.117" d="M48.78 205.894h35.983v59.267H48.78z" transform="translate(-31.846 -205.894)"/><path fill-opacity=".196" d="M16.934 0h35.983v59.267H16.934z"/><path clip-path="url(#e)" transform="translate(4.137 -205.894)" fill="url(#b)" stroke="#191919" stroke-width="2.117" d="M48.78 205.894h35.983v59.267H48.78z"/></svg>