<svg xmlns="http://www.w3.org/2000/svg" xmlns:xlink="http://www.w3.org/1999/xlink" width="1760" height="800"><defs><pattern xlink:href="#a" id="h" patternTransform="rotate(-45 -160 386.274) scale(.89995)"/><pattern xlink:href="#b" id="j" patternTransform="matrix(.625 0 0 .625 2160 -183)"/><pattern xlink:href="#c" id="f" patternTransform="translate(2248 -159) scale(.53217)"/><pattern xlink:href="#d" id="c" patternTransform="translate(2248 344) scale(.53217)"/><pattern xlink:href="#e" id="d" patternTransform="translate(2248 -159) scale(.53217)"/><pattern patternUnits="userSpaceOnUse" width="128" height="128" patternTransform="translate(2248 -159)" id="e"><path fill="#999" stroke-width="15.118" stroke-miterlimit="10" d="M0 0h128v128H0z"/><path d="M0 0v2.34L125.66 128H128v-2.34L2.34 0z" fill="#191919" stroke-width="1.7"/><path d="M125.66 0L0 125.66V128h2.34L128 2.34V0z" fill="#191919" stroke-width="1.7"/></pattern><clipPath id="i"><path stroke-miterlimit="10" d="M1800-503h200v800h-200z" fill="url(#f)" stroke-width="5.781"/></clipPath><pattern patternUnits="userSpaceOnUse" width="128" height="128" patternTransform="translate(2160 -183)" id="b"><path fill="#999" stroke-width="15.118" stroke-miterlimit="10" d="M0 0h128v128H0z"/><path d="M0 0v2.34L125.66 128H128v-2.34L2.34 0z" fill="#191919" fill-opacity=".457" stroke-width="1.7"/><path d="M125.66 0L0 125.66V128h2.34L128 2.34V0z" fill="#191919" fill-opacity=".451" stroke-width="1.7"/></pattern><pattern xlink:href="#g" id="l" patternTransform="matrix(.625 0 0 .625 2160 -183)"/><pattern patternUnits="userSpaceOnUse" width="128" height="128" patternTransform="translate(2160 -183)" id="g"><path fill="#999" stroke-width="15.118" stroke-miterlimit="10" d="M0 0h128v128H0z"/><path d="M0 0v2.34L125.66 128H128v-2.34L2.34 0z" fill="#191919" fill-opacity=".457" stroke-width="1.7"/><path d="M125.66 0L0 125.66V128h2.34L128 2.34V0z" fill="#191919" fill-opacity=".451" stroke-width="1.7"/></pattern><clipPath id="k"><path stroke-miterlimit="10" d="M1800-503h200v800h-200z" fill="url(#f)" stroke-width="5.781"/></clipPath><pattern patternUnits="userSpaceOnUse" width="176" height="176" patternTransform="translate(-320)" id="a"><path fill="#3e4246" stroke-width="20.787" stroke-miterlimit="10" d="M0 0h176v176H0z"/><g fill="#cebbb4" fill-opacity=".071" stroke-opacity=".49"><path transform="rotate(180 0 -497.26) scale(3.77953)" stroke-width=".723" d="M-20.108-295.942h2.117v14.817h-2.117z"/><path transform="matrix(0 -3.77953 3.77953 0 0 -994.52)" stroke-width=".723" d="M-288.533 0h2.117v14.817h-2.117z"/><path transform="rotate(180 0 -497.26) scale(3.77953)" stroke-width=".723" d="M-8.467-283.242h2.117v14.817h-2.117z"/><path transform="matrix(0 -3.77953 3.77953 0 0 -994.52)" stroke-width=".723" d="M-277.95 11.642h2.117v14.817h-2.117zm-10.583 11.641h2.117V38.1h-2.117z"/><path transform="rotate(180 0 -497.26) scale(3.77953)" stroke-width=".723" d="M-31.75-283.242h2.117v14.817h-2.117z"/><path transform="rotate(180 0 -497.26) scale(3.77953)" stroke-width=".58" d="M-20.108-272.658h2.117v9.525h-2.117z"/><path transform="matrix(0 -3.77953 3.77953 0 0 -994.52)" stroke-width=".723" d="M-265.25 0h2.117v14.817h-2.117zm0 23.283h2.117V38.1h-2.117z"/><path transform="matrix(0 -3.77953 3.77953 0 0 -994.52)" stroke-width=".335" d="M-277.95 0h2.117v3.175h-2.117z"/><path transform="rotate(180 0 -497.26) scale(3.77953)" stroke-width=".58" d="M-43.392-272.658h2.117v9.525h-2.117z"/><path transform="matrix(0 -3.77953 3.77953 0 0 -994.52)" stroke-width=".641" d="M-277.95 34.925h2.117v11.642h-2.117z"/><path transform="rotate(180 0 -497.26) scale(3.77953)" stroke-width=".725" d="M-43.406-295.942h2.131v14.817h-2.131z"/><path stroke-width=".723" d="M29.633 291.708h2.117v14.817h-2.117z" transform="translate(0 -994.52) scale(3.77953)"/><path transform="matrix(0 3.77953 -3.77953 0 0 -994.52)" stroke-width=".641" d="M299.117-46.567h2.117v11.642h-2.117z"/><path stroke-width=".432" d="M41.275 304.408h2.117v5.292h-2.117z" transform="translate(0 -994.52) scale(3.77953)"/><path transform="matrix(0 3.77953 -3.77953 0 0 -994.52)" stroke-width=".723" d="M299.117-26.458h2.117v14.817h-2.117z"/><path stroke-width=".432" d="M17.992 304.408h2.117v5.292h-2.117z" transform="translate(0 -994.52) scale(3.77953)"/><path transform="matrix(0 3.77953 -3.77953 0 0 -994.52)" stroke-width=".335" d="M299.117-3.175h2.117V0h-2.117z"/><path stroke-width=".725" d="M6.35 291.708h2.131v14.817H6.35z" transform="translate(0 -994.52) scale(3.77953)"/></g></pattern><clipPath id="m"><path d="M160 0v256h32V32h1376v224h32V0zm0 544v256h1440V544h-32v224H192V544z" stroke-miterlimit="10" fill="#6b6b6b" stroke-width="15.118"/></clipPath></defs><path d="M160 0h1440v800H160z" fill="url(#h)"/><path clip-path="url(#i)" d="M1800-503h160v800h-160z" transform="translate(-200 503)" fill="url(#j)"/><path transform="translate(-1840 503)" clip-path="url(#k)" d="M1840-503h160v800h-160z" fill="url(#l)"/><path stroke-miterlimit="10" d="M160 0v256h32V32h1376v224h32V0zm0 544v256h1440V544h-32v224H192V544z" clip-path="url(#m)" fill="#6b6b6b" stroke-width="16" stroke="#000"/></svg>