<?xml version="1.0" encoding="UTF-8" standalone="no"?>
<svg
   xmlns:dc="http://purl.org/dc/elements/1.1/"
   xmlns:cc="http://creativecommons.org/ns#"
   xmlns:rdf="http://www.w3.org/1999/02/22-rdf-syntax-ns#"
   xmlns:svg="http://www.w3.org/2000/svg"
   xmlns="http://www.w3.org/2000/svg"
   xmlns:sodipodi="http://sodipodi.sourceforge.net/DTD/sodipodi-0.dtd"
   xmlns:inkscape="http://www.inkscape.org/namespaces/inkscape"
   width="120"
   height="120"
   viewBox="0 0 31.75 31.75"
   version="1.1"
   id="svg4"
   sodipodi:docname="map-stone-res-01b.svg"
   inkscape:version="0.92.2 (5c3e80d, 2017-08-06)">
  <metadata
     id="metadata10">
    <rdf:RDF>
      <cc:Work
         rdf:about="">
        <dc:format>image/svg+xml</dc:format>
        <dc:type
           rdf:resource="http://purl.org/dc/dcmitype/StillImage" />
      </cc:Work>
    </rdf:RDF>
  </metadata>
  <defs
     id="defs8" />
  <sodipodi:namedview
     pagecolor="#ffffff"
     bordercolor="#666666"
     borderopacity="1"
     objecttolerance="10"
     gridtolerance="10"
     guidetolerance="10"
     inkscape:pageopacity="0"
     inkscape:pageshadow="2"
     inkscape:window-width="1920"
     inkscape:window-height="1017"
     id="namedview6"
     showgrid="false"
     inkscape:zoom="1.9666667"
     inkscape:cx="60"
     inkscape:cy="60"
     inkscape:window-x="1912"
     inkscape:window-y="-8"
     inkscape:window-maximized="1"
     inkscape:current-layer="svg4" />
  <path
     d="M18.562.622c2.674.451 5.866 1.648 8.35 4.27 2.482 2.623 4.256 6.67 4.456 10.86.2 4.19-1.176 8.52-3.855 11.316-2.679 2.795-6.661 4.053-10.452 4.253-3.79.2-7.388-.66-9.986-2.087-2.597-1.427-4.193-3.422-5.208-5.532C.852 21.593.419 19.37.368 16.925c-.05-2.445.282-5.112 1.342-7.47C2.77 7.097 4.554 5.05 6.32 3.653 8.083 2.256 9.83 1.509 11.78.988 13.73.467 15.887.17 18.562.622z"
     fill="#2d4a17"
     fill-opacity=".704"
     id="path2"
     style="fill:#ae7522;fill-opacity:0.70588237" />
</svg>
