<?xml version="1.0" encoding="UTF-8" standalone="no"?>
<svg
   xmlns:dc="http://purl.org/dc/elements/1.1/"
   xmlns:cc="http://creativecommons.org/ns#"
   xmlns:rdf="http://www.w3.org/1999/02/22-rdf-syntax-ns#"
   xmlns:svg="http://www.w3.org/2000/svg"
   xmlns="http://www.w3.org/2000/svg"
   xmlns:sodipodi="http://sodipodi.sourceforge.net/DTD/sodipodi-0.dtd"
   xmlns:inkscape="http://www.inkscape.org/namespaces/inkscape"
   width="72"
   height="72"
   viewBox="0 0 19.05 19.05"
   version="1.1"
   id="svg6"
   sodipodi:docname="map-potato-01.svg"
   inkscape:version="0.92.2 (5c3e80d, 2017-08-06)">
  <metadata
     id="metadata12">
    <rdf:RDF>
      <cc:Work
         rdf:about="">
        <dc:format>image/svg+xml</dc:format>
        <dc:type
           rdf:resource="http://purl.org/dc/dcmitype/StillImage" />
        <dc:title></dc:title>
      </cc:Work>
    </rdf:RDF>
  </metadata>
  <defs
     id="defs10" />
  <sodipodi:namedview
     pagecolor="#ffffff"
     bordercolor="#666666"
     borderopacity="1"
     objecttolerance="10"
     gridtolerance="10"
     guidetolerance="10"
     inkscape:pageopacity="0"
     inkscape:pageshadow="2"
     inkscape:window-width="1920"
     inkscape:window-height="1017"
     id="namedview8"
     showgrid="false"
     inkscape:zoom="4.6354778"
     inkscape:cx="35.332584"
     inkscape:cy="52.845613"
     inkscape:window-x="1912"
     inkscape:window-y="-8"
     inkscape:window-maximized="1"
     inkscape:current-layer="svg6" />
  <g
     id="g864"
     transform="matrix(0.97321979,0,0,0.97321979,0.25570107,0.24983962)">
    <path
       sodipodi:nodetypes="cccccscccccc"
       inkscape:connector-curvature="0"
       style="fill:#907155;fill-opacity:1;stroke:#2d2d2d;stroke-width:1.58749998;stroke-miterlimit:4;stroke-dasharray:none"
       id="path2"
       d="m 11.849837,1.1646119 c 2.529672,0.4065544 2.955402,1.5894985 4.392895,3.1077674 1.437493,1.5177545 1.937575,2.3931567 2.052822,4.8189918 0.115761,2.4253199 -0.03772,4.0361899 -1.588918,5.6542699 -2.228274,1.889117 -3.137903,3.186211 -5.332216,3.301972 C 9.1795931,18.162859 6.4328407,18.328614 4.9289777,17.502338 3.4251145,16.676061 2.888113,15.558961 2.300562,14.337555 1.7130109,13.116663 0.75921573,11.701634 0.72988967,10.286263 0.70107805,8.870893 0.89298386,7.3268992 1.5067741,5.9614347 2.1205643,4.5964847 3.2170357,4.050446 4.2393333,3.2416628 5.2611166,2.4328797 6.2071825,1.3613525 7.3364948,1.0598595 9.9394912,0.65063059 11.0819,1.0742663 11.849837,1.1646119 Z" />
    <path
       sodipodi:nodetypes="sssss"
       inkscape:connector-curvature="0"
       id="path832"
       d="M 4.2526021,12.813248 C 3.7732825,12.939273 3.2442944,12.570314 3.1101127,12.120129 2.9759309,11.669945 3.2873673,11.30901 3.7666869,11.182984 c 0.4793197,-0.126025 0.9023676,0.238075 1.0365493,0.68826 0.1341818,0.450184 -0.071314,0.815979 -0.5506341,0.942004 z"
       style="fill:#785b44;fill-opacity:1;stroke:none;stroke-width:0.56011516;stroke-linecap:square;stroke-linejoin:miter;stroke-miterlimit:4;stroke-dasharray:none;stroke-opacity:1;paint-order:fill markers stroke" />
    <path
       style="fill:#785b44;fill-opacity:1;stroke:none;stroke-width:1.13251948;stroke-linecap:square;stroke-linejoin:miter;stroke-miterlimit:4;stroke-dasharray:none;stroke-opacity:1;paint-order:fill markers stroke"
       d="m 16.52926,11.400892 c 0,0.987829 -1.007817,1.788623 -1.970843,1.788623 -0.963025,0 -1.516583,-0.800795 -1.516583,-1.788623 0,-0.98783 0.942923,-1.5889262 1.905949,-1.5889262 0.963026,0 1.581477,0.6010962 1.581477,1.5889262 z"
       id="path835"
       inkscape:connector-curvature="0"
       sodipodi:nodetypes="sssss" />
    <path
       sodipodi:nodetypes="sssss"
       inkscape:connector-curvature="0"
       id="path837"
       d="m 9.1712177,16.145009 c -0.3468715,0.394865 -1.0538255,0.344594 -1.4606604,-0.0093 -0.4068354,-0.35391 -0.3594931,-0.877441 -0.01262,-1.272304 0.3468722,-0.394864 0.9562881,-0.288618 1.363123,0.06529 0.4068357,0.353909 0.4570309,0.821464 0.1101586,1.216328 z"
       style="fill:#785b44;fill-opacity:1;stroke:none;stroke-width:0.61814505;stroke-linecap:square;stroke-linejoin:miter;stroke-miterlimit:4;stroke-dasharray:none;stroke-opacity:1;paint-order:fill markers stroke" />
    <path
       style="fill:#785b44;fill-opacity:1;stroke:none;stroke-width:0.49911004;stroke-linecap:square;stroke-linejoin:miter;stroke-miterlimit:4;stroke-dasharray:none;stroke-opacity:1;paint-order:fill markers stroke"
       d="M 9.7389516,4.433341 C 9.4527535,4.7541286 8.9529064,4.6387735 8.6969718,4.2800533 8.4410373,3.9213333 8.5259335,3.4550874 8.8121316,3.1343 9.0983297,2.8135125 9.5230735,2.9695445 9.7790073,3.3282645 10.034942,3.6869847 10.02515,4.1125533 9.7389516,4.433341 Z"
       id="path839"
       inkscape:connector-curvature="0"
       sodipodi:nodetypes="sssss" />
    <path
       style="fill:#785b44;fill-opacity:1;stroke:none;stroke-width:0.55357468;stroke-linecap:square;stroke-linejoin:miter;stroke-miterlimit:4;stroke-dasharray:none;stroke-opacity:1;paint-order:fill markers stroke"
       d="m 11.192854,11.892205 c 0.05837,0.577521 -0.296435,1.142198 -0.680676,1.234416 -0.384242,0.09222 -0.6524209,-0.322952 -0.7107851,-0.900476 -0.058366,-0.57752 0.2823421,-1.019234 0.6665841,-1.11145 0.384242,-0.09222 0.666516,0.199988 0.72488,0.77751 z"
       id="path841"
       inkscape:connector-curvature="0"
       sodipodi:nodetypes="sssss" />
    <path
       style="fill:#785b44;fill-opacity:1;stroke:none;stroke-width:0.95907384;stroke-linecap:square;stroke-linejoin:miter;stroke-miterlimit:4;stroke-dasharray:none;stroke-opacity:1;paint-order:fill markers stroke"
       d="M 4.3907012,8.0771948 C 3.9398571,7.3450178 4.1741191,6.1418459 4.7472076,5.5593147 5.3202959,4.9767835 6.0151938,5.2354853 6.4660374,5.9676621 6.9168815,6.699839 6.630096,7.7157409 6.0570077,8.2982719 5.4839194,8.8808038 4.8415449,8.8093703 4.3907012,8.0771948 Z"
       id="path843"
       inkscape:connector-curvature="0"
       sodipodi:nodetypes="sssss" />
    <path
       sodipodi:nodetypes="sssss"
       inkscape:connector-curvature="0"
       id="path906"
       d="m 13.635755,7.3113411 c -0.498478,-0.050337 -0.705547,-0.4270136 -0.517277,-0.7479588 0.18827,-0.320945 0.700586,-0.4646218 1.199063,-0.4142857 0.498478,0.050337 0.617462,0.3952107 0.429193,0.7161553 -0.188271,0.3209452 -0.612501,0.4964248 -1.110979,0.4460892 z"
       style="fill:#785b44;fill-opacity:1;stroke:none;stroke-width:0.47799152;stroke-linecap:square;stroke-linejoin:miter;stroke-miterlimit:4;stroke-dasharray:none;stroke-opacity:1;paint-order:fill markers stroke" />
  </g>
</svg>
