<svg xmlns="http://www.w3.org/2000/svg" width="1664" height="864"><defs><clipPath id="a"><path d="M0 432v432h1664V432zm448 64h144v48h32v96h-96v32h-80v-64h-32v-80h32zm896 16h112v80h32v160h-96v-48h-48v-96h-48v-64h48zM128 576h80v32h32v96h-32v64h-64v-32h-32v-80H96v-64h32zm832 32h176v32h64v80h-192v48H864v-32h-96v-64h48v-32h144z" fill="#814e3a" stroke-width="171.668" stroke-miterlimit="10"/></clipPath><clipPath id="b"><path fill="#814e3a" stroke-width="171.668" stroke-miterlimit="10" d="M0-135h1664v432H0z"/></clipPath><clipPath id="c"><path d="M0 0v432h1664V0zm800 80h96v16h32v96h-80v48h-80v-32h-96v-80h80V96h48zm-656 6h48v16h128v48h128v96h-32v96H240v-32H112v-64h64v-48h-32zm1122 18h208v32h48v112h-48v64h-192v-32h-80v-80h-32v-80h96z" fill="#814e3a" stroke-width="80.839" stroke-miterlimit="10"/></clipPath><clipPath id="d"><path fill="#814e3a" stroke-width="171.668" stroke-miterlimit="10" d="M0-135h1664v432H0z"/></clipPath></defs><path d="M0 432v432h1664V432zm448 64h144v48h32v96h-96v32h-80v-64h-32v-80h32zm896 16h112v80h32v160h-96v-48h-48v-96h-48v-64h48zM128 576h80v32h32v96h-32v64h-64v-32h-32v-80H96v-64h32zm832 32h176v32h64v80h-192v48H864v-32h-96v-64h48v-32h144z" clip-path="url(#a)" fill="#814e3a" stroke="#191919" stroke-width="8" stroke-miterlimit="10"/><path d="M96 592v64h16v80h32v32h64v-64h32v-96h-32v-32h-80v16zm320-64v80h32v64h80v-32h96v-96h-32v-48H448v32zm352 144v64h96v32h144v-48h192v-80h-64v-32H960v32H816v32z" fill="#814e3a" fill-opacity=".4"/><path d="M1456 512h-112v32h-48v64h48v96h48v48h96V592h-32z" fill="#814e3a" fill-opacity=".395"/><path clip-path="url(#b)" fill="none" stroke="#191919" stroke-width="15.999" stroke-miterlimit="10" d="M0-135h1664v432H0z" transform="translate(0 567)"/><path d="M0 0v432h1664V0H0zm800 80h96v16h32v96h-80v48h-80v-32h-96v-80h80V96h48V80zm-656 6h48v16h128v48h128v96h-32v96H240v-32H112v-64h64v-48h-32V86zm1122 18h208v32h48v112h-48v64h-192v-32h-80v-80h-32v-80h96v-16z" clip-path="url(#c)" fill="#905741" stroke="#191919" stroke-width="8" stroke-miterlimit="10"/><path d="M1170 120v80h32v80h80v32h192v-64h48V136h-48v-32h-208v16zM144 86v112h32v48h-64v64h128v32h176v-96h32v-96H320v-48H192V86zm528 42v80h96v32h80v-48h80V96h-32V80h-96v16h-48v32z" fill="#814e3a" fill-opacity=".4"/><path transform="translate(0 135)" clip-path="url(#d)" fill="none" stroke="#191919" stroke-width="16" stroke-miterlimit="10" d="M0-135h1664v432H0z"/></svg>