<?xml version="1.0" encoding="UTF-8" standalone="no"?>
<svg
   xmlns:dc="http://purl.org/dc/elements/1.1/"
   xmlns:cc="http://creativecommons.org/ns#"
   xmlns:rdf="http://www.w3.org/1999/02/22-rdf-syntax-ns#"
   xmlns:svg="http://www.w3.org/2000/svg"
   xmlns="http://www.w3.org/2000/svg"
   xmlns:xlink="http://www.w3.org/1999/xlink"
   xmlns:sodipodi="http://sodipodi.sourceforge.net/DTD/sodipodi-0.dtd"
   xmlns:inkscape="http://www.inkscape.org/namespaces/inkscape"
   width="1280"
   height="704"
   viewBox="0 0 338.66648 186.26636"
   version="1.1"
   id="svg61"
   sodipodi:docname="map-bunker-storm-chamber-floor-01a.svg"
   inkscape:version="0.92.2 (5c3e80d, 2017-08-06)">
  <metadata
     id="metadata65">
    <rdf:RDF>
      <cc:Work
         rdf:about="">
        <dc:format>image/svg+xml</dc:format>
        <dc:type
           rdf:resource="http://purl.org/dc/dcmitype/StillImage" />
        <dc:title></dc:title>
      </cc:Work>
    </rdf:RDF>
  </metadata>
  <sodipodi:namedview
     pagecolor="#ffffff"
     bordercolor="#666666"
     borderopacity="1"
     objecttolerance="10"
     gridtolerance="10"
     guidetolerance="10"
     inkscape:pageopacity="0"
     inkscape:pageshadow="2"
     inkscape:window-width="1920"
     inkscape:window-height="1017"
     id="namedview63"
     showgrid="true"
     inkscape:zoom="0.44374932"
     inkscape:cx="394.9047"
     inkscape:cy="475.26662"
     inkscape:window-x="1912"
     inkscape:window-y="-8"
     inkscape:window-maximized="1"
     inkscape:current-layer="svg61"
     fit-margin-top="0"
     fit-margin-left="0"
     fit-margin-right="0"
     fit-margin-bottom="0">
    <inkscape:grid
       type="xygrid"
       id="grid843"
       empspacing="8"
       spacingy="1.0583316"
       spacingx="1.0583327"
       originx="-3.3056656e-006"
       originy="5.6105896e-006" />
  </sodipodi:namedview>
  <defs
     id="defs27">
    <clipPath
       id="f">
      <path
         d="m -45.534,209.35 29.33,16.933 v 33.867 l -29.33,16.933 -29.33,-16.933 v -33.867 z"
         id="path2"
         inkscape:connector-curvature="0"
         style="fill-opacity:0.506;stroke:#ffffff;stroke-width:2.1170001;stroke-opacity:0.50199998" />
    </clipPath>
    <clipPath
       id="e">
      <path
         d="m -22.25,168.075 v -9.525 h -46.568 v 9.525 z"
         clip-path="url(#clipPath6865)"
         id="path5"
         inkscape:connector-curvature="0"
         style="fill:#a3977d;stroke-width:2.08100009" />
    </clipPath>
    <clipPath
       id="d">
      <path
         clip-path="url(#clipPath6865)"
         d="m 402.14,158.55 h 9.526 v -42.334 h -9.525 z"
         id="path8"
         inkscape:connector-curvature="0"
         style="fill:#a3977d;stroke-width:1.98399997" />
    </clipPath>
    <filter
       id="b"
       x="-0.023"
       width="1.0470001"
       y="-0.025"
       height="1.049"
       style="color-interpolation-filters:sRGB">
      <feGaussianBlur
         stdDeviation="1.651"
         id="feGaussianBlur11" />
    </filter>
    <pattern
       xlink:href="#a"
       id="c"
       patternTransform="matrix(0.06615,0,0,0.06615,139.7,-6.9856567e-4)" />
    <pattern
       patternUnits="userSpaceOnUse"
       width="128"
       height="128"
       patternTransform="matrix(.26458 0 0 .26458 0 -38.1)"
       id="a">
      <path
         fill="none"
         stroke-width="3.78"
         d="M0 0h128v128H0z"
         id="path15" />
      <path
         fill="none"
         stroke-width="3.78"
         d="M0 0h128v128H0z"
         id="path17" />
      <path
         d="M0 0h128v128H0z"
         fill="#2e2d2a"
         stroke-width="15.118"
         stroke-miterlimit="10"
         id="path19" />
      <path
         d="M60 128V68H0v-8h60V0h8v60h60v8H68v60z"
         fill="#6f6f6f"
         fill-opacity=".303"
         stroke-width="1.414"
         id="path21" />
    </pattern>
    <clipPath
       id="g">
      <path
         d="M 59.267,-0.001 V 59.266 H 0 V 220.133 H 313.267 V 76.199 H 169.334 V 59.266 H 110.067 V 0 H 101.6 v 67.734 h 59.267 v 50.8 h 42.334 V 84.666 h 101.6 v 127 H 203.2 V 152.4 h -42.334 v 59.208 l -152.4,0.06 V 67.732 H 67.732 V 0 Z"
         id="path24"
         inkscape:connector-curvature="0"
         style="fill:#1b1e25;stroke-width:2.22600007" />
    </clipPath>
  </defs>
  <path
     transform="matrix(1.0838,0,0,1.0838,113.466,-210.4917)"
     d="m -99.81,199.354 168.935,0.721 v 16.6 H 201.93 v 143.546 l -301.74,-0.72 z"
     id="path29"
     inkscape:connector-curvature="0"
     style="fill:#130902;fill-opacity:0.944;filter:url(#b)" />
  <path
     d="M 198.967,29.632301 V 173.5663 h 127 V 29.632301 Z"
     id="path31"
     inkscape:connector-curvature="0"
     style="fill:url(#c)" />
  <path
     d="M 12.699997,12.699301 H 182.034 v 50.799996 h 16.933 V 173.5663 H 12.700997 Z"
     id="path33"
     inkscape:connector-curvature="0"
     style="fill:#302e28" />
  <path
     clip-path="url(#d)"
     d="m 402.14,158.55 h 9.526 v -42.334 h -9.525 z"
     transform="matrix(0,-1,1.1,0,-53.755003,373.5653)"
     id="path35"
     inkscape:connector-curvature="0"
     style="fill:#646464" />
  <path
     transform="translate(142.901,-188.1837)"
     clip-path="url(#e)"
     d="m -22.25,168.075 v -9.525 h -46.568 v 9.525 z"
     id="path37"
     inkscape:connector-curvature="0"
     style="fill:#5a5a5a;stroke:#000000;stroke-width:2.1170001;stroke-opacity:0.706" />
  <path
     d="m -22.25,168.075 v -9.525 h -46.568 v 9.525 z"
     clip-path="url(#e)"
     transform="translate(142.901,-179.7167)"
     id="path39"
     inkscape:connector-curvature="0"
     style="fill:#505050;stroke:#000000;stroke-width:2.1170001;stroke-opacity:0.706" />
  <path
     transform="translate(142.901,-171.2497)"
     clip-path="url(#e)"
     d="m -22.25,168.075 v -9.525 h -46.568 v 9.525 z"
     id="path41"
     inkscape:connector-curvature="0"
     style="fill:#464646;stroke:#000000;stroke-width:2.1170001;stroke-opacity:0.706" />
  <path
     d="m -22.25,168.075 v -9.525 h -46.568 v 9.525 z"
     clip-path="url(#e)"
     transform="translate(142.901,-162.7837)"
     id="path43"
     inkscape:connector-curvature="0"
     style="fill:#3c3c3c;stroke:#000000;stroke-width:2.1170001;stroke-opacity:0.706" />
  <path
     transform="matrix(-0.91414178,-0.52778,0.52778,-0.91414178,-72.622775,290.58509)"
     d="m -45.534,209.35 29.33,16.933 v 33.867 l -29.33,16.933 -29.33,-16.933 v -33.867 z"
     clip-path="url(#f)"
     id="path45"
     inkscape:connector-curvature="0"
     style="fill-opacity:0.11799999;stroke:#ffffff;stroke-width:4.01100016;stroke-opacity:0.15700001" />
  <path
     d="m 67.043997,91.686297 16.106,0.686 a 14.227,14.227 0 0 1 -0.01,-0.289 14.227,14.227 0 0 1 7.372,-12.45 l -8.65,-13.61 z m 45.827003,-25.664 -8.647,13.605 a 14.227,14.227 0 0 1 0.255,0.136 14.227,14.227 0 0 1 7.095,12.61 l 16.114,-0.687 z m -0.688,52.520003 -7.459,-14.292 a 14.227,14.227 0 0 1 -0.245,0.154 14.227,14.227 0 0 1 -14.468003,-0.16 l -7.461,14.298 z"
     id="path47"
     inkscape:connector-curvature="0"
     style="fill:#ffffff;fill-opacity:0.15700001" />
  <path
     d="m 52.116997,160.0183 c -2.577,1.756 -5.343,1.007 -6.942,-0.89 -1.632,-2.12 -2.732,-5.936 3.639,-9.64 3.81,-1.473 4.6,-0.622 6.22,2.843 0.978,2.549 -0.596,5.337 -2.917,7.687 z"
     id="path49"
     inkscape:connector-curvature="0"
     style="fill:#0c0c0c;fill-opacity:0.328" />
  <path
     transform="translate(142.901,-154.3167)"
     clip-path="url(#e)"
     d="m -22.25,168.075 v -9.525 h -46.568 v 9.525 z"
     id="path51"
     inkscape:connector-curvature="0"
     style="fill:#323232;stroke:#000000;stroke-width:2.1170001;stroke-opacity:0.706" />
  <path
     d="M 190.5,105.8323 V 71.966297 h 8.467 V 105.8323 Z"
     id="path53"
     inkscape:connector-curvature="0"
     style="fill:#555555" />
  <path
     d="m 188.384,88.899297 -6.35,-6.35 v 12.7 z m 19.05,-6.35 -6.35,6.35 6.35,6.35 z"
     id="path55"
     inkscape:connector-curvature="0"
     style="fill:none;stroke:#000000;stroke-width:1.58700001;stroke-linecap:square;stroke-opacity:0.50199998" />
  <path
     d="m 97.506997,104.4643 c 6.828003,0 12.363003,-5.535003 12.363003,-12.363003 0,-6.827 -5.535,-12.362 -12.363003,-12.362 -6.827,0 -12.362,5.535 -12.362,12.362 0,6.828 5.535,12.363003 12.362,12.363003 z m -2.418,-2.886 c -2.834,0 -5.13,-1.422 -5.13,-4.255003 0,-0.414 0.062,-0.808 0.153,-1.195 -1.029,-0.436 -1.726,-1.353 -1.726,-2.378 0,-2.116 2.41,-2.807 5.42,-2.832 H 101.5 c 3.11,0.1 5.129,0.916 5.129,3.032 0,1.416 -1.246,2.389 -2.575,2.512 -0.06,1.717 -1.462,2.734 -3.196,2.734 -0.432,0 -0.844,-0.088 -1.220003,-0.244 -0.848,1.658003 -2.556,2.626003 -4.549,2.626003 z m 3.616,-11.138003 h -3.001 l 0.783,-1.487 h -3.42 l 7.252003,-7.084 -2.672003,4.921 H 100.649 Z"
     id="path57"
     inkscape:connector-curvature="0"
     style="fill:#ffffff;fill-opacity:0.15700001" />
  <path
     d="M 59.267,-0.001 V 59.266 H 0 V 220.133 H 313.267 V 76.199 H 169.334 V 59.266 H 110.067 V 0 H 101.6 v 67.734 h 59.267 v 50.8 h 42.334 V 84.666 h 101.6 v 127 H 203.2 V 152.4 h -42.334 v 59.208 l -152.4,0.06 V 67.732 H 67.732 V 0 Z"
     clip-path="url(#g)"
     transform="translate(12.699997,-46.566699)"
     id="path59"
     inkscape:connector-curvature="0"
     style="fill:#1b1e25;stroke:#000000;stroke-width:3.17499995;stroke-opacity:0.706" />
</svg>
