<?xml version="1.0" encoding="UTF-8" standalone="no"?>
<svg
   xmlns:dc="http://purl.org/dc/elements/1.1/"
   xmlns:cc="http://creativecommons.org/ns#"
   xmlns:rdf="http://www.w3.org/1999/02/22-rdf-syntax-ns#"
   xmlns:svg="http://www.w3.org/2000/svg"
   xmlns="http://www.w3.org/2000/svg"
   xmlns:sodipodi="http://sodipodi.sourceforge.net/DTD/sodipodi-0.dtd"
   xmlns:inkscape="http://www.inkscape.org/namespaces/inkscape"
   width="144"
   height="144"
   viewBox="0 0 38.1 38.1"
   version="1.1"
   id="svg4"
   sodipodi:docname="map-bush-res-06.svg"
   inkscape:version="0.92.2 (5c3e80d, 2017-08-06)">
  <metadata
     id="metadata10">
    <rdf:RDF>
      <cc:Work
         rdf:about="">
        <dc:format>image/svg+xml</dc:format>
        <dc:type
           rdf:resource="http://purl.org/dc/dcmitype/StillImage" />
      </cc:Work>
    </rdf:RDF>
  </metadata>
  <defs
     id="defs8" />
  <sodipodi:namedview
     pagecolor="#ffffff"
     bordercolor="#666666"
     borderopacity="1"
     objecttolerance="10"
     gridtolerance="10"
     guidetolerance="10"
     inkscape:pageopacity="0"
     inkscape:pageshadow="2"
     inkscape:window-width="1920"
     inkscape:window-height="1017"
     id="namedview6"
     showgrid="false"
     inkscape:zoom="6.5555555"
     inkscape:cx="76.513228"
     inkscape:cy="80.27452"
     inkscape:window-x="1912"
     inkscape:window-y="-8"
     inkscape:window-maximized="1"
     inkscape:current-layer="svg4" />
  <path
     d="m -23.155237,14.260542 a 2.418,2.418 0 0 1 1.032,-0.564 c 0.623,-0.17 1.32,-0.159 2.032,-0.102 1.423,0.115 2.92,0.4 3.85,0.067 0.873,-0.312 1.39,-0.813 1.646,-1.37 0.11,-0.238 0.17,-0.49 0.186,-0.745 -1.785,-0.608 -4.063,-0.478 -5.602,0.523 1.322,-1.326 3.32,-1.952 5.413,-1.548 l 0.097,0.241 a 2.466,2.466 0 0 0 -0.078,-0.222 c -0.463,-1.1459996 -1.817,-2.0829996 -3.802,-1.6929996 -0.912,0.18 -2.198,0.794 -3.195,1.8229996 -0.862,0.89 -1.514,2.08 -1.58,3.59 z m 10.03,-1.281 a 2.177,2.177 0 0 1 -0.29,0.93 c -0.283,0.497 -0.725,0.925 -1.203,1.332 -0.956,0.813 -2.058,1.567 -2.421,2.337 -0.345,0.729 -0.354,1.35 -0.17,1.845 0.08,0.215 0.198,0.408 0.346,0.575 1.473,-0.735 2.79,-2.219 3.121,-3.785 0.002,1.635 -0.84,3.254 -2.375,4.302 0.981,0.4 2.366,0.138 3.337,-1.31 0.45,-0.67 0.866,-1.845 0.845,-3.094 -0.017,-1.061 -0.336,-2.173 -1.19,-3.132 z m -11.651,2.014 c -0.26,1.258 0.02,2.381 0.535,3.309 0.607,1.092 1.554,1.902 2.28,2.258 1.564,0.767 2.893,0.3 3.544,-0.536 -1.854,-0.14 -3.392,-1.12 -4.208,-2.538 1.07,1.19 2.952,1.818 4.595,1.717 0.045,-0.218 0.051,-0.444 0.013,-0.67 -0.088,-0.52 -0.408,-1.055 -1.07,-1.514 -0.7,-0.485 -2.03,-0.586 -3.265,-0.812 -0.618,-0.114 -1.214,-0.263 -1.708,-0.552 a 2.178,2.178 0 0 1 -0.716,-0.662 z"
     id="path2"
     inkscape:connector-curvature="0"
     style="fill:#28a200;stroke:#191919;stroke-width:0.403" />
  <g
     id="g869"
     transform="matrix(0.87582997,0,0,0.87582997,2.3654468,2.365438)">
    <path
       style="fill:#ff9f00;fill-opacity:0.78431373;stroke-width:0.01342162"
       inkscape:connector-curvature="0"
       id="path1357"
       d="m 13.056615,13.003017 c -0.04059,0.03467 -0.06577,0.08407 -0.06996,0.137282 -0.0028,0.03617 -0.0681,0.898352 0.06411,2.004669 0.0779,0.652035 0.208893,1.252815 0.389252,1.785584 0.228113,0.673889 0.53679,1.241464 0.917381,1.687005 0.46111,0.539801 1.1048,0.867715 1.812495,0.923353 0.707694,0.05564 1.39472,-0.167655 1.934469,-0.628769 0.539745,-0.461063 0.867658,-1.104753 0.923297,-1.812447 C 19.083299,16.392 18.86,15.705026 18.398946,15.165176 c -0.380595,-0.445487 -0.893012,-0.839073 -1.522973,-1.169694 -0.498035,-0.261453 -1.070914,-0.484666 -1.70276,-0.663556 -1.072067,-0.303428 -1.933909,-0.373709 -1.970077,-0.376553 -0.05326,-0.0042 -0.105933,0.01292 -0.146528,0.04764 z m 0,0" />
    <path
       style="fill:#dd3400;stroke-width:0.01342162"
       inkscape:connector-curvature="0"
       id="path1359"
       d="m 15.977739,13.875797 -0.160994,2.048449 -1.075696,-1.259325 c -0.07224,-0.08451 -0.199354,-0.09451 -0.283862,-0.02232 -0.08451,0.07224 -0.0945,0.199301 -0.02232,0.283861 l 1.075703,1.259221 -2.048445,-0.161047 c -0.110807,-0.0087 -0.207773,0.07412 -0.216485,0.184925 -0.0087,0.110859 0.07412,0.207774 0.184926,0.216485 l 2.449856,0.192606 0.826671,0.967804 -2.773339,-0.217996 c -0.110858,-0.0087 -0.207773,0.07412 -0.216484,0.184926 -0.0087,0.110859 0.07407,0.207769 0.184926,0.216485 l 3.174703,0.249472 0.742469,0.86912 c 0.07224,0.08456 0.199298,0.09455 0.283862,0.02232 0.04223,-0.03607 0.06587,-0.08596 0.06991,-0.137286 0.004,-0.05138 -0.01152,-0.104298 -0.04765,-0.146528 l -0.742369,-0.869059 0.249601,-3.174798 c 0.0087,-0.110858 -0.07407,-0.207769 -0.184926,-0.216485 -0.110858,-0.0087 -0.207769,0.07407 -0.216484,0.184926 l -0.218042,2.773388 -0.826676,-0.967753 0.192552,-2.449859 c 0.0087,-0.110858 -0.07407,-0.207769 -0.184926,-0.216484 -0.110805,-0.0087 -0.207768,0.07407 -0.216484,0.184926 z"
       sodipodi:nodetypes="ccccccccccccccccccccssscccscc" />
    <path
       d="m 11.760272,25.301399 c 0.02509,0.04709 0.0679,0.08236 0.118961,0.09793 0.03471,0.0106 0.862508,0.260297 1.9713,0.369856 0.653486,0.0646 1.268378,0.06629 1.827512,0.0051 0.70723,-0.07737 1.328032,-0.256332 1.845186,-0.531847 0.626562,-0.333809 1.085615,-0.891603 1.292613,-1.570627 0.206994,-0.679033 0.137168,-1.398053 -0.19665,-2.024562 -0.333771,-0.626504 -0.891564,-1.085552 -1.570592,-1.292549 -0.679028,-0.206996 -1.397999,-0.137158 -2.024597,0.196584 -0.517101,0.275531 -1.011962,0.690974 -1.470697,1.234779 -0.362736,0.429907 -0.704278,0.941145 -1.015264,1.519517 -0.527554,0.981371 -0.782104,1.807756 -0.792682,1.842461 -0.01558,0.05111 -0.01024,0.106228 0.01491,0.153354 z m 0,0"
       id="path1363"
       inkscape:connector-curvature="0"
       style="fill:#ff7400;fill-opacity:0.78431373;stroke-width:0.01342163" />
    <path
       sodipodi:nodetypes="ccccccccccccccccccccssscccscc"
       d="m 13.242666,22.637341 1.965487,0.599106 -1.46173,0.778697 c -0.09811,0.05231 -0.135286,0.174273 -0.08303,0.272367 0.05231,0.0981 0.174221,0.135267 0.272363,0.08303 l 1.461628,-0.778729 -0.599159,1.96547 c -0.03241,0.106321 0.02755,0.218869 0.133871,0.251281 0.106363,0.03242 0.21887,-0.02755 0.25128,-0.13387 l 0.716568,-2.350621 1.123351,-0.598426 -0.811145,2.661009 c -0.03242,0.106364 0.02755,0.21887 0.133871,0.251281 0.10637,0.03242 0.218854,-0.02751 0.25128,-0.133871 l 0.928463,-3.046135 1.008827,-0.537492 c 0.09816,-0.05229 0.135319,-0.17421 0.08303,-0.272367 -0.02611,-0.04901 -0.06973,-0.08286 -0.118968,-0.09787 -0.04929,-0.01502 -0.10433,-0.01125 -0.153358,0.01492 l -1.008746,0.537406 -3.046198,-0.928606 c -0.106362,-0.03242 -0.218857,0.0275 -0.25128,0.13387 -0.03243,0.106366 0.02751,0.218851 0.133871,0.251281 l 2.661046,0.811196 -1.1233,0.598441 -2.350635,-0.716511 c -0.106374,-0.03242 -0.218857,0.0275 -0.251281,0.133871 -0.03242,0.106313 0.0275,0.21885 0.133869,0.251275 z"
       id="path1365"
       inkscape:connector-curvature="0"
       style="fill:#dd3400;stroke-width:0.01342163" />
    <path
       inkscape:transform-center-y="-3.7131356"
       inkscape:transform-center-x="-24.781144"
       style="fill:#778320;fill-opacity:0.78431373;stroke-width:0.01342163"
       inkscape:connector-curvature="0"
       id="path1369"
       d="m 26.287646,26.0654 c 0.03986,-0.03547 0.06405,-0.08539 0.06715,-0.138671 0.0021,-0.03624 0.04988,-0.899547 -0.10474,-2.002958 -0.0911,-0.650322 -0.23425,-1.24832 -0.425372,-1.777325 -0.241729,-0.669126 -0.561845,-1.230328 -0.951391,-1.668062 -0.471959,-0.530343 -1.122164,-0.84514 -1.83084,-0.88642 -0.708678,-0.04128 -1.391036,0.195895 -1.921326,0.667858 -0.530286,0.471909 -0.845083,1.122116 -0.886364,1.830791 -0.04128,0.708678 0.195894,1.390985 0.667801,1.921376 0.389549,0.437681 0.909838,0.820796 1.546372,1.13858 0.503234,0.251301 1.080521,0.462855 1.715864,0.628899 1.077997,0.281633 1.941084,0.33443 1.977305,0.336538 0.05334,0.0031 0.105652,-0.01506 0.145534,-0.05061 z m 0,0" />
    <path
       inkscape:transform-center-y="-3.745967"
       inkscape:transform-center-x="-25.094968"
       style="fill:#3d6400;fill-opacity:1;stroke-width:0.01342163"
       inkscape:connector-curvature="0"
       id="path1371"
       d="m 23.349429,25.25202 0.119433,-2.051293 1.101003,1.237261 c 0.07394,0.08303 0.201229,0.09044 0.284259,0.01656 0.08303,-0.07394 0.09044,-0.201174 0.01656,-0.284254 l -1.101011,-1.237155 2.05129,0.119488 c 0.110962,0.0065 0.206231,-0.07832 0.21269,-0.189277 0.0065,-0.111007 -0.07831,-0.206229 -0.189276,-0.212691 l -2.453257,-0.142901 -0.846121,-0.950848 2.777188,0.16173 c 0.111007,0.0065 0.206232,-0.07832 0.212691,-0.189277 0.0065,-0.111013 -0.07826,-0.206222 -0.189276,-0.212691 L 22.16649,21.131603 21.406554,20.277717 c -0.07394,-0.08308 -0.201177,-0.09049 -0.284258,-0.01656 -0.04149,0.03692 -0.06412,0.08728 -0.06711,0.138671 -0.003,0.05143 0.01363,0.104046 0.05061,0.145534 l 0.75983,0.853832 -0.185184,3.179205 c -0.0065,0.111007 0.07826,0.206222 0.189276,0.21269 0.111007,0.0065 0.206224,-0.07827 0.212691,-0.189276 l 0.16177,-2.777237 0.846125,0.950796 -0.142843,2.453256 c -0.0065,0.111012 0.07826,0.206227 0.189276,0.212691 0.110957,0.0065 0.20622,-0.07826 0.212692,-0.189277 z"
       sodipodi:nodetypes="ccccccccccccccccccccssscccscc" />
    <path
       d="m 24.914351,12.011016 c -0.04611,-0.02685 -0.101078,-0.03433 -0.152685,-0.0207 -0.0351,0.0092 -0.870447,0.232369 -1.871048,0.722493 -0.589734,0.288842 -1.113553,0.610879 -1.556881,0.95705 -0.560759,0.437846 -0.994567,0.916631 -1.289437,1.422998 -0.357254,0.613495 -0.454217,1.329362 -0.273038,2.015732 0.181175,0.686369 0.618812,1.26112 1.232294,1.618325 0.613432,0.357215 1.329294,0.454174 2.015663,0.272998 0.686368,-0.181176 1.261074,-0.618795 1.618388,-1.232255 0.294819,-0.506354 0.497118,-1.119995 0.601169,-1.823794 0.08233,-0.556435 0.103847,-1.170886 0.06406,-1.826361 -0.06761,-1.112128 -0.285866,-1.948831 -0.295126,-1.983912 -0.01364,-0.05166 -0.04717,-0.09573 -0.09335,-0.122576 z m 0,0"
       id="path1375"
       inkscape:connector-curvature="0"
       style="fill:#ff4e01;fill-opacity:0.78431373;stroke-width:0.01342163" />
    <path
       sodipodi:nodetypes="ccccccccccccccccccccssscccscc"
       d="m 25.055137,15.056488 -1.986705,0.524471 0.833467,-1.431208 c 0.05592,-0.0961 0.02337,-0.219379 -0.07267,-0.275308 -0.0961,-0.05592 -0.21933,-0.02339 -0.275311,0.07267 l -0.833367,1.431179 -0.524419,-1.986719 c -0.02837,-0.107469 -0.138569,-0.171642 -0.24604,-0.143275 -0.107512,0.02838 -0.171643,0.138571 -0.143276,0.24604 L 22.434,15.870372 21.793466,16.970254 21.08343,14.280501 c -0.02838,-0.107513 -0.138571,-0.171644 -0.246039,-0.143275 -0.107513,0.02838 -0.171654,0.138524 -0.143276,0.24604 l 0.812866,3.078998 -0.575193,0.987818 c -0.05596,0.09611 -0.02344,0.219342 0.07268,0.275309 0.04799,0.02795 0.102886,0.03379 0.152672,0.02064 0.04982,-0.01316 0.09465,-0.04531 0.122576,-0.09336 l 0.575166,-0.987704 3.079128,-0.812777 c 0.107519,-0.02838 0.171659,-0.138519 0.143274,-0.24604 -0.02838,-0.107512 -0.13852,-0.171651 -0.24604,-0.143276 l -2.689812,0.710013 0.640484,-1.099871 2.376018,-0.627235 c 0.107517,-0.02838 0.171653,-0.138524 0.143276,-0.24604 -0.02837,-0.10747 -0.138526,-0.171654 -0.24604,-0.143276 z"
       id="path1377"
       inkscape:connector-curvature="0"
       style="fill:#a72700;fill-opacity:1;stroke-width:0.01342163" />
  </g>
</svg>
