<svg xmlns="http://www.w3.org/2000/svg" width="404" height="316" viewBox="0 0 106.892 83.608"><defs><clipPath id="b"><path d="M355.602 21.166v330.201H461.43v-330.2zm4.233 4.234H457.2v321.734h-97.365z" fill="#b1a48e" stroke-width="2.398"/></clipPath><clipPath id="a"><path fill="#b1a48e" stroke-width="2.309" d="M4.233 128.411H215.9v4.233H4.233z"/></clipPath></defs><path d="M51.33 15.684L38.872 27.517h2.93l9.526-9.049zm0-6.265L32.278 27.517h5.129L51.329 14.29zM14.287-26.458L.53-12.7v3.175l16.933-16.933zm-6.879 0L.53-19.58v5.292l12.17-12.171zM106.362 15.684L93.906 27.517h2.931l9.526-9.049zm0-6.265l-19.05 18.098h5.13l13.92-13.226zM69.32-26.458L55.563-12.7v3.175l16.934-16.933zm-6.878 0l-6.88 6.879v5.292l12.171-12.171zM106.362-40.143L93.906-28.31h2.931l9.525-9.05zm0-6.265L87.313-28.31h5.13l13.92-13.226zM69.32-82.02L55.563-68.263v3.175l16.934-16.934zm-6.878 0l-6.88 6.878v5.292l12.171-12.17zM51.33 71.246L38.872 83.08h2.93l9.526-9.049zm0-6.264L32.278 83.079h5.129l13.921-13.225zM14.287 29.369L.53 43.127v3.175L17.462 29.37zm-6.879 0L.53 36.248v5.292l12.17-12.171zM106.362 71.246L93.906 83.08h2.931l9.525-9.049zm0-6.264l-19.05 18.097h5.13l13.92-13.225zM69.32 29.369L55.563 43.127v3.175L72.496 29.37zm-6.878 0l-6.88 6.879v5.292l12.171-12.171zM51.33-40.143L38.872-28.31h2.93l9.526-9.05zm0-6.265L32.278-28.31h5.129l13.921-13.226zM14.287-82.02L.53-68.263v3.175l16.933-16.934zm-6.879 0L.53-75.143v5.292l12.17-12.17z" fill="#ededed" fill-opacity=".396"/><path d="M.529-82.02h105.833v165.1H.53z" fill="#86f4ff" fill-opacity=".396"/><path clip-path="url(#a)" transform="matrix(.5 0 0 .5 -1.588 -92.604)" fill="#b1a48e" stroke="#000" stroke-width="2.117" d="M4.233 128.411H215.9v4.233H4.233z"/><path clip-path="url(#a)" transform="matrix(.5 0 0 .5 -1.588 -36.865)" fill="#b1a48e" stroke="#000" stroke-width="2.117" d="M4.233 128.411H215.9v4.233H4.233z"/><path d="M355.602 21.166v330.201H461.43v-330.2zm4.233 4.234H457.2v321.734h-97.365z" clip-path="url(#b)" transform="matrix(.5 0 0 .5 -177.272 -92.604)" fill="#b1a48e" stroke="#000" stroke-width="2.117"/><path transform="matrix(.5 0 0 .5 -124.355 -92.604)" clip-path="url(#b)" d="M355.602 21.166v330.201H461.43v-330.2zm4.233 4.234H457.2v321.734h-97.365z" fill="#b1a48e" stroke="#000" stroke-width="2.117"/></svg>