<svg xmlns="http://www.w3.org/2000/svg" xmlns:xlink="http://www.w3.org/1999/xlink" width="640" height="896" viewBox="0 0 169.333 237.067"><defs><pattern xlink:href="#a" id="c" patternTransform="translate(-79.4 450.65) scale(.06615)"/><pattern xlink:href="#b" id="a" patternTransform="translate(-159.834 378.683) scale(.06615)"/><clipPath id="f"><path d="M39.132 200.883L22.2 217.816h-135.467l-16.933-16.933z" fill="#3f3c34" stroke-width="2.117" stroke-opacity=".706"/></clipPath><clipPath id="e"><path d="M-130.2 200.883l16.932 16.933v127L-130.2 361.75z" fill="#3f3c34" stroke-width="2.117" stroke-opacity=".706"/></clipPath><pattern patternUnits="userSpaceOnUse" width="32" height="32" patternTransform="translate(-159.834 378.683) scale(.26458)" id="b"><path fill="none" stroke-width="3.78" d="M0 0h32v32H0z"/><path fill="none" stroke-width="4" d="M0 0h32v32H0z"/><path d="M16 0v32M0 16h32" fill="none" stroke="#000" stroke-width="4"/></pattern><clipPath id="d"><path d="M64 352v480h512V352zm96 64a32 32 0 0 1 32 32 32 32 0 0 1-32 32 32 32 0 0 1-32-32 32 32 0 0 1 32-32zm304 256a48 48 0 0 1 48 48 48 48 0 0 1-48 48 48 48 0 0 1-48-48 48 48 0 0 1 48-48z" fill="#3f3c34" stroke-width="6.358" stroke-opacity=".706"/></clipPath></defs><path fill="url(#c)" d="M-20.134 302.483h25.4v25.4h-25.4z" transform="translate(130.2 -124.683)"/><path fill="url(#a)" d="M-100.568 230.516h25.4v25.4h-25.4z" transform="translate(130.2 -124.683)"/><path clip-path="url(#d)" d="M64 352v480h512V352zm96 64a32 32 0 0 1 32 32 32 32 0 0 1-32 32 32 32 0 0 1-32-32 32 32 0 0 1 32-32zm304 256a48 48 0 0 1 48 48 48 48 0 0 1-48 48 48 48 0 0 1-48-48 48 48 0 0 1 48-48z" transform="scale(.26458)" fill="#565656" stroke="#191919" stroke-width="8"/><path transform="translate(130.2 -124.683)" clip-path="url(#e)" d="M-130.2 200.883l16.932 16.933v127L-130.2 361.75z" fill="#3a3a3a" stroke="#191919" stroke-width="2.117"/><path transform="translate(130.2 -124.683)" clip-path="url(#f)" d="M39.132 200.883L22.2 217.816h-135.467l-16.933-16.933z" fill="#3a3a3a" stroke="#191919" stroke-width="2.117"/><path transform="rotate(180 19.566 218.975)" d="M-130.2 200.883l16.932 16.933v127L-130.2 361.75z" clip-path="url(#e)" fill="#3a3a3a" stroke="#191919" stroke-width="2.117"/><path transform="rotate(-180 19.566 218.975)" d="M39.132 200.883L22.2 217.816h-135.467l-16.933-16.933z" clip-path="url(#f)" fill="#3a3a3a" stroke="#191919" stroke-width="2.117"/></svg>