<svg xmlns="http://www.w3.org/2000/svg" width="1296.001" height="2048" viewBox="0 0 342.9 541.867"><path d="M0 80.433h59.267V0H254v334.434h88.9v207.433H0z" fill="#373737"/><path d="M4.234 423.338V508h33.87v-84.663zm.004 4.23h29.631v76.2H4.238zm0-313.265v4.23h55.029v80.433H4.237v4.234h59.265v-88.897z" fill="#504b40" fill-opacity=".718"/><path d="M342.9 541.867H0v-4.234H338.68l-.015-198.966h-88.9l.001-334.433H63.5v80.433H4.233l.002 452.967H0L0 80.434l59.266-.001V0H254v334.434h88.9z" fill="#504b40" fill-opacity=".718"/><path d="M320.383 512.428c-1.273 1.86-3.332 2.086-4.91 1.232-1.66-.995-3.408-3.27-.094-7.442 2.178-1.994 2.935-1.63 4.941.27 1.331 1.458 1.006 3.747.063 5.94zm2.482-144.925c.732 3.571-1.918 6.245-5.365 7.148-3.755.838-9.404.353-10.389-8.193.381-4.784 1.97-5.268 7.477-5.502 3.92.06 6.61 2.995 8.277 6.547zm-102.452 5.03c-.968 1.05-2.476 1.215-3.61.78-1.191-.513-2.42-1.726.085-4.087 1.63-1.138 2.175-.954 3.6.05.942.771.658 2.036-.075 3.258zm-63.99-104.476c-.508 3.993-4.926 3.317-7.287 1.918-3.81-2.76-11.13-11.398-1.21-10.967 5.864.432 7.742-3.399 10.752-.3 2.001 2.368-1.808 4.727-2.255 9.349zm-33.551 122.785c-5.839.81-6.135-3.064-4.812-5.453 2.847-4.014 13.076-12.751 15.29-4.388 1.056 4.998 7.054 5.372 3.494 8.826-2.807 2.39-7.256-.041-13.972 1.015zM44.994 519.736c-.291-3.633 2.666-5.964 6.196-6.438 3.831-.374 9.379.797 9.311 9.4-.962 4.701-2.598 4.988-8.092 4.548-3.886-.538-6.195-3.78-7.415-7.51zm220.42-170.292c-.093-2.316.97-3.81 2.229-4.123 1.367-.253 3.34.478 3.29 5.967-.355 3.003-.94 3.19-2.898 2.926-1.383-.332-2.198-2.393-2.62-4.77zm-60.95 166.486c.992-3.9 5.295-2.69 7.466-1.013 3.447 3.204 9.655 12.672-.138 11.033-5.767-1.146-8.098 2.426-10.708-1.016-1.697-2.595 2.372-4.47 3.38-9.004zM28.976 345.843c1.455 1.72 1.128 3.766-.113 5.061-1.4 1.336-4.057 2.418-7.202-1.883-1.346-2.629-.795-3.26 1.572-4.692 1.757-.897 3.878.023 5.743 1.514zM64.54 446.818c1.259 1.487.977 3.253-.097 4.373-1.212 1.152-3.51 2.085-6.23-1.63-1.164-2.271-.687-2.817 1.359-4.05 1.519-.775 3.356.018 4.968 1.307zM52.248 382.11c3.716 1.55 1.837 5.915-.082 7.534-2.812 2.372-13.942 7.71-10.896-1.74 1.972-5.538-1.224-8.364 2.561-10.446 2.814-1.3 4.079 2.997 8.418 4.652zM14.03 113.48c2.05-1.121 4.06-.36 5.117 1.17 1.065 1.7 1.61 4.624-3.414 6.92-2.95.821-3.479.13-4.438-2.572-.545-1.972.831-3.935 2.734-5.519zm79.994-54.12c1.002-3.644 4.71-4.868 8.318-4.082 3.867.99 8.859 4.094 5.75 12.455-2.603 4.244-4.3 3.943-9.498 1.57-3.597-1.899-4.702-5.875-4.57-9.943zm112.55 170.71c1.773-.969 3.507-.313 4.42 1.011.92 1.468 1.389 3.997-2.953 5.986-2.549.71-3.005.113-3.832-2.223-.47-1.705.72-3.404 2.364-4.774zM229.85 93.907c.728-2.292 2.292-3.373 3.63-3.233 1.422.24 3.088 1.65 1.098 6.983-1.41 2.8-2.047 2.776-3.861 1.826-1.23-.813-1.296-3.11-.868-5.576zm-38.975-79.933c.806-2.764 3.258-3.836 5.558-3.405 2.46.57 5.556 2.672 3.182 9.044-1.867 3.278-2.951 3.126-6.212 1.58-2.246-1.26-2.789-4.18-2.527-7.22zM49.319 243.758c2.349-3.45 6.115-.75 7.636 1.654 2.226 4.343 4.928 15.768-4.038 10.705-5.215-3.158-8.752-.499-10.078-4.778-.734-3.13 3.895-3.52 6.48-7.58zM237.63 176.51c1.721-.89 3.434-.034 4.349 1.466.925 1.659 1.426 4.415-2.796 6.174-2.488.543-2.944-.138-3.793-2.72-.487-1.87.65-3.592 2.24-4.92zM231.366 286.227c-1.034 1.513-2.707 1.697-3.988 1.003-1.346-.81-2.766-2.66-.076-6.051 1.769-1.623 2.383-1.328 4.011.22 1.08 1.184.818 3.047.053 4.828zm-52.651 42.784c.484 2.563-1.055 4.439-3.091 5.035-2.222.549-5.588.125-6.29-6 .162-3.415 1.099-3.74 4.37-3.831 2.332.098 3.971 2.232 5.011 4.796zm-82.81-150.426c-5.489.76-5.766-2.88-4.522-5.126 2.675-3.773 12.291-11.987 14.373-4.125.991 4.698 6.63 5.05 3.284 8.297-2.638 2.247-6.82-.039-13.135.954zm-42.11 111.989c1.369 1.617 1.06 3.54-.107 4.758-1.315 1.256-3.813 2.273-6.77-1.771-1.265-2.47-.747-3.066 1.478-4.41 1.651-.843 3.646.021 5.398 1.422zm42.664 17.122c3.418.226 5.182 3.295 5.141 6.643-.176 3.614-2.023 8.613-10.015 7.375-4.242-1.538-4.284-3.099-3.125-8.147 1.031-3.54 4.362-5.246 8-5.87z" fill="#252525" fill-opacity=".631"/></svg>