<svg xmlns="http://www.w3.org/2000/svg" width="240" height="240" viewBox="0 0 63.5 63.5"><defs><clipPath id="c"><path d="M-45.534 209.35l29.33 16.933v33.867l-29.33 16.933-29.33-16.933v-33.867z" fill-opacity=".506" stroke="#fff" stroke-width="2.117" stroke-opacity=".502"/></clipPath><clipPath id="a"><path d="M2.117 2.117h59.266v59.266H2.117z" fill="#4d2600" stroke-width=".823"/></clipPath><clipPath id="f"><path d="M9.525 0H0v9.525l2.117 2.117 9.525-9.525z" fill="#272727" stroke-width="1.968"/></clipPath><clipPath id="d"><path d="M-1.587 297h-5.821v-38.1h5.82z" fill="#4d2600" stroke-width="4.078"/></clipPath><clipPath id="b"><path d="M32 44v152h176V44zm56 20h64l32 56-32 56H88l-32-56z" fill="#793c00" stroke-width="16" stroke-linecap="round"/></clipPath><clipPath id="e"><path d="M61.354 2.087l.03 17.492H2.116L2.087 2.09z" fill="#4d2600" stroke-width="8.805"/></clipPath><clipPath id="g"><path d="M61.442 61.383h-16.47V2.117H61.44z" fill="#4d2600" stroke-width="8.556"/></clipPath></defs><path d="M2.117 2.117h59.266v59.266H2.117z" clip-path="url(#a)" fill="#402000" stroke="#191919" stroke-width="4.233"/><path transform="matrix(.26458 0 0 .26458 -3.704 5.82)" d="M32 44v152h176V44zm56 20h64l32 56-32 56H88l-32-56z" clip-path="url(#b)" fill="#552b00" stroke="#191919" stroke-width="16" stroke-linecap="round"/><path transform="scale(-.38738) rotate(30 575.866 22.986)" d="M-45.534 209.35l29.33 16.933v33.867l-29.33 16.933-29.33-16.933v-33.867z" clip-path="url(#c)" fill-opacity=".502" stroke="#fff" stroke-width="4.011"/><path d="M28.046 31.015a6.556 6.556 0 0 0-6.556 6.556 6.556 6.556 0 0 0 6.556 6.556 6.556 6.556 0 0 0 6.556-6.556 6.556 6.556 0 0 0-6.556-6.556zm-2.957 2.201l6.602 3.786s.278.212.405.339c.584.584.876 1.35.876 2.115a2.991 2.991 0 0 1-5.257 1.953l-3.405-4.62 1.563.746-2.29-2.757 2.377 1.198-2.39-2.715 2.691 1.543zm3.065 2.395a.63.63 0 1 0 0 1.26.63.63 0 0 0 0-1.26zm-1.815.79a.266.266 0 1 0 0 .532.266.266 0 0 0 0-.533zm3.38.86l-.152 1.004-.767-.666.27.98-.972-.297.646.785-1.01.125.91.455-.871.524 1.015.045-.582.833.946-.371-.193.998.713-.724.23.99.357-.952.612.812-.061-1.015.89.492-.47-.902 1.014.088-.795-.634.96-.332-.983-.255.743-.694-1.003.167.397-.936-.849.56-.018-1.016-.547.856zm-2.805.615a.38.38 0 1 0 0 .76.38.38 0 0 0 0-.76z" fill="#fefefe"/><path transform="matrix(0 1.55556 -1.55556 0 464.117 63.852)" d="M-1.587 297h-5.821v-38.1h5.82z" clip-path="url(#d)" fill="#763800" stroke="#191919" stroke-width="2.721"/><path d="M61.354 2.087l.03 17.492H2.116L2.087 2.09z" clip-path="url(#e)" transform="matrix(1 0 0 1.20231 0 -.257)" fill="#2b3223" stroke="#191919" stroke-width="4.233"/><path transform="matrix(1.55556 0 0 1.55556 13.61 -400.646)" d="M-1.587 297h-5.821v-38.1h5.82z" clip-path="url(#d)" fill="#7c3e00" stroke="#191919" stroke-width="2.721"/><path transform="rotate(-90 31.75 31.75)" clip-path="url(#f)" d="M9.525 0H0v9.525l2.117 2.117 9.525-9.525z" fill="#404040" stroke="#191919" stroke-width="3.175"/><path d="M61.442 61.383h-16.47V2.117H61.44z" clip-path="url(#g)" fill="#763800" stroke-width="4.233" stroke="#191919"/><path d="M9.525 0H0v9.525l2.117 2.117 9.525-9.525z" clip-path="url(#f)" transform="rotate(180 31.75 31.75)" fill="#404040" stroke="#191919" stroke-width="3.175"/><path d="M9.525 0H0v9.525l2.117 2.117 9.525-9.525z" clip-path="url(#f)" transform="rotate(90 31.75 31.75)" fill="#404040" stroke="#191919" stroke-width="3.175"/><path clip-path="url(#f)" d="M9.525 0H0v9.525l2.117 2.117 9.525-9.525z" fill="#404040" stroke="#191919" stroke-width="3.175"/></svg>