<?xml version="1.0" encoding="UTF-8" standalone="no"?>
<svg
   xmlns:dc="http://purl.org/dc/elements/1.1/"
   xmlns:cc="http://creativecommons.org/ns#"
   xmlns:rdf="http://www.w3.org/1999/02/22-rdf-syntax-ns#"
   xmlns:svg="http://www.w3.org/2000/svg"
   xmlns="http://www.w3.org/2000/svg"
   xmlns:sodipodi="http://sodipodi.sourceforge.net/DTD/sodipodi-0.dtd"
   xmlns:inkscape="http://www.inkscape.org/namespaces/inkscape"
   width="144"
   height="110"
   viewBox="0 0 38.1 29.104"
   version="1.1"
   id="svg53"
   sodipodi:docname="map-control-panel-05.svg"
   inkscape:version="0.92.2 (5c3e80d, 2017-08-06)">
  <metadata
     id="metadata57">
    <rdf:RDF>
      <cc:Work
         rdf:about="">
        <dc:format>image/svg+xml</dc:format>
        <dc:type
           rdf:resource="http://purl.org/dc/dcmitype/StillImage" />
      </cc:Work>
    </rdf:RDF>
  </metadata>
  <sodipodi:namedview
     pagecolor="#ffffff"
     bordercolor="#666666"
     borderopacity="1"
     objecttolerance="10"
     gridtolerance="10"
     guidetolerance="10"
     inkscape:pageopacity="0"
     inkscape:pageshadow="2"
     inkscape:window-width="1920"
     inkscape:window-height="1017"
     id="namedview55"
     showgrid="false"
     inkscape:zoom="3.9444444"
     inkscape:cx="33.871081"
     inkscape:cy="78.788553"
     inkscape:window-x="1912"
     inkscape:window-y="-8"
     inkscape:window-maximized="1"
     inkscape:current-layer="svg53" />
  <defs
     id="defs17">
    <clipPath
       id="b">
      <rect
         width="38.1"
         height="12.7"
         y="258.9"
         rx="0"
         fill="#393939"
         stroke-width="1.192"
         id="rect2" />
    </clipPath>
    <clipPath
       id="c">
      <rect
         width="8.467"
         height="8.467"
         x="14.817"
         y="299.117"
         rx="1.058"
         ry="1.058"
         fill="#e30000"
         stroke-width="3.766"
         id="rect5" />
    </clipPath>
    <clipPath
       id="a">
      <rect
         rx="0"
         y="279.008"
         height="17.992"
         width="38.1"
         fill="#585858"
         stroke-width="1.419"
         id="rect8" />
    </clipPath>
    <clipPath
       id="d">
      <circle
         cx="19.05"
         cy="302.556"
         r="3.969"
         fill="#e30000"
         stroke-width="3.175"
         id="circle11" />
    </clipPath>
    <clipPath
       id="e">
      <circle
         cx="19.05"
         cy="302.556"
         r="3.969"
         fill="#e30000"
         stroke-width="3.175"
         id="circle14" />
    </clipPath>
    <clipPath
       id="c-0">
      <rect
         style="fill:#e30000;stroke-width:3.76600003"
         width="8.467"
         height="8.467"
         x="14.817"
         y="299.117"
         rx="1.058"
         ry="1.058"
         id="rect5-7" />
    </clipPath>
    <clipPath
       id="b-2">
      <rect
         style="fill:#393939;stroke-width:1.19200003"
         x="0"
         width="38.099998"
         height="12.7"
         y="258.89999"
         rx="0"
         id="rect2-7" />
    </clipPath>
    <clipPath
       id="a-3">
      <rect
         style="fill:#585858;stroke-width:1.41900003"
         x="0"
         rx="0"
         y="279.008"
         height="17.992001"
         width="38.099998"
         id="rect8-5" />
    </clipPath>
  </defs>
  <rect
     style="fill:#585858;stroke:#191919;stroke-width:3.17499995"
     x="0"
     id="rect19-5"
     clip-path="url(#a-3)"
     rx="0"
     y="279.008"
     height="17.992001"
     width="38.099998"
     transform="translate(1e-6,-267.896)" />
  <rect
     style="fill:#393939;stroke:#191919;stroke-width:3.17499995"
     x="0"
     id="rect21-2"
     transform="translate(1e-6,-258.89999)"
     width="38.099998"
     height="12.7"
     y="258.89999"
     rx="0"
     clip-path="url(#b-2)" />
  <path
     style="fill:#585858;stroke-width:1"
     inkscape:connector-curvature="0"
     id="path23-0"
     d="m 3.281001,2.116008 h 9.313 c 0.424,0 0.75,0.269 0.847,0.847 0.423,2.54 0.423,4.233 0,6.773 -0.097,0.579 -0.423,0.847 -0.847,0.847 h -9.313 c -0.423,0 -0.75,-0.268 -0.847,-0.847 -0.423,-2.54 -0.423,-4.233 0,-6.773 0.097,-0.578 0.424,-0.847 0.847,-0.847 z m 12.7,0 h 9.313 c 0.424,0 0.75,0.269 0.847,0.847 0.423,2.54 0.423,4.233 0,6.773 -0.097,0.579 -0.423,0.847 -0.847,0.847 h -9.313 c -0.423,0 -0.75,-0.268 -0.847,-0.847 -0.423,-2.54 -0.423,-4.233 0,-6.773 0.097,-0.578 0.424,-0.847 0.847,-0.847 z" />
  <rect
     style="fill:#412b2b;fill-opacity:1;stroke:#191919;stroke-width:3.17499995"
     id="rect31-9"
     transform="translate(10.719391,-283.18729)"
     clip-path="url(#c-0)"
     width="8.467"
     height="8.467"
     x="14.817"
     y="299.117"
     rx="1.058"
     ry="1.058" />
  <path
     style="fill:#202020;stroke-width:1"
     inkscape:connector-curvature="0"
     id="path49-6"
     d="m 28.097589,3.307008 h 2.909999 v 2.91 h -2.909999 z m 3.968999,0 h 2.910001 v 2.91 h -2.910001 z m -3.968999,3.44 h 2.909999 v 2.91 h -2.909999 z m 3.968999,0 h 2.910001 v 2.91 h -2.910001 z" />
  <path
     style="fill:#232323;stroke-width:1"
     inkscape:connector-curvature="0"
     id="path51-1"
     d="m 7.673001,5.292008 1.323,-1.588 -0.529999,2.117 2.646999,0.529 -2.646,0.529 1.058,2.117 -1.587,-1.588 -2.117,1.059 1.058,-1.588 -2.116,-0.794 h 2.116 l -1.058,-1.852 z m 10.076,2.545 1.906,-1.337 -1.058,-1.63 1.62,0.936 2.095,-1.383 -0.68,1.552 2.456,0.986 -2.182,0.036 -0.4,1.62 -1.133,-1.209 z" />
  <rect
     style="fill:#808080;fill-opacity:1;stroke:none;stroke-width:1.58749998;stroke-linecap:round;stroke-linejoin:miter;stroke-miterlimit:4;stroke-dasharray:none;stroke-opacity:0.56470588"
     id="rect949"
     width="18.071184"
     height="10.245081"
     x="3.9645526"
     y="14.896842" />
  <g
     transform="matrix(0.03633642,0,0,0.03633642,3.002553,10.175612)"
     id="g32"
     style="fill:#202020;fill-opacity:1">
    <g
       id="g30"
       style="fill:#202020;fill-opacity:1">
      <path
         inkscape:connector-curvature="0"
         d="m 537.468,120.342 c -7.139,-7.139 -15.753,-10.709 -25.841,-10.709 H 36.545 c -10.088,0 -18.699,3.571 -25.837,10.709 C 3.571,127.48 0,136.094 0,146.179 v 255.815 c 0,10.089 3.571,18.698 10.708,25.837 7.139,7.139 15.749,10.712 25.837,10.712 h 475.082 c 10.088,0 18.702,-3.573 25.841,-10.712 7.135,-7.139 10.708,-15.748 10.708,-25.837 V 146.179 c 0,-10.085 -3.573,-18.699 -10.708,-25.837 z M 511.627,401.994 H 36.545 V 146.179 h 475.082 z"
         id="path2"
         style="fill:#202020;fill-opacity:1" />
      <path
         inkscape:connector-curvature="0"
         d="m 77.657,365.445 h 27.408 c 3.046,0 4.569,-1.526 4.569,-4.568 v -27.408 c 0,-3.039 -1.52,-4.568 -4.569,-4.568 H 77.657 c -3.044,0 -4.568,1.529 -4.568,4.568 v 27.408 c 0,3.042 1.524,4.568 4.568,4.568 z"
         id="path4"
         style="fill:#202020;fill-opacity:1" />
      <path
         inkscape:connector-curvature="0"
         d="m 77.657,292.362 h 63.954 c 3.045,0 4.57,-1.53 4.57,-4.572 v -27.41 c 0,-3.045 -1.525,-4.565 -4.57,-4.568 H 77.657 c -3.044,0 -4.568,1.523 -4.568,4.568 v 27.41 c 0,3.042 1.524,4.572 4.568,4.572 z"
         id="path6"
         style="fill:#202020;fill-opacity:1" />
      <path
         inkscape:connector-curvature="0"
         d="m 77.657,219.268 h 27.408 c 3.046,0 4.569,-1.525 4.569,-4.57 v -27.406 c 0,-3.046 -1.52,-4.565 -4.569,-4.57 H 77.657 c -3.044,0 -4.568,1.524 -4.568,4.57 v 27.406 c 0,3.045 1.524,4.57 4.568,4.57 z"
         id="path8"
         style="fill:#202020;fill-opacity:1" />
      <path
         inkscape:connector-curvature="0"
         d="M 397.43,328.903 H 150.751 c -3.046,0 -4.57,1.526 -4.57,4.572 v 27.404 c 0,3.039 1.524,4.572 4.57,4.572 h 246.67 c 3.046,0 4.572,-1.526 4.572,-4.572 v -27.404 c 0.001,-3.045 -1.525,-4.572 -4.563,-4.572 z"
         id="path10"
         style="fill:#202020;fill-opacity:1" />
      <path
         inkscape:connector-curvature="0"
         d="m 182.725,287.79 c 0,3.042 1.523,4.572 4.565,4.572 h 27.412 c 3.044,0 4.565,-1.53 4.565,-4.572 v -27.41 c 0,-3.045 -1.518,-4.565 -4.565,-4.568 H 187.29 c -3.042,0 -4.565,1.523 -4.565,4.568 z"
         id="path12"
         style="fill:#202020;fill-opacity:1" />
      <path
         inkscape:connector-curvature="0"
         d="m 150.751,219.268 h 27.406 c 3.046,0 4.57,-1.525 4.57,-4.57 v -27.406 c 0,-3.046 -1.524,-4.565 -4.57,-4.57 h -27.406 c -3.046,0 -4.57,1.524 -4.57,4.57 v 27.406 c 0,3.045 1.525,4.57 4.57,4.57 z"
         id="path14"
         style="fill:#202020;fill-opacity:1" />
      <path
         inkscape:connector-curvature="0"
         d="m 255.813,287.79 c 0,3.042 1.524,4.572 4.568,4.572 h 27.408 c 3.046,0 4.572,-1.53 4.572,-4.572 v -27.41 c 0,-3.045 -1.526,-4.565 -4.572,-4.568 h -27.408 c -3.044,0 -4.568,1.523 -4.568,4.568 z"
         id="path16"
         style="fill:#202020;fill-opacity:1" />
      <path
         inkscape:connector-curvature="0"
         d="m 223.837,219.268 h 27.406 c 3.046,0 4.57,-1.525 4.57,-4.57 v -27.406 c 0,-3.046 -1.521,-4.565 -4.57,-4.57 h -27.406 c -3.046,0 -4.57,1.524 -4.57,4.57 v 27.406 c 0,3.045 1.524,4.57 4.57,4.57 z"
         id="path18"
         style="fill:#202020;fill-opacity:1" />
      <path
         inkscape:connector-curvature="0"
         d="m 328.904,287.79 c 0,3.042 1.525,4.572 4.564,4.572 h 27.412 c 3.045,0 4.564,-1.53 4.564,-4.572 v -27.41 c 0,-3.045 -1.52,-4.565 -4.564,-4.568 h -27.412 c -3.039,0 -4.564,1.523 -4.564,4.568 z"
         id="path20"
         style="fill:#202020;fill-opacity:1" />
      <path
         inkscape:connector-curvature="0"
         d="m 470.513,328.903 h -27.404 c -3.046,0 -4.572,1.526 -4.572,4.572 v 27.404 c 0,3.039 1.526,4.572 4.572,4.572 h 27.404 c 3.046,0 4.572,-1.526 4.572,-4.572 v -27.404 c 0,-3.045 -1.523,-4.572 -4.572,-4.572 z"
         id="path22"
         style="fill:#202020;fill-opacity:1" />
      <path
         inkscape:connector-curvature="0"
         d="m 296.928,219.268 h 27.411 c 3.046,0 4.565,-1.525 4.565,-4.57 v -27.406 c 0,-3.046 -1.52,-4.565 -4.565,-4.57 h -27.411 c -3.046,0 -4.565,1.524 -4.565,4.57 v 27.406 c -10e-4,3.045 1.519,4.57 4.565,4.57 z"
         id="path24"
         style="fill:#202020;fill-opacity:1" />
      <path
         inkscape:connector-curvature="0"
         d="m 370.018,219.268 h 27.404 c 3.046,0 4.572,-1.525 4.572,-4.57 v -27.406 c 0,-3.046 -1.526,-4.565 -4.572,-4.57 h -27.404 c -3.046,0 -4.572,1.524 -4.572,4.57 v 27.406 c -0.001,3.045 1.526,4.57 4.572,4.57 z"
         id="path26"
         style="fill:#202020;fill-opacity:1" />
      <path
         inkscape:connector-curvature="0"
         d="m 401.991,287.79 c 0,3.042 1.522,4.572 4.568,4.572 h 63.953 c 3.046,0 4.572,-1.53 4.572,-4.572 V 187.292 c 0,-3.046 -1.522,-4.565 -4.572,-4.57 h -27.404 c -3.046,0 -4.572,1.524 -4.572,4.57 v 68.52 H 406.56 c -3.046,0 -4.568,1.523 -4.568,4.568 v 27.41 z"
         id="path28"
         style="fill:#202020;fill-opacity:1" />
    </g>
  </g>
</svg>
