<svg xmlns="http://www.w3.org/2000/svg" width="144" height="144" viewBox="0 0 38.1 38.1"><g fill="#af471d"><path d="M17.263 26.055c-2.017-3.833-4.504-3.295-4.504-3.295-2.756.337-3.43 1.884-3.43 1.884s3.296 3.63 7.53 4.503c0 0-1.185-1.362.363-2.237z" stroke="#000" stroke-width=".59470505"/><path d="M8.882 14.307a8.772 8.772 0 0 0 4.471 4.331 8.772 8.772 0 0 0 12.069-9.716l-.59.33-1.295-.306c.373 1.596.43 3.28-.515 4.93-2.1 3.308-5.67 4.454-8.678 3.46-1.927-.826-3.643-2.296-4.382-4.258l-.604 1.074z" stroke="#191919" stroke-width=".56480433"/><path d="M25.51 25.99s2.245-2.25 3.806-10.919c0 0-4.307 7.291-8.856 10.084 0 0 3.686-.595 5.05.836z" stroke="#000" stroke-width=".59470505"/></g></svg>