<svg xmlns="http://www.w3.org/2000/svg" xmlns:xlink="http://www.w3.org/1999/xlink" width="160" height="128" viewBox="0 0 42.333 33.867"><defs><pattern xlink:href="#a" id="c" patternTransform="rotate(45 -382.625 182.436) scale(.34612)"/><clipPath id="b"><rect width="42.333" height="33.867" x="-4.233" y="267.367" rx="4.233" ry="4.233" fill="#9b4c00" stroke-width="3.098"/></clipPath><pattern patternUnits="userSpaceOnUse" width="159.999" height="159.999" patternTransform="translate(19.05 305.467) scale(.26458)" id="a"><path fill="none" stroke-width="3.78" d="M0 0h159.999v159.999H0z"/><path d="M0 0h80v80H0zm80 80h79.999v79.999h-80z" fill="#81431e"/><path d="M80 0h79.999v80h-80zM0 80h80v79.999H0z" fill="#572b11"/></pattern></defs><g transform="translate(4.233 -267.367)" stroke="#191919"><rect ry="4.233" rx="4.233" y="267.367" x="-4.233" height="33.867" width="42.333" clip-path="url(#b)" fill="url(#c)" stroke-width="3.175"/><g transform="translate(40.746 -4.233)"><circle r="5.821" cy="282.712" cx="-14.817" fill="#4d2600" stroke-width="1.587"/><circle cx="-13.229" cy="282.712" r="1.587" fill="#ff7800" stroke-width=".794"/><path d="M-17.462 280.067s-.864 2.7-.53 3.704c.28.836 2.646 2.646 2.646 2.646s-1.894-3.59-2.116-6.35z" fill="#f7ff00" stroke-width=".794"/></g></g></svg>