<svg xmlns="http://www.w3.org/2000/svg" xmlns:xlink="http://www.w3.org/1999/xlink" width="392" height="744" viewBox="0 0 103.717 196.85"><defs><pattern xlink:href="#a" id="c" patternTransform="matrix(-.06615 0 0 -.06615 132.292 174.625)"/><pattern patternUnits="userSpaceOnUse" width="128" height="128" patternTransform="matrix(.26458 0 0 .26458 0 -38.1)" id="a"><path fill="none" stroke-width="3.78" d="M0 0h128v128H0z"/><path fill="none" stroke-width="3.78" d="M0 0h128v128H0z"/><path d="M0 0h128v128H0z" fill="#2e2d2a" stroke-width="15.118" stroke-miterlimit="10"/><path d="M60 128V68H0v-8h60V0h8v60h60v8H68v60z" fill="#6f6f6f" fill-opacity=".303" stroke-width="1.414"/></pattern><clipPath id="e"><path d="M496.26-65.722v-10.054h-25.4v10.054z" fill="#252525" stroke-width="1.467"/></clipPath><clipPath id="d"><path d="M110.596 76.2v127h12.171v-127z" fill="#3b3b3b" stroke-width="4.7"/></clipPath><clipPath id="h"><path d="M114.3 76.2v127h-5.291v-127z" fill="#5d2f09" stroke-width=".748"/></clipPath><clipPath id="f"><path clip-path="url(#clipPath6865)" d="M402.14 158.55h9.526v-42.334h-9.525z" fill="#a3977d" stroke-width="1.984"/></clipPath><clipPath id="g"><path d="M-22.25 168.075v-9.525h-46.568v9.525z" clip-path="url(#clipPath6865)" fill="#a3977d" stroke-width="2.081"/></clipPath><clipPath id="i"><path d="M16.933-8.467H8.467v203.2h8.466z" fill="#1b1e25" stroke-width="2.226"/></clipPath><clipPath id="j"><path d="M84.667-8.467H76.2V127H50.8v67.733h8.467v-59.266h25.4z" fill="#1b1e25" stroke-width="2.226"/></clipPath><filter id="b" x="-.024" width="1.047" y="-.025" height="1.05" color-interpolation-filters="sRGB"><feGaussianBlur stdDeviation="1.672"/></filter></defs><path transform="matrix(0 1.0634 -.7443 0 272.865 109.563)" d="M-98.055 234.365h127.39v113.753h-127.39z" fill="#130902" fill-opacity=".944" filter="url(#b)"/><path d="M94.192 128.058h-76.2v-127h76.2z" fill="url(#c)"/><path d="M110.596 76.2v127h12.171v-127z" clip-path="url(#d)" transform="translate(-35.454 -75.142)" fill="#3b3b3b" stroke="#191919" stroke-width="3.175"/><path transform="rotate(-90 369.627 216.592)" d="M496.26-65.722v-10.054h-25.4v10.054z" clip-path="url(#e)" fill="#252525" stroke="#191919" stroke-width="3.175"/><path clip-path="url(#e)" d="M496.26-65.722v-10.054h-25.4v10.054z" transform="rotate(-90 331.527 178.492)" fill="#252525" stroke="#191919" stroke-width="3.175"/><path clip-path="url(#e)" d="M496.26-65.722v-10.054h-25.4v10.054z" transform="rotate(-90 350.577 197.542)" fill="#252525" stroke="#191919" stroke-width="3.175"/><path d="M17.992 136.525v-8.467h67.733v8.467z" fill="#302e28"/><path clip-path="url(#f)" d="M402.14 158.55h9.526v-42.334h-9.525z" transform="matrix(0 1 -1.1 0 194.514 -224.34)" fill="#646464"/><path transform="rotate(-180 -1.07 168.704)" clip-path="url(#g)" d="M-22.25 168.075v-9.525h-46.568v9.525z" fill="#5a5a5a" stroke="#000" stroke-width="2.117" stroke-opacity=".706"/><path d="M-22.25 168.075v-9.525h-46.568v9.525z" clip-path="url(#g)" transform="rotate(-180 -1.07 164.47)" fill="#505050" stroke="#000" stroke-width="2.117" stroke-opacity=".706"/><path transform="rotate(-180 -1.07 160.238)" clip-path="url(#g)" d="M-22.25 168.075v-9.525h-46.568v9.525z" fill="#464646" stroke="#000" stroke-width="2.117" stroke-opacity=".706"/><path d="M-22.25 168.075v-9.525h-46.568v9.525z" clip-path="url(#g)" transform="rotate(-180 -1.07 156.004)" fill="#3c3c3c" stroke="#000" stroke-width="2.117" stroke-opacity=".706"/><path transform="rotate(-180 -1.07 151.77)" clip-path="url(#g)" d="M-22.25 168.075v-9.525h-46.568v9.525z" fill="#323232" stroke="#000" stroke-width="2.117" stroke-opacity=".706"/><path d="M114.3 76.2v127h-5.291v-127z" clip-path="url(#h)" transform="translate(-35.454 -75.142)" fill="#5d2f09" stroke="#191919" stroke-width="2.117"/><path d="M16.933-8.467H8.467v203.2h8.466z" clip-path="url(#i)" transform="translate(9.525 1.058)" fill="#1a1c21" stroke="#000" stroke-width="3.175" stroke-opacity=".706"/><path d="M84.667-8.467H76.2V127H50.8v67.733h8.467v-59.266h25.4z" clip-path="url(#j)" transform="translate(9.525 1.058)" fill="#1a1c21" stroke="#000" stroke-width="3.175" stroke-opacity=".706"/><path d="M47.125 53.22a12.349 12.349 0 0 0-8.741 15.14 12.411 12.411 0 0 0 9.118 8.842c3.174.64 5.332-1.692 4.699-3.32-.863-2.156-2.199-4.034-.476-6.03 1.108-1.26 3.066-1.478 3.81-1.48-.398-.178-.73-.681-.73-.681 1.117.49 1.977.346 1.977.346 1.897-.2 1.199 1.038 3.32 1.346 0 0 .788.49.223 1.409-2.672-.73-3.817.146-3.817.146a1.361 1.361 0 0 1-.645-.77c-3.132.007-3.476 1.83-1.918 4.371 1.262 1.196.918 3.02-.32 4.534 6.547-1.82 10.397-8.55 8.639-15.112a12.349 12.349 0 0 0-15.14-8.74zm10.11 13.441c-.164.044-.24.415-.24.415s.572-.153 1.24.215c-.238-.483-1-.63-1-.63z" fill-opacity=".294"/></svg>