<svg xmlns="http://www.w3.org/2000/svg" xmlns:xlink="http://www.w3.org/1999/xlink" width="1304" height="464" viewBox="0 0 345.018 122.767"><defs><pattern xlink:href="#a" id="c" patternTransform="rotate(90 136.526 130.176) scale(.06615)"/><pattern patternUnits="userSpaceOnUse" width="128" height="128" patternTransform="translate(0 -38.1) scale(.26458)" id="a"><path fill="none" stroke-width="3.78" d="M0 0h128v128H0z"/><path fill="none" stroke-width="3.78" d="M0 0h128v128H0z"/><path d="M0 0h128v128H0z" fill="#2e2d2a" stroke-width="15.118" stroke-miterlimit="10"/><path d="M60 128V68H0v-8h60V0h8v60h60v8H68v60z" fill="#6f6f6f" fill-opacity=".303" stroke-width="1.414"/></pattern><clipPath id="d"><path clip-path="url(#clipPath6865)" d="M402.14 158.55h9.526v-42.334h-9.525z" fill="#a3977d" stroke-width="1.984"/></clipPath><clipPath id="e"><path d="M-22.25 168.075v-9.525h-46.568v9.525z" clip-path="url(#clipPath6865)" fill="#a3977d" stroke-width="2.081"/></clipPath><clipPath id="f"><path d="M-8.467 42.333v50.8h335.493v-8.466H118.534V42.333z" fill="#1b1e25" stroke-width="2.226"/></clipPath><clipPath id="g"><path d="M-8.467 0v8.467H152.4v45.508h174.626v-8.467H160.867V0z" fill="#1b1e25" stroke-width="2.226"/></clipPath><filter id="b" x="-.014" width="1.027" y="-.032" height="1.064" color-interpolation-filters="sRGB"><feGaussianBlur stdDeviation="1.355"/></filter></defs><path d="M-4.233 10.583H165.1v45.509h67.733v56.091H-4.233z" fill="#130902" fill-opacity=".945" filter="url(#b)"/><path d="M220.135 60.325v47.625H110.066V65.617H0v-50.8h160.867v45.508z" fill="url(#c)"/><path d="M228.601 107.95h-8.467V60.325h8.468z" fill="#302e28"/><path clip-path="url(#d)" d="M402.14 158.55h9.526v-42.334h-9.525z" transform="matrix(1 0 0 1.1 -132.264 -66.901)" fill="#646464"/><path transform="rotate(90 149.866 279.619)" clip-path="url(#e)" d="M-22.25 168.075v-9.525h-46.568v9.525z" fill="#5a5a5a" stroke="#000" stroke-width="2.117" stroke-opacity=".706"/><path d="M-22.25 168.075v-9.525h-46.568v9.525z" clip-path="url(#e)" transform="rotate(90 145.632 275.385)" fill="#505050" stroke="#000" stroke-width="2.117" stroke-opacity=".706"/><path transform="rotate(90 141.4 271.153)" clip-path="url(#e)" d="M-22.25 168.075v-9.525h-46.568v9.525z" fill="#464646" stroke="#000" stroke-width="2.117" stroke-opacity=".706"/><path d="M-22.25 168.075v-9.525h-46.568v9.525z" clip-path="url(#e)" transform="rotate(90 137.166 266.919)" fill="#3c3c3c" stroke="#000" stroke-width="2.117" stroke-opacity=".706"/><path transform="rotate(90 132.932 262.685)" clip-path="url(#e)" d="M-22.25 168.075v-9.525h-46.568v9.525z" fill="#323232" stroke="#000" stroke-width="2.117" stroke-opacity=".706"/><path d="M-8.467 42.333v50.8h335.493v-8.466H118.534V42.333z" clip-path="url(#f)" transform="translate(0 14.817)" fill="#1b1e25" stroke="#000" stroke-width="3.175" stroke-opacity=".706"/><path d="M-8.467 0v8.467H152.4v45.508h174.626v-8.467H160.867V0z" clip-path="url(#g)" transform="translate(0 14.817)" fill="#1b1e25" stroke="#000" stroke-width="3.175" stroke-opacity=".706"/><path d="M4.73 23.283l4.795 7.408 1.058 14.817 4.234 11.642H0V23.283z" fill="#005a8e" fill-opacity=".485"/></svg>