<svg xmlns="http://www.w3.org/2000/svg" width="144" height="144" viewBox="0 0 38.1 38.1"><g transform="translate(0 -258.9)"><rect width="36.142" height="36.142" x=".979" y="259.879" rx="0" fill="#630" fill-opacity=".99" stroke="#191919" stroke-width="1.958"/><path fill="#c00" stroke="#191919" stroke-width="2" d="M6.96 265.86h24.18v24.18H6.96z"/><path d="M19.142 269.223c6.595 5.17 6.727 8.983 4.73 10.954l2.071 2.07c3.045-3.741 2.78-10.265-6.801-13.024zm-1.411.806c-.622.18-1.29.263-1.883.252-.51-.01-.957-.054-1.3-.239l-4.194 4.194 2.052 2.052 5.792-5.792zm-1.536 3.418l-1.631 1.63 11.449 11.45c.111.111.24.13.468.06.228-.069.51-.25.742-.481.231-.232.412-.514.482-.742.07-.23.05-.357-.061-.469l-11.45-11.448zm-.323 6.686l-1.516 1.382 1.89 1.873c2.224 1.853 4.698 1.98 6.773 1.092l-2.8-2.8c-1.628.1-3.298-.39-4.347-1.547zm-2.192 1.707c-.206.04-.334.11-.421.195a.692.692 0 0 0-.158.282l2.053 1.966c.203-.038.344-.104.42-.174a.34.34 0 0 0 .115-.28l-2.01-1.989zm-.92 1.128l-2.07 1.886c-.622 1.004.547 2.277 1.901 1.661l1.917-1.87-1.748-1.677z" fill="#ffd600"/><path fill-opacity=".236" stroke="#191919" stroke-width="2" d="M6.96 265.86h24.18v24.18H6.96z"/><path d="M37.12 274.813v-5.122l-9.81-9.812h-5.123z" fill="#4d2600" stroke="#191919" stroke-width="1.958"/></g></svg>