<?xml version="1.0" encoding="UTF-8" standalone="no"?>
<svg
   xmlns:dc="http://purl.org/dc/elements/1.1/"
   xmlns:cc="http://creativecommons.org/ns#"
   xmlns:rdf="http://www.w3.org/1999/02/22-rdf-syntax-ns#"
   xmlns:svg="http://www.w3.org/2000/svg"
   xmlns="http://www.w3.org/2000/svg"
   xmlns:xlink="http://www.w3.org/1999/xlink"
   xmlns:sodipodi="http://sodipodi.sourceforge.net/DTD/sodipodi-0.dtd"
   xmlns:inkscape="http://www.inkscape.org/namespaces/inkscape"
   width="416"
   height="304"
   viewBox="0 0 110.06643 80.433575"
   version="1.1"
   id="svg53"
   sodipodi:docname="map-bunker-hatchet-chamber-ceiling-01.svg"
   inkscape:version="0.92.2 (5c3e80d, 2017-08-06)">
  <metadata
     id="metadata57">
    <rdf:RDF>
      <cc:Work
         rdf:about="">
        <dc:format>image/svg+xml</dc:format>
        <dc:type
           rdf:resource="http://purl.org/dc/dcmitype/StillImage" />
        <dc:title></dc:title>
      </cc:Work>
    </rdf:RDF>
  </metadata>
  <sodipodi:namedview
     pagecolor="#ffffff"
     bordercolor="#666666"
     borderopacity="1"
     objecttolerance="10"
     gridtolerance="10"
     guidetolerance="10"
     inkscape:pageopacity="0"
     inkscape:pageshadow="2"
     inkscape:window-width="1920"
     inkscape:window-height="1017"
     id="namedview55"
     showgrid="true"
     fit-margin-top="0"
     fit-margin-left="0"
     fit-margin-right="0"
     fit-margin-bottom="0"
     inkscape:zoom="1.9189189"
     inkscape:cx="178.41265"
     inkscape:cy="161.03093"
     inkscape:window-x="1912"
     inkscape:window-y="-8"
     inkscape:window-maximized="1"
     inkscape:current-layer="svg53">
    <inkscape:grid
       type="xygrid"
       id="grid905"
       empspacing="4"
       spacingy="1.0583365"
       spacingx="1.0583311"
       originx="0.00017712809"
       originy="-1.9999999e-006" />
  </sodipodi:namedview>
  <defs
     id="defs33">
    <pattern
       xlink:href="#a"
       id="h"
       patternTransform="matrix(0.03307517,0,0,0.03307441,-219.43424,164.36925)" />
    <pattern
       xlink:href="#a"
       id="g"
       patternTransform="matrix(0.03307517,0,0,0.03307441,-179.21704,200.35212)" />
    <pattern
       xlink:href="#b"
       id="a"
       patternTransform="translate(-159.834 378.683) scale(.06615)" />
    <clipPath
       id="j">
      <path
         d="M 39.132,200.883 22.2,217.816 H -113.267 L -130.2,200.883 Z"
         id="path5"
         inkscape:connector-curvature="0"
         style="fill:#3f3c34;stroke-width:2.1170001;stroke-opacity:0.706" />
    </clipPath>
    <clipPath
       id="i">
      <path
         d="m -130.2,200.883 16.932,16.933 v 127 L -130.2,361.75 Z"
         id="path8"
         inkscape:connector-curvature="0"
         style="fill:#3f3c34;stroke-width:2.1170001;stroke-opacity:0.706" />
    </clipPath>
    <pattern
       patternUnits="userSpaceOnUse"
       width="32"
       height="32"
       patternTransform="translate(-159.834 378.683) scale(.26458)"
       id="b">
      <path
         fill="none"
         stroke-width="3.78"
         d="M0 0h32v32H0z"
         id="path11" />
      <path
         fill="none"
         stroke-width="4"
         d="M0 0h32v32H0z"
         id="path13" />
      <path
         d="M16 0v32M0 16h32"
         fill="none"
         stroke="#000"
         stroke-width="4"
         id="path15" />
    </pattern>
    <clipPath
       id="f">
      <path
         d="M 169.333,76.2 152.4,93.133 V 76.198 l 16.931,-16.934 z"
         id="path18"
         inkscape:connector-curvature="0"
         style="fill:#3f3c34;stroke-width:2.1170001;stroke-opacity:0.706" />
    </clipPath>
    <clipPath
       id="e">
      <path
         d="M 169.333,76.2 H 313.267 L 296.997,93.132 152.4,93.133 Z"
         id="path21"
         inkscape:connector-curvature="0"
         style="fill:#3a3a3a;stroke-width:2.1170001;stroke-opacity:0.706" />
    </clipPath>
    <clipPath
       id="d">
      <path
         d="M 296.333,93.133 V 203.2 l 16.932,16.934 V 76.2 Z"
         id="path24"
         inkscape:connector-curvature="0"
         style="fill:#3a3a3a;stroke-width:2.1170001;stroke-opacity:0.706" />
    </clipPath>
    <clipPath
       id="c">
      <path
         d="M 0.001,220.133 16.933,203.2 h 279.4 l 16.934,16.934 z"
         id="path27"
         inkscape:connector-curvature="0"
         style="fill:#3a3a3a;stroke-width:2.1170001;stroke-opacity:0.706" />
    </clipPath>
    <clipPath
       id="k">
      <path
         d="m 16.934,76.198 v 126.999 h 279.4 V 93.133 H 152.4 V 76.198 Z m 25.4,16.933 a 8.467,8.467 0 1 1 0,16.934 8.467,8.467 0 0 1 0,-16.934 z m 80.432,67.733 c 7.014,0 12.7,5.686 12.7,12.7 0,7.014 -5.686,12.7 -12.7,12.7 -7.014,0 -12.7,-5.686 -12.7,-12.7 0,-7.014 5.686,-12.7 12.7,-12.7 z"
         id="path30"
         inkscape:connector-curvature="0"
         style="fill:#565656;stroke-width:1.68200004;stroke-opacity:0.706" />
    </clipPath>
    <clipPath
       clipPathUnits="userSpaceOnUse"
       id="clipPath2066">
      <path
         style="fill:#1b1e25;stroke-width:2.22600007"
         d="m 182.03426,12.699319 -8.46511,0.001 v 67.732259 h 59.26611 V 224.36846 l -237.0685948,-0.002 v 8.46669 l 245.5342248,5.3e-4 V 71.966471 h -59.26663 z m -50.80049,0.001 v 59.266147 l -59.267145,3.4e-5 v 84.66664 H -4.2333348 v 33.86664 l 84.6671328,-3e-5 V 80.434165 H 139.70095 V 12.700352 Z"
         id="path2068"
         inkscape:connector-curvature="0"
         sodipodi:nodetypes="cccccccccccccccccccccc" />
    </clipPath>
    <clipPath
       clipPathUnits="userSpaceOnUse"
       id="clipPath867">
      <path
         style="fill:#3a3a3a;fill-opacity:1;stroke-width:2.11698699;stroke-opacity:0.706"
         inkscape:connector-curvature="0"
         id="path869"
         d="M 220.13325,6.8300011e-4 203.20117,16.933384 H 67.733473 L 50.800385,6.8300011e-4 Z" />
    </clipPath>
    <clipPath
       clipPathUnits="userSpaceOnUse"
       id="clipPath873">
      <path
         style="fill:#3a3a3a;fill-opacity:1;stroke-width:2.11698699;stroke-opacity:0.706"
         inkscape:connector-curvature="0"
         id="path875"
         d="M 50.800385,6.8300011e-4 67.732473,16.933384 67.733531,101.60031 50.800147,84.666929 Z"
         sodipodi:nodetypes="ccccc" />
    </clipPath>
    <clipPath
       clipPathUnits="userSpaceOnUse"
       id="clipPath879">
      <path
         sodipodi:nodetypes="ccccc"
         d="M 67.732788,101.59901 50.800089,84.666924 -6.1920499e-5,84.666913 16.933318,101.6003 Z"
         id="path881"
         inkscape:connector-curvature="0"
         style="fill:#3a3a3a;fill-opacity:1;stroke-width:2.11698699;stroke-opacity:0.706" />
    </clipPath>
    <clipPath
       clipPathUnits="userSpaceOnUse"
       id="clipPath885">
      <path
         style="fill:#3a3a3a;fill-opacity:1;stroke-width:2.11695504;stroke-opacity:0.706"
         inkscape:connector-curvature="0"
         id="path887"
         d="M -6.6921139e-5,84.666921 16.933318,101.6003 v 42.33347 L -6.6921139e-5,160.86715 -4.0392105e-4,152.31613 2.1164463,150.28379 V 120.65036 L -4.0392105e-4,118.451 Z"
         sodipodi:nodetypes="ccccccccc" />
    </clipPath>
    <clipPath
       clipPathUnits="userSpaceOnUse"
       id="clipPath891">
      <path
         style="fill:#3a3a3a;fill-opacity:1;stroke-width:2.11698699;stroke-opacity:0.706"
         inkscape:connector-curvature="0"
         id="path893"
         d="M -6.6921139e-5,160.86715 16.93202,143.93445 l 186.26783,-0.001 16.93408,16.9337 z"
         sodipodi:nodetypes="ccccc" />
    </clipPath>
    <clipPath
       clipPathUnits="userSpaceOnUse"
       id="clipPath897">
      <path
         d="M 220.13325,160.86585 203.20055,143.93377 203.20123,16.933087 220.13393,0 Z"
         id="path899"
         inkscape:connector-curvature="0"
         style="fill:#3a3a3a;fill-opacity:1;stroke-width:2.11698699;stroke-opacity:0.706"
         sodipodi:nodetypes="ccccc" />
    </clipPath>
    <pattern
       inkscape:collect="always"
       xlink:href="#a-0"
       id="pattern847"
       patternTransform="matrix(-0.03307536,0,0,0.03307503,124.8835,88.900292)" />
    <pattern
       xlink:href="#b-7"
       id="a-0"
       patternTransform="translate(-159.834 378.683) scale(.06615)" />
    <pattern
       patternUnits="userSpaceOnUse"
       width="32"
       height="32"
       patternTransform="translate(-159.834 378.683) scale(.26458)"
       id="b-7">
      <path
         fill="none"
         stroke-width="3.78"
         d="M0 0h32v32H0z"
         id="path10" />
      <path
         fill="none"
         stroke-width="4"
         d="M0 0h32v32H0z"
         id="path12" />
      <path
         d="M16 0v32M0 16h32"
         fill="none"
         stroke="#000"
         stroke-width="4"
         id="path14" />
    </pattern>
    <pattern
       xlink:href="#a-0"
       id="c-9"
       patternTransform="matrix(-0.03307536,0,0,0.03307503,124.8836,124.88381)" />
    <pattern
       xlink:href="#b-7"
       id="pattern1565"
       patternTransform="translate(-159.834 378.683) scale(.06615)" />
    <pattern
       patternUnits="userSpaceOnUse"
       width="32"
       height="32"
       patternTransform="translate(-159.834 378.683) scale(.26458)"
       id="pattern1573">
      <path
         fill="none"
         stroke-width="3.78"
         d="M0 0h32v32H0z"
         id="path1567" />
      <path
         fill="none"
         stroke-width="4"
         d="M0 0h32v32H0z"
         id="path1569" />
      <path
         d="M16 0v32M0 16h32"
         fill="none"
         stroke="#000"
         stroke-width="4"
         id="path1571" />
    </pattern>
    <clipPath
       clipPathUnits="userSpaceOnUse"
       id="clipPath1627">
      <path
         style="fill:#565656;stroke-width:1.58927548;stroke-opacity:0.706"
         d="m 128,32 v 160 l -96.001953,-0.002 v 79.99804 L 383.99805,272 V 32.003906 Z m 208.30078,32.044922 a 16,16 0 0 1 16,16 16,16 0 0 1 -16,16 16,16 0 0 1 -16,-16 16,16 0 0 1 16,-16 z M 336,192 a 24,24 0 0 1 24,24 24,24 0 0 1 -24,24 24,24 0 0 1 -24,-24 24,24 0 0 1 24,-24 z"
         id="path1629"
         inkscape:connector-curvature="0" />
    </clipPath>
  </defs>
  <path
     d="m 95.250285,50.800251 h -12.70014 v 12.700011 h 12.70014 z"
     id="path22"
     inkscape:connector-curvature="0"
     style="fill:url(#c-9);stroke-width:0.50000292" />
  <path
     d="M 95.25018,14.816714 H 82.55004 v 12.70002 h 12.70014 z"
     id="path24-1"
     inkscape:connector-curvature="0"
     style="fill:url(#pattern847);stroke-width:0.50000292" />
  <path
     id="path1625"
     transform="matrix(0.26458413,0,0,0.26458413,-2.8368421e-4,0)"
     d="M 128 32 L 128 192 L 31.998047 191.99805 L 31.998047 271.99609 L 383.99805 272 L 383.99805 32.003906 L 128 32 z M 336.30078 64.044922 A 16 16 0 0 1 352.30078 80.044922 A 16 16 0 0 1 336.30078 96.044922 A 16 16 0 0 1 320.30078 80.044922 A 16 16 0 0 1 336.30078 64.044922 z M 336 192 A 24 24 0 0 1 360 216 A 24 24 0 0 1 336 240 A 24 24 0 0 1 312 216 A 24 24 0 0 1 336 192 z "
     style="fill:#565656;stroke-width:3.99999997;stroke-opacity:1;stroke:#000000;stroke-miterlimit:4;stroke-dasharray:none"
     clip-path="url(#clipPath1627)" />
  <path
     sodipodi:nodetypes="ccccc"
     style="fill:#3a3a3a;fill-opacity:1;stroke:#000000;stroke-width:2.11693764;stroke-miterlimit:4;stroke-dasharray:none;stroke-opacity:1"
     inkscape:connector-curvature="0"
     id="path895"
     d="M 220.13325,160.86585 203.20055,143.93377 203.20123,16.933087 220.13393,0 Z"
     clip-path="url(#clipPath897)"
     transform="matrix(0.49999923,0,0,0.5,-3.6189754e-4,0)" />
  <path
     sodipodi:nodetypes="ccccc"
     d="M -6.6921053e-5,160.86715 16.93202,143.93445 l 186.26783,-0.001 16.93408,16.9337 z"
     id="path889"
     inkscape:connector-curvature="0"
     style="fill:#3a3a3a;fill-opacity:1;stroke:#000000;stroke-width:2.11693764;stroke-miterlimit:4;stroke-dasharray:none;stroke-opacity:1"
     clip-path="url(#clipPath891)"
     transform="matrix(0.49999923,0,0,0.5,-3.6189754e-4,0)" />
  <path
     sodipodi:nodetypes="ccccccccc"
     d="M -6.6921053e-5,84.66692 16.933318,101.6003 v 42.33347 L -6.6921053e-5,160.86715 -4.0392105e-4,152.31613 2.1164463,150.28379 V 120.65036 L -4.0392105e-4,118.451 Z"
     id="path883"
     inkscape:connector-curvature="0"
     style="fill:#3a3a3a;fill-opacity:1;stroke:#000000;stroke-width:2.11693764;stroke-miterlimit:4;stroke-dasharray:none;stroke-opacity:1"
     clip-path="url(#clipPath885)"
     transform="matrix(0.49999923,0,0,0.5,-3.6189754e-4,0)" />
  <path
     style="fill:#3a3a3a;fill-opacity:1;stroke:#000000;stroke-width:2.11693764;stroke-miterlimit:4;stroke-dasharray:none;stroke-opacity:1"
     inkscape:connector-curvature="0"
     id="path877"
     d="M 67.732788,101.59901 50.800089,84.666924 -6.1921052e-5,84.666914 16.933318,101.6003 Z"
     sodipodi:nodetypes="ccccc"
     clip-path="url(#clipPath879)"
     transform="matrix(0.49999923,0,0,0.5,-3.6189754e-4,0)" />
  <path
     sodipodi:nodetypes="ccccc"
     d="m 50.800385,6.83e-4 16.932088,16.932701 0.0011,84.666926 -16.933384,-16.933382 z"
     id="path871"
     inkscape:connector-curvature="0"
     style="fill:#3a3a3a;fill-opacity:1;stroke:#000000;stroke-width:2.11693764;stroke-miterlimit:4;stroke-dasharray:none;stroke-opacity:1"
     clip-path="url(#clipPath873)"
     transform="matrix(0.49999923,0,0,0.5,-3.6189754e-4,0)" />
  <path
     d="M 220.13325,6.83e-4 203.20117,16.933384 H 67.733473 L 50.800385,6.83e-4 Z"
     id="path865"
     inkscape:connector-curvature="0"
     style="fill:#3a3a3a;fill-opacity:1;stroke:#000000;stroke-width:2.11693764;stroke-miterlimit:4;stroke-dasharray:none;stroke-opacity:1"
     clip-path="url(#clipPath867)"
     transform="matrix(0.49999923,0,0,0.5,-3.6189754e-4,0)" />
</svg>
