<svg xmlns="http://www.w3.org/2000/svg" xmlns:xlink="http://www.w3.org/1999/xlink" width="1696" height="1248" viewBox="0 0 448.733 330.2"><defs><pattern xlink:href="#a" id="g" patternTransform="rotate(90 105.111 69.487) scale(.0926)"/><pattern patternUnits="userSpaceOnUse" width="160" height="160" patternTransform="translate(142.971 268.336) scale(.26458)" id="a"><path fill="none" stroke-width="3.78" d="M0 0h160v160H0z"/><path fill="none" stroke-width="3.78" d="M0 0h160v160H0z"/><path fill="none" stroke-width="3.78" d="M0 0h160v160H0z"/><path fill="#b7b7b7" stroke-width="18.898" stroke-miterlimit="10" d="M0 0h160v160H0z"/><path fill-opacity=".354" stroke-width="8.709" stroke-miterlimit="10" d="M36 0h4v160h-4zm40 0h4v160h-4zm40 0h4v160h-4z"/><path transform="rotate(90)" fill-opacity=".354" stroke-width="4.131" stroke-miterlimit="10" d="M36-76h4v36h-4zm120 40h4V0h-4zm-80-80h4v36h-4z"/><path fill-opacity=".354" stroke-width="8.709" stroke-miterlimit="10" d="M156 0h4v160h-4z"/><path transform="rotate(90)" fill-opacity=".354" stroke-width="4.131" stroke-miterlimit="10" d="M116-156h4v36h-4zm0 80h4v36h-4zm40-40h4v36h-4zM36-156h4v36h-4zM76-36h4V0h-4z"/></pattern><pattern xlink:href="#b" id="h" patternTransform="rotate(180 8.983 130.355) scale(.0926)"/><pattern patternUnits="userSpaceOnUse" width="160" height="160" patternTransform="translate(142.971 268.336) scale(.26458)" id="b"><path fill="none" stroke-width="3.78" d="M0 0h160v160H0z"/><path fill="none" stroke-width="3.78" d="M0 0h160v160H0z"/><path fill="none" stroke-width="3.78" d="M0 0h160v160H0z"/><path fill="#b7b7b7" stroke-width="18.898" stroke-miterlimit="10" d="M0 0h160v160H0z"/><path fill-opacity=".354" stroke-width="8.709" stroke-miterlimit="10" d="M36 0h4v160h-4zm40 0h4v160h-4zm40 0h4v160h-4z"/><path transform="rotate(90)" fill-opacity=".354" stroke-width="4.131" stroke-miterlimit="10" d="M36-76h4v36h-4zm120 40h4V0h-4zm-80-80h4v36h-4z"/><path fill-opacity=".354" stroke-width="8.709" stroke-miterlimit="10" d="M156 0h4v160h-4z"/><path transform="rotate(90)" fill-opacity=".354" stroke-width="4.131" stroke-miterlimit="10" d="M116-156h4v36h-4zm0 80h4v36h-4zm40-40h4v36h-4zM36-156h4v36h-4zM76-36h4V0h-4z"/></pattern><pattern xlink:href="#c" id="f" patternTransform="rotate(45 38.32 231.045) scale(.26458)"/><pattern patternUnits="userSpaceOnUse" width="64" height="64" patternTransform="translate(-20.134 336.35) scale(.26458)" id="c"><path d="M0 0h64v64H0z" fill="#8b6539" stroke-width=".516"/><path fill="none" stroke-width="3.78" d="M0 0h64v64H0z"/><path fill="none" stroke-width="3.78" d="M0 0h64v64H0z"/><path fill="none" stroke-width="1.89" d="M0 0h64v64H0z"/><path d="M32 0h32v32H32zM0 32h32v32H0z" fill="#a47743" stroke-width=".258"/></pattern><pattern patternUnits="userSpaceOnUse" width="192" height="192" patternTransform="translate(284.666 344.816) scale(.26458)" id="e"><path fill="#b09a69" stroke-width="22.677" stroke-miterlimit="10" d="M0 0h192v192H0z"/><path transform="rotate(90)" fill-opacity=".354" stroke-width="9.54" stroke-miterlimit="10" d="M92-192h4V0h-4zm-48 0h4V0h-4zm96 0h4V0h-4z"/><path transform="rotate(-90)" fill-opacity=".354" stroke-width="9.54" stroke-miterlimit="10" d="M-192 0h4v192h-4z"/><path fill-opacity=".354" stroke-width="4.567" stroke-miterlimit="10" d="M28 0h4v44h-4zm16 48h4v44h-4zm16 48h4v44h-4zm16 48h4v44h-4zm32-96h4v44h-4zM92 0h4v44h-4zm32 96h4v44h-4zm16 48h4v44h-4zm-128 0h4v44h-4zm176-48h4v44h-4zm-16-48h4v44h-4zM156 0h4v44h-4z"/></pattern><clipPath id="i"><path d="M30.665-27.165l-194.733.008h-8.466v194.733h177.8v33.867h8.466V159.11h-177.8v-177.8l194.734-.008z" fill="#a3977d" stroke-width="3.924"/></clipPath><clipPath id="j"><path d="M-3.201 264.296v50.8h42.333v-8.466H5.266v-42.334z" fill="#a3977d" stroke-width="1.871"/></clipPath><clipPath id="k"><path d="M140.732 311.51v-8.467H81.466v8.467z" fill="#a3977d" stroke-width="2.214"/></clipPath><clipPath id="l"><path d="M211.464 269.176v42.334h-33.866v8.466h42.333v-50.8z" fill="#a3977d" stroke-width="1.871"/></clipPath><clipPath id="m"><path d="M216.932-1.757l-33.866.008v8.467l33.866-.008v50.8h76.2v110.066h-76.2v59.267h8.467v-50.8h76.2v-127h-76.2v-50.8z" fill="#a3977d" stroke-width="2.214"/></clipPath><clipPath id="n"><path d="M132.266-15.002v-8.466l-67.734.007v8.467z" fill="#a3977d" stroke-width="2.367"/></clipPath><pattern xlink:href="#d" id="o" patternTransform="translate(204.232 209.91) scale(.0926)"/><pattern patternUnits="userSpaceOnUse" width="160" height="160" patternTransform="translate(142.971 268.336) scale(.26458)" id="d"><path fill="none" stroke-width="3.78" d="M0 0h160v160H0z"/><path fill="none" stroke-width="3.78" d="M0 0h160v160H0z"/><path fill="none" stroke-width="3.78" d="M0 0h160v160H0z"/><path fill="#b7b7b7" stroke-width="18.898" stroke-miterlimit="10" d="M0 0h160v160H0z"/><path fill-opacity=".354" stroke-width="8.709" stroke-miterlimit="10" d="M36 0h4v160h-4zm40 0h4v160h-4zm40 0h4v160h-4z"/><path transform="rotate(90)" fill-opacity=".354" stroke-width="4.131" stroke-miterlimit="10" d="M36-76h4v36h-4zm120 40h4V0h-4zm-80-80h4v36h-4z"/><path fill-opacity=".354" stroke-width="8.709" stroke-miterlimit="10" d="M156 0h4v160h-4z"/><path transform="rotate(90)" fill-opacity=".354" stroke-width="4.131" stroke-miterlimit="10" d="M116-156h4v36h-4zm0 80h4v36h-4zm40-40h4v36h-4zM36-156h4v36h-4zM76-36h4V0h-4z"/></pattern></defs><path d="M-164.068-10.224V184.51h177.8v118.533h194.734V-10.224z" fill="url(#e)" transform="translate(164.068 27.157)"/><path d="M276.199 49.043V159.11h-71.967V49.043z" fill="url(#f)" transform="translate(164.068 27.157)"/><path d="M132.266-27.157h33.866v16.933h-33.866z" fill="url(#g)" transform="translate(164.068 27.157)"/><path fill-opacity=".305" d="M287.867 16.933h50.8v16.933h-50.8z"/><path d="M13.732 218.376v33.867H-3.2v-33.867z" fill="url(#h)" transform="translate(164.068 27.157)"/><path d="M364.067 110.067v8.466h-93.134V203.2h-84.666v8.467H279.4V127h84.667v25.4h8.466v-16.933h67.734V127h-67.734v-16.933z" fill="#655635" fill-opacity=".369"/><path fill-opacity=".305" d="M194.734 237.067v50.8H177.8v-50.8zm177.8 0v50.8H355.6v-50.8z"/><path d="M30.665-27.165l-194.733.008h-8.466v194.733h177.8v33.867h8.466V159.11h-177.8v-177.8l194.734-.008z" clip-path="url(#i)" transform="translate(172.535 44.098)" fill="#a3977d" stroke="#050505" stroke-width="3.5"/><path clip-path="url(#j)" d="M-3.201 264.296v50.8h42.333v-8.466H5.266v-42.334z" transform="translate(181.001 15.104)" fill="#a3977d" stroke="#050505" stroke-width="3.5"/><path clip-path="url(#k)" d="M140.732 311.51v-8.467H81.466v8.467z" transform="translate(164.068 18.69)" fill="#a3977d" stroke="#050505" stroke-width="3.5"/><path d="M211.464 269.176v42.334h-33.866v8.466h42.333v-50.8z" clip-path="url(#l)" transform="translate(152.602 10.224)" fill="#a3977d" stroke="#050505" stroke-width="3.5"/><path d="M216.932-1.757l-33.866.008v8.467l33.866-.008v50.8h76.2v110.066h-76.2v59.267h8.467v-50.8h76.2v-127h-76.2v-50.8z" clip-path="url(#m)" transform="translate(147.134 18.69)" fill="#a3977d" stroke="#050505" stroke-width="3.5"/><path clip-path="url(#n)" d="M132.266-15.002v-8.466l-67.734.007v8.467z" transform="translate(164.068 40.394)" fill="#a3977d" stroke="#050505" stroke-width="3.5"/><path d="M208.466 252.243v-33.867h16.933v33.867z" fill="url(#o)" transform="translate(164.068 27.157)"/></svg>