<svg xmlns="http://www.w3.org/2000/svg" width="140" height="102" viewBox="0 0 37.042 26.988"><defs><clipPath id="f"><path fill="#eda500" stroke-width="2.114" stroke-miterlimit="10" d="M-307.054 16.14h5.821v5.821h-5.821z"/></clipPath><clipPath id="a"><rect rx="0" y="-4.233" x="-301.233" height="37.042" width="26.988" fill="#ed9000" stroke-width="1.713"/></clipPath><clipPath id="b"><path d="M-4.763 273.187v-5.82h28.575v5.82z" fill="#4d2600" stroke-width="3.532"/></clipPath><clipPath id="c"><path d="M-4.763 273.187v-5.82h28.575v5.82z" fill="#4d2600" stroke-width="3.532"/></clipPath><clipPath id="d"><path d="M-4.763 273.187v-5.82h28.575v5.82z" fill="#4d2600" stroke-width="3.532"/></clipPath><clipPath id="e"><path d="M-4.763 273.187v-5.82h28.575v5.82z" fill="#4d2600" stroke-width="3.532"/></clipPath></defs><g transform="translate(4.233 -274.246)"><rect transform="rotate(-90)" width="26.988" height="37.042" x="-301.233" y="-4.233" rx="0" clip-path="url(#a)" fill="#974a00" stroke="#191919" stroke-width="3.175"/><path d="M-4.763 273.187v-5.82h28.575v5.82z" clip-path="url(#b)" transform="translate(4.763 23.813)" fill="#4d2600" stroke="#191919" stroke-width="3.175"/><path d="M-4.763 273.187v-5.82h28.575v5.82z" clip-path="url(#c)" transform="translate(4.763 19.58)" fill="#4d2600" stroke="#191919" stroke-width="3.175"/><path d="M-4.763 273.187v-5.82h28.575v5.82z" clip-path="url(#d)" transform="translate(4.763 15.346)" fill="#4d2600" stroke="#191919" stroke-width="3.175"/><path d="M-4.763 273.187v-5.82h28.575v5.82z" clip-path="url(#e)" transform="translate(4.763 11.113)" fill="#4d2600" stroke="#191919" stroke-width="3.175"/><ellipse cx=".794" cy="296.206" rx="1.852" ry="1.852" fill="#eda500" stroke="#191919" stroke-width="1.058" stroke-miterlimit="10"/><ellipse cx=".831" cy="279.273" rx="1.852" ry="1.852" fill="#eda500" stroke="#191919" stroke-width="1.058" stroke-miterlimit="10"/><ellipse cx="27.797" cy="279.272" rx="1.852" ry="1.852" fill="#eda500" stroke="#191919" stroke-width="1.058" stroke-miterlimit="10"/><ellipse cx="27.77" cy="296.188" rx="1.852" ry="1.852" fill="#eda500" stroke="#191919" stroke-width="1.058" stroke-miterlimit="10"/><path transform="rotate(-90 -5.292 -.53)" clip-path="url(#f)" fill="#eda500" stroke="#191919" stroke-width="3.175" stroke-miterlimit="10" d="M-307.054 16.14h5.821v5.821h-5.821z"/><path d="M19.285 280.948c-.264.003-.548.17-.713.568-.326.785-.935 1.733-1.715 2.738.31.254.582.554.806.887 1.027-.778 2.017-1.37 2.873-1.662 1.306-.444.352-2.041-1.035-1.035.788-.815.325-1.5-.216-1.496zm-9.992.001c-.541.011-1.1.702-.478 1.46-1.062-.98-2.009.392-.899.9.823.375 1.831 1.043 2.9 1.883.239-.366.534-.691.873-.964-.784-1.047-1.419-2.045-1.81-2.884-.131-.283-.357-.4-.586-.395zm4.964 2.92a3.548 3.548 0 0 0-3.553 3.552c0 1.308.704 2.448 1.755 3.064v1.652h.548v-1.39c.152.057.31.104.47.14v1.25h.548v-1.172a3.628 3.628 0 0 0 .461 0v1.172h.547v-1.25a3.53 3.53 0 0 0 .472-.14v1.39h.547v-1.65a3.546 3.546 0 0 0 1.757-3.066 3.548 3.548 0 0 0-3.552-3.553zm-1.959 2.582a1.054 1.054 0 1 1 0 2.109 1.054 1.054 0 0 1 0-2.109zm3.911 0a1.054 1.054 0 1 1 0 2.109 1.054 1.054 0 0 1 0-2.109zm-1.953 1.533l.876 1.411H13.38l.877-1.41zm-3.142 2.066c-1.179.951-2.3 1.71-3.198 2.122-1.11.507-.163 1.878.899.897-.886 1.08.62 2.022 1.065 1.066.441-.947 1.192-2.1 2.121-3.294a4.128 4.128 0 0 1-.887-.79zm6.242.05a4.13 4.13 0 0 1-.817.724c.932 1.153 1.664 2.25 2.033 3.14.504 1.211 2.102.284.929-.93 1.387 1.007 2.34-.59 1.035-1.034-.942-.32-2.043-1.005-3.18-1.9z" fill="#fff" fill-opacity=".862"/></g></svg>