<svg xmlns="http://www.w3.org/2000/svg" xmlns:xlink="http://www.w3.org/1999/xlink" width="2048" height="1728" viewBox="0 0 541.867 457.2"><defs><pattern xlink:href="#a" id="u" patternTransform="rotate(45 -432.309 366.118) scale(.26458)"/><pattern xlink:href="#a" id="J" patternTransform="rotate(-45 569.666 54.9) scale(.26458)"/><pattern xlink:href="#a" id="G" patternTransform="rotate(-45 545.831 51.015) scale(.26458)"/><pattern xlink:href="#a" id="H" patternTransform="rotate(-45 539.006 42.2) scale(.26458)"/><pattern xlink:href="#a" id="K" patternTransform="rotate(-45 527.946 43.606) scale(.26458)"/><pattern xlink:href="#a" id="L" patternTransform="rotate(-45 521.12 34.792) scale(.26458)"/><pattern xlink:href="#b" id="p" patternTransform="rotate(-45 516.54 74.797) scale(.26459)"/><pattern xlink:href="#c" id="b" patternTransform="rotate(-45 2556.508 -162.94)"/><pattern xlink:href="#d" id="c" patternTransform="rotate(-45 516.54 74.797) scale(.26459)"/><pattern xlink:href="#e" id="d" patternTransform="rotate(-45 2556.508 -162.94)"/><pattern xlink:href="#f" id="e" patternTransform="rotate(-45 516.54 74.797) scale(.26459)"/><pattern xlink:href="#g" id="f" patternTransform="rotate(-45 516.54 74.797) scale(.26459)"/><pattern xlink:href="#h" id="g" patternTransform="rotate(-45 2556.508 -162.94)"/><pattern xlink:href="#i" id="h" patternTransform="rotate(-45 516.54 74.797) scale(.26459)"/><pattern xlink:href="#j" id="i" patternTransform="rotate(-45 516.54 74.797) scale(.26459)"/><pattern xlink:href="#k" id="j" patternTransform="rotate(-45 2556.508 -162.94)"/><pattern xlink:href="#l" id="k" patternTransform="rotate(-45 516.54 74.797) scale(.26459)"/><pattern xlink:href="#m" id="v" patternTransform="rotate(-45 532.228 -92.316) scale(.26458)"/><pattern patternUnits="userSpaceOnUse" width="80" height="80" patternTransform="translate(221.166 361.75) scale(.26458)" id="m"><path fill="none" stroke-width="3.78" d="M0 0h80v80H0z"/><path fill="none" stroke-width="3.78" d="M16 0h64v64H16z"/><path d="M0 0h16v64h64v16H0z" fill="#c5a071" stroke-width="8" stroke-opacity=".682"/><path fill="#d6bc9b" stroke-width="8" stroke-opacity=".682" d="M16 0h32v32H16z"/><path fill="#cbab81" stroke-width="8" stroke-opacity=".682" d="M48 0h32v32H48zM16 32h32v32H16z"/><path fill="#d6bc9b" stroke-width="8" stroke-opacity=".682" d="M48 32h32v32H48z"/></pattern><clipPath id="w"><path d="M19.994-70.05v67.733h-152.4V31.55h8.467V6.15h152.4v-76.2z" fill="#a3977d" stroke-width="2.51"/></clipPath><clipPath id="x"><path d="M437.066 99.283h-8.467v152.4h8.467z" fill="#a3977d" stroke-width="3.55"/></clipPath><clipPath id="y"><path d="M1856 1312v224h-224.785v32H1888v-256z" fill="#a3977d" stroke-width="15.554"/></clipPath><clipPath id="n"><path d="M402.14 158.55h9.526v-42.334h-9.525z" fill="#a3977d" stroke-width="1.984"/></clipPath><clipPath id="r"><path clip-path="url(#n)" d="M402.14 158.55h9.526v-42.334h-9.525z" fill="#a3977d" stroke-width="1.984"/></clipPath><clipPath id="z"><path d="M-130.2 251.683h-8.468v76.2h8.467z" fill="#a3977d" stroke-width="2.51"/></clipPath><clipPath id="A"><path d="M-130.201 65.416h-8.467v160.867h8.467z" fill="#a3977d" stroke-width="3.647"/></clipPath><clipPath id="B"><path d="M259.266 336.35v-8.467H140.732v8.467z" fill="#a3977d" stroke-width="3.131"/></clipPath><clipPath id="C"><path d="M102.309 336.35v-8.467h-50.8v8.467z" fill="#a3977d" stroke-width="2.049"/></clipPath><clipPath id="D"><path d="M81.466-78.517v8.467h160.866v67.733h118.534v42.333h8.466v-50.8H250.8v-67.733z" fill="#a3977d" stroke-width="3.24"/></clipPath><clipPath id="o"><path d="M402.14 158.55h9.526v-42.334h-9.525z" clip-path="url(#n)" fill="#a3977d" stroke-width="1.984"/></clipPath><clipPath id="E"><path clip-path="url(#o)" d="M402.14 158.55h9.526v-42.334h-9.525z" fill="#a3977d" stroke-width="1.984"/></clipPath><pattern patternUnits="userSpaceOnUse" width="64" height="64" patternTransform="translate(98.4 387.15) scale(.26458)" id="l"><path fill="none" stroke-width="1.89" d="M0 0h64v64H0z"/><path fill="none" stroke-width="1.89" d="M0 0h64v64H0z"/><path fill="#822323" stroke-width="4" d="M0 0h32v16H0z"/><path fill="#822323" stroke-width="2.828" d="M48 16h16v16H48z"/><path fill="#822323" stroke-width="4" d="M32 32h32v16H32zM16 48h32v16H16z"/><path fill="#822323" stroke-width="2.828" d="M0 16h16v16H0z"/><path transform="rotate(90)" fill="#822323" stroke-width="2.828" d="M0-64h16v16H0z"/><path transform="rotate(90)" fill="#822323" stroke-width="4" d="M0-48h32v16H0zm16 16h32v16H16zm16 16h32V0H32z"/><path transform="rotate(90)" fill="#822323" stroke-width="2.828" d="M48-64h16v16H48z"/><path transform="rotate(90)" fill-opacity=".354" stroke-width="2.666" stroke-miterlimit="10" d="M14-30h2V0h-2z"/><path fill-opacity=".354" stroke-width="3.302" stroke-miterlimit="10" d="M30 0h2v46h-2z"/><path transform="rotate(90)" fill-opacity=".354" stroke-width="1.822" stroke-miterlimit="10" d="M30-14h2V0h-2z"/><path fill-opacity=".354" stroke-width="3.373" stroke-miterlimit="10" d="M14 16h2v48h-2z"/><path transform="rotate(90)" fill-opacity=".354" stroke-width="3.302" stroke-miterlimit="10" d="M46-62h2v46h-2z"/><path transform="rotate(90)" fill-opacity=".354" stroke-width="2.754" stroke-miterlimit="10" d="M30-64h2v32h-2z"/><path transform="rotate(90)" fill-opacity=".354" stroke-width="1.947" stroke-miterlimit="10" d="M14-64h2v16h-2z"/><path fill-opacity=".354" stroke-width="2.666" stroke-miterlimit="10" d="M46 0h2v30h-2z"/><path fill-opacity=".354" stroke-width="1.947" stroke-miterlimit="10" d="M46 48h2v16h-2z"/><path transform="rotate(90)" fill-opacity=".354" stroke-width="2.666" stroke-miterlimit="10" d="M62-46h2v30h-2z"/><path transform="rotate(90)" fill-opacity=".354" stroke-width="1.822" stroke-miterlimit="10" d="M62-14h2V0h-2z"/><path fill-opacity=".354" stroke-width="1.822" stroke-miterlimit="10" d="M62 0h2v14h-2z"/><path fill-opacity=".354" stroke-width="2.754" stroke-miterlimit="10" d="M62 32h2v32h-2z"/></pattern><clipPath id="F"><path d="M106.866 327.883h33.866v8.467h-33.866z" fill="url(#i)" stroke-width="2.606"/></clipPath><clipPath id="t"><path d="M106.866 327.883h33.866v16.933h-33.866z" fill="url(#f)" stroke-width="2.606"/></clipPath><clipPath id="I"><path d="M89.932 327.883h67.734v19.05H89.932z" fill="url(#p)" stroke-width="2.606"/></clipPath><pattern patternUnits="userSpaceOnUse" width="64" height="64" patternTransform="translate(132.266 408.61) scale(.26458)" id="a"><path fill="none" stroke-width="3.78" d="M0 0h64v64H0z"/><path fill="none" stroke-width="1.89" d="M0 0h64v64H0z"/><path fill="none" stroke-width="1.89" d="M0 0h64v64H0z"/><path fill="#822323" stroke-width="11.314" d="M0 0h64v64H0z"/><path transform="rotate(90)" fill-opacity=".354" stroke-width="2.666" stroke-miterlimit="10" d="M14-30h2V0h-2z"/><path fill-opacity=".354" stroke-width="3.302" stroke-miterlimit="10" d="M30 0h2v46h-2z"/><path transform="rotate(90)" fill-opacity=".354" stroke-width="1.822" stroke-miterlimit="10" d="M30-14h2V0h-2z"/><path fill-opacity=".354" stroke-width="3.373" stroke-miterlimit="10" d="M14 16h2v48h-2z"/><path transform="rotate(90)" fill-opacity=".354" stroke-width="3.302" stroke-miterlimit="10" d="M46-62h2v46h-2z"/><path transform="rotate(90)" fill-opacity=".354" stroke-width="2.754" stroke-miterlimit="10" d="M30-64h2v32h-2z"/><path transform="rotate(90)" fill-opacity=".354" stroke-width="1.947" stroke-miterlimit="10" d="M14-64h2v16h-2z"/><path fill-opacity=".354" stroke-width="2.666" stroke-miterlimit="10" d="M46 0h2v30h-2z"/><path fill-opacity=".354" stroke-width="1.947" stroke-miterlimit="10" d="M46 48h2v16h-2z"/><path transform="rotate(90)" fill-opacity=".354" stroke-width="2.666" stroke-miterlimit="10" d="M62-46h2v30h-2z"/><path transform="rotate(90)" fill-opacity=".354" stroke-width="1.822" stroke-miterlimit="10" d="M62-14h2V0h-2z"/><path fill-opacity=".354" stroke-width="1.822" stroke-miterlimit="10" d="M62 0h2v14h-2z"/><path fill-opacity=".354" stroke-width="2.754" stroke-miterlimit="10" d="M62 32h2v32h-2z"/></pattern><radialGradient xlink:href="#q" id="N" cx="7.457" cy="10.606" fx="7.457" fy="10.606" r="18.477" gradientTransform="matrix(2.11914 0 0 2.05684 25.08 234.926)" gradientUnits="userSpaceOnUse"/><linearGradient id="q"><stop offset="0"/><stop offset="1" stop-color="#080808" stop-opacity=".052"/></linearGradient><filter id="O" color-interpolation-filters="sRGB"><feColorMatrix in="SourceGraphic" values="1 0 0 0 0 0 1 0 0 0 0 0 1 0 0 -0.2125 -0.7154 -0.0721 1 0" result="colormatrix"/><feComposite in="SourceGraphic" in2="colormatrix" operator="arithmetic" k2="1" result="composite"/><feGaussianBlur stdDeviation="1.62 0.01" result="blur1"/><feGaussianBlur in="composite" stdDeviation="0.01 1.57" result="blur2"/><feBlend in="blur2" in2="blur1" mode="darken" result="blend"/></filter><clipPath id="M"><path d="M-10.132-48.59l-.477 3.175-2.117 3.175 3.175 3.175 14.817.038v-9.525z" fill="#a3977d" stroke-width="1.403"/></clipPath><clipPath id="P"><path d="M85.7-88.788v76.2h101.6v-76.2h-8.468v63.462l-4.233 4.233h-25.4l-4.233-4.233v-63.462h-8.467v67.733H94.166v-67.733z" fill="#a3977d" stroke-width="5.144"/></clipPath><clipPath id="Q"><path d="M-45.534 209.35l29.33 16.933v33.867l-29.33 16.933-29.33-16.933v-33.867z" fill-opacity=".506" stroke="#fff" stroke-width="2.117" stroke-opacity=".502"/></clipPath><clipPath id="s"><path d="M402.14 158.55h9.526v-42.334h-9.525z" clip-path="url(#n)" fill="#a3977d" stroke-width="1.984"/></clipPath><clipPath id="R"><path d="M369.332 26.022h-8.466v60.854h14.287l-5.82-6.35z" fill="#655c47" stroke-width="2.243"/></clipPath></defs><path clip-path="url(#r)" d="M402.14 158.55h9.526v-42.334h-9.525z" transform="matrix(1 0 0 1.325 121.735 33.868)" fill="#646464"/><path transform="matrix(1 0 0 1.325 96.337 33.868)" clip-path="url(#s)" d="M402.14 158.55h9.526v-42.334h-9.525z" fill="#464646" stroke="#000" stroke-width="1.839" stroke-opacity=".706"/><path d="M402.14 158.55h9.526v-42.334h-9.525z" clip-path="url(#s)" transform="matrix(1 0 0 1.325 104.803 33.868)" fill="#505050" stroke="#000" stroke-width="1.839" stroke-opacity=".706"/><path transform="matrix(1 0 0 1.325 113.27 33.868)" clip-path="url(#s)" d="M402.14 158.55h9.526v-42.334h-9.525z" fill="#5a5a5a" stroke="#000" stroke-width="1.839" stroke-opacity=".706"/><path d="M402.14 158.55h9.526v-42.334h-9.525z" clip-path="url(#s)" transform="matrix(1 0 0 1.325 87.87 33.868)" fill="#3c3c3c" stroke="#000" stroke-width="1.839" stroke-opacity=".706"/><path d="M402.14 158.55h9.526v-42.334h-9.525z" clip-path="url(#s)" transform="matrix(1 0 0 1.325 79.403 33.868)" fill="#323232" stroke="#000" stroke-width="1.839" stroke-opacity=".706"/><path transform="matrix(1 0 0 1.325 79.403 33.868)" clip-path="url(#s)" d="M402.14 158.55h9.526v-42.334h-9.525z" fill="#323232" stroke="#000" stroke-width="1.839" stroke-opacity=".706"/><path transform="rotate(-180 150.8 172.956)" d="M106.866 327.883h33.866v16.933h-33.866z" clip-path="url(#t)" fill="url(#u)" stroke="#491414" stroke-width="2.117"/><path d="M-130.2-6.292V315.44h482.6V-6.292H233.865v-67.734H22.199v67.734z" fill="url(#v)" transform="translate(130.201 90.924)"/><path d="M304.8 152.438h-8.525l.058 84.667h-84.666v-84.667H203.2v93.133h101.6z" fill="#535147" fill-opacity=".196"/><path fill-opacity=".305" d="M228.6 389.505h50.8v16.933h-50.8zM152.4 16.972h50.8v16.933h-50.8z"/><path fill="#659e26" d="M211.667 152.438h84.667v84.667h-84.667z"/><path d="M0 254.038L143.933 254v50.8h42.334v127.038c0 5.292-3.175 8.467-8.467 8.467H8.467c-5.292 0-8.467-3.175-8.467-8.467z" fill="#595959"/><path d="M186.267 397.971c-5.292 0-8.467 3.175-8.467 8.467v25.4H8.467v-25.4H0v25.4c0 5.292 3.175 8.467 8.467 8.467H177.8c5.292 0 8.467-3.175 8.467-8.467z" fill="#a3977d" fill-opacity=".718"/><path d="M77.817 361.8c2.357-2.731 5.674-2.723 8.032-1.083 2.46 1.878 4.834 5.81-1.182 11.854-3.82 2.785-4.959 2.072-7.81-1.313-1.857-2.555-.932-6.138.96-9.458zm-34.954-61.44c-.528-5.81 4.166-9.588 9.807-10.409 6.125-.664 15.024 1.116 15.063 14.887-1.46 7.542-4.075 8.027-12.875 7.417-6.227-.795-9.98-5.944-11.995-11.894zm-9.714 102.885c2.035-2.363 4.9-2.356 6.937-.938 2.124 1.626 4.174 5.027-1.021 10.255-3.3 2.408-4.283 1.791-6.744-1.137-1.604-2.209-.805-5.31.828-8.18zM152 318.915c-.188-3.707 1.485-6.118 3.496-6.642 2.184-.423 5.357.712 5.37 9.498-.52 4.812-1.452 5.122-4.59 4.732-2.22-.507-3.558-3.792-4.276-7.588zm-16.384 71.951c1.523-6.262 8.43-4.398 11.933-1.75 5.57 5.07 15.67 20.119-.033 17.661-9.25-1.735-12.92 4.024-17.154-1.442-2.76-4.124 3.72-7.197 5.254-14.47z" fill="#424242" fill-opacity=".631"/><path d="M19.994-70.05v67.733h-152.4V31.55h8.467V6.15h152.4v-76.2z" clip-path="url(#w)" transform="translate(132.406 87.022)" fill="#ccbc9a" stroke="#050505" stroke-width="3.175"/><path clip-path="url(#x)" d="M437.066 99.283h-8.467v152.4h8.467z" transform="translate(45.534 61.622)" fill="#ccbc9a" stroke="#050505" stroke-width="3.175"/><path transform="translate(-16.933 -8.429) scale(.26458)" d="M1856 1312v224h-224.785v32H1888v-256z" clip-path="url(#y)" fill="#ccbc9a" stroke="#050505" stroke-width="12"/><path d="M-130.2 251.683h-8.468v76.2h8.467z" clip-path="url(#z)" transform="translate(138.668 78.555)" fill="#ccbc9a" stroke="#050505" stroke-width="3.175"/><path d="M-130.201 65.416h-8.467v160.867h8.467z" clip-path="url(#A)" transform="translate(138.668 78.555)" fill="#ccbc9a" stroke="#050505" stroke-width="3.175"/><path clip-path="url(#B)" d="M259.266 336.35v-8.467H140.732v8.467z" transform="translate(130.201 70.088)" fill="#ccbc9a" stroke="#050505" stroke-width="3.175"/><path d="M152.458 93.171h-8.525l.059 50.8h8.466zm-.058 93.134v-8.526l-101.6.059v8.467zm-42.333 67.791v-8.525l-101.6.059v8.466zm-8.467-8.525h8.525l-.058-59.266H101.6zm42.275 59.267h8.525l-.058-59.267h-8.467z" fill="#535147" fill-opacity=".196"/><path d="M228.6 304.838v-8.525l-76.2.058v8.467zm-42.392 93.133h8.525l-.058-93.133h-8.467zm127.059 0h8.525l-.059-101.6h-8.466z" fill="#535147" fill-opacity=".196"/><path d="M313.267 304.838v-8.525l-33.867.058v8.467zm42.333 0h8.525l-.058-67.733H355.6z" fill="#535147" fill-opacity=".196"/><path d="M364.067 237.105v8.525l76.2-.059v-8.466zm.052-50.8v8.525l76.148-.059v-8.466z" fill="#535147" fill-opacity=".196"/><path d="M431.8 237.105h8.525l-.058-42.328H431.8zm-76.2-33.867h8.525l-.058-76.2H355.6z" fill="#535147" fill-opacity=".196"/><path d="M102.309 336.35v-8.467h-50.8v8.467z" clip-path="url(#C)" transform="translate(134.758 70.088)" fill="#ccbc9a" stroke="#050505" stroke-width="3.175"/><path clip-path="url(#D)" d="M81.466-78.517v8.467h160.866v67.733h118.534v42.333h8.466v-50.8H250.8v-67.733z" transform="translate(113.268 95.488)" fill="#ccbc9a" stroke="#050505" stroke-width="3.175"/><path d="M16.933 186.305v-8.526l-8.466.059v8.467z" fill="#535147" fill-opacity=".196"/><path d="M402.14 158.55h9.526v-42.334h-9.525z" clip-path="url(#E)" transform="matrix(0 -1 .975 0 145.98 504.838)" fill="#884a18" stroke="#000" stroke-width="2.144" stroke-opacity=".706"/><path transform="matrix(0 -1 .975 0 145.98 513.305)" clip-path="url(#E)" d="M402.14 158.55h9.526v-42.334h-9.525z" fill="#774115" stroke="#000" stroke-width="2.144" stroke-opacity=".706"/><path d="M402.14 158.55h9.526v-42.334h-9.525z" clip-path="url(#E)" transform="matrix(0 -1 .975 0 145.98 521.772)" fill="#663812" stroke="#000" stroke-width="2.144" stroke-opacity=".706"/><path transform="matrix(0 -1 .975 0 145.98 530.238)" clip-path="url(#E)" d="M402.14 158.55h9.526v-42.334h-9.525z" fill="#552f0f" stroke="#000" stroke-width="2.144" stroke-opacity=".706"/><path d="M402.14 158.55h9.526v-42.334h-9.525z" clip-path="url(#E)" transform="matrix(0 -1 .975 0 145.98 538.705)" fill="#44250c" stroke="#000" stroke-width="2.144" stroke-opacity=".706"/><path transform="matrix(0 -1 .975 0 145.98 547.172)" clip-path="url(#E)" d="M402.14 158.55h9.526v-42.334h-9.525z" fill="#331c09" stroke="#000" stroke-width="2.144" stroke-opacity=".706"/><path transform="translate(130.2 96.547)" clip-path="url(#F)" d="M106.866 327.883h33.866v8.467h-33.866z" fill="url(#G)" stroke="#491414" stroke-width="2.117"/><path d="M106.866 327.883h33.866v8.467h-33.866z" clip-path="url(#F)" transform="translate(130.2 103.955)" fill="url(#H)" stroke="#491414" stroke-width="2.117"/><path d="M89.932 327.883h67.734v19.05H89.932z" clip-path="url(#I)" transform="translate(130.201 78.555)" fill="url(#J)" stroke="#491414" stroke-width="2.117"/><path fill-opacity=".353" d="M221.192 407.497h65.617v16.933h-65.617z"/><path transform="translate(130.201 111.363)" clip-path="url(#F)" d="M106.866 327.883h33.866v8.467h-33.866z" fill="url(#K)" stroke="#491414" stroke-width="2.117"/><path d="M106.866 327.883h33.866v8.467h-33.866z" clip-path="url(#F)" transform="translate(130.2 118.772)" fill="url(#L)" stroke="#491414" stroke-width="2.117"/><path fill-opacity=".196" d="M238.125 432.897h31.75v6.35h-31.75z"/><path fill-opacity=".275" d="M238.125 425.488h31.75v6.35h-31.75z"/><path fill-opacity=".118" d="M238.125 440.305h31.75v6.35h-31.75z"/><path clip-path="url(#M)" d="M-10.132-48.59l-.477 3.175-2.117 3.175 3.175 3.175 14.817.038v-9.525z" transform="rotate(15 -379.433 882.046)" fill="#513213" stroke="#000" stroke-width="2.117" stroke-opacity=".258"/><path transform="rotate(165 110.35 42.794)" d="M-10.132-48.59l-.477 3.175-2.117 3.175 3.175 3.175 14.817.038v-9.525z" clip-path="url(#M)" fill="#613c17" stroke="#000" stroke-width="2.117" stroke-opacity=".268"/><path d="M61.281 282.344l-15.094-15.157 6.682 23.643-9.957-20.369-1.255 17.49-2.02-19.127-7.036 23.888 3.762-23.888-8.723 16.323 5.448-17.96-21.3 15.786 18.025-19.061-16.19 4.414 14.553-7.689-24.709 4.476 24.173-8-16.82-5.607 14.081.944-22.388-9.052 25.663 5.778L9.02 235.105l22.432 12.433-6.614-10.05 8.251 6.775-5.597-25.297L38 244.263l.853-15.185 2.421 15.185 8.22-25.525-5.646 27.891 14.106-24.924-8.493 22.558 9.016-9.578-7.379 12.853 22.153-9.47-21.362 14.545 14.998-1.107-14.151 4.219 27.3 3.26-27.3.015 19.758 6.523-19.758-3.248 20.152 17.686-21.79-16.049z" transform="translate(217.838 -2.423) scale(.37184)" fill="url(#N)" filter="url(#O)"/><path transform="matrix(0 -1 .975 0 145.98 496.334)" clip-path="url(#E)" d="M402.14 158.55h9.526v-42.334h-9.525z" fill="#ab5d1d" stroke="#000" stroke-width="2.144" stroke-opacity=".706"/><path transform="translate(117.5 164.988)" clip-path="url(#P)" d="M85.7-88.788v76.2h101.6v-76.2h-8.468v63.462l-4.233 4.233h-25.4l-4.233-4.233v-63.462h-8.467v67.733H94.166v-67.733z" fill="#ccbc9a" stroke="#000" stroke-width="3.175"/><path d="M235.78 362.579a.487.487 0 0 1-.487.487h-2.24a.487.487 0 0 1 0-.974h2.24c.269 0 .487.218.487.487zm0-5.849a.487.487 0 0 1-.487.486h-2.24a.487.487 0 0 1 0-.974h2.24c.269 0 .487.218.487.487zm0-5.85a.488.488 0 0 1-.487.487h-2.24a.487.487 0 0 1 0-.975h2.24c.269 0 .487.218.487.487zm0-5.85a.487.487 0 0 1-.487.487h-2.24a.487.487 0 1 1 0-.975h2.24c.269 0 .487.218.487.488zm0-5.85c0 .27-.218.487-.487.487h-2.24a.487.487 0 1 1 0-.974h2.24c.269 0 .487.218.487.487zm0 20.474c0 .27-.218.487-.487.487h-2.24a.487.487 0 0 1 0-.974h2.24c.269 0 .487.218.487.487zm0-5.85c0 .27-.218.488-.487.488h-2.24a.487.487 0 0 1 0-.975h2.24c.269 0 .487.218.487.487zm0-5.85c0 .27-.218.488-.487.488h-2.24a.487.487 0 1 1 0-.975h2.24c.269 0 .487.218.487.487zm0-5.849a.487.487 0 0 1-.487.487h-2.24a.487.487 0 1 1 0-.974h2.24c.269 0 .487.218.487.487zm0-5.85c0 .27-.218.487-.487.487h-2.24a.487.487 0 1 1 0-.974h2.24c.269 0 .487.218.487.487zm39.654 26.324a.487.487 0 0 1-.487.487h-2.24a.487.487 0 0 1 0-.974h2.24c.27 0 .487.218.487.487zm0-5.849a.487.487 0 0 1-.487.486h-2.24a.487.487 0 0 1 0-.974h2.24c.27 0 .487.218.487.487zm0-5.85a.488.488 0 0 1-.487.487h-2.24a.487.487 0 0 1 0-.975h2.24c.27 0 .487.218.487.487zm0-5.85a.487.487 0 0 1-.487.487h-2.24a.487.487 0 1 1 0-.975h2.24c.27 0 .487.218.487.488zm0-5.85c0 .27-.218.487-.487.487h-2.24a.487.487 0 1 1 0-.974h2.24c.27 0 .487.218.487.487zm0 20.474c0 .27-.218.487-.487.487h-2.24a.487.487 0 0 1 0-.974h2.24c.27 0 .487.218.487.487zm0-5.85c0 .27-.218.488-.487.488h-2.24a.487.487 0 0 1 0-.975h2.24c.27 0 .487.218.487.487zm0-5.85c0 .27-.218.488-.487.488h-2.24a.487.487 0 1 1 0-.975h2.24c.27 0 .487.218.487.487zm0-5.849a.487.487 0 0 1-.487.487h-2.24a.487.487 0 1 1 0-.974h2.24c.27 0 .487.218.487.487zm0-5.85c0 .27-.218.487-.487.487h-2.24a.487.487 0 1 1 0-.974h2.24c.27 0 .487.218.487.487z" fill="#451810"/><path fill="#451810" d="M234.932 363.066v-27.298h38.136v27.298z"/><path fill="#70291b" d="M237.856 360.142v-21.45h32.288v21.45z"/><path clip-path="url(#Q)" d="M-45.534 209.35l29.33 16.933v33.867l-29.33 16.933-29.33-16.933v-33.867z" transform="rotate(-150 158.78 172.056) scale(.27163)" stroke="#451810" stroke-width="4.011" fill="none"/><path d="M246.197 349.264l4.145.176a3.66 3.66 0 0 1-.003-.074 3.66 3.66 0 0 1 1.897-3.204l-2.226-3.502zm11.793-6.604l-2.225 3.5a3.66 3.66 0 0 1 .066.035 3.66 3.66 0 0 1 1.825 3.245l4.147-.176zm-.177 13.514l-1.92-3.677a3.66 3.66 0 0 1-.062.04 3.66 3.66 0 0 1-3.724-.042l-1.92 3.68z" fill="#451810"/><path d="M254 346.207a3.21 3.21 0 0 0-3.21 3.21 3.21 3.21 0 0 0 3.21 3.21 3.21 3.21 0 0 0 3.21-3.21 3.21 3.21 0 0 0-3.21-3.21zm1.408.793c.907.53 1.4 1.496 1.376 2.478h-2.081a.765.765 0 0 0-.367-.614zm-2.877.034l1.045 1.812a.758.758 0 0 0-.398.632h-1.962a2.772 2.772 0 0 1 .365-1.467c.23-.4.557-.735.95-.977zm1.41 1.98a.5.5 0 0 1 .434.754.5.5 0 0 1-.686.184.5.5 0 0 1-.184-.686.5.5 0 0 1 .437-.251zm.396 1.156l.975 1.69c-.427.227-.906.35-1.391.337a2.756 2.756 0 0 1-1.301-.365l.954-1.644a.766.766 0 0 0 .763-.018z" fill="#451810"/><path clip-path="url(#R)" d="M369.332 26.022h-8.466v60.854h14.287l-5.82-6.35z" transform="rotate(90 371.509 196.38)" fill="#ccbc9a" stroke="#000" stroke-width="3.175"/><path transform="matrix(0 -1 -1 0 567.889 606.928)" d="M369.332 26.022h-8.466v60.854h14.287l-5.82-6.35z" clip-path="url(#R)" fill="#ccbc9a" stroke="#000" stroke-width="3.175"/></svg>