<svg xmlns="http://www.w3.org/2000/svg" width="256" height="256"><defs><filter id="a" x="-.051" width="1.102" y="-.024" height="1.048" color-interpolation-filters="sRGB"><feGaussianBlur stdDeviation="1.893"/></filter></defs><path d="M83.298 130.35v13.411l33.527-5.587v21.233l2.235 8.94 4.47 1.118-18.998 18.998v7.823l21.233-5.588s0 3.353 2.235 3.353 2.235-3.353 2.235-3.353l21.233 5.588v-7.823l-18.998-18.998 4.47-1.118 2.235-8.94v-21.233l33.527 5.587v-13.41L145.88 108l-6.706-15.646 1.118-6.705v-8.94h-5.446l.168-40.232S131.353 11.891 128 5.186c-3.353 6.705-6.937 31.291-6.937 31.291V76.71h-5.356v8.94l1.118 6.705L110.119 108z" transform="matrix(.85198 0 0 .85198 18.946 .768)" filter="url(#a)"/></svg>