<?xml version="1.0" encoding="UTF-8" standalone="no"?>
<svg
   xmlns:dc="http://purl.org/dc/elements/1.1/"
   xmlns:cc="http://creativecommons.org/ns#"
   xmlns:rdf="http://www.w3.org/1999/02/22-rdf-syntax-ns#"
   xmlns:svg="http://www.w3.org/2000/svg"
   xmlns="http://www.w3.org/2000/svg"
   xmlns:sodipodi="http://sodipodi.sourceforge.net/DTD/sodipodi-0.dtd"
   xmlns:inkscape="http://www.inkscape.org/namespaces/inkscape"
   width="512"
   height="512"
   viewBox="0 0 135.466 135.466"
   version="1.1"
   id="svg6"
   sodipodi:docname="map-tree-08.svg"
   inkscape:version="0.92.2 (5c3e80d, 2017-08-06)">
  <metadata
     id="metadata12">
    <rdf:RDF>
      <cc:Work
         rdf:about="">
        <dc:format>image/svg+xml</dc:format>
        <dc:type
           rdf:resource="http://purl.org/dc/dcmitype/StillImage" />
        <dc:title />
      </cc:Work>
    </rdf:RDF>
  </metadata>
  <defs
     id="defs10" />
  <sodipodi:namedview
     pagecolor="#ffffff"
     bordercolor="#666666"
     borderopacity="1"
     objecttolerance="10"
     gridtolerance="10"
     guidetolerance="10"
     inkscape:pageopacity="0"
     inkscape:pageshadow="2"
     inkscape:window-width="1920"
     inkscape:window-height="1017"
     id="namedview8"
     showgrid="false"
     inkscape:zoom="0.65186405"
     inkscape:cx="-599.35303"
     inkscape:cy="315.00251"
     inkscape:window-x="1912"
     inkscape:window-y="-8"
     inkscape:window-maximized="1"
     inkscape:current-layer="svg6" />
  <path
     d="m 126.22259,101.18304 c -3.57035,6.00196 -11.34749,3.60838 -16.34678,8.51162 -4.9993,4.90324 -2.35956,13.09666 -8.43557,16.55094 -6.078009,3.45829 -11.927869,-3.022 -18.706342,-1.29485 -6.778473,1.72914 -8.141373,10.21475 -15.156002,10.17472 -7.014629,-0.04 -9.025956,-8.44959 -15.756398,-10.32282 -6.72844,-1.87324 -12.079971,4.04667 -18.147975,0.58038 -6.070006,-3.47029 -3.162087,-11.01528 -8.129365,-15.94454 -4.969279,-4.92925 -12.71439,-2.16543 -16.2006909,-8.22543 C 5.8591678,95.149054 11.949187,89.435278 10.11998,82.688819 8.2907724,75.94036 0.02932071,74.051111 0.03532468,67.092512 0.04332996,60.135915 8.7991079,58.41878 10.610303,51.698339 12.4235,44.979899 6.0212748,39.542305 9.6056401,33.534335 13.188004,27.526364 20.761002,30.162106 25.716272,25.218839 30.671542,20.275572 28.348008,12.834655 34.422017,9.3923802 40.494023,5.9501052 46.079709,12.360341 52.858183,10.561152 59.636656,8.7599622 61.055592,0.35040417 68.062216,0.34039817 c 7.010626,-0.01201 8.299477,7.99728503 15.031919,9.84450583 6.734444,1.84722 12.754417,-4.5470048 18.788395,-1.0386868 6.03598,3.5083188 3.30818,11.5876578 8.20341,16.5649468 4.89523,4.97729 12.85649,2.237479 16.3608,8.289479 3.50431,6.054001 -3.14608,11.533622 -1.40493,18.286084 1.74115,6.752463 10.39686,8.387544 10.38886,15.360152 -0.006,6.970606 -8.34351,8.911889 -10.20473,15.630329 -1.86123,6.716439 4.56501,11.905869 0.99665,17.905832 z"
     id="path2"
     style="fill:#a85d0c;fill-opacity:0.86274511;stroke-width:2.00132155"
     inkscape:connector-curvature="0" />
  <path
     d="m 83.245848,81.80448 c -0.96014,1.097746 -4.945032,1.442388 -6.187566,2.182727 -1.242533,0.733957 -3.501685,4.097396 -4.907379,4.403744 -1.41197,0.319111 -4.832074,-1.787027 -6.269146,-1.933818 -1.430796,-0.146797 -5.196048,1.219008 -6.513887,0.631842 -1.317838,-0.587166 -2.874143,-4.339922 -3.953515,-5.310023 -1.073097,-0.976482 -4.913655,-2.118903 -5.635328,-3.382586 -0.727949,-1.270065 0.181987,-5.233435 -0.125509,-6.663055 -0.313771,-1.429623 -2.748634,-4.652653 -2.6043,-6.107803 0.13806,-1.461532 3.162813,-4.122925 3.746427,-5.463194 0.577339,-1.340272 0.464381,-5.405757 1.418245,-6.503502 0.960139,-1.084979 4.945032,-1.436003 6.187565,-2.16996 1.248809,-0.746722 3.501685,-4.10378 4.913655,-4.416509 1.405694,-0.306347 4.832074,1.787027 6.26287,1.9402 1.430796,0.146797 5.202325,-1.22539 6.520163,-0.638224 1.317838,0.593549 2.874143,4.339922 3.953515,5.316404 1.066822,0.976483 4.90738,2.118904 5.635329,3.382587 0.721673,1.270066 -0.188263,5.233435 0.125508,6.663056 0.30122,1.42962 2.748634,4.65265 2.6043,6.107802 -0.144335,1.45515 -3.169088,4.122925 -3.746427,5.463195 -0.583614,1.340269 -0.464381,5.405756 -1.42452,6.497117 z"
     id="path4"
     style="fill:#834400;fill-opacity:1;stroke:#1b1917;stroke-width:4.07562113"
     inkscape:connector-curvature="0" />
</svg>
