<?xml version="1.0" encoding="UTF-8" standalone="no"?>
<svg
   xmlns:dc="http://purl.org/dc/elements/1.1/"
   xmlns:cc="http://creativecommons.org/ns#"
   xmlns:rdf="http://www.w3.org/1999/02/22-rdf-syntax-ns#"
   xmlns:svg="http://www.w3.org/2000/svg"
   xmlns="http://www.w3.org/2000/svg"
   xmlns:sodipodi="http://sodipodi.sourceforge.net/DTD/sodipodi-0.dtd"
   xmlns:inkscape="http://www.inkscape.org/namespaces/inkscape"
   width="140"
   height="102"
   viewBox="0 0 37.042 26.988"
   version="1.1"
   id="svg42"
   sodipodi:docname="map-chest-03x.svg"
   inkscape:version="0.92.2 (5c3e80d, 2017-08-06)">
  <metadata
     id="metadata46">
    <rdf:RDF>
      <cc:Work
         rdf:about="">
        <dc:format>image/svg+xml</dc:format>
        <dc:type
           rdf:resource="http://purl.org/dc/dcmitype/StillImage" />
        <dc:title />
      </cc:Work>
    </rdf:RDF>
  </metadata>
  <sodipodi:namedview
     pagecolor="#ffffff"
     bordercolor="#666666"
     borderopacity="1"
     objecttolerance="10"
     gridtolerance="10"
     guidetolerance="10"
     inkscape:pageopacity="0"
     inkscape:pageshadow="2"
     inkscape:window-width="1920"
     inkscape:window-height="1057"
     id="namedview44"
     showgrid="true"
     inkscape:showpageshadow="false"
     inkscape:zoom="4.0571428"
     inkscape:cx="30.416076"
     inkscape:cy="59.245018"
     inkscape:window-x="-8"
     inkscape:window-y="-8"
     inkscape:window-maximized="1"
     inkscape:current-layer="svg42">
    <inkscape:grid
       type="xygrid"
       id="grid859"
       empspacing="4"
       spacingy="1.0583529"
       spacingx="1.0583429" />
  </sodipodi:namedview>
  <defs
     id="defs20">
    <clipPath
       id="f">
      <path
         fill="#eda500"
         stroke-width="2.114"
         stroke-miterlimit="10"
         d="M-307.054 16.14h5.821v5.821h-5.821z"
         id="path2" />
    </clipPath>
    <clipPath
       id="a">
      <rect
         rx="0"
         y="-4.233"
         x="-301.233"
         height="37.042"
         width="26.988"
         fill="#ed9000"
         stroke-width="1.713"
         id="rect5" />
    </clipPath>
    <clipPath
       id="b">
      <path
         d="M-4.763 273.187v-5.82h28.575v5.82z"
         fill="#4d2600"
         stroke-width="3.532"
         id="path8" />
    </clipPath>
    <clipPath
       id="c">
      <path
         d="M-4.763 273.187v-5.82h28.575v5.82z"
         fill="#4d2600"
         stroke-width="3.532"
         id="path11" />
    </clipPath>
    <clipPath
       id="d">
      <path
         d="M-4.763 273.187v-5.82h28.575v5.82z"
         fill="#4d2600"
         stroke-width="3.532"
         id="path14" />
    </clipPath>
    <clipPath
       id="e">
      <path
         d="M-4.763 273.187v-5.82h28.575v5.82z"
         fill="#4d2600"
         stroke-width="3.532"
         id="path17" />
    </clipPath>
  </defs>
  <rect
     clip-path="url(#a)"
     rx="0"
     y="-4.233"
     x="-301.233"
     height="37.042"
     width="26.988"
     transform="rotate(-90 -135.006 -139.24)"
     id="rect22"
     stroke-width="3.175"
     stroke="#191919"
     fill="#7d3e00"
     style="fill:#5a2d00;fill-opacity:1" />
  <path
     transform="translate(8.996 -250.433)"
     clip-path="url(#b)"
     d="M-4.763 273.187v-5.82h28.575v5.82z"
     fill="#4d2600"
     stroke="#191919"
     stroke-width="3.175"
     id="path24"
     style="fill:#8e4600;fill-opacity:1" />
  <path
     transform="translate(8.996 -254.666)"
     clip-path="url(#c)"
     d="M-4.763 273.187v-5.82h28.575v5.82z"
     fill="#4d2600"
     stroke="#191919"
     stroke-width="3.175"
     id="path26"
     style="fill:#8e4600;fill-opacity:1" />
  <path
     transform="translate(8.996 -258.9)"
     clip-path="url(#d)"
     d="M-4.763 273.187v-5.82h28.575v5.82z"
     fill="#4d2600"
     stroke="#191919"
     stroke-width="3.175"
     id="path28"
     style="fill:#8e4600;fill-opacity:1" />
  <path
     transform="translate(8.996 -263.133)"
     clip-path="url(#e)"
     d="M-4.763 273.187v-5.82h28.575v5.82z"
     fill="#4d2600"
     stroke="#191919"
     stroke-width="3.175"
     id="path30"
     style="fill:#8e4600;fill-opacity:1" />
  <circle
     r="1.852"
     stroke-miterlimit="10"
     cy="21.96"
     cx="5.027"
     fill="#777"
     stroke="#191919"
     stroke-width="1.058"
     id="circle32"
     style="fill:#bf6421;fill-opacity:1" />
  <circle
     r="1.852"
     stroke-miterlimit="10"
     cy="5.027"
     cx="5.064"
     fill="#777"
     stroke="#191919"
     stroke-width="1.058"
     id="circle34"
     style="fill:#bf6421;fill-opacity:1" />
  <circle
     r="1.852"
     stroke-miterlimit="10"
     cy="5.026"
     cx="32.03"
     fill="#777"
     stroke="#191919"
     stroke-width="1.058"
     id="circle36"
     style="fill:#bf6421;fill-opacity:1" />
  <circle
     r="1.852"
     stroke-miterlimit="10"
     cy="21.942"
     cx="32.003"
     fill="#777"
     stroke="#191919"
     stroke-width="1.058"
     id="circle38"
     style="fill:#bf6421;fill-opacity:1" />
  <path
     d="M-307.054 16.14h5.821v5.821h-5.821z"
     stroke-miterlimit="10"
     clip-path="url(#f)"
     transform="rotate(-90 -140.298 -139.77)"
     fill="#777"
     stroke="#191919"
     stroke-width="3.175"
     id="path40"
     style="fill:#bf6421;fill-opacity:1" />
  <path
     inkscape:connector-curvature="0"
     style="fill:#ffffff;fill-opacity:1;stroke:none;stroke-width:3.66714621;stroke-linecap:square;stroke-linejoin:miter;stroke-miterlimit:4;stroke-dasharray:none;stroke-opacity:1"
     d="m 21.311025,8.2296586 0.418209,0.418207 -0.168466,0.3337085 0.112841,0.1508044 v 4.4997405 c 1.238224,0.421871 2.394691,0.817004 4.299729,2.346667 v -4.158009 l 0.11284,-0.15028 -0.168464,-0.333711 0.418206,-0.418206 0.418744,0.418206 -0.168989,0.333711 0.113368,0.15028 v 4.875701 c 0.168652,0.19357 0.326588,0.391803 0.464732,0.597897 h -2.173394 c -1.415369,-1.251668 -3.812254,-2.093711 -6.469382,-2.093711 -2.65685,0 -5.054284,0.842043 -6.469379,2.093711 H 9.8782255 c 0.1508615,-0.226421 0.3258705,-0.44407 0.5139355,-0.655119 v -4.818479 l 0.112853,-0.15028 -0.168465,-0.333711 0.418206,-0.418741 0.418744,0.418741 -0.168466,0.333711 0.113368,0.15028 v 4.115761 c 1.855391,-1.487179 3.015286,-1.892608 4.250527,-2.307093 V 9.1462823 l 0.11284,-0.1502816 -0.168465,-0.3337098 0.418208,-0.4187416 0.418209,0.4187416 -0.168465,0.3337098 0.112839,0.1502816 v 4.2628287 c 1.38678,-0.240142 3.499529,-0.254136 4.853773,0 V 9.1323785 L 21.060733,8.9815741 20.892269,8.6478656 Z m -2.795893,2.2979984 c 0.608185,-3.28e-4 1.216502,0.03488 1.563197,0.105368 v 0.55244 c -0.693389,-0.208012 -2.433006,-0.216219 -3.126395,0.01006 v -0.559927 c 0.346694,-0.07179 0.955012,-0.107699 1.563198,-0.108042 z m 3.979387,0.644962 c 0.945874,0.24858 1.825073,0.571267 2.61353,0.957813 v 0.600035 c -0.776941,-0.401088 -1.657011,-0.737094 -2.61353,-0.994714 z m -7.94701,5.46e-4 v 0.562602 c -0.956564,0.257619 -1.836312,0.594205 -2.61353,0.995246 v -0.60057 c 0.788458,-0.386543 1.66715,-0.708972 2.61353,-0.957278 z m 3.967623,0.884546 c 0.608185,-3.28e-4 1.216502,0.03489 1.563197,0.105368 v 0.552439 c -0.693389,-0.208011 -2.433006,-0.215684 -3.126395,0.01068 v -0.560462 c 0.346694,-0.07179 0.955012,-0.107699 1.563198,-0.108018 z m -3.967623,0.704856 v 0.571158 c -0.974045,0.30607 -1.856041,0.707164 -2.61353,1.183495 v -0.628382 c 0.77341,-0.45362 1.653432,-0.834976 2.61353,-1.126271 z m 7.94701,0 c 0.960648,0.29157 1.840169,0.672651 2.61353,1.126271 v 0.628382 c -0.75781,-0.476103 -1.63921,-0.877425 -2.61353,-1.183495 z"
     id="path980"
     sodipodi:nodetypes="ccccccccccccccccsccccccccccccccccccccccccccccccccccccccccccccccccccccccccccc" />
  <path
     style="fill:#9be2ff;fill-opacity:0.48627451;stroke-width:1.71300006"
     d="m 37.042176,26.988 -37.04235352941,-1e-6 1.05882e-6,-13.758587 H 37.042178 Z"
     id="rect864"
     inkscape:connector-curvature="0"
     sodipodi:nodetypes="ccccc" />
</svg>
