<?xml version="1.0" encoding="UTF-8" standalone="no"?>
<!-- Created with Inkscape (http://www.inkscape.org/) -->

<svg
   xmlns:dc="http://purl.org/dc/elements/1.1/"
   xmlns:cc="http://creativecommons.org/ns#"
   xmlns:rdf="http://www.w3.org/1999/02/22-rdf-syntax-ns#"
   xmlns:svg="http://www.w3.org/2000/svg"
   xmlns="http://www.w3.org/2000/svg"
   xmlns:sodipodi="http://sodipodi.sourceforge.net/DTD/sodipodi-0.dtd"
   xmlns:inkscape="http://www.inkscape.org/namespaces/inkscape"
   width="256"
   height="256"
   viewBox="0 0 67.733332 67.733335"
   version="1.1"
   id="svg10588"
   inkscape:version="0.92.1 r15371"
   sodipodi:docname="map-tree-01.svg">
  <defs
     id="defs10582" />
  <sodipodi:namedview
     id="base"
     pagecolor="#ffffff"
     bordercolor="#666666"
     borderopacity="1.0"
     inkscape:pageopacity="0.0"
     inkscape:pageshadow="2"
     inkscape:zoom="2"
     inkscape:cx="114.32276"
     inkscape:cy="95.59518"
     inkscape:document-units="mm"
     inkscape:current-layer="layer1"
     showgrid="true"
     units="px"
     inkscape:window-width="1920"
     inkscape:window-height="1018"
     inkscape:window-x="1912"
     inkscape:window-y="-8"
     inkscape:window-maximized="1">
    <inkscape:grid
       type="xygrid"
       id="grid11143" />
  </sodipodi:namedview>
  <metadata
     id="metadata10585">
    <rdf:RDF>
      <cc:Work
         rdf:about="">
        <dc:format>image/svg+xml</dc:format>
        <dc:type
           rdf:resource="http://purl.org/dc/dcmitype/StillImage" />
        <dc:title></dc:title>
      </cc:Work>
    </rdf:RDF>
  </metadata>
  <g
     inkscape:label="Layer 1"
     inkscape:groupmode="layer"
     id="layer1"
     transform="translate(0,-229.26665)">
    <path
       sodipodi:type="star"
       style="fill:#3e502e;fill-opacity:1;stroke:none;stroke-width:1.01840234;stroke-miterlimit:4;stroke-dasharray:none;stroke-opacity:1"
       id="path10592"
       sodipodi:sides="12"
       sodipodi:cx="8.15172"
       sodipodi:cy="266.46445"
       sodipodi:r1="11.528661"
       sodipodi:r2="10.145222"
       sodipodi:arg1="0.52849164"
       sodipodi:arg2="0.79029103"
       inkscape:flatsided="false"
       inkscape:rounded="0.38"
       inkscape:randomized="0.005"
       d="m 18.131074,272.22729 c -0.609287,1.02821 -1.937149,0.61815 -2.79051,1.45813 -0.85336,0.83999 -0.402752,2.24377 -1.440253,2.83604 -1.037502,0.59228 -2.036136,-0.51805 -3.193308,-0.22204 -1.1571727,0.296 -1.3897212,1.74983 -2.5873556,1.74306 -1.1976345,-0.007 -1.5408708,-1.44757 -2.689703,-1.76852 -1.1488323,-0.32094 -2.062274,0.69346 -3.0983225,0.0992 -1.0360486,-0.5943 -0.5399298,-1.88698 -1.38793281,-2.73145 -0.84800301,-0.84447 -2.17033459,-0.3711 -2.76537309,-1.4096 -0.5950385,-1.03851 0.4447411,-2.01773 0.1324547,-3.17362 -0.3122864,-1.15589 -1.722819,-1.47984 -1.721571,-2.67181 0.00125,-1.19198 1.4959983,-1.48623 1.8053734,-2.63746 0.309375,-1.15123 -0.7835288,-2.0829 -0.1718046,-3.11222 0.6117243,-1.02933 1.9046041,-0.57755 2.75054418,-1.42454 0.84594002,-0.84699 0.44915122,-2.12196 1.48593992,-2.71171 1.0367886,-0.58975 1.9904301,0.5086 3.1476196,0.20024 1.1571896,-0.30837 1.3988054,-1.74923 2.5955876,-1.75112 1.1967821,-0.002 1.4167541,1.3703 2.5661882,1.68681 1.149433,0.31652 2.177189,-0.77889 3.20739,-0.17789 1.030201,0.601 0.564568,1.98493 1.400363,2.83787 0.835795,0.85294 2.194628,0.38332 2.793031,1.42036 0.598403,1.03705 -0.537108,1.97583 -0.239748,3.13288 0.297359,1.15705 1.774676,1.43717 1.773474,2.63156 -0.0012,1.19438 -1.424404,1.52679 -1.74199,2.67771 -0.317586,1.15093 0.779193,2.03995 0.169906,3.06816 z"
       transform="matrix(2.9269258,0,0,2.9164421,10.023406,-514.08732)" />
    <path
       sodipodi:type="star"
       style="fill:#462d12;fill-opacity:1;stroke:#1b1917;stroke-width:0.64358371;stroke-miterlimit:4;stroke-dasharray:none;stroke-opacity:1"
       id="path11141"
       sodipodi:sides="10"
       sodipodi:cx="22.346678"
       sodipodi:cy="274.63733"
       sodipodi:r1="3.3126872"
       sodipodi:r2="2.9482915"
       sodipodi:arg1="0.72831738"
       sodipodi:arg2="1.0424766"
       inkscape:flatsided="false"
       inkscape:rounded="0.22"
       inkscape:randomized="0"
       d="m 24.818921,276.8423 c -0.1528,0.17132 -0.787797,0.22562 -0.98606,0.34134 -0.198263,0.11572 -0.557829,0.64191 -0.782147,0.6907 -0.224319,0.0488 -0.769955,-0.28053 -0.998371,-0.30345 -0.228416,-0.0229 -0.8286,0.19144 -1.038755,0.0991 -0.210154,-0.0924 -0.458015,-0.67952 -0.629337,-0.83232 -0.171321,-0.1528 -0.782874,-0.33217 -0.898593,-0.53043 -0.115719,-0.19827 0.02887,-0.81896 -0.01992,-1.04328 -0.04879,-0.22432 -0.438117,-0.72889 -0.415199,-0.9573 0.02292,-0.22842 0.504728,-0.64559 0.597108,-0.85574 0.09238,-0.21015 0.07399,-0.8472 0.226786,-1.01852 0.152801,-0.17133 0.787797,-0.22562 0.98606,-0.34134 0.198264,-0.11572 0.55783,-0.64191 0.782148,-0.6907 0.224318,-0.0488 0.769954,0.28053 0.99837,0.30345 0.228416,0.0229 0.828601,-0.19144 1.038755,-0.0991 0.210155,0.0924 0.458016,0.67952 0.629337,0.83232 0.171322,0.1528 0.782875,0.33217 0.898594,0.53043 0.115718,0.19826 -0.02887,0.81896 0.01992,1.04328 0.04879,0.22432 0.438117,0.72889 0.4152,0.9573 -0.02292,0.22842 -0.504728,0.64558 -0.597109,0.85574 -0.09238,0.21015 -0.07399,0.8472 -0.226786,1.01852 z"
       inkscape:transform-center-x="0.017363762"
       inkscape:transform-center-y="-0.026221785"
       transform="matrix(3.1356449,0,0,3.189013,-36.20458,-612.6887)" />
  </g>
</svg>
