<?xml version="1.0" encoding="UTF-8" standalone="no"?>
<svg
   xmlns:dc="http://purl.org/dc/elements/1.1/"
   xmlns:cc="http://creativecommons.org/ns#"
   xmlns:rdf="http://www.w3.org/1999/02/22-rdf-syntax-ns#"
   xmlns:svg="http://www.w3.org/2000/svg"
   xmlns="http://www.w3.org/2000/svg"
   xmlns:sodipodi="http://sodipodi.sourceforge.net/DTD/sodipodi-0.dtd"
   xmlns:inkscape="http://www.inkscape.org/namespaces/inkscape"
   width="140"
   height="102"
   viewBox="0 0 37.042 26.988"
   version="1.1"
   id="svg32"
   sodipodi:docname="map-case-flare-01.svg"
   inkscape:version="0.92.2 (5c3e80d, 2017-08-06)">
  <metadata
     id="metadata36">
    <rdf:RDF>
      <cc:Work
         rdf:about="">
        <dc:format>image/svg+xml</dc:format>
        <dc:type
           rdf:resource="http://purl.org/dc/dcmitype/StillImage" />
      </cc:Work>
    </rdf:RDF>
  </metadata>
  <sodipodi:namedview
     pagecolor="#ffffff"
     bordercolor="#666666"
     borderopacity="1"
     objecttolerance="10"
     gridtolerance="10"
     guidetolerance="10"
     inkscape:pageopacity="0"
     inkscape:pageshadow="2"
     inkscape:window-width="1920"
     inkscape:window-height="1017"
     id="namedview34"
     showgrid="false"
     inkscape:zoom="2.8688332"
     inkscape:cx="7.653901"
     inkscape:cy="68.024252"
     inkscape:window-x="1912"
     inkscape:window-y="-8"
     inkscape:window-maximized="1"
     inkscape:current-layer="svg32" />
  <defs
     id="defs8">
    <clipPath
       id="a">
      <rect
         ry="2.117"
         height="26.988"
         width="37.042"
         rx="2.117"
         fill="#282828"
         stroke-width="5.608"
         id="rect2" />
    </clipPath>
    <clipPath
       id="b">
      <path
         d="M-45.534 209.35l29.33 16.933v33.867l-29.33 16.933-29.33-16.933v-33.867z"
         fill-opacity=".506"
         stroke="#fff"
         stroke-width="2.117"
         stroke-opacity=".502"
         id="path5" />
    </clipPath>
  </defs>
  <rect
     rx="2.117"
     width="37.042"
     height="26.988"
     ry="2.117"
     clip-path="url(#a)"
     fill="#282828"
     stroke-width="3.175"
     stroke="#191919"
     id="rect10"
     style="fill:#c64508;fill-opacity:1" />
  <rect
     width="2.117"
     height="30.692"
     x="2.646"
     y="-33.867"
     ry="1.058"
     transform="rotate(90)"
     rx="1.058"
     fill="#5b5b5b"
     stroke="#191919"
     stroke-width="1.058"
     id="rect12"
     style="fill:#913307;fill-opacity:1" />
  <rect
     rx="1.058"
     transform="rotate(90)"
     ry="1.058"
     y="-33.867"
     x="22.225"
     height="30.692"
     width="2.117"
     fill="#5b5b5b"
     stroke="#191919"
     stroke-width="1.058"
     id="rect14"
     style="fill:#913307;fill-opacity:1" />
  <rect
     width="2.117"
     height="4.763"
     x="17.463"
     y="-7.937"
     ry="1.058"
     transform="rotate(90)"
     rx="1.058"
     fill="#5b5b5b"
     stroke="#191919"
     stroke-width="1.058"
     id="rect16"
     style="fill:#913307;fill-opacity:1" />
  <rect
     rx="1.058"
     transform="rotate(90)"
     ry="1.058"
     y="-7.937"
     x="12.435"
     height="4.763"
     width="2.117"
     fill="#5b5b5b"
     stroke="#191919"
     stroke-width="1.058"
     id="rect18"
     style="fill:#913307;fill-opacity:1" />
  <rect
     width="2.117"
     height="4.763"
     x="7.408"
     y="-7.937"
     ry="1.058"
     transform="rotate(90)"
     rx="1.058"
     fill="#5b5b5b"
     stroke="#191919"
     stroke-width="1.058"
     id="rect20"
     style="fill:#913307;fill-opacity:1" />
  <rect
     rx="1.058"
     transform="rotate(90)"
     ry="1.058"
     y="-33.867"
     x="17.463"
     height="4.763"
     width="2.117"
     fill="#5b5b5b"
     stroke="#191919"
     stroke-width="1.058"
     id="rect22"
     style="fill:#913307;fill-opacity:1" />
  <rect
     width="2.117"
     height="4.763"
     x="12.435"
     y="-33.867"
     ry="1.058"
     transform="rotate(90)"
     rx="1.058"
     fill="#5b5b5b"
     stroke="#191919"
     stroke-width="1.058"
     id="rect24"
     style="fill:#913307;fill-opacity:1" />
  <rect
     rx="1.058"
     transform="rotate(90)"
     ry="1.058"
     y="-33.867"
     x="7.408"
     height="4.763"
     width="2.117"
     fill="#5b5b5b"
     stroke="#191919"
     stroke-width="1.058"
     id="rect26"
     style="fill:#913307;fill-opacity:1" />
  <path
     style="fill:#ffd600;fill-opacity:1;stroke:none;stroke-width:0.3843199;stroke-opacity:1"
     d="m 21.645998,9.8784263 -3.6546,2.1096407 -1.118967,-1.937873 -0.332193,0.19185 c 0.239035,1.180783 -0.235747,2.277024 -0.938458,2.978163 0.923964,0.111292 1.78099,1.038872 1.78099,1.038872 l 0.639579,1.107391 c 0.383594,0.664484 1.175909,0.502306 1.175909,0.502306 l 1.993396,-1.150864 c 0,0 0.536461,-0.605106 0.152865,-1.26947 l -0.383463,-0.664623 c -0.191857,-0.332302 -0.04287,-0.713447 0.233905,-0.873248 l 1.107391,-0.639578 c 0.0554,-0.03194 0.07895,-0.119199 0.04702,-0.174603 z m -0.188306,0.5460167 a 0.22379345,0.22379345 0 0 1 0.199174,0.111991 0.22379345,0.22379345 0 0 1 -0.08198,0.305731 0.22379345,0.22379345 0 0 1 -0.30573,-0.08198 0.22379345,0.22379345 0 0 1 0.08198,-0.305732 0.22379345,0.22379345 0 0 1 0.106556,-0.03001 z m -2.771665,1.785008 a 0.22379345,0.22379345 0 0 1 0.199175,0.111755 0.22379345,0.22379345 0 0 1 -0.08199,0.305732 0.22379345,0.22379345 0 0 1 -0.30573,-0.08199 0.22379345,0.22379345 0 0 1 0.08198,-0.305495 0.22379345,0.22379345 0 0 1 0.106556,-0.03001 z m 1.188667,0.610991 c 0.570975,-0.03424 1.178093,1.017881 0.863089,1.495106 l -1.661203,0.959013 c -0.570977,0.03423 -1.17833,-1.017882 -0.863325,-1.495106 z m -2.442071,0.223273 a 0.22379345,0.22379345 0 0 1 0.199175,0.111991 0.22379345,0.22379345 0 0 1 -0.08199,0.305731 0.22379345,0.22379345 0 0 1 -0.305731,-0.08198 0.22379345,0.22379345 0 0 1 0.08198,-0.305732 0.22379345,0.22379345 0 0 1 0.106558,-0.03 z m -2.399542,0.726053 c -0.498273,0.287907 -1.802586,3.720246 -0.780394,5.349825 0.898803,1.474376 2.83234,1.25535 3.348396,0.673366 0.26831,-0.302545 -0.325341,-0.992328 -0.325341,-0.992328 -0.353715,-0.361335 -1.546926,-2.43031 0.190195,-3.385727 -0.375005,-0.754607 -1.337835,-1.538925 -2.432856,-1.645136 z m 0.111046,3.328785 a 0.17830894,0.17830894 0 0 1 0.158537,0.08907 0.17830894,0.17830894 0 0 1 -0.06521,0.243592 0.17830894,0.17830894 0 0 1 -0.243592,-0.06521 0.17830894,0.17830894 0 0 1 0.06521,-0.243593 0.17830894,0.17830894 0 0 1 0.08506,-0.02386 z m 1.833207,2.077745 a 0.29335087,0.29335087 0 0 1 0.260841,0.146722 0.29335087,0.29335087 0 0 1 -0.107266,0.400711 0.29335087,0.29335087 0 0 1 -0.400711,-0.107501 0.29335087,0.29335087 0 0 1 0.107265,-0.400712 0.29335087,0.29335087 0 0 1 0.139871,-0.03922 z"
     id="path2"
     inkscape:connector-curvature="0" />
  <path
     inkscape:connector-curvature="0"
     style="fill:#ffd600;fill-opacity:1;stroke-width:0.12096943"
     d="m 18.573342,13.763253 c -0.117099,0.4367 0.270971,0.981062 0.707671,1.09804 0.06254,0.03774 0.144196,-0.05806 0.07875,-0.119397 -0.739244,-0.385288 -0.392546,-1.051225 -0.343553,-1.234372 z"
     id="path4" />
  <path
     style="fill:#ffd600;fill-opacity:1;stroke:none;stroke-width:0.3843199"
     d="m 22.203119,6.7509414 c -1.824582,1.0536442 -3.371397,1.9465719 -4.980774,2.8758593 l 0.956169,1.6626263 4.991643,-2.8820023 C 23.017009,7.9052801 22.569647,7.129823 22.203109,6.7509474 Z M 21.90046,7.8590403 c 0.08049,0.00341 0.155823,0.044495 0.19752,0.1167168 0.06672,0.1155545 0.02157,0.2656091 -0.101123,0.3364461 L 18.89607,10.102409 c -0.122693,0.07084 -0.275165,0.03499 -0.34188,-0.08057 C 18.48747,9.9062851 18.53238,9.7562303 18.655076,9.6853933 L 21.756099,7.894953 c 0.04601,-0.026564 0.09607,-0.037958 0.144361,-0.035913 z"
     id="path6"
     inkscape:connector-curvature="0" />
  <path
     inkscape:connector-curvature="0"
     style="fill:#ffd600;fill-opacity:1;stroke:#ffd600;stroke-width:0.3843199;stroke-opacity:1"
     d="m 14.702078,10.638734 c -0.03194,-0.0554 0.896867,0.146736 1.403729,0.0017 0,0 0.0024,0.51545 -0.04452,0.69013 -0.300609,-0.38202 -1.263284,-0.525731 -1.359213,-0.691822 z"
     id="path16" />
  <path
     inkscape:connector-curvature="0"
     style="fill:#ffd600;fill-opacity:1;stroke-width:0.12096943"
     d="m 17.46889,10.444094 0.332304,-0.191858 0.159922,0.27702 -0.332303,0.191737 z"
     id="path18" />
</svg>
