<svg xmlns="http://www.w3.org/2000/svg" width="136" height="768" viewBox="0 0 35.983 203.2"><defs><clipPath id="a"><path fill="#673500" stroke-width="2.799" stroke-linecap="round" stroke-opacity=".384" d="M2.117 173.567h33.867v8.731H2.117z"/></clipPath><pattern patternUnits="userSpaceOnUse" width="128" height="168" patternTransform="translate(1.058 -47.625) scale(.26458)" id="b"><path fill="none" stroke-width="3.78" d="M0 0h128v168H0z"/><path transform="rotate(-90)" fill="#5e2d03" stroke-width="17.32" stroke-miterlimit="10" d="M-168 0H0v128h-168z"/><path transform="rotate(-90)" fill-opacity=".294" stroke-width="7.542" stroke-miterlimit="10" d="M-4 4h4v120h-4z"/><path fill-opacity=".294" stroke-width="8.924" stroke-miterlimit="10" d="M0 0h4v168H0zm124 0h4v168h-4z"/><path transform="rotate(-90)" fill-opacity=".294" stroke-width="7.542" stroke-miterlimit="10" d="M-32 4h4v120h-4zm-28 0h4v120h-4zm-28 0h4v120h-4zm-28 0h4v120h-4zm-28 0h4v120h-4z"/></pattern></defs><path clip-path="url(#a)" transform="rotate(-2.746 -218.24 194.332)" fill="#5e2d03" stroke="#000" stroke-width="2.117" stroke-linecap="round" stroke-opacity=".294" d="M2.117 173.567h33.867v8.731H2.117z"/><path d="M1.058 0h33.867v160.939H1.058z" fill="url(#b)"/><path transform="rotate(2.195 40.997 149.874)" clip-path="url(#a)" fill="#5e2d03" stroke="#000" stroke-width="2.117" stroke-linecap="round" stroke-opacity=".294" d="M2.117 173.567h33.867v8.731H2.117z"/><path clip-path="url(#a)" transform="rotate(-2.196 268.674 210.34)" fill="#5e2d03" stroke="#000" stroke-width="2.117" stroke-linecap="round" stroke-opacity=".294" d="M2.117 173.567h33.867v8.731H2.117z"/><path transform="rotate(2.292 -479.155 161.441)" clip-path="url(#a)" fill="#5e2d03" stroke="#000" stroke-width="2.117" stroke-linecap="round" stroke-opacity=".294" d="M2.117 173.567h33.867v8.731H2.117z"/></svg>