<?xml version="1.0" encoding="UTF-8" standalone="no"?>
<svg
   xmlns:dc="http://purl.org/dc/elements/1.1/"
   xmlns:cc="http://creativecommons.org/ns#"
   xmlns:rdf="http://www.w3.org/1999/02/22-rdf-syntax-ns#"
   xmlns:svg="http://www.w3.org/2000/svg"
   xmlns="http://www.w3.org/2000/svg"
   xmlns:xlink="http://www.w3.org/1999/xlink"
   xmlns:sodipodi="http://sodipodi.sourceforge.net/DTD/sodipodi-0.dtd"
   xmlns:inkscape="http://www.inkscape.org/namespaces/inkscape"
   width="1088"
   height="448"
   viewBox="0 0 287.86645 118.53335"
   version="1.1"
   id="svg125"
   sodipodi:docname="map-building-bank-floor-02.svg"
   inkscape:version="0.92.2 (5c3e80d, 2017-08-06)">
  <metadata
     id="metadata129">
    <rdf:RDF>
      <cc:Work
         rdf:about="">
        <dc:format>image/svg+xml</dc:format>
        <dc:type
           rdf:resource="http://purl.org/dc/dcmitype/StillImage" />
        <dc:title></dc:title>
      </cc:Work>
    </rdf:RDF>
  </metadata>
  <sodipodi:namedview
     pagecolor="#ffffff"
     bordercolor="#666666"
     borderopacity="1"
     objecttolerance="10"
     gridtolerance="10"
     guidetolerance="10"
     inkscape:pageopacity="0"
     inkscape:pageshadow="2"
     inkscape:window-width="1920"
     inkscape:window-height="1017"
     id="namedview127"
     showgrid="true"
     fit-margin-top="0"
     fit-margin-left="0"
     fit-margin-right="0"
     fit-margin-bottom="0"
     inkscape:zoom="0.33490566"
     inkscape:cx="568.24268"
     inkscape:cy="498.71584"
     inkscape:window-x="1912"
     inkscape:window-y="-8"
     inkscape:window-maximized="1"
     inkscape:current-layer="svg125">
    <inkscape:grid
       type="xygrid"
       id="grid936"
       empspacing="4"
       spacingy="1.0583329"
       spacingx="1.0583329"
       originx="0"
       originy="0" />
  </sodipodi:namedview>
  <defs
     id="defs95">
    <pattern
       inkscape:collect="always"
       xlink:href="#e"
       id="pattern940"
       patternTransform="matrix(0.26458,0,0,0.26458,287.86739,160.30641)" />
    <pattern
       xlink:href="#a"
       id="g"
       patternTransform="matrix(0,0.0926,-0.0926,0,177.79939,-220.13359)" />
    <pattern
       patternUnits="userSpaceOnUse"
       width="160"
       height="160"
       patternTransform="translate(142.971 268.336) scale(.26458)"
       id="a">
      <path
         fill="none"
         stroke-width="3.78"
         d="M0 0h160v160H0z"
         id="path3" />
      <path
         fill="none"
         stroke-width="3.78"
         d="M0 0h160v160H0z"
         id="path5" />
      <path
         fill="none"
         stroke-width="3.78"
         d="M0 0h160v160H0z"
         id="path7" />
      <path
         fill="#b7b7b7"
         stroke-width="18.898"
         stroke-miterlimit="10"
         d="M0 0h160v160H0z"
         id="path9" />
      <path
         fill-opacity=".354"
         stroke-width="8.709"
         stroke-miterlimit="10"
         d="M36 0h4v160h-4zm40 0h4v160h-4zm40 0h4v160h-4z"
         id="path11" />
      <path
         transform="rotate(90)"
         fill-opacity=".354"
         stroke-width="4.131"
         stroke-miterlimit="10"
         d="M36-76h4v36h-4zm120 40h4V0h-4zm-80-80h4v36h-4z"
         id="path13" />
      <path
         fill-opacity=".354"
         stroke-width="8.709"
         stroke-miterlimit="10"
         d="M156 0h4v160h-4z"
         id="path15" />
      <path
         transform="rotate(90)"
         fill-opacity=".354"
         stroke-width="4.131"
         stroke-miterlimit="10"
         d="M116-156h4v36h-4zm0 80h4v36h-4zm40-40h4v36h-4zM36-156h4v36h-4zM76-36h4V0h-4z"
         id="path17" />
    </pattern>
    <pattern
       xlink:href="#b"
       id="h"
       patternTransform="matrix(-0.0926,0,0,-0.0926,21.167392,76.200411)" />
    <pattern
       patternUnits="userSpaceOnUse"
       width="160"
       height="160"
       patternTransform="translate(142.971 268.336) scale(.26458)"
       id="b">
      <path
         fill="none"
         stroke-width="3.78"
         d="M0 0h160v160H0z"
         id="path21" />
      <path
         fill="none"
         stroke-width="3.78"
         d="M0 0h160v160H0z"
         id="path23" />
      <path
         fill="none"
         stroke-width="3.78"
         d="M0 0h160v160H0z"
         id="path25" />
      <path
         fill="#b7b7b7"
         stroke-width="18.898"
         stroke-miterlimit="10"
         d="M0 0h160v160H0z"
         id="path27" />
      <path
         fill-opacity=".354"
         stroke-width="8.709"
         stroke-miterlimit="10"
         d="M36 0h4v160h-4zm40 0h4v160h-4zm40 0h4v160h-4z"
         id="path29" />
      <path
         transform="rotate(90)"
         fill-opacity=".354"
         stroke-width="4.131"
         stroke-miterlimit="10"
         d="M36-76h4v36h-4zm120 40h4V0h-4zm-80-80h4v36h-4z"
         id="path31" />
      <path
         fill-opacity=".354"
         stroke-width="8.709"
         stroke-miterlimit="10"
         d="M156 0h4v160h-4z"
         id="path33" />
      <path
         transform="rotate(90)"
         fill-opacity=".354"
         stroke-width="4.131"
         stroke-miterlimit="10"
         d="M116-156h4v36h-4zm0 80h4v36h-4zm40-40h4v36h-4zM36-156h4v36h-4zM76-36h4V0h-4z"
         id="path35" />
    </pattern>
    <pattern
       xlink:href="#c"
       id="f"
       patternTransform="matrix(0.18708631,0.18708631,-0.18708631,0.18708631,177.79854,-143.9344)" />
    <pattern
       patternUnits="userSpaceOnUse"
       width="64"
       height="64"
       patternTransform="translate(-20.134 336.35) scale(.26458)"
       id="c">
      <path
         d="M0 0h64v64H0z"
         fill="#8b6539"
         stroke-width=".516"
         id="path39" />
      <path
         fill="none"
         stroke-width="3.78"
         d="M0 0h64v64H0z"
         id="path41" />
      <path
         fill="none"
         stroke-width="3.78"
         d="M0 0h64v64H0z"
         id="path43" />
      <path
         fill="none"
         stroke-width="1.89"
         d="M0 0h64v64H0z"
         id="path45" />
      <path
         d="M32 0h32v32H32zM0 32h32v32H0z"
         fill="#a47743"
         stroke-width=".258"
         id="path47" />
    </pattern>
    <pattern
       patternUnits="userSpaceOnUse"
       width="192"
       height="192"
       patternTransform="translate(284.666 344.816) scale(.26458)"
       id="e">
      <path
         fill="#b09a69"
         stroke-width="22.677"
         stroke-miterlimit="10"
         d="M0 0h192v192H0z"
         id="path50" />
      <path
         transform="rotate(90)"
         fill-opacity=".354"
         stroke-width="9.54"
         stroke-miterlimit="10"
         d="M92-192h4V0h-4zm-48 0h4V0h-4zm96 0h4V0h-4z"
         id="path52" />
      <path
         transform="rotate(-90)"
         fill-opacity=".354"
         stroke-width="9.54"
         stroke-miterlimit="10"
         d="M-192 0h4v192h-4z"
         id="path54" />
      <path
         fill-opacity=".354"
         stroke-width="4.567"
         stroke-miterlimit="10"
         d="M28 0h4v44h-4zm16 48h4v44h-4zm16 48h4v44h-4zm16 48h4v44h-4zm32-96h4v44h-4zM92 0h4v44h-4zm32 96h4v44h-4zm16 48h4v44h-4zm-128 0h4v44h-4zm176-48h4v44h-4zm-16-48h4v44h-4zM156 0h4v44h-4z"
         id="path56" />
    </pattern>
    <clipPath
       id="i">
      <path
         d="m 30.665,-27.165 -194.733,0.008 h -8.466 v 194.733 h 177.8 v 33.867 h 8.466 V 159.11 h -177.8 v -177.8 l 194.734,-0.008 z"
         id="path59"
         inkscape:connector-curvature="0"
         style="fill:#a3977d;stroke-width:3.92400002" />
    </clipPath>
    <clipPath
       id="j">
      <path
         d="m -3.201,264.296 v 50.8 H 39.132 V 306.63 H 5.266 v -42.334 z"
         id="path62"
         inkscape:connector-curvature="0"
         style="fill:#a3977d;stroke-width:1.87100005" />
    </clipPath>
    <clipPath
       id="k">
      <path
         d="m 140.732,311.51 v -8.467 H 81.466 v 8.467 z"
         id="path65"
         inkscape:connector-curvature="0"
         style="fill:#a3977d;stroke-width:2.21399999" />
    </clipPath>
    <clipPath
       id="l">
      <path
         d="m 211.464,269.176 v 42.334 h -33.866 v 8.466 h 42.333 v -50.8 z"
         id="path68"
         inkscape:connector-curvature="0"
         style="fill:#a3977d;stroke-width:1.87100005" />
    </clipPath>
    <clipPath
       id="m">
      <path
         d="m 216.932,-1.757 -33.866,0.008 V 6.718 L 216.932,6.71 v 50.8 h 76.2 v 110.066 h -76.2 v 59.267 h 8.467 v -50.8 h 76.2 v -127 h -76.2 v -50.8 z"
         id="path71"
         inkscape:connector-curvature="0"
         style="fill:#a3977d;stroke-width:2.21399999" />
    </clipPath>
    <clipPath
       id="n">
      <path
         d="m 132.266,-15.002 v -8.466 l -67.734,0.007 v 8.467 z"
         id="path74"
         inkscape:connector-curvature="0"
         style="fill:#a3977d;stroke-width:2.3670001" />
    </clipPath>
    <pattern
       xlink:href="#d"
       id="o"
       patternTransform="matrix(0.0926,0,0,0.0926,207.43339,25.400411)" />
    <pattern
       patternUnits="userSpaceOnUse"
       width="160"
       height="160"
       patternTransform="translate(142.971 268.336) scale(.26458)"
       id="d">
      <path
         fill="none"
         stroke-width="3.78"
         d="M0 0h160v160H0z"
         id="path78" />
      <path
         fill="none"
         stroke-width="3.78"
         d="M0 0h160v160H0z"
         id="path80" />
      <path
         fill="none"
         stroke-width="3.78"
         d="M0 0h160v160H0z"
         id="path82" />
      <path
         fill="#b7b7b7"
         stroke-width="18.898"
         stroke-miterlimit="10"
         d="M0 0h160v160H0z"
         id="path84" />
      <path
         fill-opacity=".354"
         stroke-width="8.709"
         stroke-miterlimit="10"
         d="M36 0h4v160h-4zm40 0h4v160h-4zm40 0h4v160h-4z"
         id="path86" />
      <path
         transform="rotate(90)"
         fill-opacity=".354"
         stroke-width="4.131"
         stroke-miterlimit="10"
         d="M36-76h4v36h-4zm120 40h4V0h-4zm-80-80h4v36h-4z"
         id="path88" />
      <path
         fill-opacity=".354"
         stroke-width="8.709"
         stroke-miterlimit="10"
         d="M156 0h4v160h-4z"
         id="path90" />
      <path
         transform="rotate(90)"
         fill-opacity=".354"
         stroke-width="4.131"
         stroke-miterlimit="10"
         d="M116-156h4v36h-4zm0 80h4v36h-4zm40-40h4v36h-4zM36-156h4v36h-4zM76-36h4V0h-4z"
         id="path92" />
    </pattern>
  </defs>
  <path
     d="M -160.86661,-194.73359 V 4.104635e-4 H 16.933392 V 118.53341 H 211.66739 v -313.267 z"
     id="path97"
     inkscape:connector-curvature="0"
     style="fill:url(#pattern940)" />
  <path
     d="m 279.40039,-135.46659 v 110.067001 h -71.967 V -135.46659 Z"
     id="path99"
     inkscape:connector-curvature="0"
     style="fill:url(#f)" />
  <path
     d="m 135.46739,-211.66659 h 33.866 v 16.933 h -33.866 z"
     id="path101"
     inkscape:connector-curvature="0"
     style="fill:url(#g)" />
  <path
     d="m 127.00039,-194.73359 h 50.8 v 16.933 h -50.8 z"
     id="path103"
     inkscape:connector-curvature="0"
     style="fill-opacity:0.30500004" />
  <path
     d="m 16.933392,33.866411 v 33.867 H 0.00139233 v -33.867 z"
     id="path105"
     inkscape:connector-curvature="0"
     style="fill:url(#h)" />
  <path
     d="m 203.20039,-101.59959 v 8.466001 h -93.134 V -8.4665894 H 25.400392 V 4.104635e-4 H 118.53339 V -84.666589 h 84.667 v 25.4 h 8.466 v -16.933 h 67.734 v -8.467 h -67.734 v -16.933001 z"
     id="path107"
     inkscape:connector-curvature="0"
     style="fill:#655635;fill-opacity:0.369" />
  <path
     d="m 33.867392,25.400411 v 50.8 h -16.934 v -50.8 z m 177.799998,0 v 50.8 h -16.934 v -50.8 z"
     id="path109"
     inkscape:connector-curvature="0"
     style="fill-opacity:0.30500004" />
  <path
     d="m 30.665,-27.165 -194.733,0.008 h -8.466 v 194.733 h 177.8 v 33.867 h 8.466 V 159.11 h -177.8 v -177.8 l 194.734,-0.008 z"
     clip-path="url(#i)"
     transform="translate(11.668392,-167.56859)"
     id="path111"
     inkscape:connector-curvature="0"
     style="fill:#a3977d;stroke:#050505;stroke-width:3.5" />
  <path
     clip-path="url(#j)"
     d="m -3.201,264.296 v 50.8 H 39.132 V 306.63 H 5.266 v -42.334 z"
     transform="translate(20.134392,-196.56259)"
     id="path113"
     inkscape:connector-curvature="0"
     style="fill:#a3977d;stroke:#050505;stroke-width:3.5" />
  <path
     clip-path="url(#k)"
     d="m 140.732,311.51 v -8.467 H 81.466 v 8.467 z"
     transform="translate(3.2013923,-192.97659)"
     id="path115"
     inkscape:connector-curvature="0"
     style="fill:#a3977d;stroke:#050505;stroke-width:3.5" />
  <path
     d="m 211.464,269.176 v 42.334 h -33.866 v 8.466 h 42.333 v -50.8 z"
     clip-path="url(#l)"
     transform="translate(-8.2646077,-201.44259)"
     id="path117"
     inkscape:connector-curvature="0"
     style="fill:#a3977d;stroke:#050505;stroke-width:3.5" />
  <path
     d="m 216.932,-1.757 -33.866,0.008 V 6.718 L 216.932,6.71 v 50.8 h 76.2 v 110.066 h -76.2 v 59.267 h 8.467 v -50.8 h 76.2 v -127 h -76.2 v -50.8 z"
     clip-path="url(#m)"
     transform="translate(-13.732608,-192.97659)"
     id="path119"
     inkscape:connector-curvature="0"
     style="fill:#a3977d;stroke:#050505;stroke-width:3.5" />
  <path
     clip-path="url(#n)"
     d="m 132.266,-15.002 v -8.466 l -67.734,0.007 v 8.467 z"
     transform="translate(3.2013923,-171.27259)"
     id="path121"
     inkscape:connector-curvature="0"
     style="fill:#a3977d;stroke:#050505;stroke-width:3.5" />
  <path
     d="m 211.66739,67.733411 v -33.867 h 16.933 v 33.867 z"
     id="path123"
     inkscape:connector-curvature="0"
     style="fill:url(#o)" />
</svg>
