<?xml version="1.0" encoding="UTF-8" standalone="no"?>
<svg
   xmlns:dc="http://purl.org/dc/elements/1.1/"
   xmlns:cc="http://creativecommons.org/ns#"
   xmlns:rdf="http://www.w3.org/1999/02/22-rdf-syntax-ns#"
   xmlns:svg="http://www.w3.org/2000/svg"
   xmlns="http://www.w3.org/2000/svg"
   xmlns:sodipodi="http://sodipodi.sourceforge.net/DTD/sodipodi-0.dtd"
   xmlns:inkscape="http://www.inkscape.org/namespaces/inkscape"
   width="128"
   height="64"
   viewBox="0 0 33.866667 16.933333"
   version="1.1"
   id="svg12"
   sodipodi:docname="map-woodpile-res-02.svg"
   inkscape:version="0.92.2 (5c3e80d, 2017-08-06)">
  <metadata
     id="metadata18">
    <rdf:RDF>
      <cc:Work
         rdf:about="">
        <dc:format>image/svg+xml</dc:format>
        <dc:type
           rdf:resource="http://purl.org/dc/dcmitype/StillImage" />
        <dc:title></dc:title>
      </cc:Work>
    </rdf:RDF>
  </metadata>
  <defs
     id="defs16">
    <clipPath
       clipPathUnits="userSpaceOnUse"
       id="clipPath838">
      <rect
         style="fill:#663300;fill-opacity:1;stroke:none;stroke-width:2.11666656;stroke-linecap:round;stroke-linejoin:miter;stroke-miterlimit:4;stroke-dasharray:none;stroke-opacity:1"
         id="rect840"
         width="4.2333331"
         height="25.4"
         x="0"
         y="7.9999995e-007"
         rx="1.0583333"
         ry="1.0583333" />
    </clipPath>
    <clipPath
       clipPathUnits="userSpaceOnUse"
       id="clipPath868">
      <rect
         ry="3.175"
         rx="3.175"
         y="8.0000001e-007"
         x="0"
         height="25.4"
         width="8.4666662"
         id="rect870"
         style="fill:#663300;fill-opacity:1;stroke:none;stroke-width:2.99341846;stroke-linecap:round;stroke-linejoin:miter;stroke-miterlimit:4;stroke-dasharray:none;stroke-opacity:1" />
    </clipPath>
    <clipPath
       clipPathUnits="userSpaceOnUse"
       id="clipPath911">
      <path
         style="fill:#663300;fill-opacity:1;stroke:none;stroke-width:2.99341846;stroke-linecap:round;stroke-linejoin:miter;stroke-miterlimit:4;stroke-dasharray:none;stroke-opacity:1"
         d="m -9.5249989,8.0000001e-7 h 2.1166664 C -3.9777183,1.4529669 -4.4754935,2.8924795 -4.4754935,2.8924795 L -4.5151326,5.7054821 -3.930632,18.384057 -4.2333325,22.225 c -0.1381927,1.753513 -1.41605,3.175 -3.175,3.175 h -2.1166664 c -1.7589501,0 -3.1750001,-1.41605 -3.1750001,-3.175 l -0.433615,-2.638604 0.886545,-12.1780621 -0.271309,-3.3655895 C -12.659713,2.2894819 -12.007149,0.34306224 -9.5249989,8.0000001e-7 Z"
         id="path913"
         inkscape:connector-curvature="0"
         sodipodi:nodetypes="cccccssssccsc" />
    </clipPath>
    <clipPath
       clipPathUnits="userSpaceOnUse"
       id="clipPath829">
      <path
         style="fill:#522900;fill-opacity:1;stroke:none;stroke-width:2.99341846;stroke-linecap:round;stroke-linejoin:miter;stroke-miterlimit:4;stroke-dasharray:none;stroke-opacity:1"
         d="m 2.1166674,-8.4666664 3.1749998,-2.1166666 3.175,1.0583333 V -3.175 c 0,1.75895 -1.41605,3.175 -3.175,3.175 H 3.1750011 C 1.416051,0 1.0554e-6,-1.41605 1e-6,-3.175 L 7.9999999e-7,-9.5249997 Z"
         id="path831"
         inkscape:connector-curvature="0"
         sodipodi:nodetypes="cccsssscc" />
    </clipPath>
    <clipPath
       clipPathUnits="userSpaceOnUse"
       id="clipPath839">
      <path
         sodipodi:nodetypes="cccsssscc"
         inkscape:connector-curvature="0"
         id="path841"
         d="m 13.285248,20.612793 -0.585249,-2.621126 -1.770186,-2.27028 5.213162,-3.625663 c 1.444046,-1.004309 3.415104,-0.650297 4.419413,0.793749 l 1.208555,1.737721 c 1.004308,1.444046 0.650296,3.415104 -0.79375,4.419413 l -5.213162,3.625663 z"
         style="fill:#522900;fill-opacity:1;stroke:none;stroke-width:2.99341846;stroke-linecap:round;stroke-linejoin:miter;stroke-miterlimit:4;stroke-dasharray:none;stroke-opacity:1" />
    </clipPath>
    <clipPath
       clipPathUnits="userSpaceOnUse"
       id="clipPath871">
      <path
         style="fill:#6a3500;fill-opacity:1;stroke:none;stroke-width:5.64444447;stroke-linecap:round;stroke-linejoin:miter;stroke-miterlimit:4;stroke-dasharray:none;stroke-opacity:1"
         d="m 6.2443214,1.4112835 c -2.3452672,0 -4.2333333,1.8880664 -4.2333333,4.2333333 V 8.4666669 C 2.0109881,10.811934 3.8990542,12.7 6.2443214,12.7 h 7.5140116 l -1.058334,-3.1749998 3.175,-4.2333333 -2.328023,-3.8803834 z"
         id="path873"
         inkscape:connector-curvature="0"
         sodipodi:nodetypes="ssssccccs" />
    </clipPath>
    <clipPath
       clipPathUnits="userSpaceOnUse"
       id="clipPath877">
      <path
         style="fill:#522900;fill-opacity:1;stroke:none;stroke-width:5.64444447;stroke-linecap:round;stroke-linejoin:miter;stroke-miterlimit:4;stroke-dasharray:none;stroke-opacity:1"
         d="m 17.145464,3.5279499 2.328023,3.8803839 -3.175,4.2333332 1.058333,3.175 H 28.575 c 2.345264,0 4.233333,-1.888066 4.233333,-4.233334 V 7.7612838 c 0,-2.345267 -1.888069,-4.2333339 -4.233333,-4.2333339 z"
         id="path879"
         inkscape:connector-curvature="0"
         sodipodi:nodetypes="ccccssssc" />
    </clipPath>
  </defs>
  <sodipodi:namedview
     pagecolor="#ffffff"
     bordercolor="#666666"
     borderopacity="1"
     objecttolerance="10"
     gridtolerance="10"
     guidetolerance="10"
     inkscape:pageopacity="0"
     inkscape:pageshadow="2"
     inkscape:window-width="1920"
     inkscape:window-height="1017"
     id="namedview14"
     showgrid="true"
     inkscape:zoom="1.6388889"
     inkscape:cx="-19.150395"
     inkscape:cy="33.219759"
     inkscape:window-x="1912"
     inkscape:window-y="-8"
     inkscape:window-maximized="1"
     inkscape:current-layer="svg12"
     inkscape:object-paths="true"
     inkscape:snap-intersection-paths="true"
     inkscape:snap-smooth-nodes="true"
     inkscape:snap-midpoints="true">
    <inkscape:grid
       type="xygrid"
       id="grid828"
       empspacing="4"
       spacingy="1.0583333"
       spacingx="1.0583333" />
  </sodipodi:namedview>
  <path
     sodipodi:nodetypes="ccccssssc"
     inkscape:connector-curvature="0"
     id="path875"
     d="m 17.145464,3.5279498 2.328023,3.880384 -3.175,4.2333332 1.058333,3.175 h 11.218179 c 2.345266,0 4.233333,-1.888066 4.233333,-4.233334 V 7.7612838 c 0,-2.345267 -1.888067,-4.233334 -4.233333,-4.233334 z"
     style="fill:#522900;fill-opacity:1;stroke:#191919;stroke-width:3.17499995;stroke-linecap:round;stroke-linejoin:miter;stroke-miterlimit:4;stroke-dasharray:none;stroke-opacity:1"
     clip-path="url(#clipPath877)"
     transform="rotate(9.0799218,21.381562,8.6815609)" />
  <path
     sodipodi:nodetypes="ssssccccs"
     inkscape:connector-curvature="0"
     id="path869"
     d="m 6.2443214,1.4112835 c -2.3452672,0 -4.2333333,1.8880664 -4.2333333,4.2333333 v 2.82205 C 2.0109881,10.811934 3.8990542,12.7 6.2443214,12.7 h 7.5140116 l -1.058334,-3.1749998 3.175,-4.2333334 -2.328023,-3.8803833 z"
     style="fill:#6a3500;fill-opacity:1;stroke:#191919;stroke-width:3.17499995;stroke-linecap:round;stroke-linejoin:miter;stroke-miterlimit:4;stroke-dasharray:none;stroke-opacity:1"
     clip-path="url(#clipPath871)"
     transform="rotate(-8.1527959,13.722305,12.487739)" />
</svg>
