<svg xmlns="http://www.w3.org/2000/svg" width="144" height="144" viewBox="0 0 38.1 38.1"><g stroke="#191919"><path d="M8.335 17.674l-.106-3.72-3.273-1.558 18.486-9.597-1.496 3.122 2.417.022-.725 1.68 1.831.774z" fill="#81431e" stroke-width="1.204"/><path d="M20.845 30.202l-2.762 1.736.31 3.103-15.645-9.329 3.038-.29-1.08-1.789 1.598-.215-.246-1.692z" fill="#81431e" stroke-width="1.049"/><path d="M33.135 34.904l-3.227-2.062-3.187 1.823 2.342-20.923 1.807 3.049 1.393-1.998 1.018 1.574 1.7-1.076z" fill="#572b11" stroke-width="1.226"/><path d="M19.615 16.81l.561 3.85 3.502 1.196-17.534 12.35 1.134-3.435-2.45.289.53-1.839-1.947-.567z" fill="#572b11" stroke-width="1.243"/></g></svg>