<?xml version="1.0" encoding="UTF-8" standalone="no"?>
<svg
   xmlns:dc="http://purl.org/dc/elements/1.1/"
   xmlns:cc="http://creativecommons.org/ns#"
   xmlns:rdf="http://www.w3.org/1999/02/22-rdf-syntax-ns#"
   xmlns:svg="http://www.w3.org/2000/svg"
   xmlns="http://www.w3.org/2000/svg"
   xmlns:sodipodi="http://sodipodi.sourceforge.net/DTD/sodipodi-0.dtd"
   xmlns:inkscape="http://www.inkscape.org/namespaces/inkscape"
   width="96"
   height="96"
   viewBox="0 0 25.4 25.4"
   version="1.1"
   id="svg12"
   sodipodi:docname="map-woodpile-res-01.svg"
   inkscape:version="0.92.2 (5c3e80d, 2017-08-06)">
  <metadata
     id="metadata18">
    <rdf:RDF>
      <cc:Work
         rdf:about="">
        <dc:format>image/svg+xml</dc:format>
        <dc:type
           rdf:resource="http://purl.org/dc/dcmitype/StillImage" />
        <dc:title />
      </cc:Work>
    </rdf:RDF>
  </metadata>
  <defs
     id="defs16">
    <clipPath
       clipPathUnits="userSpaceOnUse"
       id="clipPath838">
      <rect
         style="fill:#663300;fill-opacity:1;stroke:none;stroke-width:2.11666656;stroke-linecap:round;stroke-linejoin:miter;stroke-miterlimit:4;stroke-dasharray:none;stroke-opacity:1"
         id="rect840"
         width="4.2333331"
         height="25.4"
         x="0"
         y="7.9999995e-007"
         rx="1.0583333"
         ry="1.0583333" />
    </clipPath>
    <clipPath
       clipPathUnits="userSpaceOnUse"
       id="clipPath868">
      <rect
         ry="3.175"
         rx="3.175"
         y="8.0000001e-007"
         x="0"
         height="25.4"
         width="8.4666662"
         id="rect870"
         style="fill:#663300;fill-opacity:1;stroke:none;stroke-width:2.99341846;stroke-linecap:round;stroke-linejoin:miter;stroke-miterlimit:4;stroke-dasharray:none;stroke-opacity:1" />
    </clipPath>
    <clipPath
       clipPathUnits="userSpaceOnUse"
       id="clipPath911">
      <path
         style="fill:#663300;fill-opacity:1;stroke:none;stroke-width:2.99341846;stroke-linecap:round;stroke-linejoin:miter;stroke-miterlimit:4;stroke-dasharray:none;stroke-opacity:1"
         d="m -9.5249989,8.0000001e-7 h 2.1166664 C -3.9777183,1.4529669 -4.4754935,2.8924795 -4.4754935,2.8924795 L -4.5151326,5.7054821 -3.930632,18.384057 -4.2333325,22.225 c -0.1381927,1.753513 -1.41605,3.175 -3.175,3.175 h -2.1166664 c -1.7589501,0 -3.1750001,-1.41605 -3.1750001,-3.175 l -0.433615,-2.638604 0.886545,-12.1780621 -0.271309,-3.3655895 C -12.659713,2.2894819 -12.007149,0.34306224 -9.5249989,8.0000001e-7 Z"
         id="path913"
         inkscape:connector-curvature="0"
         sodipodi:nodetypes="cccccssssccsc" />
    </clipPath>
    <clipPath
       clipPathUnits="userSpaceOnUse"
       id="clipPath829">
      <path
         style="fill:#522900;fill-opacity:1;stroke:none;stroke-width:2.99341846;stroke-linecap:round;stroke-linejoin:miter;stroke-miterlimit:4;stroke-dasharray:none;stroke-opacity:1"
         d="m 2.1166674,-8.4666664 3.1749998,-2.1166666 3.175,1.0583333 V -3.175 c 0,1.75895 -1.41605,3.175 -3.175,3.175 H 3.1750011 C 1.416051,0 1.0554e-6,-1.41605 1e-6,-3.175 L 7.9999999e-7,-9.5249997 Z"
         id="path831"
         inkscape:connector-curvature="0"
         sodipodi:nodetypes="cccsssscc" />
    </clipPath>
    <clipPath
       clipPathUnits="userSpaceOnUse"
       id="clipPath839">
      <path
         sodipodi:nodetypes="cccsssscc"
         inkscape:connector-curvature="0"
         id="path841"
         d="m 13.285248,20.612793 -0.585249,-2.621126 -1.770186,-2.27028 5.213162,-3.625663 c 1.444046,-1.004309 3.415104,-0.650297 4.419413,0.793749 l 1.208555,1.737721 c 1.004308,1.444046 0.650296,3.415104 -0.79375,4.419413 l -5.213162,3.625663 z"
         style="fill:#522900;fill-opacity:1;stroke:none;stroke-width:2.99341846;stroke-linecap:round;stroke-linejoin:miter;stroke-miterlimit:4;stroke-dasharray:none;stroke-opacity:1" />
    </clipPath>
  </defs>
  <sodipodi:namedview
     pagecolor="#ffffff"
     bordercolor="#666666"
     borderopacity="1"
     objecttolerance="10"
     gridtolerance="10"
     guidetolerance="10"
     inkscape:pageopacity="0"
     inkscape:pageshadow="2"
     inkscape:window-width="1920"
     inkscape:window-height="1017"
     id="namedview14"
     showgrid="true"
     inkscape:zoom="2.3177389"
     inkscape:cx="7.8706092"
     inkscape:cy="37.22793"
     inkscape:window-x="1912"
     inkscape:window-y="-8"
     inkscape:window-maximized="1"
     inkscape:current-layer="svg12"
     inkscape:object-paths="true"
     inkscape:snap-intersection-paths="true"
     inkscape:snap-smooth-nodes="true"
     inkscape:snap-midpoints="true">
    <inkscape:grid
       type="xygrid"
       id="grid828"
       empspacing="4"
       spacingy="1.0583333"
       spacingx="1.0583333" />
  </sodipodi:namedview>
  <g
     id="g845"
     transform="translate(0.93636668,1.0631233)">
    <path
       transform="matrix(0.76854677,0.17015547,-0.17015547,0.76854677,6.698919,-1.7370541)"
       clip-path="url(#clipPath839)"
       sodipodi:nodetypes="cccsssscc"
       inkscape:connector-curvature="0"
       id="path837"
       d="M 13.285248,20.612793 12.7,17.991667 l -1.770187,-2.27028 5.213162,-3.625663 c 1.444046,-1.004309 3.415104,-0.650297 4.419413,0.793749 l 1.208555,1.737721 c 1.004308,1.444046 0.650296,3.415104 -0.79375,4.419413 l -5.213162,3.625663 z"
       style="fill:#6a3500;fill-opacity:1;stroke:#191919;stroke-width:3.17499995;stroke-linecap:round;stroke-linejoin:miter;stroke-miterlimit:4;stroke-dasharray:none;stroke-opacity:1" />
    <path
       clip-path="url(#clipPath829)"
       transform="matrix(-0.17670029,0.76706846,-0.76706846,-0.17670029,3.3957899,4.4075961)"
       style="fill:#522900;fill-opacity:1;stroke:#191919;stroke-width:3.17499995;stroke-linecap:round;stroke-linejoin:miter;stroke-miterlimit:4;stroke-dasharray:none;stroke-opacity:1"
       d="m 2.1166674,-8.4666664 3.1749999,-2.1166666 3.1749999,1.0583333 V -3.175 c 0,1.75895 -1.41605,3.175 -3.1749999,3.175 H 3.175001 C 1.416051,0 1.0554e-6,-1.41605 1e-6,-3.175 L 8e-7,-9.5249997 Z"
       id="path827"
       inkscape:connector-curvature="0"
       sodipodi:nodetypes="cccsssscc" />
  </g>
</svg>
