<svg xmlns="http://www.w3.org/2000/svg" width="576" height="576" viewBox="0 0 152.4 152.4"><defs><clipPath id="b"><rect width="50.8" height="50.8" x="50.8" y="-101.6" ry="2.117" rx="2.117" fill="#fff4d1" stroke-width="1.138"/></clipPath><pattern patternUnits="userSpaceOnUse" width="160" height="288" patternTransform="matrix(.26458 0 0 .26458 -93.134 59.267)" id="a"><path fill="none" stroke-width="3.78" d="M0 0h160v288H0z"/><path fill="none" stroke-width="3.78" d="M0 0h160v288H0z"/><path transform="rotate(90)" fill="none" stroke-width="3.78" d="M128-160h160V0H128z"/><path transform="rotate(90)" fill="none" stroke-width="3.78" d="M128-160h160V0H128z"/><path transform="rotate(90)" fill="none" stroke-width="3.78" d="M128-160h160V0H128z"/><path transform="scale(-1)" fill="none" stroke-width="3.78" d="M-160-288H0v160h-160z"/><path transform="scale(-1)" fill="none" stroke-width="3.78" d="M-160-288H0v160h-160z"/><path transform="scale(-1)" fill="#6e2c08" stroke-width="25.354" stroke-miterlimit="10" d="M-160-288H0V0h-160z"/><path transform="scale(-1)" fill-opacity=".354" stroke-width="11.684" stroke-miterlimit="10" d="M-124-288h4V0h-4zM-84-288h4V0h-4zM-44-288h4V0h-4z"/><path transform="rotate(-90)" fill-opacity=".354" stroke-width="4.131" stroke-miterlimit="10" d="M-96 84h4v36h-4zM-32 124h4v36h-4zM-160 44h4v36h-4z"/><path transform="scale(-1)" fill-opacity=".354" stroke-width="11.684" stroke-miterlimit="10" d="M-4-288h4V0h-4z"/><path transform="rotate(-90)" fill-opacity=".354" stroke-width="4.131" stroke-miterlimit="10" d="M-224 4h4v36h-4z"/></pattern></defs><path d="M0 0h152.4v152.4H0z" fill="url(#a)"/><path d="M16.934 16.934v118.533h42.333V127H25.4V25.4H127V127H93.134v8.467h42.333V16.933z" fill="#030100" fill-opacity=".49"/><rect ry="1.663" rx="1.663" y="-125.942" x="26.458" height="23.283" width="23.283" transform="rotate(90)" fill="#d3a743" fill-opacity=".294"/><path d="M0 0h152.4v2.117H2.117v148.167h148.167V0h2.116v152.4H0z" fill="#301b06"/><path fill="url(#a)" d="M-93.134 59.267h42.333v76.2h-42.333z"/><path fill="#a50000" fill-opacity=".255" d="M150.284 150.284H2.117v-14.816h148.167z"/><rect transform="rotate(90)" rx="2.117" ry="2.117" y="-101.6" x="50.8" height="50.8" width="50.8" clip-path="url(#b)" fill="#fff4d1" stroke="#000" stroke-width="3.175" stroke-opacity=".294"/><path fill="#a50000" fill-opacity=".255" d="M150.284 16.933H2.117V2.117h148.167zM2.117 135.467V16.933h14.816v118.534zM135.467 135.467V16.933h14.816v118.534z"/><rect transform="rotate(90)" width="23.283" height="23.283" x="26.458" y="-49.741" rx="1.663" ry="1.663" fill="#d3a743" fill-opacity=".294"/></svg>