<?xml version="1.0" encoding="UTF-8" standalone="no"?>
<svg
   xmlns:dc="http://purl.org/dc/elements/1.1/"
   xmlns:cc="http://creativecommons.org/ns#"
   xmlns:rdf="http://www.w3.org/1999/02/22-rdf-syntax-ns#"
   xmlns:svg="http://www.w3.org/2000/svg"
   xmlns="http://www.w3.org/2000/svg"
   xmlns:sodipodi="http://sodipodi.sourceforge.net/DTD/sodipodi-0.dtd"
   xmlns:inkscape="http://www.inkscape.org/namespaces/inkscape"
   width="144"
   height="144"
   viewBox="0 0 38.1 38.1"
   version="1.1"
   id="svg6"
   sodipodi:docname="map-stone-04.svg"
   inkscape:version="0.92.2 (5c3e80d, 2017-08-06)">
  <metadata
     id="metadata12">
    <rdf:RDF>
      <cc:Work
         rdf:about="">
        <dc:format>image/svg+xml</dc:format>
        <dc:type
           rdf:resource="http://purl.org/dc/dcmitype/StillImage" />
        <dc:title></dc:title>
      </cc:Work>
    </rdf:RDF>
  </metadata>
  <defs
     id="defs10">
    <clipPath
       clipPathUnits="userSpaceOnUse"
       id="clipPath4602">
      <rect
         ry="3.175"
         rx="3.175"
         style="fill:#3d3632;fill-opacity:1;stroke:none;stroke-width:2.3812499;stroke-linecap:butt;stroke-linejoin:miter;stroke-miterlimit:4;stroke-dasharray:none;stroke-opacity:1"
         id="rect4604"
         width="38.099998"
         height="38.099998"
         x="0"
         y="1.2e-006" />
    </clipPath>
    <clipPath
       clipPathUnits="userSpaceOnUse"
       id="clipPath4626">
      <rect
         y="7.4083343"
         x="7.4083333"
         height="23.283333"
         width="23.283333"
         id="rect4628"
         style="fill:#635851;fill-opacity:1;stroke:none;stroke-width:5.23875046;stroke-linecap:butt;stroke-linejoin:miter;stroke-miterlimit:4;stroke-dasharray:none;stroke-opacity:1" />
    </clipPath>
  </defs>
  <sodipodi:namedview
     pagecolor="#ffffff"
     bordercolor="#666666"
     borderopacity="1"
     objecttolerance="10"
     gridtolerance="10"
     guidetolerance="10"
     inkscape:pageopacity="0"
     inkscape:pageshadow="2"
     inkscape:window-width="1920"
     inkscape:window-height="1017"
     id="namedview8"
     showgrid="true"
     inkscape:showpageshadow="false"
     inkscape:zoom="0.81944444"
     inkscape:cx="-4.2973081"
     inkscape:cy="26.932739"
     inkscape:window-x="1912"
     inkscape:window-y="-8"
     inkscape:window-maximized="1"
     inkscape:current-layer="svg6">
    <inkscape:grid
       type="xygrid"
       id="grid4534"
       empspacing="4"
       spacingy="1.0583333"
       spacingx="1.0583333" />
  </sodipodi:namedview>
  <rect
     style="fill:#635851;fill-opacity:1;stroke:none;stroke-width:5.71500015;stroke-linecap:butt;stroke-linejoin:miter;stroke-miterlimit:4;stroke-dasharray:none;stroke-opacity:1"
     id="rect4618"
     width="25.399998"
     height="25.4"
     x="6.3499999"
     y="6.3500009" />
  <rect
     y="1.2e-006"
     x="0"
     height="38.099998"
     width="38.099998"
     id="rect4600"
     style="fill:#292421;fill-opacity:1;stroke:#0a0a0a;stroke-width:3.96875;stroke-linecap:butt;stroke-linejoin:miter;stroke-miterlimit:4;stroke-dasharray:none;stroke-opacity:1"
     rx="3.175"
     ry="3.175"
     clip-path="url(#clipPath4602)" />
  <path
     style="fill:none;stroke:#0a0a0a;stroke-width:1.984375;stroke-linecap:butt;stroke-linejoin:miter;stroke-miterlimit:4;stroke-dasharray:none;stroke-opacity:1"
     d="M 2.1166666,2.1166678 10.583333,10.583334"
     id="path4572"
     inkscape:connector-curvature="0"
     sodipodi:nodetypes="cc" />
  <path
     sodipodi:nodetypes="cc"
     inkscape:connector-curvature="0"
     id="path4574"
     d="M 35.983332,2.1166678 27.516666,10.583334"
     style="fill:none;stroke:#0a0a0a;stroke-width:1.984375;stroke-linecap:butt;stroke-linejoin:miter;stroke-miterlimit:4;stroke-dasharray:none;stroke-opacity:1" />
  <path
     sodipodi:nodetypes="cc"
     inkscape:connector-curvature="0"
     id="path4576"
     d="M 35.983332,35.983333 27.516666,27.516667"
     style="fill:none;stroke:#0a0a0a;stroke-width:1.984375;stroke-linecap:butt;stroke-linejoin:miter;stroke-miterlimit:4;stroke-dasharray:none;stroke-opacity:1" />
  <path
     style="fill:none;stroke:#0a0a0a;stroke-width:1.984375;stroke-linecap:butt;stroke-linejoin:miter;stroke-miterlimit:4;stroke-dasharray:none;stroke-opacity:1"
     d="M 2.1166666,35.983333 10.583333,27.516667"
     id="path4578"
     inkscape:connector-curvature="0"
     sodipodi:nodetypes="cc" />
  <rect
     style="fill:#3d3632;fill-opacity:1;stroke:#0a0a0a;stroke-width:3.96875;stroke-linecap:butt;stroke-linejoin:miter;stroke-miterlimit:4;stroke-dasharray:none;stroke-opacity:1"
     id="rect4624"
     width="23.283333"
     height="23.283333"
     x="7.4083333"
     y="7.4083343"
     clip-path="url(#clipPath4626)" />
  <path
     inkscape:connector-curvature="0"
     style="fill:#000000;fill-opacity:0.56060606;stroke:none;stroke-width:1.55828404;stroke-linecap:round;stroke-linejoin:round;stroke-miterlimit:4;stroke-dasharray:none;stroke-opacity:1"
     d="m 19.049996,26.14681 a 7.096811,7.096811 0 0 0 7.096814,-7.096813 7.096811,7.096811 0 0 0 -7.096814,-7.096806 7.096811,7.096811 0 0 0 -7.096807,7.096806 7.096811,7.096811 0 0 0 7.096807,7.096813 z m 0,-3.692926 c -3.471352,0 -6.242706,-3.023263 -6.35793,-3.151799 -0.128504,-0.143664 -0.128504,-0.36051 0,-0.504167 0.115253,-0.128539 2.886629,-3.151801 6.35793,-3.151801 3.471304,0 6.24269,3.023262 6.357933,3.151801 0.128531,0.143657 0.128531,0.360503 0,0.504167 -0.115243,0.128536 -2.886579,3.151799 -6.357933,3.151799 z m 0,-0.756626 c 1.459594,0 2.647262,-1.187665 2.647262,-2.647261 0,-1.459595 -1.187668,-2.647253 -2.647262,-2.647253 -1.459592,0 -2.647254,1.187658 -2.647254,2.647253 0,1.459596 1.187662,2.647261 2.647254,2.647261 z m -0.01623,-0.756253 c -0.308982,0 -0.596379,-0.08165 -0.854204,-0.213642 0.287324,-0.205863 0.476077,-0.540648 0.476077,-0.921107 0,-0.744335 -0.718766,-1.32007 -1.480351,-1.074873 0.152638,-0.890617 0.925001,-1.572386 1.858478,-1.572386 1.042626,0 1.891008,0.848377 1.891008,1.891 0,1.042629 -0.848382,1.891008 -1.891008,1.891008 z"
     id="path874-8-3" />
</svg>
