<svg xmlns="http://www.w3.org/2000/svg" xmlns:xlink="http://www.w3.org/1999/xlink" width="512" height="512" viewBox="0 0 135.467 135.467"><defs><pattern xlink:href="#a" id="e" patternTransform="matrix(.26458 0 0 .26458 -50.8 146.05)"/><pattern xlink:href="#b" id="a" patternTransform="translate(-192 552)"/><pattern xlink:href="#c" id="h" patternTransform="matrix(.0958 0 0 .0958 -59.267 143.933)"/><clipPath id="g"><path d="M53.048 63.872l25.32 13.243-12.773 12.122-3.327-11.809-7.235-5.461z" fill="#cc8b27" stroke-width=".265"/></clipPath><pattern patternUnits="userSpaceOnUse" width="128" height="128" patternTransform="matrix(.26458 0 0 .26458 -59.267 143.933)" id="c"><path fill="none" stroke-width="3.78" d="M0 0h128v128H0z"/><path fill="none" stroke-width="3.78" d="M0 0h128v128H0z"/><path fill="#cf4a3d" stroke-width="8" d="M0 0h128v128H0z"/><path fill-opacity=".196" stroke-width="11.314" d="M64 0h16v128H64z"/><path d="M0 88c16 32 48 32 64 0v16c-16 24-48 24-64 0zM128 104c-16-32-48-32-64 0V88c16-24 48-24 64 0z" fill="#8f2d23" stroke-width="5.657"/><path fill-opacity=".196" stroke-width="11.314" d="M112 0h16v128h-16z"/><path fill-opacity=".116" stroke-width="22.627" d="M0 0h64v128H0z"/></pattern><pattern xlink:href="#d" id="b" patternTransform="matrix(.26458 0 0 .26458 -50.8 146.05)"/><pattern patternUnits="userSpaceOnUse" width="32" height="32" patternTransform="matrix(.26458 0 0 .26458 -42.333 220.133)" id="d"><path fill="none" stroke-width="3.78" d="M0 0h32v32H0z"/><path fill="none" stroke-width="3.78" d="M0 0h32v32H0z"/><path fill="none" stroke-width="1.89" d="M0 0h32v32H0z"/><path fill="#801717" stroke-width="2" d="M0 0h32v32H0z"/><path fill-opacity=".196" stroke-width="4" d="M0 0h8v32H0zM24 0h8v32h-8z"/><path d="M32 4v8C20 8 12 8 0 12V4c12-4 20-4 32 0z" fill-opacity=".394" stroke-width="4"/></pattern><clipPath id="f"><path d="M67.733-16.933H76.2v28.575l-2.116 3.175-3.175-2.117-3.176 1.058z" fill="url(#e)" stroke-width="2.117"/></clipPath></defs><path transform="rotate(164.646 73.212 31.08)" d="M67.733-16.933H76.2v28.575l-2.116 3.175-3.175-2.117-3.176 1.058z" clip-path="url(#f)" fill="url(#b)" stroke="#000" stroke-width="2.117"/><path transform="rotate(-92.848 51.035 70.556)" clip-path="url(#g)" d="M53.048 63.872l25.32 13.243-12.773 12.122-3.327-11.809-7.235-5.461z" fill="url(#h)" stroke="#191919" stroke-width="2.117"/><path d="M74.553 81.486l-3.173 1.972.336 3.554-17.855-10.77 3.48-.314-1.228-2.055 1.832-.237-.273-1.94z" fill="#692828" stroke="#191919" stroke-width="1.2"/><path d="M62.878 69.375l2.93 2.32 3.229-1.52-4.089 20.447-1.473-3.168-1.518 1.851-.843-1.644-1.732.912z" fill="#692828" stroke="#191919" stroke-width="1.2"/></svg>