<svg xmlns="http://www.w3.org/2000/svg" width="164" height="164" viewBox="0 0 43.392 43.392"><defs><clipPath id="h"><rect width="38.1" height="19.05" y="258.9" ry="4.233" fill="#537054" stroke-width="4.778"/></clipPath><clipPath id="i"><rect width="38.1" height="19.05" y="258.9" ry="4.233" fill="#537054" stroke-width="4.778"/></clipPath><clipPath id="e"><path fill="#630" stroke-width="2.098" d="M-2.275 256.942h9.587v43.392h-9.587z"/></clipPath><clipPath id="f"><path fill="#630" stroke-width="2.098" d="M-2.275 256.942h9.587v43.392h-9.587z"/></clipPath><clipPath id="g"><path fill="#630" stroke-width="2.098" d="M-2.275 256.942h9.587v43.392h-9.587z"/></clipPath><clipPath id="a"><path fill="#630" stroke-width="2.098" d="M-2.275 256.942h9.587v43.392h-9.587z"/></clipPath><clipPath id="b"><path fill="#630" stroke-width="2.098" d="M-2.275 256.942h9.587v43.392h-9.587z"/></clipPath><clipPath id="c"><path fill="#630" stroke-width="2.098" d="M-2.275 256.942h9.587v43.392h-9.587z"/></clipPath><clipPath id="d"><path fill="#630" stroke-width="2.098" d="M-2.275 256.942h9.587v43.392h-9.587z"/></clipPath></defs><g fill="#630" stroke="#191919" stroke-width="2.117"><path transform="translate(13.855 -256.942)" clip-path="url(#a)" d="M-2.275 256.942h9.587v43.392h-9.587z"/><path transform="translate(35.021 -256.942)" clip-path="url(#b)" d="M-2.275 256.942h9.587v43.392h-9.587z"/><path transform="translate(24.5 -256.942)" clip-path="url(#c)" d="M-2.275 256.942h9.587v43.392h-9.587z"/><path clip-path="url(#d)" d="M-2.275 256.942h9.587v43.392h-9.587z" transform="translate(3.333 -256.942)"/></g><g fill="#630" stroke="#191919" stroke-width="2.117"><path clip-path="url(#e)" transform="rotate(90 140.562 159.771)" d="M-2.275 256.942h9.587v43.392h-9.587z"/><path clip-path="url(#f)" transform="rotate(90 134.228 166.105)" d="M-2.275 256.942h9.587v43.392h-9.587z"/><path clip-path="url(#g)" transform="rotate(90 146.928 153.405)" d="M-2.275 256.942h9.587v43.392h-9.587z"/></g><g transform="translate(3.333 -256.942)" stroke="#191919"><rect transform="translate(-.688 .688)" clip-path="url(#h)" width="38.1" height="19.05" y="258.9" ry="4.233" fill="#537054" stroke-width="3.175"/><rect ry="1.058" y="263.84" x="6.192" height="10.583" width="2.117" fill="#89a78a" stroke-width="1.058"/><rect ry="1.058" y="263.884" x="28.417" height="10.583" width="2.117" fill="#89a78a" stroke-width="1.058"/><rect ry="1.058" y="263.884" x="13.6" height="10.583" width="2.117" fill="#89a78a" stroke-width="1.058"/><rect ry="1.058" y="263.884" x="21.008" height="10.583" width="2.117" fill="#89a78a" stroke-width="1.058"/><rect clip-path="url(#i)" width="38.1" height="19.05" y="258.9" ry="4.233" transform="translate(-.688 19.738)" fill="#537054" stroke-width="3.175"/><rect ry="1.058" y="282.812" x="6.192" height="10.583" width="2.117" fill="#89a78a" stroke-width="1.058"/><rect ry="1.058" y="282.856" x="28.417" height="10.583" width="2.117" fill="#89a78a" stroke-width="1.058"/><rect ry="1.058" y="282.856" x="13.6" height="10.583" width="2.117" fill="#89a78a" stroke-width="1.058"/><rect ry="1.058" y="282.856" x="21.008" height="10.583" width="2.117" fill="#89a78a" stroke-width="1.058"/></g></svg>