<svg xmlns="http://www.w3.org/2000/svg" xmlns:xlink="http://www.w3.org/1999/xlink" width="288" height="160" viewBox="0 0 76.2 42.333"><defs><pattern xlink:href="#a" id="d" patternTransform="matrix(.18709 -.18709 .18709 .18709 14.803 297)"/><pattern xlink:href="#b" id="a" patternTransform="rotate(-45 61.373 -257.421)"/><pattern xlink:href="#c" id="b" patternTransform="matrix(.18709 -.18709 .18709 .18709 14.803 297)"/><pattern patternUnits="userSpaceOnUse" width="159.999" height="159.999" patternTransform="translate(19.05 305.467) scale(.26458)" id="c"><path fill="none" stroke-width="3.78" d="M0 0h159.999v159.999H0z"/><path d="M0 0h80v80H0zm80 80h79.999v79.999h-80z" fill="#81431e"/><path d="M80 0h79.999v80h-80zM0 80h80v79.999H0z" fill="#572b11"/></pattern><clipPath id="e"><path d="M-33.88 305.467h67.733c2.646 0 4.233 1.587 4.233 4.233v33.867c0 2.645-1.587 4.233-4.233 4.233H-33.88c-2.646 0-4.234-1.588-4.234-4.233V309.7c0-2.646 1.588-4.233 4.234-4.233z" fill="url(#d)" stroke-width="3.098"/></clipPath></defs><g stroke="#191919"><path d="M-33.88 305.467h67.733c2.646 0 4.233 1.587 4.233 4.233v33.867c0 2.645-1.587 4.233-4.233 4.233H-33.88c-2.646 0-4.234-1.588-4.234-4.233V309.7c0-2.646 1.588-4.233 4.234-4.233z" clip-path="url(#e)" fill="url(#b)" stroke-width="3.175" transform="translate(38.114 -305.467)"/><g transform="translate(52.917 -261.546)"><circle r="5.821" cy="282.712" cx="-14.817" fill="#4d2600" stroke-width="1.587"/><circle cx="-13.229" cy="282.712" r="1.587" fill="#ff7800" stroke-width=".794"/><path d="M-17.462 280.067s-.864 2.7-.53 3.704c.28.836 2.646 2.646 2.646 2.646s-1.894-3.59-2.116-6.35z" fill="#f7ff00" stroke-width=".794"/></g></g></svg>