<svg xmlns="http://www.w3.org/2000/svg" width="144" height="144" viewBox="0 0 38.1 38.1"><g stroke="#191919" stroke-width="1.058"><path d="M33.673 32.923a16.44 16.44 0 0 0-1.847-11.521 16.44 16.44 0 0 0-22.458-6.018 16.44 16.44 0 0 0-6.562 7.051l1.257.165.32 1.214a14.443 14.443 0 0 1 5.983-6.7 14.443 14.443 0 0 1 19.73 5.286 14.443 14.443 0 0 1 1.362 11.238l1.327-1.018z" fill="#630"/><path d="M23.587 23.455l-.625 3.203 2.476 1.898L7.93 33.582l1.867-2.414-2.045-.435.937-1.314-1.403-.978zM35.174 8.896l-2.477 2.124.763 3.024L16.613 7.12l2.962-.734-1.333-1.61 1.55-.448-.493-1.638z" fill="#ab6f22"/></g></svg>