<svg xmlns="http://www.w3.org/2000/svg" width="416" height="896" viewBox="0 0 110.066 237.067"><defs><clipPath id="b"><path clip-path="url(#clipPath6865)" d="M402.14 158.55h9.526v-42.334h-9.525z" fill="#a3977d" stroke-width="1.984"/></clipPath><clipPath id="c"><path d="M-22.25 168.075v-9.525h-46.568v9.525z" clip-path="url(#clipPath6865)" fill="#a3977d" stroke-width="2.081"/></clipPath><clipPath id="d"><path d="M-70.934 202.47h50.8v-60.854h-8.467v48.155l-4.233 4.233h-25.4l-4.234-4.233v-48.155h-8.466z" fill="#a3977d" stroke-width="5.144"/></clipPath><clipPath id="a"><ellipse ry="6.34" rx="6.35" cy="243.216" cx="-87.868" fill="#3f3f3f" fill-opacity=".611" stroke-width="2.145" stroke-opacity=".706"/></clipPath><clipPath id="e"><path d="M235.358 100V64H59.36v36z"/></clipPath></defs><g fill="#445a17" stroke="#000" stroke-width=".529"><path d="M79.491 148.887l2.117-2.117h2.116l2.117-2.117h2.117l1.058-1.143h2.942l-1.227 1.313h-.741l-1.609 1.693h-1.99l-1.608 1.65h-2.117l-3.175 2.837z"/><path d="M79.512 145.352l2.117 2.116h2.117l2.116 2.117h1.588l1.46 1.037h1.715l2.032-2.56h-1.884l-.699.867h-1.037l-1.63-1.207h-.994l-1.609-1.672h-2.117l-3.175-2.815zm-.02 11.282l2.116-2.117h2.116l2.117-2.117h2.117l1.058 1.059h2.117l2.116 2.116h-2.497l-.678-.656-2.116-.021-.572-.635h-.995l-1.608 1.672h-2.117l-3.175 2.815zm0 6.307h2.941l2.117 1.46h2.117l1.883-2.2-1.883.02-.572.635H85.1l-1.862-1.29-3.726-.022zm0-23.94h2.941l2.117-1.46h2.117l1.883 2.18h-1.883l-.572-.656H85.1l-1.862 1.313h-3.726zm-32.343-2.01l-2.117-2.117v-2.116l-2.117-2.117v-2.117l-1.143-1.058v-2.942l1.313 1.228v.74l1.693 1.588v2.01l1.672 1.61v2.116l2.815 3.175zm7.768-.021l2.116-2.117v-2.117l2.117-2.116v-1.588l1.037-1.46v-1.715l-2.56-2.032v1.884l.867.699-.021 1.037-1.186 1.63v.995l-1.672 1.608v2.117L52.8 136.97zm12.7.021l-2.117-2.117v-2.116l-2.117-2.117v-2.117l1.059-1.058v-2.117l2.116-2.116v2.497l-.677.678v2.116l-.656.572.021.995 1.651 1.608v2.117l2.836 3.175zm5.609 0v-2.942l1.46-2.117v-2.116l-2.201-1.884.021 1.884.635.571v.995l-1.291 1.841-.021 3.747zm-38.036 0v-2.942l-1.44-2.117v-2.116l2.18-1.884-.02 1.884-.636.571v.995l1.313 1.841v3.747zm-4.615 16.065l-2.116 2.117h-2.117l-2.117 2.117H22.11l-1.059 1.143h-2.92l1.206-1.313h.762l1.587-1.693h1.99l1.609-1.672H27.4l3.175-2.815z"/><path d="M30.575 156.591l-2.116-2.116h-2.117l-2.117-2.117h-1.587l-1.46-1.037h-1.715l-2.053 2.54h1.884l.698-.847h1.058l1.609 1.185 1.016.022 1.609 1.65H27.4l3.175 2.837zm0-11.303l-2.116 2.117h-2.117l-2.117 2.117H22.11l-1.059-1.059h-2.116l-2.117-2.116h2.498l.677.677h2.117l.571.656.995-.021 1.609-1.651H27.4l3.175-2.836zm17.97-8.276l1.652-2.117v-2.116l1.524-2.117v-2.116l-1.503-2.096h-1.736l-2.116-2.18v2.18l1.375 1.418h1.46l.869 1.249v.995l-1.27 1.863v1.862l-2.392 3.175zm-17.97 1.99h-2.92l-2.117-1.46H23.42l-1.884 2.18h1.884l.572-.657h.994l1.842 1.313h3.746zm0 23.94h-2.92l-2.117 1.46H23.42l-1.884-2.202 1.884.021.572.635h.994l1.842-1.29 3.746-.022z"/></g><g transform="translate(174.312 29.955)" fill="#3f3f3f" fill-opacity=".611"><ellipse cx="-107.937" cy="42.333" rx="8.467" ry="8.453"/><ellipse clip-path="url(#a)" ry="6.34" rx="6.35" cy="243.216" cx="-87.868" transform="translate(-20.07 -200.883)" stroke="#404040" stroke-width="2.117" stroke-opacity=".5"/></g><path d="M70.536 61.383c-.388-.145-2.497 1.5-2.908 1.45-.411-.047-1.926-2.162-2.334-2.128-.411.03-1.492 2.452-1.877 2.593-.391.142-2.885-1.066-3.217-.81-.335.257-.238 2.624-.517 2.935-.285.307-3 .968-3.183 1.349-.183.38.865 2.751.776 3.163-.093.405-1.94 1.936-1.94 2.36-.003.422 1.668 1.559 1.784 1.957.116.397-.534 2.576-.348 2.957.186.378 2.086.712 2.374 1.019.285.307.597 2.876.935 3.112.338.236 2.885-.893 3.263-.742.381.149 1.532 2.155 1.94 2.216.404.06 2.112-1.24 2.52-1.275.408-.037 2.116.783 2.497.628.381-.152 1.06-2.01 1.4-2.246.334-.236 2.824-.058 3.106-.371h.003c.282-.31-.155-2.837.034-3.218.189-.377 1.986-.944 2.092-1.349.106-.404-1.031-2.725-1.048-3.146-.016-.422 1.128-1.912 1.018-2.317-.113-.408-2.165-1.7-2.34-2.077-.173-.381.473-2.294.198-2.597-.279-.3-2.769-.058-3.107-.294-.338-.236-.736-3.028-1.12-3.17zm-1.348 4.331c.287.118.94 1.562 1.19 1.773.246.21 1.185-.137 1.396.107.207.243.023 1.04.169 1.315.143.28.917.272 1.036.574.118.301-.516 1.14-.47 1.451.046.316.403 1.34.355 1.656-.046.313-.532.716-.64 1.013-.11.3.652 1.51.485 1.794-.167.283-.868.012-1.054.272-.189.258-.475 1.618-.736 1.823-.264.204-.908.088-1.173.26-.262.172-.79.985-1.108 1.083-.315.094-1.694-.576-2.011-.514-.316.063-.094.642-.406.615-.308-.027-1.221-1.19-1.53-1.27-.313-.082-1.106.689-1.39.545-.286-.142-.54-.707-.775-.93-.233-.213-1.352-.219-1.567-.47-.211-.248.353-1.02.181-1.298-.169-.275-1.49-.908-1.566-1.208-.077-.305.328-.917.302-1.249-.03-.325-.476-1.045-.48-1.36.004-.313.639-.982.754-1.29.113-.306.108-1.084.227-1.38.119-.294 1.113-.312 1.282-.578.17-.266.097-.975.362-1.174.267-.202 1-.356 1.27-.523.27-.165.87-1.067 1.167-1.18.293-.111.774.625 1.086.556.315-.067 1.12-.736 1.444-.743.327-.004.882.135 1.182.232.297.101.73-.02 1.018.098z" fill="#408602" fill-opacity=".941"/><path transform="matrix(0 1 -1.1 0 206.027 -223.282)" d="M402.14 158.55h9.526v-42.334h-9.525z" clip-path="url(#b)" fill="#646464"/><path d="M-22.25 168.075v-9.525h-46.568v9.525z" clip-path="url(#c)" transform="rotate(-180 4.685 169.233)" fill="#5a5a5a" stroke="#000" stroke-width="2.117" stroke-opacity=".706"/><path transform="rotate(-180 4.685 165)" clip-path="url(#c)" d="M-22.25 168.075v-9.525h-46.568v9.525z" fill="#505050" stroke="#000" stroke-width="2.117" stroke-opacity=".706"/><path d="M-22.25 168.075v-9.525h-46.568v9.525z" clip-path="url(#c)" transform="rotate(-180 4.685 160.767)" fill="#464646" stroke="#000" stroke-width="2.117" stroke-opacity=".706"/><path transform="rotate(-180 4.685 156.533)" clip-path="url(#c)" d="M-22.25 168.075v-9.525h-46.568v9.525z" fill="#3c3c3c" stroke="#000" stroke-width="2.117" stroke-opacity=".706"/><path d="M-22.25 168.075v-9.525h-46.568v9.525z" clip-path="url(#c)" transform="rotate(-180 4.685 152.3)" fill="#323232" stroke="#000" stroke-width="2.117" stroke-opacity=".706"/><path clip-path="url(#d)" d="M-70.934 202.47h50.8v-60.854h-8.467v48.155l-4.233 4.233h-25.4l-4.234-4.233v-48.155h-8.466z" transform="rotate(-180 4.685 169.233)" fill="#1b1e25" stroke="#000" stroke-width="3.175" stroke-opacity=".706"/><path d="M235.358 163.999v-36H59.36v36z" clip-path="url(#e)" transform="matrix(.26458 0 0 .26458 -46.532 67.733)" fill="#464646" stroke="#000" stroke-width="8"/><path d="M235.358 195.999v-36H59.36v36z" clip-path="url(#e)" transform="matrix(.26458 0 0 .26458 -46.532 67.733)" fill="#3c3c3c" stroke="#000" stroke-width="8"/><path d="M235.358 227.998v-36H59.36v36z" clip-path="url(#e)" transform="matrix(.26458 0 0 .26458 -46.532 67.733)" fill="#323232" stroke="#000" stroke-width="8"/></svg>