<?xml version="1.0" encoding="UTF-8" standalone="no"?>
<svg
   xmlns:dc="http://purl.org/dc/elements/1.1/"
   xmlns:cc="http://creativecommons.org/ns#"
   xmlns:rdf="http://www.w3.org/1999/02/22-rdf-syntax-ns#"
   xmlns:svg="http://www.w3.org/2000/svg"
   xmlns="http://www.w3.org/2000/svg"
   xmlns:sodipodi="http://sodipodi.sourceforge.net/DTD/sodipodi-0.dtd"
   xmlns:inkscape="http://www.inkscape.org/namespaces/inkscape"
   width="320"
   height="288"
   viewBox="0 0 84.666 76.2"
   version="1.1"
   id="svg33"
   sodipodi:docname="map-bunker-generic-ceiling-01.svg"
   inkscape:version="0.92.2 (5c3e80d, 2017-08-06)">
  <metadata
     id="metadata37">
    <rdf:RDF>
      <cc:Work
         rdf:about="">
        <dc:format>image/svg+xml</dc:format>
        <dc:type
           rdf:resource="http://purl.org/dc/dcmitype/StillImage" />
        <dc:title />
      </cc:Work>
    </rdf:RDF>
  </metadata>
  <sodipodi:namedview
     pagecolor="#ffffff"
     bordercolor="#666666"
     borderopacity="1"
     objecttolerance="10"
     gridtolerance="10"
     guidetolerance="10"
     inkscape:pageopacity="0"
     inkscape:pageshadow="2"
     inkscape:window-width="1920"
     inkscape:window-height="1017"
     id="namedview35"
     showgrid="true"
     inkscape:zoom="0.57943473"
     inkscape:cx="-348.30045"
     inkscape:cy="350.0636"
     inkscape:window-x="1912"
     inkscape:window-y="-8"
     inkscape:window-maximized="1"
     inkscape:current-layer="svg33">
    <inkscape:grid
       type="xygrid"
       id="grid844"
       empspacing="4"
       spacingy="1.0583333"
       spacingx="1.058325" />
  </sodipodi:namedview>
  <defs
     id="defs11">
    <clipPath
       id="a">
      <path
         clip-path="url(#clipPath6865)"
         d="M402.14 158.55h9.526v-42.334h-9.525z"
         fill="#a3977d"
         stroke-width="1.984"
         id="path2" />
    </clipPath>
    <clipPath
       id="b">
      <path
         d="M-22.25 168.075v-9.525h-46.568v9.525z"
         clip-path="url(#clipPath6865)"
         fill="#a3977d"
         stroke-width="2.081"
         id="path5" />
    </clipPath>
    <clipPath
       id="c">
      <path
         d="M-70.934 202.47h50.8v-60.854h-8.467v48.155l-4.233 4.233h-25.4l-4.234-4.233v-48.155h-8.466z"
         fill="#a3977d"
         stroke-width="5.144"
         id="path8" />
    </clipPath>
    <clipPath
       id="g">
      <path
         style="fill:#3a3a3a;stroke-width:3.17499995"
         inkscape:connector-curvature="0"
         d="M 245.533,169.334 228.6,152.4 V 25.4 L 245.533,8.467 Z"
         id="path8-9" />
    </clipPath>
    <clipPath
       id="f">
      <path
         style="fill:#3a3a3a;stroke-width:6.52400017;stroke-opacity:0.22699998"
         inkscape:connector-curvature="0"
         d="m 127,169.334 h 16.933 c 0,-4.234 4.233,-8.467 8.467,-8.467 h 16.933 c 4.233,0 8.467,4.233 8.468,8.467 h 67.732 L 228.6,152.4 h -84.667 z"
         id="path5-0" />
    </clipPath>
    <clipPath
       id="clipPath868">
      <path
         style="fill:#3a3a3a;stroke-width:3.17499995"
         inkscape:connector-curvature="0"
         d="M 245.533,169.334 228.6,152.4 V 25.4 L 245.533,8.467 Z"
         id="path866" />
    </clipPath>
    <clipPath
       id="clipPath872">
      <path
         style="fill:#3a3a3a;stroke-width:6.52400017;stroke-opacity:0.22699998"
         inkscape:connector-curvature="0"
         d="m 127,169.334 h 16.933 c 0,-4.234 4.233,-8.467 8.467,-8.467 h 16.933 c 4.233,0 8.467,4.233 8.468,8.467 h 67.732 L 228.6,152.4 h -84.667 z"
         id="path870" />
    </clipPath>
    <clipPath
       id="e">
      <path
         style="fill:#424148;stroke-width:3.17499995"
         inkscape:connector-curvature="0"
         d="M 143.933,25.4 H 228.6 v 127 h -84.667 z"
         id="path2-1" />
    </clipPath>
    <clipPath
       clipPathUnits="userSpaceOnUse"
       id="clipPath895">
      <path
         id="path897"
         d="M 16.93334,-6.6400098e-4 29.633,12.700002 29.634587,48.156334 16.934929,60.856 Z"
         inkscape:connector-curvature="0"
         style="fill:#3a3a3a;stroke-width:3.17499995"
         sodipodi:nodetypes="ccccc" />
    </clipPath>
    <clipPath
       clipPathUnits="userSpaceOnUse"
       id="clipPath901">
      <path
         sodipodi:nodetypes="ccccc"
         style="fill:#3a3a3a;stroke-width:3.17499995"
         inkscape:connector-curvature="0"
         d="M 16.935,60.856 29.635667,48.156339 55.035339,48.155239 67.735006,60.8549 Z"
         id="path903" />
    </clipPath>
    <clipPath
       clipPathUnits="userSpaceOnUse"
       id="clipPath907">
      <path
         sodipodi:nodetypes="ccccc"
         style="fill:#3a3a3a;stroke-width:3.17499995"
         inkscape:connector-curvature="0"
         d="M 67.735,60.856 55.035339,48.155333 55.033,12.700002 67.732659,3.3599967e-4 Z"
         id="path909" />
    </clipPath>
    <clipPath
       clipPathUnits="userSpaceOnUse"
       id="clipPath913">
      <path
         id="path915"
         d="m 16.933,-6.6000048e-4 h 8.46667 C 25.39967,4.2333399 29.632669,8.4663399 33.866669,8.4663399 h 16.933 c 4.233,0 8.467,-4.233 8.468,-8.46699990048 L 67.733,2.4e-6 55.033,12.700002 h -25.4 z"
         inkscape:connector-curvature="0"
         style="fill:#3a3a3a;stroke-width:6.52400017;stroke-opacity:0.22699998"
         sodipodi:nodetypes="ccssccccc" />
    </clipPath>
    <clipPath
       clipPathUnits="userSpaceOnUse"
       id="clipPath919">
      <path
         id="path921"
         d="M 29.634659,12.700002 H 55.033 V 48.156334 H 29.634659 Z"
         inkscape:connector-curvature="0"
         style="fill:#565656;fill-opacity:1;stroke-width:0.91882825" />
    </clipPath>
    <clipPath
       clipPathUnits="userSpaceOnUse"
       id="clipPath913-9">
      <path
         id="path915-0"
         d="m 16.933,-6.6000048e-4 h 8.46667 C 25.39967,4.2333399 29.632669,8.4663399 33.866669,8.4663399 h 16.933 c 4.233,0 8.467,-4.233 8.468,-8.46699990048 L 67.733,2.4e-6 55.033,12.700002 h -25.4 z"
         inkscape:connector-curvature="0"
         style="fill:#3a3a3a;stroke-width:6.52400017;stroke-opacity:0.22699998"
         sodipodi:nodetypes="ccssccccc" />
    </clipPath>
    <clipPath
       clipPathUnits="userSpaceOnUse"
       id="clipPath907-5">
      <path
         sodipodi:nodetypes="ccccc"
         style="fill:#3a3a3a;stroke-width:3.17499995"
         inkscape:connector-curvature="0"
         d="M 67.735,60.856 55.035339,48.155333 55.033,12.700002 67.732659,3.3599967e-4 Z"
         id="path909-2" />
    </clipPath>
    <clipPath
       clipPathUnits="userSpaceOnUse"
       id="clipPath901-3">
      <path
         sodipodi:nodetypes="ccccc"
         style="fill:#3a3a3a;stroke-width:3.17499995"
         inkscape:connector-curvature="0"
         d="M 16.935,60.856 29.635667,48.156339 55.035339,48.155239 67.735006,60.8549 Z"
         id="path903-1" />
    </clipPath>
    <clipPath
       clipPathUnits="userSpaceOnUse"
       id="clipPath895-5">
      <path
         id="path897-0"
         d="M 16.93334,-6.6400098e-4 29.633,12.700002 29.634587,48.156334 16.934929,60.856 Z"
         inkscape:connector-curvature="0"
         style="fill:#3a3a3a;stroke-width:3.17499995"
         sodipodi:nodetypes="ccccc" />
    </clipPath>
    <clipPath
       id="c-8">
      <path
         style="fill:#a3977d;stroke-width:5.14400005"
         inkscape:connector-curvature="0"
         d="m -70.934,202.47 h 50.8 v -60.854 h -8.467 v 48.155 l -4.233,4.233 h -25.4 l -4.234,-4.233 v -48.155 h -8.466 z"
         id="path8-3" />
    </clipPath>
    <clipPath
       clipPathUnits="userSpaceOnUse"
       id="clipPath919-7">
      <path
         id="path921-4"
         d="M 29.634659,12.700002 H 55.033 V 48.156334 H 29.634659 Z"
         inkscape:connector-curvature="0"
         style="fill:#565656;fill-opacity:1;stroke-width:0.91882825" />
    </clipPath>
  </defs>
  <path
     style="fill:#565656;stroke-width:2.11666667;fill-opacity:1;stroke:#000000;stroke-opacity:1;stroke-miterlimit:4;stroke-dasharray:none"
     inkscape:connector-curvature="0"
     d="M 29.63466,12.700002 H 55.033 V 48.156334 H 29.63466 Z"
     id="path917"
     clip-path="url(#clipPath919)" />
  <path
     transform="translate(87.869 -141.614)"
     d="M-70.934 202.47h50.8v-60.854h-8.467v48.155l-4.233 4.233h-25.4l-4.234-4.233v-48.155h-8.466z"
     clip-path="url(#c)"
     fill="#1b1e25"
     stroke="#000"
     stroke-width="3.175"
     stroke-opacity=".706"
     id="path31" />
  <path
     sodipodi:nodetypes="ccccc"
     style="fill:#3a3a3a;stroke-width:2.11666667;stroke:#000000;stroke-opacity:1;stroke-miterlimit:4;stroke-dasharray:none"
     inkscape:connector-curvature="0"
     d="M 16.93334,-6.64e-4 29.633,12.700002 29.63466,48.156334 16.935,60.856 Z"
     id="path893"
     clip-path="url(#clipPath895)" />
  <path
     id="path899"
     d="m 16.935,60.856 12.700666,-12.69966 25.399674,-0.001 12.699666,12.69966 z"
     inkscape:connector-curvature="0"
     style="fill:#3a3a3a;stroke-width:2.11666667;stroke-miterlimit:4;stroke-dasharray:none;stroke:#000000;stroke-opacity:1"
     sodipodi:nodetypes="ccccc"
     clip-path="url(#clipPath901)" />
  <path
     id="path905"
     d="M 67.735,60.856 55.03534,48.155334 55.033,12.700002 67.73266,3.36e-4 Z"
     inkscape:connector-curvature="0"
     style="fill:#3a3a3a;stroke-width:2.11666667;stroke:#000000;stroke-opacity:1;stroke-miterlimit:4;stroke-dasharray:none"
     sodipodi:nodetypes="ccccc"
     clip-path="url(#clipPath907)" />
  <path
     sodipodi:nodetypes="ccssccccc"
     style="fill:#3a3a3a;stroke-width:2.11666667;stroke-opacity:1;stroke:#000000;stroke-miterlimit:4;stroke-dasharray:none"
     inkscape:connector-curvature="0"
     d="m 16.933,-6.6e-4 h 8.46667 c 0,4.234 4.233,8.467 8.467,8.467 h 16.933 c 4.233,0 8.467,-4.233 8.468,-8.467 L 67.733,2.4e-6 55.033,12.700002 h -25.4 z"
     id="path911"
     clip-path="url(#clipPath913)" />
</svg>
