<svg xmlns="http://www.w3.org/2000/svg" width="144" height="144" viewBox="0 0 38.1 38.1"><g transform="translate(0 -258.9)"><rect width="36.142" height="36.142" x=".979" y="259.879" rx="0" fill="#630" stroke="#191919" stroke-width="1.958"/><path fill="#4d4d1e" stroke="#191919" stroke-width="2.079" d="M.983 267.504h36.133v20.892H.983z"/><g fill="#ffd600" stroke-width="1.527"><path d="M21.052 271.594a2.074 2.074 0 0 0-.988.277 2.074 2.074 0 0 0-.76 2.834 2.074 2.074 0 0 0 2.834.759 2.074 2.074 0 0 0 .76-2.834 2.074 2.074 0 0 0-1.846-1.036zm.008.75a1.34 1.34 0 0 1 1.19.669 1.34 1.34 0 0 1-.49 1.829 1.34 1.34 0 0 1-1.828-.49 1.34 1.34 0 0 1 .49-1.83 1.34 1.34 0 0 1 .638-.178z"/><path d="M12.177 273.196l4.079-2.354 3.818 2.08-1.96 1.137-2.985 1.723-1.235-2.14zm8.47.125l2.705 2.005 2.57 3.222-.492.05-2.36-2.974-2.837-2.06zm-5.224 2.971l.669 1.157a4.355 4.355 0 0 1 1.32-1.186 4.355 4.355 0 0 1 1.687-.554l-.667-1.155zm2.311.558a4.46 4.46 0 0 0-1.79 5.784l7.697-4.444a4.46 4.46 0 0 0-5.907-1.34zm-1.452 6.35a4.46 4.46 0 0 0 5.848 1.263 4.46 4.46 0 0 0 1.834-5.698z" style="isolation:isolate"/></g><path fill="#4d2600" stroke="#191919" stroke-width="1.448" stroke-miterlimit="10" d="M5.118 295.802v-35.688h4.644v35.688z"/><path fill="#888" stroke="#191919" stroke-width="1.448" stroke-miterlimit="10" d="M16.941 291.772h4.218v3.77h-4.218z"/><path fill="#4d2600" stroke="#191919" stroke-width="1.448" stroke-miterlimit="10" d="M28.269 295.794v-35.688h4.644v35.688z"/><path fill="#888" stroke="#191919" stroke-width="1.448" stroke-miterlimit="10" d="M16.918 260.345h4.218v3.77h-4.218z"/></g></svg>