<svg xmlns="http://www.w3.org/2000/svg" width="144" height="144" viewBox="0 0 38.1 38.1"><g fill="#4d2600" stroke="#191919"><path d="M17.175 8.47l3.567-1.064.659-3.565L35.449 19.22l-3.402-.638.603 2.34-1.81-.265-.275 1.968z" stroke-width="1.204"/><path d="M7.948 5.521L10.072 8l3.024-.764-6.924 16.847-.734-2.962-1.61 1.333-.448-1.55-1.638.494z" stroke-width="1.049"/><path d="M30.236 27.71l-1.42 3.556 2.387 2.789-20.991 1.62 2.656-2.345-2.224-.994L12 31.04l-1.376-1.468z" stroke-width="1.226"/><path d="M31.743 6.305l.561 3.85 3.502 1.195L18.272 23.7l1.133-3.434-2.448.289.528-1.84-1.947-.567z" stroke-width="1.243"/></g></svg>