<svg xmlns="http://www.w3.org/2000/svg" width="600" height="256" viewBox="0 0 158.749 67.733"><defs><clipPath id="b"><path clip-path="url(#clipPath6865)" d="M402.14 158.55h9.526v-42.334h-9.525z" fill="#a3977d" stroke-width="1.984"/></clipPath><clipPath id="c"><path d="M-22.25 168.075v-9.525h-46.568v9.525z" clip-path="url(#clipPath6865)" fill="#a3977d" stroke-width="2.081"/></clipPath><clipPath id="a"><path d="M235.358 100V64H59.36v36z"/></clipPath><clipPath id="d"><path d="M99.483 142.346h100.542v-8.467H114.3l-6.35-6.35v-16.933l6.35-7.408h85.725V94.72H99.483z" fill="#111a20" stroke-width="4.001"/></clipPath></defs><path d="M235.358 163.999v-36H59.36v36z" clip-path="url(#a)" transform="translate(-81.815 -79.29) scale(.26458)" fill="#464646" stroke="#000" stroke-width="8"/><path d="M235.358 195.999v-36H59.36v36z" clip-path="url(#a)" transform="translate(-81.815 -79.29) scale(.26458)" fill="#3c3c3c" stroke="#000" stroke-width="8"/><path d="M235.358 227.998v-36H59.36v36z" clip-path="url(#a)" transform="translate(-81.815 -79.29) scale(.26458)" fill="#323232" stroke="#000" stroke-width="8"/><path d="M42.049 13.838s-1.563-1.606-1.652-2.117V9.605c-.022-.843-1.524-2.117-1.524-2.117-.733-.999 0-2.116 0-2.116l1.503-2.096c1.168-1.376 2.476-1.08 3.852-2.18.072 2.918-1.537 2.192-2.813 3.465l-.891 1.382s-.31.529 0 .995c0 0 1.203 1.175 1.27 1.863v1.862c.244.888 2.392 3.175 2.392 3.175zM30.642 58.42s.9 1.591-.043 2.549c-.643.643-1.495 1.457-1.542 2.305.182 2.02.388 3.479 2.812 3.611-.671-1.088-1.27-2.247-1.27-3.175-.031-.769.4-.885 1.059-1.638.612-.66 1.307-2.125.381-3.632zM17.24 19.977s-1.073 1.562-2.138 2.117c-.355.31-1.362.044-2.45.266-1.483.764-2.124 2.292-3.878 1.85-.488-.266-1.058-1.058-1.058-1.058-.826-1.058-2.573-.456-4.233-2.116 2.304.2 3.008-.894 4.891.566 1.691 1.193 2.584-.307 3.575-.905.866-.2 1.362.2 2.117 0 1.332-.29 3.175-2.836 3.175-2.836zM17.24 48.214s-1.606-1.563-2.116-1.652h-2.116c-.844-.022-2.117-1.524-2.117-1.524-1-.732-2.116 0-2.116 0l-2.096 1.503c-1.376 1.169-1.08 2.477-2.18 3.852 2.918.072 2.191-1.537 3.464-2.813l1.383-.89s.528-.312.995 0c0 0 1.174 1.203 1.863 1.27h1.862c.887.243 3.175 2.391 3.175 2.391z" fill="#4b4c25" stroke="#000" stroke-width=".529"/><path d="M16.098 58.797V11.172H116.64v47.625z" fill="#323437"/><path d="M154.552 36.555L134.907 56.2l-9.355-9.355 19.644-19.644z" fill="#6d6d6d" stroke="#191919" stroke-width="2" paint-order="stroke fill markers"/><path d="M152.681 34.685l-19.644 19.643-.936-.936 19.644-19.644z" fill="#d3d3d3" fill-opacity=".783"/><path d="M134.71 13.568l7.19 26.834-12.779 3.424-7.19-26.834z" fill="#6d6d6d" stroke="#191919" stroke-width="2" paint-order="stroke fill markers"/><path d="M132.153 14.253l7.19 26.834-1.278.343-7.19-26.835z" fill="#d3d3d3" fill-opacity=".783"/><path d="M154.552 36.555L134.907 56.2l-9.355-9.355 19.644-19.644z" fill="#1b1e25" stroke="#040608" stroke-width="2" paint-order="stroke fill markers"/><path d="M152.681 34.685l-19.644 19.643-.936-.936 19.644-19.644z" fill="#323437"/><path d="M134.71 13.568l7.19 26.834-12.779 3.424-7.19-26.834z" fill="#1b1e25" stroke="#040608" stroke-width="2" paint-order="stroke fill markers"/><path d="M132.153 14.253l7.19 26.834-1.278.343-7.19-26.835z" fill="#323437"/><path clip-path="url(#b)" d="M402.14 158.55h9.526v-42.334h-9.525z" transform="matrix(1 0 0 1.1 -342.65 -116.01)" fill="#646464"/><path transform="rotate(90 69.225 149.872)" clip-path="url(#c)" d="M-22.25 168.075v-9.525h-46.568v9.525z" fill="#5a5a5a" stroke="#000" stroke-width="2.117" stroke-opacity=".706"/><path d="M-22.25 168.075v-9.525h-46.568v9.525z" clip-path="url(#c)" transform="rotate(90 64.992 145.64)" fill="#505050" stroke="#000" stroke-width="2.117" stroke-opacity=".706"/><path transform="rotate(90 60.759 141.406)" clip-path="url(#c)" d="M-22.25 168.075v-9.525h-46.568v9.525z" fill="#464646" stroke="#000" stroke-width="2.117" stroke-opacity=".706"/><path d="M-22.25 168.075v-9.525h-46.568v9.525z" clip-path="url(#c)" transform="rotate(90 56.525 137.172)" fill="#3c3c3c" stroke="#000" stroke-width="2.117" stroke-opacity=".706"/><path transform="rotate(90 52.292 132.94)" clip-path="url(#c)" d="M-22.25 168.075v-9.525h-46.568v9.525z" fill="#323232" stroke="#000" stroke-width="2.117" stroke-opacity=".706"/><path clip-path="url(#d)" d="M99.483 142.346h100.542v-8.467H114.3l-6.35-6.35v-16.933l6.35-7.408h85.725V94.72H99.483z" transform="translate(-83.385 -83.55)" fill="#1b1e25" stroke="#000" stroke-width="3.175" stroke-opacity=".706"/></svg>