<svg xmlns="http://www.w3.org/2000/svg" width="144" height="108" viewBox="0 0 38.1 28.575"><defs><clipPath id="a"><path fill="#fff" stroke-width="3.175" d="M-13.229 268.425h38.1V297h-38.1z"/></clipPath><clipPath id="b"><ellipse cx="-282.472" cy="-35.694" rx="18.22" ry="18.195" stroke-miterlimit="10" fill-opacity=".271" stroke-width="1.643" stroke-opacity=".769"/></clipPath></defs><g transform="translate(0 -268.425)"><rect width="38.1" height="28.575" y="268.425" rx="0" fill="#5b0e0e"/><path d="M0 268.425l4.233 4.233h29.634l4.233-4.233z" fill="#642d13"/><path d="M38.1 297l-4.233-4.233H4.233L0 297z" fill="#5b2911"/><path d="M0 297l4.233-4.233v-20.109L0 268.425z" fill="#723416"/><path d="M38.1 268.425l-4.233 4.233v20.109L38.1 297z" fill="#6c3115"/><path clip-path="url(#a)" transform="translate(13.23)" fill="none" stroke="#191919" stroke-width="3.175" d="M-13.229 268.425h38.1V297h-38.1z"/><path d="M33.867 282.183l-10.584 10.584H25.4l8.467-8.467z" fill="#ededed" fill-opacity=".157"/><ellipse stroke-miterlimit="10" ry="18.195" rx="18.22" transform="matrix(-.21906 -.43851 .43855 -.219 -27.176 151.028)" cy="-35.694" cx="-282.472" clip-path="url(#b)" fill-opacity=".271" stroke="#292929" stroke-width="2.93" stroke-opacity=".773"/><path d="M33.867 277.42L18.52 292.768h3.704l11.642-11.642z" fill="#ededed" fill-opacity=".157"/><g transform="translate(53.268 -5.547)"><path d="M-35.29 292.635l-2.314 1.336-.04-.017 2.389-1.38c0 .043-.035.06-.035.06z" stroke="#000" stroke-width=".144"/><path d="M-41.379 287.986a2.26 2.26 0 0 0 .065.793c-.292-.267-.648-.249-.7-.495.02-.202.375-.148.635-.298z"/><path d="M-41.083 289.659s-.743.777-.443.671c1.246-.72 1.643-.291 1.78-.034.4.748.53 2.722 1.05 3.617.094.163.647.041.647.041l2.596-1.498-.53-.318c-.67-1.69-1.118-2.538-.6-2.837a412.22 412.22 0 0 0 1.87-1.08c-.21-.15-.441-.705-.441-.705-.207-.632.053-1.028.312-1.357a.661.661 0 0 0 .093-.157zm5.826-1.539l-.675.39c-.547.32-.748.501-1.114.228-.224-.148-.3-.52-.204-.713.148-.224.897-.726 1.216-.772.35.006.68.577.777.867z" fill="#e1b43f" stroke="#000" stroke-width=".282"/><path d="M-36.775 287.889c-.013.215-.057.38.308.653-.057.008-.237.068-.44-.162-.13-.18-.098-.332-.098-.332z" fill="#e1b43f" stroke="#000" stroke-width=".091"/><path d="M-41.063 286.696l.544.102-.572.33-.18-.312zm9.375-5.344c-.079.06-.265.5-.265.5l.57-.33c-.12-.208-.253-.2-.305-.17z"/><path d="M-31.281 283.612l-9.732 5.618c.01-.207-.1-.47-.121-.611-.093-.63-.014-1.023.081-1.306l3.329-1.922s.3.512.68.458l5.427-3.135c.143.127.323.61.4.861z" fill="#e1b43f" stroke="#000" stroke-width=".292"/><path d="M-30.484 283.583l-.15.086c.016-.214-.034-.41-.034-.41l-.572.327s-.106-.562-.499-.82l-5.314 3.068c-.558-.055-.625-.47-.625-.47l6.593-3.806a2.98 2.98 0 0 1 .601 2.025z" fill="#e1b43f" stroke="#000" stroke-width=".292"/><path d="M-31.007 283.886l-3.588 2.072.017-.05 3.606-2.082a.07.07 0 0 1-.035.06z" fill="#fff" fill-opacity=".389" stroke="#000" stroke-width=".292"/><path d="M-38.01 286.041l-1.535.886s-.398.802-.947 1.156a.383.383 0 0 1-.387-.109l.11.856 3.011-1.739"/><path d="M-40.473 287.366l.26 1.174m.233-1.46l.26 1.175" fill="#323232" stroke="#e1b43f" stroke-width=".114"/><path d="M-40.373 287.89a5.68 5.68 0 0 0 .68-.861c.09-.137-.005-.22-.196-.11l-.883.509c-.35.247.043.806.399.462zm.547 1.068c.176 1.346.732 4.146 1.122 4.821.292-.151 2.394-1.382 2.394-1.382l-1.085-2.857s.01-.04-.138.033c-.26.094-.403-.196-.203-.35.157-.08.178-.111.178-.111l-.348-.916-1.199.692-.15-.26z"/><path d="M-37.357 289.086c-.116.12-.19.106-.336.18-.142.109-.04.313.144.247.16-.08.203-.048.358-.068.377-.192.094-.507-.166-.36z"/><circle transform="rotate(-30)" r=".187" cy="228.841" cx="-178.968" fill="#e1b43f"/><circle transform="rotate(-30)" r=".13" cy="231.879" cx="-176.846" fill="#e1b43f"/><path d="M-39.486 286.796l.26 1.174m.234-1.46l.26 1.175m.233-1.459l.26 1.174" fill="#323232" stroke="#e1b43f" stroke-width=".114"/></g><g transform="translate(56.233 -3.741)"><path d="M-35.29 292.635l-2.314 1.336-.04-.017 2.389-1.38c0 .043-.035.06-.035.06z" stroke="#000" stroke-width=".144"/><path d="M-41.379 287.986a2.26 2.26 0 0 0 .065.793c-.292-.267-.648-.249-.7-.495.02-.202.375-.148.635-.298z"/><path d="M-41.083 289.659s-.743.777-.443.671c1.246-.72 1.643-.291 1.78-.034.4.748.53 2.722 1.05 3.617.094.163.647.041.647.041l2.596-1.498-.53-.318c-.67-1.69-1.118-2.538-.6-2.837a412.22 412.22 0 0 0 1.87-1.08c-.21-.15-.441-.705-.441-.705-.207-.632.053-1.028.312-1.357a.661.661 0 0 0 .093-.157zm5.826-1.539l-.675.39c-.547.32-.748.501-1.114.228-.224-.148-.3-.52-.204-.713.148-.224.897-.726 1.216-.772.35.006.68.577.777.867z" fill="#e1b43f" stroke="#000" stroke-width=".282"/><path d="M-36.775 287.889c-.013.215-.057.38.308.653-.057.008-.237.068-.44-.162-.13-.18-.098-.332-.098-.332z" fill="#e1b43f" stroke="#000" stroke-width=".091"/><path d="M-41.063 286.696l.544.102-.572.33-.18-.312zm9.375-5.344c-.079.06-.265.5-.265.5l.57-.33c-.12-.208-.253-.2-.305-.17z"/><path d="M-31.281 283.612l-9.732 5.618c.01-.207-.1-.47-.121-.611-.093-.63-.014-1.023.081-1.306l3.329-1.922s.3.512.68.458l5.427-3.135c.143.127.323.61.4.861z" fill="#e1b43f" stroke="#000" stroke-width=".292"/><path d="M-30.484 283.583l-.15.086c.016-.214-.034-.41-.034-.41l-.572.327s-.106-.562-.499-.82l-5.314 3.068c-.558-.055-.625-.47-.625-.47l6.593-3.806a2.98 2.98 0 0 1 .601 2.025z" fill="#e1b43f" stroke="#000" stroke-width=".292"/><path d="M-31.007 283.886l-3.588 2.072.017-.05 3.606-2.082a.07.07 0 0 1-.035.06z" fill="#fff" fill-opacity=".389" stroke="#000" stroke-width=".292"/><path d="M-38.01 286.041l-1.535.886s-.398.802-.947 1.156a.383.383 0 0 1-.387-.109l.11.856 3.011-1.739"/><path d="M-40.473 287.366l.26 1.174m.233-1.46l.26 1.175" fill="#323232" stroke="#e1b43f" stroke-width=".114"/><path d="M-40.373 287.89a5.68 5.68 0 0 0 .68-.861c.09-.137-.005-.22-.196-.11l-.883.509c-.35.247.043.806.399.462zm.547 1.068c.176 1.346.732 4.146 1.122 4.821.292-.151 2.394-1.382 2.394-1.382l-1.085-2.857s.01-.04-.138.033c-.26.094-.403-.196-.203-.35.157-.08.178-.111.178-.111l-.348-.916-1.199.692-.15-.26z"/><path d="M-37.357 289.086c-.116.12-.19.106-.336.18-.142.109-.04.313.144.247.16-.08.203-.048.358-.068.377-.192.094-.507-.166-.36z"/><circle cx="-178.968" cy="228.841" r=".187" transform="rotate(-30)" fill="#e1b43f"/><circle cx="-176.846" cy="231.879" r=".13" transform="rotate(-30)" fill="#e1b43f"/><path d="M-39.486 286.796l.26 1.174m.234-1.46l.26 1.175m.233-1.459l.26 1.174" fill="#323232" stroke="#e1b43f" stroke-width=".114"/></g><path fill="#dbf0ff" fill-opacity=".04" d="M4.233 272.658h29.633v20.108H4.233z"/></g></svg>