<?xml version="1.0" encoding="UTF-8" standalone="no"?>
<svg
   xmlns:dc="http://purl.org/dc/elements/1.1/"
   xmlns:cc="http://creativecommons.org/ns#"
   xmlns:rdf="http://www.w3.org/1999/02/22-rdf-syntax-ns#"
   xmlns:svg="http://www.w3.org/2000/svg"
   xmlns="http://www.w3.org/2000/svg"
   xmlns:sodipodi="http://sodipodi.sourceforge.net/DTD/sodipodi-0.dtd"
   xmlns:inkscape="http://www.inkscape.org/namespaces/inkscape"
   width="148"
   height="148"
   version="1.1"
   id="svg50"
   sodipodi:docname="map-sandbags-02.svg"
   inkscape:version="0.92.2 (5c3e80d, 2017-08-06)">
  <metadata
     id="metadata54">
    <rdf:RDF>
      <cc:Work
         rdf:about="">
        <dc:format>image/svg+xml</dc:format>
        <dc:type
           rdf:resource="http://purl.org/dc/dcmitype/StillImage" />
        <dc:title></dc:title>
      </cc:Work>
    </rdf:RDF>
  </metadata>
  <sodipodi:namedview
     pagecolor="#ffffff"
     bordercolor="#666666"
     borderopacity="1"
     objecttolerance="10"
     gridtolerance="10"
     guidetolerance="10"
     inkscape:pageopacity="0"
     inkscape:pageshadow="2"
     inkscape:window-width="1920"
     inkscape:window-height="1177"
     id="namedview52"
     showgrid="false"
     inkscape:zoom="1.109375"
     inkscape:cx="152.9215"
     inkscape:cy="-32.556188"
     inkscape:window-x="3832"
     inkscape:window-y="-8"
     inkscape:window-maximized="1"
     inkscape:current-layer="svg50" />
  <defs
     id="defs26">
    <clipPath
       id="c">
      <path
         d="m 24.445,2.335 c 18.667,3.11 68.443,3.11 87.11,0 6.8,-1.133 15.555,0 12.443,6.222 0,0 -6.222,9.333 -6.222,21.777 0,12.444 6.222,21.777 6.222,21.777 3.112,6.222 -5.643,7.355 -12.443,6.222 -18.667,-3.11 -68.443,-3.11 -87.11,0 -6.8,1.133 -15.555,0 -12.444,-6.222 0,0 6.222,-12.444 6.222,-21.777 C 18.223,17.89 12.001,8.557 12.001,8.557 8.891,2.335 17.646,1.202 24.445,2.335 Z"
         id="path2"
         inkscape:connector-curvature="0"
         style="fill:#d9b88d;stroke-width:14.04500008" />
    </clipPath>
    <clipPath
       id="d">
      <path
         d="m 24.445,2.335 c 18.667,3.11 68.443,3.11 87.11,0 6.8,-1.133 15.555,0 12.443,6.222 0,0 -6.222,9.333 -6.222,21.777 0,12.444 6.222,21.777 6.222,21.777 3.112,6.222 -5.643,7.355 -12.443,6.222 -18.667,-3.11 -68.443,-3.11 -87.11,0 -6.8,1.133 -15.555,0 -12.444,-6.222 0,0 6.222,-12.444 6.222,-21.777 C 18.223,17.89 12.001,8.557 12.001,8.557 8.891,2.335 17.646,1.202 24.445,2.335 Z"
         id="path5"
         inkscape:connector-curvature="0"
         style="fill:#d9b88d;stroke-width:14.04500008" />
    </clipPath>
    <clipPath
       id="e">
      <path
         d="m 24.445,2.335 c 18.667,3.11 68.443,3.11 87.11,0 6.8,-1.133 15.555,0 12.443,6.222 0,0 -6.222,9.333 -6.222,21.777 0,12.444 6.222,21.777 6.222,21.777 3.112,6.222 -5.643,7.355 -12.443,6.222 -18.667,-3.11 -68.443,-3.11 -87.11,0 -6.8,1.133 -15.555,0 -12.444,-6.222 0,0 6.222,-12.444 6.222,-21.777 C 18.223,17.89 12.001,8.557 12.001,8.557 8.891,2.335 17.646,1.202 24.445,2.335 Z"
         id="path8"
         inkscape:connector-curvature="0"
         style="fill:#d9b88d;stroke-width:14.04500008" />
    </clipPath>
    <clipPath
       id="f">
      <path
         d="m 24.445,2.335 c 18.667,3.11 68.443,3.11 87.11,0 6.8,-1.133 15.555,0 12.443,6.222 0,0 -6.222,9.333 -6.222,21.777 0,12.444 6.222,21.777 6.222,21.777 3.112,6.222 -5.643,7.355 -12.443,6.222 -18.667,-3.11 -68.443,-3.11 -87.11,0 -6.8,1.133 -15.555,0 -12.444,-6.222 0,0 6.222,-12.444 6.222,-21.777 C 18.223,17.89 12.001,8.557 12.001,8.557 8.891,2.335 17.646,1.202 24.445,2.335 Z"
         id="path11"
         inkscape:connector-curvature="0"
         style="fill:#d9b88d;stroke-width:14.04500008" />
    </clipPath>
    <clipPath
       id="g">
      <path
         d="m 24.445,2.335 c 18.667,3.11 68.443,3.11 87.11,0 6.8,-1.133 15.555,0 12.443,6.222 0,0 -6.222,9.333 -6.222,21.777 0,12.444 6.222,21.777 6.222,21.777 3.112,6.222 -5.643,7.355 -12.443,6.222 -18.667,-3.11 -68.443,-3.11 -87.11,0 -6.8,1.133 -15.555,0 -12.444,-6.222 0,0 6.222,-12.444 6.222,-21.777 C 18.223,17.89 12.001,8.557 12.001,8.557 8.891,2.335 17.646,1.202 24.445,2.335 Z"
         id="path14"
         inkscape:connector-curvature="0"
         style="fill:#d9b88d;stroke-width:14.04500008" />
    </clipPath>
    <clipPath
       id="h">
      <path
         d="m 24.445,2.335 c 18.667,3.11 68.443,3.11 87.11,0 6.8,-1.133 15.555,0 12.443,6.222 0,0 -6.222,9.333 -6.222,21.777 0,12.444 6.222,21.777 6.222,21.777 3.112,6.222 -5.643,7.355 -12.443,6.222 -18.667,-3.11 -68.443,-3.11 -87.11,0 -6.8,1.133 -15.555,0 -12.444,-6.222 0,0 6.222,-12.444 6.222,-21.777 C 18.223,17.89 12.001,8.557 12.001,8.557 8.891,2.335 17.646,1.202 24.445,2.335 Z"
         id="path17"
         inkscape:connector-curvature="0"
         style="fill:#d9b88d;stroke-width:14.04500008" />
    </clipPath>
    <clipPath
       id="b">
      <path
         d="m 40,126.167 c 19.889,3.315 45.482,3.315 65.372,0 7.245,-1.207 16.572,0 13.257,6.63 0,0 -6.629,9.944 -6.629,23.203 0,13.259 6.63,23.203 6.63,23.203 3.314,6.63 -6.013,7.836 -13.258,6.63 -19.89,-3.315 -45.483,-3.315 -65.372,0 -7.245,1.206 -16.573,0 -13.259,-6.63 0,0 6.63,-13.259 6.63,-23.203 0,-13.259 -6.63,-23.203 -6.63,-23.203 -3.314,-6.63 6.014,-7.837 13.259,-6.63 z"
         id="path20"
         inkscape:connector-curvature="0"
         style="fill:#d9b88d;stroke-width:14.96500015" />
    </clipPath>
    <clipPath
       id="a">
      <path
         d="m 40,126.167 c 19.889,3.315 45.482,3.315 65.372,0 7.245,-1.207 16.572,0 13.257,6.63 0,0 -6.629,9.944 -6.629,23.203 0,13.259 6.63,23.203 6.63,23.203 3.314,6.63 -6.013,7.836 -13.258,6.63 -19.89,-3.315 -45.483,-3.315 -65.372,0 -7.245,1.206 -16.573,0 -13.259,-6.63 0,0 6.63,-13.259 6.63,-23.203 0,-13.259 -6.63,-23.203 -6.63,-23.203 -3.314,-6.63 6.014,-7.837 13.259,-6.63 z"
         id="path23"
         inkscape:connector-curvature="0"
         style="fill:#d9b88d;stroke-width:14.96500015" />
    </clipPath>
    <clipPath
       clipPathUnits="userSpaceOnUse"
       id="clipPath847">
      <path
         id="path849"
         d="m 164.17441,34.108263 c -4.01809,17.097105 -4.01809,62.686943 0,79.784047 1.46383,6.22812 0,14.24683 -8.03875,11.39655 0,0 -12.05815,-5.69873 -28.13567,-5.69873 -16.07751,0 -28.135648,5.69873 -28.135648,5.69873 -8.038759,2.85028 -9.502583,-5.16843 -8.038759,-11.39655 4.018093,-17.097104 4.018093,-62.686942 0,-79.784047 -1.463824,-6.22812 0,-14.246825 8.038759,-11.39746 0,0 16.077508,5.69873 28.135648,5.69873 16.07752,0 28.13567,-5.69873 28.13567,-5.69873 8.03875,-2.848449 9.50258,5.170255 8.03875,11.39746 z"
         inkscape:connector-curvature="0"
         style="fill:#d9b88d;stroke-width:15.27830791" />
    </clipPath>
    <clipPath
       id="h-0">
      <path
         style="fill:#d9b88d;stroke-width:14.04500008"
         inkscape:connector-curvature="0"
         d="m 24.445,2.335 c 18.667,3.11 68.443,3.11 87.11,0 6.8,-1.133 15.555,0 12.443,6.222 0,0 -6.222,9.333 -6.222,21.777 0,12.444 6.222,21.777 6.222,21.777 3.112,6.222 -5.643,7.355 -12.443,6.222 -18.667,-3.11 -68.443,-3.11 -87.11,0 -6.8,1.133 -15.555,0 -12.444,-6.222 0,0 6.222,-12.444 6.222,-21.777 C 18.223,17.89 12.001,8.557 12.001,8.557 8.891,2.335 17.646,1.202 24.445,2.335 Z"
         id="path17-9" />
    </clipPath>
    <clipPath
       id="g-1">
      <path
         style="fill:#d9b88d;stroke-width:14.04500008"
         inkscape:connector-curvature="0"
         d="m 24.445,2.335 c 18.667,3.11 68.443,3.11 87.11,0 6.8,-1.133 15.555,0 12.443,6.222 0,0 -6.222,9.333 -6.222,21.777 0,12.444 6.222,21.777 6.222,21.777 3.112,6.222 -5.643,7.355 -12.443,6.222 -18.667,-3.11 -68.443,-3.11 -87.11,0 -6.8,1.133 -15.555,0 -12.444,-6.222 0,0 6.222,-12.444 6.222,-21.777 C 18.223,17.89 12.001,8.557 12.001,8.557 8.891,2.335 17.646,1.202 24.445,2.335 Z"
         id="path14-0" />
    </clipPath>
    <clipPath
       id="f-4">
      <path
         style="fill:#d9b88d;stroke-width:14.04500008"
         inkscape:connector-curvature="0"
         d="m 24.445,2.335 c 18.667,3.11 68.443,3.11 87.11,0 6.8,-1.133 15.555,0 12.443,6.222 0,0 -6.222,9.333 -6.222,21.777 0,12.444 6.222,21.777 6.222,21.777 3.112,6.222 -5.643,7.355 -12.443,6.222 -18.667,-3.11 -68.443,-3.11 -87.11,0 -6.8,1.133 -15.555,0 -12.444,-6.222 0,0 6.222,-12.444 6.222,-21.777 C 18.223,17.89 12.001,8.557 12.001,8.557 8.891,2.335 17.646,1.202 24.445,2.335 Z"
         id="path11-6" />
    </clipPath>
    <clipPath
       id="e-1">
      <path
         style="fill:#d9b88d;stroke-width:14.04500008"
         inkscape:connector-curvature="0"
         d="m 24.445,2.335 c 18.667,3.11 68.443,3.11 87.11,0 6.8,-1.133 15.555,0 12.443,6.222 0,0 -6.222,9.333 -6.222,21.777 0,12.444 6.222,21.777 6.222,21.777 3.112,6.222 -5.643,7.355 -12.443,6.222 -18.667,-3.11 -68.443,-3.11 -87.11,0 -6.8,1.133 -15.555,0 -12.444,-6.222 0,0 6.222,-12.444 6.222,-21.777 C 18.223,17.89 12.001,8.557 12.001,8.557 8.891,2.335 17.646,1.202 24.445,2.335 Z"
         id="path8-7" />
    </clipPath>
    <clipPath
       id="a-4">
      <path
         style="fill:#d9b88d;stroke-width:14.96500015"
         inkscape:connector-curvature="0"
         d="m 40,126.167 c 19.889,3.315 45.482,3.315 65.372,0 7.245,-1.207 16.572,0 13.257,6.63 0,0 -6.629,9.944 -6.629,23.203 0,13.259 6.63,23.203 6.63,23.203 3.314,6.63 -6.013,7.836 -13.258,6.63 -19.89,-3.315 -45.483,-3.315 -65.372,0 -7.245,1.206 -16.573,0 -13.259,-6.63 0,0 6.63,-13.259 6.63,-23.203 0,-13.259 -6.63,-23.203 -6.63,-23.203 -3.314,-6.63 6.014,-7.837 13.259,-6.63 z"
         id="path23-0" />
    </clipPath>
    <clipPath
       id="b-9">
      <path
         style="fill:#d9b88d;stroke-width:14.96500015"
         inkscape:connector-curvature="0"
         d="m 40,126.167 c 19.889,3.315 45.482,3.315 65.372,0 7.245,-1.207 16.572,0 13.257,6.63 0,0 -6.629,9.944 -6.629,23.203 0,13.259 6.63,23.203 6.63,23.203 3.314,6.63 -6.013,7.836 -13.258,6.63 -19.89,-3.315 -45.483,-3.315 -65.372,0 -7.245,1.206 -16.573,0 -13.259,-6.63 0,0 6.63,-13.259 6.63,-23.203 0,-13.259 -6.63,-23.203 -6.63,-23.203 -3.314,-6.63 6.014,-7.837 13.259,-6.63 z"
         id="path20-8" />
    </clipPath>
    <clipPath
       id="c-6">
      <path
         style="fill:#d9b88d;stroke-width:14.04500008"
         inkscape:connector-curvature="0"
         d="m 24.445,2.335 c 18.667,3.11 68.443,3.11 87.11,0 6.8,-1.133 15.555,0 12.443,6.222 0,0 -6.222,9.333 -6.222,21.777 0,12.444 6.222,21.777 6.222,21.777 3.112,6.222 -5.643,7.355 -12.443,6.222 -18.667,-3.11 -68.443,-3.11 -87.11,0 -6.8,1.133 -15.555,0 -12.444,-6.222 0,0 6.222,-12.444 6.222,-21.777 C 18.223,17.89 12.001,8.557 12.001,8.557 8.891,2.335 17.646,1.202 24.445,2.335 Z"
         id="path2-1" />
    </clipPath>
    <clipPath
       id="d-1">
      <path
         style="fill:#d9b88d;stroke-width:14.04500008"
         inkscape:connector-curvature="0"
         d="m 24.445,2.335 c 18.667,3.11 68.443,3.11 87.11,0 6.8,-1.133 15.555,0 12.443,6.222 0,0 -6.222,9.333 -6.222,21.777 0,12.444 6.222,21.777 6.222,21.777 3.112,6.222 -5.643,7.355 -12.443,6.222 -18.667,-3.11 -68.443,-3.11 -87.11,0 -6.8,1.133 -15.555,0 -12.444,-6.222 0,0 6.222,-12.444 6.222,-21.777 C 18.223,17.89 12.001,8.557 12.001,8.557 8.891,2.335 17.646,1.202 24.445,2.335 Z"
         id="path5-8" />
    </clipPath>
  </defs>
  <g
     style="fill:#8e6530;stroke:#191919;stroke-width:12;stroke-opacity:0.57599996"
     id="g38"
     transform="translate(17.82856,0.30898135)">
    <path
       style="stroke-width:9.97999954"
       inkscape:connector-curvature="0"
       id="path28"
       clip-path="url(#a)"
       d="m 40,126.167 c 19.889,3.315 45.482,3.315 65.372,0 7.245,-1.207 16.572,0 13.257,6.63 0,0 -6.629,9.944 -6.629,23.203 0,13.259 6.63,23.203 6.63,23.203 3.314,6.63 -6.013,7.836 -13.258,6.63 -19.89,-3.315 -45.483,-3.315 -65.372,0 -7.245,1.206 -16.573,0 -13.259,-6.63 0,0 6.63,-13.259 6.63,-23.203 0,-13.259 -6.63,-23.203 -6.63,-23.203 -3.314,-6.63 6.014,-7.837 13.259,-6.63 z"
       transform="matrix(1.20246,0,0,1.20246,-31.23,-149.966)" />
    <path
       style="stroke-width:9.97999954"
       inkscape:connector-curvature="0"
       id="path30"
       transform="matrix(1.20246,0,0,1.20246,-31.23,-77.819)"
       clip-path="url(#b)"
       d="m 40,126.167 c 19.889,3.315 45.482,3.315 65.372,0 7.245,-1.207 16.572,0 13.257,6.63 0,0 -6.629,9.944 -6.629,23.203 0,13.259 6.63,23.203 6.63,23.203 3.314,6.63 -6.013,7.836 -13.258,6.63 -19.89,-3.315 -45.483,-3.315 -65.372,0 -7.245,1.206 -16.573,0 -13.259,-6.63 0,0 6.63,-13.259 6.63,-23.203 0,-13.259 -6.63,-23.203 -6.63,-23.203 -3.314,-6.63 6.014,-7.837 13.259,-6.63 z" />
    <g
       style="stroke-width:9.36600018"
       id="g36" />
  </g>
  <path
     style="fill:#ca9c63;fill-opacity:1;stroke:#191919;stroke-width:12;stroke-miterlimit:4;stroke-dasharray:none;stroke-opacity:1"
     inkscape:connector-curvature="0"
     d="m 164.17441,34.108263 c -4.01809,17.097105 -4.01809,62.686943 0,79.784047 1.46383,6.22812 0,14.24683 -8.03875,11.39655 0,0 -12.05815,-5.69873 -28.13567,-5.69873 -16.07751,0 -28.135648,5.69873 -28.135648,5.69873 -8.038759,2.85028 -9.502583,-5.16843 -8.038759,-11.39655 4.018093,-17.097104 4.018093,-62.686942 0,-79.784047 -1.463824,-6.22812 0,-14.246825 8.038759,-11.39746 0,0 16.077508,5.69873 28.135648,5.69873 16.07752,0 28.13567,-5.69873 28.13567,-5.69873 8.03875,-2.848449 9.50258,5.170255 8.03875,11.39746 z"
     id="path845"
     clip-path="url(#clipPath847)"
     transform="translate(-53.999998)" />
</svg>
