<svg xmlns="http://www.w3.org/2000/svg" xmlns:xlink="http://www.w3.org/1999/xlink" width="864" height="704" viewBox="0 0 228.6 186.267"><defs><pattern xlink:href="#a" id="e" patternTransform="translate(-29.634 177.8) scale(.06615)"/><pattern xlink:href="#a" id="d" patternTransform="translate(50.8 249.767) scale(.06615)"/><pattern xlink:href="#b" id="a" patternTransform="translate(-159.834 378.683) scale(.06615)"/><clipPath id="f"><path d="M39.132 200.883L22.2 217.816h-135.467l-16.933-16.933z" fill="#3f3c34" stroke-width="2.117" stroke-opacity=".706"/></clipPath><pattern patternUnits="userSpaceOnUse" width="32" height="32" patternTransform="translate(-159.834 378.683) scale(.26458)" id="b"><path fill="none" stroke-width="3.78" d="M0 0h32v32H0z"/><path fill="none" stroke-width="4" d="M0 0h32v32H0z"/><path d="M16 0v32M0 16h32" fill="none" stroke="#000" stroke-width="4"/></pattern><clipPath id="g"><path d="M169.333-.002L152.402 16.93H16.934L.002-.002H50.8l8.468 8.466h50.8l8.466-8.467z" fill="#3a3a3a" stroke-width="2.117" stroke-opacity=".706"/></clipPath><clipPath id="c"><path d="M0 0l16.932 16.933V165.1L0 182.034z" fill="#565656" stroke-width="2.117" stroke-opacity=".706"/></clipPath><clipPath id="h"><path d="M16.933 16.932l.002 148.168H152.4l-.002-148.168zm25.4 16.933a8.467 8.467 0 1 1 0 16.933 8.467 8.467 0 0 1 0-16.933zm80.432 67.733c7.014 0 12.7 5.686 12.7 12.7 0 7.014-5.686 12.7-12.7 12.7-7.014 0-12.7-5.686-12.7-12.7 0-7.014 5.686-12.7 12.7-12.7z" fill="#565656" stroke-width="1.682" stroke-opacity=".706"/></clipPath></defs><path d="M0 0l16.932 16.933V165.1L0 182.034z" clip-path="url(#c)" fill="#3a3a3a" stroke-width="2.117" stroke="#000"/><path d="M110.066 101.6h25.4V127h-25.4z" fill="url(#d)"/><path d="M29.632 29.633h25.4v25.4h-25.4z" fill="url(#e)"/><path transform="translate(130.2 -200.883)" clip-path="url(#f)" d="M39.132 200.883L22.2 217.816h-135.467l-16.933-16.933z" fill="#3a3a3a" stroke="#000" stroke-width="2.117"/><rect width="33.867" height="8.467" x="118.533" y="169.334" rx=".529" ry=".529" fill="#fff" fill-opacity=".409" stroke="#000" stroke-width="1.588"/><rect ry=".529" rx=".529" y="169.334" x="16.933" height="8.467" width="33.867" fill="#fff" fill-opacity=".409" stroke="#000" stroke-width="1.588"/><path transform="rotate(-180 84.667 91.015)" d="M169.333-.002L152.402 16.93H16.934L.002-.002H50.8l8.468 8.466h50.8l8.466-8.467z" clip-path="url(#g)" fill="#3a3a3a" stroke="#000" stroke-width="2.117"/><path clip-path="url(#c)" d="M0 0l16.932 16.933V165.1L0 182.034z" transform="matrix(-1 0 0 1 169.332 0)" fill="#3a3a3a" stroke="#000" stroke-width="2.117"/><path d="M16.933 16.932l.002 148.168H152.4l-.002-148.168zm25.4 16.933a8.467 8.467 0 1 1 0 16.933 8.467 8.467 0 0 1 0-16.933zm80.432 67.733c7.014 0 12.7 5.686 12.7 12.7 0 7.014-5.686 12.7-12.7 12.7-7.014 0-12.7-5.686-12.7-12.7 0-7.014 5.686-12.7 12.7-12.7z" clip-path="url(#h)" fill="#565656" stroke-width="2.117" stroke="#000"/></svg>