<?xml version="1.0" encoding="UTF-8" standalone="no"?>
<svg
   xmlns:dc="http://purl.org/dc/elements/1.1/"
   xmlns:cc="http://creativecommons.org/ns#"
   xmlns:rdf="http://www.w3.org/1999/02/22-rdf-syntax-ns#"
   xmlns:svg="http://www.w3.org/2000/svg"
   xmlns="http://www.w3.org/2000/svg"
   xmlns:sodipodi="http://sodipodi.sourceforge.net/DTD/sodipodi-0.dtd"
   xmlns:inkscape="http://www.inkscape.org/namespaces/inkscape"
   width="144"
   height="144"
   viewBox="0 0 38.1 38.1"
   version="1.1"
   id="svg10"
   sodipodi:docname="map-pumpkin-03.svg"
   inkscape:version="0.92.2 (5c3e80d, 2017-08-06)">
  <metadata
     id="metadata16">
    <rdf:RDF>
      <cc:Work
         rdf:about="">
        <dc:format>image/svg+xml</dc:format>
        <dc:type
           rdf:resource="http://purl.org/dc/dcmitype/StillImage" />
        <dc:title />
      </cc:Work>
    </rdf:RDF>
  </metadata>
  <defs
     id="defs14" />
  <sodipodi:namedview
     pagecolor="#ffffff"
     bordercolor="#666666"
     borderopacity="1"
     objecttolerance="10"
     gridtolerance="10"
     guidetolerance="10"
     inkscape:pageopacity="0"
     inkscape:pageshadow="2"
     inkscape:window-width="1920"
     inkscape:window-height="1017"
     id="namedview12"
     showgrid="true"
     inkscape:zoom="0.57943473"
     inkscape:cx="-148.31213"
     inkscape:cy="186.68343"
     inkscape:window-x="1912"
     inkscape:window-y="-8"
     inkscape:window-maximized="1"
     inkscape:current-layer="svg10"
     inkscape:snap-nodes="false">
    <inkscape:grid
       type="xygrid"
       id="grid823"
       empspacing="4"
       spacingy="1.0583333"
       spacingx="1.0583333" />
  </sodipodi:namedview>
  <g
     id="g964"
     transform="rotate(32.071813,24.82473,20.964518)"
     style="stroke-width:0.5291667;stroke-miterlimit:4;stroke-dasharray:none">
    <path
       d="m 23.611955,8.991224 c -1.531265,-0.05538 -2.796277,0.49744 -3.785176,1.287834 -1.163465,0.931238 -1.927601,2.206213 -2.201782,3.130909 -0.590755,1.992061 0.227079,3.536179 1.335785,4.061356 0,0 1.045393,0.523785 2.037394,0.08614 0.554353,-0.262588 0.955325,-0.602301 1.36338,-1.472229 0.431072,-0.919795 0.285132,-2.50409 0.305109,-4.001538 0.0111,-0.74951 0.06767,-1.480113 0.309235,-2.118623 0.135691,-0.368514 0.353158,-0.701472 0.636055,-0.973842 z"
       id="path956"
       inkscape:connector-curvature="0"
       style="fill:#28a200;stroke:#191919;stroke-width:0.5291667;stroke-miterlimit:4;stroke-dasharray:none"
       sodipodi:nodetypes="cccccccccc" />
    <path
       sodipodi:nodetypes="ccccccc"
       inkscape:connector-curvature="0"
       id="path958"
       d="m 17.54567,15.290913 -0.01144,-1.175354 c 0.195994,0.608612 2.311979,1.984606 2.311979,1.984606 0,0 1.688932,0.114469 2.483222,-0.246576 l -0.363899,0.804897 c -0.783974,0.268202 -2.278581,0.182407 -2.278581,0.182407 -0.907758,-0.505457 -2.14128,-1.54998 -2.141281,-1.54998 z"
       style="fill:#196400;fill-opacity:1;stroke:#191919;stroke-width:0.5291667;stroke-linecap:square;stroke-linejoin:miter;stroke-miterlimit:4;stroke-dasharray:none;stroke-opacity:1;paint-order:fill markers stroke" />
    <path
       style="fill:#196400;fill-opacity:1;stroke:#191919;stroke-width:0.5291667;stroke-linecap:square;stroke-linejoin:miter;stroke-miterlimit:4;stroke-dasharray:none;stroke-opacity:1;paint-order:fill markers stroke"
       d="m 18.019788,12.716087 0.593971,-1.087824 c 0.195994,0.608611 1.64092,1.918959 1.64092,1.918959 0,0 1.527187,-0.01619 2.321476,-0.377233 l -0.03438,1.001201 c -0.783974,0.268202 -2.417169,0.430407 -2.417169,0.430407 -0.907758,-0.505457 -2.10481,-1.88551 -2.10481,-1.88551 z"
       id="path960"
       inkscape:connector-curvature="0"
       sodipodi:nodetypes="cccccccc" />
    <path
       sodipodi:nodetypes="cccccc"
       inkscape:connector-curvature="0"
       id="path962"
       d="m 22.274329,9.179051 0.905746,0.02408 C 18.949484,15.4469 20.086092,19.35876 20.086092,19.35876 h -1.050354 c 0,0 -0.641882,-5.365585 3.238591,-10.179706 z"
       style="fill:#196400;fill-opacity:1;stroke:#191919;stroke-width:0.5291667;stroke-linecap:square;stroke-linejoin:miter;stroke-miterlimit:4;stroke-dasharray:none;stroke-opacity:1;paint-order:fill markers stroke" />
  </g>
  <g
     transform="rotate(130.10756,7.5542483,13.284545)"
     id="g954">
    <path
       d="m 15.149121,8.4199035 c 0.464443,-1.460183 0.27153,-2.827169 -0.22436,-3.991959 -0.584699,-1.37076 -1.607724,-2.449132 -2.424864,-2.961498 -1.760332,-1.103872 -3.4673248,-0.730606 -4.2708738,0.196406 0,0 -0.785209,0.866397 -0.629951,1.939473 0.104123,0.604499 0.323717,1.081952 1.05216,1.708574 0.770299,0.662182 2.3356128,0.946931 3.7727248,1.36819 0.719015,0.211911 1.407609,0.462547 1.957826,0.866663 0.318557,0.229643 0.58091,0.528515 0.767333,0.874149 z"
       id="path946"
       inkscape:connector-curvature="0"
       style="fill:#28a200;stroke:#191919;stroke-width:0.52916676;stroke-miterlimit:4;stroke-dasharray:none"
       sodipodi:nodetypes="cccccccccc" />
    <path
       sodipodi:nodetypes="ccccccc"
       inkscape:connector-curvature="0"
       id="path948"
       d="m 10.709299,0.8850585 1.135277,0.304525 c -0.638887,0.02541 -2.5324388,1.694302 -2.5324388,1.694302 0,0 -0.56369,1.596198 -0.42914,2.458258 l -0.677653,-0.566629 c -0.04789,-0.827196 0.436013,-2.243901 0.436013,-2.243901 0.730604,-0.738735 2.0679418,-1.646554 2.0679418,-1.646555 z"
       style="fill:#196400;fill-opacity:1;stroke:#191919;stroke-width:0.40296042;stroke-linecap:square;stroke-linejoin:miter;stroke-miterlimit:4;stroke-dasharray:none;stroke-opacity:1;paint-order:fill markers stroke" />
    <path
       style="fill:#196400;fill-opacity:1;stroke:#191919;stroke-width:0.40296042;stroke-linecap:square;stroke-linejoin:miter;stroke-miterlimit:4;stroke-dasharray:none;stroke-opacity:1;paint-order:fill markers stroke"
       d="m 13.062315,2.0330285 0.888427,0.86421 c -0.638886,0.02541 -2.289045,1.065503 -2.289045,1.065503 0,0 -0.394403,1.475469 -0.259855,2.337526 l -0.955216,-0.301907 c -0.04789,-0.827197 0.234324,-2.443982 0.234324,-2.443982 0.730604,-0.738735 2.381363,-1.521343 2.381363,-1.521343 z"
       id="path950"
       inkscape:connector-curvature="0"
       sodipodi:nodetypes="cccccccc" />
    <path
       sodipodi:nodetypes="cccccc"
       inkscape:connector-curvature="0"
       id="path952"
       d="m 15.327298,7.0809575 -0.266359,0.866031 C 10.182161,2.1954605 6.1087692,2.2401365 6.1087692,2.2401365 l 0.281984,-1.011794 c 0,0 5.3409328,0.822165 8.9365418,5.852615 z"
       style="fill:#196400;fill-opacity:1;stroke:#191919;stroke-width:0.40296042;stroke-linecap:square;stroke-linejoin:miter;stroke-miterlimit:4;stroke-dasharray:none;stroke-opacity:1;paint-order:fill markers stroke" />
  </g>
  <g
     style="stroke-width:0.5291667;stroke-miterlimit:4;stroke-dasharray:none"
     transform="rotate(174.4733,19.566332,20.248484)"
     id="g1005">
    <path
       d="m 23.611955,8.991224 c -1.531265,-0.05538 -2.796277,0.49744 -3.785176,1.287834 -1.163465,0.931238 -1.927601,2.206213 -2.201782,3.130909 -0.590755,1.992061 0.227079,3.536179 1.335785,4.061356 0,0 1.045393,0.523785 2.037394,0.08614 0.554353,-0.262588 0.955325,-0.602301 1.36338,-1.472229 0.431072,-0.919795 0.285132,-2.50409 0.305109,-4.001538 0.0111,-0.74951 0.06767,-1.480113 0.309235,-2.118623 0.135691,-0.368514 0.353158,-0.701472 0.636055,-0.973842 z"
       id="path997-8"
       inkscape:connector-curvature="0"
       style="fill:#28a200;stroke:#191919;stroke-width:0.5291667;stroke-miterlimit:4;stroke-dasharray:none"
       sodipodi:nodetypes="cccccccccc" />
    <path
       sodipodi:nodetypes="ccccccc"
       inkscape:connector-curvature="0"
       id="path999-7"
       d="m 17.54567,15.290913 -0.01144,-1.175354 c 0.195994,0.608612 2.311979,1.984606 2.311979,1.984606 0,0 1.688932,0.114469 2.483222,-0.246576 l -0.363899,0.804897 c -0.783974,0.268202 -2.278581,0.182407 -2.278581,0.182407 -0.907758,-0.505457 -2.14128,-1.54998 -2.141281,-1.54998 z"
       style="fill:#196400;fill-opacity:1;stroke:#191919;stroke-width:0.5291667;stroke-linecap:square;stroke-linejoin:miter;stroke-miterlimit:4;stroke-dasharray:none;stroke-opacity:1;paint-order:fill markers stroke" />
    <path
       style="fill:#196400;fill-opacity:1;stroke:#191919;stroke-width:0.5291667;stroke-linecap:square;stroke-linejoin:miter;stroke-miterlimit:4;stroke-dasharray:none;stroke-opacity:1;paint-order:fill markers stroke"
       d="m 18.019788,12.716087 0.593971,-1.087824 c 0.195994,0.608611 1.64092,1.918959 1.64092,1.918959 0,0 1.527187,-0.01619 2.321476,-0.377233 l -0.03438,1.001201 c -0.783974,0.268202 -2.417169,0.430407 -2.417169,0.430407 -0.907758,-0.505457 -2.10481,-1.88551 -2.10481,-1.88551 z"
       id="path1001-2"
       inkscape:connector-curvature="0"
       sodipodi:nodetypes="cccccccc" />
    <path
       sodipodi:nodetypes="cccccc"
       inkscape:connector-curvature="0"
       id="path1003-1"
       d="m 22.274329,9.179051 0.905746,0.02408 C 18.949484,15.4469 20.086092,19.35876 20.086092,19.35876 h -1.050354 c 0,0 -0.641882,-5.365585 3.238591,-10.179706 z"
       style="fill:#196400;fill-opacity:1;stroke:#191919;stroke-width:0.5291667;stroke-linecap:square;stroke-linejoin:miter;stroke-miterlimit:4;stroke-dasharray:none;stroke-opacity:1;paint-order:fill markers stroke" />
  </g>
  <g
     id="g944"
     transform="translate(14.852542,18.404238)">
    <path
       sodipodi:nodetypes="cccccccccc"
       style="fill:#28a200;stroke:#191919;stroke-width:0.52916676;stroke-miterlimit:4;stroke-dasharray:none"
       inkscape:connector-curvature="0"
       id="path1007-5"
       d="m 15.149121,8.4199035 c 0.464443,-1.460183 0.27153,-2.827169 -0.22436,-3.991959 -0.584699,-1.37076 -1.607724,-2.449132 -2.424864,-2.961498 -1.760332,-1.103872 -3.4673248,-0.730606 -4.2708738,0.196406 0,0 -0.785209,0.866397 -0.629951,1.939473 0.104123,0.604499 0.323717,1.081952 1.05216,1.708574 0.770299,0.662182 2.3356128,0.946931 3.7727248,1.36819 0.719015,0.211911 1.407609,0.462547 1.957826,0.866663 0.318557,0.229643 0.58091,0.528515 0.767333,0.874149 z" />
    <path
       style="fill:#196400;fill-opacity:1;stroke:#191919;stroke-width:0.40296042;stroke-linecap:square;stroke-linejoin:miter;stroke-miterlimit:4;stroke-dasharray:none;stroke-opacity:1;paint-order:fill markers stroke"
       d="m 10.709299,0.8850585 1.135277,0.304525 c -0.638887,0.02541 -2.5324388,1.694302 -2.5324388,1.694302 0,0 -0.56369,1.596198 -0.42914,2.458258 l -0.677653,-0.566629 c -0.04789,-0.827196 0.436013,-2.243901 0.436013,-2.243901 0.730604,-0.738735 2.0679418,-1.646554 2.0679418,-1.646555 z"
       id="path1009-5"
       inkscape:connector-curvature="0"
       sodipodi:nodetypes="ccccccc" />
    <path
       sodipodi:nodetypes="cccccccc"
       inkscape:connector-curvature="0"
       id="path1011-0"
       d="m 13.062315,2.0330285 0.888427,0.86421 c -0.638886,0.02541 -2.289045,1.065503 -2.289045,1.065503 0,0 -0.394403,1.475469 -0.259855,2.337526 l -0.955216,-0.301907 c -0.04789,-0.827197 0.234324,-2.443982 0.234324,-2.443982 0.730604,-0.738735 2.381363,-1.521343 2.381363,-1.521343 z"
       style="fill:#196400;fill-opacity:1;stroke:#191919;stroke-width:0.40296042;stroke-linecap:square;stroke-linejoin:miter;stroke-miterlimit:4;stroke-dasharray:none;stroke-opacity:1;paint-order:fill markers stroke" />
    <path
       style="fill:#196400;fill-opacity:1;stroke:#191919;stroke-width:0.40296042;stroke-linecap:square;stroke-linejoin:miter;stroke-miterlimit:4;stroke-dasharray:none;stroke-opacity:1;paint-order:fill markers stroke"
       d="m 15.327298,7.0809575 -0.266359,0.866031 C 10.182161,2.1954605 6.1087692,2.2401365 6.1087692,2.2401365 l 0.281984,-1.011794 c 0,0 5.3409328,0.822165 8.9365418,5.852615 z"
       id="path1013-7"
       inkscape:connector-curvature="0"
       sodipodi:nodetypes="cccccc" />
  </g>
  <g
     style="stroke-width:0.5291667;stroke-miterlimit:4;stroke-dasharray:none"
     transform="rotate(-49.692876,16.327228,20.254349)"
     id="g995">
    <path
       sodipodi:nodetypes="cccccccccc"
       style="fill:#28a200;stroke:#191919;stroke-width:0.5291667;stroke-miterlimit:4;stroke-dasharray:none"
       inkscape:connector-curvature="0"
       id="path826"
       d="m 23.611955,8.991224 c -1.531265,-0.05538 -2.796277,0.49744 -3.785176,1.287834 -1.163465,0.931238 -1.927601,2.206213 -2.201782,3.130909 -0.590755,1.992061 0.227079,3.536179 1.335785,4.061356 0,0 1.045393,0.523785 2.037394,0.08614 0.554353,-0.262588 0.955325,-0.602301 1.36338,-1.472229 0.431072,-0.919795 0.285132,-2.50409 0.305109,-4.001538 0.0111,-0.74951 0.06767,-1.480113 0.309235,-2.118623 0.135691,-0.368514 0.353158,-0.701472 0.636055,-0.973842 z" />
    <path
       style="fill:#196400;fill-opacity:1;stroke:#191919;stroke-width:0.5291667;stroke-linecap:square;stroke-linejoin:miter;stroke-miterlimit:4;stroke-dasharray:none;stroke-opacity:1;paint-order:fill markers stroke"
       d="m 17.54567,15.290913 -0.01144,-1.175354 c 0.195994,0.608612 2.311979,1.984606 2.311979,1.984606 0,0 1.688932,0.114469 2.483222,-0.246576 l -0.363899,0.804897 c -0.783974,0.268202 -2.278581,0.182407 -2.278581,0.182407 -0.907758,-0.505457 -2.14128,-1.54998 -2.141281,-1.54998 z"
       id="path820"
       inkscape:connector-curvature="0"
       sodipodi:nodetypes="ccccccc" />
    <path
       sodipodi:nodetypes="cccccccc"
       inkscape:connector-curvature="0"
       id="path847"
       d="m 18.019788,12.716087 0.593971,-1.087824 c 0.195994,0.608611 1.64092,1.918959 1.64092,1.918959 0,0 1.527187,-0.01619 2.321476,-0.377233 l -0.03438,1.001201 c -0.783974,0.268202 -2.417169,0.430407 -2.417169,0.430407 -0.907758,-0.505457 -2.10481,-1.88551 -2.10481,-1.88551 z"
       style="fill:#196400;fill-opacity:1;stroke:#191919;stroke-width:0.5291667;stroke-linecap:square;stroke-linejoin:miter;stroke-miterlimit:4;stroke-dasharray:none;stroke-opacity:1;paint-order:fill markers stroke" />
    <path
       style="fill:#196400;fill-opacity:1;stroke:#191919;stroke-width:0.5291667;stroke-linecap:square;stroke-linejoin:miter;stroke-miterlimit:4;stroke-dasharray:none;stroke-opacity:1;paint-order:fill markers stroke"
       d="m 22.274329,9.179051 0.905746,0.02408 C 18.949484,15.4469 20.086092,19.35876 20.086092,19.35876 h -1.050354 c 0,0 -0.641882,-5.365585 3.238591,-10.179706 z"
       id="rect832"
       inkscape:connector-curvature="0"
       sodipodi:nodetypes="cccccc" />
  </g>
  <path
     sodipodi:type="star"
     style="fill:#a92a03;fill-opacity:1;stroke:#2d2d2d;stroke-width:1.58749998;stroke-linecap:round;stroke-linejoin:round;stroke-miterlimit:4;stroke-dasharray:none;stroke-opacity:1;paint-order:normal"
     id="path1073"
     sodipodi:sides="5"
     sodipodi:cx="4.7491541"
     sodipodi:cy="7.5986481"
     sodipodi:r1="9.4983091"
     sodipodi:r2="7.6842937"
     sodipodi:arg1="-1.5707963"
     sodipodi:arg2="-0.9424778"
     inkscape:flatsided="true"
     inkscape:rounded="0.2"
     inkscape:randomized="0.02"
     d="M 4.8359402,-1.8826243 C 7.0514209,-1.8592171 13.051775,2.5699922 13.718918,4.7184192 14.386061,6.8668461 12.180086,13.829671 10.418932,15.194525 8.6577773,16.559379 1.1620728,16.70999 -0.67456299,15.42124 -2.5111987,14.13249 -5.0701324,6.8880643 -4.3831989,4.7653885 -3.6962655,2.6427126 2.6204595,-1.9060314 4.8359402,-1.8826243 Z"
     inkscape:transform-center-y="-0.85976352"
     transform="translate(14.379595,11.407625)"
     inkscape:transform-center-x="-0.0016242414" />
  <path
     sodipodi:nodetypes="scscscscscs"
     inkscape:connector-curvature="0"
     id="path1075"
     d="m 21.474213,19.56896 c -0.178289,0.665384 -1.238076,0.842442 -1.238076,0.842442 0,0 -0.393527,0.999817 -1.081441,1.03587 -0.687915,0.03605 -1.183793,-0.917156 -1.183793,-0.917156 0,0 -1.072488,-0.06531 -1.319359,-0.70841 -0.246862,-0.643102 0.506463,-1.40927 0.506463,-1.40927 0,0 -0.26931,-1.040179 0.266025,-1.473692 0.535347,-0.433508 1.496803,0.04618 1.496803,0.04618 0,0 0.906046,-0.57756 1.483772,-0.202383 0.577725,0.375179 0.41862,1.437812 0.41862,1.437812 0,0 0.829277,0.683228 0.650986,1.348609 z"
     inkscape:transform-center-y="0.13259795"
     style="fill:#ff5e48;fill-opacity:1;stroke:#323232;stroke-width:1.10109496;stroke-linecap:butt;stroke-linejoin:miter;stroke-miterlimit:4;stroke-dasharray:none;stroke-opacity:1"
     inkscape:transform-center-x="-0.00035960416" />
  <path
     sodipodi:nodetypes="cc"
     inkscape:connector-curvature="0"
     id="path1005"
     d="m 25.922937,16.933334 -2.790784,0.684073"
     style="fill:none;stroke:#480a0a;stroke-width:0.79375;stroke-linecap:round;stroke-linejoin:round;stroke-miterlimit:4;stroke-dasharray:none;stroke-opacity:1" />
  <path
     style="fill:none;stroke:#480a0a;stroke-width:0.79375;stroke-linecap:round;stroke-linejoin:round;stroke-miterlimit:4;stroke-dasharray:none;stroke-opacity:1"
     d="M 14.816666,17.617407 12.025882,16.933334"
     id="path1077"
     inkscape:connector-curvature="0"
     sodipodi:nodetypes="cc" />
  <path
     sodipodi:nodetypes="cc"
     inkscape:connector-curvature="0"
     id="path1079"
     d="m 16.654363,22.643146 -1.674172,2.335289"
     style="fill:none;stroke:#480a0a;stroke-width:0.79375;stroke-linecap:round;stroke-linejoin:round;stroke-miterlimit:4;stroke-dasharray:none;stroke-opacity:1" />
  <path
     style="fill:none;stroke:#480a0a;stroke-width:0.79375;stroke-linecap:round;stroke-linejoin:round;stroke-miterlimit:4;stroke-dasharray:none;stroke-opacity:1"
     d="M 23.399255,24.83623 21.946269,22.357267"
     id="path1081"
     inkscape:connector-curvature="0"
     sodipodi:nodetypes="cc" />
  <path
     sodipodi:nodetypes="cc"
     inkscape:connector-curvature="0"
     id="path1083"
     d="m 18.973404,14.815786 0.10962,-2.871309"
     style="fill:none;stroke:#480a0a;stroke-width:0.79375;stroke-linecap:round;stroke-linejoin:round;stroke-miterlimit:4;stroke-dasharray:none;stroke-opacity:1" />
  <path
     sodipodi:nodetypes="sssss"
     inkscape:connector-curvature="0"
     id="path841-3"
     d="m 14.216493,14.836944 c 0.231831,0.515157 0.80565,0.818434 1.174375,0.709183 0.368727,-0.109251 0.39273,-0.589669 0.160893,-1.104826 -0.231835,-0.515155 -0.733937,-0.721653 -1.102662,-0.612401 -0.368727,0.109251 -0.464446,0.49289 -0.232609,1.008045 z"
     style="fill:#000000;fill-opacity:0.530303;stroke:none;stroke-width:0.53874981;stroke-linecap:square;stroke-linejoin:miter;stroke-miterlimit:4;stroke-dasharray:none;stroke-opacity:1;paint-order:fill markers stroke" />
  <path
     style="fill:#000000;fill-opacity:0.530303;stroke:none;stroke-width:0.4651908;stroke-linecap:square;stroke-linejoin:miter;stroke-miterlimit:4;stroke-dasharray:none;stroke-opacity:1;paint-order:fill markers stroke"
     d="m 14.033516,20.561266 c 0.250497,-0.418332 0.07687,-0.798929 -0.283073,-0.838561 -0.359951,-0.03963 -0.769924,0.276711 -1.020419,0.695044 -0.250495,0.418333 -0.05049,0.711689 0.309462,0.751321 0.359952,0.03963 0.743537,-0.189479 0.994035,-0.607806 z"
     id="path906-4"
     inkscape:connector-curvature="0"
     sodipodi:nodetypes="sssss" />
  <path
     sodipodi:nodetypes="sssss"
     inkscape:connector-curvature="0"
     id="path839-1"
     d="m 19.112437,25.21286 c 0.397315,0.131104 0.76247,-0.209352 0.803624,-0.636233 0.04115,-0.426882 -0.257281,-0.778538 -0.654596,-0.909641 -0.397316,-0.131104 -0.679377,0.20709 -0.72053,0.633971 -0.04115,0.426881 0.174186,0.7808 0.571502,0.911903 z"
     style="fill:#000000;fill-opacity:0.530303;stroke:none;stroke-width:0.48574376;stroke-linecap:square;stroke-linejoin:miter;stroke-miterlimit:4;stroke-dasharray:none;stroke-opacity:1;paint-order:fill markers stroke" />
  <path
     style="fill:#000000;fill-opacity:0.530303;stroke:none;stroke-width:0.60159099;stroke-linecap:square;stroke-linejoin:miter;stroke-miterlimit:4;stroke-dasharray:none;stroke-opacity:1;paint-order:fill markers stroke"
     d="m 22.025079,15.216076 c 0.4845,0.164015 1.055882,-0.222366 1.226543,-0.718652 0.170678,-0.496257 -0.123979,-0.91447 -0.608479,-1.078481 -0.4845,-0.164013 -0.946436,0.222082 -1.117115,0.718336 -0.170679,0.496258 0.01453,0.914753 0.499032,1.078767 z"
     id="path837-2"
     inkscape:connector-curvature="0"
     sodipodi:nodetypes="sssss" />
  <path
     style="fill:#000000;fill-opacity:0.530303;stroke:none;stroke-width:0.54511517;stroke-linecap:square;stroke-linejoin:miter;stroke-miterlimit:4;stroke-dasharray:none;stroke-opacity:1;paint-order:fill markers stroke"
     d="m 24.846208,21.500951 c 0.465312,-0.127024 0.731621,-0.695406 0.625649,-1.140131 -0.105971,-0.444725 -0.544094,-0.597384 -1.009406,-0.470362 -0.465312,0.127024 -0.644695,0.639759 -0.538724,1.084484 0.105971,0.444725 0.457169,0.653033 0.922481,0.526009 z"
     id="path832-4"
     inkscape:connector-curvature="0"
     sodipodi:nodetypes="sssss" />
</svg>
