<svg xmlns="http://www.w3.org/2000/svg" xmlns:xlink="http://www.w3.org/1999/xlink" width="2720" height="1568"><defs><pattern xlink:href="#a" id="T" patternTransform="translate(2112.022 1040.948)"/><pattern xlink:href="#b" id="a" patternTransform="translate(2112.022 1040.948)"/><pattern xlink:href="#c" id="S" patternTransform="translate(403.126 209.445) scale(.26458)"/><pattern xlink:href="#d" id="c" patternTransform="translate(403.126 209.445) scale(.26458)"/><pattern xlink:href="#e" id="d" patternTransform="translate(2112 1088)"/><pattern xlink:href="#f" id="R" patternTransform="translate(403.13 209.449) scale(.26458)"/><pattern xlink:href="#g" id="f" patternTransform="translate(2112.018 1088.014)"/><pattern xlink:href="#h" id="g" patternTransform="translate(403.13 209.449) scale(.26458)"/><pattern xlink:href="#i" id="h" patternTransform="translate(542.835 230.59) scale(.26458)"/><pattern xlink:href="#j" id="i" patternTransform="translate(2640.035 1167.92)"/><pattern xlink:href="#k" id="Q" patternTransform="translate(326.962 217.839) scale(.26458)"/><pattern xlink:href="#l" id="k" patternTransform="translate(1824.139 1119.724)"/><pattern xlink:href="#m" id="P" patternTransform="translate(403.126 268.712) scale(.26458)"/><pattern xlink:href="#n" id="m" patternTransform="translate(2112 1312)"/><pattern xlink:href="#o" id="n" patternTransform="translate(403.126 268.712) scale(.26458)"/><pattern xlink:href="#p" id="b" patternTransform="translate(2112.022 1040.948)"/><pattern xlink:href="#q" id="p" patternTransform="translate(2320 1311.993)"/><pattern xlink:href="#r" id="O" patternTransform="translate(428.458 217.973) scale(.26458)"/><pattern xlink:href="#s" id="r" patternTransform="translate(2207.744 1120.233)"/><pattern xlink:href="#t" id="s" patternTransform="translate(428.458 217.973) scale(.26458)"/><pattern xlink:href="#u" id="t" patternTransform="translate(2239.744 1088.233)"/><pattern xlink:href="#v" id="j" patternTransform="translate(542.835 230.59) scale(.26458)"/><pattern xlink:href="#w" id="v" patternTransform="translate(2720.07 1311.956)"/><pattern xlink:href="#x" id="l" patternTransform="translate(326.962 217.839) scale(.26458)"/><pattern xlink:href="#y" id="x" patternTransform="translate(1824.139 1215.67)"/><pattern xlink:href="#z" id="o" patternTransform="translate(420.06 260.245) scale(.26458)"/><pattern xlink:href="#A" id="z" patternTransform="translate(2176 1280)"/><pattern xlink:href="#B" id="y" patternTransform="translate(326.963 243.224) scale(.26458)"/><pattern xlink:href="#C" id="B" patternTransform="translate(1760.07 1295.826)"/><pattern xlink:href="#D" id="u" patternTransform="translate(436.925 209.506) scale(.26458)"/><pattern xlink:href="#E" id="D" patternTransform="translate(2255.744 1088.233)"/><pattern xlink:href="#F" id="E" patternTransform="translate(441.158 209.506) scale(.26458)"/><pattern xlink:href="#G" id="q" patternTransform="translate(458.16 268.71) scale(.26458)"/><pattern xlink:href="#H" id="G" patternTransform="translate(2160 1247.993)"/><pattern xlink:href="#F" id="H" patternTransform="translate(415.826 251.776) scale(.26458)"/><pattern xlink:href="#I" id="C" patternTransform="translate(310.01 264.432) scale(.26458)"/><pattern xlink:href="#J" id="I" patternTransform="translate(1920.139 1167.993)"/><pattern xlink:href="#F" id="J" patternTransform="translate(352.363 230.61) scale(.26458)"/><pattern xlink:href="#K" id="w" patternTransform="translate(564.01 268.7) scale(.26458)"/><pattern xlink:href="#L" id="K" patternTransform="translate(2240.07 1119.715)"/><pattern xlink:href="#F" id="L" patternTransform="translate(437.01 217.836) scale(.26458)"/><pattern xlink:href="#M" id="A" patternTransform="translate(420.06 260.245) scale(.26458)"/><pattern xlink:href="#N" id="M" patternTransform="translate(2208 1198)"/><pattern xlink:href="#F" id="N" patternTransform="translate(428.526 238.55) scale(.26458)"/><pattern patternUnits="userSpaceOnUse" width="160" height="160" patternTransform="translate(403.126 209.445) scale(.26458)" id="F"><path fill="none" stroke-width="1.89" d="M0 0h160v160H0z"/><path fill="#665a4e" stroke-width="18.898" stroke-miterlimit="10" d="M0 0h160v160H0z"/><path fill-opacity=".354" stroke-width="6.158" stroke-miterlimit="10" d="M40 0h2v160h-2zM0 0h2v160H0z"/><path transform="rotate(90)" fill-opacity=".354" stroke-width="3.001" stroke-miterlimit="10" d="M0-40h2v38H0zm120-40h2v38h-2z"/><path fill-opacity=".354" stroke-width="6.158" stroke-miterlimit="10" d="M80 0h2v160h-2zm40 0h2v160h-2z"/><path transform="rotate(90)" fill-opacity=".354" stroke-width="3.001" stroke-miterlimit="10" d="M40-120h2v38h-2zm40-40h2v38h-2z"/></pattern><clipPath id="ac"><path d="M589.392 116.312L547.06 31.645l42.333-84.667z" fill="url(#O)" stroke-width="2.117"/></clipPath><clipPath id="ad"><path d="M199.926 378.778l93.142-42.295 93.124 42.295z" fill="url(#P)" stroke-width="2.206"/></clipPath><clipPath id="ae"><path d="M216.84 285.701l.038-254.112-93.127-84.646-.025 380.962z" fill="url(#Q)" stroke-width="2.661"/></clipPath><pattern patternUnits="userSpaceOnUse" width="160" height="160" patternTransform="translate(403.126 209.445) scale(.26458)" id="e"><path fill="none" stroke-width="1.89" d="M0 0h160v160H0z"/><path fill="#665a4e" stroke-width="18.898" stroke-miterlimit="10" d="M0 0h160v160H0z"/><path fill-opacity=".354" stroke-width="6.158" stroke-miterlimit="10" d="M40 0h2v160h-2zM0 0h2v160H0z"/><path transform="rotate(90)" fill-opacity=".354" stroke-width="3.001" stroke-miterlimit="10" d="M0-40h2v38H0zm120-40h2v38h-2z"/><path fill-opacity=".354" stroke-width="6.158" stroke-miterlimit="10" d="M80 0h2v160h-2zm40 0h2v160h-2z"/><path transform="rotate(90)" fill-opacity=".354" stroke-width="3.001" stroke-miterlimit="10" d="M40-120h2v38h-2zm40-40h2v38h-2z"/></pattern><clipPath id="ab"><path d="M293.045 23.199v254.025l93.152 42.291V107.852zm25.414 93.113h8.467v8.466h8.466v21.167h8.467v25.4h-8.467v12.7H318.46v-8.467h-8.467v-16.933h8.467v-12.7h-8.467v-16.933h8.467z" fill="url(#R)" stroke-width="2.661"/></clipPath><clipPath id="aa"><path d="M1343.947 64.078l352 320h864.008l159.992-320zM2000 112h64v32h32v64h-48v32h-96v-32h-48v-32h32v-32h64z" fill="url(#S)" stroke-width="8"/></clipPath><clipPath id="X"><path d="M0 0h96v191.999H0z"/></clipPath><clipPath id="Y"><path d="M0 0h96v191.999H0z"/></clipPath><clipPath id="W"><path d="M-155.67 82.445h304.8v59.267H-43.487l-3.175-6.35-5.292-2.117-5.291 3.175-5.292-5.292-8.467 4.233h-5.291l-5.292 6.35h-74.087z" fill="#53525b" stroke-width="6.35" stroke-opacity=".227"/></clipPath><clipPath id="V"><path d="M-155.67-27.622h355.604V82.445H-155.67z" fill="#53525b" stroke-width="6.35" stroke-opacity=".227"/></clipPath><clipPath id="Z"><path d="M2048.019 656.956l-352.074-319.951 864.08-.064 159.996 320.004z" fill="url(#T)" stroke-width="8.001"/></clipPath><pattern patternUnits="userSpaceOnUse" width="48" height="48" patternTransform="translate(-214.94 -19.155) scale(.26458)" id="U"><path fill="none" stroke-width="3.78" d="M0 0h48v48H0z"/><path d="M0 0h48v48H0z" fill="#637262" stroke-width="5.669" stroke-miterlimit="10"/><path d="M22.5 48V25.5H0v-3h22.5V0h3v22.5H48v3H25.5V48z" fill="#505a50" stroke-width=".53"/></pattern></defs><path transform="translate(588.38 296.399) scale(3.77956)" clip-path="url(#V)" d="M-155.67-27.622h355.604V82.445H-155.67z" fill="#53525b" stroke="#191919" stroke-width="4.233"/><path transform="translate(588.38 296.399) scale(3.77956)" clip-path="url(#W)" d="M-155.67 82.445h304.8v59.267H-43.487l-3.175-6.35-5.292-2.117-5.291 3.175-5.292-5.292-8.467 4.233h-5.291l-5.292 6.35h-74.087z" fill="#424148" stroke="#191919" stroke-width="4.233"/><path d="M192.002 196.003H256v408.002h-64zm1148.007 174v63.999H271.999v-64z" fill="#2e2d32" fill-opacity=".338"/><path d="M0 0h96v191.999H0z" clip-path="url(#X)" transform="translate(176.003 306.003)" fill="#cfcfcf" stroke="#000" stroke-width="12"/><path d="M182 312.001l42.003 44.002L182.001 402l42.002 46.001-42.002 44.002zm84.005 180.002l-42.002-44.002 41.999-45.997-41.999-46.001 41.999-44.002z" fill="#939393"/><path d="M182 402.005h84.005" fill="none" stroke="#939393" stroke-width="5.038"/><path d="M0 0h96v191.999H0z" clip-path="url(#Y)" transform="rotate(90 372.997 723.997)" fill="#cfcfcf" stroke="#000" stroke-width="12"/><path d="M1091.008 357.001l-43.994 42.006-46.001-42.002-45.998 42.002-44.001-42.002z" fill="#939393"/><path d="M911.01 441.002l43.998-41.999 46.001 41.999 45.997-41.999 44.002 41.999z" fill="#939393"/><path d="M1001.009 357.001v84" fill="none" stroke="#939393" stroke-width="5.038"/><path d="M200 612.004h48v216.002h-48zm769.007-165h64v157.001h-64zm7 165h48v216.002h-48z" fill="#2e2d32" fill-opacity=".338"/><path clip-path="url(#Z)" d="M2048.019 656.956l-352.074-319.951 864.08-.064 159.996 320.004z" fill="url(#b)" stroke="#000" stroke-width="8" transform="translate(0 47.064)"/><path transform="translate(0 -.078)" d="M1343.947 64.078l352 320h864.008l159.992-320zM2000 112h64v32h32v64h-48v32h-96v-32h-48v-32h32v-32h64z" clip-path="url(#aa)" fill="url(#d)" stroke="#000" stroke-width="8"/><path d="M293.045 23.199v254.025l93.152 42.291V107.852zm25.414 93.113h8.467v8.466h8.466v21.167h8.467v25.4h-8.467v12.7H318.46v-8.467h-8.467v-16.933h8.467v-12.7h-8.467v-16.933h8.467z" clip-path="url(#ab)" transform="translate(588.364 296.387) scale(3.77956)" fill="url(#g)" stroke="#000" stroke-width="2.117"/><path d="M1696.013 384.001l352.006 320.004v800.004l-352.006-160z" fill-opacity=".235"/><path clip-path="url(#ac)" d="M589.392 116.312L547.06 31.645l42.333-84.667z" transform="translate(492.382 264.397) scale(3.77956)" fill="url(#s)" stroke="#000" stroke-width="2.117"/><path clip-path="url(#ad)" d="M199.926 378.778l93.142-42.295 93.124 42.295z" transform="translate(588.364 72.324) scale(3.77956)" fill="url(#n)" stroke="#000" stroke-width="2.117"/><path clip-path="url(#ae)" d="M216.84 285.701l.038-254.112-93.127-84.646-.025 380.962z" transform="translate(876.31 264.608) scale(3.77956)" fill="url(#l)" stroke="#000" stroke-width="2.117"/><path d="M1695.983 1344.255l352.055 159.826H1344.03z" fill-opacity=".353"/><path d="M1792.014 992.008h64.003v-48h31.998v-96.002h-31.998v-80.002h-32.001v-32h-32.002v48h-31.998v64.003h31.998v48h-31.998v64h31.998zm304.005-784.01v-63.999h-32.001v-32.002h-64v32.002h-64.003V176h-31.997v31.998h48V240h96v-32.002z" fill="#665a4e" fill-opacity=".4"/><path d="M2560.025 384.001l160.003-320.004v640.008z" fill-opacity=".353"/><path d="M2047.998 703.075l-352.074-319.95 864.08-.065L2720 703.064z" fill-opacity=".235"/></svg>